<svg xmlns="http://www.w3.org/2000/svg" width="1000" height="550" viewBox="0 0 1000 550"><defs><style>.cls-1{fill:#fff;}.cls-10,.cls-11,.cls-14,.cls-2,.cls-22,.cls-24,.cls-3,.cls-4,.cls-6,.cls-7,.cls-8{fill:none;}.cls-2,.cls-3,.cls-4{stroke:#d8d8d8;}.cls-10,.cls-11,.cls-14,.cls-16,.cls-2,.cls-20,.cls-21,.cls-22,.cls-23,.cls-24,.cls-3,.cls-4,.cls-6,.cls-7,.cls-8{stroke-miterlimit:10;}.cls-3{stroke-dasharray:2.9951 1.9967;}.cls-4{stroke-dasharray:3.0073 2.0049;}.cls-5{fill:#eaeaea;}.cls-10,.cls-11,.cls-16,.cls-20,.cls-21,.cls-22,.cls-23,.cls-6,.cls-7,.cls-8{stroke:#000f5e;}.cls-7{stroke-dasharray:2.9879 1.9919;}.cls-16,.cls-8{stroke-dasharray:3 2;}.cls-21,.cls-9{fill:#edf5ff;}.cls-10{stroke-dasharray:3.011 2.0074;}.cls-11{stroke-dasharray:2.9871 1.9914;}.cls-12{fill:#b380e0;opacity:0.15;}.cls-13{fill:#000f5e;}.cls-14,.cls-24{stroke:#a71c71;}.cls-15{fill:#a71c71;}.cls-16{fill:#c5deff;}.cls-17{fill:#ede9e7;}.cls-18{fill:#23292e;}.cls-19{fill:#a8a3a3;}.cls-20{fill:#69a6ff;}.cls-20,.cls-21,.cls-22,.cls-23{stroke-width:2px;}.cls-23{fill:#003bc9;}.cls-24{stroke-dasharray:1 1;}.cls-25{fill:#efc100;}.cls-26{fill:#cba9e6;}.cls-27{fill:#6e177d;}.cls-28{fill:#9bc1fa;}.cls-29{fill:#5aa700;}.cls-30{fill:#272727;}.cls-31{fill:#ceaceb;}</style></defs><title>kp-integrations</title><g id="Visual"><rect class="cls-1" x="340.5" y="83.5" width="609" height="416"/><polyline class="cls-2" points="949.5 498 949.5 499.5 948 499.5"/><line class="cls-3" x1="946.0033" y1="499.5" x2="342.9984" y2="499.5"/><polyline class="cls-2" points="342 499.5 340.5 499.5 340.5 498"/><line class="cls-4" x1="340.5" y1="495.9951" x2="340.5" y2="86.0024"/><polyline class="cls-2" points="340.5 85 340.5 83.5 342 83.5"/><line class="cls-3" x1="343.9967" y1="83.5" x2="947.0016" y2="83.5"/><polyline class="cls-2" points="948 83.5 949.5 83.5 949.5 85"/><line class="cls-4" x1="949.5" y1="87.0049" x2="949.5" y2="496.9976"/><rect class="cls-5" x="683.5" y="294.5" width="249" height="150"/><polyline class="cls-6" points="932.5 443 932.5 444.5 931 444.5"/><line class="cls-7" x1="929.0081" y1="444.5" x2="685.996" y2="444.5"/><polyline class="cls-6" points="685 444.5 683.5 444.5 683.5 443"/><line class="cls-8" x1="683.5" y1="441" x2="683.5" y2="297"/><polyline class="cls-6" points="683.5 296 683.5 294.5 685 294.5"/><line class="cls-7" x1="686.9919" y1="294.5" x2="930.004" y2="294.5"/><polyline class="cls-6" points="931 294.5 932.5 294.5 932.5 296"/><line class="cls-8" x1="932.5" y1="298" x2="932.5" y2="442"/><rect class="cls-5" x="683.5" y="123.5" width="249" height="150"/><polyline class="cls-6" points="932.5 272 932.5 273.5 931 273.5"/><line class="cls-7" x1="929.0081" y1="273.5" x2="685.996" y2="273.5"/><polyline class="cls-6" points="685 273.5 683.5 273.5 683.5 272"/><line class="cls-8" x1="683.5" y1="270" x2="683.5" y2="126"/><polyline class="cls-6" points="683.5 125 683.5 123.5 685 123.5"/><line class="cls-7" x1="686.9919" y1="123.5" x2="930.004" y2="123.5"/><polyline class="cls-6" points="931 123.5 932.5 123.5 932.5 125"/><line class="cls-8" x1="932.5" y1="127" x2="932.5" y2="271"/><rect class="cls-9" x="363.5" y="123.5" width="276" height="234"/><polyline class="cls-6" points="639.5 356 639.5 357.5 638 357.5"/><line class="cls-10" x1="635.9927" y1="357.5" x2="366.0037" y2="357.5"/><polyline class="cls-6" points="365 357.5 363.5 357.5 363.5 356"/><line class="cls-11" x1="363.5" y1="354.0086" x2="363.5" y2="125.9957"/><polyline class="cls-6" points="363.5 125 363.5 123.5 365 123.5"/><line class="cls-10" x1="367.0074" y1="123.5" x2="636.9963" y2="123.5"/><polyline class="cls-6" points="638 123.5 639.5 123.5 639.5 125"/><line class="cls-11" x1="639.5" y1="126.9914" x2="639.5" y2="355.0043"/><path class="cls-12" d="M442,408H622a0,0,0,0,1,0,0v54.4939A10.5061,10.5061,0,0,1,611.4939,473H452.5061A10.5061,10.5061,0,0,1,442,462.4939V408A0,0,0,0,1,442,408Z"/><path class="cls-12" d="M185,183H326a0,0,0,0,1,0,0v23.4939A10.5061,10.5061,0,0,1,315.4939,217H195.5061A10.5061,10.5061,0,0,1,185,206.4939V183A0,0,0,0,1,185,183Z"/><line class="cls-6" x1="371.8238" y1="183.25" x2="152.0468" y2="183.25"/><polygon class="cls-13" points="370.365 178.264 379 183.25 370.365 188.236 370.365 178.264"/><path class="cls-1" d="M152.26,179.49a3.76,3.76,0,1,0,3.76,3.76A3.76,3.76,0,0,0,152.26,179.49Z"/><path class="cls-13" d="M152.26,178.99a4.26,4.26,0,1,1-4.26,4.26,4.2649,4.2649,0,0,1,4.26-4.26Zm0,7.52a3.26,3.26,0,1,0-3.26-3.26,3.2629,3.2629,0,0,0,3.26,3.26Z"/><polyline class="cls-14" points="708 199.5 663.5 199.5 663.5 407.5 415.5 407.5 415.5 236.072"/><rect class="cls-15" x="707.5" y="196.25" width="1" height="6.5"/><path class="cls-15" d="M419.26,236.26a3.76,3.76,0,1,0-3.76,3.76A3.76,3.76,0,0,0,419.26,236.26Z"/><line class="cls-14" x1="664" y1="366.5" x2="708.5" y2="366.5"/><rect class="cls-15" x="708" y="363.25" width="1" height="6.5"/><polygon class="cls-16" points="379.5 260.5 379.5 299.75 379.5 339 500.5 339 622.5 339 622.5 299.75 622.5 260.5 379.5 260.5"/><g id="Hardware_security_module" data-name="Hardware security module"><g id="HSM"><rect class="cls-17" x="394.0957" y="296.8042" width="48.5" height="12.7886"/><path class="cls-18" d="M441.8456,297.5543v11.2883h-47V297.5543h47m1.5-1.5h-50v14.2883h50V296.0543Z"/><rect class="cls-18" x="416.0898" y="301.9458" width="21.5216" height="2.8962"/><circle class="cls-18" cx="410.8049" cy="303.3939" r="1.713"/><circle class="cls-18" cx="405.4182" cy="303.3939" r="1.713"/><circle class="cls-18" cx="400.0315" cy="303.3939" r="1.713"/><polygon class="cls-19" points="394.565 295.304 397.299 289.898 438.826 289.898 442.029 295.304 394.565 295.304"/><path class="cls-18" d="M438.3991,290.6477l2.3144,3.9066H395.7851l1.9756-3.9066h40.6384m.8549-1.5H396.8384l-3.4928,6.9066h50l-4.0916-6.9066Z"/></g></g><rect class="cls-20" x="59" y="168.4902" width="69" height="31"/><polygon class="cls-21" points="58.5 146.49 58.5 195.648 52.865 199.49 58.5 199.49 91.135 199.49 94.5 199.49 94.5 146.49 58.5 146.49"/><line class="cls-22" x1="77" y1="133.4424" x2="77" y2="146.4424"/><rect class="cls-23" x="67" y="187.4424" width="21" height="12"/><line class="cls-22" x1="74" y1="188.4424" x2="74" y2="199.4424"/><line class="cls-22" x1="77" y1="193.4424" x2="77" y2="195.4424"/><line class="cls-22" x1="100" y1="176.4424" x2="123" y2="176.4424"/><line class="cls-22" x1="100" y1="180.4424" x2="123" y2="180.4424"/><line class="cls-22" x1="100" y1="184.4424" x2="123" y2="184.4424"/><line class="cls-22" x1="66" y1="155.4424" x2="89" y2="155.4424"/><line class="cls-22" x1="66" y1="159.4424" x2="89" y2="159.4424"/><line class="cls-22" x1="66" y1="163.4424" x2="89" y2="163.4424"/><line class="cls-22" x1="66" y1="167.4424" x2="89" y2="167.4424"/><line class="cls-24" x1="788.5" y1="194.5" x2="825.8238" y2="194.5"/><rect class="cls-15" x="788" y="191.25" width="1" height="6.5"/><polygon class="cls-15" points="824.365 199.486 833 194.5 824.365 189.514 824.365 199.486"/><line class="cls-24" x1="788.5" y1="366.5" x2="825.8238" y2="366.5"/><rect class="cls-15" x="788" y="363.25" width="1" height="6.5"/><polygon class="cls-15" points="824.365 371.486 833 366.5 824.365 361.514 824.365 371.486"/><path class="cls-25" d="M762.6754,194.5235a2.6259,2.6259,0,0,1-2.0259.8353,7.7111,7.7111,0,0,1-2.1557-.2616,20.3867,20.3867,0,0,1-3.9875-1.5242,37.8172,37.8172,0,0,1-7.0388-4.7264,26.0368,26.0368,0,0,1-5.9113-6.19,15.57,15.57,0,0,1-1.7858-4.0518,10.7417,10.7417,0,0,1-.2253-1.1249,7.1458,7.1458,0,0,1-.0321-1.1869,4.1514,4.1514,0,0,1,.2592-1.19c.1044-.1907.21-.3711.3158-.5377.152-.15.31-.2819.4536-.4007l.2208.2031a2.3243,2.3243,0,0,0,.1131,1.7773,9.039,9.039,0,0,0,.8472,1.6589,33.2208,33.2208,0,0,0,2.29,3.1308c1.6792,1.9973,3.193,4.213,5.0791,6.1447a42.9677,42.9677,0,0,0,6.1694,5.1968,19.2272,19.2272,0,0,0,3.51,1.9384,7.0443,7.0443,0,0,0,1.8931.5079,2.1813,2.1813,0,0,0,1.79-.4029Z"/><path class="cls-26" d="M768.9673,170.7751l-7.0534-.26.2431.2721h-.136l-.288-.288-13.5982,13.5983.1593.1593-2.3966,2.3966a11.1265,11.1265,0,0,0-3.2439-.4815,10.3915,10.3915,0,1,0,10.7692,10.3846,10.013,10.013,0,0,0-.6653-3.5655l3.7422-3.7422-.7692-.7692,1.9481-1.9481.7362.7362,9.753-9.753.2668.2986.0463-.6116.2686-.2686-.2308-.2309Z"/><path class="cls-27" d="M762.0767,169.5385l-15.883,15.8823a11.5461,11.5461,0,1,0,7.6923,7.6924l3.0625-3.0619v-2.5641h2.5641l10.2564-10.2564v-7.6923Zm6.41,7.1612-9.5052,9.5054h-3.3154V189.52l-2.6869,2.6862-.5435.5436.2233.7356a10.2609,10.2609,0,1,1-6.8374-6.8379l.7349.2228.5433-.5433,15.5074-15.5067h5.88Z"/><circle class="cls-27" cx="740.1893" cy="199.0887" r="2.5641"/><rect class="cls-27" x="755.2625" y="177.9352" width="10.8784" height="1.282" transform="translate(96.531 590.1996) rotate(-44.9999)"/><path class="cls-28" d="M766.66,169.2366l-7.0534-.26.2431.2722h-.136l-.2879-.288-13.5983,13.5982.1593.1593-2.3966,2.3966a11.1265,11.1265,0,0,0-3.2439-.4815,10.3915,10.3915,0,1,0,10.7692,10.3846,10.0124,10.0124,0,0,0-.6653-3.5654l3.7422-3.7423-.7692-.7692,1.9481-1.9481.7362.7363,9.753-9.753.2668.2985.0463-.6116.2686-.2686-.2308-.2308Z"/><path class="cls-13" d="M759.769,168l-15.883,15.8824a11.546,11.546,0,1,0,7.6923,7.6923l3.0625-3.0619v-2.5641h2.5641l10.2564-10.2564V168Zm6.41,7.1612-9.5052,9.5055h-3.3154v3.315l-2.6869,2.6863-.5435.5435.2234.7356a10.2616,10.2616,0,1,1-6.8375-6.8378l.7349.2227.5433-.5432L760.3,169.2821h5.88Z"/><circle class="cls-13" cx="737.8816" cy="197.5503" r="2.5641"/><rect class="cls-13" x="752.9548" y="176.3967" width="10.8784" height="1.282" transform="translate(96.943 588.1172) rotate(-44.9999)"/><path class="cls-25" d="M740.5416,174.1654a2.6259,2.6259,0,0,1,2.0259-.8353,7.7113,7.7113,0,0,1,2.1558.2616,20.385,20.385,0,0,1,3.9873,1.5242,37.81,37.81,0,0,1,7.0389,4.7264,26.0373,26.0373,0,0,1,5.9114,6.19,15.577,15.577,0,0,1,1.7858,4.0518,10.7362,10.7362,0,0,1,.2252,1.1249,7.1449,7.1449,0,0,1,.0321,1.1868,4.1552,4.1552,0,0,1-.2591,1.19c-.1044.1907-.21.371-.3158.5377-.152.15-.31.2819-.4537.4007l-.2208-.2031a2.3241,2.3241,0,0,0-.1131-1.7774,9.035,9.035,0,0,0-.8472-1.6588,33.2173,33.2173,0,0,0-2.29-3.1309c-1.6791-1.9972-3.193-4.2129-5.0791-6.1446a42.9568,42.9568,0,0,0-6.1694-5.1968,19.23,19.23,0,0,0-3.51-1.9385,7.043,7.043,0,0,0-1.8931-.5078,2.181,2.181,0,0,0-1.79.4029Z"/><ellipse class="cls-1" cx="764.3844" cy="201.5564" rx="4.2308" ry="4.6154"/><path class="cls-29" d="M768.6152,195.6253a4.6341,4.6341,0,0,0-6.6211-4.146,4.787,4.787,0,0,0-2.61,4.3477V197.72a6.1535,6.1535,0,1,0,9.2308-.0008Zm-7.6924,0a3.0667,3.0667,0,0,1,4.8249-2.4915,3.33,3.33,0,0,1,1.329,2.7272v.5943a6.1158,6.1158,0,0,0-6.1539.0008Zm2.1728,9.5492-2.8515-2.8515,1.0877-1.0877,1.7638,1.7638,4.0716-4.0715,1.0877,1.0877Z"/><path class="cls-25" d="M762.6754,365.5235a2.6259,2.6259,0,0,1-2.0259.8353,7.7111,7.7111,0,0,1-2.1557-.2616,20.3867,20.3867,0,0,1-3.9875-1.5242,37.8123,37.8123,0,0,1-7.0388-4.7264,26.0368,26.0368,0,0,1-5.9113-6.19,15.57,15.57,0,0,1-1.7858-4.0518,10.7365,10.7365,0,0,1-.2253-1.1249,7.1449,7.1449,0,0,1-.0321-1.1868,4.1513,4.1513,0,0,1,.2592-1.19c.1044-.1907.21-.371.3158-.5378.152-.15.31-.2818.4536-.4006l.2208.2031a2.3243,2.3243,0,0,0,.1131,1.7773,9.039,9.039,0,0,0,.8472,1.6589,33.2208,33.2208,0,0,0,2.29,3.1308c1.6792,1.9973,3.193,4.213,5.0791,6.1447a42.9677,42.9677,0,0,0,6.1694,5.1968,19.2337,19.2337,0,0,0,3.51,1.9385,7.0477,7.0477,0,0,0,1.8931.5078,2.181,2.181,0,0,0,1.79-.4029Z"/><path class="cls-26" d="M768.9673,341.7751l-7.0534-.26.2431.2721h-.136l-.288-.288-13.5982,13.5983.1593.1593-2.3966,2.3966a11.1265,11.1265,0,0,0-3.2439-.4815,10.3915,10.3915,0,1,0,10.7692,10.3846,10.013,10.013,0,0,0-.6653-3.5655l3.7422-3.7422-.7692-.7692,1.9481-1.9481.7362.7362,9.753-9.753.2668.2986.0463-.6116.2686-.2686-.2308-.2309Z"/><path class="cls-27" d="M762.0767,340.5385l-15.883,15.8823a11.5461,11.5461,0,1,0,7.6923,7.6924l3.0625-3.0619v-2.5641h2.5641l10.2564-10.2564v-7.6923Zm6.41,7.1612-9.5052,9.5054h-3.3154V360.52l-2.6869,2.6862-.5435.5436.2233.7356a10.2609,10.2609,0,1,1-6.8374-6.8379l.7349.2228.5433-.5433,15.5074-15.5067h5.88Z"/><circle class="cls-27" cx="740.1893" cy="370.0887" r="2.5641"/><rect class="cls-27" x="755.2625" y="348.9352" width="10.8784" height="1.282" transform="translate(-24.384 640.2841) rotate(-44.9999)"/><path class="cls-28" d="M766.66,340.2366l-7.0534-.26.2431.2722h-.136l-.2879-.288-13.5983,13.5982.1593.1593-2.3966,2.3966a11.1265,11.1265,0,0,0-3.2439-.4815,10.3915,10.3915,0,1,0,10.7692,10.3846,10.0124,10.0124,0,0,0-.6653-3.5654l3.7422-3.7423-.7692-.7692,1.9481-1.9481.7362.7363,9.753-9.753.2668.2985.0463-.6116.2686-.2686-.2308-.2308Z"/><path class="cls-13" d="M759.769,339l-15.883,15.8824a11.546,11.546,0,1,0,7.6923,7.6923l3.0625-3.0619v-2.5641h2.5641l10.2564-10.2564V339Zm6.41,7.1612-9.5052,9.5055h-3.3154v3.315l-2.6869,2.6863-.5435.5435.2234.7356a10.2616,10.2616,0,1,1-6.8375-6.8378l.7349.2227.5433-.5432L760.3,340.2821h5.88Z"/><circle class="cls-13" cx="737.8816" cy="368.5503" r="2.5641"/><rect class="cls-13" x="752.9548" y="347.3967" width="10.8784" height="1.282" transform="translate(-23.972 638.2017) rotate(-44.9999)"/><path class="cls-25" d="M740.5416,345.1654a2.6259,2.6259,0,0,1,2.0259-.8353,7.7076,7.7076,0,0,1,2.1558.2616,20.385,20.385,0,0,1,3.9873,1.5242,37.81,37.81,0,0,1,7.0389,4.7264,26.0373,26.0373,0,0,1,5.9114,6.19,15.5755,15.5755,0,0,1,1.7858,4.0518,10.7414,10.7414,0,0,1,.2252,1.1249,7.1449,7.1449,0,0,1,.0321,1.1868,4.1552,4.1552,0,0,1-.2591,1.19c-.1044.1907-.21.371-.3158.5377-.152.15-.31.2819-.4537.4007l-.2208-.2031a2.3238,2.3238,0,0,0-.1131-1.7773,9.0327,9.0327,0,0,0-.8472-1.6589,33.2173,33.2173,0,0,0-2.29-3.1309c-1.6791-1.9972-3.193-4.2129-5.0791-6.1446a42.9568,42.9568,0,0,0-6.1694-5.1968,19.23,19.23,0,0,0-3.51-1.9385,7.0467,7.0467,0,0,0-1.8931-.5078,2.181,2.181,0,0,0-1.79.4029Z"/><ellipse class="cls-1" cx="764.3844" cy="372.5564" rx="4.2308" ry="4.6154"/><path class="cls-29" d="M768.6152,366.6253a4.6341,4.6341,0,0,0-6.6211-4.146,4.787,4.787,0,0,0-2.61,4.3477V368.72a6.1535,6.1535,0,1,0,9.2308-.0008Zm-7.6924,0a3.0667,3.0667,0,0,1,4.8249-2.4915,3.33,3.33,0,0,1,1.329,2.7272v.5943a6.1158,6.1158,0,0,0-6.1539.0008Zm2.1728,9.5492-2.8515-2.8515,1.0877-1.0877,1.7638,1.7638,4.0716-4.0715,1.0877,1.0877Z"/><path class="cls-25" d="M889.6094,191.3715a3.4443,3.4443,0,0,1-1.787,2.2109,10.3921,10.3921,0,0,1-2.6432,1.04,26.3135,26.3135,0,0,1-5.5588.7355,53.1541,53.1541,0,0,1-11.1122-1.012c-3.6431-.7292-7.3727-1.5212-10.7277-3.3559a21.26,21.26,0,0,1-4.6958-3.3406,9.71,9.71,0,0,1-1.8367-2.3563,5.0207,5.0207,0,0,1-.51-1.466,2.5726,2.5726,0,0,1,.19-1.5241l.292.0685a3.1287,3.1287,0,0,0,1.1389,2.1186,11.5041,11.5041,0,0,0,2.032,1.5019,35.993,35.993,0,0,0,4.6847,2.2918,95.1511,95.1511,0,0,0,9.9807,3.7255,51.2512,51.2512,0,0,0,10.5858,1.8488,25.159,25.159,0,0,0,5.3476-.1406,9.7234,9.7234,0,0,0,2.5372-.6972,2.9954,2.9954,0,0,0,1.7908-1.7168Z"/><polygon class="cls-1" points="882.782 177.945 882.782 205.484 859.068 205.484 859.068 168.765 872.838 168.765 872.838 177.945 882.782 177.945"/><path class="cls-13" d="M873.304,168H858.0045v38.2485h25.4991V178.2Zm8.9246,36.9736H859.28V169.275h12.75v10.2h10.2Z"/><rect class="cls-13" x="863.1043" y="183.2994" width="15.2994" height="1.275"/><rect class="cls-13" x="863.1043" y="185.8493" width="15.2994" height="1.275"/><rect class="cls-13" x="863.1043" y="188.3992" width="7.6497" height="1.275"/><path class="cls-25" d="M850.9277,182.3025a3.4445,3.4445,0,0,1,1.787-2.2109,10.3921,10.3921,0,0,1,2.6432-1.04,26.32,26.32,0,0,1,5.5588-.7355,53.1608,53.1608,0,0,1,11.1122,1.012c3.6431.7292,7.3727,1.5212,10.7277,3.3559a21.2628,21.2628,0,0,1,4.6959,3.3406,9.7123,9.7123,0,0,1,1.8366,2.3563,5.0227,5.0227,0,0,1,.51,1.466,2.5726,2.5726,0,0,1-.19,1.5241l-.292-.0685a3.1289,3.1289,0,0,0-1.1389-2.1186,11.5,11.5,0,0,0-2.032-1.5019,35.9785,35.9785,0,0,0-4.6846-2.2917,95.1309,95.1309,0,0,0-9.9808-3.7256,51.2511,51.2511,0,0,0-10.5858-1.8487,25.1524,25.1524,0,0,0-5.3476.1405,9.7216,9.7216,0,0,0-2.5371.6972,2.9962,2.9962,0,0,0-1.7909,1.7168Z"/><ellipse class="cls-1" cx="879.34" cy="201.6587" rx="4.2073" ry="4.5898"/><path class="cls-29" d="M883.8462,195.7605a4.6085,4.6085,0,0,0-6.5844-4.1231,4.7607,4.7607,0,0,0-2.5953,4.3237v1.8824a6.1194,6.1194,0,1,0,9.18-.0008Zm-7.65,0a3.05,3.05,0,0,1,4.7981-2.4778,3.3123,3.3123,0,0,1,1.3216,2.7122v.591a6.0821,6.0821,0,0,0-6.12.0007Zm2.1607,9.4963-2.8357-2.8357,1.0817-1.0817,1.754,1.7541,4.049-4.049,1.0817,1.0817Z"/><path class="cls-25" d="M889.6094,362.3715a3.4443,3.4443,0,0,1-1.787,2.2109,10.3921,10.3921,0,0,1-2.6432,1.0395,26.3135,26.3135,0,0,1-5.5588.7355,53.1541,53.1541,0,0,1-11.1122-1.012c-3.6431-.7292-7.3727-1.5212-10.7277-3.3559a21.26,21.26,0,0,1-4.6958-3.3406,9.71,9.71,0,0,1-1.8367-2.3563,5.0227,5.0227,0,0,1-.51-1.466,2.5722,2.5722,0,0,1,.19-1.524l.292.0684a3.1287,3.1287,0,0,0,1.1389,2.1186,11.5041,11.5041,0,0,0,2.032,1.5019,35.993,35.993,0,0,0,4.6847,2.2918,95.1511,95.1511,0,0,0,9.9807,3.7255,51.2444,51.2444,0,0,0,10.5858,1.8487,25.1524,25.1524,0,0,0,5.3476-.1405,9.7234,9.7234,0,0,0,2.5372-.6972,2.9957,2.9957,0,0,0,1.7908-1.7168Z"/><polygon class="cls-1" points="882.782 348.945 882.782 376.484 859.068 376.484 859.068 339.765 872.838 339.765 872.838 348.945 882.782 348.945"/><path class="cls-13" d="M873.304,339H858.0045v38.2485h25.4991V349.2Zm8.9246,36.9736H859.28V340.275h12.75v10.2h10.2Z"/><rect class="cls-13" x="863.1043" y="354.2994" width="15.2994" height="1.275"/><rect class="cls-13" x="863.1043" y="356.8493" width="15.2994" height="1.275"/><rect class="cls-13" x="863.1043" y="359.3992" width="7.6497" height="1.275"/><path class="cls-25" d="M850.9277,353.3026a3.4445,3.4445,0,0,1,1.787-2.211,10.3921,10.3921,0,0,1,2.6432-1.04,26.32,26.32,0,0,1,5.5588-.7355,53.1608,53.1608,0,0,1,11.1122,1.012c3.6431.7293,7.3727,1.5212,10.7277,3.3559a21.2628,21.2628,0,0,1,4.6959,3.3406,9.7123,9.7123,0,0,1,1.8366,2.3563,5.0227,5.0227,0,0,1,.51,1.466,2.5725,2.5725,0,0,1-.19,1.5241l-.292-.0685a3.1289,3.1289,0,0,0-1.1389-2.1186,11.5,11.5,0,0,0-2.032-1.5019,35.9918,35.9918,0,0,0-4.6846-2.2918,95.13,95.13,0,0,0-9.9808-3.7254,51.2446,51.2446,0,0,0-10.5858-1.8488,25.1524,25.1524,0,0,0-5.3476.14,9.7216,9.7216,0,0,0-2.5371.6972,2.9962,2.9962,0,0,0-1.7909,1.7168Z"/><ellipse class="cls-1" cx="879.34" cy="372.6587" rx="4.2073" ry="4.5898"/><path class="cls-29" d="M883.8462,366.7605a4.6085,4.6085,0,0,0-6.5844-4.1231,4.7607,4.7607,0,0,0-2.5953,4.3237v1.8824a6.1194,6.1194,0,1,0,9.18-.0008Zm-7.65,0a3.05,3.05,0,0,1,4.7981-2.4778,3.3123,3.3123,0,0,1,1.3216,2.7122v.591a6.0821,6.0821,0,0,0-6.12.0007Zm2.1607,9.4963-2.8357-2.8357,1.0817-1.0817,1.754,1.7541,4.049-4.049,1.0817,1.0817Z"/></g><g id="Text"><path d="M849.99,403.8955l-1.87-7.6787h.98l.8252,3.6963.6377,2.8711h.0225l.7148-2.8711.9678-3.6963h1.0566l.9346,3.6963.7158,2.86h.0322l.66-2.86.8691-3.6963h.9463l-1.9687,7.6787H854.49l-1.0009-3.8281-.7041-2.8164h-.0225l-.7256,2.8164-1.0234,3.8281Z"/><path d="M858.5264,403.8955v-5.6767h.88v1.0449h.0547a1.6319,1.6319,0,0,1,1.64-1.0449h.3408v.88h-.5166c-.9463,0-1.5186.4073-1.5186.9463v3.8506Z"/><path d="M866.6445,403.8955a.916.916,0,0,1-.9785-.9238H865.61a1.6014,1.6014,0,0,1-1.6387,1.0556,1.6737,1.6737,0,0,1-1.9033-1.7158c0-1.0674.77-1.6611,2.42-1.6611H865.61v-.5615c0-.8028-.44-1.2432-1.3418-1.2432a1.5855,1.5855,0,0,0-1.4415.8477l-.5273-.4952a2.1555,2.1555,0,0,1,2.0127-1.1113c1.3643,0,2.1787.7149,2.1787,1.9141v3.125h.6484v.77Zm-1.0341-1.65v-.9346h-1.1661c-1.0009,0-1.4521.3077-1.4521.8584v.2305c0,.5615.44.88,1.1221.88C864.9834,403.2793,865.61,402.8281,865.61,402.2451Z"/><path d="M868.3926,398.2188h.8808v.9248h.044a1.6572,1.6572,0,0,1,1.6611-1.0567c1.419,0,2.3106,1.1553,2.3106,2.9707s-.8916,2.97-2.3106,2.97a1.71,1.71,0,0,1-1.6611-1.0556h-.044v3.124h-.8808Zm3.95,3.3222v-.9678a1.55,1.55,0,0,0-1.6065-1.6943c-.8027,0-1.4629.4619-1.4629,1.0889V402.08c0,.7373.66,1.1553,1.4629,1.1553A1.5491,1.5491,0,0,0,872.3428,401.541Z"/><path d="M874.7725,398.2188h.8808v.9248h.044a1.6571,1.6571,0,0,1,1.6611-1.0567c1.4189,0,2.3105,1.1553,2.3105,2.9707s-.8916,2.97-2.3105,2.97a1.71,1.71,0,0,1-1.6611-1.0556h-.044v3.124h-.8808Zm3.95,3.3222v-.9678a1.55,1.55,0,0,0-1.6065-1.6943c-.8027,0-1.4629.4619-1.4629,1.0889V402.08c0,.7373.66,1.1553,1.4629,1.1553A1.5491,1.5491,0,0,0,878.7227,401.541Z"/><path d="M880.7344,401.0576c0-1.8047,1.0127-2.9707,2.5527-2.9707a2.4853,2.4853,0,0,1,2.4531,2.7725v.4179h-4.081v.2637a1.6078,1.6078,0,0,0,1.6826,1.7168,1.6462,1.6462,0,0,0,1.5625-.9795l.6269.4512a2.3806,2.3806,0,0,1-2.2441,1.2978C881.7471,404.0273,880.7344,402.8613,880.7344,401.0576Zm.9248-.5176v.0772h3.1347v-.1211a1.5092,1.5092,0,0,0-1.5068-1.6719A1.613,1.613,0,0,0,881.6592,400.54Z"/><path d="M890.8223,402.9717h-.044a1.71,1.71,0,0,1-1.6611,1.0556c-1.419,0-2.3106-1.1543-2.3106-2.97s.8916-2.9707,2.3106-2.9707a1.6572,1.6572,0,0,1,1.6611,1.0567h.044v-3.3887h.88v8.1406h-.88Zm0-.8916v-2.1123c0-.627-.66-1.0889-1.4629-1.0889a1.55,1.55,0,0,0-1.6065,1.6943v.9678a1.5491,1.5491,0,0,0,1.6065,1.6944C890.1621,403.2354,890.8223,402.8174,890.8223,402.08Z"/><path d="M863.84,416.1719h-.0439a1.71,1.71,0,0,1-1.6611,1.0556c-1.419,0-2.3106-1.1543-2.3106-2.97s.8916-2.9707,2.3106-2.9707a1.6572,1.6572,0,0,1,1.6611,1.0567h.0439v-3.3887h.88v8.1406h-.88Zm0-.8916V413.168c0-.627-.66-1.0889-1.4628-1.0889a1.55,1.55,0,0,0-1.6065,1.6943v.9678a1.549,1.549,0,0,0,1.6065,1.6943C863.18,416.4355,863.84,416.0176,863.84,415.28Z"/><path d="M870.7148,417.0957a.9168.9168,0,0,1-.9794-.9238h-.0547a1.6026,1.6026,0,0,1-1.64,1.0556,1.6737,1.6737,0,0,1-1.9033-1.7158c0-1.0674.77-1.6611,2.4209-1.6611h1.1221v-.5615c0-.8028-.4405-1.2432-1.3418-1.2432a1.5832,1.5832,0,0,0-1.4414.8477l-.5284-.4952a2.1572,2.1572,0,0,1,2.0137-1.1113c1.3643,0,2.1777.7149,2.1777,1.9141v3.125h.6495v.77Zm-1.0341-1.65v-.9346h-1.1661c-1.0009,0-1.4521.3077-1.4521.8584V415.6c0,.5615.4395.88,1.1221.88C869.0537,416.48,869.6807,416.0283,869.6807,415.4453Z"/><path d="M873.7178,417.0957a.8665.8665,0,0,1-.9356-.9346V412.19h-.9355v-.7706h.5283c.374,0,.4951-.1318.4951-.5166v-1.0566h.792v1.5732h1.2432v.7706h-1.2432v4.1367h1.1553v.77Z"/><path d="M880.4492,417.0957a.916.916,0,0,1-.9785-.9238h-.0557a1.6012,1.6012,0,0,1-1.6386,1.0556,1.6737,1.6737,0,0,1-1.9034-1.7158c0-1.0674.7706-1.6611,2.42-1.6611h1.122v-.5615c0-.8028-.4394-1.2432-1.3418-1.2432a1.5855,1.5855,0,0,0-1.4414.8477l-.5273-.4952a2.1555,2.1555,0,0,1,2.0127-1.1113c1.3642,0,2.1787.7149,2.1787,1.9141v3.125h.6484v.77Zm-1.0342-1.65v-.9346h-1.166c-1.001,0-1.4521.3077-1.4521.8584V415.6c0,.5615.44.88,1.122.88C878.7881,416.48,879.415,416.0283,879.415,415.4453Z"/><path d="M717.0059,403.8955l-1.87-7.6787h.9795l.8252,3.6963.6377,2.8711h.0225l.7148-2.8711.9678-3.6963H720.34l.9346,3.6963.7158,2.86h.0323l.66-2.86.8692-3.6963h.9462l-1.9687,7.6787h-1.0234l-1.001-3.8281-.7041-2.8164h-.0225l-.7256,2.8164-1.0234,3.8281Z"/><path d="M725.542,403.8955v-5.6767h.88v1.0449h.0547a1.6317,1.6317,0,0,1,1.64-1.0449h.3408v.88H727.94c-.9463,0-1.5185.4073-1.5185.9463v3.8506Z"/><path d="M733.66,403.8955a.9161.9161,0,0,1-.9786-.9238h-.0556a1.6013,1.6013,0,0,1-1.6387,1.0556,1.6737,1.6737,0,0,1-1.9033-1.7158c0-1.0674.7705-1.6611,2.42-1.6611h1.1221v-.5615c0-.8028-.4395-1.2432-1.3418-1.2432a1.5854,1.5854,0,0,0-1.4414.8477l-.5274-.4952a2.1555,2.1555,0,0,1,2.0127-1.1113c1.3643,0,2.1787.7149,2.1787,1.9141v3.125h.6485v.77Zm-1.0342-1.65v-.9346H731.46c-1.001,0-1.4522.3077-1.4522.8584v.2305c0,.5615.44.88,1.1221.88C731.999,403.2793,732.626,402.8281,732.626,402.2451Z"/><path d="M735.4082,398.2188h.8809v.9248h.0439a1.6572,1.6572,0,0,1,1.6611-1.0567c1.419,0,2.3106,1.1553,2.3106,2.9707s-.8916,2.97-2.3106,2.97a1.71,1.71,0,0,1-1.6611-1.0556h-.0439v3.124h-.8809Zm3.95,3.3222v-.9678a1.55,1.55,0,0,0-1.6064-1.6943c-.8028,0-1.4629.4619-1.4629,1.0889V402.08c0,.7373.66,1.1553,1.4629,1.1553A1.549,1.549,0,0,0,739.3584,401.541Z"/><path d="M741.7881,398.2188h.8808v.9248h.044a1.6572,1.6572,0,0,1,1.6611-1.0567c1.419,0,2.3106,1.1553,2.3106,2.9707s-.8916,2.97-2.3106,2.97a1.71,1.71,0,0,1-1.6611-1.0556h-.044v3.124h-.8808Zm3.95,3.3222v-.9678a1.55,1.55,0,0,0-1.6065-1.6943c-.8027,0-1.4629.4619-1.4629,1.0889V402.08c0,.7373.66,1.1553,1.4629,1.1553A1.5491,1.5491,0,0,0,745.7383,401.541Z"/><path d="M747.75,401.0576c0-1.8047,1.0127-2.9707,2.5527-2.9707a2.4854,2.4854,0,0,1,2.4532,2.7725v.4179h-4.0811v.2637a1.6079,1.6079,0,0,0,1.6826,1.7168,1.6461,1.6461,0,0,0,1.5625-.9795l.627.4512a2.3809,2.3809,0,0,1-2.2442,1.2978C748.7627,404.0273,747.75,402.8613,747.75,401.0576Zm.9248-.5176v.0772H751.81v-.1211a1.5093,1.5093,0,0,0-1.5069-1.6719A1.613,1.613,0,0,0,748.6748,400.54Z"/><path d="M757.8379,402.9717h-.044a1.71,1.71,0,0,1-1.6611,1.0556c-1.4189,0-2.31-1.1543-2.31-2.97s.8916-2.9707,2.31-2.9707a1.6571,1.6571,0,0,1,1.6611,1.0567h.044v-3.3887h.88v8.1406h-.88Zm0-.8916v-2.1123c0-.627-.66-1.0889-1.4629-1.0889a1.55,1.55,0,0,0-1.6064,1.6943v.9678a1.549,1.549,0,0,0,1.6064,1.6944C757.1777,403.2354,757.8379,402.8174,757.8379,402.08Z"/><path d="M766.8135,402.9717h-.044a1.71,1.71,0,0,1-1.6611,1.0556c-1.4189,0-2.31-1.1543-2.31-2.97s.8916-2.9707,2.31-2.9707a1.6572,1.6572,0,0,1,1.6611,1.0567h.044v-3.3887h.88v8.1406h-.88Zm0-.8916v-2.1123c0-.627-.66-1.0889-1.4629-1.0889a1.55,1.55,0,0,0-1.6065,1.6943v.9678a1.5491,1.5491,0,0,0,1.6065,1.6944C766.1533,403.2354,766.8135,402.8174,766.8135,402.08Z"/><path d="M773.6885,403.8955a.9169.9169,0,0,1-.98-.9238h-.0547a1.6026,1.6026,0,0,1-1.64,1.0556,1.6737,1.6737,0,0,1-1.9033-1.7158c0-1.0674.77-1.6611,2.4209-1.6611h1.1221v-.5615c0-.8028-.44-1.2432-1.3418-1.2432a1.5833,1.5833,0,0,0-1.4414.8477l-.5283-.4952a2.157,2.157,0,0,1,2.0136-1.1113c1.3643,0,2.1778.7149,2.1778,1.9141v3.125h.6494v.77Zm-1.0342-1.65v-.9346h-1.166c-1.001,0-1.4522.3077-1.4522.8584v.2305c0,.5615.4395.88,1.1221.88C772.0273,403.2793,772.6543,402.8281,772.6543,402.2451Z"/><path d="M776.6914,403.8955a.8665.8665,0,0,1-.9355-.9346v-3.9716H774.82v-.7705h.5283c.3741,0,.4952-.1319.4952-.5167v-1.0566h.7919v1.5733h1.2432v.7705h-1.2432v4.1367h1.1553v.77Z"/><path d="M783.4238,403.8955a.9169.9169,0,0,1-.98-.9238H782.39a1.6024,1.6024,0,0,1-1.64,1.0556,1.6737,1.6737,0,0,1-1.9033-1.7158c0-1.0674.77-1.6611,2.4209-1.6611h1.122v-.5615c0-.8028-.44-1.2432-1.3417-1.2432a1.5834,1.5834,0,0,0-1.4415.8477l-.5283-.4952a2.1571,2.1571,0,0,1,2.0137-1.1113c1.3643,0,2.1777.7149,2.1777,1.9141v3.125h.6494v.77Zm-1.0342-1.65v-.9346h-1.166c-1.0009,0-1.4521.3077-1.4521.8584v.2305c0,.5615.4394.88,1.1221.88C781.7627,403.2793,782.39,402.8281,782.39,402.2451Z"/><path d="M713.86,414.2578c0-1.8047,1.0117-2.9707,2.5517-2.9707a2.486,2.486,0,0,1,2.4541,2.7725v.4179h-4.082v.2637a1.6081,1.6081,0,0,0,1.6836,1.7168,1.6448,1.6448,0,0,0,1.5615-.98l.6279.4512a2.3822,2.3822,0,0,1-2.2451,1.2978C714.8721,417.2275,713.86,416.0615,713.86,414.2578Zm.9238-.5176v.0772H717.92v-.1211a1.51,1.51,0,0,0-1.5078-1.6719A1.613,1.613,0,0,0,714.7842,413.74Z"/><path d="M720.3174,417.0957v-5.6768h.88v.9249h.0439a1.6094,1.6094,0,0,1,1.6065-1.0567c1.166,0,1.9033.792,1.9033,2.167v3.6416h-.88v-3.4873c0-1.0117-.44-1.5293-1.2871-1.5293-.7041,0-1.3867.3525-1.3867,1.0781v3.9385Z"/><path d="M726.1475,414.2578c0-1.8154.9345-2.9707,2.53-2.9707a2.1271,2.1271,0,0,1,2.1231,1.3311l-.7373.374a1.3667,1.3667,0,0,0-1.3858-.9238,1.524,1.524,0,0,0-1.5839,1.705v.9678a1.5249,1.5249,0,0,0,1.5839,1.7061,1.603,1.603,0,0,0,1.54-.99l.6377.4287a2.236,2.236,0,0,1-2.1778,1.3418C727.082,417.2275,726.1475,416.0732,726.1475,414.2578Z"/><path d="M732.0977,417.0957v-5.6768h.8808v1.045h.0547a1.63,1.63,0,0,1,1.6387-1.045h.3418v.88h-.5176c-.9463,0-1.5176.4073-1.5176.9463v3.8506Z"/><path d="M739.7432,411.4189h.8691l-2.541,6.9971c-.2529.6826-.4844.88-1.32.88H736.3v-.7695h.8916l.4287-1.21-2.123-5.8975h.88l1.3642,3.8614.2637.9248h.0556l.3077-.9248Z"/><path d="M741.7334,411.4189h.8809v.9249h.0439a1.6572,1.6572,0,0,1,1.6611-1.0567c1.419,0,2.3106,1.1553,2.3106,2.9707s-.8916,2.97-2.3106,2.97a1.71,1.71,0,0,1-1.6611-1.0556h-.0439v3.124h-.8809Zm3.95,3.3223v-.9678a1.55,1.55,0,0,0-1.6065-1.6943c-.8027,0-1.4628.4619-1.4628,1.0889V415.28c0,.7373.66,1.1552,1.4628,1.1552A1.549,1.549,0,0,0,745.6836,414.7412Z"/><path d="M749.3018,417.0957a.8663.8663,0,0,1-.9346-.9346V412.19h-.9356v-.7706h.5284c.374,0,.4951-.1318.4951-.5166v-1.0566h.792v1.5732H750.49v.7706h-1.2431v4.1367h1.1552v.77Z"/><path d="M751.81,409.5928V409.45c0-.2979.165-.4951.539-.4951s.5391.1972.5391.4951v.1426c0,.2968-.165.4951-.5391.4951S751.81,409.89,751.81,409.5928Zm.0986,1.8261h.8809v5.6768h-.8809Z"/><path d="M754.24,414.2578c0-1.8047,1.045-2.9707,2.5635-2.9707s2.5635,1.166,2.5635,2.9707-1.0449,2.97-2.5635,2.97S754.24,416.0615,754.24,414.2578Zm4.1807.4072v-.8144a1.6248,1.6248,0,1,0-3.2344,0v.8144a1.6248,1.6248,0,1,0,3.2344,0Z"/><path d="M760.8184,417.0957v-5.6768h.8808v.9249h.044a1.608,1.608,0,0,1,1.6054-1.0567c1.167,0,1.9034.792,1.9034,2.167v3.6416h-.88v-3.4873c0-1.0117-.44-1.5293-1.2871-1.5293-.7041,0-1.3858.3525-1.3858,1.0781v3.9385Z"/><path d="M769.6621,408.9551h.8809v5.1592h.0439l.8692-.9678,1.6054-1.7276h1.0674l-2.1016,2.2442,2.3106,3.4326h-1.0674l-1.8809-2.8936-.8466.8692v2.0244h-.8809Z"/><path d="M774.8545,414.2578c0-1.8047,1.0117-2.9707,2.5517-2.9707A2.4861,2.4861,0,0,1,779.86,414.06v.4179h-4.0821v.2637a1.6081,1.6081,0,0,0,1.6836,1.7168,1.6446,1.6446,0,0,0,1.5615-.98l.628.4512a2.3824,2.3824,0,0,1-2.2452,1.2978C775.8662,417.2275,774.8545,416.0615,774.8545,414.2578Zm.9238-.5176v.0772h3.1358v-.1211a1.51,1.51,0,0,0-1.5079-1.6719A1.613,1.613,0,0,0,775.7783,413.74Z"/><path d="M784.7549,411.4189h.8691l-2.542,6.9971c-.2529.6826-.4834.88-1.3193.88h-.4512v-.7695h.8906l.43-1.21-2.124-5.8975h.8809l1.3633,3.8614.2646.9248h.0547l.3086-.9248Z"/><path d="M700.1855,319.1279l1.0665-1.0312a2.7265,2.7265,0,0,0,2.1474,1.0312c.9717,0,1.4756-.4673,1.4756-1.1753,0-.5634-.2646-.9111-1.1406-1.0673l-.791-.12c-1.6914-.2641-2.5059-1.0674-2.5059-2.4345,0-1.5,1.1621-2.4707,3.0332-2.4707a3.52,3.52,0,0,1,2.8672,1.2353l-1.08,1.019a2.2263,2.2263,0,0,0-1.8711-.8632c-.8984,0-1.3672.36-1.3672.9834,0,.6357.36.8994,1.1641,1.0434l.7793.1441c1.6914.3,2.4824,1.0551,2.4824,2.4345,0,1.583-1.1387,2.6626-3.1426,2.6626A3.8828,3.8828,0,0,1,700.1855,319.1279Z"/><path d="M707.5176,317.2334c0-1.979,1.0664-3.2622,2.9023-3.2622,1.9551,0,2.8535,1.439,2.8535,3.1543v.5034h-4.1611v.1563a1.39,1.39,0,0,0,1.5225,1.5107,1.9013,1.9013,0,0,0,1.5957-.8516l.8281.9239a3.1,3.1,0,0,1-2.5918,1.1513C708.6211,320.52,707.5176,319.2363,707.5176,317.2334Zm1.5947-.648v.0962h2.5664v-.1079c0-.8637-.4443-1.4511-1.2353-1.4511A1.3286,1.3286,0,0,0,709.1123,316.5854Z"/><path d="M714.6328,320.3755v-6.2608h1.5352V315.41h.0595a1.6057,1.6057,0,0,1,1.6553-1.2955h.336v1.4512h-.4805c-1.0313,0-1.57.2881-1.57.9717v3.8379Z"/><path d="M720.7881,320.3755l-2.0869-6.2608h1.5117l.875,2.6988.6113,2.2309h.084l.6113-2.2309.8516-2.6988H724.71l-2.0987,6.2608Z"/><path d="M725.6,312.436v-.24c0-.4434.2647-.7676.9-.7676.623,0,.8994.3242.8994.7676v.24c0,.4434-.2764.7676-.8994.7676C725.8643,313.2036,725.6,312.8794,725.6,312.436Zm.1328,1.6787h1.5352v6.2608h-1.5352Z"/><path d="M728.625,317.2334c0-2.0029,1.043-3.2622,2.89-3.2622a2.42,2.42,0,0,1,2.459,1.583l-1.2588.5635a1.1705,1.1705,0,0,0-1.2-.9112c-.8505,0-1.2832.6-1.2832,1.4751v1.1392c0,.8755.4327,1.4634,1.2832,1.4634a1.3391,1.3391,0,0,0,1.3194-.9834l1.1758.5635a2.4465,2.4465,0,0,1-2.4952,1.6552C729.668,320.52,728.625,319.248,728.625,317.2334Z"/><path d="M734.7207,317.2334c0-1.979,1.0664-3.2622,2.9023-3.2622,1.9551,0,2.8536,1.439,2.8536,3.1543v.5034h-4.1612v.1563a1.39,1.39,0,0,0,1.5225,1.5107,1.9011,1.9011,0,0,0,1.5957-.8516l.8281.9239A3.1,3.1,0,0,1,737.67,320.52C735.8242,320.52,734.7207,319.2363,734.7207,317.2334Zm1.5947-.648v.0962h2.5664v-.1079c0-.8637-.4443-1.4511-1.2353-1.4511A1.3287,1.3287,0,0,0,736.3154,316.5854Z"/><path d="M744.7637,312.0039h3.874a2.0352,2.0352,0,0,1,2.2187,2.147,1.57,1.57,0,0,1-1.499,1.7988v.0723a1.8348,1.8348,0,0,1,1.8106,1.9546,2.2493,2.2493,0,0,1-2.1582,2.3989h-4.2461Zm1.583,3.49h1.9551a.8263.8263,0,0,0,.9111-.8877v-.3715a.8209.8209,0,0,0-.9111-.8877h-1.9551Zm0,3.5381h2.207a.8534.8534,0,0,0,.96-.9116v-.4077a.8621.8621,0,0,0-.96-.9233h-2.207Z"/><path d="M849.99,232.896l-1.87-7.6792h.98l.8252,3.6968.6377,2.8711h.0225l.7148-2.8711.9678-3.6968h1.0566l.9346,3.6968.7158,2.86h.0322l.66-2.86.8691-3.6968h.9463l-1.9687,7.6792H854.49l-1.0009-3.8286-.7041-2.8164h-.0225l-.7256,2.8164-1.0234,3.8286Z"/><path d="M858.5264,232.896v-5.6768h.88v1.045h.0547a1.632,1.632,0,0,1,1.64-1.045h.3408v.88h-.5166c-.9463,0-1.5186.4072-1.5186.9463v3.8506Z"/><path d="M866.6445,232.896a.9164.9164,0,0,1-.9785-.9243H865.61a1.6018,1.6018,0,0,1-1.6387,1.0561,1.674,1.674,0,0,1-1.9033-1.7163c0-1.0669.77-1.6611,2.42-1.6611H865.61v-.561c0-.8033-.44-1.2432-1.3418-1.2432a1.586,1.586,0,0,0-1.4415.8472l-.5273-.4952a2.1564,2.1564,0,0,1,2.0127-1.1113c1.3643,0,2.1787.7153,2.1787,1.9146v3.1245h.6484v.77Zm-1.0341-1.65v-.9351h-1.1661c-1.0009,0-1.4521.3082-1.4521.8584v.231c0,.561.44.88,1.1221.88C864.9834,232.28,865.61,231.8286,865.61,231.2456Z"/><path d="M868.3926,227.2192h.8808v.9244h.044a1.6579,1.6579,0,0,1,1.6611-1.0567c1.419,0,2.3106,1.1553,2.3106,2.9707s-.8916,2.97-2.3106,2.97a1.7109,1.7109,0,0,1-1.6611-1.0561h-.044v3.1245h-.8808Zm3.95,3.3223v-.9678a1.5492,1.5492,0,0,0-1.6065-1.6943c-.8027,0-1.4629.4619-1.4629,1.0889v2.1123c0,.7373.66,1.1552,1.4629,1.1552A1.5492,1.5492,0,0,0,872.3428,230.5415Z"/><path d="M874.7725,227.2192h.8808v.9244h.044a1.6577,1.6577,0,0,1,1.6611-1.0567c1.4189,0,2.3105,1.1553,2.3105,2.9707s-.8916,2.97-2.3105,2.97a1.7108,1.7108,0,0,1-1.6611-1.0561h-.044v3.1245h-.8808Zm3.95,3.3223v-.9678a1.5493,1.5493,0,0,0-1.6065-1.6943c-.8027,0-1.4629.4619-1.4629,1.0889v2.1123c0,.7373.66,1.1552,1.4629,1.1552A1.5493,1.5493,0,0,0,878.7227,230.5415Z"/><path d="M880.7344,230.0576c0-1.8042,1.0127-2.9707,2.5527-2.9707a2.4856,2.4856,0,0,1,2.4531,2.7725v.4184h-4.081v.2637a1.6074,1.6074,0,0,0,1.6826,1.7163,1.6457,1.6457,0,0,0,1.5625-.979l.6269.4512a2.3814,2.3814,0,0,1-2.2441,1.2978C881.7471,233.0278,880.7344,231.8618,880.7344,230.0576Zm.9248-.5171v.0772h3.1347v-.1211a1.5094,1.5094,0,0,0-1.5068-1.6724A1.6134,1.6134,0,0,0,881.6592,229.5405Z"/><path d="M890.8223,231.9717h-.044a1.7109,1.7109,0,0,1-1.6611,1.0561c-1.419,0-2.3106-1.1548-2.3106-2.97s.8916-2.9707,2.3106-2.9707a1.6579,1.6579,0,0,1,1.6611,1.0567h.044v-3.3887h.88v8.1411h-.88Zm0-.8911v-2.1123c0-.627-.66-1.0889-1.4629-1.0889a1.5492,1.5492,0,0,0-1.6065,1.6943v.9678a1.5492,1.5492,0,0,0,1.6065,1.6943C890.1621,232.2358,890.8223,231.8179,890.8223,231.0806Z"/><path d="M863.84,245.1719h-.0439a1.7109,1.7109,0,0,1-1.6611,1.0561c-1.419,0-2.3106-1.1548-2.3106-2.97s.8916-2.9707,2.3106-2.9707a1.6579,1.6579,0,0,1,1.6611,1.0567h.0439v-3.3887h.88v8.1411h-.88Zm0-.8911v-2.1123c0-.627-.66-1.0889-1.4628-1.0889a1.5492,1.5492,0,0,0-1.6065,1.6943v.9678a1.5492,1.5492,0,0,0,1.6065,1.6943C863.18,245.436,863.84,245.0181,863.84,244.2808Z"/><path d="M870.7148,246.0962a.9172.9172,0,0,1-.9794-.9243h-.0547a1.603,1.603,0,0,1-1.64,1.0561,1.674,1.674,0,0,1-1.9033-1.7163c0-1.0669.77-1.6611,2.4209-1.6611h1.1221v-.561c0-.8033-.4405-1.2432-1.3418-1.2432a1.5837,1.5837,0,0,0-1.4414.8472l-.5284-.4952a2.1581,2.1581,0,0,1,2.0137-1.1113c1.3643,0,2.1777.7153,2.1777,1.9146v3.1245h.6495v.77Zm-1.0341-1.65v-.9351h-1.1661c-1.0009,0-1.4521.3081-1.4521.8584v.231c0,.561.4395.88,1.1221.88C869.0537,245.48,869.6807,245.0288,869.6807,244.4458Z"/><path d="M873.7178,246.0962a.8669.8669,0,0,1-.9356-.9351V241.19h-.9355v-.77h.5283c.374,0,.4951-.1323.4951-.5171v-1.0561h.792v1.5732h1.2432v.77h-1.2432v4.1367h1.1553v.77Z"/><path d="M880.4492,246.0962a.9164.9164,0,0,1-.9785-.9243h-.0557a1.6016,1.6016,0,0,1-1.6386,1.0561,1.6741,1.6741,0,0,1-1.9034-1.7163c0-1.0669.7706-1.6611,2.42-1.6611h1.122v-.561c0-.8033-.4394-1.2432-1.3418-1.2432a1.586,1.586,0,0,0-1.4414.8472l-.5273-.4952a2.1564,2.1564,0,0,1,2.0127-1.1113c1.3642,0,2.1787.7153,2.1787,1.9146v3.1245h.6484v.77Zm-1.0342-1.65v-.9351h-1.166c-1.001,0-1.4521.3081-1.4521.8584v.231c0,.561.44.88,1.122.88C878.7881,245.48,879.415,245.0288,879.415,244.4458Z"/><path d="M717.0059,232.896l-1.87-7.6792h.9795l.8252,3.6968.6377,2.8711h.0225l.7148-2.8711.9678-3.6968H720.34l.9346,3.6968.7158,2.86h.0323l.66-2.86.8692-3.6968h.9462l-1.9687,7.6792h-1.0234l-1.001-3.8286-.7041-2.8164h-.0225l-.7256,2.8164-1.0234,3.8286Z"/><path d="M725.542,232.896v-5.6768h.88v1.045h.0547a1.6318,1.6318,0,0,1,1.64-1.045h.3408v.88H727.94c-.9463,0-1.5185.4072-1.5185.9463v3.8506Z"/><path d="M733.66,232.896a.9165.9165,0,0,1-.9786-.9243h-.0556a1.6017,1.6017,0,0,1-1.6387,1.0561,1.674,1.674,0,0,1-1.9033-1.7163c0-1.0669.7705-1.6611,2.42-1.6611h1.1221v-.561c0-.8033-.4395-1.2432-1.3418-1.2432a1.5859,1.5859,0,0,0-1.4414.8472l-.5274-.4952a2.1564,2.1564,0,0,1,2.0127-1.1113c1.3643,0,2.1787.7153,2.1787,1.9146v3.1245h.6485v.77Zm-1.0342-1.65v-.9351H731.46c-1.001,0-1.4522.3082-1.4522.8584v.231c0,.561.44.88,1.1221.88C731.999,232.28,732.626,231.8286,732.626,231.2456Z"/><path d="M735.4082,227.2192h.8809v.9244h.0439a1.6579,1.6579,0,0,1,1.6611-1.0567c1.419,0,2.3106,1.1553,2.3106,2.9707s-.8916,2.97-2.3106,2.97a1.7109,1.7109,0,0,1-1.6611-1.0561h-.0439v3.1245h-.8809Zm3.95,3.3223v-.9678a1.5492,1.5492,0,0,0-1.6064-1.6943c-.8028,0-1.4629.4619-1.4629,1.0889v2.1123c0,.7373.66,1.1552,1.4629,1.1552A1.5492,1.5492,0,0,0,739.3584,230.5415Z"/><path d="M741.7881,227.2192h.8808v.9244h.044a1.6579,1.6579,0,0,1,1.6611-1.0567c1.419,0,2.3106,1.1553,2.3106,2.9707s-.8916,2.97-2.3106,2.97a1.7109,1.7109,0,0,1-1.6611-1.0561h-.044v3.1245h-.8808Zm3.95,3.3223v-.9678a1.5492,1.5492,0,0,0-1.6065-1.6943c-.8027,0-1.4629.4619-1.4629,1.0889v2.1123c0,.7373.66,1.1552,1.4629,1.1552A1.5492,1.5492,0,0,0,745.7383,230.5415Z"/><path d="M747.75,230.0576c0-1.8042,1.0127-2.9707,2.5527-2.9707a2.4856,2.4856,0,0,1,2.4532,2.7725v.4184h-4.0811v.2637a1.6075,1.6075,0,0,0,1.6826,1.7163,1.6456,1.6456,0,0,0,1.5625-.979l.627.4512a2.3817,2.3817,0,0,1-2.2442,1.2978C748.7627,233.0278,747.75,231.8618,747.75,230.0576Zm.9248-.5171v.0772H751.81v-.1211a1.5094,1.5094,0,0,0-1.5069-1.6724A1.6134,1.6134,0,0,0,748.6748,229.5405Z"/><path d="M757.8379,231.9717h-.044a1.7108,1.7108,0,0,1-1.6611,1.0561c-1.4189,0-2.31-1.1548-2.31-2.97s.8916-2.9707,2.31-2.9707a1.6577,1.6577,0,0,1,1.6611,1.0567h.044v-3.3887h.88v8.1411h-.88Zm0-.8911v-2.1123c0-.627-.66-1.0889-1.4629-1.0889a1.5492,1.5492,0,0,0-1.6064,1.6943v.9678a1.5492,1.5492,0,0,0,1.6064,1.6943C757.1777,232.2358,757.8379,231.8179,757.8379,231.0806Z"/><path d="M766.8135,231.9717h-.044a1.7109,1.7109,0,0,1-1.6611,1.0561c-1.4189,0-2.31-1.1548-2.31-2.97s.8916-2.9707,2.31-2.9707a1.6578,1.6578,0,0,1,1.6611,1.0567h.044v-3.3887h.88v8.1411h-.88Zm0-.8911v-2.1123c0-.627-.66-1.0889-1.4629-1.0889a1.5493,1.5493,0,0,0-1.6065,1.6943v.9678a1.5493,1.5493,0,0,0,1.6065,1.6943C766.1533,232.2358,766.8135,231.8179,766.8135,231.0806Z"/><path d="M773.6885,232.896a.9173.9173,0,0,1-.98-.9243h-.0547a1.603,1.603,0,0,1-1.64,1.0561,1.674,1.674,0,0,1-1.9033-1.7163c0-1.0669.77-1.6611,2.4209-1.6611h1.1221v-.561c0-.8033-.44-1.2432-1.3418-1.2432a1.5838,1.5838,0,0,0-1.4414.8472l-.5283-.4952a2.1578,2.1578,0,0,1,2.0136-1.1113c1.3643,0,2.1778.7153,2.1778,1.9146v3.1245h.6494v.77Zm-1.0342-1.65v-.9351h-1.166c-1.001,0-1.4522.3082-1.4522.8584v.231c0,.561.4395.88,1.1221.88C772.0273,232.28,772.6543,231.8286,772.6543,231.2456Z"/><path d="M776.6914,232.896a.8668.8668,0,0,1-.9355-.9351v-3.9716H774.82v-.77h.5283c.3741,0,.4952-.1323.4952-.5171V225.646h.7919v1.5732h1.2432v.77h-1.2432v4.1367h1.1553v.77Z"/><path d="M783.4238,232.896a.9173.9173,0,0,1-.98-.9243H782.39a1.6028,1.6028,0,0,1-1.64,1.0561,1.674,1.674,0,0,1-1.9033-1.7163c0-1.0669.77-1.6611,2.4209-1.6611h1.122v-.561c0-.8033-.44-1.2432-1.3417-1.2432a1.5839,1.5839,0,0,0-1.4415.8472l-.5283-.4952a2.158,2.158,0,0,1,2.0137-1.1113c1.3643,0,2.1777.7153,2.1777,1.9146v3.1245h.6494v.77Zm-1.0342-1.65v-.9351h-1.166c-1.0009,0-1.4521.3082-1.4521.8584v.231c0,.561.4394.88,1.1221.88C781.7627,232.28,782.39,231.8286,782.39,231.2456Z"/><path d="M713.86,243.2578c0-1.8042,1.0117-2.9707,2.5517-2.9707a2.4863,2.4863,0,0,1,2.4541,2.7725v.4184h-4.082v.2637a1.6077,1.6077,0,0,0,1.6836,1.7163,1.6444,1.6444,0,0,0,1.5615-.979l.6279.4512a2.3831,2.3831,0,0,1-2.2451,1.2978C714.8721,246.228,713.86,245.062,713.86,243.2578Zm.9238-.5171v.0772H717.92v-.1211a1.51,1.51,0,0,0-1.5078-1.6724A1.6134,1.6134,0,0,0,714.7842,242.7407Z"/><path d="M720.3174,246.0962v-5.6768h.88v.9244h.0439a1.61,1.61,0,0,1,1.6065-1.0567c1.166,0,1.9033.7925,1.9033,2.1675v3.6416h-.88v-3.4873c0-1.0122-.44-1.5293-1.2871-1.5293-.7041,0-1.3867.352-1.3867,1.0781v3.9385Z"/><path d="M726.1475,243.2578c0-1.8154.9345-2.9707,2.53-2.9707a2.1275,2.1275,0,0,1,2.1231,1.3316l-.7373.374a1.3671,1.3671,0,0,0-1.3858-.9243,1.5244,1.5244,0,0,0-1.5839,1.7055v.9678a1.5245,1.5245,0,0,0,1.5839,1.7056,1.6022,1.6022,0,0,0,1.54-.99l.6377.4292a2.2367,2.2367,0,0,1-2.1778,1.3418C727.082,246.228,726.1475,245.0732,726.1475,243.2578Z"/><path d="M732.0977,246.0962v-5.6768h.8808v1.045h.0547a1.63,1.63,0,0,1,1.6387-1.045h.3418v.88h-.5176c-.9463,0-1.5176.4072-1.5176.9463v3.8506Z"/><path d="M739.7432,240.4194h.8691l-2.541,6.9971c-.2529.6821-.4844.88-1.32.88H736.3v-.77h.8916l.4287-1.21-2.123-5.897h.88l1.3642,3.8614.2637.9243h.0556l.3077-.9243Z"/><path d="M741.7334,240.4194h.8809v.9244h.0439a1.6579,1.6579,0,0,1,1.6611-1.0567c1.419,0,2.3106,1.1553,2.3106,2.9707s-.8916,2.97-2.3106,2.97a1.7109,1.7109,0,0,1-1.6611-1.0561h-.0439v3.1245h-.8809Zm3.95,3.3223v-.9678a1.5492,1.5492,0,0,0-1.6065-1.6943c-.8027,0-1.4628.4619-1.4628,1.0889v2.1123c0,.7373.66,1.1552,1.4628,1.1552A1.5492,1.5492,0,0,0,745.6836,243.7417Z"/><path d="M749.3018,246.0962a.8666.8666,0,0,1-.9346-.9351V241.19h-.9356v-.77h.5284c.374,0,.4951-.1323.4951-.5171v-1.0561h.792v1.5732H750.49v.77h-1.2431v4.1367h1.1552v.77Z"/><path d="M751.81,238.5933V238.45c0-.2974.165-.4951.539-.4951s.5391.1977.5391.4951v.1431c0,.2968-.165.4951-.5391.4951S751.81,238.89,751.81,238.5933Zm.0986,1.8261h.8809v5.6768h-.8809Z"/><path d="M754.24,243.2578c0-1.8042,1.045-2.9707,2.5635-2.9707s2.5635,1.1665,2.5635,2.9707-1.0449,2.97-2.5635,2.97S754.24,245.062,754.24,243.2578Zm4.1807.4072v-.8144a1.6248,1.6248,0,1,0-3.2344,0v.8144a1.6248,1.6248,0,1,0,3.2344,0Z"/><path d="M760.8184,246.0962v-5.6768h.8808v.9244h.044a1.6086,1.6086,0,0,1,1.6054-1.0567c1.167,0,1.9034.7925,1.9034,2.1675v3.6416h-.88v-3.4873c0-1.0122-.44-1.5293-1.2871-1.5293-.7041,0-1.3858.352-1.3858,1.0781v3.9385Z"/><path d="M769.6621,237.9551h.8809v5.16h.0439l.8692-.9682,1.6054-1.7271h1.0674l-2.1016,2.2442,2.3106,3.4326h-1.0674l-1.8809-2.8936-.8466.8692v2.0244h-.8809Z"/><path d="M774.8545,243.2578c0-1.8042,1.0117-2.9707,2.5517-2.9707A2.4864,2.4864,0,0,1,779.86,243.06v.4184h-4.0821v.2637a1.6077,1.6077,0,0,0,1.6836,1.7163,1.6442,1.6442,0,0,0,1.5615-.979l.628.4512a2.3832,2.3832,0,0,1-2.2452,1.2978C775.8662,246.228,774.8545,245.062,774.8545,243.2578Zm.9238-.5171v.0772h3.1358v-.1211a1.51,1.51,0,0,0-1.5079-1.6724A1.6134,1.6134,0,0,0,775.7783,242.7407Z"/><path d="M784.7549,240.4194h.8691l-2.542,6.9971c-.2529.6821-.4834.88-1.3193.88h-.4512v-.77h.8906l.43-1.21-2.124-5.897h.8809l1.3633,3.8614.2646.9243h.0547l.3086-.9243Z"/><path d="M700.1855,148.1279l1.0665-1.0312a2.7265,2.7265,0,0,0,2.1474,1.0312c.9717,0,1.4756-.4673,1.4756-1.1753,0-.5634-.2646-.9111-1.1406-1.0673l-.791-.12c-1.6914-.2641-2.5059-1.0674-2.5059-2.4345,0-1.5,1.1621-2.4707,3.0332-2.4707a3.52,3.52,0,0,1,2.8672,1.2353l-1.08,1.019a2.2263,2.2263,0,0,0-1.8711-.8632c-.8984,0-1.3672.36-1.3672.9834,0,.6357.36.8994,1.1641,1.0434l.7793.1441c1.6914.3,2.4824,1.0551,2.4824,2.4345,0,1.583-1.1387,2.6626-3.1426,2.6626A3.8828,3.8828,0,0,1,700.1855,148.1279Z"/><path d="M707.5176,146.2334c0-1.979,1.0664-3.2622,2.9023-3.2622,1.9551,0,2.8535,1.439,2.8535,3.1543v.5034h-4.1611v.1563a1.39,1.39,0,0,0,1.5225,1.5107,1.9013,1.9013,0,0,0,1.5957-.8516l.8281.9239a3.1,3.1,0,0,1-2.5918,1.1513C708.6211,149.52,707.5176,148.2363,707.5176,146.2334Zm1.5947-.648v.0962h2.5664v-.1079c0-.8637-.4443-1.4511-1.2353-1.4511A1.3286,1.3286,0,0,0,709.1123,145.5854Z"/><path d="M714.6328,149.3755v-6.2608h1.5352V144.41h.0595a1.6057,1.6057,0,0,1,1.6553-1.2955h.336v1.4512h-.4805c-1.0313,0-1.57.2881-1.57.9717v3.8379Z"/><path d="M720.7881,149.3755l-2.0869-6.2608h1.5117l.875,2.6988.6113,2.2309h.084l.6113-2.2309.8516-2.6988H724.71l-2.0987,6.2608Z"/><path d="M725.6,141.436v-.24c0-.4434.2647-.7676.9-.7676.623,0,.8994.3242.8994.7676v.24c0,.4434-.2764.7676-.8994.7676C725.8643,142.2036,725.6,141.8794,725.6,141.436Zm.1328,1.6787h1.5352v6.2608h-1.5352Z"/><path d="M728.625,146.2334c0-2.0029,1.043-3.2622,2.89-3.2622a2.42,2.42,0,0,1,2.459,1.583l-1.2588.5635a1.1705,1.1705,0,0,0-1.2-.9112c-.8505,0-1.2832.6-1.2832,1.4751v1.1392c0,.8755.4327,1.4634,1.2832,1.4634a1.3391,1.3391,0,0,0,1.3194-.9834l1.1758.5635a2.4465,2.4465,0,0,1-2.4952,1.6552C729.668,149.52,728.625,148.248,728.625,146.2334Z"/><path d="M734.7207,146.2334c0-1.979,1.0664-3.2622,2.9023-3.2622,1.9551,0,2.8536,1.439,2.8536,3.1543v.5034h-4.1612v.1563a1.39,1.39,0,0,0,1.5225,1.5107,1.9011,1.9011,0,0,0,1.5957-.8516l.8281.9239A3.1,3.1,0,0,1,737.67,149.52C735.8242,149.52,734.7207,148.2363,734.7207,146.2334Zm1.5947-.648v.0962h2.5664v-.1079c0-.8637-.4443-1.4511-1.2353-1.4511A1.3287,1.3287,0,0,0,736.3154,145.5854Z"/><path d="M749.9453,149.3755l-.6719-2.1348h-2.9746l-.66,2.1348h-1.6065l2.8057-8.3833h1.9678l2.7822,8.3833Zm-2.1348-6.9321H747.75l-1.0674,3.4419h2.207Z"/><path d="M462.7021,430.3984l-1.87-7.6787h.98l.8252,3.6963.6377,2.8711h.0225l.7148-2.8711.9678-3.6963h1.0566l.9356,3.6963.7148,2.86h.0332l.66-2.86.8691-3.6963h.9453l-1.9687,7.6787h-1.0235l-1.0009-3.8281-.7041-2.8164h-.0225l-.7256,2.8164-1.0234,3.8281Z"/><path d="M471.2393,430.3984v-5.6767h.88v1.0449h.0547a1.631,1.631,0,0,1,1.64-1.0449h.3408v.88h-.5176c-.9453,0-1.5176.4072-1.5176.9463v3.85Z"/><path d="M479.3564,430.3984a.9166.9166,0,0,1-.9785-.9238h-.0556a1.6033,1.6033,0,0,1-1.6387,1.0557,1.6742,1.6742,0,0,1-1.9033-1.7158c0-1.0674.7695-1.6612,2.42-1.6612h1.1221v-.5615c0-.8027-.44-1.2432-1.3418-1.2432a1.5833,1.5833,0,0,0-1.4414.8477l-.5284-.4951a2.1581,2.1581,0,0,1,2.0137-1.1114c1.3643,0,2.1777.7149,2.1777,1.9141v3.124h.65v.77Zm-1.0341-1.65v-.9345h-1.1661c-1.0009,0-1.4521.3076-1.4521.8574v.2314c0,.5606.44.88,1.1221.88C477.6953,429.7822,478.3223,429.3311,478.3223,428.748Z"/><path d="M481.1055,424.7217h.88v.9238h.0439A1.6579,1.6579,0,0,1,483.69,424.59c1.419,0,2.3106,1.1553,2.3106,2.97s-.8916,2.9707-2.3106,2.9707a1.7106,1.7106,0,0,1-1.6611-1.0557h-.0439v3.124h-.88Zm3.9492,3.3222v-.9677a1.5491,1.5491,0,0,0-1.6065-1.6944c-.8027,0-1.4628.462-1.4628,1.0889v2.1123c0,.7373.66,1.1553,1.4628,1.1553A1.5491,1.5491,0,0,0,485.0547,428.0439Z"/><path d="M493.5791,424.7217h.8691l-2.541,6.9971c-.2529.6816-.4843.88-1.32.88h-.4512v-.7695h.8907l.43-1.2109-2.1231-5.8965h.88l1.3642,3.8613.2637.9238h.0547l.3086-.9238Z"/><path d="M495.0967,427.56c0-1.8037,1.0459-2.97,2.5635-2.97s2.5634,1.1661,2.5634,2.97-1.0449,2.9707-2.5634,2.9707S495.0967,429.3643,495.0967,427.56Zm4.1806.4072v-.8135a1.6248,1.6248,0,1,0-3.2343,0v.8135a1.6248,1.6248,0,1,0,3.2343,0Z"/><path d="M505.1738,429.4746H505.13a1.5774,1.5774,0,0,1-1.5957,1.0557c-1.166,0-1.9141-.792-1.9141-2.167v-3.6416h.88v3.4873c0,1.0127.4512,1.5293,1.2988,1.5293.6934,0,1.375-.3408,1.375-1.0889v-3.9277h.88v5.6767h-.88Z"/><path d="M507.9238,430.3984v-5.6767h.88v1.0449h.0547a1.6308,1.6308,0,0,1,1.64-1.0449h.3409v.88h-.5176c-.9453,0-1.5176.4072-1.5176.9463v3.85Z"/><path d="M518.1865,429.4746h-.0439a1.7106,1.7106,0,0,1-1.6612,1.0557c-1.4189,0-2.3105-1.1553-2.3105-2.9707s.8916-2.97,2.3105-2.97a1.6579,1.6579,0,0,1,1.6612,1.0557h.0439v-3.3887h.88v8.1416h-.88Zm0-.8916v-2.1123c0-.6269-.66-1.0889-1.4629-1.0889a1.549,1.549,0,0,0-1.6064,1.6944v.9677a1.549,1.549,0,0,0,1.6064,1.6944C517.5264,429.7383,518.1865,429.32,518.1865,428.583Z"/><path d="M525.0605,430.3984a.9166.9166,0,0,1-.9785-.9238h-.0556a1.6033,1.6033,0,0,1-1.6387,1.0557,1.6742,1.6742,0,0,1-1.9033-1.7158c0-1.0674.7695-1.6612,2.42-1.6612h1.1221v-.5615c0-.8027-.4395-1.2432-1.3418-1.2432a1.5833,1.5833,0,0,0-1.4414.8477l-.5284-.4951a2.1581,2.1581,0,0,1,2.0137-1.1114c1.3643,0,2.1777.7149,2.1777,1.9141v3.124h.6495v.77Zm-1.0341-1.65v-.9345H522.86c-1.001,0-1.4522.3076-1.4522.8574v.2314c0,.5606.44.88,1.1221.88C523.3994,429.7822,524.0264,429.3311,524.0264,428.748Z"/><path d="M528.0635,430.3984a.8667.8667,0,0,1-.9356-.9355v-3.9707h-.9345v-.7705h.5273c.374,0,.4951-.1319.4951-.5176v-1.0557h.793v1.5733h1.2432v.7705h-1.2432v4.1357h1.1543v.77Z"/><path d="M534.7959,430.3984a.9165.9165,0,0,1-.9785-.9238h-.0557a1.6033,1.6033,0,0,1-1.6387,1.0557,1.6742,1.6742,0,0,1-1.9033-1.7158c0-1.0674.77-1.6612,2.42-1.6612h1.1221v-.5615c0-.8027-.4394-1.2432-1.3418-1.2432a1.5833,1.5833,0,0,0-1.4414.8477l-.5283-.4951a2.158,2.158,0,0,1,2.0137-1.1114c1.3642,0,2.1777.7149,2.1777,1.9141v3.124h.6494v.77Zm-1.0342-1.65v-.9345h-1.166c-1.001,0-1.4521.3076-1.4521.8574v.2314c0,.5606.44.88,1.122.88C533.1348,429.7822,533.7617,429.3311,533.7617,428.748Z"/><path d="M538.7217,427.56c0-1.8037,1.0127-2.97,2.5527-2.97a2.4854,2.4854,0,0,1,2.4531,2.7725v.418h-4.081v.2636a1.6078,1.6078,0,0,0,1.6826,1.7168,1.6452,1.6452,0,0,0,1.5625-.9795l.627.4512a2.3815,2.3815,0,0,1-2.2442,1.2979C539.7344,430.53,538.7217,429.3643,538.7217,427.56Zm.9248-.5166v.0771h3.1347v-.1211a1.5092,1.5092,0,0,0-1.5068-1.6719A1.613,1.613,0,0,0,539.6465,427.043Z"/><path d="M545.18,430.3984v-5.6767h.88v.9238h.0439A1.61,1.61,0,0,1,547.71,424.59c1.166,0,1.9033.792,1.9033,2.167v3.6416h-.8809v-3.4873c0-1.0127-.4394-1.5293-1.2871-1.5293-.7041,0-1.3857.3516-1.3857,1.0782v3.9384Z"/><path d="M551.0088,427.56c0-1.8145.9355-2.97,2.5312-2.97a2.1271,2.1271,0,0,1,2.1231,1.3311l-.7373.374a1.3675,1.3675,0,0,0-1.3858-.9238,1.5243,1.5243,0,0,0-1.5849,1.7051v.9677a1.5243,1.5243,0,0,0,1.5849,1.7051,1.6025,1.6025,0,0,0,1.54-.99l.6377.43A2.2384,2.2384,0,0,1,553.54,430.53C551.9443,430.53,551.0088,429.375,551.0088,427.56Z"/><path d="M556.9609,430.3984v-5.6767h.88v1.0449h.0547a1.631,1.631,0,0,1,1.64-1.0449h.3408v.88h-.5176c-.9453,0-1.5176.4072-1.5176.9463v3.85Z"/><path d="M564.6055,424.7217h.8691l-2.541,6.9971c-.2529.6816-.4844.88-1.32.88h-.4512v-.7695h.8906l.43-1.2109-2.123-5.8965h.88l1.3642,3.8613.2637.9238h.0547l.3086-.9238Z"/><path d="M566.5967,424.7217h.88v.9238h.0439a1.6579,1.6579,0,0,1,1.6611-1.0557c1.419,0,2.3106,1.1553,2.3106,2.97s-.8916,2.9707-2.3106,2.9707a1.7106,1.7106,0,0,1-1.6611-1.0557h-.0439v3.124h-.88Zm3.9492,3.3222v-.9677a1.549,1.549,0,0,0-1.6064-1.6944c-.8028,0-1.4629.462-1.4629,1.0889v2.1123c0,.7373.66,1.1553,1.4629,1.1553A1.549,1.549,0,0,0,570.5459,428.0439Z"/><path d="M574.1641,430.3984a.8667.8667,0,0,1-.9356-.9355v-3.9707h-.9346v-.7705h.5274c.374,0,.4951-.1319.4951-.5176v-1.0557h.793v1.5733h1.2431v.7705h-1.2431v4.1357h1.1543v.77Z"/><path d="M576.6719,422.8955v-.1435c0-.2969.165-.4952.539-.4952s.5391.1983.5391.4952v.1435c0,.2969-.165.4951-.5391.4951S576.6719,423.1924,576.6719,422.8955Zm.1,1.8262h.88v5.6767h-.88Z"/><path d="M579.1025,427.56c0-1.8037,1.0459-2.97,2.5635-2.97s2.5635,1.1661,2.5635,2.97-1.0449,2.9707-2.5635,2.9707S579.1025,429.3643,579.1025,427.56Zm4.1807.4072v-.8135a1.6248,1.6248,0,1,0-3.2344,0v.8135a1.6248,1.6248,0,1,0,3.2344,0Z"/><path d="M585.6816,430.3984v-5.6767h.88v.9238h.044a1.61,1.61,0,0,1,1.6064-1.0557c1.166,0,1.9033.792,1.9033,2.167v3.6416h-.8808v-3.4873c0-1.0127-.44-1.5293-1.2871-1.5293-.7041,0-1.3858.3516-1.3858,1.0782v3.9384Z"/><path d="M461.5479,435.457h.88v5.16h.044l.8691-.9678,1.6065-1.7275h1.0664l-2.1006,2.2441,2.31,3.4326h-1.0665l-1.8818-2.8935-.8467.8691v2.0244h-.88Z"/><path d="M466.7393,440.76c0-1.8037,1.0127-2.97,2.5527-2.97a2.4854,2.4854,0,0,1,2.4531,2.7725v.418h-4.081v.2636a1.6078,1.6078,0,0,0,1.6826,1.7168,1.6452,1.6452,0,0,0,1.5625-.9795l.6269.4512a2.3814,2.3814,0,0,1-2.2441,1.2979C467.752,443.7305,466.7393,442.5645,466.7393,440.76Zm.9248-.5166v.0771h3.1347v-.1211a1.5093,1.5093,0,0,0-1.5068-1.6719A1.613,1.613,0,0,0,467.6641,440.2432Z"/><path d="M476.64,437.9219h.8692l-2.541,6.997c-.253.6817-.4844.88-1.32.88h-.4512v-.77h.8906l.43-1.2109-2.123-5.8965h.88l1.3643,3.8613.2637.9238h.0547l.3085-.9238Z"/><path d="M478.0479,442.6191l.6269-.5058a2.06,2.06,0,0,0,1.6826.8691c.7481,0,1.1885-.3408,1.1885-.9238,0-.44-.2422-.7813-.99-.8916l-.4512-.0654c-1.0449-.1543-1.8262-.583-1.8262-1.64,0-1.1221.8692-1.6719,2.0244-1.6719a2.3636,2.3636,0,0,1,1.9805.9131l-.583.5283a1.7507,1.7507,0,0,0-1.4639-.6933c-.7256,0-1.11.3408-1.11.88,0,.55.3847.77,1.0888.88l.44.0664c1.2539.1865,1.7373.7373,1.7373,1.5947,0,1.1006-.8028,1.7715-2.1006,1.7715A2.6356,2.6356,0,0,1,478.0479,442.6191Z"/><path d="M485.9453,437.9219h.8584l.6055,2.4531.6045,2.4863h.0224l.6924-2.4863.7158-2.4531h.7813l.7363,2.4531.7041,2.4863h.0225l.583-2.4863.6162-2.4531h.8252l-1.5078,5.6767h-1.0889l-.792-2.7285-.4951-1.7275h-.0225l-.4834,1.7275-.792,2.7285h-1.0673Z"/><path d="M494.8877,436.0957v-.1436c0-.2968.165-.4951.5391-.4951s.539.1983.539.4951v.1436c0,.2969-.165.4951-.539.4951S494.8877,436.3926,494.8877,436.0957Zm.1,1.8262h.88v5.6767h-.88Z"/><path d="M498.9912,443.5986a.8667.8667,0,0,1-.9355-.9355v-3.9707h-.9346v-.7705h.5273c.3741,0,.4952-.1319.4952-.5176v-1.0557h.7929v1.5733H500.18v.7705h-1.2432v4.1357h1.1543v.77Z"/><path d="M501.5986,435.457h.88v3.3887h.044a1.61,1.61,0,0,1,1.6064-1.0557c1.166,0,1.9033.792,1.9033,2.167v3.6416h-.8808v-3.4873c0-1.0127-.44-1.5293-1.2871-1.5293-.7041,0-1.3858.3516-1.3858,1.0782v3.9384h-.88Z"/><path d="M514.5674,443.5986a.9165.9165,0,0,1-.9785-.9238h-.0557a1.6033,1.6033,0,0,1-1.6387,1.0557,1.6742,1.6742,0,0,1-1.9033-1.7159c0-1.0673.7695-1.6611,2.42-1.6611h1.1221v-.5615c0-.8027-.4394-1.2432-1.3418-1.2432a1.5833,1.5833,0,0,0-1.4414.8477l-.5283-.4951a2.158,2.158,0,0,1,2.0137-1.1114c1.3642,0,2.1777.7149,2.1777,1.9141v3.124h.6494v.77Zm-1.0342-1.65v-.9345h-1.166c-1.001,0-1.4522.3076-1.4522.8574v.2314c0,.5606.44.88,1.1221.88C512.9062,442.9824,513.5332,442.5312,513.5332,441.9482Z"/><path d="M516.3164,443.5986v-5.6767h.88v.9238h.0439a1.61,1.61,0,0,1,1.6065-1.0557c1.166,0,1.9033.792,1.9033,2.167v3.6416h-.8809v-3.4873c0-1.0127-.4394-1.5293-1.2871-1.5293-.7041,0-1.3857.3516-1.3857,1.0782v3.9384Z"/><path d="M529.2852,443.5986a.9167.9167,0,0,1-.9786-.9238h-.0556a1.6033,1.6033,0,0,1-1.6387,1.0557,1.6742,1.6742,0,0,1-1.9033-1.7159c0-1.0673.77-1.6611,2.42-1.6611h1.1221v-.5615c0-.8027-.4395-1.2432-1.3418-1.2432a1.5833,1.5833,0,0,0-1.4414.8477l-.5283-.4951a2.1578,2.1578,0,0,1,2.0136-1.1114c1.3643,0,2.1778.7149,2.1778,1.9141v3.124h.6494v.77Zm-1.0342-1.65v-.9345h-1.166c-1.001,0-1.4522.3076-1.4522.8574v.2314c0,.5606.44.88,1.1221.88C527.624,442.9824,528.251,442.5312,528.251,441.9482Z"/><path d="M534.6641,442.6748h-.044a1.7106,1.7106,0,0,1-1.6611,1.0557c-1.419,0-2.3106-1.1553-2.3106-2.9707s.8916-2.97,2.3106-2.97a1.6579,1.6579,0,0,1,1.6611,1.0557h.044V435.457h.88v8.1416h-.88Zm0-.8916v-2.1123c0-.627-.66-1.0889-1.4629-1.0889a1.5491,1.5491,0,0,0-1.6065,1.6944v.9677a1.5491,1.5491,0,0,0,1.6065,1.6944C534.0039,442.9385,534.6641,442.5205,534.6641,441.7832Z"/><path d="M541.0439,442.6748H541a1.7106,1.7106,0,0,1-1.6611,1.0557c-1.419,0-2.3106-1.1553-2.3106-2.9707s.8916-2.97,2.3106-2.97A1.6579,1.6579,0,0,1,541,438.8457h.0439V435.457h.88v8.1416h-.88Zm0-.8916v-2.1123c0-.627-.66-1.0889-1.4628-1.0889a1.5491,1.5491,0,0,0-1.6065,1.6944v.9677a1.5491,1.5491,0,0,0,1.6065,1.6944C540.3838,442.9385,541.0439,442.5205,541.0439,441.7832Z"/><path d="M543.375,440.76c0-1.8037,1.0127-2.97,2.5527-2.97a2.4854,2.4854,0,0,1,2.4532,2.7725v.418H544.3v.2636a1.6079,1.6079,0,0,0,1.6826,1.7168,1.6452,1.6452,0,0,0,1.5625-.9795l.627.4512a2.3815,2.3815,0,0,1-2.2442,1.2979C544.3877,443.7305,543.375,442.5645,543.375,440.76Zm.9248-.5166v.0771h3.1357v-.1211a1.51,1.51,0,0,0-1.5078-1.6719A1.613,1.613,0,0,0,544.3,440.2432Z"/><path d="M553.4629,442.6748h-.044a1.71,1.71,0,0,1-1.6611,1.0557c-1.4189,0-2.31-1.1553-2.31-2.9707s.8916-2.97,2.31-2.97a1.6577,1.6577,0,0,1,1.6611,1.0557h.044V435.457h.88v8.1416h-.88Zm0-.8916v-2.1123c0-.627-.66-1.0889-1.4629-1.0889a1.549,1.549,0,0,0-1.6064,1.6944v.9677A1.549,1.549,0,0,0,552,442.9385C552.8027,442.9385,553.4629,442.5205,553.4629,441.7832Z"/><path d="M559.7432,443.5986a.86.86,0,0,1-.9346-.9131V435.457h.88v7.3711h.8359v.77Z"/><path d="M565.9258,443.5986a.9165.9165,0,0,1-.9785-.9238h-.0557a1.6033,1.6033,0,0,1-1.6387,1.0557,1.6742,1.6742,0,0,1-1.9033-1.7159c0-1.0673.7695-1.6611,2.42-1.6611h1.1221v-.5615c0-.8027-.44-1.2432-1.3418-1.2432a1.5833,1.5833,0,0,0-1.4414.8477l-.5283-.4951a2.158,2.158,0,0,1,2.0137-1.1114c1.3642,0,2.1777.7149,2.1777,1.9141v3.124h.6494v.77Zm-1.0342-1.65v-.9345h-1.166c-1.001,0-1.4522.3076-1.4522.8574v.2314c0,.5606.44.88,1.1221.88C564.2646,442.9824,564.8916,442.5312,564.8916,441.9482Z"/><path d="M571.1172,437.9219h.8691l-2.541,6.997c-.2529.6817-.4844.88-1.32.88h-.4512v-.77h.8907l.43-1.2109-2.123-5.8965h.88l1.3642,3.8613.2637.9238h.0547l.3086-.9238Z"/><path d="M572.6348,440.76c0-1.8037,1.0127-2.97,2.5527-2.97a2.4854,2.4854,0,0,1,2.4531,2.7725v.418H573.56v.2636a1.6078,1.6078,0,0,0,1.6826,1.7168,1.6452,1.6452,0,0,0,1.5625-.9795l.6269.4512a2.3814,2.3814,0,0,1-2.2441,1.2979C573.6475,443.7305,572.6348,442.5645,572.6348,440.76Zm.9248-.5166v.0771h3.1357v-.1211a1.51,1.51,0,0,0-1.5078-1.6719A1.613,1.613,0,0,0,573.56,440.2432Z"/><path d="M579.0928,443.5986v-5.6767h.88v1.0449h.0546a1.631,1.631,0,0,1,1.64-1.0449h.3408v.88H581.49c-.9453,0-1.5175.4072-1.5175.9462v3.8506Z"/><path d="M461.1289,453.96c0-1.8038,1.0459-2.97,2.5635-2.97s2.5635,1.166,2.5635,2.97-1.045,2.9707-2.5635,2.9707S461.1289,455.7646,461.1289,453.96Zm4.1807.4072v-.8135a1.6248,1.6248,0,1,0-3.2344,0v.8135a1.6248,1.6248,0,1,0,3.2344,0Z"/><path d="M467.9492,451.8926h-.9238v-.7705h.9238v-1.1446a1.1726,1.1726,0,0,1,1.2432-1.32h.8584v.7705h-1.2217v1.6944h1.2217v.7705h-1.2217v4.9062h-.88Z"/><path d="M473.2627,455.8193l.6269-.5058a2.06,2.06,0,0,0,1.6827.8691c.748,0,1.1884-.3408,1.1884-.9238,0-.44-.2421-.7813-.99-.8916l-.4512-.0654c-1.0449-.1543-1.8261-.583-1.8261-1.64,0-1.1221.8691-1.6719,2.0244-1.6719a2.3634,2.3634,0,0,1,1.98.9131l-.583.5283a1.7507,1.7507,0,0,0-1.4638-.6933c-.7256,0-1.11.3408-1.11.88,0,.55.3848.77,1.0889.88l.44.0665c1.2539.1865,1.7373.7373,1.7373,1.5947,0,1.1006-.8027,1.7715-2.1006,1.7715A2.6357,2.6357,0,0,1,473.2627,455.8193Z"/><path d="M478.7393,453.96c0-1.8038,1.0127-2.97,2.5527-2.97a2.4854,2.4854,0,0,1,2.4531,2.7725v.418h-4.081v.2636a1.6078,1.6078,0,0,0,1.6826,1.7168,1.6452,1.6452,0,0,0,1.5625-.9795l.6269.4512a2.3814,2.3814,0,0,1-2.2441,1.2979C479.752,456.9307,478.7393,455.7646,478.7393,453.96Zm.9248-.5166v.0771h3.1347v-.1211a1.5093,1.5093,0,0,0-1.5068-1.6719A1.613,1.613,0,0,0,479.6641,453.4434Z"/><path d="M484.7783,453.96c0-1.8145.9356-2.97,2.5313-2.97a2.1271,2.1271,0,0,1,2.123,1.3311l-.7373.374a1.3674,1.3674,0,0,0-1.3857-.9238,1.5243,1.5243,0,0,0-1.585,1.7051v.9677a1.5243,1.5243,0,0,0,1.585,1.7051,1.6025,1.6025,0,0,0,1.54-.99l.6377.43a2.2385,2.2385,0,0,1-2.1777,1.3418C485.7139,456.9307,484.7783,455.7754,484.7783,453.96Z"/><path d="M494.2285,455.875h-.0439a1.5775,1.5775,0,0,1-1.5957,1.0557c-1.166,0-1.9141-.792-1.9141-2.167v-3.6416h.88v3.4873c0,1.0127.4512,1.5293,1.2988,1.5293.6934,0,1.375-.3408,1.375-1.0889v-3.9277h.88v5.6767h-.88Z"/><path d="M496.9785,456.7988v-5.6767h.88v1.0449h.0547a1.6308,1.6308,0,0,1,1.64-1.0449h.3409v.88h-.5176c-.9453,0-1.5176.4072-1.5176.9462v3.8506Z"/><path d="M500.916,449.2959v-.1436c0-.2968.1651-.4951.5391-.4951s.539.1983.539.4951v.1436c0,.2969-.165.4951-.539.4951S500.916,449.5928,500.916,449.2959Zm.1,1.8262h.88v5.6767h-.88Z"/><path d="M505.02,456.7988a.8667.8667,0,0,1-.9355-.9355v-3.9707h-.9346v-.7705h.5274c.374,0,.4951-.1319.4951-.5176v-1.0557h.7929v1.5733h1.2432v.7705h-1.2432v4.1357h1.1543v.7705Z"/><path d="M511.124,451.1221h.8692l-2.5411,6.997c-.2529.6817-.4843.88-1.32.88h-.4511v-.77h.8906l.43-1.2109-2.1231-5.8965h.88l1.3643,3.8613.2636.9238h.0547l.3086-.9238Z"/><path d="M467.3594,296.4668v-7.6792h4.9394v1.2871h-3.4873v1.9033h3.0362v1.2871h-3.0362v3.2017Z"/><path d="M473.3877,296.4668v-1.166h1.0117v-5.3472h-1.0117v-1.166h3.4873v1.166h-1.0234v5.3472h1.0234v1.166Z"/><path d="M478.3594,296.4668v-7.6792h3.4541a2.3786,2.3786,0,0,1,0,4.7529h-2.002v2.9263Zm1.4521-4.1807h1.87a.808.808,0,0,0,.9024-.8691v-.5059a.8.8,0,0,0-.9024-.8584h-1.87Z"/><path d="M484.86,295.3228l.9785-.9463a2.5024,2.5024,0,0,0,1.97.9463c.8906,0,1.3525-.4292,1.3525-1.0782,0-.5171-.2412-.8364-1.0449-.9795l-.7256-.11c-1.5517-.2422-2.3-.979-2.3-2.2334,0-1.375,1.0674-2.2661,2.7832-2.2661a3.229,3.229,0,0,1,2.63,1.1333l-.99.935a2.0443,2.0443,0,0,0-1.7158-.7925c-.8252,0-1.2549.33-1.2549.9024,0,.583.33.8252,1.0674.957l.7148.1323c1.5518.2749,2.2773.9678,2.2773,2.2329,0,1.4527-1.0449,2.4424-2.8818,2.4424A3.5632,3.5632,0,0,1,484.86,295.3228Z"/><path d="M494.65,296.4668V295.29h1.9912v-5.1929l-1.8594,1.0454-.5508-1.0562,2.3213-1.2983h1.5078v6.502h1.7823v1.1772Z"/><path d="M504.1768,296.4668v-1.4854H500.7V293.75l3.0586-4.9619h1.793v5.0718h1.0009v1.122h-1.0009v1.4854Zm-2.2891-2.6074h2.2891v-3.6636h-.0879Z"/><path d="M507.3877,292.6274c0-2.5087.9023-3.9716,2.86-3.9716s2.8614,1.4629,2.8614,3.9716-.9024,3.9712-2.8614,3.9712S507.3877,295.1357,507.3877,292.6274Zm4.1807.6929v-1.3862c0-1.2652-.3409-2.0571-1.32-2.0571s-1.3193.7919-1.3193,2.0571V293.32c0,1.2651.3408,2.0571,1.3193,2.0571S511.5684,294.5854,511.5684,293.32Z"/><path d="M514.1855,293.8154v-1.3969h3.1465v1.3969Z"/><path d="M523.9766,296.4668h-5.3252v-1.3423l2.4091-2.1123c.8145-.7148,1.1885-1.2432,1.1885-1.9141v-.143a1.0344,1.0344,0,0,0-1.1328-1.0454,1.3475,1.3475,0,0,0-1.3428,1.1445L518.52,290.57a2.6558,2.6558,0,0,1,2.7178-1.914,2.27,2.27,0,0,1,2.541,2.288c0,1.2764-.8691,2.09-1.9365,2.9708l-1.6172,1.331h3.752Z"/><path d="M528.0674,296.4668v-7.6792H529.52V295.18h3.0254v1.2871Z"/><path d="M533.2158,293.5845c0-1.8155.9785-2.9927,2.6621-2.9927,1.793,0,2.6182,1.32,2.6182,2.8936v.4619h-3.8174v.143a1.2754,1.2754,0,0,0,1.3975,1.3863,1.7439,1.7439,0,0,0,1.4629-.7813l.7588.8472a2.84,2.84,0,0,1-2.376,1.0561C534.2275,296.5986,533.2158,295.4219,533.2158,293.5845Zm1.4629-.5943v.0879h2.3545V292.98c0-.7925-.4072-1.3316-1.1338-1.3316A1.2194,1.2194,0,0,0,534.6787,292.99Z"/><path d="M540.8721,296.4668l-1.9151-5.7427h1.3868l.8027,2.4751.5615,2.0464h.0772l.56-2.0464.7813-2.4751H544.47l-1.9258,5.7427Z"/><path d="M544.9307,293.5845c0-1.8155.9785-2.9927,2.6621-2.9927,1.7929,0,2.6181,1.32,2.6181,2.8936v.4619h-3.8173v.143a1.2754,1.2754,0,0,0,1.3974,1.3863,1.7439,1.7439,0,0,0,1.4629-.7813l.7588.8472a2.84,2.84,0,0,1-2.376,1.0561C545.9424,296.5986,544.9307,295.4219,544.9307,293.5845Zm1.4629-.5943v.0879h2.3544V292.98c0-.7925-.4072-1.3316-1.1337-1.3316A1.2193,1.2193,0,0,0,546.3936,292.99Z"/><path d="M552.8613,296.4668a1.2453,1.2453,0,0,1-1.4082-1.3862v-6.7549h1.4082v7.019h.76v1.1221Z"/><path d="M559.3516,291.89c.8808,0,1.2871-.4072,1.2871-.957v-.0771a1.0006,1.0006,0,0,0-1.1328-1.0122,1.8215,1.8215,0,0,0-1.5733.9243l-.9238-.8365a2.8858,2.8858,0,0,1,2.541-1.2758c1.5518,0,2.6074.77,2.6074,2.0019a1.7356,1.7356,0,0,1-1.4746,1.75v.0659a1.8232,1.8232,0,0,1,1.6065,1.87c0,1.3535-1.1329,2.2553-2.8272,2.2553a2.9635,2.9635,0,0,1-2.7285-1.43l1.0674-.814a1.7664,1.7664,0,0,0,1.6611,1.0561c.8467,0,1.32-.44,1.32-1.1552v-.0772c0-.7041-.5176-1.0781-1.4306-1.0781h-.7588v-1.21Z"/><path d="M472.2881,306.0146h-3.8838v3.6524h-.9238v-7.6792h.9238V305.2h3.8838v-3.2124h.9238v7.6792h-.9238Z"/><path d="M479.2949,309.667a.9173.9173,0,0,1-.9795-.9243h-.0547a1.6028,1.6028,0,0,1-1.64,1.0561,1.674,1.674,0,0,1-1.9033-1.7163c0-1.0669.77-1.6611,2.4209-1.6611h1.122v-.561c0-.8033-.44-1.2432-1.3418-1.2432a1.5839,1.5839,0,0,0-1.4414.8472l-.5283-.4952a2.158,2.158,0,0,1,2.0137-1.1113c1.3642,0,2.1777.7153,2.1777,1.9146v3.1245h.6494v.77Zm-1.0342-1.65v-.9351h-1.166c-1.0009,0-1.4521.3081-1.4521.8584v.231c0,.561.4394.88,1.122.88C477.6338,309.0508,478.2607,308.6,478.2607,308.0166Z"/><path d="M481.043,309.667V303.99h.8808v1.045h.0547a1.6306,1.6306,0,0,1,1.6387-1.045h.3418v.88h-.5176c-.9463,0-1.5176.4072-1.5176.9463v3.8506Z"/><path d="M488.6445,308.7427h-.0439a1.7109,1.7109,0,0,1-1.6611,1.0561c-1.419,0-2.3106-1.1548-2.3106-2.97s.8916-2.9707,2.3106-2.9707a1.6579,1.6579,0,0,1,1.6611,1.0567h.0439v-3.3887h.88v8.1411h-.88Zm0-.8911v-2.1123c0-.627-.66-1.0889-1.4629-1.0889a1.5492,1.5492,0,0,0-1.6064,1.6943v.9678a1.5492,1.5492,0,0,0,1.6064,1.6943C487.9844,309.0068,488.6445,308.5889,488.6445,307.8516Z"/><path d="M490.8,303.99h.8584l.6045,2.4532.6055,2.4863h.0214l.6934-2.4863.7149-2.4532h.7812l.7373,2.4532.7041,2.4863h.0225l.583-2.4863.6162-2.4532h.8252L497.06,309.667h-1.0889l-.792-2.7285-.4951-1.7271h-.0225l-.4834,1.7271-.7929,2.7285h-1.0664Z"/><path d="M503.8682,309.667a.9165.9165,0,0,1-.9786-.9243h-.0556a1.6017,1.6017,0,0,1-1.6387,1.0561,1.674,1.674,0,0,1-1.9033-1.7163c0-1.0669.7705-1.6611,2.42-1.6611h1.1221v-.561c0-.8033-.44-1.2432-1.3418-1.2432a1.5859,1.5859,0,0,0-1.4414.8472l-.5274-.4952a2.1565,2.1565,0,0,1,2.0127-1.1113c1.3643,0,2.1787.7153,2.1787,1.9146v3.1245h.6485v.77Zm-1.0342-1.65v-.9351h-1.166c-1.001,0-1.4522.3081-1.4522.8584v.231c0,.561.44.88,1.1221.88C502.207,309.0508,502.834,308.6,502.834,308.0166Z"/><path d="M505.6172,309.667V303.99h.88v1.045h.0547a1.6318,1.6318,0,0,1,1.64-1.045h.3408v.88h-.5166c-.9463,0-1.5185.4072-1.5185.9463v3.8506Z"/><path d="M509.1807,306.8286c0-1.8042,1.0127-2.9707,2.5527-2.9707a2.4856,2.4856,0,0,1,2.4531,2.7725v.4184h-4.081v.2637a1.6074,1.6074,0,0,0,1.6826,1.7163,1.6457,1.6457,0,0,0,1.5625-.979l.6269.4512a2.3814,2.3814,0,0,1-2.2441,1.2978C510.1934,309.7988,509.1807,308.6328,509.1807,306.8286Zm.9248-.5171v.0772H513.24v-.1211a1.5094,1.5094,0,0,0-1.5068-1.6724A1.6134,1.6134,0,0,0,510.1055,306.3115Z"/><path d="M517.6943,308.688l.627-.5064a2.0614,2.0614,0,0,0,1.6836.8692c.748,0,1.1885-.3408,1.1885-.9238,0-.44-.2422-.7813-.99-.8912l-.4511-.0664c-1.045-.1538-1.8262-.583-1.8262-1.6391,0-1.1221.8691-1.6724,2.0244-1.6724a2.3649,2.3649,0,0,1,1.9805.9136l-.583.5278a1.7533,1.7533,0,0,0-1.4639-.6929c-.7256,0-1.1113.3409-1.1113.88,0,.55.3857.77,1.09.88l.4395.0659c1.2548.187,1.7382.7368,1.7382,1.5952,0,1.1-.8027,1.771-2.1005,1.771A2.64,2.64,0,0,1,517.6943,308.688Z"/><path d="M523.1729,306.8286c0-1.8042,1.0117-2.9707,2.5517-2.9707a2.4863,2.4863,0,0,1,2.4541,2.7725v.4184h-4.082v.2637a1.6077,1.6077,0,0,0,1.6836,1.7163,1.6444,1.6444,0,0,0,1.5615-.979l.6279.4512a2.3831,2.3831,0,0,1-2.2451,1.2978C524.1846,309.7988,523.1729,308.6328,523.1729,306.8286Zm.9238-.5171v.0772h3.1357v-.1211a1.51,1.51,0,0,0-1.5078-1.6724A1.6134,1.6134,0,0,0,524.0967,306.3115Z"/><path d="M529.2119,306.8286c0-1.8154.9346-2.9707,2.53-2.9707a2.1273,2.1273,0,0,1,2.123,1.3316l-.7373.374a1.3671,1.3671,0,0,0-1.3857-.9243,1.5245,1.5245,0,0,0-1.584,1.7055v.9678a1.5245,1.5245,0,0,0,1.584,1.7056,1.6022,1.6022,0,0,0,1.54-.99l.6377.4292a2.2367,2.2367,0,0,1-2.1777,1.3418C530.1465,309.7988,529.2119,308.644,529.2119,306.8286Z"/><path d="M538.6611,308.7427h-.0439a1.5765,1.5765,0,0,1-1.5947,1.0561c-1.1661,0-1.9141-.792-1.9141-2.167V303.99h.88v3.4873c0,1.0122.4512,1.5293,1.2978,1.5293.6934,0,1.375-.3408,1.375-1.0888V303.99h.8809v5.6768h-.8809Z"/><path d="M541.41,309.667V303.99h.8808v1.045h.0547a1.63,1.63,0,0,1,1.6387-1.045h.3418v.88h-.5176c-.9463,0-1.5176.4072-1.5176.9463v3.8506Z"/><path d="M545.3486,302.1641v-.1431c0-.2974.1651-.4951.5391-.4951s.5391.1977.5391.4951v.1431c0,.2968-.1651.4951-.5391.4951S545.3486,302.4609,545.3486,302.1641Zm.0987,1.8261h.8808v5.6768h-.8808Z"/><path d="M549.4521,309.667a.8669.8669,0,0,1-.9355-.9351V304.76h-.9355v-.77h.5283c.374,0,.4951-.1323.4951-.5171V302.417h.792V303.99H550.64v.77h-1.2431v4.1367h1.1553v.77Z"/><path d="M555.5566,303.99h.8692l-2.541,6.9971c-.253.6821-.4844.88-1.32.88h-.4512v-.77h.8916l.4287-1.21-2.1231-5.897h.88l1.3643,3.8614.2637.9243h.0556l.3076-.9243Z"/><path d="M560.1436,309.667V303.99h.88v.9244h.044a1.5278,1.5278,0,0,1,1.5293-1.0567,1.7473,1.7473,0,0,1,1.7383,1.1553h.0224a1.7026,1.7026,0,0,1,1.7266-1.1553c1.1553,0,1.8486.7925,1.8486,2.1675v3.6416h-.88V306.18c0-1.0015-.3857-1.5293-1.2431-1.5293-.6934,0-1.3321.352-1.3321,1.0781v3.9385h-.88V306.18c0-1.0122-.3848-1.5293-1.2207-1.5293-.6934,0-1.3536.352-1.3536,1.0781v3.9385Z"/><path d="M569.3281,306.8286c0-1.8042,1.0449-2.9707,2.5635-2.9707s2.5635,1.1665,2.5635,2.9707-1.0459,2.97-2.5635,2.97S569.3281,308.6328,569.3281,306.8286Zm4.1807.4072v-.8144a1.6248,1.6248,0,1,0-3.2344,0v.8144a1.6248,1.6248,0,1,0,3.2344,0Z"/><path d="M579.5361,308.7427h-.0439a1.7109,1.7109,0,0,1-1.6611,1.0561c-1.419,0-2.31-1.1548-2.31-2.97s.8906-2.9707,2.31-2.9707a1.6579,1.6579,0,0,1,1.6611,1.0567h.0439v-3.3887h.8809v8.1411h-.8809Zm0-.8911v-2.1123c0-.627-.6591-1.0889-1.4629-1.0889a1.5492,1.5492,0,0,0-1.6064,1.6943v.9678a1.5492,1.5492,0,0,0,1.6064,1.6943C578.877,309.0068,579.5361,308.5889,579.5361,307.8516Z"/><path d="M585.7842,308.7427h-.044a1.5765,1.5765,0,0,1-1.5947,1.0561c-1.166,0-1.9141-.792-1.9141-2.167V303.99h.88v3.4873c0,1.0122.4512,1.5293,1.2979,1.5293.6933,0,1.375-.3408,1.375-1.0888V303.99h.8808v5.6768h-.8808Z"/><path d="M589.4688,309.667a.8607.8607,0,0,1-.9346-.9131v-7.228h.88v7.3711h.8359v.77Z"/><path d="M591.1074,306.8286c0-1.8042,1.0127-2.9707,2.5528-2.9707a2.4856,2.4856,0,0,1,2.4531,2.7725v.4184h-4.0811v.2637a1.6075,1.6075,0,0,0,1.6826,1.7163,1.6456,1.6456,0,0,0,1.5625-.979l.627.4512a2.3816,2.3816,0,0,1-2.2441,1.2978C592.12,309.7988,591.1074,308.6328,591.1074,306.8286Zm.9248-.5171v.0772h3.1348v-.1211a1.5094,1.5094,0,0,0-1.5068-1.6724A1.6134,1.6134,0,0,0,592.0322,306.3115Z"/><path d="M556.3037,221.8955h-.9248v-7.6792h3.0586a2.1956,2.1956,0,0,1,.6055,4.2905l1.76,3.3887h-1.0449l-1.6611-3.3h-1.793Zm2.1338-4.0928a1.0285,1.0285,0,0,0,1.1553-1.1v-.5717a1.0285,1.0285,0,0,0-1.1553-1.1h-2.1338v2.7719Z"/><path d="M561.748,219.0571c0-1.8042,1.045-2.9707,2.5635-2.9707s2.5635,1.1665,2.5635,2.9707-1.0449,2.97-2.5635,2.97S561.748,220.8613,561.748,219.0571Zm4.1807.4073V218.65a1.6248,1.6248,0,1,0-3.2344,0v.8145a1.6248,1.6248,0,1,0,3.2344,0Z"/><path d="M567.9082,219.0571c0-1.8042,1.0449-2.9707,2.5635-2.9707s2.5635,1.1665,2.5635,2.9707-1.045,2.97-2.5635,2.97S567.9082,220.8613,567.9082,219.0571Zm4.1807.4073V218.65a1.6248,1.6248,0,1,0-3.2344,0v.8145a1.6248,1.6248,0,1,0,3.2344,0Z"/><path d="M575.74,221.8955a.8665.8665,0,0,1-.9345-.9351v-3.9716H573.87v-.77h.5283c.3741,0,.4952-.1324.4952-.5171v-1.0562h.7919v1.5733h1.2432v.77h-1.2432v4.1367h1.1553v.77Z"/><path d="M580.9434,213.7544h.88v5.16h.044l.8691-.9683,1.6065-1.727H585.41l-2.1016,2.2441,2.3105,3.4326h-1.0673l-1.8809-2.8935-.8477.8691v2.0244h-.88Z"/><path d="M586.1348,219.0571c0-1.8042,1.0127-2.9707,2.5527-2.9707a2.4856,2.4856,0,0,1,2.4531,2.7725v.4184H587.06v.2637a1.6074,1.6074,0,0,0,1.6826,1.7163,1.6457,1.6457,0,0,0,1.5625-.979l.6269.4512a2.3814,2.3814,0,0,1-2.2441,1.2978C587.1475,222.0273,586.1348,220.8613,586.1348,219.0571Zm.9248-.5171v.0772h3.1347v-.1211a1.5094,1.5094,0,0,0-1.5068-1.6724A1.6134,1.6134,0,0,0,587.06,218.54Z"/><path d="M596.0361,216.2188h.8692l-2.542,6.997c-.2529.6821-.4834.88-1.3194.88h-.4511v-.77h.8906l.43-1.21-2.124-5.8969h.8808l1.3633,3.8613.2647.9243h.0546l.3086-.9243Z"/><path d="M600.2373,218.1108c0-2.5962,1.3311-4.0263,3.3994-4.0263a2.8451,2.8451,0,0,1,2.8711,1.8042l-1.4414.748a1.3605,1.3605,0,0,0-1.43-1.0669c-.98,0-1.6289.66-1.6289,1.87v1.232c0,1.21.6494,1.8706,1.6289,1.8706a1.5765,1.5765,0,0,0,1.5293-1.1446l1.3633.7925a2.9993,2.9993,0,0,1-2.8926,1.8369C601.5684,222.0273,600.2373,220.7075,600.2373,218.1108Z"/><g id="Root_key_B" data-name="Root key B"><path d="M474.6523,221.896h-.9248v-7.6792h3.0586a2.1956,2.1956,0,0,1,.6055,4.29l1.76,3.3887h-1.045l-1.6611-3.3h-1.793Zm2.1338-4.0928a1.0285,1.0285,0,0,0,1.1553-1.1v-.5718a1.0285,1.0285,0,0,0-1.1553-1.1h-2.1338v2.772Z"/><path d="M480.0967,219.0576c0-1.8042,1.0449-2.9707,2.5635-2.9707s2.5634,1.1665,2.5634,2.9707-1.0449,2.97-2.5634,2.97S480.0967,220.8618,480.0967,219.0576Zm4.1806.4072V218.65a1.6248,1.6248,0,1,0-3.2343,0v.8144a1.6248,1.6248,0,1,0,3.2343,0Z"/><path d="M486.2568,219.0576c0-1.8042,1.045-2.9707,2.5635-2.9707s2.5635,1.1665,2.5635,2.9707-1.0449,2.97-2.5635,2.97S486.2568,220.8618,486.2568,219.0576Zm4.1807.4072V218.65a1.6248,1.6248,0,1,0-3.2344,0v.8144a1.6248,1.6248,0,1,0,3.2344,0Z"/><path d="M494.0889,221.896a.8661.8661,0,0,1-.9346-.9351v-3.9716h-.9355v-.77h.5283c.374,0,.4951-.1323.4951-.5171V214.646h.792v1.5732h1.2431v.77h-1.2431v4.1367H495.19v.77Z"/><path d="M499.292,213.7549h.88v5.16h.0439l.8692-.9683,1.6064-1.7271h1.0674l-2.1016,2.2442,2.3106,3.4326H502.9l-1.8809-2.8936-.8476.8692v2.0244h-.88Z"/><path d="M504.4834,219.0576c0-1.8042,1.0127-2.9707,2.5527-2.9707a2.4856,2.4856,0,0,1,2.4532,2.7725v.4184h-4.0811v.2637a1.6075,1.6075,0,0,0,1.6826,1.7163,1.6456,1.6456,0,0,0,1.5625-.979l.627.4512a2.3817,2.3817,0,0,1-2.2442,1.2978C505.4961,222.0278,504.4834,220.8618,504.4834,219.0576Zm.9248-.5171v.0772h3.1348v-.1211a1.5094,1.5094,0,0,0-1.5069-1.6724A1.6134,1.6134,0,0,0,505.4082,218.5405Z"/><path d="M514.3838,216.2192h.8691l-2.541,6.9971c-.2529.6821-.4844.88-1.32.88H510.94v-.77h.8916l.4287-1.21-2.123-5.897h.88l1.3642,3.8614.2637.9243h.0557l.3076-.9243Z"/><path d="M518.8828,214.2168h3.73a1.8584,1.8584,0,0,1,2.0244,1.9692c0,1.1773-.6494,1.6172-1.4306,1.65v.0659a1.6983,1.6983,0,0,1,1.7275,1.8042,2.0669,2.0669,0,0,1-1.9805,2.1895h-4.07Zm1.6719,3.1465h1.6611a.6477.6477,0,0,0,.7041-.7041v-.33a.6477.6477,0,0,0-.7041-.7041h-1.6611Zm0,3.1245h1.9258a.6479.6479,0,0,0,.7148-.6929V219.42a.6479.6479,0,0,0-.7148-.6929h-1.9258Z"/></g><path d="M393.86,221.896h-.9244v-7.6792h3.0586a2.1955,2.1955,0,0,1,.605,4.29l1.76,3.3887h-1.045l-1.6611-3.3H393.86Zm2.1342-4.0928a1.0287,1.0287,0,0,0,1.1553-1.1v-.5718a1.0287,1.0287,0,0,0-1.1553-1.1H393.86v2.772Z"/><path d="M399.3052,219.0576c0-1.8042,1.0449-2.9707,2.563-2.9707s2.5634,1.1665,2.5634,2.9707-1.0449,2.97-2.5634,2.97S399.3052,220.8618,399.3052,219.0576Zm4.18.4072V218.65a1.6246,1.6246,0,1,0-3.2339,0v.8144a1.6246,1.6246,0,1,0,3.2339,0Z"/><path d="M405.4648,219.0576c0-1.8042,1.045-2.9707,2.5635-2.9707s2.5635,1.1665,2.5635,2.9707-1.0449,2.97-2.5635,2.97S405.4648,220.8618,405.4648,219.0576Zm4.1807.4072V218.65a1.6248,1.6248,0,1,0-3.2344,0v.8144a1.6248,1.6248,0,1,0,3.2344,0Z"/><path d="M413.2969,221.896a.8661.8661,0,0,1-.9346-.9351v-3.9716h-.9355v-.77h.5283c.374,0,.4951-.1323.4951-.5171V214.646h.792v1.5732h1.2432v.77h-1.2432v4.1367h1.1553v.77Z"/><path d="M418.5,213.7549h.88v5.16h.0439l.8692-.9683,1.6064-1.7271h1.0674l-2.1016,2.2442,2.3106,3.4326h-1.0674l-1.8809-2.8936-.8476.8692v2.0244h-.88Z"/><path d="M423.6914,219.0576c0-1.8042,1.0127-2.9707,2.5527-2.9707a2.4856,2.4856,0,0,1,2.4532,2.7725v.4184h-4.0811v.2637a1.6075,1.6075,0,0,0,1.6826,1.7163,1.6456,1.6456,0,0,0,1.5625-.979l.627.4512a2.3817,2.3817,0,0,1-2.2442,1.2978C424.7041,222.0278,423.6914,220.8618,423.6914,219.0576Zm.9248-.5171v.0772h3.1348v-.1211a1.5094,1.5094,0,0,0-1.5069-1.6724A1.6134,1.6134,0,0,0,424.6162,218.5405Z"/><path d="M433.5918,216.2192h.8691l-2.541,6.9971c-.2529.6821-.4844.88-1.32.88h-.4512v-.77h.8916l.4288-1.21-2.1231-5.897h.88l1.3642,3.8614.2637.9243h.0557l.3076-.9243Z"/><path d="M442.8213,221.896l-.55-1.8262H439.708l-.5508,1.8262h-1.6933l2.53-7.69h2.0684l2.4971,7.69Zm-1.8154-6.1606h-.0547l-.8477,2.915h1.7608Z"/><path d="M383.3994,145.5854l-1.1157,1.3194v2.4707h-1.583v-8.3716h1.583v4.126h.06l1.1874-1.5713,2.0748-2.5547h1.8232l-2.9146,3.49,3.1543,4.8814h-1.8828Z"/><path d="M388.021,146.2334c0-1.979,1.0674-3.2622,2.9023-3.2622,1.9551,0,2.8545,1.439,2.8545,3.1543v.5034h-4.1616v.1563a1.39,1.39,0,0,0,1.523,1.5107,1.9,1.9,0,0,0,1.5952-.8516l.8276.9239a3.0988,3.0988,0,0,1-2.5908,1.1513C389.1245,149.52,388.021,148.2363,388.021,146.2334Zm1.5952-.648v.0962h2.5664v-.1079c0-.8637-.4438-1.4511-1.2353-1.4511A1.3287,1.3287,0,0,0,389.6162,145.5854Z"/><path d="M398.9028,143.1147h1.439l-2.5186,7.376a1.6177,1.6177,0,0,1-1.7871,1.2837h-.9233v-1.2236H396.24l.2876-.8755-2.2426-6.5606h1.5234l1.0913,3.3106.4077,1.583h.0718l.4316-1.583Z"/><path d="M404.28,149.3755v-8.3716h3.7666a2.593,2.593,0,0,1,0,5.1812h-2.1836v3.19Zm1.583-4.5576h2.039a.8808.8808,0,0,0,.9834-.9473v-.5518a.8723.8723,0,0,0-.9834-.9355h-2.039Z"/><path d="M411.7568,149.3755v-6.2608h1.5352V144.41h.06a1.6062,1.6062,0,0,1,1.6552-1.2955h.336v1.4512h-.48c-1.0313,0-1.5713.2881-1.5713.9717v3.8379Z"/><path d="M415.9922,146.2334c0-2.0029,1.1152-3.2622,2.9023-3.2622,1.7989,0,2.9151,1.2593,2.9151,3.2622,0,2.0146-1.1162,3.2861-2.9151,3.2861C417.1074,149.52,415.9922,148.248,415.9922,146.2334Zm4.21.5874v-1.1631c0-.9355-.5029-1.4512-1.3076-1.4512-.791,0-1.2949.5157-1.2949,1.4512v1.1631c0,.9478.5039,1.4634,1.2949,1.4634C419.6992,148.2842,420.2021,147.7686,420.2021,146.8208Z"/><path d="M425.0752,149.3755a1.4487,1.4487,0,0,1-1.6191-1.5952v-3.4541h-.9229v-1.2115h.4795c.4561,0,.6-.2158.6-.6474V141.4h1.3789v1.7148h1.2842v1.2115h-1.2842v3.8261h1.1875v1.2232Z"/><path d="M427.1406,146.2334c0-1.979,1.0674-3.2622,2.9024-3.2622,1.955,0,2.8545,1.439,2.8545,3.1543v.5034h-4.1612v.1563a1.39,1.39,0,0,0,1.5225,1.5107,1.8981,1.8981,0,0,0,1.5947-.8516l.8281.9239a3.0994,3.0994,0,0,1-2.5908,1.1513C428.2441,149.52,427.1406,148.2363,427.1406,146.2334Zm1.5957-.648v.0962h2.5664v-.1079c0-.8637-.4443-1.4511-1.2363-1.4511A1.3285,1.3285,0,0,0,428.7363,145.5854Z"/><path d="M433.8359,146.2334c0-2.0029,1.044-3.2622,2.8907-3.2622a2.42,2.42,0,0,1,2.4589,1.583l-1.26.5635a1.168,1.168,0,0,0-1.1992-.9112c-.8516,0-1.2832.6-1.2832,1.4751v1.1392c0,.8755.4316,1.4634,1.2832,1.4634a1.3381,1.3381,0,0,0,1.3193-.9834l1.1758.5635a2.4473,2.4473,0,0,1-2.4951,1.6552C434.88,149.52,433.8359,148.248,433.8359,146.2334Z"/><path d="M442.3672,149.3755a1.4488,1.4488,0,0,1-1.6192-1.5952v-3.4541h-.9238v-1.2115h.4805c.4551,0,.6-.2158.6-.6474V141.4h1.3789v1.7148h1.2832v1.2115h-1.2832v3.8261h1.1875v1.2232Z"/><path d="M365.353,107.3755V106.104h1.1035v-5.8286H365.353V99.0039h3.8018v1.2715H368.04v5.8286h1.1152v1.2715Z"/><path d="M370.7764,99.0039h3.874a2.0352,2.0352,0,0,1,2.2187,2.147,1.57,1.57,0,0,1-1.499,1.7988v.0723a1.8348,1.8348,0,0,1,1.8106,1.9546,2.2491,2.2491,0,0,1-2.1587,2.3989h-4.2456Zm1.583,3.49h1.9551a.8265.8265,0,0,0,.9116-.8877v-.3715a.8211.8211,0,0,0-.9116-.8877h-1.9551Zm0,3.5381h2.207a.853.853,0,0,0,.9595-.9116v-.4077a.8617.8617,0,0,0-.9595-.9233h-2.207Z"/><path d="M385.0649,101.4268h-.0478l-.6358,1.2714-1.7387,3.1661-1.7154-3.1543-.66-1.3433h-.0362v6.0088h-1.499V99.0039h1.751l2.147,4.09h.0361l2.1348-4.09h1.7627v8.3716h-1.4991Z"/><path d="M391.0083,103.25c0-2.8188,1.4033-4.39,3.61-4.39a3.0523,3.0523,0,0,1,3.0581,1.9306l-1.3555.72a1.6567,1.6567,0,0,0-1.7026-1.2475c-1.1758,0-1.9312.8515-1.9312,2.2788v1.3193c0,1.4395.7554,2.2549,1.9312,2.2549a1.8608,1.8608,0,0,0,1.811-1.331l1.2832.7553a3.2163,3.2163,0,0,1-3.0942,1.979C392.4116,107.52,391.0083,106.0684,391.0083,103.25Z"/><path d="M400.5117,107.3755a1.3576,1.3576,0,0,1-1.5351-1.5112V98.5005h1.5351v7.6518h.8272v1.2232Z"/><path d="M402.084,104.2334c0-2.0029,1.1152-3.2622,2.9023-3.2622,1.7989,0,2.9151,1.2593,2.9151,3.2622,0,2.0146-1.1162,3.2861-2.9151,3.2861C403.1992,107.52,402.084,106.248,402.084,104.2334Zm4.21.5874v-1.1631c0-.9355-.5029-1.4512-1.3076-1.4512-.791,0-1.2949.5157-1.2949,1.4512v1.1631c0,.9478.5039,1.4634,1.2949,1.4634C405.791,106.2842,406.2939,105.7686,406.2939,104.8208Z"/><path d="M413.002,106.332h-.0606a1.6967,1.6967,0,0,1-1.75,1.1875c-1.2832,0-2.0039-.8877-2.0039-2.4467v-3.9581h1.5352v3.8023c0,.8633.3242,1.331,1.0566,1.331.6113,0,1.2227-.3237,1.2227-.9956v-4.1377h1.5351v6.2608H413.002Z"/><path d="M420.2021,106.332h-.0595a1.76,1.76,0,0,1-1.7276,1.1875c-1.5712,0-2.4462-1.1875-2.4462-3.2861,0-2.0869.875-3.2622,2.4462-3.2622a1.7252,1.7252,0,0,1,1.7276,1.1753h.0595v-3.646h1.5352v8.875h-1.5352Zm0-1.1035v-1.9907c0-.6118-.5634-1.0073-1.2959-1.0073a1.3324,1.3324,0,0,0-1.33,1.4751v1.08a1.3222,1.3222,0,0,0,1.33,1.4628C419.6387,106.248,420.2021,105.8765,420.2021,105.2285Z"/><path d="M209.4434,205.3984l-.77-2.2666H205.57l-.7695,2.2666h-.9356L206.55,197.72h1.1768l2.6845,7.6787Zm-2.3-6.8213h-.0547l-1.2979,3.7413h2.6514Z"/><path d="M215.2285,204.4746h-.0439a1.7106,1.7106,0,0,1-1.6612,1.0557c-1.4189,0-2.3105-1.1553-2.3105-2.9707s.8916-2.97,2.3105-2.97a1.6579,1.6579,0,0,1,1.6612,1.0557h.0439v-3.3887h.88v8.1416h-.88Zm0-.8916v-2.1123c0-.6269-.66-1.0889-1.4629-1.0889a1.549,1.549,0,0,0-1.6064,1.6944v.9677a1.549,1.549,0,0,0,1.6064,1.6944C214.5684,204.7383,215.2285,204.32,215.2285,203.583Z"/><path d="M221.6084,204.4746h-.0439a1.7107,1.7107,0,0,1-1.6612,1.0557c-1.4189,0-2.31-1.1553-2.31-2.9707s.8916-2.97,2.31-2.97a1.6579,1.6579,0,0,1,1.6612,1.0557h.0439v-3.3887h.88v8.1416h-.88Zm0-.8916v-2.1123c0-.6269-.66-1.0889-1.4629-1.0889a1.549,1.549,0,0,0-1.6064,1.6944v.9677a1.549,1.549,0,0,0,1.6064,1.6944C220.9482,204.7383,221.6084,204.32,221.6084,203.583Z"/><path d="M226.9541,205.3984v-5.6767h.88v1.0449h.0547a1.6308,1.6308,0,0,1,1.64-1.0449h.3408v.88h-.5175c-.9454,0-1.5176.4072-1.5176.9463v3.8505Z"/><path d="M230.5176,202.56c0-1.8037,1.0459-2.97,2.5635-2.97s2.5634,1.1661,2.5634,2.97S234.6,205.53,233.0811,205.53,230.5176,204.3643,230.5176,202.56Zm4.1806.4072v-.8135a1.6248,1.6248,0,1,0-3.2343,0v.8135a1.6248,1.6248,0,1,0,3.2343,0Z"/><path d="M236.6777,202.56c0-1.8037,1.0459-2.97,2.5635-2.97s2.5635,1.1661,2.5635,2.97-1.0449,2.9707-2.5635,2.9707S236.6777,204.3643,236.6777,202.56Zm4.1807.4072v-.8135a1.6248,1.6248,0,1,0-3.2344,0v.8135a1.6248,1.6248,0,1,0,3.2344,0Z"/><path d="M244.51,205.3984a.8667.8667,0,0,1-.9356-.9355v-3.9707H242.64v-.77h.5274c.374,0,.4951-.1319.4951-.5176v-1.0557h.793v1.5733h1.2431v.77h-1.2431v4.1357h1.1543v.77Z"/><path d="M249.7129,197.2568h.88v5.16h.0439l.8692-.9678,1.6064-1.7275h1.0664l-2.1006,2.2441,2.31,3.4326h-1.0664l-1.8818-2.8935-.8467.8691v2.0244h-.88Z"/><path d="M254.9043,202.56c0-1.8037,1.0127-2.97,2.5527-2.97a2.4854,2.4854,0,0,1,2.4532,2.7725v.418h-4.0811v.2636a1.6079,1.6079,0,0,0,1.6826,1.7168,1.6452,1.6452,0,0,0,1.5625-.98l.627.4512a2.3814,2.3814,0,0,1-2.2442,1.2979C255.917,205.53,254.9043,204.3643,254.9043,202.56Zm.9248-.5166v.0771h3.1357v-.1211a1.51,1.51,0,0,0-1.5078-1.6719A1.613,1.613,0,0,0,255.8291,202.043Z"/><path d="M264.8057,199.7217h.8691l-2.541,6.9971c-.2529.6816-.4844.88-1.32.88h-.4512v-.7695h.8906l.43-1.2109-2.123-5.8965h.88l1.3642,3.8613.2637.9238h.0547l.3086-.9238Z"/><path d="M266.2129,204.4189l.6269-.5058a2.06,2.06,0,0,0,1.6827.8691c.748,0,1.1884-.3408,1.1884-.9238,0-.44-.2421-.7813-.99-.8916l-.4512-.0654c-1.0449-.1543-1.8261-.583-1.8261-1.64,0-1.1221.8691-1.6719,2.0244-1.6719a2.3634,2.3634,0,0,1,1.98.9131l-.583.5283a1.7507,1.7507,0,0,0-1.4638-.6933c-.7256,0-1.11.3408-1.11.88,0,.55.3848.77,1.0889.88l.44.0664c1.2539.1865,1.7373.7373,1.7373,1.5947,0,1.1006-.8027,1.7715-2.1006,1.7715A2.6357,2.6357,0,0,1,266.2129,204.4189Z"/><path d="M55.3623,221.896v-3.0366l-2.64-4.6426h1.0561l2.0464,3.6968h.0327l2.0464-3.6968H58.96l-2.6734,4.61v3.0693Z"/><path d="M59.0693,219.0576c0-1.8042,1.045-2.9707,2.5635-2.9707s2.5635,1.1665,2.5635,2.9707-1.0454,2.97-2.5635,2.97S59.0693,220.8618,59.0693,219.0576Zm4.1807.4072V218.65a1.6248,1.6248,0,1,0-3.2344,0v.8144a1.6248,1.6248,0,1,0,3.2344,0Z"/><path d="M69.1455,220.9717h-.0439a1.5778,1.5778,0,0,1-1.5953,1.0561c-1.166,0-1.914-.792-1.914-2.167v-3.6416h.88v3.4873c0,1.0123.4511,1.5293,1.2983,1.5293.6929,0,1.375-.3408,1.375-1.0888v-3.9278h.88v5.6768h-.88Z"/><path d="M71.895,221.896v-5.6768h.88v1.045H72.83a1.6311,1.6311,0,0,1,1.6391-1.045h.3413v.88h-.517c-.9463,0-1.5181.4072-1.5181.9463v3.8506Z"/><path d="M78.11,219.0576c0-1.8042,1.0122-2.9707,2.5522-2.9707a2.4859,2.4859,0,0,1,2.4536,2.7725v.4184H79.0342v.2637a1.6075,1.6075,0,0,0,1.6831,1.7163,1.645,1.645,0,0,0,1.562-.979l.6274.4512a2.3822,2.3822,0,0,1-2.2446,1.2978C79.1221,222.0278,78.11,220.8618,78.11,219.0576Zm.9243-.5171v.0772h3.1352v-.1211a1.51,1.51,0,0,0-1.5073-1.6724A1.6134,1.6134,0,0,0,79.0342,218.5405Z"/><path d="M84.5669,221.896v-5.6768h.88v.9244h.0439a1.6093,1.6093,0,0,1,1.606-1.0567c1.1665,0,1.9033.7925,1.9033,2.1675v3.6416h-.88v-3.4873c0-1.0122-.44-1.5293-1.2871-1.5293-.7041,0-1.3862.352-1.3862,1.0781v3.9385Z"/><path d="M92.0693,221.896a.8667.8667,0,0,1-.935-.9351v-3.9716h-.9356v-.77h.5284c.374,0,.4951-.1323.4951-.5171V214.646h.792v1.5732h1.2431v.77H92.0142v4.1367h1.1552v.77Z"/><path d="M94.2139,219.0576c0-1.8042,1.0122-2.9707,2.5522-2.9707a2.4859,2.4859,0,0,1,2.4536,2.7725v.4184H95.1382v.2637a1.6075,1.6075,0,0,0,1.6831,1.7163,1.645,1.645,0,0,0,1.562-.979l.6274.4512a2.3822,2.3822,0,0,1-2.2446,1.2978C95.2261,222.0278,94.2139,220.8618,94.2139,219.0576Zm.9243-.5171v.0772h3.1352v-.1211a1.51,1.51,0,0,0-1.5073-1.6724A1.6134,1.6134,0,0,0,95.1382,218.5405Z"/><path d="M100.6709,221.896v-5.6768h.88v1.045h.0547a1.6311,1.6311,0,0,1,1.6391-1.045h.3413v.88h-.5171c-.9463,0-1.518.4072-1.518.9463v3.8506Z"/><path d="M104.7075,216.2192h.88v.9244h.0439a1.6579,1.6579,0,0,1,1.6612-1.0567c1.4194,0,2.31,1.1553,2.31,2.9707s-.8911,2.97-2.31,2.97a1.711,1.711,0,0,1-1.6612-1.0561h-.0439v3.1245h-.88Zm3.95,3.3223v-.9678a1.5492,1.5492,0,0,0-1.6064-1.6943c-.8028,0-1.4629.4619-1.4629,1.0889v2.1123c0,.7373.66,1.1552,1.4629,1.1552A1.5492,1.5492,0,0,0,108.6572,219.5415Z"/><path d="M111.0874,221.896v-5.6768h.88v1.045h.0547a1.6311,1.6311,0,0,1,1.6391-1.045h.3413v.88h-.5171c-.9462,0-1.518.4072-1.518.9463v3.8506Z"/><path d="M115.0254,214.3931V214.25c0-.2974.165-.4951.5391-.4951s.539.1977.539.4951v.1431c0,.2968-.165.4951-.539.4951S115.0254,214.69,115.0254,214.3931Zm.0991,1.8261h.88v5.6768h-.88Z"/><path d="M117.3354,220.917l.627-.5064a2.0608,2.0608,0,0,0,1.6836.8692c.748,0,1.188-.3408,1.188-.9238,0-.44-.2422-.7813-.99-.8912l-.4512-.0664c-1.0449-.1538-1.8262-.583-1.8262-1.6391,0-1.1221.8691-1.6724,2.0244-1.6724a2.3643,2.3643,0,0,1,1.98.9136l-.5835.5278a1.7505,1.7505,0,0,0-1.4629-.6929c-.7261,0-1.1113.3409-1.1113.88,0,.55.3852.77,1.0893.88l.44.0659c1.2544.187,1.7383.7368,1.7383,1.5952,0,1.1-.8033,1.771-2.1016,1.771A2.6386,2.6386,0,0,1,117.3354,220.917Z"/><path d="M122.8135,219.0576c0-1.8042,1.0122-2.9707,2.5522-2.9707a2.4859,2.4859,0,0,1,2.4536,2.7725v.4184h-4.0815v.2637a1.6075,1.6075,0,0,0,1.6831,1.7163,1.645,1.645,0,0,0,1.562-.979l.6275.4512a2.3825,2.3825,0,0,1-2.2447,1.2978C123.8257,222.0278,122.8135,220.8618,122.8135,219.0576Zm.9243-.5171v.0772h3.1352v-.1211a1.51,1.51,0,0,0-1.5073-1.6724A1.6134,1.6134,0,0,0,123.7378,218.5405Z"/><path class="cls-30" d="M49.8,63V61.063h1.44V53.7642H49.8V51.8276h5.314v1.9366h-1.44V61.063h1.4405V63Z"/><path class="cls-30" d="M57.0166,63V54.5967h2.3691V56.021h.0957a2.2915,2.2915,0,0,1,2.337-1.6167c1.7128,0,2.625,1.2168,2.625,3.33V63H62.0747V57.9258c0-1.0723-.3042-1.6006-1.1685-1.6006-.7685,0-1.52.4-1.52,1.2324V63Z"/><path class="cls-30" d="M69.4976,63a2.2122,2.2122,0,0,1-2.4971-2.4492V56.4375H65.8159V54.5967h.5923c.64,0,.832-.32.832-.8965V52.3237h2.1289v2.273h1.6651v1.8408H69.3691v4.7217h1.5367V63Z"/><path class="cls-30" d="M72.0879,58.7905c0-2.6572,1.4087-4.3862,3.9375-4.3862,2.7851,0,3.9058,2.0171,3.9058,4.29v.7041H74.5371v.128a1.651,1.651,0,0,0,1.8565,1.809,2.6636,2.6636,0,0,0,2.0649-1.0083l1.1846,1.4722a4.5536,4.5536,0,0,1-3.5215,1.3926C73.5444,63.1919,72.0879,61.48,72.0879,58.7905Zm2.4492-.9126v.128h2.9448v-.1441c0-1.0244-.4638-1.7124-1.4082-1.7124A1.5362,1.5362,0,0,0,74.5371,57.8779Z"/><path class="cls-30" d="M84.8418,66.3936c-2.9131,0-3.9858-.7364-3.9858-1.9532A1.5659,1.5659,0,0,1,82.4248,62.84v-.1757a1.42,1.42,0,0,1-1.2168-1.4727c0-.88.7847-1.3286,1.5689-1.4888v-.0639a2.479,2.479,0,0,1-1.5044-2.4009c0-1.6968,1.184-2.8335,3.601-2.8335a5.548,5.548,0,0,1,1.4248.16v-.32A1.12,1.12,0,0,1,87.563,52.98h1.3281v1.7607H87.0347v.0962a2.4874,2.4874,0,0,1,1.44,2.4009c0,1.6807-1.1685,2.7851-3.6016,2.7851a5.92,5.92,0,0,1-1.4882-.1762.7864.7864,0,0,0-.3682.6723c0,.4.2881.64,1.0083.64h2.4331c2.0488,0,2.9292.8965,2.9292,2.4492C89.3877,65.3848,88.2671,66.3936,84.8418,66.3936Zm1.0244-3.2173H82.9849a1.0792,1.0792,0,0,0-.3042.7519c0,.6084.48.8965,1.7607.8965h.96c1.2807,0,1.7607-.2881,1.7607-.8965C87.1626,63.4482,86.8105,63.1763,85.8662,63.1763Zm.4-5.8584v-.1924c0-.7363-.4639-1.1524-1.3926-1.1524s-1.3925.4161-1.3925,1.1524v.1924c0,.7363.4643,1.1523,1.3925,1.1523S86.2661,58.0542,86.2661,57.3179Z"/><path class="cls-30" d="M90.44,63V54.5967h2.3692v1.8247h.08a2.1075,2.1075,0,0,1,2.145-1.8247h.416v2.209h-.5918c-1.3769,0-2.0488.3037-2.0488,1.28V63Z"/><path class="cls-30" d="M102.89,63a1.6,1.6,0,0,1-1.6005-1.4727h-.0962a2.27,2.27,0,0,1-2.4649,1.6646A2.341,2.341,0,0,1,96.12,60.7432c0-1.7769,1.3765-2.625,3.6011-2.625h1.3286V57.59c0-.8164-.4-1.3286-1.3926-1.3286a2.0749,2.0749,0,0,0-1.8086.9927L96.44,56.0054a3.6634,3.6634,0,0,1,3.3935-1.6011c2.3687,0,3.5855,1.0889,3.5855,3.0732v3.6817h.7841V63Zm-1.8408-2.5449v-.9927H99.897c-.9126,0-1.3926.3364-1.3926.9443v.24c0,.6084.4.8965,1.1045.8965C100.3931,61.5435,101.0493,61.2231,101.0493,60.4551Z"/><path class="cls-30" d="M108.6328,63a2.2122,2.2122,0,0,1-2.4971-2.4492V56.4375h-1.1845V54.5967h.5923c.64,0,.8325-.32.8325-.8965V52.3237h2.1284v2.273h1.665v1.8408h-1.665v4.7217h1.5366V63Z"/><path class="cls-30" d="M111.6235,52.5317V52.18c0-.6724.4161-1.1685,1.3765-1.1685s1.3765.4961,1.3765,1.1685v.352c0,.6724-.4161,1.1685-1.3765,1.1685S111.6235,53.2041,111.6235,52.5317Zm.1919,2.065h2.3692V63h-2.3692Z"/><path class="cls-30" d="M116.3916,63V54.5967h2.3691V56.021h.0957a2.2915,2.2915,0,0,1,2.337-1.6167c1.7128,0,2.625,1.2168,2.625,3.33V63H121.45V57.9258c0-1.0723-.3042-1.6006-1.1685-1.6006-.7685,0-1.52.4-1.52,1.2324V63Z"/><path class="cls-30" d="M129.1611,66.3936c-2.9131,0-3.9858-.7364-3.9858-1.9532a1.566,1.566,0,0,1,1.5688-1.6006v-.1757a1.42,1.42,0,0,1-1.2168-1.4727c0-.88.7847-1.3286,1.5689-1.4888v-.0639a2.479,2.479,0,0,1-1.5044-2.4009c0-1.6968,1.1841-2.8335,3.6011-2.8335a5.5485,5.5485,0,0,1,1.4248.16v-.32a1.12,1.12,0,0,1,1.2646-1.2646H133.21v1.7607H131.354v.0962a2.4873,2.4873,0,0,1,1.44,2.4009c0,1.6807-1.1684,2.7851-3.6015,2.7851a5.92,5.92,0,0,1-1.4883-.1762.7867.7867,0,0,0-.3682.6723c0,.4.2881.64,1.0083.64h2.4331c2.0489,0,2.9292.8965,2.9292,2.4492C133.707,65.3848,132.5864,66.3936,129.1611,66.3936Zm1.0244-3.2173h-2.8813a1.0792,1.0792,0,0,0-.3042.7519c0,.6084.4805.8965,1.7607.8965h.96c1.2808,0,1.7607-.2881,1.7607-.8965C131.4819,63.4482,131.13,63.1763,130.1855,63.1763Zm.4-5.8584v-.1924c0-.7363-.4638-1.1524-1.3925-1.1524s-1.3926.4161-1.3926,1.1524v.1924c0,.7363.4643,1.1523,1.3926,1.1523S130.5854,58.0542,130.5854,57.3179Z"/><path class="cls-30" d="M137.8467,61.6875l1.3926-1.4087a2.922,2.922,0,0,0,2.2251,1.0728c.9282,0,1.2485-.3042,1.2485-.8008,0-.416-.2564-.624-.8486-.7041l-.9122-.1118c-1.9047-.24-2.833-1.0728-2.833-2.5933,0-1.6167,1.2642-2.7373,3.2652-2.7373a4.2231,4.2231,0,0,1,3.4253,1.313l-1.36,1.3921a2.81,2.81,0,0,0-1.937-.8643c-.8,0-1.12.2881-1.12.7046,0,.4482.1919.688.88.7842l.9443.1279c1.8247.24,2.769,1.0728,2.769,2.5293,0,1.6167-1.4409,2.8008-3.6015,2.8008A4.3872,4.3872,0,0,1,137.8467,61.6875Z"/><path class="cls-30" d="M146.0708,58.7905c0-2.6572,1.4087-4.3862,3.9375-4.3862,2.7852,0,3.9058,2.0171,3.9058,4.29v.7041H148.52v.128a1.651,1.651,0,0,0,1.8565,1.809,2.6636,2.6636,0,0,0,2.0649-1.0083l1.1846,1.4722a4.5536,4.5536,0,0,1-3.5215,1.3926C147.5273,63.1919,146.0708,61.48,146.0708,58.7905Zm2.4492-.9126v.128h2.9448v-.1441c0-1.0244-.4638-1.7124-1.4082-1.7124A1.5362,1.5362,0,0,0,148.52,57.8779Z"/><path class="cls-30" d="M155.5908,63V54.5967H157.96v1.8247h.08a2.1074,2.1074,0,0,1,2.145-1.8247h.416v2.209h-.5918c-1.377,0-2.0488.3037-2.0488,1.28V63Z"/><path class="cls-30" d="M163.96,63l-2.753-8.4033h2.337l1.0405,3.393.7842,3.0415h.1279l.7847-3.0415,1.0083-3.393H169.53L166.7769,63Z"/><path class="cls-30" d="M170.5825,52.5317V52.18c0-.6724.416-1.1685,1.3765-1.1685s1.3764.4961,1.3764,1.1685v.352c0,.6724-.416,1.1685-1.3764,1.1685S170.5825,53.2041,170.5825,52.5317Zm.1919,2.065h2.3692V63h-2.3692Z"/><path class="cls-30" d="M174.8223,58.7905c0-2.6894,1.3925-4.3862,3.9218-4.3862a3.3027,3.3027,0,0,1,3.3614,2.1934l-1.9209.832a1.3917,1.3917,0,0,0-1.44-1.1524c-.96,0-1.457.688-1.457,1.7447v1.5688c0,1.0562.4966,1.7446,1.457,1.7446a1.58,1.58,0,0,0,1.5684-1.2646l1.8408.8a3.292,3.292,0,0,1-3.4092,2.3208C176.2148,63.1919,174.8223,61.48,174.8223,58.7905Z"/><path class="cls-30" d="M183.0146,58.7905c0-2.6572,1.4087-4.3862,3.9375-4.3862,2.7852,0,3.9058,2.0171,3.9058,4.29v.7041h-5.394v.128a1.6509,1.6509,0,0,0,1.8564,1.809,2.6638,2.6638,0,0,0,2.065-1.0083l1.1845,1.4722a4.5533,4.5533,0,0,1-3.5215,1.3926C184.4712,63.1919,183.0146,61.48,183.0146,58.7905Zm2.4493-.9126v.128h2.9448v-.1441c0-1.0244-.4639-1.7124-1.4082-1.7124A1.5362,1.5362,0,0,0,185.4639,57.8779Z"/><path class="cls-30" d="M191.8462,61.6875l1.3926-1.4087a2.9221,2.9221,0,0,0,2.2251,1.0728c.9282,0,1.2485-.3042,1.2485-.8008,0-.416-.2563-.624-.8486-.7041l-.9121-.1118c-1.9048-.24-2.833-1.0728-2.833-2.5933,0-1.6167,1.2641-2.7373,3.2651-2.7373a4.2231,4.2231,0,0,1,3.4253,1.313l-1.36,1.3921a2.81,2.81,0,0,0-1.937-.8643c-.8,0-1.12.2881-1.12.7046,0,.4482.1919.688.88.7842l.9448.1279c1.8247.24,2.7691,1.0728,2.7691,2.5293,0,1.6167-1.441,2.8008-3.6016,2.8008A4.3879,4.3879,0,0,1,191.8462,61.6875Z"/><path class="cls-30" d="M203.5742,54.5967h2.2891l.8159,3.393.5767,2.5611h.0639l.6719-2.5611.96-3.393h2.1612l.9761,3.393.6884,2.5611h.064l.5762-2.5611.8164-3.393h2.1928L214.1064,63h-2.4809l-1.0244-3.5532-.5923-2.1773h-.0479l-.5766,2.1773L208.36,63h-2.4327Z"/><path class="cls-30" d="M217.6382,52.5317V52.18c0-.6724.416-1.1685,1.3764-1.1685s1.3765.4961,1.3765,1.1685v.352c0,.6724-.416,1.1685-1.3765,1.1685S217.6382,53.2041,217.6382,52.5317Zm.1919,2.065h2.3691V63H217.83Z"/><path class="cls-30" d="M225.3516,63a2.2122,2.2122,0,0,1-2.4971-2.4492V56.4375H221.67V54.5967h.5923c.64,0,.8325-.32.8325-.8965V52.3237h2.1284v2.273h1.6651v1.8408h-1.6651v4.7217H226.76V63Z"/><path class="cls-30" d="M228.5342,51.1553h2.3691V56.021h.0957a2.2915,2.2915,0,0,1,2.3369-1.6167c1.7129,0,2.625,1.2168,2.625,3.33V63h-2.3686V57.9258c0-1.0723-.3042-1.6006-1.1685-1.6006-.7685,0-1.52.4-1.52,1.2324V63h-2.3691Z"/><path class="cls-30" d="M245.8633,58.1338l-1.4566,1.7607V63h-2.4331V51.8276h2.4331v5.314h.0962l1.5845-2.1606,2.5132-3.1534h2.7529l-3.7617,4.5938L251.69,63h-2.8648Z"/><path class="cls-30" d="M252.0537,58.7905c0-2.6572,1.4087-4.3862,3.9375-4.3862,2.7852,0,3.9058,2.0171,3.9058,4.29v.7041h-5.3941v.128a1.651,1.651,0,0,0,1.8565,1.809,2.6634,2.6634,0,0,0,2.0649-1.0083l1.1846,1.4722a4.5536,4.5536,0,0,1-3.5215,1.3926C253.51,63.1919,252.0537,61.48,252.0537,58.7905Zm2.4492-.9126v.128h2.9449v-.1441c0-1.0244-.4639-1.7124-1.4082-1.7124A1.5362,1.5362,0,0,0,254.5029,57.8779Z"/><path class="cls-30" d="M266.6,54.5967h2.2085l-3.2329,9.7a2.3923,2.3923,0,0,1-2.5772,1.9048h-1.4726V64.36H263.11l.288-.9283-2.9448-8.8354h2.353l1.2325,3.9214.6079,2.4331h.0962l.6245-2.4331Z"/><path class="cls-30" d="M273.91,63V51.8276h5.2822a3.2833,3.2833,0,0,1,3.3935,3.5694,3.2832,3.2832,0,0,1-3.3935,3.5693h-2.8491V63Zm2.4331-6.1465h2.561a1.0372,1.0372,0,0,0,1.1685-1.1045v-.7041a1.0372,1.0372,0,0,0-1.1685-1.1045h-2.561Z"/><path class="cls-30" d="M284.1182,63V54.5967h2.3691v1.8247h.08a2.1075,2.1075,0,0,1,2.145-1.8247h.416v2.209h-.5918c-1.3769,0-2.0488.3037-2.0488,1.28V63Z"/><path class="cls-30" d="M289.9736,58.7905c0-2.7055,1.4727-4.3862,3.9375-4.3862s3.9375,1.6807,3.9375,4.3862-1.4721,4.4014-3.9375,4.4014S289.9736,61.4956,289.9736,58.7905Zm5.41.8643V57.9419c0-1.0562-.544-1.6646-1.4727-1.6646s-1.4726.6084-1.4726,1.6646v1.7129c0,1.0561.5444,1.6645,1.4726,1.6645S295.3838,60.7109,295.3838,59.6548Z"/><path class="cls-30" d="M302.375,63a2.2122,2.2122,0,0,1-2.4971-2.4492V56.4375h-1.1845V54.5967h.5922c.64,0,.8326-.32.8326-.8965V52.3237h2.1284v2.273h1.665v1.8408h-1.665v4.7217h1.5366V63Z"/><path class="cls-30" d="M304.9658,58.7905c0-2.6572,1.4087-4.3862,3.9375-4.3862,2.7852,0,3.9058,2.0171,3.9058,4.29v.7041H307.415v.128a1.651,1.651,0,0,0,1.8565,1.809,2.6634,2.6634,0,0,0,2.0649-1.0083l1.1846,1.4722A4.5535,4.5535,0,0,1,309,63.1919C306.4224,63.1919,304.9658,61.48,304.9658,58.7905Zm2.4492-.9126v.128H310.36v-.1441c0-1.0244-.4639-1.7124-1.4082-1.7124A1.5362,1.5362,0,0,0,307.415,57.8779Z"/><path class="cls-30" d="M313.9575,58.7905c0-2.6894,1.3926-4.3862,3.9219-4.3862a3.3026,3.3026,0,0,1,3.3613,2.1934l-1.9209.832a1.3916,1.3916,0,0,0-1.44-1.1524c-.96,0-1.457.688-1.457,1.7447v1.5688c0,1.0562.4965,1.7446,1.457,1.7446a1.58,1.58,0,0,0,1.5684-1.2646l1.8408.8a3.2921,3.2921,0,0,1-3.4092,2.3208C315.35,63.1919,313.9575,61.48,313.9575,58.7905Z"/><path class="cls-30" d="M325.7031,63a2.2121,2.2121,0,0,1-2.497-2.4492V56.4375h-1.1846V54.5967h.5923c.64,0,.8325-.32.8325-.8965V52.3237h2.1284v2.273h1.665v1.8408h-1.665v4.7217h1.5366V63Z"/><path class="cls-31" d="M487.3725,178.4447a9.3333,9.3333,0,1,0,8.4231,13.3332h4.91l.6667-1.3334.6666.6667.6667.6667h12.6665l4-4-4-4H495.7956a9.3251,9.3251,0,0,0-8.4231-5.3332"/><path class="cls-27" d="M515.8191,183.2861l-19.4665-.0005a10.0066,10.0066,0,1,0,0,9.428l3.7531,0,1.5713-1.5713,1.5714,1.5713h12.5707l4.714-4.714Zm-.46,8.3168-11.65,0-1.2461-1.2461-.7856-.7856-.7857.7856-1.2459,1.2459-3.2927,0h-.6663l-.3138.5877a8.893,8.893,0,1,1,0-8.3805l.3138.5869h.6659l19.0061,0L518.9617,188Z"/><circle class="cls-27" cx="484.297" cy="187.982" r="2.2222"/><rect class="cls-27" x="504.724" y="187.4264" width="9.4279" height="1.1111"/><path class="cls-31" d="M406.6792,178.4447a9.3333,9.3333,0,1,0,8.423,13.3332h4.91l.6666-1.3334.6667.6667.6666.6667h12.6666l4-4-4-4H415.1022a9.3249,9.3249,0,0,0-8.423-5.3332"/><path class="cls-27" d="M435.1257,183.2861l-19.4665-.0005a10.007,10.007,0,1,0,0,9.428l3.7532,0,1.5713-1.5713,1.5713,1.5713h12.5707L439.84,188Zm-.46,8.3168-11.65,0-1.246-1.2461-.7857-.7856-.7857.7856-1.2459,1.2459-3.2927,0h-.6662l-.3139.5877a8.893,8.893,0,1,1,0-8.3805l.3139.5869h.6658l19.0061,0L438.2684,188Z"/><circle class="cls-27" cx="403.6037" cy="187.982" r="2.2222"/><rect class="cls-27" x="424.0307" y="187.4264" width="9.4279" height="1.1111"/><path class="cls-31" d="M568.935,178.4447a9.3333,9.3333,0,1,0,8.4231,13.3332h4.91l.6667-1.3334.6666.6667.6667.6667h12.6665l4-4-4-4H577.3581a9.3251,9.3251,0,0,0-8.4231-5.3332"/><path class="cls-27" d="M597.3816,183.2861l-19.4665-.0005a10.0066,10.0066,0,1,0,0,9.428l3.7531,0,1.5713-1.5713,1.5714,1.5713h12.5707l4.714-4.714Zm-.46,8.3168-11.65,0-1.2461-1.2461-.7856-.7856-.7857.7856-1.2459,1.2459-3.2927,0h-.6663l-.3138.5877a8.893,8.893,0,1,1,0-8.3805l.3138.5869h.6659l19.0061,0L600.5242,188Z"/><circle class="cls-27" cx="565.8595" cy="187.982" r="2.2222"/><rect class="cls-27" x="586.2865" y="187.4264" width="9.4279" height="1.1111"/></g></svg>