<svg xmlns="http://www.w3.org/2000/svg" xmlns:xlink="http://www.w3.org/1999/xlink" viewBox="0 0 920 400" id="svg2"><style id="style4">.st0{fill:none;stroke:#1b5cab;stroke-width:2;stroke-miterlimit:10}.st1{fill:#1b5cab}.st2,.st4{fill:none;stroke-miterlimit:10}.st2{stroke-linecap:round;stroke:#1b5cab;stroke-width:4}.st4{stroke:#7f50a0;stroke-width:2}.st8{fill:#7f50a0}.st9{fill:#eaeaea}.st13{fill:#344fa2}.st17{clip-path:url(#SVGID_4_);fill:#c2a02e}.st19,.st21,.st23{clip-path:url(#SVGID_8_);fill:#071438}.st21,.st23{fill:#ecbf1d}.st23{fill:#632472}.st26{fill:#0c4269}.st27{fill:#0baed1}.st28{fill:#88c540}.st29{fill:none}.st34{clip-path:url(#SVGID_14_);fill:#632472}.st35{fill:#1f2159}.st36{font-family:&apos;IBMPlexSans-SemiBold&apos;}.st37{font-size:20px}.st38{font-family:&apos;IBMPlexSans&apos;}.st39{font-size:18px}</style><g id="Visual_elements"><g id="g7"><g id="g9"><path class="st0" id="line11" d="M585.2 182.4h40.7"/><g id="g13"><path class="st1" id="polygon15" d="M587.1 188.8l-11.2-6.4 11.2-6.5z"/></g></g></g><g id="g17"><g id="g19"><path class="st0" id="line21" d="M731 182.4h40.7"/><g id="g23"><path class="st1" id="polygon25" d="M732.9 188.8l-11.2-6.4 11.2-6.5z"/></g></g></g><g id="g27"><g id="g29"><path class="st0" id="line31" d="M270.2 182.4h40.7"/><g id="g33"><path class="st1" id="polygon35" d="M309 188.8l11.2-6.4-11.2-6.5z"/></g></g></g><g id="g37"><g id="g39"><path class="st0" id="line41" d="M416.3 182.4H457"/><g id="g43"><path class="st1" id="polygon45" d="M455.1 188.8l11.2-6.4-11.2-6.5z"/></g></g></g><g id="g47"><g id="g49"><path class="st2" id="line51" d="M134.5 182.4"/><path id="line53" fill="none" stroke="#1b5cab" stroke-width="4" stroke-linecap="round" stroke-miterlimit="10" stroke-dasharray="0,13.3333" d="M147.8 182.4h20"/><path class="st2" id="line55" d="M174.5 182.4"/></g></g><g id="XMLID_39_"><g id="g58"><path class="st4" id="line60" d="M373.2 305.3v.5"/><path id="line62" fill="none" stroke="#7f50a0" stroke-width="2" stroke-miterlimit="10" stroke-dasharray=".9994,.9994" d="M373.2 306.8v49.5"/><path class="st4" id="polyline64" d="M373.2 356.8v.5h-.3.5"/><path id="line66" fill="none" stroke="#7f50a0" stroke-width="2" stroke-miterlimit="10" stroke-dasharray="1.0057,1.0057" d="M374.5 357.3h148.3"/><path class="st4" id="polyline68" d="M523.3 357.3h.5v-.5"/><path id="polyline70" fill="none" stroke="#7f50a0" stroke-width="2" stroke-miterlimit="10" stroke-dasharray=".9847,.9847" d="M523.8 355.8v-50.7"/><path class="st4" id="line72" d="M523.8 304.6v-.5"/><g id="g74"><path class="st8" id="polygon76" d="M366.7 307.2l6.5-11.2 6.4 11.2z"/></g></g></g><path id="XMLID_76_" class="st8" d="M523.8 339l6.5-12.4h-13z"/><path id="XMLID_99_" class="st8" d="M424.5 356.9l13 6.9v-13.7z"/><g id="XMLID_222_"><g id="XMLID_60_"><circle id="XMLID_65_" class="st9" cx="82.4" cy="181.2" r="43.5"/></g></g><g id="XMLID_70_"><g id="XMLID_233_"><g id="XMLID_206_"><circle id="XMLID_207_" class="st9" cx="375.2" cy="181.2" r="43.5"/></g></g></g><g id="XMLID_241_"><g id="XMLID_239_"><g id="XMLID_18_"><circle id="XMLID_23_" class="st9" cx="814.4" cy="181.2" r="43.5"/></g></g></g><g id="XMLID_292_"><circle id="XMLID_293_" class="st9" cx="228.8" cy="181.2" r="43.5"/></g><g id="XMLID_6_"><circle id="XMLID_20_" class="st9" cx="668" cy="181.2" r="43.5"/></g><g id="XMLID_19_"><circle id="XMLID_33_" class="st9" cx="521.6" cy="181.2" r="43.5"/></g><circle cx="262" cy="209" r="6" id="circle97" fill="#fff"/><g id="g99"><path d="M262 199c-5.5 0-10 4.5-10 10s4.5 10 10 10 10-4.5 10-10-4.4-10-10-10zm4.5 10.9h-3.6v3.6h-1.8v-3.6h-3.6v-1.8h3.6v-3.6h1.8v3.6h3.6v1.8z" id="path101" fill="#6d297c"/></g><g id="XMLID_153_"><g id="XMLID_118_"><path id="rect105" fill="#c8dcf2" d="M790.1 177.8h48.5v12.8h-48.5z"/><path class="st13" d="M837.8 178.6v11.3h-47v-11.3h47m1.5-1.5h-50v14.3h50v-14.3z" id="path107"/></g><g id="XMLID_119_"><path id="XMLID_120_" class="st13" d="M812.1 182.9h21.5v2.9h-21.5z"/><circle id="XMLID_122_" class="st13" cx="806.8" cy="184.4" r="1.7"/><circle id="XMLID_128_" class="st13" cx="801.4" cy="184.4" r="1.7"/><circle id="XMLID_121_" class="st13" cx="796" cy="184.4" r="1.7"/></g><g id="g114"><path id="polygon116" fill="#77a0d4" d="M790.6 176.3l2.7-5.4h41.5l3.2 5.4z"/><path class="st13" d="M834.4 171.6l2.3 3.9h-44.9l2-3.9h40.6m.9-1.5h-42.4l-3.5 6.9h50l-4.1-6.9z" id="path118"/></g></g><g id="Artwork_40"><g id="g121"><defs id="defs123"><path id="SVGID_1_" d="M643 169.6h50v23.3h-50z"/></defs><clipPath id="SVGID_2_"><use xlink:href="#SVGID_1_" id="use127" overflow="visible"/></clipPath><g id="g129" clip-path="url(#SVGID_2_)"><defs id="defs131"><path id="SVGID_3_" d="M643 169.6h50v23.3h-50z"/></defs><clipPath id="SVGID_4_"><use xlink:href="#SVGID_3_" id="use135" overflow="visible"/></clipPath><path d="M687 176.3h-22.8c-1.9-3.9-6-6.6-10.8-6.2-5.3.5-9.6 4.9-9.8 10.3-.3 6.2 4.7 11.4 10.8 11.4 4.3 0 8.1-2.5 9.8-6.2h5.7v-.8h2.3v.8H687l4.7-4.7-4.7-4.6z" id="path137" clip-path="url(#SVGID_4_)" fill="#fae9ab"/><path class="st17" d="M687.5 175.8h-22.6c-.5-1-1.2-1.9-2-2.7-4.7-4.7-12.5-4.5-17 .6-3.8 4.3-3.8 10.9 0 15.2 4.5 5.1 12.3 5.3 17 .6.8-.8 1.5-1.8 2-2.7h4.4l1.8-1.8 1.8 1.8h14.6l5.5-5.5-5.5-5.5zm-.5 9.6h-13.6L672 184l-.9-.9-.9.9-1.4 1.4h-4.6l-.4.7c-.5.9-1.1 1.7-1.8 2.4-4.2 4.2-11.2 4-15.1-.5-3.3-3.9-3.3-9.7 0-13.5 4-4.6 10.9-4.7 15.1-.5.7.7 1.3 1.5 1.8 2.4l.4.7H687.1l4.2 4.2-4.3 4.1z" id="path139" clip-path="url(#SVGID_4_)"/><path class="st17" d="M652.7 179.4c1 1 1 2.6 0 3.7-1 1-2.6 1-3.7 0s-1-2.6 0-3.7c1-1 2.7-1 3.7 0" id="path141" clip-path="url(#SVGID_4_)"/><path class="st17" id="rect143" clip-path="url(#SVGID_4_)" d="M674.6 180.6h11v1.3h-11z"/></g></g></g><g id="Artwork_32"><g id="g146"><defs id="defs148"><path id="SVGID_5_" d="M498.5 158.7h46.3v45h-46.3z"/></defs><clipPath id="SVGID_6_"><use xlink:href="#SVGID_5_" id="use152" overflow="visible"/></clipPath><g id="g154" clip-path="url(#SVGID_6_)"><defs id="defs156"><path id="SVGID_7_" d="M498.5 158.7h46.3v45h-46.3z"/></defs><clipPath id="SVGID_8_"><use xlink:href="#SVGID_7_" id="use160" overflow="visible"/></clipPath><path class="st19" d="M536.3 188.5c-.6.6-1.4.9-2.2.9-.8 0-1.6-.1-2.4-.3-1.5-.4-3-1-4.4-1.8-2.8-1.5-5.4-3.3-7.8-5.4-2.4-2.1-4.8-4.2-6.5-7-.8-1.4-1.6-2.8-2.1-4.4l-.3-1.2c0-.4-.1-.8-.1-1.3 0-.4.1-.9.2-1.3l.3-.6.5-.5.2.2c-.3.7-.2 1.4 0 2 .2.7.5 1.3.9 2 .7 1.3 1.6 2.5 2.5 3.6 1.9 2.3 3.7 4.8 5.8 6.9 2.2 2.1 4.5 4.1 7.1 5.8 1.3.8 2.6 1.6 4 2.1.7.3 1.4.5 2.2.5.7.1 1.5 0 2-.5l.1.3z" id="path162" clip-path="url(#SVGID_8_)"/><path d="M543.4 161.9l-7.9-.3.3.3h-.2l-.3-.3-15.3 15.2.2.2-2.7 2.7c-1.2-.4-2.4-.5-3.6-.5-6.7 0-12.1 5.2-12.1 11.7s5.4 11.7 12.1 11.7c6.7 0 12.1-5.2 12.1-11.7 0-1.4-.3-2.8-.7-4l4.2-4.2-.9-.9 2.2-2.2.8.8 11-11 .3.3.1-.7.3-.3-.3-.3.4-6.5z" id="path164" clip-path="url(#SVGID_8_)" fill="#f9ebb0"/><path class="st21" d="M535.7 160.5l-17.9 17.9c-1.2-.4-2.5-.6-3.8-.6-7.5 0-13.5 6.3-12.9 13.9.4 6.4 5.6 11.6 12 12 7.6.5 13.9-5.5 13.9-12.9 0-1.3-.2-2.6-.6-3.8l3.4-3.4v-2.9h2.9l11.5-11.5v-8.7h-8.5zm7.2 8l-10.7 10.7H528.5V182.9l-3 3-.6.6.3.8c.3 1.1.5 2.2.5 3.3 0 6.6-5.6 12-12.4 11.5-5.7-.4-10.3-5-10.7-10.7-.5-6.7 4.9-12.4 11.5-12.4 1.1 0 2.3.2 3.3.5l.8.3.6-.6 17.4-17.4h6.6v6.7z" id="path166" clip-path="url(#SVGID_8_)"/><path class="st21" d="M511.1 190.8c1.6 0 2.9 1.3 2.9 2.9s-1.3 2.9-2.9 2.9c-1.6 0-2.9-1.3-2.9-2.9s1.3-2.9 2.9-2.9" id="path168" clip-path="url(#SVGID_8_)"/><path transform="rotate(-45.001 534.13 170.641)" class="st21" id="rect170" clip-path="url(#SVGID_8_)" d="M528 169.9h12.2v1.4H528z"/><path d="M540.8 160.1l-7.9-.3.3.3h-.2l-.3-.3-15.3 15.3.2.2-2.7 2.7c-1.2-.4-2.4-.5-3.6-.5-6.7 0-12.1 5.2-12.1 11.7 0 6.5 5.4 11.7 12.1 11.7s12.1-5.2 12.1-11.7c0-1.4-.3-2.8-.7-4l4.2-4.2-.9-.9 2.2-2.2.8.8 11-11 .3.3.1-.7.3-.3-.3-.3.4-6.6z" id="path172" clip-path="url(#SVGID_8_)" fill="#c5a7cf"/><path class="st23" d="M533.1 158.7l-17.9 17.9c-1.2-.4-2.5-.6-3.8-.6-7.5 0-13.5 6.3-12.9 13.9.4 6.4 5.6 11.6 12 12 7.6.5 13.9-5.5 13.9-12.9 0-1.3-.2-2.6-.6-3.8l3.4-3.4v-2.9h2.9l11.5-11.5v-8.7h-8.5zm7.2 8.1l-10.7 10.7H525.9V181.2l-3 3-.6.6.3.8c.3 1.1.5 2.2.5 3.3 0 6.6-5.6 12-12.4 11.5-5.7-.4-10.3-5-10.7-10.7-.5-6.7 4.9-12.4 11.5-12.4 1.1 0 2.3.2 3.3.5l.8.3.6-.6 17.4-17.4h6.6v6.7z" id="path174" clip-path="url(#SVGID_8_)"/><path class="st23" d="M508.5 189.1c1.6 0 2.9 1.3 2.9 2.9s-1.3 2.9-2.9 2.9c-1.6 0-2.9-1.3-2.9-2.9s1.3-2.9 2.9-2.9" id="path176" clip-path="url(#SVGID_8_)"/><path transform="rotate(-45.001 531.534 168.91)" class="st23" id="rect178" clip-path="url(#SVGID_8_)" d="M525.4 168.2h12.2v1.4h-12.2z"/><path class="st19" d="M511.5 165.7c.5-.7 1.5-.9 2.2-.9.4 0 .8 0 1.2.1.4.1.8.1 1.2.3 1.5.4 3 1.1 4.4 1.8 2.8 1.5 5.4 3.3 7.8 5.4 1.2 1 2.4 2.1 3.5 3.2s2.2 2.4 3 3.7c.8 1.4 1.6 2.8 2.1 4.4l.3 1.2c0 .4.1.8.1 1.3 0 .4-.1.9-.2 1.3l-.3.6-.5.5-.2-.2c.3-.7.2-1.4 0-2-.2-.7-.5-1.3-.9-2-.7-1.3-1.6-2.5-2.5-3.6-1.9-2.3-3.7-4.8-5.8-6.9-2.2-2.1-4.5-4.1-7.1-5.8-1.3-.8-2.6-1.6-4-2.1-.3-.1-.7-.2-1.1-.4-.4-.1-.7-.2-1.1-.2-.7-.1-1.5 0-2 .5l-.1-.2z" id="path180" clip-path="url(#SVGID_8_)"/><path d="M543 196.5c0 2.9-2.1 5.2-4.8 5.2-2.6 0-4.8-2.3-4.8-5.2s2.1-5.2 4.8-5.2c2.7 0 4.8 2.3 4.8 5.2" id="path182" clip-path="url(#SVGID_8_)" fill="#fff"/><path d="M543 189.8c0-3.5-3.8-6.4-7.4-4.7-1.8.9-2.9 2.8-2.9 4.9v2.1c-1.4 1.6-2.1 3.7-1.6 6.1.6 2.6 2.7 4.8 5.4 5.3 4.4.9 8.3-2.5 8.3-6.8 0-1.8-.7-3.3-1.7-4.6v-2.3zm-8.6 0c0-2.5 3-4.6 5.4-2.8 1 .7 1.5 1.9 1.5 3.1v.7c-1-.6-2.2-.9-3.5-.9-1.3 0-2.4.3-3.5.9v-1zm2.4 10.8l-3.2-3.2 1.2-1.2 2 2 4.6-4.6 1.2 1.2-5.8 5.8z" id="path184" clip-path="url(#SVGID_8_)" fill="#50a546"/></g></g></g><g id="XMLID_170_"><g id="XMLID_186_"><g id="XMLID_200_"><path id="XMLID_202_" class="st26" d="M382.5 174.6c-.8.4-1.3 1.2-1.4 2l3.9 2.2-9.7 5.8-9.7-5.8 3.7-2.1c-.1-.8-.6-1.6-1.3-2l-7.4 4.1v16.3l14.8 8.4 14.8-8.8v-16l-7.7-4.1zm-8.7 25.6l-10.5-6.5v-13.4l10.5 6.5v13.4zm13.4-7l-10.5 6.8v-13.4l10.5-6.5v13.1z"/><path id="XMLID_201_" class="st26" d="M381.3 174l-2.7-1.5c-.1.8-.4 1.6-.9 2.2l2.2 1.3c.2-.8.7-1.5 1.4-2z"/></g><path id="XMLID_199_" class="st26" d="M372.5 172.2v.1c0 .8.4 1.5.9 2l1.8-1 1.5.8c.5-.4.8-1.1.8-1.8 0-.1 0-.4-.1-.5l-2.1-1.2-2.8 1.6z"/><path id="XMLID_198_" class="st26" d="M370.3 176.1l2.2-1.3c-.6-.6-.9-1.3-1.1-2l-2.3 1.3c.6.5 1 1.2 1.2 2z"/><circle id="XMLID_197_" class="st27" cx="375" cy="183.5" r="2.5"/><circle id="XMLID_196_" class="st28" cx="375" cy="161.1" r="2.5"/><g id="XMLID_194_"><circle id="XMLID_195_" class="st28" cx="383.5" cy="176.9" r="2.5"/></g><g id="XMLID_192_"><circle id="XMLID_193_" class="st28" cx="366.7" cy="176.9" r="2.5"/></g><circle id="XMLID_191_" class="st27" cx="383.5" cy="165.7" r="2.5"/><circle id="XMLID_190_" class="st27" cx="366.9" cy="166" r="2.5"/><path id="XMLID_189_" class="st29" d="M385.9 176.9c0-1.5-1-2.5-2.5-2.5v4.9c1.5 0 2.5-1.2 2.5-2.4z"/><path id="XMLID_188_" class="st29" d="M381 176.9c0 1.5 1 2.5 2.5 2.5v-4.9c-1.3 0-2.5 1-2.5 2.4z"/><path id="XMLID_187_" class="st28" d="M375 169.8c-1.3 0-2.5 1-2.5 2.5s1 2.5 2.5 2.5 2.5-1 2.5-2.5-1-2.5-2.5-2.5z"/></g></g><g id="Root_key"><g id="g205"><defs id="defs207"><path id="SVGID_9_" d="M203.8 169.6h50v23.3h-50z"/></defs><clipPath id="SVGID_10_"><use xlink:href="#SVGID_9_" id="use211" overflow="visible"/></clipPath><g id="g213" clip-path="url(#SVGID_10_)"><defs id="defs215"><path id="SVGID_11_" d="M203.8 169.6h50v23.3h-50z"/></defs><clipPath id="SVGID_12_"><use xlink:href="#SVGID_11_" id="use219" overflow="visible"/></clipPath><g id="g221" clip-path="url(#SVGID_12_)"><defs id="defs223"><path id="SVGID_13_" d="M203.8 169.6h50v23.3h-50z"/></defs><clipPath id="SVGID_14_"><use xlink:href="#SVGID_13_" id="use227" overflow="visible"/></clipPath><g id="g229" clip-path="url(#SVGID_14_)" opacity=".65"><g id="g231"><defs id="defs233"><path id="SVGID_15_" d="M204.4 170.1h48.1v21.7h-48.1z"/></defs><clipPath id="SVGID_16_"><use xlink:href="#SVGID_15_" id="use237" overflow="visible"/></clipPath><path d="M247.8 176.3H225c-1.7-3.7-5.5-6.2-9.8-6.2-6 0-10.9 4.9-10.9 10.9s4.9 10.9 10.9 10.9c4.3 0 8.1-2.5 9.8-6.2h5.7v-1.6H233.1v1.6h14.7l4.7-4.7-4.7-4.7z" id="path239" clip-path="url(#SVGID_16_)" fill="#a27db8"/></g></g><path class="st34" d="M248.3 175.8h-22.6c-.5-1-1.2-1.9-2-2.7-4.7-4.7-12.5-4.5-17 .6-3.8 4.3-3.8 10.9 0 15.2 4.5 5.1 12.3 5.3 17 .6.8-.8 1.5-1.8 2-2.7h4.4l1.8-1.8 1.8 1.8h14.6l5.5-5.5-5.5-5.5zm-.5 9.6h-13.6l-1.4-1.4-.9-.9-.9.9-1.4 1.4H225l-.4.7c-.5.9-1.1 1.7-1.8 2.4-4.2 4.2-11.2 4-15.1-.5-3.3-3.9-3.3-9.7 0-13.5 4-4.6 10.9-4.7 15.1-.5.7.7 1.3 1.5 1.8 2.4l.4.7H247.9l4.2 4.2-4.3 4.1z" id="path241" clip-path="url(#SVGID_14_)"/><path class="st34" d="M213.5 179.4c1 1 1 2.6 0 3.7-1 1-2.6 1-3.7 0-1-1-1-2.6 0-3.7 1-1 2.7-1 3.7 0" id="path243" clip-path="url(#SVGID_14_)"/><path class="st34" id="rect245" clip-path="url(#SVGID_14_)" d="M235.4 180.6h11v1.3h-11z"/></g></g></g></g><g id="g247"><path class="st35" d="M82.4 187.6c6.4 0 11.7-5.2 11.7-11.7 0-6.4-5.2-11.7-11.7-11.7s-11.7 5.2-11.7 11.7c0 6.5 5.3 11.7 11.7 11.7zm0-22.2c5.8 0 10.5 4.7 10.5 10.5s-4.7 10.5-10.5 10.5-10.5-4.7-10.5-10.5 4.7-10.5 10.5-10.5zm9.3 24.5H73.1c-2.6 0-4.7 2.1-4.7 4.7v4.7h28v-4.7c0-2.6-2.1-4.7-4.7-4.7z" id="path249"/><path class="st35" d="M88.5 173.2l-1.6-1.7-6.2 6.2L78 175l-1.6 1.7 4.3 4.3 7.8-7.8z" id="path251"/></g><path id="XMLID_32_" class="st35" d="M479.8 0h440.4v48.2H479.8z"/><path id="XMLID_271_" class="st1" d="M-.2 0h480v48.2H-.2z"/></g><g id="Text"><text id="IBM_Cloud_1_" transform="translate(39.28 94.544)" class="st36 st37">IBM Cloud</text><text id="XMLID_12_" transform="translate(772.638 266.076)"><tspan x="0" y="0" class="st38 st39" id="tspan258" style="-inkscape-font-specification:SimHei" font-size="18" font-family="SimHei">硬件安全模块</tspan></text><text id="XMLID_13_" transform="translate(328.369 266.076)" class="st38 st39">Key Protect</text><text id="XMLID_11_" transform="translate(56.178 266.076)" class="st38 st39"><tspan style="-inkscape-font-specification:SimHei" id="tspan3866" font-family="SimHei">管理员</tspan></text><text id="XMLID_10_" transform="translate(498.988 94.544)" class="st36 st37"><tspan style="-inkscape-font-specification:SimHei" id="tspan3092" font-family="SimHei">数据中心</tspan></text><text id="XMLID_5_" transform="translate(194.97 266.076)"><tspan x="0" y="0" class="st38 st39" id="tspan266" style="-inkscape-font-specification:SimHei" font-size="18" font-family="SimHei">现有密钥</tspan></text><text id="XMLID_16_" transform="translate(484.885 266.075)"><tspan x="0" y="0" class="st38 st39" id="tspan271" style="-inkscape-font-specification:SimHei" font-size="18" font-family="SimHei">打包的密钥</tspan></text><text id="XMLID_2_" transform="translate(639.342 266.075)"><tspan x="0" y="0" class="st38 st39" id="tspan276" style="-inkscape-font-specification:SimHei" font-size="18" font-family="SimHei">项目密钥</tspan></text></g></svg>