<svg xmlns="http://www.w3.org/2000/svg" xmlns:xlink="http://www.w3.org/1999/xlink" width="1000" height="559"><defs><path id="a" d="M0 0h1000v559H0z"/></defs><clipPath id="b"><use xlink:href="#a" overflow="visible"/></clipPath><path clip-path="url(#b)" fill="#FFF" d="M48.5 83.5h901v200h-901z"/><path clip-path="url(#b)" fill="none" stroke="#D8D8D8" stroke-miterlimit="10" d="M949.5 282v1.5H948"/><path clip-path="url(#b)" fill="none" stroke="#D8D8D8" stroke-miterlimit="10" stroke-dasharray="3.003,2.002" d="M945.998 283.5H51.001"/><path clip-path="url(#b)" fill="none" stroke="#D8D8D8" stroke-miterlimit="10" d="M50 283.5h-1.5V282"/><path clip-path="url(#b)" fill="none" stroke="#D8D8D8" stroke-miterlimit="10" stroke-dasharray="3,2" d="M48.5 280V86"/><path clip-path="url(#b)" fill="none" stroke="#D8D8D8" stroke-miterlimit="10" d="M48.5 85v-1.5H50"/><path clip-path="url(#b)" fill="none" stroke="#D8D8D8" stroke-miterlimit="10" stroke-dasharray="3.003,2.002" d="M52.002 83.5h894.997"/><path clip-path="url(#b)" fill="none" stroke="#D8D8D8" stroke-miterlimit="10" d="M948 83.5h1.5V85"/><path clip-path="url(#b)" fill="none" stroke="#D8D8D8" stroke-miterlimit="10" stroke-dasharray="3,2" d="M949.5 87v194"/><path clip-path="url(#b)" fill="#FFF" d="M48.5 300.5h901v200h-901z"/><path clip-path="url(#b)" fill="none" stroke="#D8D8D8" stroke-miterlimit="10" d="M949.5 499v1.5H948"/><path clip-path="url(#b)" fill="none" stroke="#D8D8D8" stroke-miterlimit="10" stroke-dasharray="3.003,2.002" d="M945.998 500.5H51.001"/><path clip-path="url(#b)" fill="none" stroke="#D8D8D8" stroke-miterlimit="10" d="M50 500.5h-1.5V499"/><path clip-path="url(#b)" fill="none" stroke="#D8D8D8" stroke-miterlimit="10" stroke-dasharray="3,2" d="M48.5 497V303"/><path clip-path="url(#b)" fill="none" stroke="#D8D8D8" stroke-miterlimit="10" d="M48.5 302v-1.5H50"/><path clip-path="url(#b)" fill="none" stroke="#D8D8D8" stroke-miterlimit="10" stroke-dasharray="3.003,2.002" d="M52.002 300.5h894.997"/><path clip-path="url(#b)" fill="none" stroke="#D8D8D8" stroke-miterlimit="10" d="M948 300.5h1.5v1.5"/><path clip-path="url(#b)" fill="none" stroke="#D8D8D8" stroke-miterlimit="10" stroke-dasharray="3,2" d="M949.5 304v194"/><path clip-path="url(#b)" fill="#EDF5FF" d="M69.5 123.5h300v140h-300z"/><path clip-path="url(#b)" fill="none" stroke="#000F5E" stroke-miterlimit="10" d="M369.5 262v1.5H368"/><path clip-path="url(#b)" fill="none" stroke="#000F5E" stroke-miterlimit="10" stroke-dasharray="3,2" d="M366 263.5H72"/><path clip-path="url(#b)" fill="none" stroke="#000F5E" stroke-miterlimit="10" d="M71 263.5h-1.5V262"/><path clip-path="url(#b)" fill="none" stroke="#000F5E" stroke-miterlimit="10" stroke-dasharray="3,2" d="M69.5 260V126"/><path clip-path="url(#b)" fill="none" stroke="#000F5E" stroke-miterlimit="10" d="M69.5 125v-1.5H71"/><path clip-path="url(#b)" fill="none" stroke="#000F5E" stroke-miterlimit="10" stroke-dasharray="3,2" d="M73 123.5h294"/><path clip-path="url(#b)" fill="none" stroke="#000F5E" stroke-miterlimit="10" d="M368 123.5h1.5v1.5"/><path clip-path="url(#b)" fill="none" stroke="#000F5E" stroke-miterlimit="10" stroke-dasharray="3,2" d="M369.5 127v134"/><path clip-path="url(#b)" fill="#F8F4F2" d="M69.5 340.5h300v140h-300z"/><path clip-path="url(#b)" fill="none" stroke="#000F5E" stroke-miterlimit="10" d="M369.5 479v1.5H368"/><path clip-path="url(#b)" fill="none" stroke="#000F5E" stroke-miterlimit="10" stroke-dasharray="3,2" d="M366 480.5H72"/><path clip-path="url(#b)" fill="none" stroke="#000F5E" stroke-miterlimit="10" d="M71 480.5h-1.5V479"/><path clip-path="url(#b)" fill="none" stroke="#000F5E" stroke-miterlimit="10" stroke-dasharray="3,2" d="M69.5 477V343"/><path clip-path="url(#b)" fill="none" stroke="#000F5E" stroke-miterlimit="10" d="M69.5 342v-1.5H71"/><path clip-path="url(#b)" fill="none" stroke="#000F5E" stroke-miterlimit="10" stroke-dasharray="3,2" d="M73 340.5h294"/><path clip-path="url(#b)" fill="none" stroke="#000F5E" stroke-miterlimit="10" d="M368 340.5h1.5v1.5"/><path clip-path="url(#b)" fill="none" stroke="#000F5E" stroke-miterlimit="10" stroke-dasharray="3,2" d="M369.5 344v134"/><path clip-path="url(#b)" fill="#F4F4F4" d="M547.5 123.5h140v357h-140z"/><path clip-path="url(#b)" fill="none" stroke="#000F5E" stroke-miterlimit="10" d="M686 123.5h1.5v1.5"/><path clip-path="url(#b)" fill="none" stroke="#000F5E" stroke-miterlimit="10" stroke-dasharray="3.017,2.011" d="M687.5 127.011v350.983"/><path clip-path="url(#b)" fill="none" stroke="#000F5E" stroke-miterlimit="10" d="M687.5 479v1.5H686"/><path clip-path="url(#b)" fill="none" stroke="#000F5E" stroke-miterlimit="10" stroke-dasharray="3,2" d="M684 480.5H550"/><path clip-path="url(#b)" fill="none" stroke="#000F5E" stroke-miterlimit="10" d="M549 480.5h-1.5V479"/><path clip-path="url(#b)" fill="none" stroke="#000F5E" stroke-miterlimit="10" stroke-dasharray="3.017,2.011" d="M547.5 476.988V126.006"/><path clip-path="url(#b)" fill="none" stroke="#000F5E" stroke-miterlimit="10" d="M547.5 125v-1.5h1.5"/><path clip-path="url(#b)" fill="none" stroke="#000F5E" stroke-miterlimit="10" stroke-dasharray="3,2" d="M551 123.5h134"/><path clip-path="url(#b)" fill="#FFF" d="M138.391 160v-12h-17v48h31v-36z"/><path clip-path="url(#b)" fill="#000F5E" d="M121.667 148.668h16.666V162h13.333v33.335h-29.999v-46.667zM120 147v50h33.333v-36.666L140.001 147H120z"/><path clip-path="url(#b)" fill="#000F5E" d="M126.666 167h20v1.667h-20zM126.666 170.334h20v1.667h-20zM126.666 173.667h10v1.667h-10z"/><g clip-path="url(#b)"><defs><path id="c" d="M120 147.001h35.781v52.289H120z"/></defs><clipPath id="d"><use xlink:href="#c" overflow="visible"/></clipPath><path clip-path="url(#d)" fill="#DB2663" d="M149.714 183.521c-2.181-.521-4.247-.127-5.933.849v-.819c0-1.261.499-2.509 1.477-3.307 1.861-1.521 4.013-1.061 5.323.247l1.416-1.416c-1.714-1.716-4.421-2.434-7.03-1.074-2.017 1.052-3.186 3.238-3.186 5.513v2.499c-1.593 1.808-2.392 4.333-1.811 7.036.659 3.062 3.157 5.501 6.233 6.09a8.013 8.013 0 0 0 9.436-9.377c-.562-3.035-2.923-5.524-5.925-6.241m2.024 10.062l-1.414 1.414-2.293-2.293-2.293 2.293-1.414-1.414 2.293-2.293-2.293-2.293 1.414-1.414 2.293 2.293 2.293-2.293 1.414 1.414-2.293 2.293 2.293 2.293z"/></g><g clip-path="url(#b)"><defs><path id="e" d="M105.443 379.493h64.482v30h-64.482z"/></defs><clipPath id="f"><use xlink:href="#e" overflow="visible"/></clipPath><g opacity=".65" clip-path="url(#f)"><defs><path id="g" d="M106.184 380.16h62v28h-62z"/></defs><clipPath id="h"><use xlink:href="#g" overflow="visible"/></clipPath><g clip-path="url(#h)"><defs><path id="i" d="M106.184 380.16h62v28h-62z"/></defs><clipPath id="j"><use xlink:href="#i" overflow="visible"/></clipPath><path clip-path="url(#j)" fill="#B380E0" d="M162.184 388.16H132.819c-2.249-4.727-7.053-8-12.635-8-7.732 0-14 6.268-14 14 0 7.731 6.268 14 14 14 5.582 0 10.386-3.274 12.635-8h7.365v-2h3v2h19l6-6-6-6z"/></g></g><path clip-path="url(#f)" fill="#6E177D" d="M162.854 387.421h-29.2a15.005 15.005 0 0 0-2.619-3.535c-6.107-6.105-16.169-5.847-21.94.779-4.869 5.59-4.869 14.065 0 19.657 5.771 6.625 15.833 6.885 21.94.776a14.924 14.924 0 0 0 2.619-3.535l5.63.001 2.357-2.357 2.357 2.357h18.856l7.071-7.071-7.071-7.072zm-.69 12.476l-17.475.001-1.869-1.869-1.179-1.18-1.179 1.18-1.868 1.868h-5.939l-.47.881a13.35 13.35 0 0 1-2.329 3.143c-5.422 5.422-14.391 5.189-19.507-.699-4.32-4.969-4.319-12.492.002-17.461 5.117-5.885 14.084-6.116 19.505-.695a13.282 13.282 0 0 1 2.329 3.143l.471.879h.998l28.51.001 5.404 5.405-5.404 5.403z"/><path clip-path="url(#f)" fill="#6E177D" d="M117.928 392.109a3.333 3.333 0 1 1-4.713 4.714 3.333 3.333 0 0 1 4.713-4.714M146.212 393.632h14.142v1.667h-14.142z"/></g><path clip-path="url(#b)" fill="#FFF" d="M636.448 160v36h-31v-48h18v12z"/><path clip-path="url(#b)" fill="#000F5E" d="M605.725 148.668h16.666V162h13.334v33.335h-30v-46.667zM604.058 147v50h33.332v-36.666L624.059 147h-20.001z"/><path clip-path="url(#b)" fill="#000F5E" d="M610.724 167h20v1.667h-20zM610.724 170.334h20v1.667h-20zM610.724 173.667h10v1.667h-10z"/><g clip-path="url(#b)"><defs><path id="k" d="M604.057 147.001h35.78v52.289h-35.78z"/></defs><clipPath id="l"><use xlink:href="#k" overflow="visible"/></clipPath><path clip-path="url(#l)" fill="#FFF" d="M637.448 191c0 3.313-2.464 6-5.5 6-3.037 0-5.5-2.687-5.5-6s2.463-6 5.5-6c3.036 0 5.5 2.688 5.5 6"/><path clip-path="url(#l)" fill="#5AA700" d="M637.839 183.29c0-4.089-4.396-7.414-8.608-5.39-2.132 1.025-3.392 3.286-3.392 5.652v2.461c-1.594 1.808-2.393 4.333-1.812 7.035.656 3.055 3.146 5.492 6.212 6.087 5.118.992 9.6-2.906 9.6-7.845 0-2.025-.76-3.869-2-5.278v-2.722zm-10 0c0-2.879 3.411-5.28 6.271-3.239 1.127.804 1.729 2.161 1.729 3.546v.772a7.957 7.957 0 0 0-8 .001v-1.08zm2.823 12.414l-3.707-3.707 1.414-1.414 2.293 2.293 5.293-5.293 1.414 1.414-6.707 6.707z"/></g><g clip-path="url(#b)"><defs><path id="m" d="M261.193 379.403h64.482v30.002h-64.482z"/></defs><clipPath id="n"><use xlink:href="#m" overflow="visible"/></clipPath><g opacity=".65" clip-path="url(#n)"><defs><path id="o" d="M261.935 380.069h62v28h-62z"/></defs><clipPath id="p"><use xlink:href="#o" overflow="visible"/></clipPath><g clip-path="url(#p)"><defs><path id="q" d="M261.935 380.069h62v28h-62z"/></defs><clipPath id="r"><use xlink:href="#q" overflow="visible"/></clipPath><path clip-path="url(#r)" fill="#69A6FF" d="M317.935 388.069H288.57c-2.249-4.727-7.053-8-12.635-8-7.732 0-14 6.268-14 14 0 7.731 6.268 14 14 14 5.582 0 10.386-3.274 12.635-8h7.365v-2h3v2h19l6-6-6-6z"/></g></g></g><path clip-path="url(#b)" fill="#000F5E" d="M301.965 395.069h14.14v.139h-14.14zM297.395 396.76l1.31 1.309h-2.62z"/><path clip-path="url(#b)" fill="#000F5E" d="M301.965 393.538h14.14v1.67h-14.14z"/><g clip-path="url(#b)"><defs><path id="s" d="M261.193 379.403h64.482v30.002h-64.482z"/></defs><clipPath id="t"><use xlink:href="#s" overflow="visible"/></clipPath><path clip-path="url(#t)" fill="#000F5E" d="M273.675 392.019a3.314 3.314 0 0 1 0 4.71 3.33 3.33 0 1 1 0-4.71"/><path clip-path="url(#t)" fill="#000F5E" d="M266.105 385.669a13.134 13.134 0 0 0-3 6.221c1-6.7 6.59-11.821 13.33-11.821 5.731 0 10.63 3.701 12.58 8.93h-.61l-.47-.88a13.07 13.07 0 0 0-2.33-3.139c-5.42-5.43-14.39-5.192-19.5.689M288.745 399.81c-.029.09-.069.17-.109.26-2.17 4.729-6.811 8-12.201 8-3.769 0-7.179-1.601-9.629-4.191 5.2 5.151 13.62 5.131 18.799-.049.93-.92 1.71-1.98 2.33-3.14l.331-.62.139-.26h.34z"/><path clip-path="url(#t)" fill="#000F5E" d="M318.605 387.328h-29.2a14.973 14.973 0 0 0-2.62-3.529c-6.11-6.109-16.17-5.851-21.94.771-4.87 5.599-4.87 14.07 0 19.66 5.77 6.63 15.83 6.889 21.94.78a15.05 15.05 0 0 0 2.62-3.54h5.63l2.36-2.352 2.35 2.352h18.86l7.07-7.07-7.07-7.072zm-21.21 9.432l-1.31 1.31-.15.15-1.59 1.59h-5.94l-.14.26-.33.62a13.07 13.07 0 0 1-2.33 3.139c-5.18 5.182-13.6 5.201-18.8.05-.25-.238-.48-.488-.71-.75-2.72-3.14-3.73-7.3-3-11.188 0-.01 0-.031.01-.05.42-2.25 1.42-4.401 3-6.222 5.11-5.88 14.08-6.119 19.5-.688.93.92 1.71 1.979 2.33 3.139l.47.88h29.511l2.019 2.021 3.38 3.38-3.38 3.389-2.019 2.021h-17.481l-1.5-1.511-1.54-1.54z"/><path clip-path="url(#t)" fill="#000F5E" d="M273.675 396.729a3.33 3.33 0 1 1 0-4.71 3.314 3.314 0 0 1 0 4.71M301.964 393.538h14.14v1.67h-14.14z"/></g><path clip-path="url(#b)" fill="#000F5E" d="M205.5 190h15-15z"/><g clip-path="url(#b)"><defs><path id="u" d="M205.5 182.501h15V197.5h-15z"/></defs><clipPath id="v"><use xlink:href="#u" overflow="visible"/></clipPath><path clip-path="url(#v)" fill="none" stroke="#000F5E" stroke-width="1.313" stroke-miterlimit="10" d="M205.5 190h15"/></g><path clip-path="url(#b)" fill="#000F5E" d="M213 182.5v15-15z"/><g clip-path="url(#b)"><defs><path id="w" d="M205.5 182.501h15V197.5h-15z"/></defs><clipPath id="x"><use xlink:href="#w" overflow="visible"/></clipPath><path clip-path="url(#x)" fill="none" stroke="#000F5E" stroke-width="1.313" stroke-miterlimit="10" d="M213 197.5v-15"/></g><path clip-path="url(#b)" fill="#000F5E" d="M205.5 408h15-15z"/><g clip-path="url(#b)"><defs><path id="y" d="M205.5 400.5h15v15h-15z"/></defs><clipPath id="z"><use xlink:href="#y" overflow="visible"/></clipPath><path clip-path="url(#z)" fill="none" stroke="#000F5E" stroke-width="1.313" stroke-miterlimit="10" d="M205.5 408h15"/></g><path clip-path="url(#b)" fill="#000F5E" d="M213 400.5v15-15z"/><g clip-path="url(#b)"><defs><path id="A" d="M205.5 400.5h15v15h-15z"/></defs><clipPath id="B"><use xlink:href="#A" overflow="visible"/></clipPath><path clip-path="url(#B)" fill="none" stroke="#000F5E" stroke-width="1.313" stroke-miterlimit="10" d="M213 415.5v-15"/></g><g clip-path="url(#b)"><defs><path id="C" d="M436.208 162.29h50v37h-50z"/></defs><clipPath id="D"><use xlink:href="#C" overflow="visible"/></clipPath><path clip-path="url(#D)" fill="#001689" d="M469.642 188.291c0-.451-.045-.89-.114-1.323l2.681-2.344-2.277-3.739-3.197 1.044a8.427 8.427 0 0 0-2.617-1.547l-.709-3.091h-4.4l-.709 3.091a8.44 8.44 0 0 0-2.617 1.548l-3.197-1.045-2.277 3.739 2.68 2.345a8.472 8.472 0 0 0-.113 1.322c0 .451.045.889.113 1.321l-2.68 2.346 2.278 3.738 3.196-1.044a8.412 8.412 0 0 0 2.618 1.547l.708 3.092h4.4l.708-3.092a8.407 8.407 0 0 0 2.617-1.547l3.196 1.044 2.279-3.738-2.681-2.345c.069-.434.114-.872.114-1.322m-8.434 2.527a3.001 3.001 0 0 1 0-6 3.001 3.001 0 0 1 0 6"/><path clip-path="url(#D)" fill="#69A6FF" d="M455.642 173.291c0-.451-.045-.89-.114-1.323l2.681-2.344-2.277-3.739-3.197 1.044a8.427 8.427 0 0 0-2.617-1.547l-.709-3.091h-4.4l-.709 3.091a8.44 8.44 0 0 0-2.617 1.548l-3.197-1.045-2.277 3.739 2.68 2.345a8.472 8.472 0 0 0-.113 1.322c0 .451.045.889.113 1.321l-2.68 2.346 2.278 3.738 3.196-1.044a8.412 8.412 0 0 0 2.618 1.547l.708 3.092h4.4l.708-3.092a8.407 8.407 0 0 0 2.617-1.547l3.196 1.044 2.279-3.738-2.681-2.345c.069-.434.114-.872.114-1.322m-8.434 2.527a3.001 3.001 0 0 1 0-6 3.001 3.001 0 0 1 0 6"/><path clip-path="url(#D)" fill="#003BC9" d="M483.642 173.291c0-.451-.045-.89-.114-1.323l2.681-2.344-2.277-3.739-3.197 1.044a8.427 8.427 0 0 0-2.617-1.547l-.709-3.091h-4.4l-.709 3.091a8.44 8.44 0 0 0-2.617 1.548l-3.197-1.045-2.277 3.739 2.68 2.345a8.472 8.472 0 0 0-.113 1.322c0 .451.045.889.113 1.321l-2.68 2.346 2.278 3.738 3.196-1.044a8.412 8.412 0 0 0 2.618 1.547l.708 3.092h4.4l.708-3.092a8.407 8.407 0 0 0 2.617-1.547l3.196 1.044 2.279-3.738-2.681-2.345c.069-.434.114-.872.114-1.322m-8.434 2.527a3.001 3.001 0 0 1 0-6 3.001 3.001 0 0 1 0 6"/></g><g clip-path="url(#b)"><defs><path id="E" d="M436 379h50v37h-50z"/></defs><clipPath id="F"><use xlink:href="#E" overflow="visible"/></clipPath><path clip-path="url(#F)" fill="#6E177D" d="M469.433 405c0-.451-.045-.89-.114-1.322l2.681-2.345-2.277-3.738-3.197 1.044a8.427 8.427 0 0 0-2.617-1.547L463.2 394h-4.4l-.709 3.092a8.421 8.421 0 0 0-2.617 1.548l-3.197-1.045-2.277 3.738 2.68 2.346c-.068.432-.113.87-.113 1.321s.045.89.113 1.321l-2.68 2.346 2.278 3.738 3.196-1.044a8.412 8.412 0 0 0 2.618 1.547L458.8 416h4.4l.708-3.092a8.388 8.388 0 0 0 2.617-1.547l3.196 1.044 2.279-3.738-2.681-2.345c.069-.432.114-.871.114-1.322M461 407.528a3.001 3.001 0 0 1 0-6 3.001 3.001 0 0 1 0 6"/><path clip-path="url(#F)" fill="#B380E0" d="M455.433 390c0-.451-.045-.89-.114-1.322l2.681-2.345-2.277-3.738-3.197 1.044a8.427 8.427 0 0 0-2.617-1.547L449.2 379h-4.4l-.709 3.092a8.421 8.421 0 0 0-2.617 1.548l-3.197-1.045-2.277 3.738 2.68 2.346c-.068.432-.113.87-.113 1.321s.045.89.113 1.321l-2.68 2.346 2.278 3.738 3.196-1.044a8.412 8.412 0 0 0 2.618 1.547L444.8 401h4.4l.708-3.092a8.388 8.388 0 0 0 2.617-1.547l3.196 1.044 2.279-3.738-2.681-2.345c.069-.432.114-.871.114-1.322M447 392.528a3.001 3.001 0 0 1 0-6 3.001 3.001 0 0 1 0 6"/><path clip-path="url(#F)" fill="#8747B8" d="M483.433 390c0-.451-.045-.89-.114-1.322l2.681-2.345-2.277-3.738-3.197 1.044a8.427 8.427 0 0 0-2.617-1.547L477.2 379h-4.4l-.709 3.092a8.421 8.421 0 0 0-2.617 1.548l-3.197-1.045-2.277 3.738 2.68 2.346c-.068.432-.113.87-.113 1.321s.045.89.113 1.321l-2.68 2.346 2.278 3.738 3.196-1.044a8.412 8.412 0 0 0 2.618 1.547L472.8 401h4.4l.708-3.092a8.388 8.388 0 0 0 2.617-1.547l3.196 1.044 2.279-3.738-2.681-2.345c.069-.432.114-.871.114-1.322M475 392.528a3.001 3.001 0 0 1 0-6 3.001 3.001 0 0 1 0 6"/></g><path clip-path="url(#b)" fill="#A71C71" d="M349.496 190.5h66.008-66.008z"/><path clip-path="url(#b)" fill="none" stroke="#A71C71" stroke-miterlimit="10" d="M353.543 190.5h54.784"/><g clip-path="url(#b)"><defs><path id="G" d="M0 0h1000v559H0z"/></defs><clipPath id="H"><use xlink:href="#G" overflow="visible"/></clipPath><path clip-path="url(#H)" fill="#FFF" d="M353.756 194.26a3.76 3.76 0 1 1 .002-7.522 3.76 3.76 0 0 1-.002 7.522"/><path clip-path="url(#H)" fill="#A71C71" d="M353.756 194.76a4.265 4.265 0 0 0 4.26-4.26c0-2.349-1.911-4.26-4.26-4.26s-4.26 1.911-4.26 4.26c0 2.348 1.911 4.26 4.26 4.26s-2.349 0 0 0m0-7.52a3.263 3.263 0 0 1 3.26 3.26c0 1.798-1.462 3.26-3.26 3.26s-3.26-1.462-3.26-3.26c0-1.798 1.462-3.26 3.26-3.26s-1.798 0 0 0M406.868 195.486l8.636-4.986-8.636-4.987z"/><path clip-path="url(#H)" fill="none" stroke="#A71C71" stroke-miterlimit="10" d="M509.999 189.25h51.326"/><path clip-path="url(#H)" fill="#A71C71" d="M559.866 194.236l8.635-4.986-8.635-4.987z"/><path clip-path="url(#H)" fill="#000F5E" d="M349.496 407.5h66.008"/><path clip-path="url(#H)" fill="none" stroke="#A71C71" stroke-miterlimit="10" d="M353.543 407.5h54.784"/><path clip-path="url(#H)" fill="#FFF" d="M353.756 411.26a3.76 3.76 0 1 1 .002-7.522 3.76 3.76 0 0 1-.002 7.522"/><path clip-path="url(#H)" fill="#A71C71" d="M353.756 411.76c2.349 0 4.26-1.911 4.26-4.26s-1.911-4.26-4.26-4.26-4.26 1.911-4.26 4.26 1.911 4.26 4.26 4.26-2.349 0 0 0m0-7.52c1.798 0 3.26 1.462 3.26 3.26s-1.462 3.26-3.26 3.26-3.26-1.462-3.26-3.26 1.462-3.26 3.26-3.26-1.798 0 0 0M406.868 412.486l8.636-4.986-8.636-4.986z"/><path clip-path="url(#H)" fill="none" stroke="#A71C71" stroke-miterlimit="10" d="M509.999 406.25h51.326"/><path clip-path="url(#H)" fill="#A71C71" d="M559.866 411.236l8.635-4.986-8.635-4.986z"/></g><g clip-path="url(#b)"><defs><path id="I" d="M260.462 160.555h64.482v30.001h-64.482z"/></defs><clipPath id="J"><use xlink:href="#I" overflow="visible"/></clipPath><g opacity=".65" clip-path="url(#J)"><defs><path id="K" d="M261.204 161.221h62v28h-62z"/></defs><clipPath id="L"><use xlink:href="#K" overflow="visible"/></clipPath><g clip-path="url(#L)"><defs><path id="M" d="M261.204 161.221h62v28h-62z"/></defs><clipPath id="N"><use xlink:href="#M" overflow="visible"/></clipPath><path clip-path="url(#N)" fill="#69A6FF" d="M317.204 169.221H287.839c-2.249-4.726-7.053-8-12.635-8-7.732 0-14 6.268-14 14s6.268 14 14 14c5.582 0 10.386-3.274 12.635-8h7.365v-2h3v2h19l6-6-6-6z"/></g></g><path clip-path="url(#J)" fill="#000F5E" d="M301.234 176.222h14.14v.139h-14.14zM296.664 177.912l1.31 1.31h-2.62z"/><path clip-path="url(#J)" fill="#000F5E" d="M301.234 174.691h14.14v1.67h-14.14zM272.944 173.171a3.314 3.314 0 0 1 0 4.71 3.332 3.332 0 0 1-4.71-4.71c1.3-1.3 3.41-1.3 4.71 0"/><path clip-path="url(#J)" fill="#000F5E" d="M265.374 166.821a13.139 13.139 0 0 0-3 6.221c1-6.7 6.59-11.821 13.33-11.821 5.731 0 10.63 3.701 12.58 8.93h-.61l-.47-.88a13.05 13.05 0 0 0-2.33-3.139c-5.42-5.43-14.39-5.191-19.5.689M288.014 180.961c-.029.09-.069.17-.109.26-2.17 4.73-6.811 8-12.201 8-3.769 0-7.179-1.6-9.629-4.191 5.2 5.151 13.62 5.131 18.799-.049.93-.92 1.71-1.98 2.33-3.14l.331-.62.139-.26h.34z"/><path clip-path="url(#J)" fill="#000F5E" d="M317.874 168.48h-29.2a14.973 14.973 0 0 0-2.62-3.529c-6.11-6.11-16.17-5.851-21.94.77-4.87 5.599-4.87 14.07 0 19.66 5.77 6.63 15.83 6.889 21.94.78a15.05 15.05 0 0 0 2.62-3.54h5.63l2.36-2.351 2.35 2.351h18.86l7.07-7.07-7.07-7.071zm-21.21 9.432l-1.31 1.31-.15.15-1.59 1.59h-5.94l-.14.26-.33.62a13.07 13.07 0 0 1-2.33 3.139c-5.18 5.181-13.6 5.201-18.8.05-.25-.239-.48-.489-.71-.75-2.72-3.14-3.73-7.3-3-11.189 0-.01 0-.031.01-.05.42-2.25 1.42-4.401 3-6.221 5.11-5.88 14.08-6.119 19.5-.689.93.92 1.71 1.979 2.33 3.139l.47.88h29.511l2.019 2.021 3.38 3.38-3.38 3.389-2.019 2.021h-17.481l-1.5-1.51-1.54-1.54z"/><path clip-path="url(#J)" fill="#000F5E" d="M272.944 177.881a3.332 3.332 0 0 1-4.71-4.71c1.3-1.3 3.41-1.3 4.71 0a3.314 3.314 0 0 1 0 4.71M301.233 174.691h14.14v1.67h-14.14z"/></g><g clip-path="url(#b)"><defs><path id="O" d="M614.448 294.5h14.999v15h-14.999z"/></defs><clipPath id="P"><use xlink:href="#O" overflow="visible"/></clipPath><path clip-path="url(#P)" fill="#000F5E" d="M614.448 302h15-15z"/><path clip-path="url(#P)" fill="none" stroke="#000F5E" stroke-width="1.313" stroke-miterlimit="10" d="M614.448 302h15"/><path clip-path="url(#P)" fill="#000F5E" d="M621.947 294.5v15-15z"/><path clip-path="url(#P)" fill="none" stroke="#000F5E" stroke-width="1.313" stroke-miterlimit="10" d="M621.948 309.5v-15"/></g><g clip-path="url(#b)"><defs><path id="Q" d="M595.198 361.491h53.5v51.999h-53.5z"/></defs><clipPath id="R"><use xlink:href="#Q" overflow="visible"/></clipPath><path clip-path="url(#R)" fill="#EFC100" d="M638.943 395.94c-.631.773-1.681 1.009-2.599 1.021-.479.044-.933-.056-1.404-.087-.448-.099-.919-.158-1.358-.29-1.788-.478-3.479-1.214-5.113-2.044-3.23-1.727-6.214-3.864-9.019-6.215-1.389-1.193-2.766-2.409-4.073-3.715-1.296-1.314-2.488-2.744-3.488-4.324-.976-1.594-1.858-3.275-2.396-5.131-.146-.452-.234-.946-.331-1.416-.036-.506-.139-.972-.092-1.49.004-.498.11-1.018.263-1.498.12-.241.241-.471.363-.687.18-.193.366-.368.538-.529l.223.202c-.396.777-.272 1.594-.025 2.363.221.773.606 1.523 1.014 2.255.846 1.456 1.839 2.856 2.9 4.208 2.158 2.674 4.237 5.5 6.729 7.995 2.495 2.475 5.194 4.774 8.149 6.686 1.472.959 3.008 1.832 4.635 2.458.403.172.822.267 1.236.406.417.071.844.213 1.264.217.836.093 1.743.003 2.362-.589l.222.204z"/><path clip-path="url(#R)" fill="#CBA9E6" d="M647.156 365.098l-9.171-.338.316.354h-.176l-.374-.374-17.678 17.677.207.207-3.116 3.116a14.432 14.432 0 0 0-4.217-.626c-7.732 0-14 6.044-14 13.5s6.268 13.5 14 13.5c7.731 0 14-6.044 14-13.5 0-1.632-.315-3.188-.865-4.636l4.865-4.864-1-1 2.531-2.533.957.957 12.68-12.678.348.387.059-.795.351-.35-.3-.3.583-7.704z"/><path clip-path="url(#R)" fill="#6E177D" d="M638.198 363.49l-20.647 20.646a15.001 15.001 0 0 0-4.353-.646c-8.638 0-15.567 7.298-14.964 16.063.511 7.396 6.502 13.391 13.9 13.899 8.765.604 16.063-6.327 16.063-14.963 0-1.515-.229-2.976-.647-4.354l3.98-3.98v-3.333h3.334l13.333-13.333v-10h-9.999zm8.333 9.31l-12.356 12.356H629.865v4.31l-3.493 3.492-.707.707.291.956c.382 1.259.575 2.561.575 3.869 0 7.668-6.507 13.845-14.287 13.3-6.568-.46-11.889-5.781-12.347-12.348-.543-7.781 5.634-14.286 13.301-14.286 1.308 0 2.609.193 3.868.577l.955.289.706-.706 20.16-20.16h7.644v7.644z"/><path clip-path="url(#R)" fill="#6E177D" d="M609.744 398.572c1.842 0 3.333 1.492 3.333 3.333s-1.491 3.333-3.333 3.333a3.333 3.333 0 1 1 0-6.666"/><path transform="rotate(134.999 636.414 375.24)" clip-path="url(#R)" fill="#6E177D" d="M629.34 374.405h14.142v1.668H629.34z"/><path clip-path="url(#R)" fill="#9BC1FA" d="M644.156 363.098l-9.171-.338.316.354h-.176l-.374-.374-17.678 17.677.207.207-3.116 3.116a14.432 14.432 0 0 0-4.217-.626c-7.732 0-14 6.044-14 13.5s6.268 13.5 14 13.5c7.731 0 14-6.044 14-13.5 0-1.632-.315-3.188-.865-4.636l4.865-4.864-1-1 2.531-2.533.957.957 12.68-12.678.348.387.059-.795.351-.35-.3-.3.583-7.704z"/><path clip-path="url(#R)" fill="#000F5E" d="M635.198 361.49l-20.647 20.646a15.001 15.001 0 0 0-4.353-.646c-8.638 0-15.567 7.298-14.964 16.063.511 7.396 6.502 13.391 13.9 13.899 8.765.604 16.063-6.327 16.063-14.963 0-1.515-.229-2.976-.647-4.354l3.98-3.98v-3.333h3.334l13.333-13.333v-10h-9.999zm8.333 9.31l-12.356 12.356H626.865v4.31l-3.493 3.492-.707.707.291.956c.382 1.259.575 2.561.575 3.869 0 7.668-6.507 13.845-14.287 13.3-6.568-.46-11.889-5.781-12.347-12.348-.543-7.781 5.634-14.286 13.301-14.286 1.308 0 2.609.193 3.868.577l.955.289.706-.706 20.16-20.16h7.644v7.644z"/><path clip-path="url(#R)" fill="#000F5E" d="M606.744 396.572c1.842 0 3.333 1.492 3.333 3.333s-1.491 3.333-3.333 3.333a3.333 3.333 0 1 1 0-6.666"/><path transform="rotate(134.999 633.414 373.24)" clip-path="url(#R)" fill="#000F5E" d="M626.34 372.405h14.142v1.668H626.34z"/><path clip-path="url(#R)" fill="#EFC100" d="M610.235 369.535c.63-.773 1.681-1.009 2.599-1.021.479-.044.932.055 1.403.087.449.098.919.158 1.358.29 1.788.477 3.48 1.214 5.113 2.044 3.232 1.726 6.214 3.864 9.02 6.215 1.389 1.193 2.766 2.409 4.072 3.714 1.297 1.315 2.489 2.745 3.488 4.325.977 1.593 1.858 3.275 2.396 5.13.146.453.233.947.33 1.416.037.506.139.972.094 1.491-.005.498-.112 1.017-.264 1.498-.12.241-.242.47-.363.686-.18.194-.366.368-.539.53l-.222-.203c.396-.777.271-1.593.025-2.363-.222-.773-.606-1.522-1.013-2.255-.847-1.456-1.84-2.855-2.902-4.208-2.158-2.674-4.236-5.5-6.729-7.995-2.494-2.474-5.194-4.773-8.149-6.685-1.473-.959-3.008-1.832-4.635-2.458-.404-.172-.822-.267-1.237-.407-.417-.071-.843-.213-1.264-.216-.834-.093-1.743-.003-2.361.588l-.22-.203z"/><path clip-path="url(#R)" fill="#FFF" d="M646.698 405.113c0 3.313-2.464 6-5.5 6-3.037 0-5.5-2.687-5.5-6s2.463-6 5.5-6c3.036 0 5.5 2.688 5.5 6"/><path clip-path="url(#R)" fill="#5AA700" d="M646.698 397.403c0-4.09-4.396-7.415-8.608-5.391-2.132 1.026-3.392 3.286-3.392 5.653v2.461c-1.594 1.808-2.393 4.333-1.812 7.034.656 3.055 3.146 5.491 6.212 6.087 5.118.992 9.6-2.906 9.6-7.845a7.956 7.956 0 0 0-2-5.277v-2.722zm-10 0c0-2.88 3.412-5.28 6.271-3.238 1.127.803 1.729 2.16 1.729 3.545v.771a7.956 7.956 0 0 0-8 .001v-1.079zm2.823 12.413l-3.707-3.707 1.414-1.413 2.293 2.293 5.293-5.293 1.414 1.413-6.707 6.707z"/></g><g clip-path="url(#b)"><defs><path id="S" d="M781.18 147.001h54.867v52.289H781.18z"/></defs><clipPath id="T"><use xlink:href="#S" overflow="visible"/></clipPath><path clip-path="url(#T)" fill="#EFC100" d="M835.811 177.542c-.236 1.279-1.286 2.206-2.337 2.814-1.08.619-2.256 1.01-3.438 1.307-2.376.586-4.811.8-7.234.87-4.854.065-9.69-.503-14.445-1.451-4.735-.989-9.539-2.128-13.909-4.444-2.17-1.163-4.289-2.484-6.137-4.206-.925-.854-1.779-1.819-2.433-2.949-.309-.573-.581-1.18-.707-1.836-.131-.65-.089-1.35.163-1.939l.292.068c-.032 1.167.61 2.112 1.364 2.904.757.803 1.675 1.473 2.626 2.094 1.919 1.223 3.998 2.247 6.126 3.157 4.266 1.783 8.605 3.599 13.162 4.814 4.546 1.208 9.215 2.056 13.919 2.288 2.346.122 4.714.102 7.022-.275 1.15-.192 2.291-.476 3.333-.964 1.025-.476 2.023-1.205 2.341-2.32l.292.068z"/><path clip-path="url(#T)" fill="#9BC1FA" d="M830.139 148.985l-9.17-.338.316.354h-.177l-.374-.375-17.678 17.678.207.207-3.116 3.116a14.432 14.432 0 0 0-4.217-.626c-7.732 0-14 6.044-14 13.5s6.268 13.5 14 13.5 14-6.044 14-13.5c0-1.631-.315-3.188-.865-4.636l4.865-4.864-1-1 2.532-2.533.957.957 12.679-12.679.348.388.06-.795.35-.349-.3-.3.583-7.705z"/><path clip-path="url(#T)" fill="#000F5E" d="M821.181 147.377l-20.647 20.647a15.002 15.002 0 0 0-4.353-.647c-8.637 0-15.567 7.298-14.963 16.064.51 7.397 6.502 13.39 13.899 13.899 8.766.605 16.063-6.326 16.063-14.963 0-1.514-.229-2.975-.647-4.353l3.98-3.98v-3.334h3.334l13.333-13.333v-10h-9.999zm8.333 9.31l-12.356 12.357H812.848V173.354l-3.493 3.492-.707.706.291.956c.382 1.259.575 2.561.575 3.869 0 7.668-6.506 13.845-14.287 13.3-6.568-.46-11.888-5.781-12.346-12.349-.543-7.78 5.633-14.284 13.3-14.284 1.308 0 2.61.193 3.869.575l.955.29.706-.706 20.16-20.159h7.643v7.643z"/><path clip-path="url(#T)" fill="#000F5E" d="M792.728 182.459a3.333 3.333 0 1 1 0 6.667 3.333 3.333 0 0 1 0-6.667"/><path transform="rotate(134.999 819.397 159.125)" clip-path="url(#T)" fill="#000F5E" d="M812.322 158.293h14.142v1.667h-14.142z"/><path clip-path="url(#T)" fill="#FFF" d="M826.931 160v36h-31v-48h18v12z"/><path clip-path="url(#T)" fill="#000F5E" d="M814.54 147.001h-20v50h33.333v-36.667l-13.333-13.333zm11.667 48.333h-30v-46.667h16.666v13.334h13.334v33.333z"/><path clip-path="url(#T)" fill="#000F5E" d="M801.207 167h20v1.667h-20zM801.207 170.334h20v1.667h-20zM801.207 173.667h10v1.667h-10z"/><path clip-path="url(#T)" fill="#EFC100" d="M785.334 165.708c.236-1.279 1.286-2.206 2.336-2.814 1.08-.619 2.256-1.01 3.439-1.307 2.376-.587 4.81-.8 7.234-.87 4.854-.065 9.689.503 14.445 1.451 4.734.989 9.539 2.128 13.909 4.444 2.17 1.163 4.288 2.484 6.137 4.206.924.854 1.778 1.819 2.431 2.949.311.573.583 1.18.708 1.836.132.65.089 1.35-.163 1.939l-.292-.068c.033-1.167-.61-2.112-1.363-2.904-.757-.803-1.677-1.473-2.626-2.094-1.92-1.223-3.998-2.247-6.126-3.157-4.267-1.783-8.605-3.599-13.162-4.814-4.547-1.208-9.216-2.056-13.919-2.288-2.348-.122-4.715-.102-7.023.275-1.15.191-2.29.476-3.333.964-1.024.475-2.022 1.205-2.34 2.32l-.292-.068z"/><path clip-path="url(#T)" fill="#FFF" d="M827.931 191c0 3.313-2.463 6-5.5 6s-5.5-2.687-5.5-6 2.463-6 5.5-6 5.5 2.688 5.5 6"/><path clip-path="url(#T)" fill="#5AA700" d="M828.321 183.29c0-4.089-4.396-7.414-8.607-5.39-2.132 1.025-3.393 3.286-3.393 5.652v2.461c-1.593 1.808-2.392 4.333-1.811 7.035.656 3.055 3.145 5.492 6.212 6.087 5.118.992 9.599-2.906 9.599-7.845a7.958 7.958 0 0 0-2-5.278v-2.722zm-10 0c0-2.879 3.412-5.28 6.272-3.239 1.127.804 1.728 2.161 1.728 3.546v.772a7.954 7.954 0 0 0-8 .001v-1.08zm2.825 12.414l-3.707-3.707 1.414-1.414 2.293 2.293 5.293-5.293 1.414 1.414-6.707 6.707z"/></g><g clip-path="url(#b)"><defs><path id="U" d="M0 0h1000v559H0z"/></defs><clipPath id="V"><use xlink:href="#U" overflow="visible"/></clipPath><path clip-path="url(#V)" fill="none" stroke="#A71C71" stroke-miterlimit="10" d="M810.658 259.899l.078 40.825-138.689-.339"/><path clip-path="url(#V)" fill="#A71C71" d="M805.675 261.368l4.969-8.645 5.003 8.626z"/><path clip-path="url(#V)" fill="#FFF" d="M672.269 296.627a3.76 3.76 0 1 0-.02 7.519 3.76 3.76 0 0 0 .02-7.519"/><path clip-path="url(#V)" fill="#A71C71" d="M672.27 296.126a4.267 4.267 0 0 1 4.25 4.271 4.266 4.266 0 0 1-4.271 4.25 4.265 4.265 0 0 1-4.249-4.271 4.265 4.265 0 0 1 4.27-4.25c2.348.006-2.349-.005 0 0m-.019 7.52a3.265 3.265 0 0 0 3.269-3.253 3.264 3.264 0 0 0-3.252-3.268 3.264 3.264 0 0 0-3.268 3.252 3.262 3.262 0 0 0 3.251 3.269c1.798.004-1.798-.004 0 0"/><path clip-path="url(#V)" fill="none" stroke="#B380E0" stroke-miterlimit="10" d="M137.375 468.676v.5"/><path clip-path="url(#V)" fill="none" stroke="#B380E0" stroke-miterlimit="10" stroke-dasharray="1.017,1.017" d="M137.375 470.193v48.305"/><path clip-path="url(#V)" fill="none" stroke="#B380E0" stroke-miterlimit="10" d="M137.375 519.007v.5l.125-.069h.357"/><path clip-path="url(#V)" fill="none" stroke="#B380E0" stroke-miterlimit="10" stroke-dasharray="1,1" d="M138.857 519.438h763.644"/><path clip-path="url(#V)" fill="none" stroke="#B380E0" stroke-miterlimit="10" d="M903.001 519.438l.499.061v-.498"/><path clip-path="url(#V)" fill="none" stroke="#B380E0" stroke-miterlimit="10" stroke-dasharray="0.998,0.998" d="M903.5 518.002V149.374"/><path clip-path="url(#V)" fill="none" stroke="#B380E0" stroke-miterlimit="10" d="M903.5 148.875v-.5h-.5"/><path clip-path="url(#V)" fill="none" stroke="#B380E0" stroke-miterlimit="10" stroke-dasharray="1,1" d="M902 148.375h-69.501"/><path clip-path="url(#V)" fill="none" stroke="#B380E0" stroke-miterlimit="10" d="M831.999 148.375h-.5"/><path clip-path="url(#V)" fill="#B380E0" d="M132.389 470.135l4.986-8.635 4.987 8.635z"/><g opacity=".15" clip-path="url(#V)"><defs><path id="W" d="M716 376h171v91H716z"/></defs><clipPath id="X"><use xlink:href="#W" overflow="visible"/></clipPath><path clip-path="url(#X)" fill="#B380E0" d="M876.494 467H726.506c-5.802 0-10.506-4.704-10.506-10.506v-69.988c0-5.802 4.704-10.506 10.506-10.506h149.988c5.802 0 10.506 4.704 10.506 10.506v69.988c0 5.802-4.704 10.506-10.506 10.506"/></g><path clip-path="url(#V)" fill="none" stroke="#B380E0" stroke-miterlimit="10" stroke-dasharray="1,1" d="M875.072 400.5H903.5"/><path clip-path="url(#V)" fill="#B380E0" d="M875.26 404.26a3.76 3.76 0 1 1 .002-7.522 3.76 3.76 0 0 1-.002 7.522"/><path clip-path="url(#V)" fill="none" stroke="#A71C71" stroke-miterlimit="10" stroke-dasharray="1,1" d="M292.5 253v106.824"/><path clip-path="url(#V)" fill="#A71C71" d="M287.514 358.365L292.5 367l4.987-8.635z"/></g><g clip-path="url(#b)"><text x="732.612" y="417.398"><tspan x="732.612" y="417.398" font-size="11" font-family="IBMPlexSans">Le chiavi root</tspan><tspan x="791.911" y="417.398" font-size="11" font-family="IBMPlexSans"></tspan></text></g><g clip-path="url(#b)"><text transform="translate(808.85 417.398)"><tspan x="0" y="0" font-family="'IBMPlexSans-SemiBold'" font-size="11">K</tspan><tspan x="5.687" y="0" font-family="'IBMPlexSans-SemiBold'" font-size="11">e</tspan><tspan x="11.143" y="0" font-family="'IBMPlexSans-SemiBold'" font-size="11">y </tspan><tspan x="18.655" y="0" font-family="'IBMPlexSans-SemiBold'" font-size="11">P</tspan><tspan x="24.396" y="0" font-family="'IBMPlexSans-SemiBold'" font-size="11">ro</tspan><tspan x="33.944" y="0" font-family="'IBMPlexSans-SemiBold'" font-size="11">t</tspan><tspan x="37.553" y="0" font-family="'IBMPlexSans-SemiBold'" font-size="11">ect</tspan></text></g><g clip-path="url(#b)"><text transform="translate(734.612 430.599)"><tspan x="0" y="0" font-family="'IBMPlexSans'" font-size="11">p</tspan><tspan x="6.259" y="0" font-family="'IBMPlexSans'" font-size="11">r</tspan><tspan x="9.812" y="0" font-family="'IBMPlexSans'" font-size="11">o</tspan><tspan x="15.851" y="0" font-family="'IBMPlexSans'" font-size="11">t</tspan><tspan x="19.458" y="0" font-family="'IBMPlexSans'" font-size="11">eggono i dati archiviati</tspan></text></g><g clip-path="url(#b)"><text transform="translate(734.612 443.799)" font-family="'IBMPlexSans'" font-size="11">nei servizi cloud</text></g><g clip-path="url(#b)"><text transform="translate(599.576 438.893)" font-family="'IBMPlexSans'" font-size="11">DEK</text></g><g clip-path="url(#b)"><text transform="translate(599.556 452.093)" font-family="'IBMPlexSans'" font-size="11">impacchettata</text></g><g clip-path="url(#b)"><text transform="translate(436.274 221.895)" font-family="'IBMPlexSans'" font-size="11">Algoritmo</text></g><g clip-path="url(#b)"><text transform="translate(437.568 235.095)" font-family="'IBMPlexSans'" font-size="11">AES</text></g><g clip-path="url(#b)"><text transform="translate(258.675 438.893)" font-family="'IBMPlexSans'" font-size="11">DEK dal servizio</text></g><g clip-path="url(#b)"><text transform="translate(276.693 452.093)" font-family="'IBMPlexSans'" font-size="11">di dati</text></g><g clip-path="url(#b)"><text transform="translate(109.306 438.893)"><tspan x="0" y="0" font-size="11" font-family="IBMPlexSans">Chiave root</tspan><tspan x="50.996" y="0" font-size="11" font-family="IBMPlexSans"></tspan></text></g><g clip-path="url(#b)"><text transform="translate(108.118 452.093)"><tspan x="0" y="0" font-family="'IBMPlexSans'" font-size="11">K</tspan><tspan x="5.698" y="0" font-family="'IBMPlexSans'" font-size="11">e</tspan><tspan x="11.154" y="0" font-family="'IBMPlexSans'" font-size="11">y </tspan><tspan x="18.667" y="0" font-family="'IBMPlexSans'" font-size="11">P</tspan><tspan x="24.409" y="0" font-family="'IBMPlexSans'" font-size="11">r</tspan><tspan x="27.962" y="0" font-family="'IBMPlexSans'" font-size="11">o</tspan><tspan x="34.001" y="0" font-family="'IBMPlexSans'" font-size="11">t</tspan><tspan x="37.609" y="0" font-family="'IBMPlexSans'" font-size="11">ect</tspan></text></g><g clip-path="url(#b)"><text transform="translate(70.717 324.376)"><tspan x="0" y="0" font-family="'IBMPlexSans-SemiBold'" font-size="12">K</tspan><tspan x="6.204" y="0" font-family="'IBMPlexSans-SemiBold'" font-size="12">e</tspan><tspan x="12.156" y="0" font-family="'IBMPlexSans-SemiBold'" font-size="12">y </tspan><tspan x="20.352" y="0" font-family="'IBMPlexSans-SemiBold'" font-size="12">P</tspan><tspan x="26.627" y="0" font-family="'IBMPlexSans-SemiBold'" font-size="12">r</tspan><tspan x="30.503" y="0" font-family="'IBMPlexSans-SemiBold'" font-size="12">ot</tspan><tspan x="40.991" y="0" font-family="'IBMPlexSans-SemiBold'" font-size="12">ect</tspan></text></g><g clip-path="url(#b)"><text transform="translate(596.758 221.896)" font-family="'IBMPlexSans'" font-size="11">Dati</text></g><g clip-path="url(#b)"><text transform="translate(597.948 235.096)" font-family="'IBMPlexSans'" font-size="11">codificati</text></g><g clip-path="url(#b)"><text transform="translate(437.272 438.893)" font-family="'IBMPlexSans'" font-size="11">Algoritmo</text></g><g clip-path="url(#b)"><text transform="translate(437.566 452.093)" font-family="'IBMPlexSans'" font-size="11">AES</text></g><g clip-path="url(#b)"><text font-size="11" x="228.37" y="221.896" font-family="IBMPlexSans">Chiave di crittografia dei</text></g><g clip-path="url(#b)"><text transform="translate(268.892 235.096)"><tspan x="0" y="0" font-size="11" font-family="IBMPlexSans">dati (DEK)</tspan></text></g><g clip-path="url(#b)"><text transform="translate(104.288 221.896)" font-family="'IBMPlexSans'" font-size="11">Dati</text></g><g clip-path="url(#b)"><text transform="translate(103.442 235.096)" font-family="'IBMPlexSans'" font-size="11">non codificati</text></g><g clip-path="url(#b)"><text transform="translate(70.717 107.376)" font-family="'IBMPlexSans-SemiBold'" font-size="12">Servizio di dati IBM Cloud</text></g><g clip-path="url(#b)"><text transform="translate(49 63)" fill="#272727" font-family="'IBMPlexSans-Bold'" font-size="16">Crittografia envelope</text></g><g clip-path="url(#b)"><text transform="translate(774.559 221.896)" font-family="'IBMPlexSans-SemiBold'" font-size="11">Dati impacchettati</text></g><g clip-path="url(#b)"><text transform="translate(781.281 235.096)" font-family="'IBMPlexSans-SemiBold'" font-size="11">inattivi</text></g></svg>