<?xml version="1.0" encoding="UTF-8" standalone="no"?>
<!-- Generator: Adobe Illustrator 21.1.0, SVG Export Plug-In . SVG Version: 6.00 Build 0)  -->

<svg
   xmlns:dc="http://purl.org/dc/elements/1.1/"
   xmlns:cc="http://creativecommons.org/ns#"
   xmlns:rdf="http://www.w3.org/1999/02/22-rdf-syntax-ns#"
   xmlns:svg="http://www.w3.org/2000/svg"
   xmlns="http://www.w3.org/2000/svg"
   xmlns:xlink="http://www.w3.org/1999/xlink"
   xmlns:sodipodi="http://sodipodi.sourceforge.net/DTD/sodipodi-0.dtd"
   xmlns:inkscape="http://www.inkscape.org/namespaces/inkscape"
   version="1.1"
   x="0px"
   y="0px"
   viewBox="0 0 870 171"
   style="enable-background:new 0 0 870 171;"
   xml:space="preserve"
   id="svg153"
   sodipodi:docname="key-states.svg"
   inkscape:version="0.92.2 (5c3e80d, 2017-08-06)"><metadata
     id="metadata159"><rdf:RDF><cc:Work
         rdf:about=""><dc:format>image/svg+xml</dc:format><dc:type
           rdf:resource="http://purl.org/dc/dcmitype/StillImage" /></cc:Work></rdf:RDF></metadata><defs
     id="defs157" /><sodipodi:namedview
     pagecolor="#ffffff"
     bordercolor="#666666"
     borderopacity="1"
     objecttolerance="10"
     gridtolerance="10"
     guidetolerance="10"
     inkscape:pageopacity="0"
     inkscape:pageshadow="2"
     inkscape:window-width="1920"
     inkscape:window-height="1027"
     id="namedview155"
     showgrid="false"
     inkscape:zoom="1.6689655"
     inkscape:cx="367.49008"
     inkscape:cy="96.789464"
     inkscape:window-x="-8"
     inkscape:window-y="-8"
     inkscape:window-maximized="1"
     inkscape:current-layer="svg153" /><style
     type="text/css"
     id="style2">
	.st0{opacity:0.5;}
	.st1{fill:none;stroke:#A71C71;stroke-miterlimit:10;stroke-dasharray:1,1;}
	.st2{fill:#A71C71;}
	.st3{fill:#EDF5FF;stroke:#69A6FF;stroke-width:0.25;stroke-miterlimit:10;}
	.st4{fill:#EFC100;}
	.st5{fill:#5AA700;}
	.st6{fill:#E71D32;}
	.st7{fill:#868C91;}
	.st8{fill:none;stroke:#A71C71;stroke-miterlimit:10;}
	.st9{fill:#F8F4F2;}
	.st10{clip-path:url(#SVGID_2_);}
	.st11{clip-path:url(#SVGID_4_);}
	.st12{opacity:0.65;clip-path:url(#SVGID_6_);}
	.st13{clip-path:url(#SVGID_8_);fill:#B380E0;}
	.st14{clip-path:url(#SVGID_6_);fill:#6E177D;}
	.st15{fill:#FFFFFF;}
	.st16{fill:#6E177D;}
	.st17{font-family:'IBMPlexSans-SemiBold';}
	.st18{font-size:12px;}
	.st19{display:none;}
	.st20{display:inline;fill:#272727;}
	.st21{font-family:'IBMPlexSans';}
	.st22{font-size:16px;}
	.st23{font-family:'IBMPlexSans-Bold';}
</style><g
     id="Visual"><g
       class="st0"
       id="g12"><g
         id="g10"><line
           class="st1"
           x1="300"
           y1="94.5"
           x2="691.3"
           y2="94.5"
           id="line4" /><g
           id="g8"><polygon
             class="st2"
             points="689.9,99.5 698.5,94.5 689.9,89.5     "
             id="polygon6" /></g></g></g><g
       class="st0"
       id="g22"><g
         id="g20"><line
           class="st1"
           x1="477.5"
           y1="110.5"
           x2="691.3"
           y2="110.5"
           id="line14" /><g
           id="g18"><polygon
             class="st2"
             points="689.9,115.5 698.5,110.5 689.9,105.5     "
             id="polygon16" /></g></g></g><rect
       x="339"
       y="40"
       class="st3"
       width="140"
       height="80"
       id="rect24" /><rect
       x="159"
       y="40.1"
       class="st3"
       width="140"
       height="80"
       id="rect26" /><rect
       x="519"
       y="40"
       class="st3"
       width="140"
       height="80"
       id="rect28" /><rect
       x="699"
       y="40"
       class="st3"
       width="140"
       height="80"
       id="rect30" /><circle
       class="st4"
       cx="184"
       cy="80"
       r="5"
       id="circle32" /><circle
       class="st5"
       cx="364"
       cy="79"
       r="5"
       id="circle34" /><circle
       class="st6"
       cx="724"
       cy="79"
       r="5"
       id="circle36" /><circle
       class="st7"
       cx="544"
       cy="79"
       r="5"
       id="circle38" /><g
       id="g50"><line
         class="st2"
         x1="118.5"
         y1="79.5"
         x2="158.5"
         y2="79.5"
         id="line40" /><g
         id="g48"><line
           class="st8"
           x1="118.5"
           y1="79.5"
           x2="151.3"
           y2="79.5"
           id="line42" /><g
           id="g46"><polygon
             class="st2"
             points="149.9,84.5 158.5,79.5 149.9,74.5     "
             id="polygon44" /></g></g></g><g
       id="g62"><line
         class="st2"
         x1="299.5"
         y1="79.5"
         x2="339.5"
         y2="79.5"
         id="line52" /><g
         id="g60"><line
           class="st8"
           x1="299.5"
           y1="79.5"
           x2="332.3"
           y2="79.5"
           id="line54" /><g
           id="g58"><polygon
             class="st2"
             points="330.9,84.5 339.5,79.5 330.9,74.5     "
             id="polygon56" /></g></g></g><g
       id="g74"><line
         class="st2"
         x1="479"
         y1="78.5"
         x2="519"
         y2="78.5"
         id="line64" /><g
         id="g72"><line
           class="st8"
           x1="479"
           y1="78.5"
           x2="511.8"
           y2="78.5"
           id="line66" /><g
           id="g70"><polygon
             class="st2"
             points="510.4,83.5 519,78.5 510.4,73.5     "
             id="polygon68" /></g></g></g><g
       id="g84"><g
         id="g82"><line
           class="st8"
           x1="659"
           y1="78.5"
           x2="691.8"
           y2="78.5"
           id="line76" /><g
           id="g80"><polygon
             class="st2"
             points="690.4,83.5 699,78.5 690.4,73.5     "
             id="polygon78" /></g></g></g><circle
       class="st9"
       cx="79.9"
       cy="79.3"
       r="40"
       id="circle86" /><g
       id="Root_key"><g
         id="g128"><defs
           id="defs89"><rect
             id="SVGID_1_"
             x="57.4"
             y="68.8"
             width="45"
             height="20.9" /></defs><clipPath
           id="SVGID_2_"><use
             xlink:href="#SVGID_1_"
             style="overflow:visible;"
             id="use91" /></clipPath><g
           class="st10"
           clip-path="url(#SVGID_2_)"
           id="g126"><defs
             id="defs95"><rect
               id="SVGID_3_"
               x="57.4"
               y="68.8"
               width="45"
               height="20.9" /></defs><clipPath
             id="SVGID_4_"><use
               xlink:href="#SVGID_3_"
               style="overflow:visible;"
               id="use97" /></clipPath><g
             class="st11"
             clip-path="url(#SVGID_4_)"
             id="g124"><defs
               id="defs101"><rect
                 id="SVGID_5_"
                 x="57.4"
                 y="68.8"
                 width="45"
                 height="20.9" /></defs><clipPath
               id="SVGID_6_"><use
                 xlink:href="#SVGID_5_"
                 style="overflow:visible;"
                 id="use103" /></clipPath><g
               class="st12"
               clip-path="url(#SVGID_6_)"
               id="g116"><g
                 id="g114"><defs
                   id="defs107"><rect
                     id="SVGID_7_"
                     x="57.9"
                     y="69.2"
                     width="43.3"
                     height="19.5" /></defs><clipPath
                   id="SVGID_8_"><use
                     xlink:href="#SVGID_7_"
                     style="overflow:visible;"
                     id="use109" /></clipPath><path
                   class="st13"
                   d="M97,74.8H82.3h-5.8c-1.6-3.3-4.9-5.6-8.8-5.6c-5.4,0-9.8,4.4-9.8,9.8s4.4,9.8,9.8,9.8         c3.9,0,7.2-2.3,8.8-5.6h5.1v-1.4h0.7h1.4v1.4H97l4.2-4.2L97,74.8z"
                   clip-path="url(#SVGID_8_)"
                   id="path112" /></g></g><path
               class="st14"
               d="M97.4,74.3H77.1c-0.5-0.9-1.1-1.7-1.8-2.5c-4.3-4.3-11.3-4.1-15.3,0.5c-3.4,3.9-3.4,9.8,0,13.7       c4,4.6,11,4.8,15.3,0.5c0.7-0.7,1.4-1.6,1.8-2.5l3.9,0l1.6-1.6l1.6,1.6h13.2l4.9-4.9L97.4,74.3z M97,83l-12.2,0l-1.3-1.3       l-0.8-0.8l-0.8,0.8L80.5,83h-3.4h-0.7L76,83.6c-0.4,0.8-1,1.5-1.6,2.2c-3.8,3.8-10,3.6-13.6-0.5c-3-3.5-3-8.7,0-12.2       c3.6-4.1,9.8-4.3,13.6-0.5c0.6,0.6,1.2,1.4,1.6,2.2l0.3,0.6h0.7l19.9,0l3.8,3.8L97,83z"
               clip-path="url(#SVGID_6_)"
               id="path118" /><path
               class="st14"
               d="M66.1,77.6c0.9,0.9,0.9,2.4,0,3.3c-0.9,0.9-2.4,0.9-3.3,0c-0.9-0.9-0.9-2.4,0-3.3       C63.7,76.7,65.2,76.7,66.1,77.6"
               clip-path="url(#SVGID_6_)"
               id="path120" /><rect
               x="85.8"
               y="78.6"
               class="st14"
               width="9.9"
               height="1.2"
               clip-path="url(#SVGID_6_)"
               id="rect122" /></g></g></g></g><circle
       class="st15"
       cx="104"
       cy="106"
       r="6"
       id="circle131" /><g
       id="g135"><path
         class="st16"
         d="M104,96c-5.5,0-10,4.5-10,10s4.5,10,10,10s10-4.5,10-10S109.6,96,104,96z M108.5,106.9h-3.6v3.6h-1.8v-3.6    h-3.6v-1.8h3.6v-3.6h1.8v3.6h3.6V106.9z"
         id="path133" /></g></g><g
     id="Text"><text
       transform="translate(198.1016,83.498)"
       class="st17 st18"
       id="text138"
       style="font-size:12px;font-family:IBMPlexSans-SemiBold">Pre-attivata</text>
<text
       transform="translate(378.1792,82.498)"
       class="st17 st18"
       id="text140"
       style="font-size:12px;font-family:IBMPlexSans-SemiBold">Attiva</text>
<text
       transform="translate(558.4336,82.498)"
       class="st17 st18"
       id="text142"
       style="font-size:12px;font-family:IBMPlexSans-SemiBold">Disattivata</text>
<text
       transform="translate(738.5996,82.498)"
       class="st17 st18"
       id="text144"
       style="font-size:12px;font-family:IBMPlexSans-SemiBold">Distrutta</text>
<text
       transform="matrix(1 0 0 1 9 64)"
       class="st19"
       id="text150"><tspan
         x="0"
         y="0"
         class="st20 st21 st22"
         id="tspan146">Key</tspan><tspan
         x="26.9"
         y="0"
         class="st20 st23 st22"
         id="tspan148"> states</tspan></text>
</g></svg>
