<?xml version="1.0" encoding="UTF-8" standalone="no"?>
<!-- Generator: Adobe Illustrator 16.0.0, SVG Export Plug-In . SVG Version: 6.00 Build 0)  -->

<svg
   xmlns:dc="http://purl.org/dc/elements/1.1/"
   xmlns:cc="http://creativecommons.org/ns#"
   xmlns:rdf="http://www.w3.org/1999/02/22-rdf-syntax-ns#"
   xmlns:svg="http://www.w3.org/2000/svg"
   xmlns="http://www.w3.org/2000/svg"
   xmlns:xlink="http://www.w3.org/1999/xlink"
   xmlns:sodipodi="http://sodipodi.sourceforge.net/DTD/sodipodi-0.dtd"
   xmlns:inkscape="http://www.inkscape.org/namespaces/inkscape"
   version="1.1"
   id="Layer_1"
   x="0px"
   y="0px"
   width="1000px"
   height="550px"
   viewBox="0 0 1000 550"
   enable-background="new 0 0 1000 550"
   xml:space="preserve"
   sodipodi:docname="keys-use-cases.svg"
   inkscape:version="0.92.2 (5c3e80d, 2017-08-06)"><metadata
     id="metadata469"><rdf:RDF><cc:Work
         rdf:about=""><dc:format>image/svg+xml</dc:format><dc:type
           rdf:resource="http://purl.org/dc/dcmitype/StillImage" /></cc:Work></rdf:RDF></metadata><defs
     id="defs467" /><sodipodi:namedview
     pagecolor="#ffffff"
     bordercolor="#666666"
     borderopacity="1"
     objecttolerance="10"
     gridtolerance="10"
     guidetolerance="10"
     inkscape:pageopacity="0"
     inkscape:pageshadow="2"
     inkscape:window-width="1920"
     inkscape:window-height="1027"
     id="namedview465"
     showgrid="false"
     inkscape:zoom="1.452"
     inkscape:cx="397.71912"
     inkscape:cy="263.01958"
     inkscape:window-x="-8"
     inkscape:window-y="-8"
     inkscape:window-maximized="1"
     inkscape:current-layer="g462" /><g
     id="g462"><defs
       id="defs3"><rect
         id="SVGID_1_"
         width="1000"
         height="550" /></defs><clipPath
       id="SVGID_2_"><use
         xlink:href="#SVGID_1_"
         overflow="visible"
         id="use5" /></clipPath><rect
       x="49.5"
       y="83.5"
       clip-path="url(#SVGID_2_)"
       fill="#FFFFFF"
       width="345"
       height="412"
       id="rect8" /><polyline
       clip-path="url(#SVGID_2_)"
       fill="none"
       stroke="#D8D8D8"
       stroke-miterlimit="10"
       points="394.5,494 394.5,495.5    393,495.5  "
       id="polyline10" /><line
       clip-path="url(#SVGID_2_)"
       fill="none"
       stroke="#D8D8D8"
       stroke-miterlimit="10"
       stroke-dasharray="3,2"
       x1="391"
       y1="495.5"
       x2="52"
       y2="495.5"
       id="line12" /><polyline
       clip-path="url(#SVGID_2_)"
       fill="none"
       stroke="#D8D8D8"
       stroke-miterlimit="10"
       points="51,495.5 49.5,495.5 49.5,494     "
       id="polyline14" /><line
       clip-path="url(#SVGID_2_)"
       fill="none"
       stroke="#D8D8D8"
       stroke-miterlimit="10"
       stroke-dasharray="3.015,2.01"
       x1="49.5"
       y1="491.99"
       x2="49.5"
       y2="86.005"
       id="line16" /><polyline
       clip-path="url(#SVGID_2_)"
       fill="none"
       stroke="#D8D8D8"
       stroke-miterlimit="10"
       points="49.5,85 49.5,83.5 51,83.5  "
       id="polyline18" /><line
       clip-path="url(#SVGID_2_)"
       fill="none"
       stroke="#D8D8D8"
       stroke-miterlimit="10"
       stroke-dasharray="3,2"
       x1="53"
       y1="83.5"
       x2="392"
       y2="83.5"
       id="line20" /><polyline
       clip-path="url(#SVGID_2_)"
       fill="none"
       stroke="#D8D8D8"
       stroke-miterlimit="10"
       points="393,83.5 394.5,83.5 394.5,85     "
       id="polyline22" /><line
       clip-path="url(#SVGID_2_)"
       fill="none"
       stroke="#D8D8D8"
       stroke-miterlimit="10"
       stroke-dasharray="3.015,2.01"
       x1="394.5"
       y1="87.01"
       x2="394.5"
       y2="492.995"
       id="line24" /><rect
       x="603.5"
       y="83.5"
       clip-path="url(#SVGID_2_)"
       fill="#FFFFFF"
       width="345"
       height="185"
       id="rect26" /><polyline
       clip-path="url(#SVGID_2_)"
       fill="none"
       stroke="#D8D8D8"
       stroke-miterlimit="10"
       points="948.5,267 948.5,268.5    947,268.5  "
       id="polyline28" /><line
       clip-path="url(#SVGID_2_)"
       fill="none"
       stroke="#D8D8D8"
       stroke-miterlimit="10"
       stroke-dasharray="3,2"
       x1="945"
       y1="268.5"
       x2="606"
       y2="268.5"
       id="line30" /><polyline
       clip-path="url(#SVGID_2_)"
       fill="none"
       stroke="#D8D8D8"
       stroke-miterlimit="10"
       points="605,268.5 603.5,268.5    603.5,267  "
       id="polyline32" /><line
       clip-path="url(#SVGID_2_)"
       fill="none"
       stroke="#D8D8D8"
       stroke-miterlimit="10"
       stroke-dasharray="3,2"
       x1="603.5"
       y1="265"
       x2="603.5"
       y2="86"
       id="line34" /><polyline
       clip-path="url(#SVGID_2_)"
       fill="none"
       stroke="#D8D8D8"
       stroke-miterlimit="10"
       points="603.5,85 603.5,83.5 605,83.5     "
       id="polyline36" /><line
       clip-path="url(#SVGID_2_)"
       fill="none"
       stroke="#D8D8D8"
       stroke-miterlimit="10"
       stroke-dasharray="3,2"
       x1="607"
       y1="83.5"
       x2="946"
       y2="83.5"
       id="line38" /><polyline
       clip-path="url(#SVGID_2_)"
       fill="none"
       stroke="#D8D8D8"
       stroke-miterlimit="10"
       points="947,83.5 948.5,83.5 948.5,85     "
       id="polyline40" /><line
       clip-path="url(#SVGID_2_)"
       fill="none"
       stroke="#D8D8D8"
       stroke-miterlimit="10"
       stroke-dasharray="3,2"
       x1="948.5"
       y1="87"
       x2="948.5"
       y2="266"
       id="line42" /><rect
       x="626.5"
       y="120.5"
       clip-path="url(#SVGID_2_)"
       fill="#F8F4F2"
       width="298"
       height="121"
       id="rect44" /><polyline
       clip-path="url(#SVGID_2_)"
       fill="none"
       stroke="#000F5E"
       stroke-miterlimit="10"
       points="923,120.5 924.5,120.5    924.5,122  "
       id="polyline46" /><line
       clip-path="url(#SVGID_2_)"
       fill="none"
       stroke="#000F5E"
       stroke-miterlimit="10"
       stroke-dasharray="3.026,2.017"
       x1="924.5"
       y1="124.017"
       x2="924.5"
       y2="238.991"
       id="line48" /><polyline
       clip-path="url(#SVGID_2_)"
       fill="none"
       stroke="#000F5E"
       stroke-miterlimit="10"
       points="924.5,240 924.5,241.5    923,241.5  "
       id="polyline50" /><line
       clip-path="url(#SVGID_2_)"
       fill="none"
       stroke="#000F5E"
       stroke-miterlimit="10"
       stroke-dasharray="2.98,1.987"
       x1="921.014"
       y1="241.5"
       x2="628.992"
       y2="241.5"
       id="line52" /><polyline
       clip-path="url(#SVGID_2_)"
       fill="none"
       stroke="#000F5E"
       stroke-miterlimit="10"
       points="628,241.5 626.5,241.5    626.5,240  "
       id="polyline54" /><line
       clip-path="url(#SVGID_2_)"
       fill="none"
       stroke="#000F5E"
       stroke-miterlimit="10"
       stroke-dasharray="3.026,2.017"
       x1="626.5"
       y1="237.983"
       x2="626.5"
       y2="123.009"
       id="line56" /><polyline
       clip-path="url(#SVGID_2_)"
       fill="none"
       stroke="#000F5E"
       stroke-miterlimit="10"
       points="626.5,122 626.5,120.5    628,120.5  "
       id="polyline58" /><line
       clip-path="url(#SVGID_2_)"
       fill="none"
       stroke="#000F5E"
       stroke-miterlimit="10"
       stroke-dasharray="2.98,1.987"
       x1="629.986"
       y1="120.5"
       x2="922.008"
       y2="120.5"
       id="line60" /><rect
       x="70.5"
       y="120.5"
       clip-path="url(#SVGID_2_)"
       fill="#F4F4F4"
       width="300"
       height="347"
       id="rect62" /><polyline
       clip-path="url(#SVGID_2_)"
       fill="none"
       stroke="#000F5E"
       stroke-miterlimit="10"
       points="370.5,466 370.5,467.5    369,467.5  "
       id="polyline64" /><line
       clip-path="url(#SVGID_2_)"
       fill="none"
       stroke="#000F5E"
       stroke-miterlimit="10"
       stroke-dasharray="3,2"
       x1="367"
       y1="467.5"
       x2="73"
       y2="467.5"
       id="line66" /><polyline
       clip-path="url(#SVGID_2_)"
       fill="none"
       stroke="#000F5E"
       stroke-miterlimit="10"
       points="72,467.5 70.5,467.5 70.5,466     "
       id="polyline68" /><line
       clip-path="url(#SVGID_2_)"
       fill="none"
       stroke="#000F5E"
       stroke-miterlimit="10"
       stroke-dasharray="3.018,2.012"
       x1="70.5"
       y1="463.988"
       x2="70.5"
       y2="123.006"
       id="line70" /><polyline
       clip-path="url(#SVGID_2_)"
       fill="none"
       stroke="#000F5E"
       stroke-miterlimit="10"
       points="70.5,122 70.5,120.5 72,120.5     "
       id="polyline72" /><line
       clip-path="url(#SVGID_2_)"
       fill="none"
       stroke="#000F5E"
       stroke-miterlimit="10"
       stroke-dasharray="3,2"
       x1="74"
       y1="120.5"
       x2="368"
       y2="120.5"
       id="line74" /><polyline
       clip-path="url(#SVGID_2_)"
       fill="none"
       stroke="#000F5E"
       stroke-miterlimit="10"
       points="369,120.5 370.5,120.5    370.5,122  "
       id="polyline76" /><line
       clip-path="url(#SVGID_2_)"
       fill="none"
       stroke="#000F5E"
       stroke-miterlimit="10"
       stroke-dasharray="3.018,2.012"
       x1="370.5"
       y1="124.012"
       x2="370.5"
       y2="464.994"
       id="line78" /><rect
       x="603.5"
       y="310.5"
       clip-path="url(#SVGID_2_)"
       fill="#FFFFFF"
       width="345"
       height="185"
       id="rect80" /><polyline
       clip-path="url(#SVGID_2_)"
       fill="none"
       stroke="#D8D8D8"
       stroke-miterlimit="10"
       points="948.5,494 948.5,495.5    947,495.5  "
       id="polyline82" /><line
       clip-path="url(#SVGID_2_)"
       fill="none"
       stroke="#D8D8D8"
       stroke-miterlimit="10"
       stroke-dasharray="3,2"
       x1="945"
       y1="495.5"
       x2="606"
       y2="495.5"
       id="line84" /><polyline
       clip-path="url(#SVGID_2_)"
       fill="none"
       stroke="#D8D8D8"
       stroke-miterlimit="10"
       points="605,495.5 603.5,495.5    603.5,494  "
       id="polyline86" /><line
       clip-path="url(#SVGID_2_)"
       fill="none"
       stroke="#D8D8D8"
       stroke-miterlimit="10"
       stroke-dasharray="3,2"
       x1="603.5"
       y1="492"
       x2="603.5"
       y2="313"
       id="line88" /><polyline
       clip-path="url(#SVGID_2_)"
       fill="none"
       stroke="#D8D8D8"
       stroke-miterlimit="10"
       points="603.5,312 603.5,310.5    605,310.5  "
       id="polyline90" /><line
       clip-path="url(#SVGID_2_)"
       fill="none"
       stroke="#D8D8D8"
       stroke-miterlimit="10"
       stroke-dasharray="3,2"
       x1="607"
       y1="310.5"
       x2="946"
       y2="310.5"
       id="line92" /><polyline
       clip-path="url(#SVGID_2_)"
       fill="none"
       stroke="#D8D8D8"
       stroke-miterlimit="10"
       points="947,310.5 948.5,310.5    948.5,312  "
       id="polyline94" /><line
       clip-path="url(#SVGID_2_)"
       fill="none"
       stroke="#D8D8D8"
       stroke-miterlimit="10"
       stroke-dasharray="3,2"
       x1="948.5"
       y1="314"
       x2="948.5"
       y2="493"
       id="line96" /><rect
       x="626.5"
       y="347.5"
       clip-path="url(#SVGID_2_)"
       fill="#EDF5FF"
       width="298"
       height="120"
       id="rect98" /><rect
       x="626.5"
       y="347.5"
       clip-path="url(#SVGID_2_)"
       fill="none"
       stroke="#000F5E"
       stroke-miterlimit="10"
       stroke-dasharray="3,2"
       width="298"
       height="120"
       id="rect100" /><line
       clip-path="url(#SVGID_2_)"
       fill="none"
       stroke="#6E177D"
       stroke-miterlimit="10"
       x1="789"
       y1="241.5"
       x2="789"
       y2="242"
       id="line102" /><line
       clip-path="url(#SVGID_2_)"
       fill="none"
       stroke="#6E177D"
       stroke-miterlimit="10"
       stroke-dasharray="0.997,0.997"
       x1="789"
       y1="242.997"
       x2="789"
       y2="302.325"
       id="line104" /><line
       clip-path="url(#SVGID_2_)"
       fill="none"
       stroke="#6E177D"
       stroke-miterlimit="10"
       x1="789"
       y1="302.823"
       x2="789"
       y2="303.323"
       id="line106" /><polygon
       clip-path="url(#SVGID_2_)"
       fill="#6E177D"
       points="784.014,301.864 789,310.5 793.986,301.864  "
       id="polygon108" /><line
       clip-path="url(#SVGID_2_)"
       fill="none"
       stroke="#6E177D"
       stroke-miterlimit="10"
       x1="758"
       y1="248.676"
       x2="758"
       y2="310.5"
       id="line110" /><polygon
       clip-path="url(#SVGID_2_)"
       fill="#6E177D"
       points="753.014,250.135 758,241.5 762.986,250.135  "
       id="polygon112" /><polygon
       clip-path="url(#SVGID_2_)"
       fill="#8747B8"
       points="795.629,409.363 795.629,405.728 790.175,405.728 790.175,409.363    786.538,409.363 786.538,405.728 781.084,405.728 781.084,409.363 757.447,409.363 757.447,420.272 797.447,420.272    797.447,409.363  "
       id="polygon114" /><path
       clip-path="url(#SVGID_2_)"
       fill="#8747B8"
       d="M775.629,396.637h-1.818V393h-5.454v3.637h-3.637V393h-5.454v3.637h-1.818   v10.909h18.182V396.637z M777.447,422.091h20V433h-20V422.091z M757.447,422.091h18.182V433h-18.182V422.091z"
       id="path116" /><g
       clip-path="url(#SVGID_2_)"
       id="g160"><defs
         id="defs119"><rect
           id="SVGID_3_"
           width="1000"
           height="550" /></defs><clipPath
         id="SVGID_4_"><use
           xlink:href="#SVGID_3_"
           overflow="visible"
           id="use121" /></clipPath><g
         opacity="0.15"
         clip-path="url(#SVGID_4_)"
         id="g134"><g
           id="g132"><defs
             id="defs125"><rect
               id="SVGID_5_"
               x="403"
               y="425"
               width="141"
               height="34" /></defs><clipPath
             id="SVGID_6_"><use
               xlink:href="#SVGID_5_"
               overflow="visible"
               id="use127" /></clipPath><path
             clip-path="url(#SVGID_6_)"
             fill="#B380E0"
             d="M544,425H403v23.494c0,5.802,4.704,10.506,10.506,10.506h119.988      c5.802,0,10.506-4.704,10.506-10.506V425z"
             id="path130" /></g></g><g
         opacity="0.15"
         clip-path="url(#SVGID_4_)"
         id="g146"><g
           id="g144"><defs
             id="defs137"><rect
               id="SVGID_7_"
               x="403"
               y="321"
               width="141"
               height="34" /></defs><clipPath
             id="SVGID_8_"><use
               xlink:href="#SVGID_7_"
               overflow="visible"
               id="use139" /></clipPath><path
             clip-path="url(#SVGID_8_)"
             fill="#B380E0"
             d="M544,321H403v23.494c0,5.802,4.704,10.506,10.506,10.506h119.988      c5.802,0,10.506-4.704,10.506-10.506V321z"
             id="path142" /></g></g><g
         opacity="0.15"
         clip-path="url(#SVGID_4_)"
         id="g158"><g
           id="g156"><defs
             id="defs149"><rect
               id="SVGID_9_"
               x="403"
               y="159"
               width="141"
               height="34" /></defs><clipPath
             id="SVGID_10_"><use
               xlink:href="#SVGID_9_"
               overflow="visible"
               id="use151" /></clipPath><path
             clip-path="url(#SVGID_10_)"
             fill="#B380E0"
             d="M544,159H403v23.494c0,5.802,4.704,10.506,10.506,10.506h119.988      c5.802,0,10.506-4.704,10.506-10.506V159z"
             id="path154" /></g></g></g><line
       clip-path="url(#SVGID_2_)"
       fill="none"
       stroke="#000F5E"
       stroke-miterlimit="10"
       x1="589.824"
       y1="159.25"
       x2="370.047"
       y2="159.25"
       id="line162" /><polygon
       clip-path="url(#SVGID_2_)"
       fill="#000F5E"
       points="588.365,154.264 597,159.25 588.365,164.237  "
       id="polygon164" /><g
       clip-path="url(#SVGID_2_)"
       id="g208"><defs
         id="defs167"><rect
           id="SVGID_11_"
           width="1000"
           height="550" /></defs><clipPath
         id="SVGID_12_"><use
           xlink:href="#SVGID_11_"
           overflow="visible"
           id="use169" /></clipPath><path
         clip-path="url(#SVGID_12_)"
         fill="#FFFFFF"
         d="M370.26,155.49c-2.076,0-3.76,1.684-3.76,3.76c0,2.076,1.684,3.76,3.76,3.76    s3.76-1.684,3.76-3.76C374.02,157.174,372.336,155.49,370.26,155.49"
         id="path172" /><path
         clip-path="url(#SVGID_12_)"
         fill="#000F5E"
         d="M370.26,154.99c2.349,0,4.26,1.912,4.26,4.26c0,2.349-1.911,4.26-4.26,4.26    s-4.26-1.911-4.26-4.26C366,156.902,367.911,154.99,370.26,154.99S367.911,154.99,370.26,154.99 M370.26,162.51    c1.798,0,3.26-1.462,3.26-3.26c0-1.798-1.462-3.26-3.26-3.26s-3.26,1.462-3.26,3.26C367,161.048,368.462,162.51,370.26,162.51    S368.462,162.51,370.26,162.51"
         id="path174" /><polyline
         clip-path="url(#SVGID_12_)"
         fill="none"
         stroke="#005AB3"
         stroke-miterlimit="10"
         points="370.047,425 556,425 556,346       "
         id="polyline176" /><path
         clip-path="url(#SVGID_12_)"
         fill="#FFFFFF"
         d="M370.26,428.76c-2.076,0-3.76-1.684-3.76-3.76s1.684-3.76,3.76-3.76    s3.76,1.684,3.76,3.76S372.336,428.76,370.26,428.76"
         id="path178" /><path
         clip-path="url(#SVGID_12_)"
         fill="#005AB3"
         d="M370.26,429.26c2.349,0,4.26-1.911,4.26-4.26s-1.911-4.26-4.26-4.26    S366,422.651,366,425S367.911,429.26,370.26,429.26S367.911,429.26,370.26,429.26 M370.26,421.74c1.798,0,3.26,1.462,3.26,3.26    s-1.462,3.26-3.26,3.26S367,426.798,367,425S368.462,421.74,370.26,421.74S368.462,421.74,370.26,421.74"
         id="path180" /><line
         clip-path="url(#SVGID_12_)"
         fill="none"
         stroke="#6E177D"
         stroke-miterlimit="10"
         x1="589.824"
         y1="321.5"
         x2="370.047"
         y2="321.5"
         id="line182" /><polygon
         clip-path="url(#SVGID_12_)"
         fill="#6E177D"
         points="588.365,316.514 597,321.5 588.365,326.486   "
         id="polygon184" /><path
         clip-path="url(#SVGID_12_)"
         fill="#FFFFFF"
         d="M370.26,317.74c-2.076,0-3.76,1.684-3.76,3.76s1.684,3.76,3.76,3.76    s3.76-1.684,3.76-3.76S372.336,317.74,370.26,317.74"
         id="path186" /><path
         clip-path="url(#SVGID_12_)"
         fill="#6E177D"
         d="M370.26,317.24c2.349,0,4.26,1.911,4.26,4.26s-1.911,4.26-4.26,4.26    s-4.26-1.911-4.26-4.26S367.911,317.24,370.26,317.24S367.911,317.24,370.26,317.24 M370.26,324.76c1.798,0,3.26-1.462,3.26-3.26    s-1.462-3.26-3.26-3.26s-3.26,1.462-3.26,3.26S368.462,324.76,370.26,324.76S368.462,324.76,370.26,324.76"
         id="path188" /><polyline
         clip-path="url(#SVGID_12_)"
         fill="none"
         stroke="#005AB3"
         stroke-miterlimit="10"
         points="589.824,245 556,245 556,347       "
         id="polyline190" /><polygon
         clip-path="url(#SVGID_12_)"
         fill="#005AB3"
         points="588.365,240.014 597,245 588.365,249.987   "
         id="polygon192" /><path
         clip-path="url(#SVGID_12_)"
         fill="#001689"
         d="M858.206,388.708c11.25,0,19.375,2.084,22.083,3.542    c-2.708,1.458-10.208,3.333-22.083,3.333c-11.667,0-18.959-2.083-21.459-3.333C839.039,390.792,846.539,388.708,858.206,388.708     M858.206,386c-14.167,0-24.792,2.917-24.792,6.25s10.625,6.25,24.792,6.25c14.166,0,25.208-2.917,25.208-6.25    S872.164,386,858.206,386 M857.875,423.5c-9.375,0-25-1.458-25-6.667V411h2.083v6.042c0,1.041,7.003,4.166,22.917,4.166    c15.064,0,22.917-2.916,22.917-4.166V411h2.083v6.042C882.875,422.042,867.25,423.5,857.875,423.5 M857.875,436    c-9.375,0-25-1.458-25-6.667V423.5h2.083v5.833c0,1.042,7.003,4.167,22.917,4.167c15.064,0,22.917-2.917,22.917-4.167V423.5h2.083    v5.833C882.875,434.542,867.25,436,857.875,436 M857.875,411c-9.167,0-25-1.458-25-6.667V398.5h2.083v5.833    c0,1.042,7.003,4.167,22.917,4.167s22.917-2.917,22.917-4.167V398.5h2.083v5.833C882.875,409.542,867.25,411,857.875,411"
         id="path194" /><rect
         x="667"
         y="387"
         clip-path="url(#SVGID_12_)"
         fill="#FFFFFF"
         width="60"
         height="48"
         id="rect196" /><path
         clip-path="url(#SVGID_12_)"
         fill="#D75193"
         d="M689.211,422.357c-1.96-1.948-3.059-4.601-3.051-7.364    c0-5.744,4.673-10.417,10.416-10.417c5.744,0,10.417,4.673,10.417,10.417c0.008,2.764-1.093,5.416-3.053,7.364l2.947,2.947    c2.755-2.754,4.272-6.416,4.272-10.312c0-8.041-6.543-14.583-14.584-14.583s-14.583,6.542-14.583,14.583    c0,3.896,1.517,7.558,4.272,10.312L689.211,422.357z"
         id="path198" /><polygon
         clip-path="url(#SVGID_12_)"
         fill="#D75193"
         points="694.493,429.75 698.66,429.75 696.576,411   "
         id="polygon200" /><path
         clip-path="url(#SVGID_12_)"
         fill="#A71C71"
         d="M665.5,436H728v-50h-62.5V436z M725.917,433.917h-58.334v-37.5h58.334    V433.917z"
         id="path202" /><rect
         x="668"
         y="165.5"
         clip-path="url(#SVGID_12_)"
         fill="#FFFFFF"
         width="70"
         height="45"
         id="rect204" /><path
         clip-path="url(#SVGID_12_)"
         fill="#000F5E"
         d="M665.5,213h75v-60h-75V213z M738,210.5h-70v-45h70V210.5z"
         id="path206" /></g><g
       clip-path="url(#SVGID_2_)"
       id="g236"><defs
         id="defs211"><rect
           id="SVGID_13_"
           x="692.551"
           y="171.125"
           width="20.507"
           height="31.25" /></defs><clipPath
         id="SVGID_14_"><use
           xlink:href="#SVGID_13_"
           overflow="visible"
           id="use213" /></clipPath><path
         clip-path="url(#SVGID_14_)"
         fill="#0A4169"
         d="M707.834,182.208c-0.537,0.245-0.928,0.831-0.977,1.417l2.686,1.562    l-6.738,4.004l-6.738-4.053l2.539-1.464c-0.049-0.586-0.44-1.123-0.929-1.368l-5.127,2.881v11.328l10.255,5.86l10.254-6.104    v-11.133L707.834,182.208z M701.828,199.982l-7.325-4.541v-9.277l7.325,4.541V199.982z M711.105,195.148l-7.324,4.687v-9.277    l7.324-4.541V195.148z"
         id="path216" /><path
         clip-path="url(#SVGID_14_)"
         fill="#0A4169"
         d="M707.104,181.77l-1.855-1.026c-0.048,0.586-0.292,1.123-0.634,1.563    l1.562,0.928C706.275,182.6,706.617,182.111,707.104,181.77"
         id="path218" /><path
         clip-path="url(#SVGID_14_)"
         fill="#0A4169"
         d="M700.852,180.5v0.098c0,0.585,0.244,1.074,0.634,1.366l1.222-0.683    l1.024,0.586c0.343-0.293,0.537-0.732,0.537-1.269c0-0.098,0-0.245-0.048-0.343l-1.465-0.829L700.852,180.5z M699.438,183.234    l1.515-0.879c-0.392-0.391-0.636-0.879-0.733-1.416l-1.611,0.928C698.999,182.208,699.293,182.697,699.438,183.234"
         id="path220" /><path
         clip-path="url(#SVGID_14_)"
         fill="#07AED1"
         d="M702.71,186.652c0.944,0,1.709,0.765,1.709,1.709s-0.765,1.709-1.709,1.709    c-0.943,0-1.709-0.765-1.709-1.709S701.767,186.652,702.71,186.652"
         id="path222" /><path
         clip-path="url(#SVGID_14_)"
         fill="#87C632"
         d="M702.71,171.125c0.944,0,1.709,0.765,1.709,1.709s-0.765,1.709-1.709,1.709    c-0.943,0-1.709-0.765-1.709-1.709S701.767,171.125,702.71,171.125"
         id="path224" /><path
         clip-path="url(#SVGID_14_)"
         fill="#87C632"
         d="M708.618,182.063c0.944,0,1.709,0.765,1.709,1.709s-0.765,1.709-1.709,1.709    c-0.943,0-1.709-0.765-1.709-1.709S707.675,182.063,708.618,182.063"
         id="path226" /><path
         clip-path="url(#SVGID_14_)"
         fill="#87C632"
         d="M696.948,182.063c0.944,0,1.709,0.765,1.709,1.709s-0.765,1.709-1.709,1.709    c-0.943,0-1.709-0.765-1.709-1.709S696.005,182.063,696.948,182.063"
         id="path228" /><path
         clip-path="url(#SVGID_14_)"
         fill="#07AED1"
         d="M708.618,174.299c0.944,0,1.709,0.765,1.709,1.709s-0.765,1.709-1.709,1.709    c-0.943,0-1.709-0.765-1.709-1.709S707.675,174.299,708.618,174.299"
         id="path230" /><path
         clip-path="url(#SVGID_14_)"
         fill="#07AED1"
         d="M697.095,174.494c0.944,0,1.709,0.765,1.709,1.709s-0.765,1.709-1.709,1.709    c-0.943,0-1.709-0.765-1.709-1.709S696.151,174.494,697.095,174.494"
         id="path232" /><path
         clip-path="url(#SVGID_14_)"
         fill="#87C632"
         d="M702.71,178.889c-0.879,0-1.709,0.683-1.709,1.709    c0,1.025,0.684,1.709,1.709,1.709c1.026,0,1.709-0.684,1.709-1.709C704.419,179.572,703.736,178.889,702.71,178.889"
         id="path234" /></g><g
       clip-path="url(#SVGID_2_)"
       id="g256"><defs
         id="defs239"><rect
           id="SVGID_15_"
           width="1000"
           height="550" /></defs><clipPath
         id="SVGID_16_"><use
           xlink:href="#SVGID_15_"
           overflow="visible"
           id="use241" /></clipPath><rect
         x="410"
         y="410"
         clip-path="url(#SVGID_16_)"
         fill="#FFFFFF"
         width="24"
         height="20"
         id="rect244" /><polygon
         clip-path="url(#SVGID_16_)"
         fill="#003BC9"
         points="426.063,418.609 429.64,422.187 430.818,421.008 426.063,416.252     417.729,424.585 414.152,421.008 412.973,422.187 417.729,426.942   "
         id="polygon246" /><path
         clip-path="url(#SVGID_16_)"
         fill="#003BC9"
         d="M409.5,430h25v-20h-25V430z M433.667,429.167h-23.334v-15h23.334V429.167z"
         id="path248" /><rect
         x="409"
         y="306"
         clip-path="url(#SVGID_16_)"
         fill="#FFFFFF"
         width="24"
         height="20"
         id="rect250" /><polygon
         clip-path="url(#SVGID_16_)"
         fill="#272727"
         points="414.09,322.423 418.845,317.667 414.09,312.911 412.91,314.09     416.488,317.667 412.91,321.244   "
         id="polygon252" /><path
         clip-path="url(#SVGID_16_)"
         fill="#272727"
         d="M408.5,326h25v-20h-25V326z M432.667,325.167h-23.334v-15h23.334V325.167z"
         id="path254" /></g><g
       clip-path="url(#SVGID_2_)"
       id="g272"><defs
         id="defs259"><rect
           id="SVGID_17_"
           x="408.724"
           y="142.326"
           transform="matrix(-0.7071 -0.7071 0.7071 -0.7071 611.5617 565.9841)"
           width="28.553"
           height="28.015" /></defs><clipPath
         id="SVGID_18_"><use
           xlink:href="#SVGID_17_"
           overflow="visible"
           id="use261" /></clipPath><path
         clip-path="url(#SVGID_18_)"
         fill="#CBA9E6"
         d="M441.229,157.501l-3.365-3.622l-0.014,0.255l-0.067-0.067v-0.285h-13.469    v0.157h-2.374c-0.352-0.661-0.808-1.284-1.368-1.844c-2.945-2.946-7.636-3.031-10.476-0.191c-2.84,2.84-2.755,7.531,0.19,10.476    c2.946,2.946,7.636,3.031,10.477,0.191c0.621-0.622,1.094-1.335,1.436-2.096h3.707v-0.761l1.929-0.001v0.729l9.66,0.001    l-0.015,0.28l0.325-0.281l0.267,0.001v-0.229L441.229,157.501z"
         id="path264" /><path
         clip-path="url(#SVGID_18_)"
         fill="#6E177D"
         d="M438.428,153.476h-15.731c-0.366-0.684-0.835-1.328-1.412-1.905    c-3.29-3.29-8.71-3.15-11.819,0.42c-2.624,3.011-2.624,7.577,0,10.59c3.108,3.569,8.529,3.709,11.819,0.419    c0.577-0.577,1.046-1.221,1.412-1.905h3.033l1.27-1.27l1.27,1.27h10.158l3.81-3.81L438.428,153.476z M438.056,160.197h-9.414    l-1.007-1.007L427,158.555l-0.635,0.635l-1.007,1.007h-2.661h-0.539l-0.253,0.475c-0.334,0.625-0.756,1.194-1.255,1.693    c-2.921,2.921-7.752,2.795-10.509-0.376c-2.327-2.678-2.327-6.731,0.001-9.408c2.757-3.171,7.588-3.296,10.509-0.375    c0.498,0.498,0.92,1.068,1.254,1.693l0.253,0.474h0.538h15.36l2.912,2.912L438.056,160.197z"
         id="path266" /><path
         clip-path="url(#SVGID_18_)"
         fill="#6E177D"
         d="M414.225,156.001c0.701,0.701,0.701,1.838,0,2.539    c-0.701,0.702-1.838,0.702-2.539,0c-0.702-0.701-0.702-1.838-0.001-2.539C412.387,155.299,413.522,155.299,414.225,156.001"
         id="path268" /><rect
         x="429.462"
         y="156.822"
         clip-path="url(#SVGID_18_)"
         fill="#6E177D"
         width="7.619"
         height="0.898"
         id="rect270" /></g><g
       clip-path="url(#SVGID_2_)"
       id="g288"><defs
         id="defs275"><rect
           id="SVGID_19_"
           width="1000"
           height="550" /></defs><clipPath
         id="SVGID_20_"><use
           xlink:href="#SVGID_19_"
           overflow="visible"
           id="use277" /></clipPath><path
         clip-path="url(#SVGID_20_)"
         fill="#005AB3"
         d="M112.908,424.922c5.9,0,10.682-4.782,10.682-10.683    s-4.782-10.683-10.682-10.683c-5.901,0-10.683,4.782-10.683,10.683S107.007,424.922,112.908,424.922 M112.908,405.693    c4.712,0,8.546,3.834,8.546,8.546s-3.834,8.546-8.546,8.546s-8.546-3.834-8.546-8.546S108.196,405.693,112.908,405.693     M136.409,414.239c0,5.9,4.782,10.683,10.683,10.683c5.9,0,10.682-4.782,10.682-10.683s-4.782-10.683-10.682-10.683    C141.191,403.557,136.409,408.339,136.409,414.239 M147.092,405.693c4.712,0,8.546,3.834,8.546,8.546s-3.834,8.546-8.546,8.546    s-8.546-3.834-8.546-8.546S142.38,405.693,147.092,405.693 M140.682,390.738c0-5.9-4.782-10.683-10.682-10.683    c-5.901,0-10.683,4.782-10.683,10.683s4.782,10.683,10.683,10.683C135.9,401.421,140.682,396.639,140.682,390.738 M130,399.284    c-4.712,0-8.546-3.834-8.546-8.546s3.834-8.546,8.546-8.546c4.712,0,8.546,3.834,8.546,8.546S134.712,399.284,130,399.284     M121.454,429.373h-17.092c-2.36,0-4.273,1.913-4.273,4.273v6.409h25.638v-6.409C125.727,431.286,123.814,429.373,121.454,429.373     M155.638,429.373h-17.092c-2.36,0-4.273,1.913-4.273,4.273v6.409h25.638v-6.409C159.911,431.286,157.998,429.373,155.638,429.373    "
         id="path280" /><path
         clip-path="url(#SVGID_20_)"
         fill="#6E177D"
         d="M112.908,312.922c5.9,0,10.682-4.782,10.682-10.682    c0-5.901-4.782-10.684-10.682-10.684c-5.901,0-10.683,4.782-10.683,10.684C102.225,308.14,107.007,312.922,112.908,312.922     M112.908,293.693c4.712,0,8.546,3.834,8.546,8.547c0,4.712-3.834,8.546-8.546,8.546s-8.546-3.834-8.546-8.546    C104.362,297.527,108.196,293.693,112.908,293.693 M136.409,302.24c0,5.899,4.782,10.682,10.683,10.682    c5.9,0,10.682-4.782,10.682-10.682c0-5.901-4.782-10.684-10.682-10.684C141.191,291.557,136.409,296.339,136.409,302.24     M147.092,293.693c4.712,0,8.546,3.834,8.546,8.547c0,4.712-3.834,8.546-8.546,8.546s-8.546-3.834-8.546-8.546    C138.546,297.527,142.38,293.693,147.092,293.693 M140.682,278.738c0-5.901-4.782-10.682-10.682-10.682    c-5.901,0-10.683,4.781-10.683,10.682c0,5.9,4.782,10.682,10.683,10.682C135.9,289.42,140.682,284.639,140.682,278.738     M130,287.284c-4.712,0-8.546-3.834-8.546-8.546c0-4.712,3.834-8.546,8.546-8.546c4.712,0,8.546,3.834,8.546,8.546    C138.546,283.45,134.712,287.284,130,287.284 M121.454,317.373h-17.092c-2.36,0-4.273,1.913-4.273,4.273v6.409h25.638v-6.409    C125.727,319.286,123.814,317.373,121.454,317.373 M155.638,317.373h-17.092c-2.36,0-4.273,1.913-4.273,4.273v6.409h25.638v-6.409    C159.911,319.286,157.998,317.373,155.638,317.373"
         id="path282" /><path
         clip-path="url(#SVGID_20_)"
         fill="#000F5E"
         d="M130.239,191.092c11.057,0,20.018-8.961,20.018-20.018    c0-11.057-8.961-20.019-20.018-20.019c-11.057,0-20.019,8.962-20.019,20.019C110.22,182.131,119.182,191.092,130.239,191.092     M130.239,153.058c9.934,0,18.016,8.082,18.016,18.017c0,9.934-8.082,18.016-18.016,18.016c-9.935,0-18.017-8.082-18.017-18.016    C112.222,161.14,120.304,153.058,130.239,153.058 M146.015,195.041h-32.029c-4.423,0-8.008,3.585-8.008,8.008v8.007h48.045v-8.007    C154.022,198.625,150.437,195.041,146.015,195.041"
         id="path284" /><polygon
         clip-path="url(#SVGID_20_)"
         fill="#000F5E"
         points="140.662,166.484 137.831,163.652 127.235,174.249 122.645,169.658     119.814,172.489 127.235,179.911   "
         id="polygon286" /></g><g
       clip-path="url(#SVGID_2_)"
       id="g292"><text
         transform="translate(625.7168,334.376)"
         font-size="12"
         id="text290"
         style="font-size:12px;font-family:IBMPlexSans-SemiBold">Applicazione o servizio</text>
</g><g
       clip-path="url(#SVGID_2_)"
       id="g312"><text
         transform="translate(764.7168,197.605)"
         id="text310"><tspan
           x="0"
           y="0"
           font-size="11"
           id="tspan294"
           style="font-size:11px;font-family:IBMPlexSans">IU Key Protect</tspan></text>
</g><g
       clip-path="url(#SVGID_2_)"
       id="g322"><text
         transform="translate(764.7168,210.8052)"
         id="text320"><tspan
           x="0"
           y="0"
           font-size="11"
           id="tspan314"
           style="font-size:11px;font-family:IBMPlexSans">o API REST</tspan></text>
</g><g
       clip-path="url(#SVGID_2_)"
       id="g342"><text
         transform="matrix(1 0 0 1 625.7168 107.3755)"
         id="text340"><tspan
           x="0"
           y="0"
           font-family="'IBMPlexSans-SemiBold'"
           font-size="12"
           id="tspan324">K</tspan><tspan
           x="6.216"
           y="0"
           font-family="'IBMPlexSans-SemiBold'"
           font-size="12"
           id="tspan326">e</tspan><tspan
           x="12.155"
           y="0"
           font-family="'IBMPlexSans-SemiBold'"
           font-size="12"
           id="tspan328">y </tspan><tspan
           x="20.352"
           y="0"
           font-family="'IBMPlexSans-SemiBold'"
           font-size="12"
           id="tspan330">P</tspan><tspan
           x="26.628"
           y="0"
           font-family="'IBMPlexSans-SemiBold'"
           font-size="12"
           id="tspan332">r</tspan><tspan
           x="30.504"
           y="0"
           font-family="'IBMPlexSans-SemiBold'"
           font-size="12"
           id="tspan334">o</tspan><tspan
           x="37.056"
           y="0"
           font-family="'IBMPlexSans-SemiBold'"
           font-size="12"
           id="tspan336">t</tspan><tspan
           x="40.979"
           y="0"
           font-family="'IBMPlexSans-SemiBold'"
           font-size="12"
           id="tspan338">ect</tspan></text>
</g><g
       clip-path="url(#SVGID_2_)"
       id="g352"><text
         transform="matrix(1 0 0 1 421.6123 447.3984)"
         id="text350"><tspan
           x="0"
           y="0"
           font-family="'IBMPlexSans'"
           font-size="11"
           id="tspan344">Moni</tspan><tspan
           x="23.562"
           y="0"
           font-family="'IBMPlexSans'"
           font-size="11"
           id="tspan346">t</tspan><tspan
           x="27.169"
           y="0"
           font-family="'IBMPlexSans'"
           font-size="11"
           id="tspan348">orano l’attività</tspan></text>
</g><g
       clip-path="url(#SVGID_2_)"
       id="g356"><text
         transform="matrix(1 0 0 1 421.6123 343.3936)"
         font-family="'IBMPlexSans'"
         font-size="11"
         id="text354">Distribuiscono le chiavi</text>
</g><g
       clip-path="url(#SVGID_2_)"
       id="g366"><text
         transform="matrix(1 0 0 1 421.6123 181.3965)"
         id="text364"><tspan
           x="0"
           y="0"
           font-family="'IBMPlexSans'"
           font-size="11"
           id="tspan358">C</tspan><tspan
           x="6.38"
           y="0"
           font-family="'IBMPlexSans'"
           font-size="11"
           id="tspan360">r</tspan><tspan
           x="9.933"
           y="0"
           font-family="'IBMPlexSans'"
           font-size="11"
           id="tspan362">eano le chiavi</tspan></text>
</g><g
       clip-path="url(#SVGID_2_)"
       id="g370"
       transform="translate(-6)"><text
         transform="translate(173.9473,410.9551)"
         font-size="11"
         id="text368"
         style="font-size:11px;font-family:IBMPlexSans-SemiBold">Lettori</text>
</g><g
       clip-path="url(#SVGID_2_)"
       id="g374"><text
         transform="matrix(1 0 0 1 205.9233 410.9551)"
         font-family="'IBMPlexSans'"
         font-size="11"
         id="text372"> ispezionano l’utilizzo della chiavi</text>
</g><g
       clip-path="url(#SVGID_2_)"
       id="g378"><text
         transform="matrix(1 0 0 1 173.9473 424.1553)"
         font-family="'IBMPlexSans'"
         font-size="11"
         id="text376">e identificano le attività</text>
</g><g
       clip-path="url(#SVGID_2_)"
       id="g382"><text
         transform="matrix(1 0 0 1 173.9473 437.3555)"
         font-family="'IBMPlexSans'"
         font-size="11"
         id="text380">sospette</text>
</g><g
       clip-path="url(#SVGID_2_)"
       id="g386"><text
         transform="matrix(1 0 0 1 173.9473 298.9531)"
         font-family="'IBMPlexSans-SemiBold'"
         font-size="11"
         id="text384">Scrittori</text>
</g><g
       clip-path="url(#SVGID_2_)"
       id="g390"><text
         transform="translate(211.6553,298.9531)"
         font-size="11"
         id="text388"
         style="font-size:11px;font-family:IBMPlexSans">   forniscono l’applicazione o il </text>
</g><g
       clip-path="url(#SVGID_2_)"
       id="g394"><text
         transform="matrix(1 0 0 1 173.9473 312.1533)"
         font-size="11"
         id="text392"
         font-family="'IBMPlexSans'">servizio che utilizza la chiave e forniscono</text>
</g><g
       clip-path="url(#SVGID_2_)"
       id="g416"><text
         id="text414"
         x="173.9473"
         y="325.35349"><tspan
           x="173.9473"
           y="325.35349"
           font-size="11"
           id="tspan396"
           style="font-size:11px;font-family:IBMPlexSans">gli ID della chiave da Key Protect</tspan></text>
</g><g
       clip-path="url(#SVGID_2_)"
       id="g420"><text
         font-size="11"
         id="text418"
         x="169.9473"
         y="195.1572"
         style="font-size:11px;font-family:IBMPlexSans-SemiBold">Gestori</text>
</g><g
       clip-path="url(#SVGID_2_)"
       id="g430"><text
         transform="translate(208.5806,195.1572)"
         id="text428"><tspan
           x="0"
           y="0"
           font-size="11"
           id="tspan422"
           style="font-size:11px;font-family:IBMPlexSans"> c</tspan><tspan
           x="7.2600002"
           y="0"
           font-size="11"
           id="tspan424"
           style="font-size:11px;font-family:IBMPlexSans">r</tspan><tspan
           x="10.813"
           y="0"
           font-size="11"
           id="tspan426"
           style="font-size:11px;font-family:IBMPlexSans">eano le chiavi simmetriche</tspan></text>
</g><g
       clip-path="url(#SVGID_2_)"
       id="g452"><text
         transform="matrix(1 0 0 1 173.9473 208.3574)"
         id="text450"><tspan
           x="0"
           y="0"
           font-family="'IBMPlexSans'"
           font-size="11"
           id="tspan432">in </tspan><tspan
           x="11.011"
           y="0"
           font-family="'IBMPlexSans'"
           font-size="11"
           id="tspan434">K</tspan><tspan
           x="16.708"
           y="0"
           font-family="'IBMPlexSans'"
           font-size="11"
           id="tspan436">e</tspan><tspan
           x="22.165"
           y="0"
           font-family="'IBMPlexSans'"
           font-size="11"
           id="tspan438">y </tspan><tspan
           x="29.678"
           y="0"
           font-family="'IBMPlexSans'"
           font-size="11"
           id="tspan440">P</tspan><tspan
           x="35.419"
           y="0"
           font-family="'IBMPlexSans'"
           font-size="11"
           id="tspan442">r</tspan><tspan
           x="38.973"
           y="0"
           font-family="'IBMPlexSans'"
           font-size="11"
           id="tspan444">o</tspan><tspan
           x="45.012"
           y="0"
           font-family="'IBMPlexSans'"
           font-size="11"
           id="tspan446">t</tspan><tspan
           x="48.609"
           y="0"
           font-family="'IBMPlexSans'"
           font-size="11"
           id="tspan448">ect</tspan></text>
</g><g
       clip-path="url(#SVGID_2_)"
       id="g456"><text
         transform="matrix(1 0 0 1 70.7173 107.3755)"
         font-family="'IBMPlexSans-SemiBold'"
         font-size="12"
         id="text454">Ruoli Cloud IAM</text>
</g><g
       clip-path="url(#SVGID_2_)"
       id="g460"><text
         transform="matrix(1 0 0 1 49 63)"
         fill="#272727"
         font-family="'IBMPlexSans-Bold'"
         font-size="16"
         id="text458">Gestione dell’accesso alle chiavi</text>
</g></g></svg>
