<svg xmlns="http://www.w3.org/2000/svg" xmlns:xlink="http://www.w3.org/1999/xlink" width="1000" height="550"><defs><path id="a" d="M0 0h1000v550H0z"/></defs><clipPath id="b"><use xlink:href="#a" overflow="visible"/></clipPath><path clip-path="url(#b)" fill="#FFF" d="M49.5 83.5h345v412h-345z"/><path clip-path="url(#b)" fill="none" stroke="#D8D8D8" stroke-miterlimit="10" d="M394.5 494v1.5H393"/><path clip-path="url(#b)" fill="none" stroke="#D8D8D8" stroke-miterlimit="10" stroke-dasharray="3,2" d="M391 495.5H52"/><path clip-path="url(#b)" fill="none" stroke="#D8D8D8" stroke-miterlimit="10" d="M51 495.5h-1.5V494"/><path clip-path="url(#b)" fill="none" stroke="#D8D8D8" stroke-miterlimit="10" stroke-dasharray="3.015,2.01" d="M49.5 491.99V86.005"/><path clip-path="url(#b)" fill="none" stroke="#D8D8D8" stroke-miterlimit="10" d="M49.5 85v-1.5H51"/><path clip-path="url(#b)" fill="none" stroke="#D8D8D8" stroke-miterlimit="10" stroke-dasharray="3,2" d="M53 83.5h339"/><path clip-path="url(#b)" fill="none" stroke="#D8D8D8" stroke-miterlimit="10" d="M393 83.5h1.5V85"/><path clip-path="url(#b)" fill="none" stroke="#D8D8D8" stroke-miterlimit="10" stroke-dasharray="3.015,2.01" d="M394.5 87.01v405.985"/><path clip-path="url(#b)" fill="#FFF" d="M603.5 83.5h345v185h-345z"/><path clip-path="url(#b)" fill="none" stroke="#D8D8D8" stroke-miterlimit="10" d="M948.5 267v1.5H947"/><path clip-path="url(#b)" fill="none" stroke="#D8D8D8" stroke-miterlimit="10" stroke-dasharray="3,2" d="M945 268.5H606"/><path clip-path="url(#b)" fill="none" stroke="#D8D8D8" stroke-miterlimit="10" d="M605 268.5h-1.5V267"/><path clip-path="url(#b)" fill="none" stroke="#D8D8D8" stroke-miterlimit="10" stroke-dasharray="3,2" d="M603.5 265V86"/><path clip-path="url(#b)" fill="none" stroke="#D8D8D8" stroke-miterlimit="10" d="M603.5 85v-1.5h1.5"/><path clip-path="url(#b)" fill="none" stroke="#D8D8D8" stroke-miterlimit="10" stroke-dasharray="3,2" d="M607 83.5h339"/><path clip-path="url(#b)" fill="none" stroke="#D8D8D8" stroke-miterlimit="10" d="M947 83.5h1.5V85"/><path clip-path="url(#b)" fill="none" stroke="#D8D8D8" stroke-miterlimit="10" stroke-dasharray="3,2" d="M948.5 87v179"/><path clip-path="url(#b)" fill="#F8F4F2" d="M626.5 120.5h298v121h-298z"/><path clip-path="url(#b)" fill="none" stroke="#000F5E" stroke-miterlimit="10" d="M923 120.5h1.5v1.5"/><path clip-path="url(#b)" fill="none" stroke="#000F5E" stroke-miterlimit="10" stroke-dasharray="3.026,2.017" d="M924.5 124.017v114.974"/><path clip-path="url(#b)" fill="none" stroke="#000F5E" stroke-miterlimit="10" d="M924.5 240v1.5H923"/><path clip-path="url(#b)" fill="none" stroke="#000F5E" stroke-miterlimit="10" stroke-dasharray="2.98,1.987" d="M921.014 241.5H628.992"/><path clip-path="url(#b)" fill="none" stroke="#000F5E" stroke-miterlimit="10" d="M628 241.5h-1.5V240"/><path clip-path="url(#b)" fill="none" stroke="#000F5E" stroke-miterlimit="10" stroke-dasharray="3.026,2.017" d="M626.5 237.983V123.009"/><path clip-path="url(#b)" fill="none" stroke="#000F5E" stroke-miterlimit="10" d="M626.5 122v-1.5h1.5"/><path clip-path="url(#b)" fill="none" stroke="#000F5E" stroke-miterlimit="10" stroke-dasharray="2.98,1.987" d="M629.986 120.5h292.022"/><path clip-path="url(#b)" fill="#F4F4F4" d="M70.5 120.5h300v347h-300z"/><path clip-path="url(#b)" fill="none" stroke="#000F5E" stroke-miterlimit="10" d="M370.5 466v1.5H369"/><path clip-path="url(#b)" fill="none" stroke="#000F5E" stroke-miterlimit="10" stroke-dasharray="3,2" d="M367 467.5H73"/><path clip-path="url(#b)" fill="none" stroke="#000F5E" stroke-miterlimit="10" d="M72 467.5h-1.5V466"/><path clip-path="url(#b)" fill="none" stroke="#000F5E" stroke-miterlimit="10" stroke-dasharray="3.018,2.012" d="M70.5 463.988V123.006"/><path clip-path="url(#b)" fill="none" stroke="#000F5E" stroke-miterlimit="10" d="M70.5 122v-1.5H72"/><path clip-path="url(#b)" fill="none" stroke="#000F5E" stroke-miterlimit="10" stroke-dasharray="3,2" d="M74 120.5h294"/><path clip-path="url(#b)" fill="none" stroke="#000F5E" stroke-miterlimit="10" d="M369 120.5h1.5v1.5"/><path clip-path="url(#b)" fill="none" stroke="#000F5E" stroke-miterlimit="10" stroke-dasharray="3.018,2.012" d="M370.5 124.012v340.982"/><path clip-path="url(#b)" fill="#FFF" d="M603.5 310.5h345v185h-345z"/><path clip-path="url(#b)" fill="none" stroke="#D8D8D8" stroke-miterlimit="10" d="M948.5 494v1.5H947"/><path clip-path="url(#b)" fill="none" stroke="#D8D8D8" stroke-miterlimit="10" stroke-dasharray="3,2" d="M945 495.5H606"/><path clip-path="url(#b)" fill="none" stroke="#D8D8D8" stroke-miterlimit="10" d="M605 495.5h-1.5V494"/><path clip-path="url(#b)" fill="none" stroke="#D8D8D8" stroke-miterlimit="10" stroke-dasharray="3,2" d="M603.5 492V313"/><path clip-path="url(#b)" fill="none" stroke="#D8D8D8" stroke-miterlimit="10" d="M603.5 312v-1.5h1.5"/><path clip-path="url(#b)" fill="none" stroke="#D8D8D8" stroke-miterlimit="10" stroke-dasharray="3,2" d="M607 310.5h339"/><path clip-path="url(#b)" fill="none" stroke="#D8D8D8" stroke-miterlimit="10" d="M947 310.5h1.5v1.5"/><path clip-path="url(#b)" fill="none" stroke="#D8D8D8" stroke-miterlimit="10" stroke-dasharray="3,2" d="M948.5 314v179"/><path clip-path="url(#b)" fill="#EDF5FF" d="M626.5 347.5h298v120h-298z"/><path clip-path="url(#b)" fill="none" stroke="#000F5E" stroke-miterlimit="10" stroke-dasharray="3,2" d="M626.5 347.5h298v120h-298z"/><path clip-path="url(#b)" fill="none" stroke="#6E177D" stroke-miterlimit="10" d="M789 241.5v.5"/><path clip-path="url(#b)" fill="none" stroke="#6E177D" stroke-miterlimit="10" stroke-dasharray="0.997,0.997" d="M789 242.997v59.328"/><path clip-path="url(#b)" fill="none" stroke="#6E177D" stroke-miterlimit="10" d="M789 302.823v.5"/><path clip-path="url(#b)" fill="#6E177D" d="M784.014 301.864L789 310.5l4.986-8.636z"/><path clip-path="url(#b)" fill="none" stroke="#6E177D" stroke-miterlimit="10" d="M758 248.676V310.5"/><path clip-path="url(#b)" fill="#6E177D" d="M753.014 250.135L758 241.5l4.986 8.635z"/><path clip-path="url(#b)" fill="#8747B8" d="M795.629 409.363v-3.635h-5.454v3.635h-3.637v-3.635h-5.454v3.635h-23.637v10.909h40v-10.909z"/><path clip-path="url(#b)" fill="#8747B8" d="M775.629 396.637h-1.818V393h-5.454v3.637h-3.637V393h-5.454v3.637h-1.818v10.909h18.182v-10.909zm1.818 25.454h20V433h-20v-10.909zm-20 0h18.182V433h-18.182v-10.909z"/><g clip-path="url(#b)"><defs><path id="c" d="M0 0h1000v550H0z"/></defs><clipPath id="d"><use xlink:href="#c" overflow="visible"/></clipPath><g opacity=".15" clip-path="url(#d)"><defs><path id="e" d="M403 425h141v34H403z"/></defs><clipPath id="f"><use xlink:href="#e" overflow="visible"/></clipPath><path clip-path="url(#f)" fill="#B380E0" d="M544 425H403v23.494c0 5.802 4.704 10.506 10.506 10.506h119.988c5.802 0 10.506-4.704 10.506-10.506V425z"/></g><g opacity=".15" clip-path="url(#d)"><defs><path id="g" d="M403 321h141v34H403z"/></defs><clipPath id="h"><use xlink:href="#g" overflow="visible"/></clipPath><path clip-path="url(#h)" fill="#B380E0" d="M544 321H403v23.494c0 5.802 4.704 10.506 10.506 10.506h119.988c5.802 0 10.506-4.704 10.506-10.506V321z"/></g><g opacity=".15" clip-path="url(#d)"><defs><path id="i" d="M403 159h141v34H403z"/></defs><clipPath id="j"><use xlink:href="#i" overflow="visible"/></clipPath><path clip-path="url(#j)" fill="#B380E0" d="M544 159H403v23.494c0 5.802 4.704 10.506 10.506 10.506h119.988c5.802 0 10.506-4.704 10.506-10.506V159z"/></g></g><path clip-path="url(#b)" fill="none" stroke="#000F5E" stroke-miterlimit="10" d="M589.824 159.25H370.047"/><path clip-path="url(#b)" fill="#000F5E" d="M588.365 154.264L597 159.25l-8.635 4.987z"/><g clip-path="url(#b)"><defs><path id="k" d="M0 0h1000v550H0z"/></defs><clipPath id="l"><use xlink:href="#k" overflow="visible"/></clipPath><path clip-path="url(#l)" fill="#FFF" d="M370.26 155.49a3.76 3.76 0 1 0 .002 7.522 3.76 3.76 0 0 0-.002-7.522"/><path clip-path="url(#l)" fill="#000F5E" d="M370.26 154.99a4.265 4.265 0 0 1 4.26 4.26c0 2.349-1.911 4.26-4.26 4.26s-4.26-1.911-4.26-4.26c0-2.348 1.911-4.26 4.26-4.26s-2.349 0 0 0m0 7.52a3.263 3.263 0 0 0 3.26-3.26c0-1.798-1.462-3.26-3.26-3.26s-3.26 1.462-3.26 3.26c0 1.798 1.462 3.26 3.26 3.26s-1.798 0 0 0"/><path clip-path="url(#l)" fill="none" stroke="#005AB3" stroke-miterlimit="10" d="M370.047 425H556v-79"/><path clip-path="url(#l)" fill="#FFF" d="M370.26 428.76a3.76 3.76 0 1 1 .002-7.522 3.76 3.76 0 0 1-.002 7.522"/><path clip-path="url(#l)" fill="#005AB3" d="M370.26 429.26c2.349 0 4.26-1.911 4.26-4.26s-1.911-4.26-4.26-4.26S366 422.651 366 425s1.911 4.26 4.26 4.26-2.349 0 0 0m0-7.52c1.798 0 3.26 1.462 3.26 3.26s-1.462 3.26-3.26 3.26S367 426.798 367 425s1.462-3.26 3.26-3.26-1.798 0 0 0"/><path clip-path="url(#l)" fill="none" stroke="#6E177D" stroke-miterlimit="10" d="M589.824 321.5H370.047"/><path clip-path="url(#l)" fill="#6E177D" d="M588.365 316.514L597 321.5l-8.635 4.986z"/><path clip-path="url(#l)" fill="#FFF" d="M370.26 317.74a3.76 3.76 0 1 0 .002 7.522 3.76 3.76 0 0 0-.002-7.522"/><path clip-path="url(#l)" fill="#6E177D" d="M370.26 317.24c2.349 0 4.26 1.911 4.26 4.26s-1.911 4.26-4.26 4.26-4.26-1.911-4.26-4.26 1.911-4.26 4.26-4.26-2.349 0 0 0m0 7.52c1.798 0 3.26-1.462 3.26-3.26s-1.462-3.26-3.26-3.26-3.26 1.462-3.26 3.26 1.462 3.26 3.26 3.26-1.798 0 0 0"/><path clip-path="url(#l)" fill="none" stroke="#005AB3" stroke-miterlimit="10" d="M589.824 245H556v102"/><path clip-path="url(#l)" fill="#005AB3" d="M588.365 240.014L597 245l-8.635 4.987z"/><path clip-path="url(#l)" fill="#001689" d="M858.206 388.708c11.25 0 19.375 2.084 22.083 3.542-2.708 1.458-10.208 3.333-22.083 3.333-11.667 0-18.959-2.083-21.459-3.333 2.292-1.458 9.792-3.542 21.459-3.542m0-2.708c-14.167 0-24.792 2.917-24.792 6.25s10.625 6.25 24.792 6.25c14.166 0 25.208-2.917 25.208-6.25s-11.25-6.25-25.208-6.25m-.331 37.5c-9.375 0-25-1.458-25-6.667V411h2.083v6.042c0 1.041 7.003 4.166 22.917 4.166 15.064 0 22.917-2.916 22.917-4.166V411h2.083v6.042c0 5-15.625 6.458-25 6.458m0 12.5c-9.375 0-25-1.458-25-6.667V423.5h2.083v5.833c0 1.042 7.003 4.167 22.917 4.167 15.064 0 22.917-2.917 22.917-4.167V423.5h2.083v5.833c0 5.209-15.625 6.667-25 6.667m0-25c-9.167 0-25-1.458-25-6.667V398.5h2.083v5.833c0 1.042 7.003 4.167 22.917 4.167s22.917-2.917 22.917-4.167V398.5h2.083v5.833c0 5.209-15.625 6.667-25 6.667"/><path clip-path="url(#l)" fill="#FFF" d="M667 387h60v48h-60z"/><path clip-path="url(#l)" fill="#D75193" d="M689.211 422.357a10.342 10.342 0 0 1-3.051-7.364c0-5.744 4.673-10.417 10.416-10.417 5.744 0 10.417 4.673 10.417 10.417a10.342 10.342 0 0 1-3.053 7.364l2.947 2.947a14.484 14.484 0 0 0 4.272-10.312c0-8.041-6.543-14.583-14.584-14.583s-14.583 6.542-14.583 14.583c0 3.896 1.517 7.558 4.272 10.312l2.947-2.947z"/><path clip-path="url(#l)" fill="#D75193" d="M694.493 429.75h4.167L696.576 411z"/><path clip-path="url(#l)" fill="#A71C71" d="M665.5 436H728v-50h-62.5v50zm60.417-2.083h-58.334v-37.5h58.334v37.5z"/><path clip-path="url(#l)" fill="#FFF" d="M668 165.5h70v45h-70z"/><path clip-path="url(#l)" fill="#000F5E" d="M665.5 213h75v-60h-75v60zm72.5-2.5h-70v-45h70v45z"/></g><g clip-path="url(#b)"><defs><path id="m" d="M692.551 171.125h20.507v31.25h-20.507z"/></defs><clipPath id="n"><use xlink:href="#m" overflow="visible"/></clipPath><path clip-path="url(#n)" fill="#0A4169" d="M707.834 182.208c-.537.245-.928.831-.977 1.417l2.686 1.562-6.738 4.004-6.738-4.053 2.539-1.464a1.744 1.744 0 0 0-.929-1.368l-5.127 2.881v11.328l10.255 5.86 10.254-6.104v-11.133l-5.225-2.93zm-6.006 17.774l-7.325-4.541v-9.277l7.325 4.541v9.277zm9.277-4.834l-7.324 4.687v-9.277l7.324-4.541v9.131z"/><path clip-path="url(#n)" fill="#0A4169" d="M707.104 181.77l-1.855-1.026a2.958 2.958 0 0 1-.634 1.563l1.562.928c.098-.635.44-1.124.927-1.465M700.852 180.5v.098c0 .585.244 1.074.634 1.366l1.222-.683 1.024.586c.343-.293.537-.732.537-1.269 0-.098 0-.245-.048-.343l-1.465-.829-1.904 1.074zm-1.414 2.734l1.515-.879a2.637 2.637 0 0 1-.733-1.416l-1.611.928c.39.341.684.83.829 1.367"/><path clip-path="url(#n)" fill="#07AED1" d="M702.71 186.652a1.709 1.709 0 1 1 0 3.418 1.709 1.709 0 0 1 0-3.418"/><path clip-path="url(#n)" fill="#87C632" d="M702.71 171.125a1.709 1.709 0 1 1 0 3.418 1.709 1.709 0 0 1 0-3.418M708.618 182.063a1.709 1.709 0 1 1 0 3.418 1.709 1.709 0 0 1 0-3.418M696.948 182.063a1.709 1.709 0 1 1 0 3.418 1.709 1.709 0 0 1 0-3.418"/><path clip-path="url(#n)" fill="#07AED1" d="M708.618 174.299a1.709 1.709 0 1 1 0 3.418 1.709 1.709 0 0 1 0-3.418M697.095 174.494a1.709 1.709 0 1 1 0 3.418 1.709 1.709 0 0 1 0-3.418"/><path clip-path="url(#n)" fill="#87C632" d="M702.71 178.889c-.879 0-1.709.683-1.709 1.709 0 1.025.684 1.709 1.709 1.709 1.026 0 1.709-.684 1.709-1.709 0-1.026-.683-1.709-1.709-1.709"/></g><g clip-path="url(#b)"><defs><path id="o" d="M0 0h1000v550H0z"/></defs><clipPath id="p"><use xlink:href="#o" overflow="visible"/></clipPath><path clip-path="url(#p)" fill="#FFF" d="M410 410h24v20h-24z"/><path clip-path="url(#p)" fill="#003BC9" d="M426.063 418.609l3.577 3.578 1.178-1.179-4.755-4.756-8.334 8.333-3.577-3.577-1.179 1.179 4.756 4.755z"/><path clip-path="url(#p)" fill="#003BC9" d="M409.5 430h25v-20h-25v20zm24.167-.833h-23.334v-15h23.334v15z"/><path clip-path="url(#p)" fill="#FFF" d="M409 306h24v20h-24z"/><path clip-path="url(#p)" fill="#272727" d="M414.09 322.423l4.755-4.756-4.755-4.756-1.18 1.179 3.578 3.577-3.578 3.577z"/><path clip-path="url(#p)" fill="#272727" d="M408.5 326h25v-20h-25v20zm24.167-.833h-23.334v-15h23.334v15z"/></g><g clip-path="url(#b)"><defs><path id="q" transform="rotate(-134.999 423.002 156.335)" d="M408.724 142.326h28.553v28.015h-28.553z"/></defs><clipPath id="r"><use xlink:href="#q" overflow="visible"/></clipPath><path clip-path="url(#r)" fill="#CBA9E6" d="M441.229 157.501l-3.365-3.622-.014.255-.067-.067v-.285h-13.469v.157h-2.374a7.775 7.775 0 0 0-1.368-1.844c-2.945-2.946-7.636-3.031-10.476-.191-2.84 2.84-2.755 7.531.19 10.476 2.946 2.946 7.636 3.031 10.477.191a7.027 7.027 0 0 0 1.436-2.096h3.707v-.761l1.929-.001v.729l9.66.001-.015.28.325-.281.267.001v-.229l3.157-2.713z"/><path clip-path="url(#r)" fill="#6E177D" d="M438.428 153.476h-15.731a8.079 8.079 0 0 0-13.231-1.485c-2.624 3.011-2.624 7.577 0 10.59a8.081 8.081 0 0 0 13.231-1.486h3.033l1.27-1.27 1.27 1.27h10.158l3.81-3.81-3.81-3.809zm-.372 6.721h-9.414l-1.007-1.007-.635-.635-.635.635-1.007 1.007h-3.2l-.253.475a7.17 7.17 0 0 1-1.255 1.693c-2.921 2.921-7.752 2.795-10.509-.376-2.327-2.678-2.327-6.731.001-9.408 2.757-3.171 7.588-3.296 10.509-.375.498.498.92 1.068 1.254 1.693l.253.474h15.898l2.912 2.912-2.912 2.912z"/><path clip-path="url(#r)" fill="#6E177D" d="M414.225 156.001a1.796 1.796 0 1 1-2.54 2.539 1.796 1.796 0 0 1 2.54-2.539M429.462 156.822h7.619v.898h-7.619z"/></g><g clip-path="url(#b)"><defs><path id="s" d="M0 0h1000v550H0z"/></defs><clipPath id="t"><use xlink:href="#s" overflow="visible"/></clipPath><path clip-path="url(#t)" fill="#005AB3" d="M112.908 424.922c5.9 0 10.682-4.782 10.682-10.683s-4.782-10.683-10.682-10.683c-5.901 0-10.683 4.782-10.683 10.683s4.782 10.683 10.683 10.683m0-19.229c4.712 0 8.546 3.834 8.546 8.546s-3.834 8.546-8.546 8.546-8.546-3.834-8.546-8.546 3.834-8.546 8.546-8.546m23.501 8.546c0 5.9 4.782 10.683 10.683 10.683 5.9 0 10.682-4.782 10.682-10.683s-4.782-10.683-10.682-10.683c-5.901.001-10.683 4.783-10.683 10.683m10.683-8.546c4.712 0 8.546 3.834 8.546 8.546s-3.834 8.546-8.546 8.546-8.546-3.834-8.546-8.546 3.834-8.546 8.546-8.546m-6.41-14.955c0-5.9-4.782-10.683-10.682-10.683-5.901 0-10.683 4.782-10.683 10.683s4.782 10.683 10.683 10.683c5.9 0 10.682-4.782 10.682-10.683M130 399.284c-4.712 0-8.546-3.834-8.546-8.546s3.834-8.546 8.546-8.546 8.546 3.834 8.546 8.546-3.834 8.546-8.546 8.546m-8.546 30.089h-17.092a4.273 4.273 0 0 0-4.273 4.273v6.409h25.638v-6.409a4.273 4.273 0 0 0-4.273-4.273m34.184 0h-17.092a4.273 4.273 0 0 0-4.273 4.273v6.409h25.638v-6.409a4.273 4.273 0 0 0-4.273-4.273"/><path clip-path="url(#t)" fill="#6E177D" d="M112.908 312.922c5.9 0 10.682-4.782 10.682-10.682 0-5.901-4.782-10.684-10.682-10.684-5.901 0-10.683 4.782-10.683 10.684 0 5.9 4.782 10.682 10.683 10.682m0-19.229c4.712 0 8.546 3.834 8.546 8.547 0 4.712-3.834 8.546-8.546 8.546s-8.546-3.834-8.546-8.546c0-4.713 3.834-8.547 8.546-8.547m23.501 8.547c0 5.899 4.782 10.682 10.683 10.682 5.9 0 10.682-4.782 10.682-10.682 0-5.901-4.782-10.684-10.682-10.684-5.901.001-10.683 4.783-10.683 10.684m10.683-8.547c4.712 0 8.546 3.834 8.546 8.547 0 4.712-3.834 8.546-8.546 8.546s-8.546-3.834-8.546-8.546c0-4.713 3.834-8.547 8.546-8.547m-6.41-14.955c0-5.901-4.782-10.682-10.682-10.682-5.901 0-10.683 4.781-10.683 10.682 0 5.9 4.782 10.682 10.683 10.682 5.9 0 10.682-4.781 10.682-10.682M130 287.284c-4.712 0-8.546-3.834-8.546-8.546s3.834-8.546 8.546-8.546 8.546 3.834 8.546 8.546-3.834 8.546-8.546 8.546m-8.546 30.089h-17.092a4.273 4.273 0 0 0-4.273 4.273v6.409h25.638v-6.409a4.273 4.273 0 0 0-4.273-4.273m34.184 0h-17.092a4.273 4.273 0 0 0-4.273 4.273v6.409h25.638v-6.409a4.273 4.273 0 0 0-4.273-4.273"/><path clip-path="url(#t)" fill="#000F5E" d="M130.239 191.092c11.057 0 20.018-8.961 20.018-20.018s-8.961-20.019-20.018-20.019-20.019 8.962-20.019 20.019c0 11.057 8.962 20.018 20.019 20.018m0-38.034c9.934 0 18.016 8.082 18.016 18.017 0 9.934-8.082 18.016-18.016 18.016-9.935 0-18.017-8.082-18.017-18.016 0-9.935 8.082-18.017 18.017-18.017m15.776 41.983h-32.029a8.008 8.008 0 0 0-8.008 8.008v8.007h48.045v-8.007a8.008 8.008 0 0 0-8.008-8.008"/><path clip-path="url(#t)" fill="#000F5E" d="M140.662 166.484l-2.831-2.832-10.596 10.597-4.59-4.591-2.831 2.831 7.421 7.422z"/></g><g clip-path="url(#b)"><text transform="translate(625.717 334.376)" font-size="12" font-family="IBMPlexSans-SemiBold">Applicazione o servizio</text></g><g clip-path="url(#b)"><text transform="translate(764.717 197.605)"><tspan x="0" y="0" font-size="11" font-family="IBMPlexSans">IU Key Protect</tspan></text></g><g clip-path="url(#b)"><text transform="translate(764.717 210.805)"><tspan x="0" y="0" font-size="11" font-family="IBMPlexSans">o API REST</tspan></text></g><g clip-path="url(#b)"><text transform="translate(625.717 107.376)"><tspan x="0" y="0" font-family="'IBMPlexSans-SemiBold'" font-size="12">K</tspan><tspan x="6.216" y="0" font-family="'IBMPlexSans-SemiBold'" font-size="12">e</tspan><tspan x="12.155" y="0" font-family="'IBMPlexSans-SemiBold'" font-size="12">y </tspan><tspan x="20.352" y="0" font-family="'IBMPlexSans-SemiBold'" font-size="12">P</tspan><tspan x="26.628" y="0" font-family="'IBMPlexSans-SemiBold'" font-size="12">r</tspan><tspan x="30.504" y="0" font-family="'IBMPlexSans-SemiBold'" font-size="12">o</tspan><tspan x="37.056" y="0" font-family="'IBMPlexSans-SemiBold'" font-size="12">t</tspan><tspan x="40.979" y="0" font-family="'IBMPlexSans-SemiBold'" font-size="12">ect</tspan></text></g><g clip-path="url(#b)"><text transform="translate(421.612 447.398)"><tspan x="0" y="0" font-family="'IBMPlexSans'" font-size="11">Moni</tspan><tspan x="23.562" y="0" font-family="'IBMPlexSans'" font-size="11">t</tspan><tspan x="27.169" y="0" font-family="'IBMPlexSans'" font-size="11">orano l’attività</tspan></text></g><g clip-path="url(#b)"><text transform="translate(421.612 343.394)" font-family="'IBMPlexSans'" font-size="11">Distribuiscono le chiavi</text></g><g clip-path="url(#b)"><text transform="translate(421.612 181.397)"><tspan x="0" y="0" font-family="'IBMPlexSans'" font-size="11">C</tspan><tspan x="6.38" y="0" font-family="'IBMPlexSans'" font-size="11">r</tspan><tspan x="9.933" y="0" font-family="'IBMPlexSans'" font-size="11">eano le chiavi</tspan></text></g><g clip-path="url(#b)" transform="translate(-6)"><text transform="translate(173.947 410.955)" font-size="11" font-family="IBMPlexSans-SemiBold">Lettori</text></g><g clip-path="url(#b)"><text transform="translate(205.923 410.955)" font-family="'IBMPlexSans'" font-size="11">ispezionano l’utilizzo della chiavi</text></g><g clip-path="url(#b)"><text transform="translate(173.947 424.155)" font-family="'IBMPlexSans'" font-size="11">e identificano le attività</text></g><g clip-path="url(#b)"><text transform="translate(173.947 437.356)" font-family="'IBMPlexSans'" font-size="11">sospette</text></g><g clip-path="url(#b)"><text transform="translate(173.947 298.953)" font-family="'IBMPlexSans-SemiBold'" font-size="11">Scrittori</text></g><g clip-path="url(#b)"><text transform="translate(211.655 298.953)" font-size="11" font-family="IBMPlexSans">forniscono l’applicazione o il</text></g><g clip-path="url(#b)"><text transform="translate(173.947 312.153)" font-size="11" font-family="'IBMPlexSans'">servizio che utilizza la chiave e forniscono</text></g><g clip-path="url(#b)"><text x="173.947" y="325.353"><tspan x="173.947" y="325.353" font-size="11" font-family="IBMPlexSans">gli ID della chiave da Key Protect</tspan></text></g><g clip-path="url(#b)"><text font-size="11" x="169.947" y="195.157" font-family="IBMPlexSans-SemiBold">Gestori</text></g><g clip-path="url(#b)"><text transform="translate(208.58 195.157)"><tspan x="0" y="0" font-size="11" font-family="IBMPlexSans">c</tspan><tspan x="7.26" y="0" font-size="11" font-family="IBMPlexSans">r</tspan><tspan x="10.813" y="0" font-size="11" font-family="IBMPlexSans">eano le chiavi simmetriche</tspan></text></g><g clip-path="url(#b)"><text transform="translate(173.947 208.357)"><tspan x="0" y="0" font-family="'IBMPlexSans'" font-size="11">in </tspan><tspan x="11.011" y="0" font-family="'IBMPlexSans'" font-size="11">K</tspan><tspan x="16.708" y="0" font-family="'IBMPlexSans'" font-size="11">e</tspan><tspan x="22.165" y="0" font-family="'IBMPlexSans'" font-size="11">y </tspan><tspan x="29.678" y="0" font-family="'IBMPlexSans'" font-size="11">P</tspan><tspan x="35.419" y="0" font-family="'IBMPlexSans'" font-size="11">r</tspan><tspan x="38.973" y="0" font-family="'IBMPlexSans'" font-size="11">o</tspan><tspan x="45.012" y="0" font-family="'IBMPlexSans'" font-size="11">t</tspan><tspan x="48.609" y="0" font-family="'IBMPlexSans'" font-size="11">ect</tspan></text></g><g clip-path="url(#b)"><text transform="translate(70.717 107.376)" font-family="'IBMPlexSans-SemiBold'" font-size="12">Ruoli Cloud IAM</text></g><g clip-path="url(#b)"><text transform="translate(49 63)" fill="#272727" font-family="'IBMPlexSans-Bold'" font-size="16">Gestione dell’accesso alle chiavi</text></g></svg>