<svg xmlns="http://www.w3.org/2000/svg" xmlns:xlink="http://www.w3.org/1999/xlink" viewBox="0 0 1000 550"><style>.st0{fill:#fff}.st1{fill:none;stroke-miterlimit:10}.st1,.st2,.st3{stroke:#d8d8d8}.st2{fill:none;stroke-miterlimit:10;stroke-dasharray:3,2}.st3{stroke-dasharray:3.0147,2.0098}.st3,.st5,.st6{fill:none;stroke-miterlimit:10}.st5{stroke:#000f5e}.st6{stroke-dasharray:3.0256,2.0171}.st6,.st7,.st9{stroke:#000f5e}.st7{fill:none;stroke-miterlimit:10;stroke-dasharray:2.9798,1.9865}.st9{stroke-dasharray:3,2}.st10,.st12,.st9{fill:none;stroke-miterlimit:10}.st10{stroke-dasharray:3.0175,2.0117;stroke:#000f5e}.st12{stroke:#6e177d}.st14{fill:#6e177d}.st15{fill:#8747b8}.st16{opacity:.15;fill:#b380e0}.st17{fill:#000f5e}.st18{fill:none;stroke:#005ab3;stroke-miterlimit:10}.st19{fill:#005ab3}.st21{fill:#d75193}.st24,.st25,.st26{clip-path:url(#SVGID_4_);fill:#0a4169}.st25,.st26{fill:#07aed1}.st26{fill:#87c632}.st27{fill:#003bc9}.st28{fill:#272727}.st31{clip-path:url(#SVGID_8_);fill:#6e177d}.st32{font-family:&apos;IBMPlexSans-SemiBold&apos;}.st33{font-size:12px}.st34{font-family:&apos;IBMPlexSans&apos;}.st35{font-size:11px}</style><switch><g><g id="Visual"><path class="st0" d="M49.5 83.5h345v412h-345z"/><path class="st1" d="M394.5 494v1.5H393"/><path class="st2" d="M391 495.5H52"/><path class="st1" d="M51 495.5h-1.5V494"/><path class="st3" d="M49.5 492V86"/><path class="st1" d="M49.5 85v-1.5H51"/><path class="st2" d="M53 83.5h339"/><path class="st1" d="M393 83.5h1.5V85"/><path class="st3" d="M394.5 87v406"/><path class="st0" d="M603.5 83.5h345v185h-345z"/><path class="st1" d="M948.5 267v1.5H947"/><path class="st2" d="M945 268.5H606"/><path class="st1" d="M605 268.5h-1.5V267"/><path class="st2" d="M603.5 265V86"/><path class="st1" d="M603.5 85v-1.5h1.5"/><path class="st2" d="M607 83.5h339"/><path class="st1" d="M947 83.5h1.5V85"/><path class="st2" d="M948.5 87v179"/><path fill="#f8f4f2" d="M626.5 120.5h298v121h-298z"/><path class="st5" d="M923 120.5h1.5v1.5"/><path class="st6" d="M924.5 124v115"/><path class="st5" d="M924.5 240v1.5H923"/><path class="st7" d="M921 241.5H629"/><path class="st5" d="M628 241.5h-1.5V240"/><path class="st6" d="M626.5 238V123"/><path class="st5" d="M626.5 122v-1.5h1.5"/><path class="st7" d="M630 120.5h292"/><g><path fill="#f4f4f4" d="M70.5 120.5h300v347h-300z"/><path class="st5" d="M370.5 466v1.5H369"/><path class="st9" d="M367 467.5H73"/><path class="st5" d="M72 467.5h-1.5V466"/><path class="st10" d="M70.5 464V123"/><path class="st5" d="M70.5 122v-1.5H72"/><path class="st9" d="M74 120.5h294"/><path class="st5" d="M369 120.5h1.5v1.5"/><path class="st10" d="M370.5 124v341"/></g><g><path class="st0" d="M603.5 310.5h345v185h-345z"/><path class="st1" d="M948.5 494v1.5H947"/><path class="st2" d="M945 495.5H606"/><path class="st1" d="M605 495.5h-1.5V494"/><path class="st2" d="M603.5 492V313"/><path class="st1" d="M603.5 312v-1.5h1.5"/><path class="st2" d="M607 310.5h339"/><path class="st1" d="M947 310.5h1.5v1.5"/><path class="st2" d="M948.5 314v179"/></g><g><path transform="rotate(-90 775.5 407.5)" fill="#edf5ff" stroke="#000f5e" stroke-miterlimit="10" stroke-dasharray="3,2" d="M715.5 258.5h120v298h-120z"/></g><g><path class="st12" d="M789 241.5v.5"/><path fill="none" stroke="#6e177d" stroke-miterlimit="10" stroke-dasharray=".9971,.9971" d="M789 243v59.3"/><path class="st12" d="M789 302.8v.5"/><path class="st14" d="M784 301.9l5 8.6 5-8.6z"/></g><g><path class="st12" d="M758 248.7v61.8"/><path class="st14" d="M753 250.1l5-8.6 5 8.6z"/></g><g><path class="st15" d="M795.6 409.4v-3.6h-5.5v3.6h-3.6v-3.6H781v3.6h-23.6v10.9h40v-10.9h-1.8z"/><path class="st15" d="M775.6 396.6h-1.8V393h-5.5v3.6h-3.6V393h-5.5v3.6h-1.8v10.9h18.2v-10.9zm1.8 25.5h20V433h-20v-10.9zm-20 0h18.2V433h-18.2v-10.9z"/></g><path class="st16" d="M544 425H403v23.5c0 5.8 4.7 10.5 10.5 10.5h120c5.8 0 10.5-4.7 10.5-10.5V425zM544 321H403v23.5c0 5.8 4.7 10.5 10.5 10.5h120c5.8 0 10.5-4.7 10.5-10.5V321zM544 159H403v23.5c0 5.8 4.7 10.5 10.5 10.5h120c5.8 0 10.5-4.7 10.5-10.5V159z"/><g><path class="st5" d="M589.8 159.2H370"/><path class="st17" d="M588.4 154.3l8.6 4.9-8.6 5z"/><circle class="st0" cx="370.3" cy="159.2" r="3.8"/><path class="st17" d="M370.3 155c2.3 0 4.3 1.9 4.3 4.3s-1.9 4.3-4.3 4.3c-2.3 0-4.3-1.9-4.3-4.3s1.9-4.3 4.3-4.3c2.3 0-2.4 0 0 0zm0 7.5c1.8 0 3.3-1.5 3.3-3.3s-1.5-3.3-3.3-3.3c-1.8 0-3.3 1.5-3.3 3.3s1.5 3.3 3.3 3.3c1.8 0-1.8 0 0 0z"/></g><g><path class="st18" d="M370 425h186v-79"/><circle class="st0" cx="370.3" cy="425" r="3.8"/><path class="st19" d="M370.3 429.3c2.3 0 4.3-1.9 4.3-4.3s-1.9-4.3-4.3-4.3c-2.3 0-4.3 1.9-4.3 4.3s1.9 4.3 4.3 4.3c2.3 0-2.4 0 0 0zm0-7.6c1.8 0 3.3 1.5 3.3 3.3s-1.5 3.3-3.3 3.3c-1.8 0-3.3-1.5-3.3-3.3s1.5-3.3 3.3-3.3c1.8 0-1.8 0 0 0z"/></g><g><path class="st12" d="M589.8 321.5H370"/><path class="st14" d="M588.4 316.5l8.6 5-8.6 5z"/><circle class="st0" cx="370.3" cy="321.5" r="3.8"/><path class="st14" d="M370.3 317.2c2.3 0 4.3 1.9 4.3 4.3s-1.9 4.3-4.3 4.3c-2.3 0-4.3-1.9-4.3-4.3s1.9-4.3 4.3-4.3c2.3 0-2.4 0 0 0zm0 7.6c1.8 0 3.3-1.5 3.3-3.3s-1.5-3.3-3.3-3.3c-1.8 0-3.3 1.5-3.3 3.3s1.5 3.3 3.3 3.3c1.8 0-1.8 0 0 0z"/></g><g><path class="st18" d="M589.8 245H556v102"/><path class="st19" d="M588.4 240l8.6 5-8.6 5z"/></g><g><path d="M858.2 388.7c11.2 0 19.4 2.1 22.1 3.5-2.7 1.5-10.2 3.3-22.1 3.3-11.7 0-19-2.1-21.5-3.3 2.3-1.4 9.8-3.5 21.5-3.5zm0-2.7c-14.2 0-24.8 2.9-24.8 6.2s10.6 6.2 24.8 6.2 25.2-2.9 25.2-6.2-11.2-6.2-25.2-6.2zm-.3 37.5c-9.4 0-25-1.5-25-6.7V411h2.1v6c0 1 7 4.2 22.9 4.2 15.1 0 22.9-2.9 22.9-4.2v-6h2.1v6c0 5-15.7 6.5-25 6.5zm0 12.5c-9.4 0-25-1.5-25-6.7v-5.8h2.1v5.8c0 1 7 4.2 22.9 4.2 15.1 0 22.9-2.9 22.9-4.2v-5.8h2.1v5.8c0 5.2-15.7 6.7-25 6.7zm0-25c-9.2 0-25-1.5-25-6.7v-5.8h2.1v5.8c0 1 7 4.2 22.9 4.2s22.9-2.9 22.9-4.2v-5.8h2.1v5.8c0 5.2-15.7 6.7-25 6.7z" fill="#001689"/></g><g><path class="st0" d="M667 387h60v48h-60z"/><path class="st21" d="M689.2 422.4c-2-1.9-3.1-4.6-3.1-7.4 0-5.7 4.7-10.4 10.4-10.4s10.4 4.7 10.4 10.4c0 2.8-1.1 5.4-3.1 7.4l2.9 2.9c2.8-2.8 4.3-6.4 4.3-10.3 0-8-6.5-14.6-14.6-14.6-8 0-14.6 6.5-14.6 14.6 0 3.9 1.5 7.6 4.3 10.3.2 0 3.1-2.9 3.1-2.9z"/><path class="st21" d="M694.5 429.8h4.2l-2.1-18.8-2.1 18.8z"/><path d="M665.5 386v50H728v-50h-62.5zm60.4 47.9h-58.3v-37.5h58.3v37.5z" fill="#a71c71"/></g><g><path class="st0" d="M668 165.5h70v45h-70z"/><path class="st17" d="M665.5 153v60h75v-60h-75zm72.5 57.5h-70v-45h70v45z"/><g id="KP_Logo"><defs><path id="SVGID_1_" d="M692.6 171.1h20.5v31.2h-20.5z"/></defs><clipPath id="SVGID_2_"><use xlink:href="#SVGID_1_" overflow="visible"/></clipPath><g clip-path="url(#SVGID_2_)"><defs><path id="SVGID_3_" d="M692.6 171.1h20.5v31.2h-20.5z"/></defs><clipPath id="SVGID_4_"><use xlink:href="#SVGID_3_" overflow="visible"/></clipPath><path class="st24" d="M707.8 182.2c-.5.2-.9.8-1 1.4l2.7 1.6-6.7 4-6.7-4.1 2.5-1.5c0-.6-.4-1.1-.9-1.4l-5.1 2.9v11.3l10.3 5.9 10.3-6.1v-11.1l-5.4-2.9zm-6 17.8l-7.3-4.5v-9.3l7.3 4.5v9.3zm9.3-4.9l-7.3 4.7v-9.3l7.3-4.5v9.1z"/><path class="st24" d="M707.1 181.8l-1.9-1c0 .6-.3 1.1-.6 1.6l1.6.9c.1-.7.4-1.2.9-1.5M700.9 180.5c0 .7.2 1.2.6 1.5l1.2-.7 1 .6c.3-.3.5-.7.5-1.3v-.3l-1.5-.8-1.8 1zm-1.5 2.7l1.5-.9c-.4-.4-.6-.9-.7-1.4l-1.6.9c.4.4.7.9.8 1.4"/><path class="st25" d="M702.7 186.7c.9 0 1.7.8 1.7 1.7 0 .9-.8 1.7-1.7 1.7s-1.7-.8-1.7-1.7c0-1 .8-1.7 1.7-1.7"/><path class="st26" d="M702.7 171.1c.9 0 1.7.8 1.7 1.7 0 .9-.8 1.7-1.7 1.7s-1.7-.8-1.7-1.7c0-.9.8-1.7 1.7-1.7M708.6 182.1c.9 0 1.7.8 1.7 1.7 0 .9-.8 1.7-1.7 1.7-.9 0-1.7-.8-1.7-1.7 0-1 .8-1.7 1.7-1.7M696.9 182.1c.9 0 1.7.8 1.7 1.7 0 .9-.8 1.7-1.7 1.7s-1.7-.8-1.7-1.7c0-1 .8-1.7 1.7-1.7"/><path class="st25" d="M708.6 174.3c.9 0 1.7.8 1.7 1.7 0 .9-.8 1.7-1.7 1.7-.9 0-1.7-.8-1.7-1.7 0-.9.8-1.7 1.7-1.7M697.1 174.5c.9 0 1.7.8 1.7 1.7 0 .9-.8 1.7-1.7 1.7-.9 0-1.7-.8-1.7-1.7 0-.9.8-1.7 1.7-1.7"/><path class="st26" d="M702.7 178.9c-.9 0-1.7.7-1.7 1.7s.7 1.7 1.7 1.7 1.7-.7 1.7-1.7-.7-1.7-1.7-1.7"/></g></g></g><g><path class="st0" d="M410 410h24v20h-24z"/><path class="st27" d="M426.1 418.6l3.6 3.6 1.2-1.2-4.8-4.8-8.3 8.3-3.6-3.6-1.2 1.2 4.8 4.8 8.3-8.3z"/><path class="st27" d="M409.5 410v20h25v-20h-25zm24.2 19.2h-23.3v-15h23.3v15z"/></g><g><path class="st0" d="M409 306h24v20h-24z"/><path class="st28" d="M414.1 322.4l4.8-4.8-4.8-4.8-1.2 1.2 3.6 3.6-3.6 3.6 1.2 1.2z"/><path class="st28" d="M408.5 306v20h25v-20h-25zm24.2 19.2h-23.3v-15h23.3v15z"/></g><g id="Artwork_39"><defs><path id="SVGID_5_" transform="rotate(-45.001 423 156.339)" d="M409 142.1h28v28.6h-28z"/></defs><clipPath id="SVGID_6_"><use xlink:href="#SVGID_5_" overflow="visible"/></clipPath><g clip-path="url(#SVGID_6_)"><defs><path id="SVGID_7_" transform="rotate(-45.001 423 156.339)" d="M409 142.1h28v28.6h-28z"/></defs><clipPath id="SVGID_8_"><use xlink:href="#SVGID_7_" overflow="visible"/></clipPath><path d="M441.2 157.5l-3.4-3.6v.3l-.1-.1v-.3h-13.5v.2h-2.4c-.4-.7-.8-1.3-1.4-1.8-2.9-2.9-7.6-3-10.5-.2-2.8 2.8-2.8 7.5.2 10.5 2.9 2.9 7.6 3 10.5.2.6-.6 1.1-1.3 1.4-2.1h3.7v-.8h1.9v.7h9.7v.3l.3-.3h.3v-.2l3.3-2.8z" clip-path="url(#SVGID_8_)" fill="#cba9e6"/><path class="st31" d="M438.4 153.5h-15.7c-.4-.7-.8-1.3-1.4-1.9-3.3-3.3-8.7-3.2-11.8.4-2.6 3-2.6 7.6 0 10.6 3.1 3.6 8.5 3.7 11.8.4.6-.6 1-1.2 1.4-1.9h3l1.3-1.3 1.3 1.3h10.2l3.8-3.8-3.9-3.8zm-.3 6.7h-9.4l-1-1-.6-.6-.6.6-1 1h-3.2l-.3.5c-.3.6-.8 1.2-1.3 1.7-2.9 2.9-7.8 2.8-10.5-.4-2.3-2.7-2.3-6.7 0-9.4 2.8-3.2 7.6-3.3 10.5-.4.5.5.9 1.1 1.3 1.7l.3.5h15.9l2.9 2.9-3 2.9z"/><path class="st31" d="M414.2 156c.7.7.7 1.8 0 2.5s-1.8.7-2.5 0-.7-1.8 0-2.5 1.8-.7 2.5 0M429.5 156.8h7.6v.9h-7.6z"/></g></g><g><path class="st19" d="M112.9 424.9c5.9 0 10.7-4.8 10.7-10.7s-4.8-10.7-10.7-10.7-10.7 4.8-10.7 10.7 4.8 10.7 10.7 10.7zm0-19.2c4.7 0 8.5 3.8 8.5 8.5s-3.8 8.5-8.5 8.5-8.5-3.8-8.5-8.5 3.8-8.5 8.5-8.5zm23.5 8.5c0 5.9 4.8 10.7 10.7 10.7 5.9 0 10.7-4.8 10.7-10.7s-4.8-10.7-10.7-10.7c-5.9.1-10.7 4.8-10.7 10.7zm10.7-8.5c4.7 0 8.5 3.8 8.5 8.5s-3.8 8.5-8.5 8.5-8.5-3.8-8.5-8.5 3.8-8.5 8.5-8.5zm-6.4-15c0-5.9-4.8-10.7-10.7-10.7-5.9 0-10.7 4.8-10.7 10.7 0 5.9 4.8 10.7 10.7 10.7 5.9 0 10.7-4.8 10.7-10.7zm-10.7 8.6c-4.7 0-8.5-3.8-8.5-8.5s3.8-8.5 8.5-8.5 8.5 3.8 8.5 8.5-3.8 8.5-8.5 8.5zm-8.5 30.1h-17.1c-2.4 0-4.3 1.9-4.3 4.3v6.4h25.6v-6.4c0-2.4-1.9-4.3-4.2-4.3zm34.1 0h-17.1c-2.4 0-4.3 1.9-4.3 4.3v6.4h25.6v-6.4c.1-2.4-1.8-4.3-4.2-4.3z"/></g><g><path class="st14" d="M112.9 312.9c5.9 0 10.7-4.8 10.7-10.7s-4.8-10.7-10.7-10.7-10.7 4.8-10.7 10.7 4.8 10.7 10.7 10.7zm0-19.2c4.7 0 8.5 3.8 8.5 8.5s-3.8 8.5-8.5 8.5-8.5-3.8-8.5-8.5 3.8-8.5 8.5-8.5zm23.5 8.5c0 5.9 4.8 10.7 10.7 10.7 5.9 0 10.7-4.8 10.7-10.7s-4.8-10.7-10.7-10.7c-5.9.1-10.7 4.8-10.7 10.7zm10.7-8.5c4.7 0 8.5 3.8 8.5 8.5s-3.8 8.5-8.5 8.5-8.5-3.8-8.5-8.5 3.8-8.5 8.5-8.5zm-6.4-15c0-5.9-4.8-10.7-10.7-10.7-5.9 0-10.7 4.8-10.7 10.7 0 5.9 4.8 10.7 10.7 10.7 5.9 0 10.7-4.8 10.7-10.7zm-10.7 8.6c-4.7 0-8.5-3.8-8.5-8.5s3.8-8.5 8.5-8.5 8.5 3.8 8.5 8.5-3.8 8.5-8.5 8.5zm-8.5 30.1h-17.1c-2.4 0-4.3 1.9-4.3 4.3v6.4h25.6v-6.4c0-2.4-1.9-4.3-4.2-4.3zm34.1 0h-17.1c-2.4 0-4.3 1.9-4.3 4.3v6.4h25.6v-6.4c.1-2.4-1.8-4.3-4.2-4.3z"/></g><g><path class="st17" d="M130.2 191.1c11.1 0 20-9 20-20 0-11.1-9-20-20-20s-20 9-20 20 9 20 20 20zm0-38c9.9 0 18 8.1 18 18s-8.1 18-18 18-18-8.1-18-18c0-10 8.1-18 18-18zM146 195h-32c-4.4 0-8 3.6-8 8v8h48v-8c0-4.4-3.6-8-8-8z"/><path class="st17" d="M140.7 166.5l-2.8-2.8-10.6 10.6-4.6-4.6-2.8 2.8 7.4 7.4 13.4-13.4z"/></g></g><g id="Text"><text transform="translate(625.717 334.375)" class="st32 st33">Applicazione o servizio</text><text transform="translate(764.717 197.605)"><tspan x="0" y="0" class="st34 st35">IU Key Protect</tspan><tspan x="0" y="13.2" class="st34 st35">o API REST</tspan></text><text transform="translate(625.717 107.376)" class="st32 st33">Key Protect</text><text transform="translate(421.612 447.398)" class="st34 st35">Monitora l&apos;attività</text><text transform="translate(421.612 343.398)" class="st34 st35">Distribuisci le chiavi</text><text transform="translate(421.612 181.398)" class="st34 st35">Crea le chiavi</text><text transform="translate(173.948 410.96)"><tspan x="0" y="0" class="st32 st35">I lettori</tspan><tspan x="42.1" y="0" class="st34 st35"> ispezionano l&apos;uso delle chiavi</tspan><tspan x="0" y="13.2" class="st34 st35">e identificano l&apos;attività</tspan><tspan x="0" y="26.4" class="st34 st35">sospetta</tspan></text><text transform="translate(173.948 298.96)"><tspan x="0" y="0" class="st32 st35">Gli scrittori</tspan><tspan x="37.9" y="0" class="st34 st35"> eseguono il provisioning di</tspan><tspan x="0" y="13.2" class="st34 st35">applicazioni o servizi che utilizzano chiavi e forniscono gli</tspan><tspan x="0" y="26.4" class="st34 st35">ID chiave da Key Protect</tspan></text><text transform="translate(173.948 195.16)"><tspan x="0" y="0" class="st32 st35">I gestori</tspan><tspan x="49.7" y="0" class="st34 st35"> creano le chiavi simmetriche </tspan><tspan x="0" y="13.2" class="st34 st35">in Key Protect</tspan></text><text transform="translate(70.717 107.376)" class="st32 st33">Ruoli Cloud IAM</text><text transform="translate(49 63)" class="st28" font-size="16" font-family="IBMPlexSans-Bold">Gestione dell&apos;accesso alle chiavi</text></g></g></switch></svg>