<svg xmlns="http://www.w3.org/2000/svg" xmlns:xlink="http://www.w3.org/1999/xlink" viewBox="0 0 1000 559" id="svg780"><style id="style2">.st0{fill:#fff}.st1,.st2{stroke:#d8d8d8}.st1{fill:none;stroke-miterlimit:10}.st2{stroke-dasharray:3.0033,2.0022}.st2,.st3,.st5,.st6,.st9{fill:none;stroke-miterlimit:10}.st3{stroke-dasharray:3,2;stroke:#d8d8d8}.st5,.st6,.st9{stroke:#000f5e}.st6,.st9{stroke-dasharray:3,2}.st9{stroke-dasharray:3.017,2.0114}.st11{clip-path:url(#SVGID_2_);fill:#000f5e}.st18{clip-path:url(#SVGID_10_);fill:#6e177d}.st20{clip-path:url(#SVGID_14_);fill:#000f5e}.st25,.st28,.st29{clip-path:url(#SVGID_20_)}.st28,.st29{fill:#000f5e}.st29{clip-path:url(#SVGID_26_)}.st31{clip-path:url(#SVGID_28_)}.st35{clip-path:url(#SVGID_34_)}.st46{fill:#a71c71}.st47{fill:none;stroke:#a71c71;stroke-miterlimit:10}.st52,.st55,.st56{clip-path:url(#SVGID_50_)}.st55,.st56{fill:#000f5e}.st56{clip-path:url(#SVGID_56_)}.st58{clip-path:url(#SVGID_58_)}.st62,.st64,.st66{clip-path:url(#SVGID_66_);fill:#efc100}.st64,.st66{fill:#6e177d}.st66{fill:#000f5e}.st70,.st72,.st73{clip-path:url(#SVGID_70_);fill:#efc100}.st72,.st73{fill:#000f5e}.st73{fill:#fff}.st75,.st79{fill:none;stroke:#b380e0;stroke-miterlimit:10}.st79{stroke-dasharray:1,1}.st80{fill:#b380e0}.st83{font-family:&apos;IBMPlexSans&apos;}.st84{font-size:11px}.st85{font-family:&apos;IBMPlexSans-SemiBold&apos;}.st86{font-size:12px}</style><switch id="switch778"><g id="g776"><g id="Visual"><g id="g26"><g id="g24"><path class="st0" id="rect4" d="M48.5 83.5h901v200h-901z"/><g id="g22"><path class="st1" id="polyline6" d="M949.5 282v1.5H948"/><path class="st2" id="line8" d="M946 283.5H51"/><path class="st1" id="polyline10" d="M50 283.5h-1.5V282"/><path class="st3" id="line12" d="M48.5 280V86"/><path class="st1" id="polyline14" d="M48.5 85v-1.5H50"/><path class="st2" id="line16" d="M52 83.5h895"/><path class="st1" id="polyline18" d="M948 83.5h1.5V85"/><path class="st3" id="line20" d="M949.5 87v194"/></g></g></g><g id="g50"><g id="g48"><path class="st0" id="rect28" d="M48.5 300.5h901v200h-901z"/><g id="g46"><path class="st1" id="polyline30" d="M949.5 499v1.5H948"/><path class="st2" id="line32" d="M946 500.5H51"/><path class="st1" id="polyline34" d="M50 500.5h-1.5V499"/><path class="st3" id="line36" d="M48.5 497V303"/><path class="st1" id="polyline38" d="M48.5 302v-1.5H50"/><path class="st2" id="line40" d="M52 300.5h895"/><path class="st1" id="polyline42" d="M948 300.5h1.5v1.5"/><path class="st3" id="line44" d="M949.5 304v194"/></g></g></g><g id="g74"><g id="g72"><path id="rect52" fill="#edf5ff" d="M69.5 123.5h300v140h-300z"/><g id="g70"><path class="st5" id="polyline54" d="M369.5 262v1.5H368"/><path class="st6" id="line56" d="M366 263.5H72"/><path class="st5" id="polyline58" d="M71 263.5h-1.5V262"/><path class="st6" id="line60" d="M69.5 260V126"/><path class="st5" id="polyline62" d="M69.5 125v-1.5H71"/><path class="st6" id="line64" d="M73 123.5h294"/><path class="st5" id="polyline66" d="M368 123.5h1.5v1.5"/><path class="st6" id="line68" d="M369.5 127v134"/></g></g></g><g id="g98"><g id="g96"><path id="rect76" fill="#f8f4f2" d="M69.5 340.5h300v140h-300z"/><g id="g94"><path class="st5" id="polyline78" d="M369.5 479v1.5H368"/><path class="st6" id="line80" d="M366 480.5H72"/><path class="st5" id="polyline82" d="M71 480.5h-1.5V479"/><path class="st6" id="line84" d="M69.5 477V343"/><path class="st5" id="polyline86" d="M69.5 342v-1.5H71"/><path class="st6" id="line88" d="M73 340.5h294"/><path class="st5" id="polyline90" d="M368 340.5h1.5v1.5"/><path class="st6" id="line92" d="M369.5 344v134"/></g></g></g><g id="g122"><g id="g120"><path id="rect100" fill="#f4f4f4" d="M547.5 123.5h140v357h-140z"/><g id="g118"><path class="st5" id="polyline102" d="M686 123.5h1.5v1.5"/><path class="st9" id="line104" d="M687.5 127v351"/><path class="st5" id="polyline106" d="M687.5 479v1.5H686"/><path class="st6" id="line108" d="M684 480.5H550"/><path class="st5" id="polyline110" d="M549 480.5h-1.5V479"/><path class="st9" id="line112" d="M547.5 477V126"/><path class="st5" id="polyline114" d="M547.5 125v-1.5h1.5"/><path class="st6" id="line116" d="M551 123.5h134"/></g></g></g><g id="Artwork_11"><g id="g150"><defs id="defs125"><path id="SVGID_1_" d="M120 147h35.8v52.3H120z"/></defs><clipPath id="SVGID_2_"><use xlink:href="#SVGID_1_" id="use127" overflow="visible"/></clipPath><path clip-path="url(#SVGID_2_)" id="polygon130" fill="#fff" d="M138.4 160v-12h-17v48h31v-36z"/><path class="st11" d="M121.7 148.7h16.7V162h13.3v33.3h-30v-46.6zM120 147v50h33.3v-36.7L140 147h-20z" clip-path="url(#SVGID_2_)" id="path132"/><path class="st11" clip-path="url(#SVGID_2_)" id="rect134" d="M126.7 167h20v1.7h-20z"/><path class="st11" clip-path="url(#SVGID_2_)" id="rect136" d="M126.7 170.3h20v1.7h-20z"/><path class="st11" clip-path="url(#SVGID_2_)" id="rect138" d="M126.7 173.7h10v1.7h-10z"/><g clip-path="url(#SVGID_2_)" id="g148"><defs id="defs141"><path id="SVGID_3_" d="M120 147h35.8v52.3H120z"/></defs><clipPath id="SVGID_4_"><use xlink:href="#SVGID_3_" id="use143" overflow="visible"/></clipPath><path d="M149.7 183.5c-2.2-.5-4.2-.1-5.9.8v-.8c0-1.3.5-2.5 1.5-3.3 1.9-1.5 4-1.1 5.3.2l1.4-1.4c-1.7-1.7-4.4-2.4-7-1.1-2 1.1-3.2 3.2-3.2 5.5v2.5c-1.6 1.8-2.4 4.3-1.8 7 .7 3.1 3.2 5.5 6.2 6.1 5.6 1.1 10.5-3.8 9.4-9.4-.5-2.9-2.9-5.4-5.9-6.1m2 10.1l-1.4 1.4-2.3-2.3-2.3 2.3-1.4-1.4 2.3-2.3-2.3-2.3 1.4-1.4 2.3 2.3 2.3-2.3 1.4 1.4-2.3 2.3 2.3 2.3z" clip-path="url(#SVGID_4_)" id="path146" fill="#db2663"/></g></g></g><g id="Artwork_23_1_"><g id="g193"><defs id="defs154"><path id="SVGID_5_" d="M105.4 379.5h64.5v30h-64.5z"/></defs><clipPath id="SVGID_6_"><use xlink:href="#SVGID_5_" id="use156" overflow="visible"/></clipPath><g clip-path="url(#SVGID_6_)" id="g191"><defs id="defs160"><path id="SVGID_7_" d="M105.4 379.5h64.5v30h-64.5z"/></defs><clipPath id="SVGID_8_"><use xlink:href="#SVGID_7_" id="use162" overflow="visible"/></clipPath><g clip-path="url(#SVGID_8_)" id="g189"><defs id="defs166"><path id="SVGID_9_" d="M105.4 379.5h64.5v30h-64.5z"/></defs><clipPath id="SVGID_10_"><use xlink:href="#SVGID_9_" id="use168" overflow="visible"/></clipPath><g clip-path="url(#SVGID_10_)" id="g181" opacity=".65"><g id="g179"><defs id="defs172"><path id="SVGID_11_" d="M106.2 380.2h62v28h-62z"/></defs><clipPath id="SVGID_12_"><use xlink:href="#SVGID_11_" id="use174" overflow="visible"/></clipPath><path d="M162.2 388.2h-29.4c-2.2-4.7-7.1-8-12.6-8-7.7 0-14 6.3-14 14s6.3 14 14 14c5.6 0 10.4-3.3 12.6-8h7.4v-2h3v2h19l6-6-6-6z" clip-path="url(#SVGID_12_)" id="path177" fill="#b380e0"/></g></g><path class="st18" d="M162.9 387.4h-29.2c-.7-1.3-1.5-2.5-2.6-3.5-6.1-6.1-16.2-5.8-21.9.8-4.9 5.6-4.9 14.1 0 19.7 5.8 6.6 15.8 6.9 21.9.8 1.1-1.1 1.9-2.3 2.6-3.5h5.6l2.4-2.4 2.4 2.4H163l7.1-7.1-7.2-7.2zm-.7 12.5h-17.5l-1.9-1.9-1.2-1.2-1.2 1.2-1.9 1.9h-5.9l-.5.9c-.6 1.2-1.4 2.2-2.3 3.1-5.4 5.4-14.4 5.2-19.5-.7-4.3-5-4.3-12.5 0-17.5 5.1-5.9 14.1-6.1 19.5-.7.9.9 1.7 2 2.3 3.1l.5.9h29.5l5.4 5.4-5.3 5.5z" clip-path="url(#SVGID_10_)" id="path183"/><path class="st18" d="M117.9 392.1c1.3 1.3 1.3 3.4 0 4.7-1.3 1.3-3.4 1.3-4.7 0s-1.3-3.4 0-4.7 3.4-1.3 4.7 0" clip-path="url(#SVGID_10_)" id="path185"/><path class="st18" clip-path="url(#SVGID_10_)" id="rect187" d="M146.2 393.6h14.1v1.7h-14.1z"/></g></g></g></g><g id="Artwork_12_1_"><g id="g224"><defs id="defs197"><path id="SVGID_13_" d="M604.1 147h35.8v52.3h-35.8z"/></defs><clipPath id="SVGID_14_"><use xlink:href="#SVGID_13_" id="use199" overflow="visible"/></clipPath><path clip-path="url(#SVGID_14_)" id="polygon202" fill="#fff" d="M636.4 160v36h-31v-48h18v12z"/><path class="st20" d="M605.7 148.7h16.7V162h13.3v33.3h-30v-46.6zm-1.6-1.7v50h33.3v-36.7L624.1 147h-20z" clip-path="url(#SVGID_14_)" id="path204"/><path class="st20" clip-path="url(#SVGID_14_)" id="rect206" d="M610.7 167h20v1.7h-20z"/><path class="st20" clip-path="url(#SVGID_14_)" id="rect208" d="M610.7 170.3h20v1.7h-20z"/><path class="st20" clip-path="url(#SVGID_14_)" id="rect210" d="M610.7 173.7h10v1.7h-10z"/><g clip-path="url(#SVGID_14_)" id="g222"><defs id="defs213"><path id="SVGID_15_" d="M604.1 147h35.8v52.3h-35.8z"/></defs><clipPath id="SVGID_16_"><use xlink:href="#SVGID_15_" id="use215" overflow="visible"/></clipPath><path d="M637.4 191c0 3.3-2.5 6-5.5 6s-5.5-2.7-5.5-6 2.5-6 5.5-6c3.1 0 5.5 2.7 5.5 6" clip-path="url(#SVGID_16_)" id="path218" fill="#fff"/><path d="M637.8 183.3c0-4.1-4.4-7.4-8.6-5.4-2.1 1-3.4 3.3-3.4 5.7v2.5c-1.6 1.8-2.4 4.3-1.8 7 .7 3.1 3.1 5.5 6.2 6.1 5.1 1 9.6-2.9 9.6-7.8 0-2-.8-3.9-2-5.3v-2.8zm-10 0c0-2.9 3.4-5.3 6.3-3.2 1.1.8 1.7 2.2 1.7 3.5v.8c-1.2-.7-2.5-1.1-4-1.1s-2.8.4-4 1.1v-1.1zm2.9 12.4L627 192l1.4-1.4 2.3 2.3 5.3-5.3 1.4 1.4-6.7 6.7z" clip-path="url(#SVGID_16_)" id="path220" fill="#5aa700"/></g></g></g><g id="Artwork_24_1_"><g id="g287"><defs id="defs228"><path id="SVGID_17_" d="M261.2 379.4h64.5v30h-64.5z"/></defs><clipPath id="SVGID_18_"><use xlink:href="#SVGID_17_" id="use230" overflow="visible"/></clipPath><g clip-path="url(#SVGID_18_)" id="g285"><defs id="defs234"><path id="SVGID_19_" d="M261.2 379.4h64.5v30h-64.5z"/></defs><clipPath id="SVGID_20_"><use xlink:href="#SVGID_19_" id="use236" overflow="visible"/></clipPath><g class="st25" clip-path="url(#SVGID_20_)" id="g257"><defs id="defs240"><path id="SVGID_21_" d="M261.2 379.4h64.5v30h-64.5z"/></defs><clipPath id="SVGID_22_"><use xlink:href="#SVGID_21_" id="use242" overflow="visible"/></clipPath><g clip-path="url(#SVGID_22_)" id="g255" opacity=".65"><g id="g253"><defs id="defs246"><path id="SVGID_23_" d="M261.9 380.1h62v28h-62z"/></defs><clipPath id="SVGID_24_"><use xlink:href="#SVGID_23_" id="use248" overflow="visible"/></clipPath><path d="M317.9 388.1h-29.4c-2.2-4.7-7.1-8-12.6-8-7.7 0-14 6.3-14 14s6.3 14 14 14c5.6 0 10.4-3.3 12.6-8h7.4v-2h3v2h19l6-6-6-6z" clip-path="url(#SVGID_24_)" id="path251" fill="#69a6ff"/></g></g></g><path class="st28" clip-path="url(#SVGID_20_)" id="rect259" d="M302 395.1h14.1v.1H302z"/><path class="st28" clip-path="url(#SVGID_20_)" id="polygon261" d="M297.4 396.8l1.3 1.3h-2.6z"/><path class="st28" clip-path="url(#SVGID_20_)" id="rect263" d="M302 393.5h14.1v1.7H302z"/><g class="st25" clip-path="url(#SVGID_20_)" id="g283"><defs id="defs266"><path id="SVGID_25_" d="M261.2 379.4h64.5v30h-64.5z"/></defs><clipPath id="SVGID_26_"><use xlink:href="#SVGID_25_" id="use268" overflow="visible"/></clipPath><path class="st29" d="M273.7 392c1.3 1.3 1.3 3.4 0 4.7a3.32 3.32 0 0 1-4.7 0 3.32 3.32 0 0 1 0-4.7c1.3-1.3 3.4-1.3 4.7 0" clip-path="url(#SVGID_26_)" id="path271"/><path class="st29" d="M266.1 385.7c-1.6 1.8-2.6 4-3 6.2 1-6.7 6.6-11.8 13.3-11.8 5.7 0 10.6 3.7 12.6 8.9h-.6l-.5-.9c-.6-1.2-1.4-2.2-2.3-3.1-5.4-5.5-14.4-5.2-19.5.7" clip-path="url(#SVGID_26_)" id="path273"/><path class="st29" d="M288.7 399.8c0 .1-.1.2-.1.3-2.2 4.7-6.8 8-12.2 8-3.8 0-7.2-1.6-9.6-4.2 5.2 5.2 13.6 5.1 18.8 0 .9-.9 1.7-2 2.3-3.1l.3-.6.1-.3h.4z" clip-path="url(#SVGID_26_)" id="path275"/><path class="st29" d="M318.6 387.3h-29.2c-.7-1.3-1.6-2.5-2.6-3.5-6.1-6.1-16.2-5.9-21.9.8-4.9 5.6-4.9 14.1 0 19.7 5.8 6.6 15.8 6.9 21.9.8 1.1-1.1 1.9-2.3 2.6-3.5h5.6l2.4-2.4 2.4 2.4h18.9l7.1-7.1-7.2-7.2zm-21.2 9.5l-1.3 1.3-.1.1-1.6 1.6h-5.9l-.1.3-.3.6c-.6 1.2-1.4 2.2-2.3 3.1-5.2 5.2-13.6 5.2-18.8.1-.2-.2-.5-.5-.7-.8-2.7-3.1-3.7-7.3-3-11.2.4-2.2 1.4-4.4 3-6.2 5.1-5.9 14.1-6.1 19.5-.7.9.9 1.7 2 2.3 3.1l.5.9h29.5l2 2 3.4 3.4-3.4 3.4-2 2h-17.5l-1.5-1.5-1.7-1.5z" clip-path="url(#SVGID_26_)" id="path277"/><path class="st29" d="M273.7 396.7a3.32 3.32 0 0 1-4.7 0 3.32 3.32 0 0 1 0-4.7c1.3-1.3 3.4-1.3 4.7 0 1.3 1.3 1.3 3.4 0 4.7" clip-path="url(#SVGID_26_)" id="path279"/><path class="st29" clip-path="url(#SVGID_26_)" id="rect281" d="M302 393.5h14.1v1.7H302z"/></g></g></g></g><g id="Artwork_10"><g id="g316"><defs id="defs291"><path id="SVGID_27_" d="M205.5 182.5h15v15h-15z"/></defs><clipPath id="SVGID_28_"><use xlink:href="#SVGID_27_" id="use293" overflow="visible"/></clipPath><g class="st31" clip-path="url(#SVGID_28_)" id="g304"><defs id="defs297"><path id="SVGID_29_" d="M205.5 182.5h15v15h-15z"/></defs><clipPath id="SVGID_30_"><use xlink:href="#SVGID_29_" id="use299" overflow="visible"/></clipPath><path clip-path="url(#SVGID_30_)" id="line302" fill="none" stroke="#000f5e" stroke-width="1.75" stroke-miterlimit="10" d="M205.5 190h15"/></g><g class="st31" clip-path="url(#SVGID_28_)" id="g314"><defs id="defs307"><path id="SVGID_31_" d="M205.5 182.5h15v15h-15z"/></defs><clipPath id="SVGID_32_"><use xlink:href="#SVGID_31_" id="use309" overflow="visible"/></clipPath><path clip-path="url(#SVGID_32_)" id="line312" fill="none" stroke="#000f5e" stroke-width="1.75" stroke-miterlimit="10" d="M213 197.5v-15"/></g></g></g><g id="Artwork_10_1_"><g id="g345"><defs id="defs320"><path id="SVGID_33_" d="M205.5 400.5h15v15h-15z"/></defs><clipPath id="SVGID_34_"><use xlink:href="#SVGID_33_" id="use322" overflow="visible"/></clipPath><g class="st35" clip-path="url(#SVGID_34_)" id="g333"><defs id="defs326"><path id="SVGID_35_" d="M205.5 400.5h15v15h-15z"/></defs><clipPath id="SVGID_36_"><use xlink:href="#SVGID_35_" id="use328" overflow="visible"/></clipPath><path clip-path="url(#SVGID_36_)" id="line331" fill="none" stroke="#000f5e" stroke-width="1.75" stroke-miterlimit="10" d="M205.5 408h15"/></g><g class="st35" clip-path="url(#SVGID_34_)" id="g343"><defs id="defs336"><path id="SVGID_37_" d="M205.5 400.5h15v15h-15z"/></defs><clipPath id="SVGID_38_"><use xlink:href="#SVGID_37_" id="use338" overflow="visible"/></clipPath><path clip-path="url(#SVGID_38_)" id="line341" fill="none" stroke="#000f5e" stroke-width="1.75" stroke-miterlimit="10" d="M213 415.5v-15"/></g></g></g><g id="Artwork_15_1_"><g id="g368"><defs id="defs349"><path id="SVGID_39_" d="M436.2 162.3h50v37h-50z"/></defs><clipPath id="SVGID_40_"><use xlink:href="#SVGID_39_" id="use351" overflow="visible"/></clipPath><g clip-path="url(#SVGID_40_)" id="g366"><defs id="defs355"><path id="SVGID_41_" d="M436.2 162.3h50v37h-50z"/></defs><clipPath id="SVGID_42_"><use xlink:href="#SVGID_41_" id="use357" overflow="visible"/></clipPath><path d="M469.6 188.3c0-.5 0-.9-.1-1.3l2.7-2.3-2.3-3.7-3.2 1c-.8-.7-1.6-1.2-2.6-1.5l-.7-3.1H459l-.7 3.1c-1 .4-1.9.9-2.6 1.5l-3.2-1-2.3 3.7 2.7 2.3c-.1.4-.1.9-.1 1.3 0 .5 0 .9.1 1.3l-2.7 2.3 2.3 3.7 3.2-1c.8.7 1.6 1.2 2.6 1.5l.7 3.1h4.4l.7-3.1c1-.4 1.9-.9 2.6-1.5l3.2 1 2.3-3.7-2.7-2.3c.1-.4.1-.9.1-1.3m-8.4 2.5c-1.7 0-3-1.3-3-3s1.3-3 3-3 3 1.3 3 3-1.3 3-3 3" clip-path="url(#SVGID_42_)" id="path360" fill="#001689"/><path d="M455.6 173.3c0-.5 0-.9-.1-1.3l2.7-2.3-2.3-3.7-3.2 1c-.8-.7-1.6-1.2-2.6-1.5l-.7-3.1H445l-.7 3.1c-1 .4-1.9.9-2.6 1.5l-3.2-1-2.3 3.7 2.7 2.3c-.1.4-.1.9-.1 1.3 0 .5 0 .9.1 1.3l-2.7 2.3 2.3 3.7 3.2-1c.8.7 1.6 1.2 2.6 1.5l.7 3.1h4.4l.7-3.1c1-.4 1.9-.9 2.6-1.5l3.2 1 2.3-3.7-2.7-2.3c.1-.4.1-.9.1-1.3m-8.4 2.5c-1.7 0-3-1.3-3-3s1.3-3 3-3 3 1.3 3 3-1.3 3-3 3" clip-path="url(#SVGID_42_)" id="path362" fill="#69a6ff"/><path d="M483.6 173.3c0-.5 0-.9-.1-1.3l2.7-2.3-2.3-3.7-3.2 1c-.8-.7-1.6-1.2-2.6-1.5l-.7-3.1H473l-.7 3.1c-1 .4-1.9.9-2.6 1.5l-3.2-1-2.3 3.7 2.7 2.3c-.1.4-.1.9-.1 1.3 0 .5 0 .9.1 1.3l-2.7 2.3 2.3 3.7 3.2-1c.8.7 1.6 1.2 2.6 1.5l.7 3.1h4.4l.7-3.1c1-.4 1.9-.9 2.6-1.5l3.2 1 2.3-3.7-2.7-2.3c.1-.4.1-.9.1-1.3m-8.4 2.5c-1.7 0-3-1.3-3-3s1.3-3 3-3 3 1.3 3 3-1.3 3-3 3" clip-path="url(#SVGID_42_)" id="path364" fill="#003bc9"/></g></g></g><g id="Artwork_16"><g id="g391"><defs id="defs372"><path id="SVGID_43_" d="M436 379h50v37h-50z"/></defs><clipPath id="SVGID_44_"><use xlink:href="#SVGID_43_" id="use374" overflow="visible"/></clipPath><g clip-path="url(#SVGID_44_)" id="g389"><defs id="defs378"><path id="SVGID_45_" d="M436 379h50v37h-50z"/></defs><clipPath id="SVGID_46_"><use xlink:href="#SVGID_45_" id="use380" overflow="visible"/></clipPath><path d="M469.4 405c0-.5 0-.9-.1-1.3l2.7-2.3-2.3-3.7-3.2 1c-.8-.7-1.6-1.2-2.6-1.5l-.7-3.1h-4.4l-.7 3.1c-1 .4-1.9.9-2.6 1.5l-3.2-1-2.3 3.7 2.7 2.3c-.1.4-.1.9-.1 1.3 0 .5 0 .9.1 1.3l-2.7 2.3 2.3 3.7 3.2-1c.8.7 1.6 1.2 2.6 1.5l.7 3.1h4.4l.7-3.1c1-.4 1.9-.9 2.6-1.5l3.2 1 2.3-3.7-2.7-2.3c.1-.4.1-.8.1-1.3m-8.4 2.5c-1.7 0-3-1.3-3-3s1.3-3 3-3 3 1.3 3 3-1.3 3-3 3" clip-path="url(#SVGID_46_)" id="path383" fill="#6e177d"/><path d="M455.4 390c0-.5 0-.9-.1-1.3l2.7-2.3-2.3-3.7-3.2 1c-.8-.7-1.6-1.2-2.6-1.5l-.7-3.1h-4.4l-.7 3.1c-1 .4-1.9.9-2.6 1.5l-3.2-1-2.3 3.7 2.7 2.3c-.1.4-.1.9-.1 1.3 0 .5 0 .9.1 1.3l-2.7 2.3 2.3 3.7 3.2-1c.8.7 1.6 1.2 2.6 1.5l.7 3.1h4.4l.7-3.1c1-.4 1.9-.9 2.6-1.5l3.2 1 2.3-3.7-2.7-2.3c.1-.4.1-.8.1-1.3m-8.4 2.5c-1.7 0-3-1.3-3-3s1.3-3 3-3 3 1.3 3 3-1.3 3-3 3" clip-path="url(#SVGID_46_)" id="path385" fill="#b380e0"/><path d="M483.4 390c0-.5 0-.9-.1-1.3l2.7-2.3-2.3-3.7-3.2 1c-.8-.7-1.6-1.2-2.6-1.5l-.7-3.1h-4.4l-.7 3.1c-1 .4-1.9.9-2.6 1.5l-3.2-1-2.3 3.7 2.7 2.3c-.1.4-.1.9-.1 1.3 0 .5 0 .9.1 1.3l-2.7 2.3 2.3 3.7 3.2-1c.8.7 1.6 1.2 2.6 1.5l.7 3.1h4.4l.7-3.1c1-.4 1.9-.9 2.6-1.5l3.2 1 2.3-3.7-2.7-2.3c.1-.4.1-.8.1-1.3m-8.4 2.5c-1.7 0-3-1.3-3-3s1.3-3 3-3 3 1.3 3 3-1.3 3-3 3" clip-path="url(#SVGID_46_)" id="path387" fill="#8747b8"/></g></g></g><g id="g412"><path class="st46" id="line394" d="M349.5 190.5h66"/><g id="g410"><path class="st47" id="line396" d="M353.5 190.5h54.8"/><g id="g404"><g id="g402"><circle class="st0" cx="353.8" cy="190.5" r="3.8" id="circle398"/><path class="st46" d="M353.8 194.8c2.3 0 4.3-1.9 4.3-4.3s-1.9-4.3-4.3-4.3c-2.3 0-4.3 1.9-4.3 4.3s1.9 4.3 4.3 4.3c2.3 0-2.4 0 0 0zm0-7.6c1.8 0 3.3 1.5 3.3 3.3s-1.5 3.3-3.3 3.3c-1.8 0-3.3-1.5-3.3-3.3s1.5-3.3 3.3-3.3c1.8 0-1.8 0 0 0z" id="path400"/></g></g><g id="g408"><path class="st46" id="polygon406" d="M406.9 195.5l8.6-5-8.6-5z"/></g></g></g><g id="g422"><g id="g420"><path class="st47" id="line414" d="M510 189.3h51.3"/><g id="g418"><path class="st46" id="polygon416" d="M559.9 194.2l8.6-4.9-8.6-5z"/></g></g></g><g id="g440"><g id="g438"><path class="st47" id="line424" d="M353.5 407.5h54.8"/><g id="g432"><g id="g430"><circle class="st0" cx="353.8" cy="407.5" r="3.8" id="circle426"/><path class="st46" d="M353.8 411.8c2.3 0 4.3-1.9 4.3-4.3 0-2.3-1.9-4.3-4.3-4.3-2.3 0-4.3 1.9-4.3 4.3 0 2.3 1.9 4.3 4.3 4.3 2.3 0-2.4 0 0 0zm0-7.6c1.8 0 3.3 1.5 3.3 3.3 0 1.8-1.5 3.3-3.3 3.3-1.8 0-3.3-1.5-3.3-3.3 0-1.8 1.5-3.3 3.3-3.3 1.8 0-1.8 0 0 0z" id="path428"/></g></g><g id="g436"><path class="st46" id="polygon434" d="M406.9 412.5l8.6-5-8.6-5z"/></g></g></g><g id="g450"><g id="g448"><path class="st47" id="line442" d="M510 406.3h51.3"/><g id="g446"><path class="st46" id="polygon444" d="M559.9 411.2l8.6-4.9-8.6-5z"/></g></g></g><g id="Artwork_24_2_"><g id="g522"><defs id="defs463"><path id="SVGID_47_" d="M260.5 160.6H325v30h-64.5z"/></defs><clipPath id="SVGID_48_"><use xlink:href="#SVGID_47_" id="use465" overflow="visible"/></clipPath><g clip-path="url(#SVGID_48_)" id="g520"><defs id="defs469"><path id="SVGID_49_" d="M260.5 160.6H325v30h-64.5z"/></defs><clipPath id="SVGID_50_"><use xlink:href="#SVGID_49_" id="use471" overflow="visible"/></clipPath><g class="st52" clip-path="url(#SVGID_50_)" id="g492"><defs id="defs475"><path id="SVGID_51_" d="M260.5 160.6H325v30h-64.5z"/></defs><clipPath id="SVGID_52_"><use xlink:href="#SVGID_51_" id="use477" overflow="visible"/></clipPath><g clip-path="url(#SVGID_52_)" id="g490" opacity=".65"><g id="g488"><defs id="defs481"><path id="SVGID_53_" d="M261.2 161.2h62v28h-62z"/></defs><clipPath id="SVGID_54_"><use xlink:href="#SVGID_53_" id="use483" overflow="visible"/></clipPath><path d="M317.2 169.2h-29.4c-2.2-4.7-7.1-8-12.6-8-7.7 0-14 6.3-14 14s6.3 14 14 14c5.6 0 10.4-3.3 12.6-8h7.4v-2h3v2h19l6-6-6-6z" clip-path="url(#SVGID_54_)" id="path486" fill="#69a6ff"/></g></g></g><path class="st55" clip-path="url(#SVGID_50_)" id="rect494" d="M301.2 176.2h14.1v.1h-14.1z"/><path class="st55" clip-path="url(#SVGID_50_)" id="polygon496" d="M296.7 177.9l1.3 1.3h-2.6z"/><path class="st55" clip-path="url(#SVGID_50_)" id="rect498" d="M301.2 174.7h14.1v1.7h-14.1z"/><g class="st52" clip-path="url(#SVGID_50_)" id="g518"><defs id="defs501"><path id="SVGID_55_" d="M260.5 160.6H325v30h-64.5z"/></defs><clipPath id="SVGID_56_"><use xlink:href="#SVGID_55_" id="use503" overflow="visible"/></clipPath><path class="st56" d="M272.9 173.2c1.3 1.3 1.3 3.4 0 4.7a3.32 3.32 0 0 1-4.7 0 3.32 3.32 0 0 1 0-4.7c1.3-1.3 3.4-1.3 4.7 0" clip-path="url(#SVGID_56_)" id="path506"/><path class="st56" d="M265.4 166.8c-1.6 1.8-2.6 4-3 6.2 1-6.7 6.6-11.8 13.3-11.8 5.7 0 10.6 3.7 12.6 8.9h-.6l-.5-.9c-.6-1.2-1.4-2.2-2.3-3.1-5.4-5.4-14.4-5.2-19.5.7" clip-path="url(#SVGID_56_)" id="path508"/><path class="st56" d="M288 181c0 .1-.1.2-.1.3-2.2 4.7-6.8 8-12.2 8-3.8 0-7.2-1.6-9.6-4.2 5.2 5.2 13.6 5.1 18.8 0 .9-.9 1.7-2 2.3-3.1l.3-.6.1-.3h.4z" clip-path="url(#SVGID_56_)" id="path510"/><path class="st56" d="M317.9 168.5h-29.2c-.7-1.3-1.5-2.5-2.6-3.5-6.1-6.1-16.2-5.9-21.9.8-4.9 5.6-4.9 14.1 0 19.7 5.8 6.6 15.8 6.9 21.9.8 1.1-1.1 1.9-2.3 2.6-3.5h5.6l2.4-2.4 2.3 2.4h18.9l7.1-7.1-7.1-7.2zm-21.2 9.4l-1.3 1.3-.2.2-1.6 1.6h-5.9l-.1.3-.3.6c-.6 1.2-1.4 2.2-2.3 3.1-5.2 5.2-13.6 5.2-18.8.1-.2-.2-.5-.5-.7-.8-2.7-3.1-3.7-7.3-3-11.2v-.1c.4-2.2 1.4-4.4 3-6.2 5.1-5.9 14.1-6.1 19.5-.7.9.9 1.7 2 2.3 3.1l.5.9h29.5l2 2 3.4 3.4-3.4 3.4-2 2h-17.5l-1.5-1.5-1.6-1.5z" clip-path="url(#SVGID_56_)" id="path512"/><path class="st56" d="M272.9 177.9a3.32 3.32 0 0 1-4.7 0 3.32 3.32 0 0 1 0-4.7c1.3-1.3 3.4-1.3 4.7 0 1.4 1.3 1.4 3.4 0 4.7" clip-path="url(#SVGID_56_)" id="path514"/><path class="st56" clip-path="url(#SVGID_56_)" id="rect516" d="M301.2 174.7h14.1v1.7h-14.1z"/></g></g></g></g><g id="Artwork_10_2_"><g id="g551"><defs id="defs526"><path id="SVGID_57_" d="M614.4 294.5h15v15h-15z"/></defs><clipPath id="SVGID_58_"><use xlink:href="#SVGID_57_" id="use528" overflow="visible"/></clipPath><g class="st58" clip-path="url(#SVGID_58_)" id="g539"><defs id="defs532"><path id="SVGID_59_" d="M614.4 294.5h15v15h-15z"/></defs><clipPath id="SVGID_60_"><use xlink:href="#SVGID_59_" id="use534" overflow="visible"/></clipPath><path clip-path="url(#SVGID_60_)" id="line537" fill="none" stroke="#000f5e" stroke-width="1.75" stroke-miterlimit="10" d="M614.4 302h15"/></g><g class="st58" clip-path="url(#SVGID_58_)" id="g549"><defs id="defs542"><path id="SVGID_61_" d="M614.4 294.5h15v15h-15z"/></defs><clipPath id="SVGID_62_"><use xlink:href="#SVGID_61_" id="use544" overflow="visible"/></clipPath><path clip-path="url(#SVGID_62_)" id="line547" fill="none" stroke="#000f5e" stroke-width="1.75" stroke-miterlimit="10" d="M621.9 309.5v-15"/></g></g></g><g id="Artwork_27"><g id="g592"><defs id="defs555"><path id="SVGID_63_" d="M595.2 361.5h53.5v52h-53.5z"/></defs><clipPath id="SVGID_64_"><use xlink:href="#SVGID_63_" id="use557" overflow="visible"/></clipPath><g clip-path="url(#SVGID_64_)" id="g590"><defs id="defs561"><path id="SVGID_65_" d="M595.2 361.5h53.5v52h-53.5z"/></defs><clipPath id="SVGID_66_"><use xlink:href="#SVGID_65_" id="use563" overflow="visible"/></clipPath><path class="st62" d="M638.9 395.9c-.6.8-1.7 1-2.6 1-.5 0-.9-.1-1.4-.1-.4-.1-.9-.2-1.4-.3-1.8-.5-3.5-1.2-5.1-2-3.2-1.7-6.2-3.9-9-6.2-1.4-1.2-2.8-2.4-4.1-3.7-1.3-1.3-2.5-2.7-3.5-4.3-1-1.6-1.9-3.3-2.4-5.1-.1-.5-.2-.9-.3-1.4 0-.5-.1-1-.1-1.5s.1-1 .3-1.5c.1-.2.2-.5.4-.7l.5-.5.2.2c-.4.8-.3 1.6 0 2.4.2.8.6 1.5 1 2.3.8 1.5 1.8 2.9 2.9 4.2 2.2 2.7 4.2 5.5 6.7 8s5.2 4.8 8.1 6.7c1.5 1 3 1.8 4.6 2.5.4.2.8.3 1.2.4.4.1.8.2 1.3.2.8.1 1.7 0 2.4-.6h.3z" clip-path="url(#SVGID_66_)" id="path566"/><path d="M647.2 365.1l-9.2-.3.3.4h-.2l-.4-.4-17.7 17.7.2.2-3.1 3.1c-1.3-.4-2.7-.6-4.2-.6-7.7 0-14 6-14 13.5s6.3 13.5 14 13.5 14-6 14-13.5c0-1.6-.3-3.2-.9-4.6l4.9-4.9-1-1 2.5-2.5 1 1 12.7-12.7.3.4.1-.8.4-.3-.3-.3.6-7.9z" clip-path="url(#SVGID_66_)" id="path568" fill="#cba9e6"/><path class="st64" d="M638.2 363.5l-20.6 20.6c-1.4-.4-2.8-.6-4.4-.6-8.6 0-15.6 7.3-15 16.1.5 7.4 6.5 13.4 13.9 13.9 8.8.6 16.1-6.3 16.1-15 0-1.5-.2-3-.6-4.4l4-4v-3.3h3.3l13.3-13.3v-10h-10zm8.3 9.3l-12.4 12.4h-4.3v4.3l-3.5 3.5-.7.7.3 1c.4 1.3.6 2.6.6 3.9 0 7.7-6.5 13.8-14.3 13.3-6.6-.5-11.9-5.8-12.3-12.3-.5-7.8 5.6-14.3 13.3-14.3 1.3 0 2.6.2 3.9.6l1 .3.7-.7 20.2-20.2h7.6v7.5z" clip-path="url(#SVGID_66_)" id="path570"/><path class="st64" d="M609.7 398.6c1.8 0 3.3 1.5 3.3 3.3 0 1.8-1.5 3.3-3.3 3.3-1.8 0-3.3-1.5-3.3-3.3 0-1.8 1.5-3.3 3.3-3.3" clip-path="url(#SVGID_66_)" id="path572"/><path transform="rotate(-45.001 636.41 375.248)" class="st64" clip-path="url(#SVGID_66_)" id="rect574" d="M629.3 374.4h14.1v1.7h-14.1z"/><path d="M644.2 363.1l-9.2-.3.3.4h-.2l-.4-.4-17.7 17.7.2.2-3.1 3.1c-1.3-.4-2.7-.6-4.2-.6-7.7 0-14 6-14 13.5s6.3 13.5 14 13.5 14-6 14-13.5c0-1.6-.3-3.2-.9-4.6l4.9-4.9-1-1 2.5-2.5 1 1 12.7-12.7.3.4.1-.8.4-.3-.3-.3.6-7.9z" clip-path="url(#SVGID_66_)" id="path576" fill="#9bc1fa"/><path class="st66" d="M635.2 361.5l-20.6 20.6c-1.4-.4-2.8-.6-4.4-.6-8.6 0-15.6 7.3-15 16.1.5 7.4 6.5 13.4 13.9 13.9 8.8.6 16.1-6.3 16.1-15 0-1.5-.2-3-.6-4.4l4-4v-3.3h3.3l13.3-13.3v-10h-10zm8.3 9.3l-12.4 12.4h-4.3v4.3l-3.5 3.5-.7.7.3 1c.4 1.3.6 2.6.6 3.9 0 7.7-6.5 13.8-14.3 13.3-6.6-.5-11.9-5.8-12.3-12.3-.5-7.8 5.6-14.3 13.3-14.3 1.3 0 2.6.2 3.9.6l1 .3.7-.7 20.2-20.2h7.6v7.5z" clip-path="url(#SVGID_66_)" id="path578"/><path class="st66" d="M606.7 396.6c1.8 0 3.3 1.5 3.3 3.3 0 1.8-1.5 3.3-3.3 3.3-1.8 0-3.3-1.5-3.3-3.3 0-1.8 1.5-3.3 3.3-3.3" clip-path="url(#SVGID_66_)" id="path580"/><path transform="rotate(-45.001 633.41 373.248)" class="st66" clip-path="url(#SVGID_66_)" id="rect582" d="M626.3 372.4h14.1v1.7h-14.1z"/><path class="st62" d="M610.2 369.5c.6-.8 1.7-1 2.6-1 .5 0 .9.1 1.4.1.5.1.9.2 1.4.3 1.8.5 3.5 1.2 5.1 2 3.2 1.7 6.2 3.9 9 6.2 1.4 1.2 2.8 2.4 4.1 3.7 1.3 1.3 2.5 2.7 3.5 4.3 1 1.6 1.9 3.3 2.4 5.1.1.5.2.9.3 1.4 0 .5.1 1 .1 1.5s-.1 1-.3 1.5c-.1.2-.2.5-.4.7l-.5.5-.2-.2c.4-.8.3-1.6 0-2.4-.2-.8-.6-1.5-1-2.3-.8-1.5-1.8-2.9-2.9-4.2-2.2-2.7-4.2-5.5-6.7-8s-5.2-4.8-8.2-6.7c-1.5-1-3-1.8-4.6-2.5-.4-.2-.8-.3-1.2-.4-.4-.1-.8-.2-1.3-.2-.8-.1-1.7 0-2.4.6h-.2z" clip-path="url(#SVGID_66_)" id="path584"/><path d="M646.7 405.1c0 3.3-2.5 6-5.5 6s-5.5-2.7-5.5-6 2.5-6 5.5-6 5.5 2.7 5.5 6" clip-path="url(#SVGID_66_)" id="path586" fill="#fff"/><path d="M646.7 397.4c0-4.1-4.4-7.4-8.6-5.4-2.1 1-3.4 3.3-3.4 5.7v2.5c-1.6 1.8-2.4 4.3-1.8 7 .7 3.1 3.1 5.5 6.2 6.1 5.1 1 9.6-2.9 9.6-7.8 0-2-.8-3.9-2-5.3v-2.8zm-10 0c0-2.9 3.4-5.3 6.3-3.2 1.1.8 1.7 2.2 1.7 3.5v.8c-1.2-.7-2.5-1.1-4-1.1s-2.8.4-4 1.1v-1.1zm2.8 12.4l-3.7-3.7 1.4-1.4 2.3 2.3 5.3-5.3 1.4 1.4-6.7 6.7z" clip-path="url(#SVGID_66_)" id="path588" fill="#5aa700"/></g></g></g><g id="Artwork_29"><g id="g635"><defs id="defs596"><path id="SVGID_67_" d="M781.2 147h54.9v52.3h-54.9z"/></defs><clipPath id="SVGID_68_"><use xlink:href="#SVGID_67_" id="use598" overflow="visible"/></clipPath><g clip-path="url(#SVGID_68_)" id="g633"><defs id="defs602"><path id="SVGID_69_" d="M781.2 147h54.9v52.3h-54.9z"/></defs><clipPath id="SVGID_70_"><use xlink:href="#SVGID_69_" id="use604" overflow="visible"/></clipPath><path class="st70" d="M835.8 177.5c-.2 1.3-1.3 2.2-2.3 2.8-1.1.6-2.3 1-3.4 1.3-2.4.6-4.8.8-7.2.9-4.9.1-9.7-.5-14.4-1.5-4.7-1-9.5-2.1-13.9-4.4-2.2-1.2-4.3-2.5-6.1-4.2-.9-.9-1.8-1.8-2.4-2.9-.3-.6-.6-1.2-.7-1.8-.1-.6-.1-1.4.2-1.9l.3.1c0 1.2.6 2.1 1.4 2.9.8.8 1.7 1.5 2.6 2.1 1.9 1.2 4 2.2 6.1 3.2 4.3 1.8 8.6 3.6 13.2 4.8 4.5 1.2 9.2 2.1 13.9 2.3 2.3.1 4.7.1 7-.3 1.2-.2 2.3-.5 3.3-1s2-1.2 2.3-2.3l.1-.1z" clip-path="url(#SVGID_70_)" id="path607"/><path d="M830.1 149l-9.2-.3.3.4h-.2l-.4-.4-17.7 17.7.2.2-3.1 3.1c-1.3-.4-2.7-.6-4.2-.6-7.7 0-14 6-14 13.5s6.3 13.5 14 13.5 14-6 14-13.5c0-1.6-.3-3.2-.9-4.6l4.9-4.9-1-1 2.5-2.5 1 1 12.7-12.7.3.4.1-.8.3-.3-.3-.3.7-7.9z" clip-path="url(#SVGID_70_)" id="path609" fill="#9bc1fa"/><path class="st72" d="M821.2 147.4L800.5 168c-1.4-.4-2.8-.6-4.4-.6-8.6 0-15.6 7.3-15 16.1.5 7.4 6.5 13.4 13.9 13.9 8.8.6 16.1-6.3 16.1-15 0-1.5-.2-3-.6-4.4l4-4v-3.3h3.3l13.3-13.3v-10h-9.9zm8.3 9.3L817.2 169h-4.3v4.3l-3.5 3.5-.7.7.3 1c.4 1.3.6 2.6.6 3.9 0 7.7-6.5 13.8-14.3 13.3-6.6-.5-11.9-5.8-12.3-12.3-.5-7.8 5.6-14.3 13.3-14.3 1.3 0 2.6.2 3.9.6l1 .3.7-.7 20.2-20.2h7.6v7.6z" clip-path="url(#SVGID_70_)" id="path611"/><path class="st72" d="M792.7 182.5c1.8 0 3.3 1.5 3.3 3.3 0 1.8-1.5 3.3-3.3 3.3-1.8 0-3.3-1.5-3.3-3.3 0-1.8 1.5-3.3 3.3-3.3" clip-path="url(#SVGID_70_)" id="path613"/><path transform="rotate(-45.001 819.395 159.136)" class="st72" clip-path="url(#SVGID_70_)" id="rect615" d="M812.3 158.3h14.1v1.7h-14.1z"/><path class="st73" clip-path="url(#SVGID_70_)" id="polygon617" d="M826.9 160v36h-31v-48h18v12z"/><path class="st72" d="M814.5 147h-20v50h33.3v-36.7L814.5 147zm11.7 48.3h-30v-46.7h16.7V162h13.3v33.3z" clip-path="url(#SVGID_70_)" id="path619"/><path class="st72" clip-path="url(#SVGID_70_)" id="rect621" d="M801.2 167h20v1.7h-20z"/><path class="st72" clip-path="url(#SVGID_70_)" id="rect623" d="M801.2 170.3h20v1.7h-20z"/><path class="st72" clip-path="url(#SVGID_70_)" id="rect625" d="M801.2 173.7h10v1.7h-10z"/><path class="st70" d="M785.3 165.7c.2-1.3 1.3-2.2 2.3-2.8 1.1-.6 2.3-1 3.4-1.3 2.4-.6 4.8-.8 7.2-.9 4.9-.1 9.7.5 14.4 1.5 4.7 1 9.5 2.1 13.9 4.4 2.2 1.2 4.3 2.5 6.1 4.2.9.9 1.8 1.8 2.4 2.9.3.6.6 1.2.7 1.8.1.6.1 1.3-.2 1.9l-.3-.1c0-1.2-.6-2.1-1.4-2.9-.8-.8-1.7-1.5-2.6-2.1-1.9-1.2-4-2.2-6.1-3.2-4.3-1.8-8.6-3.6-13.2-4.8-4.5-1.2-9.2-2.1-13.9-2.3-2.3-.1-4.7-.1-7 .3-1.2.2-2.3.5-3.3 1s-2 1.2-2.3 2.3l-.1.1z" clip-path="url(#SVGID_70_)" id="path627"/><path class="st73" d="M827.9 191c0 3.3-2.5 6-5.5 6s-5.5-2.7-5.5-6 2.5-6 5.5-6 5.5 2.7 5.5 6" clip-path="url(#SVGID_70_)" id="path629"/><path d="M828.3 183.3c0-4.1-4.4-7.4-8.6-5.4-2.1 1-3.4 3.3-3.4 5.7v2.5c-1.6 1.8-2.4 4.3-1.8 7 .7 3.1 3.1 5.5 6.2 6.1 5.1 1 9.6-2.9 9.6-7.8 0-2-.8-3.9-2-5.3v-2.8zm-10 0c0-2.9 3.4-5.3 6.3-3.2 1.1.8 1.7 2.2 1.7 3.5v.8c-1.2-.7-2.5-1.1-4-1.1s-2.8.4-4 1.1v-1.1zm2.8 12.4l-3.7-3.7 1.4-1.4 2.3 2.3 5.3-5.3 1.4 1.4-6.7 6.7z" clip-path="url(#SVGID_70_)" id="path631" fill="#5aa700"/></g></g></g><g id="g654"><g id="g652"><path class="st47" d="M810.7 259.9c0 13.4.1 40.8.1 40.8l-138.8-.3" id="path638"/><g id="g642"><path class="st46" id="polygon640" d="M805.7 261.4l4.9-8.7 5 8.6z"/></g><g id="g650"><g id="g648"><ellipse transform="rotate(-89.86 672.257 300.385)" class="st0" cx="672.3" cy="300.4" rx="3.8" ry="3.8" id="ellipse644"/><path class="st46" d="M672.3 296.1c2.3 0 4.3 1.9 4.2 4.3 0 2.3-1.9 4.3-4.3 4.2-2.3 0-4.3-1.9-4.2-4.3 0-2.3 1.9-4.2 4.3-4.2 2.3 0-2.4 0 0 0zm0 7.5c1.8 0 3.3-1.5 3.3-3.3 0-1.8-1.5-3.3-3.3-3.3-1.8 0-3.3 1.5-3.3 3.3 0 1.9 1.5 3.3 3.3 3.3 1.7.1-1.8 0 0 0z" id="path646"/></g></g></g></g><g id="g680"><g id="g678"><path class="st75" id="line656" d="M137.4 468.7v.5"/><path id="line658" fill="none" stroke="#b380e0" stroke-miterlimit="10" stroke-dasharray="1.0169,1.0169" d="M137.4 470.2v48.3"/><path class="st75" id="polyline660" d="M137.4 519v.5l.1-.1h.4"/><path id="line662" fill="none" stroke="#b380e0" stroke-miterlimit="10" stroke-dasharray="1.0002,1.0002" d="M138.9 519.4h763.6"/><path class="st75" id="polyline664" d="M903 519.4l.5.1v-.5"/><path id="line666" fill="none" stroke="#b380e0" stroke-miterlimit="10" stroke-dasharray=".9976,.9976" d="M903.5 518V149.4"/><path class="st75" id="polyline668" d="M903.5 148.9v-.5h-.5"/><path class="st79" id="line670" d="M902 148.4h-69.5"/><path class="st75" id="line672" d="M832 148.4h-.5"/><g id="g676"><path class="st80" id="polygon674" d="M132.4 470.1l5-8.6 5 8.6z"/></g></g></g><path d="M876.5 467h-150c-5.8 0-10.5-4.7-10.5-10.5v-70c0-5.8 4.7-10.5 10.5-10.5h150c5.8 0 10.5 4.7 10.5 10.5v70c0 5.8-4.7 10.5-10.5 10.5z" id="path682" opacity=".15" fill="#b380e0"/><g id="g692"><g id="g690"><path class="st79" id="line684" d="M875.1 400.5h28.4"/><g id="g688"><circle class="st80" cx="875.3" cy="400.5" r="3.8" id="circle686"/></g></g></g><g id="g702"><g id="g700"><path id="line694" fill="none" stroke="#a71c71" stroke-miterlimit="10" stroke-dasharray="1,1" d="M292.5 253v106.8"/><g id="g698"><path class="st46" id="polygon696" d="M287.5 358.4l5 8.6 5-8.6z"/></g></g></g></g><g id="Text"><text id="text709" x="565.503" y="438.896">DEK impacchettata</text><text id="text715" x="431.281" y="221.896">Algoritmo AES</text><text transform="translate(255.347 438.896)" id="text721"><tspan x="0" y="0" class="st83 st84" id="tspan717">DEK da Cloud</tspan><tspan x="2.4" y="13.2" class="st83 st84" id="tspan719">Object Storage</tspan></text><text transform="translate(109.115 438.895)" id="text727"><tspan x="0" y="0" class="st83 st84" id="tspan723">Chiave root in</tspan><tspan x="-1.3" y="13.2" class="st83 st84" id="tspan725">Key Protect</tspan></text><text transform="translate(70.717 324.375)" class="st85 st86" id="text729">Key Protect</text><text id="text735" x="584.758" y="221.896"><tspan x="584.758" y="221.896" class="st83 st84" id="tspan731" font-size="11" font-family="IBMPlexSans">Dati crittografati</tspan></text><text id="text788" x="586.758" y="221.896"><tspan x="586.758" y="221.896" class="st83 st84" id="tspan790" font-size="11" font-family="IBMPlexSans"></tspan></text><text id="text741" x="435.281" y="438.896"><tspan x="435.281" y="438.896" class="st83 st84" id="tspan737" font-size="11" font-family="IBMPlexSans">Algoritmo AES</tspan></text><text id="text747" x="238.405" y="221.896"><tspan x="238.405" y="221.896" class="st83 st84" id="tspan743" font-size="11" font-family="IBMPlexSans">DEK (data encryption </tspan><tspan x="254.805" y="235.096" class="st83 st84" id="tspan745" font-size="11" font-family="IBMPlexSans">key)</tspan></text><text transform="translate(104.304 221.896)" id="text753"><tspan x="0" y="0" class="st83 st84" id="tspan749" font-size="11" font-family="IBMPlexSans">Dati decrittografati</tspan></text><text transform="translate(70.717 107.376)" class="st85 st86" id="text755">Cloud Object Storage</text><text transform="translate(49 63)" id="text757" font-size="16" font-family="IBMPlexSans-Bold" fill="#272727">Crittografia envelope</text><text transform="translate(774.421 221.896)" id="text763"><tspan x="0" y="0" class="st85 st84" id="tspan759">Dati impacchettati </tspan><tspan x="11" y="13.2" class="st85 st84" id="tspan761">nell&apos;archiviazione</tspan></text><text id="text773" x="720.612" y="417.398"><tspan x="720.612" y="417.398" class="st83 st84" id="tspan765" font-size="11" font-family="IBMPlexSans">Le chiavi root in Key Protect </tspan><tspan x="783.312" y="417.398" class="st85 st84" id="tspan767" font-size="11" font-family="IBMPlexSans-SemiBold"> </tspan><tspan x="720.612" y="430.598" class="st83 st84" id="tspan769" font-size="11" font-family="IBMPlexSans">proteggono i dati archiviati in </tspan><tspan x="720.612" y="443.798" class="st85 st84" id="tspan771" font-size="11" font-family="IBMPlexSans-SemiBold">Cloud Object Storage</tspan></text></g></g></switch></svg>