<svg xmlns="http://www.w3.org/2000/svg" xmlns:xlink="http://www.w3.org/1999/xlink" viewBox="0 0 1000 559"><style>.st0{fill:#fff}.st1,.st2{stroke:#d8d8d8}.st1{fill:none;stroke-miterlimit:10}.st2{stroke-dasharray:3.0033,2.0022}.st2,.st3,.st5,.st6,.st9{fill:none;stroke-miterlimit:10}.st3{stroke-dasharray:3,2;stroke:#d8d8d8}.st5,.st6,.st9{stroke:#000f5e}.st6,.st9{stroke-dasharray:3,2}.st9{stroke-dasharray:3.017,2.0114}.st11{clip-path:url(#SVGID_2_);fill:#000f5e}.st18{clip-path:url(#SVGID_10_);fill:#6e177d}.st20{clip-path:url(#SVGID_14_);fill:#000f5e}.st25,.st28,.st29{clip-path:url(#SVGID_20_)}.st28,.st29{fill:#000f5e}.st29{clip-path:url(#SVGID_26_)}.st31{clip-path:url(#SVGID_28_)}.st35{clip-path:url(#SVGID_34_)}.st46{fill:#a71c71}.st47{fill:none;stroke:#a71c71;stroke-miterlimit:10}.st52,.st55,.st56{clip-path:url(#SVGID_50_)}.st55,.st56{fill:#000f5e}.st56{clip-path:url(#SVGID_56_)}.st58{clip-path:url(#SVGID_58_)}.st62,.st64,.st66{clip-path:url(#SVGID_66_);fill:#efc100}.st64,.st66{fill:#6e177d}.st66{fill:#000f5e}.st70,.st72,.st73{clip-path:url(#SVGID_70_);fill:#efc100}.st72,.st73{fill:#000f5e}.st73{fill:#fff}.st75,.st79{fill:none;stroke:#b380e0;stroke-miterlimit:10}.st79{stroke-dasharray:1,1}.st80{fill:#b380e0}.st83{font-family:&apos;IBMPlexSans&apos;}.st84{font-size:11px}.st85{font-family:&apos;IBMPlexSans-SemiBold&apos;}.st86{font-size:12px}</style><switch><g><g id="Visual"><path class="st0" d="M48.5 83.5h901v200h-901z"/><path class="st1" d="M949.5 282v1.5H948"/><path class="st2" d="M946 283.5H51"/><path class="st1" d="M50 283.5h-1.5V282"/><path class="st3" d="M48.5 280V86"/><path class="st1" d="M48.5 85v-1.5H50"/><path class="st2" d="M52 83.5h895"/><path class="st1" d="M948 83.5h1.5V85"/><path class="st3" d="M949.5 87v194"/><path class="st0" d="M48.5 300.5h901v200h-901z"/><path class="st1" d="M949.5 499v1.5H948"/><path class="st2" d="M946 500.5H51"/><path class="st1" d="M50 500.5h-1.5V499"/><path class="st3" d="M48.5 497V303"/><path class="st1" d="M48.5 302v-1.5H50"/><path class="st2" d="M52 300.5h895"/><path class="st1" d="M948 300.5h1.5v1.5"/><path class="st3" d="M949.5 304v194"/><path fill="#edf5ff" d="M69.5 123.5h300v140h-300z"/><path class="st5" d="M369.5 262v1.5H368"/><path class="st6" d="M366 263.5H72"/><path class="st5" d="M71 263.5h-1.5V262"/><path class="st6" d="M69.5 260V126"/><path class="st5" d="M69.5 125v-1.5H71"/><path class="st6" d="M73 123.5h294"/><path class="st5" d="M368 123.5h1.5v1.5"/><path class="st6" d="M369.5 127v134"/><g><path fill="#f8f4f2" d="M69.5 340.5h300v140h-300z"/><path class="st5" d="M369.5 479v1.5H368"/><path class="st6" d="M366 480.5H72"/><path class="st5" d="M71 480.5h-1.5V479"/><path class="st6" d="M69.5 477V343"/><path class="st5" d="M69.5 342v-1.5H71"/><path class="st6" d="M73 340.5h294"/><path class="st5" d="M368 340.5h1.5v1.5"/><path class="st6" d="M369.5 344v134"/></g><g><path fill="#f4f4f4" d="M547.5 123.5h140v357h-140z"/><path class="st5" d="M686 123.5h1.5v1.5"/><path class="st9" d="M687.5 127v351"/><path class="st5" d="M687.5 479v1.5H686"/><path class="st6" d="M684 480.5H550"/><path class="st5" d="M549 480.5h-1.5V479"/><path class="st9" d="M547.5 477V126"/><path class="st5" d="M547.5 125v-1.5h1.5"/><path class="st6" d="M551 123.5h134"/></g><g id="Artwork_11"><defs><path id="SVGID_1_" d="M120 147h35.8v52.3H120z"/></defs><clipPath id="SVGID_2_"><use xlink:href="#SVGID_1_" overflow="visible"/></clipPath><path clip-path="url(#SVGID_2_)" fill="#fff" d="M138.4 160v-12h-17v48h31v-36z"/><path class="st11" d="M121.7 148.7h16.7V162h13.3v33.3h-30v-46.6zM120 147v50h33.3v-36.7L140 147h-20z"/><path class="st11" d="M126.7 167h20v1.7h-20zM126.7 170.3h20v1.7h-20zM126.7 173.7h10v1.7h-10z"/><g clip-path="url(#SVGID_2_)"><defs><path id="SVGID_3_" d="M120 147h35.8v52.3H120z"/></defs><clipPath id="SVGID_4_"><use xlink:href="#SVGID_3_" overflow="visible"/></clipPath><path d="M149.7 183.5c-2.2-.5-4.2-.1-5.9.8v-.8c0-1.3.5-2.5 1.5-3.3 1.9-1.5 4-1.1 5.3.2l1.4-1.4c-1.7-1.7-4.4-2.4-7-1.1-2 1.1-3.2 3.2-3.2 5.5v2.5c-1.6 1.8-2.4 4.3-1.8 7 .7 3.1 3.2 5.5 6.2 6.1 5.6 1.1 10.5-3.8 9.4-9.4-.5-2.9-2.9-5.4-5.9-6.1m2 10.1l-1.4 1.4-2.3-2.3-2.3 2.3-1.4-1.4 2.3-2.3-2.3-2.3 1.4-1.4 2.3 2.3 2.3-2.3 1.4 1.4-2.3 2.3 2.3 2.3z" clip-path="url(#SVGID_4_)" fill="#db2663"/></g></g><g id="Artwork_23_1_"><defs><path id="SVGID_5_" d="M105.4 379.5h64.5v30h-64.5z"/></defs><clipPath id="SVGID_6_"><use xlink:href="#SVGID_5_" overflow="visible"/></clipPath><g clip-path="url(#SVGID_6_)"><defs><path id="SVGID_7_" d="M105.4 379.5h64.5v30h-64.5z"/></defs><clipPath id="SVGID_8_"><use xlink:href="#SVGID_7_" overflow="visible"/></clipPath><g clip-path="url(#SVGID_8_)"><defs><path id="SVGID_9_" d="M105.4 379.5h64.5v30h-64.5z"/></defs><clipPath id="SVGID_10_"><use xlink:href="#SVGID_9_" overflow="visible"/></clipPath><g opacity=".65" clip-path="url(#SVGID_10_)"><defs><path id="SVGID_11_" d="M106.2 380.2h62v28h-62z"/></defs><clipPath id="SVGID_12_"><use xlink:href="#SVGID_11_" overflow="visible"/></clipPath><path d="M162.2 388.2h-29.4c-2.2-4.7-7.1-8-12.6-8-7.7 0-14 6.3-14 14s6.3 14 14 14c5.6 0 10.4-3.3 12.6-8h7.4v-2h3v2h19l6-6-6-6z" clip-path="url(#SVGID_12_)" fill="#b380e0"/></g><path class="st18" d="M162.9 387.4h-29.2c-.7-1.3-1.5-2.5-2.6-3.5-6.1-6.1-16.2-5.8-21.9.8-4.9 5.6-4.9 14.1 0 19.7 5.8 6.6 15.8 6.9 21.9.8 1.1-1.1 1.9-2.3 2.6-3.5h5.6l2.4-2.4 2.4 2.4H163l7.1-7.1-7.2-7.2zm-.7 12.5h-17.5l-1.9-1.9-1.2-1.2-1.2 1.2-1.9 1.9h-5.9l-.5.9c-.6 1.2-1.4 2.2-2.3 3.1-5.4 5.4-14.4 5.2-19.5-.7-4.3-5-4.3-12.5 0-17.5 5.1-5.9 14.1-6.1 19.5-.7.9.9 1.7 2 2.3 3.1l.5.9h29.5l5.4 5.4-5.3 5.5z"/><path class="st18" d="M117.9 392.1c1.3 1.3 1.3 3.4 0 4.7-1.3 1.3-3.4 1.3-4.7 0s-1.3-3.4 0-4.7 3.4-1.3 4.7 0M146.2 393.6h14.1v1.7h-14.1z"/></g></g></g><g id="Artwork_12_1_"><defs><path id="SVGID_13_" d="M604.1 147h35.8v52.3h-35.8z"/></defs><clipPath id="SVGID_14_"><use xlink:href="#SVGID_13_" overflow="visible"/></clipPath><path clip-path="url(#SVGID_14_)" fill="#fff" d="M636.4 160v36h-31v-48h18v12z"/><path class="st20" d="M605.7 148.7h16.7V162h13.3v33.3h-30v-46.6zm-1.6-1.7v50h33.3v-36.7L624.1 147h-20z"/><path class="st20" d="M610.7 167h20v1.7h-20zM610.7 170.3h20v1.7h-20zM610.7 173.7h10v1.7h-10z"/><g clip-path="url(#SVGID_14_)"><defs><path id="SVGID_15_" d="M604.1 147h35.8v52.3h-35.8z"/></defs><clipPath id="SVGID_16_"><use xlink:href="#SVGID_15_" overflow="visible"/></clipPath><path d="M637.4 191c0 3.3-2.5 6-5.5 6s-5.5-2.7-5.5-6 2.5-6 5.5-6c3.1 0 5.5 2.7 5.5 6" clip-path="url(#SVGID_16_)" fill="#fff"/><path d="M637.8 183.3c0-4.1-4.4-7.4-8.6-5.4-2.1 1-3.4 3.3-3.4 5.7v2.5c-1.6 1.8-2.4 4.3-1.8 7 .7 3.1 3.1 5.5 6.2 6.1 5.1 1 9.6-2.9 9.6-7.8 0-2-.8-3.9-2-5.3v-2.8zm-10 0c0-2.9 3.4-5.3 6.3-3.2 1.1.8 1.7 2.2 1.7 3.5v.8c-1.2-.7-2.5-1.1-4-1.1s-2.8.4-4 1.1v-1.1zm2.9 12.4L627 192l1.4-1.4 2.3 2.3 5.3-5.3 1.4 1.4-6.7 6.7z" clip-path="url(#SVGID_16_)" fill="#5aa700"/></g></g><g id="Artwork_24_1_"><defs><path id="SVGID_17_" d="M261.2 379.4h64.5v30h-64.5z"/></defs><clipPath id="SVGID_18_"><use xlink:href="#SVGID_17_" overflow="visible"/></clipPath><g clip-path="url(#SVGID_18_)"><defs><path id="SVGID_19_" d="M261.2 379.4h64.5v30h-64.5z"/></defs><clipPath id="SVGID_20_"><use xlink:href="#SVGID_19_" overflow="visible"/></clipPath><g class="st25"><defs><path id="SVGID_21_" d="M261.2 379.4h64.5v30h-64.5z"/></defs><clipPath id="SVGID_22_"><use xlink:href="#SVGID_21_" overflow="visible"/></clipPath><g opacity=".65" clip-path="url(#SVGID_22_)"><defs><path id="SVGID_23_" d="M261.9 380.1h62v28h-62z"/></defs><clipPath id="SVGID_24_"><use xlink:href="#SVGID_23_" overflow="visible"/></clipPath><path d="M317.9 388.1h-29.4c-2.2-4.7-7.1-8-12.6-8-7.7 0-14 6.3-14 14s6.3 14 14 14c5.6 0 10.4-3.3 12.6-8h7.4v-2h3v2h19l6-6-6-6z" clip-path="url(#SVGID_24_)" fill="#69a6ff"/></g></g><path class="st28" d="M302 395.1h14.1v.1H302zM297.4 396.8l1.3 1.3h-2.6z"/><path class="st28" d="M302 393.5h14.1v1.7H302z"/><g class="st25"><defs><path id="SVGID_25_" d="M261.2 379.4h64.5v30h-64.5z"/></defs><clipPath id="SVGID_26_"><use xlink:href="#SVGID_25_" overflow="visible"/></clipPath><path class="st29" d="M273.7 392c1.3 1.3 1.3 3.4 0 4.7a3.32 3.32 0 0 1-4.7 0 3.32 3.32 0 0 1 0-4.7c1.3-1.3 3.4-1.3 4.7 0"/><path class="st29" d="M266.1 385.7c-1.6 1.8-2.6 4-3 6.2 1-6.7 6.6-11.8 13.3-11.8 5.7 0 10.6 3.7 12.6 8.9h-.6l-.5-.9c-.6-1.2-1.4-2.2-2.3-3.1-5.4-5.5-14.4-5.2-19.5.7M288.7 399.8c0 .1-.1.2-.1.3-2.2 4.7-6.8 8-12.2 8-3.8 0-7.2-1.6-9.6-4.2 5.2 5.2 13.6 5.1 18.8 0 .9-.9 1.7-2 2.3-3.1l.3-.6.1-.3h.4z"/><path class="st29" d="M318.6 387.3h-29.2c-.7-1.3-1.6-2.5-2.6-3.5-6.1-6.1-16.2-5.9-21.9.8-4.9 5.6-4.9 14.1 0 19.7 5.8 6.6 15.8 6.9 21.9.8 1.1-1.1 1.9-2.3 2.6-3.5h5.6l2.4-2.4 2.4 2.4h18.9l7.1-7.1-7.2-7.2zm-21.2 9.5l-1.3 1.3-.1.1-1.6 1.6h-5.9l-.1.3-.3.6c-.6 1.2-1.4 2.2-2.3 3.1-5.2 5.2-13.6 5.2-18.8.1-.2-.2-.5-.5-.7-.8-2.7-3.1-3.7-7.3-3-11.2.4-2.2 1.4-4.4 3-6.2 5.1-5.9 14.1-6.1 19.5-.7.9.9 1.7 2 2.3 3.1l.5.9h29.5l2 2 3.4 3.4-3.4 3.4-2 2h-17.5l-1.5-1.5-1.7-1.5z"/><path class="st29" d="M273.7 396.7a3.32 3.32 0 0 1-4.7 0 3.32 3.32 0 0 1 0-4.7c1.3-1.3 3.4-1.3 4.7 0 1.3 1.3 1.3 3.4 0 4.7M302 393.5h14.1v1.7H302z"/></g></g></g><g id="Artwork_10"><defs><path id="SVGID_27_" d="M205.5 182.5h15v15h-15z"/></defs><clipPath id="SVGID_28_"><use xlink:href="#SVGID_27_" overflow="visible"/></clipPath><g class="st31"><defs><path id="SVGID_29_" d="M205.5 182.5h15v15h-15z"/></defs><clipPath id="SVGID_30_"><use xlink:href="#SVGID_29_" overflow="visible"/></clipPath><path clip-path="url(#SVGID_30_)" fill="none" stroke="#000f5e" stroke-width="1.75" stroke-miterlimit="10" d="M205.5 190h15"/></g><g class="st31"><defs><path id="SVGID_31_" d="M205.5 182.5h15v15h-15z"/></defs><clipPath id="SVGID_32_"><use xlink:href="#SVGID_31_" overflow="visible"/></clipPath><path clip-path="url(#SVGID_32_)" fill="none" stroke="#000f5e" stroke-width="1.75" stroke-miterlimit="10" d="M213 197.5v-15"/></g></g><g id="Artwork_10_1_"><defs><path id="SVGID_33_" d="M205.5 400.5h15v15h-15z"/></defs><clipPath id="SVGID_34_"><use xlink:href="#SVGID_33_" overflow="visible"/></clipPath><g class="st35"><defs><path id="SVGID_35_" d="M205.5 400.5h15v15h-15z"/></defs><clipPath id="SVGID_36_"><use xlink:href="#SVGID_35_" overflow="visible"/></clipPath><path clip-path="url(#SVGID_36_)" fill="none" stroke="#000f5e" stroke-width="1.75" stroke-miterlimit="10" d="M205.5 408h15"/></g><g class="st35"><defs><path id="SVGID_37_" d="M205.5 400.5h15v15h-15z"/></defs><clipPath id="SVGID_38_"><use xlink:href="#SVGID_37_" overflow="visible"/></clipPath><path clip-path="url(#SVGID_38_)" fill="none" stroke="#000f5e" stroke-width="1.75" stroke-miterlimit="10" d="M213 415.5v-15"/></g></g><g id="Artwork_15_1_"><defs><path id="SVGID_39_" d="M436.2 162.3h50v37h-50z"/></defs><clipPath id="SVGID_40_"><use xlink:href="#SVGID_39_" overflow="visible"/></clipPath><g clip-path="url(#SVGID_40_)"><defs><path id="SVGID_41_" d="M436.2 162.3h50v37h-50z"/></defs><clipPath id="SVGID_42_"><use xlink:href="#SVGID_41_" overflow="visible"/></clipPath><path d="M469.6 188.3c0-.5 0-.9-.1-1.3l2.7-2.3-2.3-3.7-3.2 1c-.8-.7-1.6-1.2-2.6-1.5l-.7-3.1H459l-.7 3.1c-1 .4-1.9.9-2.6 1.5l-3.2-1-2.3 3.7 2.7 2.3c-.1.4-.1.9-.1 1.3 0 .5 0 .9.1 1.3l-2.7 2.3 2.3 3.7 3.2-1c.8.7 1.6 1.2 2.6 1.5l.7 3.1h4.4l.7-3.1c1-.4 1.9-.9 2.6-1.5l3.2 1 2.3-3.7-2.7-2.3c.1-.4.1-.9.1-1.3m-8.4 2.5c-1.7 0-3-1.3-3-3s1.3-3 3-3 3 1.3 3 3-1.3 3-3 3" clip-path="url(#SVGID_42_)" fill="#001689"/><path d="M455.6 173.3c0-.5 0-.9-.1-1.3l2.7-2.3-2.3-3.7-3.2 1c-.8-.7-1.6-1.2-2.6-1.5l-.7-3.1H445l-.7 3.1c-1 .4-1.9.9-2.6 1.5l-3.2-1-2.3 3.7 2.7 2.3c-.1.4-.1.9-.1 1.3 0 .5 0 .9.1 1.3l-2.7 2.3 2.3 3.7 3.2-1c.8.7 1.6 1.2 2.6 1.5l.7 3.1h4.4l.7-3.1c1-.4 1.9-.9 2.6-1.5l3.2 1 2.3-3.7-2.7-2.3c.1-.4.1-.9.1-1.3m-8.4 2.5c-1.7 0-3-1.3-3-3s1.3-3 3-3 3 1.3 3 3-1.3 3-3 3" clip-path="url(#SVGID_42_)" fill="#69a6ff"/><path d="M483.6 173.3c0-.5 0-.9-.1-1.3l2.7-2.3-2.3-3.7-3.2 1c-.8-.7-1.6-1.2-2.6-1.5l-.7-3.1H473l-.7 3.1c-1 .4-1.9.9-2.6 1.5l-3.2-1-2.3 3.7 2.7 2.3c-.1.4-.1.9-.1 1.3 0 .5 0 .9.1 1.3l-2.7 2.3 2.3 3.7 3.2-1c.8.7 1.6 1.2 2.6 1.5l.7 3.1h4.4l.7-3.1c1-.4 1.9-.9 2.6-1.5l3.2 1 2.3-3.7-2.7-2.3c.1-.4.1-.9.1-1.3m-8.4 2.5c-1.7 0-3-1.3-3-3s1.3-3 3-3 3 1.3 3 3-1.3 3-3 3" clip-path="url(#SVGID_42_)" fill="#003bc9"/></g></g><g id="Artwork_16"><defs><path id="SVGID_43_" d="M436 379h50v37h-50z"/></defs><clipPath id="SVGID_44_"><use xlink:href="#SVGID_43_" overflow="visible"/></clipPath><g clip-path="url(#SVGID_44_)"><defs><path id="SVGID_45_" d="M436 379h50v37h-50z"/></defs><clipPath id="SVGID_46_"><use xlink:href="#SVGID_45_" overflow="visible"/></clipPath><path d="M469.4 405c0-.5 0-.9-.1-1.3l2.7-2.3-2.3-3.7-3.2 1c-.8-.7-1.6-1.2-2.6-1.5l-.7-3.1h-4.4l-.7 3.1c-1 .4-1.9.9-2.6 1.5l-3.2-1-2.3 3.7 2.7 2.3c-.1.4-.1.9-.1 1.3 0 .5 0 .9.1 1.3l-2.7 2.3 2.3 3.7 3.2-1c.8.7 1.6 1.2 2.6 1.5l.7 3.1h4.4l.7-3.1c1-.4 1.9-.9 2.6-1.5l3.2 1 2.3-3.7-2.7-2.3c.1-.4.1-.8.1-1.3m-8.4 2.5c-1.7 0-3-1.3-3-3s1.3-3 3-3 3 1.3 3 3-1.3 3-3 3" clip-path="url(#SVGID_46_)" fill="#6e177d"/><path d="M455.4 390c0-.5 0-.9-.1-1.3l2.7-2.3-2.3-3.7-3.2 1c-.8-.7-1.6-1.2-2.6-1.5l-.7-3.1h-4.4l-.7 3.1c-1 .4-1.9.9-2.6 1.5l-3.2-1-2.3 3.7 2.7 2.3c-.1.4-.1.9-.1 1.3 0 .5 0 .9.1 1.3l-2.7 2.3 2.3 3.7 3.2-1c.8.7 1.6 1.2 2.6 1.5l.7 3.1h4.4l.7-3.1c1-.4 1.9-.9 2.6-1.5l3.2 1 2.3-3.7-2.7-2.3c.1-.4.1-.8.1-1.3m-8.4 2.5c-1.7 0-3-1.3-3-3s1.3-3 3-3 3 1.3 3 3-1.3 3-3 3" clip-path="url(#SVGID_46_)" fill="#b380e0"/><path d="M483.4 390c0-.5 0-.9-.1-1.3l2.7-2.3-2.3-3.7-3.2 1c-.8-.7-1.6-1.2-2.6-1.5l-.7-3.1h-4.4l-.7 3.1c-1 .4-1.9.9-2.6 1.5l-3.2-1-2.3 3.7 2.7 2.3c-.1.4-.1.9-.1 1.3 0 .5 0 .9.1 1.3l-2.7 2.3 2.3 3.7 3.2-1c.8.7 1.6 1.2 2.6 1.5l.7 3.1h4.4l.7-3.1c1-.4 1.9-.9 2.6-1.5l3.2 1 2.3-3.7-2.7-2.3c.1-.4.1-.8.1-1.3m-8.4 2.5c-1.7 0-3-1.3-3-3s1.3-3 3-3 3 1.3 3 3-1.3 3-3 3" clip-path="url(#SVGID_46_)" fill="#8747b8"/></g></g><g><path class="st46" d="M349.5 190.5h66"/><path class="st47" d="M353.5 190.5h54.8"/><circle class="st0" cx="353.8" cy="190.5" r="3.8"/><path class="st46" d="M353.8 194.8c2.3 0 4.3-1.9 4.3-4.3s-1.9-4.3-4.3-4.3c-2.3 0-4.3 1.9-4.3 4.3s1.9 4.3 4.3 4.3c2.3 0-2.4 0 0 0zm0-7.6c1.8 0 3.3 1.5 3.3 3.3s-1.5 3.3-3.3 3.3c-1.8 0-3.3-1.5-3.3-3.3s1.5-3.3 3.3-3.3c1.8 0-1.8 0 0 0z"/><g><path class="st46" d="M406.9 195.5l8.6-5-8.6-5z"/></g></g><g><path class="st47" d="M510 189.3h51.3"/><path class="st46" d="M559.9 194.2l8.6-4.9-8.6-5z"/></g><g><path class="st47" d="M353.5 407.5h54.8"/><circle class="st0" cx="353.8" cy="407.5" r="3.8"/><path class="st46" d="M353.8 411.8c2.3 0 4.3-1.9 4.3-4.3 0-2.3-1.9-4.3-4.3-4.3-2.3 0-4.3 1.9-4.3 4.3 0 2.3 1.9 4.3 4.3 4.3 2.3 0-2.4 0 0 0zm0-7.6c1.8 0 3.3 1.5 3.3 3.3 0 1.8-1.5 3.3-3.3 3.3-1.8 0-3.3-1.5-3.3-3.3 0-1.8 1.5-3.3 3.3-3.3 1.8 0-1.8 0 0 0z"/><g><path class="st46" d="M406.9 412.5l8.6-5-8.6-5z"/></g></g><g><path class="st47" d="M510 406.3h51.3"/><path class="st46" d="M559.9 411.2l8.6-4.9-8.6-5z"/></g><g id="Artwork_24_2_"><defs><path id="SVGID_47_" d="M260.5 160.6H325v30h-64.5z"/></defs><clipPath id="SVGID_48_"><use xlink:href="#SVGID_47_" overflow="visible"/></clipPath><g clip-path="url(#SVGID_48_)"><defs><path id="SVGID_49_" d="M260.5 160.6H325v30h-64.5z"/></defs><clipPath id="SVGID_50_"><use xlink:href="#SVGID_49_" overflow="visible"/></clipPath><g class="st52"><defs><path id="SVGID_51_" d="M260.5 160.6H325v30h-64.5z"/></defs><clipPath id="SVGID_52_"><use xlink:href="#SVGID_51_" overflow="visible"/></clipPath><g opacity=".65" clip-path="url(#SVGID_52_)"><defs><path id="SVGID_53_" d="M261.2 161.2h62v28h-62z"/></defs><clipPath id="SVGID_54_"><use xlink:href="#SVGID_53_" overflow="visible"/></clipPath><path d="M317.2 169.2h-29.4c-2.2-4.7-7.1-8-12.6-8-7.7 0-14 6.3-14 14s6.3 14 14 14c5.6 0 10.4-3.3 12.6-8h7.4v-2h3v2h19l6-6-6-6z" clip-path="url(#SVGID_54_)" fill="#69a6ff"/></g></g><path class="st55" d="M301.2 176.2h14.1v.1h-14.1zM296.7 177.9l1.3 1.3h-2.6z"/><path class="st55" d="M301.2 174.7h14.1v1.7h-14.1z"/><g class="st52"><defs><path id="SVGID_55_" d="M260.5 160.6H325v30h-64.5z"/></defs><clipPath id="SVGID_56_"><use xlink:href="#SVGID_55_" overflow="visible"/></clipPath><path class="st56" d="M272.9 173.2c1.3 1.3 1.3 3.4 0 4.7a3.32 3.32 0 0 1-4.7 0 3.32 3.32 0 0 1 0-4.7c1.3-1.3 3.4-1.3 4.7 0"/><path class="st56" d="M265.4 166.8c-1.6 1.8-2.6 4-3 6.2 1-6.7 6.6-11.8 13.3-11.8 5.7 0 10.6 3.7 12.6 8.9h-.6l-.5-.9c-.6-1.2-1.4-2.2-2.3-3.1-5.4-5.4-14.4-5.2-19.5.7M288 181c0 .1-.1.2-.1.3-2.2 4.7-6.8 8-12.2 8-3.8 0-7.2-1.6-9.6-4.2 5.2 5.2 13.6 5.1 18.8 0 .9-.9 1.7-2 2.3-3.1l.3-.6.1-.3h.4z"/><path class="st56" d="M317.9 168.5h-29.2c-.7-1.3-1.5-2.5-2.6-3.5-6.1-6.1-16.2-5.9-21.9.8-4.9 5.6-4.9 14.1 0 19.7 5.8 6.6 15.8 6.9 21.9.8 1.1-1.1 1.9-2.3 2.6-3.5h5.6l2.4-2.4 2.3 2.4h18.9l7.1-7.1-7.1-7.2zm-21.2 9.4l-1.3 1.3-.2.2-1.6 1.6h-5.9l-.1.3-.3.6c-.6 1.2-1.4 2.2-2.3 3.1-5.2 5.2-13.6 5.2-18.8.1-.2-.2-.5-.5-.7-.8-2.7-3.1-3.7-7.3-3-11.2v-.1c.4-2.2 1.4-4.4 3-6.2 5.1-5.9 14.1-6.1 19.5-.7.9.9 1.7 2 2.3 3.1l.5.9h29.5l2 2 3.4 3.4-3.4 3.4-2 2h-17.5l-1.5-1.5-1.6-1.5z"/><path class="st56" d="M272.9 177.9a3.32 3.32 0 0 1-4.7 0 3.32 3.32 0 0 1 0-4.7c1.3-1.3 3.4-1.3 4.7 0 1.4 1.3 1.4 3.4 0 4.7M301.2 174.7h14.1v1.7h-14.1z"/></g></g></g><g id="Artwork_10_2_"><defs><path id="SVGID_57_" d="M614.4 294.5h15v15h-15z"/></defs><clipPath id="SVGID_58_"><use xlink:href="#SVGID_57_" overflow="visible"/></clipPath><g class="st58"><defs><path id="SVGID_59_" d="M614.4 294.5h15v15h-15z"/></defs><clipPath id="SVGID_60_"><use xlink:href="#SVGID_59_" overflow="visible"/></clipPath><path clip-path="url(#SVGID_60_)" fill="none" stroke="#000f5e" stroke-width="1.75" stroke-miterlimit="10" d="M614.4 302h15"/></g><g class="st58"><defs><path id="SVGID_61_" d="M614.4 294.5h15v15h-15z"/></defs><clipPath id="SVGID_62_"><use xlink:href="#SVGID_61_" overflow="visible"/></clipPath><path clip-path="url(#SVGID_62_)" fill="none" stroke="#000f5e" stroke-width="1.75" stroke-miterlimit="10" d="M621.9 309.5v-15"/></g></g><g id="Artwork_27"><defs><path id="SVGID_63_" d="M595.2 361.5h53.5v52h-53.5z"/></defs><clipPath id="SVGID_64_"><use xlink:href="#SVGID_63_" overflow="visible"/></clipPath><g clip-path="url(#SVGID_64_)"><defs><path id="SVGID_65_" d="M595.2 361.5h53.5v52h-53.5z"/></defs><clipPath id="SVGID_66_"><use xlink:href="#SVGID_65_" overflow="visible"/></clipPath><path class="st62" d="M638.9 395.9c-.6.8-1.7 1-2.6 1-.5 0-.9-.1-1.4-.1-.4-.1-.9-.2-1.4-.3-1.8-.5-3.5-1.2-5.1-2-3.2-1.7-6.2-3.9-9-6.2-1.4-1.2-2.8-2.4-4.1-3.7-1.3-1.3-2.5-2.7-3.5-4.3-1-1.6-1.9-3.3-2.4-5.1-.1-.5-.2-.9-.3-1.4 0-.5-.1-1-.1-1.5s.1-1 .3-1.5c.1-.2.2-.5.4-.7l.5-.5.2.2c-.4.8-.3 1.6 0 2.4.2.8.6 1.5 1 2.3.8 1.5 1.8 2.9 2.9 4.2 2.2 2.7 4.2 5.5 6.7 8s5.2 4.8 8.1 6.7c1.5 1 3 1.8 4.6 2.5.4.2.8.3 1.2.4.4.1.8.2 1.3.2.8.1 1.7 0 2.4-.6h.3z"/><path d="M647.2 365.1l-9.2-.3.3.4h-.2l-.4-.4-17.7 17.7.2.2-3.1 3.1c-1.3-.4-2.7-.6-4.2-.6-7.7 0-14 6-14 13.5s6.3 13.5 14 13.5 14-6 14-13.5c0-1.6-.3-3.2-.9-4.6l4.9-4.9-1-1 2.5-2.5 1 1 12.7-12.7.3.4.1-.8.4-.3-.3-.3.6-7.9z" clip-path="url(#SVGID_66_)" fill="#cba9e6"/><path class="st64" d="M638.2 363.5l-20.6 20.6c-1.4-.4-2.8-.6-4.4-.6-8.6 0-15.6 7.3-15 16.1.5 7.4 6.5 13.4 13.9 13.9 8.8.6 16.1-6.3 16.1-15 0-1.5-.2-3-.6-4.4l4-4v-3.3h3.3l13.3-13.3v-10h-10zm8.3 9.3l-12.4 12.4h-4.3v4.3l-3.5 3.5-.7.7.3 1c.4 1.3.6 2.6.6 3.9 0 7.7-6.5 13.8-14.3 13.3-6.6-.5-11.9-5.8-12.3-12.3-.5-7.8 5.6-14.3 13.3-14.3 1.3 0 2.6.2 3.9.6l1 .3.7-.7 20.2-20.2h7.6v7.5z"/><path class="st64" d="M609.7 398.6c1.8 0 3.3 1.5 3.3 3.3 0 1.8-1.5 3.3-3.3 3.3-1.8 0-3.3-1.5-3.3-3.3 0-1.8 1.5-3.3 3.3-3.3"/><path transform="rotate(-45.001 636.41 375.248)" class="st64" d="M629.3 374.4h14.1v1.7h-14.1z"/><path d="M644.2 363.1l-9.2-.3.3.4h-.2l-.4-.4-17.7 17.7.2.2-3.1 3.1c-1.3-.4-2.7-.6-4.2-.6-7.7 0-14 6-14 13.5s6.3 13.5 14 13.5 14-6 14-13.5c0-1.6-.3-3.2-.9-4.6l4.9-4.9-1-1 2.5-2.5 1 1 12.7-12.7.3.4.1-.8.4-.3-.3-.3.6-7.9z" clip-path="url(#SVGID_66_)" fill="#9bc1fa"/><path class="st66" d="M635.2 361.5l-20.6 20.6c-1.4-.4-2.8-.6-4.4-.6-8.6 0-15.6 7.3-15 16.1.5 7.4 6.5 13.4 13.9 13.9 8.8.6 16.1-6.3 16.1-15 0-1.5-.2-3-.6-4.4l4-4v-3.3h3.3l13.3-13.3v-10h-10zm8.3 9.3l-12.4 12.4h-4.3v4.3l-3.5 3.5-.7.7.3 1c.4 1.3.6 2.6.6 3.9 0 7.7-6.5 13.8-14.3 13.3-6.6-.5-11.9-5.8-12.3-12.3-.5-7.8 5.6-14.3 13.3-14.3 1.3 0 2.6.2 3.9.6l1 .3.7-.7 20.2-20.2h7.6v7.5z"/><path class="st66" d="M606.7 396.6c1.8 0 3.3 1.5 3.3 3.3 0 1.8-1.5 3.3-3.3 3.3-1.8 0-3.3-1.5-3.3-3.3 0-1.8 1.5-3.3 3.3-3.3"/><path transform="rotate(-45.001 633.41 373.248)" class="st66" d="M626.3 372.4h14.1v1.7h-14.1z"/><path class="st62" d="M610.2 369.5c.6-.8 1.7-1 2.6-1 .5 0 .9.1 1.4.1.5.1.9.2 1.4.3 1.8.5 3.5 1.2 5.1 2 3.2 1.7 6.2 3.9 9 6.2 1.4 1.2 2.8 2.4 4.1 3.7 1.3 1.3 2.5 2.7 3.5 4.3 1 1.6 1.9 3.3 2.4 5.1.1.5.2.9.3 1.4 0 .5.1 1 .1 1.5s-.1 1-.3 1.5c-.1.2-.2.5-.4.7l-.5.5-.2-.2c.4-.8.3-1.6 0-2.4-.2-.8-.6-1.5-1-2.3-.8-1.5-1.8-2.9-2.9-4.2-2.2-2.7-4.2-5.5-6.7-8s-5.2-4.8-8.2-6.7c-1.5-1-3-1.8-4.6-2.5-.4-.2-.8-.3-1.2-.4-.4-.1-.8-.2-1.3-.2-.8-.1-1.7 0-2.4.6h-.2z"/><path d="M646.7 405.1c0 3.3-2.5 6-5.5 6s-5.5-2.7-5.5-6 2.5-6 5.5-6 5.5 2.7 5.5 6" clip-path="url(#SVGID_66_)" fill="#fff"/><path d="M646.7 397.4c0-4.1-4.4-7.4-8.6-5.4-2.1 1-3.4 3.3-3.4 5.7v2.5c-1.6 1.8-2.4 4.3-1.8 7 .7 3.1 3.1 5.5 6.2 6.1 5.1 1 9.6-2.9 9.6-7.8 0-2-.8-3.9-2-5.3v-2.8zm-10 0c0-2.9 3.4-5.3 6.3-3.2 1.1.8 1.7 2.2 1.7 3.5v.8c-1.2-.7-2.5-1.1-4-1.1s-2.8.4-4 1.1v-1.1zm2.8 12.4l-3.7-3.7 1.4-1.4 2.3 2.3 5.3-5.3 1.4 1.4-6.7 6.7z" clip-path="url(#SVGID_66_)" fill="#5aa700"/></g></g><g id="Artwork_29"><defs><path id="SVGID_67_" d="M781.2 147h54.9v52.3h-54.9z"/></defs><clipPath id="SVGID_68_"><use xlink:href="#SVGID_67_" overflow="visible"/></clipPath><g clip-path="url(#SVGID_68_)"><defs><path id="SVGID_69_" d="M781.2 147h54.9v52.3h-54.9z"/></defs><clipPath id="SVGID_70_"><use xlink:href="#SVGID_69_" overflow="visible"/></clipPath><path class="st70" d="M835.8 177.5c-.2 1.3-1.3 2.2-2.3 2.8-1.1.6-2.3 1-3.4 1.3-2.4.6-4.8.8-7.2.9-4.9.1-9.7-.5-14.4-1.5-4.7-1-9.5-2.1-13.9-4.4-2.2-1.2-4.3-2.5-6.1-4.2-.9-.9-1.8-1.8-2.4-2.9-.3-.6-.6-1.2-.7-1.8-.1-.6-.1-1.4.2-1.9l.3.1c0 1.2.6 2.1 1.4 2.9.8.8 1.7 1.5 2.6 2.1 1.9 1.2 4 2.2 6.1 3.2 4.3 1.8 8.6 3.6 13.2 4.8 4.5 1.2 9.2 2.1 13.9 2.3 2.3.1 4.7.1 7-.3 1.2-.2 2.3-.5 3.3-1s2-1.2 2.3-2.3l.1-.1z"/><path d="M830.1 149l-9.2-.3.3.4h-.2l-.4-.4-17.7 17.7.2.2-3.1 3.1c-1.3-.4-2.7-.6-4.2-.6-7.7 0-14 6-14 13.5s6.3 13.5 14 13.5 14-6 14-13.5c0-1.6-.3-3.2-.9-4.6l4.9-4.9-1-1 2.5-2.5 1 1 12.7-12.7.3.4.1-.8.3-.3-.3-.3.7-7.9z" clip-path="url(#SVGID_70_)" fill="#9bc1fa"/><path class="st72" d="M821.2 147.4L800.5 168c-1.4-.4-2.8-.6-4.4-.6-8.6 0-15.6 7.3-15 16.1.5 7.4 6.5 13.4 13.9 13.9 8.8.6 16.1-6.3 16.1-15 0-1.5-.2-3-.6-4.4l4-4v-3.3h3.3l13.3-13.3v-10h-9.9zm8.3 9.3L817.2 169h-4.3v4.3l-3.5 3.5-.7.7.3 1c.4 1.3.6 2.6.6 3.9 0 7.7-6.5 13.8-14.3 13.3-6.6-.5-11.9-5.8-12.3-12.3-.5-7.8 5.6-14.3 13.3-14.3 1.3 0 2.6.2 3.9.6l1 .3.7-.7 20.2-20.2h7.6v7.6z"/><path class="st72" d="M792.7 182.5c1.8 0 3.3 1.5 3.3 3.3 0 1.8-1.5 3.3-3.3 3.3-1.8 0-3.3-1.5-3.3-3.3 0-1.8 1.5-3.3 3.3-3.3"/><path transform="rotate(-45.001 819.395 159.136)" class="st72" d="M812.3 158.3h14.1v1.7h-14.1z"/><path class="st73" d="M826.9 160v36h-31v-48h18v12z"/><path class="st72" d="M814.5 147h-20v50h33.3v-36.7L814.5 147zm11.7 48.3h-30v-46.7h16.7V162h13.3v33.3z"/><path class="st72" d="M801.2 167h20v1.7h-20zM801.2 170.3h20v1.7h-20zM801.2 173.7h10v1.7h-10z"/><path class="st70" d="M785.3 165.7c.2-1.3 1.3-2.2 2.3-2.8 1.1-.6 2.3-1 3.4-1.3 2.4-.6 4.8-.8 7.2-.9 4.9-.1 9.7.5 14.4 1.5 4.7 1 9.5 2.1 13.9 4.4 2.2 1.2 4.3 2.5 6.1 4.2.9.9 1.8 1.8 2.4 2.9.3.6.6 1.2.7 1.8.1.6.1 1.3-.2 1.9l-.3-.1c0-1.2-.6-2.1-1.4-2.9-.8-.8-1.7-1.5-2.6-2.1-1.9-1.2-4-2.2-6.1-3.2-4.3-1.8-8.6-3.6-13.2-4.8-4.5-1.2-9.2-2.1-13.9-2.3-2.3-.1-4.7-.1-7 .3-1.2.2-2.3.5-3.3 1s-2 1.2-2.3 2.3l-.1.1z"/><path class="st73" d="M827.9 191c0 3.3-2.5 6-5.5 6s-5.5-2.7-5.5-6 2.5-6 5.5-6 5.5 2.7 5.5 6"/><path d="M828.3 183.3c0-4.1-4.4-7.4-8.6-5.4-2.1 1-3.4 3.3-3.4 5.7v2.5c-1.6 1.8-2.4 4.3-1.8 7 .7 3.1 3.1 5.5 6.2 6.1 5.1 1 9.6-2.9 9.6-7.8 0-2-.8-3.9-2-5.3v-2.8zm-10 0c0-2.9 3.4-5.3 6.3-3.2 1.1.8 1.7 2.2 1.7 3.5v.8c-1.2-.7-2.5-1.1-4-1.1s-2.8.4-4 1.1v-1.1zm2.8 12.4l-3.7-3.7 1.4-1.4 2.3 2.3 5.3-5.3 1.4 1.4-6.7 6.7z" clip-path="url(#SVGID_70_)" fill="#5aa700"/></g></g><g><path class="st47" d="M810.7 259.9c0 13.4.1 40.8.1 40.8l-138.8-.3"/><path class="st46" d="M805.7 261.4l4.9-8.7 5 8.6z"/><ellipse transform="rotate(-89.86 672.257 300.385)" class="st0" cx="672.3" cy="300.4" rx="3.8" ry="3.8"/><path class="st46" d="M672.3 296.1c2.3 0 4.3 1.9 4.2 4.3 0 2.3-1.9 4.3-4.3 4.2-2.3 0-4.3-1.9-4.2-4.3 0-2.3 1.9-4.2 4.3-4.2 2.3 0-2.4 0 0 0zm0 7.5c1.8 0 3.3-1.5 3.3-3.3 0-1.8-1.5-3.3-3.3-3.3-1.8 0-3.3 1.5-3.3 3.3 0 1.9 1.5 3.3 3.3 3.3 1.7.1-1.8 0 0 0z"/></g><g><path class="st75" d="M137.4 468.7v.5"/><path fill="none" stroke="#b380e0" stroke-miterlimit="10" stroke-dasharray="1.0169,1.0169" d="M137.4 470.2v48.3"/><path class="st75" d="M137.4 519v.5l.1-.1h.4"/><path fill="none" stroke="#b380e0" stroke-miterlimit="10" stroke-dasharray="1.0002,1.0002" d="M138.9 519.4h763.6"/><path class="st75" d="M903 519.4l.5.1v-.5"/><path fill="none" stroke="#b380e0" stroke-miterlimit="10" stroke-dasharray=".9976,.9976" d="M903.5 518V149.4"/><path class="st75" d="M903.5 148.9v-.5h-.5"/><path class="st79" d="M902 148.4h-69.5"/><path class="st75" d="M832 148.4h-.5"/><path class="st80" d="M132.4 470.1l5-8.6 5 8.6z"/></g><path d="M876.5 467h-150c-5.8 0-10.5-4.7-10.5-10.5v-70c0-5.8 4.7-10.5 10.5-10.5h150c5.8 0 10.5 4.7 10.5 10.5v70c0 5.8-4.7 10.5-10.5 10.5z" opacity=".15" fill="#b380e0"/><g><path class="st79" d="M875.1 400.5h28.4"/><circle class="st80" cx="875.3" cy="400.5" r="3.8"/></g><g><path fill="none" stroke="#a71c71" stroke-miterlimit="10" stroke-dasharray="1,1" d="M292.5 253v106.8"/><path class="st46" d="M287.5 358.4l5 8.6 5-8.6z"/></g></g><g id="Text"><text transform="translate(599.503 438.896)"><tspan x="0" y="0" class="st83 st84">DEK</tspan><tspan x="12.1" y="13.2" class="st83 st84">impacchettata</tspan></text><text transform="translate(451.281 221.896)"><tspan x="0" y="0" class="st83 st84">Algoritmo</tspan><tspan x="-13.7" y="13.2" class="st83 st84">AES</tspan></text><text transform="translate(255.347 438.896)"><tspan x="0" y="0" class="st83 st84">DEK da Cloud</tspan><tspan x="2.4" y="13.2" class="st83 st84">Object Storage</tspan></text><text transform="translate(109.115 438.895)"><tspan x="0" y="0" class="st83 st84">Chiave root in</tspan><tspan x="-1.3" y="13.2" class="st83 st84">Key Protect</tspan></text><text transform="translate(70.717 324.375)" class="st85 st86">Key Protect</text><text transform="translate(596.758 221.896)"><tspan x="0" y="0" class="st83 st84">Dati</tspan><tspan x="14.2" y="13.2" class="st83 st84">crittografati</tspan></text><text transform="translate(451.281 438.896)"><tspan x="0" y="0" class="st83 st84">Algoritmo</tspan><tspan x="-13.7" y="13.2" class="st83 st84">AES</tspan></text><text transform="translate(252.405 221.896)"><tspan x="0" y="0" class="st83 st84">DEK (data encryption </tspan><tspan x="16.4" y="13.2" class="st83 st84">key)</tspan></text><text transform="translate(104.304 221.896)"><tspan x="0" y="0" class="st83 st84">Dati </tspan><tspan x="22.2" y="13.2" class="st83 st84">decrittografati</tspan></text><text transform="translate(70.717 107.376)" class="st85 st86">Cloud Object Storage</text><text transform="translate(49 63)" font-size="16" font-family="IBMPlexSans-Bold" fill="#272727">Crittografia envelope</text><text transform="translate(774.421 221.896)"><tspan x="0" y="0" class="st85 st84">Dati impacchettati </tspan><tspan x="11" y="13.2" class="st85 st84">nell&apos;archiviazione</tspan></text><text transform="translate(734.612 417.398)"><tspan x="0" y="0" class="st83 st84">Le chiavi root in </tspan><tspan x="62.7" y="0" class="st85 st84">Key Protect </tspan><tspan x="0" y="13.2" class="st83 st84">proteggono i dati archiviati in </tspan><tspan x="0" y="26.4" class="st85 st84">Cloud Object Storage</tspan></text></g></g></switch></svg>