<?xml version="1.0" encoding="UTF-8" standalone="no"?>
<!-- Generator: Adobe Illustrator 16.0.0, SVG Export Plug-In . SVG Version: 6.00 Build 0)  -->

<svg
   xmlns:dc="http://purl.org/dc/elements/1.1/"
   xmlns:cc="http://creativecommons.org/ns#"
   xmlns:rdf="http://www.w3.org/1999/02/22-rdf-syntax-ns#"
   xmlns:svg="http://www.w3.org/2000/svg"
   xmlns="http://www.w3.org/2000/svg"
   xmlns:xlink="http://www.w3.org/1999/xlink"
   xmlns:sodipodi="http://sodipodi.sourceforge.net/DTD/sodipodi-0.dtd"
   xmlns:inkscape="http://www.inkscape.org/namespaces/inkscape"
   version="1.1"
   id="Layer_1"
   x="0px"
   y="0px"
   width="920px"
   height="400px"
   viewBox="0 0 920 400"
   enable-background="new 0 0 920 400"
   xml:space="preserve"
   sodipodi:docname="stored-key.svg"
   inkscape:version="0.92.2 (5c3e80d, 2017-08-06)"><metadata
     id="metadata317"><rdf:RDF><cc:Work
         rdf:about=""><dc:format>image/svg+xml</dc:format><dc:type
           rdf:resource="http://purl.org/dc/dcmitype/StillImage" /></cc:Work></rdf:RDF></metadata><defs
     id="defs315" /><sodipodi:namedview
     pagecolor="#ffffff"
     bordercolor="#666666"
     borderopacity="1"
     objecttolerance="10"
     gridtolerance="10"
     guidetolerance="10"
     inkscape:pageopacity="0"
     inkscape:pageshadow="2"
     inkscape:window-width="1920"
     inkscape:window-height="1027"
     id="namedview313"
     showgrid="false"
     inkscape:zoom="1.115999"
     inkscape:cx="298.85008"
     inkscape:cy="121.45776"
     inkscape:window-x="-8"
     inkscape:window-y="-8"
     inkscape:window-maximized="1"
     inkscape:current-layer="Layer_1" /><g
     id="g310"><defs
       id="defs3"><rect
         id="SVGID_1_"
         width="920"
         height="400" /></defs><clipPath
       id="SVGID_2_"><use
         xlink:href="#SVGID_1_"
         overflow="visible"
         id="use5" /></clipPath><line
       clip-path="url(#SVGID_2_)"
       fill="none"
       stroke="#1C5CAB"
       stroke-width="2"
       stroke-miterlimit="10"
       x1="585.218"
       y1="182.363"
       x2="625.889"
       y2="182.363"
       id="line8" /><polygon
       clip-path="url(#SVGID_2_)"
       fill="#1C5CAB"
       points="587.114,188.845 575.889,182.363 587.114,175.88  "
       id="polygon10" /><line
       clip-path="url(#SVGID_2_)"
       fill="none"
       stroke="#1C5CAB"
       stroke-width="2"
       stroke-miterlimit="10"
       x1="731.001"
       y1="182.363"
       x2="771.671"
       y2="182.363"
       id="line12" /><polygon
       clip-path="url(#SVGID_2_)"
       fill="#1C5CAB"
       points="732.897,188.845 721.671,182.363 732.897,175.88  "
       id="polygon14" /><line
       clip-path="url(#SVGID_2_)"
       fill="none"
       stroke="#1C5CAB"
       stroke-width="2"
       stroke-miterlimit="10"
       x1="270.186"
       y1="182.363"
       x2="310.856"
       y2="182.363"
       id="line16" /><polygon
       clip-path="url(#SVGID_2_)"
       fill="#1C5CAB"
       points="308.96,188.845 320.186,182.363 308.96,175.88  "
       id="polygon18" /><line
       clip-path="url(#SVGID_2_)"
       fill="none"
       stroke="#1C5CAB"
       stroke-width="2"
       stroke-miterlimit="10"
       x1="416.282"
       y1="182.363"
       x2="456.954"
       y2="182.363"
       id="line20" /><polygon
       clip-path="url(#SVGID_2_)"
       fill="#1C5CAB"
       points="455.057,188.845 466.283,182.363 455.057,175.88  "
       id="polygon22" /><line
       clip-path="url(#SVGID_2_)"
       fill="none"
       stroke="#1C5CAB"
       stroke-width="4"
       stroke-linecap="round"
       stroke-miterlimit="10"
       x1="134.508"
       y1="182.363"
       x2="134.508"
       y2="182.363"
       id="line24" /><line
       clip-path="url(#SVGID_2_)"
       fill="none"
       stroke="#1C5CAB"
       stroke-width="4"
       stroke-linecap="round"
       stroke-miterlimit="10"
       stroke-dasharray="0,13.333"
       x1="147.841"
       y1="182.363"
       x2="167.841"
       y2="182.363"
       id="line26" /><line
       clip-path="url(#SVGID_2_)"
       fill="none"
       stroke="#1C5CAB"
       stroke-width="4"
       stroke-linecap="round"
       stroke-miterlimit="10"
       x1="174.508"
       y1="182.363"
       x2="174.508"
       y2="182.363"
       id="line28" /><line
       clip-path="url(#SVGID_2_)"
       fill="none"
       stroke="#7F50A0"
       stroke-width="2"
       stroke-miterlimit="10"
       x1="373.167"
       y1="305.312"
       x2="373.167"
       y2="305.812"
       id="line30" /><line
       clip-path="url(#SVGID_2_)"
       fill="none"
       stroke="#7F50A0"
       stroke-width="2"
       stroke-miterlimit="10"
       stroke-dasharray="0.999,0.999"
       x1="373.167"
       y1="306.812"
       x2="373.167"
       y2="356.28"
       id="line32" /><polyline
       clip-path="url(#SVGID_2_)"
       fill="none"
       stroke="#7F50A0"
       stroke-width="2"
       stroke-miterlimit="10"
       points="   373.167,356.78 373.167,357.28 372.946,357.28 373.446,357.28  "
       id="polyline34" /><line
       clip-path="url(#SVGID_2_)"
       fill="none"
       stroke="#7F50A0"
       stroke-width="2"
       stroke-miterlimit="10"
       stroke-dasharray="1.006,1.006"
       x1="374.452"
       y1="357.28"
       x2="522.797"
       y2="357.28"
       id="line36" /><polyline
       clip-path="url(#SVGID_2_)"
       fill="none"
       stroke="#7F50A0"
       stroke-width="2"
       stroke-miterlimit="10"
       points="523.3,357.28    523.8,357.28 523.8,356.78  "
       id="polyline38" /><polyline
       clip-path="url(#SVGID_2_)"
       fill="none"
       stroke="#7F50A0"
       stroke-width="2"
       stroke-miterlimit="10"
       stroke-dasharray="0.985,0.985"
       points="   523.8,355.795 523.8,354.653 523.8,305.084  "
       id="polyline40" /><line
       clip-path="url(#SVGID_2_)"
       fill="none"
       stroke="#7F50A0"
       stroke-width="2"
       stroke-miterlimit="10"
       x1="523.8"
       y1="304.593"
       x2="523.8"
       y2="304.093"
       id="line42" /><polygon
       clip-path="url(#SVGID_2_)"
       fill="#7F50A0"
       points="366.685,307.209 373.167,295.982 379.65,307.209  "
       id="polygon44" /><polygon
       clip-path="url(#SVGID_2_)"
       fill="#7F50A0"
       points="523.8,338.97 530.3,326.631 523.8,326.631 517.3,326.631  "
       id="polygon46" /><polygon
       clip-path="url(#SVGID_2_)"
       fill="#7F50A0"
       points="424.452,356.906 437.452,363.754 437.452,356.906 437.452,350.057  "
       id="polygon48" /><g
       clip-path="url(#SVGID_2_)"
       id="g88"><defs
         id="defs51"><rect
           id="SVGID_3_"
           width="920"
           height="400" /></defs><clipPath
         id="SVGID_4_"><use
           xlink:href="#SVGID_3_"
           overflow="visible"
           id="use53" /></clipPath><path
         clip-path="url(#SVGID_4_)"
         fill="#EAEAEA"
         d="M125.938,181.152c0,24.041-19.488,43.527-43.528,43.527    s-43.528-19.486-43.528-43.527c0-24.04,19.488-43.528,43.528-43.528S125.938,157.112,125.938,181.152"
         id="path56" /><path
         clip-path="url(#SVGID_4_)"
         fill="#EAEAEA"
         d="M418.741,181.152c0,24.041-19.488,43.527-43.528,43.527    s-43.529-19.486-43.529-43.527c0-24.04,19.489-43.528,43.529-43.528S418.741,157.112,418.741,181.152"
         id="path58" /><path
         clip-path="url(#SVGID_4_)"
         fill="#EAEAEA"
         d="M857.944,181.152c0,24.041-19.488,43.527-43.528,43.527    c-24.039,0-43.528-19.486-43.528-43.527c0-24.04,19.489-43.528,43.528-43.528C838.456,137.624,857.944,157.112,857.944,181.152"
         id="path60" /><path
         clip-path="url(#SVGID_4_)"
         fill="#EAEAEA"
         d="M272.34,181.236c0,24.041-19.488,43.528-43.528,43.528    s-43.529-19.487-43.529-43.528c0-24.039,19.489-43.527,43.529-43.527S272.34,157.197,272.34,181.236"
         id="path62" /><path
         clip-path="url(#SVGID_4_)"
         fill="#EAEAEA"
         d="M711.543,181.236c0,24.041-19.488,43.528-43.527,43.528    c-24.04,0-43.529-19.487-43.529-43.528c0-24.04,19.489-43.528,43.529-43.528C692.055,137.708,711.543,157.196,711.543,181.236"
         id="path64" /><path
         clip-path="url(#SVGID_4_)"
         fill="#EAEAEA"
         d="M565.142,181.236c0,24.041-19.488,43.528-43.528,43.528    c-24.038,0-43.527-19.487-43.527-43.528c0-24.04,19.489-43.528,43.527-43.528C545.653,137.708,565.142,157.196,565.142,181.236"
         id="path66" /><path
         clip-path="url(#SVGID_4_)"
         fill="#FFFFFF"
         d="M268,208.999c0,3.314-2.687,6-6,6s-6-2.686-6-6c0-3.313,2.687-6,6-6    S268,205.687,268,208.999"
         id="path68" /><path
         clip-path="url(#SVGID_4_)"
         fill="#6D297C"
         d="M262.029,199.033c-5.521,0-10,4.478-10,10c0,5.524,4.479,10,10,10    c5.523,0,10-4.476,10-10C272.029,203.511,267.552,199.033,262.029,199.033 M266.548,209.911h-3.636v3.638h-1.818v-3.638h-3.637    v-1.816h3.637v-3.637h1.818v3.637h3.636V209.911z"
         id="path70" /><rect
         x="790.096"
         y="177.804"
         clip-path="url(#SVGID_4_)"
         fill="#C8DDF2"
         width="48.5"
         height="12.788"
         id="rect72" /><path
         clip-path="url(#SVGID_4_)"
         fill="#344FA2"
         d="M837.846,189.842h-47v-11.288h47V189.842z M839.346,177.054h-50v14.288h50    V177.054z"
         id="path74" /><rect
         x="812.091"
         y="182.946"
         clip-path="url(#SVGID_4_)"
         fill="#344FA2"
         width="21.521"
         height="2.896"
         id="rect76" /><path
         clip-path="url(#SVGID_4_)"
         fill="#344FA2"
         d="M808.518,184.394c0,0.946-0.767,1.713-1.713,1.713s-1.713-0.767-1.713-1.713    c0-0.946,0.767-1.713,1.713-1.713S808.518,183.448,808.518,184.394"
         id="path78" /><path
         clip-path="url(#SVGID_4_)"
         fill="#344FA2"
         d="M803.131,184.394c0,0.946-0.767,1.713-1.713,1.713s-1.713-0.767-1.713-1.713    c0-0.946,0.767-1.713,1.713-1.713S803.131,183.448,803.131,184.394"
         id="path80" /><path
         clip-path="url(#SVGID_4_)"
         fill="#344FA2"
         d="M797.744,184.394c0,0.946-0.767,1.713-1.713,1.713s-1.713-0.767-1.713-1.713    c0-0.946,0.767-1.713,1.713-1.713S797.744,183.448,797.744,184.394"
         id="path82" /><polygon
         clip-path="url(#SVGID_4_)"
         fill="#77A0D4"
         points="790.565,176.304 793.299,170.898 834.826,170.898 838.029,176.304       "
         id="polygon84" /><path
         clip-path="url(#SVGID_4_)"
         fill="#344FA2"
         d="M834.4,171.648l2.313,3.906h-44.928l1.976-3.906H834.4z M835.254,170.148    h-42.416l-3.492,6.906h50L835.254,170.148z"
         id="path86" /></g><g
       clip-path="url(#SVGID_2_)"
       id="g104"><defs
         id="defs91"><rect
           id="SVGID_5_"
           x="643.015"
           y="169.606"
           width="50"
           height="23.261" /></defs><clipPath
         id="SVGID_6_"><use
           xlink:href="#SVGID_5_"
           overflow="visible"
           id="use93" /></clipPath><path
         clip-path="url(#SVGID_6_)"
         fill="#FAE9AD"
         d="M687.013,176.325h-16.283h-6.487c-1.876-3.942-6.046-6.582-10.793-6.158    c-5.329,0.475-9.596,4.942-9.847,10.286c-0.293,6.234,4.674,11.38,10.843,11.38c4.328,0,8.053-2.539,9.797-6.203h5.711v-0.776    h2.326v0.776h14.733l4.651-4.653L687.013,176.325z"
         id="path96" /><path
         clip-path="url(#SVGID_6_)"
         fill="#C5A22E"
         d="M687.531,175.752h-22.641c-0.526-0.983-1.202-1.911-2.032-2.741    c-4.735-4.735-12.537-4.534-17.011,0.604c-3.776,4.335-3.776,10.906,0,15.242c4.474,5.137,12.275,5.339,17.011,0.603    c0.83-0.83,1.506-1.757,2.032-2.742l4.365,0.001l1.828-1.828l1.827,1.828h14.62l5.484-5.483L687.531,175.752z M686.996,185.426    l-13.55,0.001l-1.448-1.449l-0.914-0.915l-0.914,0.915l-1.448,1.448h-3.831h-0.775l-0.364,0.683    c-0.481,0.9-1.089,1.72-1.807,2.437c-4.203,4.204-11.158,4.024-15.125-0.542c-3.349-3.853-3.349-9.687,0.001-13.539    c3.969-4.563,10.921-4.743,15.124-0.54c0.718,0.717,1.325,1.537,1.807,2.437l0.364,0.682h0.775l22.105,0.001l4.19,4.191    L686.996,185.426z"
         id="path98" /><path
         clip-path="url(#SVGID_6_)"
         fill="#C5A22E"
         d="M652.696,179.388c1.01,1.01,1.01,2.646,0,3.655c-1.01,1.01-2.646,1.01-3.656,0    c-1.01-1.009-1.01-2.645,0-3.655C650.051,178.377,651.687,178.377,652.696,179.388"
         id="path100" /><rect
         x="674.628"
         y="180.569"
         clip-path="url(#SVGID_6_)"
         fill="#C5A22E"
         width="10.966"
         height="1.293"
         id="rect102" /></g><g
       clip-path="url(#SVGID_2_)"
       id="g136"><defs
         id="defs107"><rect
           id="SVGID_7_"
           x="498.464"
           y="158.736"
           width="46.299"
           height="45" /></defs><clipPath
         id="SVGID_8_"><use
           xlink:href="#SVGID_7_"
           overflow="visible"
           id="use109" /></clipPath><path
         clip-path="url(#SVGID_8_)"
         fill="#1F2159"
         d="M536.32,188.549c-0.554,0.645-1.443,0.885-2.247,0.891    c-0.816,0.013-1.618-0.128-2.391-0.329c-1.546-0.416-3.015-1.047-4.423-1.773c-2.802-1.486-5.385-3.337-7.806-5.377    c-2.39-2.064-4.826-4.199-6.544-6.958c-0.847-1.378-1.609-2.834-2.075-4.439c-0.125-0.393-0.202-0.821-0.285-1.227    c-0.032-0.437-0.12-0.841-0.081-1.289c0.004-0.432,0.096-0.881,0.228-1.297c0.104-0.209,0.209-0.407,0.314-0.594    c0.156-0.168,0.318-0.318,0.467-0.459l0.192,0.176c-0.344,0.673-0.236,1.379-0.022,2.045c0.19,0.67,0.524,1.319,0.877,1.952    c0.732,1.259,1.591,2.472,2.511,3.642c1.867,2.314,3.668,4.76,5.823,6.919c2.154,2.148,4.493,4.139,7.056,5.784    c1.269,0.838,2.602,1.587,4.01,2.134c0.704,0.266,1.431,0.471,2.166,0.542c0.729,0.082,1.492-0.031,2.04-0.519L536.32,188.549z"
         id="path112" /><path
         clip-path="url(#SVGID_8_)"
         fill="#F9EBB2"
         d="M543.428,161.858l-7.936-0.293l0.273,0.307h-0.151l-0.324-0.324    l-15.298,15.298l0.179,0.179l-2.697,2.696c-1.151-0.351-2.377-0.541-3.648-0.541c-6.691,0-12.116,5.23-12.116,11.682    c0,6.453,5.425,11.683,12.116,11.683c6.69,0,12.115-5.229,12.115-11.683c0-1.411-0.272-2.759-0.748-4.011l4.21-4.21l-0.866-0.865    l2.192-2.192l0.827,0.828l10.973-10.971l0.301,0.334l0.051-0.688l0.303-0.302l-0.26-0.259L543.428,161.858z"
         id="path114" /><path
         clip-path="url(#SVGID_8_)"
         fill="#EEC11B"
         d="M535.676,160.467l-17.867,17.868c-1.192-0.361-2.457-0.56-3.768-0.56    c-7.474,0-13.471,6.316-12.949,13.902c0.442,6.4,5.627,11.587,12.029,12.028c7.585,0.522,13.901-5.477,13.901-12.949    c0-1.31-0.198-2.575-0.561-3.767l3.444-3.445v-2.885h2.885l11.539-11.538v-8.654H535.676z M542.887,168.523l-10.692,10.693h-2.288    h-1.441v1.442v2.288l-3.022,3.021l-0.612,0.612l0.252,0.828c0.33,1.089,0.497,2.216,0.497,3.348c0,6.636-5.63,11.98-12.364,11.509    c-5.683-0.398-10.287-5.002-10.684-10.685c-0.469-6.734,4.875-12.363,11.51-12.363c1.132,0,2.259,0.168,3.348,0.499l0.827,0.25    l0.611-0.611l17.446-17.446h6.613V168.523z"
         id="path116" /><path
         clip-path="url(#SVGID_8_)"
         fill="#EEC11B"
         d="M511.053,190.827c1.594,0,2.884,1.291,2.884,2.884    c0,1.594-1.29,2.885-2.884,2.885s-2.885-1.291-2.885-2.885C508.168,192.118,509.459,190.827,511.053,190.827"
         id="path118" /><rect
         x="528.01"
         y="169.913"
         transform="matrix(-0.7071 0.7071 -0.7071 -0.7071 1032.479 -86.3812)"
         clip-path="url(#SVGID_8_)"
         fill="#EEC11B"
         width="12.239"
         height="1.442"
         id="rect120" /><path
         clip-path="url(#SVGID_8_)"
         fill="#C7A9D1"
         d="M540.832,160.127l-7.937-0.292l0.274,0.306h-0.152l-0.323-0.324    l-15.299,15.298l0.18,0.179l-2.697,2.696c-1.152-0.351-2.377-0.541-3.649-0.541c-6.69,0-12.115,5.23-12.115,11.682    c0,6.453,5.425,11.683,12.115,11.683c6.691,0,12.115-5.23,12.115-11.683c0-1.411-0.271-2.759-0.748-4.011l4.21-4.21l-0.866-0.865    l2.192-2.192l0.828,0.828l10.972-10.971l0.301,0.334l0.052-0.688l0.303-0.302l-0.26-0.259L540.832,160.127z"
         id="path122" /><path
         clip-path="url(#SVGID_8_)"
         fill="#6C297C"
         d="M533.08,158.736l-17.868,17.868c-1.192-0.361-2.457-0.56-3.767-0.56    c-7.475,0-13.472,6.316-12.949,13.902c0.442,6.4,5.627,11.587,12.029,12.028c7.585,0.523,13.9-5.476,13.9-12.949    c0-1.31-0.197-2.575-0.56-3.767l3.444-3.445v-2.885h2.885l11.539-11.538v-8.654H533.08z M540.291,166.793l-10.693,10.693h-2.287    h-1.442v1.442v2.288l-3.022,3.021l-0.611,0.612l0.252,0.828c0.33,1.089,0.497,2.216,0.497,3.348    c0,6.636-5.63,11.981-12.364,11.509c-5.683-0.398-10.287-5.002-10.684-10.686c-0.47-6.734,4.875-12.363,11.51-12.363    c1.132,0,2.259,0.168,3.348,0.499l0.827,0.25l0.611-0.611l17.445-17.446h6.614V166.793z"
         id="path124" /><path
         clip-path="url(#SVGID_8_)"
         fill="#6C297C"
         d="M508.457,189.096c1.593,0,2.884,1.291,2.884,2.884    c0,1.594-1.291,2.885-2.884,2.885c-1.594,0-2.885-1.291-2.885-2.885C505.572,190.387,506.863,189.096,508.457,189.096"
         id="path126" /><rect
         x="525.414"
         y="168.182"
         transform="matrix(-0.7071 0.7071 -0.7071 -0.7071 1026.8022 -87.5423)"
         clip-path="url(#SVGID_8_)"
         fill="#6C297C"
         width="12.238"
         height="1.443"
         id="rect128" /><path
         clip-path="url(#SVGID_8_)"
         fill="#1F2159"
         d="M511.478,165.699c0.545-0.67,1.455-0.873,2.249-0.884    c0.415-0.038,0.807,0.048,1.214,0.076c0.39,0.085,0.796,0.136,1.176,0.251c1.548,0.412,3.012,1.05,4.425,1.769    c2.797,1.493,5.378,3.343,7.807,5.378c1.2,1.032,2.393,2.085,3.523,3.214c1.122,1.138,2.154,2.375,3.019,3.743    c0.846,1.378,1.608,2.834,2.073,4.439c0.126,0.392,0.202,0.82,0.286,1.226c0.032,0.437,0.119,0.841,0.081,1.29    c-0.004,0.431-0.097,0.88-0.228,1.296c-0.105,0.209-0.21,0.407-0.314,0.594c-0.156,0.168-0.317,0.318-0.468,0.459l-0.191-0.176    c0.344-0.673,0.235-1.379,0.022-2.045c-0.191-0.67-0.525-1.318-0.877-1.952c-0.732-1.26-1.591-2.471-2.511-3.641    c-1.868-2.314-3.666-4.76-5.822-6.919c-2.16-2.141-4.496-4.131-7.053-5.785c-1.274-0.83-2.604-1.585-4.012-2.127    c-0.35-0.149-0.712-0.231-1.07-0.352c-0.361-0.062-0.729-0.185-1.095-0.187c-0.721-0.081-1.508-0.003-2.043,0.509L511.478,165.699    z"
         id="path130" /><path
         clip-path="url(#SVGID_8_)"
         fill="#FFFFFF"
         d="M543.031,196.487c0,2.867-2.131,5.192-4.76,5.192    c-2.628,0-4.759-2.326-4.759-5.192c0-2.867,2.131-5.192,4.759-5.192C540.9,191.295,543.031,193.62,543.031,196.487"
         id="path132" /><path
         clip-path="url(#SVGID_8_)"
         fill="#5AA845"
         d="M543.032,189.815c0-3.539-3.805-6.417-7.449-4.665    c-1.845,0.888-2.937,2.843-2.937,4.892v2.129c-1.378,1.565-2.069,3.75-1.566,6.088c0.567,2.643,2.722,4.752,5.376,5.267    c4.429,0.859,8.307-2.515,8.307-6.788c0-1.752-0.657-3.348-1.73-4.567V189.815z M534.378,189.815c0-2.492,2.953-4.57,5.428-2.803    c0.976,0.695,1.495,1.87,1.495,3.068v0.668c-1.019-0.59-2.199-0.933-3.46-0.933c-1.263,0-2.443,0.344-3.463,0.934V189.815z     M536.822,200.558l-3.208-3.208l1.224-1.223l1.984,1.985l4.581-4.581l1.223,1.223L536.822,200.558z"
         id="path134" /></g><g
       clip-path="url(#SVGID_2_)"
       id="g166"><defs
         id="defs139"><rect
           id="SVGID_9_"
           width="920"
           height="400" /></defs><clipPath
         id="SVGID_10_"><use
           xlink:href="#SVGID_9_"
           overflow="visible"
           id="use141" /></clipPath><path
         clip-path="url(#SVGID_10_)"
         fill="#0C4269"
         d="M382.455,174.613c-0.773,0.352-1.336,1.196-1.406,2.039l3.867,2.25    l-9.703,5.766l-9.703-5.836l3.656-2.109c-0.07-0.844-0.633-1.618-1.336-1.969l-7.383,4.148v16.313l14.766,8.437l14.766-8.789    v-16.031L382.455,174.613z M373.807,200.207l-10.547-6.54v-13.36l10.547,6.54V200.207z M387.166,193.246l-10.547,6.75v-13.359    l10.547-6.539V193.246z"
         id="path144" /><path
         clip-path="url(#SVGID_10_)"
         fill="#0C4269"
         d="M381.33,173.98l-2.672-1.477c-0.07,0.844-0.422,1.618-0.914,2.25l2.25,1.336    C380.135,175.175,380.627,174.472,381.33,173.98"
         id="path146" /><path
         clip-path="url(#SVGID_10_)"
         fill="#0C4269"
         d="M372.541,172.152v0.141c0,0.843,0.352,1.546,0.914,1.968l1.758-0.984    l1.476,0.844c0.493-0.422,0.774-1.055,0.774-1.828c0-0.141,0-0.352-0.07-0.493l-2.11-1.195L372.541,172.152z"
         id="path148" /><path
         clip-path="url(#SVGID_10_)"
         fill="#0C4269"
         d="M370.291,176.089l2.18-1.266c-0.563-0.562-0.914-1.265-1.055-2.039    l-2.32,1.336C369.658,174.612,370.08,175.316,370.291,176.089"
         id="path150" /><path
         clip-path="url(#SVGID_10_)"
         fill="#0CAED1"
         d="M375.002,181.011c1.358,0,2.461,1.102,2.461,2.461    c0,1.358-1.103,2.461-2.461,2.461c-1.359,0-2.461-1.103-2.461-2.461C372.541,182.113,373.643,181.011,375.002,181.011"
         id="path152" /><path
         clip-path="url(#SVGID_10_)"
         fill="#88C540"
         d="M375.002,158.652c1.358,0,2.461,1.102,2.461,2.461    c0,1.358-1.103,2.461-2.461,2.461c-1.359,0-2.461-1.103-2.461-2.461C372.541,159.754,373.643,158.652,375.002,158.652"
         id="path154" /><path
         clip-path="url(#SVGID_10_)"
         fill="#88C540"
         d="M383.51,174.402c1.358,0,2.461,1.102,2.461,2.461    c0,1.358-1.103,2.461-2.461,2.461c-1.359,0-2.461-1.103-2.461-2.461C381.049,175.504,382.151,174.402,383.51,174.402"
         id="path156" /><path
         clip-path="url(#SVGID_10_)"
         fill="#88C540"
         d="M366.705,174.402c1.358,0,2.461,1.102,2.461,2.461    c0,1.358-1.103,2.461-2.461,2.461c-1.359,0-2.461-1.103-2.461-2.461C364.244,175.504,365.346,174.402,366.705,174.402"
         id="path158" /><path
         clip-path="url(#SVGID_10_)"
         fill="#0CAED1"
         d="M383.51,163.222c1.358,0,2.461,1.102,2.461,2.461    c0,1.358-1.103,2.461-2.461,2.461c-1.359,0-2.461-1.103-2.461-2.461C381.049,164.324,382.151,163.222,383.51,163.222"
         id="path160" /><path
         clip-path="url(#SVGID_10_)"
         fill="#0CAED1"
         d="M366.916,163.503c1.358,0,2.461,1.102,2.461,2.461    c0,1.358-1.103,2.461-2.461,2.461c-1.359,0-2.461-1.103-2.461-2.461C364.455,164.605,365.557,163.503,366.916,163.503"
         id="path162" /><path
         clip-path="url(#SVGID_10_)"
         fill="#88C540"
         d="M375.002,169.832c-1.266,0-2.461,0.984-2.461,2.461s0.984,2.461,2.461,2.461    s2.461-0.984,2.461-2.461S376.479,169.832,375.002,169.832"
         id="path164" /></g><g
       clip-path="url(#SVGID_2_)"
       id="g200"><defs
         id="defs169"><rect
           id="SVGID_11_"
           x="203.811"
           y="169.606"
           width="50"
           height="23.262" /></defs><clipPath
         id="SVGID_12_"><use
           xlink:href="#SVGID_11_"
           overflow="visible"
           id="use171" /></clipPath><g
         opacity="0.65"
         clip-path="url(#SVGID_12_)"
         id="g192"><g
           id="g190"><defs
             id="defs175"><rect
               id="SVGID_13_"
               x="204.386"
               y="170.122"
               width="48.075"
               height="21.712" /></defs><clipPath
             id="SVGID_14_"><use
               xlink:href="#SVGID_13_"
               overflow="visible"
               id="use177" /></clipPath><g
             clip-path="url(#SVGID_14_)"
             id="g188"><defs
               id="defs181"><rect
                 id="SVGID_15_"
                 x="204.386"
                 y="170.123"
                 width="48.075"
                 height="21.711" /></defs><clipPath
               id="SVGID_16_"><use
                 xlink:href="#SVGID_15_"
                 overflow="visible"
                 id="use183" /></clipPath><path
               clip-path="url(#SVGID_16_)"
               fill="#A582BB"
               d="M247.809,176.326h-16.283h-6.487c-1.744-3.665-5.469-6.203-9.797-6.203       c-5.995,0-10.856,4.86-10.856,10.855c0,5.996,4.861,10.856,10.856,10.856c4.328,0,8.053-2.539,9.797-6.203h5.711v-1.551h0.776       h1.55v1.551h14.733l4.652-4.653L247.809,176.326z"
               id="path186" /></g></g></g><path
         clip-path="url(#SVGID_12_)"
         fill="#6C297C"
         d="M248.329,175.753h-22.642c-0.525-0.983-1.201-1.911-2.031-2.741    c-4.735-4.735-12.537-4.534-17.012,0.604c-3.775,4.335-3.775,10.906,0,15.242c4.475,5.137,12.277,5.339,17.012,0.603    c0.83-0.83,1.506-1.757,2.031-2.742l4.366,0.001l1.827-1.828l1.828,1.828h14.621l5.483-5.483L248.329,175.753z M247.793,185.427    l-13.55,0.001l-1.449-1.449l-0.915-0.915l-0.914,0.915l-1.448,1.448h-3.83h-0.775l-0.365,0.683c-0.481,0.9-1.088,1.72-1.806,2.437    c-4.204,4.204-11.159,4.024-15.126-0.542c-3.349-3.853-3.348-9.687,0.002-13.539c3.968-4.563,10.921-4.743,15.124-0.54    c0.718,0.717,1.325,1.537,1.806,2.437l0.365,0.682h0.774l22.107,0.001l4.19,4.191L247.793,185.427z"
         id="path194" /><path
         clip-path="url(#SVGID_12_)"
         fill="#6C297C"
         d="M213.492,179.388c1.01,1.01,1.01,2.646,0,3.655    c-1.01,1.01-2.646,1.01-3.655,0c-1.01-1.009-1.01-2.645,0-3.655C210.846,178.378,212.482,178.378,213.492,179.388"
         id="path196" /><rect
         x="235.424"
         y="180.569"
         clip-path="url(#SVGID_12_)"
         fill="#6C297C"
         width="10.966"
         height="1.293"
         id="rect198" /></g><g
       clip-path="url(#SVGID_2_)"
       id="g216"><defs
         id="defs203"><rect
           id="SVGID_17_"
           width="920"
           height="400" /></defs><clipPath
         id="SVGID_18_"><use
           xlink:href="#SVGID_17_"
           overflow="visible"
           id="use205" /></clipPath><path
         clip-path="url(#SVGID_18_)"
         fill="#1E2159"
         d="M82.41,187.579c6.444,0,11.667-5.223,11.667-11.667    s-5.223-11.666-11.667-11.666c-6.444,0-11.667,5.222-11.667,11.666S75.966,187.579,82.41,187.579 M82.41,165.412    c5.79,0,10.5,4.71,10.5,10.5s-4.71,10.5-10.5,10.5s-10.5-4.71-10.5-10.5S76.62,165.412,82.41,165.412 M91.743,189.912H73.077    c-2.577,0-4.667,2.09-4.667,4.667v4.667h28v-4.667C96.41,192.001,94.32,189.912,91.743,189.912"
         id="path208" /><polygon
         clip-path="url(#SVGID_18_)"
         fill="#1E2159"
         points="88.485,173.237 86.835,171.587 80.661,177.762 77.985,175.087     76.335,176.737 80.661,181.062   "
         id="polygon210" /><rect
         x="479.777"
         y="0.042"
         clip-path="url(#SVGID_18_)"
         fill="#1E2159"
         width="440.433"
         height="48.161"
         id="rect212" /><rect
         x="-0.21"
         y="0.042"
         clip-path="url(#SVGID_18_)"
         fill="#1C5CAB"
         width="480"
         height="48.161"
         id="rect214" /></g><g
       clip-path="url(#SVGID_2_)"
       id="g220"><text
         transform="matrix(1 0 0 1 39.2788 94.5444)"
         font-family="'IBMPlexSans-SemiBold'"
         font-size="20"
         id="text218">IBM Cloud</text>
</g><g
       clip-path="url(#SVGID_2_)"
       id="g238"><text
         transform="translate(772.8174,266.0762)"
         id="text236"><tspan
           x="0"
           y="0"
           font-size="18"
           id="tspan222"
           style="font-size:18px;font-family:IBMPlexSans">HMS (Hardware </tspan></text>
</g><g
       clip-path="url(#SVGID_2_)"
       id="g242"><text
         transform="matrix(1 0 0 1 766.5078 287.6758)"
         font-family="'IBMPlexSans'"
         font-size="18"
         id="text240">security module)</text>
</g><g
       clip-path="url(#SVGID_2_)"
       id="g262"><text
         transform="matrix(1 0 0 1 328.8115 266.0762)"
         id="text260"><tspan
           x="0"
           y="0"
           font-family="'IBMPlexSans'"
           font-size="18"
           id="tspan244">K</tspan><tspan
           x="9.324"
           y="0"
           font-family="'IBMPlexSans'"
           font-size="18"
           id="tspan246">e</tspan><tspan
           x="18.27"
           y="0"
           font-family="'IBMPlexSans'"
           font-size="18"
           id="tspan248">y </tspan><tspan
           x="30.564"
           y="0"
           font-family="'IBMPlexSans'"
           font-size="18"
           id="tspan250">P</tspan><tspan
           x="39.978"
           y="0"
           font-family="'IBMPlexSans'"
           font-size="18"
           id="tspan252">r</tspan><tspan
           x="45.792"
           y="0"
           font-family="'IBMPlexSans'"
           font-size="18"
           id="tspan254">o</tspan><tspan
           x="55.674"
           y="0"
           font-family="'IBMPlexSans'"
           font-size="18"
           id="tspan256">t</tspan><tspan
           x="61.578"
           y="0"
           font-family="'IBMPlexSans'"
           font-size="18"
           id="tspan258">ect</tspan></text>
</g><g
       clip-path="url(#SVGID_2_)"
       id="g266"><text
         transform="matrix(1 0 0 1 56.1836 266.0762)"
         font-family="'IBMPlexSans'"
         font-size="18"
         id="text264">Amministratore</text>
</g><g
       clip-path="url(#SVGID_2_)"
       id="g284"><text
         transform="matrix(1 0 0 1 498.9873 94.5454)"
         id="text282"><tspan
           x="0"
           y="0"
           font-family="'IBMPlexSans-SemiBold'"
           font-size="20"
           id="tspan268">D</tspan><tspan
           x="13.319"
           y="0"
           font-family="'IBMPlexSans-SemiBold'"
           font-size="20"
           id="tspan270">a</tspan><tspan
           x="22.899"
           y="0"
           font-family="'IBMPlexSans-SemiBold'"
           font-size="20"
           id="tspan272">ta </tspan><tspan
           x="43.399"
           y="0"
           font-family="'IBMPlexSans-SemiBold'"
           font-size="20"
           id="tspan274">c</tspan><tspan
           x="52.279"
           y="0"
           font-family="'IBMPlexSans-SemiBold'"
           font-size="20"
           id="tspan276">en</tspan><tspan
           x="73.398"
           y="0"
           font-family="'IBMPlexSans-SemiBold'"
           font-size="20"
           id="tspan278">t</tspan><tspan
           x="79.938"
           y="0"
           font-family="'IBMPlexSans-SemiBold'"
           font-size="20"
           id="tspan280">er</tspan></text>
</g><g
       clip-path="url(#SVGID_2_)"
       id="g288"><text
         transform="matrix(1 0 0 1 211.0342 266.0762)"
         font-family="'IBMPlexSans'"
         font-size="18"
         id="text286">Chiave</text>
</g><g
       clip-path="url(#SVGID_2_)"
       id="g292"><text
         transform="matrix(1 0 0 1 214.834 287.6758)"
         font-family="'IBMPlexSans'"
         font-size="18"
         id="text290">esistente</text>
</g><g
       clip-path="url(#SVGID_2_)"
       id="g296"><text
         transform="matrix(1 0 0 1 485.0146 266.0762)"
         font-family="'IBMPlexSans'"
         font-size="18"
         id="text294">Chiave</text>
</g><g
       clip-path="url(#SVGID_2_)"
       id="g300"><text
         transform="matrix(1 0 0 1 481.6406 287.6758)"
         font-family="'IBMPlexSans'"
         font-size="18"
         id="text298">impacchettata</text>
</g><g
       clip-path="url(#SVGID_2_)"
       id="g304"><text
         transform="matrix(1 0 0 1 639.4727 266.0762)"
         font-family="'IBMPlexSans'"
         font-size="18"
         id="text302">Chiave</text>
</g><g
       clip-path="url(#SVGID_2_)"
       id="g308"><text
         transform="matrix(1 0 0 1 639.0342 287.6758)"
         font-family="'IBMPlexSans'"
         font-size="18"
         id="text306">progetto</text>
</g></g></svg>
