<svg xmlns="http://www.w3.org/2000/svg" xmlns:xlink="http://www.w3.org/1999/xlink" width="920" height="400"><defs><path id="a" d="M0 0h920v400H0z"/></defs><clipPath id="b"><use xlink:href="#a" overflow="visible"/></clipPath><path clip-path="url(#b)" fill="none" stroke="#1C5CAB" stroke-width="2" stroke-miterlimit="10" d="M585.218 182.363h40.671"/><path clip-path="url(#b)" fill="#1C5CAB" d="M587.114 188.845l-11.225-6.482 11.225-6.483z"/><path clip-path="url(#b)" fill="none" stroke="#1C5CAB" stroke-width="2" stroke-miterlimit="10" d="M731.001 182.363h40.67"/><path clip-path="url(#b)" fill="#1C5CAB" d="M732.897 188.845l-11.226-6.482 11.226-6.483z"/><path clip-path="url(#b)" fill="none" stroke="#1C5CAB" stroke-width="2" stroke-miterlimit="10" d="M270.186 182.363h40.67"/><path clip-path="url(#b)" fill="#1C5CAB" d="M308.96 188.845l11.226-6.482-11.226-6.483z"/><path clip-path="url(#b)" fill="none" stroke="#1C5CAB" stroke-width="2" stroke-miterlimit="10" d="M416.282 182.363h40.672"/><path clip-path="url(#b)" fill="#1C5CAB" d="M455.057 188.845l11.226-6.482-11.226-6.483z"/><path clip-path="url(#b)" fill="none" stroke="#1C5CAB" stroke-width="4" stroke-linecap="round" stroke-miterlimit="10" d="M134.508 182.363"/><path clip-path="url(#b)" fill="none" stroke="#1C5CAB" stroke-width="4" stroke-linecap="round" stroke-miterlimit="10" stroke-dasharray="0,13.333" d="M147.841 182.363h20"/><path clip-path="url(#b)" fill="none" stroke="#1C5CAB" stroke-width="4" stroke-linecap="round" stroke-miterlimit="10" d="M174.508 182.363"/><path clip-path="url(#b)" fill="none" stroke="#7F50A0" stroke-width="2" stroke-miterlimit="10" d="M373.167 305.312v.5"/><path clip-path="url(#b)" fill="none" stroke="#7F50A0" stroke-width="2" stroke-miterlimit="10" stroke-dasharray="0.999,0.999" d="M373.167 306.812v49.468"/><path clip-path="url(#b)" fill="none" stroke="#7F50A0" stroke-width="2" stroke-miterlimit="10" d="M373.167 356.78v.5h-.221.5"/><path clip-path="url(#b)" fill="none" stroke="#7F50A0" stroke-width="2" stroke-miterlimit="10" stroke-dasharray="1.006,1.006" d="M374.452 357.28h148.345"/><path clip-path="url(#b)" fill="none" stroke="#7F50A0" stroke-width="2" stroke-miterlimit="10" d="M523.3 357.28h.5v-.5"/><path clip-path="url(#b)" fill="none" stroke="#7F50A0" stroke-width="2" stroke-miterlimit="10" stroke-dasharray="0.985,0.985" d="M523.8 355.795V305.084"/><path clip-path="url(#b)" fill="none" stroke="#7F50A0" stroke-width="2" stroke-miterlimit="10" d="M523.8 304.593v-.5"/><path clip-path="url(#b)" fill="#7F50A0" d="M366.685 307.209l6.482-11.227 6.483 11.227zM523.8 338.97l6.5-12.339h-13zM424.452 356.906l13 6.848v-13.697z"/><g clip-path="url(#b)"><defs><path id="c" d="M0 0h920v400H0z"/></defs><clipPath id="d"><use xlink:href="#c" overflow="visible"/></clipPath><path clip-path="url(#d)" fill="#EAEAEA" d="M125.938 181.152c0 24.041-19.488 43.527-43.528 43.527s-43.528-19.486-43.528-43.527c0-24.04 19.488-43.528 43.528-43.528s43.528 19.488 43.528 43.528M418.741 181.152c0 24.041-19.488 43.527-43.528 43.527s-43.529-19.486-43.529-43.527c0-24.04 19.489-43.528 43.529-43.528s43.528 19.488 43.528 43.528M857.944 181.152c0 24.041-19.488 43.527-43.528 43.527-24.039 0-43.528-19.486-43.528-43.527 0-24.04 19.489-43.528 43.528-43.528 24.04 0 43.528 19.488 43.528 43.528M272.34 181.236c0 24.041-19.488 43.528-43.528 43.528s-43.529-19.487-43.529-43.528c0-24.039 19.489-43.527 43.529-43.527s43.528 19.488 43.528 43.527M711.543 181.236c0 24.041-19.488 43.528-43.527 43.528-24.04 0-43.529-19.487-43.529-43.528 0-24.04 19.489-43.528 43.529-43.528 24.039 0 43.527 19.488 43.527 43.528M565.142 181.236c0 24.041-19.488 43.528-43.528 43.528-24.038 0-43.527-19.487-43.527-43.528 0-24.04 19.489-43.528 43.527-43.528 24.039 0 43.528 19.488 43.528 43.528"/><path clip-path="url(#d)" fill="#FFF" d="M268 208.999a6 6 0 1 1-12 0 6 6 0 0 1 12 0"/><path clip-path="url(#d)" fill="#6D297C" d="M262.029 199.033c-5.521 0-10 4.478-10 10 0 5.524 4.479 10 10 10 5.523 0 10-4.476 10-10 0-5.522-4.477-10-10-10m4.519 10.878h-3.636v3.638h-1.818v-3.638h-3.637v-1.816h3.637v-3.637h1.818v3.637h3.636v1.816z"/><path clip-path="url(#d)" fill="#C8DDF2" d="M790.096 177.804h48.5v12.788h-48.5z"/><path clip-path="url(#d)" fill="#344FA2" d="M837.846 189.842h-47v-11.288h47v11.288zm1.5-12.788h-50v14.288h50v-14.288z"/><path clip-path="url(#d)" fill="#344FA2" d="M812.091 182.946h21.521v2.896h-21.521zM808.518 184.394a1.713 1.713 0 1 1-3.426 0 1.713 1.713 0 0 1 3.426 0M803.131 184.394a1.713 1.713 0 1 1-3.426 0 1.713 1.713 0 0 1 3.426 0M797.744 184.394a1.713 1.713 0 1 1-3.426 0 1.713 1.713 0 0 1 3.426 0"/><path clip-path="url(#d)" fill="#77A0D4" d="M790.565 176.304l2.734-5.406h41.527l3.203 5.406z"/><path clip-path="url(#d)" fill="#344FA2" d="M834.4 171.648l2.313 3.906h-44.928l1.976-3.906H834.4zm.854-1.5h-42.416l-3.492 6.906h50l-4.092-6.906z"/></g><g clip-path="url(#b)"><defs><path id="e" d="M643.015 169.606h50v23.261h-50z"/></defs><clipPath id="f"><use xlink:href="#e" overflow="visible"/></clipPath><path clip-path="url(#f)" fill="#FAE9AD" d="M687.013 176.325H664.243c-1.876-3.942-6.046-6.582-10.793-6.158-5.329.475-9.596 4.942-9.847 10.286-.293 6.234 4.674 11.38 10.843 11.38 4.328 0 8.053-2.539 9.797-6.203h5.711v-.776h2.326v.776h14.733l4.651-4.653-4.651-4.652z"/><path clip-path="url(#f)" fill="#C5A22E" d="M687.531 175.752H664.89a11.634 11.634 0 0 0-2.032-2.741c-4.735-4.735-12.537-4.534-17.011.604-3.776 4.335-3.776 10.906 0 15.242 4.474 5.137 12.275 5.339 17.011.603.83-.83 1.506-1.757 2.032-2.742l4.365.001 1.828-1.828 1.827 1.828h14.62l5.484-5.483-5.483-5.484zm-.535 9.674l-13.55.001-1.448-1.449-.914-.915-.914.915-1.448 1.448h-4.606l-.364.683c-.481.9-1.089 1.72-1.807 2.437-4.203 4.204-11.158 4.024-15.125-.542-3.349-3.853-3.349-9.687.001-13.539 3.969-4.563 10.921-4.743 15.124-.54a10.332 10.332 0 0 1 1.807 2.437l.364.682h.775l22.105.001 4.19 4.191-4.19 4.19z"/><path clip-path="url(#f)" fill="#C5A22E" d="M652.696 179.388a2.584 2.584 0 1 1-3.656 3.656 2.584 2.584 0 0 1 3.656-3.656M674.628 180.569h10.966v1.293h-10.966z"/></g><g clip-path="url(#b)"><defs><path id="g" d="M498.464 158.736h46.299v45h-46.299z"/></defs><clipPath id="h"><use xlink:href="#g" overflow="visible"/></clipPath><path clip-path="url(#h)" fill="#1F2159" d="M536.32 188.549c-.554.645-1.443.885-2.247.891-.816.013-1.618-.128-2.391-.329-1.546-.416-3.015-1.047-4.423-1.773-2.802-1.486-5.385-3.337-7.806-5.377-2.39-2.064-4.826-4.199-6.544-6.958-.847-1.378-1.609-2.834-2.075-4.439-.125-.393-.202-.821-.285-1.227-.032-.437-.12-.841-.081-1.289a4.51 4.51 0 0 1 .228-1.297c.104-.209.209-.407.314-.594.156-.168.318-.318.467-.459l.192.176c-.344.673-.236 1.379-.022 2.045.19.67.524 1.319.877 1.952.732 1.259 1.591 2.472 2.511 3.642 1.867 2.314 3.668 4.76 5.823 6.919 2.154 2.148 4.493 4.139 7.056 5.784 1.269.838 2.602 1.587 4.01 2.134.704.266 1.431.471 2.166.542.729.082 1.492-.031 2.04-.519l.19.176z"/><path clip-path="url(#h)" fill="#F9EBB2" d="M543.428 161.858l-7.936-.293.273.307h-.151l-.324-.324-15.298 15.298.179.179-2.697 2.696a12.493 12.493 0 0 0-3.648-.541c-6.691 0-12.116 5.23-12.116 11.682 0 6.453 5.425 11.683 12.116 11.683 6.69 0 12.115-5.229 12.115-11.683 0-1.411-.272-2.759-.748-4.011l4.21-4.21-.866-.865 2.192-2.192.827.828 10.973-10.971.301.334.051-.688.303-.302-.26-.259.504-6.668z"/><path clip-path="url(#h)" fill="#EEC11B" d="M535.676 160.467l-17.867 17.868a12.982 12.982 0 0 0-3.768-.56c-7.474 0-13.471 6.316-12.949 13.902.442 6.4 5.627 11.587 12.029 12.028 7.585.522 13.901-5.477 13.901-12.949 0-1.31-.198-2.575-.561-3.767l3.444-3.445v-2.885h2.885l11.539-11.538v-8.654h-8.653zm7.211 8.056l-10.692 10.693h-3.729V182.946l-3.022 3.021-.612.612.252.828c.33 1.089.497 2.216.497 3.348 0 6.636-5.63 11.98-12.364 11.509-5.683-.398-10.287-5.002-10.684-10.685-.469-6.734 4.875-12.363 11.51-12.363 1.132 0 2.259.168 3.348.499l.827.25.611-.611 17.446-17.446h6.613v6.615z"/><path clip-path="url(#h)" fill="#EEC11B" d="M511.053 190.827a2.883 2.883 0 0 1 2.884 2.884 2.884 2.884 0 1 1-2.884-2.884"/><path transform="rotate(134.999 534.133 170.643)" clip-path="url(#h)" fill="#EEC11B" d="M528.01 169.913h12.239v1.442H528.01z"/><path clip-path="url(#h)" fill="#C7A9D1" d="M540.832 160.127l-7.937-.292.274.306h-.152l-.323-.324-15.299 15.298.18.179-2.697 2.696a12.5 12.5 0 0 0-3.649-.541c-6.69 0-12.115 5.23-12.115 11.682 0 6.453 5.425 11.683 12.115 11.683 6.691 0 12.115-5.23 12.115-11.683 0-1.411-.271-2.759-.748-4.011l4.21-4.21-.866-.865 2.192-2.192.828.828 10.972-10.971.301.334.052-.688.303-.302-.26-.259.504-6.668z"/><path clip-path="url(#h)" fill="#6C297C" d="M533.08 158.736l-17.868 17.868a12.98 12.98 0 0 0-3.767-.56c-7.475 0-13.472 6.316-12.949 13.902.442 6.4 5.627 11.587 12.029 12.028 7.585.523 13.9-5.476 13.9-12.949 0-1.31-.197-2.575-.56-3.767l3.444-3.445v-2.885h2.885l11.539-11.538v-8.654h-8.653zm7.211 8.057l-10.693 10.693h-3.729V181.216l-3.022 3.021-.611.612.252.828c.33 1.089.497 2.216.497 3.348 0 6.636-5.63 11.981-12.364 11.509-5.683-.398-10.287-5.002-10.684-10.686-.47-6.734 4.875-12.363 11.51-12.363 1.132 0 2.259.168 3.348.499l.827.25.611-.611 17.445-17.446h6.614v6.616z"/><path clip-path="url(#h)" fill="#6C297C" d="M508.457 189.096a2.884 2.884 0 1 1 0 5.769 2.884 2.884 0 1 1 0-5.769"/><path transform="rotate(134.999 531.535 168.886)" clip-path="url(#h)" fill="#6C297C" d="M525.414 168.182h12.238v1.443h-12.238z"/><path clip-path="url(#h)" fill="#1F2159" d="M511.478 165.699c.545-.67 1.455-.873 2.249-.884.415-.038.807.048 1.214.076.39.085.796.136 1.176.251 1.548.412 3.012 1.05 4.425 1.769 2.797 1.493 5.378 3.343 7.807 5.378 1.2 1.032 2.393 2.085 3.523 3.214 1.122 1.138 2.154 2.375 3.019 3.743.846 1.378 1.608 2.834 2.073 4.439.126.392.202.82.286 1.226.032.437.119.841.081 1.29-.004.431-.097.88-.228 1.296-.105.209-.21.407-.314.594-.156.168-.317.318-.468.459l-.191-.176c.344-.673.235-1.379.022-2.045-.191-.67-.525-1.318-.877-1.952-.732-1.26-1.591-2.471-2.511-3.641-1.868-2.314-3.666-4.76-5.822-6.919-2.16-2.141-4.496-4.131-7.053-5.785-1.274-.83-2.604-1.585-4.012-2.127-.35-.149-.712-.231-1.07-.352-.361-.062-.729-.185-1.095-.187-.721-.081-1.508-.003-2.043.509l-.191-.176z"/><path clip-path="url(#h)" fill="#FFF" d="M543.031 196.487c0 2.867-2.131 5.192-4.76 5.192-2.628 0-4.759-2.326-4.759-5.192 0-2.867 2.131-5.192 4.759-5.192 2.629 0 4.76 2.325 4.76 5.192"/><path clip-path="url(#h)" fill="#5AA845" d="M543.032 189.815c0-3.539-3.805-6.417-7.449-4.665-1.845.888-2.937 2.843-2.937 4.892v2.129c-1.378 1.565-2.069 3.75-1.566 6.088.567 2.643 2.722 4.752 5.376 5.267a6.93 6.93 0 0 0 8.307-6.788 6.89 6.89 0 0 0-1.73-4.567v-2.356zm-8.654 0c0-2.492 2.953-4.57 5.428-2.803.976.695 1.495 1.87 1.495 3.068v.668a6.883 6.883 0 0 0-6.923.001v-.934zm2.444 10.743l-3.208-3.208 1.224-1.223 1.984 1.985 4.581-4.581 1.223 1.223-5.804 5.804z"/></g><g clip-path="url(#b)"><defs><path id="i" d="M0 0h920v400H0z"/></defs><clipPath id="j"><use xlink:href="#i" overflow="visible"/></clipPath><path clip-path="url(#j)" fill="#0C4269" d="M382.455 174.613c-.773.352-1.336 1.196-1.406 2.039l3.867 2.25-9.703 5.766-9.703-5.836 3.656-2.109c-.07-.844-.633-1.618-1.336-1.969l-7.383 4.148v16.313l14.766 8.437 14.766-8.789v-16.031l-7.524-4.219zm-8.648 25.594l-10.547-6.54v-13.36l10.547 6.54v13.36zm13.359-6.961l-10.547 6.75v-13.359l10.547-6.539v13.148z"/><path clip-path="url(#j)" fill="#0C4269" d="M381.33 173.98l-2.672-1.477c-.07.844-.422 1.618-.914 2.25l2.25 1.336c.141-.914.633-1.617 1.336-2.109M372.541 172.152v.141c0 .843.352 1.546.914 1.968l1.758-.984 1.476.844c.493-.422.774-1.055.774-1.828 0-.141 0-.352-.07-.493l-2.11-1.195-2.742 1.547zM370.291 176.089l2.18-1.266a3.809 3.809 0 0 1-1.055-2.039l-2.32 1.336c.562.492.984 1.196 1.195 1.969"/><path clip-path="url(#j)" fill="#0CAED1" d="M375.002 181.011a2.462 2.462 0 1 1-.002 4.924 2.462 2.462 0 0 1 .002-4.924"/><path clip-path="url(#j)" fill="#88C540" d="M375.002 158.652a2.462 2.462 0 1 1-.002 4.924 2.462 2.462 0 0 1 .002-4.924M383.51 174.402a2.462 2.462 0 1 1-.002 4.924 2.462 2.462 0 0 1 .002-4.924M366.705 174.402a2.462 2.462 0 1 1-.002 4.924 2.462 2.462 0 0 1 .002-4.924"/><path clip-path="url(#j)" fill="#0CAED1" d="M383.51 163.222a2.462 2.462 0 1 1-.002 4.924 2.462 2.462 0 0 1 .002-4.924M366.916 163.503a2.462 2.462 0 1 1-.002 4.924 2.462 2.462 0 0 1 .002-4.924"/><path clip-path="url(#j)" fill="#88C540" d="M375.002 169.832c-1.266 0-2.461.984-2.461 2.461s.984 2.461 2.461 2.461 2.461-.984 2.461-2.461-.984-2.461-2.461-2.461"/></g><g clip-path="url(#b)"><defs><path id="k" d="M203.811 169.606h50v23.262h-50z"/></defs><clipPath id="l"><use xlink:href="#k" overflow="visible"/></clipPath><g opacity=".65" clip-path="url(#l)"><defs><path id="m" d="M204.386 170.122h48.075v21.712h-48.075z"/></defs><clipPath id="n"><use xlink:href="#m" overflow="visible"/></clipPath><g clip-path="url(#n)"><defs><path id="o" d="M204.386 170.123h48.075v21.711h-48.075z"/></defs><clipPath id="p"><use xlink:href="#o" overflow="visible"/></clipPath><path clip-path="url(#p)" fill="#A582BB" d="M247.809 176.326H225.039c-1.744-3.665-5.469-6.203-9.797-6.203-5.995 0-10.856 4.86-10.856 10.855 0 5.996 4.861 10.856 10.856 10.856 4.328 0 8.053-2.539 9.797-6.203h5.711v-1.551h2.326v1.551h14.733l4.652-4.653-4.652-4.652z"/></g></g><path clip-path="url(#l)" fill="#6C297C" d="M248.329 175.753h-22.642a11.602 11.602 0 0 0-2.031-2.741c-4.735-4.735-12.537-4.534-17.012.604-3.775 4.335-3.775 10.906 0 15.242 4.475 5.137 12.277 5.339 17.012.603.83-.83 1.506-1.757 2.031-2.742l4.366.001 1.827-1.828 1.828 1.828h14.621l5.483-5.483-5.483-5.484zm-.536 9.674l-13.55.001-1.449-1.449-.915-.915-.914.915-1.448 1.448h-4.605l-.365.683a10.3 10.3 0 0 1-1.806 2.437c-4.204 4.204-11.159 4.024-15.126-.542-3.349-3.853-3.348-9.687.002-13.539 3.968-4.563 10.921-4.743 15.124-.54a10.3 10.3 0 0 1 1.806 2.437l.365.682h.774l22.107.001 4.19 4.191-4.19 4.19z"/><path clip-path="url(#l)" fill="#6C297C" d="M213.492 179.388a2.583 2.583 0 0 1 0 3.655 2.583 2.583 0 0 1-3.655 0 2.583 2.583 0 0 1 0-3.655 2.583 2.583 0 0 1 3.655 0M235.424 180.569h10.966v1.293h-10.966z"/></g><g clip-path="url(#b)"><defs><path id="q" d="M0 0h920v400H0z"/></defs><clipPath id="r"><use xlink:href="#q" overflow="visible"/></clipPath><path clip-path="url(#r)" fill="#1E2159" d="M82.41 187.579c6.444 0 11.667-5.223 11.667-11.667s-5.223-11.666-11.667-11.666-11.667 5.222-11.667 11.666 5.223 11.667 11.667 11.667m0-22.167c5.79 0 10.5 4.71 10.5 10.5s-4.71 10.5-10.5 10.5-10.5-4.71-10.5-10.5 4.71-10.5 10.5-10.5m9.333 24.5H73.077a4.668 4.668 0 0 0-4.667 4.667v4.667h28v-4.667a4.667 4.667 0 0 0-4.667-4.667"/><path clip-path="url(#r)" fill="#1E2159" d="M88.485 173.237l-1.65-1.65-6.174 6.175-2.676-2.675-1.65 1.65 4.326 4.325zM479.777.042H920.21v48.161H479.777z"/><path clip-path="url(#r)" fill="#1C5CAB" d="M-.21.042h480v48.161h-480z"/></g><g clip-path="url(#b)"><text transform="translate(39.279 94.544)" font-family="'IBMPlexSans-SemiBold'" font-size="20">IBM Cloud</text></g><g clip-path="url(#b)"><text transform="translate(772.817 266.076)"><tspan x="0" y="0" font-size="18" font-family="IBMPlexSans">HMS (Hardware</tspan></text></g><g clip-path="url(#b)"><text transform="translate(766.508 287.676)" font-family="'IBMPlexSans'" font-size="18">security module)</text></g><g clip-path="url(#b)"><text transform="translate(328.812 266.076)"><tspan x="0" y="0" font-family="'IBMPlexSans'" font-size="18">K</tspan><tspan x="9.324" y="0" font-family="'IBMPlexSans'" font-size="18">e</tspan><tspan x="18.27" y="0" font-family="'IBMPlexSans'" font-size="18">y </tspan><tspan x="30.564" y="0" font-family="'IBMPlexSans'" font-size="18">P</tspan><tspan x="39.978" y="0" font-family="'IBMPlexSans'" font-size="18">r</tspan><tspan x="45.792" y="0" font-family="'IBMPlexSans'" font-size="18">o</tspan><tspan x="55.674" y="0" font-family="'IBMPlexSans'" font-size="18">t</tspan><tspan x="61.578" y="0" font-family="'IBMPlexSans'" font-size="18">ect</tspan></text></g><g clip-path="url(#b)"><text transform="translate(56.184 266.076)" font-family="'IBMPlexSans'" font-size="18">Amministratore</text></g><g clip-path="url(#b)"><text transform="translate(498.987 94.545)"><tspan x="0" y="0" font-family="'IBMPlexSans-SemiBold'" font-size="20">D</tspan><tspan x="13.319" y="0" font-family="'IBMPlexSans-SemiBold'" font-size="20">a</tspan><tspan x="22.899" y="0" font-family="'IBMPlexSans-SemiBold'" font-size="20">ta </tspan><tspan x="43.399" y="0" font-family="'IBMPlexSans-SemiBold'" font-size="20">c</tspan><tspan x="52.279" y="0" font-family="'IBMPlexSans-SemiBold'" font-size="20">en</tspan><tspan x="73.398" y="0" font-family="'IBMPlexSans-SemiBold'" font-size="20">t</tspan><tspan x="79.938" y="0" font-family="'IBMPlexSans-SemiBold'" font-size="20">er</tspan></text></g><g clip-path="url(#b)"><text transform="translate(211.034 266.076)" font-family="'IBMPlexSans'" font-size="18">Chiave</text></g><g clip-path="url(#b)"><text transform="translate(214.834 287.676)" font-family="'IBMPlexSans'" font-size="18">esistente</text></g><g clip-path="url(#b)"><text transform="translate(485.015 266.076)" font-family="'IBMPlexSans'" font-size="18">Chiave</text></g><g clip-path="url(#b)"><text transform="translate(481.64 287.676)" font-family="'IBMPlexSans'" font-size="18">impacchettata</text></g><g clip-path="url(#b)"><text transform="translate(639.473 266.076)" font-family="'IBMPlexSans'" font-size="18">Chiave</text></g><g clip-path="url(#b)"><text transform="translate(639.034 287.676)" font-family="'IBMPlexSans'" font-size="18">progetto</text></g></svg>