<?xml version="1.0" encoding="UTF-8" standalone="no"?>
<!-- Generator: Adobe Illustrator 16.0.0, SVG Export Plug-In . SVG Version: 6.00 Build 0)  -->

<svg
   xmlns:dc="http://purl.org/dc/elements/1.1/"
   xmlns:cc="http://creativecommons.org/ns#"
   xmlns:rdf="http://www.w3.org/1999/02/22-rdf-syntax-ns#"
   xmlns:svg="http://www.w3.org/2000/svg"
   xmlns="http://www.w3.org/2000/svg"
   xmlns:xlink="http://www.w3.org/1999/xlink"
   xmlns:sodipodi="http://sodipodi.sourceforge.net/DTD/sodipodi-0.dtd"
   xmlns:inkscape="http://www.inkscape.org/namespaces/inkscape"
   version="1.1"
   id="Layer_1"
   x="0px"
   y="0px"
   width="1000px"
   height="400px"
   viewBox="0 0 1000 400"
   enable-background="new 0 0 1000 400"
   xml:space="preserve"
   sodipodi:docname="symmetric-encryption.svg"
   inkscape:version="0.92.2 (5c3e80d, 2017-08-06)"><metadata
     id="metadata385"><rdf:RDF><cc:Work
         rdf:about=""><dc:format>image/svg+xml</dc:format><dc:type
           rdf:resource="http://purl.org/dc/dcmitype/StillImage" /></cc:Work></rdf:RDF></metadata><defs
     id="defs383" /><sodipodi:namedview
     pagecolor="#ffffff"
     bordercolor="#666666"
     borderopacity="1"
     objecttolerance="10"
     gridtolerance="10"
     guidetolerance="10"
     inkscape:pageopacity="0"
     inkscape:pageshadow="2"
     inkscape:window-width="1920"
     inkscape:window-height="1027"
     id="namedview381"
     showgrid="false"
     inkscape:zoom="1.026719"
     inkscape:cx="392.07164"
     inkscape:cy="202.57835"
     inkscape:window-x="-8"
     inkscape:window-y="-8"
     inkscape:window-maximized="1"
     inkscape:current-layer="g378" /><g
     id="g378"><defs
       id="defs3"><rect
         id="SVGID_1_"
         width="1000"
         height="400" /></defs><clipPath
       id="SVGID_2_"><use
         xlink:href="#SVGID_1_"
         overflow="visible"
         id="use5" /></clipPath><rect
       x="48.5"
       y="83.5"
       clip-path="url(#SVGID_2_)"
       fill="#FFFFFF"
       width="425"
       height="200"
       id="rect8" /><polyline
       clip-path="url(#SVGID_2_)"
       fill="none"
       stroke="#D8D8D8"
       stroke-miterlimit="10"
       points="473.5,282 473.5,283.5    472,283.5  "
       id="polyline10" /><line
       clip-path="url(#SVGID_2_)"
       fill="none"
       stroke="#D8D8D8"
       stroke-miterlimit="10"
       stroke-dasharray="3,2"
       x1="470"
       y1="283.5"
       x2="51"
       y2="283.5"
       id="line12" /><polyline
       clip-path="url(#SVGID_2_)"
       fill="none"
       stroke="#D8D8D8"
       stroke-miterlimit="10"
       points="50,283.5 48.5,283.5 48.5,282     "
       id="polyline14" /><line
       clip-path="url(#SVGID_2_)"
       fill="none"
       stroke="#D8D8D8"
       stroke-miterlimit="10"
       stroke-dasharray="3,2"
       x1="48.5"
       y1="280"
       x2="48.5"
       y2="86"
       id="line16" /><polyline
       clip-path="url(#SVGID_2_)"
       fill="none"
       stroke="#D8D8D8"
       stroke-miterlimit="10"
       points="48.5,85 48.5,83.5 50,83.5  "
       id="polyline18" /><line
       clip-path="url(#SVGID_2_)"
       fill="none"
       stroke="#D8D8D8"
       stroke-miterlimit="10"
       stroke-dasharray="3,2"
       x1="52"
       y1="83.5"
       x2="471"
       y2="83.5"
       id="line20" /><polyline
       clip-path="url(#SVGID_2_)"
       fill="none"
       stroke="#D8D8D8"
       stroke-miterlimit="10"
       points="472,83.5 473.5,83.5 473.5,85     "
       id="polyline22" /><line
       clip-path="url(#SVGID_2_)"
       fill="none"
       stroke="#D8D8D8"
       stroke-miterlimit="10"
       stroke-dasharray="3,2"
       x1="473.5"
       y1="87"
       x2="473.5"
       y2="281"
       id="line24" /><rect
       x="524"
       y="83.735"
       clip-path="url(#SVGID_2_)"
       fill="#FFFFFF"
       width="425"
       height="199.53"
       id="rect26" /><polyline
       clip-path="url(#SVGID_2_)"
       fill="none"
       stroke="#D8D8D8"
       stroke-miterlimit="10"
       points="949,281.765 949,283.265    947.5,283.265  "
       id="polyline28" /><line
       clip-path="url(#SVGID_2_)"
       fill="none"
       stroke="#D8D8D8"
       stroke-miterlimit="10"
       stroke-dasharray="3,2"
       x1="945.5"
       y1="283.265"
       x2="526.5"
       y2="283.265"
       id="line30" /><polyline
       clip-path="url(#SVGID_2_)"
       fill="none"
       stroke="#D8D8D8"
       stroke-miterlimit="10"
       points="525.5,283.265 524,283.265    524,281.765  "
       id="polyline32" /><line
       clip-path="url(#SVGID_2_)"
       fill="none"
       stroke="#D8D8D8"
       stroke-miterlimit="10"
       stroke-dasharray="2.993,1.995"
       x1="524"
       y1="279.77"
       x2="524"
       y2="86.232"
       id="line34" /><polyline
       clip-path="url(#SVGID_2_)"
       fill="none"
       stroke="#D8D8D8"
       stroke-miterlimit="10"
       points="524,85.235 524,83.735    525.5,83.735  "
       id="polyline36" /><line
       clip-path="url(#SVGID_2_)"
       fill="none"
       stroke="#D8D8D8"
       stroke-miterlimit="10"
       stroke-dasharray="3,2"
       x1="527.5"
       y1="83.735"
       x2="946.5"
       y2="83.735"
       id="line38" /><polyline
       clip-path="url(#SVGID_2_)"
       fill="none"
       stroke="#D8D8D8"
       stroke-miterlimit="10"
       points="947.5,83.735 949,83.735    949,85.235  "
       id="polyline40" /><line
       clip-path="url(#SVGID_2_)"
       fill="none"
       stroke="#D8D8D8"
       stroke-miterlimit="10"
       stroke-dasharray="2.993,1.995"
       x1="949"
       y1="87.23"
       x2="949"
       y2="280.768"
       id="line42" /><rect
       x="629.5"
       y="118.5"
       clip-path="url(#SVGID_2_)"
       fill="#F4F4F4"
       width="300"
       height="140"
       id="rect44" /><polyline
       clip-path="url(#SVGID_2_)"
       fill="none"
       stroke="#000F5E"
       stroke-miterlimit="10"
       points="929.5,257 929.5,258.5    928,258.5  "
       id="polyline46" /><line
       clip-path="url(#SVGID_2_)"
       fill="none"
       stroke="#000F5E"
       stroke-miterlimit="10"
       stroke-dasharray="3,2"
       x1="926"
       y1="258.5"
       x2="632"
       y2="258.5"
       id="line48" /><polyline
       clip-path="url(#SVGID_2_)"
       fill="none"
       stroke="#000F5E"
       stroke-miterlimit="10"
       points="631,258.5 629.5,258.5    629.5,257  "
       id="polyline50" /><line
       clip-path="url(#SVGID_2_)"
       fill="none"
       stroke="#000F5E"
       stroke-miterlimit="10"
       stroke-dasharray="3,2"
       x1="629.5"
       y1="255"
       x2="629.5"
       y2="121"
       id="line52" /><polyline
       clip-path="url(#SVGID_2_)"
       fill="none"
       stroke="#000F5E"
       stroke-miterlimit="10"
       points="629.5,120 629.5,118.5    631,118.5  "
       id="polyline54" /><line
       clip-path="url(#SVGID_2_)"
       fill="none"
       stroke="#000F5E"
       stroke-miterlimit="10"
       stroke-dasharray="3,2"
       x1="633"
       y1="118.5"
       x2="927"
       y2="118.5"
       id="line56" /><polyline
       clip-path="url(#SVGID_2_)"
       fill="none"
       stroke="#000F5E"
       stroke-miterlimit="10"
       points="928,118.5 929.5,118.5    929.5,120  "
       id="polyline58" /><line
       clip-path="url(#SVGID_2_)"
       fill="none"
       stroke="#000F5E"
       stroke-miterlimit="10"
       stroke-dasharray="3,2"
       x1="929.5"
       y1="122"
       x2="929.5"
       y2="256"
       id="line60" /><rect
       x="70.5"
       y="120.5"
       clip-path="url(#SVGID_2_)"
       fill="#F4F4F4"
       width="300"
       height="140"
       id="rect62" /><polyline
       clip-path="url(#SVGID_2_)"
       fill="none"
       stroke="#000F5E"
       stroke-miterlimit="10"
       points="370.5,259 370.5,260.5    369,260.5  "
       id="polyline64" /><line
       clip-path="url(#SVGID_2_)"
       fill="none"
       stroke="#000F5E"
       stroke-miterlimit="10"
       stroke-dasharray="3,2"
       x1="367"
       y1="260.5"
       x2="73"
       y2="260.5"
       id="line66" /><polyline
       clip-path="url(#SVGID_2_)"
       fill="none"
       stroke="#000F5E"
       stroke-miterlimit="10"
       points="72,260.5 70.5,260.5 70.5,259     "
       id="polyline68" /><line
       clip-path="url(#SVGID_2_)"
       fill="none"
       stroke="#000F5E"
       stroke-miterlimit="10"
       stroke-dasharray="3,2"
       x1="70.5"
       y1="257"
       x2="70.5"
       y2="123"
       id="line70" /><polyline
       clip-path="url(#SVGID_2_)"
       fill="none"
       stroke="#000F5E"
       stroke-miterlimit="10"
       points="70.5,122 70.5,120.5 72,120.5     "
       id="polyline72" /><line
       clip-path="url(#SVGID_2_)"
       fill="none"
       stroke="#000F5E"
       stroke-miterlimit="10"
       stroke-dasharray="3,2"
       x1="74"
       y1="120.5"
       x2="368"
       y2="120.5"
       id="line74" /><polyline
       clip-path="url(#SVGID_2_)"
       fill="none"
       stroke="#000F5E"
       stroke-miterlimit="10"
       points="369,120.5 370.5,120.5    370.5,122  "
       id="polyline76" /><line
       clip-path="url(#SVGID_2_)"
       fill="none"
       stroke="#000F5E"
       stroke-miterlimit="10"
       stroke-dasharray="3,2"
       x1="370.5"
       y1="124"
       x2="370.5"
       y2="258"
       id="line78" /><rect
       x="432.833"
       y="119"
       clip-path="url(#SVGID_2_)"
       fill="#EDF5FF"
       width="133.334"
       height="140"
       id="rect80" /><polyline
       clip-path="url(#SVGID_2_)"
       fill="none"
       stroke="#000F5E"
       stroke-miterlimit="10"
       points="564.667,119 566.167,119    566.167,120.5  "
       id="polyline82" /><line
       clip-path="url(#SVGID_2_)"
       fill="none"
       stroke="#000F5E"
       stroke-miterlimit="10"
       stroke-dasharray="3,2"
       x1="566.167"
       y1="122.5"
       x2="566.167"
       y2="256.5"
       id="line84" /><polyline
       clip-path="url(#SVGID_2_)"
       fill="none"
       stroke="#000F5E"
       stroke-miterlimit="10"
       points="566.167,257.5 566.167,259    564.667,259  "
       id="polyline86" /><line
       clip-path="url(#SVGID_2_)"
       fill="none"
       stroke="#000F5E"
       stroke-miterlimit="10"
       stroke-dasharray="2.962,1.975"
       x1="562.691"
       y1="259"
       x2="435.32"
       y2="259"
       id="line88" /><polyline
       clip-path="url(#SVGID_2_)"
       fill="none"
       stroke="#000F5E"
       stroke-miterlimit="10"
       points="434.333,259 432.833,259    432.833,257.5  "
       id="polyline90" /><line
       clip-path="url(#SVGID_2_)"
       fill="none"
       stroke="#000F5E"
       stroke-miterlimit="10"
       stroke-dasharray="3,2"
       x1="432.833"
       y1="255.5"
       x2="432.833"
       y2="121.5"
       id="line92" /><polyline
       clip-path="url(#SVGID_2_)"
       fill="none"
       stroke="#000F5E"
       stroke-miterlimit="10"
       points="432.833,120.5 432.833,119    434.333,119  "
       id="polyline94" /><line
       clip-path="url(#SVGID_2_)"
       fill="none"
       stroke="#000F5E"
       stroke-miterlimit="10"
       stroke-dasharray="2.962,1.975"
       x1="436.308"
       y1="119"
       x2="563.68"
       y2="119"
       id="line96" /><line
       clip-path="url(#SVGID_2_)"
       fill="none"
       stroke="#B380E0"
       stroke-miterlimit="10"
       x1="432.5"
       y1="316"
       x2="432"
       y2="316"
       id="line98" /><line
       clip-path="url(#SVGID_2_)"
       fill="none"
       stroke="#B380E0"
       stroke-miterlimit="10"
       stroke-dasharray="1.004,1.004"
       x1="430.996"
       y1="316"
       x2="293.002"
       y2="316"
       id="line100" /><polyline
       clip-path="url(#SVGID_2_)"
       fill="none"
       stroke="#B380E0"
       stroke-miterlimit="10"
       points="292.5,316 292,316    292.004,315.5  "
       id="polyline102" /><line
       clip-path="url(#SVGID_2_)"
       fill="none"
       stroke="#B380E0"
       stroke-miterlimit="10"
       stroke-dasharray="0.983,0.983"
       x1="292.013"
       y1="314.518"
       x2="292.379"
       y2="271.776"
       id="line104" /><line
       clip-path="url(#SVGID_2_)"
       fill="none"
       stroke="#B380E0"
       stroke-miterlimit="10"
       x1="292.383"
       y1="271.285"
       x2="292.387"
       y2="270.785"
       id="line106" /><rect
       x="432"
       y="312.75"
       clip-path="url(#SVGID_2_)"
       fill="#B380E0"
       width="1"
       height="6.5"
       id="rect108" /><polygon
       clip-path="url(#SVGID_2_)"
       fill="#B380E0"
       points="297.361,272.286 292.449,263.609 287.388,272.201  "
       id="polygon110" /><line
       clip-path="url(#SVGID_2_)"
       fill="none"
       stroke="#B380E0"
       stroke-miterlimit="10"
       x1="691"
       y1="270.177"
       x2="691"
       y2="270.677"
       id="line112" /><line
       clip-path="url(#SVGID_2_)"
       fill="none"
       stroke="#B380E0"
       stroke-miterlimit="10"
       stroke-dasharray="0.996,0.996"
       x1="691"
       y1="271.673"
       x2="691"
       y2="315.002"
       id="line114" /><polyline
       clip-path="url(#SVGID_2_)"
       fill="none"
       stroke="#B380E0"
       stroke-miterlimit="10"
       points="691,315.5 691,316 690.5,316     "
       id="polyline116" /><line
       clip-path="url(#SVGID_2_)"
       fill="none"
       stroke="#B380E0"
       stroke-miterlimit="10"
       stroke-dasharray="1.004,1.004"
       x1="689.496"
       y1="316"
       x2="567.502"
       y2="316"
       id="line118" /><line
       clip-path="url(#SVGID_2_)"
       fill="none"
       stroke="#B380E0"
       stroke-miterlimit="10"
       x1="567"
       y1="316"
       x2="566.5"
       y2="316"
       id="line120" /><polygon
       clip-path="url(#SVGID_2_)"
       fill="#B380E0"
       points="686.014,271.636 691,263 695.986,271.636  "
       id="polygon122" /><rect
       x="566"
       y="312.75"
       clip-path="url(#SVGID_2_)"
       fill="#B380E0"
       width="1"
       height="6.5"
       id="rect124" /><g
       clip-path="url(#SVGID_2_)"
       id="g158"><defs
         id="defs127"><rect
           id="SVGID_3_"
           x="467.649"
           y="298.682"
           width="64.483"
           height="30" /></defs><clipPath
         id="SVGID_4_"><use
           xlink:href="#SVGID_3_"
           overflow="visible"
           id="use129" /></clipPath><g
         opacity="0.65"
         clip-path="url(#SVGID_4_)"
         id="g150"><g
           id="g148"><defs
             id="defs133"><rect
               id="SVGID_5_"
               x="468.391"
               y="299.349"
               width="62"
               height="28.001" /></defs><clipPath
             id="SVGID_6_"><use
               xlink:href="#SVGID_5_"
               overflow="visible"
               id="use135" /></clipPath><g
             clip-path="url(#SVGID_6_)"
             id="g146"><defs
               id="defs139"><rect
                 id="SVGID_7_"
                 x="468.391"
                 y="299.349"
                 width="62"
                 height="28" /></defs><clipPath
               id="SVGID_8_"><use
                 xlink:href="#SVGID_7_"
                 overflow="visible"
                 id="use141" /></clipPath><path
               clip-path="url(#SVGID_8_)"
               fill="#B380E0"
               d="M524.391,307.35h-21h-8.365c-2.249-4.727-7.053-8-12.635-8       c-7.732,0-14,6.268-14,14c0,7.731,6.268,14,14,14c5.582,0,10.386-3.274,12.635-8h7.365v-2h1h2v2h19l6-6L524.391,307.35z"
               id="path144" /></g></g></g><path
         clip-path="url(#SVGID_4_)"
         fill="#6E177D"
         d="M525.061,306.61h-29.2c-0.678-1.268-1.549-2.464-2.619-3.535    c-6.107-6.105-16.169-5.847-21.94,0.779c-4.869,5.59-4.869,14.065,0,19.657c5.771,6.625,15.833,6.885,21.94,0.776    c1.07-1.069,1.941-2.265,2.619-3.535l5.629,0.001l2.357-2.357l2.357,2.357h18.855l7.071-7.071L525.061,306.61z M524.371,319.087    l-17.476,0.001l-1.869-1.869l-1.179-1.18l-1.179,1.18l-1.868,1.868h-4.939h-1l-0.47,0.881c-0.621,1.16-1.404,2.218-2.329,3.143    c-5.422,5.422-14.391,5.189-19.507-0.699c-4.32-4.969-4.319-12.492,0.002-17.461c5.117-5.885,14.084-6.116,19.505-0.695    c0.925,0.925,1.709,1.981,2.329,3.143l0.471,0.879h0.998l28.51,0.001l5.403,5.405L524.371,319.087z"
         id="path152" /><path
         clip-path="url(#SVGID_4_)"
         fill="#6E177D"
         d="M480.134,311.299c1.302,1.302,1.302,3.412,0,4.714    c-1.302,1.302-3.412,1.302-4.714,0c-1.302-1.302-1.302-3.412,0-4.714C476.722,309.996,478.833,309.996,480.134,311.299"
         id="path154" /><rect
         x="508.418"
         y="312.822"
         clip-path="url(#SVGID_4_)"
         fill="#6E177D"
         width="14.142"
         height="1.667"
         id="rect156" /></g><polygon
       clip-path="url(#SVGID_2_)"
       fill="#FFFFFF"
       points="856.391,148 856.391,196 870.391,196 873.391,196 887.391,196    887.391,160 873.391,160 873.391,148  "
       id="polygon160" /><path
       clip-path="url(#SVGID_2_)"
       fill="#000F5E"
       d="M856.667,148.667h16.667v13.332h13.333v33.335h-30V148.667z M855,147v49.999   h33.333v-35v-1.666L875.001,147H855z"
       id="path162" /><rect
       x="861.666"
       y="167"
       clip-path="url(#SVGID_2_)"
       fill="#000F5E"
       width="20"
       height="1.667"
       id="rect164" /><rect
       x="861.666"
       y="170.334"
       clip-path="url(#SVGID_2_)"
       fill="#000F5E"
       width="20"
       height="1.667"
       id="rect166" /><rect
       x="861.666"
       y="173.667"
       clip-path="url(#SVGID_2_)"
       fill="#000F5E"
       width="10"
       height="1.667"
       id="rect168" /><g
       clip-path="url(#SVGID_2_)"
       id="g178"><defs
         id="defs171"><rect
           id="SVGID_9_"
           x="855"
           y="147"
           width="35.781"
           height="52.289" /></defs><clipPath
         id="SVGID_10_"><use
           xlink:href="#SVGID_9_"
           overflow="visible"
           id="use173" /></clipPath><path
         clip-path="url(#SVGID_10_)"
         fill="#DB2663"
         d="M884.714,183.521c-2.181-0.521-4.247-0.127-5.933,0.849v-0.819    c0-1.261,0.499-2.509,1.477-3.307c1.861-1.521,4.014-1.061,5.323,0.247l1.416-1.416c-1.714-1.716-4.421-2.434-7.03-1.074    c-2.017,1.052-3.186,3.238-3.186,5.513v2.499c-1.593,1.808-2.392,4.333-1.811,7.036c0.658,3.062,3.156,5.501,6.232,6.09    c5.628,1.077,10.478-3.757,9.437-9.377C890.077,186.727,887.716,184.237,884.714,183.521 M886.738,193.583l-1.414,1.414    l-2.293-2.293l-2.293,2.293l-1.414-1.414l2.293-2.293l-2.293-2.293l1.414-1.414l2.293,2.293l2.293-2.293l1.414,1.414l-2.293,2.293    L886.738,193.583z"
         id="path176" /></g><path
       clip-path="url(#SVGID_2_)"
       fill="#000F5E"
       d="M198.635,181h20H198.635z"
       id="path180" /><g
       clip-path="url(#SVGID_2_)"
       id="g190"><defs
         id="defs183"><rect
           id="SVGID_11_"
           x="198.635"
           y="171"
           width="20"
           height="20" /></defs><clipPath
         id="SVGID_12_"><use
           xlink:href="#SVGID_11_"
           overflow="visible"
           id="use185" /></clipPath><line
         clip-path="url(#SVGID_12_)"
         fill="none"
         stroke="#000F5E"
         stroke-width="1.75"
         stroke-miterlimit="10"
         x1="198.635"
         y1="181"
         x2="218.635"
         y2="181"
         id="line188" /></g><path
       clip-path="url(#SVGID_2_)"
       fill="#000F5E"
       d="M208.635,171v20V171z"
       id="path192" /><g
       clip-path="url(#SVGID_2_)"
       id="g202"><defs
         id="defs195"><rect
           id="SVGID_13_"
           x="198.635"
           y="171"
           width="20"
           height="20" /></defs><clipPath
         id="SVGID_14_"><use
           xlink:href="#SVGID_13_"
           overflow="visible"
           id="use197" /></clipPath><line
         clip-path="url(#SVGID_14_)"
         fill="none"
         stroke="#000F5E"
         stroke-width="1.75"
         stroke-miterlimit="10"
         x1="208.635"
         y1="191"
         x2="208.635"
         y2="171"
         id="line200" /></g><g
       clip-path="url(#SVGID_2_)"
       id="g216"><defs
         id="defs205"><rect
           id="SVGID_15_"
           x="666.177"
           y="154.289"
           width="49.999"
           height="37.001" /></defs><clipPath
         id="SVGID_16_"><use
           xlink:href="#SVGID_15_"
           overflow="visible"
           id="use207" /></clipPath><path
         clip-path="url(#SVGID_16_)"
         fill="#001689"
         d="M699.61,180.29c0-0.451-0.045-0.89-0.114-1.323l2.681-2.344l-2.276-3.739    l-3.197,1.044c-0.764-0.665-1.648-1.189-2.617-1.547l-0.709-3.091h-4.399l-0.709,3.091c-0.969,0.358-1.854,0.883-2.617,1.548    l-3.197-1.045l-2.277,3.739l2.681,2.345c-0.068,0.432-0.113,0.871-0.113,1.322c0,0.451,0.045,0.889,0.113,1.321l-2.681,2.346    l2.278,3.738l3.196-1.044c0.764,0.665,1.648,1.19,2.618,1.547l0.708,3.092h4.399l0.708-3.092c0.969-0.357,1.854-0.882,2.617-1.547    l3.196,1.044l2.278-3.738l-2.681-2.345C699.565,181.179,699.61,180.741,699.61,180.29 M691.177,182.818c-1.654,0-3-1.343-3-3    c0-1.657,1.346-3,3-3c1.655,0,3,1.343,3,3C694.177,181.475,692.832,182.818,691.177,182.818"
         id="path210" /><path
         clip-path="url(#SVGID_16_)"
         fill="#69A6FF"
         d="M685.61,165.29c0-0.451-0.045-0.89-0.114-1.323l2.681-2.344l-2.276-3.739    l-3.197,1.044c-0.764-0.665-1.648-1.189-2.617-1.547l-0.709-3.091h-4.399l-0.709,3.091c-0.969,0.358-1.854,0.883-2.617,1.548    l-3.197-1.045l-2.277,3.739l2.681,2.345c-0.068,0.432-0.113,0.871-0.113,1.322c0,0.451,0.045,0.889,0.113,1.321l-2.681,2.346    l2.278,3.738l3.196-1.044c0.764,0.665,1.648,1.19,2.618,1.547l0.708,3.092h4.399l0.708-3.092c0.969-0.357,1.854-0.882,2.617-1.547    l3.196,1.044l2.278-3.738l-2.681-2.345C685.565,166.179,685.61,165.741,685.61,165.29 M677.177,167.818c-1.654,0-3-1.343-3-3    c0-1.657,1.346-3,3-3c1.655,0,3,1.343,3,3C680.177,166.475,678.832,167.818,677.177,167.818"
         id="path212" /><path
         clip-path="url(#SVGID_16_)"
         fill="#003BC9"
         d="M713.61,165.29c0-0.451-0.045-0.89-0.114-1.323l2.681-2.344l-2.276-3.739    l-3.197,1.044c-0.764-0.665-1.648-1.189-2.617-1.547l-0.709-3.091h-4.399l-0.709,3.091c-0.969,0.358-1.854,0.883-2.617,1.548    l-3.197-1.045l-2.277,3.739l2.681,2.345c-0.068,0.432-0.113,0.871-0.113,1.322c0,0.451,0.045,0.889,0.113,1.321l-2.681,2.346    l2.278,3.738l3.196-1.044c0.764,0.665,1.648,1.19,2.618,1.547l0.708,3.092h4.399l0.708-3.092c0.969-0.357,1.854-0.882,2.617-1.547    l3.196,1.044l2.278-3.738l-2.681-2.345C713.565,166.179,713.61,165.741,713.61,165.29 M705.177,167.818c-1.654,0-3-1.343-3-3    c0-1.657,1.346-3,3-3c1.655,0,3,1.343,3,3C708.177,166.475,706.832,167.818,705.177,167.818"
         id="path214" /></g><line
       clip-path="url(#SVGID_2_)"
       fill="none"
       stroke="#A71C71"
       stroke-miterlimit="10"
       x1="558.867"
       y1="183.5"
       x2="607.645"
       y2="183.5"
       id="line218" /><g
       clip-path="url(#SVGID_2_)"
       id="g232"><defs
         id="defs221"><rect
           id="SVGID_17_"
           width="1000"
           height="400" /></defs><clipPath
         id="SVGID_18_"><use
           xlink:href="#SVGID_17_"
           overflow="visible"
           id="use223" /></clipPath><path
         clip-path="url(#SVGID_18_)"
         fill="#FFFFFF"
         d="M559.08,187.26c-2.076,0-3.76-1.684-3.76-3.76c0-2.076,1.684-3.76,3.76-3.76    s3.76,1.684,3.76,3.76C562.84,185.576,561.156,187.26,559.08,187.26"
         id="path226" /><path
         clip-path="url(#SVGID_18_)"
         fill="#A71C71"
         d="M559.08,187.76c2.349,0,4.26-1.912,4.26-4.26c0-2.349-1.911-4.26-4.26-4.26    s-4.26,1.911-4.26,4.26C554.82,185.848,556.731,187.76,559.08,187.76S556.731,187.76,559.08,187.76 M559.08,180.24    c1.798,0,3.26,1.462,3.26,3.26c0,1.798-1.462,3.26-3.26,3.26s-3.26-1.462-3.26-3.26C555.82,181.702,557.282,180.24,559.08,180.24    S557.282,180.24,559.08,180.24"
         id="path228" /><polygon
         clip-path="url(#SVGID_18_)"
         fill="#A71C71"
         points="606.186,188.486 614.82,183.5 606.186,178.513   "
         id="polygon230" /></g><g
       clip-path="url(#SVGID_2_)"
       id="g254"><defs
         id="defs235"><rect
           id="SVGID_19_"
           x="482"
           y="147"
           width="35.78"
           height="52.289" /></defs><clipPath
         id="SVGID_20_"><use
           xlink:href="#SVGID_19_"
           overflow="visible"
           id="use237" /></clipPath><polygon
         clip-path="url(#SVGID_20_)"
         fill="#FFFFFF"
         points="514.391,160 514.391,196 483.391,196 483.391,148 501.391,148     501.391,160   "
         id="polygon240" /><path
         clip-path="url(#SVGID_20_)"
         fill="#000F5E"
         d="M483.667,148.667h16.666V162h13.334v33.334h-30V148.667z M482,147v50h33.333    v-35v-1.666L502,147H482z"
         id="path242" /><rect
         x="488.667"
         y="167"
         clip-path="url(#SVGID_20_)"
         fill="#000F5E"
         width="20"
         height="1.667"
         id="rect244" /><rect
         x="488.667"
         y="170.334"
         clip-path="url(#SVGID_20_)"
         fill="#000F5E"
         width="20"
         height="1.667"
         id="rect246" /><rect
         x="488.667"
         y="173.667"
         clip-path="url(#SVGID_20_)"
         fill="#000F5E"
         width="10"
         height="1.667"
         id="rect248" /><path
         clip-path="url(#SVGID_20_)"
         fill="#FFFFFF"
         d="M515.391,191c0,3.313-2.463,6-5.5,6s-5.5-2.687-5.5-6s2.463-6,5.5-6    S515.391,187.687,515.391,191"
         id="path250" /><path
         clip-path="url(#SVGID_20_)"
         fill="#5AA700"
         d="M515.781,183.29c0-4.089-4.396-7.414-8.607-5.39    c-2.133,1.025-3.393,3.286-3.393,5.652v2.461c-1.593,1.808-2.392,4.333-1.811,7.035c0.655,3.055,3.145,5.492,6.212,6.087    c5.118,0.992,9.599-2.906,9.599-7.845c0-2.025-0.759-3.869-2-5.278V183.29z M505.781,183.29c0-2.879,3.412-5.28,6.272-3.239    c1.127,0.804,1.728,2.161,1.728,3.546v0.772c-1.178-0.682-2.541-1.079-3.999-1.079c-1.459,0-2.823,0.398-4.001,1.08V183.29z     M508.605,195.704l-3.707-3.707l1.414-1.414l2.293,2.293l5.293-5.293l1.414,1.414L508.605,195.704z"
         id="path252" /></g><g
       clip-path="url(#SVGID_2_)"
       id="g270"><defs
         id="defs257"><rect
           id="SVGID_21_"
           width="1000"
           height="400" /></defs><clipPath
         id="SVGID_22_"><use
           xlink:href="#SVGID_21_"
           overflow="visible"
           id="use259" /></clipPath><line
         clip-path="url(#SVGID_22_)"
         fill="none"
         stroke="#A71C71"
         stroke-miterlimit="10"
         x1="361.672"
         y1="183.5"
         x2="410.449"
         y2="183.5"
         id="line262" /><path
         clip-path="url(#SVGID_22_)"
         fill="#FFFFFF"
         d="M361.885,187.26c-2.076,0-3.76-1.684-3.76-3.76c0-2.076,1.684-3.76,3.76-3.76    s3.76,1.684,3.76,3.76C365.645,185.576,363.961,187.26,361.885,187.26"
         id="path264" /><path
         clip-path="url(#SVGID_22_)"
         fill="#A71C71"
         d="M361.885,187.76c2.349,0,4.26-1.912,4.26-4.26c0-2.349-1.911-4.26-4.26-4.26    s-4.26,1.911-4.26,4.26C357.625,185.848,359.536,187.76,361.885,187.76S359.536,187.76,361.885,187.76 M361.885,180.24    c1.798,0,3.26,1.462,3.26,3.26c0,1.798-1.462,3.26-3.26,3.26s-3.26-1.462-3.26-3.26    C358.625,181.702,360.087,180.24,361.885,180.24S360.087,180.24,361.885,180.24"
         id="path266" /><polygon
         clip-path="url(#SVGID_22_)"
         fill="#A71C71"
         points="408.99,188.486 417.625,183.5 408.99,178.513   "
         id="polygon268" /></g><g
       clip-path="url(#SVGID_2_)"
       id="g284"><defs
         id="defs273"><rect
           id="SVGID_23_"
           x="268.38"
           y="154.289"
           width="50"
           height="37.001" /></defs><clipPath
         id="SVGID_24_"><use
           xlink:href="#SVGID_23_"
           overflow="visible"
           id="use275" /></clipPath><path
         clip-path="url(#SVGID_24_)"
         fill="#001689"
         d="M301.813,180.29c0-0.451-0.045-0.89-0.114-1.323l2.681-2.344l-2.277-3.739    l-3.197,1.044c-0.764-0.665-1.648-1.189-2.617-1.547l-0.709-3.091h-4.4l-0.709,3.091c-0.968,0.358-1.853,0.883-2.617,1.548    l-3.197-1.045l-2.277,3.739l2.68,2.345c-0.068,0.432-0.113,0.871-0.113,1.322c0,0.451,0.045,0.889,0.113,1.321l-2.68,2.346    l2.278,3.738l3.196-1.044c0.764,0.665,1.649,1.19,2.618,1.547l0.708,3.092h4.4l0.708-3.092c0.969-0.357,1.853-0.882,2.617-1.547    l3.196,1.044l2.279-3.738l-2.681-2.345C301.769,181.179,301.813,180.741,301.813,180.29 M293.38,182.818c-1.655,0-3-1.343-3-3    c0-1.657,1.345-3,3-3s3,1.343,3,3C296.38,181.475,295.035,182.818,293.38,182.818"
         id="path278" /><path
         clip-path="url(#SVGID_24_)"
         fill="#69A6FF"
         d="M287.813,165.29c0-0.451-0.045-0.89-0.114-1.323l2.681-2.344l-2.277-3.739    l-3.197,1.044c-0.764-0.665-1.648-1.189-2.617-1.547l-0.709-3.091h-4.4l-0.709,3.091c-0.968,0.358-1.853,0.883-2.617,1.548    l-3.197-1.045l-2.277,3.739l2.68,2.345c-0.068,0.432-0.113,0.871-0.113,1.322c0,0.451,0.045,0.889,0.113,1.321l-2.68,2.346    l2.278,3.738l3.196-1.044c0.764,0.665,1.649,1.19,2.618,1.547l0.708,3.092h4.4l0.708-3.092c0.969-0.357,1.853-0.882,2.617-1.547    l3.196,1.044l2.279-3.738l-2.681-2.345C287.769,166.179,287.813,165.741,287.813,165.29 M279.38,167.818c-1.655,0-3-1.343-3-3    c0-1.657,1.345-3,3-3s3,1.343,3,3C282.38,166.475,281.035,167.818,279.38,167.818"
         id="path280" /><path
         clip-path="url(#SVGID_24_)"
         fill="#003BC9"
         d="M315.813,165.29c0-0.451-0.045-0.89-0.114-1.323l2.681-2.344l-2.277-3.739    l-3.197,1.044c-0.764-0.665-1.648-1.189-2.617-1.547l-0.709-3.091h-4.4l-0.709,3.091c-0.968,0.358-1.853,0.883-2.617,1.548    l-3.197-1.045l-2.277,3.739l2.68,2.345c-0.068,0.432-0.113,0.871-0.113,1.322c0,0.451,0.045,0.889,0.113,1.321l-2.68,2.346    l2.278,3.738l3.196-1.044c0.764,0.665,1.649,1.19,2.618,1.547l0.708,3.092h4.4l0.708-3.092c0.969-0.357,1.853-0.882,2.617-1.547    l3.196,1.044l2.279-3.738l-2.681-2.345C315.769,166.179,315.813,165.741,315.813,165.29 M307.38,167.818c-1.655,0-3-1.343-3-3    c0-1.657,1.345-3,3-3s3,1.343,3,3C310.38,166.475,309.035,167.818,307.38,167.818"
         id="path282" /></g><g
       clip-path="url(#SVGID_2_)"
       id="g300"><defs
         id="defs287"><rect
           id="SVGID_25_"
           x="772.034"
           y="171"
           width="20"
           height="20" /></defs><clipPath
         id="SVGID_26_"><use
           xlink:href="#SVGID_25_"
           overflow="visible"
           id="use289" /></clipPath><path
         clip-path="url(#SVGID_26_)"
         fill="#000F5E"
         d="M772.033,181h20H772.033z"
         id="path292" /><line
         clip-path="url(#SVGID_26_)"
         fill="none"
         stroke="#000F5E"
         stroke-width="1.75"
         stroke-miterlimit="10"
         x1="772.033"
         y1="181"
         x2="792.033"
         y2="181"
         id="line294" /><path
         clip-path="url(#SVGID_26_)"
         fill="#000F5E"
         d="M782.033,171v20V171z"
         id="path296" /><line
         clip-path="url(#SVGID_26_)"
         fill="none"
         stroke="#000F5E"
         stroke-width="1.75"
         stroke-miterlimit="10"
         x1="782.033"
         y1="191"
         x2="782.033"
         y2="171"
         id="line298" /></g><g
       clip-path="url(#SVGID_2_)"
       id="g318"><defs
         id="defs303"><rect
           id="SVGID_27_"
           x="106"
           y="147"
           width="35.781"
           height="52.289" /></defs><clipPath
         id="SVGID_28_"><use
           xlink:href="#SVGID_27_"
           overflow="visible"
           id="use305" /></clipPath><polygon
         clip-path="url(#SVGID_28_)"
         fill="#FFFFFF"
         points="124.391,160 124.391,148 107.391,148 107.391,196 121.391,196     124.391,196 138.391,196 138.391,160   "
         id="polygon308" /><path
         clip-path="url(#SVGID_28_)"
         fill="#000F5E"
         d="M107.667,148.667h16.667V162h13.333v33.334h-30V148.667z M106,147v50h33.333    v-35v-1.666L126,147H106z"
         id="path310" /><rect
         x="112.666"
         y="167"
         clip-path="url(#SVGID_28_)"
         fill="#000F5E"
         width="20"
         height="1.667"
         id="rect312" /><rect
         x="112.666"
         y="170.334"
         clip-path="url(#SVGID_28_)"
         fill="#000F5E"
         width="20"
         height="1.667"
         id="rect314" /><rect
         x="112.666"
         y="173.667"
         clip-path="url(#SVGID_28_)"
         fill="#000F5E"
         width="10"
         height="1.667"
         id="rect316" /></g><g
       clip-path="url(#SVGID_2_)"
       id="g328"><defs
         id="defs321"><rect
           id="SVGID_29_"
           x="106"
           y="147"
           width="35.78"
           height="52.289" /></defs><clipPath
         id="SVGID_30_"><use
           xlink:href="#SVGID_29_"
           overflow="visible"
           id="use323" /></clipPath><path
         clip-path="url(#SVGID_30_)"
         fill="#DB2663"
         d="M135.714,183.521c-2.181-0.521-4.247-0.127-5.933,0.849v-0.819    c0-1.261,0.499-2.509,1.477-3.307c1.861-1.521,4.013-1.061,5.323,0.247l1.416-1.416c-1.714-1.716-4.421-2.434-7.03-1.074    c-2.017,1.052-3.186,3.238-3.186,5.513v2.499c-1.593,1.808-2.392,4.333-1.811,7.036c0.659,3.062,3.157,5.501,6.233,6.09    c5.628,1.077,10.477-3.757,9.436-9.377C141.077,186.727,138.716,184.237,135.714,183.521 M137.738,193.583l-1.414,1.414    l-2.293-2.293l-2.293,2.293l-1.414-1.414l2.293-2.293l-2.293-2.293l1.414-1.414l2.293,2.293l2.293-2.293l1.414,1.414l-2.293,2.293    L137.738,193.583z"
         id="path326" /></g><g
       clip-path="url(#SVGID_2_)"
       id="g332"><text
         transform="matrix(1 0 0 1 471.9395 349.8965)"
         font-family="'IBMPlexSans'"
         font-size="11"
         id="text330">Chiave</text>
</g><g
       clip-path="url(#SVGID_2_)"
       id="g336"><text
         transform="matrix(1 0 0 1 473.3438 363.0957)"
         font-family="'IBMPlexSans'"
         font-size="11"
         id="text334">simmetrica</text>
</g><g
       clip-path="url(#SVGID_2_)"
       id="g340"
       transform="translate(-28)"><text
         transform="translate(819.0986,220.8984)"
         font-size="11"
         id="text338"
         style="font-size:11px;font-family:IBMPlexSans">Testo non crittografato</text>
</g><g
       clip-path="url(#SVGID_2_)"
       id="g344"><text
         transform="matrix(1 0 0 1 681.2471 219.8984)"
         font-family="'IBMPlexSans'"
         font-size="11"
         id="text342">Algoritmo</text>
</g><g
       clip-path="url(#SVGID_2_)"
       id="g348"><text
         transform="matrix(1 0 0 1 684.541 233.0977)"
         font-family="'IBMPlexSans'"
         font-size="11"
         id="text346">AES</text>
</g><g
       clip-path="url(#SVGID_2_)"
       id="g352"><text
         font-size="11"
         id="text350"
         x="455.56931"
         y="219.89841"
         style="font-size:11px;font-family:IBMPlexSans">Testo crittografato</text>
</g><g
       clip-path="url(#SVGID_2_)"
       id="g356"><text
         transform="matrix(1 0 0 1 548.7168 107.3755)"
         font-family="'IBMPlexSans-SemiBold'"
         font-size="12"
         id="text354">Decodifica</text>
</g><g
       clip-path="url(#SVGID_2_)"
       id="g360"><text
         transform="matrix(1 0 0 1 101.6113 219.8965)"
         font-family="'IBMPlexSans'"
         font-size="11"
         id="text358">Testo non crittografato</text>
</g><g
       clip-path="url(#SVGID_2_)"
       id="g364"><text
         transform="matrix(1 0 0 1 70.7173 107.3755)"
         font-family="'IBMPlexSans-SemiBold'"
         font-size="12"
         id="text362">Codifica</text>
</g><g
       clip-path="url(#SVGID_2_)"
       id="g368"><text
         transform="matrix(1 0 0 1 49 63)"
         fill="#272727"
         font-family="'IBMPlexSans-Bold'"
         font-size="16"
         id="text366">Codifica simmetrica</text>
</g><g
       clip-path="url(#SVGID_2_)"
       id="g372"><text
         transform="matrix(1 0 0 1 264.4531 219.8965)"
         font-family="'IBMPlexSans'"
         font-size="11"
         id="text370">Algoritmo</text>
</g><g
       clip-path="url(#SVGID_2_)"
       id="g376"><text
         transform="matrix(1 0 0 1 269.7471 233.0957)"
         font-family="'IBMPlexSans'"
         font-size="11"
         id="text374">AES</text>
</g></g></svg>
