<svg xmlns="http://www.w3.org/2000/svg" xmlns:xlink="http://www.w3.org/1999/xlink" width="1000" height="400"><defs><path id="a" d="M0 0h1000v400H0z"/></defs><clipPath id="b"><use xlink:href="#a" overflow="visible"/></clipPath><path clip-path="url(#b)" fill="#FFF" d="M48.5 83.5h425v200h-425z"/><path clip-path="url(#b)" fill="none" stroke="#D8D8D8" stroke-miterlimit="10" d="M473.5 282v1.5H472"/><path clip-path="url(#b)" fill="none" stroke="#D8D8D8" stroke-miterlimit="10" stroke-dasharray="3,2" d="M470 283.5H51"/><path clip-path="url(#b)" fill="none" stroke="#D8D8D8" stroke-miterlimit="10" d="M50 283.5h-1.5V282"/><path clip-path="url(#b)" fill="none" stroke="#D8D8D8" stroke-miterlimit="10" stroke-dasharray="3,2" d="M48.5 280V86"/><path clip-path="url(#b)" fill="none" stroke="#D8D8D8" stroke-miterlimit="10" d="M48.5 85v-1.5H50"/><path clip-path="url(#b)" fill="none" stroke="#D8D8D8" stroke-miterlimit="10" stroke-dasharray="3,2" d="M52 83.5h419"/><path clip-path="url(#b)" fill="none" stroke="#D8D8D8" stroke-miterlimit="10" d="M472 83.5h1.5V85"/><path clip-path="url(#b)" fill="none" stroke="#D8D8D8" stroke-miterlimit="10" stroke-dasharray="3,2" d="M473.5 87v194"/><path clip-path="url(#b)" fill="#FFF" d="M524 83.735h425v199.53H524z"/><path clip-path="url(#b)" fill="none" stroke="#D8D8D8" stroke-miterlimit="10" d="M949 281.765v1.5h-1.5"/><path clip-path="url(#b)" fill="none" stroke="#D8D8D8" stroke-miterlimit="10" stroke-dasharray="3,2" d="M945.5 283.265h-419"/><path clip-path="url(#b)" fill="none" stroke="#D8D8D8" stroke-miterlimit="10" d="M525.5 283.265H524v-1.5"/><path clip-path="url(#b)" fill="none" stroke="#D8D8D8" stroke-miterlimit="10" stroke-dasharray="2.993,1.995" d="M524 279.77V86.232"/><path clip-path="url(#b)" fill="none" stroke="#D8D8D8" stroke-miterlimit="10" d="M524 85.235v-1.5h1.5"/><path clip-path="url(#b)" fill="none" stroke="#D8D8D8" stroke-miterlimit="10" stroke-dasharray="3,2" d="M527.5 83.735h419"/><path clip-path="url(#b)" fill="none" stroke="#D8D8D8" stroke-miterlimit="10" d="M947.5 83.735h1.5v1.5"/><path clip-path="url(#b)" fill="none" stroke="#D8D8D8" stroke-miterlimit="10" stroke-dasharray="2.993,1.995" d="M949 87.23v193.538"/><path clip-path="url(#b)" fill="#F4F4F4" d="M629.5 118.5h300v140h-300z"/><path clip-path="url(#b)" fill="none" stroke="#000F5E" stroke-miterlimit="10" d="M929.5 257v1.5H928"/><path clip-path="url(#b)" fill="none" stroke="#000F5E" stroke-miterlimit="10" stroke-dasharray="3,2" d="M926 258.5H632"/><path clip-path="url(#b)" fill="none" stroke="#000F5E" stroke-miterlimit="10" d="M631 258.5h-1.5V257"/><path clip-path="url(#b)" fill="none" stroke="#000F5E" stroke-miterlimit="10" stroke-dasharray="3,2" d="M629.5 255V121"/><path clip-path="url(#b)" fill="none" stroke="#000F5E" stroke-miterlimit="10" d="M629.5 120v-1.5h1.5"/><path clip-path="url(#b)" fill="none" stroke="#000F5E" stroke-miterlimit="10" stroke-dasharray="3,2" d="M633 118.5h294"/><path clip-path="url(#b)" fill="none" stroke="#000F5E" stroke-miterlimit="10" d="M928 118.5h1.5v1.5"/><path clip-path="url(#b)" fill="none" stroke="#000F5E" stroke-miterlimit="10" stroke-dasharray="3,2" d="M929.5 122v134"/><path clip-path="url(#b)" fill="#F4F4F4" d="M70.5 120.5h300v140h-300z"/><path clip-path="url(#b)" fill="none" stroke="#000F5E" stroke-miterlimit="10" d="M370.5 259v1.5H369"/><path clip-path="url(#b)" fill="none" stroke="#000F5E" stroke-miterlimit="10" stroke-dasharray="3,2" d="M367 260.5H73"/><path clip-path="url(#b)" fill="none" stroke="#000F5E" stroke-miterlimit="10" d="M72 260.5h-1.5V259"/><path clip-path="url(#b)" fill="none" stroke="#000F5E" stroke-miterlimit="10" stroke-dasharray="3,2" d="M70.5 257V123"/><path clip-path="url(#b)" fill="none" stroke="#000F5E" stroke-miterlimit="10" d="M70.5 122v-1.5H72"/><path clip-path="url(#b)" fill="none" stroke="#000F5E" stroke-miterlimit="10" stroke-dasharray="3,2" d="M74 120.5h294"/><path clip-path="url(#b)" fill="none" stroke="#000F5E" stroke-miterlimit="10" d="M369 120.5h1.5v1.5"/><path clip-path="url(#b)" fill="none" stroke="#000F5E" stroke-miterlimit="10" stroke-dasharray="3,2" d="M370.5 124v134"/><path clip-path="url(#b)" fill="#EDF5FF" d="M432.833 119h133.334v140H432.833z"/><path clip-path="url(#b)" fill="none" stroke="#000F5E" stroke-miterlimit="10" d="M564.667 119h1.5v1.5"/><path clip-path="url(#b)" fill="none" stroke="#000F5E" stroke-miterlimit="10" stroke-dasharray="3,2" d="M566.167 122.5v134"/><path clip-path="url(#b)" fill="none" stroke="#000F5E" stroke-miterlimit="10" d="M566.167 257.5v1.5h-1.5"/><path clip-path="url(#b)" fill="none" stroke="#000F5E" stroke-miterlimit="10" stroke-dasharray="2.962,1.975" d="M562.691 259H435.32"/><path clip-path="url(#b)" fill="none" stroke="#000F5E" stroke-miterlimit="10" d="M434.333 259h-1.5v-1.5"/><path clip-path="url(#b)" fill="none" stroke="#000F5E" stroke-miterlimit="10" stroke-dasharray="3,2" d="M432.833 255.5v-134"/><path clip-path="url(#b)" fill="none" stroke="#000F5E" stroke-miterlimit="10" d="M432.833 120.5V119h1.5"/><path clip-path="url(#b)" fill="none" stroke="#000F5E" stroke-miterlimit="10" stroke-dasharray="2.962,1.975" d="M436.308 119H563.68"/><path clip-path="url(#b)" fill="none" stroke="#B380E0" stroke-miterlimit="10" d="M432.5 316h-.5"/><path clip-path="url(#b)" fill="none" stroke="#B380E0" stroke-miterlimit="10" stroke-dasharray="1.004,1.004" d="M430.996 316H293.002"/><path clip-path="url(#b)" fill="none" stroke="#B380E0" stroke-miterlimit="10" d="M292.5 316h-.5l.004-.5"/><path clip-path="url(#b)" fill="none" stroke="#B380E0" stroke-miterlimit="10" stroke-dasharray="0.983,0.983" d="M292.013 314.518l.366-42.742"/><path clip-path="url(#b)" fill="none" stroke="#B380E0" stroke-miterlimit="10" d="M292.383 271.285l.004-.5"/><path clip-path="url(#b)" fill="#B380E0" d="M432 312.75h1v6.5h-1zM297.361 272.286l-4.912-8.677-5.061 8.592z"/><path clip-path="url(#b)" fill="none" stroke="#B380E0" stroke-miterlimit="10" d="M691 270.177v.5"/><path clip-path="url(#b)" fill="none" stroke="#B380E0" stroke-miterlimit="10" stroke-dasharray="0.996,0.996" d="M691 271.673v43.329"/><path clip-path="url(#b)" fill="none" stroke="#B380E0" stroke-miterlimit="10" d="M691 315.5v.5h-.5"/><path clip-path="url(#b)" fill="none" stroke="#B380E0" stroke-miterlimit="10" stroke-dasharray="1.004,1.004" d="M689.496 316H567.502"/><path clip-path="url(#b)" fill="none" stroke="#B380E0" stroke-miterlimit="10" d="M567 316h-.5"/><path clip-path="url(#b)" fill="#B380E0" d="M686.014 271.636L691 263l4.986 8.636zM566 312.75h1v6.5h-1z"/><g clip-path="url(#b)"><defs><path id="c" d="M467.649 298.682h64.483v30h-64.483z"/></defs><clipPath id="d"><use xlink:href="#c" overflow="visible"/></clipPath><g opacity=".65" clip-path="url(#d)"><defs><path id="e" d="M468.391 299.349h62v28.001h-62z"/></defs><clipPath id="f"><use xlink:href="#e" overflow="visible"/></clipPath><g clip-path="url(#f)"><defs><path id="g" d="M468.391 299.349h62v28h-62z"/></defs><clipPath id="h"><use xlink:href="#g" overflow="visible"/></clipPath><path clip-path="url(#h)" fill="#B380E0" d="M524.391 307.35H495.026c-2.249-4.727-7.053-8-12.635-8-7.732 0-14 6.268-14 14 0 7.731 6.268 14 14 14 5.582 0 10.386-3.274 12.635-8h7.365v-2h3v2h19l6-6-6-6z"/></g></g><path clip-path="url(#d)" fill="#6E177D" d="M525.061 306.61h-29.2a15.005 15.005 0 0 0-2.619-3.535c-6.107-6.105-16.169-5.847-21.94.779-4.869 5.59-4.869 14.065 0 19.657 5.771 6.625 15.833 6.885 21.94.776a14.924 14.924 0 0 0 2.619-3.535l5.629.001 2.357-2.357 2.357 2.357h18.855l7.071-7.071-7.069-7.072zm-.69 12.477l-17.476.001-1.869-1.869-1.179-1.18-1.179 1.18-1.868 1.868h-5.939l-.47.881a13.35 13.35 0 0 1-2.329 3.143c-5.422 5.422-14.391 5.189-19.507-.699-4.32-4.969-4.319-12.492.002-17.461 5.117-5.885 14.084-6.116 19.505-.695a13.282 13.282 0 0 1 2.329 3.143l.471.879h.998l28.51.001 5.403 5.405-5.402 5.403z"/><path clip-path="url(#d)" fill="#6E177D" d="M480.134 311.299a3.333 3.333 0 1 1-4.713 4.714 3.333 3.333 0 0 1 4.713-4.714M508.418 312.822h14.142v1.667h-14.142z"/></g><path clip-path="url(#b)" fill="#FFF" d="M856.391 148v48h31v-36h-14v-12z"/><path clip-path="url(#b)" fill="#000F5E" d="M856.667 148.667h16.667v13.332h13.333v33.335h-30v-46.667zM855 147v49.999h33.333v-36.666L875.001 147H855z"/><path clip-path="url(#b)" fill="#000F5E" d="M861.666 167h20v1.667h-20zM861.666 170.334h20v1.667h-20zM861.666 173.667h10v1.667h-10z"/><g clip-path="url(#b)"><defs><path id="i" d="M855 147h35.781v52.289H855z"/></defs><clipPath id="j"><use xlink:href="#i" overflow="visible"/></clipPath><path clip-path="url(#j)" fill="#DB2663" d="M884.714 183.521c-2.181-.521-4.247-.127-5.933.849v-.819c0-1.261.499-2.509 1.477-3.307 1.861-1.521 4.014-1.061 5.323.247l1.416-1.416c-1.714-1.716-4.421-2.434-7.03-1.074-2.017 1.052-3.186 3.238-3.186 5.513v2.499c-1.593 1.808-2.392 4.333-1.811 7.036.658 3.062 3.156 5.501 6.232 6.09a8.014 8.014 0 0 0 9.437-9.377c-.562-3.035-2.923-5.525-5.925-6.241m2.024 10.062l-1.414 1.414-2.293-2.293-2.293 2.293-1.414-1.414 2.293-2.293-2.293-2.293 1.414-1.414 2.293 2.293 2.293-2.293 1.414 1.414-2.293 2.293 2.293 2.293z"/></g><path clip-path="url(#b)" fill="#000F5E" d="M198.635 181h20-20z"/><g clip-path="url(#b)"><defs><path id="k" d="M198.635 171h20v20h-20z"/></defs><clipPath id="l"><use xlink:href="#k" overflow="visible"/></clipPath><path clip-path="url(#l)" fill="none" stroke="#000F5E" stroke-width="1.75" stroke-miterlimit="10" d="M198.635 181h20"/></g><path clip-path="url(#b)" fill="#000F5E" d="M208.635 171v20-20z"/><g clip-path="url(#b)"><defs><path id="m" d="M198.635 171h20v20h-20z"/></defs><clipPath id="n"><use xlink:href="#m" overflow="visible"/></clipPath><path clip-path="url(#n)" fill="none" stroke="#000F5E" stroke-width="1.75" stroke-miterlimit="10" d="M208.635 191v-20"/></g><g clip-path="url(#b)"><defs><path id="o" d="M666.177 154.289h49.999v37.001h-49.999z"/></defs><clipPath id="p"><use xlink:href="#o" overflow="visible"/></clipPath><path clip-path="url(#p)" fill="#001689" d="M699.61 180.29c0-.451-.045-.89-.114-1.323l2.681-2.344-2.276-3.739-3.197 1.044a8.427 8.427 0 0 0-2.617-1.547l-.709-3.091h-4.399l-.709 3.091a8.418 8.418 0 0 0-2.617 1.548l-3.197-1.045-2.277 3.739 2.681 2.345a8.472 8.472 0 0 0-.113 1.322c0 .451.045.889.113 1.321l-2.681 2.346 2.278 3.738 3.196-1.044a8.4 8.4 0 0 0 2.618 1.547l.708 3.092h4.399l.708-3.092a8.396 8.396 0 0 0 2.617-1.547l3.196 1.044 2.278-3.738-2.681-2.345c.069-.433.114-.871.114-1.322m-8.433 2.528c-1.654 0-3-1.343-3-3s1.346-3 3-3a3.001 3.001 0 0 1 0 6"/><path clip-path="url(#p)" fill="#69A6FF" d="M685.61 165.29c0-.451-.045-.89-.114-1.323l2.681-2.344-2.276-3.739-3.197 1.044a8.427 8.427 0 0 0-2.617-1.547l-.709-3.091h-4.399l-.709 3.091a8.418 8.418 0 0 0-2.617 1.548l-3.197-1.045-2.277 3.739 2.681 2.345a8.472 8.472 0 0 0-.113 1.322c0 .451.045.889.113 1.321l-2.681 2.346 2.278 3.738 3.196-1.044a8.4 8.4 0 0 0 2.618 1.547l.708 3.092h4.399l.708-3.092a8.396 8.396 0 0 0 2.617-1.547l3.196 1.044 2.278-3.738-2.681-2.345c.069-.433.114-.871.114-1.322m-8.433 2.528c-1.654 0-3-1.343-3-3s1.346-3 3-3a3.001 3.001 0 0 1 0 6"/><path clip-path="url(#p)" fill="#003BC9" d="M713.61 165.29c0-.451-.045-.89-.114-1.323l2.681-2.344-2.276-3.739-3.197 1.044a8.427 8.427 0 0 0-2.617-1.547l-.709-3.091h-4.399l-.709 3.091a8.418 8.418 0 0 0-2.617 1.548l-3.197-1.045-2.277 3.739 2.681 2.345a8.472 8.472 0 0 0-.113 1.322c0 .451.045.889.113 1.321l-2.681 2.346 2.278 3.738 3.196-1.044a8.4 8.4 0 0 0 2.618 1.547l.708 3.092h4.399l.708-3.092a8.396 8.396 0 0 0 2.617-1.547l3.196 1.044 2.278-3.738-2.681-2.345c.069-.433.114-.871.114-1.322m-8.433 2.528c-1.654 0-3-1.343-3-3s1.346-3 3-3a3.001 3.001 0 0 1 0 6"/></g><path clip-path="url(#b)" fill="none" stroke="#A71C71" stroke-miterlimit="10" d="M558.867 183.5h48.778"/><g clip-path="url(#b)"><defs><path id="q" d="M0 0h1000v400H0z"/></defs><clipPath id="r"><use xlink:href="#q" overflow="visible"/></clipPath><path clip-path="url(#r)" fill="#FFF" d="M559.08 187.26a3.76 3.76 0 1 1 .002-7.522 3.76 3.76 0 0 1-.002 7.522"/><path clip-path="url(#r)" fill="#A71C71" d="M559.08 187.76a4.265 4.265 0 0 0 4.26-4.26c0-2.349-1.911-4.26-4.26-4.26s-4.26 1.911-4.26 4.26c0 2.348 1.911 4.26 4.26 4.26s-2.349 0 0 0m0-7.52a3.263 3.263 0 0 1 3.26 3.26c0 1.798-1.462 3.26-3.26 3.26s-3.26-1.462-3.26-3.26c0-1.798 1.462-3.26 3.26-3.26s-1.798 0 0 0M606.186 188.486l8.634-4.986-8.634-4.987z"/></g><g clip-path="url(#b)"><defs><path id="s" d="M482 147h35.78v52.289H482z"/></defs><clipPath id="t"><use xlink:href="#s" overflow="visible"/></clipPath><path clip-path="url(#t)" fill="#FFF" d="M514.391 160v36h-31v-48h18v12z"/><path clip-path="url(#t)" fill="#000F5E" d="M483.667 148.667h16.666V162h13.334v33.334h-30v-46.667zM482 147v50h33.333v-36.666L502 147h-20z"/><path clip-path="url(#t)" fill="#000F5E" d="M488.667 167h20v1.667h-20zM488.667 170.334h20v1.667h-20zM488.667 173.667h10v1.667h-10z"/><path clip-path="url(#t)" fill="#FFF" d="M515.391 191c0 3.313-2.463 6-5.5 6s-5.5-2.687-5.5-6 2.463-6 5.5-6 5.5 2.687 5.5 6"/><path clip-path="url(#t)" fill="#5AA700" d="M515.781 183.29c0-4.089-4.396-7.414-8.607-5.39-2.133 1.025-3.393 3.286-3.393 5.652v2.461c-1.593 1.808-2.392 4.333-1.811 7.035.655 3.055 3.145 5.492 6.212 6.087 5.118.992 9.599-2.906 9.599-7.845a7.958 7.958 0 0 0-2-5.278v-2.722zm-10 0c0-2.879 3.412-5.28 6.272-3.239 1.127.804 1.728 2.161 1.728 3.546v.772a7.954 7.954 0 0 0-8 .001v-1.08zm2.824 12.414l-3.707-3.707 1.414-1.414 2.293 2.293 5.293-5.293 1.414 1.414-6.707 6.707z"/></g><g clip-path="url(#b)"><defs><path id="u" d="M0 0h1000v400H0z"/></defs><clipPath id="v"><use xlink:href="#u" overflow="visible"/></clipPath><path clip-path="url(#v)" fill="none" stroke="#A71C71" stroke-miterlimit="10" d="M361.672 183.5h48.777"/><path clip-path="url(#v)" fill="#FFF" d="M361.885 187.26a3.76 3.76 0 1 1 .002-7.522 3.76 3.76 0 0 1-.002 7.522"/><path clip-path="url(#v)" fill="#A71C71" d="M361.885 187.76a4.265 4.265 0 0 0 4.26-4.26c0-2.349-1.911-4.26-4.26-4.26s-4.26 1.911-4.26 4.26c0 2.348 1.911 4.26 4.26 4.26s-2.349 0 0 0m0-7.52a3.263 3.263 0 0 1 3.26 3.26c0 1.798-1.462 3.26-3.26 3.26s-3.26-1.462-3.26-3.26c0-1.798 1.462-3.26 3.26-3.26s-1.798 0 0 0M408.99 188.486l8.635-4.986-8.635-4.987z"/></g><g clip-path="url(#b)"><defs><path id="w" d="M268.38 154.289h50v37.001h-50z"/></defs><clipPath id="x"><use xlink:href="#w" overflow="visible"/></clipPath><path clip-path="url(#x)" fill="#001689" d="M301.813 180.29c0-.451-.045-.89-.114-1.323l2.681-2.344-2.277-3.739-3.197 1.044a8.427 8.427 0 0 0-2.617-1.547l-.709-3.091h-4.4l-.709 3.091a8.44 8.44 0 0 0-2.617 1.548l-3.197-1.045-2.277 3.739 2.68 2.345a8.472 8.472 0 0 0-.113 1.322c0 .451.045.889.113 1.321l-2.68 2.346 2.278 3.738 3.196-1.044a8.412 8.412 0 0 0 2.618 1.547l.708 3.092h4.4l.708-3.092a8.407 8.407 0 0 0 2.617-1.547l3.196 1.044 2.279-3.738-2.681-2.345c.07-.433.114-.871.114-1.322m-8.433 2.528a3.001 3.001 0 0 1 0-6 3.001 3.001 0 0 1 0 6"/><path clip-path="url(#x)" fill="#69A6FF" d="M287.813 165.29c0-.451-.045-.89-.114-1.323l2.681-2.344-2.277-3.739-3.197 1.044a8.427 8.427 0 0 0-2.617-1.547l-.709-3.091h-4.4l-.709 3.091a8.44 8.44 0 0 0-2.617 1.548l-3.197-1.045-2.277 3.739 2.68 2.345a8.472 8.472 0 0 0-.113 1.322c0 .451.045.889.113 1.321l-2.68 2.346 2.278 3.738 3.196-1.044a8.412 8.412 0 0 0 2.618 1.547l.708 3.092h4.4l.708-3.092a8.407 8.407 0 0 0 2.617-1.547l3.196 1.044 2.279-3.738-2.681-2.345c.07-.433.114-.871.114-1.322m-8.433 2.528a3.001 3.001 0 0 1 0-6 3.001 3.001 0 0 1 0 6"/><path clip-path="url(#x)" fill="#003BC9" d="M315.813 165.29c0-.451-.045-.89-.114-1.323l2.681-2.344-2.277-3.739-3.197 1.044a8.427 8.427 0 0 0-2.617-1.547l-.709-3.091h-4.4l-.709 3.091a8.44 8.44 0 0 0-2.617 1.548l-3.197-1.045-2.277 3.739 2.68 2.345a8.472 8.472 0 0 0-.113 1.322c0 .451.045.889.113 1.321l-2.68 2.346 2.278 3.738 3.196-1.044a8.412 8.412 0 0 0 2.618 1.547l.708 3.092h4.4l.708-3.092a8.407 8.407 0 0 0 2.617-1.547l3.196 1.044 2.279-3.738-2.681-2.345c.07-.433.114-.871.114-1.322m-8.433 2.528a3.001 3.001 0 0 1 0-6 3.001 3.001 0 0 1 0 6"/></g><g clip-path="url(#b)"><defs><path id="y" d="M772.034 171h20v20h-20z"/></defs><clipPath id="z"><use xlink:href="#y" overflow="visible"/></clipPath><path clip-path="url(#z)" fill="#000F5E" d="M772.033 181h20-20z"/><path clip-path="url(#z)" fill="none" stroke="#000F5E" stroke-width="1.75" stroke-miterlimit="10" d="M772.033 181h20"/><path clip-path="url(#z)" fill="#000F5E" d="M782.033 171v20-20z"/><path clip-path="url(#z)" fill="none" stroke="#000F5E" stroke-width="1.75" stroke-miterlimit="10" d="M782.033 191v-20"/></g><g clip-path="url(#b)"><defs><path id="A" d="M106 147h35.781v52.289H106z"/></defs><clipPath id="B"><use xlink:href="#A" overflow="visible"/></clipPath><path clip-path="url(#B)" fill="#FFF" d="M124.391 160v-12h-17v48h31v-36z"/><path clip-path="url(#B)" fill="#000F5E" d="M107.667 148.667h16.667V162h13.333v33.334h-30v-46.667zM106 147v50h33.333v-36.666L126 147h-20z"/><path clip-path="url(#B)" fill="#000F5E" d="M112.666 167h20v1.667h-20zM112.666 170.334h20v1.667h-20zM112.666 173.667h10v1.667h-10z"/></g><g clip-path="url(#b)"><defs><path id="C" d="M106 147h35.78v52.289H106z"/></defs><clipPath id="D"><use xlink:href="#C" overflow="visible"/></clipPath><path clip-path="url(#D)" fill="#DB2663" d="M135.714 183.521c-2.181-.521-4.247-.127-5.933.849v-.819c0-1.261.499-2.509 1.477-3.307 1.861-1.521 4.013-1.061 5.323.247l1.416-1.416c-1.714-1.716-4.421-2.434-7.03-1.074-2.017 1.052-3.186 3.238-3.186 5.513v2.499c-1.593 1.808-2.392 4.333-1.811 7.036.659 3.062 3.157 5.501 6.233 6.09a8.013 8.013 0 0 0 9.436-9.377c-.562-3.035-2.923-5.525-5.925-6.241m2.024 10.062l-1.414 1.414-2.293-2.293-2.293 2.293-1.414-1.414 2.293-2.293-2.293-2.293 1.414-1.414 2.293 2.293 2.293-2.293 1.414 1.414-2.293 2.293 2.293 2.293z"/></g><g clip-path="url(#b)"><text transform="translate(471.94 349.897)" font-family="'IBMPlexSans'" font-size="11">Chiave</text></g><g clip-path="url(#b)"><text transform="translate(473.344 363.096)" font-family="'IBMPlexSans'" font-size="11">simmetrica</text></g><g clip-path="url(#b)" transform="translate(-28)"><text transform="translate(819.099 220.898)" font-size="11" font-family="IBMPlexSans">Testo non crittografato</text></g><g clip-path="url(#b)"><text transform="translate(681.247 219.898)" font-family="'IBMPlexSans'" font-size="11">Algoritmo</text></g><g clip-path="url(#b)"><text transform="translate(684.541 233.098)" font-family="'IBMPlexSans'" font-size="11">AES</text></g><g clip-path="url(#b)"><text font-size="11" x="455.569" y="219.898" font-family="IBMPlexSans">Testo crittografato</text></g><g clip-path="url(#b)"><text transform="translate(548.717 107.376)" font-family="'IBMPlexSans-SemiBold'" font-size="12">Decodifica</text></g><g clip-path="url(#b)"><text transform="translate(101.611 219.897)" font-family="'IBMPlexSans'" font-size="11">Testo non crittografato</text></g><g clip-path="url(#b)"><text transform="translate(70.717 107.376)" font-family="'IBMPlexSans-SemiBold'" font-size="12">Codifica</text></g><g clip-path="url(#b)"><text transform="translate(49 63)" fill="#272727" font-family="'IBMPlexSans-Bold'" font-size="16">Codifica simmetrica</text></g><g clip-path="url(#b)"><text transform="translate(264.453 219.897)" font-family="'IBMPlexSans'" font-size="11">Algoritmo</text></g><g clip-path="url(#b)"><text transform="translate(269.747 233.096)" font-family="'IBMPlexSans'" font-size="11">AES</text></g></svg>