<svg xmlns="http://www.w3.org/2000/svg" xmlns:xlink="http://www.w3.org/1999/xlink" viewBox="0 0 1000 400"><style>.st0{fill:#fff}.st1,.st2,.st3{fill:none;stroke:#d8d8d8;stroke-miterlimit:10}.st2,.st3{stroke-dasharray:3,2}.st3{stroke-dasharray:2.9929,1.9952}.st4{fill:#f4f4f4}.st5,.st6{stroke:#000f5e}.st5{fill:none;stroke-miterlimit:10}.st6{stroke-dasharray:3,2}.st10,.st6,.st8{fill:none;stroke-miterlimit:10}.st8{stroke-dasharray:2.9621,1.9747;stroke:#000f5e}.st10{stroke:#b380e0}.st13{fill:#b380e0}.st20{clip-path:url(#SVGID_6_);fill:#6e177d}.st22{clip-path:url(#SVGID_10_);fill:#000f5e}.st26{clip-path:url(#SVGID_14_)}.st33{fill:none;stroke:#a71c71;stroke-miterlimit:10}.st34{fill:#a71c71}.st36{clip-path:url(#SVGID_24_);fill:#000f5e}.st45{clip-path:url(#SVGID_32_)}.st49{clip-path:url(#SVGID_38_);fill:#000f5e}.st52{font-family:&apos;IBMPlexSans&apos;}.st53{font-size:11px}.st54{font-family:&apos;IBMPlexSans-SemiBold&apos;}.st55{font-size:12px}</style><g id="Visual"><path class="st0" d="M48.5 83.5h425v200h-425z"/><path class="st1" d="M473.5 282v1.5H472"/><path class="st2" d="M470 283.5H51"/><path class="st1" d="M50 283.5h-1.5V282"/><path class="st2" d="M48.5 280V86"/><path class="st1" d="M48.5 85v-1.5H50"/><path class="st2" d="M52 83.5h419"/><path class="st1" d="M472 83.5h1.5V85"/><path class="st2" d="M473.5 87v194"/><path class="st0" d="M524 83.7h425v199.5H524z"/><path class="st1" d="M949 281.8v1.5h-1.5"/><path class="st2" d="M945.5 283.3h-419"/><path class="st1" d="M525.5 283.3H524v-1.5"/><path class="st3" d="M524 279.8V86.2"/><path class="st1" d="M524 85.2v-1.5h1.5"/><path class="st2" d="M527.5 83.7h419"/><path class="st1" d="M947.5 83.7h1.5v1.5"/><path class="st3" d="M949 87.2v193.6"/><g><path class="st4" d="M629.5 118.5h300v140h-300z"/><path class="st5" d="M929.5 257v1.5H928"/><path class="st6" d="M926 258.5H632"/><path class="st5" d="M631 258.5h-1.5V257"/><path class="st6" d="M629.5 255V121"/><path class="st5" d="M629.5 120v-1.5h1.5"/><path class="st6" d="M633 118.5h294"/><path class="st5" d="M928 118.5h1.5v1.5"/><path class="st6" d="M929.5 122v134"/></g><g><path class="st4" d="M70.5 120.5h300v140h-300z"/><path class="st5" d="M370.5 259v1.5H369"/><path class="st6" d="M367 260.5H73"/><path class="st5" d="M72 260.5h-1.5V259"/><path class="st6" d="M70.5 257V123"/><path class="st5" d="M70.5 122v-1.5H72"/><path class="st6" d="M74 120.5h294"/><path class="st5" d="M369 120.5h1.5v1.5"/><path class="st6" d="M370.5 124v134"/></g><g><path fill="#edf5ff" d="M432.8 119h133.3v140H432.8z"/><path class="st5" d="M564.7 119h1.5v1.5"/><path class="st6" d="M566.2 122.5v134"/><path class="st5" d="M566.2 257.5v1.5h-1.5"/><path class="st8" d="M562.7 259H435.3"/><path class="st5" d="M434.3 259h-1.5v-1.5"/><path class="st6" d="M432.8 255.5v-134"/><path class="st5" d="M432.8 120.5V119h1.5"/><path class="st8" d="M436.3 119h127.4"/></g><g><path class="st10" d="M432.5 316h-.5"/><path fill="none" stroke="#b380e0" stroke-miterlimit="10" stroke-dasharray="1.0036,1.0036" d="M431 316H293"/><path class="st10" d="M292.5 316h-.5v-.5"/><path fill="none" stroke="#b380e0" stroke-miterlimit="10" stroke-dasharray=".9826,.9826" d="M292 314.5l.4-42.7"/><path class="st10" d="M292.4 271.3v-.5"/><path class="st13" d="M432 312.8h1v6.5h-1zM297.4 272.3l-5-8.7-5 8.6z"/></g><g><path class="st10" d="M691 270.2v.5"/><path fill="none" stroke="#b380e0" stroke-miterlimit="10" stroke-dasharray=".9961,.9961" d="M691 271.7V315"/><path class="st10" d="M691 315.5v.5h-.5"/><path fill="none" stroke="#b380e0" stroke-miterlimit="10" stroke-dasharray="1.0041,1.0041" d="M689.5 316h-122"/><path class="st10" d="M567 316h-.5"/><path class="st13" d="M686 271.6l5-8.6 5 8.6zM566 312.8h1v6.5h-1z"/></g><g id="Root_key"><defs><path id="SVGID_1_" d="M467.6 298.7h64.5v30h-64.5z"/></defs><clipPath id="SVGID_2_"><use xlink:href="#SVGID_1_" overflow="visible"/></clipPath><g clip-path="url(#SVGID_2_)"><defs><path id="SVGID_3_" d="M467.6 298.7h64.5v30h-64.5z"/></defs><clipPath id="SVGID_4_"><use xlink:href="#SVGID_3_" overflow="visible"/></clipPath><g clip-path="url(#SVGID_4_)"><defs><path id="SVGID_5_" d="M467.6 298.7h64.5v30h-64.5z"/></defs><clipPath id="SVGID_6_"><use xlink:href="#SVGID_5_" overflow="visible"/></clipPath><g opacity=".65" clip-path="url(#SVGID_6_)"><defs><path id="SVGID_7_" d="M468.4 299.3h62v28h-62z"/></defs><clipPath id="SVGID_8_"><use xlink:href="#SVGID_7_" overflow="visible"/></clipPath><path d="M524.4 307.3H495c-2.2-4.7-7.1-8-12.6-8-7.7 0-14 6.3-14 14s6.3 14 14 14c5.6 0 10.4-3.3 12.6-8h7.4v-2h3v2h19l6-6-6-6z" clip-path="url(#SVGID_8_)" fill="#b380e0"/></g><path class="st20" d="M525.1 306.6h-29.2c-.7-1.3-1.5-2.5-2.6-3.5-6.1-6.1-16.2-5.8-21.9.8-4.9 5.6-4.9 14.1 0 19.7 5.8 6.6 15.8 6.9 21.9.8 1.1-1.1 1.9-2.3 2.6-3.5h5.6l2.4-2.4 2.4 2.4h18.9l7.1-7.1-7.2-7.2zm-.7 12.5h-17.5l-1.9-1.9-1.2-1.2-1.2 1.2-1.9 1.9h-5.9l-.5.9c-.6 1.2-1.4 2.2-2.3 3.1-5.4 5.4-14.4 5.2-19.5-.7-4.3-5-4.3-12.5 0-17.5 5.1-5.9 14.1-6.1 19.5-.7.9.9 1.7 2 2.3 3.1l.5.9h29.5l5.4 5.4-5.3 5.5z"/><path class="st20" d="M480.1 311.3c1.3 1.3 1.3 3.4 0 4.7-1.3 1.3-3.4 1.3-4.7 0s-1.3-3.4 0-4.7 3.4-1.3 4.7 0M508.4 312.8h14.1v1.7h-14.1z"/></g></g></g><g id="Ciphertext_1_"><defs><path id="SVGID_9_" d="M855 147h35.8v52.3H855z"/></defs><clipPath id="SVGID_10_"><use xlink:href="#SVGID_9_" overflow="visible"/></clipPath><path clip-path="url(#SVGID_10_)" fill="#fff" d="M873.4 160v-12h-17v48h31v-36z"/><path class="st22" d="M856.7 148.7h16.7V162h13.3v33.3h-30v-46.6zM855 147v50h33.3v-36.7L875 147h-20z"/><path class="st22" d="M861.7 167h20v1.7h-20zM861.7 170.3h20v1.7h-20zM861.7 173.7h10v1.7h-10z"/><g clip-path="url(#SVGID_10_)"><defs><path id="SVGID_11_" d="M855 147h35.8v52.3H855z"/></defs><clipPath id="SVGID_12_"><use xlink:href="#SVGID_11_" overflow="visible"/></clipPath><path d="M884.7 183.5c-2.2-.5-4.2-.1-5.9.8v-.8c0-1.3.5-2.5 1.5-3.3 1.9-1.5 4-1.1 5.3.2l1.4-1.4c-1.7-1.7-4.4-2.4-7-1.1-2 1.1-3.2 3.2-3.2 5.5v2.5c-1.6 1.8-2.4 4.3-1.8 7 .7 3.1 3.2 5.5 6.2 6.1 5.6 1.1 10.5-3.8 9.4-9.4-.5-2.9-2.9-5.4-5.9-6.1m2 10.1l-1.4 1.4-2.3-2.3-2.3 2.3-1.4-1.4 2.3-2.3-2.3-2.3 1.4-1.4 2.3 2.3 2.3-2.3 1.4 1.4-2.3 2.3 2.3 2.3z" clip-path="url(#SVGID_12_)" fill="#db2663"/></g></g><g id="Plus_sign"><defs><path id="SVGID_13_" d="M198.6 171h20v20h-20z"/></defs><clipPath id="SVGID_14_"><use xlink:href="#SVGID_13_" overflow="visible"/></clipPath><g class="st26"><defs><path id="SVGID_15_" d="M198.6 171h20v20h-20z"/></defs><clipPath id="SVGID_16_"><use xlink:href="#SVGID_15_" overflow="visible"/></clipPath><path clip-path="url(#SVGID_16_)" fill="none" stroke="#000f5e" stroke-width="1.75" stroke-miterlimit="10" d="M198.6 181h20"/></g><g class="st26"><defs><path id="SVGID_17_" d="M198.6 171h20v20h-20z"/></defs><clipPath id="SVGID_18_"><use xlink:href="#SVGID_17_" overflow="visible"/></clipPath><path clip-path="url(#SVGID_18_)" fill="none" stroke="#000f5e" stroke-width="1.75" stroke-miterlimit="10" d="M208.6 191v-20"/></g></g><g id="AES-GCM_algorithm"><defs><path id="SVGID_19_" d="M666.2 154.3h50v37h-50z"/></defs><clipPath id="SVGID_20_"><use xlink:href="#SVGID_19_" overflow="visible"/></clipPath><g clip-path="url(#SVGID_20_)"><defs><path id="SVGID_21_" d="M666.2 154.3h50v37h-50z"/></defs><clipPath id="SVGID_22_"><use xlink:href="#SVGID_21_" overflow="visible"/></clipPath><path d="M699.6 180.3c0-.5 0-.9-.1-1.3l2.7-2.3-2.3-3.7-3.2 1c-.8-.7-1.6-1.2-2.6-1.5l-.7-3.1H689l-.7 3.1c-1 .4-1.9.9-2.6 1.5l-3.2-1-2.3 3.7 2.7 2.3c-.1.4-.1.9-.1 1.3 0 .5 0 .9.1 1.3l-2.7 2.3 2.3 3.7 3.2-1c.8.7 1.6 1.2 2.6 1.5l.7 3.1h4.4l.7-3.1c1-.4 1.9-.9 2.6-1.5l3.2 1 2.3-3.7-2.7-2.3c.1-.4.1-.9.1-1.3m-8.4 2.5c-1.7 0-3-1.3-3-3s1.3-3 3-3 3 1.3 3 3-1.4 3-3 3" clip-path="url(#SVGID_22_)" fill="#001689"/><path d="M685.6 165.3c0-.5 0-.9-.1-1.3l2.7-2.3-2.3-3.7-3.2 1c-.8-.7-1.6-1.2-2.6-1.5l-.7-3.1H675l-.7 3.1c-1 .4-1.9.9-2.6 1.5l-3.2-1-2.3 3.7 2.7 2.3c-.1.4-.1.9-.1 1.3 0 .5 0 .9.1 1.3l-2.7 2.3 2.3 3.7 3.2-1c.8.7 1.6 1.2 2.6 1.5l.7 3.1h4.4l.7-3.1c1-.4 1.9-.9 2.6-1.5l3.2 1 2.3-3.7-2.7-2.3c.1-.4.1-.9.1-1.3m-8.4 2.5c-1.7 0-3-1.3-3-3s1.3-3 3-3 3 1.3 3 3-1.4 3-3 3" clip-path="url(#SVGID_22_)" fill="#69a6ff"/><path d="M713.6 165.3c0-.5 0-.9-.1-1.3l2.7-2.3-2.3-3.7-3.2 1c-.8-.7-1.6-1.2-2.6-1.5l-.7-3.1H703l-.7 3.1c-1 .4-1.9.9-2.6 1.5l-3.2-1-2.3 3.7 2.7 2.3c-.1.4-.1.9-.1 1.3 0 .5 0 .9.1 1.3l-2.7 2.3 2.3 3.7 3.2-1c.8.7 1.6 1.2 2.6 1.5l.7 3.1h4.4l.7-3.1c1-.4 1.9-.9 2.6-1.5l3.2 1 2.3-3.7-2.7-2.3c.1-.4.1-.9.1-1.3m-8.4 2.5c-1.7 0-3-1.3-3-3s1.3-3 3-3 3 1.3 3 3-1.4 3-3 3" clip-path="url(#SVGID_22_)" fill="#003bc9"/></g></g><g><path class="st33" d="M558.9 183.5h48.7"/><circle class="st0" cx="559.1" cy="183.5" r="3.8"/><path class="st34" d="M559.1 187.8c2.3 0 4.3-1.9 4.3-4.3s-1.9-4.3-4.3-4.3c-2.3 0-4.3 1.9-4.3 4.3s1.9 4.3 4.3 4.3c2.3 0-2.4 0 0 0zm0-7.6c1.8 0 3.3 1.5 3.3 3.3s-1.5 3.3-3.3 3.3-3.3-1.5-3.3-3.3 1.5-3.3 3.3-3.3-1.8 0 0 0z"/><g><path class="st34" d="M606.2 188.5l8.6-5-8.6-5z"/></g></g><g id="Plaintext"><defs><path id="SVGID_23_" d="M482 147h35.8v52.3H482z"/></defs><clipPath id="SVGID_24_"><use xlink:href="#SVGID_23_" overflow="visible"/></clipPath><path clip-path="url(#SVGID_24_)" fill="#fff" d="M514.4 160v36h-31v-48h18v12z"/><path class="st36" d="M483.7 148.7h16.7V162h13.3v33.3h-30v-46.6zM482 147v50h33.3v-36.7L502 147h-20z"/><path class="st36" d="M488.7 167h20v1.7h-20zM488.7 170.3h20v1.7h-20zM488.7 173.7h10v1.7h-10z"/><g clip-path="url(#SVGID_24_)"><defs><path id="SVGID_25_" d="M482 147h35.8v52.3H482z"/></defs><clipPath id="SVGID_26_"><use xlink:href="#SVGID_25_" overflow="visible"/></clipPath><path d="M515.4 191c0 3.3-2.5 6-5.5 6s-5.5-2.7-5.5-6 2.5-6 5.5-6 5.5 2.7 5.5 6" clip-path="url(#SVGID_26_)" fill="#fff"/><path d="M515.8 183.3c0-4.1-4.4-7.4-8.6-5.4-2.1 1-3.4 3.3-3.4 5.7v2.5c-1.6 1.8-2.4 4.3-1.8 7 .7 3.1 3.1 5.5 6.2 6.1 5.1 1 9.6-2.9 9.6-7.8 0-2-.8-3.9-2-5.3v-2.8zm-10 0c0-2.9 3.4-5.3 6.3-3.2 1.1.8 1.7 2.2 1.7 3.5v.8c-1.2-.7-2.5-1.1-4-1.1s-2.8.4-4 1.1v-1.1zm2.8 12.4l-3.7-3.7 1.4-1.4 2.3 2.3 5.3-5.3 1.4 1.4-6.7 6.7z" clip-path="url(#SVGID_26_)" fill="#5aa700"/></g></g><g><path class="st33" d="M361.7 183.5h48.7"/><circle class="st0" cx="361.9" cy="183.5" r="3.8"/><path class="st34" d="M361.9 187.8c2.3 0 4.3-1.9 4.3-4.3s-1.9-4.3-4.3-4.3c-2.3 0-4.3 1.9-4.3 4.3s1.9 4.3 4.3 4.3c2.3 0-2.4 0 0 0zm0-7.6c1.8 0 3.3 1.5 3.3 3.3s-1.5 3.3-3.3 3.3c-1.8 0-3.3-1.5-3.3-3.3s1.5-3.3 3.3-3.3c1.8 0-1.8 0 0 0z"/><g><path class="st34" d="M409 188.5l8.6-5-8.6-5z"/></g></g><g id="AES-GCM_algorithm_1_"><defs><path id="SVGID_27_" d="M268.4 154.3h50v37h-50z"/></defs><clipPath id="SVGID_28_"><use xlink:href="#SVGID_27_" overflow="visible"/></clipPath><g clip-path="url(#SVGID_28_)"><defs><path id="SVGID_29_" d="M268.4 154.3h50v37h-50z"/></defs><clipPath id="SVGID_30_"><use xlink:href="#SVGID_29_" overflow="visible"/></clipPath><path d="M301.8 180.3c0-.5 0-.9-.1-1.3l2.7-2.3-2.3-3.7-3.2 1c-.8-.7-1.6-1.2-2.6-1.5l-.7-3.1h-4.4l-.7 3.1c-1 .4-1.9.9-2.6 1.5l-3.2-1-2.3 3.7 2.7 2.3c-.1.4-.1.9-.1 1.3 0 .5 0 .9.1 1.3l-2.7 2.3 2.3 3.7 3.2-1c.8.7 1.6 1.2 2.6 1.5l.7 3.1h4.4l.7-3.1c1-.4 1.9-.9 2.6-1.5l3.2 1 2.3-3.7-2.7-2.3c.1-.4.1-.9.1-1.3m-8.4 2.5c-1.7 0-3-1.3-3-3s1.3-3 3-3 3 1.3 3 3-1.4 3-3 3" clip-path="url(#SVGID_30_)" fill="#001689"/><path d="M287.8 165.3c0-.5 0-.9-.1-1.3l2.7-2.3-2.3-3.7-3.2 1c-.8-.7-1.6-1.2-2.6-1.5l-.7-3.1h-4.4l-.7 3.1c-1 .4-1.9.9-2.6 1.5l-3.2-1-2.3 3.7 2.7 2.3c-.1.4-.1.9-.1 1.3 0 .5 0 .9.1 1.3l-2.7 2.3 2.3 3.7 3.2-1c.8.7 1.6 1.2 2.6 1.5l.7 3.1h4.4l.7-3.1c1-.4 1.9-.9 2.6-1.5l3.2 1 2.3-3.7-2.7-2.3c.1-.4.1-.9.1-1.3m-8.4 2.5c-1.7 0-3-1.3-3-3s1.3-3 3-3 3 1.3 3 3-1.4 3-3 3" clip-path="url(#SVGID_30_)" fill="#69a6ff"/><path d="M315.8 165.3c0-.5 0-.9-.1-1.3l2.7-2.3-2.3-3.7-3.2 1c-.8-.7-1.6-1.2-2.6-1.5l-.7-3.1h-4.4l-.7 3.1c-1 .4-1.9.9-2.6 1.5l-3.2-1-2.3 3.7 2.7 2.3c-.1.4-.1.9-.1 1.3 0 .5 0 .9.1 1.3l-2.7 2.3 2.3 3.7 3.2-1c.8.7 1.6 1.2 2.6 1.5l.7 3.1h4.4l.7-3.1c1-.4 1.9-.9 2.6-1.5l3.2 1 2.3-3.7-2.7-2.3c.1-.4.1-.9.1-1.3m-8.4 2.5c-1.7 0-3-1.3-3-3s1.3-3 3-3 3 1.3 3 3-1.4 3-3 3" clip-path="url(#SVGID_30_)" fill="#003bc9"/></g></g><g id="Plus_sign_1_"><defs><path id="SVGID_31_" d="M772 171h20v20h-20z"/></defs><clipPath id="SVGID_32_"><use xlink:href="#SVGID_31_" overflow="visible"/></clipPath><g class="st45"><defs><path id="SVGID_33_" d="M772 171h20v20h-20z"/></defs><clipPath id="SVGID_34_"><use xlink:href="#SVGID_33_" overflow="visible"/></clipPath><path clip-path="url(#SVGID_34_)" fill="none" stroke="#000f5e" stroke-width="1.75" stroke-miterlimit="10" d="M772 181h20"/></g><g class="st45"><defs><path id="SVGID_35_" d="M772 171h20v20h-20z"/></defs><clipPath id="SVGID_36_"><use xlink:href="#SVGID_35_" overflow="visible"/></clipPath><path clip-path="url(#SVGID_36_)" fill="none" stroke="#000f5e" stroke-width="1.75" stroke-miterlimit="10" d="M782 191v-20"/></g></g><g id="Ciphertext"><defs><path id="SVGID_37_" d="M106 147h35.8v52.3H106z"/></defs><clipPath id="SVGID_38_"><use xlink:href="#SVGID_37_" overflow="visible"/></clipPath><path clip-path="url(#SVGID_38_)" fill="#fff" d="M124.4 160v-12h-17v48h31v-36z"/><path class="st49" d="M107.7 148.7h16.7V162h13.3v33.3h-30v-46.6zM106 147v50h33.3v-36.7L126 147h-20z"/><path class="st49" d="M112.7 167h20v1.7h-20zM112.7 170.3h20v1.7h-20zM112.7 173.7h10v1.7h-10z"/><g clip-path="url(#SVGID_38_)"><defs><path id="SVGID_39_" d="M106 147h35.8v52.3H106z"/></defs><clipPath id="SVGID_40_"><use xlink:href="#SVGID_39_" overflow="visible"/></clipPath><path d="M135.7 183.5c-2.2-.5-4.2-.1-5.9.8v-.8c0-1.3.5-2.5 1.5-3.3 1.9-1.5 4-1.1 5.3.2l1.4-1.4c-1.7-1.7-4.4-2.4-7-1.1-2 1.1-3.2 3.2-3.2 5.5v2.5c-1.6 1.8-2.4 4.3-1.8 7 .7 3.1 3.2 5.5 6.2 6.1 5.6 1.1 10.5-3.8 9.4-9.4-.5-2.9-2.9-5.4-5.9-6.1m2 10.1l-1.4 1.4-2.3-2.3-2.3 2.3-1.4-1.4 2.3-2.3-2.3-2.3 1.4-1.4 2.3 2.3 2.3-2.3 1.4 1.4-2.3 2.3 2.3 2.3z" clip-path="url(#SVGID_40_)" fill="#db2663"/></g></g></g><g id="Text"><text transform="translate(471.94 349.896)"><tspan x="0" y="0" class="st52 st53">Chiave </tspan><tspan x="19.3" y="13.2" class="st52 st53">simmetrica</tspan></text><text transform="translate(851.014 219.896)" class="st52 st53">Testo non crittografato</text><text transform="translate(681.25 219.896)"><tspan x="0" y="0" class="st52 st53">Algoritmo </tspan><tspan x="-13.7" y="13.2" class="st52 st53">AES</tspan></text><text transform="translate(475.503 219.896)" class="st52 st53">Testo cifrato</text><text transform="translate(548.717 107.376)" class="st54 st55">Decrittografia</text><text transform="translate(101.523 219.896)" class="st52 st53">Testo non crittografato</text><text transform="translate(70.717 107.376)" class="st54 st55">Crittografia</text><text transform="translate(49 63)" font-size="16" font-family="IBMPlexSans-Bold" fill="#272727">Crittografia simmetrica</text><text transform="translate(283.453 219.896)"><tspan x="0" y="0" class="st52 st53">Algoritmo </tspan><tspan x="-13.7" y="13.2" class="st52 st53">AES</tspan></text></g></svg>