<?xml version="1.0" encoding="UTF-8" standalone="no"?>
<!-- Generator: Adobe Illustrator 16.0.0, SVG Export Plug-In . SVG Version: 6.00 Build 0)  -->

<svg
   xmlns:dc="http://purl.org/dc/elements/1.1/"
   xmlns:cc="http://creativecommons.org/ns#"
   xmlns:rdf="http://www.w3.org/1999/02/22-rdf-syntax-ns#"
   xmlns:svg="http://www.w3.org/2000/svg"
   xmlns="http://www.w3.org/2000/svg"
   xmlns:xlink="http://www.w3.org/1999/xlink"
   xmlns:sodipodi="http://sodipodi.sourceforge.net/DTD/sodipodi-0.dtd"
   xmlns:inkscape="http://www.inkscape.org/namespaces/inkscape"
   version="1.1"
   id="Layer_1"
   x="0px"
   y="0px"
   width="1000px"
   height="400px"
   viewBox="0 0 1000 400"
   enable-background="new 0 0 1000 400"
   xml:space="preserve"
   sodipodi:docname="unwrapping-keys.svg"
   inkscape:version="0.92.2 (5c3e80d, 2017-08-06)"><metadata
     id="metadata447"><rdf:RDF><cc:Work
         rdf:about=""><dc:format>image/svg+xml</dc:format><dc:type
           rdf:resource="http://purl.org/dc/dcmitype/StillImage" /></cc:Work></rdf:RDF></metadata><defs
     id="defs445" /><sodipodi:namedview
     pagecolor="#ffffff"
     bordercolor="#666666"
     borderopacity="1"
     objecttolerance="10"
     gridtolerance="10"
     guidetolerance="10"
     inkscape:pageopacity="0"
     inkscape:pageshadow="2"
     inkscape:window-width="1920"
     inkscape:window-height="1027"
     id="namedview443"
     showgrid="false"
     inkscape:zoom="1.452"
     inkscape:cx="560.81272"
     inkscape:cy="212.33195"
     inkscape:window-x="-8"
     inkscape:window-y="-8"
     inkscape:window-maximized="1"
     inkscape:current-layer="Layer_1" /><g
     id="g440"><defs
       id="defs3"><rect
         id="SVGID_1_"
         width="1000"
         height="400" /></defs><clipPath
       id="SVGID_2_"><use
         xlink:href="#SVGID_1_"
         overflow="visible"
         id="use5" /></clipPath><rect
       x="48.5"
       y="83.5"
       clip-path="url(#SVGID_2_)"
       fill="#FFFFFF"
       width="200"
       height="200"
       id="rect8" /><polyline
       clip-path="url(#SVGID_2_)"
       fill="none"
       stroke="#D8D8D8"
       stroke-miterlimit="10"
       points="248.5,282 248.5,283.5    247,283.5  "
       id="polyline10" /><line
       clip-path="url(#SVGID_2_)"
       fill="none"
       stroke="#D8D8D8"
       stroke-miterlimit="10"
       stroke-dasharray="3,2"
       x1="245"
       y1="283.5"
       x2="51"
       y2="283.5"
       id="line12" /><polyline
       clip-path="url(#SVGID_2_)"
       fill="none"
       stroke="#D8D8D8"
       stroke-miterlimit="10"
       points="50,283.5 48.5,283.5 48.5,282     "
       id="polyline14" /><line
       clip-path="url(#SVGID_2_)"
       fill="none"
       stroke="#D8D8D8"
       stroke-miterlimit="10"
       stroke-dasharray="3,2"
       x1="48.5"
       y1="280"
       x2="48.5"
       y2="86"
       id="line16" /><polyline
       clip-path="url(#SVGID_2_)"
       fill="none"
       stroke="#D8D8D8"
       stroke-miterlimit="10"
       points="48.5,85 48.5,83.5 50,83.5  "
       id="polyline18" /><line
       clip-path="url(#SVGID_2_)"
       fill="none"
       stroke="#D8D8D8"
       stroke-miterlimit="10"
       stroke-dasharray="3,2"
       x1="52"
       y1="83.5"
       x2="246"
       y2="83.5"
       id="line20" /><polyline
       clip-path="url(#SVGID_2_)"
       fill="none"
       stroke="#D8D8D8"
       stroke-miterlimit="10"
       points="247,83.5 248.5,83.5 248.5,85     "
       id="polyline22" /><line
       clip-path="url(#SVGID_2_)"
       fill="none"
       stroke="#D8D8D8"
       stroke-miterlimit="10"
       stroke-dasharray="3,2"
       x1="248.5"
       y1="87"
       x2="248.5"
       y2="281"
       id="line24" /><rect
       x="265.5"
       y="83.5"
       clip-path="url(#SVGID_2_)"
       fill="#FFFFFF"
       width="609"
       height="200"
       id="rect26" /><polyline
       clip-path="url(#SVGID_2_)"
       fill="none"
       stroke="#D8D8D8"
       stroke-miterlimit="10"
       points="874.5,282 874.5,283.5    873,283.5  "
       id="polyline28" /><line
       clip-path="url(#SVGID_2_)"
       fill="none"
       stroke="#D8D8D8"
       stroke-miterlimit="10"
       stroke-dasharray="2.995,1.997"
       x1="871.003"
       y1="283.5"
       x2="267.999"
       y2="283.5"
       id="line30" /><polyline
       clip-path="url(#SVGID_2_)"
       fill="none"
       stroke="#D8D8D8"
       stroke-miterlimit="10"
       points="267,283.5 265.5,283.5    265.5,282  "
       id="polyline32" /><line
       clip-path="url(#SVGID_2_)"
       fill="none"
       stroke="#D8D8D8"
       stroke-miterlimit="10"
       stroke-dasharray="3,2"
       x1="265.5"
       y1="280"
       x2="265.5"
       y2="86"
       id="line34" /><polyline
       clip-path="url(#SVGID_2_)"
       fill="none"
       stroke="#D8D8D8"
       stroke-miterlimit="10"
       points="265.5,85 265.5,83.5 267,83.5     "
       id="polyline36" /><line
       clip-path="url(#SVGID_2_)"
       fill="none"
       stroke="#D8D8D8"
       stroke-miterlimit="10"
       stroke-dasharray="2.995,1.997"
       x1="268.997"
       y1="83.5"
       x2="872.002"
       y2="83.5"
       id="line38" /><polyline
       clip-path="url(#SVGID_2_)"
       fill="none"
       stroke="#D8D8D8"
       stroke-miterlimit="10"
       points="873,83.5 874.5,83.5 874.5,85     "
       id="polyline40" /><line
       clip-path="url(#SVGID_2_)"
       fill="none"
       stroke="#D8D8D8"
       stroke-miterlimit="10"
       stroke-dasharray="3,2"
       x1="874.5"
       y1="87"
       x2="874.5"
       y2="281"
       id="line42" /><g
       clip-path="url(#SVGID_2_)"
       id="g62"><defs
         id="defs45"><rect
           id="SVGID_3_"
           width="1000"
           height="400" /></defs><clipPath
         id="SVGID_4_"><use
           xlink:href="#SVGID_3_"
           overflow="visible"
           id="use47" /></clipPath><g
         opacity="0.15"
         clip-path="url(#SVGID_4_)"
         id="g60"><g
           id="g58"><defs
             id="defs51"><rect
               id="SVGID_5_"
               x="203"
               y="316"
               width="333"
               height="34" /></defs><clipPath
             id="SVGID_6_"><use
               xlink:href="#SVGID_5_"
               overflow="visible"
               id="use53" /></clipPath><path
             clip-path="url(#SVGID_6_)"
             fill="#B380E0"
             d="M536,350H203v-23.494c0-5.802,4.704-10.506,10.506-10.506h311.988      c5.802,0,10.506,4.704,10.506,10.506V350z"
             id="path56" /></g></g></g><rect
       x="69.5"
       y="123.5"
       clip-path="url(#SVGID_2_)"
       fill="#EDF5FF"
       width="140"
       height="140"
       id="rect64" /><polyline
       clip-path="url(#SVGID_2_)"
       fill="none"
       stroke="#000F5E"
       stroke-miterlimit="10"
       points="209.5,262 209.5,263.5    208,263.5  "
       id="polyline66" /><line
       clip-path="url(#SVGID_2_)"
       fill="none"
       stroke="#000F5E"
       stroke-miterlimit="10"
       stroke-dasharray="3,2"
       x1="206"
       y1="263.5"
       x2="72"
       y2="263.5"
       id="line68" /><polyline
       clip-path="url(#SVGID_2_)"
       fill="none"
       stroke="#000F5E"
       stroke-miterlimit="10"
       points="71,263.5 69.5,263.5 69.5,262     "
       id="polyline70" /><line
       clip-path="url(#SVGID_2_)"
       fill="none"
       stroke="#000F5E"
       stroke-miterlimit="10"
       stroke-dasharray="3,2"
       x1="69.5"
       y1="260"
       x2="69.5"
       y2="126"
       id="line72" /><polyline
       clip-path="url(#SVGID_2_)"
       fill="none"
       stroke="#000F5E"
       stroke-miterlimit="10"
       points="69.5,125 69.5,123.5 71,123.5     "
       id="polyline74" /><line
       clip-path="url(#SVGID_2_)"
       fill="none"
       stroke="#000F5E"
       stroke-miterlimit="10"
       stroke-dasharray="3,2"
       x1="73"
       y1="123.5"
       x2="207"
       y2="123.5"
       id="line76" /><polyline
       clip-path="url(#SVGID_2_)"
       fill="none"
       stroke="#000F5E"
       stroke-miterlimit="10"
       points="208,123.5 209.5,123.5    209.5,125  "
       id="polyline78" /><line
       clip-path="url(#SVGID_2_)"
       fill="none"
       stroke="#000F5E"
       stroke-miterlimit="10"
       stroke-dasharray="3,2"
       x1="209.5"
       y1="127"
       x2="209.5"
       y2="261"
       id="line80" /><rect
       x="288.5"
       y="123.5"
       clip-path="url(#SVGID_2_)"
       fill="#F8F4F2"
       width="300"
       height="140"
       id="rect82" /><polyline
       clip-path="url(#SVGID_2_)"
       fill="none"
       stroke="#000F5E"
       stroke-miterlimit="10"
       points="588.5,262 588.5,263.5    587,263.5  "
       id="polyline84" /><line
       clip-path="url(#SVGID_2_)"
       fill="none"
       stroke="#000F5E"
       stroke-miterlimit="10"
       stroke-dasharray="3,2"
       x1="585"
       y1="263.5"
       x2="291"
       y2="263.5"
       id="line86" /><polyline
       clip-path="url(#SVGID_2_)"
       fill="none"
       stroke="#000F5E"
       stroke-miterlimit="10"
       points="290,263.5 288.5,263.5    288.5,262  "
       id="polyline88" /><line
       clip-path="url(#SVGID_2_)"
       fill="none"
       stroke="#000F5E"
       stroke-miterlimit="10"
       stroke-dasharray="3,2"
       x1="288.5"
       y1="260"
       x2="288.5"
       y2="126"
       id="line90" /><polyline
       clip-path="url(#SVGID_2_)"
       fill="none"
       stroke="#000F5E"
       stroke-miterlimit="10"
       points="288.5,125 288.5,123.5    290,123.5  "
       id="polyline92" /><line
       clip-path="url(#SVGID_2_)"
       fill="none"
       stroke="#000F5E"
       stroke-miterlimit="10"
       stroke-dasharray="3,2"
       x1="292"
       y1="123.5"
       x2="586"
       y2="123.5"
       id="line94" /><polyline
       clip-path="url(#SVGID_2_)"
       fill="none"
       stroke="#000F5E"
       stroke-miterlimit="10"
       points="587,123.5 588.5,123.5    588.5,125  "
       id="polyline96" /><line
       clip-path="url(#SVGID_2_)"
       fill="none"
       stroke="#000F5E"
       stroke-miterlimit="10"
       stroke-dasharray="3,2"
       x1="588.5"
       y1="127"
       x2="588.5"
       y2="261"
       id="line98" /><rect
       x="815.833"
       y="123"
       clip-path="url(#SVGID_2_)"
       fill="#F4F4F4"
       width="133.334"
       height="140"
       id="rect100" /><polyline
       clip-path="url(#SVGID_2_)"
       fill="none"
       stroke="#000F5E"
       stroke-miterlimit="10"
       points="947.667,123 949.167,123    949.167,124.5  "
       id="polyline102" /><line
       clip-path="url(#SVGID_2_)"
       fill="none"
       stroke="#000F5E"
       stroke-miterlimit="10"
       stroke-dasharray="3,2"
       x1="949.167"
       y1="126.5"
       x2="949.167"
       y2="260.5"
       id="line104" /><polyline
       clip-path="url(#SVGID_2_)"
       fill="none"
       stroke="#000F5E"
       stroke-miterlimit="10"
       points="949.167,261.5 949.167,263    947.667,263  "
       id="polyline106" /><line
       clip-path="url(#SVGID_2_)"
       fill="none"
       stroke="#000F5E"
       stroke-miterlimit="10"
       stroke-dasharray="2.962,1.975"
       x1="945.691"
       y1="263"
       x2="818.32"
       y2="263"
       id="line108" /><polyline
       clip-path="url(#SVGID_2_)"
       fill="none"
       stroke="#000F5E"
       stroke-miterlimit="10"
       points="817.333,263 815.833,263    815.833,261.5  "
       id="polyline110" /><line
       clip-path="url(#SVGID_2_)"
       fill="none"
       stroke="#000F5E"
       stroke-miterlimit="10"
       stroke-dasharray="3,2"
       x1="815.833"
       y1="259.5"
       x2="815.833"
       y2="125.5"
       id="line112" /><polyline
       clip-path="url(#SVGID_2_)"
       fill="none"
       stroke="#000F5E"
       stroke-miterlimit="10"
       points="815.833,124.5 815.833,123    817.333,123  "
       id="polyline114" /><line
       clip-path="url(#SVGID_2_)"
       fill="none"
       stroke="#000F5E"
       stroke-miterlimit="10"
       stroke-dasharray="2.962,1.975"
       x1="819.309"
       y1="123"
       x2="946.68"
       y2="123"
       id="line116" /><g
       clip-path="url(#SVGID_2_)"
       id="g150"><defs
         id="defs119"><rect
           id="SVGID_7_"
           x="324.443"
           y="162.493"
           width="64.482"
           height="30" /></defs><clipPath
         id="SVGID_8_"><use
           xlink:href="#SVGID_7_"
           overflow="visible"
           id="use121" /></clipPath><g
         opacity="0.65"
         clip-path="url(#SVGID_8_)"
         id="g142"><g
           id="g140"><defs
             id="defs125"><rect
               id="SVGID_9_"
               x="325.184"
               y="163.16"
               width="62"
               height="28" /></defs><clipPath
             id="SVGID_10_"><use
               xlink:href="#SVGID_9_"
               overflow="visible"
               id="use127" /></clipPath><g
             clip-path="url(#SVGID_10_)"
             id="g138"><defs
               id="defs131"><rect
                 id="SVGID_11_"
                 x="325.184"
                 y="163.16"
                 width="62"
                 height="28" /></defs><clipPath
               id="SVGID_12_"><use
                 xlink:href="#SVGID_11_"
                 overflow="visible"
                 id="use133" /></clipPath><path
               clip-path="url(#SVGID_12_)"
               fill="#B380E0"
               d="M381.184,171.16h-21h-8.365c-2.249-4.726-7.053-8-12.635-8       c-7.732,0-14,6.268-14,14s6.268,14,14,14c5.582,0,10.386-3.274,12.635-8h7.365v-2h1h2v2h19l6-6L381.184,171.16z"
               id="path136" /></g></g></g><path
         clip-path="url(#SVGID_8_)"
         fill="#6E177D"
         d="M381.854,170.421h-29.2c-0.678-1.268-1.549-2.464-2.619-3.535    c-6.107-6.106-16.169-5.847-21.94,0.779c-4.869,5.59-4.869,14.065,0,19.657c5.771,6.625,15.833,6.885,21.94,0.777    c1.07-1.07,1.941-2.265,2.619-3.536l5.63,0.001l2.357-2.357l2.357,2.357h18.856l7.071-7.071L381.854,170.421z M381.164,182.897    l-17.475,0.001l-1.869-1.869l-1.179-1.179l-1.179,1.179l-1.868,1.868h-4.939h-1l-0.47,0.881c-0.621,1.16-1.404,2.218-2.329,3.143    c-5.422,5.422-14.391,5.189-19.507-0.699c-4.32-4.969-4.319-12.493,0.002-17.461c5.117-5.885,14.084-6.117,19.505-0.696    c0.925,0.925,1.709,1.982,2.329,3.143l0.471,0.879h0.998l28.51,0.001l5.404,5.405L381.164,182.897z"
         id="path144" /><path
         clip-path="url(#SVGID_8_)"
         fill="#6E177D"
         d="M336.928,175.109c1.302,1.302,1.302,3.412,0,4.714    c-1.302,1.302-3.412,1.302-4.714,0c-1.302-1.302-1.302-3.412,0-4.714C333.516,173.807,335.626,173.807,336.928,175.109"
         id="path146" /><rect
         x="365.212"
         y="176.632"
         clip-path="url(#SVGID_8_)"
         fill="#6E177D"
         width="14.142"
         height="1.667"
         id="rect148" /></g><g
       clip-path="url(#SVGID_2_)"
       id="g178"><defs
         id="defs153"><rect
           id="SVGID_13_"
           x="855"
           y="163.001"
           width="64.482"
           height="30.001" /></defs><clipPath
         id="SVGID_14_"><use
           xlink:href="#SVGID_13_"
           overflow="visible"
           id="use155" /></clipPath><g
         opacity="0.65"
         clip-path="url(#SVGID_14_)"
         id="g176"><g
           id="g174"><defs
             id="defs159"><rect
               id="SVGID_15_"
               x="855.743"
               y="163.667"
               width="62"
               height="28" /></defs><clipPath
             id="SVGID_16_"><use
               xlink:href="#SVGID_15_"
               overflow="visible"
               id="use161" /></clipPath><g
             clip-path="url(#SVGID_16_)"
             id="g172"><defs
               id="defs165"><rect
                 id="SVGID_17_"
                 x="855.742"
                 y="163.667"
                 width="62"
                 height="28" /></defs><clipPath
               id="SVGID_18_"><use
                 xlink:href="#SVGID_17_"
                 overflow="visible"
                 id="use167" /></clipPath><path
               clip-path="url(#SVGID_18_)"
               fill="#69A6FF"
               d="M911.742,171.667h-21h-8.365c-2.248-4.726-7.053-8-12.635-8       c-7.731,0-14,6.268-14,14s6.269,14,14,14c5.582,0,10.387-3.274,12.635-8h7.365v-2h1h2v2h19l6-6L911.742,171.667z"
               id="path170" /></g></g></g></g><rect
       x="895.773"
       y="178.666"
       clip-path="url(#SVGID_2_)"
       fill="#000F5E"
       width="14.14"
       height="0.14"
       id="rect180" /><polygon
       clip-path="url(#SVGID_2_)"
       fill="#000F5E"
       points="891.202,180.357 892.513,181.667 889.893,181.667  "
       id="polygon182" /><rect
       x="895.773"
       y="177.136"
       clip-path="url(#SVGID_2_)"
       fill="#000F5E"
       width="14.14"
       height="1.67"
       id="rect184" /><g
       clip-path="url(#SVGID_2_)"
       id="g204"><defs
         id="defs187"><rect
           id="SVGID_19_"
           x="855"
           y="163.001"
           width="64.482"
           height="30.001" /></defs><clipPath
         id="SVGID_20_"><use
           xlink:href="#SVGID_19_"
           overflow="visible"
           id="use189" /></clipPath><path
         clip-path="url(#SVGID_20_)"
         fill="#000F5E"
         d="M867.482,175.617c1.311,1.3,1.311,3.41,0,4.71c-1.3,1.3-3.41,1.3-4.71,0    c-1.3-1.3-1.3-3.41,0-4.71S866.183,174.317,867.482,175.617"
         id="path192" /><path
         clip-path="url(#SVGID_20_)"
         fill="#000F5E"
         d="M859.912,169.266c-1.58,1.82-2.58,3.971-3,6.221    c1-6.7,6.59-11.821,13.33-11.821c5.731,0,10.63,3.701,12.58,8.93h-0.609l-0.471-0.88c-0.62-1.16-1.399-2.22-2.33-3.139    C873.992,163.147,865.022,163.386,859.912,169.266"
         id="path194" /><path
         clip-path="url(#SVGID_20_)"
         fill="#000F5E"
         d="M882.552,183.407c-0.028,0.09-0.068,0.17-0.108,0.26    c-2.17,4.73-6.812,8-12.201,8c-3.77,0-7.179-1.6-9.629-4.191c5.2,5.151,13.62,5.131,18.799-0.049c0.93-0.92,1.71-1.98,2.33-3.14    l0.331-0.62l0.139-0.26H882.552z"
         id="path196" /><path
         clip-path="url(#SVGID_20_)"
         fill="#000F5E"
         d="M912.412,170.926h-29.199c-0.681-1.269-1.551-2.46-2.62-3.529    c-6.11-6.11-16.17-5.851-21.94,0.77c-4.87,5.599-4.87,14.07,0,19.66c5.771,6.63,15.83,6.889,21.94,0.78    c1.069-1.07,1.939-2.271,2.62-3.54h5.63l2.359-2.351l2.351,2.351h18.859l7.07-7.07L912.412,170.926z M891.202,180.357l-1.31,1.31    l-0.15,0.15l-1.59,1.59h-5.939l-0.141,0.26l-0.33,0.62c-0.62,1.16-1.399,2.219-2.33,3.139c-5.18,5.181-13.6,5.201-18.8,0.05    c-0.25-0.239-0.479-0.489-0.71-0.75c-2.72-3.14-3.729-7.3-3-11.189c0-0.01,0-0.031,0.01-0.05c0.42-2.25,1.42-4.401,3-6.221    c5.11-5.88,14.08-6.119,19.5-0.689c0.931,0.92,1.71,1.979,2.33,3.139l0.471,0.88h29.511l2.019,2.021l3.38,3.38l-3.38,3.389    l-2.019,2.021h-17.481l-1.5-1.51L891.202,180.357z"
         id="path198" /><path
         clip-path="url(#SVGID_20_)"
         fill="#000F5E"
         d="M867.482,180.327c-1.3,1.3-3.41,1.3-4.71,0c-1.3-1.3-1.3-3.41,0-4.71    s3.41-1.3,4.71,0C868.793,176.917,868.793,179.027,867.482,180.327"
         id="path200" /><rect
         x="895.771"
         y="177.136"
         clip-path="url(#SVGID_20_)"
         fill="#000F5E"
         width="14.141"
         height="1.67"
         id="rect202" /></g><path
       clip-path="url(#SVGID_2_)"
       fill="#000F5E"
       d="M424.5,191H439.5H424.5z"
       id="path206" /><g
       clip-path="url(#SVGID_2_)"
       id="g216"><defs
         id="defs209"><rect
           id="SVGID_21_"
           x="424.5"
           y="183.5"
           width="14.999"
           height="15" /></defs><clipPath
         id="SVGID_22_"><use
           xlink:href="#SVGID_21_"
           overflow="visible"
           id="use211" /></clipPath><line
         clip-path="url(#SVGID_22_)"
         fill="none"
         stroke="#000F5E"
         stroke-width="1.313"
         stroke-miterlimit="10"
         x1="424.5"
         y1="191"
         x2="439.5"
         y2="191"
         id="line214" /></g><path
       clip-path="url(#SVGID_2_)"
       fill="#000F5E"
       d="M432,198.5v-14.999V198.5z"
       id="path218" /><g
       clip-path="url(#SVGID_2_)"
       id="g228"><defs
         id="defs221"><rect
           id="SVGID_23_"
           x="424.5"
           y="183.5"
           width="14.999"
           height="15" /></defs><clipPath
         id="SVGID_24_"><use
           xlink:href="#SVGID_23_"
           overflow="visible"
           id="use223" /></clipPath><line
         clip-path="url(#SVGID_24_)"
         fill="none"
         stroke="#000F5E"
         stroke-width="1.313"
         stroke-miterlimit="10"
         x1="432"
         y1="198.5"
         x2="432"
         y2="183.5"
         id="line226" /></g><g
       clip-path="url(#SVGID_2_)"
       id="g242"><defs
         id="defs231"><rect
           id="SVGID_25_"
           x="660"
           y="160.999"
           width="50"
           height="37.001" /></defs><clipPath
         id="SVGID_26_"><use
           xlink:href="#SVGID_25_"
           overflow="visible"
           id="use233" /></clipPath><path
         clip-path="url(#SVGID_26_)"
         fill="#6E177D"
         d="M693.433,187c0-0.451-0.045-0.89-0.113-1.323l2.681-2.344l-2.277-3.739    l-3.196,1.044c-0.765-0.665-1.648-1.189-2.617-1.547L687.2,176h-4.4l-0.709,3.091c-0.968,0.358-1.853,0.883-2.617,1.548    l-3.196-1.045L674,183.333l2.68,2.345c-0.067,0.432-0.112,0.871-0.112,1.322c0,0.451,0.045,0.889,0.112,1.321l-2.68,2.346    l2.278,3.738l3.195-1.044c0.765,0.665,1.649,1.19,2.618,1.547L682.8,198h4.4l0.708-3.092c0.969-0.357,1.853-0.882,2.617-1.547    l3.195,1.044l2.279-3.738l-2.681-2.345C693.388,187.889,693.433,187.451,693.433,187 M685,189.528c-1.655,0-3-1.343-3-3    s1.345-3,3-3s3,1.343,3,3S686.655,189.528,685,189.528"
         id="path236" /><path
         clip-path="url(#SVGID_26_)"
         fill="#B380E0"
         d="M679.433,172c0-0.451-0.045-0.89-0.113-1.323l2.681-2.344l-2.277-3.739    l-3.196,1.044c-0.765-0.665-1.648-1.189-2.617-1.547L673.2,161h-4.4l-0.709,3.091c-0.968,0.358-1.853,0.883-2.617,1.548    l-3.196-1.045L660,168.333l2.68,2.345c-0.067,0.432-0.112,0.871-0.112,1.322c0,0.451,0.045,0.889,0.112,1.321l-2.68,2.346    l2.278,3.738l3.195-1.044c0.765,0.665,1.649,1.19,2.618,1.547L668.8,183h4.4l0.708-3.092c0.969-0.357,1.853-0.882,2.617-1.547    l3.195,1.044l2.279-3.738l-2.681-2.345C679.388,172.889,679.433,172.451,679.433,172 M671,174.528c-1.655,0-3-1.343-3-3    s1.345-3,3-3s3,1.343,3,3S672.655,174.528,671,174.528"
         id="path238" /><path
         clip-path="url(#SVGID_26_)"
         fill="#8747B8"
         d="M707.433,172c0-0.451-0.045-0.89-0.113-1.323l2.681-2.344l-2.277-3.739    l-3.196,1.044c-0.765-0.665-1.648-1.189-2.617-1.547L701.2,161h-4.4l-0.709,3.091c-0.968,0.358-1.853,0.883-2.617,1.548    l-3.196-1.045L688,168.333l2.68,2.345c-0.067,0.432-0.112,0.871-0.112,1.322c0,0.451,0.045,0.889,0.112,1.321l-2.68,2.346    l2.278,3.738l3.195-1.044c0.765,0.665,1.649,1.19,2.618,1.547L696.8,183h4.4l0.708-3.092c0.969-0.357,1.853-0.882,2.617-1.547    l3.195,1.044l2.279-3.738l-2.681-2.345C707.388,172.889,707.433,172.451,707.433,172 M699,174.528c-1.655,0-3-1.343-3-3    s1.345-3,3-3s3,1.343,3,3S700.655,174.528,699,174.528"
         id="path240" /></g><g
       clip-path="url(#SVGID_2_)"
       id="g274"><defs
         id="defs245"><rect
           id="SVGID_27_"
           x="486"
           y="147"
           width="53.5"
           height="52" /></defs><clipPath
         id="SVGID_28_"><use
           xlink:href="#SVGID_27_"
           overflow="visible"
           id="use247" /></clipPath><path
         clip-path="url(#SVGID_28_)"
         fill="#EFC100"
         d="M529.745,181.451c-0.63,0.773-1.68,1.009-2.598,1.021    c-0.479,0.044-0.934-0.055-1.404-0.087c-0.449-0.098-0.919-0.158-1.359-0.29c-1.788-0.477-3.479-1.214-5.112-2.044    c-3.231-1.726-6.215-3.864-9.02-6.215c-1.388-1.193-2.765-2.409-4.073-3.714c-1.296-1.315-2.487-2.745-3.487-4.325    c-0.977-1.593-1.859-3.275-2.396-5.13c-0.145-0.453-0.233-0.947-0.331-1.416c-0.036-0.506-0.138-0.972-0.092-1.491    c0.004-0.498,0.111-1.017,0.263-1.498c0.12-0.241,0.241-0.47,0.363-0.686c0.18-0.194,0.367-0.368,0.539-0.53l0.222,0.203    c-0.396,0.777-0.271,1.593-0.024,2.363c0.22,0.773,0.605,1.523,1.013,2.255c0.846,1.456,1.839,2.856,2.901,4.208    c2.157,2.674,4.236,5.5,6.729,7.995c2.495,2.474,5.195,4.774,8.15,6.685c1.471,0.959,3.008,1.832,4.635,2.458    c0.403,0.172,0.822,0.267,1.236,0.407c0.417,0.071,0.844,0.213,1.264,0.216c0.835,0.093,1.743,0.003,2.362-0.588L529.745,181.451z    "
         id="path250" /><path
         clip-path="url(#SVGID_28_)"
         fill="#CBA9E6"
         d="M537.958,150.608l-9.17-0.338l0.315,0.354h-0.176l-0.374-0.374    l-17.678,17.677l0.207,0.207l-3.116,3.116c-1.331-0.406-2.747-0.626-4.217-0.626c-7.732,0-14,6.044-14,13.5s6.268,13.5,14,13.5    c7.732,0,14-6.044,14-13.5c0-1.631-0.315-3.188-0.865-4.635l4.865-4.865l-1-1l2.532-2.533l0.957,0.957l12.679-12.678l0.348,0.387    l0.06-0.795l0.35-0.349l-0.3-0.3L537.958,150.608z"
         id="path252" /><path
         clip-path="url(#SVGID_28_)"
         fill="#6E177D"
         d="M529,149l-20.647,20.647C506.976,169.23,505.514,169,504,169    c-8.637,0-15.567,7.298-14.963,16.064c0.51,7.396,6.502,13.39,13.899,13.899C511.702,199.568,519,192.636,519,184    c0-1.514-0.229-2.975-0.647-4.353l3.98-3.981v-3.333h3.334L539,159v-10H529z M537.333,158.31l-12.356,12.356h-2.644h-1.666v1.667    v2.643l-3.493,3.492l-0.707,0.707l0.291,0.956c0.382,1.259,0.575,2.561,0.575,3.869c0,7.668-6.506,13.845-14.287,13.3    c-6.568-0.46-11.888-5.781-12.346-12.348c-0.543-7.781,5.633-14.286,13.3-14.286c1.308,0,2.61,0.194,3.869,0.577l0.955,0.289    l0.706-0.706l20.16-20.16h7.643V158.31z"
         id="path254" /><path
         clip-path="url(#SVGID_28_)"
         fill="#6E177D"
         d="M500.547,184.083c1.841,0,3.333,1.492,3.333,3.333    c0,1.841-1.492,3.333-3.333,3.333c-1.842,0-3.334-1.492-3.334-3.333C497.213,185.574,498.705,184.083,500.547,184.083"
         id="path256" /><rect
         x="520.141"
         y="159.916"
         transform="matrix(-0.7071 0.7071 -0.7071 -0.7071 1013.6746 -98.3797)"
         clip-path="url(#SVGID_28_)"
         fill="#6E177D"
         width="14.142"
         height="1.667"
         id="rect258" /><path
         clip-path="url(#SVGID_28_)"
         fill="#9BC1FA"
         d="M534.958,148.608l-9.17-0.338l0.315,0.354h-0.176l-0.374-0.374    l-17.678,17.677l0.207,0.207l-3.116,3.116c-1.331-0.406-2.747-0.626-4.217-0.626c-7.732,0-14,6.044-14,13.5s6.268,13.5,14,13.5    c7.732,0,14-6.044,14-13.5c0-1.631-0.315-3.188-0.865-4.635l4.865-4.865l-1-1l2.532-2.533l0.957,0.957l12.679-12.678l0.348,0.387    l0.06-0.795l0.35-0.349l-0.3-0.3L534.958,148.608z"
         id="path260" /><path
         clip-path="url(#SVGID_28_)"
         fill="#000F5E"
         d="M526,147l-20.647,20.647C503.976,167.23,502.514,167,501,167    c-8.637,0-15.567,7.298-14.963,16.064c0.51,7.396,6.502,13.39,13.9,13.899C508.702,197.568,516,190.636,516,182    c0-1.514-0.229-2.975-0.647-4.353l3.98-3.981v-3.333h3.334L536,157v-10H526z M534.333,156.31l-12.356,12.356h-2.644h-1.666v1.667    v2.643l-3.493,3.492l-0.707,0.707l0.291,0.956c0.382,1.259,0.575,2.561,0.575,3.869c0,7.668-6.506,13.845-14.287,13.3    c-6.568-0.46-11.888-5.781-12.346-12.348c-0.543-7.781,5.633-14.286,13.3-14.286c1.308,0,2.61,0.194,3.869,0.577l0.955,0.289    l0.706-0.706l20.16-20.16h7.643V156.31z"
         id="path262" /><path
         clip-path="url(#SVGID_28_)"
         fill="#000F5E"
         d="M497.547,182.083c1.841,0,3.333,1.492,3.333,3.333    c0,1.841-1.492,3.333-3.333,3.333c-1.842,0-3.334-1.492-3.334-3.333C494.213,183.574,495.705,182.083,497.547,182.083"
         id="path264" /><rect
         x="517.141"
         y="157.916"
         transform="matrix(-0.7071 0.7071 -0.7071 -0.7071 1007.139 -99.6726)"
         clip-path="url(#SVGID_28_)"
         fill="#000F5E"
         width="14.142"
         height="1.667"
         id="rect266" /><path
         clip-path="url(#SVGID_28_)"
         fill="#EFC100"
         d="M501.037,155.045c0.63-0.774,1.681-1.009,2.599-1.021    c0.479-0.044,0.933,0.055,1.403,0.087c0.45,0.098,0.919,0.158,1.359,0.29c1.788,0.477,3.479,1.214,5.112,2.044    c3.232,1.726,6.214,3.864,9.021,6.215c1.388,1.193,2.765,2.409,4.072,3.714c1.297,1.315,2.488,2.745,3.487,4.325    c0.978,1.593,1.859,3.275,2.397,5.13c0.145,0.453,0.232,0.947,0.33,1.416c0.037,0.506,0.138,0.972,0.093,1.491    c-0.004,0.498-0.112,1.017-0.263,1.498c-0.12,0.241-0.242,0.47-0.363,0.686c-0.18,0.194-0.367,0.368-0.54,0.53l-0.221-0.203    c0.396-0.777,0.271-1.593,0.024-2.363c-0.221-0.774-0.605-1.523-1.013-2.255c-0.846-1.456-1.839-2.856-2.902-4.208    c-2.157-2.674-4.235-5.5-6.728-7.995c-2.495-2.474-5.195-4.774-8.15-6.685c-1.472-0.959-3.008-1.832-4.635-2.458    c-0.404-0.172-0.822-0.267-1.237-0.407c-0.417-0.071-0.843-0.213-1.264-0.216c-0.834-0.093-1.743-0.003-2.361,0.588    L501.037,155.045z"
         id="path268" /><path
         clip-path="url(#SVGID_28_)"
         fill="#FFFFFF"
         d="M537.5,190.624c0,3.313-2.463,6-5.5,6s-5.5-2.687-5.5-6s2.463-6,5.5-6    S537.5,187.311,537.5,190.624"
         id="path270" /><path
         clip-path="url(#SVGID_28_)"
         fill="#5AA700"
         d="M537.5,182.914c0-4.09-4.396-7.415-8.607-5.391    c-2.133,1.026-3.393,3.286-3.393,5.653v2.461c-1.593,1.808-2.392,4.333-1.811,7.035c0.656,3.054,3.145,5.491,6.212,6.086    c5.118,0.993,9.599-2.906,9.599-7.844c0-2.025-0.759-3.869-2-5.278V182.914z M527.5,182.914c0-2.88,3.412-5.281,6.272-3.239    c1.127,0.803,1.728,2.161,1.728,3.545v0.772c-1.178-0.682-2.541-1.078-3.999-1.078c-1.459,0-2.823,0.397-4.001,1.079V182.914z     M530.324,195.326l-3.707-3.707l1.414-1.413l2.293,2.293l5.293-5.293l1.414,1.413L530.324,195.326z"
         id="path272" /></g><g
       clip-path="url(#SVGID_2_)"
       id="g308"><defs
         id="defs277"><rect
           id="SVGID_29_"
           x="110"
           y="147"
           width="54.866"
           height="52.289" /></defs><clipPath
         id="SVGID_30_"><use
           xlink:href="#SVGID_29_"
           overflow="visible"
           id="use279" /></clipPath><path
         clip-path="url(#SVGID_30_)"
         fill="#EFC100"
         d="M164.63,177.542c-0.236,1.279-1.286,2.206-2.337,2.814    c-1.08,0.619-2.256,1.01-3.438,1.307c-2.376,0.586-4.811,0.8-7.235,0.87c-4.854,0.065-9.69-0.503-14.445-1.451    c-4.735-0.989-9.539-2.128-13.909-4.444c-2.17-1.163-4.289-2.484-6.137-4.206c-0.925-0.854-1.779-1.819-2.432-2.949    c-0.309-0.573-0.582-1.18-0.708-1.836c-0.13-0.65-0.088-1.35,0.164-1.939l0.292,0.068c-0.033,1.167,0.61,2.112,1.364,2.904    c0.757,0.803,1.675,1.473,2.626,2.094c1.919,1.223,3.998,2.247,6.126,3.157c4.265,1.783,8.605,3.599,13.162,4.814    c4.546,1.208,9.215,2.056,13.919,2.288c2.346,0.122,4.714,0.102,7.022-0.275c1.151-0.192,2.291-0.476,3.333-0.964    c1.026-0.476,2.024-1.205,2.341-2.32L164.63,177.542z"
         id="path282" /><path
         clip-path="url(#SVGID_30_)"
         fill="#9BC1FA"
         d="M158.958,148.984l-9.17-0.338l0.316,0.354h-0.176l-0.374-0.375    l-17.678,17.678l0.207,0.207l-3.116,3.116c-1.331-0.406-2.747-0.626-4.217-0.626c-7.732,0-14,6.044-14,13.5    c0,7.456,6.268,13.5,14,13.5s14-6.044,14-13.5c0-1.631-0.315-3.188-0.865-4.636L142.75,173l-1-1l2.532-2.533l0.957,0.957    l12.679-12.679l0.348,0.388l0.059-0.795l0.35-0.349l-0.3-0.3L158.958,148.984z"
         id="path284" /><path
         clip-path="url(#SVGID_30_)"
         fill="#000F5E"
         d="M150,147.376l-20.647,20.647c-1.377-0.417-2.839-0.647-4.353-0.647    c-8.637,0-15.567,7.298-14.963,16.064c0.51,7.397,6.502,13.39,13.9,13.899c8.765,0.605,16.063-6.326,16.063-14.963    c0-1.514-0.229-2.975-0.647-4.353l3.98-3.98v-3.334h3.334L160,157.376v-10H150z M158.333,156.687l-12.356,12.357h-2.644h-1.666    v1.666v2.644l-3.493,3.492l-0.707,0.706l0.291,0.956c0.382,1.259,0.575,2.561,0.575,3.869c0,7.668-6.506,13.845-14.287,13.3    c-6.568-0.46-11.888-5.781-12.346-12.349c-0.543-7.78,5.633-14.284,13.3-14.284c1.308,0,2.61,0.193,3.869,0.575l0.955,0.29    l0.706-0.706l20.16-20.159h7.643V156.687z"
         id="path286" /><path
         clip-path="url(#SVGID_30_)"
         fill="#000F5E"
         d="M121.547,182.458c1.841,0,3.333,1.493,3.333,3.333    c0,1.841-1.492,3.334-3.333,3.334c-1.842,0-3.334-1.493-3.334-3.334C118.213,183.952,119.705,182.458,121.547,182.458"
         id="path288" /><rect
         x="141.142"
         y="158.292"
         transform="matrix(-0.7071 0.7071 -0.7071 -0.7071 365.5337 166.8425)"
         clip-path="url(#SVGID_30_)"
         fill="#000F5E"
         width="14.142"
         height="1.667"
         id="rect290" /><polygon
         clip-path="url(#SVGID_30_)"
         fill="#FFFFFF"
         points="155.75,160 155.75,196 124.75,196 124.75,148 142.75,148 142.75,160       "
         id="polygon292" /><path
         clip-path="url(#SVGID_30_)"
         fill="#000F5E"
         d="M143.359,147h-1.667h-18.333v50h33.333v-35v-1.667L143.359,147z     M155.026,195.333h-30v-46.667h16.666V162h13.334V195.333z"
         id="path294" /><rect
         x="130.026"
         y="167"
         clip-path="url(#SVGID_30_)"
         fill="#000F5E"
         width="20"
         height="1.667"
         id="rect296" /><rect
         x="130.026"
         y="170.334"
         clip-path="url(#SVGID_30_)"
         fill="#000F5E"
         width="20"
         height="1.667"
         id="rect298" /><rect
         x="130.026"
         y="173.667"
         clip-path="url(#SVGID_30_)"
         fill="#000F5E"
         width="10"
         height="1.667"
         id="rect300" /><path
         clip-path="url(#SVGID_30_)"
         fill="#EFC100"
         d="M114.153,165.708c0.236-1.279,1.286-2.206,2.336-2.814    c1.08-0.619,2.256-1.01,3.439-1.307c2.376-0.587,4.81-0.8,7.235-0.87c4.854-0.065,9.689,0.503,14.445,1.451    c4.735,0.989,9.539,2.128,13.909,4.444c2.17,1.163,4.288,2.484,6.137,4.206c0.924,0.854,1.778,1.819,2.431,2.949    c0.31,0.573,0.583,1.18,0.708,1.836c0.131,0.65,0.089,1.35-0.163,1.939l-0.292-0.068c0.033-1.167-0.611-2.112-1.364-2.904    c-0.757-0.803-1.676-1.473-2.626-2.094c-1.92-1.223-3.998-2.247-6.126-3.157c-4.266-1.783-8.605-3.599-13.162-4.814    c-4.547-1.208-9.216-2.056-13.919-2.288c-2.347-0.122-4.715-0.102-7.023,0.275c-1.151,0.191-2.29,0.476-3.333,0.964    c-1.025,0.475-2.023,1.205-2.34,2.32L114.153,165.708z"
         id="path302" /><path
         clip-path="url(#SVGID_30_)"
         fill="#FFFFFF"
         d="M156.75,191c0,3.313-2.463,6-5.5,6s-5.5-2.687-5.5-6s2.463-6,5.5-6    S156.75,187.687,156.75,191"
         id="path304" /><path
         clip-path="url(#SVGID_30_)"
         fill="#5AA700"
         d="M157.141,183.29c0-4.089-4.396-7.414-8.608-5.39    c-2.132,1.025-3.392,3.286-3.392,5.652v2.461c-1.593,1.808-2.392,4.333-1.811,7.035c0.656,3.055,3.145,5.492,6.212,6.087    c5.118,0.992,9.599-2.906,9.599-7.845c0-2.025-0.759-3.869-2-5.278V183.29z M147.141,183.29c0-2.879,3.412-5.28,6.272-3.239    c1.127,0.804,1.728,2.161,1.728,3.546v0.772c-1.178-0.682-2.541-1.079-3.999-1.079c-1.459,0-2.823,0.398-4.001,1.08V183.29z     M149.965,195.704l-3.707-3.707l1.414-1.414l2.293,2.293l5.293-5.293l1.414,1.414L149.965,195.704z"
         id="path306" /></g><polyline
       clip-path="url(#SVGID_2_)"
       fill="none"
       stroke="#B380E0"
       stroke-miterlimit="10"
       stroke-dasharray="1,1"
       points="   219,258.202 219,274 60,274 60,258.202  "
       id="polyline310" /><line
       clip-path="url(#SVGID_2_)"
       fill="none"
       stroke="#B380E0"
       stroke-miterlimit="10"
       x1="914"
       y1="263"
       x2="914"
       y2="263.5"
       id="line312" /><line
       clip-path="url(#SVGID_2_)"
       fill="none"
       stroke="#B380E0"
       stroke-miterlimit="10"
       stroke-dasharray="0.989,0.989"
       x1="914"
       y1="264.488"
       x2="914"
       y2="349.006"
       id="line314" /><polyline
       clip-path="url(#SVGID_2_)"
       fill="none"
       stroke="#B380E0"
       stroke-miterlimit="10"
       points="914,349.5 914,350 913.5,350     "
       id="polyline316" /><line
       clip-path="url(#SVGID_2_)"
       fill="none"
       stroke="#B380E0"
       stroke-miterlimit="10"
       stroke-dasharray="0.999,0.999"
       x1="912.501"
       y1="350"
       x2="138"
       y2="350"
       id="line318" /><polyline
       clip-path="url(#SVGID_2_)"
       fill="none"
       stroke="#B380E0"
       stroke-miterlimit="10"
       points="137.5,350 137,350    137.004,349.5  "
       id="polyline320" /><line
       clip-path="url(#SVGID_2_)"
       fill="none"
       stroke="#B380E0"
       stroke-miterlimit="10"
       stroke-dasharray="0.986,0.986"
       x1="137.012"
       y1="348.514"
       x2="137.437"
       y2="293.789"
       id="line322" /><line
       clip-path="url(#SVGID_2_)"
       fill="none"
       stroke="#B380E0"
       stroke-miterlimit="10"
       x1="137.44"
       y1="293.296"
       x2="137.444"
       y2="292.796"
       id="line324" /><polygon
       clip-path="url(#SVGID_2_)"
       fill="#B380E0"
       points="142.419,294.294 137.5,285.62 132.447,294.217  "
       id="polygon326" /><line
       clip-path="url(#SVGID_2_)"
       fill="none"
       stroke="#A71C71"
       stroke-miterlimit="10"
       x1="574.047"
       y1="189.5"
       x2="627.824"
       y2="189.5"
       id="line328" /><g
       clip-path="url(#SVGID_2_)"
       id="g346"><defs
         id="defs331"><rect
           id="SVGID_31_"
           width="1000"
           height="400" /></defs><clipPath
         id="SVGID_32_"><use
           xlink:href="#SVGID_31_"
           overflow="visible"
           id="use333" /></clipPath><path
         clip-path="url(#SVGID_32_)"
         fill="#FFFFFF"
         d="M574.26,193.26c-2.076,0-3.76-1.684-3.76-3.76c0-2.076,1.684-3.76,3.76-3.76    s3.76,1.684,3.76,3.76C578.02,191.576,576.336,193.26,574.26,193.26"
         id="path336" /><path
         clip-path="url(#SVGID_32_)"
         fill="#A71C71"
         d="M574.26,193.76c2.349,0,4.26-1.912,4.26-4.26c0-2.349-1.911-4.26-4.26-4.26    s-4.26,1.911-4.26,4.26C570,191.848,571.911,193.76,574.26,193.76S571.911,193.76,574.26,193.76 M574.26,186.24    c1.798,0,3.26,1.462,3.26,3.26c0,1.798-1.462,3.26-3.26,3.26s-3.26-1.462-3.26-3.26C571,187.702,572.462,186.24,574.26,186.24    S572.462,186.24,574.26,186.24"
         id="path338" /><polygon
         clip-path="url(#SVGID_32_)"
         fill="#A71C71"
         points="626.365,194.486 635,189.5 626.365,184.513   "
         id="polygon340" /><line
         clip-path="url(#SVGID_32_)"
         fill="none"
         stroke="#A71C71"
         stroke-miterlimit="10"
         x1="733"
         y1="189.5"
         x2="785.824"
         y2="189.5"
         id="line342" /><polygon
         clip-path="url(#SVGID_32_)"
         fill="#A71C71"
         points="784.365,194.486 793,189.5 784.365,184.513   "
         id="polygon344" /></g><g
       clip-path="url(#SVGID_2_)"
       id="g354"><text
         id="text352"
         x="216.89519"
         y="324.05508"
         transform="scale(0.9576141,1.044262)"
         style="font-size:11.49136925px;stroke-width:0.95761412"><tspan
           x="216.89519"
           y="324.05508"
           font-size="11"
           id="tspan348"
           style="font-size:10.5337553px;font-family:IBMPlexSans;stroke-width:0.95761412">Le DEK ritornano al servizio di dati e spacchettano i dati inattivi</tspan></text>
</g><g
       clip-path="url(#SVGID_2_)"
       id="g358"><text
         transform="matrix(1 0 0 1 858.3799 220.8965)"
         font-family="'IBMPlexSans'"
         font-size="11"
         id="text356">DEK</text>
</g><g
       clip-path="url(#SVGID_2_)"
       id="g362"><text
         transform="matrix(1 0 0 1 857.5635 234.0967)"
         font-family="'IBMPlexSans'"
         font-size="11"
         id="text360">Spacchettata</text>
</g><g
       clip-path="url(#SVGID_2_)"
       id="g366"><text
         transform="matrix(1 0 0 1 661.2852 220.8965)"
         font-family="'IBMPlexSans'"
         font-size="11"
         id="text364">Algoritmo</text>
</g><g
       clip-path="url(#SVGID_2_)"
       id="g370"><text
         transform="matrix(1 0 0 1 661.5791 234.0967)"
         font-family="'IBMPlexSans'"
         font-size="11"
         id="text368">AES</text>
</g><g
       clip-path="url(#SVGID_2_)"
       id="g374"><text
         transform="matrix(1 0 0 1 477.0205 221.8975)"
         font-family="'IBMPlexSans'"
         font-size="11"
         id="text372">DEK impacchettata</text>
</g><g
       clip-path="url(#SVGID_2_)"
       id="g378"><text
         transform="matrix(1 0 0 1 483.4233 235.0977)"
         font-family="'IBMPlexSans'"
         font-size="11"
         id="text376">dal servizio dati</text>
</g><g
       clip-path="url(#SVGID_2_)"
       id="g382"><text
         transform="matrix(1 0 0 1 328.3232 221.8975)"
         font-family="'IBMPlexSans'"
         font-size="11"
         id="text380">Chiave root in</text>
</g><g
       clip-path="url(#SVGID_2_)"
       id="g402"><text
         transform="matrix(1 0 0 1 327.1353 235.0977)"
         id="text400"><tspan
           x="0"
           y="0"
           font-family="'IBMPlexSans'"
           font-size="11"
           id="tspan384">K</tspan><tspan
           x="5.698"
           y="0"
           font-family="'IBMPlexSans'"
           font-size="11"
           id="tspan386">e</tspan><tspan
           x="11.154"
           y="0"
           font-family="'IBMPlexSans'"
           font-size="11"
           id="tspan388">y </tspan><tspan
           x="18.667"
           y="0"
           font-family="'IBMPlexSans'"
           font-size="11"
           id="tspan390">P</tspan><tspan
           x="24.409"
           y="0"
           font-family="'IBMPlexSans'"
           font-size="11"
           id="tspan392">r</tspan><tspan
           x="27.962"
           y="0"
           font-family="'IBMPlexSans'"
           font-size="11"
           id="tspan394">o</tspan><tspan
           x="34.001"
           y="0"
           font-family="'IBMPlexSans'"
           font-size="11"
           id="tspan396">t</tspan><tspan
           x="37.598"
           y="0"
           font-family="'IBMPlexSans'"
           font-size="11"
           id="tspan398">ect</tspan></text>
</g><g
       clip-path="url(#SVGID_2_)"
       id="g422"><text
         transform="matrix(1 0 0 1 289.7173 107.3755)"
         id="text420"><tspan
           x="0"
           y="0"
           font-family="'IBMPlexSans-SemiBold'"
           font-size="12"
           id="tspan404">K</tspan><tspan
           x="6.216"
           y="0"
           font-family="'IBMPlexSans-SemiBold'"
           font-size="12"
           id="tspan406">e</tspan><tspan
           x="12.156"
           y="0"
           font-family="'IBMPlexSans-SemiBold'"
           font-size="12"
           id="tspan408">y </tspan><tspan
           x="20.352"
           y="0"
           font-family="'IBMPlexSans-SemiBold'"
           font-size="12"
           id="tspan410">P</tspan><tspan
           x="26.627"
           y="0"
           font-family="'IBMPlexSans-SemiBold'"
           font-size="12"
           id="tspan412">r</tspan><tspan
           x="30.503"
           y="0"
           font-family="'IBMPlexSans-SemiBold'"
           font-size="12"
           id="tspan414">o</tspan><tspan
           x="37.055"
           y="0"
           font-family="'IBMPlexSans-SemiBold'"
           font-size="12"
           id="tspan416">t</tspan><tspan
           x="40.979"
           y="0"
           font-family="'IBMPlexSans-SemiBold'"
           font-size="12"
           id="tspan418">ect</tspan></text>
</g><g
       clip-path="url(#SVGID_2_)"
       id="g426"><text
         transform="matrix(1 0 0 1 115.0889 221.8965)"
         font-family="'IBMPlexSans'"
         font-size="11"
         id="text424">Dati</text>
</g><g
       clip-path="url(#SVGID_2_)"
       id="g430"><text
         transform="matrix(1 0 0 1 113.4629 235.0957)"
         font-family="'IBMPlexSans'"
         font-size="11"
         id="text428">impacchettati</text>
</g><g
       clip-path="url(#SVGID_2_)"
       id="g434"><text
         transform="matrix(1 0 0 1 70.7173 107.3755)"
         font-family="'IBMPlexSans-SemiBold'"
         font-size="12"
         id="text432">Servizio dati di IBM Cloud </text>
</g><g
       clip-path="url(#SVGID_2_)"
       id="g438"><text
         transform="matrix(1 0 0 1 49 63)"
         fill="#272727"
         font-family="'IBMPlexSans-Bold'"
         font-size="16"
         id="text436">Spacchettamento delle chiavi</text>
</g></g></svg>
