<svg xmlns="http://www.w3.org/2000/svg" xmlns:xlink="http://www.w3.org/1999/xlink" width="1000" height="400"><defs><path id="a" d="M0 0h1000v400H0z"/></defs><clipPath id="b"><use xlink:href="#a" overflow="visible"/></clipPath><path clip-path="url(#b)" fill="#FFF" d="M48.5 83.5h200v200h-200z"/><path clip-path="url(#b)" fill="none" stroke="#D8D8D8" stroke-miterlimit="10" d="M248.5 282v1.5H247"/><path clip-path="url(#b)" fill="none" stroke="#D8D8D8" stroke-miterlimit="10" stroke-dasharray="3,2" d="M245 283.5H51"/><path clip-path="url(#b)" fill="none" stroke="#D8D8D8" stroke-miterlimit="10" d="M50 283.5h-1.5V282"/><path clip-path="url(#b)" fill="none" stroke="#D8D8D8" stroke-miterlimit="10" stroke-dasharray="3,2" d="M48.5 280V86"/><path clip-path="url(#b)" fill="none" stroke="#D8D8D8" stroke-miterlimit="10" d="M48.5 85v-1.5H50"/><path clip-path="url(#b)" fill="none" stroke="#D8D8D8" stroke-miterlimit="10" stroke-dasharray="3,2" d="M52 83.5h194"/><path clip-path="url(#b)" fill="none" stroke="#D8D8D8" stroke-miterlimit="10" d="M247 83.5h1.5V85"/><path clip-path="url(#b)" fill="none" stroke="#D8D8D8" stroke-miterlimit="10" stroke-dasharray="3,2" d="M248.5 87v194"/><path clip-path="url(#b)" fill="#FFF" d="M265.5 83.5h609v200h-609z"/><path clip-path="url(#b)" fill="none" stroke="#D8D8D8" stroke-miterlimit="10" d="M874.5 282v1.5H873"/><path clip-path="url(#b)" fill="none" stroke="#D8D8D8" stroke-miterlimit="10" stroke-dasharray="2.995,1.997" d="M871.003 283.5H267.999"/><path clip-path="url(#b)" fill="none" stroke="#D8D8D8" stroke-miterlimit="10" d="M267 283.5h-1.5V282"/><path clip-path="url(#b)" fill="none" stroke="#D8D8D8" stroke-miterlimit="10" stroke-dasharray="3,2" d="M265.5 280V86"/><path clip-path="url(#b)" fill="none" stroke="#D8D8D8" stroke-miterlimit="10" d="M265.5 85v-1.5h1.5"/><path clip-path="url(#b)" fill="none" stroke="#D8D8D8" stroke-miterlimit="10" stroke-dasharray="2.995,1.997" d="M268.997 83.5h603.005"/><path clip-path="url(#b)" fill="none" stroke="#D8D8D8" stroke-miterlimit="10" d="M873 83.5h1.5V85"/><path clip-path="url(#b)" fill="none" stroke="#D8D8D8" stroke-miterlimit="10" stroke-dasharray="3,2" d="M874.5 87v194"/><g clip-path="url(#b)"><defs><path id="c" d="M0 0h1000v400H0z"/></defs><clipPath id="d"><use xlink:href="#c" overflow="visible"/></clipPath><g opacity=".15" clip-path="url(#d)"><defs><path id="e" d="M203 316h333v34H203z"/></defs><clipPath id="f"><use xlink:href="#e" overflow="visible"/></clipPath><path clip-path="url(#f)" fill="#B380E0" d="M536 350H203v-23.494c0-5.802 4.704-10.506 10.506-10.506h311.988c5.802 0 10.506 4.704 10.506 10.506V350z"/></g></g><path clip-path="url(#b)" fill="#EDF5FF" d="M69.5 123.5h140v140h-140z"/><path clip-path="url(#b)" fill="none" stroke="#000F5E" stroke-miterlimit="10" d="M209.5 262v1.5H208"/><path clip-path="url(#b)" fill="none" stroke="#000F5E" stroke-miterlimit="10" stroke-dasharray="3,2" d="M206 263.5H72"/><path clip-path="url(#b)" fill="none" stroke="#000F5E" stroke-miterlimit="10" d="M71 263.5h-1.5V262"/><path clip-path="url(#b)" fill="none" stroke="#000F5E" stroke-miterlimit="10" stroke-dasharray="3,2" d="M69.5 260V126"/><path clip-path="url(#b)" fill="none" stroke="#000F5E" stroke-miterlimit="10" d="M69.5 125v-1.5H71"/><path clip-path="url(#b)" fill="none" stroke="#000F5E" stroke-miterlimit="10" stroke-dasharray="3,2" d="M73 123.5h134"/><path clip-path="url(#b)" fill="none" stroke="#000F5E" stroke-miterlimit="10" d="M208 123.5h1.5v1.5"/><path clip-path="url(#b)" fill="none" stroke="#000F5E" stroke-miterlimit="10" stroke-dasharray="3,2" d="M209.5 127v134"/><path clip-path="url(#b)" fill="#F8F4F2" d="M288.5 123.5h300v140h-300z"/><path clip-path="url(#b)" fill="none" stroke="#000F5E" stroke-miterlimit="10" d="M588.5 262v1.5H587"/><path clip-path="url(#b)" fill="none" stroke="#000F5E" stroke-miterlimit="10" stroke-dasharray="3,2" d="M585 263.5H291"/><path clip-path="url(#b)" fill="none" stroke="#000F5E" stroke-miterlimit="10" d="M290 263.5h-1.5V262"/><path clip-path="url(#b)" fill="none" stroke="#000F5E" stroke-miterlimit="10" stroke-dasharray="3,2" d="M288.5 260V126"/><path clip-path="url(#b)" fill="none" stroke="#000F5E" stroke-miterlimit="10" d="M288.5 125v-1.5h1.5"/><path clip-path="url(#b)" fill="none" stroke="#000F5E" stroke-miterlimit="10" stroke-dasharray="3,2" d="M292 123.5h294"/><path clip-path="url(#b)" fill="none" stroke="#000F5E" stroke-miterlimit="10" d="M587 123.5h1.5v1.5"/><path clip-path="url(#b)" fill="none" stroke="#000F5E" stroke-miterlimit="10" stroke-dasharray="3,2" d="M588.5 127v134"/><path clip-path="url(#b)" fill="#F4F4F4" d="M815.833 123h133.334v140H815.833z"/><path clip-path="url(#b)" fill="none" stroke="#000F5E" stroke-miterlimit="10" d="M947.667 123h1.5v1.5"/><path clip-path="url(#b)" fill="none" stroke="#000F5E" stroke-miterlimit="10" stroke-dasharray="3,2" d="M949.167 126.5v134"/><path clip-path="url(#b)" fill="none" stroke="#000F5E" stroke-miterlimit="10" d="M949.167 261.5v1.5h-1.5"/><path clip-path="url(#b)" fill="none" stroke="#000F5E" stroke-miterlimit="10" stroke-dasharray="2.962,1.975" d="M945.691 263H818.32"/><path clip-path="url(#b)" fill="none" stroke="#000F5E" stroke-miterlimit="10" d="M817.333 263h-1.5v-1.5"/><path clip-path="url(#b)" fill="none" stroke="#000F5E" stroke-miterlimit="10" stroke-dasharray="3,2" d="M815.833 259.5v-134"/><path clip-path="url(#b)" fill="none" stroke="#000F5E" stroke-miterlimit="10" d="M815.833 124.5V123h1.5"/><path clip-path="url(#b)" fill="none" stroke="#000F5E" stroke-miterlimit="10" stroke-dasharray="2.962,1.975" d="M819.309 123H946.68"/><g clip-path="url(#b)"><defs><path id="g" d="M324.443 162.493h64.482v30h-64.482z"/></defs><clipPath id="h"><use xlink:href="#g" overflow="visible"/></clipPath><g opacity=".65" clip-path="url(#h)"><defs><path id="i" d="M325.184 163.16h62v28h-62z"/></defs><clipPath id="j"><use xlink:href="#i" overflow="visible"/></clipPath><g clip-path="url(#j)"><defs><path id="k" d="M325.184 163.16h62v28h-62z"/></defs><clipPath id="l"><use xlink:href="#k" overflow="visible"/></clipPath><path clip-path="url(#l)" fill="#B380E0" d="M381.184 171.16H351.819c-2.249-4.726-7.053-8-12.635-8-7.732 0-14 6.268-14 14s6.268 14 14 14c5.582 0 10.386-3.274 12.635-8h7.365v-2h3v2h19l6-6-6-6z"/></g></g><path clip-path="url(#h)" fill="#6E177D" d="M381.854 170.421h-29.2a15.005 15.005 0 0 0-2.619-3.535c-6.107-6.106-16.169-5.847-21.94.779-4.869 5.59-4.869 14.065 0 19.657 5.771 6.625 15.833 6.885 21.94.777a14.929 14.929 0 0 0 2.619-3.536l5.63.001 2.357-2.357 2.357 2.357h18.856l7.071-7.071-7.071-7.072zm-.69 12.476l-17.475.001-1.869-1.869-1.179-1.179-1.179 1.179-1.868 1.868h-5.939l-.47.881a13.35 13.35 0 0 1-2.329 3.143c-5.422 5.422-14.391 5.189-19.507-.699-4.32-4.969-4.319-12.493.002-17.461 5.117-5.885 14.084-6.117 19.505-.696a13.302 13.302 0 0 1 2.329 3.143l.471.879h.998l28.51.001 5.404 5.405-5.404 5.404z"/><path clip-path="url(#h)" fill="#6E177D" d="M336.928 175.109a3.333 3.333 0 1 1-4.713 4.714 3.333 3.333 0 0 1 4.713-4.714M365.212 176.632h14.142v1.667h-14.142z"/></g><g clip-path="url(#b)"><defs><path id="m" d="M855 163.001h64.482v30.001H855z"/></defs><clipPath id="n"><use xlink:href="#m" overflow="visible"/></clipPath><g opacity=".65" clip-path="url(#n)"><defs><path id="o" d="M855.743 163.667h62v28h-62z"/></defs><clipPath id="p"><use xlink:href="#o" overflow="visible"/></clipPath><g clip-path="url(#p)"><defs><path id="q" d="M855.742 163.667h62v28h-62z"/></defs><clipPath id="r"><use xlink:href="#q" overflow="visible"/></clipPath><path clip-path="url(#r)" fill="#69A6FF" d="M911.742 171.667H882.377c-2.248-4.726-7.053-8-12.635-8-7.731 0-14 6.268-14 14s6.269 14 14 14c5.582 0 10.387-3.274 12.635-8h7.365v-2h3v2h19l6-6-6-6z"/></g></g></g><path clip-path="url(#b)" fill="#000F5E" d="M895.773 178.666h14.14v.14h-14.14zM891.202 180.357l1.311 1.31h-2.62z"/><path clip-path="url(#b)" fill="#000F5E" d="M895.773 177.136h14.14v1.67h-14.14z"/><g clip-path="url(#b)"><defs><path id="s" d="M855 163.001h64.482v30.001H855z"/></defs><clipPath id="t"><use xlink:href="#s" overflow="visible"/></clipPath><path clip-path="url(#t)" fill="#000F5E" d="M867.482 175.617a3.312 3.312 0 0 1 0 4.71 3.332 3.332 0 0 1-4.71-4.71c1.3-1.3 3.411-1.3 4.71 0"/><path clip-path="url(#t)" fill="#000F5E" d="M859.912 169.266a13.139 13.139 0 0 0-3 6.221c1-6.7 6.59-11.821 13.33-11.821 5.731 0 10.63 3.701 12.58 8.93h-.609l-.471-.88a13.024 13.024 0 0 0-2.33-3.139c-5.42-5.43-14.39-5.191-19.5.689M882.552 183.407c-.028.09-.068.17-.108.26-2.17 4.73-6.812 8-12.201 8-3.77 0-7.179-1.6-9.629-4.191 5.2 5.151 13.62 5.131 18.799-.049.93-.92 1.71-1.98 2.33-3.14l.331-.62.139-.26h.339z"/><path clip-path="url(#t)" fill="#000F5E" d="M912.412 170.926h-29.199a15.028 15.028 0 0 0-2.62-3.529c-6.11-6.11-16.17-5.851-21.94.77-4.87 5.599-4.87 14.07 0 19.66 5.771 6.63 15.83 6.889 21.94.78a15.105 15.105 0 0 0 2.62-3.54h5.63l2.359-2.351 2.351 2.351h18.859l7.07-7.07-7.07-7.071zm-21.21 9.431l-1.31 1.31-.15.15-1.59 1.59h-5.939l-.141.26-.33.62a13.043 13.043 0 0 1-2.33 3.139c-5.18 5.181-13.6 5.201-18.8.05-.25-.239-.479-.489-.71-.75-2.72-3.14-3.729-7.3-3-11.189 0-.01 0-.031.01-.05.42-2.25 1.42-4.401 3-6.221 5.11-5.88 14.08-6.119 19.5-.689.931.92 1.71 1.979 2.33 3.139l.471.88h29.511l2.019 2.021 3.38 3.38-3.38 3.389-2.019 2.021h-17.481l-1.5-1.51-1.541-1.54z"/><path clip-path="url(#t)" fill="#000F5E" d="M867.482 180.327a3.332 3.332 0 0 1-4.71-4.71c1.3-1.3 3.41-1.3 4.71 0a3.312 3.312 0 0 1 0 4.71M895.771 177.136h14.141v1.67h-14.141z"/></g><path clip-path="url(#b)" fill="#000F5E" d="M424.5 191h15-15z"/><g clip-path="url(#b)"><defs><path id="u" d="M424.5 183.5h14.999v15H424.5z"/></defs><clipPath id="v"><use xlink:href="#u" overflow="visible"/></clipPath><path clip-path="url(#v)" fill="none" stroke="#000F5E" stroke-width="1.313" stroke-miterlimit="10" d="M424.5 191h15"/></g><path clip-path="url(#b)" fill="#000F5E" d="M432 198.5v-14.999V198.5z"/><g clip-path="url(#b)"><defs><path id="w" d="M424.5 183.5h14.999v15H424.5z"/></defs><clipPath id="x"><use xlink:href="#w" overflow="visible"/></clipPath><path clip-path="url(#x)" fill="none" stroke="#000F5E" stroke-width="1.313" stroke-miterlimit="10" d="M432 198.5v-15"/></g><g clip-path="url(#b)"><defs><path id="y" d="M660 160.999h50V198h-50z"/></defs><clipPath id="z"><use xlink:href="#y" overflow="visible"/></clipPath><path clip-path="url(#z)" fill="#6E177D" d="M693.433 187c0-.451-.045-.89-.113-1.323l2.681-2.344-2.277-3.739-3.196 1.044a8.438 8.438 0 0 0-2.617-1.547L687.2 176h-4.4l-.709 3.091a8.44 8.44 0 0 0-2.617 1.548l-3.196-1.045-2.278 3.739 2.68 2.345a8.595 8.595 0 0 0-.112 1.322c0 .451.045.889.112 1.321l-2.68 2.346 2.278 3.738 3.195-1.044a8.424 8.424 0 0 0 2.618 1.547L682.8 198h4.4l.708-3.092a8.407 8.407 0 0 0 2.617-1.547l3.195 1.044 2.279-3.738-2.681-2.345c.07-.433.115-.871.115-1.322M685 189.528a3.001 3.001 0 0 1 0-6 3.001 3.001 0 0 1 0 6"/><path clip-path="url(#z)" fill="#B380E0" d="M679.433 172c0-.451-.045-.89-.113-1.323l2.681-2.344-2.277-3.739-3.196 1.044a8.438 8.438 0 0 0-2.617-1.547L673.2 161h-4.4l-.709 3.091a8.44 8.44 0 0 0-2.617 1.548l-3.196-1.045-2.278 3.739 2.68 2.345a8.595 8.595 0 0 0-.112 1.322c0 .451.045.889.112 1.321l-2.68 2.346 2.278 3.738 3.195-1.044a8.424 8.424 0 0 0 2.618 1.547L668.8 183h4.4l.708-3.092a8.407 8.407 0 0 0 2.617-1.547l3.195 1.044 2.279-3.738-2.681-2.345c.07-.433.115-.871.115-1.322M671 174.528a3.001 3.001 0 0 1 0-6 3.001 3.001 0 0 1 0 6"/><path clip-path="url(#z)" fill="#8747B8" d="M707.433 172c0-.451-.045-.89-.113-1.323l2.681-2.344-2.277-3.739-3.196 1.044a8.438 8.438 0 0 0-2.617-1.547L701.2 161h-4.4l-.709 3.091a8.44 8.44 0 0 0-2.617 1.548l-3.196-1.045-2.278 3.739 2.68 2.345a8.595 8.595 0 0 0-.112 1.322c0 .451.045.889.112 1.321l-2.68 2.346 2.278 3.738 3.195-1.044a8.424 8.424 0 0 0 2.618 1.547L696.8 183h4.4l.708-3.092a8.407 8.407 0 0 0 2.617-1.547l3.195 1.044 2.279-3.738-2.681-2.345c.07-.433.115-.871.115-1.322M699 174.528a3.001 3.001 0 0 1 0-6 3.001 3.001 0 0 1 0 6"/></g><g clip-path="url(#b)"><defs><path id="A" d="M486 147h53.5v52H486z"/></defs><clipPath id="B"><use xlink:href="#A" overflow="visible"/></clipPath><path clip-path="url(#B)" fill="#EFC100" d="M529.745 181.451c-.63.773-1.68 1.009-2.598 1.021-.479.044-.934-.055-1.404-.087-.449-.098-.919-.158-1.359-.29-1.788-.477-3.479-1.214-5.112-2.044-3.231-1.726-6.215-3.864-9.02-6.215-1.388-1.193-2.765-2.409-4.073-3.714-1.296-1.315-2.487-2.745-3.487-4.325-.977-1.593-1.859-3.275-2.396-5.13-.145-.453-.233-.947-.331-1.416-.036-.506-.138-.972-.092-1.491.004-.498.111-1.017.263-1.498.12-.241.241-.47.363-.686.18-.194.367-.368.539-.53l.222.203c-.396.777-.271 1.593-.024 2.363.22.773.605 1.523 1.013 2.255.846 1.456 1.839 2.856 2.901 4.208 2.157 2.674 4.236 5.5 6.729 7.995 2.495 2.474 5.195 4.774 8.15 6.685 1.471.959 3.008 1.832 4.635 2.458.403.172.822.267 1.236.407.417.071.844.213 1.264.216.835.093 1.743.003 2.362-.588l.219.203z"/><path clip-path="url(#B)" fill="#CBA9E6" d="M537.958 150.608l-9.17-.338.315.354h-.176l-.374-.374-17.678 17.677.207.207-3.116 3.116a14.432 14.432 0 0 0-4.217-.626c-7.732 0-14 6.044-14 13.5s6.268 13.5 14 13.5 14-6.044 14-13.5c0-1.631-.315-3.188-.865-4.635l4.865-4.865-1-1 2.532-2.533.957.957 12.679-12.678.348.387.06-.795.35-.349-.3-.3.583-7.705z"/><path clip-path="url(#B)" fill="#6E177D" d="M529 149l-20.647 20.647A15.002 15.002 0 0 0 504 169c-8.637 0-15.567 7.298-14.963 16.064.51 7.396 6.502 13.39 13.899 13.899C511.702 199.568 519 192.636 519 184c0-1.514-.229-2.975-.647-4.353l3.98-3.981v-3.333h3.334L539 159v-10h-10zm8.333 9.31l-12.356 12.356H520.667v4.31l-3.493 3.492-.707.707.291.956c.382 1.259.575 2.561.575 3.869 0 7.668-6.506 13.845-14.287 13.3-6.568-.46-11.888-5.781-12.346-12.348-.543-7.781 5.633-14.286 13.3-14.286 1.308 0 2.61.194 3.869.577l.955.289.706-.706 20.16-20.16h7.643v7.644z"/><path clip-path="url(#B)" fill="#6E177D" d="M500.547 184.083a3.333 3.333 0 1 1 0 6.666 3.333 3.333 0 1 1 0-6.666"/><path transform="rotate(134.999 527.215 160.749)" clip-path="url(#B)" fill="#6E177D" d="M520.141 159.916h14.142v1.667h-14.142z"/><path clip-path="url(#B)" fill="#9BC1FA" d="M534.958 148.608l-9.17-.338.315.354h-.176l-.374-.374-17.678 17.677.207.207-3.116 3.116a14.432 14.432 0 0 0-4.217-.626c-7.732 0-14 6.044-14 13.5s6.268 13.5 14 13.5 14-6.044 14-13.5c0-1.631-.315-3.188-.865-4.635l4.865-4.865-1-1 2.532-2.533.957.957 12.679-12.678.348.387.06-.795.35-.349-.3-.3.583-7.705z"/><path clip-path="url(#B)" fill="#000F5E" d="M526 147l-20.647 20.647A15.002 15.002 0 0 0 501 167c-8.637 0-15.567 7.298-14.963 16.064.51 7.396 6.502 13.39 13.9 13.899C508.702 197.568 516 190.636 516 182c0-1.514-.229-2.975-.647-4.353l3.98-3.981v-3.333h3.334L536 157v-10h-10zm8.333 9.31l-12.356 12.356H517.667v4.31l-3.493 3.492-.707.707.291.956c.382 1.259.575 2.561.575 3.869 0 7.668-6.506 13.845-14.287 13.3-6.568-.46-11.888-5.781-12.346-12.348-.543-7.781 5.633-14.286 13.3-14.286 1.308 0 2.61.194 3.869.577l.955.289.706-.706 20.16-20.16h7.643v7.644z"/><path clip-path="url(#B)" fill="#000F5E" d="M497.547 182.083a3.333 3.333 0 1 1 0 6.666 3.333 3.333 0 1 1 0-6.666"/><path transform="rotate(134.999 524.215 158.749)" clip-path="url(#B)" fill="#000F5E" d="M517.141 157.916h14.142v1.667h-14.142z"/><path clip-path="url(#B)" fill="#EFC100" d="M501.037 155.045c.63-.774 1.681-1.009 2.599-1.021.479-.044.933.055 1.403.087.45.098.919.158 1.359.29 1.788.477 3.479 1.214 5.112 2.044 3.232 1.726 6.214 3.864 9.021 6.215 1.388 1.193 2.765 2.409 4.072 3.714 1.297 1.315 2.488 2.745 3.487 4.325.978 1.593 1.859 3.275 2.397 5.13.145.453.232.947.33 1.416.037.506.138.972.093 1.491-.004.498-.112 1.017-.263 1.498-.12.241-.242.47-.363.686-.18.194-.367.368-.54.53l-.221-.203c.396-.777.271-1.593.024-2.363-.221-.774-.605-1.523-1.013-2.255-.846-1.456-1.839-2.856-2.902-4.208-2.157-2.674-4.235-5.5-6.728-7.995-2.495-2.474-5.195-4.774-8.15-6.685-1.472-.959-3.008-1.832-4.635-2.458-.404-.172-.822-.267-1.237-.407-.417-.071-.843-.213-1.264-.216-.834-.093-1.743-.003-2.361.588l-.22-.203z"/><path clip-path="url(#B)" fill="#FFF" d="M537.5 190.624c0 3.313-2.463 6-5.5 6s-5.5-2.687-5.5-6 2.463-6 5.5-6 5.5 2.687 5.5 6"/><path clip-path="url(#B)" fill="#5AA700" d="M537.5 182.914c0-4.09-4.396-7.415-8.607-5.391-2.133 1.026-3.393 3.286-3.393 5.653v2.461c-1.593 1.808-2.392 4.333-1.811 7.035.656 3.054 3.145 5.491 6.212 6.086 5.118.993 9.599-2.906 9.599-7.844a7.958 7.958 0 0 0-2-5.278v-2.722zm-10 0c0-2.88 3.412-5.281 6.272-3.239 1.127.803 1.728 2.161 1.728 3.545v.772a7.953 7.953 0 0 0-8 .001v-1.079zm2.824 12.412l-3.707-3.707 1.414-1.413 2.293 2.293 5.293-5.293 1.414 1.413-6.707 6.707z"/></g><g clip-path="url(#b)"><defs><path id="C" d="M110 147h54.866v52.289H110z"/></defs><clipPath id="D"><use xlink:href="#C" overflow="visible"/></clipPath><path clip-path="url(#D)" fill="#EFC100" d="M164.63 177.542c-.236 1.279-1.286 2.206-2.337 2.814-1.08.619-2.256 1.01-3.438 1.307-2.376.586-4.811.8-7.235.87-4.854.065-9.69-.503-14.445-1.451-4.735-.989-9.539-2.128-13.909-4.444-2.17-1.163-4.289-2.484-6.137-4.206-.925-.854-1.779-1.819-2.432-2.949-.309-.573-.582-1.18-.708-1.836-.13-.65-.088-1.35.164-1.939l.292.068c-.033 1.167.61 2.112 1.364 2.904.757.803 1.675 1.473 2.626 2.094 1.919 1.223 3.998 2.247 6.126 3.157 4.265 1.783 8.605 3.599 13.162 4.814 4.546 1.208 9.215 2.056 13.919 2.288 2.346.122 4.714.102 7.022-.275 1.151-.192 2.291-.476 3.333-.964 1.026-.476 2.024-1.205 2.341-2.32l.292.068z"/><path clip-path="url(#D)" fill="#9BC1FA" d="M158.958 148.984l-9.17-.338.316.354h-.176l-.374-.375-17.678 17.678.207.207-3.116 3.116a14.432 14.432 0 0 0-4.217-.626c-7.732 0-14 6.044-14 13.5s6.268 13.5 14 13.5 14-6.044 14-13.5c0-1.631-.315-3.188-.865-4.636L142.75 173l-1-1 2.532-2.533.957.957 12.679-12.679.348.388.059-.795.35-.349-.3-.3.583-7.705z"/><path clip-path="url(#D)" fill="#000F5E" d="M150 147.376l-20.647 20.647a15.002 15.002 0 0 0-4.353-.647c-8.637 0-15.567 7.298-14.963 16.064.51 7.397 6.502 13.39 13.9 13.899 8.765.605 16.063-6.326 16.063-14.963 0-1.514-.229-2.975-.647-4.353l3.98-3.98v-3.334h3.334L160 157.376v-10h-10zm8.333 9.311l-12.356 12.357H141.667V173.354l-3.493 3.492-.707.706.291.956c.382 1.259.575 2.561.575 3.869 0 7.668-6.506 13.845-14.287 13.3-6.568-.46-11.888-5.781-12.346-12.349-.543-7.78 5.633-14.284 13.3-14.284 1.308 0 2.61.193 3.869.575l.955.29.706-.706 20.16-20.159h7.643v7.643z"/><path clip-path="url(#D)" fill="#000F5E" d="M121.547 182.458a3.333 3.333 0 1 1 0 6.667 3.333 3.333 0 0 1 0-6.667"/><path transform="rotate(134.999 148.214 159.126)" clip-path="url(#D)" fill="#000F5E" d="M141.142 158.292h14.142v1.667h-14.142z"/><path clip-path="url(#D)" fill="#FFF" d="M155.75 160v36h-31v-48h18v12z"/><path clip-path="url(#D)" fill="#000F5E" d="M143.359 147h-20v50h33.333v-36.667L143.359 147zm11.667 48.333h-30v-46.667h16.666V162h13.334v33.333z"/><path clip-path="url(#D)" fill="#000F5E" d="M130.026 167h20v1.667h-20zM130.026 170.334h20v1.667h-20zM130.026 173.667h10v1.667h-10z"/><path clip-path="url(#D)" fill="#EFC100" d="M114.153 165.708c.236-1.279 1.286-2.206 2.336-2.814 1.08-.619 2.256-1.01 3.439-1.307 2.376-.587 4.81-.8 7.235-.87 4.854-.065 9.689.503 14.445 1.451 4.735.989 9.539 2.128 13.909 4.444 2.17 1.163 4.288 2.484 6.137 4.206.924.854 1.778 1.819 2.431 2.949.31.573.583 1.18.708 1.836.131.65.089 1.35-.163 1.939l-.292-.068c.033-1.167-.611-2.112-1.364-2.904-.757-.803-1.676-1.473-2.626-2.094-1.92-1.223-3.998-2.247-6.126-3.157-4.266-1.783-8.605-3.599-13.162-4.814-4.547-1.208-9.216-2.056-13.919-2.288-2.347-.122-4.715-.102-7.023.275-1.151.191-2.29.476-3.333.964-1.025.475-2.023 1.205-2.34 2.32l-.292-.068z"/><path clip-path="url(#D)" fill="#FFF" d="M156.75 191c0 3.313-2.463 6-5.5 6s-5.5-2.687-5.5-6 2.463-6 5.5-6 5.5 2.687 5.5 6"/><path clip-path="url(#D)" fill="#5AA700" d="M157.141 183.29c0-4.089-4.396-7.414-8.608-5.39-2.132 1.025-3.392 3.286-3.392 5.652v2.461c-1.593 1.808-2.392 4.333-1.811 7.035.656 3.055 3.145 5.492 6.212 6.087 5.118.992 9.599-2.906 9.599-7.845a7.958 7.958 0 0 0-2-5.278v-2.722zm-10 0c0-2.879 3.412-5.28 6.272-3.239 1.127.804 1.728 2.161 1.728 3.546v.772a7.954 7.954 0 0 0-8 .001v-1.08zm2.824 12.414l-3.707-3.707 1.414-1.414 2.293 2.293 5.293-5.293 1.414 1.414-6.707 6.707z"/></g><path clip-path="url(#b)" fill="none" stroke="#B380E0" stroke-miterlimit="10" stroke-dasharray="1,1" d="M219 258.202V274H60v-15.798"/><path clip-path="url(#b)" fill="none" stroke="#B380E0" stroke-miterlimit="10" d="M914 263v.5"/><path clip-path="url(#b)" fill="none" stroke="#B380E0" stroke-miterlimit="10" stroke-dasharray="0.989,0.989" d="M914 264.488v84.518"/><path clip-path="url(#b)" fill="none" stroke="#B380E0" stroke-miterlimit="10" d="M914 349.5v.5h-.5"/><path clip-path="url(#b)" fill="none" stroke="#B380E0" stroke-miterlimit="10" stroke-dasharray="0.999,0.999" d="M912.501 350H138"/><path clip-path="url(#b)" fill="none" stroke="#B380E0" stroke-miterlimit="10" d="M137.5 350h-.5l.004-.5"/><path clip-path="url(#b)" fill="none" stroke="#B380E0" stroke-miterlimit="10" stroke-dasharray="0.986,0.986" d="M137.012 348.514l.425-54.725"/><path clip-path="url(#b)" fill="none" stroke="#B380E0" stroke-miterlimit="10" d="M137.44 293.296l.004-.5"/><path clip-path="url(#b)" fill="#B380E0" d="M142.419 294.294l-4.919-8.674-5.053 8.597z"/><path clip-path="url(#b)" fill="none" stroke="#A71C71" stroke-miterlimit="10" d="M574.047 189.5h53.777"/><g clip-path="url(#b)"><defs><path id="E" d="M0 0h1000v400H0z"/></defs><clipPath id="F"><use xlink:href="#E" overflow="visible"/></clipPath><path clip-path="url(#F)" fill="#FFF" d="M574.26 193.26a3.76 3.76 0 1 1 .002-7.522 3.76 3.76 0 0 1-.002 7.522"/><path clip-path="url(#F)" fill="#A71C71" d="M574.26 193.76a4.265 4.265 0 0 0 4.26-4.26c0-2.349-1.911-4.26-4.26-4.26s-4.26 1.911-4.26 4.26c0 2.348 1.911 4.26 4.26 4.26s-2.349 0 0 0m0-7.52a3.263 3.263 0 0 1 3.26 3.26c0 1.798-1.462 3.26-3.26 3.26s-3.26-1.462-3.26-3.26c0-1.798 1.462-3.26 3.26-3.26s-1.798 0 0 0M626.365 194.486L635 189.5l-8.635-4.987z"/><path clip-path="url(#F)" fill="none" stroke="#A71C71" stroke-miterlimit="10" d="M733 189.5h52.824"/><path clip-path="url(#F)" fill="#A71C71" d="M784.365 194.486L793 189.5l-8.635-4.987z"/></g><g clip-path="url(#b)"><text x="216.895" y="324.055" transform="scale(.95761 1.04426)" font-size="11.491" stroke-width=".958"><tspan x="216.895" y="324.055" font-size="10.534" font-family="IBMPlexSans">Le DEK ritornano al servizio di dati e spacchettano i dati inattivi</tspan></text></g><g clip-path="url(#b)"><text transform="translate(858.38 220.897)" font-family="'IBMPlexSans'" font-size="11">DEK</text></g><g clip-path="url(#b)"><text transform="translate(857.563 234.097)" font-family="'IBMPlexSans'" font-size="11">Spacchettata</text></g><g clip-path="url(#b)"><text transform="translate(661.285 220.897)" font-family="'IBMPlexSans'" font-size="11">Algoritmo</text></g><g clip-path="url(#b)"><text transform="translate(661.58 234.097)" font-family="'IBMPlexSans'" font-size="11">AES</text></g><g clip-path="url(#b)"><text transform="translate(477.02 221.898)" font-family="'IBMPlexSans'" font-size="11">DEK impacchettata</text></g><g clip-path="url(#b)"><text transform="translate(483.423 235.098)" font-family="'IBMPlexSans'" font-size="11">dal servizio dati</text></g><g clip-path="url(#b)"><text transform="translate(328.323 221.898)" font-family="'IBMPlexSans'" font-size="11">Chiave root in</text></g><g clip-path="url(#b)"><text transform="translate(327.135 235.098)"><tspan x="0" y="0" font-family="'IBMPlexSans'" font-size="11">K</tspan><tspan x="5.698" y="0" font-family="'IBMPlexSans'" font-size="11">e</tspan><tspan x="11.154" y="0" font-family="'IBMPlexSans'" font-size="11">y </tspan><tspan x="18.667" y="0" font-family="'IBMPlexSans'" font-size="11">P</tspan><tspan x="24.409" y="0" font-family="'IBMPlexSans'" font-size="11">r</tspan><tspan x="27.962" y="0" font-family="'IBMPlexSans'" font-size="11">o</tspan><tspan x="34.001" y="0" font-family="'IBMPlexSans'" font-size="11">t</tspan><tspan x="37.598" y="0" font-family="'IBMPlexSans'" font-size="11">ect</tspan></text></g><g clip-path="url(#b)"><text transform="translate(289.717 107.376)"><tspan x="0" y="0" font-family="'IBMPlexSans-SemiBold'" font-size="12">K</tspan><tspan x="6.216" y="0" font-family="'IBMPlexSans-SemiBold'" font-size="12">e</tspan><tspan x="12.156" y="0" font-family="'IBMPlexSans-SemiBold'" font-size="12">y </tspan><tspan x="20.352" y="0" font-family="'IBMPlexSans-SemiBold'" font-size="12">P</tspan><tspan x="26.627" y="0" font-family="'IBMPlexSans-SemiBold'" font-size="12">r</tspan><tspan x="30.503" y="0" font-family="'IBMPlexSans-SemiBold'" font-size="12">o</tspan><tspan x="37.055" y="0" font-family="'IBMPlexSans-SemiBold'" font-size="12">t</tspan><tspan x="40.979" y="0" font-family="'IBMPlexSans-SemiBold'" font-size="12">ect</tspan></text></g><g clip-path="url(#b)"><text transform="translate(115.089 221.897)" font-family="'IBMPlexSans'" font-size="11">Dati</text></g><g clip-path="url(#b)"><text transform="translate(113.463 235.096)" font-family="'IBMPlexSans'" font-size="11">impacchettati</text></g><g clip-path="url(#b)"><text transform="translate(70.717 107.376)" font-family="'IBMPlexSans-SemiBold'" font-size="12">Servizio dati di IBM Cloud</text></g><g clip-path="url(#b)"><text transform="translate(49 63)" fill="#272727" font-family="'IBMPlexSans-Bold'" font-size="16">Spacchettamento delle chiavi</text></g></svg>