<?xml version="1.0" encoding="UTF-8" standalone="no"?>
<!-- Generator: Adobe Illustrator 16.0.0, SVG Export Plug-In . SVG Version: 6.00 Build 0)  -->

<svg
   xmlns:dc="http://purl.org/dc/elements/1.1/"
   xmlns:cc="http://creativecommons.org/ns#"
   xmlns:rdf="http://www.w3.org/1999/02/22-rdf-syntax-ns#"
   xmlns:svg="http://www.w3.org/2000/svg"
   xmlns="http://www.w3.org/2000/svg"
   xmlns:xlink="http://www.w3.org/1999/xlink"
   xmlns:sodipodi="http://sodipodi.sourceforge.net/DTD/sodipodi-0.dtd"
   xmlns:inkscape="http://www.inkscape.org/namespaces/inkscape"
   version="1.1"
   id="Layer_1"
   x="0px"
   y="0px"
   width="1000px"
   height="400px"
   viewBox="0 0 1000 400"
   enable-background="new 0 0 1000 400"
   xml:space="preserve"
   sodipodi:docname="wrapping-keys.svg"
   inkscape:version="0.92.2 (5c3e80d, 2017-08-06)"><metadata
     id="metadata493"><rdf:RDF><cc:Work
         rdf:about=""><dc:format>image/svg+xml</dc:format><dc:type
           rdf:resource="http://purl.org/dc/dcmitype/StillImage" /></cc:Work></rdf:RDF></metadata><defs
     id="defs491" /><sodipodi:namedview
     pagecolor="#ffffff"
     bordercolor="#666666"
     borderopacity="1"
     objecttolerance="10"
     gridtolerance="10"
     guidetolerance="10"
     inkscape:pageopacity="0"
     inkscape:pageshadow="2"
     inkscape:window-width="1920"
     inkscape:window-height="1027"
     id="namedview489"
     showgrid="false"
     inkscape:zoom="1.452"
     inkscape:cx="559.96179"
     inkscape:cy="223.60699"
     inkscape:window-x="-8"
     inkscape:window-y="-8"
     inkscape:window-maximized="1"
     inkscape:current-layer="Layer_1" /><g
     id="g486"><defs
       id="defs3"><rect
         id="SVGID_1_"
         width="1000"
         height="400" /></defs><clipPath
       id="SVGID_2_"><use
         xlink:href="#SVGID_1_"
         overflow="visible"
         id="use5" /></clipPath><rect
       x="48.5"
       y="83.5"
       clip-path="url(#SVGID_2_)"
       fill="#FFFFFF"
       width="200"
       height="200"
       id="rect8" /><polyline
       clip-path="url(#SVGID_2_)"
       fill="none"
       stroke="#D8D8D8"
       stroke-miterlimit="10"
       points="248.5,282 248.5,283.5    247,283.5  "
       id="polyline10" /><line
       clip-path="url(#SVGID_2_)"
       fill="none"
       stroke="#D8D8D8"
       stroke-miterlimit="10"
       stroke-dasharray="3,2"
       x1="245"
       y1="283.5"
       x2="51"
       y2="283.5"
       id="line12" /><polyline
       clip-path="url(#SVGID_2_)"
       fill="none"
       stroke="#D8D8D8"
       stroke-miterlimit="10"
       points="50,283.5 48.5,283.5 48.5,282     "
       id="polyline14" /><line
       clip-path="url(#SVGID_2_)"
       fill="none"
       stroke="#D8D8D8"
       stroke-miterlimit="10"
       stroke-dasharray="3,2"
       x1="48.5"
       y1="280"
       x2="48.5"
       y2="86"
       id="line16" /><polyline
       clip-path="url(#SVGID_2_)"
       fill="none"
       stroke="#D8D8D8"
       stroke-miterlimit="10"
       points="48.5,85 48.5,83.5 50,83.5  "
       id="polyline18" /><line
       clip-path="url(#SVGID_2_)"
       fill="none"
       stroke="#D8D8D8"
       stroke-miterlimit="10"
       stroke-dasharray="3,2"
       x1="52"
       y1="83.5"
       x2="246"
       y2="83.5"
       id="line20" /><polyline
       clip-path="url(#SVGID_2_)"
       fill="none"
       stroke="#D8D8D8"
       stroke-miterlimit="10"
       points="247,83.5 248.5,83.5 248.5,85     "
       id="polyline22" /><line
       clip-path="url(#SVGID_2_)"
       fill="none"
       stroke="#D8D8D8"
       stroke-miterlimit="10"
       stroke-dasharray="3,2"
       x1="248.5"
       y1="87"
       x2="248.5"
       y2="281"
       id="line24" /><rect
       x="265.5"
       y="83.5"
       clip-path="url(#SVGID_2_)"
       fill="#FFFFFF"
       width="609"
       height="200"
       id="rect26" /><polyline
       clip-path="url(#SVGID_2_)"
       fill="none"
       stroke="#D8D8D8"
       stroke-miterlimit="10"
       points="874.5,282 874.5,283.5    873,283.5  "
       id="polyline28" /><line
       clip-path="url(#SVGID_2_)"
       fill="none"
       stroke="#D8D8D8"
       stroke-miterlimit="10"
       stroke-dasharray="2.995,1.997"
       x1="871.003"
       y1="283.5"
       x2="267.999"
       y2="283.5"
       id="line30" /><polyline
       clip-path="url(#SVGID_2_)"
       fill="none"
       stroke="#D8D8D8"
       stroke-miterlimit="10"
       points="267,283.5 265.5,283.5    265.5,282  "
       id="polyline32" /><line
       clip-path="url(#SVGID_2_)"
       fill="none"
       stroke="#D8D8D8"
       stroke-miterlimit="10"
       stroke-dasharray="3,2"
       x1="265.5"
       y1="280"
       x2="265.5"
       y2="86"
       id="line34" /><polyline
       clip-path="url(#SVGID_2_)"
       fill="none"
       stroke="#D8D8D8"
       stroke-miterlimit="10"
       points="265.5,85 265.5,83.5 267,83.5     "
       id="polyline36" /><line
       clip-path="url(#SVGID_2_)"
       fill="none"
       stroke="#D8D8D8"
       stroke-miterlimit="10"
       stroke-dasharray="2.995,1.997"
       x1="268.997"
       y1="83.5"
       x2="872.002"
       y2="83.5"
       id="line38" /><polyline
       clip-path="url(#SVGID_2_)"
       fill="none"
       stroke="#D8D8D8"
       stroke-miterlimit="10"
       points="873,83.5 874.5,83.5 874.5,85     "
       id="polyline40" /><line
       clip-path="url(#SVGID_2_)"
       fill="none"
       stroke="#D8D8D8"
       stroke-miterlimit="10"
       stroke-dasharray="3,2"
       x1="874.5"
       y1="87"
       x2="874.5"
       y2="281"
       id="line42" /><rect
       x="69.5"
       y="123.5"
       clip-path="url(#SVGID_2_)"
       fill="#EDF5FF"
       width="140"
       height="140"
       id="rect44" /><polyline
       clip-path="url(#SVGID_2_)"
       fill="none"
       stroke="#000F5E"
       stroke-miterlimit="10"
       points="209.5,262 209.5,263.5    208,263.5  "
       id="polyline46" /><line
       clip-path="url(#SVGID_2_)"
       fill="none"
       stroke="#000F5E"
       stroke-miterlimit="10"
       stroke-dasharray="3,2"
       x1="206"
       y1="263.5"
       x2="72"
       y2="263.5"
       id="line48" /><polyline
       clip-path="url(#SVGID_2_)"
       fill="none"
       stroke="#000F5E"
       stroke-miterlimit="10"
       points="71,263.5 69.5,263.5 69.5,262     "
       id="polyline50" /><line
       clip-path="url(#SVGID_2_)"
       fill="none"
       stroke="#000F5E"
       stroke-miterlimit="10"
       stroke-dasharray="3,2"
       x1="69.5"
       y1="260"
       x2="69.5"
       y2="126"
       id="line52" /><polyline
       clip-path="url(#SVGID_2_)"
       fill="none"
       stroke="#000F5E"
       stroke-miterlimit="10"
       points="69.5,125 69.5,123.5 71,123.5     "
       id="polyline54" /><line
       clip-path="url(#SVGID_2_)"
       fill="none"
       stroke="#000F5E"
       stroke-miterlimit="10"
       stroke-dasharray="3,2"
       x1="73"
       y1="123.5"
       x2="207"
       y2="123.5"
       id="line56" /><polyline
       clip-path="url(#SVGID_2_)"
       fill="none"
       stroke="#000F5E"
       stroke-miterlimit="10"
       points="208,123.5 209.5,123.5    209.5,125  "
       id="polyline58" /><line
       clip-path="url(#SVGID_2_)"
       fill="none"
       stroke="#000F5E"
       stroke-miterlimit="10"
       stroke-dasharray="3,2"
       x1="209.5"
       y1="127"
       x2="209.5"
       y2="261"
       id="line60" /><rect
       x="288.5"
       y="123.5"
       clip-path="url(#SVGID_2_)"
       fill="#F8F4F2"
       width="300"
       height="140"
       id="rect62" /><polyline
       clip-path="url(#SVGID_2_)"
       fill="none"
       stroke="#000F5E"
       stroke-miterlimit="10"
       points="588.5,262 588.5,263.5    587,263.5  "
       id="polyline64" /><line
       clip-path="url(#SVGID_2_)"
       fill="none"
       stroke="#000F5E"
       stroke-miterlimit="10"
       stroke-dasharray="3,2"
       x1="585"
       y1="263.5"
       x2="291"
       y2="263.5"
       id="line66" /><polyline
       clip-path="url(#SVGID_2_)"
       fill="none"
       stroke="#000F5E"
       stroke-miterlimit="10"
       points="290,263.5 288.5,263.5    288.5,262  "
       id="polyline68" /><line
       clip-path="url(#SVGID_2_)"
       fill="none"
       stroke="#000F5E"
       stroke-miterlimit="10"
       stroke-dasharray="3,2"
       x1="288.5"
       y1="260"
       x2="288.5"
       y2="126"
       id="line70" /><polyline
       clip-path="url(#SVGID_2_)"
       fill="none"
       stroke="#000F5E"
       stroke-miterlimit="10"
       points="288.5,125 288.5,123.5    290,123.5  "
       id="polyline72" /><line
       clip-path="url(#SVGID_2_)"
       fill="none"
       stroke="#000F5E"
       stroke-miterlimit="10"
       stroke-dasharray="3,2"
       x1="292"
       y1="123.5"
       x2="586"
       y2="123.5"
       id="line74" /><polyline
       clip-path="url(#SVGID_2_)"
       fill="none"
       stroke="#000F5E"
       stroke-miterlimit="10"
       points="587,123.5 588.5,123.5    588.5,125  "
       id="polyline76" /><line
       clip-path="url(#SVGID_2_)"
       fill="none"
       stroke="#000F5E"
       stroke-miterlimit="10"
       stroke-dasharray="3,2"
       x1="588.5"
       y1="127"
       x2="588.5"
       y2="261"
       id="line78" /><rect
       x="815.833"
       y="123"
       clip-path="url(#SVGID_2_)"
       fill="#F4F4F4"
       width="133.334"
       height="140"
       id="rect80" /><polyline
       clip-path="url(#SVGID_2_)"
       fill="none"
       stroke="#000F5E"
       stroke-miterlimit="10"
       points="947.667,123 949.167,123    949.167,124.5  "
       id="polyline82" /><line
       clip-path="url(#SVGID_2_)"
       fill="none"
       stroke="#000F5E"
       stroke-miterlimit="10"
       stroke-dasharray="3,2"
       x1="949.167"
       y1="126.5"
       x2="949.167"
       y2="260.5"
       id="line84" /><polyline
       clip-path="url(#SVGID_2_)"
       fill="none"
       stroke="#000F5E"
       stroke-miterlimit="10"
       points="949.167,261.5 949.167,263    947.667,263  "
       id="polyline86" /><line
       clip-path="url(#SVGID_2_)"
       fill="none"
       stroke="#000F5E"
       stroke-miterlimit="10"
       stroke-dasharray="2.962,1.975"
       x1="945.691"
       y1="263"
       x2="818.32"
       y2="263"
       id="line88" /><polyline
       clip-path="url(#SVGID_2_)"
       fill="none"
       stroke="#000F5E"
       stroke-miterlimit="10"
       points="817.333,263 815.833,263    815.833,261.5  "
       id="polyline90" /><line
       clip-path="url(#SVGID_2_)"
       fill="none"
       stroke="#000F5E"
       stroke-miterlimit="10"
       stroke-dasharray="3,2"
       x1="815.833"
       y1="259.5"
       x2="815.833"
       y2="125.5"
       id="line92" /><polyline
       clip-path="url(#SVGID_2_)"
       fill="none"
       stroke="#000F5E"
       stroke-miterlimit="10"
       points="815.833,124.5 815.833,123    817.333,123  "
       id="polyline94" /><line
       clip-path="url(#SVGID_2_)"
       fill="none"
       stroke="#000F5E"
       stroke-miterlimit="10"
       stroke-dasharray="2.962,1.975"
       x1="819.309"
       y1="123"
       x2="946.68"
       y2="123"
       id="line96" /><g
       clip-path="url(#SVGID_2_)"
       id="g130"><defs
         id="defs99"><rect
           id="SVGID_3_"
           x="324.443"
           y="162.493"
           width="64.482"
           height="30" /></defs><clipPath
         id="SVGID_4_"><use
           xlink:href="#SVGID_3_"
           overflow="visible"
           id="use101" /></clipPath><g
         opacity="0.65"
         clip-path="url(#SVGID_4_)"
         id="g122"><g
           id="g120"><defs
             id="defs105"><rect
               id="SVGID_5_"
               x="325.184"
               y="163.16"
               width="62"
               height="28" /></defs><clipPath
             id="SVGID_6_"><use
               xlink:href="#SVGID_5_"
               overflow="visible"
               id="use107" /></clipPath><g
             clip-path="url(#SVGID_6_)"
             id="g118"><defs
               id="defs111"><rect
                 id="SVGID_7_"
                 x="325.184"
                 y="163.16"
                 width="62"
                 height="28" /></defs><clipPath
               id="SVGID_8_"><use
                 xlink:href="#SVGID_7_"
                 overflow="visible"
                 id="use113" /></clipPath><path
               clip-path="url(#SVGID_8_)"
               fill="#B380E0"
               d="M381.184,171.16h-21h-8.365c-2.249-4.726-7.053-8-12.635-8       c-7.732,0-14,6.268-14,14s6.268,14,14,14c5.582,0,10.386-3.274,12.635-8h7.365v-2h1h2v2h19l6-6L381.184,171.16z"
               id="path116" /></g></g></g><path
         clip-path="url(#SVGID_4_)"
         fill="#6E177D"
         d="M381.854,170.421h-29.2c-0.678-1.268-1.549-2.464-2.619-3.535    c-6.107-6.106-16.169-5.847-21.94,0.779c-4.869,5.59-4.869,14.065,0,19.657c5.771,6.625,15.833,6.885,21.94,0.777    c1.07-1.07,1.941-2.265,2.619-3.536l5.63,0.001l2.357-2.357l2.357,2.357h18.856l7.071-7.071L381.854,170.421z M381.164,182.897    l-17.475,0.001l-1.869-1.869l-1.179-1.179l-1.179,1.179l-1.868,1.868h-4.939h-1l-0.47,0.881c-0.621,1.16-1.404,2.218-2.329,3.143    c-5.422,5.422-14.391,5.189-19.507-0.699c-4.32-4.969-4.319-12.493,0.002-17.461c5.117-5.885,14.084-6.117,19.505-0.696    c0.925,0.925,1.709,1.982,2.329,3.143l0.471,0.879h0.998l28.51,0.001l5.404,5.405L381.164,182.897z"
         id="path124" /><path
         clip-path="url(#SVGID_4_)"
         fill="#6E177D"
         d="M336.928,175.109c1.302,1.302,1.302,3.412,0,4.714    c-1.302,1.302-3.412,1.302-4.714,0c-1.302-1.302-1.302-3.412,0-4.714C333.516,173.807,335.626,173.807,336.928,175.109"
         id="path126" /><rect
         x="365.212"
         y="176.632"
         clip-path="url(#SVGID_4_)"
         fill="#6E177D"
         width="14.142"
         height="1.667"
         id="rect128" /></g><g
       clip-path="url(#SVGID_2_)"
       id="g158"><defs
         id="defs133"><rect
           id="SVGID_9_"
           x="480.192"
           y="162.402"
           width="64.482"
           height="30.002" /></defs><clipPath
         id="SVGID_10_"><use
           xlink:href="#SVGID_9_"
           overflow="visible"
           id="use135" /></clipPath><g
         opacity="0.65"
         clip-path="url(#SVGID_10_)"
         id="g156"><g
           id="g154"><defs
             id="defs139"><rect
               id="SVGID_11_"
               x="480.935"
               y="163.069"
               width="62"
               height="28" /></defs><clipPath
             id="SVGID_12_"><use
               xlink:href="#SVGID_11_"
               overflow="visible"
               id="use141" /></clipPath><g
             clip-path="url(#SVGID_12_)"
             id="g152"><defs
               id="defs145"><rect
                 id="SVGID_13_"
                 x="480.935"
                 y="163.069"
                 width="62"
                 height="28" /></defs><clipPath
               id="SVGID_14_"><use
                 xlink:href="#SVGID_13_"
                 overflow="visible"
                 id="use147" /></clipPath><path
               clip-path="url(#SVGID_14_)"
               fill="#69A6FF"
               d="M536.935,171.069h-21h-8.364c-2.249-4.726-7.054-8-12.635-8       c-7.732,0-14,6.268-14,14s6.268,14,14,14c5.582,0,10.386-3.274,12.635-8h7.364v-2h1h2v2h19l6-6L536.935,171.069z"
               id="path150" /></g></g></g></g><rect
       x="520.965"
       y="178.069"
       clip-path="url(#SVGID_2_)"
       fill="#000F5E"
       width="14.142"
       height="0.139"
       id="rect160" /><polygon
       clip-path="url(#SVGID_2_)"
       fill="#000F5E"
       points="516.395,179.759 517.705,181.069 515.085,181.069  "
       id="polygon162" /><rect
       x="520.965"
       y="176.538"
       clip-path="url(#SVGID_2_)"
       fill="#000F5E"
       width="14.141"
       height="1.67"
       id="rect164" /><g
       clip-path="url(#SVGID_2_)"
       id="g184"><defs
         id="defs167"><rect
           id="SVGID_15_"
           x="480.192"
           y="162.402"
           width="64.482"
           height="30.002" /></defs><clipPath
         id="SVGID_16_"><use
           xlink:href="#SVGID_15_"
           overflow="visible"
           id="use169" /></clipPath><path
         clip-path="url(#SVGID_16_)"
         fill="#000F5E"
         d="M492.675,175.019c1.31,1.3,1.31,3.41,0,4.71c-1.3,1.3-3.41,1.3-4.71,0    c-1.3-1.3-1.3-3.41,0-4.71C489.265,173.719,491.375,173.719,492.675,175.019"
         id="path172" /><path
         clip-path="url(#SVGID_16_)"
         fill="#000F5E"
         d="M485.105,168.668c-1.58,1.82-2.58,3.971-3,6.221    c1-6.7,6.59-11.821,13.33-11.821c5.731,0,10.63,3.701,12.58,8.93h-0.61l-0.47-0.88c-0.62-1.16-1.399-2.22-2.33-3.139    C499.185,162.549,490.215,162.789,485.105,168.668"
         id="path174" /><path
         clip-path="url(#SVGID_16_)"
         fill="#000F5E"
         d="M507.744,182.809c-0.028,0.09-0.068,0.17-0.108,0.26    c-2.17,4.73-6.812,8-12.201,8c-3.769,0-7.179-1.6-9.629-4.191c5.2,5.151,13.62,5.131,18.799-0.049c0.93-0.92,1.71-1.98,2.33-3.14    l0.331-0.62l0.139-0.26H507.744z"
         id="path176" /><path
         clip-path="url(#SVGID_16_)"
         fill="#000F5E"
         d="M537.604,170.328h-29.199c-0.681-1.269-1.551-2.46-2.62-3.529    c-6.11-6.11-16.17-5.851-21.94,0.77c-4.87,5.599-4.87,14.07,0,19.66c5.77,6.63,15.83,6.889,21.94,0.78    c1.069-1.07,1.939-2.271,2.62-3.54h5.63l2.359-2.351l2.351,2.351h18.859l7.07-7.07L537.604,170.328z M516.395,179.759l-1.31,1.31    l-0.15,0.15l-1.59,1.59h-5.939l-0.141,0.26l-0.33,0.62c-0.62,1.16-1.399,2.219-2.33,3.139c-5.18,5.181-13.6,5.201-18.8,0.05    c-0.25-0.239-0.48-0.489-0.71-0.75c-2.72-3.14-3.73-7.3-3-11.189c0-0.01,0-0.031,0.01-0.05c0.42-2.25,1.42-4.401,3-6.221    c5.11-5.88,14.08-6.119,19.5-0.689c0.931,0.92,1.71,1.979,2.33,3.139l0.471,0.88h29.511l2.019,2.021l3.38,3.38l-3.38,3.389    l-2.019,2.021h-17.481l-1.5-1.51L516.395,179.759z"
         id="path178" /><path
         clip-path="url(#SVGID_16_)"
         fill="#000F5E"
         d="M492.675,179.729c-1.3,1.3-3.41,1.3-4.71,0c-1.3-1.3-1.3-3.41,0-4.71    c1.3-1.3,3.41-1.3,4.71,0C493.985,176.319,493.985,178.429,492.675,179.729"
         id="path180" /><rect
         x="520.964"
         y="176.538"
         clip-path="url(#SVGID_16_)"
         fill="#000F5E"
         width="14.14"
         height="1.67"
         id="rect182" /></g><path
       clip-path="url(#SVGID_2_)"
       fill="#000F5E"
       d="M424.5,191H439.5H424.5z"
       id="path186" /><g
       clip-path="url(#SVGID_2_)"
       id="g196"><defs
         id="defs189"><rect
           id="SVGID_17_"
           x="424.5"
           y="183.5"
           width="14.999"
           height="15" /></defs><clipPath
         id="SVGID_18_"><use
           xlink:href="#SVGID_17_"
           overflow="visible"
           id="use191" /></clipPath><line
         clip-path="url(#SVGID_18_)"
         fill="none"
         stroke="#000F5E"
         stroke-width="1.313"
         stroke-miterlimit="10"
         x1="424.5"
         y1="191"
         x2="439.5"
         y2="191"
         id="line194" /></g><path
       clip-path="url(#SVGID_2_)"
       fill="#000F5E"
       d="M432,198.5v-14.999V198.5z"
       id="path198" /><g
       clip-path="url(#SVGID_2_)"
       id="g208"><defs
         id="defs201"><rect
           id="SVGID_19_"
           x="424.5"
           y="183.5"
           width="14.999"
           height="15" /></defs><clipPath
         id="SVGID_20_"><use
           xlink:href="#SVGID_19_"
           overflow="visible"
           id="use203" /></clipPath><line
         clip-path="url(#SVGID_20_)"
         fill="none"
         stroke="#000F5E"
         stroke-width="1.313"
         stroke-miterlimit="10"
         x1="432"
         y1="198.5"
         x2="432"
         y2="183.5"
         id="line206" /></g><g
       clip-path="url(#SVGID_2_)"
       id="g222"><defs
         id="defs211"><rect
           id="SVGID_21_"
           x="660"
           y="160.999"
           width="50"
           height="37.001" /></defs><clipPath
         id="SVGID_22_"><use
           xlink:href="#SVGID_21_"
           overflow="visible"
           id="use213" /></clipPath><path
         clip-path="url(#SVGID_22_)"
         fill="#6E177D"
         d="M693.433,187c0-0.451-0.045-0.89-0.113-1.323l2.681-2.344l-2.277-3.739    l-3.196,1.044c-0.765-0.665-1.648-1.189-2.617-1.547L687.2,176h-4.4l-0.709,3.091c-0.968,0.358-1.853,0.883-2.617,1.548    l-3.196-1.045L674,183.333l2.68,2.345c-0.067,0.432-0.112,0.871-0.112,1.322c0,0.451,0.045,0.889,0.112,1.321l-2.68,2.346    l2.278,3.738l3.195-1.044c0.765,0.665,1.649,1.19,2.618,1.547L682.8,198h4.4l0.708-3.092c0.969-0.357,1.853-0.882,2.617-1.547    l3.195,1.044l2.279-3.738l-2.681-2.345C693.388,187.889,693.433,187.451,693.433,187 M685,189.528c-1.655,0-3-1.343-3-3    s1.345-3,3-3s3,1.343,3,3S686.655,189.528,685,189.528"
         id="path216" /><path
         clip-path="url(#SVGID_22_)"
         fill="#B380E0"
         d="M679.433,172c0-0.451-0.045-0.89-0.113-1.323l2.681-2.344l-2.277-3.739    l-3.196,1.044c-0.765-0.665-1.648-1.189-2.617-1.547L673.2,161h-4.4l-0.709,3.091c-0.968,0.358-1.853,0.883-2.617,1.548    l-3.196-1.045L660,168.333l2.68,2.345c-0.067,0.432-0.112,0.871-0.112,1.322c0,0.451,0.045,0.889,0.112,1.321l-2.68,2.346    l2.278,3.738l3.195-1.044c0.765,0.665,1.649,1.19,2.618,1.547L668.8,183h4.4l0.708-3.092c0.969-0.357,1.853-0.882,2.617-1.547    l3.195,1.044l2.279-3.738l-2.681-2.345C679.388,172.889,679.433,172.451,679.433,172 M671,174.528c-1.655,0-3-1.343-3-3    s1.345-3,3-3s3,1.343,3,3S672.655,174.528,671,174.528"
         id="path218" /><path
         clip-path="url(#SVGID_22_)"
         fill="#8747B8"
         d="M707.433,172c0-0.451-0.045-0.89-0.113-1.323l2.681-2.344l-2.277-3.739    l-3.196,1.044c-0.765-0.665-1.648-1.189-2.617-1.547L701.2,161h-4.4l-0.709,3.091c-0.968,0.358-1.853,0.883-2.617,1.548    l-3.196-1.045L688,168.333l2.68,2.345c-0.067,0.432-0.112,0.871-0.112,1.322c0,0.451,0.045,0.889,0.112,1.321l-2.68,2.346    l2.278,3.738l3.195-1.044c0.765,0.665,1.649,1.19,2.618,1.547L696.8,183h4.4l0.708-3.092c0.969-0.357,1.853-0.882,2.617-1.547    l3.195,1.044l2.279-3.738l-2.681-2.345C707.388,172.889,707.433,172.451,707.433,172 M699,174.528c-1.655,0-3-1.343-3-3    s1.345-3,3-3s3,1.343,3,3S700.655,174.528,699,174.528"
         id="path220" /></g><g
       clip-path="url(#SVGID_2_)"
       id="g250"><defs
         id="defs225"><rect
           id="SVGID_23_"
           x="105"
           y="161"
           width="64.482"
           height="30.002" /></defs><clipPath
         id="SVGID_24_"><use
           xlink:href="#SVGID_23_"
           overflow="visible"
           id="use227" /></clipPath><g
         opacity="0.65"
         clip-path="url(#SVGID_24_)"
         id="g248"><g
           id="g246"><defs
             id="defs231"><rect
               id="SVGID_25_"
               x="105.743"
               y="161.667"
               width="62"
               height="28" /></defs><clipPath
             id="SVGID_26_"><use
               xlink:href="#SVGID_25_"
               overflow="visible"
               id="use233" /></clipPath><g
             clip-path="url(#SVGID_26_)"
             id="g244"><defs
               id="defs237"><rect
                 id="SVGID_27_"
                 x="105.743"
                 y="161.667"
                 width="62"
                 height="28" /></defs><clipPath
               id="SVGID_28_"><use
                 xlink:href="#SVGID_27_"
                 overflow="visible"
                 id="use239" /></clipPath><path
               clip-path="url(#SVGID_28_)"
               fill="#69A6FF"
               d="M161.743,169.667h-21h-8.365c-2.249-4.726-7.053-8-12.635-8       c-7.732,0-14,6.268-14,14s6.268,14,14,14c5.582,0,10.386-3.274,12.635-8h7.365v-2h1h2v2h19l6-6L161.743,169.667z"
               id="path242" /></g></g></g></g><rect
       x="145.773"
       y="176.667"
       clip-path="url(#SVGID_2_)"
       fill="#000F5E"
       width="14.14"
       height="0.139"
       id="rect252" /><polygon
       clip-path="url(#SVGID_2_)"
       fill="#000F5E"
       points="141.203,178.357 142.513,179.667 139.893,179.667  "
       id="polygon254" /><rect
       x="145.773"
       y="175.136"
       clip-path="url(#SVGID_2_)"
       fill="#000F5E"
       width="14.14"
       height="1.67"
       id="rect256" /><g
       clip-path="url(#SVGID_2_)"
       id="g276"><defs
         id="defs259"><rect
           id="SVGID_29_"
           x="105"
           y="161"
           width="64.482"
           height="30.002" /></defs><clipPath
         id="SVGID_30_"><use
           xlink:href="#SVGID_29_"
           overflow="visible"
           id="use261" /></clipPath><path
         clip-path="url(#SVGID_30_)"
         fill="#000F5E"
         d="M117.483,173.617c1.31,1.3,1.31,3.41,0,4.71c-1.3,1.3-3.41,1.3-4.71,0    c-1.3-1.3-1.3-3.41,0-4.71C114.073,172.317,116.183,172.317,117.483,173.617"
         id="path264" /><path
         clip-path="url(#SVGID_30_)"
         fill="#000F5E"
         d="M109.913,167.266c-1.58,1.82-2.58,3.971-3,6.221    c1-6.7,6.59-11.821,13.33-11.821c5.731,0,10.63,3.701,12.58,8.93h-0.61l-0.47-0.88c-0.62-1.16-1.4-2.22-2.33-3.139    C123.992,161.147,115.022,161.386,109.913,167.266"
         id="path266" /><path
         clip-path="url(#SVGID_30_)"
         fill="#000F5E"
         d="M132.552,181.407c-0.029,0.09-0.069,0.17-0.109,0.26    c-2.17,4.73-6.811,8-12.201,8c-3.769,0-7.179-1.6-9.629-4.191c5.2,5.151,13.62,5.131,18.799-0.049c0.93-0.92,1.71-1.98,2.33-3.14    l0.331-0.62l0.139-0.26H132.552z"
         id="path268" /><path
         clip-path="url(#SVGID_30_)"
         fill="#000F5E"
         d="M162.413,168.926h-29.2c-0.68-1.269-1.55-2.46-2.62-3.529    c-6.11-6.11-16.17-5.851-21.94,0.77c-4.87,5.599-4.87,14.07,0,19.66c5.77,6.63,15.83,6.889,21.94,0.78    c1.07-1.07,1.94-2.271,2.62-3.54h5.63l2.36-2.351l2.35,2.351h18.86l7.07-7.07L162.413,168.926z M141.203,178.357l-1.31,1.31    l-0.15,0.15l-1.59,1.59h-5.94l-0.14,0.26l-0.33,0.62c-0.62,1.16-1.4,2.219-2.33,3.139c-5.18,5.181-13.6,5.201-18.8,0.05    c-0.25-0.239-0.48-0.489-0.71-0.75c-2.72-3.14-3.73-7.3-3-11.189c0-0.01,0-0.031,0.01-0.05c0.42-2.25,1.42-4.401,3-6.221    c5.11-5.88,14.08-6.119,19.5-0.689c0.93,0.92,1.71,1.979,2.33,3.139l0.47,0.88h29.511l2.019,2.021l3.38,3.38l-3.38,3.389    l-2.019,2.021h-17.481l-1.5-1.51L141.203,178.357z"
         id="path270" /><path
         clip-path="url(#SVGID_30_)"
         fill="#000F5E"
         d="M117.483,178.327c-1.3,1.3-3.41,1.3-4.71,0c-1.3-1.3-1.3-3.41,0-4.71    c1.3-1.3,3.41-1.3,4.71,0C118.793,174.917,118.793,177.027,117.483,178.327"
         id="path272" /><rect
         x="145.772"
         y="175.136"
         clip-path="url(#SVGID_30_)"
         fill="#000F5E"
         width="14.14"
         height="1.67"
         id="rect274" /></g><g
       clip-path="url(#SVGID_2_)"
       id="g308"><defs
         id="defs279"><rect
           id="SVGID_31_"
           x="860.198"
           y="147.491"
           width="53.5"
           height="51.999" /></defs><clipPath
         id="SVGID_32_"><use
           xlink:href="#SVGID_31_"
           overflow="visible"
           id="use281" /></clipPath><path
         clip-path="url(#SVGID_32_)"
         fill="#EFC100"
         d="M903.943,181.941c-0.631,0.773-1.681,1.009-2.599,1.021    c-0.479,0.044-0.933-0.055-1.404-0.087c-0.448-0.098-0.919-0.158-1.358-0.29c-1.788-0.477-3.479-1.214-5.113-2.044    c-3.23-1.726-6.214-3.864-9.019-6.215c-1.389-1.193-2.766-2.409-4.073-3.714c-1.296-1.315-2.488-2.745-3.488-4.325    c-0.976-1.593-1.858-3.275-2.396-5.13c-0.146-0.453-0.234-0.947-0.331-1.416c-0.036-0.506-0.139-0.972-0.092-1.491    c0.004-0.498,0.11-1.017,0.263-1.498c0.12-0.241,0.241-0.47,0.363-0.686c0.18-0.194,0.366-0.368,0.538-0.53l0.223,0.203    c-0.396,0.777-0.272,1.593-0.025,2.363c0.221,0.773,0.606,1.523,1.014,2.255c0.846,1.456,1.839,2.856,2.9,4.208    c2.158,2.674,4.237,5.5,6.729,7.995c2.495,2.474,5.194,4.774,8.149,6.685c1.472,0.959,3.008,1.832,4.635,2.458    c0.403,0.172,0.822,0.267,1.236,0.407c0.417,0.071,0.844,0.213,1.264,0.216c0.836,0.093,1.743,0.003,2.362-0.588L903.943,181.941z    "
         id="path284" /><path
         clip-path="url(#SVGID_32_)"
         fill="#CBA9E6"
         d="M912.156,151.098l-9.171-0.338l0.316,0.354h-0.176l-0.374-0.374    l-17.678,17.677l0.207,0.207l-3.116,3.116c-1.331-0.406-2.747-0.626-4.217-0.626c-7.732,0-14,6.044-14,13.5s6.268,13.5,14,13.5    c7.731,0,14-6.044,14-13.5c0-1.631-0.315-3.188-0.865-4.635l4.865-4.865l-1-1l2.531-2.533l0.957,0.957l12.68-12.678l0.348,0.387    l0.059-0.795l0.351-0.349l-0.3-0.3L912.156,151.098z"
         id="path286" /><path
         clip-path="url(#SVGID_32_)"
         fill="#6E177D"
         d="M903.198,149.49l-20.647,20.647c-1.377-0.417-2.839-0.647-4.353-0.647    c-8.638,0-15.567,7.298-14.964,16.064c0.511,7.396,6.502,13.39,13.9,13.899c8.765,0.604,16.063-6.327,16.063-14.963    c0-1.514-0.229-2.975-0.647-4.353l3.98-3.981v-3.333h3.334l13.333-13.333v-10H903.198z M911.531,158.8l-12.356,12.356h-2.644    h-1.666v1.667v2.643l-3.493,3.492l-0.707,0.707l0.291,0.956c0.382,1.259,0.575,2.561,0.575,3.869    c0,7.668-6.507,13.845-14.287,13.3c-6.568-0.46-11.889-5.781-12.347-12.348c-0.543-7.781,5.634-14.286,13.301-14.286    c1.308,0,2.609,0.194,3.868,0.577l0.955,0.289l0.706-0.706l20.16-20.16h7.644V158.8z"
         id="path288" /><path
         clip-path="url(#SVGID_32_)"
         fill="#6E177D"
         d="M874.744,184.572c1.842,0,3.333,1.492,3.333,3.333    c0,1.841-1.491,3.333-3.333,3.333s-3.334-1.492-3.334-3.333C871.41,186.064,872.902,184.572,874.744,184.572"
         id="path290" /><rect
         x="894.34"
         y="160.406"
         transform="matrix(-0.7071 0.7071 -0.7071 -0.7071 1652.8176 -362.1409)"
         clip-path="url(#SVGID_32_)"
         fill="#6E177D"
         width="14.142"
         height="1.667"
         id="rect292" /><path
         clip-path="url(#SVGID_32_)"
         fill="#9BC1FA"
         d="M909.156,149.098l-9.171-0.338l0.316,0.354h-0.176l-0.374-0.374    l-17.678,17.677l0.207,0.207l-3.116,3.116c-1.331-0.406-2.747-0.626-4.217-0.626c-7.732,0-14,6.044-14,13.5s6.268,13.5,14,13.5    c7.731,0,14-6.044,14-13.5c0-1.631-0.315-3.188-0.865-4.635l4.865-4.865l-1-1l2.531-2.533l0.957,0.957l12.68-12.678l0.348,0.387    l0.059-0.795l0.351-0.349l-0.3-0.3L909.156,149.098z"
         id="path294" /><path
         clip-path="url(#SVGID_32_)"
         fill="#000F5E"
         d="M900.198,147.49l-20.647,20.647c-1.377-0.417-2.839-0.647-4.353-0.647    c-8.638,0-15.567,7.298-14.964,16.064c0.511,7.396,6.502,13.39,13.9,13.899c8.765,0.605,16.063-6.327,16.063-14.963    c0-1.514-0.229-2.975-0.647-4.353l3.98-3.981v-3.333h3.334l13.333-13.333v-10H900.198z M908.531,156.8l-12.356,12.356h-2.644    h-1.666v1.667v2.643l-3.493,3.492l-0.707,0.707l0.291,0.956c0.382,1.259,0.575,2.561,0.575,3.869    c0,7.668-6.507,13.845-14.287,13.3c-6.568-0.46-11.889-5.781-12.347-12.348c-0.543-7.781,5.634-14.286,13.301-14.286    c1.308,0,2.609,0.194,3.868,0.577l0.955,0.289l0.706-0.706l20.16-20.16h7.644V156.8z"
         id="path296" /><path
         clip-path="url(#SVGID_32_)"
         fill="#000F5E"
         d="M871.744,182.572c1.842,0,3.333,1.492,3.333,3.333    c0,1.841-1.491,3.333-3.333,3.333s-3.334-1.492-3.334-3.333C868.41,184.064,869.902,182.572,871.744,182.572"
         id="path298" /><rect
         x="891.34"
         y="158.406"
         transform="matrix(-0.7071 0.7071 -0.7071 -0.7071 1646.2821 -363.4338)"
         clip-path="url(#SVGID_32_)"
         fill="#000F5E"
         width="14.142"
         height="1.667"
         id="rect300" /><path
         clip-path="url(#SVGID_32_)"
         fill="#EFC100"
         d="M875.235,155.535c0.63-0.774,1.681-1.009,2.599-1.021    c0.479-0.044,0.932,0.055,1.403,0.087c0.449,0.098,0.919,0.158,1.358,0.29c1.788,0.477,3.48,1.214,5.113,2.044    c3.232,1.726,6.214,3.864,9.02,6.215c1.389,1.193,2.766,2.409,4.072,3.714c1.297,1.315,2.489,2.745,3.488,4.325    c0.977,1.593,1.858,3.275,2.396,5.13c0.146,0.453,0.233,0.947,0.33,1.416c0.037,0.506,0.139,0.972,0.094,1.491    c-0.005,0.498-0.112,1.017-0.264,1.498c-0.12,0.241-0.242,0.47-0.363,0.686c-0.18,0.194-0.366,0.368-0.539,0.53l-0.222-0.203    c0.396-0.777,0.271-1.593,0.025-2.363c-0.222-0.774-0.606-1.523-1.013-2.255c-0.847-1.456-1.84-2.856-2.902-4.208    c-2.158-2.674-4.236-5.5-6.729-7.995c-2.494-2.474-5.194-4.774-8.149-6.685c-1.473-0.959-3.008-1.832-4.635-2.458    c-0.404-0.172-0.822-0.267-1.237-0.407c-0.417-0.071-0.843-0.213-1.264-0.216c-0.834-0.093-1.743-0.003-2.361,0.588    L875.235,155.535z"
         id="path302" /><path
         clip-path="url(#SVGID_32_)"
         fill="#FFFFFF"
         d="M911.698,191.113c0,3.313-2.464,6-5.5,6c-3.037,0-5.5-2.687-5.5-6    s2.463-6,5.5-6C909.234,185.113,911.698,187.8,911.698,191.113"
         id="path304" /><path
         clip-path="url(#SVGID_32_)"
         fill="#5AA700"
         d="M911.698,183.404c0-4.09-4.396-7.415-8.608-5.391    c-2.132,1.026-3.392,3.286-3.392,5.653v2.461c-1.594,1.808-2.393,4.333-1.812,7.035c0.656,3.054,3.146,5.491,6.212,6.086    c5.118,0.993,9.6-2.906,9.6-7.844c0-2.025-0.759-3.869-2-5.278V183.404z M901.698,183.404c0-2.88,3.412-5.281,6.271-3.239    c1.127,0.803,1.729,2.161,1.729,3.545v0.772c-1.179-0.682-2.541-1.078-3.999-1.078c-1.459,0-2.823,0.397-4.001,1.079V183.404z     M904.521,195.816l-3.707-3.707l1.414-1.413l2.293,2.293l5.293-5.293l1.414,1.413L904.521,195.816z"
         id="path306" /></g><polygon
       clip-path="url(#SVGID_2_)"
       fill="#FFFFFF"
       points="121.39,148 121.39,196 152.391,196 152.391,160 139.39,160 139.39,148     "
       id="polygon310" /><path
       clip-path="url(#SVGID_2_)"
       fill="#000F5E"
       d="M121.667,148.667h16.665v13.332h13.334v33.335h-29.999V148.667z M120,147   v49.999h33.333v-35v-1.666L140.001,147H120z"
       id="path312" /><rect
       x="126.667"
       y="167"
       clip-path="url(#SVGID_2_)"
       fill="#000F5E"
       width="20"
       height="1.667"
       id="rect314" /><rect
       x="126.667"
       y="170.334"
       clip-path="url(#SVGID_2_)"
       fill="#000F5E"
       width="20"
       height="1.667"
       id="rect316" /><rect
       x="126.667"
       y="173.667"
       clip-path="url(#SVGID_2_)"
       fill="#000F5E"
       width="10"
       height="1.667"
       id="rect318" /><g
       clip-path="url(#SVGID_2_)"
       id="g330"><defs
         id="defs321"><rect
           id="SVGID_33_"
           x="120"
           y="147"
           width="35.781"
           height="52.289" /></defs><clipPath
         id="SVGID_34_"><use
           xlink:href="#SVGID_33_"
           overflow="visible"
           id="use323" /></clipPath><path
         clip-path="url(#SVGID_34_)"
         fill="#FFFFFF"
         d="M153.391,191c0,3.313-2.463,6-5.5,6s-5.5-2.687-5.5-6s2.463-6,5.5-6    S153.391,187.687,153.391,191"
         id="path326" /><path
         clip-path="url(#SVGID_34_)"
         fill="#5AA700"
         d="M153.781,183.29c0-4.089-4.396-7.414-8.608-5.39    c-2.132,1.025-3.392,3.286-3.392,5.652v2.461c-1.593,1.808-2.392,4.333-1.811,7.035c0.656,3.055,3.145,5.492,6.212,6.087    c5.118,0.992,9.599-2.906,9.599-7.845c0-2.025-0.759-3.869-2-5.278V183.29z M143.781,183.29c0-2.879,3.412-5.28,6.272-3.239    c1.127,0.804,1.728,2.161,1.728,3.546v0.772c-1.178-0.682-2.541-1.079-3.999-1.079c-1.459,0-2.823,0.398-4.001,1.08V183.29z     M146.605,195.704l-3.707-3.707l1.414-1.414l2.293,2.293l5.293-5.293l1.414,1.414L146.605,195.704z"
         id="path328" /></g><g
       clip-path="url(#SVGID_2_)"
       id="g350"><defs
         id="defs333"><rect
           id="SVGID_35_"
           width="1000"
           height="400" /></defs><clipPath
         id="SVGID_36_"><use
           xlink:href="#SVGID_35_"
           overflow="visible"
           id="use335" /></clipPath><g
         opacity="0.15"
         clip-path="url(#SVGID_36_)"
         id="g348"><g
           id="g346"><defs
             id="defs339"><rect
               id="SVGID_37_"
               x="203"
               y="316"
               width="333"
               height="34" /></defs><clipPath
             id="SVGID_38_"><use
               xlink:href="#SVGID_37_"
               overflow="visible"
               id="use341" /></clipPath><path
             clip-path="url(#SVGID_38_)"
             fill="#B380E0"
             d="M536,350H203v-23.494c0-5.802,4.704-10.506,10.506-10.506h311.988      c5.802,0,10.506,4.704,10.506,10.506V350z"
             id="path344" /></g></g></g><polyline
       clip-path="url(#SVGID_2_)"
       fill="none"
       stroke="#B380E0"
       stroke-miterlimit="10"
       stroke-dasharray="1,1"
       points="   219,258.202 219,274 60,274 60,258.202  "
       id="polyline352" /><line
       clip-path="url(#SVGID_2_)"
       fill="none"
       stroke="#B380E0"
       stroke-miterlimit="10"
       x1="914"
       y1="263"
       x2="914"
       y2="263.5"
       id="line354" /><line
       clip-path="url(#SVGID_2_)"
       fill="none"
       stroke="#B380E0"
       stroke-miterlimit="10"
       stroke-dasharray="0.989,0.989"
       x1="914"
       y1="264.488"
       x2="914"
       y2="349.006"
       id="line356" /><polyline
       clip-path="url(#SVGID_2_)"
       fill="none"
       stroke="#B380E0"
       stroke-miterlimit="10"
       points="914,349.5 914,350 913.5,350     "
       id="polyline358" /><line
       clip-path="url(#SVGID_2_)"
       fill="none"
       stroke="#B380E0"
       stroke-miterlimit="10"
       stroke-dasharray="0.999,0.999"
       x1="912.501"
       y1="350"
       x2="138"
       y2="350"
       id="line360" /><polyline
       clip-path="url(#SVGID_2_)"
       fill="none"
       stroke="#B380E0"
       stroke-miterlimit="10"
       points="137.5,350 137,350    137.004,349.5  "
       id="polyline362" /><line
       clip-path="url(#SVGID_2_)"
       fill="none"
       stroke="#B380E0"
       stroke-miterlimit="10"
       stroke-dasharray="0.986,0.986"
       x1="137.012"
       y1="348.514"
       x2="137.437"
       y2="293.789"
       id="line364" /><line
       clip-path="url(#SVGID_2_)"
       fill="none"
       stroke="#B380E0"
       stroke-miterlimit="10"
       x1="137.44"
       y1="293.296"
       x2="137.444"
       y2="292.796"
       id="line366" /><polygon
       clip-path="url(#SVGID_2_)"
       fill="#B380E0"
       points="142.419,294.294 137.5,285.62 132.447,294.217  "
       id="polygon368" /><line
       clip-path="url(#SVGID_2_)"
       fill="none"
       stroke="#A71C71"
       stroke-miterlimit="10"
       x1="574.047"
       y1="189.5"
       x2="627.824"
       y2="189.5"
       id="line370" /><g
       clip-path="url(#SVGID_2_)"
       id="g388"><defs
         id="defs373"><rect
           id="SVGID_39_"
           width="1000"
           height="400" /></defs><clipPath
         id="SVGID_40_"><use
           xlink:href="#SVGID_39_"
           overflow="visible"
           id="use375" /></clipPath><path
         clip-path="url(#SVGID_40_)"
         fill="#FFFFFF"
         d="M574.26,193.26c-2.076,0-3.76-1.684-3.76-3.76c0-2.076,1.684-3.76,3.76-3.76    s3.76,1.684,3.76,3.76C578.02,191.576,576.336,193.26,574.26,193.26"
         id="path378" /><path
         clip-path="url(#SVGID_40_)"
         fill="#A71C71"
         d="M574.26,193.76c2.349,0,4.26-1.912,4.26-4.26c0-2.349-1.911-4.26-4.26-4.26    s-4.26,1.911-4.26,4.26C570,191.848,571.911,193.76,574.26,193.76S571.911,193.76,574.26,193.76 M574.26,186.24    c1.798,0,3.26,1.462,3.26,3.26c0,1.798-1.462,3.26-3.26,3.26s-3.26-1.462-3.26-3.26C571,187.702,572.462,186.24,574.26,186.24    S572.462,186.24,574.26,186.24"
         id="path380" /><polygon
         clip-path="url(#SVGID_40_)"
         fill="#A71C71"
         points="626.365,194.486 635,189.5 626.365,184.513   "
         id="polygon382" /><line
         clip-path="url(#SVGID_40_)"
         fill="none"
         stroke="#A71C71"
         stroke-miterlimit="10"
         x1="733"
         y1="189.5"
         x2="785.824"
         y2="189.5"
         id="line384" /><polygon
         clip-path="url(#SVGID_40_)"
         fill="#A71C71"
         points="784.365,194.486 793,189.5 784.365,184.513   "
         id="polygon386" /></g><g
       clip-path="url(#SVGID_2_)"
       id="g396"><text
         id="text394"
         x="223.8923"
         y="317.01483"
         transform="scale(0.93680947,1.0674529)"
         style="font-size:11.24171352px;stroke-width:0.93680948"><tspan
           x="223.8923"
           y="317.01483"
           font-size="11"
           id="tspan390"
           style="font-size:10.30490398px;font-family:IBMPlexSans;stroke-width:0.93680948">Le DEK  ritornano al servizio di dati e impacchettano i dati inattivi</tspan></text>
</g><g
       clip-path="url(#SVGID_2_)"
       id="g400"><text
         transform="matrix(1 0 0 1 864.584 220.8965)"
         font-family="'IBMPlexSans'"
         font-size="11"
         id="text398">DEK</text>
</g><g
       clip-path="url(#SVGID_2_)"
       id="g404"><text
         transform="matrix(1 0 0 1 861.5635 234.0967)"
         font-family="'IBMPlexSans'"
         font-size="11"
         id="text402">impacchettata</text>
</g><g
       clip-path="url(#SVGID_2_)"
       id="g408"><text
         transform="matrix(1 0 0 1 660.2852 220.8965)"
         font-family="'IBMPlexSans'"
         font-size="11"
         id="text406">Algoritmo</text>
</g><g
       clip-path="url(#SVGID_2_)"
       id="g412"><text
         transform="matrix(1 0 0 1 661.5791 234.0967)"
         font-family="'IBMPlexSans'"
         font-size="11"
         id="text410">AES</text>
</g><g
       clip-path="url(#SVGID_2_)"
       id="g416"><text
         transform="matrix(1 0 0 1 477.6924 221.8975)"
         font-family="'IBMPlexSans'"
         font-size="11"
         id="text414">DEK dal servizio</text>
</g><g
       clip-path="url(#SVGID_2_)"
       id="g420"><text
         transform="matrix(1 0 0 1 495.7104 235.0977)"
         font-family="'IBMPlexSans'"
         font-size="11"
         id="text418">di dati</text>
</g><g
       clip-path="url(#SVGID_2_)"
       id="g428"><text
         transform="translate(328.3232,221.8975)"
         id="text426"><tspan
           x="0"
           y="0"
           font-size="11"
           id="tspan422"
           style="font-size:11px;font-family:IBMPlexSans">Chiave root</tspan><tspan
           x="51.117001"
           y="0"
           font-size="11"
           id="tspan424"
           style="font-size:11px;font-family:IBMPlexSans"> </tspan></text>
</g><g
       clip-path="url(#SVGID_2_)"
       id="g448"><text
         transform="matrix(1 0 0 1 327.1353 235.0977)"
         id="text446"><tspan
           x="0"
           y="0"
           font-family="'IBMPlexSans'"
           font-size="11"
           id="tspan430">K</tspan><tspan
           x="5.698"
           y="0"
           font-family="'IBMPlexSans'"
           font-size="11"
           id="tspan432">e</tspan><tspan
           x="11.165"
           y="0"
           font-family="'IBMPlexSans'"
           font-size="11"
           id="tspan434">y </tspan><tspan
           x="18.678"
           y="0"
           font-family="'IBMPlexSans'"
           font-size="11"
           id="tspan436">P</tspan><tspan
           x="24.431"
           y="0"
           font-family="'IBMPlexSans'"
           font-size="11"
           id="tspan438">r</tspan><tspan
           x="27.984"
           y="0"
           font-family="'IBMPlexSans'"
           font-size="11"
           id="tspan440">o</tspan><tspan
           x="34.023"
           y="0"
           font-family="'IBMPlexSans'"
           font-size="11"
           id="tspan442">t</tspan><tspan
           x="37.62"
           y="0"
           font-family="'IBMPlexSans'"
           font-size="11"
           id="tspan444">ect</tspan></text>
</g><g
       clip-path="url(#SVGID_2_)"
       id="g468"><text
         transform="matrix(1 0 0 1 289.7173 107.3755)"
         id="text466"><tspan
           x="0"
           y="0"
           font-family="'IBMPlexSans-SemiBold'"
           font-size="12"
           id="tspan450">K</tspan><tspan
           x="6.216"
           y="0"
           font-family="'IBMPlexSans-SemiBold'"
           font-size="12"
           id="tspan452">e</tspan><tspan
           x="12.156"
           y="0"
           font-family="'IBMPlexSans-SemiBold'"
           font-size="12"
           id="tspan454">y </tspan><tspan
           x="20.352"
           y="0"
           font-family="'IBMPlexSans-SemiBold'"
           font-size="12"
           id="tspan456">P</tspan><tspan
           x="26.627"
           y="0"
           font-family="'IBMPlexSans-SemiBold'"
           font-size="12"
           id="tspan458">r</tspan><tspan
           x="30.503"
           y="0"
           font-family="'IBMPlexSans-SemiBold'"
           font-size="12"
           id="tspan460">o</tspan><tspan
           x="37.055"
           y="0"
           font-family="'IBMPlexSans-SemiBold'"
           font-size="12"
           id="tspan462">t</tspan><tspan
           x="40.979"
           y="0"
           font-family="'IBMPlexSans-SemiBold'"
           font-size="12"
           id="tspan464">ect</tspan></text>
</g><g
       clip-path="url(#SVGID_2_)"
       id="g472"><text
         transform="matrix(1 0 0 1 112.2676 221.8965)"
         font-family="'IBMPlexSans'"
         font-size="11"
         id="text470">Dati</text>
</g><g
       clip-path="url(#SVGID_2_)"
       id="g476"><text
         transform="matrix(1 0 0 1 109.4575 235.0957)"
         font-family="'IBMPlexSans'"
         font-size="11"
         id="text474">codificati</text>
</g><g
       clip-path="url(#SVGID_2_)"
       id="g480"><text
         transform="matrix(1 0 0 1 70.7173 107.3755)"
         font-family="'IBMPlexSans-SemiBold'"
         font-size="12"
         id="text478">Servizio dati di IBM Cloud </text>
</g><g
       clip-path="url(#SVGID_2_)"
       id="g484"><text
         transform="matrix(1 0 0 1 49 63)"
         fill="#272727"
         font-family="'IBMPlexSans-Bold'"
         font-size="16"
         id="text482">Impacchettamento delle chiavi</text>
</g></g></svg>
