<svg xmlns="http://www.w3.org/2000/svg" xmlns:xlink="http://www.w3.org/1999/xlink" width="1000" height="400"><defs><path id="a" d="M0 0h1000v400H0z"/></defs><clipPath id="b"><use xlink:href="#a" overflow="visible"/></clipPath><path clip-path="url(#b)" fill="#FFF" d="M48.5 83.5h200v200h-200z"/><path clip-path="url(#b)" fill="none" stroke="#D8D8D8" stroke-miterlimit="10" d="M248.5 282v1.5H247"/><path clip-path="url(#b)" fill="none" stroke="#D8D8D8" stroke-miterlimit="10" stroke-dasharray="3,2" d="M245 283.5H51"/><path clip-path="url(#b)" fill="none" stroke="#D8D8D8" stroke-miterlimit="10" d="M50 283.5h-1.5V282"/><path clip-path="url(#b)" fill="none" stroke="#D8D8D8" stroke-miterlimit="10" stroke-dasharray="3,2" d="M48.5 280V86"/><path clip-path="url(#b)" fill="none" stroke="#D8D8D8" stroke-miterlimit="10" d="M48.5 85v-1.5H50"/><path clip-path="url(#b)" fill="none" stroke="#D8D8D8" stroke-miterlimit="10" stroke-dasharray="3,2" d="M52 83.5h194"/><path clip-path="url(#b)" fill="none" stroke="#D8D8D8" stroke-miterlimit="10" d="M247 83.5h1.5V85"/><path clip-path="url(#b)" fill="none" stroke="#D8D8D8" stroke-miterlimit="10" stroke-dasharray="3,2" d="M248.5 87v194"/><path clip-path="url(#b)" fill="#FFF" d="M265.5 83.5h609v200h-609z"/><path clip-path="url(#b)" fill="none" stroke="#D8D8D8" stroke-miterlimit="10" d="M874.5 282v1.5H873"/><path clip-path="url(#b)" fill="none" stroke="#D8D8D8" stroke-miterlimit="10" stroke-dasharray="2.995,1.997" d="M871.003 283.5H267.999"/><path clip-path="url(#b)" fill="none" stroke="#D8D8D8" stroke-miterlimit="10" d="M267 283.5h-1.5V282"/><path clip-path="url(#b)" fill="none" stroke="#D8D8D8" stroke-miterlimit="10" stroke-dasharray="3,2" d="M265.5 280V86"/><path clip-path="url(#b)" fill="none" stroke="#D8D8D8" stroke-miterlimit="10" d="M265.5 85v-1.5h1.5"/><path clip-path="url(#b)" fill="none" stroke="#D8D8D8" stroke-miterlimit="10" stroke-dasharray="2.995,1.997" d="M268.997 83.5h603.005"/><path clip-path="url(#b)" fill="none" stroke="#D8D8D8" stroke-miterlimit="10" d="M873 83.5h1.5V85"/><path clip-path="url(#b)" fill="none" stroke="#D8D8D8" stroke-miterlimit="10" stroke-dasharray="3,2" d="M874.5 87v194"/><path clip-path="url(#b)" fill="#EDF5FF" d="M69.5 123.5h140v140h-140z"/><path clip-path="url(#b)" fill="none" stroke="#000F5E" stroke-miterlimit="10" d="M209.5 262v1.5H208"/><path clip-path="url(#b)" fill="none" stroke="#000F5E" stroke-miterlimit="10" stroke-dasharray="3,2" d="M206 263.5H72"/><path clip-path="url(#b)" fill="none" stroke="#000F5E" stroke-miterlimit="10" d="M71 263.5h-1.5V262"/><path clip-path="url(#b)" fill="none" stroke="#000F5E" stroke-miterlimit="10" stroke-dasharray="3,2" d="M69.5 260V126"/><path clip-path="url(#b)" fill="none" stroke="#000F5E" stroke-miterlimit="10" d="M69.5 125v-1.5H71"/><path clip-path="url(#b)" fill="none" stroke="#000F5E" stroke-miterlimit="10" stroke-dasharray="3,2" d="M73 123.5h134"/><path clip-path="url(#b)" fill="none" stroke="#000F5E" stroke-miterlimit="10" d="M208 123.5h1.5v1.5"/><path clip-path="url(#b)" fill="none" stroke="#000F5E" stroke-miterlimit="10" stroke-dasharray="3,2" d="M209.5 127v134"/><path clip-path="url(#b)" fill="#F8F4F2" d="M288.5 123.5h300v140h-300z"/><path clip-path="url(#b)" fill="none" stroke="#000F5E" stroke-miterlimit="10" d="M588.5 262v1.5H587"/><path clip-path="url(#b)" fill="none" stroke="#000F5E" stroke-miterlimit="10" stroke-dasharray="3,2" d="M585 263.5H291"/><path clip-path="url(#b)" fill="none" stroke="#000F5E" stroke-miterlimit="10" d="M290 263.5h-1.5V262"/><path clip-path="url(#b)" fill="none" stroke="#000F5E" stroke-miterlimit="10" stroke-dasharray="3,2" d="M288.5 260V126"/><path clip-path="url(#b)" fill="none" stroke="#000F5E" stroke-miterlimit="10" d="M288.5 125v-1.5h1.5"/><path clip-path="url(#b)" fill="none" stroke="#000F5E" stroke-miterlimit="10" stroke-dasharray="3,2" d="M292 123.5h294"/><path clip-path="url(#b)" fill="none" stroke="#000F5E" stroke-miterlimit="10" d="M587 123.5h1.5v1.5"/><path clip-path="url(#b)" fill="none" stroke="#000F5E" stroke-miterlimit="10" stroke-dasharray="3,2" d="M588.5 127v134"/><path clip-path="url(#b)" fill="#F4F4F4" d="M815.833 123h133.334v140H815.833z"/><path clip-path="url(#b)" fill="none" stroke="#000F5E" stroke-miterlimit="10" d="M947.667 123h1.5v1.5"/><path clip-path="url(#b)" fill="none" stroke="#000F5E" stroke-miterlimit="10" stroke-dasharray="3,2" d="M949.167 126.5v134"/><path clip-path="url(#b)" fill="none" stroke="#000F5E" stroke-miterlimit="10" d="M949.167 261.5v1.5h-1.5"/><path clip-path="url(#b)" fill="none" stroke="#000F5E" stroke-miterlimit="10" stroke-dasharray="2.962,1.975" d="M945.691 263H818.32"/><path clip-path="url(#b)" fill="none" stroke="#000F5E" stroke-miterlimit="10" d="M817.333 263h-1.5v-1.5"/><path clip-path="url(#b)" fill="none" stroke="#000F5E" stroke-miterlimit="10" stroke-dasharray="3,2" d="M815.833 259.5v-134"/><path clip-path="url(#b)" fill="none" stroke="#000F5E" stroke-miterlimit="10" d="M815.833 124.5V123h1.5"/><path clip-path="url(#b)" fill="none" stroke="#000F5E" stroke-miterlimit="10" stroke-dasharray="2.962,1.975" d="M819.309 123H946.68"/><g clip-path="url(#b)"><defs><path id="c" d="M324.443 162.493h64.482v30h-64.482z"/></defs><clipPath id="d"><use xlink:href="#c" overflow="visible"/></clipPath><g opacity=".65" clip-path="url(#d)"><defs><path id="e" d="M325.184 163.16h62v28h-62z"/></defs><clipPath id="f"><use xlink:href="#e" overflow="visible"/></clipPath><g clip-path="url(#f)"><defs><path id="g" d="M325.184 163.16h62v28h-62z"/></defs><clipPath id="h"><use xlink:href="#g" overflow="visible"/></clipPath><path clip-path="url(#h)" fill="#B380E0" d="M381.184 171.16H351.819c-2.249-4.726-7.053-8-12.635-8-7.732 0-14 6.268-14 14s6.268 14 14 14c5.582 0 10.386-3.274 12.635-8h7.365v-2h3v2h19l6-6-6-6z"/></g></g><path clip-path="url(#d)" fill="#6E177D" d="M381.854 170.421h-29.2a15.005 15.005 0 0 0-2.619-3.535c-6.107-6.106-16.169-5.847-21.94.779-4.869 5.59-4.869 14.065 0 19.657 5.771 6.625 15.833 6.885 21.94.777a14.929 14.929 0 0 0 2.619-3.536l5.63.001 2.357-2.357 2.357 2.357h18.856l7.071-7.071-7.071-7.072zm-.69 12.476l-17.475.001-1.869-1.869-1.179-1.179-1.179 1.179-1.868 1.868h-5.939l-.47.881a13.35 13.35 0 0 1-2.329 3.143c-5.422 5.422-14.391 5.189-19.507-.699-4.32-4.969-4.319-12.493.002-17.461 5.117-5.885 14.084-6.117 19.505-.696a13.302 13.302 0 0 1 2.329 3.143l.471.879h.998l28.51.001 5.404 5.405-5.404 5.404z"/><path clip-path="url(#d)" fill="#6E177D" d="M336.928 175.109a3.333 3.333 0 1 1-4.713 4.714 3.333 3.333 0 0 1 4.713-4.714M365.212 176.632h14.142v1.667h-14.142z"/></g><g clip-path="url(#b)"><defs><path id="i" d="M480.192 162.402h64.482v30.002h-64.482z"/></defs><clipPath id="j"><use xlink:href="#i" overflow="visible"/></clipPath><g opacity=".65" clip-path="url(#j)"><defs><path id="k" d="M480.935 163.069h62v28h-62z"/></defs><clipPath id="l"><use xlink:href="#k" overflow="visible"/></clipPath><g clip-path="url(#l)"><defs><path id="m" d="M480.935 163.069h62v28h-62z"/></defs><clipPath id="n"><use xlink:href="#m" overflow="visible"/></clipPath><path clip-path="url(#n)" fill="#69A6FF" d="M536.935 171.069h-29.364c-2.249-4.726-7.054-8-12.635-8-7.732 0-14 6.268-14 14s6.268 14 14 14c5.582 0 10.386-3.274 12.635-8h7.364v-2h3v2h19l6-6-6-6z"/></g></g></g><path clip-path="url(#b)" fill="#000F5E" d="M520.965 178.069h14.142v.139h-14.142zM516.395 179.759l1.31 1.31h-2.62z"/><path clip-path="url(#b)" fill="#000F5E" d="M520.965 176.538h14.141v1.67h-14.141z"/><g clip-path="url(#b)"><defs><path id="o" d="M480.192 162.402h64.482v30.002h-64.482z"/></defs><clipPath id="p"><use xlink:href="#o" overflow="visible"/></clipPath><path clip-path="url(#p)" fill="#000F5E" d="M492.675 175.019a3.314 3.314 0 0 1 0 4.71 3.332 3.332 0 0 1-4.71-4.71c1.3-1.3 3.41-1.3 4.71 0"/><path clip-path="url(#p)" fill="#000F5E" d="M485.105 168.668a13.139 13.139 0 0 0-3 6.221c1-6.7 6.59-11.821 13.33-11.821 5.731 0 10.63 3.701 12.58 8.93h-.61l-.47-.88a13.024 13.024 0 0 0-2.33-3.139c-5.42-5.43-14.39-5.19-19.5.689M507.744 182.809c-.028.09-.068.17-.108.26-2.17 4.73-6.812 8-12.201 8-3.769 0-7.179-1.6-9.629-4.191 5.2 5.151 13.62 5.131 18.799-.049.93-.92 1.71-1.98 2.33-3.14l.331-.62.139-.26h.339z"/><path clip-path="url(#p)" fill="#000F5E" d="M537.604 170.328h-29.199a15.028 15.028 0 0 0-2.62-3.529c-6.11-6.11-16.17-5.851-21.94.77-4.87 5.599-4.87 14.07 0 19.66 5.77 6.63 15.83 6.889 21.94.78a15.105 15.105 0 0 0 2.62-3.54h5.63l2.359-2.351 2.351 2.351h18.859l7.07-7.07-7.07-7.071zm-21.209 9.431l-1.31 1.31-.15.15-1.59 1.59h-5.939l-.141.26-.33.62a13.043 13.043 0 0 1-2.33 3.139c-5.18 5.181-13.6 5.201-18.8.05-.25-.239-.48-.489-.71-.75-2.72-3.14-3.73-7.3-3-11.189 0-.01 0-.031.01-.05.42-2.25 1.42-4.401 3-6.221 5.11-5.88 14.08-6.119 19.5-.689.931.92 1.71 1.979 2.33 3.139l.471.88h29.511l2.019 2.021 3.38 3.38-3.38 3.389-2.019 2.021h-17.481l-1.5-1.51-1.541-1.54z"/><path clip-path="url(#p)" fill="#000F5E" d="M492.675 179.729a3.332 3.332 0 0 1-4.71-4.71c1.3-1.3 3.41-1.3 4.71 0a3.314 3.314 0 0 1 0 4.71M520.964 176.538h14.14v1.67h-14.14z"/></g><path clip-path="url(#b)" fill="#000F5E" d="M424.5 191h15-15z"/><g clip-path="url(#b)"><defs><path id="q" d="M424.5 183.5h14.999v15H424.5z"/></defs><clipPath id="r"><use xlink:href="#q" overflow="visible"/></clipPath><path clip-path="url(#r)" fill="none" stroke="#000F5E" stroke-width="1.313" stroke-miterlimit="10" d="M424.5 191h15"/></g><path clip-path="url(#b)" fill="#000F5E" d="M432 198.5v-14.999V198.5z"/><g clip-path="url(#b)"><defs><path id="s" d="M424.5 183.5h14.999v15H424.5z"/></defs><clipPath id="t"><use xlink:href="#s" overflow="visible"/></clipPath><path clip-path="url(#t)" fill="none" stroke="#000F5E" stroke-width="1.313" stroke-miterlimit="10" d="M432 198.5v-15"/></g><g clip-path="url(#b)"><defs><path id="u" d="M660 160.999h50V198h-50z"/></defs><clipPath id="v"><use xlink:href="#u" overflow="visible"/></clipPath><path clip-path="url(#v)" fill="#6E177D" d="M693.433 187c0-.451-.045-.89-.113-1.323l2.681-2.344-2.277-3.739-3.196 1.044a8.438 8.438 0 0 0-2.617-1.547L687.2 176h-4.4l-.709 3.091a8.44 8.44 0 0 0-2.617 1.548l-3.196-1.045-2.278 3.739 2.68 2.345a8.595 8.595 0 0 0-.112 1.322c0 .451.045.889.112 1.321l-2.68 2.346 2.278 3.738 3.195-1.044a8.424 8.424 0 0 0 2.618 1.547L682.8 198h4.4l.708-3.092a8.407 8.407 0 0 0 2.617-1.547l3.195 1.044 2.279-3.738-2.681-2.345c.07-.433.115-.871.115-1.322M685 189.528a3.001 3.001 0 0 1 0-6 3.001 3.001 0 0 1 0 6"/><path clip-path="url(#v)" fill="#B380E0" d="M679.433 172c0-.451-.045-.89-.113-1.323l2.681-2.344-2.277-3.739-3.196 1.044a8.438 8.438 0 0 0-2.617-1.547L673.2 161h-4.4l-.709 3.091a8.44 8.44 0 0 0-2.617 1.548l-3.196-1.045-2.278 3.739 2.68 2.345a8.595 8.595 0 0 0-.112 1.322c0 .451.045.889.112 1.321l-2.68 2.346 2.278 3.738 3.195-1.044a8.424 8.424 0 0 0 2.618 1.547L668.8 183h4.4l.708-3.092a8.407 8.407 0 0 0 2.617-1.547l3.195 1.044 2.279-3.738-2.681-2.345c.07-.433.115-.871.115-1.322M671 174.528a3.001 3.001 0 0 1 0-6 3.001 3.001 0 0 1 0 6"/><path clip-path="url(#v)" fill="#8747B8" d="M707.433 172c0-.451-.045-.89-.113-1.323l2.681-2.344-2.277-3.739-3.196 1.044a8.438 8.438 0 0 0-2.617-1.547L701.2 161h-4.4l-.709 3.091a8.44 8.44 0 0 0-2.617 1.548l-3.196-1.045-2.278 3.739 2.68 2.345a8.595 8.595 0 0 0-.112 1.322c0 .451.045.889.112 1.321l-2.68 2.346 2.278 3.738 3.195-1.044a8.424 8.424 0 0 0 2.618 1.547L696.8 183h4.4l.708-3.092a8.407 8.407 0 0 0 2.617-1.547l3.195 1.044 2.279-3.738-2.681-2.345c.07-.433.115-.871.115-1.322M699 174.528a3.001 3.001 0 0 1 0-6 3.001 3.001 0 0 1 0 6"/></g><g clip-path="url(#b)"><defs><path id="w" d="M105 161h64.482v30.002H105z"/></defs><clipPath id="x"><use xlink:href="#w" overflow="visible"/></clipPath><g opacity=".65" clip-path="url(#x)"><defs><path id="y" d="M105.743 161.667h62v28h-62z"/></defs><clipPath id="z"><use xlink:href="#y" overflow="visible"/></clipPath><g clip-path="url(#z)"><defs><path id="A" d="M105.743 161.667h62v28h-62z"/></defs><clipPath id="B"><use xlink:href="#A" overflow="visible"/></clipPath><path clip-path="url(#B)" fill="#69A6FF" d="M161.743 169.667H132.378c-2.249-4.726-7.053-8-12.635-8-7.732 0-14 6.268-14 14s6.268 14 14 14c5.582 0 10.386-3.274 12.635-8h7.365v-2h3v2h19l6-6-6-6z"/></g></g></g><path clip-path="url(#b)" fill="#000F5E" d="M145.773 176.667h14.14v.139h-14.14zM141.203 178.357l1.31 1.31h-2.62z"/><path clip-path="url(#b)" fill="#000F5E" d="M145.773 175.136h14.14v1.67h-14.14z"/><g clip-path="url(#b)"><defs><path id="C" d="M105 161h64.482v30.002H105z"/></defs><clipPath id="D"><use xlink:href="#C" overflow="visible"/></clipPath><path clip-path="url(#D)" fill="#000F5E" d="M117.483 173.617a3.314 3.314 0 0 1 0 4.71 3.332 3.332 0 0 1-4.71-4.71c1.3-1.3 3.41-1.3 4.71 0"/><path clip-path="url(#D)" fill="#000F5E" d="M109.913 167.266a13.139 13.139 0 0 0-3 6.221c1-6.7 6.59-11.821 13.33-11.821 5.731 0 10.63 3.701 12.58 8.93h-.61l-.47-.88a13.05 13.05 0 0 0-2.33-3.139c-5.421-5.43-14.391-5.191-19.5.689M132.552 181.407c-.029.09-.069.17-.109.26-2.17 4.73-6.811 8-12.201 8-3.769 0-7.179-1.6-9.629-4.191 5.2 5.151 13.62 5.131 18.799-.049.93-.92 1.71-1.98 2.33-3.14l.331-.62.139-.26h.34z"/><path clip-path="url(#D)" fill="#000F5E" d="M162.413 168.926h-29.2a14.973 14.973 0 0 0-2.62-3.529c-6.11-6.11-16.17-5.851-21.94.77-4.87 5.599-4.87 14.07 0 19.66 5.77 6.63 15.83 6.889 21.94.78a15.05 15.05 0 0 0 2.62-3.54h5.63l2.36-2.351 2.35 2.351h18.86l7.07-7.07-7.07-7.071zm-21.21 9.431l-1.31 1.31-.15.15-1.59 1.59h-5.94l-.14.26-.33.62a13.07 13.07 0 0 1-2.33 3.139c-5.18 5.181-13.6 5.201-18.8.05-.25-.239-.48-.489-.71-.75-2.72-3.14-3.73-7.3-3-11.189 0-.01 0-.031.01-.05.42-2.25 1.42-4.401 3-6.221 5.11-5.88 14.08-6.119 19.5-.689.93.92 1.71 1.979 2.33 3.139l.47.88h29.511l2.019 2.021 3.38 3.38-3.38 3.389-2.019 2.021h-17.481l-1.5-1.51-1.54-1.54z"/><path clip-path="url(#D)" fill="#000F5E" d="M117.483 178.327a3.332 3.332 0 0 1-4.71-4.71c1.3-1.3 3.41-1.3 4.71 0a3.314 3.314 0 0 1 0 4.71M145.772 175.136h14.14v1.67h-14.14z"/></g><g clip-path="url(#b)"><defs><path id="E" d="M860.198 147.491h53.5v51.999h-53.5z"/></defs><clipPath id="F"><use xlink:href="#E" overflow="visible"/></clipPath><path clip-path="url(#F)" fill="#EFC100" d="M903.943 181.941c-.631.773-1.681 1.009-2.599 1.021-.479.044-.933-.055-1.404-.087-.448-.098-.919-.158-1.358-.29-1.788-.477-3.479-1.214-5.113-2.044-3.23-1.726-6.214-3.864-9.019-6.215-1.389-1.193-2.766-2.409-4.073-3.714-1.296-1.315-2.488-2.745-3.488-4.325-.976-1.593-1.858-3.275-2.396-5.13-.146-.453-.234-.947-.331-1.416-.036-.506-.139-.972-.092-1.491.004-.498.11-1.017.263-1.498.12-.241.241-.47.363-.686.18-.194.366-.368.538-.53l.223.203c-.396.777-.272 1.593-.025 2.363.221.773.606 1.523 1.014 2.255.846 1.456 1.839 2.856 2.9 4.208 2.158 2.674 4.237 5.5 6.729 7.995 2.495 2.474 5.194 4.774 8.149 6.685 1.472.959 3.008 1.832 4.635 2.458.403.172.822.267 1.236.407.417.071.844.213 1.264.216.836.093 1.743.003 2.362-.588l.222.203z"/><path clip-path="url(#F)" fill="#CBA9E6" d="M912.156 151.098l-9.171-.338.316.354h-.176l-.374-.374-17.678 17.677.207.207-3.116 3.116a14.432 14.432 0 0 0-4.217-.626c-7.732 0-14 6.044-14 13.5s6.268 13.5 14 13.5c7.731 0 14-6.044 14-13.5 0-1.631-.315-3.188-.865-4.635l4.865-4.865-1-1 2.531-2.533.957.957 12.68-12.678.348.387.059-.795.351-.349-.3-.3.583-7.705z"/><path clip-path="url(#F)" fill="#6E177D" d="M903.198 149.49l-20.647 20.647a15.002 15.002 0 0 0-4.353-.647c-8.638 0-15.567 7.298-14.964 16.064.511 7.396 6.502 13.39 13.9 13.899 8.765.604 16.063-6.327 16.063-14.963 0-1.514-.229-2.975-.647-4.353l3.98-3.981v-3.333h3.334l13.333-13.333v-10h-9.999zm8.333 9.31l-12.356 12.356H894.865v4.31l-3.493 3.492-.707.707.291.956c.382 1.259.575 2.561.575 3.869 0 7.668-6.507 13.845-14.287 13.3-6.568-.46-11.889-5.781-12.347-12.348-.543-7.781 5.634-14.286 13.301-14.286 1.308 0 2.609.194 3.868.577l.955.289.706-.706 20.16-20.16h7.644v7.644z"/><path clip-path="url(#F)" fill="#6E177D" d="M874.744 184.572a3.332 3.332 0 0 1 3.333 3.333 3.333 3.333 0 1 1-3.333-3.333"/><path transform="rotate(134.999 901.415 161.238)" clip-path="url(#F)" fill="#6E177D" d="M894.34 160.406h14.142v1.667H894.34z"/><path clip-path="url(#F)" fill="#9BC1FA" d="M909.156 149.098l-9.171-.338.316.354h-.176l-.374-.374-17.678 17.677.207.207-3.116 3.116a14.432 14.432 0 0 0-4.217-.626c-7.732 0-14 6.044-14 13.5s6.268 13.5 14 13.5c7.731 0 14-6.044 14-13.5 0-1.631-.315-3.188-.865-4.635l4.865-4.865-1-1 2.531-2.533.957.957 12.68-12.678.348.387.059-.795.351-.349-.3-.3.583-7.705z"/><path clip-path="url(#F)" fill="#000F5E" d="M900.198 147.49l-20.647 20.647a15.002 15.002 0 0 0-4.353-.647c-8.638 0-15.567 7.298-14.964 16.064.511 7.396 6.502 13.39 13.9 13.899 8.765.605 16.063-6.327 16.063-14.963 0-1.514-.229-2.975-.647-4.353l3.98-3.981v-3.333h3.334l13.333-13.333v-10h-9.999zm8.333 9.31l-12.356 12.356H891.865v4.31l-3.493 3.492-.707.707.291.956c.382 1.259.575 2.561.575 3.869 0 7.668-6.507 13.845-14.287 13.3-6.568-.46-11.889-5.781-12.347-12.348-.543-7.781 5.634-14.286 13.301-14.286 1.308 0 2.609.194 3.868.577l.955.289.706-.706 20.16-20.16h7.644v7.644z"/><path clip-path="url(#F)" fill="#000F5E" d="M871.744 182.572a3.332 3.332 0 0 1 3.333 3.333 3.333 3.333 0 1 1-3.333-3.333"/><path transform="rotate(134.999 898.415 159.238)" clip-path="url(#F)" fill="#000F5E" d="M891.34 158.406h14.142v1.667H891.34z"/><path clip-path="url(#F)" fill="#EFC100" d="M875.235 155.535c.63-.774 1.681-1.009 2.599-1.021.479-.044.932.055 1.403.087.449.098.919.158 1.358.29 1.788.477 3.48 1.214 5.113 2.044 3.232 1.726 6.214 3.864 9.02 6.215 1.389 1.193 2.766 2.409 4.072 3.714 1.297 1.315 2.489 2.745 3.488 4.325.977 1.593 1.858 3.275 2.396 5.13.146.453.233.947.33 1.416.037.506.139.972.094 1.491-.005.498-.112 1.017-.264 1.498-.12.241-.242.47-.363.686-.18.194-.366.368-.539.53l-.222-.203c.396-.777.271-1.593.025-2.363-.222-.774-.606-1.523-1.013-2.255-.847-1.456-1.84-2.856-2.902-4.208-2.158-2.674-4.236-5.5-6.729-7.995-2.494-2.474-5.194-4.774-8.149-6.685-1.473-.959-3.008-1.832-4.635-2.458-.404-.172-.822-.267-1.237-.407-.417-.071-.843-.213-1.264-.216-.834-.093-1.743-.003-2.361.588l-.22-.203z"/><path clip-path="url(#F)" fill="#FFF" d="M911.698 191.113c0 3.313-2.464 6-5.5 6-3.037 0-5.5-2.687-5.5-6s2.463-6 5.5-6c3.036 0 5.5 2.687 5.5 6"/><path clip-path="url(#F)" fill="#5AA700" d="M911.698 183.404c0-4.09-4.396-7.415-8.608-5.391-2.132 1.026-3.392 3.286-3.392 5.653v2.461c-1.594 1.808-2.393 4.333-1.812 7.035.656 3.054 3.146 5.491 6.212 6.086 5.118.993 9.6-2.906 9.6-7.844a7.958 7.958 0 0 0-2-5.278v-2.722zm-10 0c0-2.88 3.412-5.281 6.271-3.239 1.127.803 1.729 2.161 1.729 3.545v.772a7.956 7.956 0 0 0-8 .001v-1.079zm2.823 12.412l-3.707-3.707 1.414-1.413 2.293 2.293 5.293-5.293 1.414 1.413-6.707 6.707z"/></g><path clip-path="url(#b)" fill="#FFF" d="M121.39 148v48h31.001v-36H139.39v-12z"/><path clip-path="url(#b)" fill="#000F5E" d="M121.667 148.667h16.665v13.332h13.334v33.335h-29.999v-46.667zM120 147v49.999h33.333v-36.666L140.001 147H120z"/><path clip-path="url(#b)" fill="#000F5E" d="M126.667 167h20v1.667h-20zM126.667 170.334h20v1.667h-20zM126.667 173.667h10v1.667h-10z"/><g clip-path="url(#b)"><defs><path id="G" d="M120 147h35.781v52.289H120z"/></defs><clipPath id="H"><use xlink:href="#G" overflow="visible"/></clipPath><path clip-path="url(#H)" fill="#FFF" d="M153.391 191c0 3.313-2.463 6-5.5 6s-5.5-2.687-5.5-6 2.463-6 5.5-6 5.5 2.687 5.5 6"/><path clip-path="url(#H)" fill="#5AA700" d="M153.781 183.29c0-4.089-4.396-7.414-8.608-5.39-2.132 1.025-3.392 3.286-3.392 5.652v2.461c-1.593 1.808-2.392 4.333-1.811 7.035.656 3.055 3.145 5.492 6.212 6.087 5.118.992 9.599-2.906 9.599-7.845a7.958 7.958 0 0 0-2-5.278v-2.722zm-10 0c0-2.879 3.412-5.28 6.272-3.239 1.127.804 1.728 2.161 1.728 3.546v.772a7.954 7.954 0 0 0-8 .001v-1.08zm2.824 12.414l-3.707-3.707 1.414-1.414 2.293 2.293 5.293-5.293 1.414 1.414-6.707 6.707z"/></g><g clip-path="url(#b)"><defs><path id="I" d="M0 0h1000v400H0z"/></defs><clipPath id="J"><use xlink:href="#I" overflow="visible"/></clipPath><g opacity=".15" clip-path="url(#J)"><defs><path id="K" d="M203 316h333v34H203z"/></defs><clipPath id="L"><use xlink:href="#K" overflow="visible"/></clipPath><path clip-path="url(#L)" fill="#B380E0" d="M536 350H203v-23.494c0-5.802 4.704-10.506 10.506-10.506h311.988c5.802 0 10.506 4.704 10.506 10.506V350z"/></g></g><path clip-path="url(#b)" fill="none" stroke="#B380E0" stroke-miterlimit="10" stroke-dasharray="1,1" d="M219 258.202V274H60v-15.798"/><path clip-path="url(#b)" fill="none" stroke="#B380E0" stroke-miterlimit="10" d="M914 263v.5"/><path clip-path="url(#b)" fill="none" stroke="#B380E0" stroke-miterlimit="10" stroke-dasharray="0.989,0.989" d="M914 264.488v84.518"/><path clip-path="url(#b)" fill="none" stroke="#B380E0" stroke-miterlimit="10" d="M914 349.5v.5h-.5"/><path clip-path="url(#b)" fill="none" stroke="#B380E0" stroke-miterlimit="10" stroke-dasharray="0.999,0.999" d="M912.501 350H138"/><path clip-path="url(#b)" fill="none" stroke="#B380E0" stroke-miterlimit="10" d="M137.5 350h-.5l.004-.5"/><path clip-path="url(#b)" fill="none" stroke="#B380E0" stroke-miterlimit="10" stroke-dasharray="0.986,0.986" d="M137.012 348.514l.425-54.725"/><path clip-path="url(#b)" fill="none" stroke="#B380E0" stroke-miterlimit="10" d="M137.44 293.296l.004-.5"/><path clip-path="url(#b)" fill="#B380E0" d="M142.419 294.294l-4.919-8.674-5.053 8.597z"/><path clip-path="url(#b)" fill="none" stroke="#A71C71" stroke-miterlimit="10" d="M574.047 189.5h53.777"/><g clip-path="url(#b)"><defs><path id="M" d="M0 0h1000v400H0z"/></defs><clipPath id="N"><use xlink:href="#M" overflow="visible"/></clipPath><path clip-path="url(#N)" fill="#FFF" d="M574.26 193.26a3.76 3.76 0 1 1 .002-7.522 3.76 3.76 0 0 1-.002 7.522"/><path clip-path="url(#N)" fill="#A71C71" d="M574.26 193.76a4.265 4.265 0 0 0 4.26-4.26c0-2.349-1.911-4.26-4.26-4.26s-4.26 1.911-4.26 4.26c0 2.348 1.911 4.26 4.26 4.26s-2.349 0 0 0m0-7.52a3.263 3.263 0 0 1 3.26 3.26c0 1.798-1.462 3.26-3.26 3.26s-3.26-1.462-3.26-3.26c0-1.798 1.462-3.26 3.26-3.26s-1.798 0 0 0M626.365 194.486L635 189.5l-8.635-4.987z"/><path clip-path="url(#N)" fill="none" stroke="#A71C71" stroke-miterlimit="10" d="M733 189.5h52.824"/><path clip-path="url(#N)" fill="#A71C71" d="M784.365 194.486L793 189.5l-8.635-4.987z"/></g><g clip-path="url(#b)"><text x="223.892" y="317.015" transform="scale(.9368 1.06745)" font-size="11.242" stroke-width=".937"><tspan x="223.892" y="317.015" font-size="10.305" font-family="IBMPlexSans">Le DEK ritornano al servizio di dati e impacchettano i dati inattivi</tspan></text></g><g clip-path="url(#b)"><text transform="translate(864.584 220.897)" font-family="'IBMPlexSans'" font-size="11">DEK</text></g><g clip-path="url(#b)"><text transform="translate(861.563 234.097)" font-family="'IBMPlexSans'" font-size="11">impacchettata</text></g><g clip-path="url(#b)"><text transform="translate(660.285 220.897)" font-family="'IBMPlexSans'" font-size="11">Algoritmo</text></g><g clip-path="url(#b)"><text transform="translate(661.58 234.097)" font-family="'IBMPlexSans'" font-size="11">AES</text></g><g clip-path="url(#b)"><text transform="translate(477.692 221.898)" font-family="'IBMPlexSans'" font-size="11">DEK dal servizio</text></g><g clip-path="url(#b)"><text transform="translate(495.71 235.098)" font-family="'IBMPlexSans'" font-size="11">di dati</text></g><g clip-path="url(#b)"><text transform="translate(328.323 221.898)"><tspan x="0" y="0" font-size="11" font-family="IBMPlexSans">Chiave root</tspan><tspan x="51.117" y="0" font-size="11" font-family="IBMPlexSans"></tspan></text></g><g clip-path="url(#b)"><text transform="translate(327.135 235.098)"><tspan x="0" y="0" font-family="'IBMPlexSans'" font-size="11">K</tspan><tspan x="5.698" y="0" font-family="'IBMPlexSans'" font-size="11">e</tspan><tspan x="11.165" y="0" font-family="'IBMPlexSans'" font-size="11">y </tspan><tspan x="18.678" y="0" font-family="'IBMPlexSans'" font-size="11">P</tspan><tspan x="24.431" y="0" font-family="'IBMPlexSans'" font-size="11">r</tspan><tspan x="27.984" y="0" font-family="'IBMPlexSans'" font-size="11">o</tspan><tspan x="34.023" y="0" font-family="'IBMPlexSans'" font-size="11">t</tspan><tspan x="37.62" y="0" font-family="'IBMPlexSans'" font-size="11">ect</tspan></text></g><g clip-path="url(#b)"><text transform="translate(289.717 107.376)"><tspan x="0" y="0" font-family="'IBMPlexSans-SemiBold'" font-size="12">K</tspan><tspan x="6.216" y="0" font-family="'IBMPlexSans-SemiBold'" font-size="12">e</tspan><tspan x="12.156" y="0" font-family="'IBMPlexSans-SemiBold'" font-size="12">y </tspan><tspan x="20.352" y="0" font-family="'IBMPlexSans-SemiBold'" font-size="12">P</tspan><tspan x="26.627" y="0" font-family="'IBMPlexSans-SemiBold'" font-size="12">r</tspan><tspan x="30.503" y="0" font-family="'IBMPlexSans-SemiBold'" font-size="12">o</tspan><tspan x="37.055" y="0" font-family="'IBMPlexSans-SemiBold'" font-size="12">t</tspan><tspan x="40.979" y="0" font-family="'IBMPlexSans-SemiBold'" font-size="12">ect</tspan></text></g><g clip-path="url(#b)"><text transform="translate(112.268 221.897)" font-family="'IBMPlexSans'" font-size="11">Dati</text></g><g clip-path="url(#b)"><text transform="translate(109.457 235.096)" font-family="'IBMPlexSans'" font-size="11">codificati</text></g><g clip-path="url(#b)"><text transform="translate(70.717 107.376)" font-family="'IBMPlexSans-SemiBold'" font-size="12">Servizio dati di IBM Cloud</text></g><g clip-path="url(#b)"><text transform="translate(49 63)" fill="#272727" font-family="'IBMPlexSans-Bold'" font-size="16">Impacchettamento delle chiavi</text></g></svg>