<svg xmlns="http://www.w3.org/2000/svg" xmlns:xlink="http://www.w3.org/1999/xlink" viewBox="0 0 920 400"><style>.st0{fill:none;stroke:#7f50a0;stroke-width:2;stroke-miterlimit:10}.st4{fill:#7f50a0}.st5,.st7{fill:none;stroke:#1b5cab;stroke-miterlimit:10}.st5{stroke-linecap:round;stroke-width:4}.st7{stroke-width:2}.st8{fill:#1b5cab}.st10{fill:#eaeaea}.st11{fill:#0c4269}.st12{fill:#0baed1}.st13{fill:#88c540}.st14{fill:none}.st16{fill:#344fa2}.st22{clip-path:url(#SVGID_6_);fill:#632472}.st23{fill:#1f2159}.st24{font-family:&apos;IBMPlexSans-SemiBold&apos;}.st25{font-size:20px}.st26{font-family:&apos;IBMPlexSans&apos;}.st27{font-size:18px}</style><switch><g><g id="Visual_elements"><g id="XMLID_39_"><path class="st0" d="M302.1 306.5v.5"/><path fill="none" stroke="#7f50a0" stroke-width="2" stroke-miterlimit="10" stroke-dasharray="1.0149,1.0149" d="M302.1 308v48.2"/><path class="st0" d="M302.1 356.7v.5h-.9.5"/><path fill="none" stroke="#7f50a0" stroke-width="2" stroke-miterlimit="10" stroke-dasharray=".9983,.9983" d="M302.7 357.2h570.6"/><path class="st0" d="M873.8 357.2h.5v-.5"/><path fill="none" stroke="#7f50a0" stroke-width="2" stroke-miterlimit="10" stroke-dasharray="1.0052,1.0052" d="M874.3 355.7V183.3"/><path class="st0" d="M874.3 182.8v-.5"/><path class="st4" d="M295.6 308.4l6.5-11.2 6.5 11.2z"/></g><path class="st5" d="M150.3 181.1"/><path fill="none" stroke="#1b5cab" stroke-width="4" stroke-linecap="round" stroke-miterlimit="10" stroke-dasharray="0,16" d="M166.3 181.1h56"/><path class="st5" d="M230.3 181.1"/><path class="st7" d="M339.1 182.5h90.6"/><path class="st8" d="M427.8 189l11.3-6.5-11.3-6.5z"/><path class="st7" d="M560 182h90.6"/><path class="st8" d="M648.8 188.5L660 182l-11.2-6.4z"/><path class="st0" d="M782.3 182.9h.5"/><path fill="none" stroke="#7f50a0" stroke-width="2" stroke-miterlimit="10" stroke-dasharray="1.0075,1.0075" d="M783.8 182.9h88.1"/><path class="st0" d="M872.4 182.9h.5"/><path class="st4" d="M871 189.4l11.3-6.5-11.3-6.5z"/><g id="XMLID_222_"><g id="XMLID_60_"><circle id="XMLID_65_" class="st10" cx="82.2" cy="181.1" r="43.5"/></g></g><g id="XMLID_70_"><g id="XMLID_233_"><g id="XMLID_206_"><circle id="XMLID_207_" class="st10" cx="301.8" cy="181.1" r="43.5"/></g></g></g><g id="XMLID_241_"><g id="XMLID_239_"><g id="XMLID_18_"><circle id="XMLID_23_" class="st10" cx="522.2" cy="181.1" r="43.5"/></g></g></g><g id="XMLID_292_"><circle id="XMLID_293_" class="st10" cx="743.4" cy="181.1" r="43.5"/></g><g id="XMLID_170_"><g id="XMLID_186_"><g id="XMLID_200_"><path id="XMLID_202_" class="st11" d="M309 172.9c-.8.4-1.3 1.2-1.4 2l3.9 2.3-9.7 5.8-9.7-5.8 3.7-2.1c-.1-.8-.6-1.6-1.3-2l-7.4 4.1v16.3l14.8 8.4 14.8-8.8v-16l-7.7-4.2zm-8.6 25.5l-10.5-6.5v-13.4l10.5 6.5v13.4zm13.3-6.9l-10.5 6.8v-13.4l10.5-6.5v13.1z"/><path id="XMLID_201_" class="st11" d="M307.9 172.2l-2.7-1.5c-.1.8-.4 1.6-.9 2.2l2.2 1.3c.2-.8.7-1.5 1.4-2z"/></g><path id="XMLID_199_" class="st11" d="M299.1 170.4v.1c0 .8.4 1.5.9 2l1.8-1 1.5.8c.5-.4.8-1.1.8-1.8 0-.1 0-.4-.1-.5l-2.1-1.2-2.8 1.6z"/><path id="XMLID_198_" class="st11" d="M296.9 174.3l2.2-1.3c-.6-.6-.9-1.3-1.1-2l-2.3 1.3c.5.6 1 1.3 1.2 2z"/><circle id="XMLID_197_" class="st12" cx="301.6" cy="181.7" r="2.5"/><circle id="XMLID_196_" class="st13" cx="301.6" cy="159.4" r="2.5"/><g id="XMLID_194_"><circle id="XMLID_195_" class="st13" cx="310.1" cy="175.1" r="2.5"/></g><g id="XMLID_192_"><circle id="XMLID_193_" class="st13" cx="293.3" cy="175.1" r="2.5"/></g><circle id="XMLID_191_" class="st12" cx="310.1" cy="163.9" r="2.5"/><circle id="XMLID_190_" class="st12" cx="293.5" cy="164.2" r="2.5"/><path id="XMLID_189_" class="st14" d="M312.5 175.1c0-1.5-1-2.5-2.5-2.5v4.9c1.5.1 2.5-1.1 2.5-2.4z"/><path id="XMLID_188_" class="st14" d="M307.6 175.1c0 1.5 1 2.5 2.5 2.5v-4.9c-1.3 0-2.5 1-2.5 2.4z"/><path id="XMLID_187_" class="st13" d="M301.6 168.1c-1.3 0-2.5 1-2.5 2.5s1 2.5 2.5 2.5 2.5-1 2.5-2.5-1.1-2.5-2.5-2.5z"/></g></g><g id="XMLID_153_"><g id="XMLID_118_"><path fill="#c8dcf2" d="M497.9 177.8h48.5v12.8h-48.5z"/><path class="st16" d="M545.6 178.5v11.3h-47v-11.3h47m1.5-1.5h-50v14.3h50V177z"/></g><g id="XMLID_119_"><path id="XMLID_120_" class="st16" d="M519.9 182.9h21.5v2.9h-21.5z"/><circle id="XMLID_122_" class="st16" cx="514.6" cy="184.4" r="1.7"/><circle id="XMLID_128_" class="st16" cx="509.2" cy="184.4" r="1.7"/><circle id="XMLID_121_" class="st16" cx="503.8" cy="184.4" r="1.7"/></g><path fill="#77a0d4" d="M498.4 176.3l2.7-5.4h41.5l3.2 5.4z"/><path class="st16" d="M542.2 171.6l2.3 3.9h-44.9l2-3.9h40.6m.8-1.5h-42.4l-3.5 6.9h50l-4.1-6.9z"/></g><g id="Root_key"><defs><path id="SVGID_1_" d="M720.1 170.7h50V194h-50z"/></defs><clipPath id="SVGID_2_"><use xlink:href="#SVGID_1_" overflow="visible"/></clipPath><g clip-path="url(#SVGID_2_)"><defs><path id="SVGID_3_" d="M720.1 170.7h50V194h-50z"/></defs><clipPath id="SVGID_4_"><use xlink:href="#SVGID_3_" overflow="visible"/></clipPath><g clip-path="url(#SVGID_4_)"><defs><path id="SVGID_5_" d="M720.1 170.7h50V194h-50z"/></defs><clipPath id="SVGID_6_"><use xlink:href="#SVGID_5_" overflow="visible"/></clipPath><g opacity=".65" clip-path="url(#SVGID_6_)"><defs><path id="SVGID_7_" d="M720.7 171.2h48.1v21.7h-48.1z"/></defs><clipPath id="SVGID_8_"><use xlink:href="#SVGID_7_" overflow="visible"/></clipPath><path d="M764.1 177.4h-22.8c-1.7-3.7-5.5-6.2-9.8-6.2-6 0-10.9 4.9-10.9 10.9s4.9 10.9 10.9 10.9c4.3 0 8.1-2.5 9.8-6.2h5.7v-1.6H749.4v1.6h14.7l4.7-4.7-4.7-4.7z" clip-path="url(#SVGID_8_)" fill="#a27db8"/></g><path class="st22" d="M764.6 176.9H742c-.5-1-1.2-1.9-2-2.7-4.7-4.7-12.5-4.5-17 .6-3.8 4.3-3.8 10.9 0 15.2 4.5 5.1 12.3 5.3 17 .6.8-.8 1.5-1.8 2-2.7h4.4l1.8-1.8 1.8 1.8h14.6l5.5-5.5-5.5-5.5zm-.5 9.6h-13.6l-1.4-1.4-.9-.9-.9.9-1.4 1.4h-4.7l-.4.7c-.5.9-1.1 1.7-1.8 2.4-4.2 4.2-11.2 4-15.1-.5-3.3-3.9-3.3-9.7 0-13.5 4-4.6 10.9-4.7 15.1-.5.7.7 1.3 1.5 1.8 2.4l.4.7H764.1l4.2 4.2-4.2 4.1z"/><path class="st22" d="M729.8 180.5c1 1 1 2.6 0 3.7-1 1-2.6 1-3.7 0-1-1-1-2.6 0-3.7 1-1 2.7-1 3.7 0M751.7 181.7h11v1.3h-11z"/></g></g></g><g><path class="st23" d="M82.2 187.5c6.4 0 11.7-5.2 11.7-11.7 0-6.4-5.2-11.7-11.7-11.7s-11.7 5.2-11.7 11.7c0 6.5 5.3 11.7 11.7 11.7zm0-22.1c5.8 0 10.5 4.7 10.5 10.5s-4.7 10.5-10.5 10.5-10.5-4.7-10.5-10.5 4.7-10.5 10.5-10.5zm9.3 24.5H72.9c-2.6 0-4.7 2.1-4.7 4.7v4.7h28v-4.7c0-2.6-2.1-4.7-4.7-4.7z"/><path class="st23" d="M88.3 173.2l-1.6-1.7-6.2 6.2-2.7-2.7-1.6 1.7 4.3 4.3 7.8-7.8z"/></g><path id="XMLID_76_" class="st4" d="M874.2 366l6.5-12.3h-13z"/><path id="XMLID_99_" class="st4" d="M603.2 357.9l13 6.8V351z"/><path id="XMLID_32_" class="st23" d="M479.6 0H920v48.2H479.6z"/><path id="XMLID_271_" class="st8" d="M-.4 0h480v48.2H-.4z"/></g><g id="Text"><text id="IBM_Cloud_1_" transform="translate(39.07 94.502)" class="st24 st25">IBM Cloud</text><text id="XMLID_14_" transform="translate(480.428 266.034)"><tspan x="0" y="0" class="st26 st27">ハードウェア・</tspan><tspan x="-23.1" y="21.6" class="st26 st27">セキュリティー・モジュール</tspan></text><text id="XMLID_13_" transform="translate(257.893 266.034)" class="st26 st27">Key Protect</text><text id="XMLID_10_" transform="translate(55.968 266.034)" class="st26 st27">管理者</text><text id="XMLID_3_" transform="translate(498.778 94.503)" class="st24 st25">データ・センター</text><text id="XMLID_1_" transform="translate(700.715 266.034)"><tspan x="0" y="0" class="st26 st27">生成された</tspan><tspan x="28.5" y="21.6" class="st26 st27">鍵</tspan></text></g></g></switch></svg>