<svg xmlns="http://www.w3.org/2000/svg" xmlns:xlink="http://www.w3.org/1999/xlink" viewBox="0 0 870 171" id="svg2"><style id="style4">.st0{opacity:.5}.st1{fill:none;stroke:#a71c71;stroke-miterlimit:10;stroke-dasharray:1,1}.st2{fill:#a71c71}.st3,.st8{stroke-miterlimit:10}.st3{stroke-width:.25;fill:#edf5ff;stroke:#69a6ff}.st8{fill:none;stroke:#a71c71}.st14{clip-path:url(#SVGID_6_);fill:#6e177d}.st17{font-family:&apos;IBMPlexSans-SemiBold&apos;}.st18{font-size:12px}.st20{display:inline;fill:#272727}.st22{font-size:16px}</style><g id="Visual"><g class="st0" id="g7"><g id="g9"><path class="st1" id="line11" d="M300 94.5h391.3"/><g id="g13"><path class="st2" id="polygon15" d="M689.9 99.5l8.6-5-8.6-5z"/></g></g></g><g class="st0" id="g17"><g id="g19"><path class="st1" id="line21" d="M477.5 110.5h213.8"/><g id="g23"><path class="st2" id="polygon25" d="M689.9 115.5l8.6-5-8.6-5z"/></g></g></g><path class="st3" id="rect27" d="M339 40h140v80H339z"/><path class="st3" id="rect29" d="M159 40.1h140v80H159z"/><path class="st3" id="rect31" d="M519 40h140v80H519z"/><path class="st3" id="rect33" d="M699 40h140v80H699z"/><circle cx="184" cy="80" r="5" id="circle35" fill="#efc100"/><circle cx="364" cy="79" r="5" id="circle37" fill="#5aa700"/><circle cx="724" cy="79" r="5" id="circle39" fill="#e71d32"/><circle cx="544" cy="79" r="5" id="circle41" fill="#868c91"/><g id="g43"><path class="st2" id="line45" d="M118.5 79.5h40"/><g id="g47"><path class="st8" id="line49" d="M118.5 79.5h32.8"/><g id="g51"><path class="st2" id="polygon53" d="M149.9 84.5l8.6-5-8.6-5z"/></g></g></g><g id="g55"><path class="st2" id="line57" d="M299.5 79.5h40"/><g id="g59"><path class="st8" id="line61" d="M299.5 79.5h32.8"/><g id="g63"><path class="st2" id="polygon65" d="M330.9 84.5l8.6-5-8.6-5z"/></g></g></g><g id="g67"><path class="st2" id="line69" d="M479 78.5h40"/><g id="g71"><path class="st8" id="line73" d="M479 78.5h32.8"/><g id="g75"><path class="st2" id="polygon77" d="M510.4 83.5l8.6-5-8.6-5z"/></g></g></g><g id="g79"><g id="g81"><path class="st8" id="line83" d="M659 78.5h32.8"/><g id="g85"><path class="st2" id="polygon87" d="M690.4 83.5l8.6-5-8.6-5z"/></g></g></g><circle cx="79.9" cy="79.3" r="40" id="circle89" fill="#f8f4f2"/><g id="Root_key"><g id="g92"><defs id="defs94"><path id="SVGID_1_" d="M57.4 68.8h45v20.9h-45z"/></defs><clipPath id="SVGID_2_"><use xlink:href="#SVGID_1_" id="use98" overflow="visible"/></clipPath><g id="g100" clip-path="url(#SVGID_2_)"><defs id="defs102"><path id="SVGID_3_" d="M57.4 68.8h45v20.9h-45z"/></defs><clipPath id="SVGID_4_"><use xlink:href="#SVGID_3_" id="use106" overflow="visible"/></clipPath><g id="g108" clip-path="url(#SVGID_4_)"><defs id="defs110"><path id="SVGID_5_" d="M57.4 68.8h45v20.9h-45z"/></defs><clipPath id="SVGID_6_"><use xlink:href="#SVGID_5_" id="use114" overflow="visible"/></clipPath><g id="g116" clip-path="url(#SVGID_6_)" opacity=".65"><g id="g118"><defs id="defs120"><path id="SVGID_7_" d="M57.9 69.2h43.3v19.5H57.9z"/></defs><clipPath id="SVGID_8_"><use xlink:href="#SVGID_7_" id="use124" overflow="visible"/></clipPath><path d="M97 74.8H76.5c-1.6-3.3-4.9-5.6-8.8-5.6-5.4 0-9.8 4.4-9.8 9.8s4.4 9.8 9.8 9.8c3.9 0 7.2-2.3 8.8-5.6h5.1v-1.4H83.7v1.4H97l4.2-4.2-4.2-4.2z" id="path126" clip-path="url(#SVGID_8_)" fill="#b380e0"/></g></g><path class="st14" d="M97.4 74.3H77.1c-.5-.9-1.1-1.7-1.8-2.5-4.3-4.3-11.3-4.1-15.3.5-3.4 3.9-3.4 9.8 0 13.7 4 4.6 11 4.8 15.3.5.7-.7 1.4-1.6 1.8-2.5H81l1.6-1.6 1.6 1.6h13.2l4.9-4.9-4.9-4.8zM97 83H84.8l-1.3-1.3-.8-.8-.8.8-1.4 1.3h-4.1l-.4.6c-.4.8-1 1.5-1.6 2.2-3.8 3.8-10 3.6-13.6-.5-3-3.5-3-8.7 0-12.2 3.6-4.1 9.8-4.3 13.6-.5.6.6 1.2 1.4 1.6 2.2l.3.6H96.9l3.8 3.8L97 83z" id="path128" clip-path="url(#SVGID_6_)"/><path class="st14" d="M66.1 77.6c.9.9.9 2.4 0 3.3-.9.9-2.4.9-3.3 0-.9-.9-.9-2.4 0-3.3.9-.9 2.4-.9 3.3 0" id="path130" clip-path="url(#SVGID_6_)"/><path class="st14" id="rect132" clip-path="url(#SVGID_6_)" d="M85.8 78.6h9.9v1.2h-9.9z"/></g></g></g></g><circle cx="104" cy="106" r="6" id="circle134" fill="#fff"/><g id="g136"><path d="M104 96c-5.5 0-10 4.5-10 10s4.5 10 10 10 10-4.5 10-10-4.4-10-10-10zm4.5 10.9h-3.6v3.6h-1.8v-3.6h-3.6v-1.8h3.6v-3.6h1.8v3.6h3.6v1.8z" id="path138" fill="#6e177d"/></g></g><g id="Text"><text transform="translate(198.102 83.498)" class="st17 st18" id="text141" font-size="12" font-family="IBMPlexSans-SemiBold"><tspan style="-inkscape-font-specification:MS UI Gothic Bold" id="tspan5486" font-family="MS UI Gothic" font-weight="700">アクティブ化前</tspan></text><text transform="translate(378.18 82.498)" class="st17 st18" id="text143" font-size="12" font-family="IBMPlexSans-SemiBold"><tspan style="-inkscape-font-specification:MS UI Gothic Bold" id="tspan5484" font-family="MS UI Gothic" font-weight="700">アクティブ</tspan></text><text transform="translate(558.434 82.498)" class="st17 st18" id="text145" font-size="12" font-family="IBMPlexSans-SemiBold"><tspan style="-inkscape-font-specification:MS UI Gothic Bold" id="tspan5488" font-family="MS UI Gothic" font-weight="700">非アクティブ化</tspan></text><text transform="translate(738.6 82.498)" class="st17 st18" id="text147" font-size="12" font-family="IBMPlexSans-SemiBold"><tspan style="-inkscape-font-specification:MS UI Gothic Bold" id="tspan5490" font-family="MS UI Gothic" font-weight="700">破棄</tspan></text></g></svg>