<svg xmlns="http://www.w3.org/2000/svg" xmlns:xlink="http://www.w3.org/1999/xlink" viewBox="0 0 1000 400" id="svg2"><style id="style4">.st0{fill:#fff}.st1,.st2{stroke:#d8d8d8}.st1{fill:none;stroke-miterlimit:10}.st2{stroke-dasharray:3,2}.st2,.st3,.st5,.st6,.st9{fill:none;stroke-miterlimit:10}.st3{stroke-dasharray:2.9951,1.9967;stroke:#d8d8d8}.st5,.st6,.st9{stroke:#000f5e}.st6,.st9{stroke-dasharray:3,2}.st9{stroke-dasharray:2.9621,1.9747}.st14{clip-path:url(#SVGID_6_);fill:#6e177d}.st16,.st19,.st20{clip-path:url(#SVGID_12_)}.st19,.st20{fill:#000f5e}.st20{clip-path:url(#SVGID_18_)}.st22{clip-path:url(#SVGID_20_)}.st33,.st36,.st37{clip-path:url(#SVGID_32_)}.st36,.st37{fill:#000f5e}.st37{clip-path:url(#SVGID_38_)}.st39,.st41,.st43,.st47{clip-path:url(#SVGID_42_);fill:#efc100}.st41,.st43,.st47{fill:#6e177d}.st43,.st47{fill:#000f5e}.st47{clip-path:url(#SVGID_44_)}.st54,.st59{fill:none;stroke:#b380e0;stroke-miterlimit:10}.st59{stroke:#a71c71}.st60{fill:#a71c71}.st63{font-family:&apos;IBMPlexSans-SemiBold&apos;}.st64{font-size:12px}</style><g id="Visual"><g id="g7"><g id="g9"><path class="st0" id="rect11" d="M48.5 83.5h200v200h-200z"/><g id="g13"><path class="st1" id="polyline15" d="M248.5 282v1.5H247"/><path class="st2" id="line17" d="M245 283.5H51"/><path class="st1" id="polyline19" d="M50 283.5h-1.5V282"/><path class="st2" id="line21" d="M48.5 280V86"/><path class="st1" id="polyline23" d="M48.5 85v-1.5H50"/><path class="st2" id="line25" d="M52 83.5h194"/><path class="st1" id="polyline27" d="M247 83.5h1.5V85"/><path class="st2" id="line29" d="M248.5 87v194"/></g></g></g><g id="g31"><g id="g33"><path class="st0" id="rect35" d="M265.5 83.5h609v200h-609z"/><g id="g37"><path class="st1" id="polyline39" d="M874.5 282v1.5H873"/><path class="st3" id="line41" d="M871 283.5H268"/><path class="st1" id="polyline43" d="M267 283.5h-1.5V282"/><path class="st2" id="line45" d="M265.5 280V86"/><path class="st1" id="polyline47" d="M265.5 85v-1.5h1.5"/><path class="st3" id="line49" d="M269 83.5h603"/><path class="st1" id="polyline51" d="M873 83.5h1.5V85"/><path class="st2" id="line53" d="M874.5 87v194"/></g></g></g><g id="g55"><g id="g57"><path id="rect59" fill="#edf5ff" d="M69.5 123.5h140v140h-140z"/><g id="g61"><path class="st5" id="polyline63" d="M209.5 262v1.5H208"/><path class="st6" id="line65" d="M206 263.5H72"/><path class="st5" id="polyline67" d="M71 263.5h-1.5V262"/><path class="st6" id="line69" d="M69.5 260V126"/><path class="st5" id="polyline71" d="M69.5 125v-1.5H71"/><path class="st6" id="line73" d="M73 123.5h134"/><path class="st5" id="polyline75" d="M208 123.5h1.5v1.5"/><path class="st6" id="line77" d="M209.5 127v134"/></g></g></g><g id="g79"><g id="g81"><path id="rect83" fill="#f8f4f2" d="M288.5 123.5h300v140h-300z"/><g id="g85"><path class="st5" id="polyline87" d="M588.5 262v1.5H587"/><path class="st6" id="line89" d="M585 263.5H291"/><path class="st5" id="polyline91" d="M290 263.5h-1.5V262"/><path class="st6" id="line93" d="M288.5 260V126"/><path class="st5" id="polyline95" d="M288.5 125v-1.5h1.5"/><path class="st6" id="line97" d="M292 123.5h294"/><path class="st5" id="polyline99" d="M587 123.5h1.5v1.5"/><path class="st6" id="line101" d="M588.5 127v134"/></g></g></g><g id="g103"><g id="g105"><path id="rect107" fill="#f4f4f4" d="M815.8 123h133.3v140H815.8z"/><g id="g109"><path class="st5" id="polyline111" d="M947.7 123h1.5v1.5"/><path class="st6" id="line113" d="M949.2 126.5v134"/><path class="st5" id="polyline115" d="M949.2 261.5v1.5h-1.5"/><path class="st9" id="line117" d="M945.7 263H818.3"/><path class="st5" id="polyline119" d="M817.3 263h-1.5v-1.5"/><path class="st6" id="line121" d="M815.8 259.5v-134"/><path class="st5" id="polyline123" d="M815.8 124.5V123h1.5"/><path class="st9" id="line125" d="M819.3 123h127.4"/></g></g></g><g id="Artwork_23_1_"><g id="g128"><defs id="defs130"><path id="SVGID_1_" d="M324.4 162.5h64.5v30h-64.5z"/></defs><clipPath id="SVGID_2_"><use xlink:href="#SVGID_1_" id="use134" overflow="visible"/></clipPath><g id="g136" clip-path="url(#SVGID_2_)"><defs id="defs138"><path id="SVGID_3_" d="M324.4 162.5h64.5v30h-64.5z"/></defs><clipPath id="SVGID_4_"><use xlink:href="#SVGID_3_" id="use142" overflow="visible"/></clipPath><g id="g144" clip-path="url(#SVGID_4_)"><defs id="defs146"><path id="SVGID_5_" d="M324.4 162.5h64.5v30h-64.5z"/></defs><clipPath id="SVGID_6_"><use xlink:href="#SVGID_5_" id="use150" overflow="visible"/></clipPath><g id="g152" clip-path="url(#SVGID_6_)" opacity=".65"><g id="g154"><defs id="defs156"><path id="SVGID_7_" d="M325.2 163.2h62v28h-62z"/></defs><clipPath id="SVGID_8_"><use xlink:href="#SVGID_7_" id="use160" overflow="visible"/></clipPath><path d="M381.2 171.2h-29.4c-2.2-4.7-7.1-8-12.6-8-7.7 0-14 6.3-14 14s6.3 14 14 14c5.6 0 10.4-3.3 12.6-8h7.4v-2h3v2h19l6-6-6-6z" id="path162" clip-path="url(#SVGID_8_)" fill="#b380e0"/></g></g><path class="st14" d="M381.9 170.4h-29.2c-.7-1.3-1.5-2.5-2.6-3.5-6.1-6.1-16.2-5.8-21.9.8-4.9 5.6-4.9 14.1 0 19.7 5.8 6.6 15.8 6.9 21.9.8 1.1-1.1 1.9-2.3 2.6-3.5h5.6l2.4-2.4 2.4 2.4H382l7.1-7.1-7.2-7.2zm-.7 12.5h-17.5l-1.9-1.9-1.2-1.2-1.2 1.2-1.9 1.9h-5.9l-.5.9c-.6 1.2-1.4 2.2-2.3 3.1-5.4 5.4-14.4 5.2-19.5-.7-4.3-5-4.3-12.5 0-17.5 5.1-5.9 14.1-6.1 19.5-.7.9.9 1.7 2 2.3 3.1l.5.9h29.5l5.4 5.4-5.3 5.5z" id="path164" clip-path="url(#SVGID_6_)"/><path class="st14" d="M336.9 175.1c1.3 1.3 1.3 3.4 0 4.7a3.32 3.32 0 0 1-4.7 0 3.32 3.32 0 0 1 0-4.7c1.3-1.3 3.4-1.3 4.7 0" id="path166" clip-path="url(#SVGID_6_)"/><path class="st14" id="rect168" clip-path="url(#SVGID_6_)" d="M365.2 176.6h14.1v1.7h-14.1z"/></g></g></g></g><g id="Artwork_24_1_"><g id="g171"><defs id="defs173"><path id="SVGID_9_" d="M480.2 162.4h64.5v30h-64.5z"/></defs><clipPath id="SVGID_10_"><use xlink:href="#SVGID_9_" id="use177" overflow="visible"/></clipPath><g id="g179" clip-path="url(#SVGID_10_)"><defs id="defs181"><path id="SVGID_11_" d="M480.2 162.4h64.5v30h-64.5z"/></defs><clipPath id="SVGID_12_"><use xlink:href="#SVGID_11_" id="use185" overflow="visible"/></clipPath><g class="st16" id="g187" clip-path="url(#SVGID_12_)"><defs id="defs189"><path id="SVGID_13_" d="M480.2 162.4h64.5v30h-64.5z"/></defs><clipPath id="SVGID_14_"><use xlink:href="#SVGID_13_" id="use193" overflow="visible"/></clipPath><g id="g195" clip-path="url(#SVGID_14_)" opacity=".65"><g id="g197"><defs id="defs199"><path id="SVGID_15_" d="M480.9 163.1h62v28h-62z"/></defs><clipPath id="SVGID_16_"><use xlink:href="#SVGID_15_" id="use203" overflow="visible"/></clipPath><path d="M536.9 171.1h-29.4c-2.2-4.7-7.1-8-12.6-8-7.7 0-14 6.3-14 14s6.3 14 14 14c5.6 0 10.4-3.3 12.6-8h7.4v-2h3v2h19l6-6-6-6z" id="path205" clip-path="url(#SVGID_16_)" fill="#69a6ff"/></g></g></g><path class="st19" id="rect207" clip-path="url(#SVGID_12_)" d="M521 178.1h14.1v.1H521z"/><path class="st19" id="polygon209" clip-path="url(#SVGID_12_)" d="M516.4 179.8l1.3 1.3h-2.6z"/><path class="st19" id="rect211" clip-path="url(#SVGID_12_)" d="M521 176.5h14.1v1.7H521z"/><g class="st16" id="g213" clip-path="url(#SVGID_12_)"><defs id="defs215"><path id="SVGID_17_" d="M480.2 162.4h64.5v30h-64.5z"/></defs><clipPath id="SVGID_18_"><use xlink:href="#SVGID_17_" id="use219" overflow="visible"/></clipPath><path class="st20" d="M492.7 175c1.3 1.3 1.3 3.4 0 4.7a3.32 3.32 0 0 1-4.7 0 3.32 3.32 0 0 1 0-4.7c1.3-1.3 3.4-1.3 4.7 0" id="path221" clip-path="url(#SVGID_18_)"/><path class="st20" d="M485.1 168.7c-1.6 1.8-2.6 4-3 6.2 1-6.7 6.6-11.8 13.3-11.8 5.7 0 10.6 3.7 12.6 8.9h-.6l-.5-.9c-.6-1.2-1.4-2.2-2.3-3.1-5.4-5.5-14.4-5.2-19.5.7" id="path223" clip-path="url(#SVGID_18_)"/><path class="st20" d="M507.7 182.8c0 .1-.1.2-.1.3-2.2 4.7-6.8 8-12.2 8-3.8 0-7.2-1.6-9.6-4.2 5.2 5.2 13.6 5.1 18.8 0 .9-.9 1.7-2 2.3-3.1l.3-.6.1-.3h.4z" id="path225" clip-path="url(#SVGID_18_)"/><path class="st20" d="M537.6 170.3h-29.2c-.7-1.3-1.6-2.5-2.6-3.5-6.1-6.1-16.2-5.9-21.9.8-4.9 5.6-4.9 14.1 0 19.7 5.8 6.6 15.8 6.9 21.9.8 1.1-1.1 1.9-2.3 2.6-3.5h5.6l2.4-2.4 2.3 2.4h18.9l7.1-7.1-7.1-7.2zm-21.2 9.5l-1.3 1.3-.2.2-1.6 1.6h-5.9l-.1.3-.3.6c-.6 1.2-1.4 2.2-2.3 3.1-5.2 5.2-13.6 5.2-18.8.1-.2-.2-.5-.5-.7-.8-2.7-3.1-3.7-7.3-3-11.2v-.1c.4-2.2 1.4-4.4 3-6.2 5.1-5.9 14.1-6.1 19.5-.7.9.9 1.7 2 2.3 3.1l.5.9H537l2 2 3.4 3.4-3.4 3.4-2 2h-17.5l-1.5-1.5-1.6-1.5z" id="path227" clip-path="url(#SVGID_18_)"/><path class="st20" d="M492.7 179.7a3.32 3.32 0 0 1-4.7 0 3.32 3.32 0 0 1 0-4.7c1.3-1.3 3.4-1.3 4.7 0 1.3 1.3 1.3 3.4 0 4.7" id="path229" clip-path="url(#SVGID_18_)"/><path class="st20" id="rect231" clip-path="url(#SVGID_18_)" d="M521 176.5h14.1v1.7H521z"/></g></g></g></g><g id="Artwork_10_1_"><g id="g234"><defs id="defs236"><path id="SVGID_19_" d="M424.5 183.5h15v15h-15z"/></defs><clipPath id="SVGID_20_"><use xlink:href="#SVGID_19_" id="use240" overflow="visible"/></clipPath><g class="st22" id="g242" clip-path="url(#SVGID_20_)"><defs id="defs244"><path id="SVGID_21_" d="M424.5 183.5h15v15h-15z"/></defs><clipPath id="SVGID_22_"><use xlink:href="#SVGID_21_" id="use248" overflow="visible"/></clipPath><path id="line250" clip-path="url(#SVGID_22_)" fill="none" stroke="#000f5e" stroke-width="1.75" stroke-miterlimit="10" d="M424.5 191h15"/></g><g class="st22" id="g252" clip-path="url(#SVGID_20_)"><defs id="defs254"><path id="SVGID_23_" d="M424.5 183.5h15v15h-15z"/></defs><clipPath id="SVGID_24_"><use xlink:href="#SVGID_23_" id="use258" overflow="visible"/></clipPath><path id="line260" clip-path="url(#SVGID_24_)" fill="none" stroke="#000f5e" stroke-width="1.75" stroke-miterlimit="10" d="M432 198.5v-15"/></g></g></g><g id="Artwork_16"><g id="g263"><defs id="defs265"><path id="SVGID_25_" d="M660 161h50v37h-50z"/></defs><clipPath id="SVGID_26_"><use xlink:href="#SVGID_25_" id="use269" overflow="visible"/></clipPath><g id="g271" clip-path="url(#SVGID_26_)"><defs id="defs273"><path id="SVGID_27_" d="M660 161h50v37h-50z"/></defs><clipPath id="SVGID_28_"><use xlink:href="#SVGID_27_" id="use277" overflow="visible"/></clipPath><path d="M693.4 187c0-.5 0-.9-.1-1.3l2.7-2.3-2.3-3.7-3.2 1c-.8-.7-1.6-1.2-2.6-1.5l-.7-3.1h-4.4l-.7 3.1c-1 .4-1.9.9-2.6 1.5l-3.2-1-2.3 3.7 2.7 2.3c-.1.4-.1.9-.1 1.3 0 .5 0 .9.1 1.3l-2.7 2.3 2.3 3.7 3.2-1c.8.7 1.6 1.2 2.6 1.5l.7 3.1h4.4l.7-3.1c1-.4 1.9-.9 2.6-1.5l3.2 1 2.3-3.7-2.7-2.3c.1-.4.1-.8.1-1.3m-8.4 2.5c-1.7 0-3-1.3-3-3s1.3-3 3-3 3 1.3 3 3-1.3 3-3 3" id="path279" clip-path="url(#SVGID_28_)" fill="#6e177d"/><path d="M679.4 172c0-.5 0-.9-.1-1.3l2.7-2.3-2.3-3.7-3.2 1c-.8-.7-1.6-1.2-2.6-1.5l-.7-3.1h-4.4l-.7 3.1c-1 .4-1.9.9-2.6 1.5l-3.2-1-2.3 3.7 2.7 2.3c-.1.4-.1.9-.1 1.3 0 .5 0 .9.1 1.3l-2.7 2.3 2.3 3.7 3.2-1c.8.7 1.6 1.2 2.6 1.5l.7 3.1h4.4l.7-3.1c1-.4 1.9-.9 2.6-1.5l3.2 1 2.3-3.7-2.7-2.3c.1-.4.1-.8.1-1.3m-8.4 2.5c-1.7 0-3-1.3-3-3s1.3-3 3-3 3 1.3 3 3-1.3 3-3 3" id="path281" clip-path="url(#SVGID_28_)" fill="#b380e0"/><path d="M707.4 172c0-.5 0-.9-.1-1.3l2.7-2.3-2.3-3.7-3.2 1c-.8-.7-1.6-1.2-2.6-1.5l-.7-3.1h-4.4l-.7 3.1c-1 .4-1.9.9-2.6 1.5l-3.2-1-2.3 3.7 2.7 2.3c-.1.4-.1.9-.1 1.3 0 .5 0 .9.1 1.3l-2.7 2.3 2.3 3.7 3.2-1c.8.7 1.6 1.2 2.6 1.5l.7 3.1h4.4l.7-3.1c1-.4 1.9-.9 2.6-1.5l3.2 1 2.3-3.7-2.7-2.3c.1-.4.1-.8.1-1.3m-8.4 2.5c-1.7 0-3-1.3-3-3s1.3-3 3-3 3 1.3 3 3-1.3 3-3 3" id="path283" clip-path="url(#SVGID_28_)" fill="#8747b8"/></g></g></g><g id="Artwork_24_2_"><g id="g296"><defs id="defs298"><path id="SVGID_29_" d="M105 161h64.5v30H105z"/></defs><clipPath id="SVGID_30_"><use xlink:href="#SVGID_29_" id="use302" overflow="visible"/></clipPath><g id="g304" clip-path="url(#SVGID_30_)"><defs id="defs306"><path id="SVGID_31_" d="M105 161h64.5v30H105z"/></defs><clipPath id="SVGID_32_"><use xlink:href="#SVGID_31_" id="use310" overflow="visible"/></clipPath><g class="st33" id="g312" clip-path="url(#SVGID_32_)"><defs id="defs314"><path id="SVGID_33_" d="M105 161h64.5v30H105z"/></defs><clipPath id="SVGID_34_"><use xlink:href="#SVGID_33_" id="use318" overflow="visible"/></clipPath><g id="g320" clip-path="url(#SVGID_34_)" opacity=".65"><g id="g322"><defs id="defs324"><path id="SVGID_35_" d="M105.7 161.7h62v28h-62z"/></defs><clipPath id="SVGID_36_"><use xlink:href="#SVGID_35_" id="use328" overflow="visible"/></clipPath><path d="M161.7 169.7h-29.4c-2.2-4.7-7.1-8-12.6-8-7.7 0-14 6.3-14 14s6.3 14 14 14c5.6 0 10.4-3.3 12.6-8h7.4v-2h3v2h19l6-6-6-6z" id="path330" clip-path="url(#SVGID_36_)" fill="#69a6ff"/></g></g></g><path class="st36" id="rect332" clip-path="url(#SVGID_32_)" d="M145.8 176.7h14.1v.1h-14.1z"/><path class="st36" id="polygon334" clip-path="url(#SVGID_32_)" d="M141.2 178.4l1.3 1.3h-2.6z"/><path class="st36" id="rect336" clip-path="url(#SVGID_32_)" d="M145.8 175.1h14.1v1.7h-14.1z"/><g class="st33" id="g338" clip-path="url(#SVGID_32_)"><defs id="defs340"><path id="SVGID_37_" d="M105 161h64.5v30H105z"/></defs><clipPath id="SVGID_38_"><use xlink:href="#SVGID_37_" id="use344" overflow="visible"/></clipPath><path class="st37" d="M117.5 173.6c1.3 1.3 1.3 3.4 0 4.7a3.32 3.32 0 0 1-4.7 0 3.32 3.32 0 0 1 0-4.7c1.3-1.3 3.4-1.3 4.7 0" id="path346" clip-path="url(#SVGID_38_)"/><path class="st37" d="M109.9 167.3c-1.6 1.8-2.6 4-3 6.2 1-6.7 6.6-11.8 13.3-11.8 5.7 0 10.6 3.7 12.6 8.9h-.6l-.5-.9c-.6-1.2-1.4-2.2-2.3-3.1-5.4-5.5-14.4-5.2-19.5.7" id="path348" clip-path="url(#SVGID_38_)"/><path class="st37" d="M132.6 181.4c0 .1-.1.2-.1.3-2.2 4.7-6.8 8-12.2 8-3.8 0-7.2-1.6-9.6-4.2 5.2 5.2 13.6 5.1 18.8 0 .9-.9 1.7-2 2.3-3.1l.3-.6.1-.3h.4z" id="path350" clip-path="url(#SVGID_38_)"/><path class="st37" d="M162.4 168.9h-29.2c-.7-1.3-1.5-2.5-2.6-3.5-6.1-6.1-16.2-5.9-21.9.8-4.9 5.6-4.9 14.1 0 19.7 5.8 6.6 15.8 6.9 21.9.8 1.1-1.1 1.9-2.3 2.6-3.5h5.6l2.4-2.4 2.4 2.4h18.9l7.1-7.1-7.2-7.2zm-21.2 9.5l-1.3 1.3-.2.2-1.6 1.6h-5.9l-.1.3-.3.6c-.6 1.2-1.4 2.2-2.3 3.1-5.2 5.2-13.6 5.2-18.8.1-.2-.2-.5-.5-.7-.8-2.7-3.1-3.7-7.3-3-11.2v-.1c.4-2.2 1.4-4.4 3-6.2 5.1-5.9 14.1-6.1 19.5-.7.9.9 1.7 2 2.3 3.1l.5.9h29.5l2 2 3.4 3.4-3.4 3.4-2 2h-17.5l-1.5-1.5-1.6-1.5z" id="path352" clip-path="url(#SVGID_38_)"/><path class="st37" d="M117.5 178.3a3.32 3.32 0 0 1-4.7 0 3.32 3.32 0 0 1 0-4.7c1.3-1.3 3.4-1.3 4.7 0 1.3 1.3 1.3 3.4 0 4.7" id="path354" clip-path="url(#SVGID_38_)"/><path class="st37" id="rect356" clip-path="url(#SVGID_38_)" d="M145.8 175.1h14.1v1.7h-14.1z"/></g></g></g></g><g id="Artwork_27"><g id="g359"><defs id="defs361"><path id="SVGID_39_" d="M860.2 147.5h53.5v52h-53.5z"/></defs><clipPath id="SVGID_40_"><use xlink:href="#SVGID_39_" id="use365" overflow="visible"/></clipPath><g id="g367" clip-path="url(#SVGID_40_)"><defs id="defs369"><path id="SVGID_41_" d="M860.2 147.5h53.5v52h-53.5z"/></defs><clipPath id="SVGID_42_"><use xlink:href="#SVGID_41_" id="use373" overflow="visible"/></clipPath><path class="st39" d="M903.9 181.9c-.6.8-1.7 1-2.6 1-.5 0-.9-.1-1.4-.1-.4-.1-.9-.2-1.4-.3-1.8-.5-3.5-1.2-5.1-2-3.2-1.7-6.2-3.9-9-6.2-1.4-1.2-2.8-2.4-4.1-3.7-1.3-1.3-2.5-2.7-3.5-4.3-1-1.6-1.9-3.3-2.4-5.1-.1-.5-.2-.9-.3-1.4 0-.5-.1-1-.1-1.5s.1-1 .3-1.5c.1-.2.2-.5.4-.7l.5-.5.2.2c-.4.8-.3 1.6 0 2.4.2.8.6 1.5 1 2.3.8 1.5 1.8 2.9 2.9 4.2 2.2 2.7 4.2 5.5 6.7 8s5.2 4.8 8.1 6.7c1.5 1 3 1.8 4.6 2.5.4.2.8.3 1.2.4.4.1.8.2 1.3.2.8.1 1.7 0 2.4-.6h.3z" id="path375" clip-path="url(#SVGID_42_)"/><path d="M912.2 151.1l-9.2-.3.3.4h-.2l-.4-.4-17.7 17.7.2.2-3.1 3.1c-1.3-.4-2.7-.6-4.2-.6-7.7 0-14 6-14 13.5s6.3 13.5 14 13.5 14-6 14-13.5c0-1.6-.3-3.2-.9-4.6l4.9-4.9-1-1 2.5-2.5 1 1 12.7-12.7.3.4.1-.8.4-.3-.3-.3.6-7.9z" id="path377" clip-path="url(#SVGID_42_)" fill="#cba9e6"/><path class="st41" d="M903.2 149.5l-20.6 20.6c-1.4-.4-2.8-.6-4.4-.6-8.6 0-15.6 7.3-15 16.1.5 7.4 6.5 13.4 13.9 13.9 8.8.6 16.1-6.3 16.1-15 0-1.5-.2-3-.6-4.4l4-4v-3.3h3.3l13.3-13.3v-10h-10zm8.3 9.3l-12.4 12.4h-4.3v4.3l-3.5 3.5-.7.7.3 1c.4 1.3.6 2.6.6 3.9 0 7.7-6.5 13.8-14.3 13.3-6.6-.5-11.9-5.8-12.3-12.3-.5-7.8 5.6-14.3 13.3-14.3 1.3 0 2.6.2 3.9.6l1 .3.7-.7 20.2-20.2h7.6v7.5z" id="path379" clip-path="url(#SVGID_42_)"/><path class="st41" d="M874.7 184.6c1.8 0 3.3 1.5 3.3 3.3s-1.5 3.3-3.3 3.3c-1.8 0-3.3-1.5-3.3-3.3s1.5-3.3 3.3-3.3" id="path381" clip-path="url(#SVGID_42_)"/><path transform="rotate(-45.001 901.413 161.25)" class="st41" id="rect383" clip-path="url(#SVGID_42_)" d="M894.3 160.4h14.1v1.7h-14.1z"/><path d="M909.2 149.1l-9.2-.3.3.4h-.2l-.4-.4-17.7 17.7.2.2-3.1 3.1c-1.3-.4-2.7-.6-4.2-.6-7.7 0-14 6-14 13.5s6.3 13.5 14 13.5 14-6 14-13.5c0-1.6-.3-3.2-.9-4.6l4.9-4.9-1-1 2.5-2.5 1 1 12.7-12.7.3.4.1-.8.4-.3-.3-.3.6-7.9z" id="path385" clip-path="url(#SVGID_42_)" fill="#9bc1fa"/><path class="st43" d="M900.2 147.5l-20.6 20.6c-1.4-.4-2.8-.6-4.4-.6-8.6 0-15.6 7.3-15 16.1.5 7.4 6.5 13.4 13.9 13.9 8.8.6 16.1-6.3 16.1-15 0-1.5-.2-3-.6-4.4l4-4v-3.3h3.3l13.3-13.3v-10h-10zm8.3 9.3l-12.4 12.4h-4.3v4.3l-3.5 3.5-.7.7.3 1c.4 1.3.6 2.6.6 3.9 0 7.7-6.5 13.8-14.3 13.3-6.6-.5-11.9-5.8-12.3-12.3-.5-7.8 5.6-14.3 13.3-14.3 1.3 0 2.6.2 3.9.6l1 .3.7-.7 20.2-20.2h7.6v7.5z" id="path387" clip-path="url(#SVGID_42_)"/><path class="st43" d="M871.7 182.6c1.8 0 3.3 1.5 3.3 3.3s-1.5 3.3-3.3 3.3c-1.8 0-3.3-1.5-3.3-3.3s1.5-3.3 3.3-3.3" id="path389" clip-path="url(#SVGID_42_)"/><path transform="rotate(-45.001 898.413 159.25)" class="st43" id="rect391" clip-path="url(#SVGID_42_)" d="M891.3 158.4h14.1v1.7h-14.1z"/><path class="st39" d="M875.2 155.5c.6-.8 1.7-1 2.6-1 .5 0 .9.1 1.4.1.5.1.9.2 1.4.3 1.8.5 3.5 1.2 5.1 2 3.2 1.7 6.2 3.9 9 6.2 1.4 1.2 2.8 2.4 4.1 3.7 1.3 1.3 2.5 2.7 3.5 4.3 1 1.6 1.9 3.3 2.4 5.1.1.5.2.9.3 1.4 0 .5.1 1 .1 1.5s-.1 1-.3 1.5c-.1.2-.2.5-.4.7l-.5.5-.2-.2c.4-.8.3-1.6 0-2.4-.2-.8-.6-1.5-1-2.3-.8-1.5-1.8-2.9-2.9-4.2-2.2-2.7-4.2-5.5-6.7-8s-5.2-4.8-8.2-6.7c-1.5-1-3-1.8-4.6-2.5-.4-.2-.8-.3-1.2-.4-.4-.1-.8-.2-1.3-.2-.8-.1-1.7 0-2.4.6h-.2z" id="path393" clip-path="url(#SVGID_42_)"/><path d="M911.7 191.1c0 3.3-2.5 6-5.5 6s-5.5-2.7-5.5-6 2.5-6 5.5-6 5.5 2.7 5.5 6" id="path395" clip-path="url(#SVGID_42_)" fill="#fff"/><path d="M911.7 183.4c0-4.1-4.4-7.4-8.6-5.4-2.1 1-3.4 3.3-3.4 5.7v2.5c-1.6 1.8-2.4 4.3-1.8 7 .7 3.1 3.1 5.5 6.2 6.1 5.1 1 9.6-2.9 9.6-7.8 0-2-.8-3.9-2-5.3v-2.8zm-10 0c0-2.9 3.4-5.3 6.3-3.2 1.1.8 1.7 2.2 1.7 3.5v.8c-1.2-.7-2.5-1.1-4-1.1s-2.8.4-4 1.1v-1.1zm2.8 12.4l-3.7-3.7 1.4-1.4 2.3 2.3 5.3-5.3 1.4 1.4-6.7 6.7z" id="path397" clip-path="url(#SVGID_42_)" fill="#5aa700"/></g></g></g><g id="Artwork_12_2_"><g id="g400"><defs id="defs402"><path id="SVGID_43_" d="M120 147h35.8v52.3H120z"/></defs><clipPath id="SVGID_44_"><use xlink:href="#SVGID_43_" id="use406" overflow="visible"/></clipPath><path id="polygon408" clip-path="url(#SVGID_44_)" fill="#fff" d="M152.4 160v36h-31v-48h18v12z"/><path class="st47" d="M121.7 148.7h16.7V162h13.3v33.3h-30v-46.6zM120 147v50h33.3v-36.7L140 147h-20z" id="path410" clip-path="url(#SVGID_44_)"/><path class="st47" id="rect412" clip-path="url(#SVGID_44_)" d="M126.7 167h20v1.7h-20z"/><path class="st47" id="rect414" clip-path="url(#SVGID_44_)" d="M126.7 170.3h20v1.7h-20z"/><path class="st47" id="rect416" clip-path="url(#SVGID_44_)" d="M126.7 173.7h10v1.7h-10z"/><g id="g418" clip-path="url(#SVGID_44_)"><defs id="defs420"><path id="SVGID_45_" d="M120 147h35.8v52.3H120z"/></defs><clipPath id="SVGID_46_"><use xlink:href="#SVGID_45_" id="use424" overflow="visible"/></clipPath><path d="M153.4 191c0 3.3-2.5 6-5.5 6s-5.5-2.7-5.5-6 2.5-6 5.5-6 5.5 2.7 5.5 6" id="path426" clip-path="url(#SVGID_46_)" fill="#fff"/><path d="M153.8 183.3c0-4.1-4.4-7.4-8.6-5.4-2.1 1-3.4 3.3-3.4 5.7v2.5c-1.6 1.8-2.4 4.3-1.8 7 .7 3.1 3.1 5.5 6.2 6.1 5.1 1 9.6-2.9 9.6-7.8 0-2-.8-3.9-2-5.3v-2.8zm-10 0c0-2.9 3.4-5.3 6.3-3.2 1.1.8 1.7 2.2 1.7 3.5v.8c-1.2-.7-2.5-1.1-4-1.1s-2.8.4-4 1.1v-1.1zm2.8 12.4l-3.7-3.7 1.4-1.4 2.3 2.3 5.3-5.3 1.4 1.4-6.7 6.7z" id="path428" clip-path="url(#SVGID_46_)" fill="#5aa700"/></g></g></g><path d="M536 350H203v-23.5c0-5.8 4.7-10.5 10.5-10.5h312c5.8 0 10.5 4.7 10.5 10.5V350z" id="path430" opacity=".15" fill="#b380e0"/><path id="polyline432" fill="none" stroke="#b380e0" stroke-miterlimit="10" stroke-dasharray="1,1" d="M219 258.2V274H60v-15.8"/><g id="g434"><g id="g436"><path class="st54" id="line438" d="M914 263v.5"/><path id="line440" fill="none" stroke="#b380e0" stroke-miterlimit="10" stroke-dasharray=".9885,.9885" d="M914 264.5V349"/><path class="st54" id="polyline442" d="M914 349.5v.5h-.5"/><path id="line444" fill="none" stroke="#b380e0" stroke-miterlimit="10" stroke-dasharray=".9987,.9987" d="M912.5 350H138"/><path class="st54" id="polyline446" d="M137.5 350h-.5v-.5"/><path id="line448" fill="none" stroke="#b380e0" stroke-miterlimit="10" stroke-dasharray=".9861,.9861" d="M137 348.5l.4-54.7"/><path class="st54" id="line450" d="M137.4 293.3v-.5"/><g id="g452"><path id="polygon454" fill="#b380e0" d="M142.4 294.3l-4.9-8.7-5.1 8.6z"/></g></g></g><g id="g456"><g id="g458"><path class="st59" id="line460" d="M574 189.5h53.8"/><g id="g462"><g id="g464"><circle class="st0" cx="574.3" cy="189.5" r="3.8" id="circle466"/><path class="st60" d="M574.3 193.8c2.3 0 4.3-1.9 4.3-4.3s-1.9-4.3-4.3-4.3c-2.3 0-4.3 1.9-4.3 4.3s1.9 4.3 4.3 4.3c2.3 0-2.4 0 0 0zm0-7.6c1.8 0 3.3 1.5 3.3 3.3s-1.5 3.3-3.3 3.3c-1.8 0-3.3-1.5-3.3-3.3s1.5-3.3 3.3-3.3c1.8 0-1.8 0 0 0z" id="path468"/></g></g><g id="g470"><path class="st60" id="polygon472" d="M626.4 194.5l8.6-5-8.6-5z"/></g></g></g><g id="g474"><g id="g476"><path class="st59" id="line478" d="M733 189.5h52.8"/><g id="g480"><path class="st60" id="polygon482" d="M784.4 194.5l8.6-5-8.6-5z"/></g></g></g></g><g id="Text"><text id="text485" x="249.612" y="338.398" font-size="11" font-family="IBMPlexSans"><tspan style="-inkscape-font-specification:MS UI Gothic" id="tspan5890" font-weight="400" font-family="MS UI Gothic">DEK はデータ・サービスに戻り、保存中データをラップする</tspan></text><text transform="translate(289.717 107.376)" class="st63 st64" id="text511">Key Protect</text><text id="text513" x="106.268" y="221.896"><tspan style="-inkscape-font-specification:MS UI Gothic" id="tspan5858" font-weight="400" font-family="MS UI Gothic" font-size="12">暗号化データ</tspan></text><text transform="translate(70.717 107.376)" class="st63 st64" id="text519" font-size="12" font-family="IBMPlexSans-SemiBold"><tspan style="-inkscape-font-specification:Arial Bold" id="tspan5856" font-family="Arial" font-weight="700">IBM Cloud </tspan><tspan style="-inkscape-font-specification:Arial Bold" id="tspan5854" font-family="MS UI Gothic" font-weight="700">データ・サービス</tspan></text><text transform="translate(49 63)" id="text521" font-size="16" fill="#272727" font-family="IBMPlexSans-Bold"><tspan style="-inkscape-font-specification:MS UI Gothic Bold" id="tspan5852" font-weight="700" font-family="MS UI Gothic">鍵のラッピング</tspan></text></g><text style="text-align:center;line-height:125%;-inkscape-font-specification:MS UI Gothic" x="684.881" y="220.644" id="text5860" font-size="13.75" font-weight="400" letter-spacing="0" word-spacing="0" text-anchor="middle" font-family="MS UI Gothic"><tspan id="tspan5862" x="684.881" y="220.644" font-size="11">AES</tspan><tspan x="684.881" y="234.394" id="tspan5864" font-size="11">アルゴリズム</tspan></text><text style="text-align:center;line-height:125%;-inkscape-font-specification:MS UI Gothic" x="886.407" y="225.288" id="text5866" font-size="13.75" font-weight="400" letter-spacing="0" word-spacing="0" text-anchor="middle" font-family="MS UI Gothic"><tspan id="tspan5868" x="886.407" y="225.288" font-size="11">ラップされた</tspan><tspan x="886.407" y="239.038" id="tspan5870" font-size="11">DEK</tspan></text><text style="text-align:center;line-height:125%;-inkscape-font-specification:MS UI Gothic" x="511.864" y="222.034" id="text5874" font-size="13.75" font-weight="400" letter-spacing="0" word-spacing="0" text-anchor="middle" font-family="MS UI Gothic"><tspan id="tspan5876" x="511.864" y="222.034" font-size="12">データ・サービス</tspan><tspan x="511.864" y="237.034" id="tspan5878" font-size="12">からの DEK</tspan></text><text style="text-align:center;line-height:125%;-inkscape-font-specification:MS UI Gothic" x="351.424" y="219.119" id="text5884" font-size="13.75" font-weight="400" letter-spacing="0" word-spacing="0" text-anchor="middle" font-family="MS UI Gothic"><tspan id="tspan5886" x="351.424" y="219.119" font-size="11">Key Protect の</tspan><tspan x="351.424" y="232.869" id="tspan5888" font-size="11">ルート鍵</tspan></text></svg>