<?xml version="1.0" encoding="UTF-8" standalone="no"?>
<!-- Generator: Adobe Illustrator 21.1.0, SVG Export Plug-In . SVG Version: 6.00 Build 0)  -->

<svg
   xmlns:dc="http://purl.org/dc/elements/1.1/"
   xmlns:cc="http://creativecommons.org/ns#"
   xmlns:rdf="http://www.w3.org/1999/02/22-rdf-syntax-ns#"
   xmlns:svg="http://www.w3.org/2000/svg"
   xmlns="http://www.w3.org/2000/svg"
   xmlns:xlink="http://www.w3.org/1999/xlink"
   xmlns:sodipodi="http://sodipodi.sourceforge.net/DTD/sodipodi-0.dtd"
   xmlns:inkscape="http://www.inkscape.org/namespaces/inkscape"
   version="1.1"
   x="0px"
   y="0px"
   viewBox="0 0 920 400"
   style="enable-background:new 0 0 920 400;"
   xml:space="preserve"
   id="svg278"
   sodipodi:docname="stored-key.svg"
   inkscape:export-filename="F:\jordiserratosa\IBM\BM130\ABD081\S001\spa\SP\images\stored-key.png"
   inkscape:export-xdpi="400"
   inkscape:export-ydpi="400"
   inkscape:version="0.92.2 (5c3e80d, 2017-08-06)"><metadata
     id="metadata284"><rdf:RDF><cc:Work
         rdf:about=""><dc:format>image/svg+xml</dc:format><dc:type
           rdf:resource="http://purl.org/dc/dcmitype/StillImage" /><dc:title></dc:title></cc:Work></rdf:RDF></metadata><defs
     id="defs282" /><sodipodi:namedview
     pagecolor="#ffffff"
     bordercolor="#666666"
     borderopacity="1"
     objecttolerance="10"
     gridtolerance="10"
     guidetolerance="10"
     inkscape:pageopacity="1"
     inkscape:pageshadow="2"
     inkscape:window-width="1218"
     inkscape:window-height="1001"
     id="namedview280"
     showgrid="false"
     inkscape:zoom="1.0914039"
     inkscape:cx="252.52393"
     inkscape:cy="117.77161"
     inkscape:window-x="54"
     inkscape:window-y="-8"
     inkscape:window-maximized="1"
     inkscape:current-layer="Text" /><style
     type="text/css"
     id="style2">
	.st0{fill:none;stroke:#1B5CAB;stroke-width:2;stroke-miterlimit:10;}
	.st1{fill:#1B5CAB;}
	.st2{fill:none;stroke:#1B5CAB;stroke-width:4;stroke-linecap:round;stroke-miterlimit:10;}
	.st3{fill:none;stroke:#1B5CAB;stroke-width:4;stroke-linecap:round;stroke-miterlimit:10;stroke-dasharray:0,13.3333;}
	.st4{fill:none;stroke:#7F50A0;stroke-width:2;stroke-miterlimit:10;}
	.st5{fill:none;stroke:#7F50A0;stroke-width:2;stroke-miterlimit:10;stroke-dasharray:0.9994,0.9994;}
	.st6{fill:none;stroke:#7F50A0;stroke-width:2;stroke-miterlimit:10;stroke-dasharray:1.0057,1.0057;}
	.st7{fill:none;stroke:#7F50A0;stroke-width:2;stroke-miterlimit:10;stroke-dasharray:0.9847,0.9847;}
	.st8{fill:#7F50A0;}
	.st9{fill:#EAEAEA;}
	.st10{fill:#FFFFFF;}
	.st11{fill:#6D297C;}
	.st12{fill:#C8DCF2;}
	.st13{fill:#344FA2;}
	.st14{fill:#77A0D4;}
	.st15{clip-path:url(#SVGID_2_);}
	.st16{clip-path:url(#SVGID_4_);fill:#FAE9AB;}
	.st17{clip-path:url(#SVGID_4_);fill:#C2A02E;}
	.st18{clip-path:url(#SVGID_6_);}
	.st19{clip-path:url(#SVGID_8_);fill:#071438;}
	.st20{clip-path:url(#SVGID_8_);fill:#F9EBB0;}
	.st21{clip-path:url(#SVGID_8_);fill:#ECBF1D;}
	.st22{clip-path:url(#SVGID_8_);fill:#C5A7CF;}
	.st23{clip-path:url(#SVGID_8_);fill:#632472;}
	.st24{clip-path:url(#SVGID_8_);fill:#FFFFFF;}
	.st25{clip-path:url(#SVGID_8_);fill:#50A546;}
	.st26{fill:#0C4269;}
	.st27{fill:#0BAED1;}
	.st28{fill:#88C540;}
	.st29{fill:none;}
	.st30{clip-path:url(#SVGID_10_);}
	.st31{clip-path:url(#SVGID_12_);}
	.st32{opacity:0.65;clip-path:url(#SVGID_14_);}
	.st33{clip-path:url(#SVGID_16_);fill:#A27DB8;}
	.st34{clip-path:url(#SVGID_14_);fill:#632472;}
	.st35{fill:#1F2159;}
	.st36{font-family:'IBMPlexSans-SemiBold';}
	.st37{font-size:20px;}
	.st38{font-family:'IBMPlexSans';}
	.st39{font-size:18px;}
</style><g
     id="Visual_elements"><g
       id="g12"><g
         id="g10"><line
           class="st0"
           x1="585.2"
           y1="182.4"
           x2="625.9"
           y2="182.4"
           id="line4" /><g
           id="g8"><polygon
             class="st1"
             points="587.1,188.8 575.9,182.4 587.1,175.9     "
             id="polygon6" /></g></g></g><g
       id="g22"><g
         id="g20"><line
           class="st0"
           x1="731"
           y1="182.4"
           x2="771.7"
           y2="182.4"
           id="line14" /><g
           id="g18"><polygon
             class="st1"
             points="732.9,188.8 721.7,182.4 732.9,175.9     "
             id="polygon16" /></g></g></g><g
       id="g32"><g
         id="g30"><line
           class="st0"
           x1="270.2"
           y1="182.4"
           x2="310.9"
           y2="182.4"
           id="line24" /><g
           id="g28"><polygon
             class="st1"
             points="309,188.8 320.2,182.4 309,175.9     "
             id="polygon26" /></g></g></g><g
       id="g42"><g
         id="g40"><line
           class="st0"
           x1="416.3"
           y1="182.4"
           x2="457"
           y2="182.4"
           id="line34" /><g
           id="g38"><polygon
             class="st1"
             points="455.1,188.8 466.3,182.4 455.1,175.9     "
             id="polygon36" /></g></g></g><g
       id="g52"><g
         id="g50"><line
           class="st2"
           x1="134.5"
           y1="182.4"
           x2="134.5"
           y2="182.4"
           id="line44" /><line
           class="st3"
           x1="147.8"
           y1="182.4"
           x2="167.8"
           y2="182.4"
           id="line46" /><line
           class="st2"
           x1="174.5"
           y1="182.4"
           x2="174.5"
           y2="182.4"
           id="line48" /></g></g><g
       id="XMLID_39_"><g
         id="g72"><line
           class="st4"
           x1="373.2"
           y1="305.3"
           x2="373.2"
           y2="305.8"
           id="line54" /><line
           class="st5"
           x1="373.2"
           y1="306.8"
           x2="373.2"
           y2="356.3"
           id="line56" /><polyline
           class="st4"
           points="373.2,356.8 373.2,357.3 372.9,357.3 373.4,357.3    "
           id="polyline58" /><line
           class="st6"
           x1="374.5"
           y1="357.3"
           x2="522.8"
           y2="357.3"
           id="line60" /><polyline
           class="st4"
           points="523.3,357.3 523.8,357.3 523.8,356.8    "
           id="polyline62" /><polyline
           class="st7"
           points="523.8,355.8 523.8,354.7 523.8,305.1    "
           id="polyline64" /><line
           class="st4"
           x1="523.8"
           y1="304.6"
           x2="523.8"
           y2="304.1"
           id="line66" /><g
           id="g70"><polygon
             class="st8"
             points="366.7,307.2 373.2,296 379.6,307.2     "
             id="polygon68" /></g></g></g><polygon
       id="XMLID_76_"
       class="st8"
       points="523.8,339 530.3,326.6 523.8,326.6 517.3,326.6  " /><polygon
       id="XMLID_99_"
       class="st8"
       points="424.5,356.9 437.5,363.8 437.5,356.9 437.5,350.1  " /><g
       id="XMLID_222_"><g
         id="XMLID_60_"><circle
           id="XMLID_65_"
           class="st9"
           cx="82.4"
           cy="181.2"
           r="43.5" /></g></g><g
       id="XMLID_70_"><g
         id="XMLID_233_"><g
           id="XMLID_206_"><circle
             id="XMLID_207_"
             class="st9"
             cx="375.2"
             cy="181.2"
             r="43.5" /></g></g></g><g
       id="XMLID_241_"><g
         id="XMLID_239_"><g
           id="XMLID_18_"><circle
             id="XMLID_23_"
             class="st9"
             cx="814.4"
             cy="181.2"
             r="43.5" /></g></g></g><g
       id="XMLID_292_"><circle
         id="XMLID_293_"
         class="st9"
         cx="228.8"
         cy="181.2"
         r="43.5" /></g><g
       id="XMLID_6_"><circle
         id="XMLID_20_"
         class="st9"
         cx="668"
         cy="181.2"
         r="43.5" /></g><g
       id="XMLID_19_"><circle
         id="XMLID_33_"
         class="st9"
         cx="521.6"
         cy="181.2"
         r="43.5" /></g><circle
       class="st10"
       cx="262"
       cy="209"
       r="6"
       id="circle94" /><g
       id="g98"><path
         class="st11"
         d="M262,199c-5.5,0-10,4.5-10,10c0,5.5,4.5,10,10,10s10-4.5,10-10C272,203.5,267.6,199,262,199z M266.5,209.9    h-3.6v3.6h-1.8v-3.6h-3.6v-1.8h3.6v-3.6h1.8v3.6h3.6V209.9z"
         id="path96" /></g><g
       id="XMLID_153_"><g
         id="XMLID_118_"><rect
           x="790.1"
           y="177.8"
           class="st12"
           width="48.5"
           height="12.8"
           id="rect100" /><path
           class="st13"
           d="M837.8,178.6v11.3h-47v-11.3H837.8 M839.3,177.1h-50v14.3h50V177.1L839.3,177.1z"
           id="path102" /></g><g
         id="XMLID_119_"><rect
           id="XMLID_120_"
           x="812.1"
           y="182.9"
           class="st13"
           width="21.5"
           height="2.9" /><circle
           id="XMLID_122_"
           class="st13"
           cx="806.8"
           cy="184.4"
           r="1.7" /><circle
           id="XMLID_128_"
           class="st13"
           cx="801.4"
           cy="184.4"
           r="1.7" /><circle
           id="XMLID_121_"
           class="st13"
           cx="796"
           cy="184.4"
           r="1.7" /></g><g
         id="g114"><polygon
           class="st14"
           points="790.6,176.3 793.3,170.9 834.8,170.9 838,176.3    "
           id="polygon110" /><path
           class="st13"
           d="M834.4,171.6l2.3,3.9h-44.9l2-3.9H834.4 M835.3,170.1h-42.4l-3.5,6.9h50L835.3,170.1L835.3,170.1z"
           id="path112" /></g></g><g
       id="Artwork_40"><g
         id="g139"><defs
           id="defs118"><rect
             id="SVGID_1_"
             x="643"
             y="169.6"
             width="50"
             height="23.3" /></defs><clipPath
           id="SVGID_2_"><use
             xlink:href="#SVGID_1_"
             style="overflow:visible;"
             id="use120" /></clipPath><g
           class="st15"
           clip-path="url(#SVGID_2_)"
           id="g137"><defs
             id="defs124"><rect
               id="SVGID_3_"
               x="643"
               y="169.6"
               width="50"
               height="23.3" /></defs><clipPath
             id="SVGID_4_"><use
               xlink:href="#SVGID_3_"
               style="overflow:visible;"
               id="use126" /></clipPath><path
             class="st16"
             d="M687,176.3h-16.3h-6.5c-1.9-3.9-6-6.6-10.8-6.2c-5.3,0.5-9.6,4.9-9.8,10.3c-0.3,6.2,4.7,11.4,10.8,11.4      c4.3,0,8.1-2.5,9.8-6.2h5.7v-0.8h2.3v0.8H687l4.7-4.7L687,176.3z"
             clip-path="url(#SVGID_4_)"
             id="path129" /><path
             class="st17"
             d="M687.5,175.8h-22.6c-0.5-1-1.2-1.9-2-2.7c-4.7-4.7-12.5-4.5-17,0.6c-3.8,4.3-3.8,10.9,0,15.2      c4.5,5.1,12.3,5.3,17,0.6c0.8-0.8,1.5-1.8,2-2.7l4.4,0l1.8-1.8l1.8,1.8h14.6l5.5-5.5L687.5,175.8z M687,185.4l-13.6,0L672,184      l-0.9-0.9l-0.9,0.9l-1.4,1.4h-3.8h-0.8l-0.4,0.7c-0.5,0.9-1.1,1.7-1.8,2.4c-4.2,4.2-11.2,4-15.1-0.5c-3.3-3.9-3.3-9.7,0-13.5      c4-4.6,10.9-4.7,15.1-0.5c0.7,0.7,1.3,1.5,1.8,2.4l0.4,0.7h0.8l22.1,0l4.2,4.2L687,185.4z"
             clip-path="url(#SVGID_4_)"
             id="path131" /><path
             class="st17"
             d="M652.7,179.4c1,1,1,2.6,0,3.7c-1,1-2.6,1-3.7,0s-1-2.6,0-3.7C650,178.4,651.7,178.4,652.7,179.4"
             clip-path="url(#SVGID_4_)"
             id="path133" /><rect
             x="674.6"
             y="180.6"
             class="st17"
             width="11"
             height="1.3"
             clip-path="url(#SVGID_4_)"
             id="rect135" /></g></g></g><g
       id="Artwork_32"><g
         id="g180"><defs
           id="defs143"><rect
             id="SVGID_5_"
             x="498.5"
             y="158.7"
             width="46.3"
             height="45" /></defs><clipPath
           id="SVGID_6_"><use
             xlink:href="#SVGID_5_"
             style="overflow:visible;"
             id="use145" /></clipPath><g
           class="st18"
           clip-path="url(#SVGID_6_)"
           id="g178"><defs
             id="defs149"><rect
               id="SVGID_7_"
               x="498.5"
               y="158.7"
               width="46.3"
               height="45" /></defs><clipPath
             id="SVGID_8_"><use
               xlink:href="#SVGID_7_"
               style="overflow:visible;"
               id="use151" /></clipPath><path
             class="st19"
             d="M536.3,188.5c-0.6,0.6-1.4,0.9-2.2,0.9c-0.8,0-1.6-0.1-2.4-0.3c-1.5-0.4-3-1-4.4-1.8      c-2.8-1.5-5.4-3.3-7.8-5.4c-2.4-2.1-4.8-4.2-6.5-7c-0.8-1.4-1.6-2.8-2.1-4.4c-0.1-0.4-0.2-0.8-0.3-1.2c0-0.4-0.1-0.8-0.1-1.3      c0-0.4,0.1-0.9,0.2-1.3c0.1-0.2,0.2-0.4,0.3-0.6c0.2-0.2,0.3-0.3,0.5-0.5l0.2,0.2c-0.3,0.7-0.2,1.4,0,2c0.2,0.7,0.5,1.3,0.9,2      c0.7,1.3,1.6,2.5,2.5,3.6c1.9,2.3,3.7,4.8,5.8,6.9c2.2,2.1,4.5,4.1,7.1,5.8c1.3,0.8,2.6,1.6,4,2.1c0.7,0.3,1.4,0.5,2.2,0.5      c0.7,0.1,1.5,0,2-0.5L536.3,188.5z"
             clip-path="url(#SVGID_8_)"
             id="path154" /><path
             class="st20"
             d="M543.4,161.9l-7.9-0.3l0.3,0.3h-0.2l-0.3-0.3L520,176.8l0.2,0.2l-2.7,2.7c-1.2-0.4-2.4-0.5-3.6-0.5      c-6.7,0-12.1,5.2-12.1,11.7s5.4,11.7,12.1,11.7c6.7,0,12.1-5.2,12.1-11.7c0-1.4-0.3-2.8-0.7-4l4.2-4.2l-0.9-0.9l2.2-2.2l0.8,0.8      l11-11l0.3,0.3l0.1-0.7l0.3-0.3l-0.3-0.3L543.4,161.9z"
             clip-path="url(#SVGID_8_)"
             id="path156" /><path
             class="st21"
             d="M535.7,160.5l-17.9,17.9c-1.2-0.4-2.5-0.6-3.8-0.6c-7.5,0-13.5,6.3-12.9,13.9c0.4,6.4,5.6,11.6,12,12      c7.6,0.5,13.9-5.5,13.9-12.9c0-1.3-0.2-2.6-0.6-3.8l3.4-3.4v-2.9h2.9l11.5-11.5v-8.7H535.7z M542.9,168.5l-10.7,10.7h-2.3h-1.4      v1.4v2.3l-3,3l-0.6,0.6l0.3,0.8c0.3,1.1,0.5,2.2,0.5,3.3c0,6.6-5.6,12-12.4,11.5c-5.7-0.4-10.3-5-10.7-10.7      c-0.5-6.7,4.9-12.4,11.5-12.4c1.1,0,2.3,0.2,3.3,0.5l0.8,0.3l0.6-0.6l17.4-17.4h6.6V168.5z"
             clip-path="url(#SVGID_8_)"
             id="path158" /><path
             class="st21"
             d="M511.1,190.8c1.6,0,2.9,1.3,2.9,2.9s-1.3,2.9-2.9,2.9c-1.6,0-2.9-1.3-2.9-2.9S509.5,190.8,511.1,190.8"
             clip-path="url(#SVGID_8_)"
             id="path160" /><rect
             x="528"
             y="169.9"
             transform="matrix(0.7071 -0.7071 0.7071 0.7071 35.7863 427.6643)"
             class="st21"
             width="12.2"
             height="1.4"
             clip-path="url(#SVGID_8_)"
             id="rect162" /><path
             class="st22"
             d="M540.8,160.1l-7.9-0.3l0.3,0.3H533l-0.3-0.3l-15.3,15.3l0.2,0.2l-2.7,2.7c-1.2-0.4-2.4-0.5-3.6-0.5      c-6.7,0-12.1,5.2-12.1,11.7c0,6.5,5.4,11.7,12.1,11.7s12.1-5.2,12.1-11.7c0-1.4-0.3-2.8-0.7-4l4.2-4.2l-0.9-0.9l2.2-2.2l0.8,0.8      l11-11l0.3,0.3l0.1-0.7l0.3-0.3l-0.3-0.3L540.8,160.1z"
             clip-path="url(#SVGID_8_)"
             id="path164" /><path
             class="st23"
             d="M533.1,158.7l-17.9,17.9c-1.2-0.4-2.5-0.6-3.8-0.6c-7.5,0-13.5,6.3-12.9,13.9c0.4,6.4,5.6,11.6,12,12      c7.6,0.5,13.9-5.5,13.9-12.9c0-1.3-0.2-2.6-0.6-3.8l3.4-3.4v-2.9h2.9l11.5-11.5v-8.7H533.1z M540.3,166.8l-10.7,10.7h-2.3h-1.4      v1.4v2.3l-3,3l-0.6,0.6l0.3,0.8c0.3,1.1,0.5,2.2,0.5,3.3c0,6.6-5.6,12-12.4,11.5c-5.7-0.4-10.3-5-10.7-10.7      c-0.5-6.7,4.9-12.4,11.5-12.4c1.1,0,2.3,0.2,3.3,0.5l0.8,0.3l0.6-0.6l17.4-17.4h6.6V166.8z"
             clip-path="url(#SVGID_8_)"
             id="path166" /><path
             class="st23"
             d="M508.5,189.1c1.6,0,2.9,1.3,2.9,2.9s-1.3,2.9-2.9,2.9c-1.6,0-2.9-1.3-2.9-2.9S506.9,189.1,508.5,189.1"
             clip-path="url(#SVGID_8_)"
             id="path168" /><rect
             x="525.4"
             y="168.2"
             transform="matrix(0.7071 -0.7071 0.7071 0.7071 36.2498 425.3216)"
             class="st23"
             width="12.2"
             height="1.4"
             clip-path="url(#SVGID_8_)"
             id="rect170" /><path
             class="st19"
             d="M511.5,165.7c0.5-0.7,1.5-0.9,2.2-0.9c0.4,0,0.8,0,1.2,0.1c0.4,0.1,0.8,0.1,1.2,0.3c1.5,0.4,3,1.1,4.4,1.8      c2.8,1.5,5.4,3.3,7.8,5.4c1.2,1,2.4,2.1,3.5,3.2c1.1,1.1,2.2,2.4,3,3.7c0.8,1.4,1.6,2.8,2.1,4.4c0.1,0.4,0.2,0.8,0.3,1.2      c0,0.4,0.1,0.8,0.1,1.3c0,0.4-0.1,0.9-0.2,1.3c-0.1,0.2-0.2,0.4-0.3,0.6c-0.2,0.2-0.3,0.3-0.5,0.5l-0.2-0.2c0.3-0.7,0.2-1.4,0-2      c-0.2-0.7-0.5-1.3-0.9-2c-0.7-1.3-1.6-2.5-2.5-3.6c-1.9-2.3-3.7-4.8-5.8-6.9c-2.2-2.1-4.5-4.1-7.1-5.8c-1.3-0.8-2.6-1.6-4-2.1      c-0.3-0.1-0.7-0.2-1.1-0.4c-0.4-0.1-0.7-0.2-1.1-0.2c-0.7-0.1-1.5,0-2,0.5L511.5,165.7z"
             clip-path="url(#SVGID_8_)"
             id="path172" /><path
             class="st24"
             d="M543,196.5c0,2.9-2.1,5.2-4.8,5.2c-2.6,0-4.8-2.3-4.8-5.2s2.1-5.2,4.8-5.2      C540.9,191.3,543,193.6,543,196.5"
             clip-path="url(#SVGID_8_)"
             id="path174" /><path
             class="st25"
             d="M543,189.8c0-3.5-3.8-6.4-7.4-4.7c-1.8,0.9-2.9,2.8-2.9,4.9v2.1c-1.4,1.6-2.1,3.7-1.6,6.1      c0.6,2.6,2.7,4.8,5.4,5.3c4.4,0.9,8.3-2.5,8.3-6.8c0-1.8-0.7-3.3-1.7-4.6V189.8z M534.4,189.8c0-2.5,3-4.6,5.4-2.8      c1,0.7,1.5,1.9,1.5,3.1v0.7c-1-0.6-2.2-0.9-3.5-0.9c-1.3,0-2.4,0.3-3.5,0.9V189.8z M536.8,200.6l-3.2-3.2l1.2-1.2l2,2l4.6-4.6      l1.2,1.2L536.8,200.6z"
             clip-path="url(#SVGID_8_)"
             id="path176" /></g></g></g><g
       id="XMLID_170_"><g
         id="XMLID_186_"><g
           id="XMLID_200_"><path
             id="XMLID_202_"
             class="st26"
             d="M382.5,174.6c-0.8,0.4-1.3,1.2-1.4,2l3.9,2.2l-9.7,5.8l-9.7-5.8l3.7-2.1      c-0.1-0.8-0.6-1.6-1.3-2l-7.4,4.1v16.3l14.8,8.4l14.8-8.8v-16L382.5,174.6z M373.8,200.2l-10.5-6.5v-13.4l10.5,6.5V200.2z       M387.2,193.2l-10.5,6.8v-13.4l10.5-6.5V193.2z" /><path
             id="XMLID_201_"
             class="st26"
             d="M381.3,174l-2.7-1.5c-0.1,0.8-0.4,1.6-0.9,2.2l2.2,1.3C380.1,175.2,380.6,174.5,381.3,174      z" /></g><path
           id="XMLID_199_"
           class="st26"
           d="M372.5,172.2c0,0.1,0,0.1,0,0.1c0,0.8,0.4,1.5,0.9,2l1.8-1l1.5,0.8     c0.5-0.4,0.8-1.1,0.8-1.8c0-0.1,0-0.4-0.1-0.5l-2.1-1.2L372.5,172.2z" /><path
           id="XMLID_198_"
           class="st26"
           d="M370.3,176.1l2.2-1.3c-0.6-0.6-0.9-1.3-1.1-2l-2.3,1.3     C369.7,174.6,370.1,175.3,370.3,176.1z" /><circle
           id="XMLID_197_"
           class="st27"
           cx="375"
           cy="183.5"
           r="2.5" /><circle
           id="XMLID_196_"
           class="st28"
           cx="375"
           cy="161.1"
           r="2.5" /><g
           id="XMLID_194_"><circle
             id="XMLID_195_"
             class="st28"
             cx="383.5"
             cy="176.9"
             r="2.5" /></g><g
           id="XMLID_192_"><circle
             id="XMLID_193_"
             class="st28"
             cx="366.7"
             cy="176.9"
             r="2.5" /></g><circle
           id="XMLID_191_"
           class="st27"
           cx="383.5"
           cy="165.7"
           r="2.5" /><circle
           id="XMLID_190_"
           class="st27"
           cx="366.9"
           cy="166"
           r="2.5" /><path
           id="XMLID_189_"
           class="st29"
           d="M385.9,176.9c0-1.5-1-2.5-2.5-2.5v4.9C384.9,179.3,385.9,178.1,385.9,176.9z" /><path
           id="XMLID_188_"
           class="st29"
           d="M381,176.9c0,1.5,1,2.5,2.5,2.5v-4.9C382.2,174.5,381,175.5,381,176.9z" /><path
           id="XMLID_187_"
           class="st28"
           d="M375,169.8c-1.3,0-2.5,1-2.5,2.5s1,2.5,2.5,2.5s2.5-1,2.5-2.5S376.5,169.8,375,169.8z" /></g></g><g
       id="Root_key"><g
         id="g241"><defs
           id="defs202"><rect
             id="SVGID_9_"
             x="203.8"
             y="169.6"
             width="50"
             height="23.3" /></defs><clipPath
           id="SVGID_10_"><use
             xlink:href="#SVGID_9_"
             style="overflow:visible;"
             id="use204" /></clipPath><g
           class="st30"
           clip-path="url(#SVGID_10_)"
           id="g239"><defs
             id="defs208"><rect
               id="SVGID_11_"
               x="203.8"
               y="169.6"
               width="50"
               height="23.3" /></defs><clipPath
             id="SVGID_12_"><use
               xlink:href="#SVGID_11_"
               style="overflow:visible;"
               id="use210" /></clipPath><g
             class="st31"
             clip-path="url(#SVGID_12_)"
             id="g237"><defs
               id="defs214"><rect
                 id="SVGID_13_"
                 x="203.8"
                 y="169.6"
                 width="50"
                 height="23.3" /></defs><clipPath
               id="SVGID_14_"><use
                 xlink:href="#SVGID_13_"
                 style="overflow:visible;"
                 id="use216" /></clipPath><g
               class="st32"
               clip-path="url(#SVGID_14_)"
               id="g229"><g
                 id="g227"><defs
                   id="defs220"><rect
                     id="SVGID_15_"
                     x="204.4"
                     y="170.1"
                     width="48.1"
                     height="21.7" /></defs><clipPath
                   id="SVGID_16_"><use
                     xlink:href="#SVGID_15_"
                     style="overflow:visible;"
                     id="use222" /></clipPath><path
                   class="st33"
                   d="M247.8,176.3h-16.3H225c-1.7-3.7-5.5-6.2-9.8-6.2c-6,0-10.9,4.9-10.9,10.9c0,6,4.9,10.9,10.9,10.9         c4.3,0,8.1-2.5,9.8-6.2h5.7v-1.6h0.8h1.6v1.6h14.7l4.7-4.7L247.8,176.3z"
                   clip-path="url(#SVGID_16_)"
                   id="path225" /></g></g><path
               class="st34"
               d="M248.3,175.8h-22.6c-0.5-1-1.2-1.9-2-2.7c-4.7-4.7-12.5-4.5-17,0.6c-3.8,4.3-3.8,10.9,0,15.2       c4.5,5.1,12.3,5.3,17,0.6c0.8-0.8,1.5-1.8,2-2.7l4.4,0l1.8-1.8l1.8,1.8h14.6l5.5-5.5L248.3,175.8z M247.8,185.4l-13.6,0       l-1.4-1.4l-0.9-0.9L231,184l-1.4,1.4h-3.8h-0.8l-0.4,0.7c-0.5,0.9-1.1,1.7-1.8,2.4c-4.2,4.2-11.2,4-15.1-0.5       c-3.3-3.9-3.3-9.7,0-13.5c4-4.6,10.9-4.7,15.1-0.5c0.7,0.7,1.3,1.5,1.8,2.4l0.4,0.7h0.8l22.1,0l4.2,4.2L247.8,185.4z"
               clip-path="url(#SVGID_14_)"
               id="path231" /><path
               class="st34"
               d="M213.5,179.4c1,1,1,2.6,0,3.7c-1,1-2.6,1-3.7,0c-1-1-1-2.6,0-3.7C210.8,178.4,212.5,178.4,213.5,179.4"
               clip-path="url(#SVGID_14_)"
               id="path233" /><rect
               x="235.4"
               y="180.6"
               class="st34"
               width="11"
               height="1.3"
               clip-path="url(#SVGID_14_)"
               id="rect235" /></g></g></g></g><g
       id="g248"><path
         class="st35"
         d="M82.4,187.6c6.4,0,11.7-5.2,11.7-11.7c0-6.4-5.2-11.7-11.7-11.7s-11.7,5.2-11.7,11.7    C70.7,182.4,76,187.6,82.4,187.6z M82.4,165.4c5.8,0,10.5,4.7,10.5,10.5c0,5.8-4.7,10.5-10.5,10.5c-5.8,0-10.5-4.7-10.5-10.5    C71.9,170.1,76.6,165.4,82.4,165.4z M91.7,189.9H73.1c-2.6,0-4.7,2.1-4.7,4.7v4.7h28v-4.7C96.4,192,94.3,189.9,91.7,189.9z"
         id="path244" /><path
         class="st35"
         d="M88.5,173.2l-1.6-1.7l-6.2,6.2l-2.7-2.7l-1.6,1.7l4.3,4.3L88.5,173.2z"
         id="path246" /></g><rect
       id="XMLID_32_"
       x="479.8"
       y="0"
       class="st35"
       width="440.4"
       height="48.2" /><rect
       id="XMLID_271_"
       x="-0.2"
       y="0"
       class="st1"
       width="480"
       height="48.2" /></g><g
     id="Text"><text
       id="IBM_Cloud_1_"
       transform="matrix(1 0 0 1 39.2792 94.5442)"
       class="st36 st37"
       style="-inkscape-font-specification:'IBMPlexSans-SemiBold, Bold';font-family:IBMPlexSans-SemiBold;font-weight:bold;font-style:normal;font-stretch:normal;font-variant:normal;font-size:20px;text-anchor:start;text-align:start;writing-mode:lr;font-variant-ligatures:normal;font-variant-caps:normal;font-variant-numeric:normal;font-feature-settings:normal;">IBM Cloud</text>
<text
       id="XMLID_12_"
       style="font-style:normal;font-variant:normal;font-weight:normal;font-stretch:normal;font-size:18px;font-family:sans-serif;-inkscape-font-specification:'sans-serif, Normal';font-variant-ligatures:normal;font-variant-caps:normal;font-variant-numeric:normal;font-feature-settings:normal;text-align:center;writing-mode:lr-tb;text-anchor:middle"
       x="810.63757"
       y="266.0759"><tspan
         sodipodi:role="line"
         id="tspan1107"
         x="810.63757"
         y="266.0759">Módulo de</tspan><tspan
         sodipodi:role="line"
         id="tspan1109"
         x="810.63757"
         y="288.5759">seguridad</tspan><tspan
         sodipodi:role="line"
         id="tspan1111"
         x="810.63757"
         y="311.0759">de hardware</tspan></text>
<text
       id="XMLID_13_"
       transform="matrix(1 0 0 1 328.3687 266.0759)"
       class="st38 st39">Key Protect</text>
<text
       id="XMLID_11_"
       class="st38 st39"
       style="font-style:normal;font-variant:normal;font-weight:normal;font-stretch:normal;font-size:18px;font-family:IBMPlexSans;-inkscape-font-specification:'IBMPlexSans, Normal';font-variant-ligatures:normal;font-variant-caps:normal;font-variant-numeric:normal;font-feature-settings:normal;text-align:start;writing-mode:lr-tb;text-anchor:start"
       x="22.177601"
       y="266.0759"><tspan
         sodipodi:role="line"
         id="tspan1091"
         x="22.177601"
         y="266.0759">Administrador</tspan></text>
<text
       id="XMLID_10_"
       transform="matrix(1 0 0 1 498.9877 94.5444)"
       class="st36 st37"
       style="-inkscape-font-specification:'IBMPlexSans-SemiBold, Bold';font-family:IBMPlexSans-SemiBold;font-weight:bold;font-style:normal;font-stretch:normal;font-variant:normal;font-size:20px;text-anchor:start;text-align:start;writing-mode:lr;font-variant-ligatures:normal;font-variant-caps:normal;font-variant-numeric:normal;font-feature-settings:normal;"><tspan
         sodipodi:role="line"
         id="tspan1093">Centro de datos</tspan></text>
<text
       id="XMLID_5_"
       style="font-style:normal;font-variant:normal;font-weight:normal;font-stretch:normal;font-size:18px;font-family:sans-serif;-inkscape-font-specification:'sans-serif, Normal';font-variant-ligatures:normal;font-variant-caps:normal;font-variant-numeric:normal;font-feature-settings:normal;text-align:center;writing-mode:lr-tb;text-anchor:middle"
       x="224.97079"
       y="266.07571"><tspan
         sodipodi:role="line"
         id="tspan1095"
         x="224.97079"
         y="266.07571">Clave</tspan><tspan
         sodipodi:role="line"
         id="tspan1097"
         x="224.97079"
         y="288.57571">existente</tspan></text>
<text
       id="XMLID_16_"
       style="font-style:normal;font-variant:normal;font-weight:normal;font-stretch:normal;font-size:18px;font-family:sans-serif;-inkscape-font-specification:'sans-serif, Normal';font-variant-ligatures:normal;font-variant-caps:normal;font-variant-numeric:normal;font-feature-settings:normal;text-align:center;writing-mode:lr-tb;text-anchor:middle"
       x="514.88531"
       y="266.0755"><tspan
         sodipodi:role="line"
         id="tspan1099"
         x="514.88531"
         y="266.0755">Clave</tspan><tspan
         sodipodi:role="line"
         id="tspan1101"
         x="514.88531"
         y="288.5755">envuelta</tspan></text>
<text
       id="XMLID_2_"
       style="font-style:normal;font-variant:normal;font-weight:normal;font-stretch:normal;font-size:18px;font-family:sans-serif;-inkscape-font-specification:'sans-serif, Normal';font-variant-ligatures:normal;font-variant-caps:normal;font-variant-numeric:normal;font-feature-settings:normal;text-align:center;writing-mode:lr-tb;text-anchor:middle"
       x="669.34167"
       y="266.0755"><tspan
         sodipodi:role="line"
         id="tspan1103"
         x="669.34167"
         y="266.0755">Clave de</tspan><tspan
         sodipodi:role="line"
         id="tspan1105"
         x="669.34167"
         y="288.5755">proyecto</tspan></text>
</g></svg>
