<?xml version="1.0" encoding="UTF-8" standalone="no"?>
<!-- Generator: Adobe Illustrator 21.1.0, SVG Export Plug-In . SVG Version: 6.00 Build 0)  -->

<svg
   xmlns:dc="http://purl.org/dc/elements/1.1/"
   xmlns:cc="http://creativecommons.org/ns#"
   xmlns:rdf="http://www.w3.org/1999/02/22-rdf-syntax-ns#"
   xmlns:svg="http://www.w3.org/2000/svg"
   xmlns="http://www.w3.org/2000/svg"
   xmlns:xlink="http://www.w3.org/1999/xlink"
   xmlns:sodipodi="http://sodipodi.sourceforge.net/DTD/sodipodi-0.dtd"
   xmlns:inkscape="http://www.inkscape.org/namespaces/inkscape"
   version="1.1"
   x="0px"
   y="0px"
   viewBox="0 0 1000 400"
   style="enable-background:new 0 0 1000 400;"
   xml:space="preserve"
   id="svg521"
   sodipodi:docname="wrapping-keys.svg"
   inkscape:export-filename="F:\jordiserratosa\IBM\BM130\ABD081\S001\spa\SP\images\wrapping-keys.png"
   inkscape:export-xdpi="400"
   inkscape:export-ydpi="400"
   inkscape:version="0.92.2 (5c3e80d, 2017-08-06)"><metadata
     id="metadata527"><rdf:RDF><cc:Work
         rdf:about=""><dc:format>image/svg+xml</dc:format><dc:type
           rdf:resource="http://purl.org/dc/dcmitype/StillImage" /><dc:title /></cc:Work></rdf:RDF></metadata><defs
     id="defs525" /><sodipodi:namedview
     pagecolor="#ffffff"
     bordercolor="#666666"
     borderopacity="1"
     objecttolerance="10"
     gridtolerance="10"
     guidetolerance="10"
     inkscape:pageopacity="1"
     inkscape:pageshadow="2"
     inkscape:window-width="1618"
     inkscape:window-height="1027"
     id="namedview523"
     showgrid="false"
     inkscape:zoom="1.42"
     inkscape:cx="480.00047"
     inkscape:cy="196.14155"
     inkscape:window-x="54"
     inkscape:window-y="-8"
     inkscape:window-maximized="1"
     inkscape:current-layer="Text" /><style
     type="text/css"
     id="style2">
	.st0{fill:#FFFFFF;}
	.st1{fill:none;stroke:#D8D8D8;stroke-miterlimit:10;}
	.st2{fill:none;stroke:#D8D8D8;stroke-miterlimit:10;stroke-dasharray:3,2;}
	.st3{fill:none;stroke:#D8D8D8;stroke-miterlimit:10;stroke-dasharray:2.9951,1.9967;}
	.st4{fill:#EDF5FF;}
	.st5{fill:none;stroke:#000F5E;stroke-miterlimit:10;}
	.st6{fill:none;stroke:#000F5E;stroke-miterlimit:10;stroke-dasharray:3,2;}
	.st7{fill:#F8F4F2;}
	.st8{fill:#F4F4F4;}
	.st9{fill:none;stroke:#000F5E;stroke-miterlimit:10;stroke-dasharray:2.9621,1.9747;}
	.st10{clip-path:url(#SVGID_2_);}
	.st11{clip-path:url(#SVGID_4_);}
	.st12{opacity:0.65;clip-path:url(#SVGID_6_);}
	.st13{clip-path:url(#SVGID_8_);fill:#B380E0;}
	.st14{clip-path:url(#SVGID_6_);fill:#6E177D;}
	.st15{clip-path:url(#SVGID_10_);}
	.st16{clip-path:url(#SVGID_12_);}
	.st17{opacity:0.65;clip-path:url(#SVGID_14_);}
	.st18{clip-path:url(#SVGID_16_);fill:#69A6FF;}
	.st19{clip-path:url(#SVGID_12_);fill:#000F5E;}
	.st20{clip-path:url(#SVGID_18_);fill:#000F5E;}
	.st21{clip-path:url(#SVGID_20_);fill:#000F5E;}
	.st22{clip-path:url(#SVGID_20_);}
	.st23{clip-path:url(#SVGID_22_);fill:none;stroke:#000F5E;stroke-width:1.75;stroke-miterlimit:10;}
	.st24{clip-path:url(#SVGID_24_);fill:none;stroke:#000F5E;stroke-width:1.75;stroke-miterlimit:10;}
	.st25{clip-path:url(#SVGID_26_);}
	.st26{clip-path:url(#SVGID_28_);fill:#6E177D;}
	.st27{clip-path:url(#SVGID_28_);fill:#B380E0;}
	.st28{clip-path:url(#SVGID_28_);fill:#8747B8;}
	.st29{display:none;}
	.st30{display:inline;}
	.st31{fill:#000F5E;}
	.st32{clip-path:url(#SVGID_30_);}
	.st33{clip-path:url(#SVGID_32_);}
	.st34{opacity:0.65;clip-path:url(#SVGID_34_);}
	.st35{clip-path:url(#SVGID_36_);fill:#69A6FF;}
	.st36{clip-path:url(#SVGID_32_);fill:#000F5E;}
	.st37{clip-path:url(#SVGID_38_);fill:#000F5E;}
	.st38{clip-path:url(#SVGID_40_);}
	.st39{clip-path:url(#SVGID_42_);fill:#EFC100;}
	.st40{clip-path:url(#SVGID_42_);fill:#CBA9E6;}
	.st41{clip-path:url(#SVGID_42_);fill:#6E177D;}
	.st42{clip-path:url(#SVGID_42_);fill:#9BC1FA;}
	.st43{clip-path:url(#SVGID_42_);fill:#000F5E;}
	.st44{clip-path:url(#SVGID_42_);fill:#FFFFFF;}
	.st45{clip-path:url(#SVGID_42_);fill:#5AA700;}
	.st46{clip-path:url(#SVGID_44_);fill:#FFFFFF;}
	.st47{clip-path:url(#SVGID_44_);fill:#000F5E;}
	.st48{clip-path:url(#SVGID_44_);}
	.st49{clip-path:url(#SVGID_46_);fill:#FFFFFF;}
	.st50{clip-path:url(#SVGID_46_);fill:#5AA700;}
	.st51{opacity:0.15;fill:#B380E0;}
	.st52{fill:none;stroke:#A71C71;stroke-miterlimit:10;stroke-dasharray:1,1;}
	.st53{fill:none;stroke:#B380E0;stroke-miterlimit:10;stroke-dasharray:1,1;}
	.st54{fill:none;stroke:#B380E0;stroke-miterlimit:10;}
	.st55{fill:none;stroke:#B380E0;stroke-miterlimit:10;stroke-dasharray:0.9885,0.9885;}
	.st56{fill:none;stroke:#B380E0;stroke-miterlimit:10;stroke-dasharray:0.9987,0.9987;}
	.st57{fill:none;stroke:#B380E0;stroke-miterlimit:10;stroke-dasharray:0.9861,0.9861;}
	.st58{fill:#B380E0;}
	.st59{fill:none;stroke:#A71C71;stroke-miterlimit:10;}
	.st60{fill:#A71C71;}
	.st61{font-family:'IBMPlexSans';}
	.st62{font-size:11px;}
	.st63{font-family:'IBMPlexSans-SemiBold';}
	.st64{font-size:12px;}
	.st65{fill:#272727;}
	.st66{font-family:'IBMPlexSans-Bold';}
	.st67{font-size:16px;}
</style><g
     id="Visual"><g
       id="g26"><g
         id="g24"><rect
           x="48.5"
           y="83.5"
           class="st0"
           width="200"
           height="200"
           id="rect4" /><g
           id="g22"><polyline
             class="st1"
             points="248.5,282 248.5,283.5 247,283.5     "
             id="polyline6" /><line
             class="st2"
             x1="245"
             y1="283.5"
             x2="51"
             y2="283.5"
             id="line8" /><polyline
             class="st1"
             points="50,283.5 48.5,283.5 48.5,282     "
             id="polyline10" /><line
             class="st2"
             x1="48.5"
             y1="280"
             x2="48.5"
             y2="86"
             id="line12" /><polyline
             class="st1"
             points="48.5,85 48.5,83.5 50,83.5     "
             id="polyline14" /><line
             class="st2"
             x1="52"
             y1="83.5"
             x2="246"
             y2="83.5"
             id="line16" /><polyline
             class="st1"
             points="247,83.5 248.5,83.5 248.5,85     "
             id="polyline18" /><line
             class="st2"
             x1="248.5"
             y1="87"
             x2="248.5"
             y2="281"
             id="line20" /></g></g></g><g
       id="g50"><g
         id="g48"><rect
           x="265.5"
           y="83.5"
           class="st0"
           width="609"
           height="200"
           id="rect28" /><g
           id="g46"><polyline
             class="st1"
             points="874.5,282 874.5,283.5 873,283.5     "
             id="polyline30" /><line
             class="st3"
             x1="871"
             y1="283.5"
             x2="268"
             y2="283.5"
             id="line32" /><polyline
             class="st1"
             points="267,283.5 265.5,283.5 265.5,282     "
             id="polyline34" /><line
             class="st2"
             x1="265.5"
             y1="280"
             x2="265.5"
             y2="86"
             id="line36" /><polyline
             class="st1"
             points="265.5,85 265.5,83.5 267,83.5     "
             id="polyline38" /><line
             class="st3"
             x1="269"
             y1="83.5"
             x2="872"
             y2="83.5"
             id="line40" /><polyline
             class="st1"
             points="873,83.5 874.5,83.5 874.5,85     "
             id="polyline42" /><line
             class="st2"
             x1="874.5"
             y1="87"
             x2="874.5"
             y2="281"
             id="line44" /></g></g></g><g
       id="g74"><g
         id="g72"><rect
           x="69.5"
           y="123.5"
           class="st4"
           width="140"
           height="140"
           id="rect52" /><g
           id="g70"><polyline
             class="st5"
             points="209.5,262 209.5,263.5 208,263.5     "
             id="polyline54" /><line
             class="st6"
             x1="206"
             y1="263.5"
             x2="72"
             y2="263.5"
             id="line56" /><polyline
             class="st5"
             points="71,263.5 69.5,263.5 69.5,262     "
             id="polyline58" /><line
             class="st6"
             x1="69.5"
             y1="260"
             x2="69.5"
             y2="126"
             id="line60" /><polyline
             class="st5"
             points="69.5,125 69.5,123.5 71,123.5     "
             id="polyline62" /><line
             class="st6"
             x1="73"
             y1="123.5"
             x2="207"
             y2="123.5"
             id="line64" /><polyline
             class="st5"
             points="208,123.5 209.5,123.5 209.5,125     "
             id="polyline66" /><line
             class="st6"
             x1="209.5"
             y1="127"
             x2="209.5"
             y2="261"
             id="line68" /></g></g></g><g
       id="g98"><g
         id="g96"><rect
           x="288.5"
           y="123.5"
           class="st7"
           width="300"
           height="140"
           id="rect76" /><g
           id="g94"><polyline
             class="st5"
             points="588.5,262 588.5,263.5 587,263.5     "
             id="polyline78" /><line
             class="st6"
             x1="585"
             y1="263.5"
             x2="291"
             y2="263.5"
             id="line80" /><polyline
             class="st5"
             points="290,263.5 288.5,263.5 288.5,262     "
             id="polyline82" /><line
             class="st6"
             x1="288.5"
             y1="260"
             x2="288.5"
             y2="126"
             id="line84" /><polyline
             class="st5"
             points="288.5,125 288.5,123.5 290,123.5     "
             id="polyline86" /><line
             class="st6"
             x1="292"
             y1="123.5"
             x2="586"
             y2="123.5"
             id="line88" /><polyline
             class="st5"
             points="587,123.5 588.5,123.5 588.5,125     "
             id="polyline90" /><line
             class="st6"
             x1="588.5"
             y1="127"
             x2="588.5"
             y2="261"
             id="line92" /></g></g></g><g
       id="g122"><g
         id="g120"><rect
           x="815.8"
           y="123"
           class="st8"
           width="133.3"
           height="140"
           id="rect100" /><g
           id="g118"><polyline
             class="st5"
             points="947.7,123 949.2,123 949.2,124.5     "
             id="polyline102" /><line
             class="st6"
             x1="949.2"
             y1="126.5"
             x2="949.2"
             y2="260.5"
             id="line104" /><polyline
             class="st5"
             points="949.2,261.5 949.2,263 947.7,263     "
             id="polyline106" /><line
             class="st9"
             x1="945.7"
             y1="263"
             x2="818.3"
             y2="263"
             id="line108" /><polyline
             class="st5"
             points="817.3,263 815.8,263 815.8,261.5     "
             id="polyline110" /><line
             class="st6"
             x1="815.8"
             y1="259.5"
             x2="815.8"
             y2="125.5"
             id="line112" /><polyline
             class="st5"
             points="815.8,124.5 815.8,123 817.3,123     "
             id="polyline114" /><line
             class="st9"
             x1="819.3"
             y1="123"
             x2="946.7"
             y2="123"
             id="line116" /></g></g></g><g
       id="Artwork_23_1_"><g
         id="g164"><defs
           id="defs125"><rect
             id="SVGID_1_"
             x="324.4"
             y="162.5"
             width="64.5"
             height="30" /></defs><clipPath
           id="SVGID_2_"><use
             xlink:href="#SVGID_1_"
             style="overflow:visible;"
             id="use127" /></clipPath><g
           class="st10"
           clip-path="url(#SVGID_2_)"
           id="g162"><defs
             id="defs131"><rect
               id="SVGID_3_"
               x="324.4"
               y="162.5"
               width="64.5"
               height="30" /></defs><clipPath
             id="SVGID_4_"><use
               xlink:href="#SVGID_3_"
               style="overflow:visible;"
               id="use133" /></clipPath><g
             class="st11"
             clip-path="url(#SVGID_4_)"
             id="g160"><defs
               id="defs137"><rect
                 id="SVGID_5_"
                 x="324.4"
                 y="162.5"
                 width="64.5"
                 height="30" /></defs><clipPath
               id="SVGID_6_"><use
                 xlink:href="#SVGID_5_"
                 style="overflow:visible;"
                 id="use139" /></clipPath><g
               class="st12"
               clip-path="url(#SVGID_6_)"
               id="g152"><g
                 id="g150"><defs
                   id="defs143"><rect
                     id="SVGID_7_"
                     x="325.2"
                     y="163.2"
                     width="62"
                     height="28" /></defs><clipPath
                   id="SVGID_8_"><use
                     xlink:href="#SVGID_7_"
                     style="overflow:visible;"
                     id="use145" /></clipPath><path
                   class="st13"
                   d="M381.2,171.2h-21h-8.4c-2.2-4.7-7.1-8-12.6-8c-7.7,0-14,6.3-14,14c0,7.7,6.3,14,14,14         c5.6,0,10.4-3.3,12.6-8h7.4v-2h1h2v2h19l6-6L381.2,171.2z"
                   clip-path="url(#SVGID_8_)"
                   id="path148" /></g></g><path
               class="st14"
               d="M381.9,170.4h-29.2c-0.7-1.3-1.5-2.5-2.6-3.5c-6.1-6.1-16.2-5.8-21.9,0.8c-4.9,5.6-4.9,14.1,0,19.7       c5.8,6.6,15.8,6.9,21.9,0.8c1.1-1.1,1.9-2.3,2.6-3.5l5.6,0l2.4-2.4l2.4,2.4h18.9l7.1-7.1L381.9,170.4z M381.2,182.9l-17.5,0       l-1.9-1.9l-1.2-1.2l-1.2,1.2l-1.9,1.9h-4.9h-1l-0.5,0.9c-0.6,1.2-1.4,2.2-2.3,3.1c-5.4,5.4-14.4,5.2-19.5-0.7       c-4.3-5-4.3-12.5,0-17.5c5.1-5.9,14.1-6.1,19.5-0.7c0.9,0.9,1.7,2,2.3,3.1l0.5,0.9h1l28.5,0l5.4,5.4L381.2,182.9z"
               clip-path="url(#SVGID_6_)"
               id="path154" /><path
               class="st14"
               d="M336.9,175.1c1.3,1.3,1.3,3.4,0,4.7c-1.3,1.3-3.4,1.3-4.7,0c-1.3-1.3-1.3-3.4,0-4.7       C333.5,173.8,335.6,173.8,336.9,175.1"
               clip-path="url(#SVGID_6_)"
               id="path156" /><rect
               x="365.2"
               y="176.6"
               class="st14"
               width="14.1"
               height="1.7"
               clip-path="url(#SVGID_6_)"
               id="rect158" /></g></g></g></g><g
       id="Artwork_24_1_"><g
         id="g227"><defs
           id="defs168"><rect
             id="SVGID_9_"
             x="480.2"
             y="162.4"
             width="64.5"
             height="30" /></defs><clipPath
           id="SVGID_10_"><use
             xlink:href="#SVGID_9_"
             style="overflow:visible;"
             id="use170" /></clipPath><g
           class="st15"
           clip-path="url(#SVGID_10_)"
           id="g225"><defs
             id="defs174"><rect
               id="SVGID_11_"
               x="480.2"
               y="162.4"
               width="64.5"
               height="30" /></defs><clipPath
             id="SVGID_12_"><use
               xlink:href="#SVGID_11_"
               style="overflow:visible;"
               id="use176" /></clipPath><g
             class="st16"
             clip-path="url(#SVGID_12_)"
             id="g197"><defs
               id="defs180"><rect
                 id="SVGID_13_"
                 x="480.2"
                 y="162.4"
                 width="64.5"
                 height="30" /></defs><clipPath
               id="SVGID_14_"><use
                 xlink:href="#SVGID_13_"
                 style="overflow:visible;"
                 id="use182" /></clipPath><g
               class="st17"
               clip-path="url(#SVGID_14_)"
               id="g195"><g
                 id="g193"><defs
                   id="defs186"><rect
                     id="SVGID_15_"
                     x="480.9"
                     y="163.1"
                     width="62"
                     height="28" /></defs><clipPath
                   id="SVGID_16_"><use
                     xlink:href="#SVGID_15_"
                     style="overflow:visible;"
                     id="use188" /></clipPath><path
                   class="st18"
                   d="M536.9,171.1h-21h-8.4c-2.2-4.7-7.1-8-12.6-8c-7.7,0-14,6.3-14,14c0,7.7,6.3,14,14,14         c5.6,0,10.4-3.3,12.6-8h7.4v-2h1h2v2h19l6-6L536.9,171.1z"
                   clip-path="url(#SVGID_16_)"
                   id="path191" /></g></g></g><rect
             x="521"
             y="178.1"
             class="st19"
             width="14.1"
             height="0.1"
             clip-path="url(#SVGID_12_)"
             id="rect199" /><polygon
             class="st19"
             points="516.4,179.8 517.7,181.1 515.1,181.1     "
             clip-path="url(#SVGID_12_)"
             id="polygon201" /><rect
             x="521"
             y="176.5"
             class="st19"
             width="14.1"
             height="1.7"
             clip-path="url(#SVGID_12_)"
             id="rect203" /><g
             class="st16"
             clip-path="url(#SVGID_12_)"
             id="g223"><defs
               id="defs206"><rect
                 id="SVGID_17_"
                 x="480.2"
                 y="162.4"
                 width="64.5"
                 height="30" /></defs><clipPath
               id="SVGID_18_"><use
                 xlink:href="#SVGID_17_"
                 style="overflow:visible;"
                 id="use208" /></clipPath><path
               class="st20"
               d="M492.7,175c1.3,1.3,1.3,3.4,0,4.7c-1.3,1.3-3.4,1.3-4.7,0c-1.3-1.3-1.3-3.4,0-4.7       C489.3,173.7,491.4,173.7,492.7,175"
               clip-path="url(#SVGID_18_)"
               id="path211" /><path
               class="st20"
               d="M485.1,168.7c-1.6,1.8-2.6,4-3,6.2c1-6.7,6.6-11.8,13.3-11.8c5.7,0,10.6,3.7,12.6,8.9h-0.6l-0.5-0.9       c-0.6-1.2-1.4-2.2-2.3-3.1C499.2,162.5,490.2,162.8,485.1,168.7"
               clip-path="url(#SVGID_18_)"
               id="path213" /><path
               class="st20"
               d="M507.7,182.8c0,0.1-0.1,0.2-0.1,0.3c-2.2,4.7-6.8,8-12.2,8c-3.8,0-7.2-1.6-9.6-4.2       c5.2,5.2,13.6,5.1,18.8,0c0.9-0.9,1.7-2,2.3-3.1l0.3-0.6l0.1-0.3H507.7z"
               clip-path="url(#SVGID_18_)"
               id="path215" /><path
               class="st20"
               d="M537.6,170.3h-29.2c-0.7-1.3-1.6-2.5-2.6-3.5c-6.1-6.1-16.2-5.9-21.9,0.8c-4.9,5.6-4.9,14.1,0,19.7       c5.8,6.6,15.8,6.9,21.9,0.8c1.1-1.1,1.9-2.3,2.6-3.5h5.6l2.4-2.4l2.3,2.4h18.9l7.1-7.1L537.6,170.3z M516.4,179.8l-1.3,1.3       l-0.2,0.2l-1.6,1.6h-5.9l-0.1,0.3l-0.3,0.6c-0.6,1.2-1.4,2.2-2.3,3.1c-5.2,5.2-13.6,5.2-18.8,0.1c-0.2-0.2-0.5-0.5-0.7-0.8       c-2.7-3.1-3.7-7.3-3-11.2c0,0,0,0,0-0.1c0.4-2.2,1.4-4.4,3-6.2c5.1-5.9,14.1-6.1,19.5-0.7c0.9,0.9,1.7,2,2.3,3.1l0.5,0.9h29.5       l2,2l3.4,3.4l-3.4,3.4l-2,2h-17.5l-1.5-1.5L516.4,179.8z"
               clip-path="url(#SVGID_18_)"
               id="path217" /><path
               class="st20"
               d="M492.7,179.7c-1.3,1.3-3.4,1.3-4.7,0c-1.3-1.3-1.3-3.4,0-4.7c1.3-1.3,3.4-1.3,4.7,0       C494,176.3,494,178.4,492.7,179.7"
               clip-path="url(#SVGID_18_)"
               id="path219" /><rect
               x="521"
               y="176.5"
               class="st20"
               width="14.1"
               height="1.7"
               clip-path="url(#SVGID_18_)"
               id="rect221" /></g></g></g></g><g
       id="Artwork_10_1_"><g
         id="g256"><defs
           id="defs231"><rect
             id="SVGID_19_"
             x="424.5"
             y="183.5"
             width="15"
             height="15" /></defs><clipPath
           id="SVGID_20_"><use
             xlink:href="#SVGID_19_"
             style="overflow:visible;"
             id="use233" /></clipPath><g
           class="st22"
           clip-path="url(#SVGID_20_)"
           id="g244"><defs
             id="defs237"><rect
               id="SVGID_21_"
               x="424.5"
               y="183.5"
               width="15"
               height="15" /></defs><clipPath
             id="SVGID_22_"><use
               xlink:href="#SVGID_21_"
               style="overflow:visible;"
               id="use239" /></clipPath><line
             class="st23"
             x1="424.5"
             y1="191"
             x2="439.5"
             y2="191"
             clip-path="url(#SVGID_22_)"
             id="line242" /></g><g
           class="st22"
           clip-path="url(#SVGID_20_)"
           id="g254"><defs
             id="defs247"><rect
               id="SVGID_23_"
               x="424.5"
               y="183.5"
               width="15"
               height="15" /></defs><clipPath
             id="SVGID_24_"><use
               xlink:href="#SVGID_23_"
               style="overflow:visible;"
               id="use249" /></clipPath><line
             class="st24"
             x1="432"
             y1="198.5"
             x2="432"
             y2="183.5"
             clip-path="url(#SVGID_24_)"
             id="line252" /></g></g></g><g
       id="Artwork_16"><g
         id="g279"><defs
           id="defs260"><rect
             id="SVGID_25_"
             x="660"
             y="161"
             width="50"
             height="37" /></defs><clipPath
           id="SVGID_26_"><use
             xlink:href="#SVGID_25_"
             style="overflow:visible;"
             id="use262" /></clipPath><g
           class="st25"
           clip-path="url(#SVGID_26_)"
           id="g277"><defs
             id="defs266"><rect
               id="SVGID_27_"
               x="660"
               y="161"
               width="50"
               height="37" /></defs><clipPath
             id="SVGID_28_"><use
               xlink:href="#SVGID_27_"
               style="overflow:visible;"
               id="use268" /></clipPath><path
             class="st26"
             d="M693.4,187c0-0.5,0-0.9-0.1-1.3l2.7-2.3l-2.3-3.7l-3.2,1c-0.8-0.7-1.6-1.2-2.6-1.5l-0.7-3.1h-4.4l-0.7,3.1      c-1,0.4-1.9,0.9-2.6,1.5l-3.2-1l-2.3,3.7l2.7,2.3c-0.1,0.4-0.1,0.9-0.1,1.3c0,0.5,0,0.9,0.1,1.3l-2.7,2.3l2.3,3.7l3.2-1      c0.8,0.7,1.6,1.2,2.6,1.5l0.7,3.1h4.4l0.7-3.1c1-0.4,1.9-0.9,2.6-1.5l3.2,1l2.3-3.7l-2.7-2.3C693.4,187.9,693.4,187.5,693.4,187       M685,189.5c-1.7,0-3-1.3-3-3s1.3-3,3-3s3,1.3,3,3S686.7,189.5,685,189.5"
             clip-path="url(#SVGID_28_)"
             id="path271" /><path
             class="st27"
             d="M679.4,172c0-0.5,0-0.9-0.1-1.3l2.7-2.3l-2.3-3.7l-3.2,1c-0.8-0.7-1.6-1.2-2.6-1.5l-0.7-3.1h-4.4l-0.7,3.1      c-1,0.4-1.9,0.9-2.6,1.5l-3.2-1l-2.3,3.7l2.7,2.3c-0.1,0.4-0.1,0.9-0.1,1.3c0,0.5,0,0.9,0.1,1.3l-2.7,2.3l2.3,3.7l3.2-1      c0.8,0.7,1.6,1.2,2.6,1.5l0.7,3.1h4.4l0.7-3.1c1-0.4,1.9-0.9,2.6-1.5l3.2,1l2.3-3.7l-2.7-2.3C679.4,172.9,679.4,172.5,679.4,172       M671,174.5c-1.7,0-3-1.3-3-3s1.3-3,3-3s3,1.3,3,3S672.7,174.5,671,174.5"
             clip-path="url(#SVGID_28_)"
             id="path273" /><path
             class="st28"
             d="M707.4,172c0-0.5,0-0.9-0.1-1.3l2.7-2.3l-2.3-3.7l-3.2,1c-0.8-0.7-1.6-1.2-2.6-1.5l-0.7-3.1h-4.4l-0.7,3.1      c-1,0.4-1.9,0.9-2.6,1.5l-3.2-1l-2.3,3.7l2.7,2.3c-0.1,0.4-0.1,0.9-0.1,1.3c0,0.5,0,0.9,0.1,1.3l-2.7,2.3l2.3,3.7l3.2-1      c0.8,0.7,1.6,1.2,2.6,1.5l0.7,3.1h4.4l0.7-3.1c1-0.4,1.9-0.9,2.6-1.5l3.2,1l2.3-3.7l-2.7-2.3C707.4,172.9,707.4,172.5,707.4,172       M699,174.5c-1.7,0-3-1.3-3-3s1.3-3,3-3s3,1.3,3,3S700.7,174.5,699,174.5"
             clip-path="url(#SVGID_28_)"
             id="path275" /></g></g></g><g
       class="st29"
       id="g290"><g
         class="st30"
         id="g288"><line
           class="st5"
           x1="624.4"
           y1="340.5"
           x2="624.4"
           y2="267.7"
           id="line282" /><g
           id="g286"><polygon
             class="st31"
             points="629.4,269.1 624.4,260.5 619.4,269.1     "
             id="polygon284" /></g></g></g><g
       id="Artwork_24_2_"><g
         id="g352"><defs
           id="defs293"><rect
             id="SVGID_29_"
             x="105"
             y="161"
             width="64.5"
             height="30" /></defs><clipPath
           id="SVGID_30_"><use
             xlink:href="#SVGID_29_"
             style="overflow:visible;"
             id="use295" /></clipPath><g
           class="st32"
           clip-path="url(#SVGID_30_)"
           id="g350"><defs
             id="defs299"><rect
               id="SVGID_31_"
               x="105"
               y="161"
               width="64.5"
               height="30" /></defs><clipPath
             id="SVGID_32_"><use
               xlink:href="#SVGID_31_"
               style="overflow:visible;"
               id="use301" /></clipPath><g
             class="st33"
             clip-path="url(#SVGID_32_)"
             id="g322"><defs
               id="defs305"><rect
                 id="SVGID_33_"
                 x="105"
                 y="161"
                 width="64.5"
                 height="30" /></defs><clipPath
               id="SVGID_34_"><use
                 xlink:href="#SVGID_33_"
                 style="overflow:visible;"
                 id="use307" /></clipPath><g
               class="st34"
               clip-path="url(#SVGID_34_)"
               id="g320"><g
                 id="g318"><defs
                   id="defs311"><rect
                     id="SVGID_35_"
                     x="105.7"
                     y="161.7"
                     width="62"
                     height="28" /></defs><clipPath
                   id="SVGID_36_"><use
                     xlink:href="#SVGID_35_"
                     style="overflow:visible;"
                     id="use313" /></clipPath><path
                   class="st35"
                   d="M161.7,169.7h-21h-8.4c-2.2-4.7-7.1-8-12.6-8c-7.7,0-14,6.3-14,14c0,7.7,6.3,14,14,14         c5.6,0,10.4-3.3,12.6-8h7.4v-2h1h2v2h19l6-6L161.7,169.7z"
                   clip-path="url(#SVGID_36_)"
                   id="path316" /></g></g></g><rect
             x="145.8"
             y="176.7"
             class="st36"
             width="14.1"
             height="0.1"
             clip-path="url(#SVGID_32_)"
             id="rect324" /><polygon
             class="st36"
             points="141.2,178.4 142.5,179.7 139.9,179.7     "
             clip-path="url(#SVGID_32_)"
             id="polygon326" /><rect
             x="145.8"
             y="175.1"
             class="st36"
             width="14.1"
             height="1.7"
             clip-path="url(#SVGID_32_)"
             id="rect328" /><g
             class="st33"
             clip-path="url(#SVGID_32_)"
             id="g348"><defs
               id="defs331"><rect
                 id="SVGID_37_"
                 x="105"
                 y="161"
                 width="64.5"
                 height="30" /></defs><clipPath
               id="SVGID_38_"><use
                 xlink:href="#SVGID_37_"
                 style="overflow:visible;"
                 id="use333" /></clipPath><path
               class="st37"
               d="M117.5,173.6c1.3,1.3,1.3,3.4,0,4.7c-1.3,1.3-3.4,1.3-4.7,0c-1.3-1.3-1.3-3.4,0-4.7       C114.1,172.3,116.2,172.3,117.5,173.6"
               clip-path="url(#SVGID_38_)"
               id="path336" /><path
               class="st37"
               d="M109.9,167.3c-1.6,1.8-2.6,4-3,6.2c1-6.7,6.6-11.8,13.3-11.8c5.7,0,10.6,3.7,12.6,8.9h-0.6l-0.5-0.9       c-0.6-1.2-1.4-2.2-2.3-3.1C124,161.1,115,161.4,109.9,167.3"
               clip-path="url(#SVGID_38_)"
               id="path338" /><path
               class="st37"
               d="M132.6,181.4c0,0.1-0.1,0.2-0.1,0.3c-2.2,4.7-6.8,8-12.2,8c-3.8,0-7.2-1.6-9.6-4.2       c5.2,5.2,13.6,5.1,18.8,0c0.9-0.9,1.7-2,2.3-3.1l0.3-0.6l0.1-0.3H132.6z"
               clip-path="url(#SVGID_38_)"
               id="path340" /><path
               class="st37"
               d="M162.4,168.9h-29.2c-0.7-1.3-1.5-2.5-2.6-3.5c-6.1-6.1-16.2-5.9-21.9,0.8c-4.9,5.6-4.9,14.1,0,19.7       c5.8,6.6,15.8,6.9,21.9,0.8c1.1-1.1,1.9-2.3,2.6-3.5h5.6l2.4-2.4l2.4,2.4h18.9l7.1-7.1L162.4,168.9z M141.2,178.4l-1.3,1.3       l-0.2,0.2l-1.6,1.6h-5.9l-0.1,0.3l-0.3,0.6c-0.6,1.2-1.4,2.2-2.3,3.1c-5.2,5.2-13.6,5.2-18.8,0.1c-0.2-0.2-0.5-0.5-0.7-0.8       c-2.7-3.1-3.7-7.3-3-11.2c0,0,0,0,0-0.1c0.4-2.2,1.4-4.4,3-6.2c5.1-5.9,14.1-6.1,19.5-0.7c0.9,0.9,1.7,2,2.3,3.1l0.5,0.9h29.5       l2,2l3.4,3.4l-3.4,3.4l-2,2h-17.5l-1.5-1.5L141.2,178.4z"
               clip-path="url(#SVGID_38_)"
               id="path342" /><path
               class="st37"
               d="M117.5,178.3c-1.3,1.3-3.4,1.3-4.7,0c-1.3-1.3-1.3-3.4,0-4.7c1.3-1.3,3.4-1.3,4.7,0       C118.8,174.9,118.8,177,117.5,178.3"
               clip-path="url(#SVGID_38_)"
               id="path344" /><rect
               x="145.8"
               y="175.1"
               class="st37"
               width="14.1"
               height="1.7"
               clip-path="url(#SVGID_38_)"
               id="rect346" /></g></g></g></g><g
       id="Artwork_27"><g
         id="g393"><defs
           id="defs356"><rect
             id="SVGID_39_"
             x="860.2"
             y="147.5"
             width="53.5"
             height="52" /></defs><clipPath
           id="SVGID_40_"><use
             xlink:href="#SVGID_39_"
             style="overflow:visible;"
             id="use358" /></clipPath><g
           class="st38"
           clip-path="url(#SVGID_40_)"
           id="g391"><defs
             id="defs362"><rect
               id="SVGID_41_"
               x="860.2"
               y="147.5"
               width="53.5"
               height="52" /></defs><clipPath
             id="SVGID_42_"><use
               xlink:href="#SVGID_41_"
               style="overflow:visible;"
               id="use364" /></clipPath><path
             class="st39"
             d="M903.9,181.9c-0.6,0.8-1.7,1-2.6,1c-0.5,0-0.9-0.1-1.4-0.1c-0.4-0.1-0.9-0.2-1.4-0.3      c-1.8-0.5-3.5-1.2-5.1-2c-3.2-1.7-6.2-3.9-9-6.2c-1.4-1.2-2.8-2.4-4.1-3.7c-1.3-1.3-2.5-2.7-3.5-4.3c-1-1.6-1.9-3.3-2.4-5.1      c-0.1-0.5-0.2-0.9-0.3-1.4c0-0.5-0.1-1-0.1-1.5c0-0.5,0.1-1,0.3-1.5c0.1-0.2,0.2-0.5,0.4-0.7c0.2-0.2,0.4-0.4,0.5-0.5l0.2,0.2      c-0.4,0.8-0.3,1.6,0,2.4c0.2,0.8,0.6,1.5,1,2.3c0.8,1.5,1.8,2.9,2.9,4.2c2.2,2.7,4.2,5.5,6.7,8c2.5,2.5,5.2,4.8,8.1,6.7      c1.5,1,3,1.8,4.6,2.5c0.4,0.2,0.8,0.3,1.2,0.4c0.4,0.1,0.8,0.2,1.3,0.2c0.8,0.1,1.7,0,2.4-0.6L903.9,181.9z"
             clip-path="url(#SVGID_42_)"
             id="path367" /><path
             class="st40"
             d="M912.2,151.1l-9.2-0.3l0.3,0.4h-0.2l-0.4-0.4l-17.7,17.7l0.2,0.2l-3.1,3.1c-1.3-0.4-2.7-0.6-4.2-0.6      c-7.7,0-14,6-14,13.5c0,7.5,6.3,13.5,14,13.5c7.7,0,14-6,14-13.5c0-1.6-0.3-3.2-0.9-4.6l4.9-4.9l-1-1l2.5-2.5l1,1l12.7-12.7      l0.3,0.4l0.1-0.8l0.4-0.3l-0.3-0.3L912.2,151.1z"
             clip-path="url(#SVGID_42_)"
             id="path369" /><path
             class="st41"
             d="M903.2,149.5l-20.6,20.6c-1.4-0.4-2.8-0.6-4.4-0.6c-8.6,0-15.6,7.3-15,16.1c0.5,7.4,6.5,13.4,13.9,13.9      c8.8,0.6,16.1-6.3,16.1-15c0-1.5-0.2-3-0.6-4.4l4-4v-3.3h3.3l13.3-13.3v-10H903.2z M911.5,158.8l-12.4,12.4h-2.6h-1.7v1.7v2.6      l-3.5,3.5l-0.7,0.7l0.3,1c0.4,1.3,0.6,2.6,0.6,3.9c0,7.7-6.5,13.8-14.3,13.3c-6.6-0.5-11.9-5.8-12.3-12.3      c-0.5-7.8,5.6-14.3,13.3-14.3c1.3,0,2.6,0.2,3.9,0.6l1,0.3l0.7-0.7l20.2-20.2h7.6V158.8z"
             clip-path="url(#SVGID_42_)"
             id="path371" /><path
             class="st41"
             d="M874.7,184.6c1.8,0,3.3,1.5,3.3,3.3s-1.5,3.3-3.3,3.3c-1.8,0-3.3-1.5-3.3-3.3S872.9,184.6,874.7,184.6"
             clip-path="url(#SVGID_42_)"
             id="path373" /><rect
             x="894.3"
             y="160.4"
             transform="matrix(0.7071 -0.7071 0.7071 0.7071 150.0037 684.6194)"
             class="st41"
             width="14.1"
             height="1.7"
             clip-path="url(#SVGID_42_)"
             id="rect375" /><path
             class="st42"
             d="M909.2,149.1l-9.2-0.3l0.3,0.4h-0.2l-0.4-0.4l-17.7,17.7l0.2,0.2l-3.1,3.1c-1.3-0.4-2.7-0.6-4.2-0.6      c-7.7,0-14,6-14,13.5c0,7.5,6.3,13.5,14,13.5c7.7,0,14-6,14-13.5c0-1.6-0.3-3.2-0.9-4.6l4.9-4.9l-1-1l2.5-2.5l1,1l12.7-12.7      l0.3,0.4l0.1-0.8l0.4-0.3l-0.3-0.3L909.2,149.1z"
             clip-path="url(#SVGID_42_)"
             id="path377" /><path
             class="st43"
             d="M900.2,147.5l-20.6,20.6c-1.4-0.4-2.8-0.6-4.4-0.6c-8.6,0-15.6,7.3-15,16.1c0.5,7.4,6.5,13.4,13.9,13.9      c8.8,0.6,16.1-6.3,16.1-15c0-1.5-0.2-3-0.6-4.4l4-4v-3.3h3.3l13.3-13.3v-10H900.2z M908.5,156.8l-12.4,12.4h-2.6h-1.7v1.7v2.6      l-3.5,3.5l-0.7,0.7l0.3,1c0.4,1.3,0.6,2.6,0.6,3.9c0,7.7-6.5,13.8-14.3,13.3c-6.6-0.5-11.9-5.8-12.3-12.3      c-0.5-7.8,5.6-14.3,13.3-14.3c1.3,0,2.6,0.2,3.9,0.6l1,0.3l0.7-0.7l20.2-20.2h7.6V156.8z"
             clip-path="url(#SVGID_42_)"
             id="path379" /><path
             class="st43"
             d="M871.7,182.6c1.8,0,3.3,1.5,3.3,3.3s-1.5,3.3-3.3,3.3c-1.8,0-3.3-1.5-3.3-3.3S869.9,182.6,871.7,182.6"
             clip-path="url(#SVGID_42_)"
             id="path381" /><rect
             x="891.3"
             y="158.4"
             transform="matrix(0.7071 -0.7071 0.7071 0.7071 150.5392 681.9122)"
             class="st43"
             width="14.1"
             height="1.7"
             clip-path="url(#SVGID_42_)"
             id="rect383" /><path
             class="st39"
             d="M875.2,155.5c0.6-0.8,1.7-1,2.6-1c0.5,0,0.9,0.1,1.4,0.1c0.5,0.1,0.9,0.2,1.4,0.3c1.8,0.5,3.5,1.2,5.1,2      c3.2,1.7,6.2,3.9,9,6.2c1.4,1.2,2.8,2.4,4.1,3.7c1.3,1.3,2.5,2.7,3.5,4.3c1,1.6,1.9,3.3,2.4,5.1c0.1,0.5,0.2,0.9,0.3,1.4      c0,0.5,0.1,1,0.1,1.5c0,0.5-0.1,1-0.3,1.5c-0.1,0.2-0.2,0.5-0.4,0.7c-0.2,0.2-0.4,0.4-0.5,0.5l-0.2-0.2c0.4-0.8,0.3-1.6,0-2.4      c-0.2-0.8-0.6-1.5-1-2.3c-0.8-1.5-1.8-2.9-2.9-4.2c-2.2-2.7-4.2-5.5-6.7-8c-2.5-2.5-5.2-4.8-8.2-6.7c-1.5-1-3-1.8-4.6-2.5      c-0.4-0.2-0.8-0.3-1.2-0.4c-0.4-0.1-0.8-0.2-1.3-0.2c-0.8-0.1-1.7,0-2.4,0.6L875.2,155.5z"
             clip-path="url(#SVGID_42_)"
             id="path385" /><path
             class="st44"
             d="M911.7,191.1c0,3.3-2.5,6-5.5,6c-3,0-5.5-2.7-5.5-6c0-3.3,2.5-6,5.5-6      C909.2,185.1,911.7,187.8,911.7,191.1"
             clip-path="url(#SVGID_42_)"
             id="path387" /><path
             class="st45"
             d="M911.7,183.4c0-4.1-4.4-7.4-8.6-5.4c-2.1,1-3.4,3.3-3.4,5.7v2.5c-1.6,1.8-2.4,4.3-1.8,7      c0.7,3.1,3.1,5.5,6.2,6.1c5.1,1,9.6-2.9,9.6-7.8c0-2-0.8-3.9-2-5.3V183.4z M901.7,183.4c0-2.9,3.4-5.3,6.3-3.2      c1.1,0.8,1.7,2.2,1.7,3.5v0.8c-1.2-0.7-2.5-1.1-4-1.1c-1.5,0-2.8,0.4-4,1.1V183.4z M904.5,195.8l-3.7-3.7l1.4-1.4l2.3,2.3      l5.3-5.3l1.4,1.4L904.5,195.8z"
             clip-path="url(#SVGID_42_)"
             id="path389" /></g></g></g><g
       id="Artwork_12_2_"><g
         id="g424"><defs
           id="defs397"><rect
             id="SVGID_43_"
             x="120"
             y="147"
             width="35.8"
             height="52.3" /></defs><clipPath
           id="SVGID_44_"><use
             xlink:href="#SVGID_43_"
             style="overflow:visible;"
             id="use399" /></clipPath><polygon
           class="st46"
           points="152.4,160 152.4,196 121.4,196 121.4,148 139.4,148 139.4,160    "
           clip-path="url(#SVGID_44_)"
           id="polygon402" /><path
           class="st47"
           d="M121.7,148.7h16.7V162h13.3v33.3h-30V148.7z M120,147v50h33.3v-35v-1.7L140,147H120z"
           clip-path="url(#SVGID_44_)"
           id="path404" /><rect
           x="126.7"
           y="167"
           class="st47"
           width="20"
           height="1.7"
           clip-path="url(#SVGID_44_)"
           id="rect406" /><rect
           x="126.7"
           y="170.3"
           class="st47"
           width="20"
           height="1.7"
           clip-path="url(#SVGID_44_)"
           id="rect408" /><rect
           x="126.7"
           y="173.7"
           class="st47"
           width="10"
           height="1.7"
           clip-path="url(#SVGID_44_)"
           id="rect410" /><g
           class="st48"
           clip-path="url(#SVGID_44_)"
           id="g422"><defs
             id="defs413"><rect
               id="SVGID_45_"
               x="120"
               y="147"
               width="35.8"
               height="52.3" /></defs><clipPath
             id="SVGID_46_"><use
               xlink:href="#SVGID_45_"
               style="overflow:visible;"
               id="use415" /></clipPath><path
             class="st49"
             d="M153.4,191c0,3.3-2.5,6-5.5,6s-5.5-2.7-5.5-6s2.5-6,5.5-6S153.4,187.7,153.4,191"
             clip-path="url(#SVGID_46_)"
             id="path418" /><path
             class="st50"
             d="M153.8,183.3c0-4.1-4.4-7.4-8.6-5.4c-2.1,1-3.4,3.3-3.4,5.7v2.5c-1.6,1.8-2.4,4.3-1.8,7      c0.7,3.1,3.1,5.5,6.2,6.1c5.1,1,9.6-2.9,9.6-7.8c0-2-0.8-3.9-2-5.3V183.3z M143.8,183.3c0-2.9,3.4-5.3,6.3-3.2      c1.1,0.8,1.7,2.2,1.7,3.5v0.8c-1.2-0.7-2.5-1.1-4-1.1c-1.5,0-2.8,0.4-4,1.1V183.3z M146.6,195.7l-3.7-3.7l1.4-1.4l2.3,2.3      l5.3-5.3l1.4,1.4L146.6,195.7z"
             clip-path="url(#SVGID_46_)"
             id="path420" /></g></g></g><path
       class="st51"
       d="M 595.85916,350 H 203 v -23.5 c 0,-5.8 5.54486,-10.5 12.38745,-10.5 H 583.4717 c 6.84259,0 12.38746,4.7 12.38746,10.5 z"
       id="path427"
       inkscape:connector-curvature="0"
       style="opacity:0.15;fill:#b380e0;stroke-width:1.08616638" /><polyline
       class="st53"
       points="219,258.2 219,274 60,274 60,258.2  "
       id="polyline429" /><g
       id="g451"><g
         id="g449"><line
           class="st54"
           x1="914"
           y1="263"
           x2="914"
           y2="263.5"
           id="line431" /><line
           class="st55"
           x1="914"
           y1="264.5"
           x2="914"
           y2="349"
           id="line433" /><polyline
           class="st54"
           points="914,349.5 914,350 913.5,350    "
           id="polyline435" /><line
           class="st56"
           x1="912.5"
           y1="350"
           x2="138"
           y2="350"
           id="line437" /><polyline
           class="st54"
           points="137.5,350 137,350 137,349.5    "
           id="polyline439" /><line
           class="st57"
           x1="137"
           y1="348.5"
           x2="137.4"
           y2="293.8"
           id="line441" /><line
           class="st54"
           x1="137.4"
           y1="293.3"
           x2="137.4"
           y2="292.8"
           id="line443" /><g
           id="g447"><polygon
             class="st58"
             points="142.4,294.3 137.5,285.6 132.4,294.2     "
             id="polygon445" /></g></g></g><g
       id="g469"><g
         id="g467"><line
           class="st59"
           x1="574"
           y1="189.5"
           x2="627.8"
           y2="189.5"
           id="line453" /><g
           id="g461"><g
             id="g459"><circle
               class="st0"
               cx="574.3"
               cy="189.5"
               r="3.8"
               id="circle455" /><path
               class="st60"
               d="M574.3,193.8c2.3,0,4.3-1.9,4.3-4.3s-1.9-4.3-4.3-4.3c-2.3,0-4.3,1.9-4.3,4.3S571.9,193.8,574.3,193.8       C576.6,193.8,571.9,193.8,574.3,193.8z M574.3,186.2c1.8,0,3.3,1.5,3.3,3.3s-1.5,3.3-3.3,3.3c-1.8,0-3.3-1.5-3.3-3.3       S572.5,186.2,574.3,186.2C576.1,186.2,572.5,186.2,574.3,186.2z"
               id="path457" /></g></g><g
           id="g465"><polygon
             class="st60"
             points="626.4,194.5 635,189.5 626.4,184.5     "
             id="polygon463" /></g></g></g><g
       id="g479"><g
         id="g477"><line
           class="st59"
           x1="733"
           y1="189.5"
           x2="785.8"
           y2="189.5"
           id="line471" /><g
           id="g475"><polygon
             class="st60"
             points="784.4,194.5 793,189.5 784.4,184.5     "
             id="polygon473" /></g></g></g></g><g
     id="Text"><text
       transform="translate(221.6123,338.3984)"
       class="st61 st62"
       id="text482"
       style="font-style:normal;font-variant:normal;font-weight:normal;font-stretch:normal;font-size:11px;font-family:IBMPlexSans;-inkscape-font-specification:'IBMPlexSans, Normal';font-variant-ligatures:normal;font-variant-caps:normal;font-variant-numeric:normal;font-feature-settings:normal;text-align:start;writing-mode:lr-tb;text-anchor:start"><tspan
         sodipodi:role="line"
         id="tspan1358"
         x="0"
         y="0">DEK vuelve al servicio de datos y envuelve los datos en descanso</tspan></text>
<text
       id="text488"
       style="font-style:normal;font-variant:normal;font-weight:normal;font-stretch:normal;font-size:12px;font-family:sans-serif;-inkscape-font-specification:'sans-serif, Normal';font-variant-ligatures:normal;font-variant-caps:normal;font-variant-numeric:normal;font-feature-settings:normal;text-align:center;writing-mode:lr-tb;text-anchor:middle"
       x="888.50262"
       y="220.8961"><tspan
         sodipodi:role="line"
         id="tspan1354"
         x="888.50262"
         y="220.8961">DEK</tspan><tspan
         sodipodi:role="line"
         id="tspan1356"
         x="888.50262"
         y="235.8961">envuelta</tspan></text>
<text
       id="text494"
       style="font-style:normal;font-variant:normal;font-weight:normal;font-stretch:normal;font-size:12px;font-family:sans-serif;-inkscape-font-specification:'sans-serif, Normal';font-variant-ligatures:normal;font-variant-caps:normal;font-variant-numeric:normal;font-feature-settings:normal;text-align:center;writing-mode:lr-tb;text-anchor:middle"
       x="683.28149"
       y="220.896"><tspan
         sodipodi:role="line"
         id="tspan1350"
         x="683.28149"
         y="220.896">Algoritmo</tspan><tspan
         sodipodi:role="line"
         id="tspan1352"
         x="683.28149"
         y="235.896">AES</tspan></text>
<text
       id="text500"
       style="font-style:normal;font-variant:normal;font-weight:normal;font-stretch:normal;font-size:12px;font-family:sans-serif;-inkscape-font-specification:'sans-serif, Normal';font-variant-ligatures:normal;font-variant-caps:normal;font-variant-numeric:normal;font-feature-settings:normal;text-align:center;writing-mode:lr-tb;text-anchor:middle"
       x="513.6579"
       y="221.8956"><tspan
         sodipodi:role="line"
         id="tspan1346"
         x="515.56805"
         y="221.8956">DEK del servicio </tspan><tspan
         sodipodi:role="line"
         id="tspan1348"
         x="513.6579"
         y="236.8956">de datos</tspan></text>
<text
       id="text506"
       style="font-style:normal;font-variant:normal;font-weight:normal;font-stretch:normal;font-size:12px;font-family:sans-serif;-inkscape-font-specification:'sans-serif, Normal';font-variant-ligatures:normal;font-variant-caps:normal;font-variant-numeric:normal;font-feature-settings:normal;text-align:center;writing-mode:lr-tb;text-anchor:middle"
       x="356.1152"
       y="221.8951"><tspan
         sodipodi:role="line"
         id="tspan1342"
         x="358.02536"
         y="221.8951">Clave raíz en </tspan><tspan
         sodipodi:role="line"
         id="tspan1344"
         x="356.1152"
         y="236.8951">Key Protect</tspan></text>
<text
       transform="matrix(1 0 0 1 289.7173 107.3755)"
       class="st63 st64"
       id="text508">Key Protect</text>
<text
       id="text514"
       style="font-style:normal;font-variant:normal;font-weight:normal;font-stretch:normal;font-size:12px;font-family:sans-serif;-inkscape-font-specification:'sans-serif, Normal';font-variant-ligatures:normal;font-variant-caps:normal;font-variant-numeric:normal;font-feature-settings:normal;text-align:center;writing-mode:lr-tb;text-anchor:middle"
       x="134.26761"
       y="221.8958"><tspan
         sodipodi:role="line"
         id="tspan1338"
         x="134.26761"
         y="221.8958">Datos</tspan><tspan
         sodipodi:role="line"
         id="tspan1340"
         x="134.26761"
         y="236.8958">cifrados</tspan></text>
<text
       class="st63 st64"
       id="text516"
       style="font-style:normal;font-variant:normal;font-weight:normal;font-stretch:normal;font-size:12px;font-family:IBMPlexSans-SemiBold;-inkscape-font-specification:'IBMPlexSans-SemiBold, Normal';font-variant-ligatures:normal;font-variant-caps:normal;font-variant-numeric:normal;font-feature-settings:normal;text-align:start;writing-mode:lr-tb;text-anchor:start"
       x="58.7173"
       y="107.3755"><tspan
         sodipodi:role="line"
         id="tspan1336"
         x="58.7173"
         y="107.3755">Servicio de datos de IBM Cloud</tspan></text>
<text
       transform="matrix(1 0 0 1 49 63)"
       class="st65 st66 st67"
       id="text518"
       style="-inkscape-font-specification:'IBMPlexSans-Bold, Bold';font-family:IBMPlexSans-Bold;font-weight:bold;font-style:normal;font-stretch:normal;font-variant:normal;font-size:16px;text-anchor:start;text-align:start;writing-mode:lr;font-variant-ligatures:normal;font-variant-caps:normal;font-variant-numeric:normal;font-feature-settings:normal;"><tspan
         sodipodi:role="line"
         id="tspan1334">Envolvimiento de claves</tspan></text>
</g></svg>
