<svg xmlns="http://www.w3.org/2000/svg" xmlns:xlink="http://www.w3.org/1999/xlink" viewBox="0 0 1000 400" id="svg521"><style id="style2">.st0{fill:#fff}.st1,.st2{stroke:#d8d8d8}.st1{fill:none;stroke-miterlimit:10}.st2{stroke-dasharray:3,2}.st2,.st3,.st5,.st6,.st9{fill:none;stroke-miterlimit:10}.st3{stroke-dasharray:2.9951,1.9967;stroke:#d8d8d8}.st5,.st6,.st9{stroke:#000f5e}.st6,.st9{stroke-dasharray:3,2}.st9{stroke-dasharray:2.9621,1.9747}.st14{clip-path:url(#SVGID_6_);fill:#6e177d}.st16,.st19,.st20{clip-path:url(#SVGID_12_)}.st19,.st20{fill:#000f5e}.st20{clip-path:url(#SVGID_18_)}.st22{clip-path:url(#SVGID_20_)}.st33,.st36,.st37{clip-path:url(#SVGID_32_)}.st36,.st37{fill:#000f5e}.st37{clip-path:url(#SVGID_38_)}.st39,.st41,.st43,.st47{clip-path:url(#SVGID_42_);fill:#efc100}.st41,.st43,.st47{fill:#6e177d}.st43,.st47{fill:#000f5e}.st47{clip-path:url(#SVGID_44_)}.st54,.st59{fill:none;stroke:#b380e0;stroke-miterlimit:10}.st59{stroke:#a71c71}.st60{fill:#a71c71}.st61{font-family:&apos;IBMPlexSans&apos;}.st62{font-size:11px}.st63{font-family:&apos;IBMPlexSans-SemiBold&apos;}.st64{font-size:12px}</style><g id="Visual"><g id="g26"><g id="g24"><path class="st0" id="rect4" fill="#fff" d="M48.5 83.5h200v200h-200z"/><g id="g22"><path class="st1" id="polyline6" fill="none" stroke="#d8d8d8" stroke-miterlimit="10" d="M248.5 282v1.5H247"/><path class="st2" id="line8" fill="none" stroke="#d8d8d8" stroke-miterlimit="10" stroke-dasharray="3,2" d="M245 283.5H51"/><path class="st1" id="polyline10" fill="none" stroke="#d8d8d8" stroke-miterlimit="10" d="M50 283.5h-1.5V282"/><path class="st2" id="line12" fill="none" stroke="#d8d8d8" stroke-miterlimit="10" stroke-dasharray="3,2" d="M48.5 280V86"/><path class="st1" id="polyline14" fill="none" stroke="#d8d8d8" stroke-miterlimit="10" d="M48.5 85v-1.5H50"/><path class="st2" id="line16" fill="none" stroke="#d8d8d8" stroke-miterlimit="10" stroke-dasharray="3,2" d="M52 83.5h194"/><path class="st1" id="polyline18" fill="none" stroke="#d8d8d8" stroke-miterlimit="10" d="M247 83.5h1.5V85"/><path class="st2" id="line20" fill="none" stroke="#d8d8d8" stroke-miterlimit="10" stroke-dasharray="3,2" d="M248.5 87v194"/></g></g></g><g id="g50"><g id="g48"><path class="st0" id="rect28" fill="#fff" d="M265.5 83.5h609v200h-609z"/><g id="g46"><path class="st1" id="polyline30" fill="none" stroke="#d8d8d8" stroke-miterlimit="10" d="M874.5 282v1.5H873"/><path class="st3" id="line32" fill="none" stroke="#d8d8d8" stroke-miterlimit="10" stroke-dasharray="2.9951,1.9967" d="M871 283.5H268"/><path class="st1" id="polyline34" fill="none" stroke="#d8d8d8" stroke-miterlimit="10" d="M267 283.5h-1.5V282"/><path class="st2" id="line36" fill="none" stroke="#d8d8d8" stroke-miterlimit="10" stroke-dasharray="3,2" d="M265.5 280V86"/><path class="st1" id="polyline38" fill="none" stroke="#d8d8d8" stroke-miterlimit="10" d="M265.5 85v-1.5h1.5"/><path class="st3" id="line40" fill="none" stroke="#d8d8d8" stroke-miterlimit="10" stroke-dasharray="2.9951,1.9967" d="M269 83.5h603"/><path class="st1" id="polyline42" fill="none" stroke="#d8d8d8" stroke-miterlimit="10" d="M873 83.5h1.5V85"/><path class="st2" id="line44" fill="none" stroke="#d8d8d8" stroke-miterlimit="10" stroke-dasharray="3,2" d="M874.5 87v194"/></g></g></g><g id="g74"><g id="g72"><path id="rect52" fill="#edf5ff" d="M69.5 123.5h140v140h-140z"/><g id="g70"><path class="st5" id="polyline54" fill="none" stroke="#000f5e" stroke-miterlimit="10" d="M209.5 262v1.5H208"/><path class="st6" id="line56" fill="none" stroke="#000f5e" stroke-miterlimit="10" stroke-dasharray="3,2" d="M206 263.5H72"/><path class="st5" id="polyline58" fill="none" stroke="#000f5e" stroke-miterlimit="10" d="M71 263.5h-1.5V262"/><path class="st6" id="line60" fill="none" stroke="#000f5e" stroke-miterlimit="10" stroke-dasharray="3,2" d="M69.5 260V126"/><path class="st5" id="polyline62" fill="none" stroke="#000f5e" stroke-miterlimit="10" d="M69.5 125v-1.5H71"/><path class="st6" id="line64" fill="none" stroke="#000f5e" stroke-miterlimit="10" stroke-dasharray="3,2" d="M73 123.5h134"/><path class="st5" id="polyline66" fill="none" stroke="#000f5e" stroke-miterlimit="10" d="M208 123.5h1.5v1.5"/><path class="st6" id="line68" fill="none" stroke="#000f5e" stroke-miterlimit="10" stroke-dasharray="3,2" d="M209.5 127v134"/></g></g></g><g id="g98"><g id="g96"><path id="rect76" fill="#f8f4f2" d="M288.5 123.5h300v140h-300z"/><g id="g94"><path class="st5" id="polyline78" fill="none" stroke="#000f5e" stroke-miterlimit="10" d="M588.5 262v1.5H587"/><path class="st6" id="line80" fill="none" stroke="#000f5e" stroke-miterlimit="10" stroke-dasharray="3,2" d="M585 263.5H291"/><path class="st5" id="polyline82" fill="none" stroke="#000f5e" stroke-miterlimit="10" d="M290 263.5h-1.5V262"/><path class="st6" id="line84" fill="none" stroke="#000f5e" stroke-miterlimit="10" stroke-dasharray="3,2" d="M288.5 260V126"/><path class="st5" id="polyline86" fill="none" stroke="#000f5e" stroke-miterlimit="10" d="M288.5 125v-1.5h1.5"/><path class="st6" id="line88" fill="none" stroke="#000f5e" stroke-miterlimit="10" stroke-dasharray="3,2" d="M292 123.5h294"/><path class="st5" id="polyline90" fill="none" stroke="#000f5e" stroke-miterlimit="10" d="M587 123.5h1.5v1.5"/><path class="st6" id="line92" fill="none" stroke="#000f5e" stroke-miterlimit="10" stroke-dasharray="3,2" d="M588.5 127v134"/></g></g></g><g id="g122"><g id="g120"><path id="rect100" fill="#f4f4f4" d="M815.8 123h133.3v140H815.8z"/><g id="g118"><path class="st5" id="polyline102" fill="none" stroke="#000f5e" stroke-miterlimit="10" d="M947.7 123h1.5v1.5"/><path class="st6" id="line104" fill="none" stroke="#000f5e" stroke-miterlimit="10" stroke-dasharray="3,2" d="M949.2 126.5v134"/><path class="st5" id="polyline106" fill="none" stroke="#000f5e" stroke-miterlimit="10" d="M949.2 261.5v1.5h-1.5"/><path class="st9" id="line108" fill="none" stroke="#000f5e" stroke-miterlimit="10" stroke-dasharray="2.9621,1.9747" d="M945.7 263H818.3"/><path class="st5" id="polyline110" fill="none" stroke="#000f5e" stroke-miterlimit="10" d="M817.3 263h-1.5v-1.5"/><path class="st6" id="line112" fill="none" stroke="#000f5e" stroke-miterlimit="10" stroke-dasharray="3,2" d="M815.8 259.5v-134"/><path class="st5" id="polyline114" fill="none" stroke="#000f5e" stroke-miterlimit="10" d="M815.8 124.5V123h1.5"/><path class="st9" id="line116" fill="none" stroke="#000f5e" stroke-miterlimit="10" stroke-dasharray="2.9621,1.9747" d="M819.3 123h127.4"/></g></g></g><g id="Artwork_23_1_"><g id="g164"><defs id="defs125"><path id="SVGID_1_" d="M324.4 162.5h64.5v30h-64.5z"/></defs><clipPath id="SVGID_2_"><use xlink:href="#SVGID_1_" id="use127" width="100%" height="100%" overflow="visible"/></clipPath><g clip-path="url(#SVGID_2_)" id="g162"><defs id="defs131"><path id="SVGID_3_" d="M324.4 162.5h64.5v30h-64.5z"/></defs><clipPath id="SVGID_4_"><use xlink:href="#SVGID_3_" id="use133" width="100%" height="100%" overflow="visible"/></clipPath><g clip-path="url(#SVGID_4_)" id="g160"><defs id="defs137"><path id="SVGID_5_" d="M324.4 162.5h64.5v30h-64.5z"/></defs><clipPath id="SVGID_6_"><use xlink:href="#SVGID_5_" id="use139" width="100%" height="100%" overflow="visible"/></clipPath><g clip-path="url(#SVGID_6_)" id="g152" opacity=".65"><g id="g150"><defs id="defs143"><path id="SVGID_7_" d="M325.2 163.2h62v28h-62z"/></defs><clipPath id="SVGID_8_"><use xlink:href="#SVGID_7_" id="use145" width="100%" height="100%" overflow="visible"/></clipPath><path d="M381.2 171.2h-29.4c-2.2-4.7-7.1-8-12.6-8-7.7 0-14 6.3-14 14s6.3 14 14 14c5.6 0 10.4-3.3 12.6-8h7.4v-2h3v2h19l6-6z" clip-path="url(#SVGID_8_)" id="path148" fill="#b380e0"/></g></g><path class="st14" d="M381.9 170.4h-29.2c-.7-1.3-1.5-2.5-2.6-3.5-6.1-6.1-16.2-5.8-21.9.8-4.9 5.6-4.9 14.1 0 19.7 5.8 6.6 15.8 6.9 21.9.8 1.1-1.1 1.9-2.3 2.6-3.5h5.6l2.4-2.4 2.4 2.4H382l7.1-7.1zm-.7 12.5h-17.5l-1.9-1.9-1.2-1.2-1.2 1.2-1.9 1.9h-5.9l-.5.9c-.6 1.2-1.4 2.2-2.3 3.1-5.4 5.4-14.4 5.2-19.5-.7-4.3-5-4.3-12.5 0-17.5 5.1-5.9 14.1-6.1 19.5-.7.9.9 1.7 2 2.3 3.1l.5.9h29.5l5.4 5.4z" clip-path="url(#SVGID_6_)" id="path154" fill="#6e177d"/><path class="st14" d="M336.9 175.1c1.3 1.3 1.3 3.4 0 4.7a3.32 3.32 0 0 1-4.7 0 3.32 3.32 0 0 1 0-4.7c1.3-1.3 3.4-1.3 4.7 0" clip-path="url(#SVGID_6_)" id="path156" fill="#6e177d"/><path class="st14" clip-path="url(#SVGID_6_)" id="rect158" fill="#6e177d" d="M365.2 176.6h14.1v1.7h-14.1z"/></g></g></g></g><g id="Artwork_24_1_"><g id="g227"><defs id="defs168"><path id="SVGID_9_" d="M480.2 162.4h64.5v30h-64.5z"/></defs><clipPath id="SVGID_10_"><use xlink:href="#SVGID_9_" id="use170" width="100%" height="100%" overflow="visible"/></clipPath><g clip-path="url(#SVGID_10_)" id="g225"><defs id="defs174"><path id="SVGID_11_" d="M480.2 162.4h64.5v30h-64.5z"/></defs><clipPath id="SVGID_12_"><use xlink:href="#SVGID_11_" id="use176" width="100%" height="100%" overflow="visible"/></clipPath><g class="st16" clip-path="url(#SVGID_12_)" id="g197"><defs id="defs180"><path id="SVGID_13_" d="M480.2 162.4h64.5v30h-64.5z"/></defs><clipPath id="SVGID_14_"><use xlink:href="#SVGID_13_" id="use182" width="100%" height="100%" overflow="visible"/></clipPath><g clip-path="url(#SVGID_14_)" id="g195" opacity=".65"><g id="g193"><defs id="defs186"><path id="SVGID_15_" d="M480.9 163.1h62v28h-62z"/></defs><clipPath id="SVGID_16_"><use xlink:href="#SVGID_15_" id="use188" width="100%" height="100%" overflow="visible"/></clipPath><path d="M536.9 171.1h-29.4c-2.2-4.7-7.1-8-12.6-8-7.7 0-14 6.3-14 14s6.3 14 14 14c5.6 0 10.4-3.3 12.6-8h7.4v-2h3v2h19l6-6z" clip-path="url(#SVGID_16_)" id="path191" fill="#69a6ff"/></g></g></g><path class="st19" clip-path="url(#SVGID_12_)" id="rect199" fill="#000f5e" d="M521 178.1h14.1v.1H521z"/><path class="st19" clip-path="url(#SVGID_12_)" id="polygon201" fill="#000f5e" d="M516.4 179.8l1.3 1.3h-2.6z"/><path class="st19" clip-path="url(#SVGID_12_)" id="rect203" fill="#000f5e" d="M521 176.5h14.1v1.7H521z"/><g class="st16" clip-path="url(#SVGID_12_)" id="g223"><defs id="defs206"><path id="SVGID_17_" d="M480.2 162.4h64.5v30h-64.5z"/></defs><clipPath id="SVGID_18_"><use xlink:href="#SVGID_17_" id="use208" width="100%" height="100%" overflow="visible"/></clipPath><path class="st20" d="M492.7 175c1.3 1.3 1.3 3.4 0 4.7a3.32 3.32 0 0 1-4.7 0 3.32 3.32 0 0 1 0-4.7c1.3-1.3 3.4-1.3 4.7 0" clip-path="url(#SVGID_18_)" id="path211" fill="#000f5e"/><path class="st20" d="M485.1 168.7c-1.6 1.8-2.6 4-3 6.2 1-6.7 6.6-11.8 13.3-11.8 5.7 0 10.6 3.7 12.6 8.9h-.6l-.5-.9c-.6-1.2-1.4-2.2-2.3-3.1-5.4-5.5-14.4-5.2-19.5.7" clip-path="url(#SVGID_18_)" id="path213" fill="#000f5e"/><path class="st20" d="M507.7 182.8c0 .1-.1.2-.1.3-2.2 4.7-6.8 8-12.2 8-3.8 0-7.2-1.6-9.6-4.2 5.2 5.2 13.6 5.1 18.8 0 .9-.9 1.7-2 2.3-3.1l.3-.6.1-.3h.4z" clip-path="url(#SVGID_18_)" id="path215" fill="#000f5e"/><path class="st20" d="M537.6 170.3h-29.2c-.7-1.3-1.6-2.5-2.6-3.5-6.1-6.1-16.2-5.9-21.9.8-4.9 5.6-4.9 14.1 0 19.7 5.8 6.6 15.8 6.9 21.9.8 1.1-1.1 1.9-2.3 2.6-3.5h5.6l2.4-2.4 2.3 2.4h18.9l7.1-7.1zm-21.2 9.5l-1.3 1.3-.2.2-1.6 1.6h-5.9l-.1.3-.3.6c-.6 1.2-1.4 2.2-2.3 3.1-5.2 5.2-13.6 5.2-18.8.1-.2-.2-.5-.5-.7-.8-2.7-3.1-3.7-7.3-3-11.2v-.1c.4-2.2 1.4-4.4 3-6.2 5.1-5.9 14.1-6.1 19.5-.7.9.9 1.7 2 2.3 3.1l.5.9H537l2 2 3.4 3.4-3.4 3.4-2 2h-17.5l-1.5-1.5z" clip-path="url(#SVGID_18_)" id="path217" fill="#000f5e"/><path class="st20" d="M492.7 179.7a3.32 3.32 0 0 1-4.7 0 3.32 3.32 0 0 1 0-4.7c1.3-1.3 3.4-1.3 4.7 0 1.3 1.3 1.3 3.4 0 4.7" clip-path="url(#SVGID_18_)" id="path219" fill="#000f5e"/><path class="st20" clip-path="url(#SVGID_18_)" id="rect221" fill="#000f5e" d="M521 176.5h14.1v1.7H521z"/></g></g></g></g><g id="Artwork_10_1_"><g id="g256"><defs id="defs231"><path id="SVGID_19_" d="M424.5 183.5h15v15h-15z"/></defs><clipPath id="SVGID_20_"><use xlink:href="#SVGID_19_" id="use233" width="100%" height="100%" overflow="visible"/></clipPath><g class="st22" clip-path="url(#SVGID_20_)" id="g244"><defs id="defs237"><path id="SVGID_21_" d="M424.5 183.5h15v15h-15z"/></defs><clipPath id="SVGID_22_"><use xlink:href="#SVGID_21_" id="use239" width="100%" height="100%" overflow="visible"/></clipPath><path clip-path="url(#SVGID_22_)" id="line242" fill="none" stroke="#000f5e" stroke-width="1.75" stroke-miterlimit="10" d="M424.5 191h15"/></g><g class="st22" clip-path="url(#SVGID_20_)" id="g254"><defs id="defs247"><path id="SVGID_23_" d="M424.5 183.5h15v15h-15z"/></defs><clipPath id="SVGID_24_"><use xlink:href="#SVGID_23_" id="use249" width="100%" height="100%" overflow="visible"/></clipPath><path clip-path="url(#SVGID_24_)" id="line252" fill="none" stroke="#000f5e" stroke-width="1.75" stroke-miterlimit="10" d="M432 198.5v-15"/></g></g></g><g id="Artwork_16"><g id="g279"><defs id="defs260"><path id="SVGID_25_" d="M660 161h50v37h-50z"/></defs><clipPath id="SVGID_26_"><use xlink:href="#SVGID_25_" id="use262" width="100%" height="100%" overflow="visible"/></clipPath><g clip-path="url(#SVGID_26_)" id="g277"><defs id="defs266"><path id="SVGID_27_" d="M660 161h50v37h-50z"/></defs><clipPath id="SVGID_28_"><use xlink:href="#SVGID_27_" id="use268" width="100%" height="100%" overflow="visible"/></clipPath><path d="M693.4 187c0-.5 0-.9-.1-1.3l2.7-2.3-2.3-3.7-3.2 1c-.8-.7-1.6-1.2-2.6-1.5l-.7-3.1h-4.4l-.7 3.1c-1 .4-1.9.9-2.6 1.5l-3.2-1-2.3 3.7 2.7 2.3c-.1.4-.1.9-.1 1.3 0 .5 0 .9.1 1.3l-2.7 2.3 2.3 3.7 3.2-1c.8.7 1.6 1.2 2.6 1.5l.7 3.1h4.4l.7-3.1c1-.4 1.9-.9 2.6-1.5l3.2 1 2.3-3.7-2.7-2.3c.1-.4.1-.8.1-1.3m-8.4 2.5c-1.7 0-3-1.3-3-3s1.3-3 3-3 3 1.3 3 3-1.3 3-3 3" clip-path="url(#SVGID_28_)" id="path271" fill="#6e177d"/><path d="M679.4 172c0-.5 0-.9-.1-1.3l2.7-2.3-2.3-3.7-3.2 1c-.8-.7-1.6-1.2-2.6-1.5l-.7-3.1h-4.4l-.7 3.1c-1 .4-1.9.9-2.6 1.5l-3.2-1-2.3 3.7 2.7 2.3c-.1.4-.1.9-.1 1.3 0 .5 0 .9.1 1.3l-2.7 2.3 2.3 3.7 3.2-1c.8.7 1.6 1.2 2.6 1.5l.7 3.1h4.4l.7-3.1c1-.4 1.9-.9 2.6-1.5l3.2 1 2.3-3.7-2.7-2.3c.1-.4.1-.8.1-1.3m-8.4 2.5c-1.7 0-3-1.3-3-3s1.3-3 3-3 3 1.3 3 3-1.3 3-3 3" clip-path="url(#SVGID_28_)" id="path273" fill="#b380e0"/><path d="M707.4 172c0-.5 0-.9-.1-1.3l2.7-2.3-2.3-3.7-3.2 1c-.8-.7-1.6-1.2-2.6-1.5l-.7-3.1h-4.4l-.7 3.1c-1 .4-1.9.9-2.6 1.5l-3.2-1-2.3 3.7 2.7 2.3c-.1.4-.1.9-.1 1.3 0 .5 0 .9.1 1.3l-2.7 2.3 2.3 3.7 3.2-1c.8.7 1.6 1.2 2.6 1.5l.7 3.1h4.4l.7-3.1c1-.4 1.9-.9 2.6-1.5l3.2 1 2.3-3.7-2.7-2.3c.1-.4.1-.8.1-1.3m-8.4 2.5c-1.7 0-3-1.3-3-3s1.3-3 3-3 3 1.3 3 3-1.3 3-3 3" clip-path="url(#SVGID_28_)" id="path275" fill="#8747b8"/></g></g></g><g id="Artwork_24_2_"><g id="g352"><defs id="defs293"><path id="SVGID_29_" d="M105 161h64.5v30H105z"/></defs><clipPath id="SVGID_30_"><use xlink:href="#SVGID_29_" id="use295" width="100%" height="100%" overflow="visible"/></clipPath><g clip-path="url(#SVGID_30_)" id="g350"><defs id="defs299"><path id="SVGID_31_" d="M105 161h64.5v30H105z"/></defs><clipPath id="SVGID_32_"><use xlink:href="#SVGID_31_" id="use301" width="100%" height="100%" overflow="visible"/></clipPath><g class="st33" clip-path="url(#SVGID_32_)" id="g322"><defs id="defs305"><path id="SVGID_33_" d="M105 161h64.5v30H105z"/></defs><clipPath id="SVGID_34_"><use xlink:href="#SVGID_33_" id="use307" width="100%" height="100%" overflow="visible"/></clipPath><g clip-path="url(#SVGID_34_)" id="g320" opacity=".65"><g id="g318"><defs id="defs311"><path id="SVGID_35_" d="M105.7 161.7h62v28h-62z"/></defs><clipPath id="SVGID_36_"><use xlink:href="#SVGID_35_" id="use313" width="100%" height="100%" overflow="visible"/></clipPath><path d="M161.7 169.7h-29.4c-2.2-4.7-7.1-8-12.6-8-7.7 0-14 6.3-14 14s6.3 14 14 14c5.6 0 10.4-3.3 12.6-8h7.4v-2h3v2h19l6-6z" clip-path="url(#SVGID_36_)" id="path316" fill="#69a6ff"/></g></g></g><path class="st36" clip-path="url(#SVGID_32_)" id="rect324" fill="#000f5e" d="M145.8 176.7h14.1v.1h-14.1z"/><path class="st36" clip-path="url(#SVGID_32_)" id="polygon326" fill="#000f5e" d="M141.2 178.4l1.3 1.3h-2.6z"/><path class="st36" clip-path="url(#SVGID_32_)" id="rect328" fill="#000f5e" d="M145.8 175.1h14.1v1.7h-14.1z"/><g class="st33" clip-path="url(#SVGID_32_)" id="g348"><defs id="defs331"><path id="SVGID_37_" d="M105 161h64.5v30H105z"/></defs><clipPath id="SVGID_38_"><use xlink:href="#SVGID_37_" id="use333" width="100%" height="100%" overflow="visible"/></clipPath><path class="st37" d="M117.5 173.6c1.3 1.3 1.3 3.4 0 4.7a3.32 3.32 0 0 1-4.7 0 3.32 3.32 0 0 1 0-4.7c1.3-1.3 3.4-1.3 4.7 0" clip-path="url(#SVGID_38_)" id="path336" fill="#000f5e"/><path class="st37" d="M109.9 167.3c-1.6 1.8-2.6 4-3 6.2 1-6.7 6.6-11.8 13.3-11.8 5.7 0 10.6 3.7 12.6 8.9h-.6l-.5-.9c-.6-1.2-1.4-2.2-2.3-3.1-5.4-5.5-14.4-5.2-19.5.7" clip-path="url(#SVGID_38_)" id="path338" fill="#000f5e"/><path class="st37" d="M132.6 181.4c0 .1-.1.2-.1.3-2.2 4.7-6.8 8-12.2 8-3.8 0-7.2-1.6-9.6-4.2 5.2 5.2 13.6 5.1 18.8 0 .9-.9 1.7-2 2.3-3.1l.3-.6.1-.3h.4z" clip-path="url(#SVGID_38_)" id="path340" fill="#000f5e"/><path class="st37" d="M162.4 168.9h-29.2c-.7-1.3-1.5-2.5-2.6-3.5-6.1-6.1-16.2-5.9-21.9.8-4.9 5.6-4.9 14.1 0 19.7 5.8 6.6 15.8 6.9 21.9.8 1.1-1.1 1.9-2.3 2.6-3.5h5.6l2.4-2.4 2.4 2.4h18.9l7.1-7.1zm-21.2 9.5l-1.3 1.3-.2.2-1.6 1.6h-5.9l-.1.3-.3.6c-.6 1.2-1.4 2.2-2.3 3.1-5.2 5.2-13.6 5.2-18.8.1-.2-.2-.5-.5-.7-.8-2.7-3.1-3.7-7.3-3-11.2v-.1c.4-2.2 1.4-4.4 3-6.2 5.1-5.9 14.1-6.1 19.5-.7.9.9 1.7 2 2.3 3.1l.5.9h29.5l2 2 3.4 3.4-3.4 3.4-2 2h-17.5l-1.5-1.5z" clip-path="url(#SVGID_38_)" id="path342" fill="#000f5e"/><path class="st37" d="M117.5 178.3a3.32 3.32 0 0 1-4.7 0 3.32 3.32 0 0 1 0-4.7c1.3-1.3 3.4-1.3 4.7 0 1.3 1.3 1.3 3.4 0 4.7" clip-path="url(#SVGID_38_)" id="path344" fill="#000f5e"/><path class="st37" clip-path="url(#SVGID_38_)" id="rect346" fill="#000f5e" d="M145.8 175.1h14.1v1.7h-14.1z"/></g></g></g></g><g id="Artwork_27"><g id="g393"><defs id="defs356"><path id="SVGID_39_" d="M860.2 147.5h53.5v52h-53.5z"/></defs><clipPath id="SVGID_40_"><use xlink:href="#SVGID_39_" id="use358" width="100%" height="100%" overflow="visible"/></clipPath><g clip-path="url(#SVGID_40_)" id="g391"><defs id="defs362"><path id="SVGID_41_" d="M860.2 147.5h53.5v52h-53.5z"/></defs><clipPath id="SVGID_42_"><use xlink:href="#SVGID_41_" id="use364" width="100%" height="100%" overflow="visible"/></clipPath><path class="st39" d="M903.9 181.9c-.6.8-1.7 1-2.6 1-.5 0-.9-.1-1.4-.1-.4-.1-.9-.2-1.4-.3-1.8-.5-3.5-1.2-5.1-2-3.2-1.7-6.2-3.9-9-6.2-1.4-1.2-2.8-2.4-4.1-3.7-1.3-1.3-2.5-2.7-3.5-4.3-1-1.6-1.9-3.3-2.4-5.1-.1-.5-.2-.9-.3-1.4 0-.5-.1-1-.1-1.5s.1-1 .3-1.5c.1-.2.2-.5.4-.7l.5-.5.2.2c-.4.8-.3 1.6 0 2.4.2.8.6 1.5 1 2.3.8 1.5 1.8 2.9 2.9 4.2 2.2 2.7 4.2 5.5 6.7 8s5.2 4.8 8.1 6.7c1.5 1 3 1.8 4.6 2.5.4.2.8.3 1.2.4.4.1.8.2 1.3.2.8.1 1.7 0 2.4-.6z" clip-path="url(#SVGID_42_)" id="path367" fill="#efc100"/><path d="M912.2 151.1l-9.2-.3.3.4h-.2l-.4-.4-17.7 17.7.2.2-3.1 3.1c-1.3-.4-2.7-.6-4.2-.6-7.7 0-14 6-14 13.5s6.3 13.5 14 13.5 14-6 14-13.5c0-1.6-.3-3.2-.9-4.6l4.9-4.9-1-1 2.5-2.5 1 1 12.7-12.7.3.4.1-.8.4-.3-.3-.3z" clip-path="url(#SVGID_42_)" id="path369" fill="#cba9e6"/><path class="st41" d="M903.2 149.5l-20.6 20.6c-1.4-.4-2.8-.6-4.4-.6-8.6 0-15.6 7.3-15 16.1.5 7.4 6.5 13.4 13.9 13.9 8.8.6 16.1-6.3 16.1-15 0-1.5-.2-3-.6-4.4l4-4v-3.3h3.3l13.3-13.3v-10zm8.3 9.3l-12.4 12.4h-4.3v4.3l-3.5 3.5-.7.7.3 1c.4 1.3.6 2.6.6 3.9 0 7.7-6.5 13.8-14.3 13.3-6.6-.5-11.9-5.8-12.3-12.3-.5-7.8 5.6-14.3 13.3-14.3 1.3 0 2.6.2 3.9.6l1 .3.7-.7 20.2-20.2h7.6v7.5z" clip-path="url(#SVGID_42_)" id="path371" fill="#6e177d"/><path class="st41" d="M874.7 184.6c1.8 0 3.3 1.5 3.3 3.3 0 1.8-1.5 3.3-3.3 3.3-1.8 0-3.3-1.5-3.3-3.3 0-1.8 1.5-3.3 3.3-3.3" clip-path="url(#SVGID_42_)" id="path373" fill="#6e177d"/><path transform="rotate(-45.001 901.413 161.25)" class="st41" clip-path="url(#SVGID_42_)" id="rect375" fill="#6e177d" d="M894.3 160.4h14.1v1.7h-14.1z"/><path d="M909.2 149.1l-9.2-.3.3.4h-.2l-.4-.4-17.7 17.7.2.2-3.1 3.1c-1.3-.4-2.7-.6-4.2-.6-7.7 0-14 6-14 13.5s6.3 13.5 14 13.5 14-6 14-13.5c0-1.6-.3-3.2-.9-4.6l4.9-4.9-1-1 2.5-2.5 1 1 12.7-12.7.3.4.1-.8.4-.3-.3-.3z" clip-path="url(#SVGID_42_)" id="path377" fill="#9bc1fa"/><path class="st43" d="M900.2 147.5l-20.6 20.6c-1.4-.4-2.8-.6-4.4-.6-8.6 0-15.6 7.3-15 16.1.5 7.4 6.5 13.4 13.9 13.9 8.8.6 16.1-6.3 16.1-15 0-1.5-.2-3-.6-4.4l4-4v-3.3h3.3l13.3-13.3v-10zm8.3 9.3l-12.4 12.4h-4.3v4.3l-3.5 3.5-.7.7.3 1c.4 1.3.6 2.6.6 3.9 0 7.7-6.5 13.8-14.3 13.3-6.6-.5-11.9-5.8-12.3-12.3-.5-7.8 5.6-14.3 13.3-14.3 1.3 0 2.6.2 3.9.6l1 .3.7-.7 20.2-20.2h7.6v7.5z" clip-path="url(#SVGID_42_)" id="path379" fill="#000f5e"/><path class="st43" d="M871.7 182.6c1.8 0 3.3 1.5 3.3 3.3 0 1.8-1.5 3.3-3.3 3.3-1.8 0-3.3-1.5-3.3-3.3 0-1.8 1.5-3.3 3.3-3.3" clip-path="url(#SVGID_42_)" id="path381" fill="#000f5e"/><path transform="rotate(-45.001 898.413 159.25)" class="st43" clip-path="url(#SVGID_42_)" id="rect383" fill="#000f5e" d="M891.3 158.4h14.1v1.7h-14.1z"/><path class="st39" d="M875.2 155.5c.6-.8 1.7-1 2.6-1 .5 0 .9.1 1.4.1.5.1.9.2 1.4.3 1.8.5 3.5 1.2 5.1 2 3.2 1.7 6.2 3.9 9 6.2 1.4 1.2 2.8 2.4 4.1 3.7 1.3 1.3 2.5 2.7 3.5 4.3 1 1.6 1.9 3.3 2.4 5.1.1.5.2.9.3 1.4 0 .5.1 1 .1 1.5s-.1 1-.3 1.5c-.1.2-.2.5-.4.7l-.5.5-.2-.2c.4-.8.3-1.6 0-2.4-.2-.8-.6-1.5-1-2.3-.8-1.5-1.8-2.9-2.9-4.2-2.2-2.7-4.2-5.5-6.7-8s-5.2-4.8-8.2-6.7c-1.5-1-3-1.8-4.6-2.5-.4-.2-.8-.3-1.2-.4-.4-.1-.8-.2-1.3-.2-.8-.1-1.7 0-2.4.6z" clip-path="url(#SVGID_42_)" id="path385" fill="#efc100"/><path d="M911.7 191.1c0 3.3-2.5 6-5.5 6s-5.5-2.7-5.5-6 2.5-6 5.5-6 5.5 2.7 5.5 6" clip-path="url(#SVGID_42_)" id="path387" fill="#fff"/><path d="M911.7 183.4c0-4.1-4.4-7.4-8.6-5.4-2.1 1-3.4 3.3-3.4 5.7v2.5c-1.6 1.8-2.4 4.3-1.8 7 .7 3.1 3.1 5.5 6.2 6.1 5.1 1 9.6-2.9 9.6-7.8 0-2-.8-3.9-2-5.3zm-10 0c0-2.9 3.4-5.3 6.3-3.2 1.1.8 1.7 2.2 1.7 3.5v.8c-1.2-.7-2.5-1.1-4-1.1s-2.8.4-4 1.1zm2.8 12.4l-3.7-3.7 1.4-1.4 2.3 2.3 5.3-5.3 1.4 1.4z" clip-path="url(#SVGID_42_)" id="path389" fill="#5aa700"/></g></g></g><g id="Artwork_12_2_"><g id="g424"><defs id="defs397"><path id="SVGID_43_" d="M120 147h35.8v52.3H120z"/></defs><clipPath id="SVGID_44_"><use xlink:href="#SVGID_43_" id="use399" width="100%" height="100%" overflow="visible"/></clipPath><path clip-path="url(#SVGID_44_)" id="polygon402" fill="#fff" d="M139.4 148v12h13v36h-31v-48z"/><path class="st47" d="M121.7 148.7h16.7V162h13.3v33.3h-30zM120 147v50h33.3v-36.7L140 147z" clip-path="url(#SVGID_44_)" id="path404" fill="#000f5e"/><path class="st47" clip-path="url(#SVGID_44_)" id="rect406" fill="#000f5e" d="M126.7 167h20v1.7h-20z"/><path class="st47" clip-path="url(#SVGID_44_)" id="rect408" fill="#000f5e" d="M126.7 170.3h20v1.7h-20z"/><path class="st47" clip-path="url(#SVGID_44_)" id="rect410" fill="#000f5e" d="M126.7 173.7h10v1.7h-10z"/><g clip-path="url(#SVGID_44_)" id="g422"><defs id="defs413"><path id="SVGID_45_" d="M120 147h35.8v52.3H120z"/></defs><clipPath id="SVGID_46_"><use xlink:href="#SVGID_45_" id="use415" width="100%" height="100%" overflow="visible"/></clipPath><path d="M153.4 191c0 3.3-2.5 6-5.5 6s-5.5-2.7-5.5-6 2.5-6 5.5-6 5.5 2.7 5.5 6" clip-path="url(#SVGID_46_)" id="path418" fill="#fff"/><path d="M153.8 183.3c0-4.1-4.4-7.4-8.6-5.4-2.1 1-3.4 3.3-3.4 5.7v2.5c-1.6 1.8-2.4 4.3-1.8 7 .7 3.1 3.1 5.5 6.2 6.1 5.1 1 9.6-2.9 9.6-7.8 0-2-.8-3.9-2-5.3zm-10 0c0-2.9 3.4-5.3 6.3-3.2 1.1.8 1.7 2.2 1.7 3.5v.8c-1.2-.7-2.5-1.1-4-1.1s-2.8.4-4 1.1zm2.8 12.4l-3.7-3.7 1.4-1.4 2.3 2.3 5.3-5.3 1.4 1.4z" clip-path="url(#SVGID_46_)" id="path420" fill="#5aa700"/></g></g></g><path d="M638.113 350H203v-23.5c0-5.8 6.141-10.5 13.72-10.5h407.673c7.579 0 13.72 4.7 13.72 10.5z" id="path427" opacity=".15" fill="#b380e0" stroke-width="1.143"/><path id="polyline429" fill="none" stroke="#b380e0" stroke-miterlimit="10" stroke-dasharray="1,1" d="M219 258.2V274H60v-15.8"/><g id="g451"><g id="g449"><path class="st54" id="line431" fill="none" stroke="#b380e0" stroke-miterlimit="10" d="M914 263v.5"/><path id="line433" fill="none" stroke="#b380e0" stroke-miterlimit="10" stroke-dasharray=".9885,.9885" d="M914 264.5V349"/><path class="st54" id="polyline435" fill="none" stroke="#b380e0" stroke-miterlimit="10" d="M914 349.5v.5h-.5"/><path id="line437" fill="none" stroke="#b380e0" stroke-miterlimit="10" stroke-dasharray=".9987,.9987" d="M912.5 350H138"/><path class="st54" id="polyline439" fill="none" stroke="#b380e0" stroke-miterlimit="10" d="M137.5 350h-.5v-.5"/><path id="line441" fill="none" stroke="#b380e0" stroke-miterlimit="10" stroke-dasharray=".9861,.9861" d="M137 348.5l.4-54.7"/><path class="st54" id="line443" fill="none" stroke="#b380e0" stroke-miterlimit="10" d="M137.4 293.3v-.5"/><g id="g447"><path id="polygon445" fill="#b380e0" d="M142.4 294.3l-4.9-8.7-5.1 8.6z"/></g></g></g><g id="g469"><g id="g467"><path class="st59" id="line453" fill="none" stroke="#a71c71" stroke-miterlimit="10" d="M574 189.5h53.8"/><g id="g461"><g id="g459"><circle class="st0" cx="574.3" cy="189.5" r="3.8" id="circle455" fill="#fff"/><path class="st60" d="M574.3 193.8c2.3 0 4.3-1.9 4.3-4.3s-1.9-4.3-4.3-4.3c-2.3 0-4.3 1.9-4.3 4.3s1.9 4.3 4.3 4.3c2.3 0-2.4 0 0 0zm0-7.6c1.8 0 3.3 1.5 3.3 3.3 0 1.8-1.5 3.3-3.3 3.3-1.8 0-3.3-1.5-3.3-3.3 0-1.8 1.5-3.3 3.3-3.3 1.8 0-1.8 0 0 0z" id="path457" fill="#a71c71"/></g></g><g id="g465"><path class="st60" id="polygon463" fill="#a71c71" d="M626.4 194.5l8.6-5-8.6-5z"/></g></g></g><g id="g479"><g id="g477"><path class="st59" id="line471" fill="none" stroke="#a71c71" stroke-miterlimit="10" d="M733 189.5h52.8"/><g id="g475"><path class="st60" id="polygon473" fill="#a71c71" d="M784.4 194.5l8.6-5-8.6-5z"/></g></g></g></g><g id="Text"><text transform="translate(221.612 338.398)" class="st61 st62" id="text482" font-size="11" font-family="IBMPlexSans">DEK kehrt zum Datenservice zurück und führt das Wrapping für ruhende Daten aus.</text><text transform="translate(864.503 220.896)" id="text488"></text><text transform="translate(675.282 220.896)" id="text494"><tspan x="0" y="0" class="st61 st62" id="tspan490" font-size="11" font-family="IBMPlexSans">AES-</tspan><tspan x="-13.7" y="13.2" class="st61 st62" id="tspan492" font-size="11" font-family="IBMPlexSans">Algorithmus</tspan></text><text transform="translate(477.658 221.896)" id="text500"></text><text transform="translate(328.115 221.895)" id="text506"><tspan x="0" y="0" class="st61 st62" id="tspan502" font-size="11" font-family="IBMPlexSans">Rootschlüssel in</tspan><tspan x="-1.3" y="13.2" class="st61 st62" id="tspan504" font-size="11" font-family="IBMPlexSans">&apos;Key Protect&apos;</tspan></text><text transform="translate(289.717 107.376)" class="st63 st64" id="text508" font-size="12" font-family="IBMPlexSans-SemiBold"><tspan style="-inkscape-font-specification:'IBM Plex Sans Semi-Bold'" id="tspan533" font-weight="600" font-family="IBM Plex Sans">Key Protect</tspan></text><text transform="translate(112.268 221.896)" id="text514"><tspan x="0" y="0" class="st61 st62" id="tspan510" font-size="11" font-family="IBMPlexSans">Verschlüsselte</tspan><tspan x="14.2" y="13.2" class="st61 st62" id="tspan512" font-size="11" font-family="IBMPlexSans">Daten</tspan></text><text transform="translate(70.717 107.376)" class="st63 st64" id="text516" font-size="12" font-family="IBMPlexSans-SemiBold"><tspan style="-inkscape-font-specification:'IBM Plex Sans Semi-Bold'" id="tspan531" font-weight="600" font-family="IBM Plex Sans">IBM Cloud-Datenservice</tspan></text><text transform="translate(49 63)" id="text518" font-size="16" font-family="IBMPlexSans-Bold" fill="#272727"><tspan style="-inkscape-font-specification:'IBM Plex Sans Bold'" id="tspan529" font-weight="700" font-family="IBM Plex Sans">Schlüssel einschließen</tspan></text></g><text style="line-height:1.25;-inkscape-font-specification:Calibri" x="512.442" y="219.929" id="text537" font-weight="400" font-size="10.667" font-family="Calibri" letter-spacing="0" word-spacing="0"><tspan id="tspan535" x="513.742" y="219.929" style="-inkscape-font-specification:'IBM Plex Sans';text-align:center" font-size="11" font-family="IBM Plex Sans" text-anchor="middle">DEK vom </tspan><tspan x="512.442" y="233.884" style="-inkscape-font-specification:'IBM Plex Sans';text-align:center" id="tspan539" font-size="11" font-family="IBM Plex Sans" text-anchor="middle">Datenservice</tspan></text><text style="line-height:1.25;-inkscape-font-specification:Calibri" x="885.9" y="218.831" id="text543" font-weight="400" font-size="10.667" font-family="Calibri" letter-spacing="0" word-spacing="0"><tspan id="tspan541" x="885.9" y="218.831" style="-inkscape-font-specification:'IBM Plex Sans';text-align:center" font-size="11" font-family="IBM Plex Sans" text-anchor="middle">Eingeschlossener</tspan><tspan x="885.9" y="232.786" style="-inkscape-font-specification:'IBM Plex Sans';text-align:center" id="tspan545" font-size="11" font-family="IBM Plex Sans" text-anchor="middle">DEK</tspan></text></svg>