<svg xmlns="http://www.w3.org/2000/svg" viewBox="0 0 920 400"><defs><clipPath id="a"><path fill="none" d="M720.1 170.72h50v23.26h-50z"/></clipPath><clipPath id="b"><path fill="none" d="M720.68 171.24h48.07v21.71h-48.07z"/></clipPath></defs><g data-name="Visual elements"><g data-name="&lt;Group&gt;"><path fill="none" stroke="#7f50a0" stroke-miterlimit="10" stroke-width="2" d="M302.08 306.51v.5"/><path fill="none" stroke="#7f50a0" stroke-miterlimit="10" stroke-width="2" stroke-dasharray="1.01 1.01" d="M302.08 308.02v48.21"/><path fill="none" stroke="#7f50a0" stroke-miterlimit="10" stroke-width="2" d="M302.08 356.74v.5h-.83.5"/><path fill="none" stroke="#7f50a0" stroke-miterlimit="10" stroke-width="2" stroke-dasharray="1 1" d="M302.74 357.24h570.55"/><path fill="none" stroke="#7f50a0" stroke-miterlimit="10" stroke-width="2" d="M873.79 357.24h.5v-.5"/><path fill="none" stroke="#7f50a0" stroke-miterlimit="10" stroke-width="2" stroke-dasharray="1.01 1.01" d="M874.29 355.73V183.35"/><path fill="none" stroke="#7f50a0" stroke-miterlimit="10" stroke-width="2" d="M874.29 182.85v-.5"/><path fill="#7f50a0" d="M295.6 308.4l6.48-11.22 6.49 11.22H295.6z"/></g><path fill="none" stroke="#1b5cab" stroke-linecap="round" stroke-miterlimit="10" stroke-width="4" stroke-dasharray="0 16" d="M166.3 181.11h56"/><path fill="none" stroke="#1b5cab" stroke-miterlimit="10" stroke-width="2" d="M339.07 182.5h90.67"/><path fill="#1b5cab" d="M427.85 188.98l11.22-6.48-11.22-6.48v12.96z"/><path fill="none" stroke="#1b5cab" stroke-miterlimit="10" stroke-width="2" d="M559.98 182.05h90.67"/><path fill="#1b5cab" d="M648.75 188.53l11.23-6.49-11.23-6.48v12.97z"/><path fill="none" stroke="#7f50a0" stroke-miterlimit="10" stroke-width="2" d="M782.27 182.92h.5"/><path fill="none" stroke="#7f50a0" stroke-miterlimit="10" stroke-width="2" stroke-dasharray="1.01 1.01" d="M783.78 182.92h88.16"/><path fill="none" stroke="#7f50a0" stroke-miterlimit="10" stroke-width="2" d="M872.44 182.92h.5"/><path fill="#7f50a0" d="M871.04 189.41l11.23-6.49-11.23-6.48v12.97z"/><g data-name="&lt;Group&gt;"><circle data-name="&lt;Path&gt;" cx="82.2" cy="181.11" r="43.53" fill="#eaeaea"/></g><g data-name="&lt;Group&gt;"><circle data-name="&lt;Path&gt;" cx="301.78" cy="181.11" r="43.53" fill="#eaeaea"/></g><g data-name="&lt;Group&gt;"><circle data-name="&lt;Path&gt;" cx="522.21" cy="181.11" r="43.53" fill="#eaeaea"/></g><g data-name="&lt;Group&gt;"><circle data-name="&lt;Path&gt;" cx="743.39" cy="181.11" r="43.53" fill="#eaeaea"/></g><g data-name="&lt;Group&gt;"><g data-name="&lt;Group&gt;" fill="#0c4269"><path data-name="&lt;Compound Path&gt;" d="M309 172.85a2.54 2.54 0 0 0-1.41 2l3.87 2.25-9.7 5.77-9.7-5.84 3.66-2.11a2.51 2.51 0 0 0-1.34-2l-7.38 4.22v16.31l14.77 8.44 14.77-8.79v-16zm-8.65 25.59l-10.55-6.54v-13.35l10.55 6.54zm13.36-7l-10.55 6.75v-13.31l10.55-6.54z"/><path data-name="&lt;Path&gt;" d="M307.9 172.22l-2.67-1.48a4.27 4.27 0 0 1-.91 2.25l2.25 1.34a3.1 3.1 0 0 1 1.33-2.11z"/></g><path data-name="&lt;Path&gt;" d="M299.11 170.39v.14a2.41 2.41 0 0 0 .91 2l1.76-1 1.48.84a2.33 2.33 0 0 0 .77-1.83 1.2 1.2 0 0 0-.03-.54l-2.11-1.2zm-2.25 3.94l2.18-1.27a3.81 3.81 0 0 1-1.05-2l-2.32 1.34a4 4 0 0 1 1.19 1.93z" fill="#0c4269"/><circle data-name="&lt;Path&gt;" cx="301.57" cy="181.71" r="2.46" fill="#0baed1"/><circle data-name="&lt;Path&gt;" cx="301.57" cy="159.35" r="2.46" fill="#88c540"/><g data-name="&lt;Group&gt;"><circle data-name="&lt;Path&gt;" cx="310.08" cy="175.1" r="2.46" fill="#88c540"/></g><g data-name="&lt;Group&gt;"><circle data-name="&lt;Path&gt;" cx="293.28" cy="175.1" r="2.46" fill="#88c540"/></g><circle data-name="&lt;Path&gt;" cx="310.08" cy="163.92" r="2.46" fill="#0baed1"/><circle data-name="&lt;Path&gt;" cx="293.49" cy="164.21" r="2.46" fill="#0baed1"/><path data-name="&lt;Path&gt;" d="M312.47 175.1a2.33 2.33 0 0 0-2.46-2.46v4.85a2.35 2.35 0 0 0 2.46-2.39z" fill="none"/><path data-name="&lt;Path&gt;" d="M307.62 175.1a2.33 2.33 0 0 0 2.46 2.46v-4.85a2.43 2.43 0 0 0-2.46 2.39z" fill="none"/><path data-name="&lt;Path&gt;" d="M301.57 168.07a2.44 2.44 0 0 0-2.46 2.46 2.46 2.46 0 1 0 2.46-2.46z" fill="#88c540"/></g><g data-name="&lt;Group&gt;"><g data-name="&lt;Rectangle&gt;"><path fill="#c8dcf2" d="M497.89 177.76h48.5v12.79h-48.5z"/><path d="M545.64 178.51v11.29h-47v-11.29h47m1.5-1.5h-50v14.29h50V177z" fill="#344fa2"/></g><g data-name="&lt;Group&gt;" fill="#344fa2"><path data-name="&lt;Rectangle&gt;" d="M519.88 182.9h21.52v2.9h-21.52z"/><circle data-name="&lt;Path&gt;" cx="514.6" cy="184.35" r="1.71"/><circle data-name="&lt;Path&gt;" cx="509.21" cy="184.35" r="1.71"/><circle data-name="&lt;Path&gt;" cx="503.82" cy="184.35" r="1.71"/></g><path fill="#77a0d4" d="M498.36 176.26l2.73-5.4h41.53l3.2 5.4h-47.46z"/><path d="M542.19 171.61l2.31 3.91h-44.92l2-3.91h40.64m.85-1.5h-42.44l-3.49 6.89h50l-4.14-6.89z" fill="#344fa2"/></g><g clip-path="url(#a)" data-name="Root key"><g clip-path="url(#b)" opacity=".65"><path d="M764.1 177.44h-22.77a10.86 10.86 0 1 0 0 9.3H747v-1.54h2.33v1.55h14.77l4.65-4.65z" fill="#a27db8"/></g><path d="M764.62 176.87H742a11.64 11.64 0 1 0 0 11h4.37l1.83-1.83 1.83 1.83h14.62l5.48-5.48zm-.54 9.67h-13.55l-1.45-1.45-.91-.91-.91.91-1.45 1.45h-4.61l-.36.68a10.34 10.34 0 1 1 0-9.75l.37.68h22.88l4.19 4.19z" fill="#632472"/><path d="M729.78 180.5a2.58 2.58 0 1 1-3.66 0 2.58 2.58 0 0 1 3.66 0m21.94 1.19h10.97v1.29h-10.97z" fill="#632472"/></g><path d="M82.2 187.54a11.67 11.67 0 1 0-11.67-11.67 11.67 11.67 0 0 0 11.67 11.67zm0-22.17a10.5 10.5 0 1 1-10.5 10.5 10.51 10.51 0 0 1 10.5-10.5zm9.33 24.5H72.87a4.67 4.67 0 0 0-4.67 4.67v4.67h28v-4.67a4.67 4.67 0 0 0-4.67-4.67z" fill="#1f2159"/><path d="M88.28 173.2l-1.65-1.65-6.18 6.18-2.67-2.73-1.65 1.65 4.32 4.35z" fill="#1f2159"/><path data-name="&lt;Path&gt;" fill="#7f50a0" d="M874.17 366.03l6.5-12.34h-13l6.5 12.34zm-270.93-8.17l13 6.85v-13.7l-13 6.85z"/><path data-name="&lt;Rectangle&gt;" fill="#1f2159" d="M479.57 0H920v48.16H479.57z"/><path data-name="&lt;Rectangle&gt;" fill="#1b5cab" d="M-.42 0h480v48.16h-480z"/></g><g data-name="Text" fill="#231f20"><text transform="translate(39.07 94.5)" font-size="20" font-family="IBMPlexSans-SemiBold, IBM Plex Sans" font-weight="700">IBM Cloud</text><text transform="translate(480.61 266.03)" font-size="18" font-family="IBMPlexSans, IBM Plex Sans">Ha <tspan x="22.34" y="0" letter-spacing="-.01em">r</tspan> <tspan x="28.84" y="0">d</tspan> <tspan x="39.28" y="0" letter-spacing="-.01em">w</tspan> <tspan x="52.94" y="0" letter-spacing="0em">a</tspan> <tspan x="62.55" y="0" letter-spacing="0em">r</tspan> <tspan x="69.07" y="0">e </tspan> <tspan x="-23.31" y="21.6">security module</tspan></text><text transform="translate(258.33 266.03)" font-size="18" font-family="IBMPlexSans, IBM Plex Sans"><tspan letter-spacing="-.02em">K</tspan> <tspan x="10.96" y="0" letter-spacing="0em">e</tspan> <tspan x="20.75" y="0">y </tspan> <tspan x="33.98" y="0" letter-spacing="-.01em">P</tspan> <tspan x="44.71" y="0" letter-spacing="0em">r</tspan> <tspan x="51.23" y="0">o</tspan> <tspan x="61.31" y="0" letter-spacing="0em">t</tspan> <tspan x="67.55" y="0">ect</tspan></text><text transform="translate(55.97 266.03)" font-size="18" font-family="IBMPlexSans, IBM Plex Sans">Admin</text><text transform="translate(498.78 94.5)" font-size="20" font-family="IBMPlexSans-SemiBold, IBM Plex Sans" font-weight="700">D <tspan x="13.78" y="0" letter-spacing="0em">a</tspan> <tspan x="24.88" y="0" letter-spacing="0em">ta </tspan> <tspan x="48.26" y="0" letter-spacing="-.01em">c</tspan> <tspan x="58.42" y="0">en</tspan> <tspan x="81.34" y="0" letter-spacing="0em">t</tspan> <tspan x="88.74" y="0">er</tspan></text><text transform="translate(700.79 266.03)" font-size="18" font-family="IBMPlexSans, IBM Plex Sans">Gene <tspan x="42.5" y="0" letter-spacing="0em">r</tspan> <tspan x="49.03" y="0">a</tspan> <tspan x="58.64" y="0" letter-spacing="0em">t</tspan> <tspan x="64.89" y="0">ed</tspan> <tspan letter-spacing="-.02em"> <tspan x="28.63" y="21.6">k</tspan> <tspan x="37.81" y="21.6" letter-spacing="0em">e</tspan> <tspan x="47.6" y="21.6" letter-spacing="0em">y</tspan> </tspan></text></g></svg>