<svg xmlns="http://www.w3.org/2000/svg" width="920" height="400" viewBox="0 0 920 400"><defs><style>.cls-1,.cls-10,.cls-15,.cls-2,.cls-3,.cls-4,.cls-6,.cls-7,.cls-8{fill:none;}.cls-1,.cls-10,.cls-2,.cls-3,.cls-4{stroke:#7f50a0;}.cls-1,.cls-10,.cls-2,.cls-3,.cls-4,.cls-6,.cls-7,.cls-8{stroke-miterlimit:10;}.cls-1,.cls-10,.cls-2,.cls-3,.cls-4,.cls-8{stroke-width:2px;}.cls-2{stroke-dasharray:1.0149 1.0149;}.cls-3{stroke-dasharray:0.9983 0.9983;}.cls-4{stroke-dasharray:1.0052 1.0052;}.cls-5{fill:#7f50a0;}.cls-6,.cls-7,.cls-8{stroke:#1b5cab;}.cls-6,.cls-7{stroke-linecap:round;stroke-width:4px;}.cls-7{stroke-dasharray:0 16;}.cls-9{fill:#1b5cab;}.cls-10{stroke-dasharray:1.0075 1.0075;}.cls-11{fill:#eaeaea;}.cls-12{fill:#0c4269;}.cls-13{fill:#0baed1;}.cls-14{fill:#88c540;}.cls-16{fill:#c8dcf2;}.cls-17{fill:#344fa2;}.cls-18{fill:#77a0d4;}.cls-19{fill:#1f2159;}.cls-20{fill:#c8add3;}.cls-21{fill:#6d297c;}.cls-22{fill:#231f20;}</style></defs><title>generated-key</title><g id="Visual_elements" data-name="Visual elements"><line class="cls-1" x1="302.0844" y1="306.5063" x2="302.0844" y2="307.0063"/><line class="cls-2" x1="302.0844" y1="308.0212" x2="302.0844" y2="356.2304"/><polyline class="cls-1" points="302.084 356.738 302.084 357.238 301.247 357.238 301.747 357.238"/><line class="cls-3" x1="302.745" y1="357.2379" x2="873.2864" y2="357.2379"/><polyline class="cls-1" points="873.786 357.238 874.286 357.238 874.286 356.738"/><polyline class="cls-4" points="874.286 355.733 874.286 348.603 874.286 183.348"/><line class="cls-1" x1="874.2856" y1="182.8458" x2="874.2856" y2="182.3458"/><polygon class="cls-5" points="295.602 308.403 302.084 297.177 308.567 308.403 295.602 308.403"/><line class="cls-6" x1="150.2984" y1="181.1098" x2="150.2984" y2="181.1098"/><line class="cls-7" x1="166.2984" y1="181.1098" x2="222.2984" y2="181.1098"/><line class="cls-6" x1="230.2984" y1="181.1098" x2="230.2984" y2="181.1098"/><line class="cls-8" x1="339.0725" y1="182.5" x2="429.7434" y2="182.5"/><polygon class="cls-9" points="427.847 188.982 439.073 182.5 427.847 176.018 427.847 188.982"/><line class="cls-8" x1="559.9765" y1="182.045" x2="650.6474" y2="182.045"/><polygon class="cls-9" points="648.751 188.527 659.976 182.045 648.751 175.563 648.751 188.527"/><line class="cls-1" x1="782.2681" y1="182.9228" x2="782.7681" y2="182.9228"/><line class="cls-10" x1="783.7757" y1="182.9228" x2="871.9353" y2="182.9228"/><line class="cls-1" x1="872.439" y1="182.9228" x2="872.939" y2="182.9228"/><polygon class="cls-5" points="871.042 189.405 882.268 182.923 871.042 176.441 871.042 189.405"/><circle class="cls-11" cx="82.2007" cy="181.1098" r="43.5281"/><circle class="cls-11" cx="301.7837" cy="181.1098" r="43.5281"/><circle class="cls-11" cx="522.2066" cy="181.1098" r="43.5281"/><circle class="cls-11" cx="743.3922" cy="181.1098" r="43.5281"/><path class="cls-12" d="M309.0258,172.8535a2.5437,2.5437,0,0,0-1.4062,2.039l3.8672,2.25-9.7031,5.7656-9.7032-5.8359,3.6563-2.1094a2.508,2.508,0,0,0-1.336-1.9687l-7.3828,4.1484V193.455l14.7657,8.4375,14.7656-8.789V177.0722Zm-8.6484,25.5937-10.5469-6.5391V178.5488l10.5469,6.539Zm13.3594-6.9609-10.5469,6.75V184.8769l10.5469-6.5391Z"/><path class="cls-12" d="M307.9008,172.2206l-2.6718-1.4765a4.2684,4.2684,0,0,1-.9141,2.25l2.25,1.3359A3.0955,3.0955,0,0,1,307.9008,172.2206Z"/><path class="cls-12" d="M299.1118,170.3925v.1407a2.407,2.407,0,0,0,.914,1.9687l1.7579-.9844,1.4765.8438a2.3307,2.3307,0,0,0,.7734-1.8281,1.1966,1.1966,0,0,0-.07-.4922l-2.1093-1.1954Z"/><path class="cls-12" d="M296.8618,174.33l2.18-1.2656a3.8129,3.8129,0,0,1-1.0547-2.0391l-2.32,1.336A4.0434,4.0434,0,0,1,296.8618,174.33Z"/><circle class="cls-13" cx="301.5727" cy="181.7128" r="2.4609"/><circle class="cls-14" cx="301.5727" cy="159.3535" r="2.4609"/><circle class="cls-14" cx="310.0805" cy="175.1035" r="2.4609"/><circle class="cls-14" cx="293.2758" cy="175.1035" r="2.4609"/><circle class="cls-13" cx="310.0805" cy="163.9238" r="2.4609"/><circle class="cls-13" cx="293.4868" cy="164.205" r="2.4609"/><path class="cls-15" d="M312.4712,175.1035a2.3251,2.3251,0,0,0-2.461-2.461v4.8516A2.3462,2.3462,0,0,0,312.4712,175.1035Z"/><path class="cls-15" d="M307.62,175.1035a2.325,2.325,0,0,0,2.4609,2.4609v-4.8516A2.43,2.43,0,0,0,307.62,175.1035Z"/><path class="cls-14" d="M301.5727,168.0722a2.4443,2.4443,0,0,0-2.4609,2.4609,2.461,2.461,0,1,0,2.4609-2.4609Z"/><rect class="cls-16" x="497.8862" y="177.7626" width="48.5" height="12.7886"/><path class="cls-17" d="M545.636,178.5125v11.2884h-47V178.5125h47m1.5-1.5h-50v14.2884h50V177.0125Z"/><rect class="cls-17" x="519.8802" y="182.9041" width="21.5216" height="2.8962"/><circle class="cls-17" cx="514.5953" cy="184.3521" r="1.713"/><circle class="cls-17" cx="509.2086" cy="184.3521" r="1.713"/><circle class="cls-17" cx="503.8219" cy="184.3521" r="1.713"/><polygon class="cls-18" points="498.356 176.263 501.089 170.856 542.617 170.856 545.82 176.263 498.356 176.263"/><path class="cls-17" d="M542.19,171.606l2.3143,3.9065H499.5755l1.9756-3.9065H542.19m.8548-1.5H500.6288l-3.4928,6.9065h50l-4.0917-6.9065Z"/><path class="cls-19" d="M82.2007,187.5368A11.6667,11.6667,0,1,0,70.5341,175.87,11.6657,11.6657,0,0,0,82.2007,187.5368Zm0-22.1667a10.5,10.5,0,1,1-10.5,10.5A10.5117,10.5117,0,0,1,82.2007,165.37Zm9.3334,24.5H72.8674a4.6669,4.6669,0,0,0-4.6667,4.6667v4.6666h28v-4.6666A4.6669,4.6669,0,0,0,91.5341,189.87Z"/><path class="cls-19" d="M88.2756,173.1952l-1.65-1.65L80.4507,177.72l-2.6751-2.6751-1.65,1.65,4.3248,4.3248Z"/><polygon class="cls-5" points="874.167 366.033 880.667 353.694 874.167 353.694 867.667 353.694 874.167 366.033"/><polygon class="cls-5" points="603.242 357.864 616.242 364.712 616.242 357.864 616.242 351.015 603.242 357.864"/><rect class="cls-19" x="479.5675" width="440.4325" height="48.161"/><rect class="cls-9" x="-0.4193" width="480" height="48.161"/><path class="cls-20" d="M729.8227,171.239a10.8557,10.8557,0,1,0,9.797,15.5081h5.7111l.7753-1.5508.7754.7754.7755.7754H762.39l4.6525-4.6524-4.6525-4.6525H739.62a10.8461,10.8461,0,0,0-9.797-6.2032"/><path class="cls-21" d="M762.9093,176.87l-22.6417-.0005a11.6387,11.6387,0,1,0,0,10.9658l4.3653.0005,1.8276-1.8277,1.8277,1.8277h14.6211l5.4829-5.4829Zm-.5353,9.6734-13.55,0-1.4494-1.4493-.9138-.9138-.9138.9138-1.4491,1.4491-3.83,0h-.7749l-.3651.6836a10.3437,10.3437,0,1,1,0-9.7475l.3651.6826h.7745l22.1062,0,4.1908,4.1908Z"/><circle class="cls-21" cx="726.2455" cy="182.3321" r="2.5847"/><rect class="cls-21" x="750.0045" y="181.6859" width="10.9657" height="1.2923"/></g><g id="Text"><g id="IBM_Cloud" data-name="IBM Cloud"><path class="cls-22" d="M40.13,94.5024V92.3818h1.84V82.66H40.13V80.54h6.3413V82.66h-1.86v9.7217h1.86v2.1206Z"/><path class="cls-22" d="M49.17,80.54h6.4615A3.3943,3.3943,0,0,1,59.3324,84.12c0,2.1207-1.2207,2.9209-2.5009,3.001v.12a3.0613,3.0613,0,0,1,3.021,3.2607,3.7518,3.7518,0,0,1-3.6011,4.001H49.17Zm2.6407,5.8213h3.2607a1.3783,1.3783,0,0,0,1.5205-1.48v-.62a1.369,1.369,0,0,0-1.5205-1.48H51.8105Zm0,5.9009h3.6811a1.4225,1.4225,0,0,0,1.6-1.52v-.68a1.4371,1.4371,0,0,0-1.6-1.5406H51.8105Z"/><path class="cls-22" d="M72.9921,84.58h-.08l-1.06,2.1206-2.9009,5.2813-2.86-5.2613-1.1-2.24h-.06v10.022H62.43V80.54h2.9209l3.5806,6.8213h.06L72.5522,80.54h2.94V94.5024H72.9921Z"/><path class="cls-22" d="M82.8891,87.621c0-4.7011,2.3408-7.3218,6.0215-7.3218a5.0917,5.0917,0,0,1,5.101,3.2208l-2.26,1.2a2.7635,2.7635,0,0,0-2.8408-2.08c-1.96,0-3.2207,1.42-3.2207,3.8008v2.2c0,2.4,1.26,3.7608,3.2207,3.7608a3.1025,3.1025,0,0,0,3.02-2.22l2.1406,1.26a5.3641,5.3641,0,0,1-5.1611,3.3008C85.23,94.7426,82.8891,92.3217,82.8891,87.621Z"/><path class="cls-22" d="M98.73,94.5024a2.2643,2.2643,0,0,1-2.5605-2.52V79.6992H98.73V92.4618h1.38v2.0406Z"/><path class="cls-22" d="M101.349,89.2612c0-3.3409,1.86-5.441,4.8409-5.441,3.0009,0,4.8613,2.1,4.8613,5.441,0,3.3608-1.86,5.4814-4.8613,5.4814C103.2094,94.7426,101.349,92.622,101.349,89.2612Zm7.0215.98v-1.94c0-1.56-.84-2.4209-2.1806-2.4209-1.32,0-2.16.86-2.16,2.4209v1.94c0,1.58.84,2.4405,2.16,2.4405C107.53,92.6821,108.3705,91.8217,108.3705,90.2416Z"/><path class="cls-22" d="M119.55,92.7621h-.1a2.833,2.833,0,0,1-2.92,1.98c-2.1406,0-3.3408-1.48-3.3408-4.081V84.06h2.56v6.3413c0,1.44.54,2.2207,1.76,2.2207,1.02,0,2.0405-.54,2.0405-1.66V84.06h2.5606V94.5024H119.55Z"/><path class="cls-22" d="M131.55,92.7621h-.1a2.9332,2.9332,0,0,1-2.8808,1.98c-2.6206,0-4.0806-1.98-4.0806-5.4814,0-3.4805,1.46-5.441,4.0806-5.441a2.8748,2.8748,0,0,1,2.8808,1.96h.1V79.6992h2.5606V94.5024H131.55Zm0-1.84V87.601c0-1.02-.94-1.6807-2.1606-1.6807a2.2241,2.2241,0,0,0-2.2207,2.461v1.8a2.2069,2.2069,0,0,0,2.2207,2.44C130.61,92.622,131.55,92.0019,131.55,90.9218Z"/></g><path class="cls-22" d="M490.1508,260.0571h-6.3564v5.9775h-1.5127V253.4672h1.5127v5.2569h6.3564v-5.2569h1.5117v12.5674h-1.5117Z"/><path class="cls-22" d="M501.6156,266.0346a1.5009,1.5009,0,0,1-1.6025-1.5127h-.09a2.6239,2.6239,0,0,1-2.6827,1.7285c-1.9628,0-3.1152-1.08-3.1152-2.8086,0-1.7461,1.2608-2.7187,3.9609-2.7187h1.837v-.918c0-1.3144-.7207-2.0351-2.1963-2.0351a2.5925,2.5925,0,0,0-2.3594,1.3867l-.8643-.8106a3.5317,3.5317,0,0,1,3.295-1.8183c2.2334,0,3.5654,1.17,3.5654,3.1328v5.1133h1.0625v1.2607Zm-1.6923-2.7012v-1.53h-1.9082c-1.6387,0-2.377.5039-2.377,1.4043v.3779c0,.9189.72,1.4414,1.8359,1.4414C498.8969,265.0268,499.9233,264.2885,499.9233,263.3334Z"/><path class="cls-22" d="M504.476,266.0346v-9.291h1.44v1.7109h.09a2.6693,2.6693,0,0,1,2.6826-1.7109h.5586v1.44h-.8467c-1.5479,0-2.4844.666-2.4844,1.5488v6.3018Z"/><path class="cls-22" d="M516.9154,264.5219h-.0722a2.8,2.8,0,0,1-2.7188,1.7285c-2.3222,0-3.7812-1.8906-3.7812-4.8613s1.459-4.8613,3.7812-4.8613a2.7145,2.7145,0,0,1,2.7188,1.7285h.0722V252.71h1.4405v13.3242h-1.4405Zm0-1.458v-3.457c0-1.0264-1.08-1.7832-2.3945-1.7832a2.5357,2.5357,0,0,0-2.6289,2.7734v1.584a2.5351,2.5351,0,0,0,2.6289,2.7734C515.8354,264.9545,516.9154,264.27,516.9154,263.0639Z"/><path class="cls-22" d="M520.4408,256.7436h1.4043l.9912,4.0156.99,4.0693h.0351l1.1348-4.0693,1.17-4.0156h1.2793l1.2061,4.0156,1.1523,4.0693h.0362l.9541-4.0693,1.0087-4.0156h1.35l-2.4668,9.291h-1.7823l-1.2968-4.4648-.81-2.8272h-.0361l-.792,2.8272-1.2969,4.4648h-1.7461Z"/><path class="cls-22" d="M541.8276,266.0346a1.501,1.501,0,0,1-1.6026-1.5127h-.09a2.6238,2.6238,0,0,1-2.6826,1.7285c-1.9629,0-3.1153-1.08-3.1153-2.8086,0-1.7461,1.2608-2.7187,3.9619-2.7187h1.836v-.918c0-1.3144-.72-2.0351-2.1963-2.0351a2.5947,2.5947,0,0,0-2.3594,1.3867l-.8642-.8106a3.5326,3.5326,0,0,1,3.2949-1.8183c2.2334,0,3.5654,1.17,3.5654,3.1328v5.1133h1.0625v1.2607Zm-1.6924-2.7012v-1.53H538.227c-1.6387,0-2.377.5039-2.377,1.4043v.3779c0,.9189.7207,1.4414,1.8369,1.4414C539.1088,265.0268,540.1352,264.2885,540.1352,263.3334Z"/><path class="cls-22" d="M544.6869,266.0346v-9.291h1.44v1.7109h.09a2.67,2.67,0,0,1,2.6836-1.7109h.5576v1.44h-.8457c-1.5488,0-2.4853.666-2.4853,1.5488v6.3018Z"/><path class="cls-22" d="M550.52,261.3891c0-2.9531,1.6563-4.8613,4.1768-4.8613,2.4844,0,4.0156,1.9082,4.0156,4.5371v.6845h-6.6806v.4317a2.632,2.632,0,0,0,2.7548,2.81,2.6912,2.6912,0,0,0,2.5567-1.6026l1.0263.7383a3.8973,3.8973,0,0,1-3.6728,2.124C552.1762,266.25,550.52,264.3422,550.52,261.3891Zm1.5118-.8457v.126h5.1318v-.1983a2.4714,2.4714,0,0,0-2.4668-2.7373A2.6413,2.6413,0,0,0,552.0317,260.5434Z"/><path class="cls-22" d="M457.9467,286.0317l1.0254-.8282a3.3737,3.3737,0,0,0,2.7549,1.4229c1.2246,0,1.9453-.5586,1.9453-1.5127,0-.7207-.3965-1.2783-1.6211-1.459l-.7383-.1074c-1.71-.252-2.9883-.9541-2.9883-2.6826,0-1.8369,1.4219-2.7373,3.3125-2.7373a3.8693,3.8693,0,0,1,3.2412,1.4941l-.9541.8643a2.8665,2.8665,0,0,0-2.3945-1.1338c-1.1885,0-1.8193.5576-1.8193,1.44,0,.9.6308,1.26,1.7832,1.44l.72.1075c2.0527.3066,2.8447,1.207,2.8447,2.6113,0,1.8008-1.3144,2.8984-3.4385,2.8984A4.315,4.315,0,0,1,457.9467,286.0317Z"/><path class="cls-22" d="M466.9106,282.9887c0-2.9531,1.6562-4.8613,4.1767-4.8613,2.4854,0,4.0156,1.9082,4.0156,4.5371v.6846h-6.68v.4316a2.632,2.632,0,0,0,2.7548,2.81,2.6929,2.6929,0,0,0,2.5567-1.6026l1.0264.7383a3.9,3.9,0,0,1-3.6739,2.124C468.5668,287.85,466.9106,285.9418,466.9106,282.9887Zm1.5127-.8457v.126h5.1308v-.1983a2.4714,2.4714,0,0,0-2.4668-2.7373A2.6405,2.6405,0,0,0,468.4233,282.143Z"/><path class="cls-22" d="M476.7924,282.9887c0-2.9707,1.53-4.8613,4.1406-4.8613a3.4826,3.4826,0,0,1,3.4756,2.1787l-1.206.6123a2.24,2.24,0,0,0-2.27-1.5127,2.4948,2.4948,0,0,0-2.5927,2.791v1.584a2.4948,2.4948,0,0,0,2.5927,2.791,2.623,2.623,0,0,0,2.5215-1.62l1.044.7021a3.6635,3.6635,0,0,1-3.5655,2.1963C478.3227,287.85,476.7924,285.9594,476.7924,282.9887Z"/><path class="cls-22" d="M492.2563,286.1215h-.0723a2.5818,2.5818,0,0,1-2.6113,1.7285c-1.9082,0-3.1328-1.2959-3.1328-3.5468v-5.96h1.44v5.708c0,1.6563.7383,2.5029,2.125,2.5029,1.1338,0,2.251-.5586,2.251-1.7832v-6.4277h1.44v9.291h-1.44Z"/><path class="cls-22" d="M496.7543,287.6342v-9.291h1.44v1.7109h.09a2.6693,2.6693,0,0,1,2.6826-1.7109h.5586v1.44h-.8467c-1.5478,0-2.4844.666-2.4844,1.5489v6.3017Z"/><path class="cls-22" d="M503.1977,275.3549v-.2344c0-.4863.2705-.81.8818-.81s.8828.3242.8828.81v.2344c0,.4854-.2705.81-.8828.81S503.1977,275.84,503.1977,275.3549Zm.1621,2.9883h1.44v9.291h-1.44Z"/><path class="cls-22" d="M509.9125,287.6342a1.4181,1.4181,0,0,1-1.53-1.53v-6.5H506.851v-1.2607h.8643c.6123,0,.81-.2158.81-.8457V275.769h1.2969v2.5742h2.0342v1.2607h-2.0342v6.77h1.8906v1.2607Z"/><path class="cls-22" d="M519.9037,278.3432h1.4229l-4.1592,11.4512c-.4141,1.1172-.793,1.4414-2.1611,1.4414h-.7383V289.975h1.459l.7021-1.98-3.4756-9.6514h1.4405l2.2324,6.32.4326,1.5127h.09l.504-1.5127Z"/><path class="cls-22" d="M527.4076,287.6342v-9.291h1.4405v1.5127h.0722a2.5006,2.5006,0,0,1,2.503-1.7285,2.86,2.86,0,0,1,2.8447,1.8906h.0361a2.7853,2.7853,0,0,1,2.8262-1.8906c1.8906,0,3.0254,1.2959,3.0254,3.5468v5.96h-1.44v-5.708c0-1.6377-.63-2.5029-2.0352-2.5029-1.1338,0-2.1777.5761-2.1777,1.7646v6.4463h-1.44v-5.708c0-1.6562-.6308-2.5029-1.999-2.5029-1.1348,0-2.2148.5761-2.2148,1.7646v6.4463Z"/><path class="cls-22" d="M542.4379,282.9887c0-2.9531,1.71-4.8613,4.1953-4.8613s4.1944,1.9082,4.1944,4.8613-1.71,4.8613-4.1944,4.8613S542.4379,285.9418,542.4379,282.9887Zm6.8418.666v-1.332c0-1.9629-1.0986-2.917-2.6465-2.917s-2.6474.9541-2.6474,2.917v1.332c0,1.9629,1.0986,2.917,2.6474,2.917S549.28,285.6176,549.28,283.6547Z"/><path class="cls-22" d="M559.144,286.1215h-.0723a2.8012,2.8012,0,0,1-2.7188,1.7285c-2.3232,0-3.7812-1.8906-3.7812-4.8613s1.458-4.8613,3.7812-4.8613a2.7145,2.7145,0,0,1,2.7188,1.7285h.0723V274.31h1.44v13.3242h-1.44Zm0-1.458v-3.457c0-1.0264-1.0811-1.7832-2.3955-1.7832a2.5362,2.5362,0,0,0-2.629,2.7734v1.584a2.5357,2.5357,0,0,0,2.629,2.7734C558.0629,286.5541,559.144,285.87,559.144,284.6635Z"/><path class="cls-22" d="M569.3666,286.1215h-.0713a2.5818,2.5818,0,0,1-2.6113,1.7285c-1.9082,0-3.1328-1.2959-3.1328-3.5468v-5.96h1.44v5.708c0,1.6563.7383,2.5029,2.125,2.5029,1.1338,0,2.25-.5586,2.25-1.7832v-6.4277h1.44v9.291h-1.44Z"/><path class="cls-22" d="M575.3949,287.6342a1.4084,1.4084,0,0,1-1.53-1.4941V274.31h1.44v12.0635h1.3682v1.2607Z"/><path class="cls-22" d="M578.0776,282.9887c0-2.9531,1.6562-4.8613,4.1767-4.8613,2.4844,0,4.0156,1.9082,4.0156,4.5371v.6846h-6.6806v.4316a2.632,2.632,0,0,0,2.7549,2.81,2.691,2.691,0,0,0,2.5566-1.6026l1.0264.7383a3.8986,3.8986,0,0,1-3.6729,2.124C579.7338,287.85,578.0776,285.9418,578.0776,282.9887Zm1.5117-.8457v.126h5.1318v-.1983a2.4714,2.4714,0,0,0-2.4668-2.7373A2.6413,2.6413,0,0,0,579.5893,282.143Z"/><path class="cls-22" d="M263.3031,259.8588l-1.7832,1.9805v4.1953h-1.5127V253.4672H261.52v6.68h.0547l1.8-2.1787,3.8-4.501h1.8545l-4.6816,5.3828,5.0058,7.1846H267.48Z"/><path class="cls-22" d="M270.141,261.3891c0-2.9531,1.6573-4.8613,4.1778-4.8613,2.4843,0,4.0146,1.9082,4.0146,4.5371v.6845h-6.68v.4317a2.632,2.632,0,0,0,2.7549,2.81,2.6931,2.6931,0,0,0,2.5567-1.6026l1.0263.7383a3.8984,3.8984,0,0,1-3.6728,2.124C271.7983,266.25,270.141,264.3422,270.141,261.3891Zm1.5127-.8457v.126h5.1319v-.1983a2.4714,2.4714,0,0,0-2.4668-2.7373A2.6414,2.6414,0,0,0,271.6537,260.5434Z"/><path class="cls-22" d="M286.3432,256.7436h1.4228l-4.1591,11.4512c-.4141,1.1171-.793,1.4414-2.1612,1.4414h-.7383v-1.2608h1.459l.7022-1.98-3.4756-9.6514h1.44l2.2324,6.32.4327,1.5127h.09l.5039-1.5127Z"/><path class="cls-22" d="M293.9916,266.0346V253.4672h5.0059a3.6023,3.6023,0,0,1,0,7.2022h-3.4932v5.3652Zm1.5127-6.6982h3.4932a1.6834,1.6834,0,0,0,1.8906-1.8V256.6a1.6841,1.6841,0,0,0-1.8906-1.8008h-3.4932Z"/><path class="cls-22" d="M304.5746,266.0346v-9.291h1.4405v1.7109h.0908a2.6683,2.6683,0,0,1,2.6826-1.7109h.5576v1.44H308.5c-1.5488,0-2.4853.666-2.4853,1.5488v6.3018Z"/><path class="cls-22" d="M310.4067,261.3891c0-2.9531,1.7109-4.8613,4.1953-4.8613s4.1953,1.9082,4.1953,4.8613-1.71,4.8613-4.1953,4.8613S310.4067,264.3422,310.4067,261.3891Zm6.8427.666v-1.332c0-1.9629-1.0986-2.917-2.6474-2.917s-2.6465.9541-2.6465,2.917v1.332c0,1.9629,1.0986,2.917,2.6465,2.917S317.2494,264.018,317.2494,262.0551Z"/><path class="cls-22" d="M323.224,266.0346a1.418,1.418,0,0,1-1.53-1.53v-6.5h-1.5313v-1.2607h.8643c.6123,0,.8105-.2158.8105-.8457v-1.7285h1.2969v2.5742h2.0342v1.2607h-2.0342v6.77h1.8906v1.2607Z"/><path class="cls-22" d="M326.7328,261.3891c0-2.9531,1.6573-4.8613,4.1778-4.8613,2.4843,0,4.0146,1.9082,4.0146,4.5371v.6845h-6.68v.4317a2.632,2.632,0,0,0,2.7549,2.81,2.6929,2.6929,0,0,0,2.5566-1.6026l1.0264.7383a3.8984,3.8984,0,0,1-3.6728,2.124C328.39,266.25,326.7328,264.3422,326.7328,261.3891Zm1.5127-.8457v.126h5.1319v-.1983a2.4714,2.4714,0,0,0-2.4668-2.7373A2.6414,2.6414,0,0,0,328.2455,260.5434Z"/><path class="cls-22" d="M336.6147,261.3891c0-2.9707,1.5312-4.8613,4.1416-4.8613a3.4813,3.4813,0,0,1,3.4746,2.1787l-1.2061.6123a2.238,2.238,0,0,0-2.2685-1.5127,2.4944,2.4944,0,0,0-2.5928,2.791v1.584a2.4944,2.4944,0,0,0,2.5928,2.791,2.6217,2.6217,0,0,0,2.52-1.62l1.0449.7021a3.6643,3.6643,0,0,1-3.5654,2.1963C338.1459,266.25,336.6147,264.36,336.6147,261.3891Z"/><path class="cls-22" d="M348.4057,266.0346a1.4181,1.4181,0,0,1-1.53-1.53v-6.5h-1.5312v-1.2607h.8642c.6123,0,.8106-.2158.8106-.8457v-1.7285h1.2968v2.5742H350.35v1.2607h-2.0342v6.77h1.8907v1.2607Z"/><path class="cls-22" d="M65.5112,266.0346l-1.2608-3.709H59.1733l-1.2608,3.709h-1.53l4.3936-12.5674h1.9258l4.3935,12.5674Zm-3.7637-11.1631h-.09l-2.125,6.1221h4.34Z"/><path class="cls-22" d="M74.9779,264.5219h-.0722a2.8014,2.8014,0,0,1-2.7188,1.7285c-2.3222,0-3.7812-1.8906-3.7812-4.8613s1.459-4.8613,3.7812-4.8613a2.7145,2.7145,0,0,1,2.7188,1.7285h.0722V252.71h1.4405v13.3242h-1.44Zm0-1.458v-3.457c0-1.0264-1.08-1.7832-2.3945-1.7832a2.5357,2.5357,0,0,0-2.6289,2.7734v1.584a2.5351,2.5351,0,0,0,2.6289,2.7734C73.8979,264.9545,74.9779,264.27,74.9779,263.0639Z"/><path class="cls-22" d="M79.476,266.0346v-9.291h1.44v1.5127h.0723a2.4993,2.4993,0,0,1,2.5019-1.7285,2.8612,2.8612,0,0,1,2.8457,1.8906h.0352a2.7875,2.7875,0,0,1,2.8272-1.8906c1.8906,0,3.0253,1.2959,3.0253,3.5468v5.96h-1.44v-5.708c0-1.6377-.6308-2.5029-2.0351-2.5029-1.1338,0-2.1788.5761-2.1788,1.7646v6.4463h-1.44v-5.708c0-1.6563-.63-2.5029-1.998-2.5029-1.1348,0-2.2149.5761-2.2149,1.7646v6.4463Z"/><path class="cls-22" d="M95.0278,253.7553v-.2344c0-.4863.27-.8105.8818-.8105s.8828.3242.8828.8105v.2344c0,.4854-.27.81-.8828.81S95.0278,254.2407,95.0278,253.7553Zm.1621,2.9883h1.44v9.291H95.19Z"/><path class="cls-22" d="M99.69,266.0346v-9.291h1.44v1.5127h.0723a2.6344,2.6344,0,0,1,2.6289-1.7285c1.9082,0,3.1142,1.2959,3.1142,3.5468v5.96h-1.44v-5.708c0-1.6563-.72-2.5029-2.1065-2.5029-1.1523,0-2.2685.5761-2.2685,1.7646v6.4463Z"/><path class="cls-22" d="M500.4184,80.54h5.081c3.6407,0,6.0215,2.34,6.0215,6.9814s-2.3808,6.9815-6.0215,6.9815h-5.081Zm5.081,11.6225c1.96,0,3.2207-1.1606,3.2207-3.541v-2.2c0-2.3808-1.2607-3.541-3.2207-3.541h-2.44v9.2822Z"/><path class="cls-22" d="M513.2983,91.662c0-2.14,1.62-3.2006,4.4609-3.2006h1.78v-.76c0-1.1607-.58-1.8408-1.94-1.8408a2.72,2.72,0,0,0-2.3808,1.32l-1.52-1.36a4.3971,4.3971,0,0,1,4.081-2.0005c2.82,0,4.3213,1.34,4.3213,3.7207v4.9209h1.04v2.0406h-1.42a1.8992,1.8992,0,0,1-1.94-1.8h-.12a2.8243,2.8243,0,0,1-3.041,2.04C514.4985,94.7431,513.2983,93.5229,513.2983,91.662Zm6.2412-.28v-1.38h-1.6407c-1.34,0-2,.46-2,1.28v.34c0,.84.58,1.26,1.58,1.26C518.62,92.8827,519.54,92.3622,519.54,91.3823Z"/><path class="cls-22" d="M528.3988,94.5029a2.4162,2.4162,0,0,1-2.7-2.6607V86.081h-1.5411v-2.02h.8008c.76,0,1-.36,1-1.08V81.2h2.3008v2.86h2.14v2.02h-2.14v6.3813H530.24v2.0406Z"/><path class="cls-22" d="M531.8774,91.662c0-2.14,1.62-3.2006,4.4609-3.2006h1.78v-.76c0-1.1607-.58-1.8408-1.9405-1.8408a2.7179,2.7179,0,0,0-2.38,1.32l-1.5205-1.36a4.396,4.396,0,0,1,4.081-2.0005c2.82,0,4.32,1.34,4.32,3.7207v4.9209h1.04v2.0406h-1.42a1.9,1.9,0,0,1-1.94-1.8h-.12a2.8232,2.8232,0,0,1-3.04,2.04C533.0776,94.7431,531.8774,93.5229,531.8774,91.662Zm6.2412-.28v-1.38h-1.64c-1.3408,0-2.001.46-2.001,1.28v.34c0,.84.58,1.26,1.58,1.26C537.1987,92.8827,538.1186,92.3622,538.1186,91.3823Z"/><path class="cls-22" d="M547.8178,89.2617c0-3.3409,1.74-5.441,4.82-5.441a4.0373,4.0373,0,0,1,4.1016,2.6407l-2.1006.94a1.95,1.95,0,0,0-2.001-1.5205c-1.42,0-2.14,1.0005-2.14,2.4609v1.9c0,1.46.72,2.44,2.14,2.44a2.2343,2.2343,0,0,0,2.2012-1.6406l1.96.9405a4.08,4.08,0,0,1-4.1611,2.7607C549.558,94.7431,547.8178,92.6225,547.8178,89.2617Z"/><path class="cls-22" d="M557.977,89.2617c0-3.3008,1.78-5.441,4.8408-5.441,3.2607,0,4.7607,2.4,4.7607,5.2608v.84h-6.9414v.26a2.32,2.32,0,0,0,2.541,2.52,3.1707,3.1707,0,0,0,2.66-1.42l1.3809,1.54a5.1694,5.1694,0,0,1-4.3213,1.92C559.8168,94.7431,557.977,92.6025,557.977,89.2617Zm2.66-1.08v.16h4.2813v-.18c0-1.44-.74-2.4205-2.0606-2.4205A2.2171,2.2171,0,0,0,560.6371,88.1816Z"/><path class="cls-22" d="M569.8373,94.5029V84.0605h2.5606v1.7407h.1a2.8808,2.8808,0,0,1,2.9209-1.98c2.1406,0,3.3408,1.48,3.3408,4.0806v6.6016h-2.56V88.1616c0-1.4805-.5-2.2408-1.7208-2.2408-1.0595,0-2.08.5606-2.08,1.6807v6.9014Z"/><path class="cls-22" d="M584.8578,94.5029a2.417,2.417,0,0,1-2.7011-2.6607V86.081h-1.54v-2.02h.8c.7608,0,1.001-.36,1.001-1.08V81.2h2.3v2.86h2.1406v2.02h-2.1406v6.3813h1.9805v2.0406Z"/><path class="cls-22" d="M588.2973,89.2617c0-3.3008,1.78-5.441,4.8408-5.441,3.2607,0,4.7607,2.4,4.7607,5.2608v.84h-6.9414v.26a2.32,2.32,0,0,0,2.5411,2.52,3.1707,3.1707,0,0,0,2.66-1.42l1.3809,1.54a5.1694,5.1694,0,0,1-4.3213,1.92C590.1371,94.7431,588.2973,92.6025,588.2973,89.2617Zm2.66-1.08v.16h4.2813v-.18c0-1.44-.74-2.4205-2.0606-2.4205A2.2171,2.2171,0,0,0,590.9574,88.1816Z"/><path class="cls-22" d="M600.1576,94.5029V84.0605h2.5606v2.1606h.1a2.679,2.679,0,0,1,2.7607-2.1606h.5606v2.4209h-.8008c-1.72,0-2.62.48-2.62,1.62v6.4014Z"/><path class="cls-22" d="M710.6,264.1977h-.0537c-.3057,1.1709-1.584,2.0527-3.4932,2.0527-3.0791,0-5.2216-2.2861-5.2216-6.5,0-4.1767,2.125-6.5,5.3476-6.5a4.8162,4.8162,0,0,1,4.5733,2.7549l-1.2422.7568a3.4633,3.4633,0,0,0-3.3311-2.1611c-2.2138,0-3.7265,1.6387-3.7265,4.1231v2.0351c0,2.4844,1.4765,4.1406,3.8711,4.1406,1.746,0,3.205-.8994,3.205-2.7539v-1.2431h-2.7734v-1.3321h4.25v6.4639H710.6Z"/><path class="cls-22" d="M714.144,261.3891c0-2.9531,1.6562-4.8613,4.1767-4.8613,2.4844,0,4.0156,1.9082,4.0156,4.5371v.6845h-6.6806v.4317a2.632,2.632,0,0,0,2.7549,2.81,2.6909,2.6909,0,0,0,2.5566-1.6026l1.0264.7383a3.8986,3.8986,0,0,1-3.6729,2.124C715.8,266.25,714.144,264.3422,714.144,261.3891Zm1.5117-.8457v.126h5.1318v-.1983a2.4714,2.4714,0,0,0-2.4668-2.7373A2.6413,2.6413,0,0,0,715.6557,260.5434Z"/><path class="cls-22" d="M724.7094,266.0346v-9.291h1.44v1.5127h.0723a2.6345,2.6345,0,0,1,2.6289-1.7285c1.9082,0,3.1143,1.2959,3.1143,3.5468v5.96h-1.4395v-5.708c0-1.6563-.7207-2.5029-2.1074-2.5029-1.1524,0-2.2686.5761-2.2686,1.7646v6.4463Z"/><path class="cls-22" d="M734.2494,261.3891c0-2.9531,1.6563-4.8613,4.1768-4.8613,2.4844,0,4.0156,1.9082,4.0156,4.5371v.6845h-6.6806v.4317a2.632,2.632,0,0,0,2.7548,2.81,2.6912,2.6912,0,0,0,2.5567-1.6026l1.0263.7383a3.8984,3.8984,0,0,1-3.6728,2.124C735.9057,266.25,734.2494,264.3422,734.2494,261.3891Zm1.5118-.8457v.126h5.1318v-.1983a2.4714,2.4714,0,0,0-2.4668-2.7373A2.6413,2.6413,0,0,0,735.7612,260.5434Z"/><path class="cls-22" d="M744.8158,266.0346v-9.291h1.4405v1.7109h.09a2.67,2.67,0,0,1,2.6836-1.7109h.5576v1.44h-.8457c-1.5488,0-2.4853.666-2.4853,1.5488v6.3018Z"/><path class="cls-22" d="M758.101,266.0346a1.5009,1.5009,0,0,1-1.6025-1.5127h-.09a2.6238,2.6238,0,0,1-2.6826,1.7285c-1.9629,0-3.1152-1.08-3.1152-2.8086,0-1.7461,1.2607-2.7187,3.9619-2.7187h1.8359v-.918c0-1.3144-.72-2.0351-2.1963-2.0351a2.5947,2.5947,0,0,0-2.3594,1.3867l-.8642-.8106a3.5328,3.5328,0,0,1,3.2949-1.8183c2.2334,0,3.5654,1.17,3.5654,3.1328v5.1133h1.0625v1.2607Zm-1.6924-2.7012v-1.53H754.5c-1.6387,0-2.3769.5039-2.3769,1.4043v.3779c0,.9189.7207,1.4414,1.8369,1.4414C755.3822,265.0268,756.4086,264.2885,756.4086,263.3334Z"/><path class="cls-22" d="M763.0141,266.0346a1.4181,1.4181,0,0,1-1.53-1.53v-6.5h-1.53v-1.2607h.8643c.6123,0,.81-.2158.81-.8457v-1.7285h1.2968v2.5742h2.0342v1.2607h-2.0342v6.77h1.8907v1.2607Z"/><path class="cls-22" d="M766.5238,261.3891c0-2.9531,1.6563-4.8613,4.1768-4.8613,2.4844,0,4.0156,1.9082,4.0156,4.5371v.6845h-6.6806v.4317a2.632,2.632,0,0,0,2.7548,2.81,2.6912,2.6912,0,0,0,2.5567-1.6026l1.0264.7383a3.8976,3.8976,0,0,1-3.6729,2.124C768.18,266.25,766.5238,264.3422,766.5238,261.3891Zm1.5118-.8457v.126h5.1318v-.1983a2.4714,2.4714,0,0,0-2.4668-2.7373A2.6413,2.6413,0,0,0,768.0356,260.5434Z"/><path class="cls-22" d="M783.0317,264.5219h-.0723a2.8014,2.8014,0,0,1-2.7188,1.7285c-2.3232,0-3.7812-1.8906-3.7812-4.8613s1.458-4.8613,3.7812-4.8613a2.7145,2.7145,0,0,1,2.7188,1.7285h.0723V252.71h1.44v13.3242h-1.44Zm0-1.458v-3.457c0-1.0264-1.0811-1.7832-2.3955-1.7832a2.5354,2.5354,0,0,0-2.628,2.7734v1.584a2.5349,2.5349,0,0,0,2.628,2.7734C781.9506,264.9545,783.0317,264.27,783.0317,263.0639Z"/><path class="cls-22" d="M730.9467,274.31h1.44v8.4443h.0723l1.4219-1.584,2.6289-2.8271h1.747l-3.4394,3.6738,3.7812,5.6172h-1.7461l-3.0791-4.7353-1.3867,1.4228v3.3125h-1.44Z"/><path class="cls-22" d="M739.4428,282.9887c0-2.9531,1.6562-4.8613,4.1767-4.8613,2.4844,0,4.0157,1.9082,4.0157,4.5371v.6846h-6.6807v.4316a2.632,2.632,0,0,0,2.7549,2.81,2.6909,2.6909,0,0,0,2.5566-1.6026l1.0264.7383a3.8985,3.8985,0,0,1-3.6729,2.124C741.099,287.85,739.4428,285.9418,739.4428,282.9887Zm1.5117-.8457v.126h5.1318v-.1983a2.4714,2.4714,0,0,0-2.4668-2.7373A2.6413,2.6413,0,0,0,740.9545,282.143Z"/><path class="cls-22" d="M755.644,278.3432h1.4228l-4.1592,11.4512c-.414,1.1172-.792,1.4414-2.1611,1.4414h-.7383V289.975h1.459l.7022-1.98-3.4756-9.6514h1.44l2.2334,6.32.4316,1.5127h.09l.5049-1.5127Z"/></g></svg>