<svg xmlns="http://www.w3.org/2000/svg" viewBox="0 0 870 171"><defs><clipPath id="a"><path fill="none" d="M57.37 68.78h45v20.94h-45z"/></clipPath><clipPath id="b"><path fill="none" d="M57.89 69.25h43.27v19.54H57.89z"/></clipPath></defs><g data-name="Visual"><g opacity=".5"><path fill="none" stroke="#a71c71" stroke-miterlimit="10" stroke-dasharray="1 1" d="M300 94.5h391.32"/><path fill="#a71c71" d="M689.87 99.49l8.63-4.99-8.63-4.99v9.98z"/></g><g opacity=".5"><path fill="none" stroke="#a71c71" stroke-miterlimit="10" stroke-dasharray="1 1" d="M477.5 110.5h213.82"/><path fill="#a71c71" d="M689.87 115.49l8.63-4.99-8.63-4.99v9.98z"/></g><path fill="#edf5ff" stroke="#69a6ff" stroke-miterlimit="10" stroke-width=".25" d="M339 40h140v80H339zm-180 .07h140v80H159zM519 40h140v80H519zm180 0h140v80H699z"/><circle cx="184" cy="80" r="5" fill="#efc100"/><circle cx="364" cy="79" r="5" fill="#5aa700"/><circle cx="724" cy="79" r="5" fill="#e71d32"/><circle cx="544" cy="79" r="5" fill="#868c91"/><path fill="#a71c71" d="M118.5 79.5h40"/><path fill="none" stroke="#a71c71" stroke-miterlimit="10" d="M118.5 79.5h32.82"/><path fill="#a71c71" d="M149.87 84.49l8.63-4.99-8.63-4.99v9.98zM299.5 79.5h40"/><path fill="none" stroke="#a71c71" stroke-miterlimit="10" d="M299.5 79.5h32.82"/><path fill="#a71c71" d="M330.87 84.49l8.63-4.99-8.63-4.99v9.98zM479 78.5h40"/><path fill="none" stroke="#a71c71" stroke-miterlimit="10" d="M479 78.5h32.82"/><path fill="#a71c71" d="M510.36 83.49L519 78.5l-8.64-4.99v9.98z"/><path fill="none" stroke="#a71c71" stroke-miterlimit="10" d="M659 78.5h32.82"/><path fill="#a71c71" d="M690.36 83.49L699 78.5l-8.64-4.99v9.98z"/><circle cx="79.87" cy="79.25" r="40" fill="#f8f4f2"/><g clip-path="url(#a)" data-name="Root key"><g clip-path="url(#b)" opacity=".65"><path d="M97 74.83H76.48a9.77 9.77 0 1 0 0 8.37h5.14v-1.4h2.09v1.4H97l4.16-4.2z" fill="#b380e0"/></g><path d="M97.44 74.31H77.06a10.48 10.48 0 1 0 0 9.87H81l1.64-1.64 1.64 1.64h13.16l4.93-4.93zM97 83H84.76l-1.3-1.3-.82-.82-.82.82-1.31 1.3h-4.15l-.33.61a9.31 9.31 0 1 1 0-8.77l.33.61H97l3.77 3.77z" fill="#6e177d"/><path d="M66.08 77.59a2.33 2.33 0 1 1-3.29 0 2.33 2.33 0 0 1 3.29 0m19.74 1.06h9.87v1.16h-9.87z" fill="#6e177d"/></g><circle cx="104" cy="106" r="6" fill="#fff"/><path d="M104 96a10 10 0 1 0 10 10 10 10 0 0 0-10-10zm4.52 10.88h-3.64v3.64h-1.82v-3.64h-3.6v-1.82h3.64v-3.64h1.82v3.64h3.64z" fill="#6e177d"/></g><g data-name="Text" font-size="12" font-family="IBMPlexSans-SemiBold, IBM Plex Sans" font-weight="700"><text transform="translate(198.18 83.5)"><tspan letter-spacing="-.01em">P</tspan> <tspan x="7.57" y="0" letter-spacing="0em">r</tspan> <tspan x="12.23" y="0" letter-spacing=".01em">e</tspan> <tspan x="19.04" y="0">-acti</tspan> <tspan x="44.53" y="0" letter-spacing="-.01em">v</tspan> <tspan x="50.72" y="0">e</tspan></text><text transform="translate(378.18 82.5)">Acti <tspan x="22.02" y="0" letter-spacing="-.01em">v</tspan> <tspan x="28.21" y="0">e</tspan></text><text transform="translate(558.43 82.5)">Deacti <tspan x="35.63" y="0" letter-spacing="-.01em">v</tspan> <tspan x="41.81" y="0" letter-spacing="0em">at</tspan> <tspan x="52.91" y="0">ed</tspan></text><text transform="translate(738.6 82.5)">De <tspan x="14.96" y="0" letter-spacing="-.01em">s</tspan> <tspan x="20.86" y="0">t</tspan> <tspan x="25.34" y="0" letter-spacing="0em">r</tspan> <tspan x="30" y="0" letter-spacing="-.01em">o</tspan> <tspan x="36.65" y="0" letter-spacing="-.01em">y</tspan> <tspan x="42.85" y="0">ed</tspan></text></g></svg>