<svg xmlns="http://www.w3.org/2000/svg" viewBox="0 0 799.25 279.07"><g id="Visual"><g opacity="0.5"><line x1="347.81" y1="144.44" x2="347.81" y2="191.27" fill="none" stroke="#a71c71" stroke-miterlimit="10" stroke-dasharray="1 1"/><polygon points="342.82 189.81 347.81 198.44 352.79 189.81 342.82 189.81" fill="#a71c71"/></g><g opacity="0.5"><line x1="434.94" y1="118.44" x2="471.45" y2="118.44" fill="none" stroke="#a71c71" stroke-miterlimit="10" stroke-dasharray="1 1"/><polygon points="469.99 123.43 478.63 118.44 469.99 113.45 469.99 123.43" fill="#a71c71"/></g><rect x="299.13" y="198.94" width="140" height="80" fill="#edf5ff" stroke="#69a6ff" stroke-miterlimit="10" stroke-width="0.25"/><rect x="299.13" y="78.94" width="140" height="80" fill="#edf5ff" stroke="#69a6ff" stroke-miterlimit="10" stroke-width="0.25"/><rect x="119.13" y="79.01" width="140" height="80" fill="#edf5ff" stroke="#69a6ff" stroke-miterlimit="10" stroke-width="0.25"/><rect x="479.13" y="78.94" width="140" height="80" fill="#edf5ff" stroke="#69a6ff" stroke-miterlimit="10" stroke-width="0.25"/><rect x="659.13" y="78.94" width="140" height="80" fill="#edf5ff" stroke="#69a6ff" stroke-miterlimit="10" stroke-width="0.25"/><circle cx="144.13" cy="118.94" r="5" fill="#efc100"/><circle cx="324.13" cy="117.94" r="5" fill="#5aa700"/><circle cx="684.13" cy="117.94" r="5" fill="#e71d32"/><circle cx="504.13" cy="117.94" r="5" fill="#868c91"/><line x1="78.63" y1="118.44" x2="118.63" y2="118.44" fill="#a71c71"/><line x1="78.63" y1="118.44" x2="111.45" y2="118.44" fill="none" stroke="#a71c71" stroke-miterlimit="10"/><polygon points="109.99 123.43 118.63 118.44 109.99 113.45 109.99 123.43" fill="#a71c71"/><line x1="259.63" y1="118.44" x2="299.63" y2="118.44" fill="#a71c71"/><line x1="259.63" y1="118.44" x2="292.45" y2="118.44" fill="none" stroke="#a71c71" stroke-miterlimit="10"/><polygon points="290.99 123.43 299.63 118.44 290.99 113.45 290.99 123.43" fill="#a71c71"/><circle cx="324.13" cy="242.94" r="5" fill="#868c91"/><circle cx="40" cy="118.19" r="40" fill="#f8f4f2"/><circle cx="64.13" cy="144.94" r="6" fill="#fff"/><path d="M64.16,135a10,10,0,1,0,10,10A10,10,0,0,0,64.16,135Zm4.52,10.88H65v3.64H63.22v-3.64H59.59V144h3.63V140.4H65V144h3.64Z" fill="#6e177d"/><g opacity="0.5"><line x1="383.13" y1="199.44" x2="383.13" y2="159.44" fill="#a71c71"/><line x1="383.13" y1="199.44" x2="383.13" y2="166.62" fill="none" stroke="#a71c71" stroke-miterlimit="10" stroke-dasharray="1 1"/><polygon points="388.12 168.08 383.13 159.44 378.14 168.08 388.12 168.08" fill="#a71c71"/></g><line x1="437.13" y1="237.44" x2="728.63" y2="237.44" fill="none" stroke="#a71c71" stroke-miterlimit="10" stroke-dasharray="1 1" opacity="0.5"/><g opacity="0.5"><line x1="728.63" y1="237.44" x2="728.63" y2="168.12" fill="none" stroke="#a71c71" stroke-miterlimit="10" stroke-dasharray="1 1"/><polygon points="733.62 169.58 728.63 160.94 723.64 169.58 733.62 169.58" fill="#a71c71"/></g><line x1="347.63" y1="0.5" x2="743.63" y2="0.5" fill="#a71c71" stroke="#a71c71" stroke-miterlimit="10"/><line x1="743.8" y1="0.44" x2="743.8" y2="77.75" fill="#a71c71"/><line x1="743.8" y1="0.44" x2="743.8" y2="70.57" fill="none" stroke="#a71c71" stroke-miterlimit="10"/><polygon points="738.82 69.11 743.8 77.75 748.79 69.11 738.82 69.11" fill="#a71c71"/><line x1="347.8" y1="0.44" x2="347.8" y2="77.75" fill="#a71c71" stroke="#a71c71" stroke-miterlimit="10"/><g opacity="0.5"><line x1="382.94" y1="32.44" x2="382.94" y2="71.55" fill="none" stroke="#a71c71" stroke-miterlimit="10" stroke-dasharray="1 1"/><polygon points="377.95 70.09 382.94 78.73 387.93 70.09 377.95 70.09" fill="#a71c71"/></g><g opacity="0.5"><line x1="615.1" y1="118.44" x2="651.61" y2="118.44" fill="none" stroke="#a71c71" stroke-miterlimit="10" stroke-dasharray="1 1"/><polygon points="650.15 123.43 658.78 118.44 650.15 113.45 650.15 123.43" fill="#a71c71"/></g><line x1="382.73" y1="32.09" x2="712.63" y2="32.09" fill="none" stroke="#a71c71" stroke-miterlimit="10" stroke-dasharray="1 1" opacity="0.5"/><line x1="712.48" y1="31.95" x2="712.48" y2="78.23" fill="none" stroke="#a71c71" stroke-miterlimit="10" stroke-dasharray="1 1" opacity="0.5"/><path d="M27.79,108.19a9.77,9.77,0,1,0,8.81,14h5.14l.7-1.4.7.7.7.7H57.1L61.28,118l-4.18-4.19H36.6a9.74,9.74,0,0,0-8.81-5.58" fill="#ceaceb"/><path d="M57.57,113.26H37.19a10.44,10.44,0,1,0,0,9.87h3.93l1.64-1.65,1.65,1.65H57.57l4.93-4.94Zm-.49,8.7H44.89l-1.31-1.3-.82-.82-.82.82L40.63,122H36.49l-.33.62a9.21,9.21,0,0,1-1.62,2.19,9.3,9.3,0,1,1,0-13.16,9.48,9.48,0,0,1,1.62,2.2l.33.61H57.08l3.78,3.77Z" fill="#6e177d"/><circle cx="24.57" cy="118.17" r="2.33" fill="#6e177d"/><rect x="45.95" y="117.59" width="9.87" height="1.16" fill="#6e177d"/><rect x="364.13" y="178.94" width="42" height="14" fill="#fff"/><rect x="328.13" y="169.94" width="42" height="12" fill="#fff"/><rect x="328.13" y="47.94" width="42" height="14" fill="#fff"/><rect x="691.13" y="47.94" width="42" height="14" fill="#fff"/><rect x="482.13" y="230.94" width="37" height="14" fill="#fff"/></g><g id="Text"><text transform="translate(158.23 122.44)" font-size="12" font-family="IBMPlexSans-SemiBold, IBM Plex Sans" font-weight="600">Pre-active</text><path d="M344.48,121.44l-.67-2.14h-3l-.66,2.14h-1.61l2.81-8.38h2l2.78,8.38Zm-2.14-6.94h-.06L341.21,118h2.21Z"/><path d="M349.73,121.58a3.17,3.17,0,0,1-1.23-.22,2.54,2.54,0,0,1-.91-.66,3.15,3.15,0,0,1-.56-1,4.47,4.47,0,0,1-.19-1.36,4.38,4.38,0,0,1,.19-1.36,3.1,3.1,0,0,1,.56-1,2.41,2.41,0,0,1,.91-.65,3.17,3.17,0,0,1,1.23-.23,2.74,2.74,0,0,1,1.57.42,2.34,2.34,0,0,1,.89,1.17l-1.26.56a1.26,1.26,0,0,0-.4-.65,1.14,1.14,0,0,0-.8-.26,1.12,1.12,0,0,0-1,.41,1.67,1.67,0,0,0-.32,1.06v1.14a1.7,1.7,0,0,0,.32,1.07,1.17,1.17,0,0,0,1,.4,1.22,1.22,0,0,0,.85-.28,2,2,0,0,0,.47-.71l1.18.57a2.52,2.52,0,0,1-1,1.24A2.74,2.74,0,0,1,349.73,121.58Z"/><path d="M355.37,121.44a1.63,1.63,0,0,1-1.2-.41,1.59,1.59,0,0,1-.42-1.18v-3.44h-.92v-1.23h.48a.56.56,0,0,0,.47-.17.72.72,0,0,0,.13-.48v-1.07h1.38v1.72h1.28v1.23h-1.28v3.79h1.19v1.24Z"/><path d="M358.67,114.26a1,1,0,0,1-.69-.21.77.77,0,0,1-.21-.55v-.24a.78.78,0,0,1,.21-.56,1,1,0,0,1,.69-.21,1,1,0,0,1,.69.21.78.78,0,0,1,.21.56v.24a.77.77,0,0,1-.21.55A1,1,0,0,1,358.67,114.26Zm-.77.92h1.54v6.26H357.9Z"/><path d="M362.56,121.44l-2.09-6.26H362l.88,2.7.61,2.23h.09l.61-2.23.85-2.7h1.46l-2.1,6.26Z"/><path d="M370,121.58a3.1,3.1,0,0,1-1.25-.23,2.67,2.67,0,0,1-.92-.66,2.88,2.88,0,0,1-.58-1,4.17,4.17,0,0,1-.21-1.36,4.35,4.35,0,0,1,.2-1.35,2.82,2.82,0,0,1,.57-1,2.4,2.4,0,0,1,.91-.66A3,3,0,0,1,370,115a3.09,3.09,0,0,1,1.27.25,2.45,2.45,0,0,1,.89.69,3.07,3.07,0,0,1,.52,1,4,4,0,0,1,.17,1.22v.5h-4.16v.16a1.57,1.57,0,0,0,.38,1.09,1.51,1.51,0,0,0,1.14.41,1.66,1.66,0,0,0,.94-.24,2.54,2.54,0,0,0,.66-.61l.83.93a2.69,2.69,0,0,1-1.05.85A3.74,3.74,0,0,1,370,121.58Zm0-5.4a1.23,1.23,0,0,0-1,.41,1.55,1.55,0,0,0-.36,1.06v.09h2.57v-.1a1.62,1.62,0,0,0-.32-1A1.1,1.1,0,0,0,370,116.18Z"/><path d="M339.06,129.43a6.39,6.39,0,0,1,.12-1.25,6.12,6.12,0,0,1,.35-1.12,4.73,4.73,0,0,1,.52-.94,4.06,4.06,0,0,1,.63-.72h.69a5,5,0,0,0-.68.77,5.52,5.52,0,0,0-.51.92,6.39,6.39,0,0,0-.33,1,4.22,4.22,0,0,0-.12,1v.78a4.23,4.23,0,0,0,.12,1,6.39,6.39,0,0,0,.33,1,5.57,5.57,0,0,0,.52.92,4,4,0,0,0,.67.75h-.69a3.29,3.29,0,0,1-.62-.7,4.73,4.73,0,0,1-.52-.94,5.73,5.73,0,0,1-.35-1.13A5.88,5.88,0,0,1,339.06,129.43Z"/><path d="M343.83,132.35a2.11,2.11,0,0,1-.85-.17,1.9,1.9,0,0,1-.66-.49,2.4,2.4,0,0,1-.43-.77,3.64,3.64,0,0,1,0-2,2.3,2.3,0,0,1,.43-.77,1.78,1.78,0,0,1,.66-.49,2,2,0,0,1,.85-.17,1.86,1.86,0,0,1,.84.17,1.74,1.74,0,0,1,.63.47,2,2,0,0,1,.4.71,2.67,2.67,0,0,1,.14.91v.34H342.5v.21a1.47,1.47,0,0,0,.1.56,1.16,1.16,0,0,0,.27.44,1.11,1.11,0,0,0,.43.3,1.5,1.5,0,0,0,.58.11,1.41,1.41,0,0,0,.77-.21,1.34,1.34,0,0,0,.51-.59l.51.37a1.73,1.73,0,0,1-.7.77A2.11,2.11,0,0,1,343.83,132.35Zm0-4.26a1.32,1.32,0,0,0-.53.1,1.17,1.17,0,0,0-.42.29,1.48,1.48,0,0,0-.28.45,1.64,1.64,0,0,0-.1.56v.06h2.57v-.1a1.4,1.4,0,0,0-.34-1A1.13,1.13,0,0,0,343.83,128.09Z"/><path d="M347,132.24V127.6h.72v.74h0a1.43,1.43,0,0,1,.48-.62,1.3,1.3,0,0,1,.83-.23,1.46,1.46,0,0,1,1.14.46,1.89,1.89,0,0,1,.42,1.31v3h-.72v-2.86c0-.84-.35-1.25-1.06-1.25a1.4,1.4,0,0,0-.41.05,1.38,1.38,0,0,0-.37.16,1,1,0,0,0-.26.28.8.8,0,0,0-.09.39v3.23Z"/><path d="M353.87,132.35a2.18,2.18,0,0,1-.87-.17,1.9,1.9,0,0,1-.66-.49,2.2,2.2,0,0,1-.4-.76,3.71,3.71,0,0,1,0-2,2.25,2.25,0,0,1,.4-.77,1.76,1.76,0,0,1,.66-.48,2,2,0,0,1,.87-.17,1.87,1.87,0,0,1,1.11.3,1.82,1.82,0,0,1,.63.79l-.61.3a1.11,1.11,0,0,0-.41-.56,1.25,1.25,0,0,0-.72-.19,1.42,1.42,0,0,0-.57.1,1.18,1.18,0,0,0-.4.29,1.26,1.26,0,0,0-.25.44,2,2,0,0,0-.08.56v.79a1.52,1.52,0,0,0,.33,1,1.19,1.19,0,0,0,1,.39,1.31,1.31,0,0,0,1.26-.81l.52.35a1.81,1.81,0,0,1-.67.8A2,2,0,0,1,353.87,132.35Z"/><path d="M356.67,132.24V127.6h.72v.85h0a1.48,1.48,0,0,1,.45-.59,1.37,1.37,0,0,1,.89-.26h.28v.72h-.42a1.59,1.59,0,0,0-.91.22.64.64,0,0,0-.33.55v3.15Z"/><path d="M362.83,127.6h.71l-2.07,5.72a2.88,2.88,0,0,1-.17.35.65.65,0,0,1-.49.33,1.71,1.71,0,0,1-.42,0H360v-.64h.72l.36-1-1.74-4.81h.72l1.11,3.15.22.75h0l.25-.75Z"/><path d="M364.46,127.6h.72v.74h0a1.29,1.29,0,0,1,.52-.64,1.61,1.61,0,0,1,.84-.21,1.66,1.66,0,0,1,.78.17,1.72,1.72,0,0,1,.6.48,2.41,2.41,0,0,1,.38.77,4,4,0,0,1,0,2,2.35,2.35,0,0,1-.38.76,1.88,1.88,0,0,1-.6.49,1.79,1.79,0,0,1-.78.17,1.41,1.41,0,0,1-1.36-.86h0V134h-.72Zm1.92,4.11a1.21,1.21,0,0,0,1-.39,1.39,1.39,0,0,0,.35-1v-.8a1.41,1.41,0,0,0-.35-1,1.21,1.21,0,0,0-1-.38,1.7,1.7,0,0,0-.46.06,1.42,1.42,0,0,0-.39.19,1,1,0,0,0-.25.28.7.7,0,0,0-.1.36v1.74a.77.77,0,0,0,.1.4.91.91,0,0,0,.25.3,1.42,1.42,0,0,0,.39.19A1.7,1.7,0,0,0,366.38,131.71Z"/><path d="M370.71,132.24a.74.74,0,0,1-.57-.21.79.79,0,0,1-.2-.55v-3.25h-.76v-.63h.43a.43.43,0,0,0,.32-.1.47.47,0,0,0,.09-.33v-.86h.64v1.29h1v.63h-1v3.37h.95v.64Z"/><path d="M378.6,131.5a2.85,2.85,0,0,1-.25.27,1.77,1.77,0,0,1-.37.27,2.41,2.41,0,0,1-1.21.31,2.31,2.31,0,0,1-.82-.14,1.78,1.78,0,0,1-.61-.37,1.76,1.76,0,0,1-.37-.56,1.85,1.85,0,0,1-.12-.67A1.52,1.52,0,0,1,375,130a1.66,1.66,0,0,1,.29-.48,2.1,2.1,0,0,1,.41-.38,3.4,3.4,0,0,1,.48-.29,3.51,3.51,0,0,1-.52-.7,1.62,1.62,0,0,1-.2-.78,1.45,1.45,0,0,1,.12-.59,1.37,1.37,0,0,1,.33-.48,1.34,1.34,0,0,1,.51-.32,1.81,1.81,0,0,1,.67-.12,1.7,1.7,0,0,1,.61.1,1.4,1.4,0,0,1,.48.27,1.22,1.22,0,0,1,.31.43,1.26,1.26,0,0,1,.11.55,1.25,1.25,0,0,1-.11.56,1.55,1.55,0,0,1-.31.46,3,3,0,0,1-.46.38c-.17.11-.36.23-.55.33l1.41,1.52a3.41,3.41,0,0,0,.2-.73,4.9,4.9,0,0,0,.09-.78h1.23v.61h-.64a5.35,5.35,0,0,1-.17.74,4.08,4.08,0,0,1-.26.64l1.22,1.31h-.93Zm-1.76.21a1.65,1.65,0,0,0,.79-.18,1.81,1.81,0,0,0,.57-.46l-1.69-1.82-.34.21a1.42,1.42,0,0,0-.3.25,1.45,1.45,0,0,0-.2.34,1.27,1.27,0,0,0-.07.46v.13a1,1,0,0,0,.33.78A1.38,1.38,0,0,0,376.84,131.71Zm.18-5.26a.89.89,0,0,0-.64.24.85.85,0,0,0-.24.61v.1a1.05,1.05,0,0,0,.16.55,4.68,4.68,0,0,0,.44.58l.42-.25a3.44,3.44,0,0,0,.36-.28,1.46,1.46,0,0,0,.25-.32.65.65,0,0,0,.1-.36v-.1a.67.67,0,0,0-.25-.57A1,1,0,0,0,377,126.45Z"/><path d="M386.31,131.49h0a1.43,1.43,0,0,1-1.36.86,1.79,1.79,0,0,1-.78-.17,1.69,1.69,0,0,1-.6-.49,2.17,2.17,0,0,1-.38-.76,4,4,0,0,1,0-2,2.22,2.22,0,0,1,.38-.77,1.56,1.56,0,0,1,.6-.48,1.66,1.66,0,0,1,.78-.17,1.57,1.57,0,0,1,.83.21,1.31,1.31,0,0,1,.53.64h0v-2.76H387v6.66h-.71Zm-1.2.22a1.76,1.76,0,0,0,.46-.06,1.23,1.23,0,0,0,.38-.19.83.83,0,0,0,.26-.3.88.88,0,0,0,.1-.4V129a.81.81,0,0,0-.1-.36.86.86,0,0,0-.26-.28,1.23,1.23,0,0,0-.38-.19,1.76,1.76,0,0,0-.46-.06,1.24,1.24,0,0,0-1,.38,1.46,1.46,0,0,0-.35,1v.8a1.43,1.43,0,0,0,.35,1A1.25,1.25,0,0,0,385.11,131.71Z"/><path d="M390.3,132.35a2.16,2.16,0,0,1-.86-.17,2.11,2.11,0,0,1-.66-.49,2.38,2.38,0,0,1-.42-.77,3.41,3.41,0,0,1,0-2,2.28,2.28,0,0,1,.42-.77,2,2,0,0,1,.66-.49,2,2,0,0,1,.86-.17,1.88,1.88,0,0,1,1.47.64,2.34,2.34,0,0,1,.4.71,2.94,2.94,0,0,1,.14.91v.34H389v.21a1.69,1.69,0,0,0,.09.56,1.48,1.48,0,0,0,.27.44,1.15,1.15,0,0,0,.44.3,1.5,1.5,0,0,0,.58.11,1.41,1.41,0,0,0,.77-.21,1.39,1.39,0,0,0,.5-.59l.52.37a1.76,1.76,0,0,1-.71.77A2,2,0,0,1,390.3,132.35Zm0-4.26a1.33,1.33,0,0,0-.54.1,1.37,1.37,0,0,0-.42.29,1.46,1.46,0,0,0-.27.45,1.43,1.43,0,0,0-.1.56v.06h2.56v-.1a1.44,1.44,0,0,0-.33-1A1.16,1.16,0,0,0,390.3,128.09Z"/><path d="M395.22,132.35a2.21,2.21,0,0,1-.87-.17,1.86,1.86,0,0,1-.65-.49,2.22,2.22,0,0,1-.41-.76,3.71,3.71,0,0,1,0-2,2.26,2.26,0,0,1,.41-.77,1.72,1.72,0,0,1,.65-.48,2,2,0,0,1,.87-.17,1.73,1.73,0,0,1,1.74,1.09l-.6.3a1.13,1.13,0,0,0-.42-.56,1.25,1.25,0,0,0-.72-.19,1.4,1.4,0,0,0-.56.1,1.13,1.13,0,0,0-.41.29,1.11,1.11,0,0,0-.24.44,1.69,1.69,0,0,0-.08.56v.79a1.52,1.52,0,0,0,.33,1,1.19,1.19,0,0,0,1,.39,1.29,1.29,0,0,0,1.26-.81l.53.35a1.83,1.83,0,0,1-.68.8A1.91,1.91,0,0,1,395.22,132.35Z"/><path d="M398,132.24V127.6h.72v.85h.05a1.34,1.34,0,0,1,1.34-.85h.28v.72H400a1.59,1.59,0,0,0-.91.22.64.64,0,0,0-.33.55v3.15Z"/><path d="M404.19,127.6h.71l-2.08,5.72a3,3,0,0,1-.16.35.85.85,0,0,1-.2.22.83.83,0,0,1-.29.11,1.8,1.8,0,0,1-.43,0h-.37v-.64h.73l.35-1-1.74-4.81h.72l1.12,3.15.22.75h0l.25-.75Z"/><path d="M405.82,127.6h.72v.74h0a1.31,1.31,0,0,1,.53-.64,1.57,1.57,0,0,1,.83-.21,1.66,1.66,0,0,1,.78.17,1.56,1.56,0,0,1,.6.48,2.22,2.22,0,0,1,.38.77,4,4,0,0,1,0,2,2.17,2.17,0,0,1-.38.76,1.69,1.69,0,0,1-.6.49,1.79,1.79,0,0,1-.78.17,1.42,1.42,0,0,1-1.36-.86h0V134h-.72Zm1.91,4.11a1.25,1.25,0,0,0,1-.39,1.43,1.43,0,0,0,.35-1v-.8a1.46,1.46,0,0,0-.35-1,1.24,1.24,0,0,0-1-.38,1.76,1.76,0,0,0-.46.06,1.23,1.23,0,0,0-.38.19.86.86,0,0,0-.26.28.8.8,0,0,0-.09.36v1.74a.87.87,0,0,0,.09.4.83.83,0,0,0,.26.3,1.23,1.23,0,0,0,.38.19A1.76,1.76,0,0,0,407.73,131.71Z"/><path d="M412.06,132.24a.74.74,0,0,1-.57-.21.78.78,0,0,1-.19-.55v-3.25h-.77v-.63H411a.42.42,0,0,0,.32-.1.47.47,0,0,0,.09-.33v-.86H412v1.29h1v.63h-1v3.37H413v.64Z"/><path d="M415.7,129.43a6.59,6.59,0,0,1-.13,1.27,7.47,7.47,0,0,1-.35,1.13,5.3,5.3,0,0,1-.52.94,3.62,3.62,0,0,1-.63.7h-.68a4.9,4.9,0,0,0,.67-.75,6,6,0,0,0,.85-1.91,4.82,4.82,0,0,0,.11-1v-.78a4.81,4.81,0,0,0-.11-1,6.39,6.39,0,0,0-.33-1,5.16,5.16,0,0,0-1.19-1.69h.68a4.1,4.1,0,0,1,.64.72,5.3,5.3,0,0,1,.52.94,6.11,6.11,0,0,1,.34,1.12A5.7,5.7,0,0,1,415.7,129.43Z"/><text transform="translate(518.56 121.44)" font-size="12" font-family="IBMPlexSans-SemiBold, IBM Plex Sans" font-weight="600">Deactivated</text><text transform="translate(698.73 121.44)" font-size="12" font-family="IBMPlexSans-SemiBold, IBM Plex Sans" font-weight="600">Destroyed</text><text transform="translate(338.56 246.44)" font-size="12" font-family="IBMPlexSans-SemiBold, IBM Plex Sans" font-weight="600">Suspended</text><text transform="translate(333.51 178.07)" font-size="7" font-family="IBMPlexMono, IBM Plex Mono">disable</text><text transform="translate(370.53 188.07)" font-size="7" font-family="IBMPlexMono, IBM Plex Mono">enable</text><text transform="translate(335.2 57.86)" font-size="7" font-family="IBMPlexMono, IBM Plex Mono">delete</text><text transform="translate(697.78 57.18)" font-size="7" font-family="IBMPlexMono, IBM Plex Mono">restore</text><text transform="translate(487.68 239.53)" font-size="7" font-family="IBMPlexMono, IBM Plex Mono">delete</text><text transform="translate(446.29 102.84)" font-size="7" font-family="IBMPlexMono, IBM Plex Mono">expire</text><text transform="translate(625.99 102.84)" font-size="7" font-family="IBMPlexMono, IBM Plex Mono">delete</text></g></svg>