<svg xmlns="http://www.w3.org/2000/svg" width="870" height="370" viewBox="0 0 870 370"><defs><style>.cls-1,.cls-13{opacity:0.5;}.cls-13,.cls-2,.cls-9{fill:none;}.cls-13,.cls-14,.cls-2,.cls-9{stroke:#a71c71;}.cls-13,.cls-14,.cls-2,.cls-4,.cls-9{stroke-miterlimit:10;}.cls-13,.cls-2{stroke-dasharray:1 1;}.cls-14,.cls-3{fill:#a71c71;}.cls-4{fill:#edf5ff;stroke:#69a6ff;stroke-width:0.25px;}.cls-5{fill:#efc100;}.cls-6{fill:#5aa700;}.cls-7{fill:#e71d32;}.cls-8{fill:#868c91;}.cls-10{fill:#f8f4f2;}.cls-11{fill:#fff;}.cls-12{fill:#6e177d;}.cls-15{fill:#ceaceb;}</style></defs><title>key-states</title><g id="Visual"><g class="cls-1"><line class="cls-2" x1="382.6772" y1="188.5" x2="382.6772" y2="235.3238"/><polygon class="cls-3" points="377.691 233.865 382.677 242.5 387.664 233.865 377.691 233.865"/></g><g class="cls-1"><line class="cls-2" x1="469.8113" y1="162.5" x2="506.3238" y2="162.5"/><polygon class="cls-3" points="504.865 167.486 513.5 162.5 504.865 157.514 504.865 167.486"/></g><rect class="cls-4" x="334" y="243" width="140" height="80"/><rect class="cls-4" x="334" y="123" width="140" height="80"/><rect class="cls-4" x="154" y="123.0695" width="140" height="80"/><rect class="cls-4" x="514" y="123" width="140" height="80"/><rect class="cls-4" x="694" y="123" width="140" height="80"/><circle class="cls-5" cx="179" cy="163" r="5"/><circle class="cls-6" cx="359" cy="162" r="5"/><circle class="cls-7" cx="719" cy="162" r="5"/><circle class="cls-8" cx="539" cy="162" r="5"/><line class="cls-3" x1="113.5" y1="162.5" x2="153.5" y2="162.5"/><line class="cls-9" x1="113.5" y1="162.5" x2="146.3238" y2="162.5"/><polygon class="cls-3" points="144.865 167.486 153.5 162.5 144.865 157.514 144.865 167.486"/><line class="cls-3" x1="294.4962" y1="162.5" x2="334.5" y2="162.5"/><line class="cls-9" x1="294.4962" y1="162.5" x2="327.3238" y2="162.5"/><polygon class="cls-3" points="325.865 167.486 334.5 162.5 325.865 157.514 325.865 167.486"/><circle class="cls-8" cx="359" cy="287" r="5"/><circle class="cls-10" cx="74.8707" cy="162.2501" r="40"/><circle class="cls-11" cx="99" cy="189" r="6"/><path class="cls-12" d="M99.03,179.033a10,10,0,1,0,10,10A10.0007,10.0007,0,0,0,99.03,179.033Zm4.5183,10.8791H99.9118v3.6364H98.0936v-3.6364H94.4573v-1.8182h3.6363v-3.6364h1.8182v3.6364h3.6364Z"/><g class="cls-1"><line class="cls-3" x1="418" y1="243.5" x2="418" y2="203.5"/><line class="cls-2" x1="418" y1="243.5" x2="418" y2="210.6762"/><polygon class="cls-3" points="422.986 212.135 418 203.5 413.014 212.135 422.986 212.135"/></g><line class="cls-13" x1="472" y1="281.5" x2="763.5" y2="281.5"/><g class="cls-1"><line class="cls-2" x1="763.5" y1="281.5" x2="763.5" y2="212.1762"/><polygon class="cls-3" points="768.486 213.635 763.5 205 758.514 213.635 768.486 213.635"/></g><line class="cls-14" x1="382.5" y1="44.5584" x2="778.5" y2="44.5584"/><line class="cls-3" x1="778.6756" y1="44.5" x2="778.6756" y2="121.8084"/><line class="cls-9" x1="778.6755" y1="44.5" x2="778.6755" y2="114.6322"/><polygon class="cls-3" points="773.689 113.173 778.676 121.808 783.662 113.173 773.689 113.173"/><line class="cls-14" x1="382.6756" y1="44.5" x2="382.6756" y2="121.8084"/><g class="cls-1"><line class="cls-2" x1="417.8113" y1="76.5" x2="417.8113" y2="115.6096"/><polygon class="cls-3" points="412.825 114.151 417.811 122.786 422.798 114.151 412.825 114.151"/></g><g class="cls-1"><line class="cls-2" x1="649.967" y1="162.5" x2="686.4794" y2="162.5"/><polygon class="cls-3" points="685.02 167.486 693.656 162.5 685.02 157.514 685.02 167.486"/></g><line class="cls-13" x1="417.6041" y1="76.1467" x2="747.5" y2="76.1467"/><line class="cls-13" x1="747.3541" y1="76.0038" x2="747.3541" y2="122.2896"/><path class="cls-15" d="M62.6581,152.2475a9.77,9.77,0,1,0,8.8173,13.9572h5.14l.6979-1.3957.6978.6979.6979.6978H91.9683l4.1872-4.1871L91.9683,157.83H71.4754a9.7616,9.7616,0,0,0-8.8173-5.5829"/><path class="cls-12" d="M92.436,157.3155l-20.3776,0a10.4751,10.4751,0,1,0,0,9.8693l3.9288,0,1.6449-1.6448,1.6449,1.6448H92.436l4.9347-4.9347Zm-.4817,8.7061-12.1954,0-1.3044-1.3044-.8224-.8224-.8224.8224-1.3042,1.3042-3.4469,0h-.6974l-.3286.6152a9.3088,9.3088,0,1,1,0-8.7728l.3285.6144h.697l19.8957,0,3.7717,3.7717Z"/><circle class="cls-12" cx="59.4386" cy="162.2312" r="2.3262"/><rect class="cls-12" x="80.8217" y="161.6496" width="9.8691" height="1.1631"/><rect class="cls-11" x="399" y="223" width="42" height="14"/><rect class="cls-11" x="363" y="214" width="42" height="12"/><rect class="cls-11" x="363" y="92" width="42" height="14"/><rect class="cls-11" x="726" y="92" width="42" height="14"/><rect class="cls-11" x="517" y="275" width="37" height="14"/></g><g id="Text"><path d="M194.1631,166.498v-8.3715h3.7661a2.5929,2.5929,0,0,1,0,5.1811h-2.1831v3.19Zm1.583-4.5576h2.0391a.8807.8807,0,0,0,.9834-.9472v-.5518a.8721.8721,0,0,0-.9834-.9355h-2.0391Z"/><path d="M201.6392,166.498v-6.2607h1.5351v1.2954h.06a1.6059,1.6059,0,0,1,1.6553-1.2954h.3359v1.4512h-.48c-1.0312,0-1.5708.2881-1.5708.9717v3.8378Z"/><path d="M205.8755,163.356c0-1.979,1.0674-3.2623,2.9023-3.2623,1.9551,0,2.8545,1.439,2.8545,3.1543v.5035h-4.1616v.1557a1.39,1.39,0,0,0,1.523,1.5113,1.9016,1.9016,0,0,0,1.5952-.8516l.8276.9238a3.0988,3.0988,0,0,1-2.5908,1.1514C206.979,166.6421,205.8755,165.3589,205.8755,163.356Zm1.5952-.648v.0962h2.5664v-.1079c0-.8638-.4438-1.4512-1.2353-1.4512A1.3287,1.3287,0,0,0,207.4707,162.708Z"/><path d="M212.9194,163.6074v-1.5229h3.43v1.5229Z"/><path d="M217.4912,164.7949c0-1.2832.9712-1.9189,2.6743-1.9189h1.0674V162.42c0-.6958-.3476-1.1035-1.1631-1.1035a1.63,1.63,0,0,0-1.4272.7915l-.9116-.8154a2.6359,2.6359,0,0,1,2.4467-1.1993c1.691,0,2.59.8033,2.59,2.23v2.9507h.624v1.2231h-.8516a1.1392,1.1392,0,0,1-1.1635-1.0795h-.0718a1.6933,1.6933,0,0,1-1.8233,1.2236A1.7747,1.7747,0,0,1,217.4912,164.7949Zm3.7417-.1679v-.8277H220.25c-.8032,0-1.1992.2759-1.1992.7676v.2041c0,.5039.3476.7554.9473.7554C220.6812,165.5264,221.2329,165.2148,221.2329,164.627Z"/><path d="M224.2231,163.356c0-2.003,1.0435-3.2623,2.89-3.2623a2.4206,2.4206,0,0,1,2.459,1.5831l-1.2593.5634a1.1694,1.1694,0,0,0-1.2-.9111c-.8511,0-1.2832.6-1.2832,1.4751v1.1392c0,.8754.4321,1.4633,1.2832,1.4633a1.3385,1.3385,0,0,0,1.3193-.9834l1.1758.5635a2.447,2.447,0,0,1-2.4951,1.6553C225.2666,166.6421,224.2231,165.3706,224.2231,163.356Z"/><path d="M232.7534,166.498a1.4489,1.4489,0,0,1-1.6191-1.5952v-3.4541h-.9234v-1.2114h.48c.4556,0,.6-.2158.6-.6475v-1.0673h1.3789v1.7148h1.2837v1.2114h-1.2837v3.8262h1.1875v1.2231Z"/><path d="M235.1543,158.5586v-.24c0-.4434.2642-.7676.9-.7676.6235,0,.8994.3242.8994.7676v.24c0,.4434-.2759.7676-.8994.7676C235.4185,159.3262,235.1543,159.002,235.1543,158.5586Zm.1323,1.6787h1.5352v6.2607h-1.5352Z"/><path d="M239.9419,166.498l-2.0869-6.2607h1.5112l.8755,2.6987.6113,2.231h.084l.6118-2.231.8516-2.6987h1.4634l-2.0992,6.2607Z"/><path d="M244.3706,163.356c0-1.979,1.0674-3.2623,2.9023-3.2623,1.9551,0,2.8545,1.439,2.8545,3.1543v.5035h-4.1616v.1557a1.39,1.39,0,0,0,1.523,1.5113,1.9016,1.9016,0,0,0,1.5952-.8516l.8276.9238a3.0988,3.0988,0,0,1-2.5908,1.1514C245.4741,166.6421,244.3706,165.3589,244.3706,163.356Zm1.5952-.648v.0962h2.5664v-.1079c0-.8638-.4438-1.4512-1.2353-1.4512A1.3287,1.3287,0,0,0,245.9658,162.708Z"/><path d="M379.3438,165.498l-.6719-2.1347h-2.9746l-.6592,2.1347h-1.6065l2.8057-8.3833h1.9678l2.7812,8.3833Zm-2.1348-6.9321h-.0606l-1.0664,3.4419h2.2071Z"/><path d="M381.7109,162.356c0-2.003,1.043-3.2623,2.8907-3.2623a2.4213,2.4213,0,0,1,2.4589,1.5831l-1.26.5634a1.17,1.17,0,0,0-1.1992-.9111c-.8516,0-1.2832.6-1.2832,1.4751v1.1392c0,.8754.4316,1.4633,1.2832,1.4633a1.3369,1.3369,0,0,0,1.3183-.9834l1.1758.5635a2.4461,2.4461,0,0,1-2.4941,1.6553C382.7539,165.6421,381.7109,164.3706,381.7109,162.356Z"/><path d="M390.2412,165.498a1.4487,1.4487,0,0,1-1.6191-1.5952v-3.4541h-.9229v-1.2114h.4795c.4561,0,.6-.2158.6-.6475v-1.0673h1.3789v1.7148h1.2842v1.2114h-1.2842v3.8262h1.1875v1.2231Z"/><path d="M392.6426,157.5586v-.24c0-.4434.2636-.7676.8994-.7676.624,0,.8994.3242.8994.7676v.24c0,.4434-.2754.7676-.8994.7676C392.9062,158.3262,392.6426,158.002,392.6426,157.5586Zm.1318,1.6787H394.31v6.2607h-1.5352Z"/><path d="M397.43,165.498l-2.0869-6.2607h1.5107l.876,2.6987.6113,2.231h.084l.6123-2.231.8516-2.6987h1.4629l-2.1,6.2607Z"/><path d="M401.8584,162.356c0-1.979,1.0674-3.2623,2.9023-3.2623,1.9551,0,2.8545,1.439,2.8545,3.1543v.5035h-4.1621v.1562a1.39,1.39,0,0,0,1.5235,1.5108,1.9026,1.9026,0,0,0,1.5957-.8516l.8271.9238a3.0982,3.0982,0,0,1-2.5908,1.1514C402.9619,165.6421,401.8584,164.3589,401.8584,162.356Zm1.5947-.648v.0962H406.02v-.1079c0-.8638-.4433-1.4512-1.2343-1.4512A1.3294,1.3294,0,0,0,403.4531,161.708Z"/><path d="M375.5557,169.4556h.6845a5.2449,5.2449,0,0,0-1.6386,3.6552v.7745a5.2714,5.2714,0,0,0,1.6386,3.6459h-.6845a5.8164,5.8164,0,0,1,0-8.0756Z"/><path d="M376.6172,173.9751c0-1.4766.8281-2.4307,2.0889-2.4307a2.0343,2.0343,0,0,1,2.0078,2.2686v.3423H377.373v.2158a1.3164,1.3164,0,0,0,1.378,1.4048,1.3456,1.3456,0,0,0,1.2783-.8013l.5137.3691a1.95,1.95,0,0,1-1.8369,1.0621C377.4453,176.4058,376.6172,175.4517,376.6172,173.9751Zm.7558-.4229v.063H379.94v-.0991a1.2357,1.2357,0,0,0-1.2334-1.3686A1.3211,1.3211,0,0,0,377.373,173.5522Z"/><path d="M381.9,176.2979v-4.6456h.7207v.7564h.0351a1.3178,1.3178,0,0,1,1.3145-.8643c.9551,0,1.5576.6485,1.5576,1.7735v2.98h-.72v-2.8541c0-.8281-.36-1.2509-1.0537-1.2509-.5762,0-1.1338.2881-1.1338.8818v3.2232Z"/><path d="M386.67,173.9751c0-1.4854.7656-2.4307,2.07-2.4307a1.7419,1.7419,0,0,1,1.7383,1.0894l-.6035.3061a1.1188,1.1188,0,0,0-1.1348-.7563,1.2475,1.2475,0,0,0-1.2959,1.3955v.792a1.2473,1.2473,0,0,0,1.2959,1.3955,1.3106,1.3106,0,0,0,1.2608-.81l.5224.3511a1.832,1.832,0,0,1-1.7832,1.0982C387.4355,176.4058,386.67,175.46,386.67,173.9751Z"/><path d="M391.5391,176.2979v-4.6456h.7207v.8555h.0449a1.3344,1.3344,0,0,1,1.3418-.8555h.2783v.72h-.4228c-.7745,0-1.2422.333-1.2422.7744v3.1509Z"/><path d="M397.7949,171.6523h.711l-2.0791,5.7261c-.2071.5581-.3956.72-1.0811.72h-.3691v-.63h.73l.3506-.99-1.7373-4.8257h.72l1.1162,3.16.2168.7563h.045l.2519-.7563Z"/><path d="M399.4229,171.6523h.72v.7564h.0371a1.356,1.356,0,0,1,1.3594-.8643c1.16,0,1.8906.9453,1.8906,2.4307s-.7305,2.4307-1.8906,2.4307a1.3993,1.3993,0,0,1-1.3594-.8643h-.0371v2.5566h-.72Zm3.2314,2.7188v-.792a1.2674,1.2674,0,0,0-1.3145-1.3862c-.6562,0-1.1972.3779-1.1972.8911v1.7285c0,.603.541.9453,1.1972.9453A1.2676,1.2676,0,0,0,402.6543,174.3711Z"/><path d="M405.6152,176.2979a.7094.7094,0,0,1-.7656-.7652v-3.25h-.7646v-.63h.4326c.3056,0,.4043-.1079.4043-.4228v-.8643h.6484v1.2871h1.0176v.63H405.57v3.3848h.9453v.63Z"/><path d="M413.5088,175.56a2.2511,2.2511,0,0,1-1.8272.8462,1.7339,1.7339,0,0,1-1.9267-1.7373,2.0053,2.0053,0,0,1,1.2871-1.7735,2.129,2.129,0,0,1-.7109-1.4765,1.5186,1.5186,0,0,1,1.63-1.5127,1.3717,1.3717,0,0,1,1.5118,1.3505c0,.8282-.6485,1.2964-1.44,1.7374l1.4131,1.5214a4.8747,4.8747,0,0,0,.2969-1.5214h1.2246v.6123h-.6387a4.7544,4.7544,0,0,1-.4316,1.3867l1.2236,1.3052h-.9365Zm-.4053-.4322-1.6836-1.8183a1.3621,1.3621,0,0,0-.9179,1.26v.1353c0,.6572.4863,1.0713,1.2421,1.0713A1.6566,1.6566,0,0,0,413.1035,175.1274Zm-2.0615-3.7719v.1079a1.8675,1.8675,0,0,0,.6025,1.1255c.5684-.3062,1.1348-.7115,1.1348-1.2066v-.1079a.7821.7821,0,0,0-.8555-.7651A.8429.8429,0,0,0,411.042,171.3555Z"/><path d="M421.2129,175.5415h-.0361a1.4,1.4,0,0,1-1.3594.8643c-1.1612,0-1.8906-.9454-1.8906-2.4307s.7294-2.4307,1.8906-2.4307a1.3569,1.3569,0,0,1,1.3594.8643h.0361v-2.773h.7207v6.6622h-.7207Zm0-.729V173.084c0-.5132-.541-.8911-1.1973-.8911a1.2674,1.2674,0,0,0-1.3144,1.3862v.792a1.2676,1.2676,0,0,0,1.3144,1.3867C420.6719,175.7578,421.2129,175.4155,421.2129,174.8125Z"/><path d="M423.1191,173.9751c0-1.4766.8282-2.4307,2.0889-2.4307a2.0342,2.0342,0,0,1,2.0078,2.2686v.3423H423.875v.2158a1.3164,1.3164,0,0,0,1.3779,1.4048,1.3454,1.3454,0,0,0,1.2783-.8013l.5137.3691a1.95,1.95,0,0,1-1.8369,1.0621C423.9473,176.4058,423.1191,175.4517,423.1191,173.9751Zm.7559-.4229v.063h2.5664v-.0991a1.2356,1.2356,0,0,0-1.2334-1.3686A1.321,1.321,0,0,0,423.875,173.5522Z"/><path d="M428.0605,173.9751c0-1.4854.7657-2.4307,2.07-2.4307a1.7427,1.7427,0,0,1,1.7382,1.0894l-.6035.3061a1.12,1.12,0,0,0-1.1347-.7563,1.2478,1.2478,0,0,0-1.2969,1.3955v.792a1.2476,1.2476,0,0,0,1.2969,1.3955,1.3092,1.3092,0,0,0,1.26-.81l.5235.3511a1.833,1.833,0,0,1-1.7832,1.0982C428.8262,176.4058,428.0605,175.46,428.0605,173.9751Z"/><path d="M432.93,176.2979v-4.6456h.72v.8555h.0449a1.3345,1.3345,0,0,1,1.3418-.8555h.2784v.72h-.4219c-.7754,0-1.2432.333-1.2432.7744v3.1509Z"/><path d="M439.1855,171.6523h.711l-2.08,5.7261c-.207.5581-.3955.72-1.08.72h-.3691v-.63h.7295l.3506-.99-1.7373-4.8257h.72l1.1172,3.16.2158.7563h.0449l.2529-.7563Z"/><path d="M440.8125,171.6523h.7207v.7564h.0361a1.3569,1.3569,0,0,1,1.3594-.8643c1.1611,0,1.8906.9453,1.8906,2.4307s-.7295,2.4307-1.8906,2.4307a1.4,1.4,0,0,1-1.3594-.8643h-.0361v2.5566h-.7207Zm3.2324,2.7188v-.792a1.2674,1.2674,0,0,0-1.3144-1.3862c-.6573,0-1.1973.3779-1.1973.8911v1.7285c0,.603.54.9453,1.1973.9453A1.2676,1.2676,0,0,0,444.0449,174.3711Z"/><path d="M447.0059,176.2979a.709.709,0,0,1-.7657-.7652v-3.25h-.7656v-.63h.4326c.3057,0,.4053-.1079.4053-.4228v-.8643h.6484v1.2871h1.0166v.63h-1.0166v3.3848h.9453v.63Z"/><path d="M449.0117,177.5312h-.6836a5.2743,5.2743,0,0,0,1.6377-3.6459v-.7745a5.2518,5.2518,0,0,0-1.6377-3.6552h.6836a5.819,5.819,0,0,1,0,8.0756Z"/><path d="M554.417,157.1265h3.0459c2.1836,0,3.61,1.4033,3.61,4.186s-1.4267,4.1855-3.61,4.1855H554.417Zm3.0459,6.9682c1.1758,0,1.9316-.6953,1.9316-2.1225v-1.3194c0-1.4272-.7558-2.123-1.9316-2.123H556v5.5649Z"/><path d="M562.17,162.356c0-1.979,1.0664-3.2623,2.9024-3.2623,1.955,0,2.8535,1.439,2.8535,3.1543v.5035h-4.1612v.1562a1.39,1.39,0,0,0,1.5225,1.5108,1.9011,1.9011,0,0,0,1.5957-.8516l.8281.9238a3.1,3.1,0,0,1-2.5918,1.1514C563.2734,165.6421,562.17,164.3589,562.17,162.356Zm1.5947-.648v.0962h2.5665v-.1079c0-.8638-.4444-1.4512-1.2354-1.4512A1.3287,1.3287,0,0,0,563.7646,161.708Z"/><path d="M568.8418,163.7949c0-1.2832.9707-1.9189,2.6738-1.9189h1.0674V161.42c0-.6958-.3476-1.1035-1.1631-1.1035a1.6319,1.6319,0,0,0-1.4277.7915l-.9111-.8154a2.6361,2.6361,0,0,1,2.4462-1.1993c1.6915,0,2.5909.8033,2.5909,2.23v2.9507h.624v1.2231h-.8516a1.14,1.14,0,0,1-1.164-1.0795h-.0713a1.6933,1.6933,0,0,1-1.8233,1.2236A1.7741,1.7741,0,0,1,568.8418,163.7949Zm3.7412-.1679v-.8277H571.6c-.8037,0-1.1992.2759-1.1992.7676v.2041c0,.5039.3476.7554.9473.7554C572.0312,164.5264,572.583,164.2148,572.583,163.627Z"/><path d="M575.5732,162.356c0-2.003,1.044-3.2623,2.8907-3.2623a2.4193,2.4193,0,0,1,2.458,1.5831l-1.2588.5634a1.1688,1.1688,0,0,0-1.1992-.9111c-.8516,0-1.2842.6-1.2842,1.4751v1.1392c0,.8754.4326,1.4633,1.2842,1.4633a1.34,1.34,0,0,0,1.3193-.9834l1.1748.5635a2.4453,2.4453,0,0,1-2.4941,1.6553C576.6172,165.6421,575.5732,164.3706,575.5732,162.356Z"/><path d="M584.1035,165.498a1.4491,1.4491,0,0,1-1.6191-1.5952v-3.4541h-.9239v-1.2114h.4805c.4551,0,.6-.2158.6-.6475v-1.0673H584.02v1.7148h1.2832v1.2114H584.02v3.8262h1.1875v1.2231Z"/><path d="M586.5039,157.5586v-.24c0-.4434.2647-.7676.9-.7676.623,0,.8994.3242.8994.7676v.24c0,.4434-.2764.7676-.8994.7676C586.7686,158.3262,586.5039,158.002,586.5039,157.5586Zm.1328,1.6787h1.5352v6.2607h-1.5352Z"/><path d="M591.292,165.498l-2.0869-6.2607h1.5117l.875,2.6987.6113,2.231h.084l.6113-2.231.8516-2.6987h1.4639l-2.0987,6.2607Z"/><path d="M595.6855,163.7949c0-1.2832.9707-1.9189,2.6739-1.9189h1.0674V161.42c0-.6958-.3477-1.1035-1.1631-1.1035a1.632,1.632,0,0,0-1.4278.7915l-.9111-.8154a2.6363,2.6363,0,0,1,2.4463-1.1993c1.6914,0,2.5908.8033,2.5908,2.23v2.9507h.624v1.2231h-.8515a1.14,1.14,0,0,1-1.1641-1.0795h-.0713a1.6932,1.6932,0,0,1-1.8232,1.2236A1.7742,1.7742,0,0,1,595.6855,163.7949Zm3.7413-.1679v-.8277h-.9834c-.8038,0-1.1993.2759-1.1993.7676v.2041c0,.5039.3477.7554.9473.7554C598.875,164.5264,599.4268,164.2148,599.4268,163.627Z"/><path d="M604.7432,165.498a1.4487,1.4487,0,0,1-1.6192-1.5952v-3.4541h-.9228v-1.2114h.48c.456,0,.6-.2158.6-.6475v-1.0673h1.3789v1.7148h1.2842v1.2114h-1.2842v3.8262h1.1875v1.2231Z"/><path d="M606.8086,162.356c0-1.979,1.0674-3.2623,2.9023-3.2623,1.9551,0,2.8545,1.439,2.8545,3.1543v.5035h-4.1611v.1562a1.39,1.39,0,0,0,1.5225,1.5108,1.8981,1.8981,0,0,0,1.5947-.8516l.8281.9238a3.1,3.1,0,0,1-2.5908,1.1514C607.9121,165.6421,606.8086,164.3589,606.8086,162.356Zm1.5957-.648v.0962h2.5664v-.1079c0-.8638-.4443-1.4512-1.2363-1.4512A1.3285,1.3285,0,0,0,608.4043,161.708Z"/><path d="M617.8105,164.4546H617.75a1.7588,1.7588,0,0,1-1.7266,1.1875c-1.5722,0-2.4472-1.1875-2.4472-3.2861,0-2.087.875-3.2623,2.4472-3.2623a1.7231,1.7231,0,0,1,1.7266,1.1753h.0605v-3.646h1.5352v8.875h-1.5352Zm0-1.1035V161.36c0-.6119-.5644-1.0074-1.2959-1.0074a1.3326,1.3326,0,0,0-1.331,1.4751v1.08a1.3225,1.3225,0,0,0,1.331,1.4629C617.2461,164.3706,617.8105,163.999,617.8105,163.3511Z"/><path d="M734.583,157.1265h3.0459c2.1836,0,3.61,1.4033,3.61,4.186s-1.4268,4.1855-3.61,4.1855H734.583Zm3.0459,6.9682c1.1758,0,1.9316-.6953,1.9316-2.1225v-1.3194c0-1.4272-.7558-2.123-1.9316-2.123H736.166v5.5649Z"/><path d="M742.335,162.356c0-1.979,1.0673-3.2623,2.9023-3.2623,1.9551,0,2.8545,1.439,2.8545,3.1543v.5035H743.93v.1562a1.39,1.39,0,0,0,1.5234,1.5108,1.9023,1.9023,0,0,0,1.5957-.8516l.8272.9238a3.1,3.1,0,0,1-2.5908,1.1514C743.4385,165.6421,742.335,164.3589,742.335,162.356Zm1.5947-.648v.0962h2.5674v-.1079c0-.8638-.4444-1.4512-1.2354-1.4512A1.3294,1.3294,0,0,0,743.93,161.708Z"/><path d="M748.9111,164.4907l.9356-.9116a2.2006,2.2006,0,0,0,1.7148.8516c.7315,0,1.044-.2759,1.044-.72,0-.36-.2159-.5874-.7676-.66l-.624-.084c-1.3428-.168-2.0869-.7554-2.0869-1.895,0-1.211.9472-1.9786,2.375-1.9786a2.9833,2.9833,0,0,1,2.4462.9834l-.8994.8995a2.0673,2.0673,0,0,0-1.499-.6719c-.6592,0-.9473.2641-.9473.6479,0,.42.2276.6114.8155.7076l.6357.0839c1.3672.1919,2.0264.8038,2.0264,1.8472,0,1.2109-1.02,2.0508-2.5781,2.0508A3.18,3.18,0,0,1,748.9111,164.4907Z"/><path d="M757.2979,165.498a1.4487,1.4487,0,0,1-1.6192-1.5952v-3.4541h-.9238v-1.2114h.48c.456,0,.6-.2158.6-.6475v-1.0673h1.38v1.7148h1.2832v1.2114h-1.2832v3.8262h1.1875v1.2231Z"/><path d="M759.8311,165.498v-6.2607h1.5351v1.2954h.06a1.6062,1.6062,0,0,1,1.6553-1.2954h.3359v1.4512h-.48c-1.0322,0-1.5713.2881-1.5713.9717v3.8378Z"/><path d="M764.0674,162.356c0-2.003,1.1152-3.2623,2.9023-3.2623,1.7989,0,2.9141,1.2593,2.9141,3.2623,0,2.0146-1.1152,3.2861-2.9141,3.2861C765.1826,165.6421,764.0674,164.3706,764.0674,162.356Zm4.21.5874V161.78c0-.9356-.5039-1.4512-1.3076-1.4512-.792,0-1.2949.5156-1.2949,1.4512v1.1631c0,.9477.5029,1.4633,1.2949,1.4633C767.7734,164.4067,768.2773,163.8911,768.2773,162.9434Z"/><path d="M774.9727,159.2373h1.4394l-2.5195,7.376a1.6168,1.6168,0,0,1-1.7862,1.2837h-.9238v-1.2237h1.127l.2881-.8754-2.2422-6.5606h1.5224l1.0918,3.3106.4073,1.583h.0722l.4317-1.583Z"/><path d="M776.9189,162.356c0-1.979,1.0674-3.2623,2.9024-3.2623,1.9551,0,2.8545,1.439,2.8545,3.1543v.5035h-4.1621v.1562a1.39,1.39,0,0,0,1.5234,1.5108,1.9025,1.9025,0,0,0,1.5957-.8516l.8272.9238a3.1,3.1,0,0,1-2.5909,1.1514C778.0225,165.6421,776.9189,164.3589,776.9189,162.356Zm1.5948-.648v.0962h2.5674v-.1079c0-.8638-.4444-1.4512-1.2354-1.4512A1.3294,1.3294,0,0,0,778.5137,161.708Z"/><path d="M787.9209,164.4546h-.06a1.76,1.76,0,0,1-1.7275,1.1875c-1.5713,0-2.4463-1.1875-2.4463-3.2861,0-2.087.875-3.2623,2.4463-3.2623a1.7252,1.7252,0,0,1,1.7275,1.1753h.06v-3.646h1.5352v8.875h-1.5352Zm0-1.1035V161.36c0-.6119-.5635-1.0074-1.2949-1.0074a1.3334,1.3334,0,0,0-1.3321,1.4751v1.08a1.3233,1.3233,0,0,0,1.3321,1.4629C787.3574,164.3706,787.9209,163.999,787.9209,163.3511Z"/><path d="M373.9014,289.2505l1.0674-1.0313a2.7261,2.7261,0,0,0,2.1464,1.0313c.9717,0,1.4756-.4673,1.4756-1.1753,0-.5635-.2637-.9111-1.14-1.0674l-.791-.12c-1.6914-.2642-2.5069-1.0674-2.5069-2.4346,0-1.5,1.1631-2.4707,3.0342-2.4707a3.517,3.517,0,0,1,2.8662,1.2354l-1.0791,1.019a2.2291,2.2291,0,0,0-1.8711-.8633c-.8994,0-1.3672.36-1.3672.9834,0,.6358.3594.8994,1.1641,1.0435l.7793.144c1.69.3,2.4824,1.0552,2.4824,2.4346,0,1.583-1.14,2.6626-3.1426,2.6626A3.8849,3.8849,0,0,1,373.9014,289.2505Z"/><path d="M385.3945,289.4546h-.06a1.6991,1.6991,0,0,1-1.751,1.1875c-1.2832,0-2.0029-.8877-2.0029-2.4468v-3.958h1.5351V288.04c0,.8632.3233,1.331,1.0557,1.331.6113,0,1.2226-.3237,1.2226-.9956v-4.1377H386.93v6.2607h-1.5352Z"/><path d="M388.1689,289.4907l.9356-.9116a2.2,2.2,0,0,0,1.7158.8516c.7305,0,1.043-.2759,1.043-.72,0-.36-.2168-.5874-.7676-.66l-.624-.084c-1.3428-.168-2.0869-.7554-2.0869-1.895,0-1.211.9472-1.9786,2.375-1.9786a2.9881,2.9881,0,0,1,2.4472.9834l-.9.9a2.0655,2.0655,0,0,0-1.499-.6719c-.6592,0-.9472.2641-.9472.6479,0,.42.2275.6114.8154.7076l.6357.0839c1.3672.1919,2.0264.8038,2.0264,1.8472,0,1.2109-1.0195,2.0508-2.5781,2.0508A3.18,3.18,0,0,1,388.1689,289.4907Z"/><path d="M394.6973,284.2373h1.5351v1.0317h.0479a1.7335,1.7335,0,0,1,1.7275-1.1753c1.582,0,2.458,1.1753,2.458,3.2623,0,2.0986-.876,3.2861-2.458,3.2861a1.7687,1.7687,0,0,1-1.7275-1.1875h-.0479v3.4424h-1.5351Zm4.1621,3.67v-1.08a1.3425,1.3425,0,0,0-1.3438-1.4751c-.7314,0-1.2832.3955-1.2832,1.0074v1.9907c0,.6479.5518,1.02,1.2832,1.02A1.3324,1.3324,0,0,0,398.8594,287.9077Z"/><path d="M401.4766,287.356c0-1.979,1.0683-3.2623,2.9023-3.2623,1.9551,0,2.8555,1.439,2.8555,3.1543v.5035h-4.1621v.1562a1.39,1.39,0,0,0,1.5234,1.5108,1.8993,1.8993,0,0,0,1.5947-.8516l.8272.9238a3.0977,3.0977,0,0,1-2.59,1.1514C402.58,290.6421,401.4766,289.3589,401.4766,287.356Zm1.5957-.648v.0962h2.5664v-.1079c0-.8638-.4434-1.4512-1.2354-1.4512A1.3286,1.3286,0,0,0,403.0723,286.708Z"/><path d="M408.5928,290.498v-6.2607h1.5351v1.0435h.06a1.7275,1.7275,0,0,1,1.752-1.1871c1.2832,0,2.0019.8873,2.0019,2.4463v3.958h-1.5352v-3.8017c0-.8877-.3-1.3433-1.0312-1.3433-.6357,0-1.2471.3355-1.2471,1.0074v4.1376Z"/><path d="M419.5352,289.4546h-.0606a1.7588,1.7588,0,0,1-1.7266,1.1875c-1.5722,0-2.4472-1.1875-2.4472-3.2861,0-2.087.875-3.2623,2.4472-3.2623a1.7231,1.7231,0,0,1,1.7266,1.1753h.0606v-3.646H421.07v8.875h-1.5351Zm0-1.1035V286.36c0-.6119-.5645-1.0074-1.2959-1.0074a1.3326,1.3326,0,0,0-1.3311,1.4751v1.08a1.3226,1.3226,0,0,0,1.3311,1.4629C418.9707,289.3706,419.5352,288.999,419.5352,288.3511Z"/><path d="M422.4287,287.356c0-1.979,1.0674-3.2623,2.9024-3.2623,1.955,0,2.8544,1.439,2.8544,3.1543v.5035h-4.1621v.1562a1.39,1.39,0,0,0,1.5235,1.5108,1.9026,1.9026,0,0,0,1.5957-.8516l.8271.9238a3.0982,3.0982,0,0,1-2.5908,1.1514C423.5322,290.6421,422.4287,289.3589,422.4287,287.356Zm1.5947-.648v.0962H426.59v-.1079c0-.8638-.4433-1.4512-1.2343-1.4512A1.33,1.33,0,0,0,424.0234,286.708Z"/><path d="M433.4307,289.4546h-.06a1.76,1.76,0,0,1-1.7275,1.1875c-1.5713,0-2.4463-1.1875-2.4463-3.2861,0-2.087.875-3.2623,2.4463-3.2623a1.7252,1.7252,0,0,1,1.7275,1.1753h.06v-3.646h1.5351v8.875h-1.5351Zm0-1.1035V286.36c0-.6119-.5635-1.0074-1.2959-1.0074a1.3325,1.3325,0,0,0-1.33,1.4751v1.08a1.3224,1.3224,0,0,0,1.33,1.4629C432.8672,289.3706,433.4307,288.999,433.4307,288.3511Z"/><path d="M371.3516,221.5449h-.0274a1.1707,1.1707,0,0,1-1.1133.6719,1.226,1.226,0,0,1-1.039-.4971,2.775,2.775,0,0,1,0-2.7861,1.2269,1.2269,0,0,1,1.039-.4966,1.17,1.17,0,0,1,1.1133.6719h.0274v-2.1563h.56v5.18h-.56Zm-.9239.1748a1.2729,1.2729,0,0,0,.3575-.0488.9164.9164,0,0,0,.2939-.1436.6991.6991,0,0,0,.1992-.2309.6651.6651,0,0,0,.0733-.3184v-1.3022a.6637.6637,0,0,0-.0733-.3184.6952.6952,0,0,0-.1992-.2309.9164.9164,0,0,0-.2939-.1436,1.2729,1.2729,0,0,0-.3575-.0493.9744.9744,0,0,0-.76.2978,1.1277,1.1277,0,0,0-.2686.7876v.6158a1.1277,1.1277,0,0,0,.2686.7876A.9741.9741,0,0,0,370.4277,221.72Z"/><path d="M373.3193,221.65h1.3018v-2.646h-1.3018v-.4829h1.8614V221.65h1.2187v.4829h-3.08Zm1.5821-3.9272a.4628.4628,0,0,1-.3428-.1016.352.352,0,0,1-.0986-.2554v-.1118a.3528.3528,0,0,1,.0986-.2554.6295.6295,0,0,1,.6855,0,.3517.3517,0,0,1,.0977.2554v.1118a.3509.3509,0,0,1-.0977.2554A.4657.4657,0,0,1,374.9014,217.7227Z"/><path d="M378.918,222.2168a2.2788,2.2788,0,0,1-.9766-.1924,2.1451,2.1451,0,0,1-.6963-.5146l.3779-.3291a1.9254,1.9254,0,0,0,.5674.42,1.7071,1.7071,0,0,0,.7422.1474,1.4026,1.4026,0,0,0,.69-.1508.503.503,0,0,0,.2695-.4722.4781.4781,0,0,0-.0527-.2349.4081.4081,0,0,0-.1436-.15.7945.7945,0,0,0-.2031-.0874,2.2679,2.2679,0,0,0-.2383-.0527l-.5664-.084c-.126-.0185-.2627-.0439-.4092-.0766a1.3673,1.3673,0,0,1-.4033-.1578.94.94,0,0,1-.3037-.2905.8342.8342,0,0,1-.1231-.4761.9281.9281,0,0,1,.4131-.8081,1.3858,1.3858,0,0,1,.4619-.2031,2.3932,2.3932,0,0,1,.5811-.0664,2.156,2.156,0,0,1,.8506.1538,1.8335,1.8335,0,0,1,.6191.4268l-.3633.3432a1.2324,1.2324,0,0,0-.1582-.1577,1.1008,1.1008,0,0,0-.23-.1469,1.5049,1.5049,0,0,0-.3184-.1084,1.8925,1.8925,0,0,0-.42-.042,1.2114,1.2114,0,0,0-.6553.1469.5247.5247,0,0,0-.1748.6617.4048.4048,0,0,0,.1436.15.7726.7726,0,0,0,.207.0874q.1143.0315.2344.0528l.5664.084q.1962.0278.4131.0771a1.3742,1.3742,0,0,1,.3994.1572.9612.9612,0,0,1,.3047.2906.8439.8439,0,0,1,.122.476.96.96,0,0,1-.416.8331A1.8932,1.8932,0,0,1,378.918,222.2168Z"/><path d="M384.4414,222.1328a.5778.5778,0,0,1-.4687-.168.8113.8113,0,0,1-.1748-.42h-.0352a1.01,1.01,0,0,1-.3818.4932,1.23,1.23,0,0,1-.7032.1787,1.3258,1.3258,0,0,1-.9033-.2939,1.0154,1.0154,0,0,1-.3359-.8052.912.912,0,0,1,.3672-.7769,2.017,2.017,0,0,1,1.1865-.2729h.77v-.355a.7532.7532,0,0,0-.2246-.5947.9283.9283,0,0,0-.6367-.1983,1.1131,1.1131,0,0,0-.5948.1436,1.0814,1.0814,0,0,0-.3711.3882l-.3779-.28a1.2868,1.2868,0,0,1,.1885-.274,1.2141,1.2141,0,0,1,.2949-.2373,1.5984,1.5984,0,0,1,.3985-.1635,1.9178,1.9178,0,0,1,.497-.06,1.4966,1.4966,0,0,1,1.0117.3228,1.1222,1.1222,0,0,1,.3741.8974V221.65h.5039v.4829Zm-1.666-.3848a1.3926,1.3926,0,0,0,.3955-.0527,1.153,1.153,0,0,0,.3115-.14.6588.6588,0,0,0,.2071-.21.5017.5017,0,0,0,.0732-.2622v-.5952h-.77a1.467,1.467,0,0,0-.7344.14.447.447,0,0,0-.2314.4058v.147a.4888.4888,0,0,0,.1992.4238A.9282.9282,0,0,0,382.7754,221.748Z"/><path d="M385.8418,216.9526h.56v2.1563h.0283a1.17,1.17,0,0,1,1.1133-.6719,1.2269,1.2269,0,0,1,1.039.4966,2.775,2.775,0,0,1,0,2.7861,1.226,1.226,0,0,1-1.039.4971,1.1707,1.1707,0,0,1-1.1133-.6719h-.0283v.5879h-.56Zm1.4844,4.7671a.9721.9721,0,0,0,.7588-.2973,1.1286,1.1286,0,0,0,.2695-.7876v-.6158a1.1286,1.1286,0,0,0-.2695-.7876.9724.9724,0,0,0-.7588-.2978,1.2722,1.2722,0,0,0-.3574.0493.9059.9059,0,0,0-.294.1436.6952.6952,0,0,0-.1992.2309.6527.6527,0,0,0-.0742.3184v1.3022a.654.654,0,0,0,.0742.3184.6991.6991,0,0,0,.1992.2309.9059.9059,0,0,0,.294.1436A1.2722,1.2722,0,0,0,387.3262,221.72Z"/><path d="M389.9365,221.65h1.2608V217.436h-1.2608v-.4834h1.82V221.65h1.26v.4829h-3.08Z"/><path d="M395.7393,222.2168a1.7752,1.7752,0,0,1-.7032-.1328,1.4694,1.4694,0,0,1-.5322-.3819,1.7181,1.7181,0,0,1-.34-.5947,2.3758,2.3758,0,0,1-.1192-.7734,2.3515,2.3515,0,0,1,.1231-.7842,1.7978,1.7978,0,0,1,.3388-.5986,1.4608,1.4608,0,0,1,.5215-.3814,1.677,1.677,0,0,1,.6758-.1328,1.6064,1.6064,0,0,1,.6611.1328,1.4789,1.4789,0,0,1,.5078.3677,1.636,1.636,0,0,1,.3223.5562,2.1534,2.1534,0,0,1,.1123.707v.2661h-2.6748v.168a1.2445,1.2445,0,0,0,.0772.4409,1.0083,1.0083,0,0,0,.2207.35.9755.9755,0,0,0,.35.2275,1.2549,1.2549,0,0,0,.459.0806,1.1582,1.1582,0,0,0,.63-.168,1.0891,1.0891,0,0,0,.4063-.4619l.4131.28a1.3429,1.3429,0,0,1-.5362.5986A1.6851,1.6851,0,0,1,395.7393,222.2168Zm-.0352-3.3179a1.07,1.07,0,0,0-.4268.084,1.0356,1.0356,0,0,0-.34.231,1.053,1.053,0,0,0-.2236.3466,1.158,1.158,0,0,0-.0811.4375v.0489h2.0723V219.97a1.2311,1.2311,0,0,0-.0733-.4341,1.06,1.06,0,0,0-.2031-.3393.8724.8724,0,0,0-.3154-.2207A1.0549,1.0549,0,0,0,395.7041,218.8989Z"/><path d="M407.5635,232.2168a1.7747,1.7747,0,0,1-.7031-.1328,1.4689,1.4689,0,0,1-.5323-.3819,1.72,1.72,0,0,1-.34-.5947,2.564,2.564,0,0,1,.0039-1.5576,1.7962,1.7962,0,0,1,.3389-.5986,1.46,1.46,0,0,1,.5214-.3814,1.6773,1.6773,0,0,1,.6758-.1328,1.6072,1.6072,0,0,1,.6612.1328,1.4808,1.4808,0,0,1,.5078.3677,1.6374,1.6374,0,0,1,.3222.5562,2.1507,2.1507,0,0,1,.1123.707v.2661H406.457v.168a1.2445,1.2445,0,0,0,.0772.4409,1.0083,1.0083,0,0,0,.2207.35.9755.9755,0,0,0,.35.2275,1.2549,1.2549,0,0,0,.459.0806,1.1585,1.1585,0,0,0,.63-.168,1.0889,1.0889,0,0,0,.4062-.4619l.4131.28a1.3427,1.3427,0,0,1-.5361.5986A1.6855,1.6855,0,0,1,407.5635,232.2168Zm-.0352-3.3179a1.0688,1.0688,0,0,0-.4267.084,1.035,1.035,0,0,0-.34.231,1.053,1.053,0,0,0-.2236.3466,1.158,1.158,0,0,0-.0811.4375v.0489h2.0723V229.97a1.2334,1.2334,0,0,0-.0732-.4341,1.06,1.06,0,0,0-.2032-.3393.8724.8724,0,0,0-.3154-.2207A1.0545,1.0545,0,0,0,407.5283,228.8989Z"/><path d="M410.2861,232.1328V228.521h.5606v.5879h.0283a1.4346,1.4346,0,0,1,.14-.2554.903.903,0,0,1,.2061-.2139,1.0437,1.0437,0,0,1,.291-.1469,1.2465,1.2465,0,0,1,.3916-.0557,1.198,1.198,0,0,1,.91.36,1.42,1.42,0,0,1,.3427,1.0185v2.3169h-.56v-2.2192a1.0789,1.0789,0,0,0-.2168-.7383.813.813,0,0,0-.6377-.2417,1.2987,1.2987,0,0,0-.3281.042.9422.9422,0,0,0-.2871.1265.6356.6356,0,0,0-.2032.2167.6013.6013,0,0,0-.0771.3082v2.5058Z"/><path d="M417.2646,232.1328a.5779.5779,0,0,1-.4687-.168.8113.8113,0,0,1-.1748-.42h-.0352a1.01,1.01,0,0,1-.3818.4932,1.23,1.23,0,0,1-.7031.1787,1.3256,1.3256,0,0,1-.9033-.2939,1.0152,1.0152,0,0,1-.336-.8052.9123.9123,0,0,1,.3672-.7769,2.017,2.017,0,0,1,1.1865-.2729h.77v-.355a.7532.7532,0,0,0-.2246-.5947.9283.9283,0,0,0-.6367-.1983,1.1127,1.1127,0,0,0-.5947.1436,1.0806,1.0806,0,0,0-.3711.3882l-.3779-.28a1.2826,1.2826,0,0,1,.1884-.274,1.2146,1.2146,0,0,1,.295-.2373,1.5992,1.5992,0,0,1,.3984-.1635,1.918,1.918,0,0,1,.4971-.06,1.4966,1.4966,0,0,1,1.0117.3228,1.1225,1.1225,0,0,1,.374.8974V231.65h.5039v.4829Zm-1.666-.3848a1.3921,1.3921,0,0,0,.3955-.0527,1.1537,1.1537,0,0,0,.3116-.14.6584.6584,0,0,0,.207-.21.5017.5017,0,0,0,.0732-.2622v-.5952h-.77a1.4668,1.4668,0,0,0-.7343.14.4471.4471,0,0,0-.2315.4058v.147a.4888.4888,0,0,0,.1992.4238A.9282.9282,0,0,0,415.5986,231.748Z"/><path d="M418.665,226.9526h.56v2.1563h.0283a1.17,1.17,0,0,1,1.1133-.6719,1.2271,1.2271,0,0,1,1.0391.4966,2.775,2.775,0,0,1,0,2.7861,1.2262,1.2262,0,0,1-1.0391.4971,1.1707,1.1707,0,0,1-1.1133-.6719h-.0283v.5879h-.56Zm1.4844,4.7671a.9719.9719,0,0,0,.7588-.2973,1.1282,1.1282,0,0,0,.2695-.7876v-.6158a1.1282,1.1282,0,0,0-.2695-.7876.9722.9722,0,0,0-.7588-.2978,1.2722,1.2722,0,0,0-.3574.0493.9069.9069,0,0,0-.294.1436.6975.6975,0,0,0-.1992.2309.6527.6527,0,0,0-.0742.3184v1.3022a.654.654,0,0,0,.0742.3184.7015.7015,0,0,0,.1992.2309.9069.9069,0,0,0,.294.1436A1.2722,1.2722,0,0,0,420.1494,231.72Z"/><path d="M422.76,231.65h1.2607V227.436H422.76v-.4834h1.82V231.65h1.26v.4829h-3.08Z"/><path d="M428.5635,232.2168a1.7747,1.7747,0,0,1-.7031-.1328,1.4689,1.4689,0,0,1-.5323-.3819,1.72,1.72,0,0,1-.34-.5947,2.564,2.564,0,0,1,.0039-1.5576,1.7962,1.7962,0,0,1,.3389-.5986,1.46,1.46,0,0,1,.5214-.3814,1.6773,1.6773,0,0,1,.6758-.1328,1.6072,1.6072,0,0,1,.6612.1328,1.4808,1.4808,0,0,1,.5078.3677,1.6374,1.6374,0,0,1,.3222.5562,2.1507,2.1507,0,0,1,.1123.707v.2661H427.457v.168a1.2445,1.2445,0,0,0,.0772.4409,1.0083,1.0083,0,0,0,.2207.35.9755.9755,0,0,0,.35.2275,1.2549,1.2549,0,0,0,.459.0806,1.1585,1.1585,0,0,0,.63-.168,1.0889,1.0889,0,0,0,.4062-.4619l.4131.28a1.3427,1.3427,0,0,1-.5361.5986A1.6855,1.6855,0,0,1,428.5635,232.2168Zm-.0352-3.3179a1.0688,1.0688,0,0,0-.4267.084,1.035,1.035,0,0,0-.34.231,1.053,1.053,0,0,0-.2236.3466,1.158,1.158,0,0,0-.0811.4375v.0489h2.0723V229.97a1.2334,1.2334,0,0,0-.0732-.4341,1.06,1.06,0,0,0-.2032-.3393.8724.8724,0,0,0-.3154-.2207A1.0545,1.0545,0,0,0,428.5283,228.8989Z"/><path d="M373.05,101.335h-.0273a1.1708,1.1708,0,0,1-1.1133.6718,1.2262,1.2262,0,0,1-1.0391-.497,2.7751,2.7751,0,0,1,0-2.7862,1.2271,1.2271,0,0,1,1.0391-.4965,1.17,1.17,0,0,1,1.1133.6718h.0273V96.7427h.5606v5.18H373.05Zm-.9238.1748a1.2686,1.2686,0,0,0,.3574-.0489.9152.9152,0,0,0,.2939-.1435.7019.7019,0,0,0,.1993-.231.6647.6647,0,0,0,.0732-.3183V99.4658a.6633.6633,0,0,0-.0732-.3183.697.697,0,0,0-.1993-.231.9174.9174,0,0,0-.2939-.1436,1.2722,1.2722,0,0,0-.3574-.0493.9742.9742,0,0,0-.76.2979,1.1273,1.1273,0,0,0-.2685.7876v.6157a1.1273,1.1273,0,0,0,.2685.7876A.9742.9742,0,0,0,372.126,101.51Z"/><path d="M376.4385,102.0068a1.7747,1.7747,0,0,1-.7031-.1328,1.4686,1.4686,0,0,1-.5323-.3818,1.7206,1.7206,0,0,1-.34-.5947,2.5643,2.5643,0,0,1,.0039-1.5577,1.7962,1.7962,0,0,1,.3389-.5986,1.4593,1.4593,0,0,1,.5214-.3813,1.6773,1.6773,0,0,1,.6758-.1328,1.6072,1.6072,0,0,1,.6612.1328,1.4805,1.4805,0,0,1,.5078.3676,1.6384,1.6384,0,0,1,.3222.5562,2.1512,2.1512,0,0,1,.1123.707v.2661H375.332v.168a1.2441,1.2441,0,0,0,.0772.4409,1.0065,1.0065,0,0,0,.2207.35.9757.9757,0,0,0,.35.2276,1.2549,1.2549,0,0,0,.459.0805,1.1585,1.1585,0,0,0,.63-.1679,1.0892,1.0892,0,0,0,.4062-.462l.4131.28a1.3434,1.3434,0,0,1-.5361.5987A1.6863,1.6863,0,0,1,376.4385,102.0068Zm-.0352-3.3178a1.0687,1.0687,0,0,0-.4267.0839,1.0365,1.0365,0,0,0-.34.231,1.0544,1.0544,0,0,0-.2236.3467,1.1573,1.1573,0,0,0-.0811.4375v.0488h2.0723V99.76a1.233,1.233,0,0,0-.0732-.4341,1.0593,1.0593,0,0,0-.2032-.3394.8736.8736,0,0,0-.3154-.2207A1.0563,1.0563,0,0,0,376.4033,98.689Z"/><path d="M379.0342,101.44h1.2607V97.2261h-1.2607v-.4834h1.82V101.44h1.26v.483h-3.08Z"/><path d="M384.8379,102.0068a1.7747,1.7747,0,0,1-.7031-.1328,1.47,1.47,0,0,1-.5323-.3818,1.7206,1.7206,0,0,1-.34-.5947,2.5663,2.5663,0,0,1,.0039-1.5577,1.7979,1.7979,0,0,1,.3389-.5986,1.4588,1.4588,0,0,1,.5215-.3813,1.6768,1.6768,0,0,1,.6757-.1328,1.6072,1.6072,0,0,1,.6612.1328,1.4805,1.4805,0,0,1,.5078.3676,1.6368,1.6368,0,0,1,.3222.5562,2.1512,2.1512,0,0,1,.1123.707v.2661h-2.6748v.168a1.2441,1.2441,0,0,0,.0772.4409,1.0079,1.0079,0,0,0,.2207.35.9757.9757,0,0,0,.35.2276,1.2549,1.2549,0,0,0,.459.0805,1.1585,1.1585,0,0,0,.63-.1679,1.0892,1.0892,0,0,0,.4062-.462l.4131.28a1.3434,1.3434,0,0,1-.5361.5987A1.6861,1.6861,0,0,1,384.8379,102.0068Zm-.0352-3.3178a1.0687,1.0687,0,0,0-.4267.0839,1.0365,1.0365,0,0,0-.34.231,1.0544,1.0544,0,0,0-.2236.3467,1.1573,1.1573,0,0,0-.0811.4375v.0488h2.0723V99.76a1.233,1.233,0,0,0-.0732-.4341,1.0593,1.0593,0,0,0-.2032-.3394.8736.8736,0,0,0-.3154-.2207A1.0563,1.0563,0,0,0,384.8027,98.689Z"/><path d="M389.15,101.9229a.7441.7441,0,0,1-.6055-.23.8928.8928,0,0,1-.1933-.5938V98.7939h-1.2032V98.311h.8955a.2746.2746,0,0,0,.3291-.3291v-.9453h.5391V98.311h1.6445v.4829h-1.6445v2.646h1.6445v.483Z"/><path d="M393.2383,102.0068a1.7747,1.7747,0,0,1-.7031-.1328,1.4686,1.4686,0,0,1-.5323-.3818,1.7206,1.7206,0,0,1-.34-.5947,2.5643,2.5643,0,0,1,.0039-1.5577,1.7962,1.7962,0,0,1,.3389-.5986,1.4593,1.4593,0,0,1,.5214-.3813,1.6776,1.6776,0,0,1,.6758-.1328,1.6072,1.6072,0,0,1,.6612.1328,1.4805,1.4805,0,0,1,.5078.3676,1.6384,1.6384,0,0,1,.3222.5562,2.1512,2.1512,0,0,1,.1123.707v.2661h-2.6748v.168a1.2441,1.2441,0,0,0,.0772.4409,1.0065,1.0065,0,0,0,.2207.35.9757.9757,0,0,0,.35.2276,1.2549,1.2549,0,0,0,.459.0805,1.1585,1.1585,0,0,0,.63-.1679,1.0892,1.0892,0,0,0,.4062-.462l.4131.28a1.3434,1.3434,0,0,1-.5361.5987A1.6863,1.6863,0,0,1,393.2383,102.0068Zm-.0352-3.3178a1.0687,1.0687,0,0,0-.4267.0839,1.0365,1.0365,0,0,0-.34.231,1.0544,1.0544,0,0,0-.2236.3467,1.1573,1.1573,0,0,0-.0811.4375v.0488h2.0723V99.76a1.233,1.233,0,0,0-.0732-.4341,1.0593,1.0593,0,0,0-.2032-.3394.8736.8736,0,0,0-.3154-.2207A1.0563,1.0563,0,0,0,393.2031,98.689Z"/><path d="M733.1934,100.7568H734.25v-2.646h-1.0566v-.4829h1.6171v.91h.0352a1.2037,1.2037,0,0,1,.4238-.6685,1.2577,1.2577,0,0,1,.795-.2412h.5039v.56h-.68a1.0976,1.0976,0,0,0-.7813.2788.9633.9633,0,0,0-.2969.7334v1.5566h1.4v.4829h-3.0175Z"/><path d="M739.0176,101.3237a1.7747,1.7747,0,0,1-.7031-.1328,1.4735,1.4735,0,0,1-.5313-.3818,1.6894,1.6894,0,0,1-.34-.5947,2.5643,2.5643,0,0,1,.0039-1.5577,1.7772,1.7772,0,0,1,.3379-.5986,1.4593,1.4593,0,0,1,.5214-.3813,1.6808,1.6808,0,0,1,.6758-.1329,1.6145,1.6145,0,0,1,.6621.1329,1.4882,1.4882,0,0,1,.5078.3676,1.67,1.67,0,0,1,.3223.5562,2.1539,2.1539,0,0,1,.1113.707v.2661h-2.6738v.168a1.2438,1.2438,0,0,0,.0762.4409,1.0212,1.0212,0,0,0,.2207.35.9845.9845,0,0,0,.35.2276,1.2587,1.2587,0,0,0,.459.0805,1.1614,1.1614,0,0,0,.6308-.1679,1.09,1.09,0,0,0,.4063-.462l.4121.28a1.3413,1.3413,0,0,1-.5352.5987A1.6917,1.6917,0,0,1,739.0176,101.3237Zm-.0352-3.3178a1.0647,1.0647,0,0,0-.4258.0839,1.0371,1.0371,0,0,0-.34.231,1.0721,1.0721,0,0,0-.2246.3467,1.1768,1.1768,0,0,0-.08.4375v.0488h2.0723v-.0771a1.233,1.233,0,0,0-.0742-.4341,1.0593,1.0593,0,0,0-.2032-.3394.87.87,0,0,0-.3144-.2207A1.0564,1.0564,0,0,0,738.9824,98.0059Z"/><path d="M743.1953,101.3237a2.28,2.28,0,0,1-.9765-.1924,2.1521,2.1521,0,0,1-.6954-.5146l.377-.3291a1.9379,1.9379,0,0,0,.5684.42,1.7018,1.7018,0,0,0,.7421.1475,1.4025,1.4025,0,0,0,.6895-.1509.503.503,0,0,0,.2695-.4722.4779.4779,0,0,0-.0527-.2348.4113.4113,0,0,0-.1445-.15.7817.7817,0,0,0-.2032-.0874,2.2674,2.2674,0,0,0-.2383-.0528l-.5664-.0839c-.125-.0186-.2617-.044-.4082-.0767a1.3732,1.3732,0,0,1-.4043-.1577.93.93,0,0,1-.3027-.29.8342.8342,0,0,1-.123-.4761.924.924,0,0,1,.4121-.8081,1.3874,1.3874,0,0,1,.4629-.2031,2.3848,2.3848,0,0,1,.58-.0665,2.1552,2.1552,0,0,1,.8516.1539,1.8322,1.8322,0,0,1,.6191.4267l-.3632.3433a1.3769,1.3769,0,0,0-.1582-.1577,1.1244,1.1244,0,0,0-.2305-.147,1.5227,1.5227,0,0,0-.3184-.1084,1.9043,1.9043,0,0,0-.42-.042,1.2138,1.2138,0,0,0-.6562.147.5254.5254,0,0,0-.1739.6616.4025.4025,0,0,0,.1426.15.7928.7928,0,0,0,.207.0874q.1143.0315.2344.0527l.5664.084c.1309.0186.27.0444.4141.0771a1.3573,1.3573,0,0,1,.3984.1573.9588.9588,0,0,1,.3047.29.8364.8364,0,0,1,.1231.4761.96.96,0,0,1-.4161.833A1.8965,1.8965,0,0,1,743.1953,101.3237Z"/><path d="M747.5293,101.24a.7452.7452,0,0,1-.6055-.23.8928.8928,0,0,1-.1933-.5938V98.1108h-1.2032v-.4829h.8965a.2737.2737,0,0,0,.3282-.3291v-.9453h.539v1.2744h1.6445v.4829H747.291v2.646h1.6445v.4829Z"/><path d="M751.5547,101.3237a1.6825,1.6825,0,0,1-.6817-.1328,1.4316,1.4316,0,0,1-.5195-.3818,1.69,1.69,0,0,1-.3242-.5947,2.7336,2.7336,0,0,1,0-1.5577,1.6905,1.6905,0,0,1,.3242-.5986,1.4361,1.4361,0,0,1,.5195-.3813,1.8146,1.8146,0,0,1,1.3633,0,1.4356,1.4356,0,0,1,.52.3813,1.7226,1.7226,0,0,1,.3242.5986,2.7336,2.7336,0,0,1,0,1.5577,1.7221,1.7221,0,0,1-.3242.5947,1.4312,1.4312,0,0,1-.52.3818A1.6888,1.6888,0,0,1,751.5547,101.3237Zm0-.4829a1.0346,1.0346,0,0,0,.7558-.28,1.1633,1.1633,0,0,0,.2872-.8676v-.5181a1.1657,1.1657,0,0,0-.2872-.8682,1.1611,1.1611,0,0,0-1.5117,0,1.1661,1.1661,0,0,0-.2871.8682v.5181a1.1637,1.1637,0,0,0,.2871.8676A1.0349,1.0349,0,0,0,751.5547,100.8408Z"/><path d="M754.1934,100.7568H755.25v-2.646h-1.0566v-.4829h1.6171v.91h.0352a1.2037,1.2037,0,0,1,.4238-.6685,1.2577,1.2577,0,0,1,.795-.2412h.5039v.56h-.68a1.0976,1.0976,0,0,0-.7813.2788.9633.9633,0,0,0-.2969.7334v1.5566h1.4v.4829h-3.0175Z"/><path d="M760.0176,101.3237a1.7747,1.7747,0,0,1-.7031-.1328,1.4647,1.4647,0,0,1-.5333-.3818,1.753,1.753,0,0,1-.34-.5947,2.404,2.404,0,0,1-.1191-.7735,2.3545,2.3545,0,0,1,.123-.7842,1.8155,1.8155,0,0,1,.34-.5986,1.4593,1.4593,0,0,1,.5214-.3813,1.6743,1.6743,0,0,1,.6758-.1329,1.5992,1.5992,0,0,1,.66.1329,1.4711,1.4711,0,0,1,.5078.3676,1.6081,1.6081,0,0,1,.3223.5562,2.1537,2.1537,0,0,1,.1132.707v.2661H758.91v.168a1.2443,1.2443,0,0,0,.0781.4409.9936.9936,0,0,0,.2207.35.9671.9671,0,0,0,.35.2276,1.2511,1.2511,0,0,0,.459.0805,1.1548,1.1548,0,0,0,.6289-.1679,1.09,1.09,0,0,0,.4062-.462l.4141.28a1.3458,1.3458,0,0,1-.5371.5987A1.68,1.68,0,0,1,760.0176,101.3237Zm-.0352-3.3178a1.0736,1.0736,0,0,0-.4277.0839,1.0277,1.0277,0,0,0-.5625.5777,1.1385,1.1385,0,0,0-.082.4375v.0488h2.0722v-.0771a1.2331,1.2331,0,0,0-.0722-.4341,1.0593,1.0593,0,0,0-.2032-.3394.8774.8774,0,0,0-.3164-.2207A1.0526,1.0526,0,0,0,759.9824,98.0059Z"/><path d="M525.5254,283.0054h-.0274a1.1707,1.1707,0,0,1-1.1132.6718,1.2262,1.2262,0,0,1-1.0391-.497,2.7751,2.7751,0,0,1,0-2.7862,1.2271,1.2271,0,0,1,1.0391-.4965,1.17,1.17,0,0,1,1.1132.6718h.0274v-2.1562h.5605v5.18h-.5605Zm-.9238.1748a1.2691,1.2691,0,0,0,.3574-.0489.9162.9162,0,0,0,.2939-.1435.7.7,0,0,0,.1992-.231.6635.6635,0,0,0,.0733-.3183v-1.3023a.6622.6622,0,0,0-.0733-.3183.6955.6955,0,0,0-.1992-.231.9162.9162,0,0,0-.2939-.1435,1.2691,1.2691,0,0,0-.3574-.0494.9745.9745,0,0,0-.76.2979,1.1274,1.1274,0,0,0-.2686.7876v.6157a1.1274,1.1274,0,0,0,.2686.7876A.9739.9739,0,0,0,524.6016,283.18Z"/><path d="M528.9141,283.6772a1.7752,1.7752,0,0,1-.7032-.1328,1.4691,1.4691,0,0,1-.5322-.3818,1.719,1.719,0,0,1-.34-.5947,2.3769,2.3769,0,0,1-.1192-.7735,2.3513,2.3513,0,0,1,.1231-.7841,1.7982,1.7982,0,0,1,.3388-.5987,1.4606,1.4606,0,0,1,.5215-.3813,1.677,1.677,0,0,1,.6758-.1328,1.6064,1.6064,0,0,1,.6611.1328,1.48,1.48,0,0,1,.5079.3676,1.6384,1.6384,0,0,1,.3222.5562,2.1538,2.1538,0,0,1,.1123.707v.2661h-2.6748v.168a1.2441,1.2441,0,0,0,.0772.4409,1.0065,1.0065,0,0,0,.2207.35.9744.9744,0,0,0,.35.2276,1.2549,1.2549,0,0,0,.459.08,1.1581,1.1581,0,0,0,.63-.1679,1.0891,1.0891,0,0,0,.4063-.4619l.4131.28a1.3437,1.3437,0,0,1-.5362.5987A1.686,1.686,0,0,1,528.9141,283.6772Zm-.0352-3.3178a1.0679,1.0679,0,0,0-.4268.084,1.0353,1.0353,0,0,0-.34.2309,1.0544,1.0544,0,0,0-.2236.3467,1.1573,1.1573,0,0,0-.0811.4375v.0488H529.88V281.43a1.2311,1.2311,0,0,0-.0733-.4341,1.0573,1.0573,0,0,0-.2031-.3394.8736.8736,0,0,0-.3154-.2207A1.0567,1.0567,0,0,0,528.8789,280.3594Z"/><path d="M531.51,283.11h1.2607v-4.2139H531.51v-.4834h1.82V283.11h1.26v.4829h-3.08Z"/><path d="M537.3135,283.6772a1.7747,1.7747,0,0,1-.7031-.1328,1.4686,1.4686,0,0,1-.5323-.3818,1.7206,1.7206,0,0,1-.34-.5947,2.564,2.564,0,0,1,.0039-1.5576,1.7967,1.7967,0,0,1,.3389-.5987,1.4593,1.4593,0,0,1,.5214-.3813,1.6773,1.6773,0,0,1,.6758-.1328,1.6072,1.6072,0,0,1,.6612.1328,1.4805,1.4805,0,0,1,.5078.3676,1.6384,1.6384,0,0,1,.3222.5562,2.1512,2.1512,0,0,1,.1123.707v.2661H536.207v.168a1.2441,1.2441,0,0,0,.0772.4409,1.0065,1.0065,0,0,0,.2207.35.9744.9744,0,0,0,.35.2276,1.2549,1.2549,0,0,0,.459.08,1.1585,1.1585,0,0,0,.63-.1679,1.0889,1.0889,0,0,0,.4062-.4619l.4131.28a1.3434,1.3434,0,0,1-.5361.5987A1.6863,1.6863,0,0,1,537.3135,283.6772Zm-.0352-3.3178a1.0671,1.0671,0,0,0-.4267.084,1.0347,1.0347,0,0,0-.34.2309,1.0544,1.0544,0,0,0-.2236.3467,1.1573,1.1573,0,0,0-.0811.4375v.0488h2.0723V281.43a1.2334,1.2334,0,0,0-.0732-.4341,1.0593,1.0593,0,0,0-.2032-.3394.8736.8736,0,0,0-.3154-.2207A1.0563,1.0563,0,0,0,537.2783,280.3594Z"/><path d="M541.626,283.5933a.7439.7439,0,0,1-.6055-.2305.8929.8929,0,0,1-.1934-.5938v-2.3046H539.624v-.483h.8955a.2746.2746,0,0,0,.3291-.3291v-.9453h.5391v1.2744h1.6445v.483h-1.6445v2.646h1.6445v.4829Z"/><path d="M545.7139,283.6772a1.7752,1.7752,0,0,1-.7032-.1328,1.4691,1.4691,0,0,1-.5322-.3818,1.7206,1.7206,0,0,1-.34-.5947,2.3769,2.3769,0,0,1-.1192-.7735,2.3513,2.3513,0,0,1,.1231-.7841,1.7982,1.7982,0,0,1,.3388-.5987,1.4606,1.4606,0,0,1,.5215-.3813,1.6773,1.6773,0,0,1,.6758-.1328,1.6064,1.6064,0,0,1,.6611.1328,1.48,1.48,0,0,1,.5079.3676,1.6384,1.6384,0,0,1,.3222.5562,2.1538,2.1538,0,0,1,.1123.707v.2661h-2.6748v.168a1.2441,1.2441,0,0,0,.0772.4409,1.0065,1.0065,0,0,0,.2207.35.9744.9744,0,0,0,.35.2276,1.2549,1.2549,0,0,0,.459.08,1.1585,1.1585,0,0,0,.63-.1679,1.09,1.09,0,0,0,.4062-.4619l.4131.28a1.3434,1.3434,0,0,1-.5361.5987A1.6866,1.6866,0,0,1,545.7139,283.6772Zm-.0352-3.3178a1.0671,1.0671,0,0,0-.4267.084,1.0347,1.0347,0,0,0-.34.2309,1.0544,1.0544,0,0,0-.2236.3467,1.1573,1.1573,0,0,0-.0811.4375v.0488H546.68V281.43a1.2311,1.2311,0,0,0-.0733-.4341,1.0573,1.0573,0,0,0-.2031-.3394.8736.8736,0,0,0-.3154-.2207A1.0567,1.0567,0,0,0,545.6787,280.3594Z"/><path d="M483.3242,146.9844a1.7764,1.7764,0,0,1-.7031-.1328,1.4705,1.4705,0,0,1-.5322-.3819,1.7183,1.7183,0,0,1-.34-.5947,2.566,2.566,0,0,1,.0039-1.5576,1.8012,1.8012,0,0,1,.3389-.5987,1.4609,1.4609,0,0,1,.5215-.3813,1.677,1.677,0,0,1,.6758-.1328,1.6067,1.6067,0,0,1,.6611.1328,1.48,1.48,0,0,1,.5078.3677,1.6365,1.6365,0,0,1,.3223.5561,2.1544,2.1544,0,0,1,.1123.7071v.2661h-2.6748v.1679a1.245,1.245,0,0,0,.0771.441,1.01,1.01,0,0,0,.2207.35.9755.9755,0,0,0,.35.2275,1.2549,1.2549,0,0,0,.459.0806,1.1583,1.1583,0,0,0,.63-.168,1.09,1.09,0,0,0,.4063-.4619l.413.28a1.3437,1.3437,0,0,1-.5361.5986A1.6861,1.6861,0,0,1,483.3242,146.9844Zm-.0351-3.3179a1.0679,1.0679,0,0,0-.4268.084,1.0358,1.0358,0,0,0-.34.2309,1.0547,1.0547,0,0,0-.2237.3467,1.1573,1.1573,0,0,0-.081.4375v.0489H484.29v-.0772a1.2334,1.2334,0,0,0-.0732-.4341,1.06,1.06,0,0,0-.2031-.3393.8719.8719,0,0,0-.3155-.2207A1.054,1.054,0,0,0,483.2891,143.6665Z"/><path d="M485.7881,146.9l1.3447-1.834-1.31-1.7778h.6719l.5459.7627.4346.602h.0273l.42-.602.539-.7627h.6445l-1.3232,1.771,1.3584,1.8408H488.47l-.6093-.8472-.4131-.5737h-.0284l-.3984.5737-.5879.8472Z"/><path d="M490.2256,143.2886h.56v.5879h.0283a1.17,1.17,0,0,1,1.1133-.6719,1.2269,1.2269,0,0,1,1.039.4966,2.775,2.775,0,0,1,0,2.7861,1.2263,1.2263,0,0,1-1.039.4971,1.1707,1.1707,0,0,1-1.1133-.6719h-.0283V148.3h-.56Zm1.4844,3.1987a.9718.9718,0,0,0,.7588-.2974,1.1283,1.1283,0,0,0,.2695-.7876v-.6157a1.1286,1.1286,0,0,0-.2695-.7876.9724.9724,0,0,0-.7588-.2978,1.2729,1.2729,0,0,0-.3575.0493.9082.9082,0,0,0-.2939.1435.6955.6955,0,0,0-.1992.231.6527.6527,0,0,0-.0742.3184v1.3022a.654.654,0,0,0,.0742.3184.7.7,0,0,0,.1992.2309.9063.9063,0,0,0,.2939.1436A1.2729,1.2729,0,0,0,491.71,146.4873Z"/><path d="M494.5029,146.4175h1.3018v-2.646h-1.3018v-.4829h1.8614v3.1289h1.2187V146.9h-3.08Zm1.5821-3.9273a.4632.4632,0,0,1-.3428-.1015.352.352,0,0,1-.0986-.2554v-.1118a.3527.3527,0,0,1,.0986-.2554.6295.6295,0,0,1,.6855,0,.3516.3516,0,0,1,.0977.2554v.1118a.3509.3509,0,0,1-.0977.2554A.4663.4663,0,0,1,496.085,142.49Z"/><path d="M498.5,146.4175h1.0566v-2.646H498.5v-.4829h1.6172v.91h.0351a1.2027,1.2027,0,0,1,.4229-.6684,1.2594,1.2594,0,0,1,.7949-.2412h.5039v.56h-.6787a1.0957,1.0957,0,0,0-.7812.2788.96.96,0,0,0-.2969.7334v1.5567h1.3994V146.9H498.5Z"/><path d="M504.3242,146.9844a1.7764,1.7764,0,0,1-.7031-.1328,1.4705,1.4705,0,0,1-.5322-.3819,1.7183,1.7183,0,0,1-.34-.5947,2.566,2.566,0,0,1,.0039-1.5576,1.8012,1.8012,0,0,1,.3389-.5987,1.4609,1.4609,0,0,1,.5215-.3813,1.677,1.677,0,0,1,.6758-.1328,1.6067,1.6067,0,0,1,.6611.1328,1.48,1.48,0,0,1,.5078.3677,1.6365,1.6365,0,0,1,.3223.5561,2.1544,2.1544,0,0,1,.1123.7071v.2661h-2.6748v.1679a1.245,1.245,0,0,0,.0771.441,1.01,1.01,0,0,0,.2207.35.9755.9755,0,0,0,.35.2275,1.2549,1.2549,0,0,0,.459.0806,1.1583,1.1583,0,0,0,.63-.168,1.09,1.09,0,0,0,.4063-.4619l.413.28a1.3437,1.3437,0,0,1-.5361.5986A1.6861,1.6861,0,0,1,504.3242,146.9844Zm-.0351-3.3179a1.0679,1.0679,0,0,0-.4268.084,1.0358,1.0358,0,0,0-.34.2309,1.0547,1.0547,0,0,0-.2237.3467,1.1573,1.1573,0,0,0-.081.4375v.0489H505.29v-.0772a1.2334,1.2334,0,0,0-.0732-.4341,1.06,1.06,0,0,0-.2031-.3393.8719.8719,0,0,0-.3155-.2207A1.054,1.054,0,0,0,504.2891,143.6665Z"/><path d="M663.833,146.3125h-.0273a1.1707,1.1707,0,0,1-1.1133.6719,1.2263,1.2263,0,0,1-1.0391-.4971,2.775,2.775,0,0,1,0-2.7861,1.2269,1.2269,0,0,1,1.0391-.4966,1.17,1.17,0,0,1,1.1133.6719h.0273V141.72h.5606v5.18h-.5606Zm-.9238.1748a1.2722,1.2722,0,0,0,.3574-.0488.9154.9154,0,0,0,.2939-.1436.7016.7016,0,0,0,.1993-.2309.6651.6651,0,0,0,.0732-.3184v-1.3022a.6637.6637,0,0,0-.0732-.3184.697.697,0,0,0-.1993-.231.9173.9173,0,0,0-.2939-.1435,1.2722,1.2722,0,0,0-.3574-.0493.9745.9745,0,0,0-.76.2978,1.1277,1.1277,0,0,0-.2685.7876v.6157a1.1273,1.1273,0,0,0,.2685.7876A.9739.9739,0,0,0,662.9092,146.4873Z"/><path d="M667.2217,146.9844a1.7764,1.7764,0,0,1-.7031-.1328,1.47,1.47,0,0,1-.5323-.3819,1.72,1.72,0,0,1-.34-.5947,2.564,2.564,0,0,1,.0039-1.5576,1.7977,1.7977,0,0,1,.3389-.5987,1.4605,1.4605,0,0,1,.5214-.3813,1.6776,1.6776,0,0,1,.6758-.1328,1.6072,1.6072,0,0,1,.6612.1328,1.4808,1.4808,0,0,1,.5078.3677,1.6379,1.6379,0,0,1,.3222.5561,2.1518,2.1518,0,0,1,.1123.7071v.2661h-2.6748v.1679a1.245,1.245,0,0,0,.0772.441,1.0083,1.0083,0,0,0,.2207.35.9755.9755,0,0,0,.35.2275,1.2549,1.2549,0,0,0,.459.0806,1.1585,1.1585,0,0,0,.63-.168,1.0889,1.0889,0,0,0,.4062-.4619l.4131.28a1.3437,1.3437,0,0,1-.5361.5986A1.6864,1.6864,0,0,1,667.2217,146.9844Zm-.0352-3.3179a1.0671,1.0671,0,0,0-.4267.084,1.0363,1.0363,0,0,0-.34.2309,1.0544,1.0544,0,0,0-.2236.3467,1.1573,1.1573,0,0,0-.0811.4375v.0489h2.0723v-.0772a1.2334,1.2334,0,0,0-.0732-.4341,1.06,1.06,0,0,0-.2032-.3393.8724.8724,0,0,0-.3154-.2207A1.0545,1.0545,0,0,0,667.1865,143.6665Z"/><path d="M669.8174,146.4175h1.2607v-4.2139h-1.2607V141.72h1.82v4.6973h1.26V146.9h-3.08Z"/><path d="M675.6211,146.9844a1.7764,1.7764,0,0,1-.7031-.1328,1.4709,1.4709,0,0,1-.5323-.3819,1.72,1.72,0,0,1-.34-.5947,2.566,2.566,0,0,1,.0039-1.5576,1.7994,1.7994,0,0,1,.3389-.5987,1.46,1.46,0,0,1,.5215-.3813,1.6768,1.6768,0,0,1,.6757-.1328,1.6072,1.6072,0,0,1,.6612.1328,1.4808,1.4808,0,0,1,.5078.3677,1.6363,1.6363,0,0,1,.3222.5561,2.1518,2.1518,0,0,1,.1124.7071v.2661h-2.6749v.1679a1.245,1.245,0,0,0,.0772.441,1.01,1.01,0,0,0,.2207.35.9755.9755,0,0,0,.35.2275,1.2549,1.2549,0,0,0,.459.0806,1.1585,1.1585,0,0,0,.63-.168,1.0889,1.0889,0,0,0,.4062-.4619l.4131.28a1.3437,1.3437,0,0,1-.5361.5986A1.6861,1.6861,0,0,1,675.6211,146.9844Zm-.0352-3.3179a1.0671,1.0671,0,0,0-.4267.084,1.0363,1.0363,0,0,0-.34.2309,1.0544,1.0544,0,0,0-.2236.3467,1.1573,1.1573,0,0,0-.0811.4375v.0489h2.0723v-.0772a1.2334,1.2334,0,0,0-.0732-.4341,1.06,1.06,0,0,0-.2032-.3393.8724.8724,0,0,0-.3154-.2207A1.0541,1.0541,0,0,0,675.5859,143.6665Z"/><path d="M679.9336,146.9a.7441.7441,0,0,1-.6055-.23.8925.8925,0,0,1-.1933-.5937v-2.3047h-1.2032v-.4829h.8955a.2747.2747,0,0,0,.3291-.3291v-.9453h.5391v1.2744H681.34v.4829h-1.6445v2.646H681.34V146.9Z"/><path d="M684.0215,146.9844a1.7764,1.7764,0,0,1-.7031-.1328,1.4709,1.4709,0,0,1-.5323-.3819,1.72,1.72,0,0,1-.34-.5947,2.564,2.564,0,0,1,.0039-1.5576,1.7977,1.7977,0,0,1,.3389-.5987,1.4605,1.4605,0,0,1,.5214-.3813,1.6776,1.6776,0,0,1,.6758-.1328,1.6072,1.6072,0,0,1,.6612.1328,1.4808,1.4808,0,0,1,.5078.3677,1.6379,1.6379,0,0,1,.3222.5561,2.1518,2.1518,0,0,1,.1123.7071v.2661H682.915v.1679a1.245,1.245,0,0,0,.0772.441,1.0083,1.0083,0,0,0,.2207.35.9755.9755,0,0,0,.35.2275,1.2549,1.2549,0,0,0,.459.0806,1.1585,1.1585,0,0,0,.63-.168,1.0889,1.0889,0,0,0,.4062-.4619l.4131.28a1.3437,1.3437,0,0,1-.5361.5986A1.6864,1.6864,0,0,1,684.0215,146.9844Zm-.0352-3.3179a1.0671,1.0671,0,0,0-.4267.084,1.0363,1.0363,0,0,0-.34.2309,1.0544,1.0544,0,0,0-.2236.3467,1.1573,1.1573,0,0,0-.0811.4375v.0489h2.0723v-.0772a1.2334,1.2334,0,0,0-.0732-.4341,1.06,1.06,0,0,0-.2032-.3393.8724.8724,0,0,0-.3154-.2207A1.0545,1.0545,0,0,0,683.9863,143.6665Z"/></g></svg>