<svg xmlns="http://www.w3.org/2000/svg" xmlns:xlink="http://www.w3.org/1999/xlink" viewBox="0 0 1000 550"><defs><clipPath id="908c0c77-8d4e-4bd4-b019-d2bc0f3a01ad"><rect x="722" y="168" width="41.15" height="40" fill="none"/></clipPath><clipPath id="270d18aa-fe9c-4ffd-812a-96ad7cce400c"><rect x="844" y="168" width="38.54" height="40" fill="none"/></clipPath><clipPath id="e42d46ac-adb4-4d3a-a18e-b6b76feaafe7"><polyline points="505.56 389 548.55 389 548.55 409 505.56 409 505.56 389" fill="none"/></clipPath><clipPath id="642e83ab-d51c-498a-a7cf-17f48ad8e423"><polyline points="505.56 409 548.55 409 548.55 389 505.56 389 505.56 409" fill="none"/></clipPath><clipPath id="79b690d2-e611-4519-8033-5768dfa19426"><polyline points="506.05 408.11 547.39 408.11 547.39 389.44 506.05 389.44 506.05 408.11" fill="none"/></clipPath><clipPath id="18507841-e884-45f5-a243-0c3673b71250"><polyline points="505.56 324 548.55 324 548.55 344 505.56 344 505.56 324" fill="none"/></clipPath><clipPath id="fb248aa8-9d8a-4c44-8dd0-ab651130d8e6"><polyline points="505.56 260 548.55 260 548.55 280 505.56 280 505.56 260" fill="none"/></clipPath><clipPath id="73648bf0-765b-4964-8924-bf3de2edfb20"><polyline points="505.56 195 548.55 195 548.55 215 505.56 215 505.56 195" fill="none"/></clipPath><clipPath id="acd8cebf-330e-40b3-9b57-ba71e5cefee7"><polyline points="341 173 383.99 173 383.99 193 341 193 341 173" fill="none"/></clipPath><clipPath id="f890f4fd-8cc6-43e5-b228-e691e3b99edc"><polyline points="341 176 383.99 176 383.99 196 341 196 341 176" fill="none"/></clipPath><clipPath id="eca3bb1e-bc7d-4e25-8d64-4034043cd4c6"><rect x="341" y="179" width="42.99" height="20" fill="none"/></clipPath><clipPath id="bdc0d3be-28cf-4642-a216-a83520caf90f"><rect x="392.39" y="317" width="25.61" height="12" fill="none"/></clipPath></defs><title>key-rotation</title><g id="e7c4ae8a-c2e0-487f-b055-a8bbf40e58c9" data-name="Visual"><rect x="301.5" y="84.5" width="649" height="416" fill="#fff"/><polyline points="950.5 499 950.5 500.5 949 500.5" fill="none" stroke="#d8d8d8" stroke-miterlimit="10"/><line x1="947" y1="500.5" x2="304" y2="500.5" fill="none" stroke="#d8d8d8" stroke-miterlimit="10" stroke-dasharray="3 2"/><polyline points="303 500.5 301.5 500.5 301.5 499" fill="none" stroke="#d8d8d8" stroke-miterlimit="10"/><line x1="301.5" y1="497" x2="301.5" y2="87" fill="none" stroke="#d8d8d8" stroke-miterlimit="10" stroke-dasharray="3.01 2"/><polyline points="301.5 86 301.5 84.5 303 84.5" fill="none" stroke="#d8d8d8" stroke-miterlimit="10"/><line x1="305" y1="84.5" x2="948" y2="84.5" fill="none" stroke="#d8d8d8" stroke-miterlimit="10" stroke-dasharray="3 2"/><polyline points="949 84.5 950.5 84.5 950.5 86" fill="none" stroke="#d8d8d8" stroke-miterlimit="10"/><line x1="950.5" y1="88" x2="950.5" y2="498" fill="none" stroke="#d8d8d8" stroke-miterlimit="10" stroke-dasharray="3.01 2"/><rect x="324.5" y="123.5" width="304" height="352" fill="#edf5ff"/><polyline points="628.5 474 628.5 475.5 627 475.5" fill="none" stroke="#000f5e" stroke-miterlimit="10"/><line x1="625.01" y1="475.5" x2="327" y2="475.5" fill="none" stroke="#000f5e" stroke-miterlimit="10" stroke-dasharray="2.99 1.99"/><polyline points="326 475.5 324.5 475.5 324.5 474" fill="none" stroke="#000f5e" stroke-miterlimit="10"/><line x1="324.5" y1="471.99" x2="324.5" y2="126.01" fill="none" stroke="#000f5e" stroke-miterlimit="10" stroke-dasharray="3.02 2.01"/><polyline points="324.5 125 324.5 123.5 326 123.5" fill="none" stroke="#000f5e" stroke-miterlimit="10"/><line x1="327.99" y1="123.5" x2="626" y2="123.5" fill="none" stroke="#000f5e" stroke-miterlimit="10" stroke-dasharray="2.99 1.99"/><polyline points="627 123.5 628.5 123.5 628.5 125" fill="none" stroke="#000f5e" stroke-miterlimit="10"/><line x1="628.5" y1="127.01" x2="628.5" y2="472.99" fill="none" stroke="#000f5e" stroke-miterlimit="10" stroke-dasharray="3.02 2.01"/><polyline points="737.5 277.59 737.5 398.5 589 398.5" fill="none" stroke="#a71c71" stroke-miterlimit="10"/><polygon points="735.01 278.32 737.5 274 739.99 278.32 735.01 278.32" fill="#a71c71"/><rect x="480.5" y="139.5" width="119" height="319" fill="#fff"/><rect x="480.5" y="139.5" width="119" height="319" fill="none" stroke="#eaeaea" stroke-miterlimit="10" stroke-width="0.5"/><path d="M176,183H278a0,0,0,0,1,0,0v23.49A10.51,10.51,0,0,1,267.49,217h-81A10.51,10.51,0,0,1,176,206.49V183A0,0,0,0,1,176,183Z" fill="#b380e0" opacity="0.15"/><line x1="294.82" y1="183.25" x2="152.05" y2="183.25" fill="none" stroke="#000f5e" stroke-miterlimit="10"/><polygon points="293.37 178.26 302 183.25 293.37 188.24 293.37 178.26" fill="#000f5e"/><circle cx="152.26" cy="183.25" r="3.76" fill="#fff"/><path d="M152.26,179a4.26,4.26,0,1,1-4.26,4.26,4.26,4.26,0,0,1,4.26-4.26Zm0,7.52a3.26,3.26,0,1,0-3.26-3.26,3.26,3.26,0,0,0,3.26,3.26Z" fill="#000f5e"/><rect x="676.5" y="123.5" width="249" height="150" fill="#eaeaea"/><polyline points="925.5 272 925.5 273.5 924 273.5" fill="none" stroke="#000f5e" stroke-miterlimit="10"/><line x1="922.01" y1="273.5" x2="679" y2="273.5" fill="none" stroke="#000f5e" stroke-miterlimit="10" stroke-dasharray="2.99 1.99"/><polyline points="678 273.5 676.5 273.5 676.5 272" fill="none" stroke="#000f5e" stroke-miterlimit="10"/><line x1="676.5" y1="270" x2="676.5" y2="126" fill="none" stroke="#000f5e" stroke-miterlimit="10" stroke-dasharray="3 2"/><polyline points="676.5 125 676.5 123.5 678 123.5" fill="none" stroke="#000f5e" stroke-miterlimit="10"/><line x1="679.99" y1="123.5" x2="923" y2="123.5" fill="none" stroke="#000f5e" stroke-miterlimit="10" stroke-dasharray="2.99 1.99"/><polyline points="924 123.5 925.5 123.5 925.5 125" fill="none" stroke="#000f5e" stroke-miterlimit="10"/><line x1="925.5" y1="127" x2="925.5" y2="271" fill="none" stroke="#000f5e" stroke-miterlimit="10" stroke-dasharray="3 2"/><g clip-path="url(#908c0c77-8d4e-4bd4-b019-d2bc0f3a01ad)"><g clip-path="url(#908c0c77-8d4e-4bd4-b019-d2bc0f3a01ad)"><path d="M755.65,194.5a2.57,2.57,0,0,1-2,.79,6.66,6.66,0,0,1-1.08-.07c-.35-.08-.71-.12-1-.22a20.25,20.25,0,0,1-3.93-1.57,40.78,40.78,0,0,1-6.94-4.78c-1.07-.92-2.13-1.85-3.13-2.86a20,20,0,0,1-2.68-3.33,16.23,16.23,0,0,1-1.84-3.95,10.77,10.77,0,0,1-.25-1.09,6.94,6.94,0,0,1-.07-1.15,4,4,0,0,1,.2-1.15q.14-.28.28-.53c.14-.15.28-.28.41-.41l.17.16a2.32,2.32,0,0,0,0,1.82,8.39,8.39,0,0,0,.78,1.73,28.31,28.31,0,0,0,2.23,3.24,75.56,75.56,0,0,0,5.18,6.15,39.29,39.29,0,0,0,6.27,5.14,19.27,19.27,0,0,0,3.57,1.89c.31.13.63.21,1,.31a6.25,6.25,0,0,0,1,.17,2.22,2.22,0,0,0,1.82-.45Z" fill="#efc100"/><path d="M762,170.78l-7.05-.26.24.27H755l-.29-.29-13.6,13.6.16.16-2.4,2.4a11.1,11.1,0,0,0-3.24-.48,10.39,10.39,0,1,0,10.77,10.38,10,10,0,0,0-.67-3.57l3.74-3.74-.77-.77,1.95-1.95.74.74,9.75-9.75.27.3,0-.61.27-.27-.23-.23Z" fill="#cba9e6"/><path d="M755.08,169.54l-15.88,15.88a11.54,11.54,0,1,0,7.69,7.69l3.06-3.06v-2.56h2.56l10.26-10.26v-7.69Zm6.41,7.16-9.5,9.5h-3.32v3.32L746,192.21l-.54.54.22.74a10.27,10.27,0,1,1-6.84-6.84l.73.22.54-.54,15.51-15.51h5.88Z" fill="#6e177d"/><path d="M733.19,196.52a2.56,2.56,0,1,1-2.56,2.56,2.56,2.56,0,0,1,2.56-2.56" fill="#6e177d"/><rect x="748.26" y="177.93" width="10.88" height="1.28" transform="translate(94.48 585.25) rotate(-45)" fill="#6e177d"/><path d="M759.66,169.24l-7.05-.26.24.27h-.14l-.29-.29-13.6,13.6.16.16-2.4,2.4a11.1,11.1,0,0,0-3.24-.48A10.39,10.39,0,1,0,744.12,195a10,10,0,0,0-.67-3.57l3.74-3.74-.77-.77,1.95-1.95.74.74,9.75-9.75.27.3,0-.61.27-.27-.23-.23Z" fill="#9bc1fa"/><path d="M752.77,168l-15.88,15.88a11.54,11.54,0,1,0,7.69,7.69l3.06-3.06v-2.56h2.56l10.26-10.26V168Zm6.41,7.16-9.5,9.5h-3.32V188l-2.69,2.69-.54.54.22.74a10.27,10.27,0,1,1-6.84-6.84l.73.22.54-.54,15.51-15.51h5.88Z" fill="#000f5e"/><path d="M730.88,195a2.56,2.56,0,1,1-2.56,2.56,2.56,2.56,0,0,1,2.56-2.56" fill="#000f5e"/><rect x="745.96" y="176.4" width="10.88" height="1.28" transform="translate(94.89 583.17) rotate(-45)" fill="#000f5e"/><path d="M733.57,174.19a2.57,2.57,0,0,1,2-.79,6.65,6.65,0,0,1,1.08.07c.35.08.71.12,1,.22a20.23,20.23,0,0,1,3.93,1.57,40.79,40.79,0,0,1,6.94,4.78c1.07.92,2.13,1.85,3.13,2.86a19.93,19.93,0,0,1,2.68,3.33,16.24,16.24,0,0,1,1.84,3.95,10.77,10.77,0,0,1,.25,1.09,6.94,6.94,0,0,1,.07,1.15,4,4,0,0,1-.2,1.15c-.09.19-.19.36-.28.53s-.28.28-.42.41l-.17-.16a2.32,2.32,0,0,0,0-1.82,8.41,8.41,0,0,0-.78-1.73,28.22,28.22,0,0,0-2.23-3.24,75.55,75.55,0,0,0-5.18-6.15,39.29,39.29,0,0,0-6.27-5.14,19.29,19.29,0,0,0-3.57-1.89c-.31-.13-.63-.21-1-.31a6.24,6.24,0,0,0-1-.17,2.22,2.22,0,0,0-1.82.45Z" fill="#efc100"/><path d="M761.62,201.56a4.25,4.25,0,1,1-4.23-4.62,4.44,4.44,0,0,1,4.23,4.62" fill="#fff"/><path d="M761.62,195.63a4.63,4.63,0,0,0-6.62-4.15,4.79,4.79,0,0,0-2.61,4.35v1.89a6.15,6.15,0,1,0,9.23,0Zm-7.69,0a3.07,3.07,0,0,1,4.82-2.49,3.33,3.33,0,0,1,1.33,2.73v.59a6.12,6.12,0,0,0-6.15,0Zm2.17,9.55-2.85-2.85,1.09-1.09L756.1,203l4.07-4.07,1.09,1.09Z" fill="#5aa700"/></g></g><g clip-path="url(#270d18aa-fe9c-4ffd-812a-96ad7cce400c)"><g clip-path="url(#270d18aa-fe9c-4ffd-812a-96ad7cce400c)"><path d="M882.43,181.73a3.39,3.39,0,0,1-.56,2.74,10.32,10.32,0,0,1-1.85,2.12,26.17,26.17,0,0,1-4.57,3.2A53,53,0,0,1,865.18,194a39.71,39.71,0,0,1-11,2,22,22,0,0,1-5.66-.62,9.7,9.7,0,0,1-2.7-1.11,4.93,4.93,0,0,1-1.14-1,2.54,2.54,0,0,1-.59-1.37l.22-.06a3.14,3.14,0,0,0,2,1.47,11,11,0,0,0,2.53.47,32.66,32.66,0,0,0,5.27-.08,79.3,79.3,0,0,0,10.62-1.5,51.43,51.43,0,0,0,10.21-3.48,25.22,25.22,0,0,0,4.64-2.72,9.76,9.76,0,0,0,1.9-1.85,3,3,0,0,0,.74-2.41Z" fill="#efc100"/><polygon points="875.78 177.94 875.78 205.48 852.07 205.48 852.07 168.76 865.84 168.76 865.84 177.94 875.78 177.94" fill="#fff"/><path d="M866.3,168H851v38.25h25.5v-28Zm8.92,37H852.28v-35.7H865v10.2h10.2Z" fill="#000f5e"/><rect x="856.1" y="183.3" width="15.3" height="1.28" fill="#000f5e"/><rect x="856.1" y="185.85" width="15.3" height="1.28" fill="#000f5e"/><rect x="856.1" y="188.4" width="7.65" height="1.28" fill="#000f5e"/><path d="M844.11,191.95a3.39,3.39,0,0,1,.56-2.74,10.33,10.33,0,0,1,1.85-2.12,26.13,26.13,0,0,1,4.57-3.2,52.92,52.92,0,0,1,10.27-4.23,39.71,39.71,0,0,1,11-2,22,22,0,0,1,5.66.62,9.71,9.71,0,0,1,2.7,1.11,4.93,4.93,0,0,1,1.14,1,2.54,2.54,0,0,1,.59,1.37l-.22.06a3.14,3.14,0,0,0-2-1.47,11,11,0,0,0-2.53-.47,32.65,32.65,0,0,0-5.27.08,79.28,79.28,0,0,0-10.62,1.5,51.47,51.47,0,0,0-10.21,3.48,25.27,25.27,0,0,0-4.64,2.72,9.76,9.76,0,0,0-1.9,1.85,3,3,0,0,0-.74,2.41Z" fill="#efc100"/><path d="M876.55,201.66a4.22,4.22,0,1,1-4.21-4.59,4.41,4.41,0,0,1,4.21,4.59" fill="#fff"/><path d="M876.85,195.76a4.61,4.61,0,0,0-6.58-4.12,4.76,4.76,0,0,0-2.59,4.32v1.88a6.12,6.12,0,1,0,9.18,0Zm-7.65,0a3,3,0,0,1,4.8-2.48,3.31,3.31,0,0,1,1.32,2.71v.59a6.08,6.08,0,0,0-6.12,0Zm2.16,9.5-2.84-2.84,1.08-1.08,1.75,1.75,4-4,1.08,1.08Z" fill="#5aa700"/></g></g><line x1="781.25" y1="194.5" x2="822.41" y2="194.5" fill="none" stroke="#a71c71" stroke-miterlimit="10"/><rect x="781" y="192.88" width="0.5" height="3.25" fill="#a71c71"/><polygon points="821.68 196.99 826 194.5 821.68 192.01 821.68 196.99" fill="#a71c71"/><polyline points="361 247.02 361 398 486.41 398" fill="none" stroke="#a71c71" stroke-miterlimit="10"/><circle cx="361" cy="247.13" r="1.88" fill="#fff"/><path d="M358.87,247.13A2.13,2.13,0,1,0,361,245a2.13,2.13,0,0,0-2.13,2.13Zm3.76,0A1.63,1.63,0,1,1,361,245.5a1.63,1.63,0,0,1,1.63,1.63Z" fill="#a71c71"/><polygon points="485.68 400.49 490 398 485.68 395.51 485.68 400.49" fill="#a71c71"/><polygon points="344.5 285.5 344.5 327.25 344.5 369 395.04 369 446 369 446 327.25 446 285.5 344.5 285.5" fill="#c5deff"/><line x1="672.41" y1="206.25" x2="602.59" y2="206.25" fill="none" stroke="#b380e0" stroke-miterlimit="10"/><polygon points="671.68 203.76 676 206.25 671.68 208.74 671.68 203.76" fill="#b380e0"/><polygon points="603.32 203.76 599 206.25 603.32 208.74 603.32 203.76" fill="#b380e0"/><path d="M567,393a6,6,0,1,0,6,6A6,6,0,0,0,567,393Zm-.82,8.45L563.73,399l.82-.82,1.64,1.64,3.25-3.25.82.77Z" fill="#5aa700"/><g clip-path="url(#e42d46ac-adb4-4d3a-a18e-b6b76feaafe7)"><g clip-path="url(#642e83ab-d51c-498a-a7cf-17f48ad8e423)"><g clip-path="url(#e42d46ac-adb4-4d3a-a18e-b6b76feaafe7)"><g clip-path="url(#79b690d2-e611-4519-8033-5768dfa19426)"><path d="M515.39,389.44h0a9.33,9.33,0,1,0,8.42,13.33h4.91v-1.33h2v1.33h12.67l4-4-4-4H523.81a9.32,9.32,0,0,0-8.42-5.33" fill="#ceaceb"/></g><path d="M543.83,394.29H524.37a10,10,0,1,0,0,9.43h3.75l1.57-1.57,1.57,1.57h12.57l4.71-4.71Zm-.46,8.32H531.72l-1.25-1.25-.79-.79-.79.79-1.25,1.25h-4l-.31.59a8.89,8.89,0,1,1,0-8.38l.31.59h19.67L547,399Z" fill="#6e177d"/><path d="M513.88,397.41a2.22,2.22,0,1,1-3.14,0,2.22,2.22,0,0,1,3.14,0" fill="#6e177d"/><rect x="532.74" y="398.43" width="9.43" height="1.11" fill="#6e177d"/></g></g></g><g clip-path="url(#18507841-e884-45f5-a243-0c3673b71250)"><g clip-path="url(#18507841-e884-45f5-a243-0c3673b71250)"><path d="M532.74,334.54v-1.11h9.43v1.11h-9.43m-20.43,1.67a2.22,2.22,0,1,1,1.57-.65,2.22,2.22,0,0,1-1.57.65m3.24-11.09a8.89,8.89,0,1,0,7.84,13.07l.31-.59h4l1.25-1.25.79-.79.79.79,1.25,1.25h11.65L547,334l-3.6-3.6H523.7l-.31-.59a8.87,8.87,0,0,0-7.84-4.69" fill="#e2cdf3"/><path d="M515.55,342.88a8.89,8.89,0,1,1,7.84-13.07l.31.59h19.67L547,334l-3.6,3.6H531.72l-1.25-1.25-.79-.79-.79.79-1.25,1.25h-4l-.31.59a8.87,8.87,0,0,1-7.84,4.69m0-18.88h0a10,10,0,0,0,0,20h.11a10,10,0,0,0,8.76-5.29h3.75l1.57-1.57,1.57,1.57h12.57l4.71-4.71-4.71-4.71H524.37a10,10,0,0,0-8.8-5.29" fill="#a874b1"/><path d="M512.31,331.76a2.22,2.22,0,1,0,1.57.65,2.22,2.22,0,0,0-1.57-.65" fill="#a874b1"/><polyline points="542.17 333.43 532.74 333.43 532.74 334.54 542.17 334.54 542.17 333.43" fill="#a874b1"/></g></g><g clip-path="url(#fb248aa8-9d8a-4c44-8dd0-ab651130d8e6)"><g clip-path="url(#fb248aa8-9d8a-4c44-8dd0-ab651130d8e6)"><path d="M532.74,270.54v-1.11h9.43v1.11h-9.43m-20.43,1.67a2.22,2.22,0,1,1,1.57-.65,2.22,2.22,0,0,1-1.57.65m3.24-11.09a8.89,8.89,0,1,0,7.84,13.07l.31-.59h4l1.25-1.25.79-.79.79.79,1.25,1.25h11.65L547,270l-3.6-3.6H523.7l-.31-.59a8.87,8.87,0,0,0-7.84-4.69" fill="#e2cdf3"/><path d="M515.55,278.88a8.89,8.89,0,1,1,7.84-13.07l.31.59h19.67L547,270l-3.6,3.6H531.72l-1.25-1.25-.79-.79-.79.79-1.25,1.25h-4l-.31.59a8.87,8.87,0,0,1-7.84,4.69m0-18.88h0a10,10,0,0,0,0,20h.11a10,10,0,0,0,8.76-5.29h3.75l1.57-1.57,1.57,1.57h12.57l4.71-4.71-4.71-4.71H524.37a10,10,0,0,0-8.8-5.29" fill="#a874b1"/><path d="M512.31,267.76a2.22,2.22,0,1,0,1.57.65,2.22,2.22,0,0,0-1.57-.65" fill="#a874b1"/><polyline points="542.17 269.43 532.74 269.43 532.74 270.54 542.17 270.54 542.17 269.43" fill="#a874b1"/></g></g><g clip-path="url(#73648bf0-765b-4964-8924-bf3de2edfb20)"><g clip-path="url(#73648bf0-765b-4964-8924-bf3de2edfb20)"><path d="M532.74,205.54v-1.11h9.43v1.11h-9.43m-20.43,1.67a2.22,2.22,0,1,1,1.57-.65,2.22,2.22,0,0,1-1.57.65m3.24-11.09a8.89,8.89,0,1,0,7.84,13.07l.31-.59h4l1.25-1.25.79-.79.79.79,1.25,1.25h11.65L547,205l-3.6-3.6H523.7l-.31-.59a8.87,8.87,0,0,0-7.84-4.69" fill="#e2cdf3"/><path d="M515.55,213.88a8.89,8.89,0,1,1,7.84-13.07l.31.59h19.67L547,205l-3.6,3.6H531.72l-1.25-1.25-.79-.79-.79.79-1.25,1.25h-4l-.31.59a8.87,8.87,0,0,1-7.84,4.69m0-18.88h0a10,10,0,0,0,0,20h.11a10,10,0,0,0,8.76-5.29h3.75l1.57-1.57,1.57,1.57h12.57l4.71-4.71-4.71-4.71H524.37a10,10,0,0,0-8.8-5.29" fill="#a874b1"/><path d="M512.31,202.76a2.22,2.22,0,1,0,1.57.65,2.22,2.22,0,0,0-1.57-.65" fill="#a874b1"/><polyline points="542.17 204.43 532.74 204.43 532.74 205.54 542.17 205.54 542.17 204.43" fill="#a874b1"/></g></g><g clip-path="url(#acd8cebf-330e-40b3-9b57-ba71e5cefee7)"><g clip-path="url(#acd8cebf-330e-40b3-9b57-ba71e5cefee7)"><path d="M368.18,183.54v-1.11h9.43v1.11h-9.43m-20.43,1.67a2.22,2.22,0,1,1,1.57-.65,2.22,2.22,0,0,1-1.57.65M351,174.12a8.89,8.89,0,1,0,7.84,13.07l.31-.59h4l1.25-1.25.79-.79.79.79,1.25,1.25h11.65l3.6-3.6-3.6-3.6H359.14l-.31-.59a8.87,8.87,0,0,0-7.84-4.69" fill="#e2cdf3"/><path d="M351,191.88a8.89,8.89,0,1,1,7.84-13.07l.31.59h19.67l3.6,3.6-3.6,3.6H367.16l-1.25-1.25-.79-.79-.79.79-1.25,1.25h-4l-.31.59a8.87,8.87,0,0,1-7.84,4.69M351,173h0a10,10,0,0,0,0,20H351a10,10,0,0,0,8.76-5.29h3.75l1.57-1.57,1.57,1.57h12.57L384,183l-4.71-4.71H359.81A10,10,0,0,0,351,173" fill="#a874b1"/><path d="M347.75,180.76a2.22,2.22,0,1,0,1.57.65,2.22,2.22,0,0,0-1.57-.65" fill="#a874b1"/><polyline points="377.61 182.43 368.18 182.43 368.18 183.54 377.61 183.54 377.61 182.43" fill="#a874b1"/></g></g><g clip-path="url(#f890f4fd-8cc6-43e5-b228-e691e3b99edc)"><g clip-path="url(#f890f4fd-8cc6-43e5-b228-e691e3b99edc)"><path d="M368.18,186.54v-1.11h9.43v1.11h-9.43m-20.43,1.67a2.22,2.22,0,1,1,1.57-.65,2.22,2.22,0,0,1-1.57.65M351,177.12a8.89,8.89,0,1,0,7.84,13.07l.31-.59h4l1.25-1.25.79-.79.79.79,1.25,1.25h11.65l3.6-3.6-3.6-3.6H359.14l-.31-.59a8.87,8.87,0,0,0-7.84-4.69" fill="#e2cdf3"/><path d="M351,194.88a8.89,8.89,0,1,1,7.84-13.07l.31.59h19.67l3.6,3.6-3.6,3.6H367.16l-1.25-1.25-.79-.79-.79.79-1.25,1.25h-4l-.31.59a8.87,8.87,0,0,1-7.84,4.69M351,176h0a10,10,0,0,0,0,20H351a10,10,0,0,0,8.76-5.29h3.75l1.57-1.57,1.57,1.57h12.57L384,186l-4.71-4.71H359.81A10,10,0,0,0,351,176" fill="#a874b1"/><path d="M347.75,183.76a2.22,2.22,0,1,0,1.57.65,2.22,2.22,0,0,0-1.57-.65" fill="#a874b1"/><polyline points="377.61 185.43 368.18 185.43 368.18 186.54 377.61 186.54 377.61 185.43" fill="#a874b1"/></g></g><g clip-path="url(#eca3bb1e-bc7d-4e25-8d64-4034043cd4c6)"><g clip-path="url(#eca3bb1e-bc7d-4e25-8d64-4034043cd4c6)"><path d="M350.83,179.44a9.33,9.33,0,1,0,8.42,13.33h4.91l.67-1.33.67.67.67.67h12.67l4-4-4-4H359.25a9.32,9.32,0,0,0-8.42-5.33" fill="#ceaceb"/><path d="M379.27,184.29H359.81a10,10,0,1,0,0,9.43h3.75l1.57-1.57,1.57,1.57h12.57L384,189Zm-.46,8.32H367.16l-1.25-1.25-.79-.79-.79.79-1.25,1.25h-4l-.31.59a8.89,8.89,0,1,1,0-8.38l.31.59h19.67l3.6,3.6Z" fill="#6e177d"/><path d="M349.32,187.41a2.22,2.22,0,1,1-3.14,0,2.22,2.22,0,0,1,3.14,0" fill="#6e177d"/><rect x="368.18" y="188.43" width="9.43" height="1.11" fill="#6e177d"/></g></g><circle cx="59.5" cy="422.5" r="7.5"/><text transform="translate(57.1 424.8)" font-size="8" fill="#fff" font-family="IBMPlexSans-Bold, IBM Plex Sans" font-weight="700">4</text><circle cx="59.5" cy="386.5" r="7.5"/><text transform="translate(57.1 388.8)" font-size="8" fill="#fff" font-family="IBMPlexSans-Bold, IBM Plex Sans" font-weight="700">3</text><circle cx="59" cy="338" r="7.5"/><text transform="translate(56.6 340.3)" font-size="8" fill="#fff" font-family="IBMPlexSans-Bold, IBM Plex Sans" font-weight="700">2</text><circle cx="58" cy="303" r="7.5"/><text transform="translate(55.6 305.3)" font-size="8" fill="#fff" font-family="IBMPlexSans-Bold, IBM Plex Sans" font-weight="700">1</text><circle cx="637.5" cy="206.5" r="7.5"/><text transform="translate(635.1 208.8)" font-size="8" fill="#fff" font-family="IBMPlexSans-Bold, IBM Plex Sans" font-weight="700">4</text><circle cx="737.5" cy="336.5" r="7.5"/><text transform="translate(735.1 338.8)" font-size="8" fill="#fff" font-family="IBMPlexSans-Bold, IBM Plex Sans" font-weight="700">3</text><circle cx="361.5" cy="285.5" r="7.5"/><text transform="translate(359.1 287.8)" font-size="8" fill="#fff" font-family="IBMPlexSans-Bold, IBM Plex Sans" font-weight="700">2</text><circle cx="177" cy="184" r="7.5"/><text transform="translate(174.6 186.3)" font-size="8" fill="#fff" font-family="IBMPlexSans-Bold, IBM Plex Sans" font-weight="700">1</text><rect x="756" y="384" width="171" height="91" rx="10.51" ry="10.51" fill="#b380e0" opacity="0.15"/><line x1="745.5" y1="336" x2="746" y2="336" fill="none" stroke="#a71c71" stroke-miterlimit="10"/><line x1="747.02" y1="336" x2="776.99" y2="336" fill="none" stroke="#a71c71" stroke-miterlimit="10" stroke-dasharray="1.02 1.02"/><polyline points="777.5 336 778 336 778 336.5" fill="none" stroke="#a71c71" stroke-miterlimit="10"/><line x1="778" y1="337.51" x2="778" y2="401.67" fill="none" stroke="#a71c71" stroke-miterlimit="10" stroke-dasharray="1.01 1.01"/><line x1="778" y1="402.18" x2="778" y2="402.68" fill="none" stroke="#a71c71" stroke-miterlimit="10"/><circle cx="778" cy="402.56" r="2.44" fill="#a71c71"/><g id="2658099e-8855-4c19-9520-23604056acc4" data-name="Hardware security module"><g id="673be19d-d2bd-45fe-9eba-304f3c36e530" data-name="HSM"><g id="ad0a9ae6-f6aa-4900-9318-ddec3cdb7028" data-name="&lt;Rectangle&gt;"><rect x="375.89" y="310.83" width="41.49" height="10.78" fill="#ede9e7"/><path d="M416.63,311.58v9.28h-40v-9.28h40m1.5-1.5h-43v12.28h43V310.08Z" fill="#23292e"/></g><g id="31a36ac9-6432-453b-afc5-8d493485851d" data-name="&lt;Group&gt;"><rect id="31550324-7c87-4c5f-932a-becc2d1aa2bc" data-name="&lt;Rectangle&gt;" x="394.7" y="315.14" width="18.5" height="2.49" fill="#23292e"/><circle id="44db9195-cf5b-408e-b3dc-7a039d68ef8d" data-name="&lt;Path&gt;" cx="390.15" cy="316.39" r="1.47" fill="#23292e"/><circle id="0d3e67ff-4c65-4834-94c8-af9b510fc75a" data-name="&lt;Path&gt;" cx="385.52" cy="316.39" r="1.47" fill="#23292e"/><circle id="7a65c737-e45e-40b5-a9f4-2c5be7d8d5e2" data-name="&lt;Path&gt;" cx="380.89" cy="316.39" r="1.47" fill="#23292e"/></g><polygon points="376.36 309.33 378.61 304.89 414.19 304.89 416.81 309.33 376.36 309.33" fill="#a8a3a3"/><path d="M413.76,305.64l1.74,2.94H377.58l1.49-2.94h34.69m.85-1.5H378.15l-3,5.94h43l-3.52-5.94Z" fill="#23292e"/></g></g><g clip-path="url(#bdc0d3be-28cf-4642-a216-a83520caf90f)"><g clip-path="url(#bdc0d3be-28cf-4642-a216-a83520caf90f)"><path d="M398.29,317.36a5.51,5.51,0,1,0,5,7.87h2.9l.39-.79.39.39.39.39h7.48l2.36-2.36-2.36-2.36H403.26a5.5,5.5,0,0,0-5-3.15" fill="#ceaceb"/><path d="M398.29,317.36a5.51,5.51,0,1,0,5,7.87h2.9l.39-.79.39.39.39.39h7.48l2.36-2.36-2.36-2.36H403.26a5.5,5.5,0,0,0-5-3.15" fill="none" stroke="#6e177d" stroke-miterlimit="10" stroke-width="0.5"/><path d="M415.07,320.22H403.59a5.91,5.91,0,1,0,0,5.56h2.22l.93-.93.93.93h7.42l2.78-2.78Zm-.27,4.91h-6.88l-.74-.74-.46-.46-.46.46-.73.73h-2.34l-.18.35a5.25,5.25,0,1,1,0-4.95l.19.35H414.8l2.13,2.13Z" fill="#6e177d"/><path d="M415.07,320.22H403.59a5.91,5.91,0,1,0,0,5.56h2.22l.93-.93.93.93h7.42l2.78-2.78Zm-.27,4.91h-6.88l-.74-.74-.46-.46-.46.46-.73.73h-2.34l-.18.35a5.25,5.25,0,1,1,0-4.95l.19.35H414.8l2.13,2.13Z" fill="none" stroke="#6e177d" stroke-miterlimit="10" stroke-width="0.5"/><path d="M397.4,322.06a1.31,1.31,0,1,1-1.85,0,1.31,1.31,0,0,1,1.85,0" fill="#6e177d"/><circle cx="396.47" cy="322.99" r="1.31" transform="translate(-112.26 374.95) rotate(-45)" fill="none" stroke="#6e177d" stroke-miterlimit="10" stroke-width="0.5"/><rect x="408.53" y="322.66" width="5.56" height="0.66" fill="#6e177d"/><rect x="408.53" y="322.66" width="5.56" height="0.66" fill="none" stroke="#6e177d" stroke-miterlimit="10" stroke-width="0.5"/></g></g><line x1="466.25" y1="145" x2="466.25" y2="145.5" fill="none" stroke="#6e177d" stroke-miterlimit="10" stroke-width="0.5"/><line x1="466.25" y1="146.5" x2="466.25" y2="453" fill="none" stroke="#6e177d" stroke-miterlimit="10" stroke-width="0.5" stroke-dasharray="1 1"/><line x1="466.25" y1="453.5" x2="466.25" y2="454" fill="none" stroke="#6e177d" stroke-miterlimit="10" stroke-width="0.5"/><line x1="421.25" y1="186" x2="421.75" y2="186" fill="none" stroke="#6e177d" stroke-miterlimit="10" stroke-width="0.5"/><line x1="422.77" y1="186" x2="464.99" y2="186" fill="none" stroke="#6e177d" stroke-miterlimit="10" stroke-width="0.5" stroke-dasharray="1.02 1.02"/><line x1="465.5" y1="186" x2="466" y2="186" fill="none" stroke="#6e177d" stroke-miterlimit="10" stroke-width="0.5"/><rect x="421" y="184.38" width="0.5" height="3.25" fill="#6e177d"/><rect x="59" y="168.49" width="69" height="31" fill="#69a6ff" stroke="#000f5e" stroke-miterlimit="10" stroke-width="2"/><polygon points="58.5 146.49 58.5 195.65 52.87 199.49 58.5 199.49 91.14 199.49 94.5 199.49 94.5 146.49 58.5 146.49" fill="#edf5ff" stroke="#000f5e" stroke-miterlimit="10" stroke-width="2"/><line x1="77" y1="133.44" x2="77" y2="146.44" fill="none" stroke="#000f5e" stroke-miterlimit="10" stroke-width="2"/><rect x="67" y="187.44" width="21" height="12" fill="#003bc9" stroke="#000f5e" stroke-miterlimit="10" stroke-width="2"/><line x1="74" y1="188.44" x2="74" y2="199.44" fill="none" stroke="#000f5e" stroke-miterlimit="10" stroke-width="2"/><line x1="77" y1="193.44" x2="77" y2="195.44" fill="none" stroke="#000f5e" stroke-miterlimit="10" stroke-width="2"/><line x1="100" y1="176.44" x2="123" y2="176.44" fill="none" stroke="#000f5e" stroke-miterlimit="10" stroke-width="2"/><line x1="100" y1="180.44" x2="123" y2="180.44" fill="none" stroke="#000f5e" stroke-miterlimit="10" stroke-width="2"/><line x1="100" y1="184.44" x2="123" y2="184.44" fill="none" stroke="#000f5e" stroke-miterlimit="10" stroke-width="2"/><line x1="66" y1="155.44" x2="89" y2="155.44" fill="none" stroke="#000f5e" stroke-miterlimit="10" stroke-width="2"/><line x1="66" y1="159.44" x2="89" y2="159.44" fill="none" stroke="#000f5e" stroke-miterlimit="10" stroke-width="2"/><line x1="66" y1="163.44" x2="89" y2="163.44" fill="none" stroke="#000f5e" stroke-miterlimit="10" stroke-width="2"/><line x1="66" y1="167.44" x2="89" y2="167.44" fill="none" stroke="#000f5e" stroke-miterlimit="10" stroke-width="2"/></g><g id="c5239bc4-193e-47b4-90ba-252eff0ee39c" data-name="Text"><text transform="translate(774.61 425.4)" font-size="11" font-family="IBMPlexSans, IBM Plex Sans"><tspan letter-spacing="-0.02em">K</tspan><tspan x="6.7" y="0" letter-spacing="-0.01em">e</tspan><tspan x="12.68" y="0">y </tspan><tspan x="20.77" y="0" letter-spacing="-0.01em">P</tspan><tspan x="27.32" y="0" letter-spacing="-0.01em">r</tspan><tspan x="31.31" y="0">o</tspan><tspan x="37.47" y="0" letter-spacing="0em">t</tspan><tspan x="41.28" y="0" letter-spacing="0em">ect uses the la</tspan><tspan x="112.52" y="0" letter-spacing="0em">t</tspan><tspan x="116.33" y="0">e</tspan><tspan x="122.37" y="0" letter-spacing="-0.01em">s</tspan><tspan x="127.65" y="0" letter-spacing="0em">t</tspan><tspan x="0" y="13.2" letter-spacing="0em">r</tspan><tspan x="3.98" y="13.2" letter-spacing="0em">oot </tspan><tspan x="22.76" y="13.2" letter-spacing="-0.02em">k</tspan><tspan x="28.37" y="13.2" letter-spacing="-0.01em">e</tspan><tspan x="34.35" y="13.2">y ma</tspan><tspan x="57.91" y="13.2" letter-spacing="0em">t</tspan><tspan x="61.73" y="13.2">erial </tspan><tspan x="86.02" y="13.2" letter-spacing="0em">t</tspan><tspan x="89.84" y="13.2">o p</tspan><tspan x="104.97" y="13.2" letter-spacing="0em">r</tspan><tspan x="108.95" y="13.2">o</tspan><tspan x="115.11" y="13.2" letter-spacing="0em">t</tspan><tspan x="118.93" y="13.2">ect </tspan><tspan x="0" y="26.4">data enc</tspan><tspan x="42.4" y="26.4" letter-spacing="0.01em">r</tspan><tspan x="46.55" y="26.4" letter-spacing="0em">y</tspan><tspan x="52.04" y="26.4" letter-spacing="-0.01em">p</tspan><tspan x="58.35" y="26.4" letter-spacing="0em">tion </tspan><tspan x="79.97" y="26.4" letter-spacing="-0.02em">k</tspan><tspan x="85.58" y="26.4" letter-spacing="-0.01em">e</tspan><tspan x="91.56" y="26.4" letter-spacing="0em">y</tspan><tspan x="97.01" y="26.4">s</tspan></text><text transform="translate(840.9 232.9)" font-size="11" font-family="IBMPlexSans, IBM Plex Sans"><tspan letter-spacing="-0.01em">W<tspan x="9.69" y="0" letter-spacing="0em">r</tspan><tspan x="13.68" y="0" letter-spacing="0em">apped</tspan></tspan><tspan x="11.37" y="13.2">data</tspan></text><text transform="translate(707.92 232.9)" font-size="11" font-family="IBMPlexSans, IBM Plex Sans"><tspan letter-spacing="-0.01em">W<tspan x="9.69" y="0" letter-spacing="0em">r</tspan><tspan x="13.68" y="0" letter-spacing="0em">apped data</tspan></tspan><tspan x="-1.57" y="13.2">enc</tspan><tspan x="16.25" y="13.2" letter-spacing="0.01em">r</tspan><tspan x="20.39" y="13.2">y</tspan><tspan x="25.88" y="13.2" letter-spacing="-0.01em">p</tspan><tspan x="32.2" y="13.2">tion </tspan><tspan x="53.81" y="13.2" letter-spacing="-0.02em">k</tspan><tspan x="59.42" y="13.2" letter-spacing="-0.01em">e</tspan><tspan x="65.41" y="13.2" letter-spacing="0em">y</tspan></text><text transform="translate(692.72 149.38)" font-size="12" font-family="IBMPlexSans-SemiBold, IBM Plex Sans" font-weight="700">Cloud se<tspan x="47.76" y="0" letter-spacing="0.01em">r</tspan><tspan x="52.57" y="0" letter-spacing="0em">vi</tspan><tspan x="62.17" y="0" letter-spacing="0em">c</tspan><tspan x="68.27" y="0">e</tspan></text><text transform="translate(505.56 429.9)" font-size="11" font-family="IBMPlexSans, IBM Plex Sans"><tspan letter-spacing="0em">L</tspan><tspan x="5.5" y="0">a</tspan><tspan x="11.37" y="0" letter-spacing="0em">t</tspan><tspan x="15.19" y="0">e</tspan><tspan x="21.23" y="0" letter-spacing="-0.01em">s</tspan><tspan x="26.51" y="0">t </tspan><tspan x="32.97" y="0" letter-spacing="-0.02em">k</tspan><tspan x="38.58" y="0" letter-spacing="0em">e</tspan><tspan x="44.56" y="0">y</tspan></text><text transform="translate(505.56 366.9)" font-size="11" font-family="IBMPlexSans, IBM Plex Sans"><tspan letter-spacing="-0.02em">K</tspan><tspan x="6.7" y="0" letter-spacing="0em">e</tspan><tspan x="12.68" y="0">y 3</tspan></text><text transform="translate(505.56 304.9)" font-size="11" font-family="IBMPlexSans, IBM Plex Sans"><tspan letter-spacing="-0.02em">K</tspan><tspan x="6.7" y="0" letter-spacing="0em">e</tspan><tspan x="12.68" y="0">y 2</tspan></text><text transform="translate(505.56 236.9)" font-size="11" font-family="IBMPlexSans, IBM Plex Sans"><tspan letter-spacing="-0.02em">K</tspan><tspan x="6.7" y="0" letter-spacing="0em">e</tspan><tspan x="12.68" y="0">y 1</tspan></text><text transform="translate(505.56 166.38)" font-size="12" font-family="IBMPlexSans, IBM Plex Sans"><tspan letter-spacing="-0.02em">R</tspan><tspan x="7.5" y="0" letter-spacing="0em">oot </tspan><tspan x="27.98" y="0" letter-spacing="-0.02em">k</tspan><tspan x="34.1" y="0" letter-spacing="-0.01em">e</tspan><tspan x="40.63" y="0">y </tspan><tspan x="49.45" y="0" font-family="IBMPlexSans-SemiBold, IBM Plex Sans" font-weight="700">A</tspan></text><text transform="translate(358.69 343.9)" font-size="9" font-family="IBMPlexSans, IBM Plex Sans">Ha<tspan x="11.17" y="0" letter-spacing="-0.01em">r</tspan><tspan x="14.42" y="0">d</tspan><tspan x="19.64" y="0" letter-spacing="-0.01em">w</tspan><tspan x="26.47" y="0" letter-spacing="0em">a</tspan><tspan x="31.27" y="0" letter-spacing="0em">r</tspan><tspan x="34.53" y="0">e security </tspan><tspan x="22.63" y="10.8">module</tspan></text><text transform="translate(340.72 221.9)" font-size="11" font-family="IBMPlexSans, IBM Plex Sans"><tspan letter-spacing="-0.02em">R</tspan><tspan x="6.88" y="0">oot </tspan><tspan x="25.65" y="0" letter-spacing="-0.02em">k</tspan><tspan x="31.26" y="0" letter-spacing="-0.01em">e</tspan><tspan x="37.25" y="0" letter-spacing="0em">y</tspan><tspan x="42.73" y="0" xml:space="preserve" font-family="IBMPlexSans-Bold, IBM Plex Sans" font-weight="700"> A</tspan></text><text transform="translate(340.72 149.38)" font-size="12" font-family="IBMPlexSans-SemiBold, IBM Plex Sans" font-weight="700"><tspan letter-spacing="-0.02em">K</tspan><tspan x="7.84" y="0" letter-spacing="-0.01em">e</tspan><tspan x="14.46" y="0">y </tspan><tspan x="23.58" y="0" letter-spacing="-0.01em">P</tspan><tspan x="31.15" y="0" letter-spacing="-0.01em">r</tspan><tspan x="35.81" y="0" letter-spacing="0em">ot</tspan><tspan x="46.96" y="0">ect</tspan></text><text transform="translate(325.72 107.38)" font-size="12" font-family="IBMPlexSans-SemiBold, IBM Plex Sans" font-weight="700">IBM Cloud</text><text transform="translate(194.61 205.4)" font-size="11" font-family="IBMPlexSans, IBM Plex Sans"><tspan letter-spacing="-0.02em">R</tspan><tspan x="6.88" y="0">ota</tspan><tspan x="22.77" y="0" letter-spacing="0em">t</tspan><tspan x="26.59" y="0">e </tspan><tspan x="35.22" y="0" letter-spacing="-0.02em">k</tspan><tspan x="40.83" y="0" letter-spacing="-0.01em">e</tspan><tspan x="46.82" y="0">y</tspan></text><text transform="translate(52.58 221.9)" font-size="11" font-family="IBMPlexSans, IBM Plex Sans"><tspan letter-spacing="-0.05em">Y</tspan><tspan x="5.97" y="0" letter-spacing="0em">our en</tspan><tspan x="37.3" y="0" letter-spacing="0em">t</tspan><tspan x="41.12" y="0">erprise</tspan></text><text transform="translate(82.81 425.17)" font-size="10" font-family="IBMPlexSans, IBM Plex Sans"><tspan letter-spacing="-0.01em">R</tspan><tspan x="6.25" y="0">eti</tspan><tspan x="17.75" y="0" letter-spacing="0em">r</tspan><tspan x="21.37" y="0">ed </tspan><tspan x="35.02" y="0" letter-spacing="-0.02em">k</tspan><tspan x="40.12" y="0" letter-spacing="0em">e</tspan><tspan x="45.56" y="0" letter-spacing="0em">y ma</tspan><tspan x="66.98" y="0" letter-spacing="0em">t</tspan><tspan x="70.45" y="0" letter-spacing="0em">erial </tspan><tspan x="92.53" y="0" letter-spacing="0em">r</tspan><tspan x="96.15" y="0" letter-spacing="0em">emains </tspan><tspan x="0" y="12" letter-spacing="-0.01em">a</tspan><tspan x="5.26" y="12" letter-spacing="-0.01em">v</tspan><tspan x="10.09" y="12" letter-spacing="0em">ailable </tspan><tspan x="42.36" y="12" letter-spacing="0em">f</tspan><tspan x="45.56" y="12" letter-spacing="0em">or u</tspan><tspan x="62.87" y="12" letter-spacing="0em">n</tspan><tspan x="68.5" y="12" letter-spacing="0em">w</tspan><tspan x="76.18" y="12" letter-spacing="0em">r</tspan><tspan x="79.81" y="12">ap ope</tspan><tspan x="110.2" y="12" letter-spacing="0em">r</tspan><tspan x="113.83" y="12">ations</tspan></text><text transform="translate(82.81 388.12)" font-size="10" font-family="IBMPlexSans, IBM Plex Sans">The la<tspan x="27.31" y="0" letter-spacing="0em">t</tspan><tspan x="30.78" y="0">e</tspan><tspan x="36.27" y="0" letter-spacing="-0.01em">s</tspan><tspan x="41.07" y="0">t </tspan><tspan x="46.94" y="0" letter-spacing="-0.02em">k</tspan><tspan x="52.04" y="0" letter-spacing="0em">e</tspan><tspan x="57.48" y="0" letter-spacing="0em">y ma</tspan><tspan x="78.9" y="0" letter-spacing="0em">t</tspan><tspan x="82.37" y="0" letter-spacing="0em">erial be</tspan><tspan x="115.74" y="0" letter-spacing="-0.01em">c</tspan><tspan x="120.71" y="0">omes </tspan><tspan x="0" y="12" letter-spacing="-0.01em">a</tspan><tspan x="5.26" y="12" letter-spacing="-0.01em">v</tspan><tspan x="10.09" y="12" letter-spacing="0em">ailable </tspan><tspan x="42.36" y="12" letter-spacing="0em">f</tspan><tspan x="45.56" y="12" letter-spacing="0em">or w</tspan><tspan x="64.87" y="12" letter-spacing="0em">r</tspan><tspan x="68.5" y="12">ap ope</tspan><tspan x="98.89" y="12" letter-spacing="0em">r</tspan><tspan x="102.52" y="12">ations</tspan></text><text transform="translate(82.81 340.07)" font-size="10" font-family="IBMPlexSans, IBM Plex Sans">The se<tspan x="29.61" y="0" letter-spacing="0.01em">r</tspan><tspan x="33.38" y="0">vi</tspan><tspan x="40.8" y="0" letter-spacing="-0.01em">c</tspan><tspan x="45.77" y="0">e </tspan><tspan x="53.62" y="0" letter-spacing="-0.01em">g</tspan><tspan x="58.84" y="0">ene</tspan><tspan x="75.5" y="0" letter-spacing="0em">r</tspan><tspan x="79.13" y="0">a</tspan><tspan x="84.47" y="0" letter-spacing="0em">t</tspan><tspan x="87.94" y="0">es n</tspan><tspan x="106.34" y="0" letter-spacing="0em">e</tspan><tspan x="111.78" y="0" letter-spacing="0em">w </tspan><tspan x="121.82" y="0" letter-spacing="-0.02em">k</tspan><tspan x="126.92" y="0" letter-spacing="0em">e</tspan><tspan x="132.36" y="0">y</tspan><tspan x="0" y="12">ma</tspan><tspan x="14.07" y="12" letter-spacing="0em">t</tspan><tspan x="17.54" y="12">erial and </tspan><tspan x="58.8" y="12" letter-spacing="-0.01em">r</tspan><tspan x="62.42" y="12" letter-spacing="0em">eti</tspan><tspan x="73.92" y="12" letter-spacing="0em">r</tspan><tspan x="77.54" y="12">es the p</tspan><tspan x="113.1" y="12" letter-spacing="0em">r</tspan><tspan x="116.72" y="12" letter-spacing="-0.01em">e</tspan><tspan x="122.13" y="12">vious</tspan><tspan x="0" y="24" letter-spacing="-0.02em">k</tspan><tspan x="5.1" y="24" letter-spacing="0em">e</tspan><tspan x="10.54" y="24">y ma</tspan><tspan x="31.96" y="24" letter-spacing="0em">t</tspan><tspan x="35.43" y="24">erial</tspan></text><text transform="translate(82.81 303.02)" font-size="10" font-family="IBMPlexSans, IBM Plex Sans"><tspan letter-spacing="-0.03em">K</tspan><tspan x="6.09" y="0" letter-spacing="0em">e</tspan><tspan x="11.53" y="0" letter-spacing="0em">y </tspan><tspan x="18.88" y="0" letter-spacing="-0.01em">P</tspan><tspan x="24.84" y="0" letter-spacing="0em">r</tspan><tspan x="28.46" y="0" letter-spacing="0em">o</tspan><tspan x="34.06" y="0" letter-spacing="0em">t</tspan><tspan x="37.53" y="0">ect </tspan><tspan x="53.92" y="0" letter-spacing="0em">r</tspan><tspan x="57.54" y="0">e</tspan><tspan x="63.03" y="0" letter-spacing="-0.01em">c</tspan><tspan x="68" y="0">ei</tspan><tspan x="75.99" y="0" letter-spacing="-0.01em">v</tspan><tspan x="80.83" y="0" letter-spacing="0em">es a </tspan><tspan x="101.25" y="0" letter-spacing="0em">r</tspan><tspan x="104.87" y="0">eque</tspan><tspan x="127.33" y="0" letter-spacing="-0.01em">s</tspan><tspan x="132.13" y="0">t </tspan><tspan x="0" y="12" letter-spacing="0em">t</tspan><tspan x="3.47" y="12" letter-spacing="0em">o </tspan><tspan x="11.43" y="12" letter-spacing="0em">r</tspan><tspan x="15.05" y="12">ota</tspan><tspan x="29.5" y="12" letter-spacing="0em">t</tspan><tspan x="32.97" y="12" letter-spacing="0em">e </tspan><tspan x="40.82" y="12" letter-spacing="0em">y</tspan><tspan x="45.76" y="12">our </tspan><tspan x="63.07" y="12" letter-spacing="0em">r</tspan><tspan x="66.69" y="12">oot </tspan><tspan x="83.76" y="12" letter-spacing="-0.02em">k</tspan><tspan x="88.86" y="12" letter-spacing="0em">e</tspan><tspan x="94.3" y="12">y</tspan></text><text transform="translate(49 63)" font-size="16" fill="#272727" font-family="IBMPlexSans-Bold, IBM Plex Sans" font-weight="700"><tspan letter-spacing="-0.02em">K</tspan><tspan x="10.74" y="0" letter-spacing="-0.01em">e</tspan><tspan x="19.62" y="0">y </tspan><tspan x="31.94" y="0" letter-spacing="0em">r</tspan><tspan x="38.32" y="0" letter-spacing="-0.01em">o</tspan><tspan x="47.25" y="0">t</tspan><tspan x="53.38" y="0" letter-spacing="-0.01em">a</tspan><tspan x="62.38" y="0">tion</tspan></text></g></svg>