<?xml version="1.0" encoding="utf-8"?>
<!-- Generator: Adobe Illustrator 26.3.1, SVG Export Plug-In . SVG Version: 6.00 Build 0)  -->
<svg version="1.1" xmlns="http://www.w3.org/2000/svg" xmlns:xlink="http://www.w3.org/1999/xlink" x="0px" y="0px"
	 viewBox="0 0 1000 550" style="enable-background:new 0 0 1000 550;" xml:space="preserve">
<style type="text/css">
	.st0{fill:#FFFFFF;}
	.st1{fill:none;stroke:#D8D8D8;stroke-miterlimit:10;}
	.st2{fill:none;stroke:#D8D8D8;stroke-miterlimit:10;stroke-dasharray:3,2;}
	.st3{fill:none;stroke:#D8D8D8;stroke-miterlimit:10;stroke-dasharray:3.0147,2.0098;}
	.st4{fill:#F8F4F2;}
	.st5{fill:none;stroke:#000F5E;stroke-miterlimit:10;}
	.st6{fill:none;stroke:#000F5E;stroke-miterlimit:10;stroke-dasharray:3.0256,2.0171;}
	.st7{fill:none;stroke:#000F5E;stroke-miterlimit:10;stroke-dasharray:2.9798,1.9865;}
	.st8{fill:#F4F4F4;}
	.st9{fill:none;stroke:#000F5E;stroke-miterlimit:10;stroke-dasharray:3,2;}
	.st10{fill:none;stroke:#000F5E;stroke-miterlimit:10;stroke-dasharray:3.0175,2.0117;}
	.st11{fill:#EDF5FF;stroke:#000F5E;stroke-miterlimit:10;stroke-dasharray:3,2;}
	.st12{fill:none;stroke:#6E177D;stroke-miterlimit:10;}
	.st13{fill:none;stroke:#6E177D;stroke-miterlimit:10;stroke-dasharray:0.9971,0.9971;}
	.st14{fill:#6E177D;}
	.st15{fill:#8747B8;}
	.st16{opacity:0.15;fill:#B380E0;}
	.st17{fill:#000F5E;}
	.st18{fill:none;stroke:#005AB3;stroke-miterlimit:10;}
	.st19{fill:#005AB3;}
	.st20{fill:#001689;}
	.st21{fill:#D75193;}
	.st22{fill:#A71C71;}
	.st23{fill:#003BC9;}
	.st24{fill:#272727;}
	.st25{fill:#CEACEB;}
	.st26{fill:#0A4169;}
	.st27{fill:#07AED1;}
	.st28{fill:#87C632;}
	.st29{fill:none;}
	.st30{font-family:'IBMPlexSans-SemiBold';}
	.st31{font-size:12px;}
	.st32{font-family:'IBMPlexSans';}
	.st33{font-size:11px;}
	.st34{font-family:'IBMPlexSans-Bold';}
	.st35{font-size:16px;}
</style>
<g id="Visual">
	<g>
		<g>
			<rect x="49.5" y="83.5" class="st0" width="345" height="412"/>
			<g>
				<polyline class="st1" points="394.5,494 394.5,495.5 393,495.5 				"/>
				<line class="st2" x1="391" y1="495.5" x2="52" y2="495.5"/>
				<polyline class="st1" points="51,495.5 49.5,495.5 49.5,494 				"/>
				<line class="st3" x1="49.5" y1="491.99" x2="49.5" y2="86"/>
				<polyline class="st1" points="49.5,85 49.5,83.5 51,83.5 				"/>
				<line class="st2" x1="53" y1="83.5" x2="392" y2="83.5"/>
				<polyline class="st1" points="393,83.5 394.5,83.5 394.5,85 				"/>
				<line class="st3" x1="394.5" y1="87.01" x2="394.5" y2="493"/>
			</g>
		</g>
	</g>
	<g>
		<g>
			<rect x="603.5" y="83.5" class="st0" width="345" height="185"/>
			<g>
				<polyline class="st1" points="948.5,267 948.5,268.5 947,268.5 				"/>
				<line class="st2" x1="945" y1="268.5" x2="606" y2="268.5"/>
				<polyline class="st1" points="605,268.5 603.5,268.5 603.5,267 				"/>
				<line class="st2" x1="603.5" y1="265" x2="603.5" y2="86"/>
				<polyline class="st1" points="603.5,85 603.5,83.5 605,83.5 				"/>
				<line class="st2" x1="607" y1="83.5" x2="946" y2="83.5"/>
				<polyline class="st1" points="947,83.5 948.5,83.5 948.5,85 				"/>
				<line class="st2" x1="948.5" y1="87" x2="948.5" y2="266"/>
			</g>
		</g>
	</g>
	<g>
		<g>
			<rect x="626.5" y="120.5" class="st4" width="298" height="121"/>
			<g>
				<polyline class="st5" points="923,120.5 924.5,120.5 924.5,122 				"/>
				<line class="st6" x1="924.5" y1="124.02" x2="924.5" y2="238.99"/>
				<polyline class="st5" points="924.5,240 924.5,241.5 923,241.5 				"/>
				<line class="st7" x1="921.01" y1="241.5" x2="628.99" y2="241.5"/>
				<polyline class="st5" points="628,241.5 626.5,241.5 626.5,240 				"/>
				<line class="st6" x1="626.5" y1="237.98" x2="626.5" y2="123.01"/>
				<polyline class="st5" points="626.5,122 626.5,120.5 628,120.5 				"/>
				<line class="st7" x1="629.99" y1="120.5" x2="922.01" y2="120.5"/>
			</g>
		</g>
	</g>
	<g>
		<g>
			<rect x="70.5" y="120.5" class="st8" width="300" height="347"/>
			<g>
				<polyline class="st5" points="370.5,466 370.5,467.5 369,467.5 				"/>
				<line class="st9" x1="367" y1="467.5" x2="73" y2="467.5"/>
				<polyline class="st5" points="72,467.5 70.5,467.5 70.5,466 				"/>
				<line class="st10" x1="70.5" y1="463.99" x2="70.5" y2="123.01"/>
				<polyline class="st5" points="70.5,122 70.5,120.5 72,120.5 				"/>
				<line class="st9" x1="74" y1="120.5" x2="368" y2="120.5"/>
				<polyline class="st5" points="369,120.5 370.5,120.5 370.5,122 				"/>
				<line class="st10" x1="370.5" y1="124.01" x2="370.5" y2="464.99"/>
			</g>
		</g>
	</g>
	<g>
		<g>
			<rect x="603.5" y="310.5" class="st0" width="345" height="185"/>
			<g>
				<polyline class="st1" points="948.5,494 948.5,495.5 947,495.5 				"/>
				<line class="st2" x1="945" y1="495.5" x2="606" y2="495.5"/>
				<polyline class="st1" points="605,495.5 603.5,495.5 603.5,494 				"/>
				<line class="st2" x1="603.5" y1="492" x2="603.5" y2="313"/>
				<polyline class="st1" points="603.5,312 603.5,310.5 605,310.5 				"/>
				<line class="st2" x1="607" y1="310.5" x2="946" y2="310.5"/>
				<polyline class="st1" points="947,310.5 948.5,310.5 948.5,312 				"/>
				<line class="st2" x1="948.5" y1="314" x2="948.5" y2="493"/>
			</g>
		</g>
	</g>
	<g>
		<rect x="715.5" y="258.5" transform="matrix(6.123234e-17 -1 1 6.123234e-17 368 1183)" class="st11" width="120" height="298"/>
	</g>
	<g>
		<g>
			<line class="st12" x1="789" y1="241.5" x2="789" y2="242"/>
			<line class="st13" x1="789" y1="243" x2="789" y2="302.33"/>
			<line class="st12" x1="789" y1="302.82" x2="789" y2="303.32"/>
			<g>
				<polygon class="st14" points="784.01,301.86 789,310.5 793.99,301.86 				"/>
			</g>
		</g>
	</g>
	<g>
		<g>
			<line class="st12" x1="758" y1="248.68" x2="758" y2="310.5"/>
			<g>
				<polygon class="st14" points="753.01,250.14 758,241.5 762.99,250.14 				"/>
			</g>
		</g>
	</g>
	<g>
		<path class="st15" d="M795.63,409.36v-3.64h-5.45v3.64h-3.64v-3.64h-5.45v3.64h-23.64v10.91h40v-10.91H795.63z"/>
		<path class="st15" d="M775.63,396.64h-1.82V393h-5.45v3.64h-3.64V393h-5.45v3.64h-1.82v10.91h18.18V396.64z M777.45,422.09h20V433
			h-20V422.09z M757.45,422.09h18.18V433h-18.18V422.09z"/>
	</g>
	<path class="st16" d="M544,425H403v23.49c0,5.8,4.7,10.51,10.51,10.51h119.99c5.8,0,10.51-4.7,10.51-10.51V425z"/>
	<path class="st16" d="M544,321H403v23.49c0,5.8,4.7,10.51,10.51,10.51h119.99c5.8,0,10.51-4.7,10.51-10.51V321z"/>
	<path class="st16" d="M544,159H403v23.49c0,5.8,4.7,10.51,10.51,10.51h119.99c5.8,0,10.51-4.7,10.51-10.51V159z"/>
	<g>
		<g>
			<line class="st5" x1="589.82" y1="159.25" x2="370.05" y2="159.25"/>
			<g>
				<polygon class="st17" points="588.36,154.26 597,159.25 588.36,164.24 				"/>
			</g>
			<g>
				<g>
					<path class="st0" d="M370.26,155.49c-2.08,0-3.76,1.68-3.76,3.76s1.68,3.76,3.76,3.76c2.08,0,3.76-1.68,3.76-3.76
						S372.34,155.49,370.26,155.49z"/>
					<path class="st17" d="M370.26,154.99c2.35,0,4.26,1.91,4.26,4.26s-1.91,4.26-4.26,4.26c-2.35,0-4.26-1.91-4.26-4.26
						S367.91,154.99,370.26,154.99C372.61,154.99,367.91,154.99,370.26,154.99z M370.26,162.51c1.8,0,3.26-1.46,3.26-3.26
						s-1.46-3.26-3.26-3.26c-1.8,0-3.26,1.46-3.26,3.26S368.46,162.51,370.26,162.51C372.06,162.51,368.46,162.51,370.26,162.51z"/>
				</g>
			</g>
		</g>
	</g>
	<g>
		<g>
			<polyline class="st18" points="370.05,425 556,425 556,346 			"/>
			<g>
				<g>
					<path class="st0" d="M370.26,428.76c-2.08,0-3.76-1.68-3.76-3.76s1.68-3.76,3.76-3.76c2.08,0,3.76,1.68,3.76,3.76
						S372.34,428.76,370.26,428.76z"/>
					<path class="st19" d="M370.26,429.26c2.35,0,4.26-1.91,4.26-4.26s-1.91-4.26-4.26-4.26c-2.35,0-4.26,1.91-4.26,4.26
						S367.91,429.26,370.26,429.26C372.61,429.26,367.91,429.26,370.26,429.26z M370.26,421.74c1.8,0,3.26,1.46,3.26,3.26
						s-1.46,3.26-3.26,3.26c-1.8,0-3.26-1.46-3.26-3.26S368.46,421.74,370.26,421.74C372.06,421.74,368.46,421.74,370.26,421.74z"/>
				</g>
			</g>
		</g>
	</g>
	<g>
		<g>
			<line class="st12" x1="589.82" y1="321.5" x2="370.05" y2="321.5"/>
			<g>
				<polygon class="st14" points="588.36,316.51 597,321.5 588.36,326.49 				"/>
			</g>
			<g>
				<g>
					<path class="st0" d="M370.26,317.74c-2.08,0-3.76,1.68-3.76,3.76s1.68,3.76,3.76,3.76c2.08,0,3.76-1.68,3.76-3.76
						S372.34,317.74,370.26,317.74z"/>
					<path class="st14" d="M370.26,317.24c2.35,0,4.26,1.91,4.26,4.26s-1.91,4.26-4.26,4.26c-2.35,0-4.26-1.91-4.26-4.26
						S367.91,317.24,370.26,317.24C372.61,317.24,367.91,317.24,370.26,317.24z M370.26,324.76c1.8,0,3.26-1.46,3.26-3.26
						s-1.46-3.26-3.26-3.26c-1.8,0-3.26,1.46-3.26,3.26S368.46,324.76,370.26,324.76C372.06,324.76,368.46,324.76,370.26,324.76z"/>
				</g>
			</g>
		</g>
	</g>
	<g>
		<g>
			<polyline class="st18" points="589.82,245 556,245 556,347 			"/>
			<g>
				<polygon class="st19" points="588.36,240.01 597,245 588.36,249.99 				"/>
			</g>
		</g>
	</g>
	<g>
		<path class="st20" d="M858.21,388.71c11.25,0,19.38,2.08,22.08,3.54c-2.71,1.46-10.21,3.33-22.08,3.33
			c-11.67,0-18.96-2.08-21.46-3.33C839.04,390.79,846.54,388.71,858.21,388.71z M858.21,386c-14.17,0-24.79,2.92-24.79,6.25
			s10.62,6.25,24.79,6.25s25.21-2.92,25.21-6.25S872.16,386,858.21,386z M857.88,423.5c-9.38,0-25-1.46-25-6.67V411h2.08v6.04
			c0,1.04,7,4.17,22.92,4.17c15.07,0,22.92-2.92,22.92-4.17V411h2.08v6.04C882.88,422.04,867.25,423.5,857.88,423.5z M857.88,436
			c-9.38,0-25-1.46-25-6.67v-5.83h2.08v5.83c0,1.04,7,4.17,22.92,4.17c15.07,0,22.92-2.92,22.92-4.17v-5.83h2.08v5.83
			C882.88,434.54,867.25,436,857.88,436z M857.88,411c-9.17,0-25-1.46-25-6.67v-5.83h2.08v5.83c0,1.04,7,4.17,22.92,4.17
			s22.92-2.92,22.92-4.17v-5.83h2.08v5.83C882.88,409.54,867.25,411,857.88,411z"/>
	</g>
	<g>
		<rect x="667" y="387" class="st0" width="60" height="48"/>
		<path class="st21" d="M689.21,422.36c-1.96-1.95-3.06-4.6-3.05-7.36c0-5.74,4.67-10.42,10.42-10.42c5.74,0,10.42,4.67,10.42,10.42
			c0.01,2.76-1.09,5.42-3.05,7.36l2.95,2.95c2.76-2.75,4.27-6.42,4.27-10.31c0-8.04-6.54-14.58-14.58-14.58
			c-8.04,0-14.58,6.54-14.58,14.58c0,3.9,1.52,7.56,4.27,10.31L689.21,422.36z"/>
		<path class="st21" d="M694.49,429.75h4.17L696.58,411L694.49,429.75z"/>
		<path class="st22" d="M665.5,386v50H728v-50H665.5z M725.92,433.92h-58.33v-37.5h58.33V433.92z"/>
	</g>
	<g>
		<rect x="668" y="165.5" class="st0" width="70" height="45"/>
		<path class="st17" d="M665.5,153v60h75v-60H665.5z M738,210.5h-70v-45h70V210.5z"/>
	</g>
	<g>
		<rect x="410" y="410" class="st0" width="24" height="20"/>
		<path class="st23" d="M426.06,418.61l3.58,3.58l1.18-1.18l-4.76-4.76l-8.33,8.33l-3.58-3.58l-1.18,1.18l4.76,4.76L426.06,418.61z"
			/>
		<path class="st23" d="M409.5,410v20h25v-20H409.5z M433.67,429.17h-23.33v-15h23.33V429.17z"/>
	</g>
	<g>
		<rect x="409" y="306" class="st0" width="24" height="20"/>
		<path class="st24" d="M414.09,322.42l4.76-4.76l-4.76-4.76l-1.18,1.18l3.58,3.58l-3.58,3.58L414.09,322.42z"/>
		<path class="st24" d="M408.5,306v20h25v-20H408.5z M432.67,325.17h-23.33v-15h23.33V325.17z"/>
	</g>
	<g>
		<path class="st19" d="M112.91,424.92c5.9,0,10.68-4.78,10.68-10.68s-4.78-10.68-10.68-10.68s-10.68,4.78-10.68,10.68
			S107.01,424.92,112.91,424.92z M112.91,405.69c4.71,0,8.55,3.83,8.55,8.55s-3.83,8.55-8.55,8.55s-8.55-3.83-8.55-8.55
			S108.2,405.69,112.91,405.69z M136.41,414.24c0,5.9,4.78,10.68,10.68,10.68c5.9,0,10.68-4.78,10.68-10.68s-4.78-10.68-10.68-10.68
			C141.19,403.56,136.41,408.34,136.41,414.24z M147.09,405.69c4.71,0,8.55,3.83,8.55,8.55s-3.83,8.55-8.55,8.55
			c-4.71,0-8.55-3.83-8.55-8.55S142.38,405.69,147.09,405.69z M140.68,390.74c0-5.9-4.78-10.68-10.68-10.68
			c-5.9,0-10.68,4.78-10.68,10.68c0,5.9,4.78,10.68,10.68,10.68C135.9,401.42,140.68,396.64,140.68,390.74z M130,399.28
			c-4.71,0-8.55-3.83-8.55-8.55c0-4.71,3.83-8.55,8.55-8.55c4.71,0,8.55,3.83,8.55,8.55C138.55,395.45,134.71,399.28,130,399.28z
			 M121.45,429.37h-17.09c-2.36,0-4.27,1.91-4.27,4.27v6.41h25.64v-6.41C125.73,431.29,123.81,429.37,121.45,429.37z M155.64,429.37
			h-17.09c-2.36,0-4.27,1.91-4.27,4.27v6.41h25.64v-6.41C159.91,431.29,158,429.37,155.64,429.37z"/>
	</g>
	<g>
		<path class="st14" d="M112.91,312.92c5.9,0,10.68-4.78,10.68-10.68s-4.78-10.68-10.68-10.68s-10.68,4.78-10.68,10.68
			S107.01,312.92,112.91,312.92z M112.91,293.69c4.71,0,8.55,3.83,8.55,8.55s-3.83,8.55-8.55,8.55s-8.55-3.83-8.55-8.55
			S108.2,293.69,112.91,293.69z M136.41,302.24c0,5.9,4.78,10.68,10.68,10.68c5.9,0,10.68-4.78,10.68-10.68s-4.78-10.68-10.68-10.68
			C141.19,291.56,136.41,296.34,136.41,302.24z M147.09,293.69c4.71,0,8.55,3.83,8.55,8.55s-3.83,8.55-8.55,8.55
			c-4.71,0-8.55-3.83-8.55-8.55S142.38,293.69,147.09,293.69z M140.68,278.74c0-5.9-4.78-10.68-10.68-10.68
			c-5.9,0-10.68,4.78-10.68,10.68c0,5.9,4.78,10.68,10.68,10.68C135.9,289.42,140.68,284.64,140.68,278.74z M130,287.28
			c-4.71,0-8.55-3.83-8.55-8.55c0-4.71,3.83-8.55,8.55-8.55c4.71,0,8.55,3.83,8.55,8.55C138.55,283.45,134.71,287.28,130,287.28z
			 M121.45,317.37h-17.09c-2.36,0-4.27,1.91-4.27,4.27v6.41h25.64v-6.41C125.73,319.29,123.81,317.37,121.45,317.37z M155.64,317.37
			h-17.09c-2.36,0-4.27,1.91-4.27,4.27v6.41h25.64v-6.41C159.91,319.29,158,317.37,155.64,317.37z"/>
	</g>
	<g>
		<path class="st17" d="M130.24,191.09c11.06,0,20.02-8.96,20.02-20.02c0-11.06-8.96-20.02-20.02-20.02s-20.02,8.96-20.02,20.02
			C110.22,182.13,119.18,191.09,130.24,191.09z M130.24,153.06c9.93,0,18.02,8.08,18.02,18.02c0,9.93-8.08,18.02-18.02,18.02
			c-9.93,0-18.02-8.08-18.02-18.02C112.22,161.14,120.3,153.06,130.24,153.06z M146.01,195.04h-32.03c-4.42,0-8.01,3.59-8.01,8.01
			v8.01h48.04v-8.01C154.02,198.63,150.44,195.04,146.01,195.04z"/>
		<path class="st17" d="M140.66,166.48l-2.83-2.83l-10.6,10.6l-4.59-4.59l-2.83,2.83l7.42,7.42L140.66,166.48z"/>
	</g>
	<g>
		<g>
			<path class="st25" d="M412.14,148.83c-4.8,0-8.68,3.89-8.68,8.68c0,4.8,3.89,8.68,8.68,8.68c3.46,0,6.44-2.03,7.84-4.96h4.57
				l0.62-1.24l0.62,0.62l0.62,0.62h11.79l3.72-3.72l-3.72-3.72h-13.03h-5.19C418.59,150.86,415.61,148.83,412.14,148.83"/>
		</g>
		<g>
			<g>
				<path class="st14" d="M438.61,153.34l-18.11,0c-0.42-0.79-0.96-1.53-1.63-2.19c-3.79-3.79-10.03-3.63-13.61,0.48
					c-3.02,3.47-3.02,8.73,0,12.19c3.58,4.11,9.82,4.27,13.61,0.48c0.66-0.66,1.2-1.41,1.63-2.19l3.49,0l1.46-1.46l1.46,1.46l11.7,0
					l4.39-4.39L438.61,153.34z M438.19,161.07l-10.84,0l-1.16-1.16l-0.73-0.73l-0.73,0.73l-1.16,1.16l-3.06,0l-0.62,0l-0.29,0.55
					c-0.38,0.72-0.87,1.38-1.44,1.95c-3.36,3.36-8.93,3.22-12.1-0.43c-2.68-3.08-2.68-7.75,0-10.83c3.17-3.65,8.74-3.79,12.1-0.43
					c0.57,0.57,1.06,1.23,1.44,1.95l0.29,0.55h0.62l17.68,0l3.35,3.35L438.19,161.07z"/>
				<circle class="st14" cx="409.28" cy="157.71" r="2.07"/>
				<rect x="428.29" y="157.19" class="st14" width="8.77" height="1.03"/>
			</g>
		</g>
	</g>
	<g>
		<g>
			<path class="st26" d="M707.83,183.64c-0.52,0.23-0.89,0.8-0.94,1.36l2.58,1.5l-6.47,3.84l-6.47-3.89l2.44-1.41
				c-0.05-0.56-0.42-1.08-0.89-1.31l-4.92,2.77v10.88L703,203l9.84-5.86v-10.69L707.83,183.64z M702.06,200.7l-7.03-4.36v-8.91
				l7.03,4.36V200.7z M710.97,196.06l-7.03,4.5v-8.91l7.03-4.36V196.06z"/>
			<path class="st26" d="M707.13,183.22l-1.78-0.98c-0.05,0.56-0.28,1.08-0.61,1.5l1.5,0.89
				C706.33,184.02,706.66,183.55,707.13,183.22z"/>
		</g>
		<path class="st26" d="M701.12,182v0.09c0,0.56,0.23,1.03,0.61,1.31l1.17-0.66l0.98,0.56c0.33-0.28,0.52-0.7,0.52-1.22
			c0-0.09,0-0.23-0.05-0.33l-1.41-0.8L701.12,182z M699.77,184.62l1.45-0.84c-0.38-0.38-0.61-0.84-0.7-1.36l-1.55,0.89
			C699.35,183.64,699.63,184.11,699.77,184.62z"/>
		<circle class="st27" cx="702.91" cy="189.55" r="1.64"/>
		<circle class="st28" cx="702.91" cy="174.64" r="1.64"/>
		<circle class="st28" cx="708.58" cy="185.14" r="1.64"/>
		<circle class="st28" cx="697.38" cy="185.14" r="1.64"/>
		<circle class="st27" cx="708.58" cy="177.69" r="1.64"/>
		<circle class="st27" cx="697.52" cy="177.88" r="1.64"/>
		<path class="st29" d="M710.27,185.14c0-0.98-0.66-1.64-1.64-1.64v3.23C709.61,186.78,710.27,185.98,710.27,185.14z"/>
		<path class="st29" d="M706.98,185.14c0,0.98,0.66,1.64,1.64,1.64v-3.23C707.78,183.55,706.98,184.2,706.98,185.14z"/>
		<path class="st28" d="M702.91,180.45c-0.84,0-1.64,0.66-1.64,1.64s0.66,1.64,1.64,1.64s1.64-0.66,1.64-1.64
			S703.89,180.45,702.91,180.45z"/>
	</g>
</g>
<g id="Text">
	<text transform="matrix(1 0 0 1 625.7173 334.3755)" class="st30 st31">App or service</text>
	<text transform="matrix(1 0 0 1 764.7173 197.605)"><tspan x="0" y="0" class="st32 st33">Key Protect UI </tspan><tspan x="0" y="13.2" class="st32 st33">or REST API</tspan></text>
	<text transform="matrix(1 0 0 1 625.7173 107.3755)" class="st30 st31">Key Protect</text>
	<text transform="matrix(1 0 0 1 421.6123 447.3984)" class="st32 st33">Monitor activity</text>
	<text transform="matrix(1 0 0 1 421.6123 343.3984)" class="st32 st33">Deploy keys</text>
	<text transform="matrix(1 0 0 1 421.6123 181.3984)" class="st32 st33">Create keys</text>
	<text transform="matrix(1 0 0 1 173.948 410.9604)"><tspan x="0" y="0" class="st30 st33">Readers</tspan><tspan x="42.14" y="0" class="st32 st33"> inspect use of keys</tspan><tspan x="0" y="13.2" class="st32 st33">and identify suspicious</tspan><tspan x="0" y="26.4" class="st32 st33">activity</tspan></text>
	<text transform="matrix(1 0 0 1 173.9479 298.9609)"><tspan x="0" y="0" class="st30 st33">Writers</tspan><tspan x="37.86" y="0" class="st32 st33"> provision key-consuming</tspan><tspan x="0" y="13.2" class="st32 st33">app or service and supply key</tspan><tspan x="0" y="26.4" class="st32 st33">IDs from Key Protect</tspan></text>
	<text transform="matrix(1 0 0 1 173.9478 195.1604)"><tspan x="0" y="0" class="st30 st33">Managers</tspan><tspan x="49.69" y="0" class="st32 st33"> create symmetric keys </tspan><tspan x="0" y="13.2" class="st32 st33">in Key Protect</tspan></text>
	<text transform="matrix(1 0 0 1 70.7173 107.3755)" class="st30 st31">Cloud IAM roles</text>
	<text transform="matrix(1 0 0 1 49 63)" class="st24 st34 st35">Managing access to keys</text>
</g>
</svg>
