<svg xmlns="http://www.w3.org/2000/svg" viewBox="0 0 1000 550"><defs><clipPath id="a"><path fill="none" d="M692.55 171.12h20.51v31.25h-20.51z"/></clipPath><clipPath id="b"><path transform="rotate(-45 423.006 156.335)" fill="none" d="M408.99 142.06H437v28.55h-28.01z"/></clipPath></defs><g data-name="Visual"><path fill="#fff" d="M49.5 83.5h345v412h-345z"/><path fill="none" stroke="#d8d8d8" stroke-miterlimit="10" d="M394.5 494v1.5H393"/><path fill="none" stroke="#d8d8d8" stroke-miterlimit="10" stroke-dasharray="3 2" d="M391 495.5H52"/><path fill="none" stroke="#d8d8d8" stroke-miterlimit="10" d="M51 495.5h-1.5V494"/><path fill="none" stroke="#d8d8d8" stroke-miterlimit="10" stroke-dasharray="3.01 2.01" d="M49.5 491.99V86"/><path fill="none" stroke="#d8d8d8" stroke-miterlimit="10" d="M49.5 85v-1.5H51"/><path fill="none" stroke="#d8d8d8" stroke-miterlimit="10" stroke-dasharray="3 2" d="M53 83.5h339"/><path fill="none" stroke="#d8d8d8" stroke-miterlimit="10" d="M393 83.5h1.5V85"/><path fill="none" stroke="#d8d8d8" stroke-miterlimit="10" stroke-dasharray="3.01 2.01" d="M394.5 87.01V493"/><path fill="#fff" d="M603.5 83.5h345v185h-345z"/><path fill="none" stroke="#d8d8d8" stroke-miterlimit="10" d="M948.5 267v1.5H947"/><path fill="none" stroke="#d8d8d8" stroke-miterlimit="10" stroke-dasharray="3 2" d="M945 268.5H606"/><path fill="none" stroke="#d8d8d8" stroke-miterlimit="10" d="M605 268.5h-1.5V267"/><path fill="none" stroke="#d8d8d8" stroke-miterlimit="10" stroke-dasharray="3 2" d="M603.5 265V86"/><path fill="none" stroke="#d8d8d8" stroke-miterlimit="10" d="M603.5 85v-1.5h1.5"/><path fill="none" stroke="#d8d8d8" stroke-miterlimit="10" stroke-dasharray="3 2" d="M607 83.5h339"/><path fill="none" stroke="#d8d8d8" stroke-miterlimit="10" d="M947 83.5h1.5V85"/><path fill="none" stroke="#d8d8d8" stroke-miterlimit="10" stroke-dasharray="3 2" d="M948.5 87v179"/><path fill="#f8f4f2" d="M626.5 120.5h298v121h-298z"/><path fill="none" stroke="#000f5e" stroke-miterlimit="10" d="M923 120.5h1.5v1.5"/><path fill="none" stroke="#000f5e" stroke-miterlimit="10" stroke-dasharray="3.03 2.02" d="M924.5 124.02v114.97"/><path fill="none" stroke="#000f5e" stroke-miterlimit="10" d="M924.5 240v1.5H923"/><path fill="none" stroke="#000f5e" stroke-miterlimit="10" stroke-dasharray="2.98 1.99" d="M921.01 241.5H628.99"/><path fill="none" stroke="#000f5e" stroke-miterlimit="10" d="M628 241.5h-1.5V240"/><path fill="none" stroke="#000f5e" stroke-miterlimit="10" stroke-dasharray="3.03 2.02" d="M626.5 237.98V123.01"/><path fill="none" stroke="#000f5e" stroke-miterlimit="10" d="M626.5 122v-1.5h1.5"/><path fill="none" stroke="#000f5e" stroke-miterlimit="10" stroke-dasharray="2.98 1.99" d="M629.99 120.5h292.02"/><path fill="#f4f4f4" d="M70.5 120.5h300v347h-300z"/><path fill="none" stroke="#000f5e" stroke-miterlimit="10" d="M370.5 466v1.5H369"/><path fill="none" stroke="#000f5e" stroke-miterlimit="10" stroke-dasharray="3 2" d="M367 467.5H73"/><path fill="none" stroke="#000f5e" stroke-miterlimit="10" d="M72 467.5h-1.5V466"/><path fill="none" stroke="#000f5e" stroke-miterlimit="10" stroke-dasharray="3.02 2.01" d="M70.5 463.99V123.01"/><path fill="none" stroke="#000f5e" stroke-miterlimit="10" d="M70.5 122v-1.5H72"/><path fill="none" stroke="#000f5e" stroke-miterlimit="10" stroke-dasharray="3 2" d="M74 120.5h294"/><path fill="none" stroke="#000f5e" stroke-miterlimit="10" d="M369 120.5h1.5v1.5"/><path fill="none" stroke="#000f5e" stroke-miterlimit="10" stroke-dasharray="3.02 2.01" d="M370.5 124.01v340.98"/><path fill="#fff" d="M603.5 310.5h345v185h-345z"/><path fill="none" stroke="#d8d8d8" stroke-miterlimit="10" d="M948.5 494v1.5H947"/><path fill="none" stroke="#d8d8d8" stroke-miterlimit="10" stroke-dasharray="3 2" d="M945 495.5H606"/><path fill="none" stroke="#d8d8d8" stroke-miterlimit="10" d="M605 495.5h-1.5V494"/><path fill="none" stroke="#d8d8d8" stroke-miterlimit="10" stroke-dasharray="3 2" d="M603.5 492V313"/><path fill="none" stroke="#d8d8d8" stroke-miterlimit="10" d="M603.5 312v-1.5h1.5"/><path fill="none" stroke="#d8d8d8" stroke-miterlimit="10" stroke-dasharray="3 2" d="M607 310.5h339"/><path fill="none" stroke="#d8d8d8" stroke-miterlimit="10" d="M947 310.5h1.5v1.5"/><path fill="none" stroke="#d8d8d8" stroke-miterlimit="10" stroke-dasharray="3 2" d="M948.5 314v179"/><path fill="#edf5ff" stroke="#000f5e" stroke-miterlimit="10" stroke-dasharray="3 2" d="M626.5 467.5v-120h298v120z"/><path fill="none" stroke="#6e177d" stroke-miterlimit="10" d="M789 241.5v.5"/><path fill="none" stroke="#6e177d" stroke-miterlimit="10" stroke-dasharray="1 1" d="M789 243v59.33"/><path fill="none" stroke="#6e177d" stroke-miterlimit="10" d="M789 302.82v.5"/><path fill="#6e177d" d="M784.01 301.87l4.99 8.63 4.99-8.63h-9.98z"/><path fill="none" stroke="#6e177d" stroke-miterlimit="10" d="M758 248.68v61.82"/><path fill="#6e177d" d="M753.01 250.13l4.99-8.63 4.99 8.63h-9.98z"/><path d="M795.63 409.36v-3.64h-5.45v3.64h-3.64v-3.64h-5.45v3.64h-23.64v10.91h40v-10.91z" fill="#8747b8"/><path d="M775.63 396.64h-1.82V393h-5.45v3.64h-3.64V393h-5.45v3.64h-1.82v10.91h18.18zm1.82 25.45h20V433h-20zm-20 0h18.18V433h-18.18z" fill="#8747b8"/><path d="M403 425h141v23.49A10.51 10.51 0 0 1 533.49 459h-120A10.51 10.51 0 0 1 403 448.49V425zM403 321h141v23.49A10.51 10.51 0 0 1 533.49 355h-120A10.51 10.51 0 0 1 403 344.49V321zM403 159h141v23.49A10.51 10.51 0 0 1 533.49 193h-120A10.51 10.51 0 0 1 403 182.49V159z" fill="#b380e0" opacity=".15"/><path fill="none" stroke="#000f5e" stroke-miterlimit="10" d="M589.82 159.25H370.05"/><path fill="#000f5e" d="M588.37 154.26l8.63 4.99-8.63 4.99v-9.98z"/><circle cx="370.26" cy="159.25" r="3.76" fill="#fff"/><path d="M370.26 155a4.26 4.26 0 1 1-4.26 4.26 4.26 4.26 0 0 1 4.26-4.26zm0 7.52a3.26 3.26 0 1 0-3.26-3.26 3.26 3.26 0 0 0 3.26 3.26z" fill="#000f5e"/><path fill="none" stroke="#005ab3" stroke-miterlimit="10" d="M370.05 425H556v-79"/><circle cx="370.26" cy="425" r="3.76" fill="#fff"/><path d="M370.26 429.26A4.26 4.26 0 1 0 366 425a4.26 4.26 0 0 0 4.26 4.26zm0-7.52A3.26 3.26 0 1 1 367 425a3.26 3.26 0 0 1 3.26-3.26z" fill="#005ab3"/><path fill="none" stroke="#6e177d" stroke-miterlimit="10" d="M589.82 321.5H370.05"/><path fill="#6e177d" d="M588.37 316.51l8.63 4.99-8.63 4.99v-9.98z"/><circle cx="370.26" cy="321.5" r="3.76" fill="#fff"/><path d="M370.26 317.24a4.26 4.26 0 1 1-4.26 4.26 4.26 4.26 0 0 1 4.26-4.26zm0 7.52a3.26 3.26 0 1 0-3.26-3.26 3.26 3.26 0 0 0 3.26 3.26z" fill="#6e177d"/><path fill="none" stroke="#005ab3" stroke-miterlimit="10" d="M589.82 245H556v102"/><path fill="#005ab3" d="M588.37 240.01L597 245l-8.63 4.99v-9.98z"/><path d="M858.21 388.71c11.25 0 19.38 2.08 22.08 3.54-2.71 1.46-10.21 3.33-22.08 3.33-11.67 0-19-2.08-21.46-3.33 2.25-1.46 9.79-3.54 21.46-3.54zm0-2.71c-14.17 0-24.79 2.92-24.79 6.25s10.62 6.25 24.79 6.25 25.21-2.92 25.21-6.25-11.26-6.25-25.21-6.25zm-.33 37.5c-9.37 0-25-1.46-25-6.67V411H835v6c0 1 7 4.17 22.92 4.17 15.07 0 22.92-2.92 22.92-4.17v-6h2.08v6c-.04 5-15.67 6.5-25.04 6.5zm0 12.5c-9.37 0-25-1.46-25-6.67v-5.83H835v5.83c0 1 7 4.17 22.92 4.17 15.07 0 22.92-2.92 22.92-4.17v-5.83h2.08v5.83c-.04 5.21-15.67 6.67-25.04 6.67zm0-25c-9.17 0-25-1.46-25-6.67v-5.83H835v5.83c0 1 7 4.17 22.92 4.17s22.92-2.92 22.92-4.17v-5.83h2.08v5.83c-.04 5.21-15.67 6.67-25.04 6.67z" fill="#001689"/><path fill="#fff" d="M667 387h60v48h-60z"/><path d="M689.21 422.36a10.42 10.42 0 1 1 14.73 0l2.95 2.95a14.58 14.58 0 1 0-20.62 0z" fill="#d75193"/><path d="M694.49 429.75h4.17L696.58 411z" fill="#d75193"/><path d="M665.5 386v50H728v-50zm60.42 47.92h-58.34v-37.5h58.33z" fill="#a71c71"/><path fill="#fff" d="M668 165.5h70v45h-70z"/><path d="M665.5 153v60h75v-60zm72.5 57.5h-70v-45h70z" fill="#000f5e"/><g clip-path="url(#a)" data-name="KP Logo"><path d="M707.83 182.21a1.77 1.77 0 0 0-1 1.42l2.69 1.56-6.74 4-6.74-4.05 2.54-1.46a1.74 1.74 0 0 0-.93-1.37l-5.13 2.88v11.33l10.25 5.86 10.25-6.1v-11.14zm-6 17.77l-7.32-4.54v-9.28l7.32 4.54zm9.28-4.83l-7.32 4.69v-9.28l7.32-4.54z" fill="#0a4169"/><path d="M707.11 181.77l-1.86-1a3 3 0 0 1-.63 1.56l1.56.93a2.15 2.15 0 0 1 .93-1.47M700.85 180.5v.1a1.67 1.67 0 0 0 .63 1.37l1.22-.68 1 .59a1.62 1.62 0 0 0 .54-1.27.84.84 0 0 0 0-.34l-1.47-.83zm-1.41 2.73l1.51-.88a2.65 2.65 0 0 1-.73-1.42l-1.61.93a2.81 2.81 0 0 1 .83 1.37" fill="#0a4169"/><path d="M702.71 186.65a1.71 1.71 0 1 1-1.71 1.71 1.71 1.71 0 0 1 1.71-1.71" fill="#07aed1"/><path d="M702.71 171.13a1.71 1.71 0 1 1-1.71 1.71 1.71 1.71 0 0 1 1.71-1.71M708.62 182.06a1.71 1.71 0 1 1-1.71 1.71 1.71 1.71 0 0 1 1.71-1.71M696.95 182.06a1.71 1.71 0 1 1-1.71 1.71 1.71 1.71 0 0 1 1.71-1.71" fill="#87c632"/><path d="M708.62 174.3a1.71 1.71 0 1 1-1.71 1.71 1.71 1.71 0 0 1 1.71-1.71M697.1 174.49a1.71 1.71 0 1 1-1.71 1.71 1.71 1.71 0 0 1 1.71-1.71" fill="#07aed1"/><path d="M702.71 178.89a1.7 1.7 0 0 0-1.71 1.71 1.71 1.71 0 1 0 1.71-1.71" fill="#87c632"/></g><path fill="#fff" d="M410 410h24v20h-24z"/><path d="M426.06 418.61l3.58 3.58 1.18-1.18-4.76-4.76-8.33 8.33-3.58-3.58-1.15 1.19 4.76 4.76z" fill="#003bc9"/><path d="M409.5 410v20h25v-20zm24.17 19.17h-23.34v-15h23.33z" fill="#003bc9"/><path fill="#fff" d="M409 306h24v20h-24z"/><path d="M414.09 322.42l4.76-4.76-4.76-4.76-1.18 1.18 3.58 3.58-3.58 3.58z" fill="#272727"/><path d="M408.5 306v20h25v-20zm24.17 19.17h-23.34v-15h23.33z" fill="#272727"/><g clip-path="url(#b)" data-name="Artwork 39"><path d="M441.23 157.5l-3.36-3.62v.26l-.07-.07v-.28h-13.49v.16h-2.37a7.78 7.78 0 0 0-1.37-1.84 7.28 7.28 0 1 0 .19 10.48 7 7 0 0 0 1.44-2.1h3.71v-.76h1.93v.73h9.66v.28l.33-.28h.27v-.23z" fill="#cba9e6"/><path d="M438.43 153.48H422.7a8.08 8.08 0 1 0 0 7.62h3l1.27-1.27 1.27 1.27h10.16l3.81-3.81zm-.37 6.72h-9.41l-1-1-.63-.63-.64.64-1 1h-3.2l-.25.48a7.19 7.19 0 1 1 0-6.77l.25.47h15.9l2.91 2.91z" fill="#6e177d"/><path d="M414.22 156a1.8 1.8 0 1 1-2.54 0 1.8 1.8 0 0 1 2.54 0M429.46 156.82h7.62v.9h-7.62z" fill="#6e177d"/></g><path d="M112.91 424.92a10.68 10.68 0 1 0-10.68-10.68 10.68 10.68 0 0 0 10.68 10.68zm0-19.23a8.55 8.55 0 1 1-8.55 8.55 8.56 8.56 0 0 1 8.55-8.55zm23.5 8.55a10.68 10.68 0 1 0 10.68-10.68 10.68 10.68 0 0 0-10.68 10.68zm10.68-8.55a8.55 8.55 0 1 1-8.55 8.55 8.56 8.56 0 0 1 8.55-8.55zm-6.41-15A10.68 10.68 0 1 0 130 401.42a10.68 10.68 0 0 0 10.68-10.68zM130 399.28a8.55 8.55 0 1 1 8.55-8.55 8.56 8.56 0 0 1-8.55 8.55zm-8.55 30.09h-17.09a4.27 4.27 0 0 0-4.27 4.27v6.41h25.64v-6.41a4.27 4.27 0 0 0-4.28-4.27zm34.18 0h-17.08a4.27 4.27 0 0 0-4.27 4.27v6.41h25.64v-6.41a4.27 4.27 0 0 0-4.28-4.27z" fill="#005ab3"/><path d="M112.91 312.92a10.68 10.68 0 1 0-10.68-10.68 10.68 10.68 0 0 0 10.68 10.68zm0-19.23a8.55 8.55 0 1 1-8.55 8.55 8.56 8.56 0 0 1 8.55-8.55zm23.5 8.55a10.68 10.68 0 1 0 10.68-10.68 10.68 10.68 0 0 0-10.68 10.68zm10.68-8.55a8.55 8.55 0 1 1-8.55 8.55 8.56 8.56 0 0 1 8.55-8.55zm-6.41-15A10.68 10.68 0 1 0 130 289.42a10.68 10.68 0 0 0 10.68-10.68zM130 287.28a8.55 8.55 0 1 1 8.55-8.55 8.56 8.56 0 0 1-8.55 8.55zm-8.55 30.09h-17.09a4.27 4.27 0 0 0-4.27 4.27v6.41h25.64v-6.41a4.27 4.27 0 0 0-4.28-4.27zm34.18 0h-17.08a4.27 4.27 0 0 0-4.27 4.27v6.41h25.64v-6.41a4.27 4.27 0 0 0-4.28-4.27z" fill="#6e177d"/><path d="M130.24 191.09a20 20 0 1 0-20-20 20 20 0 0 0 20 20zm0-38a18 18 0 1 1-18 18 18 18 0 0 1 18-18.03zM146 195h-32a8 8 0 0 0-8 8v8h48v-8a8 8 0 0 0-8-8z" fill="#000f5e"/><path d="M140.66 166.48l-2.83-2.83-10.6 10.6-4.59-4.59-2.83 2.83 7.42 7.42z" fill="#000f5e"/></g><g data-name="Text"><text transform="translate(625.72 334.38)" font-size="12" font-family="IBMPlexSans-SemiBold, IBM Plex Sans" font-weight="700">App or se<tspan x="52.28" y="0" letter-spacing=".01em">r</tspan><tspan x="57.1" y="0" letter-spacing="0em">vi</tspan><tspan x="66.69" y="0" letter-spacing="-.01em">c</tspan><tspan x="72.79" y="0" letter-spacing="0em">e</tspan></text><text transform="translate(764.72 197.6)" font-size="11" font-family="IBMPlexSans, IBM Plex Sans"><tspan letter-spacing="-.02em">K</tspan><tspan x="6.7" y="0" letter-spacing="0em">e</tspan><tspan x="12.68" y="0">y </tspan><tspan x="20.77" y="0" letter-spacing="-.01em">P</tspan><tspan x="27.32" y="0" letter-spacing="-.01em">r</tspan><tspan x="31.31" y="0">o</tspan><tspan x="37.47" y="0" letter-spacing="0em">t</tspan><tspan x="41.28" y="0">ect UI</tspan><tspan x="0" y="13.2">or RE</tspan><tspan x="26.25" y="13.2" letter-spacing="-.01em">S</tspan><tspan x="32.49" y="13.2">T API</tspan></text><text transform="translate(625.72 107.38)" font-size="12" font-family="IBMPlexSans-SemiBold, IBM Plex Sans" font-weight="700"><tspan letter-spacing="-.02em">K</tspan><tspan x="7.84" y="0" letter-spacing="-.01em">e</tspan><tspan x="14.46" y="0">y </tspan><tspan x="23.58" y="0" letter-spacing="-.01em">P</tspan><tspan x="31.15" y="0" letter-spacing="-.01em">r</tspan><tspan x="35.81" y="0" letter-spacing="0em">ot</tspan><tspan x="46.96" y="0">ect</tspan></text><text transform="translate(421.61 447.4)" font-size="11" font-family="IBMPlexSans, IBM Plex Sans">Moni<tspan x="24.08" y="0" letter-spacing="0em">t</tspan><tspan x="27.9" y="0">or activity</tspan></text><text transform="translate(421.61 343.4)" font-size="11" font-family="IBMPlexSans, IBM Plex Sans">Depl<tspan x="22.79" y="0" letter-spacing="-.01em">o</tspan><tspan x="28.9" y="0">y </tspan><tspan x="36.98" y="0" letter-spacing="-.02em">k</tspan><tspan x="42.59" y="0" letter-spacing="-.01em">e</tspan><tspan x="48.58" y="0" letter-spacing="0em">y</tspan><tspan x="54.02" y="0">s</tspan></text><text transform="translate(421.61 181.4)" font-size="11" font-family="IBMPlexSans, IBM Plex Sans">C<tspan x="6.83" y="0" letter-spacing="-.01em">r</tspan><tspan x="10.81" y="0">ea</tspan><tspan x="22.73" y="0" letter-spacing="0em">t</tspan><tspan x="26.54" y="0">e </tspan><tspan x="35.18" y="0" letter-spacing="-.02em">k</tspan><tspan x="40.79" y="0" letter-spacing="0em">e</tspan><tspan x="46.77" y="0" letter-spacing="0em">y</tspan><tspan x="52.22" y="0" letter-spacing="0em">s</tspan></text><text transform="translate(173.95 410.96)" font-size="11" font-family="IBMPlexSans-SemiBold, IBM Plex Sans"><tspan font-weight="700" letter-spacing="-.02em">R</tspan><tspan x="7.14" y="0" font-weight="700">eaders</tspan><tspan x="41.98" y="0" font-family="IBMPlexSans, IBM Plex Sans"> inspect use </tspan><tspan x="103.57" y="0" font-family="IBMPlexSans, IBM Plex Sans" letter-spacing="-.01em">o</tspan><tspan x="109.67" y="0" font-family="IBMPlexSans, IBM Plex Sans">f </tspan><tspan x="115.83" y="0" font-family="IBMPlexSans, IBM Plex Sans" letter-spacing="-.02em">k</tspan><tspan x="121.44" y="0" font-family="IBMPlexSans, IBM Plex Sans" letter-spacing="-.01em">e</tspan><tspan x="127.42" y="0" font-family="IBMPlexSans, IBM Plex Sans" letter-spacing="0em">y</tspan><tspan x="132.87" y="0" font-family="IBMPlexSans, IBM Plex Sans">s</tspan><tspan font-family="IBMPlexSans, IBM Plex Sans"><tspan x="0" y="13.2">and identi</tspan><tspan x="49.13" y="13.2" letter-spacing=".01em">f</tspan><tspan x="52.8" y="13.2">y suspicious</tspan><tspan x="0" y="26.4">activity</tspan></tspan></text><text transform="translate(173.95 298.96)" font-size="11" font-family="IBMPlexSans-SemiBold, IBM Plex Sans"><tspan font-weight="700" letter-spacing="-.01em">W</tspan><tspan x="10.33" y="0" font-weight="700">ri</tspan><tspan x="17.69" y="0" font-weight="700" letter-spacing="0em">t</tspan><tspan x="21.76" y="0" font-weight="700" letter-spacing="0em">ers</tspan><tspan x="37.71" y="0" font-family="IBMPlexSans, IBM Plex Sans"> p</tspan><tspan x="46.68" y="0" font-family="IBMPlexSans, IBM Plex Sans" letter-spacing="-.01em">r</tspan><tspan x="50.67" y="0" font-family="IBMPlexSans, IBM Plex Sans" letter-spacing="-.01em">o</tspan><tspan x="56.74" y="0" font-family="IBMPlexSans, IBM Plex Sans" letter-spacing="0em">vision </tspan><tspan x="88.01" y="0" font-family="IBMPlexSans, IBM Plex Sans" letter-spacing="-.02em">k</tspan><tspan x="93.62" y="0" font-family="IBMPlexSans, IBM Plex Sans" letter-spacing="0em">e</tspan><tspan x="99.6" y="0" font-family="IBMPlexSans, IBM Plex Sans" letter-spacing="-.01em">y</tspan><tspan x="104.98" y="0" font-family="IBMPlexSans, IBM Plex Sans" letter-spacing=".01em">-</tspan><tspan x="109.48" y="0" font-family="IBMPlexSans, IBM Plex Sans" letter-spacing="-.01em">c</tspan><tspan x="114.95" y="0" font-family="IBMPlexSans, IBM Plex Sans" letter-spacing="0em">onsuming</tspan><tspan font-family="IBMPlexSans, IBM Plex Sans"><tspan x="0" y="13.2">app or se</tspan><tspan x="45.42" y="13.2" letter-spacing=".01em">r</tspan><tspan x="49.56" y="13.2">vi</tspan><tspan x="57.73" y="13.2" letter-spacing="-.01em">c</tspan><tspan x="63.19" y="13.2">e and supp</tspan><tspan x="117.29" y="13.2" letter-spacing="-.01em">l</tspan><tspan x="120.17" y="13.2" letter-spacing="0em">y </tspan><tspan x="128.26" y="13.2" letter-spacing="-.02em">k</tspan><tspan x="133.87" y="13.2" letter-spacing="0em">e</tspan><tspan x="139.85" y="13.2">y</tspan><tspan x="0" y="26.4">IDs f</tspan><tspan x="23.3" y="26.4" letter-spacing="-.01em">r</tspan><tspan x="27.28" y="26.4" letter-spacing="0em">om </tspan><tspan x="45.64" y="26.4" letter-spacing="-.02em">K</tspan><tspan x="52.34" y="26.4" letter-spacing="-.01em">e</tspan><tspan x="58.32" y="26.4">y </tspan><tspan x="66.41" y="26.4" letter-spacing="-.01em">P</tspan><tspan x="72.96" y="26.4" letter-spacing="0em">r</tspan><tspan x="76.94" y="26.4" letter-spacing="0em">o</tspan><tspan x="83.1" y="26.4" letter-spacing="0em">t</tspan><tspan x="86.92" y="26.4">ect</tspan></tspan></text><text transform="translate(173.95 195.16)" font-size="11" font-family="IBMPlexSans-SemiBold, IBM Plex Sans"><tspan font-weight="700">Mana</tspan><tspan x="27.75" y="0" font-weight="700" letter-spacing="-.01em">g</tspan><tspan x="33.68" y="0" font-weight="700">ers</tspan><tspan x="49.63" y="0" font-family="IBMPlexSans, IBM Plex Sans" letter-spacing="0em"> c</tspan><tspan x="57.76" y="0" font-family="IBMPlexSans, IBM Plex Sans" letter-spacing="-.01em">r</tspan><tspan x="61.74" y="0" font-family="IBMPlexSans, IBM Plex Sans">ea</tspan><tspan x="73.66" y="0" font-family="IBMPlexSans, IBM Plex Sans" letter-spacing="0em">t</tspan><tspan x="77.47" y="0" font-family="IBMPlexSans, IBM Plex Sans">e </tspan><tspan x="86.11" y="0" font-family="IBMPlexSans, IBM Plex Sans" letter-spacing="-.02em">s</tspan><tspan x="91.27" y="0" font-family="IBMPlexSans, IBM Plex Sans">ymmetric </tspan><tspan x="140.78" y="0" font-family="IBMPlexSans, IBM Plex Sans" letter-spacing="-.02em">k</tspan><tspan x="146.39" y="0" font-family="IBMPlexSans, IBM Plex Sans" letter-spacing="0em">e</tspan><tspan x="152.37" y="0" font-family="IBMPlexSans, IBM Plex Sans" letter-spacing="0em">y</tspan><tspan x="157.82" y="0" font-family="IBMPlexSans, IBM Plex Sans">s </tspan><tspan font-family="IBMPlexSans, IBM Plex Sans"><tspan x="0" y="13.2">in </tspan><tspan x="11.59" y="13.2" letter-spacing="-.02em">K</tspan><tspan x="18.29" y="13.2" letter-spacing="-.01em">e</tspan><tspan x="24.28" y="13.2">y </tspan><tspan x="32.36" y="13.2" letter-spacing="-.01em">P</tspan><tspan x="38.92" y="13.2" letter-spacing="-.01em">r</tspan><tspan x="42.9" y="13.2">o</tspan><tspan x="49.06" y="13.2" letter-spacing="0em">t</tspan><tspan x="52.88" y="13.2">ect</tspan></tspan></text><text transform="translate(70.72 107.38)" font-size="12" font-family="IBMPlexSans-SemiBold, IBM Plex Sans" font-weight="700">Cloud IAM <tspan x="60.85" y="0" letter-spacing="0em">r</tspan><tspan x="65.51" y="0">oles</tspan></text><text transform="translate(49 63)" font-size="16" fill="#272727" font-family="IBMPlexSans-Bold, IBM Plex Sans" font-weight="700">Managing a<tspan x="85.5" y="0" letter-spacing="0em">cc</tspan><tspan x="101.89" y="0" letter-spacing="0em">e</tspan><tspan x="110.88" y="0" letter-spacing="-.01em">s</tspan><tspan x="118.83" y="0">s </tspan><tspan x="130.67" y="0" letter-spacing="0em">t</tspan><tspan x="136.73" y="0">o </tspan><tspan x="149.53" y="0" letter-spacing="-.03em">k</tspan><tspan x="158.33" y="0" letter-spacing="-.01em">e</tspan><tspan x="167.21" y="0" letter-spacing="-.01em">y</tspan><tspan x="175.61" y="0" letter-spacing="0em">s</tspan></text></g></svg>