<svg xmlns="http://www.w3.org/2000/svg" viewBox="0 0 900 446.58"><g id="Visual"><rect x="0.5" y="34.08" width="345" height="412" fill="#fff"/><polyline points="345.5 444.58 345.5 446.08 344 446.08" fill="none" stroke="#d8d8d8" stroke-miterlimit="10"/><line x1="342" y1="446.08" x2="3" y2="446.08" fill="none" stroke="#d8d8d8" stroke-miterlimit="10" stroke-dasharray="3 2"/><polyline points="2 446.08 0.5 446.08 0.5 444.58" fill="none" stroke="#d8d8d8" stroke-miterlimit="10"/><line x1="0.5" y1="442.57" x2="0.5" y2="36.59" fill="none" stroke="#d8d8d8" stroke-miterlimit="10" stroke-dasharray="3.01 2.01"/><polyline points="0.5 35.58 0.5 34.08 2 34.08" fill="none" stroke="#d8d8d8" stroke-miterlimit="10"/><line x1="4" y1="34.08" x2="343" y2="34.08" fill="none" stroke="#d8d8d8" stroke-miterlimit="10" stroke-dasharray="3 2"/><polyline points="344 34.08 345.5 34.08 345.5 35.58" fill="none" stroke="#d8d8d8" stroke-miterlimit="10"/><line x1="345.5" y1="37.59" x2="345.5" y2="443.58" fill="none" stroke="#d8d8d8" stroke-miterlimit="10" stroke-dasharray="3.01 2.01"/><rect x="554.5" y="34.08" width="345" height="185" fill="#fff"/><polyline points="899.5 217.58 899.5 219.08 898 219.08" fill="none" stroke="#d8d8d8" stroke-miterlimit="10"/><line x1="896" y1="219.08" x2="557" y2="219.08" fill="none" stroke="#d8d8d8" stroke-miterlimit="10" stroke-dasharray="3 2"/><polyline points="556 219.08 554.5 219.08 554.5 217.58" fill="none" stroke="#d8d8d8" stroke-miterlimit="10"/><line x1="554.5" y1="215.58" x2="554.5" y2="36.58" fill="none" stroke="#d8d8d8" stroke-miterlimit="10" stroke-dasharray="3 2"/><polyline points="554.5 35.58 554.5 34.08 556 34.08" fill="none" stroke="#d8d8d8" stroke-miterlimit="10"/><line x1="558" y1="34.08" x2="897" y2="34.08" fill="none" stroke="#d8d8d8" stroke-miterlimit="10" stroke-dasharray="3 2"/><polyline points="898 34.08 899.5 34.08 899.5 35.58" fill="none" stroke="#d8d8d8" stroke-miterlimit="10"/><line x1="899.5" y1="37.58" x2="899.5" y2="216.58" fill="none" stroke="#d8d8d8" stroke-miterlimit="10" stroke-dasharray="3 2"/><rect x="577.5" y="71.08" width="298" height="121" fill="#f8f4f2"/><polyline points="874 71.08 875.5 71.08 875.5 72.58" fill="none" stroke="#000f5e" stroke-miterlimit="10"/><line x1="875.5" y1="74.6" x2="875.5" y2="189.58" fill="none" stroke="#000f5e" stroke-miterlimit="10" stroke-dasharray="3.03 2.02"/><polyline points="875.5 190.58 875.5 192.08 874 192.08" fill="none" stroke="#000f5e" stroke-miterlimit="10"/><line x1="872.01" y1="192.08" x2="579.99" y2="192.08" fill="none" stroke="#000f5e" stroke-miterlimit="10" stroke-dasharray="2.98 1.99"/><polyline points="579 192.08 577.5 192.08 577.5 190.58" fill="none" stroke="#000f5e" stroke-miterlimit="10"/><line x1="577.5" y1="188.57" x2="577.5" y2="73.59" fill="none" stroke="#000f5e" stroke-miterlimit="10" stroke-dasharray="3.03 2.02"/><polyline points="577.5 72.58 577.5 71.08 579 71.08" fill="none" stroke="#000f5e" stroke-miterlimit="10"/><line x1="580.99" y1="71.08" x2="873.01" y2="71.08" fill="none" stroke="#000f5e" stroke-miterlimit="10" stroke-dasharray="2.98 1.99"/><rect x="21.5" y="71.08" width="300" height="347" fill="#f4f4f4"/><polyline points="321.5 416.58 321.5 418.08 320 418.08" fill="none" stroke="#000f5e" stroke-miterlimit="10"/><line x1="318" y1="418.08" x2="24" y2="418.08" fill="none" stroke="#000f5e" stroke-miterlimit="10" stroke-dasharray="3 2"/><polyline points="23 418.08 21.5 418.08 21.5 416.58" fill="none" stroke="#000f5e" stroke-miterlimit="10"/><line x1="21.5" y1="414.57" x2="21.5" y2="73.59" fill="none" stroke="#000f5e" stroke-miterlimit="10" stroke-dasharray="3.02 2.01"/><polyline points="21.5 72.58 21.5 71.08 23 71.08" fill="none" stroke="#000f5e" stroke-miterlimit="10"/><line x1="25" y1="71.08" x2="319" y2="71.08" fill="none" stroke="#000f5e" stroke-miterlimit="10" stroke-dasharray="3 2"/><polyline points="320 71.08 321.5 71.08 321.5 72.58" fill="none" stroke="#000f5e" stroke-miterlimit="10"/><line x1="321.5" y1="74.6" x2="321.5" y2="415.58" fill="none" stroke="#000f5e" stroke-miterlimit="10" stroke-dasharray="3.02 2.01"/><rect x="554.5" y="261.08" width="345" height="185" fill="#fff"/><polyline points="899.5 444.58 899.5 446.08 898 446.08" fill="none" stroke="#d8d8d8" stroke-miterlimit="10"/><line x1="896" y1="446.08" x2="557" y2="446.08" fill="none" stroke="#d8d8d8" stroke-miterlimit="10" stroke-dasharray="3 2"/><polyline points="556 446.08 554.5 446.08 554.5 444.58" fill="none" stroke="#d8d8d8" stroke-miterlimit="10"/><line x1="554.5" y1="442.58" x2="554.5" y2="263.58" fill="none" stroke="#d8d8d8" stroke-miterlimit="10" stroke-dasharray="3 2"/><polyline points="554.5 262.58 554.5 261.08 556 261.08" fill="none" stroke="#d8d8d8" stroke-miterlimit="10"/><line x1="558" y1="261.08" x2="897" y2="261.08" fill="none" stroke="#d8d8d8" stroke-miterlimit="10" stroke-dasharray="3 2"/><polyline points="898 261.08 899.5 261.08 899.5 262.58" fill="none" stroke="#d8d8d8" stroke-miterlimit="10"/><line x1="899.5" y1="264.58" x2="899.5" y2="443.58" fill="none" stroke="#d8d8d8" stroke-miterlimit="10" stroke-dasharray="3 2"/><rect x="666.5" y="209.08" width="120" height="298" transform="translate(368.42 1084.58) rotate(-90)" fill="#edf5ff" stroke="#000f5e" stroke-miterlimit="10" stroke-dasharray="3 2"/><line x1="740" y1="192.08" x2="740" y2="192.58" fill="none" stroke="#6e177d" stroke-miterlimit="10"/><line x1="740" y1="193.58" x2="740" y2="252.91" fill="none" stroke="#6e177d" stroke-miterlimit="10" stroke-dasharray="1 1"/><line x1="740" y1="253.41" x2="740" y2="253.91" fill="none" stroke="#6e177d" stroke-miterlimit="10"/><polygon points="735.01 252.45 740 261.08 744.99 252.45 735.01 252.45" fill="#6e177d"/><line x1="709" y1="199.26" x2="709" y2="261.08" fill="none" stroke="#6e177d" stroke-miterlimit="10"/><polygon points="704.01 200.72 709 192.08 713.99 200.72 704.01 200.72" fill="#6e177d"/><path d="M746.63,360v-3.64h-5.46V360h-3.63v-3.64h-5.46V360H708.45v10.91h40V360Z" fill="#8747b8"/><path d="M726.63,347.22h-1.82v-3.64h-5.45v3.64h-3.64v-3.64h-5.45v3.64h-1.82v10.91h18.18Zm1.82,25.45h20v10.91h-20Zm-20,0h18.18v10.91H708.45Z" fill="#8747b8"/><path d="M354,375.58H495a0,0,0,0,1,0,0v23.49a10.51,10.51,0,0,1-10.51,10.51h-120A10.51,10.51,0,0,1,354,399.08V375.58A0,0,0,0,1,354,375.58Z" fill="#b380e0" opacity="0.15"/><path d="M354,271.58H495a0,0,0,0,1,0,0v23.49a10.51,10.51,0,0,1-10.51,10.51h-120A10.51,10.51,0,0,1,354,295.08V271.58A0,0,0,0,1,354,271.58Z" fill="#b380e0" opacity="0.15"/><path d="M354,109.58H495a0,0,0,0,1,0,0v23.49a10.51,10.51,0,0,1-10.51,10.51h-120A10.51,10.51,0,0,1,354,133.08V109.58A0,0,0,0,1,354,109.58Z" fill="#b380e0" opacity="0.15"/><line x1="540.82" y1="109.83" x2="321.05" y2="109.83" fill="none" stroke="#000f5e" stroke-miterlimit="10"/><polygon points="539.37 104.85 548 109.83 539.37 114.82 539.37 104.85" fill="#000f5e"/><path d="M321.26,106.07a3.76,3.76,0,1,0,3.76,3.76A3.76,3.76,0,0,0,321.26,106.07Z" fill="#fff"/><path d="M321.26,105.57a4.26,4.26,0,1,1-4.26,4.26,4.27,4.27,0,0,1,4.26-4.26Zm0,7.52a3.26,3.26,0,1,0-3.26-3.26,3.26,3.26,0,0,0,3.26,3.26Z" fill="#000f5e"/><polyline points="321.05 375.58 507 375.58 507 296.58" fill="none" stroke="#005ab3" stroke-miterlimit="10"/><path d="M321.26,379.34a3.76,3.76,0,1,1,3.76-3.76A3.76,3.76,0,0,1,321.26,379.34Z" fill="#fff"/><path d="M321.26,379.84a4.26,4.26,0,1,0-4.26-4.26,4.26,4.26,0,0,0,4.26,4.26Zm0-7.52a3.26,3.26,0,1,1-3.26,3.26,3.27,3.27,0,0,1,3.26-3.26Z" fill="#005ab3"/><line x1="540.82" y1="272.08" x2="321.05" y2="272.08" fill="none" stroke="#6e177d" stroke-miterlimit="10"/><polygon points="539.37 267.1 548 272.08 539.37 277.07 539.37 267.1" fill="#6e177d"/><path d="M321.26,268.32a3.76,3.76,0,1,0,3.76,3.76A3.76,3.76,0,0,0,321.26,268.32Z" fill="#fff"/><path d="M321.26,267.82a4.26,4.26,0,1,1-4.26,4.26,4.27,4.27,0,0,1,4.26-4.26Zm0,7.52a3.26,3.26,0,1,0-3.26-3.26,3.26,3.26,0,0,0,3.26,3.26Z" fill="#6e177d"/><polyline points="540.82 195.58 507 195.58 507 297.58" fill="none" stroke="#005ab3" stroke-miterlimit="10"/><polygon points="539.37 190.6 548 195.58 539.37 200.57 539.37 190.6" fill="#005ab3"/><path d="M809.21,339.29c11.25,0,19.37,2.09,22.08,3.54-2.71,1.46-10.21,3.34-22.08,3.34-11.67,0-19-2.09-21.46-3.34C790,341.38,797.54,339.29,809.21,339.29Zm0-2.71c-14.17,0-24.8,2.92-24.8,6.25s10.63,6.25,24.8,6.25,25.2-2.91,25.2-6.25S823.16,336.58,809.21,336.58Zm-.33,37.5c-9.38,0-25-1.45-25-6.66v-5.84H786v6.05c0,1,7,4.16,22.92,4.16,15.06,0,22.91-2.91,22.91-4.16v-6.05h2.09v6.05C833.88,372.63,818.25,374.08,808.88,374.08Zm0,12.5c-9.38,0-25-1.45-25-6.66v-5.84H786v5.84c0,1,7,4.16,22.92,4.16,15.06,0,22.91-2.91,22.91-4.16v-5.84h2.09v5.84C833.88,385.13,818.25,386.58,808.88,386.58Zm0-25c-9.17,0-25-1.45-25-6.66v-5.84H786v5.84c0,1,7,4.16,22.92,4.16s22.91-2.91,22.91-4.16v-5.84h2.09v5.84C833.88,360.13,818.25,361.58,808.88,361.58Z" fill="#001689"/><rect x="618" y="337.58" width="60" height="48" fill="#fff"/><path d="M640.21,372.94a10.42,10.42,0,1,1,14.73,0l2.95,2.95a14.59,14.59,0,1,0-20.62,0Z" fill="#d75193"/><path d="M645.49,380.33h4.17l-2.08-18.75Z" fill="#d75193"/><path d="M616.5,336.58v50H679v-50Zm60.42,47.92H618.58V347h58.34Z" fill="#a71c71"/><rect x="619" y="116.08" width="70" height="45" fill="#fff"/><path d="M616.5,103.58v60h75v-60Zm72.5,57.5H619v-45h70Z" fill="#000f5e"/><rect x="361" y="360.58" width="24" height="20" fill="#fff"/><path d="M377.06,369.19l3.58,3.58,1.18-1.18-4.76-4.75-8.33,8.33-3.58-3.58L364,372.77l4.76,4.76Z" fill="#003bc9"/><path d="M360.5,360.58v20h25v-20Zm24.17,19.17H361.33v-15h23.34Z" fill="#003bc9"/><rect x="360" y="256.58" width="24" height="20" fill="#fff"/><path d="M365.09,273l4.76-4.76-4.76-4.76-1.18,1.18,3.58,3.58-3.58,3.58Z" fill="#272727"/><path d="M359.5,256.58v20h25v-20Zm24.17,19.17H360.33v-15h23.34Z" fill="#272727"/><path d="M63.91,375.51a10.69,10.69,0,1,0-10.68-10.69A10.69,10.69,0,0,0,63.91,375.51Zm0-19.23a8.55,8.55,0,1,1-8.55,8.54A8.55,8.55,0,0,1,63.91,356.28Zm23.5,8.54a10.68,10.68,0,1,0,10.68-10.68A10.69,10.69,0,0,0,87.41,364.82Zm10.68-8.54a8.55,8.55,0,1,1-8.54,8.54A8.56,8.56,0,0,1,98.09,356.28Zm-6.41-15A10.68,10.68,0,1,0,81,352,10.68,10.68,0,0,0,91.68,341.32ZM81,349.87a8.55,8.55,0,1,1,8.55-8.55A8.57,8.57,0,0,1,81,349.87ZM72.45,380H55.36a4.27,4.27,0,0,0-4.27,4.27v6.41H76.73v-6.41A4.28,4.28,0,0,0,72.45,380Zm34.19,0H89.55a4.28,4.28,0,0,0-4.28,4.27v6.41h25.64v-6.41A4.27,4.27,0,0,0,106.64,380Z" fill="#005ab3"/><path d="M63.91,263.51a10.69,10.69,0,1,0-10.68-10.69A10.69,10.69,0,0,0,63.91,263.51Zm0-19.23a8.55,8.55,0,1,1-8.55,8.54A8.55,8.55,0,0,1,63.91,244.28Zm23.5,8.54a10.68,10.68,0,1,0,10.68-10.68A10.69,10.69,0,0,0,87.41,252.82Zm10.68-8.54a8.55,8.55,0,1,1-8.54,8.54A8.56,8.56,0,0,1,98.09,244.28Zm-6.41-15A10.68,10.68,0,1,0,81,240,10.68,10.68,0,0,0,91.68,229.32ZM81,237.87a8.55,8.55,0,1,1,8.55-8.55A8.57,8.57,0,0,1,81,237.87ZM72.45,268H55.36a4.27,4.27,0,0,0-4.27,4.27v6.41H76.73v-6.41A4.28,4.28,0,0,0,72.45,268Zm34.19,0H89.55a4.28,4.28,0,0,0-4.28,4.27v6.41h25.64v-6.41A4.27,4.27,0,0,0,106.64,268Z" fill="#6e177d"/><path d="M81.24,141.68a20,20,0,1,0-20-20A20,20,0,0,0,81.24,141.68Zm0-38a18,18,0,1,1-18,18A18,18,0,0,1,81.24,103.64Zm15.77,42H65a8,8,0,0,0-8,8v8h48v-8A8,8,0,0,0,97,145.62Z" fill="#000f5e"/><path d="M91.66,117.07l-2.83-2.83L78.24,124.83l-4.59-4.59-2.84,2.83,7.43,7.42Z" fill="#000f5e"/><path d="M363.14,99.41A8.69,8.69,0,1,0,371,111.82h4.57l.62-1.24.62.62.62.62H389.2l3.72-3.72-3.72-3.72H371a8.68,8.68,0,0,0-7.84-5" fill="#ceaceb"/><path d="M389.61,103.92H371.5a9.2,9.2,0,0,0-1.62-2.19,9.3,9.3,0,1,0,0,13.16,9.46,9.46,0,0,0,1.62-2.2H375l1.46-1.46,1.47,1.46h11.69l4.39-4.38Zm-.42,7.74H378.35l-1.16-1.16-.74-.73-.73.73-1.16,1.16h-3.68l-.29.54a8.18,8.18,0,0,1-1.45,2,8.27,8.27,0,1,1,0-11.69,8.18,8.18,0,0,1,1.45,2l.29.54h18.31l3.35,3.36Z" fill="#6e177d"/><circle cx="360.28" cy="108.29" r="2.07" fill="#6e177d"/><rect x="379.29" y="107.77" width="8.77" height="1.03" fill="#6e177d"/><path d="M658.83,134.22a1.71,1.71,0,0,0-.94,1.36l2.58,1.5L654,140.93,647.53,137l2.44-1.41a1.67,1.67,0,0,0-.89-1.31l-4.92,2.76V148l9.84,5.62,9.84-5.86V137Zm-5.77,17.07-7-4.36V138l7,4.36Zm8.91-4.64-7,4.5v-8.91l7-4.36Z" fill="#0a4169"/><path d="M658.13,133.8l-1.78-1a2.86,2.86,0,0,1-.61,1.5l1.5.89A2.06,2.06,0,0,1,658.13,133.8Z" fill="#0a4169"/><path d="M652.12,132.58v.1a1.62,1.62,0,0,0,.61,1.31l1.18-.66,1,.57a1.56,1.56,0,0,0,.52-1.22.74.74,0,0,0,0-.33l-1.41-.8Zm-1.35,2.63,1.45-.84a2.59,2.59,0,0,1-.7-1.36l-1.55.89A2.6,2.6,0,0,1,650.77,135.21Z" fill="#0a4169"/><circle cx="653.91" cy="140.13" r="1.64" fill="#07aed1"/><circle cx="653.91" cy="125.22" r="1.64" fill="#87c632"/><circle cx="659.58" cy="135.72" r="1.64" fill="#87c632"/><circle cx="648.38" cy="135.72" r="1.64" fill="#87c632"/><circle cx="659.58" cy="128.27" r="1.64" fill="#07aed1"/><circle cx="648.52" cy="128.46" r="1.64" fill="#07aed1"/><path d="M661.27,135.72a1.56,1.56,0,0,0-1.65-1.64v3.24A1.57,1.57,0,0,0,661.27,135.72Z" fill="none"/><path d="M658,135.72a1.56,1.56,0,0,0,1.64,1.65v-3.24A1.62,1.62,0,0,0,658,135.72Z" fill="none"/><path d="M653.91,131a1.63,1.63,0,0,0-1.64,1.64,1.64,1.64,0,1,0,1.64-1.64Z" fill="#87c632"/></g><g id="Text"><text transform="translate(576.72 284.96)" font-size="12" font-family="IBMPlexSans-SemiBold, IBM Plex Sans" font-weight="600">App or service</text><text transform="translate(715.72 148.19)" font-size="11" font-family="IBMPlexSans, IBM Plex Sans">Key Protect UI<tspan x="0" y="13.2">or REST API</tspan></text><text transform="translate(576.72 57.96)" font-size="12" font-family="IBMPlexSans-SemiBold, IBM Plex Sans" font-weight="600">Key Protect</text><text transform="translate(372.61 397.98)" font-size="11" font-family="IBMPlexSans, IBM Plex Sans">Monitor activity</text><text transform="translate(372.61 293.98)" font-size="11" font-family="IBMPlexSans, IBM Plex Sans">Deploy keys</text><text transform="translate(372.61 131.98)" font-size="11" font-family="IBMPlexSans, IBM Plex Sans">Create keys</text><text transform="translate(124.95 361.54)" font-size="11" font-family="IBMPlexSans-SemiBold, IBM Plex Sans" font-weight="600">Readers<tspan x="42.14" y="0" xml:space="preserve" font-family="IBMPlexSans, IBM Plex Sans" font-weight="400"> inspect use of keys</tspan><tspan font-family="IBMPlexSans, IBM Plex Sans" font-weight="400"><tspan x="0" y="13.2">and identify suspicious</tspan><tspan x="0" y="26.4">activity</tspan></tspan></text><text transform="translate(124.95 249.54)" font-size="11" font-family="IBMPlexSans-SemiBold, IBM Plex Sans" font-weight="600">Writers<tspan x="37.86" y="0" xml:space="preserve" font-family="IBMPlexSans, IBM Plex Sans" font-weight="400"> provision key-consuming</tspan><tspan font-family="IBMPlexSans, IBM Plex Sans" font-weight="400"><tspan x="0" y="13.2">app or service and supply key</tspan><tspan x="0" y="26.4">IDs from Key Protect</tspan></tspan></text><text transform="translate(124.95 145.74)" font-size="11" font-family="IBMPlexSans-SemiBold, IBM Plex Sans" font-weight="600">Managers<tspan x="49.69" y="0" xml:space="preserve" font-family="IBMPlexSans, IBM Plex Sans" font-weight="400"> create symmetric keys </tspan><tspan font-family="IBMPlexSans, IBM Plex Sans" font-weight="400"><tspan x="0" y="13.2">in Key Protect</tspan></tspan></text><text transform="translate(21.72 57.96)" font-size="12" font-family="IBMPlexSans-SemiBold, IBM Plex Sans" font-weight="600">Cloud IAM roles</text><text transform="translate(0 13.58)" font-size="16" fill="#272727" font-family="IBMPlexSans-Bold, IBM Plex Sans" font-weight="700">Managing a<tspan x="85.5" y="0" letter-spacing="0em">cc</tspan><tspan x="101.89" y="0" letter-spacing="0em">e</tspan><tspan x="110.88" y="0" letter-spacing="-0.01em">s</tspan><tspan x="118.83" y="0">s </tspan><tspan x="130.67" y="0" letter-spacing="0em">t</tspan><tspan x="136.73" y="0">o </tspan><tspan x="149.53" y="0" letter-spacing="-0.03em">k</tspan><tspan x="158.33" y="0" letter-spacing="-0.01em">e</tspan><tspan x="167.21" y="0" letter-spacing="-0.01em">y</tspan><tspan x="175.61" y="0" letter-spacing="0em">s</tspan></text></g></svg>