<svg xmlns="http://www.w3.org/2000/svg" width="1000" height="550" viewBox="0 0 1000 550"><defs><style>.cls-1{fill:#fff;}.cls-10,.cls-11,.cls-13,.cls-14,.cls-19,.cls-2,.cls-3,.cls-30,.cls-4,.cls-6,.cls-7,.cls-8{fill:none;}.cls-2,.cls-3,.cls-4{stroke:#d8d8d8;}.cls-10,.cls-11,.cls-12,.cls-13,.cls-14,.cls-19,.cls-2,.cls-3,.cls-4,.cls-6,.cls-7,.cls-8{stroke-miterlimit:10;}.cls-10,.cls-12,.cls-3{stroke-dasharray:3 2;}.cls-4{stroke-dasharray:3.0147 2.0098;}.cls-5{fill:#f8f4f2;}.cls-10,.cls-11,.cls-12,.cls-6,.cls-7,.cls-8{stroke:#000f5e;}.cls-7{stroke-dasharray:3.0256 2.0171;}.cls-8{stroke-dasharray:2.9798 1.9865;}.cls-9{fill:#f4f4f4;}.cls-11{stroke-dasharray:3.0175 2.0117;}.cls-12{fill:#edf5ff;}.cls-13,.cls-14{stroke:#6e177d;}.cls-14{stroke-dasharray:0.9971 0.9971;}.cls-15{fill:#6e177d;}.cls-16{fill:#8747b8;}.cls-17{fill:#b380e0;opacity:0.15;}.cls-18{fill:#000f5e;}.cls-19{stroke:#005ab3;}.cls-20{fill:#005ab3;}.cls-21{fill:#001689;}.cls-22{fill:#d75193;}.cls-23{fill:#a71c71;}.cls-24{fill:#003bc9;}.cls-25{fill:#272727;}.cls-26{fill:#ceaceb;}.cls-27{fill:#0a4169;}.cls-28{fill:#07aed1;}.cls-29{fill:#87c632;}</style></defs><title>keys-use-cases</title><g id="Visual"><rect class="cls-1" x="49.5" y="83.5" width="345" height="412"/><polyline class="cls-2" points="394.5 494 394.5 495.5 393 495.5"/><line class="cls-3" x1="391" y1="495.5" x2="52" y2="495.5"/><polyline class="cls-2" points="51 495.5 49.5 495.5 49.5 494"/><line class="cls-4" x1="49.5" y1="491.9902" x2="49.5" y2="86.0049"/><polyline class="cls-2" points="49.5 85 49.5 83.5 51 83.5"/><line class="cls-3" x1="53" y1="83.5" x2="392" y2="83.5"/><polyline class="cls-2" points="393 83.5 394.5 83.5 394.5 85"/><line class="cls-4" x1="394.5" y1="87.0098" x2="394.5" y2="492.9951"/><rect class="cls-1" x="603.5" y="83.5" width="345" height="185"/><polyline class="cls-2" points="948.5 267 948.5 268.5 947 268.5"/><line class="cls-3" x1="945" y1="268.5" x2="606" y2="268.5"/><polyline class="cls-2" points="605 268.5 603.5 268.5 603.5 267"/><line class="cls-3" x1="603.5" y1="265" x2="603.5" y2="86"/><polyline class="cls-2" points="603.5 85 603.5 83.5 605 83.5"/><line class="cls-3" x1="607" y1="83.5" x2="946" y2="83.5"/><polyline class="cls-2" points="947 83.5 948.5 83.5 948.5 85"/><line class="cls-3" x1="948.5" y1="87" x2="948.5" y2="266"/><rect class="cls-5" x="626.5" y="120.5" width="298" height="121"/><polyline class="cls-6" points="923 120.5 924.5 120.5 924.5 122"/><line class="cls-7" x1="924.5" y1="124.0171" x2="924.5" y2="238.9915"/><polyline class="cls-6" points="924.5 240 924.5 241.5 923 241.5"/><line class="cls-8" x1="921.0135" y1="241.5" x2="628.9933" y2="241.5"/><polyline class="cls-6" points="628 241.5 626.5 241.5 626.5 240"/><line class="cls-7" x1="626.5" y1="237.9829" x2="626.5" y2="123.0085"/><polyline class="cls-6" points="626.5 122 626.5 120.5 628 120.5"/><line class="cls-8" x1="629.9865" y1="120.5" x2="922.0067" y2="120.5"/><rect class="cls-9" x="70.5" y="120.5" width="300" height="347"/><polyline class="cls-6" points="370.5 466 370.5 467.5 369 467.5"/><line class="cls-10" x1="367" y1="467.5" x2="73" y2="467.5"/><polyline class="cls-6" points="72 467.5 70.5 467.5 70.5 466"/><line class="cls-11" x1="70.5" y1="463.9883" x2="70.5" y2="123.0059"/><polyline class="cls-6" points="70.5 122 70.5 120.5 72 120.5"/><line class="cls-10" x1="74" y1="120.5" x2="368" y2="120.5"/><polyline class="cls-6" points="369 120.5 370.5 120.5 370.5 122"/><line class="cls-11" x1="370.5" y1="124.0117" x2="370.5" y2="464.9941"/><rect class="cls-1" x="603.5" y="310.5" width="345" height="185"/><polyline class="cls-2" points="948.5 494 948.5 495.5 947 495.5"/><line class="cls-3" x1="945" y1="495.5" x2="606" y2="495.5"/><polyline class="cls-2" points="605 495.5 603.5 495.5 603.5 494"/><line class="cls-3" x1="603.5" y1="492" x2="603.5" y2="313"/><polyline class="cls-2" points="603.5 312 603.5 310.5 605 310.5"/><line class="cls-3" x1="607" y1="310.5" x2="946" y2="310.5"/><polyline class="cls-2" points="947 310.5 948.5 310.5 948.5 312"/><line class="cls-3" x1="948.5" y1="314" x2="948.5" y2="493"/><rect class="cls-12" x="715.5" y="258.5" width="120" height="298" transform="translate(368 1183) rotate(-90)"/><line class="cls-13" x1="789" y1="241.5" x2="789" y2="242"/><line class="cls-14" x1="789" y1="242.9971" x2="789" y2="302.3252"/><line class="cls-13" x1="789" y1="302.8238" x2="789" y2="303.3238"/><polygon class="cls-15" points="784.014 301.865 789 310.5 793.986 301.865 784.014 301.865"/><line class="cls-13" x1="758" y1="248.6762" x2="758" y2="310.5"/><polygon class="cls-15" points="753.014 250.135 758 241.5 762.986 250.135 753.014 250.135"/><path class="cls-16" d="M795.6291,409.3636v-3.6363h-5.4546v3.6363h-3.6363v-3.6363h-5.4546v3.6363H757.4472v10.9091h40V409.3636Z"/><path class="cls-16" d="M775.6291,396.6364h-1.8182V393h-5.4546v3.6364H764.72V393h-5.4546v3.6364h-1.8182v10.9091h18.1819Zm1.8181,25.4545h20V433h-20Zm-20,0h18.1819V433H757.4472Z"/><path class="cls-17" d="M403,425H544a0,0,0,0,1,0,0v23.4939A10.5061,10.5061,0,0,1,533.4939,459H413.5061A10.5061,10.5061,0,0,1,403,448.4939V425A0,0,0,0,1,403,425Z"/><path class="cls-17" d="M403,321H544a0,0,0,0,1,0,0v23.4939A10.5061,10.5061,0,0,1,533.4939,355H413.5061A10.5061,10.5061,0,0,1,403,344.4939V321A0,0,0,0,1,403,321Z"/><path class="cls-17" d="M403,159H544a0,0,0,0,1,0,0v23.4939A10.5061,10.5061,0,0,1,533.4939,193H413.5061A10.5061,10.5061,0,0,1,403,182.4939V159A0,0,0,0,1,403,159Z"/><line class="cls-6" x1="589.8238" y1="159.25" x2="370.0468" y2="159.25"/><polygon class="cls-18" points="588.365 154.264 597 159.25 588.365 164.236 588.365 154.264"/><path class="cls-1" d="M370.26,155.49a3.76,3.76,0,1,0,3.76,3.76A3.76,3.76,0,0,0,370.26,155.49Z"/><path class="cls-18" d="M370.26,154.99a4.26,4.26,0,1,1-4.26,4.26,4.2649,4.2649,0,0,1,4.26-4.26Zm0,7.52a3.26,3.26,0,1,0-3.26-3.26,3.2629,3.2629,0,0,0,3.26,3.26Z"/><polyline class="cls-19" points="370.047 425 556 425 556 346"/><path class="cls-1" d="M370.26,428.76a3.76,3.76,0,1,1,3.76-3.76A3.76,3.76,0,0,1,370.26,428.76Z"/><path class="cls-20" d="M370.26,429.26A4.26,4.26,0,1,0,366,425a4.2649,4.2649,0,0,0,4.26,4.26Zm0-7.52A3.26,3.26,0,1,1,367,425a3.2629,3.2629,0,0,1,3.26-3.26Z"/><line class="cls-13" x1="589.8238" y1="321.5" x2="370.0468" y2="321.5"/><polygon class="cls-15" points="588.365 316.514 597 321.5 588.365 326.486 588.365 316.514"/><path class="cls-1" d="M370.26,317.74a3.76,3.76,0,1,0,3.76,3.76A3.76,3.76,0,0,0,370.26,317.74Z"/><path class="cls-15" d="M370.26,317.24A4.26,4.26,0,1,1,366,321.5a4.2649,4.2649,0,0,1,4.26-4.26Zm0,7.52A3.26,3.26,0,1,0,367,321.5a3.2629,3.2629,0,0,0,3.26,3.26Z"/><polyline class="cls-19" points="589.824 245 556 245 556 347"/><polygon class="cls-20" points="588.365 240.014 597 245 588.365 249.986 588.365 240.014"/><path class="cls-21" d="M858.2056,388.7083c11.25,0,19.375,2.0834,22.0834,3.5417-2.7084,1.4583-10.2084,3.3333-22.0834,3.3333-11.6666,0-18.9583-2.0833-21.4583-3.3333C839.039,390.7917,846.539,388.7083,858.2056,388.7083Zm0-2.7083c-14.1666,0-24.7916,2.9167-24.7916,6.25s10.625,6.25,24.7916,6.25,25.2084-2.9167,25.2084-6.25S872.164,386,858.2056,386Zm-.3306,37.5c-9.375,0-25-1.4583-25-6.6667V411h2.0833v6.0417c0,1.0416,7.0023,4.1666,22.9167,4.1666,15.0656,0,22.9167-2.9166,22.9167-4.1666V411h2.0833v6.0417C882.875,422.0417,867.25,423.5,857.875,423.5Zm0,12.5c-9.375,0-25-1.4583-25-6.6667V423.5h2.0833v5.8333c0,1.0417,7.0023,4.1667,22.9167,4.1667,15.0656,0,22.9167-2.9167,22.9167-4.1667V423.5h2.0833v5.8333C882.875,434.5417,867.25,436,857.875,436Zm0-25c-9.1667,0-25-1.4583-25-6.6667V398.5h2.0833v5.8333c0,1.0417,7.0023,4.1667,22.9167,4.1667s22.9167-2.9167,22.9167-4.1667V398.5h2.0833v5.8333C882.875,409.5417,867.25,411,857.875,411Z"/><rect class="cls-1" x="667" y="387" width="60" height="48"/><path class="cls-22" d="M689.2113,422.3576a10.4167,10.4167,0,1,1,14.73,0l2.9458,2.9469a14.5833,14.5833,0,1,0-20.6218,0Z"/><path class="cls-22" d="M694.4931,429.75H698.66L696.5764,411Z"/><path class="cls-23" d="M665.5,386v50H728V386Zm60.4167,47.9167H667.5833v-37.5h58.3334Z"/><rect class="cls-1" x="668" y="165.5" width="70" height="45"/><path class="cls-18" d="M665.5,153v60h75V153ZM738,210.5H668v-45h70Z"/><rect class="cls-1" x="410" y="410" width="24" height="20"/><path class="cls-24" d="M426.0625,418.6091l3.5773,3.5775,1.1787-1.1788-4.756-4.7558-8.3333,8.3333-3.5773-3.5775-1.1788,1.1788,4.7561,4.7558Z"/><path class="cls-24" d="M409.5,410v20h25V410Zm24.1667,19.1667H410.3333v-15h23.3334Z"/><rect class="cls-1" x="409" y="306" width="24" height="20"/><path class="cls-25" d="M414.0894,322.4227l4.7558-4.756-4.7558-4.7561-1.1788,1.1788,3.5775,3.5773-3.5775,3.5773Z"/><path class="cls-25" d="M408.5,306v20h25V306Zm24.1667,19.1667H409.3333v-15h23.3334Z"/><path class="cls-20" d="M112.908,424.922A10.6825,10.6825,0,1,0,102.2255,414.24,10.6816,10.6816,0,0,0,112.908,424.922Zm0-19.2285a8.546,8.546,0,1,1-8.546,8.546A8.556,8.556,0,0,1,112.908,405.6935ZM136.41,414.24A10.6825,10.6825,0,1,0,147.092,403.557,10.6816,10.6816,0,0,0,136.41,414.24Zm10.6825-8.546a8.546,8.546,0,1,1-8.546,8.546A8.556,8.556,0,0,1,147.092,405.6935Zm-6.41-14.9555A10.6825,10.6825,0,1,0,130,401.4205,10.6816,10.6816,0,0,0,140.6825,390.738ZM130,399.284a8.546,8.546,0,1,1,8.546-8.546A8.556,8.556,0,0,1,130,399.284Zm-8.546,30.0891H104.362a4.273,4.273,0,0,0-4.273,4.273v6.41h25.638v-6.41A4.273,4.273,0,0,0,121.454,429.3731Zm34.184,0H138.546a4.273,4.273,0,0,0-4.273,4.273v6.41h25.638v-6.41A4.273,4.273,0,0,0,155.638,429.3731Z"/><path class="cls-15" d="M112.908,312.922A10.6825,10.6825,0,1,0,102.2255,302.24,10.6816,10.6816,0,0,0,112.908,312.922Zm0-19.2285a8.546,8.546,0,1,1-8.546,8.546A8.556,8.556,0,0,1,112.908,293.6935ZM136.41,302.24A10.6825,10.6825,0,1,0,147.092,291.557,10.6816,10.6816,0,0,0,136.41,302.24Zm10.6825-8.546a8.546,8.546,0,1,1-8.546,8.546A8.556,8.556,0,0,1,147.092,293.6935Zm-6.41-14.9555A10.6825,10.6825,0,1,0,130,289.4205,10.6816,10.6816,0,0,0,140.6825,278.738ZM130,287.284a8.546,8.546,0,1,1,8.546-8.546A8.556,8.556,0,0,1,130,287.284Zm-8.546,30.0891H104.362a4.273,4.273,0,0,0-4.273,4.273v6.41h25.638v-6.41A4.273,4.273,0,0,0,121.454,317.3731Zm34.184,0H138.546a4.273,4.273,0,0,0-4.273,4.273v6.41h25.638v-6.41A4.273,4.273,0,0,0,155.638,317.3731Z"/><path class="cls-18" d="M130.2383,191.0926A20.0185,20.0185,0,1,0,110.22,171.0741,20.0169,20.0169,0,0,0,130.2383,191.0926Zm0-38.0352a18.0167,18.0167,0,1,1-18.0167,18.0167A18.0368,18.0368,0,0,1,130.2383,153.0574Zm15.7765,41.9833h-32.03a8.0074,8.0074,0,0,0-8.0074,8.0074v8.0075h48.0444v-8.0075A8.0074,8.0074,0,0,0,146.0148,195.0407Z"/><path class="cls-18" d="M140.662,166.4843l-2.8307-2.8316-10.5958,10.5958-4.59-4.59-2.8306,2.8316,7.4208,7.4209Z"/><path class="cls-26" d="M412.1444,148.8306a8.6846,8.6846,0,1,0,7.8376,12.4065h4.5688l.62-1.2407.62.62.62.62h11.7861l3.722-3.7219-3.722-3.722H419.982a8.6769,8.6769,0,0,0-7.8376-4.9626"/><path class="cls-15" d="M438.6137,153.3355l-18.1134,0a9.3117,9.3117,0,1,0,0,8.7726l3.4923,0,1.4621-1.4621,1.4621,1.4621h11.697L443,157.7219Zm-.4283,7.7388-10.84,0-1.1594-1.16-.7311-.731-.731.731-1.1593,1.1593-3.0639,0h-.62l-.2921.5469a8.2752,8.2752,0,1,1,0-7.798l.2921.5461h.62l17.685,0,3.3526,3.3526Z"/><circle class="cls-15" cx="409.2826" cy="157.7051" r="2.0677"/><rect class="cls-15" x="428.2898" y="157.1881" width="8.7726" height="1.0339"/><path class="cls-27" d="M707.8281,183.6406A1.696,1.696,0,0,0,706.8906,185l2.5781,1.5L703,190.3437l-6.4687-3.8906,2.4375-1.4062a1.6721,1.6721,0,0,0-.8907-1.3125L693.1562,186.5v10.875L703,203l9.8438-5.8594V186.4531Zm-5.7656,17.0625-7.0313-4.3594v-8.9062l7.0313,4.3594Zm8.9063-4.6406-7.0313,4.5v-8.9063l7.0313-4.3593Z"/><path class="cls-27" d="M707.1285,183.2187l-1.7813-.9843a2.8452,2.8452,0,0,1-.6093,1.5l1.5.8906A2.0634,2.0634,0,0,1,707.1285,183.2187Z"/><path class="cls-27" d="M701.125,182v.0938a1.6048,1.6048,0,0,0,.6094,1.3125l1.1718-.6563.9844.5625a1.5538,1.5538,0,0,0,.5156-1.2187.7992.7992,0,0,0-.0468-.3282l-1.4063-.7969Zm-1.3559,2.625,1.4531-.8438a2.542,2.542,0,0,1-.7031-1.3593l-1.5469.8906A2.6951,2.6951,0,0,1,699.7691,184.625Z"/><circle class="cls-28" cx="702.9097" cy="189.5469" r="1.6406"/><circle class="cls-29" cx="702.9097" cy="174.6406" r="1.6406"/><circle class="cls-29" cx="708.5816" cy="185.1406" r="1.6406"/><circle class="cls-29" cx="697.3785" cy="185.1406" r="1.6406"/><circle class="cls-28" cx="708.5816" cy="177.6875" r="1.6406"/><circle class="cls-28" cx="697.5191" cy="177.875" r="1.6406"/><path class="cls-30" d="M710.2656,185.1406A1.55,1.55,0,0,0,708.625,183.5v3.2344A1.5641,1.5641,0,0,0,710.2656,185.1406Z"/><path class="cls-30" d="M706.9844,185.1406a1.55,1.55,0,0,0,1.6406,1.6406v-3.2343A1.62,1.62,0,0,0,706.9844,185.1406Z"/><path class="cls-29" d="M702.91,180.4531a1.63,1.63,0,0,0-1.6406,1.6406,1.6407,1.6407,0,1,0,1.6406-1.6406Z"/></g><g id="Text"><path d="M631.8818,334.375l-.6709-2.1348h-2.9746l-.66,2.1348h-1.6074l2.8066-8.3828h1.9668l2.7832,8.3828Zm-2.1347-6.9316h-.06l-1.0684,3.4414h2.2071Z"/><path d="M634.6689,328.1152h1.5352v1.0313h.0479a1.7343,1.7343,0,0,1,1.7265-1.1758c1.584,0,2.459,1.1758,2.459,3.2627,0,2.0986-.875,3.2861-2.459,3.2861a1.77,1.77,0,0,1-1.7265-1.1875h-.0479v3.4424h-1.5352Zm4.1612,3.67v-1.08a1.3413,1.3413,0,0,0-1.3428-1.4746c-.7314,0-1.2832.3955-1.2832,1.0078v1.99c0,.6485.5518,1.0195,1.2832,1.0195A1.3313,1.3313,0,0,0,638.83,331.7852Z"/><path d="M641.8691,328.1152h1.5352v1.0313h.0469a1.7356,1.7356,0,0,1,1.7275-1.1758c1.583,0,2.458,1.1758,2.458,3.2627,0,2.0986-.875,3.2861-2.458,3.2861a1.771,1.771,0,0,1-1.7275-1.1875h-.0469v3.4424h-1.5352Zm4.1612,3.67v-1.08a1.3418,1.3418,0,0,0-1.3428-1.4746c-.7324,0-1.2832.3955-1.2832,1.0078v1.99c0,.6485.5508,1.0195,1.2832,1.0195A1.3318,1.3318,0,0,0,646.03,331.7852Z"/><path d="M651.4805,331.2334c0-2.0029,1.1152-3.2627,2.9023-3.2627,1.7988,0,2.9141,1.26,2.9141,3.2627,0,2.0146-1.1153,3.2861-2.9141,3.2861C652.5957,334.52,651.4805,333.248,651.4805,331.2334Zm4.209.5869v-1.1621c0-.9355-.503-1.4512-1.3067-1.4512-.791,0-1.2949.5157-1.2949,1.4512V331.82c0,.9483.5039,1.4639,1.2949,1.4639C655.1865,333.2842,655.69,332.7686,655.69,331.82Z"/><path d="M658.6562,334.375v-6.26h1.5352v1.295h.06a1.6047,1.6047,0,0,1,1.6552-1.295h.336v1.4512h-.4805c-1.0312,0-1.57.2871-1.57.9707v3.8379Z"/><path d="M665.6641,333.3682l.9355-.9112a2.202,2.202,0,0,0,1.7149.8516c.7324,0,1.0439-.2764,1.0439-.7207,0-.3594-.2158-.5869-.7676-.6592l-.624-.084c-1.3438-.1679-2.0869-.7549-2.0869-1.8955,0-1.2109.9482-1.9785,2.375-1.9785a2.9824,2.9824,0,0,1,2.4463.9844l-.8994.8984a2.0713,2.0713,0,0,0-1.4991-.6719c-.66,0-.9472.2647-.9472.6485,0,.42.2275.6113.8154.707l.6357.084c1.3672.1924,2.0274.8047,2.0274,1.8477,0,1.2109-1.0195,2.0507-2.5791,2.0507A3.179,3.179,0,0,1,665.6641,333.3682Z"/><path d="M671.7725,331.2334c0-1.98,1.0673-3.2627,2.9023-3.2627,1.9551,0,2.8545,1.4395,2.8545,3.1543v.5039h-4.1621v.1563a1.39,1.39,0,0,0,1.5234,1.5107,1.9023,1.9023,0,0,0,1.5957-.8516l.8272.9239a3.0969,3.0969,0,0,1-2.5908,1.1513C672.876,334.52,671.7725,333.2363,671.7725,331.2334Zm1.5947-.6475v.0957h2.5664v-.1074c0-.8642-.4434-1.4512-1.2344-1.4512A1.3294,1.3294,0,0,0,673.3672,330.5859Z"/><path d="M678.8887,334.375v-6.26h1.5351v1.295h.0586a1.606,1.606,0,0,1,1.6563-1.295h.3359v1.4512h-.4805c-1.0312,0-1.57.2871-1.57.9707v3.8379Z"/><path d="M685.043,334.375l-2.086-6.26h1.5108l.876,2.6983.6113,2.2314h.084l.6113-2.2314.8516-2.6983h1.4628l-2.0986,6.26Z"/><path d="M689.8555,326.4355v-.24c0-.4429.2636-.7671.9-.7671.623,0,.8984.3242.8984.7671v.24c0,.4434-.2754.7676-.8984.7676C690.1191,327.2031,689.8555,326.8789,689.8555,326.4355Zm.1328,1.68h1.5351v6.26h-1.5351Z"/><path d="M692.88,331.2334c0-2.0029,1.0439-3.2627,2.8906-3.2627a2.4187,2.4187,0,0,1,2.458,1.584l-1.2588.5625a1.1679,1.1679,0,0,0-1.1992-.91c-.8516,0-1.2842.6-1.2842,1.4746V331.82c0,.876.4326,1.4639,1.2842,1.4639a1.34,1.34,0,0,0,1.3193-.9834l1.1748.5635a2.4453,2.4453,0,0,1-2.4941,1.6552C693.9238,334.52,692.88,333.248,692.88,331.2334Z"/><path d="M698.9756,331.2334c0-1.98,1.0674-3.2627,2.9023-3.2627,1.9551,0,2.8545,1.4395,2.8545,3.1543v.5039H700.57v.1563a1.39,1.39,0,0,0,1.5235,1.5107,1.9026,1.9026,0,0,0,1.5957-.8516l.8271.9239a3.0969,3.0969,0,0,1-2.5908,1.1513C700.0791,334.52,698.9756,333.2363,698.9756,331.2334Zm1.5947-.6475v.0957h2.5664v-.1074c0-.8642-.4433-1.4512-1.2344-1.4512A1.3294,1.3294,0,0,0,700.57,330.5859Z"/><path d="M767.7539,193.8315l-1.09,1.21v2.5635H765.74v-7.6792h.9239v4.0815h.0332l1.1006-1.331,2.3212-2.75h1.1329l-2.86,3.29,3.0586,4.39h-1.1436Z"/><path d="M771.9336,194.7666c0-1.8042,1.0117-2.9707,2.5518-2.9707a2.4864,2.4864,0,0,1,2.4541,2.7725v.4184h-4.0821v.2637a1.6077,1.6077,0,0,0,1.6836,1.7163,1.6443,1.6443,0,0,0,1.5615-.979l.628.4512a2.3832,2.3832,0,0,1-2.2451,1.2978C772.9453,197.7368,771.9336,196.5708,771.9336,194.7666Zm.9238-.5171v.0772h3.1348v-.1211a1.5094,1.5094,0,0,0-1.5068-1.6724A1.6134,1.6134,0,0,0,772.8574,194.25Z"/><path d="M781.834,191.9282h.8691l-2.541,6.9971c-.2539.6821-.4844.88-1.32.88h-.4512v-.77h.8906l.43-1.21-2.123-5.897h.88l1.3642,3.8614.2637.9243h.0547l.3086-.9243Z"/><path d="M786.5078,197.605v-7.6792h3.0586a2.2011,2.2011,0,0,1,0,4.4009h-2.1338v3.2783Zm.9248-4.0928h2.1338a1.0292,1.0292,0,0,0,1.1563-1.1V191.84a1.0292,1.0292,0,0,0-1.1563-1.1h-2.1338Z"/><path d="M792.9766,197.605v-5.6768h.88v1.0449h.0547a1.632,1.632,0,0,1,1.64-1.0449h.3408v.88h-.5166c-.9473,0-1.5186.4072-1.5186.9463v3.8506Z"/><path d="M796.54,194.7666c0-1.8042,1.045-2.9707,2.5635-2.9707s2.5635,1.1665,2.5635,2.9707-1.0459,2.97-2.5635,2.97S796.54,196.5708,796.54,194.7666Zm4.1807.4072v-.8144a1.6248,1.6248,0,1,0-3.2344,0v.8144a1.6248,1.6248,0,1,0,3.2344,0Z"/><path d="M804.373,197.605a.8669.8669,0,0,1-.9355-.9351v-3.9717h-.9355v-.77h.5283c.374,0,.4951-.1323.4951-.5171V190.355h.792v1.5732h1.2431v.77h-1.2431v4.1368h1.1553v.77Z"/><path d="M806.5176,194.7666c0-1.8042,1.0117-2.9707,2.5517-2.9707a2.4863,2.4863,0,0,1,2.4541,2.7725v.4184h-4.082v.2637a1.6077,1.6077,0,0,0,1.6836,1.7163,1.6445,1.6445,0,0,0,1.5615-.979l.628.4512a2.3832,2.3832,0,0,1-2.2452,1.2978C807.5293,197.7368,806.5176,196.5708,806.5176,194.7666Zm.9238-.5171v.0772h3.1348v-.1211a1.5094,1.5094,0,0,0-1.5069-1.6724A1.6134,1.6134,0,0,0,807.4414,194.25Z"/><path d="M812.5566,194.7666c0-1.8154.9346-2.9707,2.5293-2.9707a2.128,2.128,0,0,1,2.1241,1.3315l-.7373.3741a1.3684,1.3684,0,0,0-1.3868-.9244,1.5245,1.5245,0,0,0-1.5839,1.7056v.9678a1.5245,1.5245,0,0,0,1.5839,1.7056,1.6037,1.6037,0,0,0,1.5411-.99l.6376.4292a2.238,2.238,0,0,1-2.1787,1.3418C813.4912,197.7368,812.5566,196.582,812.5566,194.7666Z"/><path d="M819.7617,197.605a.8668.8668,0,0,1-.9355-.9351v-3.9717h-.9356v-.77h.5283c.3741,0,.4952-.1323.4952-.5171V190.355h.792v1.5732h1.2431v.77h-1.2431v4.1368h1.1552v.77Z"/><path d="M825.9209,189.9258v4.7529c0,1.4629.4736,2.2334,1.8369,2.2334,1.3652,0,1.8379-.77,1.8379-2.2334v-4.7529h.9238v4.5327c0,2.2334-.748,3.2783-2.7939,3.2783s-2.7285-1.0449-2.7285-3.2783v-4.5327Z"/><path d="M832.1465,197.605v-.77h1.0781v-6.1392h-1.0781v-.77h3.081v.77h-1.0781v6.1392h1.0781v.77Z"/><path d="M765.2344,207.9668c0-1.8042,1.0449-2.9707,2.5635-2.9707s2.5634,1.1665,2.5634,2.9707-1.0449,2.97-2.5634,2.97S765.2344,209.771,765.2344,207.9668Zm4.1806.4072V207.56a1.6248,1.6248,0,1,0-3.2343,0v.8144a1.6248,1.6248,0,1,0,3.2343,0Z"/><path d="M771.8125,210.8052v-5.6768h.8809v1.0449h.0546a1.63,1.63,0,0,1,1.6387-1.0449h.3418v.88h-.5176c-.9463,0-1.5175.4072-1.5175.9463v3.8506Z"/><path d="M779.457,210.8052h-.9238V203.126h3.0586a2.1956,2.1956,0,0,1,.6055,4.2905l1.76,3.3887h-1.0449l-1.6611-3.3h-1.794Zm2.1348-4.0928a1.0285,1.0285,0,0,0,1.1553-1.1v-.5718a1.0285,1.0285,0,0,0-1.1553-1.1H779.457v2.772Z"/><path d="M785.5723,210.8052V203.126H790.26v.8144h-3.7627v2.398h3.542v.8144h-3.542v2.8384H790.26v.814Z"/><path d="M791.4248,209.5952l.6826-.5723a2.4456,2.4456,0,0,0,2.0684,1.1c1.1,0,1.6933-.5722,1.6933-1.4521,0-.7261-.4062-1.0894-1.4189-1.32l-.627-.1431c-1.3974-.3188-2.167-.935-2.167-2.1123,0-1.3642,1.0333-2.1011,2.5411-2.1011a2.89,2.89,0,0,1,2.541,1.2539l-.6934.5064a2.1651,2.1651,0,0,0-1.8916-.9463c-.9795,0-1.584.4292-1.584,1.2544,0,.7261.4727,1.0562,1.4405,1.2759l.6269.143c1.4971.3414,2.1465,1.0015,2.1465,2.1456,0,1.4082-.99,2.31-2.6406,2.31A3.1815,3.1815,0,0,1,791.4248,209.5952Z"/><path d="M800.8193,203.94v6.8648h-.9238V203.94h-2.4424v-.8144h5.8086v.8144Z"/><path d="M811.93,210.8052l-.77-2.2661h-3.1026l-.7695,2.2661h-.9355l2.6845-7.6792h1.1768l2.6846,7.6792Zm-2.2988-6.8208h-.0557l-1.2979,3.74h2.65Z"/><path d="M814.1729,210.8052V203.126h3.0585a2.2012,2.2012,0,0,1,0,4.4009h-2.1337v3.2783Zm.9248-4.0928h2.1337a1.0289,1.0289,0,0,0,1.1553-1.1v-.5718a1.0289,1.0289,0,0,0-1.1553-1.1h-2.1337Z"/><path d="M820.4756,210.8052v-.77h1.0781V203.896h-1.0781v-.77h3.081v.77h-1.0781v6.1392h1.0781v.77Z"/><path d="M629.3994,103.5854l-1.1162,1.3194v2.4707h-1.582V99.0039h1.582v4.126h.0606l1.1874-1.5713,2.0743-2.5547H633.43l-2.9151,3.49,3.1543,4.8814h-1.8828Z"/><path d="M634.0215,104.2334c0-1.979,1.0664-3.2622,2.9023-3.2622,1.9551,0,2.8535,1.439,2.8535,3.1543v.5034h-4.1611v.1563a1.39,1.39,0,0,0,1.5225,1.5107,1.9013,1.9013,0,0,0,1.5957-.8516l.8281.9239a3.1,3.1,0,0,1-2.5918,1.1513C635.125,107.52,634.0215,106.2363,634.0215,104.2334Zm1.5947-.648v.0962h2.5664v-.1079c0-.8637-.4443-1.4511-1.2353-1.4511A1.3287,1.3287,0,0,0,635.6162,103.5854Z"/><path d="M644.9023,101.1147h1.44l-2.5186,7.376a1.6171,1.6171,0,0,1-1.7871,1.2837h-.9228v-1.2236H642.24l.2871-.8755-2.2421-6.5606h1.5234l1.0918,3.3106.4072,1.583h.0713l.4316-1.583Z"/><path d="M650.28,107.3755V99.0039h3.7666a2.593,2.593,0,0,1,0,5.1812h-2.1836v3.19Zm1.583-4.5576h2.039a.8808.8808,0,0,0,.9834-.9473v-.5518a.8723.8723,0,0,0-.9834-.9355h-2.039Z"/><path d="M657.7568,107.3755v-6.2608h1.5352V102.41h.06a1.6062,1.6062,0,0,1,1.6552-1.2955h.336v1.4512h-.48c-1.0313,0-1.5713.2881-1.5713.9717v3.8379Z"/><path d="M661.9922,104.2334c0-2.0029,1.1152-3.2622,2.9023-3.2622,1.7989,0,2.9151,1.2593,2.9151,3.2622,0,2.0146-1.1162,3.2861-2.9151,3.2861C663.1074,107.52,661.9922,106.248,661.9922,104.2334Zm4.21.5874v-1.1631c0-.9355-.5029-1.4512-1.3076-1.4512-.791,0-1.2949.5157-1.2949,1.4512v1.1631c0,.9478.5039,1.4634,1.2949,1.4634C665.6992,106.2842,666.2021,105.7686,666.2021,104.8208Z"/><path d="M671.0752,107.3755a1.4487,1.4487,0,0,1-1.6191-1.5952v-3.4541h-.9229v-1.2115h.48c.4561,0,.6-.2158.6-.6474V99.4h1.3789v1.7148h1.2842v1.2115h-1.2842v3.8261h1.1875v1.2232Z"/><path d="M673.1406,104.2334c0-1.979,1.0674-3.2622,2.9024-3.2622,1.955,0,2.8545,1.439,2.8545,3.1543v.5034h-4.1612v.1563a1.39,1.39,0,0,0,1.5225,1.5107,1.8981,1.8981,0,0,0,1.5947-.8516l.8281.9239a3.0994,3.0994,0,0,1-2.5908,1.1513C674.2441,107.52,673.1406,106.2363,673.1406,104.2334Zm1.5957-.648v.0962h2.5664v-.1079c0-.8637-.4443-1.4511-1.2363-1.4511A1.3285,1.3285,0,0,0,674.7363,103.5854Z"/><path d="M679.8359,104.2334c0-2.0029,1.044-3.2622,2.8907-3.2622a2.42,2.42,0,0,1,2.4589,1.583l-1.26.5635a1.168,1.168,0,0,0-1.1992-.9112c-.8516,0-1.2832.6-1.2832,1.4751v1.1392c0,.8755.4316,1.4634,1.2832,1.4634a1.3381,1.3381,0,0,0,1.3193-.9834l1.1758.5635a2.4473,2.4473,0,0,1-2.4951,1.6552C680.88,107.52,679.8359,106.248,679.8359,104.2334Z"/><path d="M688.3672,107.3755a1.4488,1.4488,0,0,1-1.6192-1.5952v-3.4541h-.9238v-1.2115h.4805c.4551,0,.6-.2158.6-.6474V99.4h1.3789v1.7148h1.2832v1.2115h-1.2832v3.8261h1.1875v1.2232Z"/><path d="M428.6094,440.93h-.0547l-.6494,1.2871-1.8369,3.3447-1.8272-3.3447-.6484-1.2764h-.0557v6.458h-.9014V439.72h1.21l2.2,4.1358h.0439l2.211-4.1358h1.2109v7.6787h-.9023Z"/><path d="M431.05,444.56c0-1.8037,1.0459-2.97,2.5635-2.97s2.5635,1.1661,2.5635,2.97-1.045,2.9707-2.5635,2.9707S431.05,446.3643,431.05,444.56Zm4.1807.4072v-.8135a1.6248,1.6248,0,1,0-3.2344,0v.8135a1.6248,1.6248,0,1,0,3.2344,0Z"/><path d="M437.6289,447.3984v-5.6767h.88v.9238h.0439a1.61,1.61,0,0,1,1.6065-1.0557c1.166,0,1.9033.792,1.9033,2.167v3.6416h-.8809v-3.4873c0-1.0127-.4394-1.5293-1.2871-1.5293-.7041,0-1.3857.3516-1.3857,1.0782v3.9384Z"/><path d="M443.7773,439.8955v-.1435c0-.2969.1651-.4952.5391-.4952s.5391.1983.5391.4952v.1435c0,.2969-.1651.4951-.5391.4951S443.7773,440.1924,443.7773,439.8955Zm.1,1.8262h.88v5.6767h-.88Z"/><path d="M447.8809,447.3984a.8667.8667,0,0,1-.9356-.9355v-3.9707h-.9346v-.7705h.5274c.374,0,.4951-.1319.4951-.5176v-1.0557h.793v1.5733h1.2431v.7705h-1.2431v4.1357h1.1543v.77Z"/><path d="M450.0244,444.56c0-1.8037,1.0459-2.97,2.5635-2.97s2.5635,1.1661,2.5635,2.97-1.045,2.9707-2.5635,2.9707S450.0244,446.3643,450.0244,444.56Zm4.1807.4072v-.8135a1.6248,1.6248,0,1,0-3.2344,0v.8135a1.6248,1.6248,0,1,0,3.2344,0Z"/><path d="M456.6035,447.3984v-5.6767h.88v1.0449h.0547a1.6308,1.6308,0,0,1,1.64-1.0449h.3409v.88h-.5176c-.9453,0-1.5176.4072-1.5176.9463v3.85Z"/><path d="M467.3613,447.3984a.9165.9165,0,0,1-.9785-.9238h-.0557a1.6031,1.6031,0,0,1-1.6386,1.0557,1.6742,1.6742,0,0,1-1.9033-1.7158c0-1.0674.77-1.6612,2.42-1.6612h1.122v-.5615c0-.8027-.4394-1.2432-1.3417-1.2432a1.5834,1.5834,0,0,0-1.4415.8477l-.5283-.4951a2.1581,2.1581,0,0,1,2.0137-1.1114c1.3643,0,2.1777.7149,2.1777,1.9141v3.124h.6494v.77Zm-1.0342-1.65v-.9345h-1.166c-1.0009,0-1.4521.3076-1.4521.8574v.2314c0,.5606.44.88,1.1221.88C465.7,446.7822,466.3271,446.3311,466.3271,445.748Z"/><path d="M468.6914,444.56c0-1.8145.9356-2.97,2.5313-2.97a2.1271,2.1271,0,0,1,2.123,1.3311l-.7373.374a1.3675,1.3675,0,0,0-1.3857-.9238,1.5243,1.5243,0,0,0-1.585,1.7051v.9677a1.5243,1.5243,0,0,0,1.585,1.7051,1.6025,1.6025,0,0,0,1.54-.99l.6377.43a2.2383,2.2383,0,0,1-2.1777,1.3418C469.627,447.53,468.6914,446.375,468.6914,444.56Z"/><path d="M475.8975,447.3984a.8667.8667,0,0,1-.9356-.9355v-3.9707h-.9346v-.7705h.5274c.374,0,.4951-.1319.4951-.5176v-1.0557h.793v1.5733h1.2431v.7705h-1.2431v4.1357h1.1543v.77Z"/><path d="M478.4043,439.8955v-.1435c0-.2969.165-.4952.5391-.4952s.539.1983.539.4952v.1435c0,.2969-.165.4951-.539.4951S478.4043,440.1924,478.4043,439.8955Zm.1,1.8262h.88v5.6767h-.88Z"/><path d="M482.5078,447.3984l-1.9912-5.6767h.88l.99,2.8164.6162,1.9365h.0547l.6162-1.9365,1.0117-2.8164h.8477l-2.002,5.6767Z"/><path d="M486.5664,439.8955v-.1435c0-.2969.165-.4952.5391-.4952s.539.1983.539.4952v.1435c0,.2969-.165.4951-.539.4951S486.5664,440.1924,486.5664,439.8955Zm.1,1.8262h.88v5.6767h-.88Z"/><path d="M490.67,447.3984a.8667.8667,0,0,1-.9355-.9355v-3.9707H488.8v-.7705h.5273c.3741,0,.4952-.1319.4952-.5176v-1.0557h.7929v1.5733h1.2432v.7705h-1.2432v4.1357H491.77v.77Z"/><path d="M496.7754,441.7217h.8691l-2.541,6.9971c-.2529.6816-.4844.88-1.32.88h-.4512v-.7695h.8907l.43-1.2109-2.123-5.8965h.88l1.3642,3.8613.2637.9238h.0547l.3086-.9238Z"/><path d="M422.6357,335.72H425.21c1.914,0,3.1464,1.2754,3.1464,3.8389s-1.2324,3.84-3.1464,3.84h-2.5743Zm2.5743,6.8643a2.1346,2.1346,0,0,0,2.1562-2.3985v-1.2539a2.1345,2.1345,0,0,0-2.1562-2.3984h-1.65v6.0508Z"/><path d="M429.51,340.56c0-1.8037,1.0127-2.97,2.5527-2.97a2.4854,2.4854,0,0,1,2.4531,2.7725v.418h-4.081v.2636a1.6078,1.6078,0,0,0,1.6826,1.7168,1.6452,1.6452,0,0,0,1.5625-.9795l.6269.4512a2.3812,2.3812,0,0,1-2.2441,1.2979C430.5225,343.53,429.51,342.3643,429.51,340.56Zm.9248-.5166v.0771H433.57v-.1211a1.51,1.51,0,0,0-1.5078-1.6719A1.613,1.613,0,0,0,430.4346,340.043Z"/><path d="M435.9678,337.7217h.88v.9238h.0439a1.6579,1.6579,0,0,1,1.6611-1.0557c1.419,0,2.3106,1.1553,2.3106,2.97s-.8916,2.9707-2.3106,2.9707a1.7106,1.7106,0,0,1-1.6611-1.0557h-.0439v3.124h-.88Zm3.9492,3.3222v-.9677a1.5491,1.5491,0,0,0-1.6065-1.6944c-.8027,0-1.4628.462-1.4628,1.0889v2.1123c0,.7373.66,1.1553,1.4628,1.1553A1.5491,1.5491,0,0,0,439.917,341.0439Z"/><path d="M443.2822,343.3984a.86.86,0,0,1-.9345-.913v-7.2286h.88v7.3711h.836v.77Z"/><path d="M444.9209,340.56c0-1.8037,1.0459-2.97,2.5635-2.97s2.5635,1.1661,2.5635,2.97-1.045,2.9707-2.5635,2.9707S444.9209,342.3643,444.9209,340.56Zm4.1807.4072v-.8135a1.6248,1.6248,0,1,0-3.2344,0v.8135a1.6248,1.6248,0,1,0,3.2344,0Z"/><path d="M454.9424,337.7217h.8691l-2.541,6.9971c-.2529.6816-.4844.88-1.32.88h-.4512v-.7695h.8906l.43-1.2109-2.123-5.8965h.88l1.3642,3.8613.2637.9238h.0547l.3086-.9238Z"/><path d="M459.5293,335.2568h.88v5.16h.0439l.8692-.9678,1.6064-1.7275h1.0664l-2.1006,2.2441,2.31,3.4326h-1.0664l-1.8818-2.8935-.8467.8691v2.0244h-.88Z"/><path d="M464.7207,340.56c0-1.8037,1.0127-2.97,2.5527-2.97a2.4854,2.4854,0,0,1,2.4532,2.7725v.418h-4.0811v.2636a1.6079,1.6079,0,0,0,1.6826,1.7168,1.6451,1.6451,0,0,0,1.5625-.9795l.627.4512a2.3814,2.3814,0,0,1-2.2442,1.2979C465.7334,343.53,464.7207,342.3643,464.7207,340.56Zm.9248-.5166v.0771h3.1357v-.1211a1.51,1.51,0,0,0-1.5078-1.6719A1.613,1.613,0,0,0,465.6455,340.043Z"/><path d="M474.6211,337.7217h.8691l-2.541,6.9971c-.2529.6816-.4844.88-1.32.88h-.4512v-.7695h.8907l.43-1.2109-2.123-5.8965h.88l1.3642,3.8613.2637.9238h.0547l.3086-.9238Z"/><path d="M476.0293,342.4189l.6269-.5058a2.06,2.06,0,0,0,1.6827.8691c.748,0,1.1884-.3408,1.1884-.9238,0-.44-.2421-.7813-.99-.8916l-.4512-.0654c-1.0449-.1543-1.8261-.583-1.8261-1.64,0-1.1221.8691-1.6719,2.0244-1.6719a2.3634,2.3634,0,0,1,1.98.9131l-.583.5283a1.7507,1.7507,0,0,0-1.4638-.6933c-.7256,0-1.11.3408-1.11.88,0,.55.3848.77,1.0889.88l.44.0664c1.2539.1865,1.7373.7373,1.7373,1.5947,0,1.1006-.8027,1.7715-2.1006,1.7715A2.6357,2.6357,0,0,1,476.0293,342.4189Z"/><path d="M422.25,177.6025c0-2.5634,1.1553-4.0156,3.0918-4.0156a2.7133,2.7133,0,0,1,2.6406,1.6836l-.748.4512a1.93,1.93,0,0,0-1.8926-1.31c-1.32,0-2.1016,1.0459-2.1016,2.6191v1.1436c0,1.5732.7813,2.53,2.1016,2.53a1.9918,1.9918,0,0,0,1.958-1.3858l.7373.4619a2.8264,2.8264,0,0,1-2.6953,1.7491C423.4053,181.53,422.25,180.166,422.25,177.6025Z"/><path d="M429.3789,181.3984v-5.6767h.88v1.0449h.0547a1.6308,1.6308,0,0,1,1.64-1.0449h.3408v.88h-.5175c-.9453,0-1.5176.4072-1.5176.9463v3.8505Z"/><path d="M432.9414,178.56c0-1.8037,1.0127-2.97,2.5527-2.97a2.4854,2.4854,0,0,1,2.4532,2.7725v.418h-4.0811v.2636a1.6079,1.6079,0,0,0,1.6826,1.7168,1.6451,1.6451,0,0,0,1.5625-.98l.627.4512a2.3814,2.3814,0,0,1-2.2442,1.2979C433.9541,181.53,432.9414,180.3643,432.9414,178.56Zm.9248-.5166v.0771h3.1358v-.1211a1.51,1.51,0,0,0-1.5079-1.6719A1.613,1.613,0,0,0,433.8662,178.043Z"/><path d="M443.5244,181.3984a.9165.9165,0,0,1-.9785-.9238H442.49a1.6032,1.6032,0,0,1-1.6386,1.0557,1.6743,1.6743,0,0,1-1.9034-1.7158c0-1.0674.77-1.6612,2.42-1.6612h1.122v-.5615c0-.8027-.4394-1.2432-1.3418-1.2432a1.5833,1.5833,0,0,0-1.4414.8477l-.5283-.4951a2.158,2.158,0,0,1,2.0137-1.1114c1.3642,0,2.1777.7149,2.1777,1.9141v3.124h.6494v.77Zm-1.0342-1.65v-.9345h-1.166c-1.001,0-1.4521.3076-1.4521.8574v.2314c0,.5606.44.88,1.122.88C441.8633,180.7822,442.49,180.3311,442.49,179.748Z"/><path d="M446.5273,181.3984a.8667.8667,0,0,1-.9355-.9355v-3.9707h-.9346v-.77h.5274c.374,0,.4951-.1319.4951-.5176v-1.0557h.793v1.5733h1.2431v.77h-1.2431v4.1357h1.1543v.77Z"/><path d="M448.6719,178.56c0-1.8037,1.0127-2.97,2.5527-2.97a2.4854,2.4854,0,0,1,2.4531,2.7725v.418h-4.081v.2636a1.6078,1.6078,0,0,0,1.6826,1.7168,1.6452,1.6452,0,0,0,1.5625-.98l.627.4512a2.3815,2.3815,0,0,1-2.2442,1.2979C449.6846,181.53,448.6719,180.3643,448.6719,178.56Zm.9248-.5166v.0771h3.1357v-.1211a1.51,1.51,0,0,0-1.5078-1.6719A1.613,1.613,0,0,0,449.5967,178.043Z"/><path d="M457.7256,173.2568h.88v5.16h.0439l.8692-.9678,1.6064-1.7275h1.0664l-2.1006,2.2441,2.31,3.4326H461.334l-1.8819-2.8935-.8466.8691v2.0244h-.88Z"/><path d="M462.916,178.56c0-1.8037,1.0127-2.97,2.5528-2.97a2.4854,2.4854,0,0,1,2.4531,2.7725v.418h-4.0811v.2636a1.6079,1.6079,0,0,0,1.6826,1.7168,1.645,1.645,0,0,0,1.5625-.98l.627.4512a2.3813,2.3813,0,0,1-2.2441,1.2979C463.9287,181.53,462.916,180.3643,462.916,178.56Zm.9248-.5166v.0771h3.1358v-.1211a1.51,1.51,0,0,0-1.5078-1.6719A1.613,1.613,0,0,0,463.8408,178.043Z"/><path d="M472.8174,175.7217h.8691l-2.541,6.9971c-.2529.6816-.4844.88-1.32.88h-.4512v-.7695h.8906l.43-1.2109-2.123-5.8965h.88l1.3642,3.8613.2637.9238h.0547l.3086-.9238Z"/><path d="M474.2256,180.4189l.6269-.5058a2.06,2.06,0,0,0,1.6827.8691c.748,0,1.1884-.3408,1.1884-.9238,0-.44-.2422-.7813-.99-.8916l-.4512-.0654c-1.0449-.1543-1.8261-.583-1.8261-1.64,0-1.1221.8691-1.6719,2.0244-1.6719a2.3634,2.3634,0,0,1,1.98.9131l-.583.5283a1.7507,1.7507,0,0,0-1.4638-.6933c-.7256,0-1.11.3408-1.11.88,0,.55.3848.77,1.0889.88l.44.0664c1.2539.1865,1.7373.7373,1.7373,1.5947,0,1.1006-.8027,1.7715-2.1006,1.7715A2.6356,2.6356,0,0,1,474.2256,180.4189Z"/><path d="M176.3022,410.9609H174.85v-7.68h3.4653a2.1628,2.1628,0,0,1,2.2661,2.377,2.1152,2.1152,0,0,1-1.43,2.1777l1.5732,3.125h-1.6172l-1.43-2.96h-1.375Zm1.87-4.1806a.8085.8085,0,0,0,.9023-.8692v-.5058a.8.8,0,0,0-.9023-.8584h-1.87V406.78Z"/><path d="M181.5156,408.0781c0-1.8154.979-2.9922,2.6621-2.9922,1.7935,0,2.6187,1.32,2.6187,2.8936v.4619h-3.8179v.1426a1.276,1.276,0,0,0,1.3975,1.3867,1.7435,1.7435,0,0,0,1.4629-.7812l.7592.8466a2.8416,2.8416,0,0,1-2.3764,1.0567C182.5278,411.0928,181.5156,409.916,181.5156,408.0781Zm1.4629-.5937v.0879h2.3545v-.0987c0-.7929-.4072-1.332-1.1333-1.332A1.22,1.22,0,0,0,182.9785,407.4844Z"/><path d="M187.6318,409.3984c0-1.1767.8911-1.76,2.4532-1.76h.979v-.419c0-.6377-.3189-1.0117-1.0669-1.0117a1.4939,1.4939,0,0,0-1.3091.7266l-.8364-.7491a2.42,2.42,0,0,1,2.2446-1.1c1.5513,0,2.376.7373,2.376,2.0459v2.7071h.5722v1.122h-.7812a1.0449,1.0449,0,0,1-1.0669-.99H191.13a1.5529,1.5529,0,0,1-1.6724,1.1221A1.6278,1.6278,0,0,1,187.6318,409.3984Zm3.4322-.1543v-.7587h-.9019c-.7373,0-1.1.2529-1.1.7041v.1865c0,.4629.3189.6933.8692.6933C190.5581,410.0693,191.064,409.7832,191.064,409.2441Z"/><path d="M197.752,410.0039h-.0547a1.6136,1.6136,0,0,1-1.5845,1.0889c-1.4409,0-2.2441-1.0889-2.2441-3.0147,0-1.914.8032-2.9922,2.2441-2.9922a1.5814,1.5814,0,0,1,1.5845,1.0782h.0547v-3.3448H199.16v8.1416H197.752Zm0-1.0127V407.165c0-.5605-.5171-.9238-1.188-.9238a1.2228,1.2228,0,0,0-1.2212,1.3526v.99a1.214,1.214,0,0,0,1.2212,1.3428C197.2349,409.9268,197.752,409.5859,197.752,408.9912Z"/><path d="M200.4028,408.0781c0-1.8154.979-2.9922,2.6621-2.9922,1.7935,0,2.6187,1.32,2.6187,2.8936v.4619h-3.8179v.1426a1.276,1.276,0,0,0,1.3975,1.3867,1.7456,1.7456,0,0,0,1.4634-.7812l.7588.8466a2.8419,2.8419,0,0,1-2.3765,1.0567C201.415,411.0928,200.4028,409.916,200.4028,408.0781Zm1.4629-.5937v.0879H204.22v-.0987c0-.7929-.4072-1.332-1.1333-1.332A1.22,1.22,0,0,0,201.8657,407.4844Z"/><path d="M206.9253,410.9609v-5.7431h1.4082v1.1884h.0552a1.4725,1.4725,0,0,1,1.518-1.1884h.3081v1.331h-.44c-.9463,0-1.4414.2647-1.4414.8916v3.52Z"/><path d="M210.7529,410.0361l.8584-.8359a2.0167,2.0167,0,0,0,1.5733.7812c.6709,0,.957-.2529.957-.66,0-.33-.1982-.5391-.7041-.6045l-.5723-.0772c-1.2319-.1542-1.914-.6933-1.914-1.7382,0-1.1114.8691-1.8155,2.1782-1.8155a2.7379,2.7379,0,0,1,2.2446.9024l-.8252.8252a1.8953,1.8953,0,0,0-1.3755-.6162c-.6049,0-.8691.2422-.8691.5937,0,.3848.209.5615.748.6494l.5835.0772c1.2539.1758,1.8589.7363,1.8589,1.6943,0,1.11-.935,1.8809-2.3652,1.8809A2.9168,2.9168,0,0,1,210.7529,410.0361Z"/><path d="M219.355,403.458v-.1435c0-.2969.165-.4952.539-.4952s.5391.1983.5391.4952v.1435c0,.2969-.165.4951-.5391.4951S219.355,403.7549,219.355,403.458Zm.0991,1.8262h.88v5.6767h-.88Z"/><path d="M222.2041,410.9609v-5.6767h.88v.9238h.0439a1.61,1.61,0,0,1,1.606-1.0566c1.1665,0,1.9033.7929,1.9033,2.1679v3.6416h-.88v-3.4873c0-1.0127-.44-1.5293-1.2871-1.5293-.7041,0-1.3862.3516-1.3862,1.0782v3.9384Z"/><path d="M227.9131,409.9814l.6269-.5058a2.0622,2.0622,0,0,0,1.6836.8691c.7481,0,1.188-.3408,1.188-.9238,0-.44-.2422-.7813-.99-.8916l-.4512-.0664c-1.0449-.1533-1.8262-.583-1.8262-1.6387,0-1.1221.8692-1.6728,2.0245-1.6728a2.3648,2.3648,0,0,1,1.98.914l-.5835.5274a1.7513,1.7513,0,0,0-1.4629-.6924c-.726,0-1.1113.3408-1.1113.88,0,.55.3853.7695,1.0894.88l.44.0664c1.2544.1865,1.7383.7363,1.7383,1.5947,0,1.1006-.8032,1.7715-2.1016,1.7715A2.6387,2.6387,0,0,1,227.9131,409.9814Z"/><path d="M233.8091,405.2842h.88v.9238h.0439a1.6586,1.6586,0,0,1,1.6611-1.0566c1.4195,0,2.3106,1.1552,2.3106,2.9707s-.8911,2.9707-2.3106,2.9707a1.7114,1.7114,0,0,1-1.6611-1.0567H234.69v3.125h-.88Zm3.95,3.3222v-.9677a1.5491,1.5491,0,0,0-1.6065-1.6944c-.8027,0-1.4628.4619-1.4628,1.0889v2.1123c0,.7373.66,1.1553,1.4628,1.1553A1.55,1.55,0,0,0,237.7588,408.6064Z"/><path d="M239.771,408.1221c0-1.8037,1.0122-2.9707,2.5522-2.9707a2.4862,2.4862,0,0,1,2.4537,2.7724v.419h-4.0816v.2636a1.6073,1.6073,0,0,0,1.6831,1.7159,1.6446,1.6446,0,0,0,1.562-.9785l.6275.4511a2.3832,2.3832,0,0,1-2.2447,1.2979C240.7832,411.0928,239.771,409.9268,239.771,408.1221Zm.9243-.5166v.0771h3.1353v-.1211a1.51,1.51,0,0,0-1.5074-1.6728A1.6138,1.6138,0,0,0,240.6953,407.6055Z"/><path d="M245.81,408.1221c0-1.8155.935-2.9707,2.53-2.9707a2.1285,2.1285,0,0,1,2.1236,1.332l-.7373.374a1.3681,1.3681,0,0,0-1.3863-.9248,1.5249,1.5249,0,0,0-1.584,1.7061v.9677a1.5241,1.5241,0,0,0,1.584,1.7051,1.6022,1.6022,0,0,0,1.5406-.99l.6377.43a2.2386,2.2386,0,0,1-2.1783,1.3418C246.7451,411.0928,245.81,409.9375,245.81,408.1221Z"/><path d="M253.0151,410.9609a.867.867,0,0,1-.935-.9355v-3.9717h-.9356v-.7695h.5284c.374,0,.4951-.1328.4951-.5176v-1.0557h.792v1.5733h1.2431v.7695H252.96V410.19h1.1552v.77Z"/><path d="M261.7163,410.0361h-.0439a1.5781,1.5781,0,0,1-1.5953,1.0567c-1.166,0-1.914-.792-1.914-2.167v-3.6416h.88v3.4873c0,1.0117.4511,1.5293,1.2983,1.5293.6929,0,1.375-.3408,1.375-1.0889v-3.9277h.88v5.6767h-.88Z"/><path d="M263.9268,409.9814l.6269-.5058a2.0621,2.0621,0,0,0,1.6836.8691c.7481,0,1.188-.3408,1.188-.9238,0-.44-.2422-.7813-.99-.8916l-.4512-.0664c-1.0449-.1533-1.8262-.583-1.8262-1.6387,0-1.1221.8692-1.6728,2.0244-1.6728a2.3648,2.3648,0,0,1,1.9805.914l-.5835.5274a1.7513,1.7513,0,0,0-1.4629-.6924c-.7261,0-1.1113.3408-1.1113.88,0,.55.3852.7695,1.0893.88l.44.0664c1.2544.1865,1.7383.7363,1.7383,1.5947,0,1.1006-.8033,1.7715-2.1016,1.7715A2.6387,2.6387,0,0,1,263.9268,409.9814Z"/><path d="M269.4048,408.1221c0-1.8037,1.0122-2.9707,2.5522-2.9707a2.4862,2.4862,0,0,1,2.4536,2.7724v.419h-4.0815v.2636a1.6073,1.6073,0,0,0,1.6831,1.7159,1.6447,1.6447,0,0,0,1.562-.9785l.6275.4511a2.3832,2.3832,0,0,1-2.2447,1.2979C270.417,411.0928,269.4048,409.9268,269.4048,408.1221Zm.9243-.5166v.0771h3.1353v-.1211a1.51,1.51,0,0,0-1.5074-1.6728A1.6138,1.6138,0,0,0,270.3291,407.6055Z"/><path d="M278.04,408.1221c0-1.8037,1.0449-2.9707,2.5634-2.9707s2.5635,1.167,2.5635,2.9707-1.0454,2.9707-2.5635,2.9707S278.04,409.9268,278.04,408.1221Zm4.1806.4072v-.8145a1.6248,1.6248,0,1,0-3.2344,0v.8145a1.6248,1.6248,0,1,0,3.2344,0Z"/><path d="M284.8594,406.0537h-.9243v-.7695h.9243V404.14a1.1726,1.1726,0,0,1,1.2431-1.32h.8584v.7705H285.74v1.6944h1.2212v.7695H285.74v4.9072h-.88Z"/><path d="M290.7114,402.8193h.88v5.16h.0439l.8692-.9688,1.6059-1.7265h1.0674l-2.1015,2.2441,2.31,3.4326H294.32l-1.8808-2.8935-.8472.8691v2.0244h-.88Z"/><path d="M295.9033,408.1221c0-1.8037,1.0122-2.9707,2.5523-2.9707a2.4862,2.4862,0,0,1,2.4536,2.7724v.419h-4.0816v.2636a1.6073,1.6073,0,0,0,1.6831,1.7159,1.6448,1.6448,0,0,0,1.5621-.9785l.6274.4511a2.3831,2.3831,0,0,1-2.2446,1.2979C296.9155,411.0928,295.9033,409.9268,295.9033,408.1221Zm.9243-.5166v.0771h3.1353v-.1211a1.51,1.51,0,0,0-1.5073-1.6728A1.6138,1.6138,0,0,0,296.8276,407.6055Z"/><path d="M305.8037,405.2842h.8692l-2.5416,6.997c-.2529.6817-.4838.88-1.32.88H302.36v-.77h.8911l.4292-1.21-2.1236-5.8965h.88l1.3638,3.8613.2641.9238h.0552l.3081-.9238Z"/><path d="M307.2114,409.9814l.627-.5058a2.0619,2.0619,0,0,0,1.6836.8691c.748,0,1.188-.3408,1.188-.9238,0-.44-.2422-.7813-.99-.8916l-.4511-.0664c-1.045-.1533-1.8262-.583-1.8262-1.6387,0-1.1221.8691-1.6728,2.0244-1.6728a2.3648,2.3648,0,0,1,1.9805.914l-.583.5274a1.7532,1.7532,0,0,0-1.4634-.6924c-.7261,0-1.1113.3408-1.1113.88,0,.55.3852.7695,1.0893.88l.44.0664c1.2544.1865,1.7383.7363,1.7383,1.5947,0,1.1006-.8032,1.7715-2.101,1.7715A2.6391,2.6391,0,0,1,307.2114,409.9814Z"/><path d="M179.0083,424.1611a.9172.9172,0,0,1-.979-.9248h-.0552a1.6026,1.6026,0,0,1-1.6391,1.0567,1.6745,1.6745,0,0,1-1.9034-1.7168c0-1.0664.77-1.6612,2.4205-1.6612h1.122v-.5605c0-.8037-.44-1.2432-1.3418-1.2432a1.5854,1.5854,0,0,0-1.4414.8467l-.5278-.4951a2.1578,2.1578,0,0,1,2.0132-1.1113c1.3642,0,2.1782.7158,2.1782,1.915v3.124h.6489v.77Zm-1.0342-1.65v-.9355h-1.166c-1.001,0-1.4521.3086-1.4521.8584v.2314c0,.5606.44.88,1.122.88C177.3472,423.5449,177.9741,423.0938,177.9741,422.5107Z"/><path d="M180.7568,424.1611v-5.6767h.88v.9238h.044a1.61,1.61,0,0,1,1.6059-1.0566c1.1665,0,1.9033.7929,1.9033,2.1679v3.6416h-.88v-3.4873c0-1.0127-.44-1.5293-1.2871-1.5293-.7041,0-1.3862.3516-1.3862,1.0782v3.9384Z"/><path d="M190.6353,423.2363h-.044a1.7114,1.7114,0,0,1-1.6611,1.0567c-1.419,0-2.31-1.1553-2.31-2.9707s.8911-2.9707,2.31-2.9707a1.6586,1.6586,0,0,1,1.6611,1.0566h.044V416.02h.88v8.1416h-.88Zm0-.8906v-2.1123c0-.627-.66-1.0889-1.4629-1.0889a1.5491,1.5491,0,0,0-1.6065,1.6944v.9677a1.55,1.55,0,0,0,1.6065,1.6944C189.9756,423.501,190.6353,423.083,190.6353,422.3457Z"/><path d="M195.8813,416.6582v-.1436c0-.2968.1651-.4951.5391-.4951s.5391.1983.5391.4951v.1436c0,.2969-.1651.4951-.5391.4951S195.8813,416.9551,195.8813,416.6582Zm.0992,1.8262h.88v5.6767h-.88Z"/><path d="M202.3608,423.2363h-.0439a1.7114,1.7114,0,0,1-1.6611,1.0567c-1.419,0-2.31-1.1553-2.31-2.9707s.8911-2.9707,2.31-2.9707a1.6586,1.6586,0,0,1,1.6611,1.0566h.0439V416.02h.88v8.1416h-.88Zm0-.8906v-2.1123c0-.627-.66-1.0889-1.4629-1.0889a1.549,1.549,0,0,0-1.6064,1.6944v.9677a1.55,1.55,0,0,0,1.6064,1.6944C201.7012,423.501,202.3608,423.083,202.3608,422.3457Z"/><path d="M204.6924,421.3223c0-1.8037,1.0122-2.9707,2.5522-2.9707a2.4862,2.4862,0,0,1,2.4536,2.7724v.419h-4.0815v.2636a1.6073,1.6073,0,0,0,1.6831,1.7159,1.6447,1.6447,0,0,0,1.562-.9786l.6275.4512a2.3834,2.3834,0,0,1-2.2447,1.2979C205.7046,424.293,204.6924,423.127,204.6924,421.3223Zm.9243-.5166v.0771h3.1353v-.1211a1.51,1.51,0,0,0-1.5074-1.6728A1.6138,1.6138,0,0,0,205.6167,420.8057Z"/><path d="M211.1494,424.1611v-5.6767h.88v.9238h.0439a1.61,1.61,0,0,1,1.606-1.0566c1.1665,0,1.9033.7929,1.9033,2.1679v3.6416h-.88v-3.4873c0-1.0127-.44-1.5293-1.2871-1.5293-.7041,0-1.3862.3516-1.3862,1.0782v3.9384Z"/><path d="M218.6514,424.1611a.8668.8668,0,0,1-.9351-.9355v-3.9717h-.9355v-.7695h.5283c.374,0,.4951-.1328.4951-.5176v-1.0557h.792v1.5733h1.2432v.7695h-1.2432v4.1367h1.1553v.77Z"/><path d="M221.1592,416.6582v-.1436c0-.2968.165-.4951.539-.4951s.5391.1983.5391.4951v.1436c0,.2969-.165.4951-.5391.4951S221.1592,416.9551,221.1592,416.6582Zm.0991,1.8262h.88v5.6767h-.88Z"/><path d="M224.3164,419.2539h-.9243v-.7695h.9243V417.34a1.1726,1.1726,0,0,1,1.2432-1.32h.8584v.7705h-1.2212v1.6944h1.2212v.7695h-1.2212v4.9072h-.88Z"/><path d="M231.1807,418.4844h.8691l-2.5415,6.997c-.2529.6817-.4839.88-1.32.88h-.4512v-.7705h.8911l.4292-1.21-2.1235-5.8965h.88l1.3637,3.8613.2642.9238h.0552l.3081-.9238Z"/><path d="M235.228,423.1816l.627-.5058a2.0619,2.0619,0,0,0,1.6836.8691c.748,0,1.188-.3408,1.188-.9238,0-.44-.2422-.7813-.99-.8916l-.4511-.0664c-1.045-.1533-1.8262-.583-1.8262-1.6387,0-1.1221.8691-1.6728,2.0244-1.6728a2.3648,2.3648,0,0,1,1.9805.914l-.583.5274a1.7532,1.7532,0,0,0-1.4634-.6924c-.7261,0-1.1113.3408-1.1113.88,0,.55.3852.7695,1.0893.88l.44.0664c1.2544.1865,1.7383.7363,1.7383,1.5947,0,1.1006-.8032,1.7715-2.101,1.7715A2.6391,2.6391,0,0,1,235.228,423.1816Z"/><path d="M244.6226,423.2363h-.044a1.5779,1.5779,0,0,1-1.5952,1.0567c-1.166,0-1.9141-.792-1.9141-2.167v-3.6416h.88v3.4873c0,1.0117.4512,1.5293,1.2984,1.5293.6928,0,1.375-.3408,1.375-1.0889v-3.9277h.88v5.6767h-.88Z"/><path d="M246.8325,423.1816l.627-.5058a2.0619,2.0619,0,0,0,1.6836.8691c.748,0,1.188-.3408,1.188-.9238,0-.44-.2422-.7813-.99-.8916l-.4512-.0664c-1.0449-.1533-1.8261-.583-1.8261-1.6387,0-1.1221.8691-1.6728,2.0244-1.6728a2.3648,2.3648,0,0,1,1.9805.914l-.583.5274a1.7534,1.7534,0,0,0-1.4634-.6924c-.7261,0-1.1114.3408-1.1114.88,0,.55.3853.7695,1.0894.88l.44.0664c1.2544.1865,1.7383.7363,1.7383,1.5947,0,1.1006-.8032,1.7715-2.1011,1.7715A2.6391,2.6391,0,0,1,246.8325,423.1816Z"/><path d="M252.729,418.4844h.88v.9238h.0439a1.6586,1.6586,0,0,1,1.6612-1.0566c1.4194,0,2.31,1.1552,2.31,2.9707s-.8911,2.9707-2.31,2.9707a1.7115,1.7115,0,0,1-1.6612-1.0567h-.0439v3.125h-.88Zm3.95,3.3222v-.9677a1.549,1.549,0,0,0-1.6064-1.6944c-.8028,0-1.4629.4619-1.4629,1.0889v2.1123c0,.7373.66,1.1553,1.4629,1.1553A1.55,1.55,0,0,0,256.6787,421.8066Z"/><path d="M259.0093,416.6582v-.1436c0-.2968.165-.4951.539-.4951s.5391.1983.5391.4951v.1436c0,.2969-.165.4951-.5391.4951S259.0093,416.9551,259.0093,416.6582Zm.0991,1.8262h.88v5.6767h-.88Z"/><path d="M261.44,421.3223c0-1.8155.9351-2.9707,2.53-2.9707a2.1282,2.1282,0,0,1,2.1235,1.332l-.7373.374a1.368,1.368,0,0,0-1.3862-.9248,1.5249,1.5249,0,0,0-1.584,1.7061v.9677a1.5241,1.5241,0,0,0,1.584,1.7051,1.6022,1.6022,0,0,0,1.54-.99l.6377.43a2.2387,2.2387,0,0,1-2.1782,1.3418C262.3755,424.293,261.44,423.1377,261.44,421.3223Z"/><path d="M267.2925,416.6582v-.1436c0-.2968.165-.4951.539-.4951s.5391.1983.5391.4951v.1436c0,.2969-.165.4951-.5391.4951S267.2925,416.9551,267.2925,416.6582Zm.0991,1.8262h.88v5.6767h-.88Z"/><path d="M269.7236,421.3223c0-1.8037,1.045-2.9707,2.5635-2.9707s2.5635,1.167,2.5635,2.9707-1.0454,2.9707-2.5635,2.9707S269.7236,423.127,269.7236,421.3223Zm4.1807.4072v-.8145a1.6248,1.6248,0,1,0-3.2344,0v.8145a1.6248,1.6248,0,1,0,3.2344,0Z"/><path d="M279.8,423.2363h-.0439a1.5781,1.5781,0,0,1-1.5953,1.0567c-1.166,0-1.9145-.792-1.9145-2.167v-3.6416h.88v3.4873c0,1.0117.4511,1.5293,1.2983,1.5293.6929,0,1.375-.3408,1.375-1.0889v-3.9277h.88v5.6767h-.88Z"/><path d="M282.01,423.1816l.6269-.5058a2.0621,2.0621,0,0,0,1.6836.8691c.748,0,1.188-.3408,1.188-.9238,0-.44-.2422-.7813-.99-.8916l-.4512-.0664c-1.0449-.1533-1.8262-.583-1.8262-1.6387,0-1.1221.8692-1.6728,2.0244-1.6728a2.3648,2.3648,0,0,1,1.9805.914l-.583.5274a1.7531,1.7531,0,0,0-1.4634-.6924c-.7261,0-1.1113.3408-1.1113.88,0,.55.3852.7695,1.0893.88l.44.0664c1.2544.1865,1.7383.7363,1.7383,1.5947,0,1.1006-.8033,1.7715-2.1011,1.7715A2.639,2.639,0,0,1,282.01,423.1816Z"/><path d="M179.0083,437.36a.9165.9165,0,0,1-.979-.9239h-.0552a1.6019,1.6019,0,0,1-1.6391,1.0557,1.6743,1.6743,0,0,1-1.9034-1.7158c0-1.0674.77-1.6612,2.4205-1.6612h1.122v-.5615c0-.8027-.44-1.2432-1.3418-1.2432a1.5844,1.5844,0,0,0-1.4414.8477l-.5278-.4951a2.156,2.156,0,0,1,2.0132-1.1113c1.3642,0,2.1782.7148,2.1782,1.914v3.125h.6489v.77Zm-1.0342-1.65v-.9346h-1.166c-1.001,0-1.4521.3076-1.4521.8584v.2305c0,.5615.44.88,1.122.88C177.3472,436.7441,177.9741,436.293,177.9741,435.71Z"/><path d="M180.3389,434.5225c0-1.8155.935-2.9707,2.53-2.9707a2.1279,2.1279,0,0,1,2.1236,1.331l-.7373.374a1.3673,1.3673,0,0,0-1.3863-.9238,1.5241,1.5241,0,0,0-1.5839,1.7051v.9678a1.5248,1.5248,0,0,0,1.5839,1.706,1.6037,1.6037,0,0,0,1.5406-.99l.6377.4287a2.2373,2.2373,0,0,1-2.1783,1.3418C181.2739,437.4922,180.3389,436.3379,180.3389,434.5225Z"/><path d="M187.5439,437.36a.8661.8661,0,0,1-.935-.9346v-3.9717h-.9356v-.77h.5284c.374,0,.4951-.1318.4951-.5166V430.11h.792v1.5732h1.2431v.77h-1.2431v4.1367h1.1552v.77Z"/><path d="M190.0518,429.8574v-.1426c0-.2978.165-.4951.539-.4951s.5391.1973.5391.4951v.1426c0,.2969-.1651.4951-.5391.4951S190.0518,430.1543,190.0518,429.8574Zm.0991,1.8262h.88V437.36h-.88Z"/><path d="M194.1553,437.36l-1.9912-5.6768h.88l.99,2.8164.6162,1.9365h.0547l.6162-1.9365,1.0122-2.8164h.8472l-2.0025,5.6768Z"/><path d="M198.2134,429.8574v-.1426c0-.2978.165-.4951.539-.4951s.5391.1973.5391.4951v.1426c0,.2969-.165.4951-.5391.4951S198.2134,430.1543,198.2134,429.8574Zm.0991,1.8262h.88V437.36h-.88Z"/><path d="M202.3169,437.36a.8664.8664,0,0,1-.9351-.9346v-3.9717h-.9355v-.77h.5283c.374,0,.4951-.1318.4951-.5166V430.11h.792v1.5732h1.2432v.77h-1.2432v4.1367h1.1553v.77Z"/><path d="M208.4219,431.6836h.8691l-2.5415,6.9971c-.2529.6826-.4839.88-1.32.88h-.4512v-.7695h.8911l.4292-1.21-2.1235-5.8975h.88l1.3637,3.8613.2642.9248h.0552l.3081-.9248Z"/><path d="M176.0161,298.9609l-1.7822-7.6792h1.4521l.7593,3.6856.4727,2.3545h.0332l.55-2.3545.88-3.6856h1.6065l.88,3.6856.539,2.3545h.0332l.4839-2.3545.7813-3.6856h1.3862l-1.8374,7.6792h-1.6392l-.979-4.0595-.4731-2.0244h-.022l-.4951,2.0244-.979,4.0595Z"/><path d="M185.0908,298.9609v-5.7426h1.4082v1.1879h.0552a1.4727,1.4727,0,0,1,1.5181-1.1879h.3081v1.331h-.44c-.9463,0-1.4414.2642-1.4414.8911v3.52Z"/><path d="M189.2925,291.6777v-.22c0-.4072.2422-.7041.8252-.7041.5722,0,.8252.2969.8252.7041v.22c0,.4073-.253.7041-.8252.7041C189.5347,292.3818,189.2925,292.085,189.2925,291.6777Zm.1211,1.5406h1.4082v5.7426h-1.4082Z"/><path d="M194.2427,298.9609a1.329,1.329,0,0,1-1.4854-1.4633v-3.1685H191.91v-1.1108h.44c.418,0,.55-.1983.55-.5943v-.979h1.2651v1.5733h1.1773v1.1108h-1.1773v3.51h1.0894v1.122Z"/><path d="M196.1348,296.0786c0-1.8154.979-2.9927,2.6621-2.9927,1.7934,0,2.6186,1.32,2.6186,2.8936v.4619h-3.8178v.1431a1.2755,1.2755,0,0,0,1.3974,1.3862,1.7434,1.7434,0,0,0,1.4629-.7812l.7593.8471a2.8416,2.8416,0,0,1-2.3765,1.0562C197.147,299.0928,196.1348,297.916,196.1348,296.0786Zm1.4629-.5942v.0879h2.3544v-.0987c0-.7924-.4072-1.3315-1.1333-1.3315A1.2194,1.2194,0,0,0,197.5977,295.4844Z"/><path d="M202.6572,298.9609v-5.7426h1.4082v1.1879h.0552a1.4727,1.4727,0,0,1,1.5181-1.1879h.3081v1.331h-.44c-.9463,0-1.4414.2642-1.4414.8911v3.52Z"/><path d="M206.4849,298.0366l.8584-.8359a2.0179,2.0179,0,0,0,1.5732.7812c.6709,0,.957-.2529.957-.66,0-.33-.1982-.5391-.7041-.605l-.5722-.0772c-1.232-.1542-1.9141-.6933-1.9141-1.7382,0-1.1114.8691-1.8155,2.1782-1.8155a2.7381,2.7381,0,0,1,2.2447.9024l-.8252.8252a1.8976,1.8976,0,0,0-1.3755-.6162c-.605,0-.8692.2422-.8692.5942,0,.3848.209.561.7481.6489l.5835.0772c1.2539.1758,1.8589.7368,1.8589,1.6943,0,1.1109-.9351,1.8809-2.3653,1.8809A2.9163,2.9163,0,0,1,206.4849,298.0366Z"/><path d="M215.186,293.2842h.88v.9243h.044a1.6578,1.6578,0,0,1,1.6611-1.0566c1.4194,0,2.31,1.1552,2.31,2.9707s-.8911,2.97-2.31,2.97a1.7109,1.7109,0,0,1-1.6611-1.0562h-.044v3.1245h-.88Zm3.95,3.3222v-.9677a1.5493,1.5493,0,0,0-1.6064-1.6944c-.8027,0-1.4629.4619-1.4629,1.0889v2.1123c0,.7373.66,1.1553,1.4629,1.1553A1.5492,1.5492,0,0,0,219.1357,296.6064Z"/><path d="M221.5659,298.9609v-5.6767h.88v1.0449h.0547a1.631,1.631,0,0,1,1.6391-1.0449h.3413v.88h-.517c-.9463,0-1.5181.4072-1.5181.9463v3.85Z"/><path d="M225.13,296.1226c0-1.8042,1.0449-2.9707,2.5635-2.9707s2.5634,1.1665,2.5634,2.9707-1.0454,2.97-2.5634,2.97S225.13,297.9268,225.13,296.1226Zm4.1806.4072v-.8145a1.6248,1.6248,0,1,0-3.2343,0v.8145a1.6248,1.6248,0,1,0,3.2343,0Z"/><path d="M232.8745,298.9609l-1.9912-5.6767h.88l.99,2.8164.6162,1.936h.0547l.6162-1.936,1.0122-2.8164H235.9l-2.0024,5.6767Z"/><path d="M236.9326,291.458v-.1431c0-.2973.1651-.4951.5391-.4951s.539.1978.539.4951v.1431c0,.2969-.165.4951-.539.4951S236.9326,291.7549,236.9326,291.458Zm.0991,1.8262h.88v5.6767h-.88Z"/><path d="M239.2427,297.9819l.6269-.5063a2.0609,2.0609,0,0,0,1.6836.8691c.7481,0,1.188-.3408,1.188-.9238,0-.44-.2422-.7813-.99-.8911l-.4512-.0664c-1.0449-.1538-1.8262-.583-1.8262-1.6392,0-1.1221.8692-1.6723,2.0244-1.6723a2.3645,2.3645,0,0,1,1.9805.9135l-.583.5279a1.752,1.752,0,0,0-1.4634-.6929c-.726,0-1.1113.3408-1.1113.88,0,.55.3853.77,1.0894.88l.44.066c1.2544.187,1.7383.7368,1.7383,1.5952,0,1.1-.8032,1.771-2.1011,1.771A2.6386,2.6386,0,0,1,239.2427,297.9819Z"/><path d="M245.04,291.458v-.1431c0-.2973.165-.4951.539-.4951s.5391.1978.5391.4951v.1431c0,.2969-.1651.4951-.5391.4951S245.04,291.7549,245.04,291.458Zm.0991,1.8262h.88v5.6767h-.88Z"/><path d="M247.4707,296.1226c0-1.8042,1.0449-2.9707,2.5635-2.9707s2.5635,1.1665,2.5635,2.9707-1.0455,2.97-2.5635,2.97S247.4707,297.9268,247.4707,296.1226Zm4.1807.4072v-.8145a1.6248,1.6248,0,1,0-3.2344,0v.8145a1.6248,1.6248,0,1,0,3.2344,0Z"/><path d="M254.0488,298.9609v-5.6767h.88v.9243h.0439a1.6093,1.6093,0,0,1,1.606-1.0566c1.1665,0,1.9033.7924,1.9033,2.1674v3.6416h-.88v-3.4873c0-1.0122-.44-1.5293-1.2871-1.5293-.7041,0-1.3862.3521-1.3862,1.0782v3.9384Z"/><path d="M262.8926,290.82h.88v5.16h.044l.8691-.9683,1.606-1.727h1.0674l-2.1016,2.2441,2.3106,3.4326H266.501l-1.8809-2.8935-.8472.8691v2.0244h-.88Z"/><path d="M268.0845,296.1226c0-1.8042,1.0122-2.9707,2.5522-2.9707a2.4859,2.4859,0,0,1,2.4536,2.7724v.4185h-4.0815v.2636a1.6076,1.6076,0,0,0,1.6831,1.7164,1.6452,1.6452,0,0,0,1.562-.979l.6274.4511a2.3823,2.3823,0,0,1-2.2446,1.2979C269.0967,299.0928,268.0845,297.9268,268.0845,296.1226Zm.9243-.5171v.0771h3.1352v-.1211a1.51,1.51,0,0,0-1.5073-1.6723A1.6133,1.6133,0,0,0,269.0088,295.6055Z"/><path d="M277.9854,293.2842h.8691l-2.5415,6.997c-.2529.6822-.4839.88-1.32.88h-.4512v-.77h.8911l.4292-1.21-2.1235-5.897h.88l1.3638,3.8613.2642.9243h.0551l.3082-.9243Z"/><path d="M279.69,296.0894v-.9458h2.8711v.9458Z"/><path d="M283.9468,296.1226c0-1.8155.935-2.9707,2.53-2.9707a2.1281,2.1281,0,0,1,2.1235,1.3315l-.7373.374a1.3677,1.3677,0,0,0-1.3862-.9243,1.5244,1.5244,0,0,0-1.584,1.7056v.9677a1.5244,1.5244,0,0,0,1.584,1.7056,1.6029,1.6029,0,0,0,1.5405-.99l.6377.4292a2.238,2.238,0,0,1-2.1782,1.3418C284.8818,299.0928,283.9468,297.938,283.9468,296.1226Z"/><path d="M289.4136,296.1226c0-1.8042,1.0449-2.9707,2.5635-2.9707s2.5634,1.1665,2.5634,2.9707-1.0454,2.97-2.5634,2.97S289.4136,297.9268,289.4136,296.1226Zm4.1806.4072v-.8145a1.6248,1.6248,0,1,0-3.2343,0v.8145a1.6248,1.6248,0,1,0,3.2343,0Z"/><path d="M295.9912,298.9609v-5.6767h.88v.9243h.0439a1.6093,1.6093,0,0,1,1.606-1.0566c1.1665,0,1.9033.7924,1.9033,2.1674v3.6416h-.88v-3.4873c0-1.0122-.44-1.5293-1.2871-1.5293-.7041,0-1.3862.3521-1.3862,1.0782v3.9384Z"/><path d="M301.7,297.9819l.6269-.5063a2.0609,2.0609,0,0,0,1.6836.8691c.7481,0,1.188-.3408,1.188-.9238,0-.44-.2422-.7813-.99-.8911l-.4512-.0664c-1.0449-.1538-1.8261-.583-1.8261-1.6392,0-1.1221.8691-1.6723,2.0244-1.6723a2.3643,2.3643,0,0,1,1.98.9135l-.5835.5279A1.75,1.75,0,0,0,303.89,293.9c-.726,0-1.1113.3408-1.1113.88,0,.55.3853.77,1.0894.88l.44.066c1.2544.187,1.7383.7368,1.7383,1.5952,0,1.1-.8032,1.771-2.1016,1.771A2.6383,2.6383,0,0,1,301.7,297.9819Z"/><path d="M311.0947,298.0366h-.0439a1.5776,1.5776,0,0,1-1.5952,1.0562c-1.166,0-1.9146-.792-1.9146-2.167v-3.6416h.88v3.4873c0,1.0122.4512,1.5293,1.2983,1.5293.6929,0,1.375-.3408,1.375-1.0889v-3.9277h.88v5.6767h-.88Z"/><path d="M313.8442,298.9609v-5.6767h.88v.9243h.044a1.5272,1.5272,0,0,1,1.5293-1.0566,1.7475,1.7475,0,0,1,1.7382,1.1552h.022a1.7028,1.7028,0,0,1,1.7271-1.1552c1.1552,0,1.8481.7924,1.8481,2.1674v3.6416h-.88v-3.4873c0-1.0014-.3852-1.5293-1.2431-1.5293-.6934,0-1.3316.3521-1.3316,1.0782v3.9384h-.88v-3.4873c0-1.0122-.3852-1.5293-1.2212-1.5293-.6928,0-1.353.3521-1.353,1.0782v3.9384Z"/><path d="M323.3481,291.458v-.1431c0-.2973.1651-.4951.5391-.4951s.5391.1978.5391.4951v.1431c0,.2969-.1651.4951-.5391.4951S323.3481,291.7549,323.3481,291.458Zm.0992,1.8262h.88v5.6767h-.88Z"/><path d="M326.1973,298.9609v-5.6767h.88v.9243h.044a1.6092,1.6092,0,0,1,1.6059-1.0566c1.1665,0,1.9034.7924,1.9034,2.1674v3.6416h-.88v-3.4873c0-1.0122-.44-1.5293-1.2871-1.5293-.7041,0-1.3863.3521-1.3863,1.0782v3.9384Z"/><path d="M334.48,301.2935c-1.771,0-2.4971-.5064-2.4971-1.3975a1.0641,1.0641,0,0,1,.9019-1.1v-.1211a.8219.8219,0,0,1-.5059-.792c0-.5723.4072-.8472.979-.99v-.044a1.8455,1.8455,0,0,1-1.0669-1.7382,1.9455,1.9455,0,0,1,2.1343-1.9585,2.5482,2.5482,0,0,1,1.0781.22v-.0992c0-.44.187-.7587.66-.7587h.8471v.77h-1.0781v.3628a1.8878,1.8878,0,0,1,.6489,1.4634,1.949,1.949,0,0,1-2.1455,1.9584,2.8945,2.8945,0,0,1-.55-.0551c-.374.0991-.748.2861-.748.6382,0,.3408.352.4287.8691.4287h1.21c1.4082,0,2.0132.5722,2.0132,1.5073C337.2305,300.7544,336.3066,301.2935,334.48,301.2935Zm.7485-2.3877h-1.8926a.7928.7928,0,0,0-.5278.7705c0,.4946.3408.9018,1.2319.9018h.8145c.979,0,1.5508-.3081,1.5508-.9243C336.4053,299.2031,336.1084,298.9058,335.2285,298.9058Zm.4287-3.6416v-.3077c0-.748-.4731-1.1005-1.2212-1.1005s-1.2212.3525-1.2212,1.1005v.3077c0,.7485.4732,1.1005,1.2212,1.1005S335.6572,296.0127,335.6572,295.2642Z"/><path d="M179.0083,312.1611a.9168.9168,0,0,1-.979-.9243h-.0552a1.6023,1.6023,0,0,1-1.6391,1.0562,1.6741,1.6741,0,0,1-1.9034-1.7163c0-1.0669.77-1.6612,2.4205-1.6612h1.122v-.561c0-.8032-.44-1.2432-1.3418-1.2432a1.5849,1.5849,0,0,0-1.4414.8472l-.5278-.4951a2.1569,2.1569,0,0,1,2.0132-1.1113c1.3642,0,2.1782.7153,2.1782,1.9145v3.1245h.6489v.77Zm-1.0342-1.65v-.935h-1.166c-1.001,0-1.4521.3081-1.4521.8584v.2309c0,.5611.44.88,1.122.88C177.3472,311.5449,177.9741,311.0938,177.9741,310.5107Z"/><path d="M180.7568,306.4844h.88v.9243h.044a1.6578,1.6578,0,0,1,1.6611-1.0566c1.4194,0,2.3105,1.1552,2.3105,2.9707s-.8911,2.97-2.3105,2.97a1.7109,1.7109,0,0,1-1.6611-1.0562h-.044v3.1245h-.88Zm3.95,3.3222v-.9677a1.5493,1.5493,0,0,0-1.6064-1.6944c-.8027,0-1.4629.4619-1.4629,1.0889v2.1123c0,.7373.66,1.1553,1.4629,1.1553A1.5493,1.5493,0,0,0,184.7065,309.8066Z"/><path d="M187.1367,306.4844h.88v.9243h.0439a1.658,1.658,0,0,1,1.6612-1.0566c1.4194,0,2.3105,1.1552,2.3105,2.9707s-.8911,2.97-2.3105,2.97a1.7111,1.7111,0,0,1-1.6612-1.0562h-.0439v3.1245h-.88Zm3.95,3.3222v-.9677a1.5493,1.5493,0,0,0-1.6064-1.6944c-.8028,0-1.4629.4619-1.4629,1.0889v2.1123c0,.7373.66,1.1553,1.4629,1.1553A1.5493,1.5493,0,0,0,191.0864,309.8066Z"/><path d="M195.6943,309.3228c0-1.8042,1.045-2.9707,2.5635-2.9707s2.5635,1.1665,2.5635,2.9707-1.0454,2.97-2.5635,2.97S195.6943,311.127,195.6943,309.3228Zm4.1807.4072v-.8145a1.6248,1.6248,0,1,0-3.2344,0v.8145a1.6248,1.6248,0,1,0,3.2344,0Z"/><path d="M202.2725,312.1611v-5.6767h.88v1.0449h.0547a1.6312,1.6312,0,0,1,1.6392-1.0449h.3413v.88h-.5171c-.9463,0-1.5181.4072-1.5181.9462v3.8506Z"/><path d="M208.3662,311.1821l.627-.5063a2.0606,2.0606,0,0,0,1.6836.8691c.748,0,1.1879-.3408,1.1879-.9238,0-.44-.2421-.7813-.99-.8911l-.4512-.0664c-1.0449-.1538-1.8261-.583-1.8261-1.6392,0-1.1221.8691-1.6723,2.0244-1.6723a2.3646,2.3646,0,0,1,1.9805.9135l-.5835.5279a1.7505,1.7505,0,0,0-1.4629-.6929c-.7261,0-1.1114.3408-1.1114.88,0,.55.3853.77,1.0894.88l.44.066c1.2544.187,1.7383.7368,1.7383,1.5952,0,1.1-.8032,1.771-2.1015,1.771A2.6385,2.6385,0,0,1,208.3662,311.1821Z"/><path d="M213.8442,309.3228c0-1.8042,1.0122-2.9707,2.5523-2.9707a2.486,2.486,0,0,1,2.4536,2.7724v.4185h-4.0815v.2636a1.6075,1.6075,0,0,0,1.6831,1.7163,1.645,1.645,0,0,0,1.562-.979l.6274.4512a2.3824,2.3824,0,0,1-2.2446,1.2979C214.8564,312.293,213.8442,311.127,213.8442,309.3228Zm.9244-.5171v.0771h3.1352v-.1211a1.51,1.51,0,0,0-1.5073-1.6723A1.6133,1.6133,0,0,0,214.7686,308.8057Z"/><path d="M220.3013,312.1611v-5.6767h.88v1.0449h.0547a1.6312,1.6312,0,0,1,1.6392-1.0449h.3413v.88H222.7c-.9463,0-1.5181.4072-1.5181.9462v3.8506Z"/><path d="M225.7021,312.1611l-1.9912-5.6767h.88l.99,2.8164.6162,1.936h.0547l.6162-1.936,1.0122-2.8164h.8471l-2.0024,5.6767Z"/><path d="M229.7607,304.6582v-.1431c0-.2973.1651-.4951.5391-.4951s.5391.1978.5391.4951v.1431c0,.2969-.1651.4951-.5391.4951S229.7607,304.9551,229.7607,304.6582Zm.0992,1.8262h.88v5.6767h-.88Z"/><path d="M232.1919,309.3228c0-1.8155.9351-2.9707,2.53-2.9707a2.1281,2.1281,0,0,1,2.1235,1.3315l-.7373.374a1.3677,1.3677,0,0,0-1.3862-.9243,1.5244,1.5244,0,0,0-1.584,1.7056v.9677a1.5244,1.5244,0,0,0,1.584,1.7056,1.6029,1.6029,0,0,0,1.5405-.99l.6377.4292a2.238,2.238,0,0,1-2.1782,1.3418C233.127,312.293,232.1919,311.1382,232.1919,309.3228Z"/><path d="M237.6587,309.3228c0-1.8042,1.0122-2.9707,2.5522-2.9707a2.486,2.486,0,0,1,2.4537,2.7724v.4185H238.583v.2636a1.6076,1.6076,0,0,0,1.6831,1.7163,1.645,1.645,0,0,0,1.562-.979l.6275.4512a2.3825,2.3825,0,0,1-2.2447,1.2979C238.6709,312.293,237.6587,311.127,237.6587,309.3228Zm.9243-.5171v.0771h3.1353v-.1211a1.51,1.51,0,0,0-1.5074-1.6723A1.6133,1.6133,0,0,0,238.583,308.8057Z"/><path d="M250.8369,312.1611a.9168.9168,0,0,1-.979-.9243h-.0552a1.6022,1.6022,0,0,1-1.6391,1.0562,1.6741,1.6741,0,0,1-1.9033-1.7163c0-1.0669.77-1.6612,2.42-1.6612h1.122v-.561c0-.8032-.44-1.2432-1.3418-1.2432a1.5849,1.5849,0,0,0-1.4414.8472l-.5278-.4951a2.1569,2.1569,0,0,1,2.0132-1.1113c1.3642,0,2.1782.7153,2.1782,1.9145v3.1245h.6489v.77Zm-1.0342-1.65v-.935h-1.166c-1.001,0-1.4521.3081-1.4521.8584v.2309c0,.5611.44.88,1.122.88C249.1758,311.5449,249.8027,311.0938,249.8027,310.5107Z"/><path d="M252.5854,312.1611v-5.6767h.88v.9243h.044a1.6092,1.6092,0,0,1,1.6059-1.0566c1.1665,0,1.9033.7924,1.9033,2.1674v3.6416h-.88v-3.4873c0-1.0122-.44-1.5293-1.2871-1.5293-.7042,0-1.3863.3521-1.3863,1.0782v3.9384Z"/><path d="M262.4639,311.2368h-.044a1.711,1.711,0,0,1-1.6611,1.0562c-1.419,0-2.31-1.1548-2.31-2.97s.8911-2.9707,2.31-2.9707a1.6579,1.6579,0,0,1,1.6611,1.0566h.044V304.02h.88v8.1411h-.88Zm0-.8911v-2.1123c0-.627-.66-1.0889-1.4629-1.0889a1.5493,1.5493,0,0,0-1.6065,1.6944v.9677a1.5493,1.5493,0,0,0,1.6065,1.6944C261.8042,311.501,262.4639,311.083,262.4639,310.3457Z"/><path d="M267.27,311.1821l.627-.5063a2.0606,2.0606,0,0,0,1.6836.8691c.748,0,1.188-.3408,1.188-.9238,0-.44-.2422-.7813-.99-.8911l-.4512-.0664c-1.0449-.1538-1.8261-.583-1.8261-1.6392,0-1.1221.8691-1.6723,2.0244-1.6723a2.3645,2.3645,0,0,1,1.9805.9135l-.583.5279a1.7523,1.7523,0,0,0-1.4634-.6929c-.7261,0-1.1114.3408-1.1114.88,0,.55.3853.77,1.0894.88l.44.066c1.2544.187,1.7383.7368,1.7383,1.5952,0,1.1-.8032,1.771-2.1011,1.771A2.6387,2.6387,0,0,1,267.27,311.1821Z"/><path d="M276.665,311.2368h-.0439a1.5776,1.5776,0,0,1-1.5952,1.0562c-1.166,0-1.9146-.792-1.9146-2.167v-3.6416h.88v3.4873c0,1.0122.4512,1.5293,1.2983,1.5293.6929,0,1.375-.3408,1.375-1.0889v-3.9277h.88v5.6767h-.88Z"/><path d="M279.4141,306.4844h.88v.9243h.044A1.6579,1.6579,0,0,1,282,306.3521c1.4194,0,2.3106,1.1552,2.3106,2.9707s-.8912,2.97-2.3106,2.97a1.711,1.711,0,0,1-1.6611-1.0562h-.044v3.1245h-.88Zm3.95,3.3222v-.9677a1.5493,1.5493,0,0,0-1.6065-1.6944c-.8027,0-1.4629.4619-1.4629,1.0889v2.1123c0,.7373.66,1.1553,1.4629,1.1553A1.5493,1.5493,0,0,0,283.3638,309.8066Z"/><path d="M285.7939,306.4844h.88v.9243h.044a1.6578,1.6578,0,0,1,1.6611-1.0566c1.4194,0,2.3105,1.1552,2.3105,2.9707s-.8911,2.97-2.3105,2.97a1.7109,1.7109,0,0,1-1.6611-1.0562h-.044v3.1245h-.88Zm3.95,3.3222v-.9677a1.5494,1.5494,0,0,0-1.6065-1.6944c-.8027,0-1.4629.4619-1.4629,1.0889v2.1123c0,.7373.66,1.1553,1.4629,1.1553A1.5494,1.5494,0,0,0,289.7437,309.8066Z"/><path d="M293.1089,312.1611a.8608.8608,0,0,1-.9351-.9131V304.02h.88v7.3711h.8359v.77Z"/><path d="M298.5542,306.4844h.8691l-2.5415,6.997c-.2529.6822-.4839.88-1.32.88h-.4512v-.77h.8912l.4292-1.21-2.1236-5.8969h.88l1.3638,3.8613.2641.9243h.0552l.3081-.9243Z"/><path d="M303.1406,304.02h.88v5.16h.0439l.8692-.9683,1.6059-1.727h1.0674l-2.1015,2.2441,2.31,3.4326H306.749l-1.8808-2.8935-.8472.8691v2.0244h-.88Z"/><path d="M308.3325,309.3228c0-1.8042,1.0122-2.9707,2.5523-2.9707a2.486,2.486,0,0,1,2.4536,2.7724v.4185h-4.0816v.2636a1.6076,1.6076,0,0,0,1.6831,1.7163,1.6451,1.6451,0,0,0,1.5621-.979l.6274.4512a2.3825,2.3825,0,0,1-2.2446,1.2979C309.3447,312.293,308.3325,311.127,308.3325,309.3228Zm.9243-.5171v.0771h3.1353v-.1211a1.51,1.51,0,0,0-1.5073-1.6723A1.6134,1.6134,0,0,0,309.2568,308.8057Z"/><path d="M318.2334,306.4844h.8691l-2.5415,6.997c-.2529.6822-.4839.88-1.32.88H314.79v-.77h.8912l.4292-1.21-2.1236-5.8969h.88l1.3638,3.8613.2641.9243h.0552l.3081-.9243Z"/><path d="M174.6079,325.3608v-.77h1.0781v-6.1391h-1.0781v-.77h3.0806v.77H176.61v6.1391h1.0781v.77Z"/><path d="M179.3706,317.6816h2.5747c1.9141,0,3.1465,1.2764,3.1465,3.84s-1.2324,3.8393-3.1465,3.8393h-2.5747Zm2.5747,6.8653a2.1346,2.1346,0,0,0,2.1563-2.3985V320.894a2.1346,2.1346,0,0,0-2.1563-2.3984h-1.65v6.0513Z"/><path d="M186.1245,324.3818l.627-.5063a2.0606,2.0606,0,0,0,1.6836.8691c.748,0,1.1879-.3408,1.1879-.9238,0-.44-.2421-.7812-.99-.8911l-.4512-.0664c-1.0449-.1538-1.8261-.583-1.8261-1.6392,0-1.122.8691-1.6719,2.0244-1.6719a2.3644,2.3644,0,0,1,1.9805.9131l-.5831.5279a1.7519,1.7519,0,0,0-1.4633-.6929c-.7261,0-1.1114.3408-1.1114.88,0,.55.3853.77,1.0894.88l.44.066c1.2544.187,1.7383.7368,1.7383,1.5952,0,1.1-.8032,1.771-2.1011,1.771A2.6387,2.6387,0,0,1,186.1245,324.3818Z"/><path d="M194.9248,320.4541h-.9243v-.77h.9243V318.54a1.1726,1.1726,0,0,1,1.2432-1.32h.8584v.77h-1.2212v1.6944h1.2212v.77h-1.2212v4.9067h-.88Z"/><path d="M198.1807,325.3608v-5.6767h.88v1.0449h.0547a1.6312,1.6312,0,0,1,1.6392-1.0449h.3413v.88h-.5171c-.9463,0-1.5181.4072-1.5181.9463v3.8505Z"/><path d="M201.7446,322.5225c0-1.8042,1.045-2.97,2.5635-2.97s2.5635,1.1661,2.5635,2.97-1.0454,2.97-2.5635,2.97S201.7446,324.3267,201.7446,322.5225Zm4.1807.4072v-.8145a1.6248,1.6248,0,1,0-3.2344,0v.8145a1.6248,1.6248,0,1,0,3.2344,0Z"/><path d="M208.3223,325.3608v-5.6767h.88v.9238h.044a1.5271,1.5271,0,0,1,1.5293-1.0557,1.7473,1.7473,0,0,1,1.7383,1.1548h.0219a1.7025,1.7025,0,0,1,1.7271-1.1548c1.1553,0,1.8481.792,1.8481,2.167v3.6416h-.88v-3.4873c0-1.0014-.3852-1.5293-1.2431-1.5293-.6934,0-1.3316.3521-1.3316,1.0782v3.9384h-.88v-3.4873c0-1.0122-.3853-1.5293-1.2212-1.5293-.6929,0-1.3531.3521-1.3531,1.0782v3.9384Z"/><path d="M222.6226,321.5874l-1.0894,1.21v2.5634h-.9243v-7.6792h.9243v4.0816h.0332l1.1-1.3311,2.3213-2.75h1.1333l-2.8608,3.29,3.0585,4.39h-1.144Z"/><path d="M226.8022,322.5225c0-1.8042,1.0123-2.97,2.5523-2.97a2.4856,2.4856,0,0,1,2.4536,2.772v.4185h-4.0815v.2636a1.6076,1.6076,0,0,0,1.6831,1.7164,1.6452,1.6452,0,0,0,1.562-.979l.6274.4511a2.3824,2.3824,0,0,1-2.2446,1.2979C227.8145,325.4927,226.8022,324.3267,226.8022,322.5225Zm.9244-.5171v.0771h3.1352v-.1211a1.51,1.51,0,0,0-1.5073-1.6723A1.6133,1.6133,0,0,0,227.7266,322.0054Z"/><path d="M236.7026,319.6841h.8692l-2.5415,6.9975c-.253.6817-.4839.88-1.32.88h-.4511v-.7705h.8911l.4292-1.21-2.1235-5.897h.88l1.3638,3.8613.2642.9243h.0551l.3081-.9243Z"/><path d="M241.377,325.3608v-7.6792h3.0585a2.2012,2.2012,0,0,1,0,4.4009h-2.1342v3.2783Zm.9243-4.0927h2.1342a1.0287,1.0287,0,0,0,1.1553-1.1v-.5718a1.0291,1.0291,0,0,0-1.1553-1.1006h-2.1342Z"/><path d="M247.8447,325.3608v-5.6767h.88v1.0449h.0547a1.631,1.631,0,0,1,1.6391-1.0449h.3414v.88h-.5171c-.9463,0-1.5181.4072-1.5181.9463v3.8505Z"/><path d="M251.4092,322.5225c0-1.8042,1.0449-2.97,2.5635-2.97s2.5634,1.1661,2.5634,2.97-1.0454,2.97-2.5634,2.97S251.4092,324.3267,251.4092,322.5225Zm4.1806.4072v-.8145a1.6248,1.6248,0,1,0-3.2343,0v.8145a1.6248,1.6248,0,1,0,3.2343,0Z"/><path d="M259.2412,325.3608a.8664.8664,0,0,1-.935-.935v-3.9717h-.9356v-.77h.5283c.374,0,.4951-.1319.4951-.5171v-1.0562h.792v1.5733h1.2432v.77H259.186v4.1367h1.1553v.77Z"/><path d="M261.3857,322.5225c0-1.8042,1.0122-2.97,2.5523-2.97a2.4856,2.4856,0,0,1,2.4536,2.772v.4185H262.31v.2636a1.6076,1.6076,0,0,0,1.6831,1.7164,1.6452,1.6452,0,0,0,1.562-.979l.6274.4511a2.3824,2.3824,0,0,1-2.2446,1.2979C262.3979,325.4927,261.3857,324.3267,261.3857,322.5225Zm.9244-.5171v.0771h3.1352v-.1211a1.51,1.51,0,0,0-1.5073-1.6723A1.6133,1.6133,0,0,0,262.31,322.0054Z"/><path d="M267.4248,322.5225c0-1.8155.9351-2.97,2.53-2.97a2.1279,2.1279,0,0,1,2.1235,1.3311l-.7373.374a1.3677,1.3677,0,0,0-1.3862-.9243,1.5245,1.5245,0,0,0-1.584,1.7056v.9677a1.5245,1.5245,0,0,0,1.584,1.7056,1.6029,1.6029,0,0,0,1.5405-.99l.6377.4292a2.238,2.238,0,0,1-2.1782,1.3418C268.36,325.4927,267.4248,324.3379,267.4248,322.5225Z"/><path d="M274.63,325.3608a.8667.8667,0,0,1-.9351-.935v-3.9717H272.76v-.77h.5283c.374,0,.4951-.1319.4951-.5171v-1.0562h.792v1.5733h1.2432v.77h-1.2432v4.1367h1.1553v.77Z"/><path d="M180.6587,189.7036h-.044l-.583,1.166-1.5952,2.9043-1.5732-2.8935-.605-1.232h-.0332V195.16H174.85V187.481h1.606l1.9692,3.7514h.0332l1.958-3.7514h1.6172V195.16h-1.375Z"/><path d="M183.3418,193.5981c0-1.1772.8911-1.76,2.4531-1.76h.979v-.4185c0-.6377-.3188-1.0117-1.0669-1.0117a1.4938,1.4938,0,0,0-1.3091.7261l-.8364-.7485a2.42,2.42,0,0,1,2.2447-1.1c1.5512,0,2.3759.7373,2.3759,2.0463v2.7066h.5723V195.16h-.7813a1.0447,1.0447,0,0,1-1.0669-.99H186.84a1.5528,1.5528,0,0,1-1.6723,1.1221A1.6277,1.6277,0,0,1,183.3418,193.5981Zm3.4321-.1543v-.7592h-.9018c-.7373,0-1.1.2534-1.1.7041v.187c0,.4624.3188.6933.8691.6933C186.2681,194.269,186.7739,193.9829,186.7739,193.4438Z"/><path d="M189.8975,195.16v-5.7427h1.4082v.957h.0551a1.5846,1.5846,0,0,1,1.6065-1.0893c1.1767,0,1.8369.8144,1.8369,2.2446v3.63H193.396v-3.4873c0-.8145-.2749-1.2325-.9458-1.2325-.5835,0-1.1445.3081-1.1445.9243V195.16Z"/><path d="M195.9585,193.5981c0-1.1772.8911-1.76,2.4531-1.76h.979v-.4185c0-.6377-.3188-1.0117-1.0669-1.0117a1.4938,1.4938,0,0,0-1.3091.7261l-.8364-.7485a2.42,2.42,0,0,1,2.2447-1.1c1.5512,0,2.3759.7373,2.3759,2.0463v2.7066h.5723V195.16H200.59a1.0447,1.0447,0,0,1-1.0669-.99h-.0659a1.5528,1.5528,0,0,1-1.6723,1.1221A1.6277,1.6277,0,0,1,195.9585,193.5981Zm3.4321-.1543v-.7592h-.9018c-.7373,0-1.1.2534-1.1.7041v.187c0,.4624.3188.6933.8691.6933C198.8848,194.269,199.3906,193.9829,199.3906,193.4438Z"/><path d="M204.6816,197.4927c-1.9365,0-2.6733-.5064-2.6733-1.3535a1.0577,1.0577,0,0,1,1.0229-1.1v-.1211a.9436.9436,0,0,1-.7368-.9571c0-.5942.5059-.8911,1.0562-1.0122v-.0439a1.7325,1.7325,0,0,1-1.0454-1.6724c0-1.166.8252-1.9472,2.3764-1.9472a3.1878,3.1878,0,0,1,1.001.143v-.187a.7339.7339,0,0,1,.8145-.8359h.8911v1.0781H206.167v.1538a1.7193,1.7193,0,0,1,.8911,1.5952c0,1.1553-.8144,1.9253-2.3765,1.9253a3.5356,3.5356,0,0,1-.88-.0986.5876.5876,0,0,0-.4068.5166c0,.2861.2422.4292.7481.4292h1.54c1.4082,0,2.0137.605,2.0137,1.6391C207.6963,196.8433,206.8818,197.4927,204.6816,197.4927Zm.7149-2.2666h-1.958a.7059.7059,0,0,0-.2969.5942c0,.44.33.7041,1.21.7041h.7041c.9131,0,1.32-.2309,1.32-.7153C206.376,195.4463,206.1118,195.2261,205.3965,195.2261Zm.3193-3.9053v-.187c0-.5835-.3633-.88-1.0342-.88s-1.0341.2969-1.0341.88v.187c0,.5718.3632.88,1.0341.88S205.7158,191.8926,205.7158,191.3208Z"/><path d="M208.0586,192.2778c0-1.8154.979-2.9926,2.6621-2.9926,1.7935,0,2.6187,1.32,2.6187,2.8935v.4619h-3.8179v.1431a1.2755,1.2755,0,0,0,1.3974,1.3862,1.7433,1.7433,0,0,0,1.4629-.7812l.7593.8471a2.8412,2.8412,0,0,1-2.3765,1.0562C209.0708,195.292,208.0586,194.1152,208.0586,192.2778Zm1.4629-.5942v.0879h2.3545v-.0986c0-.7925-.4072-1.3316-1.1333-1.3316A1.22,1.22,0,0,0,209.5215,191.6836Z"/><path d="M214.5815,195.16v-5.7427H215.99v1.188h.0552a1.4727,1.4727,0,0,1,1.5181-1.188h.3081v1.331h-.44c-.9463,0-1.4415.2642-1.4415.8911V195.16Z"/><path d="M218.4092,194.2358l.8584-.8359a2.018,2.018,0,0,0,1.5732.7813c.6709,0,.9571-.253.9571-.66,0-.33-.1983-.5391-.7041-.605l-.5723-.0771c-1.2319-.1543-1.9141-.6934-1.9141-1.7383,0-1.1113.8692-1.8154,2.1782-1.8154a2.7381,2.7381,0,0,1,2.2447.9023l-.8252.8252a1.8976,1.8976,0,0,0-1.3755-.6162c-.605,0-.8692.2422-.8692.5942,0,.3848.209.5611.7481.6489l.5835.0772c1.2539.1758,1.8589.7368,1.8589,1.6943,0,1.1109-.9351,1.8809-2.3653,1.8809A2.9163,2.9163,0,0,1,218.4092,194.2358Z"/><path d="M226.6924,192.3218c0-1.8155.935-2.9707,2.53-2.9707a2.1282,2.1282,0,0,1,2.1235,1.3315l-.7373.374a1.3677,1.3677,0,0,0-1.3862-.9243,1.5245,1.5245,0,0,0-1.584,1.7056v.9678a1.5244,1.5244,0,0,0,1.584,1.7055,1.6029,1.6029,0,0,0,1.5405-.99l.6377.4292a2.2378,2.2378,0,0,1-2.1782,1.3418C227.6274,195.292,226.6924,194.1372,226.6924,192.3218Z"/><path d="M232.6431,195.16v-5.6768h.88v1.0449h.0547a1.6313,1.6313,0,0,1,1.6392-1.0449h.3413v.88h-.5171c-.9463,0-1.5181.4072-1.5181.9463V195.16Z"/><path d="M236.207,192.3218c0-1.8042,1.0122-2.9707,2.5523-2.9707a2.486,2.486,0,0,1,2.4536,2.7724v.4185h-4.0816v.2637a1.6076,1.6076,0,0,0,1.6832,1.7163,1.6452,1.6452,0,0,0,1.562-.979l.6274.4511a2.3822,2.3822,0,0,1-2.2446,1.2979C237.2192,195.292,236.207,194.126,236.207,192.3218Zm.9243-.5171v.0771h3.1353v-.1211a1.51,1.51,0,0,0-1.5073-1.6723A1.6134,1.6134,0,0,0,237.1313,191.8047Z"/><path d="M246.79,195.16a.9169.9169,0,0,1-.9791-.9244h-.0551a1.6023,1.6023,0,0,1-1.6392,1.0562,1.6741,1.6741,0,0,1-1.9033-1.7163c0-1.0669.77-1.6611,2.42-1.6611h1.1221v-.5611c0-.8032-.44-1.2431-1.3418-1.2431a1.5847,1.5847,0,0,0-1.4414.8471l-.5279-.4951a2.1571,2.1571,0,0,1,2.0132-1.1113c1.3643,0,2.1782.7153,2.1782,1.9145V194.39h.649v.77Zm-1.0342-1.65v-.9351h-1.166c-1.001,0-1.4522.3081-1.4522.8584v.231c0,.561.44.88,1.1221.88C245.1284,194.5439,245.7554,194.0928,245.7554,193.51Z"/><path d="M249.7925,195.16a.8668.8668,0,0,1-.9351-.9351v-3.9717h-.9355v-.77h.5283c.374,0,.4951-.1323.4951-.5171V187.91h.792v1.5732h1.2432v.77h-1.2432V194.39h1.1553v.77Z"/><path d="M251.937,192.3218c0-1.8042,1.0122-2.9707,2.5523-2.9707a2.486,2.486,0,0,1,2.4536,2.7724v.4185h-4.0816v.2637a1.6076,1.6076,0,0,0,1.6831,1.7163,1.645,1.645,0,0,0,1.562-.979l.6275.4511a2.3823,2.3823,0,0,1-2.2446,1.2979C252.9492,195.292,251.937,194.126,251.937,192.3218Zm.9243-.5171v.0771h3.1353v-.1211a1.51,1.51,0,0,0-1.5073-1.6723A1.6134,1.6134,0,0,0,252.8613,191.8047Z"/><path d="M260.4507,194.1812l.6269-.5064a2.0609,2.0609,0,0,0,1.6836.8691c.7481,0,1.188-.3408,1.188-.9238,0-.44-.2422-.7812-.99-.8911l-.4512-.0664c-1.0449-.1538-1.8262-.583-1.8262-1.6392,0-1.122.8692-1.6723,2.0245-1.6723a2.3644,2.3644,0,0,1,1.98.9135l-.583.5279A1.752,1.752,0,0,0,262.64,190.1c-.726,0-1.1113.3408-1.1113.88,0,.55.3853.77,1.0894.88l.44.0659c1.2544.187,1.7383.7368,1.7383,1.5952,0,1.1-.8032,1.771-2.1011,1.771A2.6385,2.6385,0,0,1,260.4507,194.1812Z"/><path d="M269.6475,189.4834h.8691l-2.5415,6.9971c-.2529.6821-.4839.88-1.32.88h-.4512v-.77h.8911l.4292-1.21-2.1235-5.897h.88l1.3638,3.8613.2642.9243h.0552l.3081-.9243Z"/><path d="M271.6377,195.16v-5.6768h.88v.9243h.0439a1.5272,1.5272,0,0,1,1.5293-1.0566,1.7475,1.7475,0,0,1,1.7383,1.1552h.022a1.7026,1.7026,0,0,1,1.727-1.1552c1.1553,0,1.8482.7925,1.8482,2.1675V195.16h-.88v-3.4873c0-1.0015-.3853-1.5293-1.2432-1.5293-.6933,0-1.3315.352-1.3315,1.0781V195.16h-.88v-3.4873c0-1.0123-.3853-1.5293-1.2212-1.5293-.6929,0-1.353.352-1.353,1.0781V195.16Z"/><path d="M281.2407,195.16v-5.6768h.88v.9243h.0439a1.5274,1.5274,0,0,1,1.5293-1.0566,1.7475,1.7475,0,0,1,1.7383,1.1552h.022a1.7027,1.7027,0,0,1,1.727-1.1552c1.1553,0,1.8482.7925,1.8482,2.1675V195.16h-.88v-3.4873c0-1.0015-.3853-1.5293-1.2432-1.5293-.6933,0-1.3315.352-1.3315,1.0781V195.16h-.88v-3.4873c0-1.0123-.3852-1.5293-1.2212-1.5293-.6929,0-1.353.352-1.353,1.0781V195.16Z"/><path d="M290.4258,192.3218c0-1.8042,1.0122-2.9707,2.5522-2.9707a2.4859,2.4859,0,0,1,2.4536,2.7724v.4185H291.35v.2637a1.6076,1.6076,0,0,0,1.6831,1.7163,1.6452,1.6452,0,0,0,1.562-.979l.6275.4511a2.3824,2.3824,0,0,1-2.2447,1.2979C291.438,195.292,290.4258,194.126,290.4258,192.3218Zm.9243-.5171v.0771h3.1353v-.1211a1.51,1.51,0,0,0-1.5074-1.6723A1.6134,1.6134,0,0,0,291.35,191.8047Z"/><path d="M298.1367,195.16a.8664.8664,0,0,1-.935-.9351v-3.9717h-.9356v-.77h.5283c.3741,0,.4952-.1323.4952-.5171V187.91h.7919v1.5732h1.2432v.77h-1.2432V194.39h1.1553v.77Z"/><path d="M300.7437,195.16v-5.6768h.88v1.0449h.0547a1.6313,1.6313,0,0,1,1.6392-1.0449h.3413v.88h-.5171c-.9463,0-1.5181.4072-1.5181.9463V195.16Z"/><path d="M304.6812,187.6572v-.143c0-.2974.165-.4952.539-.4952s.5391.1978.5391.4952v.143c0,.2969-.1651.4951-.5391.4951S304.6812,187.9541,304.6812,187.6572Zm.0991,1.8262h.88V195.16h-.88Z"/><path d="M307.1123,192.3218c0-1.8155.9351-2.9707,2.53-2.9707a2.1282,2.1282,0,0,1,2.1235,1.3315l-.7373.374a1.3677,1.3677,0,0,0-1.3862-.9243,1.5245,1.5245,0,0,0-1.584,1.7056v.9678a1.5245,1.5245,0,0,0,1.584,1.7055,1.6029,1.6029,0,0,0,1.5405-.99l.6377.4292a2.2378,2.2378,0,0,1-2.1782,1.3418C308.0474,195.292,307.1123,194.1372,307.1123,192.3218Z"/><path d="M315.6592,187.019h.88v5.16h.0439l.8691-.9683,1.606-1.727h1.0674l-2.1016,2.2441,2.3106,3.4327h-1.0674l-1.8809-2.8936-.8471.8691V195.16h-.88Z"/><path d="M320.8511,192.3218c0-1.8042,1.0122-2.9707,2.5522-2.9707a2.4859,2.4859,0,0,1,2.4536,2.7724v.4185h-4.0815v.2637a1.6075,1.6075,0,0,0,1.6831,1.7163,1.6452,1.6452,0,0,0,1.562-.979l.6274.4511a2.3821,2.3821,0,0,1-2.2446,1.2979C321.8633,195.292,320.8511,194.126,320.8511,192.3218Zm.9243-.5171v.0771h3.1352v-.1211a1.51,1.51,0,0,0-1.5073-1.6723A1.6134,1.6134,0,0,0,321.7754,191.8047Z"/><path d="M330.752,189.4834h.8691l-2.5415,6.9971c-.2529.6821-.4839.88-1.32.88h-.4512v-.77H328.2l.4292-1.21-2.1235-5.897h.88l1.3638,3.8613.2642.9243h.0551l.3082-.9243Z"/><path d="M332.1592,194.1812l.6269-.5064a2.0609,2.0609,0,0,0,1.6836.8691c.7481,0,1.188-.3408,1.188-.9238,0-.44-.2422-.7812-.99-.8911l-.4512-.0664c-1.0449-.1538-1.8262-.583-1.8262-1.6392,0-1.122.8692-1.6723,2.0245-1.6723a2.3644,2.3644,0,0,1,1.98.9135l-.5835.5279a1.75,1.75,0,0,0-1.4629-.6929c-.726,0-1.1113.3408-1.1113.88,0,.55.3853.77,1.0894.88l.44.0659c1.2544.187,1.7383.7368,1.7383,1.5952,0,1.1-.8032,1.771-2.1016,1.771A2.6382,2.6382,0,0,1,332.1592,194.1812Z"/><path d="M174.7837,200.8574v-.143c0-.2974.165-.4952.5391-.4952s.539.1978.539.4952v.143c0,.2969-.165.4951-.539.4951S174.7837,201.1543,174.7837,200.8574Zm.0991,1.8262h.88V208.36h-.88Z"/><path d="M177.6328,208.36v-5.6768h.88v.9243h.0439a1.6093,1.6093,0,0,1,1.606-1.0566c1.1665,0,1.9033.7925,1.9033,2.1675V208.36h-.88V204.873c0-1.0122-.44-1.5292-1.2871-1.5292-.7041,0-1.3862.352-1.3862,1.0781V208.36Z"/><path d="M188.5781,204.5869l-1.0893,1.21V208.36h-.9243v-7.6792h.9243v4.0815h.0332l1.1-1.3311,2.3213-2.75h1.1333l-2.8609,3.29,3.0586,4.39H191.13Z"/><path d="M192.7578,205.522c0-1.8042,1.0122-2.9707,2.5523-2.9707a2.486,2.486,0,0,1,2.4536,2.7724v.4185h-4.0816v.2637a1.6076,1.6076,0,0,0,1.6831,1.7163,1.645,1.645,0,0,0,1.562-.979l.6275.4511a2.3823,2.3823,0,0,1-2.2446,1.2979C193.77,208.4922,192.7578,207.3262,192.7578,205.522Zm.9243-.5171v.0771h3.1353v-.1211a1.51,1.51,0,0,0-1.5073-1.6723A1.6134,1.6134,0,0,0,193.6821,205.0049Z"/><path d="M202.6582,202.6836h.8691l-2.5415,6.9971c-.2529.6821-.4838.88-1.32.88h-.4512v-.77h.8912l.4292-1.21-2.1236-5.897h.88l1.3638,3.8613.2641.9243h.0552l.3081-.9243Z"/><path d="M207.3325,208.36v-7.6792h3.0586a2.2011,2.2011,0,0,1,0,4.4008h-2.1343V208.36Zm.9243-4.0928h2.1343a1.0287,1.0287,0,0,0,1.1553-1.1v-.5718a1.0287,1.0287,0,0,0-1.1553-1.1h-2.1343Z"/><path d="M213.8,208.36v-5.6768h.88v1.0449h.0547a1.6311,1.6311,0,0,1,1.6391-1.0449h.3413v.88h-.5171c-.9463,0-1.518.4072-1.518.9463V208.36Z"/><path d="M217.3643,205.522c0-1.8042,1.0449-2.9707,2.5634-2.9707s2.5635,1.1665,2.5635,2.9707-1.0454,2.97-2.5635,2.97S217.3643,207.3262,217.3643,205.522Zm4.1806.4072v-.8145a1.6248,1.6248,0,1,0-3.2344,0v.8145a1.6248,1.6248,0,1,0,3.2344,0Z"/><path d="M225.1968,208.36a.8668.8668,0,0,1-.9351-.9351v-3.9717h-.9355v-.77h.5283c.374,0,.4951-.1323.4951-.5171V201.11h.792v1.5732h1.2432v.77h-1.2432V207.59h1.1553v.77Z"/><path d="M227.3413,205.522c0-1.8042,1.0122-2.9707,2.5523-2.9707a2.486,2.486,0,0,1,2.4536,2.7724v.4185h-4.0816v.2637a1.6076,1.6076,0,0,0,1.6831,1.7163,1.645,1.645,0,0,0,1.562-.979l.6275.4511a2.3823,2.3823,0,0,1-2.2446,1.2979C228.3535,208.4922,227.3413,207.3262,227.3413,205.522Zm.9243-.5171v.0771h3.1353v-.1211a1.51,1.51,0,0,0-1.5073-1.6723A1.6134,1.6134,0,0,0,228.2656,205.0049Z"/><path d="M233.38,205.522c0-1.8155.935-2.9707,2.53-2.9707a2.1282,2.1282,0,0,1,2.1236,1.3315l-.7373.374a1.3677,1.3677,0,0,0-1.3863-.9243,1.5245,1.5245,0,0,0-1.5839,1.7056v.9678a1.5244,1.5244,0,0,0,1.5839,1.7055,1.603,1.603,0,0,0,1.5406-.99l.6377.4292a2.2379,2.2379,0,0,1-2.1783,1.3418C234.3154,208.4922,233.38,207.3374,233.38,205.522Z"/><path d="M240.5854,208.36a.8667.8667,0,0,1-.935-.9351v-3.9717h-.9356v-.77h.5284c.374,0,.4951-.1323.4951-.5171V201.11h.792v1.5732h1.2431v.77H240.53V207.59h1.1552v.77Z"/><path d="M71.3408,103.25c0-2.8188,1.4033-4.39,3.61-4.39a3.0523,3.0523,0,0,1,3.0581,1.9306l-1.3555.72a1.6566,1.6566,0,0,0-1.7026-1.2475c-1.1758,0-1.9312.8515-1.9312,2.2788v1.3193c0,1.4395.7554,2.2549,1.9312,2.2549a1.86,1.86,0,0,0,1.8105-1.331l1.2837.7553a3.2163,3.2163,0,0,1-3.0942,1.979C72.7441,107.52,71.3408,106.0684,71.3408,103.25Z"/><path d="M80.8442,107.3755a1.3576,1.3576,0,0,1-1.5351-1.5112V98.5005h1.5351v7.6518h.8272v1.2232Z"/><path d="M82.417,104.2334c0-2.0029,1.1152-3.2622,2.9023-3.2622,1.7989,0,2.9146,1.2593,2.9146,3.2622,0,2.0146-1.1157,3.2861-2.9146,3.2861C83.5322,107.52,82.417,106.248,82.417,104.2334Zm4.2095.5874v-1.1631c0-.9355-.5035-1.4512-1.3072-1.4512-.7915,0-1.2954.5157-1.2954,1.4512v1.1631c0,.9478.5039,1.4634,1.2954,1.4634C86.123,106.2842,86.6265,105.7686,86.6265,104.8208Z"/><path d="M93.3345,106.332h-.06a1.6984,1.6984,0,0,1-1.751,1.1875c-1.2832,0-2.0029-.8877-2.0029-2.4467v-3.9581h1.5352v3.8023c0,.8633.3237,1.331,1.0556,1.331.6114,0,1.2232-.3237,1.2232-.9956v-4.1377H94.87v6.2608H93.3345Z"/><path d="M100.5342,106.332h-.06a1.7583,1.7583,0,0,1-1.727,1.1875c-1.5713,0-2.4468-1.1875-2.4468-3.2861,0-2.0869.8755-3.2622,2.4468-3.2622a1.7233,1.7233,0,0,1,1.727,1.1753h.06v-3.646h1.5351v8.875h-1.5351Zm0-1.1035v-1.9907c0-.6118-.564-1.0073-1.2954-1.0073a1.3329,1.3329,0,0,0-1.3311,1.4751v1.08a1.3227,1.3227,0,0,0,1.3311,1.4628C99.97,106.248,100.5342,105.8765,100.5342,105.2285Z"/><path d="M106.4287,107.3755V106.104h1.1035v-5.8286h-1.1035V99.0039h3.8018v1.2715h-1.1153v5.8286h1.1153v1.2715Z"/><path d="M117.0332,107.3755l-.6714-2.1348h-2.9746l-.66,2.1348h-1.6069l2.8062-8.3833h1.9672l2.7823,8.3833Zm-2.1348-6.9321h-.06l-1.0674,3.4419h2.207Z"/><path d="M126.2485,101.4268h-.0478l-.6358,1.2714-1.7387,3.1661-1.7154-3.1543-.66-1.3433h-.0362v6.0088h-1.499V99.0039h1.751l2.147,4.09h.0361l2.1348-4.09h1.7627v8.3716h-1.4991Z"/><path d="M132.4561,107.3755v-6.2608h1.5351V102.41h.06a1.6059,1.6059,0,0,1,1.6553-1.2955h.3359v1.4512h-.48c-1.0312,0-1.5708.2881-1.5708.9717v3.8379Z"/><path d="M136.6924,104.2334c0-2.0029,1.1152-3.2622,2.9023-3.2622,1.7989,0,2.9146,1.2593,2.9146,3.2622,0,2.0146-1.1157,3.2861-2.9146,3.2861C137.8076,107.52,136.6924,106.248,136.6924,104.2334Zm4.21.5874v-1.1631c0-.9355-.5035-1.4512-1.3072-1.4512-.7915,0-1.2954.5157-1.2954,1.4512v1.1631c0,.9478.5039,1.4634,1.2954,1.4634C140.3984,106.2842,140.9019,105.7686,140.9019,104.8208Z"/><path d="M145.4033,107.3755a1.3576,1.3576,0,0,1-1.5351-1.5112V98.5005h1.5351v7.6518h.8272v1.2232Z"/><path d="M146.9761,104.2334c0-1.979,1.0674-3.2622,2.9023-3.2622,1.9551,0,2.8545,1.439,2.8545,3.1543v.5034h-4.1616v.1563a1.39,1.39,0,0,0,1.5229,1.5107,1.9,1.9,0,0,0,1.5953-.8516l.8276.9239a3.0989,3.0989,0,0,1-2.5908,1.1513C148.08,107.52,146.9761,106.2363,146.9761,104.2334Zm1.5952-.648v.0962h2.5664v-.1079c0-.8637-.4439-1.4511-1.2354-1.4511A1.3286,1.3286,0,0,0,148.5713,103.5854Z"/><path d="M153.5518,106.3682l.9355-.9117a2.2,2.2,0,0,0,1.7153.8516c.7315,0,1.0435-.2759,1.0435-.72,0-.36-.2163-.5874-.7676-.66l-.624-.084c-1.3433-.1679-2.0869-.7553-2.0869-1.895,0-1.2109.9477-1.9785,2.375-1.9785a2.9859,2.9859,0,0,1,2.4468.9834l-.9.8994a2.0668,2.0668,0,0,0-1.4991-.6719c-.66,0-.9472.2642-.9472.648,0,.42.2275.6113.8154.7075l.6357.084c1.3672.1919,2.0269.8037,2.0269,1.8472,0,1.2109-1.02,2.0507-2.5786,2.0507A3.179,3.179,0,0,1,153.5518,106.3682Z"/><path class="cls-25" d="M58.5879,55.6689H58.54l-.8164,1.6329-2.1767,3.9536L53.418,57.3179l-.8487-1.7608h-.0478V63H50.2324V51.8276H52.81l2.7373,5.2339h.0317l2.7051-5.2339H60.877V63H58.5879Z"/><path class="cls-25" d="M69.4185,63a1.6,1.6,0,0,1-1.6006-1.4727h-.0962a2.27,2.27,0,0,1-2.4649,1.6646,2.341,2.341,0,0,1-2.6089-2.4487c0-1.7769,1.3765-2.625,3.6011-2.625h1.3286V57.59c0-.8164-.4-1.3286-1.3925-1.3286a2.0747,2.0747,0,0,0-1.8086.9927l-1.4087-1.2485a3.6634,3.6634,0,0,1,3.3935-1.6011c2.3687,0,3.5855,1.0889,3.5855,3.0732v3.6817h.7842V63Zm-1.8409-2.5449v-.9927H66.4253c-.9126,0-1.3926.3364-1.3926.9443v.24c0,.6084.4.8965,1.1045.8965C66.9214,61.5435,67.5776,61.2231,67.5776,60.4551Z"/><path class="cls-25" d="M72.312,63V54.5967h2.3692V56.021h.0957a2.2915,2.2915,0,0,1,2.3369-1.6167c1.7129,0,2.625,1.2168,2.625,3.33V63H77.37V57.9258c0-1.0723-.3042-1.6006-1.1684-1.6006-.7686,0-1.52.4-1.52,1.2324V63Z"/><path class="cls-25" d="M88.0581,63a1.6,1.6,0,0,1-1.6006-1.4727h-.0962a2.27,2.27,0,0,1-2.4648,1.6646,2.341,2.341,0,0,1-2.6089-2.4487c0-1.7769,1.3765-2.625,3.6011-2.625h1.3286V57.59c0-.8164-.4-1.3286-1.3926-1.3286a2.0749,2.0749,0,0,0-1.8086.9927l-1.4087-1.2485a3.6636,3.6636,0,0,1,3.3936-1.6011c2.3686,0,3.5854,1.0889,3.5854,3.0732v3.6817h.7842V63Zm-1.8408-2.5449v-.9927H85.0649c-.9126,0-1.3925.3364-1.3925.9443v.24c0,.6084.4.8965,1.1045.8965C85.561,61.5435,86.2173,61.2231,86.2173,60.4551Z"/><path class="cls-25" d="M94.1851,66.3936c-2.9131,0-3.9859-.7364-3.9859-1.9532A1.566,1.566,0,0,1,91.7681,62.84v-.1757a1.42,1.42,0,0,1-1.2168-1.4727c0-.88.7846-1.3286,1.5688-1.4888v-.0639a2.4794,2.4794,0,0,1-1.5049-2.4009c0-1.6968,1.1846-2.8335,3.6016-2.8335a5.5459,5.5459,0,0,1,1.4248.16v-.32A1.12,1.12,0,0,1,96.9062,52.98h1.3282v1.7607H96.3779v.0962a2.4874,2.4874,0,0,1,1.4405,2.4009c0,1.6807-1.1685,2.7851-3.6016,2.7851a5.92,5.92,0,0,1-1.4883-.1762.7866.7866,0,0,0-.3681.6723c0,.4.288.64,1.0083.64h2.4331c2.0488,0,2.9292.8965,2.9292,2.4492C98.731,65.3848,97.61,66.3936,94.1851,66.3936ZM95.21,63.1763H92.3281a1.0792,1.0792,0,0,0-.3042.7519c0,.6084.4805.8965,1.7608.8965h.96c1.2808,0,1.7608-.2881,1.7608-.8965C96.5059,63.4482,96.1538,63.1763,95.21,63.1763Zm.4-5.8584v-.1924c0-.7363-.4639-1.1524-1.3926-1.1524s-1.3926.4161-1.3926,1.1524v.1924c0,.7363.4644,1.1523,1.3926,1.1523S95.6094,58.0542,95.6094,57.3179Z"/><path class="cls-25" d="M99.5913,52.5317V52.18c0-.6724.416-1.1685,1.3765-1.1685s1.3764.4961,1.3764,1.1685v.352c0,.6724-.416,1.1685-1.3764,1.1685S99.5913,53.2041,99.5913,52.5317Zm.1919,2.065h2.3691V63H99.7832Z"/><path class="cls-25" d="M104.3594,63V54.5967h2.3691V56.021h.0957a2.2915,2.2915,0,0,1,2.3369-1.6167c1.7129,0,2.625,1.2168,2.625,3.33V63h-2.3686V57.9258c0-1.0723-.3042-1.6006-1.1685-1.6006-.7685,0-1.52.4-1.52,1.2324V63Z"/><path class="cls-25" d="M117.1289,66.3936c-2.9131,0-3.9858-.7364-3.9858-1.9532a1.566,1.566,0,0,1,1.5688-1.6006v-.1757a1.42,1.42,0,0,1-1.2168-1.4727c0-.88.7847-1.3286,1.5689-1.4888v-.0639a2.479,2.479,0,0,1-1.5044-2.4009c0-1.6968,1.1841-2.8335,3.601-2.8335a5.548,5.548,0,0,1,1.4248.16v-.32A1.12,1.12,0,0,1,119.85,52.98h1.3281v1.7607h-1.8564v.0962a2.4873,2.4873,0,0,1,1.44,2.4009c0,1.6807-1.1684,2.7851-3.6016,2.7851a5.92,5.92,0,0,1-1.4882-.1762.7864.7864,0,0,0-.3682.6723c0,.4.2881.64,1.0083.64h2.4331c2.0488,0,2.9292.8965,2.9292,2.4492C121.6748,65.3848,120.5542,66.3936,117.1289,66.3936Zm1.0244-3.2173H115.272a1.0792,1.0792,0,0,0-.3042.7519c0,.6084.48.8965,1.7607.8965h.96c1.2807,0,1.7607-.2881,1.7607-.8965C119.45,63.4482,119.0977,63.1763,118.1533,63.1763Zm.4-5.8584v-.1924c0-.7363-.4638-1.1524-1.3926-1.1524s-1.3925.4161-1.3925,1.1524v.1924c0,.7363.4643,1.1523,1.3925,1.1523S118.5532,58.0542,118.5532,57.3179Z"/><path class="cls-25" d="M132.7134,63a1.6,1.6,0,0,1-1.6006-1.4727h-.0962a2.27,2.27,0,0,1-2.4648,1.6646,2.341,2.341,0,0,1-2.6089-2.4487c0-1.7769,1.3764-2.625,3.601-2.625h1.3287V57.59c0-.8164-.4-1.3286-1.3926-1.3286a2.0748,2.0748,0,0,0-1.8086.9927l-1.4087-1.2485a3.6635,3.6635,0,0,1,3.3935-1.6011c2.3687,0,3.5855,1.0889,3.5855,3.0732v3.6817h.7842V63Zm-1.8408-2.5449v-.9927H129.72c-.9126,0-1.3926.3364-1.3926.9443v.24c0,.6084.4.8965,1.1045.8965C130.2163,61.5435,130.8726,61.2231,130.8726,60.4551Z"/><path class="cls-25" d="M135.0781,58.7905c0-2.6894,1.3926-4.3862,3.9219-4.3862a3.3026,3.3026,0,0,1,3.3613,2.1934l-1.9209.832A1.3916,1.3916,0,0,0,139,56.2773c-.96,0-1.457.688-1.457,1.7447v1.5688c0,1.0562.4966,1.7446,1.457,1.7446a1.58,1.58,0,0,0,1.5684-1.2646l1.8408.8A3.2921,3.2921,0,0,1,139,63.1919C136.4707,63.1919,135.0781,61.48,135.0781,58.7905Z"/><path class="cls-25" d="M143.2705,58.7905c0-2.6894,1.3926-4.3862,3.9219-4.3862a3.3026,3.3026,0,0,1,3.3613,2.1934l-1.9209.832a1.3916,1.3916,0,0,0-1.44-1.1524c-.96,0-1.457.688-1.457,1.7447v1.5688c0,1.0562.4965,1.7446,1.457,1.7446a1.58,1.58,0,0,0,1.5683-1.2646l1.8409.8a3.2921,3.2921,0,0,1-3.4092,2.3208C144.6631,63.1919,143.2705,61.48,143.2705,58.7905Z"/><path class="cls-25" d="M151.4629,58.7905c0-2.6572,1.4087-4.3862,3.9375-4.3862,2.7851,0,3.9058,2.0171,3.9058,4.29v.7041h-5.3941v.128a1.651,1.651,0,0,0,1.8565,1.809,2.6636,2.6636,0,0,0,2.0649-1.0083l1.1846,1.4722a4.5536,4.5536,0,0,1-3.5215,1.3926C152.9194,63.1919,151.4629,61.48,151.4629,58.7905Zm2.4492-.9126v.128h2.9448v-.1441c0-1.0244-.4638-1.7124-1.4082-1.7124A1.5362,1.5362,0,0,0,153.9121,57.8779Z"/><path class="cls-25" d="M160.2944,61.6875l1.3926-1.4087a2.9221,2.9221,0,0,0,2.2251,1.0728c.9282,0,1.2485-.3042,1.2485-.8008,0-.416-.2563-.624-.8486-.7041l-.9121-.1118c-1.9048-.24-2.833-1.0728-2.833-2.5933,0-1.6167,1.2642-2.7373,3.2651-2.7373a4.2228,4.2228,0,0,1,3.4253,1.313l-1.36,1.3921a2.81,2.81,0,0,0-1.937-.8643c-.8,0-1.12.2881-1.12.7046,0,.4482.1919.688.88.7842l.9449.1279c1.8247.24,2.769,1.0728,2.769,2.5293,0,1.6167-1.4409,2.8008-3.6016,2.8008A4.388,4.388,0,0,1,160.2944,61.6875Z"/><path class="cls-25" d="M168.2466,61.6875l1.3926-1.4087a2.922,2.922,0,0,0,2.2251,1.0728c.9282,0,1.2485-.3042,1.2485-.8008,0-.416-.2564-.624-.8486-.7041l-.9121-.1118c-1.9048-.24-2.8331-1.0728-2.8331-2.5933,0-1.6167,1.2642-2.7373,3.2652-2.7373a4.2231,4.2231,0,0,1,3.4253,1.313l-1.36,1.3921a2.81,2.81,0,0,0-1.937-.8643c-.8,0-1.12.2881-1.12.7046,0,.4482.1919.688.88.7842l.9448.1279c1.8247.24,2.769,1.0728,2.769,2.5293,0,1.6167-1.4409,2.8008-3.6015,2.8008A4.3879,4.3879,0,0,1,168.2466,61.6875Z"/><path class="cls-25" d="M183.72,63a2.2122,2.2122,0,0,1-2.4971-2.4492V56.4375h-1.1845V54.5967h.5923c.64,0,.832-.32.832-.8965V52.3237h2.1289v2.273h1.665v1.8408h-1.665v4.7217h1.5366V63Z"/><path class="cls-25" d="M186.3105,58.7905c0-2.7055,1.4727-4.3862,3.9375-4.3862s3.9375,1.6807,3.9375,4.3862-1.4721,4.4014-3.9375,4.4014S186.3105,61.4956,186.3105,58.7905Zm5.41.8643V57.9419c0-1.0562-.5439-1.6646-1.4727-1.6646s-1.4726.6084-1.4726,1.6646v1.7129c0,1.0561.5444,1.6645,1.4726,1.6645S191.7207,60.7109,191.7207,59.6548Z"/><path class="cls-25" d="M199.6387,51.1553h2.3691V58.15h.0957l1.0405-1.5522,1.6807-2.001h2.625l-2.8013,3.2173L207.77,63h-2.8174l-1.8886-3.5532-1.0562,1.1841V63h-2.3691Z"/><path class="cls-25" d="M207.91,58.7905c0-2.6572,1.4086-4.3862,3.9375-4.3862,2.7851,0,3.9057,2.0171,3.9057,4.29v.7041h-5.394v.128a1.6509,1.6509,0,0,0,1.8564,1.809,2.6638,2.6638,0,0,0,2.065-1.0083l1.1845,1.4722a4.5533,4.5533,0,0,1-3.5215,1.3926C209.3667,63.1919,207.91,61.48,207.91,58.7905Zm2.4492-.9126v.128h2.9448v-.1441c0-1.0244-.4639-1.7124-1.4082-1.7124A1.5362,1.5362,0,0,0,210.3594,57.8779Z"/><path class="cls-25" d="M222.457,54.5967h2.209l-3.2334,9.7a2.3923,2.3923,0,0,1-2.5771,1.9048h-1.4727V64.36h1.5845l.2881-.9283-2.9449-8.8354h2.3531l1.2324,3.9214.6079,2.4331H220.6l.6245-2.4331Z"/><path class="cls-25" d="M225.03,61.6875l1.3926-1.4087a2.9219,2.9219,0,0,0,2.225,1.0728c.9283,0,1.2486-.3042,1.2486-.8008,0-.416-.2564-.624-.8486-.7041l-.9122-.1118c-1.9047-.24-2.833-1.0728-2.833-2.5933,0-1.6167,1.2642-2.7373,3.2652-2.7373a4.2231,4.2231,0,0,1,3.4253,1.313l-1.36,1.3921a2.81,2.81,0,0,0-1.937-.8643c-.8,0-1.12.2881-1.12.7046,0,.4482.1919.688.88.7842l.9443.1279c1.8247.24,2.769,1.0728,2.769,2.5293,0,1.6167-1.4409,2.8008-3.6015,2.8008A4.3872,4.3872,0,0,1,225.03,61.6875Z"/></g></svg>