<svg xmlns="http://www.w3.org/2000/svg" viewBox="0 0 960.29 631"><g id="Visual"><rect x="336.13" y="331.3" width="378.63" height="173.2" fill="#bae6ff" stroke="#000" stroke-miterlimit="10" stroke-width="0.75"/><rect x="300.18" y="0.61" width="659.61" height="546.3" fill="none" stroke="#dde1e6" stroke-miterlimit="10" stroke-dasharray="1.2 1.2"/><rect x="764.24" y="74.05" width="156.9" height="150.54" fill="#edf5ff" stroke="#000" stroke-miterlimit="10" stroke-width="0.75"/><rect x="343.41" y="338.59" width="383.48" height="173.2" fill="#e5f6ff" stroke="#000" stroke-miterlimit="10" stroke-width="0.75"/><rect x="368.26" y="378.19" width="326.57" height="94.69" fill="#f4f4f4" stroke="#000" stroke-miterlimit="10" stroke-width="0.5" stroke-dasharray="1.2 1.2"/><rect x="375.12" y="385.22" width="326.57" height="97.37" fill="#fff" stroke="#000" stroke-miterlimit="10" stroke-width="0.5" stroke-dasharray="1.2 1.2"/><rect x="336.48" y="52.6" width="390.42" height="173.2" fill="#edf5ff" stroke="#000" stroke-miterlimit="10" stroke-width="0.75"/><line x1="93.71" x2="93.71" y2="546.3" stroke="#000" stroke-miterlimit="10"/><rect x="110.97" y="103.19" width="40.64" height="321.87" fill="#e5f6ff" stroke="#000" stroke-miterlimit="10" stroke-width="0.75"/><path d="M186.66,141.49h77.4a0,0,0,0,1,0,0v29.93a8.25,8.25,0,0,1-8.25,8.25H194.91a8.25,8.25,0,0,1-8.25-8.25V141.49A0,0,0,0,1,186.66,141.49Z" fill="#e8daff"/><line x1="610.64" y1="215.01" x2="610.64" y2="247.94" fill="none" stroke="#000" stroke-miterlimit="10" stroke-width="0.75" stroke-dasharray="1.2 1.2"/><polygon points="608.21 215.73 610.64 211.52 613.07 215.73 608.21 215.73"/><line x1="448.8" y1="209.26" x2="449.09" y2="242.19" fill="none" stroke="#000" stroke-miterlimit="10" stroke-width="0.75" stroke-dasharray="1.2 1.2"/><polygon points="446.66 241.5 449.13 245.68 451.52 241.45 446.66 241.5"/><line x1="68.22" y1="141.43" x2="107.12" y2="141.43" fill="none" stroke="#000" stroke-miterlimit="10" stroke-width="0.5"/><polygon points="106.39 143.93 110.71 141.43 106.39 138.94 106.39 143.93"/><line x1="68.82" y1="392.73" x2="107.72" y2="392.73" fill="none" stroke="#000" stroke-miterlimit="10" stroke-width="0.5"/><polygon points="107 395.22 111.31 392.73 107 390.24 107 395.22"/><rect x="360.27" y="93.48" width="326.57" height="94.69" fill="#f4f4f4" stroke="#000" stroke-miterlimit="10" stroke-width="0.5" stroke-dasharray="1.2 1.2"/><line x1="151.79" y1="141.43" x2="363.36" y2="141.43" fill="none" stroke="#6929c4" stroke-miterlimit="10" stroke-width="0.5"/><polygon points="362.63 143.93 366.95 141.43 362.63 138.94 362.63 143.93" fill="#6929c4"/><rect x="367.12" y="100.51" width="326.57" height="97.37" fill="#fff" stroke="#000" stroke-miterlimit="10" stroke-width="0.5" stroke-dasharray="1.2 1.2"/><rect x="378.88" y="111.69" width="140.18" height="54.63" fill="#d0e2ff" stroke="#000" stroke-miterlimit="10" stroke-width="0.5"/><path d="M305.67,597.42a5.27,5.27,0,1,0,4.76,7.53h2.77l.38-.76.38.38.37.38h7.16l2.26-2.26-2.26-2.26H310.43a5.27,5.27,0,0,0-4.76-3" fill="#ceaceb"/><path d="M321.74,600.15h-11a5.44,5.44,0,0,0-1-1.33,5.65,5.65,0,1,0,0,8,5.85,5.85,0,0,0,1-1.33h2.12l.89-.89.89.89h7.1l2.66-2.67Zm-.26,4.7H314.9l-.7-.71-.45-.44-.44.44-.71.71h-2.23l-.18.33a4.66,4.66,0,0,1-.88,1.18,5,5,0,1,1,0-7.1,4.9,4.9,0,0,1,.88,1.19l.18.33h11.11l2,2Z" fill="#6e177d"/><circle cx="303.93" cy="602.8" r="1.26" fill="#6e177d"/><rect x="315.47" y="602.49" width="5.32" height="0.63" fill="#6e177d"/><path d="M321,623H310a5.27,5.27,0,1,0,0,4.52h2.77v-.38h1.13v.38H321l2.26-2.26Z" fill="#a6c8ff"/><path d="M321.26,622.69h-11a5.75,5.75,0,0,0-1-1.33,5.65,5.65,0,1,0,0,8,6,6,0,0,0,1-1.34h2.12l.88-.88.89.88h7.1l2.66-2.66Zm-.26,4.7h-6.58l-.7-.71-.45-.44-.44.44-.7.71h-2.24l-.18.33a5,5,0,1,1-.87-5.92,5.13,5.13,0,0,1,.87,1.19l.18.33H321l2,2Z"/><circle cx="303.46" cy="625.34" r="1.26"/><rect x="314.99" y="625.03" width="5.32" height="0.63"/><path d="M442.38,192.12a5.27,5.27,0,1,0,4.75,7.53h2.78l.37-.75.38.37.38.38h7.15l2.26-2.26-2.26-2.26H447.13a5.25,5.25,0,0,0-4.75-3" fill="#ceaceb"/><path d="M458.44,194.85h-11a6.21,6.21,0,0,0-1-1.33,5.65,5.65,0,1,0,0,8,5.75,5.75,0,0,0,1-1.33h2.12l.89-.89.88.89h7.1l2.67-2.66Zm-.26,4.7H451.6l-.7-.7-.44-.45-.45.45-.7.7h-2.24l-.18.33a4.86,4.86,0,0,1-.87,1.19,5,5,0,1,1,0-7.1,4.8,4.8,0,0,1,.87,1.18l.18.33h11.11l2,2Z" fill="#6e177d"/><circle cx="440.64" cy="197.51" r="1.26" fill="#6e177d"/><rect x="452.18" y="197.19" width="5.32" height="0.63" fill="#6e177d"/><line x1="744.97" y1="160.86" x2="744.97" y2="392.49" fill="none" stroke="#d12771" stroke-miterlimit="10" stroke-width="0.75" stroke-dasharray="1.2 1.2"/><path d="M187.23,393.25h77.4a0,0,0,0,1,0,0v29.93a8.25,8.25,0,0,1-8.25,8.25H195.48a8.25,8.25,0,0,1-8.25-8.25V393.25A0,0,0,0,1,187.23,393.25Z" fill="#ffd6e8"/><line x1="151.79" y1="392.73" x2="371.2" y2="392.73" fill="none" stroke="#d12771" stroke-miterlimit="10" stroke-width="0.5"/><polygon points="370.47 395.23 374.79 392.73 370.47 390.24 370.47 395.23" fill="#d12771"/><line x1="320.84" y1="393.32" x2="320.84" y2="160.86" fill="none" stroke="#d12771" stroke-miterlimit="10" stroke-width="0.5"/><line x1="320.81" y1="160.86" x2="363.36" y2="160.86" fill="none" stroke="#d12771" stroke-miterlimit="10" stroke-width="0.5"/><polygon points="362.63 163.35 366.95 160.86 362.63 158.36 362.63 163.35" fill="#d12771"/><rect x="336.48" y="246.44" width="390.42" height="66.77" fill="#fff" stroke="#000" stroke-miterlimit="10" stroke-width="0.75"/><g id="Hardware_security_module" data-name="Hardware security module"><g id="HSM"><rect x="428.29" y="275.19" width="41.49" height="11.14" fill="#ede9e7"/><path d="M469.28,275.69v10.14H428.79V275.69h40.49m1-1H427.79v12.14h42.49V274.69Z" fill="#23292e"/><rect x="447.12" y="279.7" width="18.29" height="2.46" fill="#23292e"/><circle cx="442.62" cy="280.93" r="1.46" fill="#23292e"/><circle cx="438.05" cy="280.93" r="1.46" fill="#23292e"/><circle cx="433.47" cy="280.93" r="1.46" fill="#23292e"/><polygon points="428.6 274.19 431.06 269.32 466.51 269.32 469.4 274.19 428.6 274.19" fill="#a8a3a3"/><path d="M466.23,269.82l2.29,3.87H429.41l2-3.87h34.86m.57-1h-36l-3,5.87h42.49l-3.48-5.87Z" fill="#23292e"/></g></g><line x1="698.23" y1="160.86" x2="744.5" y2="160.86" fill="none" stroke="#d12771" stroke-miterlimit="10" stroke-width="0.75" stroke-dasharray="1.2 1.2"/><polygon points="698.94 163.29 694.73 160.86 698.94 158.43 698.94 163.29" fill="#d12771"/><line x1="744.5" y1="393.94" x2="705.51" y2="393.94" fill="none" stroke="#d12771" stroke-miterlimit="10" stroke-width="0.75" stroke-dasharray="1.2 1.2"/><polygon points="706.22 391.51 702.01 393.94 706.22 396.38 706.22 391.51" fill="#d12771"/><line x1="529.8" y1="112.3" x2="529.8" y2="166.93" fill="none" stroke="#c6c6c6" stroke-miterlimit="10" stroke-width="0.5" stroke-dasharray="1.2 2"/><rect x="540.55" y="112.9" width="140.18" height="54.63" fill="#d0e2ff" stroke="#000" stroke-miterlimit="10" stroke-width="0.5"/><path d="M432.21,427.74a2.3,2.3,0,0,1-1.26,1.45,6.56,6.56,0,0,1-1.81.66,17.69,17.69,0,0,1-3.83.42,36.94,36.94,0,0,1-7.63-.86,29.2,29.2,0,0,1-7.33-2.42,15.47,15.47,0,0,1-3.24-2.18,7,7,0,0,1-1.3-1.51,2.31,2.31,0,0,1-.34-1.95l.12,0a2.07,2.07,0,0,0,.67,1.6,6.51,6.51,0,0,0,1.37,1.18,21.6,21.6,0,0,0,3.25,1.75,49.84,49.84,0,0,0,7,2.57,37.27,37.27,0,0,0,7.42,1.19,18,18,0,0,0,3.74-.17,6.32,6.32,0,0,0,1.78-.53,2.08,2.08,0,0,0,1.25-1.26Z" fill="#f1c21b"/><polygon points="426.74 418.09 426.74 437.32 410.18 437.32 410.18 411.68 419.8 411.68 419.8 418.09 426.74 418.09" fill="#fff"/><path d="M420.12,411.14H409.44v26.71h17.81V418.27ZM426.36,437h-16V412h8.9v7.13h7.13Z"/><rect x="413" y="421.83" width="10.68" height="0.89"/><rect x="413" y="423.61" width="10.68" height="0.89"/><rect x="413" y="425.39" width="5.34" height="0.89"/><path d="M428,423.65l-5.59,5.59-2.23,2.23a5.26,5.26,0,0,0-5.82,1.59,5.28,5.28,0,1,0,9,1.6l2-2-.27-.26h0l.8-.8.27.26,5.06-5.06v-3.19Z" fill="#a6c8ff"/><path d="M428,423.27l-7.77,7.78a5.56,5.56,0,0,0-1.64-.24,5.65,5.65,0,1,0,5.65,5.64,5.91,5.91,0,0,0-.24-1.64l1.49-1.49v-1.26h1.26l5-5v-3.77Zm3.14,3.51-4.65,4.65h-1.62v1.63l-1.32,1.31-.26.27.1.36a4.77,4.77,0,0,1,.22,1.45,5,5,0,1,1-5-5,5.22,5.22,0,0,1,1.46.22l.36.11.26-.27,7.59-7.59h2.88Z"/><circle cx="417.25" cy="437.74" r="1.26"/><rect x="424.63" y="427.38" width="5.32" height="0.63" transform="translate(-177.28 427.41) rotate(-45)"/><ellipse cx="431.71" cy="438.44" rx="2.43" ry="2.65" fill="#fff"/><path d="M434.14,435a2.66,2.66,0,0,0-3.8-2.38,2.75,2.75,0,0,0-1.5,2.49v1.09a3.56,3.56,0,0,0-.8,3.11,3.53,3.53,0,1,0,6.1-3.11Zm-4.42,0a1.76,1.76,0,0,1,2.77-1.43,1.9,1.9,0,0,1,.77,1.56v.34a3.57,3.57,0,0,0-3.54,0Zm1.25,5.48-1.64-1.64.63-.62,1,1,2.34-2.34.62.63Z" fill="#24a148"/><path d="M405.47,421.35a2.29,2.29,0,0,1,1.26-1.44,6.7,6.7,0,0,1,1.81-.67,18.33,18.33,0,0,1,3.83-.41,36.93,36.93,0,0,1,7.63.85,29.34,29.34,0,0,1,7.33,2.42,15.86,15.86,0,0,1,3.24,2.18,6.79,6.79,0,0,1,1.3,1.52,2.28,2.28,0,0,1,.34,1.94l-.12,0a2.09,2.09,0,0,0-.67-1.6,6.47,6.47,0,0,0-1.37-1.17,21.55,21.55,0,0,0-3.24-1.76,50.39,50.39,0,0,0-7-2.56,35.88,35.88,0,0,0-7.42-1.19,18,18,0,0,0-3.74.16,6.67,6.67,0,0,0-1.78.53,2.08,2.08,0,0,0-1.25,1.26Z" fill="#f1c21b"/><path d="M492.31,427.74a2.26,2.26,0,0,1-1.25,1.45,6.62,6.62,0,0,1-1.82.66,17.63,17.63,0,0,1-3.83.42,37,37,0,0,1-7.63-.86,29,29,0,0,1-7.32-2.42,15.28,15.28,0,0,1-3.25-2.18,7.21,7.21,0,0,1-1.29-1.51,2.31,2.31,0,0,1-.35-1.95l.12,0a2.14,2.14,0,0,0,.67,1.6,7.05,7.05,0,0,0,1.37,1.18,21.6,21.6,0,0,0,3.25,1.75,50,50,0,0,0,7,2.57,37.17,37.17,0,0,0,7.41,1.19,18,18,0,0,0,3.75-.17A6.52,6.52,0,0,0,491,429a2.1,2.1,0,0,0,1.25-1.26Z" fill="#f1c21b"/><polygon points="486.85 418.09 486.85 437.32 470.29 437.32 470.29 411.68 479.9 411.68 479.9 418.09 486.85 418.09" fill="#fff"/><path d="M480.23,411.14H469.55v26.71h17.8V418.27ZM486.46,437h-16V412h8.9v7.13h7.12Z"/><rect x="473.11" y="421.83" width="10.68" height="0.89"/><rect x="473.11" y="423.61" width="10.68" height="0.89"/><rect x="473.11" y="425.39" width="5.34" height="0.89"/><path d="M488.09,423.65l-5.59,5.59-2.23,2.23a5.28,5.28,0,1,0,3.19,3.19l2-2-.26-.26h0l.8-.8.26.26,5.06-5.06v-3.19Z" fill="#a6c8ff"/><path d="M488.07,423.27l-7.78,7.78a5.51,5.51,0,0,0-1.64-.24,5.65,5.65,0,1,0,5.65,5.64,5.56,5.56,0,0,0-.24-1.64l1.5-1.49v-1.26h1.25l5-5v-3.77Zm3.14,3.51-4.66,4.65h-1.62v1.63l-1.31,1.31-.27.27.11.36a5.1,5.1,0,0,1,.22,1.45,5,5,0,1,1-5-5,5.11,5.11,0,0,1,1.46.22l.36.11.27-.27,7.59-7.59h2.88Z"/><circle cx="477.35" cy="437.74" r="1.26"/><rect x="484.73" y="427.38" width="5.32" height="0.63" transform="translate(-159.67 469.91) rotate(-45)"/><ellipse cx="491.81" cy="438.44" rx="2.43" ry="2.65" fill="#fff"/><path d="M494.24,435a2.66,2.66,0,0,0-3.8-2.38,2.75,2.75,0,0,0-1.5,2.49v1.09a3.54,3.54,0,1,0,5.3,0Zm-4.41,0a1.76,1.76,0,0,1,2.77-1.43,1.91,1.91,0,0,1,.76,1.56v.34a3.55,3.55,0,0,0-3.53,0Zm1.24,5.48-1.63-1.64.62-.62,1,1,2.34-2.34.63.63Z" fill="#24a148"/><path d="M465.57,421.35a2.29,2.29,0,0,1,1.26-1.44,6.65,6.65,0,0,1,1.82-.67,18.26,18.26,0,0,1,3.83-.41,37,37,0,0,1,7.63.85,29.4,29.4,0,0,1,7.32,2.42,15.66,15.66,0,0,1,3.25,2.18A7,7,0,0,1,492,425.8a2.25,2.25,0,0,1,.34,1.94l-.11,0a2.16,2.16,0,0,0-.67-1.6,7,7,0,0,0-1.37-1.17,21.65,21.65,0,0,0-3.25-1.76,49.93,49.93,0,0,0-7-2.56,35.77,35.77,0,0,0-7.42-1.19,18,18,0,0,0-3.74.16,6.89,6.89,0,0,0-1.78.53,2.08,2.08,0,0,0-1.25,1.26Z" fill="#f1c21b"/><path d="M552.42,427.74a2.3,2.3,0,0,1-1.26,1.45,6.62,6.62,0,0,1-1.82.66,17.53,17.53,0,0,1-3.82.42,36.94,36.94,0,0,1-7.63-.86,28.94,28.94,0,0,1-7.33-2.42,15.21,15.21,0,0,1-3.24-2.18,7,7,0,0,1-1.3-1.51,2.31,2.31,0,0,1-.34-1.95l.11,0a2.12,2.12,0,0,0,.68,1.6,6.51,6.51,0,0,0,1.37,1.18,21,21,0,0,0,3.24,1.75,50.43,50.43,0,0,0,7,2.57,37.27,37.27,0,0,0,7.42,1.19,18,18,0,0,0,3.74-.17,6.42,6.42,0,0,0,1.78-.53,2.08,2.08,0,0,0,1.25-1.26Z" fill="#f1c21b"/><polygon points="546.95 418.09 546.95 437.32 530.39 437.32 530.39 411.68 540.01 411.68 540.01 418.09 546.95 418.09" fill="#fff"/><path d="M540.33,411.14H529.65v26.71h17.8V418.27ZM546.56,437h-16V412h8.9v7.13h7.12Z"/><rect x="533.21" y="421.83" width="10.68" height="0.89"/><rect x="533.21" y="423.61" width="10.68" height="0.89"/><rect x="533.21" y="425.39" width="5.34" height="0.89"/><path d="M548.19,423.65l-5.59,5.59-2.23,2.23a5.26,5.26,0,1,0,3.2,3.19l2-2-.27-.26h0l.8-.8.27.26,5.06-5.06v-3.19Z" fill="#a6c8ff"/><path d="M548.17,423.27l-7.77,7.78a5.56,5.56,0,0,0-1.64-.24,5.65,5.65,0,1,0,5.65,5.64,5.57,5.57,0,0,0-.25-1.64l1.5-1.49v-1.26h1.26l5-5v-3.77Zm3.14,3.51-4.65,4.65H545v1.63l-1.31,1.31-.27.27.11.36a4.77,4.77,0,0,1,.22,1.45,5,5,0,1,1-5-5,5.22,5.22,0,0,1,1.46.22l.36.11.26-.27,7.59-7.59h2.88Z"/><circle cx="537.46" cy="437.74" r="1.26"/><rect x="544.84" y="427.38" width="5.32" height="0.63" transform="translate(-142.07 512.41) rotate(-45)"/><ellipse cx="551.92" cy="438.44" rx="2.43" ry="2.65" fill="#fff"/><path d="M554.35,435a2.66,2.66,0,0,0-3.8-2.38,2.73,2.73,0,0,0-1.5,2.49v1.09a3.53,3.53,0,1,0,5.3,0Zm-4.42,0a1.76,1.76,0,0,1,2.77-1.43,1.89,1.89,0,0,1,.76,1.56v.34a3.55,3.55,0,0,0-3.53,0Zm1.25,5.48-1.64-1.64.63-.62,1,1,2.34-2.34.62.63Z" fill="#24a148"/><path d="M525.68,421.35a2.24,2.24,0,0,1,1.25-1.44,6.77,6.77,0,0,1,1.82-.67,18.33,18.33,0,0,1,3.83-.41,36.93,36.93,0,0,1,7.63.85,29.61,29.61,0,0,1,7.33,2.42,15.86,15.86,0,0,1,3.24,2.18,7.06,7.06,0,0,1,1.3,1.52,2.31,2.31,0,0,1,.34,1.94l-.12,0a2.16,2.16,0,0,0-.67-1.6,6.73,6.73,0,0,0-1.37-1.17,21.65,21.65,0,0,0-3.25-1.76,49.8,49.8,0,0,0-7-2.56,35.88,35.88,0,0,0-7.42-1.19,18.1,18.1,0,0,0-3.75.16,6.71,6.71,0,0,0-1.77.53,2.12,2.12,0,0,0-1.26,1.26Z" fill="#f1c21b"/><path d="M612.52,427.74a2.26,2.26,0,0,1-1.25,1.45,6.74,6.74,0,0,1-1.82.66,17.69,17.69,0,0,1-3.83.42,36.94,36.94,0,0,1-7.63-.86,29.2,29.2,0,0,1-7.33-2.42,15.47,15.47,0,0,1-3.24-2.18,7.25,7.25,0,0,1-1.3-1.51,2.34,2.34,0,0,1-.34-1.95l.12,0a2.11,2.11,0,0,0,.67,1.6,6.51,6.51,0,0,0,1.37,1.18,21.6,21.6,0,0,0,3.25,1.75,49.84,49.84,0,0,0,7,2.57,37.27,37.27,0,0,0,7.42,1.19,18.1,18.1,0,0,0,3.75-.17,6.35,6.35,0,0,0,1.77-.53,2.12,2.12,0,0,0,1.26-1.26Z" fill="#f1c21b"/><polygon points="607.05 418.09 607.05 437.32 590.5 437.32 590.5 411.68 600.11 411.68 600.11 418.09 607.05 418.09" fill="#fff"/><path d="M600.44,411.14H589.75v26.71h17.81V418.27ZM606.67,437h-16V412h8.91v7.13h7.12Z"/><rect x="593.31" y="421.83" width="10.68" height="0.89"/><rect x="593.31" y="423.61" width="10.68" height="0.89"/><rect x="593.31" y="425.39" width="5.34" height="0.89"/><path d="M608.29,423.65l-5.59,5.59-2.22,2.23a5.28,5.28,0,1,0,3.19,3.19l2-2-.27-.26h0l.8-.8.27.26,5.06-5.06v-3.19Z" fill="#a6c8ff"/><path d="M608.28,423.27l-7.78,7.78a5.56,5.56,0,0,0-1.64-.24,5.65,5.65,0,1,0,5.65,5.64,5.91,5.91,0,0,0-.24-1.64l1.5-1.49v-1.26H607l5-5v-3.77Zm3.13,3.51-4.65,4.65h-1.62v1.63l-1.32,1.31-.26.27.11.36a5.09,5.09,0,0,1,.21,1.45,5,5,0,1,1-5-5,5.16,5.16,0,0,1,1.46.22l.36.11.26-.27,7.6-7.59h2.87Z"/><circle cx="597.56" cy="437.74" r="1.26"/><rect x="604.94" y="427.38" width="5.32" height="0.63" transform="translate(-124.47 554.91) rotate(-45)"/><ellipse cx="612.02" cy="438.44" rx="2.43" ry="2.65" fill="#fff"/><path d="M614.45,435a2.66,2.66,0,0,0-3.8-2.38,2.75,2.75,0,0,0-1.5,2.49v1.09a3.56,3.56,0,0,0-.8,3.11,3.53,3.53,0,1,0,6.1-3.11ZM610,435a1.75,1.75,0,0,1,2.76-1.43,1.9,1.9,0,0,1,.77,1.56v.34a3.55,3.55,0,0,0-3.53,0Zm1.24,5.48-1.63-1.64.62-.62,1,1,2.34-2.34.62.63Z" fill="#24a148"/><path d="M585.78,421.35a2.29,2.29,0,0,1,1.26-1.44,6.65,6.65,0,0,1,1.82-.67,18.16,18.16,0,0,1,3.82-.41,36.93,36.93,0,0,1,7.63.85,29.34,29.34,0,0,1,7.33,2.42,15.6,15.6,0,0,1,3.24,2.18,6.79,6.79,0,0,1,1.3,1.52,2.28,2.28,0,0,1,.34,1.94l-.11,0a2.13,2.13,0,0,0-.68-1.6,6.47,6.47,0,0,0-1.37-1.17,21.07,21.07,0,0,0-3.24-1.76,50.39,50.39,0,0,0-7-2.56,35.88,35.88,0,0,0-7.42-1.19,18,18,0,0,0-3.74.16,6.67,6.67,0,0,0-1.78.53,2.08,2.08,0,0,0-1.25,1.26Z" fill="#f1c21b"/><path d="M672.63,427.74a2.3,2.3,0,0,1-1.26,1.45,6.62,6.62,0,0,1-1.82.66,17.63,17.63,0,0,1-3.83.42,37,37,0,0,1-7.63-.86,29,29,0,0,1-7.32-2.42,15.28,15.28,0,0,1-3.25-2.18,7.21,7.21,0,0,1-1.29-1.51,2.27,2.27,0,0,1-.34-1.95l.11,0a2.14,2.14,0,0,0,.67,1.6,7.05,7.05,0,0,0,1.37,1.18,21.6,21.6,0,0,0,3.25,1.75,50,50,0,0,0,7,2.57,37.15,37.15,0,0,0,7.42,1.19,18,18,0,0,0,3.74-.17,6.52,6.52,0,0,0,1.78-.53,2.08,2.08,0,0,0,1.25-1.26Z" fill="#f1c21b"/><polygon points="667.16 418.09 667.16 437.32 650.6 437.32 650.6 411.68 660.21 411.68 660.21 418.09 667.16 418.09" fill="#fff"/><path d="M660.54,411.14H649.86v26.71h17.8V418.27ZM666.77,437h-16V412h8.9v7.13h7.12Z"/><rect x="653.42" y="421.83" width="10.68" height="0.89"/><rect x="653.42" y="423.61" width="10.68" height="0.89"/><rect x="653.42" y="425.39" width="5.34" height="0.89"/><path d="M668.4,423.65l-5.59,5.59-2.23,2.23a5.28,5.28,0,1,0,3.19,3.19l2-2-.26-.26h0l.8-.8.26.26,5.06-5.06v-3.19Z" fill="#a6c8ff"/><path d="M668.38,423.27l-7.78,7.78a5.45,5.45,0,0,0-1.63-.24,5.65,5.65,0,1,0,5.64,5.64,5.56,5.56,0,0,0-.24-1.64l1.5-1.49v-1.26h1.25l5-5v-3.77Zm3.14,3.51-4.66,4.65h-1.62v1.63l-1.31,1.31-.27.27.11.36a5.1,5.1,0,0,1,.22,1.45,5,5,0,1,1-5-5,5.1,5.1,0,0,1,1.45.22l.36.11.27-.27,7.59-7.59h2.88Z"/><circle cx="657.67" cy="437.74" r="1.26"/><rect x="665.04" y="427.38" width="5.32" height="0.63" transform="translate(-106.86 597.41) rotate(-45)"/><ellipse cx="672.13" cy="438.44" rx="2.43" ry="2.65" fill="#fff"/><path d="M674.55,435a2.66,2.66,0,0,0-3.8-2.38,2.74,2.74,0,0,0-1.49,2.49v1.09a3.54,3.54,0,1,0,5.29,0Zm-4.41,0a1.76,1.76,0,0,1,2.77-1.43,1.89,1.89,0,0,1,.76,1.56v.34a3.55,3.55,0,0,0-3.53,0Zm1.25,5.48-1.64-1.64.62-.62,1,1,2.33-2.34.63.63Z" fill="#24a148"/><path d="M645.89,421.35a2.24,2.24,0,0,1,1.25-1.44,6.65,6.65,0,0,1,1.82-.67,18.26,18.26,0,0,1,3.83-.41,37,37,0,0,1,7.63.85,29.4,29.4,0,0,1,7.32,2.42,15.66,15.66,0,0,1,3.25,2.18,7,7,0,0,1,1.29,1.52,2.28,2.28,0,0,1,.35,1.94l-.12,0a2.16,2.16,0,0,0-.67-1.6,7,7,0,0,0-1.37-1.17,21.65,21.65,0,0,0-3.25-1.76,49.93,49.93,0,0,0-7-2.56,35.78,35.78,0,0,0-7.41-1.19,18,18,0,0,0-3.75.16,6.89,6.89,0,0,0-1.78.53,2.1,2.1,0,0,0-1.25,1.26Z" fill="#f1c21b"/><path d="M871.38,157.31v9.62H815.11v-9.62m0-15v9.61h56.27v-9.61m-56.27-15v9.61h56.27V127.3m-56.27-15v9.61h56.27V112.3" fill="none" stroke="#000" stroke-linejoin="round" stroke-width="0.75"/><circle cx="448.97" cy="225.2" r="7.28" fill="#161616" stroke="#000" stroke-miterlimit="10" stroke-width="0.5"/><path d="M450.68,227.78h-3.39v-.62l1.7-1.53a4.72,4.72,0,0,0,.61-.69,1.33,1.33,0,0,0,.24-.75v-.08a1,1,0,0,0-.24-.72,1.17,1.17,0,0,0-1.43,0,1.42,1.42,0,0,0-.38.63l-.54-.2a1.58,1.58,0,0,1,.2-.44,1.48,1.48,0,0,1,.32-.39,1.58,1.58,0,0,1,.48-.27,2.06,2.06,0,0,1,.65-.1,2,2,0,0,1,.67.11,1.41,1.41,0,0,1,.5.31,1.31,1.31,0,0,1,.3.46,1.63,1.63,0,0,1,.11.59,1.92,1.92,0,0,1-.08.55,2.47,2.47,0,0,1-.24.49,4.58,4.58,0,0,1-.35.45,5,5,0,0,1-.47.44l-1.42,1.24h2.76Z" fill="#fff"/><circle cx="336.6" cy="141.43" r="7.28" fill="#161616" stroke="#000" stroke-miterlimit="10" stroke-width="0.5"/><path d="M335,144v-.53h1.46v-4.1h-.06l-1.28,1.2-.35-.39,1.34-1.26h1v4.55h1.34V144Z" fill="#fff"/><line x1="299.79" y1="568.5" x2="959.79" y2="568.5" fill="none" stroke="#a8a8a8" stroke-miterlimit="10" stroke-dasharray="1.2 1.2"/><circle cx="727.35" cy="393.94" r="7.28" fill="#161616" stroke="#000" stroke-miterlimit="10" stroke-width="0.5"/><path d="M727.93,396.49v-1h-2.51V395l2.2-3.55h.89V395h.76v.5h-.76v1Zm-2-1.5h2v-3.11h0Z" fill="#fff"/><g id="Page-1"><path id="Fill" d="M28,391.21H20.41a1.52,1.52,0,0,1-1.51-1.51v-7.59a1.52,1.52,0,0,1,1.51-1.52H28a1.52,1.52,0,0,1,1.52,1.52v7.59A1.52,1.52,0,0,1,28,391.21Zm-7.59-9.1v7.59H28v-7.59Zm15.18,4.55v3h-3v-3Zm0-1.52h-3A1.52,1.52,0,0,0,31,386.66v3a1.52,1.52,0,0,0,1.51,1.51h3a1.52,1.52,0,0,0,1.52-1.51v-3A1.52,1.52,0,0,0,35.59,385.14Zm0,9.11v3h-3v-3Zm0-1.52h-3A1.52,1.52,0,0,0,31,394.25v3a1.52,1.52,0,0,0,1.51,1.52h3a1.52,1.52,0,0,0,1.52-1.52v-3A1.52,1.52,0,0,0,35.59,392.73ZM28,394.25v3H25v-3Zm0-1.52H25a1.52,1.52,0,0,0-1.52,1.52v3A1.52,1.52,0,0,0,25,398.8h3a1.52,1.52,0,0,0,1.52-1.52v-3A1.52,1.52,0,0,0,28,392.73Z" fill-rule="evenodd"/></g><g id="Page-1-2" data-name="Page-1"><path id="Fill-2" data-name="Fill" d="M20.9,145.77H34V142.5a4.59,4.59,0,0,0-4.58-4.58H25.47a4.58,4.58,0,0,0-4.57,4.58Zm2-13.64a4.58,4.58,0,1,0,4.58-4.57A4.58,4.58,0,0,0,22.93,132.13Z" fill-rule="evenodd"/></g><line x1="698.23" y1="141.43" x2="760.43" y2="141.43" fill="none" stroke="#000" stroke-miterlimit="10" stroke-width="0.75" stroke-dasharray="1.2 1.2"/><polygon points="698.94 143.86 694.73 141.43 698.94 139 698.94 143.86"/><polygon points="759.72 143.86 763.93 141.43 759.72 139 759.72 143.86"/><path d="M617,199.91a1.18,1.18,0,0,1-.91.34,3.42,3.42,0,0,1-1-.13,8.82,8.82,0,0,1-1.78-.71,18.68,18.68,0,0,1-3.14-2.17,12.78,12.78,0,0,1-2.63-2.81,6.9,6.9,0,0,1-.83-1.78,3.74,3.74,0,0,1-.16-1,1.15,1.15,0,0,1,.4-.94l.07.07a1,1,0,0,0,0,.82,3.14,3.14,0,0,0,.35.8,13.21,13.21,0,0,0,1,1.47,36.15,36.15,0,0,0,2.35,2.79,18.71,18.71,0,0,0,2.85,2.33,9.32,9.32,0,0,0,1.62.86,3.42,3.42,0,0,0,.88.21,1,1,0,0,0,.82-.21Z" fill="#f1c21b"/><path d="M603.53,196.68a5.27,5.27,0,1,0,8.69,2l2-2-.26-.8H615l5.06-5.06v-3.2h-3.19l-5.6,5.59L609,195.44a5.27,5.27,0,0,0-5.5,1.24" fill="#ceaceb"/><path d="M616.83,187.25,609.05,195a5.91,5.91,0,0,0-1.64-.24,5.65,5.65,0,1,0,5.65,5.65,5.56,5.56,0,0,0-.24-1.64l1.5-1.5V196h1.25l5-5v-3.76Zm3.14,3.5-4.66,4.66h-1.62V197l-1.32,1.31-.26.27.11.36a5.1,5.1,0,0,1,.21,1.46,5,5,0,1,1-5-5,5.1,5.1,0,0,1,1.46.21l.36.11.27-.26,7.59-7.59H620Z" fill="#6e177d"/><circle cx="606.11" cy="201.71" r="1.26" fill="#6e177d"/><rect x="613.49" y="191.36" width="5.32" height="0.63" transform="translate(44.93 491.83) rotate(-45)" fill="#6e177d"/><ellipse cx="620.6" cy="202.42" rx="2.43" ry="2.65" fill="#fff"/><path d="M623,199a2.67,2.67,0,0,0-3.8-2.38,2.73,2.73,0,0,0-1.5,2.5v1.08a3.53,3.53,0,0,0,1.94,5.8,3.54,3.54,0,0,0,3.36-5.8Zm-4.42,0a1.76,1.76,0,0,1,2.77-1.43,1.92,1.92,0,0,1,.76,1.57v.34a3.49,3.49,0,0,0-3.53,0Zm1.25,5.48-1.64-1.63.63-.63,1,1,2.33-2.33.63.62Z" fill="#24a148"/><path d="M607,190.7a1.13,1.13,0,0,1,.9-.35,3.42,3.42,0,0,1,1,.13,9.21,9.21,0,0,1,1.78.72,17.91,17.91,0,0,1,3.14,2.17,12.73,12.73,0,0,1,2.63,2.8,7.25,7.25,0,0,1,.84,1.78,3.43,3.43,0,0,1,.15,1,1.2,1.2,0,0,1-.39.95l-.08-.07a1,1,0,0,0,0-.83,3.08,3.08,0,0,0-.35-.79,11,11,0,0,0-1-1.47,31,31,0,0,0-2.35-2.79,17.17,17.17,0,0,0-2.85-2.33,8.39,8.39,0,0,0-1.62-.86,3.37,3.37,0,0,0-.87-.22,1,1,0,0,0-.83.22Z" fill="#f1c21b"/><circle cx="727.35" cy="141.43" r="7.28" fill="#161616" stroke="#000" stroke-miterlimit="10" stroke-width="0.5"/><path d="M727.25,141a1.16,1.16,0,0,0,.8-.24.75.75,0,0,0,.26-.6v0a.71.71,0,0,0-.25-.61,1.06,1.06,0,0,0-.68-.21,1.12,1.12,0,0,0-.66.18,1.44,1.44,0,0,0-.41.47l-.46-.35a2.1,2.1,0,0,1,.24-.3,1.69,1.69,0,0,1,.32-.27,2.14,2.14,0,0,1,.43-.19,2.31,2.31,0,0,1,.56-.07,2,2,0,0,1,.61.09,1.32,1.32,0,0,1,.49.24,1,1,0,0,1,.33.41,1.08,1.08,0,0,1,.13.54,1.29,1.29,0,0,1-.08.45,1.08,1.08,0,0,1-.21.34,1.61,1.61,0,0,1-.32.25,2.26,2.26,0,0,1-.39.15v0a1.42,1.42,0,0,1,.41.14,1.21,1.21,0,0,1,.6.63,1.36,1.36,0,0,1,.09.51,1.47,1.47,0,0,1-.13.6,1.26,1.26,0,0,1-.36.47,1.53,1.53,0,0,1-.55.3,2.36,2.36,0,0,1-.72.11,2.12,2.12,0,0,1-.59-.07,1.94,1.94,0,0,1-.46-.2,1.6,1.6,0,0,1-.35-.28,2.08,2.08,0,0,1-.27-.32l.46-.35a2.27,2.27,0,0,0,.21.28,1.71,1.71,0,0,0,.25.22,1.64,1.64,0,0,0,.33.14,1.73,1.73,0,0,0,.42.05,1.21,1.21,0,0,0,.83-.25.88.88,0,0,0,.29-.7v-.06a.9.9,0,0,0-.28-.7,1.23,1.23,0,0,0-.85-.25h-.6V141Z" fill="#fff"/><path d="M846.84,144.46a1.17,1.17,0,0,1-.9.34,3.54,3.54,0,0,1-1-.13,8.82,8.82,0,0,1-1.78-.71,18.21,18.21,0,0,1-3.13-2.17,13,13,0,0,1-2.64-2.8,7.12,7.12,0,0,1-.83-1.79,3.67,3.67,0,0,1-.16-1,1.21,1.21,0,0,1,.4-.95l.07.07a1,1,0,0,0,0,.83,3.2,3.2,0,0,0,.34.79,13.21,13.21,0,0,0,1,1.47,34.17,34.17,0,0,0,2.36,2.79,17.78,17.78,0,0,0,2.85,2.33,9,9,0,0,0,1.62.86,3.25,3.25,0,0,0,.87.21,1,1,0,0,0,.83-.21Z" fill="#f1c21b"/><path d="M833.39,141.23a5.27,5.27,0,1,0,8.68,2l2-2-.27-.8h1.06l5.06-5.06v-3.2H846.7l-5.59,5.6L838.88,140a5.25,5.25,0,0,0-5.49,1.24" fill="#ceaceb"/><path d="M846.68,131.8l-7.77,7.77a5.91,5.91,0,0,0-1.64-.24,5.65,5.65,0,1,0,5.64,5.65,5.56,5.56,0,0,0-.24-1.64l1.5-1.5v-1.25h1.25l5-5V131.8Zm3.14,3.51L845.17,140h-1.63v1.62l-1.31,1.32-.27.26.11.36a5.22,5.22,0,0,1,.22,1.46,5,5,0,1,1-5-5,5.09,5.09,0,0,1,1.45.21l.36.11.27-.26,7.59-7.59h2.88Z" fill="#6e177d"/><circle cx="835.97" cy="146.26" r="1.26" fill="#6e177d"/><rect x="843.34" y="135.91" width="5.32" height="0.63" transform="translate(151.46 638.12) rotate(-45)" fill="#6e177d"/><ellipse cx="850.45" cy="146.97" rx="2.43" ry="2.65" fill="#fff"/><path d="M852.88,143.56a2.66,2.66,0,0,0-3.8-2.38,2.76,2.76,0,0,0-1.5,2.5v1.09a3.53,3.53,0,1,0,5.3,0Zm-4.42,0a1.76,1.76,0,0,1,2.77-1.43,1.93,1.93,0,0,1,.77,1.57V144a3.5,3.5,0,0,0-3.54,0Zm1.25,5.48-1.64-1.63.63-.63,1,1,2.34-2.34.62.62Z" fill="#24a148"/><path d="M836.83,135.25a1.14,1.14,0,0,1,.9-.34,3.54,3.54,0,0,1,1,.13,8.82,8.82,0,0,1,1.78.71,18.68,18.68,0,0,1,3.14,2.17,13,13,0,0,1,2.63,2.8,7.12,7.12,0,0,1,.83,1.79,3.67,3.67,0,0,1,.16,1,1.21,1.21,0,0,1-.4,1l-.07-.07a1,1,0,0,0,0-.83,3.2,3.2,0,0,0-.34-.79,13.21,13.21,0,0,0-1-1.47,34.17,34.17,0,0,0-2.36-2.79,17.78,17.78,0,0,0-2.85-2.33,9.23,9.23,0,0,0-1.61-.86,3.42,3.42,0,0,0-.88-.21,1,1,0,0,0-.83.21Z" fill="#f1c21b"/><path d="M486.28,602.29a1.15,1.15,0,0,1-.91.35,3.42,3.42,0,0,1-1-.13,9.44,9.44,0,0,1-1.78-.71,18.74,18.74,0,0,1-3.14-2.18,13,13,0,0,1-2.63-2.8A7.06,7.06,0,0,1,476,595a3.74,3.74,0,0,1-.16-1,1.14,1.14,0,0,1,.4-.94l.07.06a1,1,0,0,0,0,.83,3.46,3.46,0,0,0,.35.79,14.33,14.33,0,0,0,1,1.48A36.15,36.15,0,0,0,480,599a18.07,18.07,0,0,0,2.85,2.32,8.69,8.69,0,0,0,1.62.86,3.07,3.07,0,0,0,.88.22,1,1,0,0,0,.82-.22Z" fill="#f1c21b"/><path d="M472.82,599.06a5.28,5.28,0,1,0,8.69,2l2-2-.26-.8h1.06l5.06-5.06V590h-3.19l-5.6,5.59-2.22,2.23a5.29,5.29,0,0,0-5.5,1.23" fill="#ceaceb"/><path d="M486.12,589.63l-7.78,7.78a5.51,5.51,0,0,0-1.64-.24,5.65,5.65,0,1,0,5.65,5.64,5.56,5.56,0,0,0-.24-1.64l1.5-1.49v-1.26h1.25l5-5v-3.77Zm3.14,3.51-4.66,4.65H483v1.63l-1.31,1.31-.27.27.11.36a5.1,5.1,0,0,1,.22,1.45,5,5,0,1,1-5-5,5.11,5.11,0,0,1,1.46.22l.36.11.27-.27,7.59-7.59h2.88Z" fill="#6e177d"/><circle cx="475.4" cy="604.1" r="1.26" fill="#6e177d"/><rect x="482.78" y="593.74" width="5.32" height="0.63" transform="translate(-277.88 517.26) rotate(-45)" fill="#6e177d"/><ellipse cx="489.89" cy="604.8" rx="2.43" ry="2.65" fill="#fff"/><path d="M492.32,601.4a2.66,2.66,0,0,0-3.8-2.38,2.73,2.73,0,0,0-1.5,2.49v1.09a3.53,3.53,0,1,0,5.3,0Zm-4.42,0a1.76,1.76,0,0,1,2.77-1.43,1.89,1.89,0,0,1,.76,1.56v.34a3.55,3.55,0,0,0-3.53,0Zm1.25,5.48-1.64-1.64.63-.62,1,1,2.33-2.34.63.63Z" fill="#24a148"/><path d="M476.27,593.09a1.13,1.13,0,0,1,.9-.35,3.42,3.42,0,0,1,1,.13,8.94,8.94,0,0,1,1.78.71,18.46,18.46,0,0,1,3.14,2.17,13,13,0,0,1,2.63,2.81,6.93,6.93,0,0,1,.84,1.78,3.74,3.74,0,0,1,.16,1,1.19,1.19,0,0,1-.4.94l-.08-.07a1,1,0,0,0,0-.82,3.43,3.43,0,0,0-.34-.79,12.18,12.18,0,0,0-1-1.48,32.15,32.15,0,0,0-2.35-2.79,17.62,17.62,0,0,0-2.85-2.32,8.39,8.39,0,0,0-1.62-.86,2.93,2.93,0,0,0-.87-.22,1.06,1.06,0,0,0-.83.21Z" fill="#f1c21b"/><path d="M486.28,624.83a1.15,1.15,0,0,1-.91.35,3.42,3.42,0,0,1-1-.13,9.48,9.48,0,0,1-1.78-.72,18.68,18.68,0,0,1-3.14-2.17,13,13,0,0,1-2.63-2.8,7.06,7.06,0,0,1-.83-1.78,3.81,3.81,0,0,1-.16-1,1.14,1.14,0,0,1,.4-.94l.07.06a1,1,0,0,0,0,.83,3.46,3.46,0,0,0,.35.79,14.33,14.33,0,0,0,1,1.48,34.21,34.21,0,0,0,2.35,2.78,17.59,17.59,0,0,0,2.85,2.33,8.69,8.69,0,0,0,1.62.86,3.44,3.44,0,0,0,.88.22,1,1,0,0,0,.82-.22Z" fill="#f1c21b"/><path d="M472.82,621.6a5.28,5.28,0,1,0,8.69,2l2-2-.26-.8h1.06l5.06-5.06v-3.19h-3.19l-5.6,5.59-2.22,2.23a5.27,5.27,0,0,0-5.5,1.23" fill="#a6c8ff"/><path d="M486.12,612.17,478.34,620a5.52,5.52,0,0,0-1.64-.25,5.65,5.65,0,1,0,5.65,5.65,5.56,5.56,0,0,0-.24-1.64l1.5-1.5V621h1.25l5-5v-3.77Zm3.14,3.51-4.66,4.65H483V622l-1.31,1.32-.27.27.11.36a5.1,5.1,0,0,1,.22,1.45,5,5,0,1,1-5-5,4.78,4.78,0,0,1,1.46.22l.36.11.27-.27,7.59-7.59h2.88Z"/><circle cx="475.4" cy="626.64" r="1.26"/><rect x="482.78" y="616.28" width="5.32" height="0.63" transform="translate(-293.82 523.86) rotate(-45)"/><ellipse cx="489.89" cy="627.34" rx="2.43" ry="2.65" fill="#fff"/><path d="M492.32,623.94a2.66,2.66,0,0,0-3.8-2.38,2.73,2.73,0,0,0-1.5,2.49v1.09a3.53,3.53,0,1,0,5.3,0Zm-4.42,0a1.76,1.76,0,0,1,2.77-1.43,1.89,1.89,0,0,1,.76,1.56v.34a3.55,3.55,0,0,0-3.53,0Zm1.25,5.48-1.64-1.64.63-.62,1,1,2.33-2.34.63.63Z" fill="#24a148"/><path d="M476.27,615.63a1.13,1.13,0,0,1,.9-.35,3.42,3.42,0,0,1,1,.13,8.94,8.94,0,0,1,1.78.71,18.46,18.46,0,0,1,3.14,2.17,12.78,12.78,0,0,1,2.63,2.81,6.93,6.93,0,0,1,.84,1.78,3.74,3.74,0,0,1,.16,1,1.19,1.19,0,0,1-.4.94l-.08-.07a1,1,0,0,0,0-.82,3.5,3.5,0,0,0-.34-.8,12.9,12.9,0,0,0-1-1.47,32.15,32.15,0,0,0-2.35-2.79,18.23,18.23,0,0,0-2.85-2.33,8.34,8.34,0,0,0-1.62-.85,2.93,2.93,0,0,0-.87-.22,1,1,0,0,0-.83.21Z" fill="#f1c21b"/></g><g id="Text"><text transform="translate(502.89 627.92)" font-size="9" fill="#8d8d8d" font-family="IBMPlexSans, IBM Plex Sans">Wrapped data encryption key</text><text transform="translate(339.17 627.92)" font-size="9" fill="#8d8d8d" font-family="IBMPlexSans, IBM Plex Sans">Data encryption key</text><text transform="translate(504.28 605.38)" font-size="9" fill="#8d8d8d" font-family="IBMPlexSans, IBM Plex Sans">Wrapped root key</text><text transform="translate(339.04 605.38)" font-size="9" fill="#8d8d8d" font-family="IBMPlexSans, IBM Plex Sans">Root key</text><path d="M829.17,186.62a2.87,2.87,0,0,1-2.34-1.05l.8-.77a2.27,2.27,0,0,0,.72.57,2,2,0,0,0,.89.2,1.25,1.25,0,0,0,.83-.24.82.82,0,0,0,.28-.64.72.72,0,0,0-.18-.51,1.24,1.24,0,0,0-.68-.28l-.59-.09c-1.26-.2-1.88-.81-1.88-1.83a1.89,1.89,0,0,1,.15-.77,1.62,1.62,0,0,1,.46-.58,2.11,2.11,0,0,1,.71-.38,3.12,3.12,0,0,1,.95-.13,3,3,0,0,1,1.25.24,2.32,2.32,0,0,1,.9.69l-.81.77a1.82,1.82,0,0,0-.56-.47,1.74,1.74,0,0,0-.84-.18,1.26,1.26,0,0,0-.77.2.62.62,0,0,0-.26.54.63.63,0,0,0,.21.52,1.47,1.47,0,0,0,.67.25l.58.11a2.64,2.64,0,0,1,1.41.61,1.63,1.63,0,0,1,.46,1.22,2.09,2.09,0,0,1-.16.81,1.71,1.71,0,0,1-.46.63,2,2,0,0,1-.74.41A3,3,0,0,1,829.17,186.62Z"/><path d="M834.11,186.51a1.08,1.08,0,0,1-1.22-1.19v-2.58h-.69v-.93h.36a.46.46,0,0,0,.36-.12.6.6,0,0,0,.09-.36v-.8h1v1.28h1v.93h-1v2.84h.89v.93Z"/><path d="M837.87,186.62a2.33,2.33,0,0,1-.9-.17,1.92,1.92,0,0,1-.69-.5,2.1,2.1,0,0,1-.43-.78,3,3,0,0,1-.16-1,2.89,2.89,0,0,1,.16-1,2.14,2.14,0,0,1,.43-.77,1.78,1.78,0,0,1,.69-.49,2.16,2.16,0,0,1,.9-.18,2.21,2.21,0,0,1,.91.18,1.78,1.78,0,0,1,.69.49,2.32,2.32,0,0,1,.44.77,3.15,3.15,0,0,1,.15,1,3.22,3.22,0,0,1-.15,1,2.27,2.27,0,0,1-.44.78,1.92,1.92,0,0,1-.69.5A2.38,2.38,0,0,1,837.87,186.62Zm0-.93a.91.91,0,0,0,.72-.28,1.17,1.17,0,0,0,.26-.82v-.87a1.18,1.18,0,0,0-.26-.81,1.05,1.05,0,0,0-1.43,0,1.18,1.18,0,0,0-.26.81v.87a1.17,1.17,0,0,0,.26.82A.91.91,0,0,0,837.87,185.69Z"/><path d="M841.07,186.51v-4.7h1.16v1h0a1.78,1.78,0,0,1,.14-.36,1.07,1.07,0,0,1,.25-.31,1.28,1.28,0,0,1,.36-.22,1.48,1.48,0,0,1,.49-.08h.26v1.09h-.36a1.87,1.87,0,0,0-.89.17.61.61,0,0,0-.29.56v2.88Z"/><path d="M848.07,186.51a.81.81,0,0,1-.6-.22,1,1,0,0,1-.28-.59h-.05a1.1,1.1,0,0,1-.48.69,1.63,1.63,0,0,1-.89.23,1.5,1.5,0,0,1-1.1-.38,1.32,1.32,0,0,1-.39-1,1.2,1.2,0,0,1,.52-1.08,2.6,2.6,0,0,1,1.49-.36h.8v-.34a.84.84,0,0,0-.21-.61.87.87,0,0,0-.67-.22,1.09,1.09,0,0,0-.65.18,1.68,1.68,0,0,0-.42.42l-.68-.62a2,2,0,0,1,.69-.66,2.35,2.35,0,0,1,1.14-.25,2.13,2.13,0,0,1,1.45.44,1.55,1.55,0,0,1,.5,1.24v2.2h.47v.93Zm-1.91-.73a1.16,1.16,0,0,0,.66-.17.55.55,0,0,0,.27-.5v-.62h-.74c-.6,0-.9.2-.9.58v.15a.49.49,0,0,0,.18.42A.84.84,0,0,0,846.16,185.78Z"/><path d="M853.88,186.91a1.51,1.51,0,0,1-.13.65,1.08,1.08,0,0,1-.43.47,2.23,2.23,0,0,1-.76.29,5.3,5.3,0,0,1-1.14.1,5.65,5.65,0,0,1-1-.08,2.49,2.49,0,0,1-.68-.21.87.87,0,0,1-.38-.35.91.91,0,0,1-.12-.47.8.8,0,0,1,.22-.61,1.06,1.06,0,0,1,.62-.29v-.1a.75.75,0,0,1-.45-.28.82.82,0,0,1-.09-.82.91.91,0,0,1,.2-.24,1.24,1.24,0,0,1,.27-.17,1.59,1.59,0,0,1,.33-.1v0a1.37,1.37,0,0,1-.65-.55,1.53,1.53,0,0,1-.21-.81,1.48,1.48,0,0,1,.5-1.16,2.13,2.13,0,0,1,1.45-.44l.42,0a2.23,2.23,0,0,1,.39.09v-.15a.6.6,0,0,1,.67-.69h.73v.89h-1V182a1.36,1.36,0,0,1,.55.54,1.59,1.59,0,0,1,.18.77,1.44,1.44,0,0,1-.49,1.14,2.13,2.13,0,0,1-1.45.43,2.55,2.55,0,0,1-.72-.08.81.81,0,0,0-.24.17.37.37,0,0,0-.1.25c0,.24.21.36.61.36h1.26a1.83,1.83,0,0,1,1.26.35A1.28,1.28,0,0,1,853.88,186.91Zm-1.08.13a.4.4,0,0,0-.18-.35,1.17,1.17,0,0,0-.62-.13h-1.6a.59.59,0,0,0-.24.49.47.47,0,0,0,.22.42,1.36,1.36,0,0,0,.77.16h.57a1.68,1.68,0,0,0,.82-.15A.45.45,0,0,0,852.8,187Zm-1.38-3q.84,0,.84-.72v-.15c0-.47-.28-.71-.84-.71s-.85.24-.85.71v.15C850.57,183.84,850.85,184.08,851.42,184.08Z"/><path d="M856.45,186.62a2.35,2.35,0,0,1-.94-.18,1.89,1.89,0,0,1-.69-.49,2.27,2.27,0,0,1-.44-.78,3.51,3.51,0,0,1,0-2,2.09,2.09,0,0,1,.43-.76,1.8,1.8,0,0,1,.68-.5,2.25,2.25,0,0,1,.92-.18,2.3,2.3,0,0,1,1,.19,1.83,1.83,0,0,1,.67.52,2.23,2.23,0,0,1,.39.75,3,3,0,0,1,.13.91v.38h-3.12v.12a1,1,0,0,0,1.14,1.12,1.27,1.27,0,0,0,.71-.18,2.3,2.3,0,0,0,.49-.45l.62.69a1.87,1.87,0,0,1-.79.64A2.78,2.78,0,0,1,856.45,186.62Zm0-4.05a.93.93,0,0,0-.73.3,1.17,1.17,0,0,0-.27.8v.07h1.92v-.08a1.22,1.22,0,0,0-.23-.79A.83.83,0,0,0,856.43,182.57Z"/><path d="M806,194.5a5.87,5.87,0,0,1,.47-2.37,4.73,4.73,0,0,1,.52-.94,4.06,4.06,0,0,1,.63-.72h.69a5,5,0,0,0-.68.77,5.52,5.52,0,0,0-.51.92,6.39,6.39,0,0,0-.33,1,4.22,4.22,0,0,0-.12,1v.78a4.23,4.23,0,0,0,.12,1,5.75,5.75,0,0,0,.33,1,5.57,5.57,0,0,0,.52.92,3.74,3.74,0,0,0,.67.75h-.69a3.62,3.62,0,0,1-.63-.7,5.27,5.27,0,0,1-.51-.94,5.73,5.73,0,0,1-.35-1.13A5.88,5.88,0,0,1,806,194.5Z"/><path d="M810.74,197.42a2.2,2.2,0,0,1-.86-.17,2,2,0,0,1-.65-.49,2.23,2.23,0,0,1-.43-.77,3.64,3.64,0,0,1,0-2,2.14,2.14,0,0,1,.43-.77,1.83,1.83,0,0,1,.65-.49,2.2,2.2,0,0,1,.86-.17,2,2,0,0,1,.84.17,1.74,1.74,0,0,1,.63.47,2,2,0,0,1,.4.71,2.67,2.67,0,0,1,.14.91v.34h-3.34v.22a1.45,1.45,0,0,0,.1.55,1.16,1.16,0,0,0,.27.44,1.11,1.11,0,0,0,.43.3,1.5,1.5,0,0,0,.58.11,1.41,1.41,0,0,0,.77-.21,1.34,1.34,0,0,0,.51-.59l.51.37a1.73,1.73,0,0,1-.7.77A2.11,2.11,0,0,1,810.74,197.42Zm0-4.26a1.62,1.62,0,0,0-.54.1,1.12,1.12,0,0,0-.41.3,1.33,1.33,0,0,0-.28.44,1.64,1.64,0,0,0-.1.56v.06H812v-.1a1.4,1.4,0,0,0-.34-1A1.17,1.17,0,0,0,810.74,193.16Z"/><path d="M813.94,197.31v-4.64h.72v.74h0a1.43,1.43,0,0,1,.48-.62,1.36,1.36,0,0,1,.83-.23,1.46,1.46,0,0,1,1.14.46,1.89,1.89,0,0,1,.42,1.31v3h-.72v-2.86c0-.83-.35-1.25-1.06-1.25a1.84,1.84,0,0,0-.41.05,1.38,1.38,0,0,0-.37.16,1,1,0,0,0-.26.28.8.8,0,0,0-.09.39v3.23Z"/><path d="M820.78,197.42a2.18,2.18,0,0,1-.87-.17,1.9,1.9,0,0,1-.66-.49,2.2,2.2,0,0,1-.4-.76,3.71,3.71,0,0,1,0-2,2.2,2.2,0,0,1,.4-.76,1.78,1.78,0,0,1,.66-.49,2.18,2.18,0,0,1,.87-.17,1.87,1.87,0,0,1,1.11.3,1.82,1.82,0,0,1,.63.79l-.61.3a1,1,0,0,0-.41-.55,1.18,1.18,0,0,0-.72-.2,1.42,1.42,0,0,0-.57.1,1.18,1.18,0,0,0-.4.29,1.26,1.26,0,0,0-.25.44,2,2,0,0,0-.08.56v.79a1.52,1.52,0,0,0,.33,1,1.19,1.19,0,0,0,1,.39A1.31,1.31,0,0,0,822,196l.52.35a1.81,1.81,0,0,1-.67.8A2,2,0,0,1,820.78,197.42Z"/><path d="M823.58,197.31v-4.64h.72v.85h0a1.48,1.48,0,0,1,.45-.59,1.37,1.37,0,0,1,.89-.26H826v.72h-.42a1.59,1.59,0,0,0-.91.22.64.64,0,0,0-.33.55v3.15Z"/><path d="M829.74,192.67h.71l-2.07,5.72a2.88,2.88,0,0,1-.17.35.61.61,0,0,1-.49.33,1.74,1.74,0,0,1-.43,0h-.36v-.64h.73l.35-1-1.74-4.81H827l1.12,3.15.21.75h0l.25-.75Z"/><path d="M831.37,192.67h.72v.74h0a1.26,1.26,0,0,1,.53-.64,1.55,1.55,0,0,1,.83-.21,1.79,1.79,0,0,1,.78.17,1.75,1.75,0,0,1,.6.49,2.35,2.35,0,0,1,.38.76,4,4,0,0,1,0,2,2.35,2.35,0,0,1-.38.76,1.88,1.88,0,0,1-.6.49,1.79,1.79,0,0,1-.78.17,1.41,1.41,0,0,1-1.36-.86h0v2.55h-.72Zm1.92,4.11a1.24,1.24,0,0,0,1-.38,1.43,1.43,0,0,0,.35-1v-.8a1.41,1.41,0,0,0-.35-1,1.24,1.24,0,0,0-1-.38,1.39,1.39,0,0,0-.46.07,1.17,1.17,0,0,0-.39.18.78.78,0,0,0-.25.29.64.64,0,0,0-.1.35v1.74a.77.77,0,0,0,.1.4.81.81,0,0,0,.25.3,1.42,1.42,0,0,0,.39.19A1.7,1.7,0,0,0,833.29,196.78Z"/><path d="M837.62,197.31a.74.74,0,0,1-.57-.21.79.79,0,0,1-.2-.55v-3.24h-.76v-.64h.43a.4.4,0,0,0,.32-.1.47.47,0,0,0,.08-.33v-.86h.65v1.29h1v.64h-1v3.36h.95v.64Z"/><path d="M841.5,197.42a2.13,2.13,0,0,1-.86-.17,1.9,1.9,0,0,1-.66-.49,2.38,2.38,0,0,1-.42-.77,3.41,3.41,0,0,1,0-2,2.28,2.28,0,0,1,.42-.77,1.78,1.78,0,0,1,.66-.49,2.13,2.13,0,0,1,.86-.17,2,2,0,0,1,.83.17,1.74,1.74,0,0,1,.63.47,2.17,2.17,0,0,1,.41.71,2.94,2.94,0,0,1,.13.91v.34h-3.33v.22a1.67,1.67,0,0,0,.09.55,1.16,1.16,0,0,0,.27.44,1.19,1.19,0,0,0,.43.3,1.54,1.54,0,0,0,.58.11,1.39,1.39,0,0,0,.77-.21,1.34,1.34,0,0,0,.51-.59l.51.37a1.73,1.73,0,0,1-.7.77A2.07,2.07,0,0,1,841.5,197.42Zm0-4.26a1.53,1.53,0,0,0-.54.1,1.15,1.15,0,0,0-.42.3,1.33,1.33,0,0,0-.28.44,1.64,1.64,0,0,0-.09.56v.06h2.56v-.1a1.4,1.4,0,0,0-.34-1A1.16,1.16,0,0,0,841.5,193.16Z"/><path d="M847.66,196.56h0a1.43,1.43,0,0,1-1.36.86,1.86,1.86,0,0,1-.79-.17,1.74,1.74,0,0,1-.59-.49,2,2,0,0,1-.38-.76,4,4,0,0,1,0-2,2,2,0,0,1,.38-.76,1.63,1.63,0,0,1,.59-.49,1.86,1.86,0,0,1,.79-.17,1.57,1.57,0,0,1,.83.21,1.31,1.31,0,0,1,.53.64h0v-2.76h.72v6.66h-.72Zm-1.2.22a1.78,1.78,0,0,0,.47-.06,1.35,1.35,0,0,0,.38-.19.94.94,0,0,0,.26-.3.87.87,0,0,0,.09-.4v-1.74a.73.73,0,0,0-.09-.35.91.91,0,0,0-.26-.29,1.11,1.11,0,0,0-.38-.18,1.45,1.45,0,0,0-.47-.07,1.27,1.27,0,0,0-1,.38,1.46,1.46,0,0,0-.35,1v.8a1.48,1.48,0,0,0,.35,1A1.27,1.27,0,0,0,846.46,196.78Z"/><path d="M855.41,197.31a.69.69,0,0,1-.58-.22,1,1,0,0,1-.22-.54h-.05a1.19,1.19,0,0,1-.5.65,1.5,1.5,0,0,1-.84.22,1.62,1.62,0,0,1-1.14-.38,1.3,1.3,0,0,1-.41-1,1.16,1.16,0,0,1,.48-1,2.52,2.52,0,0,1,1.5-.35h.91v-.46a1,1,0,0,0-.27-.76,1.15,1.15,0,0,0-.82-.26,1.21,1.21,0,0,0-.71.19,1.41,1.41,0,0,0-.47.5l-.43-.4a1.61,1.61,0,0,1,.6-.65,1.93,1.93,0,0,1,1-.26,2,2,0,0,1,1.32.41,1.46,1.46,0,0,1,.46,1.15v2.55h.54v.64Zm-2.07-.5a1.59,1.59,0,0,0,.5-.07,1.11,1.11,0,0,0,.38-.18.72.72,0,0,0,.25-.27.63.63,0,0,0,.09-.33v-.76h-.95a1.71,1.71,0,0,0-.9.18.58.58,0,0,0-.29.52v.19a.63.63,0,0,0,.25.53A1.11,1.11,0,0,0,853.34,196.81Z"/><path d="M857.87,197.31a.74.74,0,0,1-.57-.21.79.79,0,0,1-.2-.55v-3.24h-.76v-.64h.43a.4.4,0,0,0,.32-.1.47.47,0,0,0,.08-.33v-.86h.65v1.29h1v.64h-1v3.36h.95v.64Z"/><path d="M862.12,197.31v-4.64h.72v.85h0a1.32,1.32,0,0,1,.45-.59,1.35,1.35,0,0,1,.89-.26h.28v.72h-.42a1.63,1.63,0,0,0-.92.22.64.64,0,0,0-.33.55v3.15Z"/><path d="M867.17,197.42a2.2,2.2,0,0,1-.86-.17,2,2,0,0,1-.65-.49,2.23,2.23,0,0,1-.43-.77,3.64,3.64,0,0,1,0-2,2.14,2.14,0,0,1,.43-.77,1.83,1.83,0,0,1,.65-.49,2.2,2.2,0,0,1,.86-.17,2,2,0,0,1,.84.17,1.74,1.74,0,0,1,.63.47,2,2,0,0,1,.4.71,2.94,2.94,0,0,1,.14.91v.34h-3.34v.22a1.45,1.45,0,0,0,.1.55,1.16,1.16,0,0,0,.27.44,1.11,1.11,0,0,0,.43.3,1.5,1.5,0,0,0,.58.11,1.41,1.41,0,0,0,.77-.21,1.34,1.34,0,0,0,.51-.59l.51.37a1.73,1.73,0,0,1-.7.77A2.11,2.11,0,0,1,867.17,197.42Zm0-4.26a1.62,1.62,0,0,0-.54.1,1.12,1.12,0,0,0-.41.3,1.33,1.33,0,0,0-.28.44,1.64,1.64,0,0,0-.1.56v.06h2.57v-.1a1.45,1.45,0,0,0-.34-1A1.18,1.18,0,0,0,867.17,193.16Z"/><path d="M871.76,197.42a2.11,2.11,0,0,1-1.08-.25,2.35,2.35,0,0,1-.75-.66l.51-.41a2.08,2.08,0,0,0,.6.52,1.53,1.53,0,0,0,.78.19,1.15,1.15,0,0,0,.71-.2.67.67,0,0,0,.26-.56.65.65,0,0,0-.18-.46,1,1,0,0,0-.63-.27l-.37,0a3.19,3.19,0,0,1-.59-.14,2.17,2.17,0,0,1-.48-.25,1.11,1.11,0,0,1-.31-.4,1.18,1.18,0,0,1-.11-.55,1.4,1.4,0,0,1,.12-.6,1.23,1.23,0,0,1,.35-.43,1.64,1.64,0,0,1,.53-.26,2.69,2.69,0,0,1,.65-.08,1.94,1.94,0,0,1,1,.2,2,2,0,0,1,.67.55l-.47.43a1.44,1.44,0,0,0-1.2-.57,1,1,0,0,0-.68.19.67.67,0,0,0-.23.53.57.57,0,0,0,.23.5,1.75,1.75,0,0,0,.66.22l.36,0a1.94,1.94,0,0,1,1.1.45,1.16,1.16,0,0,1,.32.86A1.3,1.3,0,0,1,873,197,1.86,1.86,0,0,1,871.76,197.42Z"/><path d="M875.78,197.31a.73.73,0,0,1-.57-.21.79.79,0,0,1-.2-.55v-3.24h-.76v-.64h.43a.41.41,0,0,0,.32-.1.47.47,0,0,0,.08-.33v-.86h.65v1.29h1v.64h-1v3.36h.95v.64Z"/><path d="M879.41,194.5a5.88,5.88,0,0,1-.13,1.27,5.73,5.73,0,0,1-.35,1.13,4.73,4.73,0,0,1-.52.94,3.07,3.07,0,0,1-.63.7h-.68a3.74,3.74,0,0,0,.67-.75,6.4,6.4,0,0,0,.52-.92,5.75,5.75,0,0,0,.33-1,4.23,4.23,0,0,0,.12-1v-.78a4.22,4.22,0,0,0-.12-1,6.39,6.39,0,0,0-.33-1,5.52,5.52,0,0,0-.51-.92,5,5,0,0,0-.68-.77h.68a3.74,3.74,0,0,1,.64.72,5.3,5.3,0,0,1,.52.94,5.87,5.87,0,0,1,.47,2.37Z"/><text transform="translate(506.05 470.01)" font-size="9" font-family="IBMPlexSans-SemiBold, IBM Plex Sans" font-weight="600">Service instance</text><text transform="translate(367.11 360.49)" font-size="10" font-family="IBMPlexSans-SemiBold, IBM Plex Sans" font-weight="600">Cloud services</text><path d="M198.43,409.58l-.56-1.65h-2.25l-.56,1.65h-.68l2-5.59h.86l1.95,5.59Zm-1.67-5h0l-.94,2.71h1.93Z"/><path d="M201.54,409.67a1.94,1.94,0,0,1-.78-.15,1.66,1.66,0,0,1-.58-.43,1.93,1.93,0,0,1-.36-.68,3.16,3.16,0,0,1-.12-.9,3,3,0,0,1,.12-.89,1.77,1.77,0,0,1,.36-.68,1.57,1.57,0,0,1,.58-.44,1.94,1.94,0,0,1,.78-.15,1.53,1.53,0,0,1,1.54,1l-.53.27a1,1,0,0,0-.37-.5,1.17,1.17,0,0,0-.64-.17,1.36,1.36,0,0,0-.51.09,1,1,0,0,0-.36.26,1.22,1.22,0,0,0-.21.39,1.59,1.59,0,0,0-.07.5v.7a1.29,1.29,0,0,0,.29.89,1,1,0,0,0,.86.35,1.16,1.16,0,0,0,1.12-.72l.46.32a1.7,1.7,0,0,1-.59.71A1.82,1.82,0,0,1,201.54,409.67Z"/><path d="M205.56,409.67a1.89,1.89,0,0,1-.77-.15,1.57,1.57,0,0,1-.58-.43,1.93,1.93,0,0,1-.36-.68,2.84,2.84,0,0,1-.13-.9,2.73,2.73,0,0,1,.13-.89,1.77,1.77,0,0,1,.36-.68,1.49,1.49,0,0,1,.58-.44,1.89,1.89,0,0,1,.77-.15,1.66,1.66,0,0,1,1,.27,1.68,1.68,0,0,1,.56.7l-.54.27a1,1,0,0,0-.37-.5,1.15,1.15,0,0,0-.64-.17,1.28,1.28,0,0,0-.5.09.88.88,0,0,0-.36.26,1.07,1.07,0,0,0-.22.39,1.59,1.59,0,0,0-.07.5v.7a1.34,1.34,0,0,0,.29.89,1,1,0,0,0,.86.35,1.16,1.16,0,0,0,1.12-.72l.47.32a1.8,1.8,0,0,1-.6.71A1.78,1.78,0,0,1,205.56,409.67Z"/><path d="M209.6,409.67a1.84,1.84,0,0,1-.76-.15,1.69,1.69,0,0,1-.59-.44,2,2,0,0,1-.37-.68,2.73,2.73,0,0,1-.13-.89,2.82,2.82,0,0,1,.13-.89,2.12,2.12,0,0,1,.37-.68,1.69,1.69,0,0,1,.59-.44,1.84,1.84,0,0,1,.76-.15,1.79,1.79,0,0,1,.75.15,1.76,1.76,0,0,1,.56.42,1.93,1.93,0,0,1,.35.63,2.64,2.64,0,0,1,.13.81v.3h-3v.2a1.57,1.57,0,0,0,.08.49,1.28,1.28,0,0,0,.24.39,1.09,1.09,0,0,0,.39.27,1.36,1.36,0,0,0,.51.09,1.31,1.31,0,0,0,.69-.18,1.24,1.24,0,0,0,.45-.53l.45.33a1.53,1.53,0,0,1-.62.69A1.92,1.92,0,0,1,209.6,409.67Zm0-3.78a1.28,1.28,0,0,0-.48.09,1.08,1.08,0,0,0-.37.26,1.11,1.11,0,0,0-.24.39,1.35,1.35,0,0,0-.09.5v.05h2.28v-.08a1.25,1.25,0,0,0-.3-.88A1,1,0,0,0,209.6,405.89Z"/><path d="M213.68,409.67a1.89,1.89,0,0,1-1-.22,2.21,2.21,0,0,1-.67-.59l.46-.36a1.76,1.76,0,0,0,.53.46,1.41,1.41,0,0,0,.69.17,1,1,0,0,0,.64-.18.59.59,0,0,0,.22-.49.62.62,0,0,0-.15-.42,1,1,0,0,0-.57-.23l-.32-.05a2.57,2.57,0,0,1-.53-.13,1.4,1.4,0,0,1-.42-.22.87.87,0,0,1-.28-.35,1.07,1.07,0,0,1-.1-.49,1.22,1.22,0,0,1,.11-.53,1,1,0,0,1,.31-.38,1.15,1.15,0,0,1,.47-.23,2.14,2.14,0,0,1,.58-.08,1.74,1.74,0,0,1,1.44.67l-.42.38a1.4,1.4,0,0,0-.4-.35,1.36,1.36,0,0,0-.67-.15.88.88,0,0,0-.6.17.57.57,0,0,0-.21.47.5.5,0,0,0,.21.44,1.46,1.46,0,0,0,.59.19l.32.05a1.68,1.68,0,0,1,1,.4,1,1,0,0,1,.29.76,1.19,1.19,0,0,1-.41.95A1.67,1.67,0,0,1,213.68,409.67Z"/><path d="M217.58,409.67a1.91,1.91,0,0,1-1-.22,2.18,2.18,0,0,1-.66-.59l.45-.36a1.79,1.79,0,0,0,.54.46,1.38,1.38,0,0,0,.69.17,1,1,0,0,0,.63-.18.59.59,0,0,0,.23-.49.58.58,0,0,0-.16-.42,1,1,0,0,0-.56-.23l-.33-.05a2.74,2.74,0,0,1-.53-.13,1.4,1.4,0,0,1-.42-.22,1,1,0,0,1-.28-.35,1.22,1.22,0,0,1-.1-.49,1.09,1.09,0,0,1,.12-.53.94.94,0,0,1,.3-.38,1.29,1.29,0,0,1,.47-.23,2.21,2.21,0,0,1,.59-.08,1.8,1.8,0,0,1,.84.18,1.75,1.75,0,0,1,.6.49l-.43.38a1.27,1.27,0,0,0-.4-.35,1.32,1.32,0,0,0-.66-.15.91.91,0,0,0-.61.17.59.59,0,0,0-.2.47.52.52,0,0,0,.2.44,1.57,1.57,0,0,0,.59.19l.32.05a1.69,1.69,0,0,1,1,.4,1,1,0,0,1,.29.76,1.19,1.19,0,0,1-.41.95A1.68,1.68,0,0,1,217.58,409.67Z"/><path d="M223.67,409.67a1.87,1.87,0,0,1-.76-.15,1.57,1.57,0,0,1-.58-.44,1.88,1.88,0,0,1-.38-.68,2.73,2.73,0,0,1-.13-.89,2.82,2.82,0,0,1,.13-.89,2,2,0,0,1,.38-.68,1.57,1.57,0,0,1,.58-.44,1.87,1.87,0,0,1,.76-.15,1.79,1.79,0,0,1,.75.15,1.65,1.65,0,0,1,.56.42,1.93,1.93,0,0,1,.35.63,2.37,2.37,0,0,1,.13.81v.3h-3v.2a1.57,1.57,0,0,0,.08.49,1.28,1.28,0,0,0,.24.39,1.19,1.19,0,0,0,.39.27,1.36,1.36,0,0,0,.51.09,1.29,1.29,0,0,0,.69-.18,1.24,1.24,0,0,0,.45-.53l.46.33a1.61,1.61,0,0,1-.63.69A1.92,1.92,0,0,1,223.67,409.67Zm0-3.78a1.28,1.28,0,0,0-.48.09,1.18,1.18,0,0,0-.37.26,1.28,1.28,0,0,0-.24.39,1.35,1.35,0,0,0-.09.5v.05h2.28v-.08a1.25,1.25,0,0,0-.3-.88A1,1,0,0,0,223.67,405.89Z"/><path d="M226.51,409.58v-4.13h.64v.66h0a1.31,1.31,0,0,1,.42-.55,1.2,1.2,0,0,1,.74-.21,1.33,1.33,0,0,1,1,.41,1.74,1.74,0,0,1,.37,1.17v2.65h-.64V407c0-.74-.31-1.11-.94-1.11a1.5,1.5,0,0,0-.37.05,1,1,0,0,0-.32.14.68.68,0,0,0-.23.25.65.65,0,0,0-.09.35v2.87Z"/><path d="M232.59,409.67a1.92,1.92,0,0,1-.77-.15,1.66,1.66,0,0,1-.58-.43,1.93,1.93,0,0,1-.36-.68,3.15,3.15,0,0,1-.13-.9,3,3,0,0,1,.13-.89,1.77,1.77,0,0,1,.36-.68,1.57,1.57,0,0,1,.58-.44,1.92,1.92,0,0,1,.77-.15,1.66,1.66,0,0,1,1,.27,1.61,1.61,0,0,1,.56.7l-.54.27a1,1,0,0,0-.37-.5,1.15,1.15,0,0,0-.64-.17,1.28,1.28,0,0,0-.5.09,1,1,0,0,0-.36.26,1.07,1.07,0,0,0-.22.39,2,2,0,0,0-.07.5v.7a1.34,1.34,0,0,0,.29.89,1.05,1.05,0,0,0,.86.35,1.16,1.16,0,0,0,1.12-.72l.47.32a1.72,1.72,0,0,1-.6.71A1.78,1.78,0,0,1,232.59,409.67Z"/><path d="M235.08,409.58v-4.13h.64v.76h0a1.27,1.27,0,0,1,.4-.53,1.2,1.2,0,0,1,.79-.23h.25v.64h-.37a1.49,1.49,0,0,0-.82.19.59.59,0,0,0-.29.5v2.8Z"/><path d="M240.56,405.45h.63l-1.84,5.09a2.09,2.09,0,0,1-.15.3.56.56,0,0,1-.17.2.67.67,0,0,1-.26.1,2.09,2.09,0,0,1-.38,0h-.33v-.56h.65l.31-.88-1.55-4.28h.64l1,2.8.19.67h0l.22-.67Z"/><path d="M242,405.45h.64v.66h0a1.12,1.12,0,0,1,.47-.57,1.34,1.34,0,0,1,.74-.19,1.47,1.47,0,0,1,1.23.59,1.88,1.88,0,0,1,.33.68,3,3,0,0,1,.12.89,3.16,3.16,0,0,1-.12.9,2.05,2.05,0,0,1-.33.68,1.68,1.68,0,0,1-.53.43,1.6,1.6,0,0,1-.7.15,1.25,1.25,0,0,1-1.21-.76h0v2.26H242Zm1.7,3.65a1.09,1.09,0,0,0,.86-.34,1.25,1.25,0,0,0,.31-.89v-.71a1.28,1.28,0,0,0-.31-.9,1.09,1.09,0,0,0-.86-.34,1.4,1.4,0,0,0-.41.06,1.19,1.19,0,0,0-.34.16,1,1,0,0,0-.23.26.68.68,0,0,0-.08.31v1.55a.86.86,0,0,0,.08.36,1,1,0,0,0,.23.26,1.2,1.2,0,0,0,.34.17A1.84,1.84,0,0,0,243.71,409.1Z"/><path d="M247.56,409.58a.69.69,0,0,1-.51-.19.73.73,0,0,1-.17-.49V406h-.68v-.57h.39a.36.36,0,0,0,.28-.09.42.42,0,0,0,.08-.29v-.77h.57v1.15h.91V406h-.91v3h.84v.57Z"/><path d="M251,409.67a1.84,1.84,0,0,1-.76-.15,1.61,1.61,0,0,1-.59-.44,1.86,1.86,0,0,1-.37-.68,2.72,2.72,0,0,1-.14-.89,2.81,2.81,0,0,1,.14-.89,1.94,1.94,0,0,1,.37-.68,1.61,1.61,0,0,1,.59-.44,1.84,1.84,0,0,1,.76-.15,1.75,1.75,0,0,1,.74.15,1.56,1.56,0,0,1,.56.42,1.79,1.79,0,0,1,.36.63,2.64,2.64,0,0,1,.12.81v.3h-3v.2a1.33,1.33,0,0,0,.08.49,1.28,1.28,0,0,0,.24.39,1.05,1.05,0,0,0,.38.27,1.46,1.46,0,0,0,.52.09,1.25,1.25,0,0,0,.68-.18,1.2,1.2,0,0,0,.46-.53l.45.33a1.53,1.53,0,0,1-.62.69A2,2,0,0,1,251,409.67Zm0-3.78a1.21,1.21,0,0,0-.48.09,1.08,1.08,0,0,0-.37.26,1.14,1.14,0,0,0-.25.39,1.35,1.35,0,0,0-.08.5v.05h2.28v-.08a1.25,1.25,0,0,0-.3-.88A1,1,0,0,0,251,405.89Z"/><path d="M256.49,408.91h0a1.26,1.26,0,0,1-1.21.76,1.6,1.6,0,0,1-.7-.15,1.68,1.68,0,0,1-.53-.43,1.88,1.88,0,0,1-.33-.68,3.16,3.16,0,0,1-.12-.9,3,3,0,0,1,.12-.89,1.73,1.73,0,0,1,.33-.68,1.47,1.47,0,0,1,1.23-.59,1.36,1.36,0,0,1,.74.19,1.17,1.17,0,0,1,.47.57h0v-2.45h.64v5.92h-.64Zm-1.06.19a1.84,1.84,0,0,0,.41-.05,1.2,1.2,0,0,0,.34-.17,1,1,0,0,0,.23-.26.86.86,0,0,0,.08-.36v-1.55a.68.68,0,0,0-.08-.31,1,1,0,0,0-.23-.26,1.19,1.19,0,0,0-.34-.16,1.4,1.4,0,0,0-.41-.06,1.09,1.09,0,0,0-.86.34,1.28,1.28,0,0,0-.31.9v.71a1.25,1.25,0,0,0,.31.89A1.09,1.09,0,0,0,255.43,409.1Z"/><path d="M197.51,418.51h0a1.25,1.25,0,0,1-1.21.76,1.58,1.58,0,0,1-.69-.15,1.48,1.48,0,0,1-.53-.43,2.07,2.07,0,0,1-.34-.68,3.44,3.44,0,0,1,0-1.8,1.92,1.92,0,0,1,.34-.67,1.41,1.41,0,0,1,.53-.44,1.58,1.58,0,0,1,.69-.15,1.34,1.34,0,0,1,.74.19,1.08,1.08,0,0,1,.47.57h0v-2.46h.64v5.92h-.64Zm-1.06.19a1.84,1.84,0,0,0,.41-.05,1.08,1.08,0,0,0,.34-.17.82.82,0,0,0,.23-.26.73.73,0,0,0,.08-.36v-1.55a.58.58,0,0,0-.08-.31.82.82,0,0,0-.23-.26,1.07,1.07,0,0,0-.34-.16,1.4,1.4,0,0,0-.41-.06,1.11,1.11,0,0,0-.86.34,1.33,1.33,0,0,0-.31.9v.7a1.33,1.33,0,0,0,.31.9A1.11,1.11,0,0,0,196.45,418.7Z"/><path d="M202.51,419.17A.6.6,0,0,1,202,419a1,1,0,0,1-.2-.48h0a1.06,1.06,0,0,1-.45.58,1.34,1.34,0,0,1-.74.19,1.41,1.41,0,0,1-1-.34,1.17,1.17,0,0,1-.36-.91,1,1,0,0,1,.42-.89,2.28,2.28,0,0,1,1.34-.32h.81v-.4a.91.91,0,0,0-.24-.68,1,1,0,0,0-.73-.23,1.14,1.14,0,0,0-.63.17,1.3,1.3,0,0,0-.42.45l-.39-.36a1.47,1.47,0,0,1,.54-.57,1.67,1.67,0,0,1,.93-.24,1.69,1.69,0,0,1,1.17.37,1.3,1.3,0,0,1,.41,1v2.27h.47v.56Zm-1.84-.44a1.51,1.51,0,0,0,.44-.06,1.13,1.13,0,0,0,.35-.16.83.83,0,0,0,.22-.24.52.52,0,0,0,.08-.3v-.68h-.85a1.51,1.51,0,0,0-.8.17.5.5,0,0,0-.25.46v.17a.55.55,0,0,0,.22.47A.94.94,0,0,0,200.67,418.73Z"/><path d="M204.7,419.17a.67.67,0,0,1-.51-.18.73.73,0,0,1-.17-.49v-2.88h-.68v-.57h.38A.37.37,0,0,0,204,415a.42.42,0,0,0,.07-.29v-.77h.58v1.15h.9v.57h-.9v3h.84v.56Z"/><path d="M209.59,419.17a.6.6,0,0,1-.51-.19,1,1,0,0,1-.2-.48h0a1.06,1.06,0,0,1-.45.58,1.34,1.34,0,0,1-.74.19,1.41,1.41,0,0,1-1-.34,1.17,1.17,0,0,1-.36-.91,1,1,0,0,1,.42-.89,2.28,2.28,0,0,1,1.34-.32h.81v-.4a.91.91,0,0,0-.24-.68,1,1,0,0,0-.73-.23,1.14,1.14,0,0,0-.63.17,1.3,1.3,0,0,0-.42.45l-.39-.36a1.47,1.47,0,0,1,.54-.57,1.67,1.67,0,0,1,.93-.24,1.69,1.69,0,0,1,1.17.37,1.3,1.3,0,0,1,.41,1v2.27H210v.56Zm-1.84-.44a1.51,1.51,0,0,0,.44-.06,1.13,1.13,0,0,0,.35-.16.83.83,0,0,0,.22-.24.52.52,0,0,0,.08-.3v-.68H208a1.51,1.51,0,0,0-.8.17.5.5,0,0,0-.25.46v.17a.55.55,0,0,0,.22.47A.94.94,0,0,0,207.75,418.73Z"/><path d="M215.75,419.17a.6.6,0,0,1-.51-.19,1,1,0,0,1-.2-.48h0a1.06,1.06,0,0,1-.45.58,1.34,1.34,0,0,1-.74.19,1.41,1.41,0,0,1-1-.34,1.17,1.17,0,0,1-.36-.91,1,1,0,0,1,.42-.89,2.28,2.28,0,0,1,1.34-.32H215v-.4a.91.91,0,0,0-.24-.68,1,1,0,0,0-.73-.23,1.14,1.14,0,0,0-.63.17,1.3,1.3,0,0,0-.42.45l-.39-.36a1.47,1.47,0,0,1,.54-.57,2,2,0,0,1,2.1.13,1.3,1.3,0,0,1,.41,1v2.27h.47v.56Zm-1.84-.44a1.51,1.51,0,0,0,.44-.06,1.13,1.13,0,0,0,.35-.16.83.83,0,0,0,.22-.24.52.52,0,0,0,.08-.3v-.68h-.85a1.51,1.51,0,0,0-.8.17.5.5,0,0,0-.25.46v.17a.55.55,0,0,0,.22.47A.94.94,0,0,0,213.91,418.73Z"/><path d="M217.94,419.17a.66.66,0,0,1-.51-.18.73.73,0,0,1-.17-.49v-2.88h-.68v-.57H217a.37.37,0,0,0,.29-.09.42.42,0,0,0,.07-.29v-.77h.58v1.15h.9v.57h-.9v3h.84v.56Z"/><path d="M221.72,419.17v-4.12h.64v.76h0a1.27,1.27,0,0,1,.4-.53,1.2,1.2,0,0,1,.79-.23h.25v.64h-.37a1.49,1.49,0,0,0-.82.19.59.59,0,0,0-.29.5v2.79Z"/><path d="M226.21,419.27a1.84,1.84,0,0,1-.76-.15,1.61,1.61,0,0,1-.59-.44,1.86,1.86,0,0,1-.37-.68,2.72,2.72,0,0,1-.14-.89,2.81,2.81,0,0,1,.14-.89,1.94,1.94,0,0,1,.37-.68,1.61,1.61,0,0,1,.59-.44,1.84,1.84,0,0,1,.76-.15,1.72,1.72,0,0,1,.74.15,1.56,1.56,0,0,1,.56.42,1.79,1.79,0,0,1,.36.63,2.64,2.64,0,0,1,.12.81v.3h-3v.2a1.36,1.36,0,0,0,.08.49,1.28,1.28,0,0,0,.24.39,1.05,1.05,0,0,0,.38.27,1.46,1.46,0,0,0,.52.09,1.25,1.25,0,0,0,.68-.18,1.2,1.2,0,0,0,.46-.53l.45.33a1.58,1.58,0,0,1-.62.69A1.92,1.92,0,0,1,226.21,419.27Zm0-3.78a1.21,1.21,0,0,0-.48.09,1.08,1.08,0,0,0-.37.26,1.14,1.14,0,0,0-.25.39,1.59,1.59,0,0,0-.08.5v0h2.28v-.08a1.25,1.25,0,0,0-.3-.88A1,1,0,0,0,226.21,415.49Z"/><path d="M230.29,419.27a1.87,1.87,0,0,1-1-.22,2.1,2.1,0,0,1-.67-.59l.45-.37a1.7,1.7,0,0,0,.54.47,1.41,1.41,0,0,0,.69.17,1,1,0,0,0,.63-.18.57.57,0,0,0,.23-.5.61.61,0,0,0-.15-.41,1,1,0,0,0-.57-.23l-.33-.05a2.64,2.64,0,0,1-.52-.13,1.4,1.4,0,0,1-.42-.22.87.87,0,0,1-.28-.35,1.07,1.07,0,0,1-.1-.49,1.16,1.16,0,0,1,.11-.54,1.13,1.13,0,0,1,.31-.38,1.31,1.31,0,0,1,.46-.22,2.27,2.27,0,0,1,.59-.08,1.74,1.74,0,0,1,1.44.67l-.43.38a1.16,1.16,0,0,0-.4-.35,1.29,1.29,0,0,0-.66-.15.86.86,0,0,0-.6.17.56.56,0,0,0-.21.46.51.51,0,0,0,.21.45,1.46,1.46,0,0,0,.58.19l.32.05a1.69,1.69,0,0,1,1,.4,1,1,0,0,1,.29.76,1.19,1.19,0,0,1-.41.95A1.68,1.68,0,0,1,230.29,419.27Z"/><path d="M233.86,419.17a.66.66,0,0,1-.51-.18.68.68,0,0,1-.17-.49v-2.88h-.68v-.57h.38a.39.39,0,0,0,.29-.09.42.42,0,0,0,.07-.29v-.77h.58v1.15h.9v.57h-.9v3h.84v.56Z"/><text transform="translate(204.69 385.61)" font-size="9" font-family="IBMPlexSans, IBM Plex Sans">REST APIs</text><text transform="translate(0 422.2)" font-size="10" font-family="IBMPlexSans, IBM Plex Sans">Applications</text><path d="M496.68,276.27a3.26,3.26,0,0,1-1.24-.23,2.46,2.46,0,0,1-.95-.67,3,3,0,0,1-.61-1.12,5.12,5.12,0,0,1-.21-1.54,5.38,5.38,0,0,1,.21-1.57,3.08,3.08,0,0,1,.61-1.15,2.53,2.53,0,0,1,.95-.7,3.08,3.08,0,0,1,1.24-.24,2.55,2.55,0,0,1,2.55,1.61l-1.13.6a1.55,1.55,0,0,0-.49-.76,1.41,1.41,0,0,0-.93-.28,1.45,1.45,0,0,0-1.17.5,2.06,2.06,0,0,0-.44,1.4v1.1a2,2,0,0,0,.44,1.39,1.51,1.51,0,0,0,1.17.49,1.47,1.47,0,0,0,1-.32,1.87,1.87,0,0,0,.54-.79l1.07.63a3,3,0,0,1-1,1.21A2.69,2.69,0,0,1,496.68,276.27Z"/><path d="M501.59,276.15a1.13,1.13,0,0,1-1.28-1.26v-6.14h1.28v6.37h.69v1Z"/><path d="M505.32,276.27a2.62,2.62,0,0,1-1-.19,2.09,2.09,0,0,1-.76-.55,2.46,2.46,0,0,1-.49-.87,3.62,3.62,0,0,1-.17-1.13,3.58,3.58,0,0,1,.17-1.13,2.42,2.42,0,0,1,.49-.86,2,2,0,0,1,.76-.54,2.44,2.44,0,0,1,1-.19,2.53,2.53,0,0,1,1,.19,2,2,0,0,1,.77.54,2.4,2.4,0,0,1,.48.86,3.58,3.58,0,0,1,.17,1.13,3.62,3.62,0,0,1-.17,1.13,2.45,2.45,0,0,1-.48.87,2.13,2.13,0,0,1-.77.55A2.71,2.71,0,0,1,505.32,276.27Zm0-1a1.06,1.06,0,0,0,.8-.31,1.31,1.31,0,0,0,.29-.91v-1a1.26,1.26,0,0,0-.29-.9,1.17,1.17,0,0,0-1.59,0,1.26,1.26,0,0,0-.29.9v1a1.31,1.31,0,0,0,.29.91A1.05,1.05,0,0,0,505.32,275.24Z"/><path d="M512,275.28H512a2.53,2.53,0,0,1-.18.37,1.75,1.75,0,0,1-.29.32,1.67,1.67,0,0,1-.42.22,2,2,0,0,1-.57.08,1.52,1.52,0,0,1-1.24-.53,2.34,2.34,0,0,1-.43-1.51v-3.3h1.28v3.17a1.36,1.36,0,0,0,.21.82.78.78,0,0,0,.67.29,1.5,1.5,0,0,0,.37,0,1,1,0,0,0,.33-.16,1,1,0,0,0,.23-.26.69.69,0,0,0,.09-.36v-3.45h1.28v5.22H512Z"/><path d="M518,275.28h0a1.32,1.32,0,0,1-.53.72,1.55,1.55,0,0,1-.91.27,1.77,1.77,0,0,1-1.51-.71,3.38,3.38,0,0,1-.53-2,3.33,3.33,0,0,1,.53-2,1.76,1.76,0,0,1,1.51-.7,1.55,1.55,0,0,1,.91.26,1.32,1.32,0,0,1,.53.72h0v-3h1.28v7.4H518Zm-1.08-.07a1.35,1.35,0,0,0,.77-.22.73.73,0,0,0,.31-.63V272.7a.7.7,0,0,0-.31-.61,1.21,1.21,0,0,0-.77-.23,1,1,0,0,0-.8.33,1.25,1.25,0,0,0-.31.9v.9a1.24,1.24,0,0,0,.31.89A1,1,0,0,0,516.92,275.21Z"/><path d="M527.43,273.2h-2.91v2.95H523.2v-7h1.32V272h2.91v-2.86h1.32v7h-1.32Z"/><path d="M532.56,276.27a3.26,3.26,0,0,1-1.53-.33,3.5,3.5,0,0,1-1.07-.84l.89-.86a2.66,2.66,0,0,0,.8.64,2.32,2.32,0,0,0,1,.22,1.37,1.37,0,0,0,.92-.27.86.86,0,0,0,.31-.71.8.8,0,0,0-.2-.56,1.31,1.31,0,0,0-.75-.32l-.66-.1c-1.39-.22-2.09-.9-2.09-2a2.08,2.08,0,0,1,.17-.85,1.8,1.8,0,0,1,.51-.65,2.34,2.34,0,0,1,.8-.42,3.38,3.38,0,0,1,1.05-.14,3.27,3.27,0,0,1,1.38.26,2.7,2.7,0,0,1,1,.77l-.9.85a2.14,2.14,0,0,0-.63-.52,2,2,0,0,0-.93-.19,1.45,1.45,0,0,0-.86.21.7.7,0,0,0-.28.6.71.71,0,0,0,.23.58,1.57,1.57,0,0,0,.74.28l.65.12a2.9,2.9,0,0,1,1.56.68,1.76,1.76,0,0,1,.51,1.35,2.21,2.21,0,0,1-.18.91,1.83,1.83,0,0,1-.51.7,2.25,2.25,0,0,1-.82.46A3.71,3.71,0,0,1,532.56,276.27Z"/><path d="M541.77,271.14h0l-.54,1.11-1.43,2.64-1.43-2.64-.54-1.11h0v5H536.5v-7H538l1.79,3.41h0l1.77-3.41H543v7h-1.25Z"/><path d="M546.94,276.15v-5.22h1.28v.87h0a1.63,1.63,0,0,1,.48-.7,1.32,1.32,0,0,1,.92-.29,1.59,1.59,0,0,1,.93.26,1.51,1.51,0,0,1,.58.79h0a1.45,1.45,0,0,1,.55-.75,1.76,1.76,0,0,1,1-.3,1.39,1.39,0,0,1,1.18.53,2.36,2.36,0,0,1,.42,1.51v3.3h-1.28V273c0-.75-.28-1.12-.84-1.12a1.06,1.06,0,0,0-.68.21.75.75,0,0,0-.21.26.84.84,0,0,0-.08.37v3.45H550V273c0-.75-.28-1.12-.84-1.12a1.12,1.12,0,0,0-.36.05,1.14,1.14,0,0,0-.31.16.92.92,0,0,0-.22.26.84.84,0,0,0-.08.37v3.45Z"/><path d="M559.66,276.15a.94.94,0,0,1-.67-.25,1.13,1.13,0,0,1-.3-.65h-.06a1.21,1.21,0,0,1-.53.76,1.82,1.82,0,0,1-1,.26,1.7,1.7,0,0,1-1.23-.42,1.48,1.48,0,0,1-.43-1.12,1.34,1.34,0,0,1,.58-1.2,3,3,0,0,1,1.65-.39h.89v-.38a1,1,0,0,0-.23-.68,1,1,0,0,0-.74-.24,1.26,1.26,0,0,0-.73.19,2.05,2.05,0,0,0-.46.47l-.76-.69a2.25,2.25,0,0,1,.77-.73,2.58,2.58,0,0,1,1.27-.27,2.43,2.43,0,0,1,1.61.47,1.72,1.72,0,0,1,.55,1.38v2.46h.52v1Zm-2.12-.81a1.39,1.39,0,0,0,.73-.19.62.62,0,0,0,.3-.56v-.68h-.82c-.67,0-1,.21-1,.63v.17a.56.56,0,0,0,.2.47A1,1,0,0,0,557.54,275.34Z"/><path d="M561.41,276.15v-5.22h1.28v.87h0a1.7,1.7,0,0,1,.5-.71,1.46,1.46,0,0,1,1-.28,1.49,1.49,0,0,1,1.24.53,2.3,2.3,0,0,1,.43,1.51v3.3h-1.28V273a1.44,1.44,0,0,0-.2-.84.74.74,0,0,0-.66-.28,1.31,1.31,0,0,0-.39.05,1.26,1.26,0,0,0-.33.16,1,1,0,0,0-.23.26.72.72,0,0,0-.09.37v3.45Z"/><path d="M571.13,276.15a.94.94,0,0,1-.67-.25,1.13,1.13,0,0,1-.3-.65h-.06a1.21,1.21,0,0,1-.53.76,1.82,1.82,0,0,1-1,.26,1.7,1.7,0,0,1-1.23-.42,1.48,1.48,0,0,1-.43-1.12,1.34,1.34,0,0,1,.58-1.2,3,3,0,0,1,1.65-.39H570v-.38a1,1,0,0,0-.23-.68,1,1,0,0,0-.74-.24,1.26,1.26,0,0,0-.73.19,2.05,2.05,0,0,0-.46.47l-.76-.69a2.25,2.25,0,0,1,.77-.73,2.58,2.58,0,0,1,1.27-.27,2.43,2.43,0,0,1,1.61.47,1.72,1.72,0,0,1,.55,1.38v2.46h.52v1Zm-2.12-.81a1.39,1.39,0,0,0,.73-.19.62.62,0,0,0,.3-.56v-.68h-.82c-.67,0-1,.21-1,.63v.17a.56.56,0,0,0,.2.47A1,1,0,0,0,569,275.34Z"/><path d="M577.59,276.59a1.66,1.66,0,0,1-.15.72,1.19,1.19,0,0,1-.47.53,2.7,2.7,0,0,1-.85.32,6.52,6.52,0,0,1-1.27.11,6,6,0,0,1-1.12-.09,3,3,0,0,1-.76-.24,1,1,0,0,1-.42-.38,1,1,0,0,1-.13-.52.93.93,0,0,1,.24-.69,1.23,1.23,0,0,1,.69-.31v-.11a.91.91,0,0,1-.5-.32,1,1,0,0,1-.17-.56.78.78,0,0,1,.08-.35.9.9,0,0,1,.21-.27,1.57,1.57,0,0,1,.31-.18,1.9,1.9,0,0,1,.36-.12v0a1.56,1.56,0,0,1-.72-.61,1.78,1.78,0,0,1-.23-.91,1.61,1.61,0,0,1,.55-1.28,2.38,2.38,0,0,1,1.61-.48,3.59,3.59,0,0,1,.47,0,1.89,1.89,0,0,1,.44.1v-.17a.66.66,0,0,1,.74-.76h.81v1H576.2v.14a1.47,1.47,0,0,1,.61.6,1.78,1.78,0,0,1,.2.85,1.6,1.6,0,0,1-.55,1.27,2.36,2.36,0,0,1-1.61.48,3.15,3.15,0,0,1-.8-.09.68.68,0,0,0-.26.18.42.42,0,0,0-.11.29c0,.26.23.39.68.39h1.4a2,2,0,0,1,1.39.39A1.41,1.41,0,0,1,577.59,276.59Zm-1.2.15a.45.45,0,0,0-.2-.39,1.18,1.18,0,0,0-.69-.14h-1.78a.63.63,0,0,0-.27.54.54.54,0,0,0,.25.47,1.62,1.62,0,0,0,.85.17h.64a2,2,0,0,0,.91-.16A.53.53,0,0,0,576.39,276.74Zm-1.54-3.29c.63,0,.94-.27.94-.8v-.17c0-.53-.31-.79-.94-.79s-.94.26-.94.79v.17C573.91,273.18,574.22,273.45,574.85,273.45Z"/><path d="M580.44,276.27a2.64,2.64,0,0,1-1-.2,2.13,2.13,0,0,1-.77-.55,2.4,2.4,0,0,1-.48-.86,3.62,3.62,0,0,1-.17-1.13,3.52,3.52,0,0,1,.16-1.12,2.4,2.4,0,0,1,.48-.86,2.09,2.09,0,0,1,.76-.55,2.54,2.54,0,0,1,1-.19,2.47,2.47,0,0,1,1.06.21,2,2,0,0,1,.74.57,2.34,2.34,0,0,1,.43.83,3.4,3.4,0,0,1,.15,1v.42h-3.47V274a1.29,1.29,0,0,0,.32.91,1.23,1.23,0,0,0,1,.35,1.41,1.41,0,0,0,.78-.2,2.21,2.21,0,0,0,.55-.51l.69.77a2.15,2.15,0,0,1-.88.71A3,3,0,0,1,580.44,276.27Zm0-4.5a1,1,0,0,0-.81.34,1.27,1.27,0,0,0-.3.88v.08h2.14V273a1.36,1.36,0,0,0-.27-.88A.91.91,0,0,0,580.42,271.77Z"/><path d="M587.15,275.28h0a1.32,1.32,0,0,1-.53.72,1.55,1.55,0,0,1-.91.27,1.79,1.79,0,0,1-1.52-.71,3.38,3.38,0,0,1-.52-2,3.33,3.33,0,0,1,.52-2,1.78,1.78,0,0,1,1.52-.7,1.55,1.55,0,0,1,.91.26,1.32,1.32,0,0,1,.53.72h0v-3h1.28v7.4h-1.28Zm-1.08-.07a1.35,1.35,0,0,0,.77-.22.73.73,0,0,0,.31-.63V272.7a.7.7,0,0,0-.31-.61,1.21,1.21,0,0,0-.77-.23,1.07,1.07,0,0,0-.81.33,1.29,1.29,0,0,0-.3.9v.9a1.28,1.28,0,0,0,.3.89A1.07,1.07,0,0,0,586.07,275.21Z"/><path d="M592.27,268.75h1.28v3h0a1.32,1.32,0,0,1,.53-.72,1.55,1.55,0,0,1,.91-.26,1.77,1.77,0,0,1,1.52.7,3.33,3.33,0,0,1,.53,2,3.38,3.38,0,0,1-.53,2,1.77,1.77,0,0,1-1.52.71,1.55,1.55,0,0,1-.91-.27,1.42,1.42,0,0,1-.53-.72h0v.87h-1.28Zm2.35,6.46a1.07,1.07,0,0,0,.81-.33,1.24,1.24,0,0,0,.31-.89v-.9a1.25,1.25,0,0,0-.31-.9,1.07,1.07,0,0,0-.81-.33,1.21,1.21,0,0,0-.77.23.72.72,0,0,0-.3.61v1.66a.74.74,0,0,0,.3.63A1.35,1.35,0,0,0,594.62,275.21Z"/><path d="M601.47,270.93h1.2l-2.1,6.15a2.68,2.68,0,0,1-.23.48,1.21,1.21,0,0,1-.29.34,1.2,1.2,0,0,1-.41.19,2.34,2.34,0,0,1-.56.06h-.77v-1h.94l.24-.73-1.87-5.46h1.27l.91,2.75.34,1.32h.06l.36-1.32Z"/><path d="M605.66,276.15v-1.06h.92v-4.86h-.92v-1.06h3.17v1.06h-.93v4.86h.93v1.06Z"/><path d="M610.18,269.17h3.23a2.07,2.07,0,0,1,.77.13,1.54,1.54,0,0,1,.59.36,1.42,1.42,0,0,1,.36.56,2,2,0,0,1,.13.74,1.88,1.88,0,0,1-.11.67,1.32,1.32,0,0,1-.28.46,1.09,1.09,0,0,1-.4.27,1.46,1.46,0,0,1-.46.1v.06a1.5,1.5,0,0,1,.49.09,1.42,1.42,0,0,1,.49.28,1.61,1.61,0,0,1,.38.5,1.72,1.72,0,0,1,.15.76,2.21,2.21,0,0,1-.14.78,2,2,0,0,1-.37.64,1.69,1.69,0,0,1-.57.42,1.73,1.73,0,0,1-.72.16h-3.54Zm1.32,2.91h1.63a.77.77,0,0,0,.56-.2.73.73,0,0,0,.2-.54V271a.74.74,0,0,0-.2-.55.76.76,0,0,0-.56-.19H611.5Zm0,2.95h1.84a.84.84,0,0,0,.59-.2.73.73,0,0,0,.21-.56v-.34a.74.74,0,0,0-.21-.57.8.8,0,0,0-.59-.2H611.5Z"/><path d="M622.08,271.14h0l-.54,1.11-1.43,2.64-1.43-2.64-.54-1.11h0v5h-1.25v-7h1.49l1.79,3.41h0l1.77-3.41h1.43v7h-1.25Z"/><path d="M494.08,288.15v-7h4.16v.74h-3.32v2.34h3V285h-3v3.16Z"/><path d="M499.34,288.15v-.7h1v-5.58h-1v-.7h2.8v.7h-1v5.58h1v.7Z"/><path d="M503.67,288.15v-7h2.78a1.89,1.89,0,0,1,1.45.53,2.09,2.09,0,0,1,.5,1.47,2.07,2.07,0,0,1-.5,1.46,1.89,1.89,0,0,1-1.45.54h-1.94v3Zm.84-3.72h1.94a1.13,1.13,0,0,0,.78-.26,1,1,0,0,0,.27-.74v-.52a1,1,0,0,0-.27-.74,1.08,1.08,0,0,0-.78-.26h-1.94Z"/><path d="M511.69,288.27a3,3,0,0,1-1.45-.33,3.1,3.1,0,0,1-1-.89l.62-.52a2.83,2.83,0,0,0,.82.74,2.11,2.11,0,0,0,1.06.26,1.67,1.67,0,0,0,1.15-.36,1.24,1.24,0,0,0,.39-1,1,1,0,0,0-.3-.77,2.18,2.18,0,0,0-1-.43l-.57-.13a3.26,3.26,0,0,1-1.46-.67,1.57,1.57,0,0,1-.51-1.25,1.94,1.94,0,0,1,.17-.82,1.56,1.56,0,0,1,.48-.6,2,2,0,0,1,.73-.37,3.38,3.38,0,0,1,.93-.12,2.87,2.87,0,0,1,1.36.29,2.56,2.56,0,0,1,.95.85l-.63.46a2.1,2.1,0,0,0-.7-.63,2,2,0,0,0-1-.23,1.7,1.7,0,0,0-1.05.28,1,1,0,0,0-.39.86.89.89,0,0,0,.33.75,2.44,2.44,0,0,0,1,.41l.57.13a2.88,2.88,0,0,1,1.49.7,1.69,1.69,0,0,1,.46,1.25,2.21,2.21,0,0,1-.16.87,1.76,1.76,0,0,1-.48.66,2.28,2.28,0,0,1-.75.42A3.2,3.2,0,0,1,511.69,288.27Z"/><path d="M517.85,288.15v-.74h1.95v-5.62h-.07L518,283.43l-.49-.53,1.85-1.73h1.31v6.24h1.8v.74Z"/><path d="M526.72,288.15v-1.37h-3.37V286l2.92-4.87h1.25v4.91h1v.7h-1v1.37Zm-2.58-2.07h2.58v-4.26h-.05Z"/><path d="M532,288.27a2,2,0,0,1-1.83-.95,6.49,6.49,0,0,1,0-5.32,2,2,0,0,1,1.83-.95,2,2,0,0,1,1.82.95,6.39,6.39,0,0,1,0,5.32A2,2,0,0,1,532,288.27Zm0-.74a1.39,1.39,0,0,0,.7-.17,1.44,1.44,0,0,0,.47-.48,2.25,2.25,0,0,0,.26-.73,4.45,4.45,0,0,0,.09-.93v-1.13a4.45,4.45,0,0,0-.09-.93,2.25,2.25,0,0,0-.26-.73,1.32,1.32,0,0,0-.47-.47,1.53,1.53,0,0,0-1.4,0,1.32,1.32,0,0,0-.47.47,2.52,2.52,0,0,0-.27.73,5.28,5.28,0,0,0-.08.93v1.13a5.28,5.28,0,0,0,.08.93,2.52,2.52,0,0,0,.27.73,1.44,1.44,0,0,0,.47.48A1.39,1.39,0,0,0,532,287.53Z"/><path d="M535.66,285.54v-.86h2.61v.86Z"/><path d="M544.29,288.15h-4.58v-.86l2.28-2.1a5.17,5.17,0,0,0,.82-1,1.87,1.87,0,0,0,.33-1v-.12a1.37,1.37,0,0,0-.32-.94,1.23,1.23,0,0,0-1-.36,1.6,1.6,0,0,0-.56.09,1.27,1.27,0,0,0-.42.25,1.53,1.53,0,0,0-.29.37,2.87,2.87,0,0,0-.18.47l-.75-.29a3.66,3.66,0,0,1,.27-.61,2.21,2.21,0,0,1,.44-.52,2.34,2.34,0,0,1,.64-.37,2.65,2.65,0,0,1,.89-.13,2.59,2.59,0,0,1,.91.15,1.82,1.82,0,0,1,.67.42,1.68,1.68,0,0,1,.41.63,2.18,2.18,0,0,1,.15.82,2.29,2.29,0,0,1-.12.76,2.72,2.72,0,0,1-.31.67,3.85,3.85,0,0,1-.49.61c-.19.2-.39.4-.61.6l-1.88,1.7h3.67Z"/><path d="M548.25,288.15v-7h.84v6.24h3v.74Z"/><path d="M555.12,288.27a2.49,2.49,0,0,1-1-.19,2.17,2.17,0,0,1-.73-.55,2.59,2.59,0,0,1-.47-.85,3.93,3.93,0,0,1,0-2.22,2.54,2.54,0,0,1,.47-.86,2,2,0,0,1,.73-.54,2.32,2.32,0,0,1,1-.19,2.27,2.27,0,0,1,.93.18,2.16,2.16,0,0,1,.7.53,2.25,2.25,0,0,1,.44.79,3,3,0,0,1,.16,1v.38h-3.71V286a1.74,1.74,0,0,0,.1.61,1.48,1.48,0,0,0,.3.5,1.37,1.37,0,0,0,.48.33,1.67,1.67,0,0,0,.65.12,1.56,1.56,0,0,0,.85-.23,1.53,1.53,0,0,0,.57-.66l.57.41a2.08,2.08,0,0,1-.78.86A2.32,2.32,0,0,1,555.12,288.27Zm0-4.73a1.46,1.46,0,0,0-.6.11,1.4,1.4,0,0,0-.47.32,1.54,1.54,0,0,0-.3.49,1.81,1.81,0,0,0-.11.63v.07h2.85v-.11a1.56,1.56,0,0,0-.38-1.1A1.26,1.26,0,0,0,555.12,283.54Z"/><path d="M559.81,288.15,558,283h.8l.9,2.56.56,1.76h0l.56-1.76.92-2.56h.77l-1.82,5.16Z"/><path d="M565.53,288.27a2.49,2.49,0,0,1-1-.19,2.17,2.17,0,0,1-.73-.55,2.59,2.59,0,0,1-.47-.85,3.93,3.93,0,0,1,0-2.22,2.54,2.54,0,0,1,.47-.86,2,2,0,0,1,.73-.54,2.32,2.32,0,0,1,1-.19,2.27,2.27,0,0,1,.93.18,2.16,2.16,0,0,1,.7.53,2.25,2.25,0,0,1,.44.79,3,3,0,0,1,.16,1v.38h-3.71V286a1.74,1.74,0,0,0,.1.61,1.48,1.48,0,0,0,.3.5,1.37,1.37,0,0,0,.48.33,1.67,1.67,0,0,0,.65.12,1.56,1.56,0,0,0,.85-.23,1.53,1.53,0,0,0,.57-.66l.57.41a2.08,2.08,0,0,1-.78.86A2.32,2.32,0,0,1,565.53,288.27Zm0-4.73a1.46,1.46,0,0,0-.6.11,1.4,1.4,0,0,0-.47.32,1.54,1.54,0,0,0-.3.49,1.81,1.81,0,0,0-.11.63v.07h2.85v-.11a1.56,1.56,0,0,0-.38-1.1A1.26,1.26,0,0,0,565.53,283.54Z"/><path d="M569.93,288.15a.83.83,0,0,1-.64-.24.85.85,0,0,1-.21-.59v-6.57h.8v6.69h.76v.71Z"/><path d="M575.92,284.11a1.5,1.5,0,0,0,1.06-.33,1.05,1.05,0,0,0,.36-.83v-.07a1,1,0,0,0-.35-.82,1.42,1.42,0,0,0-.9-.27,1.5,1.5,0,0,0-.88.23,1.84,1.84,0,0,0-.56.64l-.62-.48a3.77,3.77,0,0,1,.31-.42,2.65,2.65,0,0,1,.44-.36,2.82,2.82,0,0,1,.58-.26,2.86,2.86,0,0,1,.75-.09,2.82,2.82,0,0,1,.83.11,2,2,0,0,1,.67.34,1.6,1.6,0,0,1,.45.55,1.66,1.66,0,0,1,.17.75,1.6,1.6,0,0,1-.11.6,1.47,1.47,0,0,1-.28.47,1.62,1.62,0,0,1-.43.34,2.18,2.18,0,0,1-.52.21v0a2.06,2.06,0,0,1,.54.2,1.48,1.48,0,0,1,.47.35,1.54,1.54,0,0,1,.33.52,1.71,1.71,0,0,1,.13.7,2.09,2.09,0,0,1-.17.83,1.77,1.77,0,0,1-.48.64,2.26,2.26,0,0,1-.75.41,2.74,2.74,0,0,1-1,.16,3.18,3.18,0,0,1-.8-.1,2.7,2.7,0,0,1-.62-.27,2.59,2.59,0,0,1-.48-.38,3.73,3.73,0,0,1-.36-.43l.63-.48a3.73,3.73,0,0,0,.28.38,1.93,1.93,0,0,0,.35.29,1.5,1.5,0,0,0,.43.18,2.31,2.31,0,0,0,.56.07,1.66,1.66,0,0,0,1.12-.34,1.24,1.24,0,0,0,.38-1v-.08a1.25,1.25,0,0,0-.38-1,1.66,1.66,0,0,0-1.12-.33h-.82v-.74Z"/><path d="M579.61,136.1v-7h4.26v.74h-3.42v2.34h3.22v.74h-3.22v2.42h3.42v.74Z"/><path d="M585.36,136.1v-5.16h.8v.83h0a1.7,1.7,0,0,1,.54-.69,1.52,1.52,0,0,1,.92-.26,1.63,1.63,0,0,1,1.27.52,2.09,2.09,0,0,1,.46,1.45v3.31h-.8v-3.17c0-.93-.39-1.4-1.17-1.4a1.76,1.76,0,0,0-.46.06,1.38,1.38,0,0,0-.41.18,1,1,0,0,0-.28.31.87.87,0,0,0-.11.44v3.58Z"/><path d="M593,136.22a2.33,2.33,0,0,1-1-.19,1.83,1.83,0,0,1-.72-.54,2.23,2.23,0,0,1-.45-.85,3.52,3.52,0,0,1-.16-1.12,3.61,3.61,0,0,1,.16-1.12,2.39,2.39,0,0,1,.45-.85A2,2,0,0,1,592,131a2.5,2.5,0,0,1,1-.19,2.12,2.12,0,0,1,1.24.34,2,2,0,0,1,.69.87l-.67.34a1.26,1.26,0,0,0-.46-.62,1.42,1.42,0,0,0-.8-.22,1.54,1.54,0,0,0-.63.12,1.23,1.23,0,0,0-.45.32,1.37,1.37,0,0,0-.27.49,2.06,2.06,0,0,0-.09.62V134a1.65,1.65,0,0,0,.37,1.12,1.31,1.31,0,0,0,1.07.43,1.44,1.44,0,0,0,1.4-.9l.58.39a2,2,0,0,1-.74.89A2.18,2.18,0,0,1,593,136.22Z"/><path d="M596.07,136.1v-5.16h.8v.95h0a1.71,1.71,0,0,1,.5-.66,1.56,1.56,0,0,1,1-.29h.31v.8h-.47a1.81,1.81,0,0,0-1,.25.71.71,0,0,0-.37.61v3.5Z"/><path d="M602.92,130.94h.79l-2.31,6.36a2.43,2.43,0,0,1-.18.39.73.73,0,0,1-.22.24.72.72,0,0,1-.32.13,2.21,2.21,0,0,1-.48,0h-.41v-.71h.81l.39-1.09-1.93-5.36h.8l1.24,3.51.24.84h0l.28-.84Z"/><path d="M604.73,130.94h.8v.83h0a1.45,1.45,0,0,1,.59-.71,1.68,1.68,0,0,1,.92-.24,1.91,1.91,0,0,1,1.54.73,2.7,2.7,0,0,1,.42.85,4.35,4.35,0,0,1,.14,1.12,4.23,4.23,0,0,1-.14,1.12,2.5,2.5,0,0,1-.42.85,1.82,1.82,0,0,1-.67.54,1.92,1.92,0,0,1-.87.19,1.56,1.56,0,0,1-1.51-.95h0v2.83h-.8Zm2.13,4.57a1.39,1.39,0,0,0,1.07-.42,1.61,1.61,0,0,0,.39-1.12v-.89a1.61,1.61,0,0,0-.39-1.12,1.4,1.4,0,0,0-1.07-.43,1.7,1.7,0,0,0-.51.08,1.33,1.33,0,0,0-.43.21.92.92,0,0,0-.28.31.83.83,0,0,0-.11.4v1.93a.94.94,0,0,0,.11.45,1,1,0,0,0,.28.33,1.14,1.14,0,0,0,.43.2A1.7,1.7,0,0,0,606.86,135.51Z"/><path d="M611.67,136.1a.79.79,0,0,1-.63-.23.85.85,0,0,1-.22-.61v-3.61H610v-.71h.48a.5.5,0,0,0,.36-.1.57.57,0,0,0,.09-.37v-1h.72v1.43h1.13v.71h-1.13v3.74h1v.71Z"/><path d="M616,136.22a2.24,2.24,0,0,1-1-.19,1.86,1.86,0,0,1-.73-.54,2.42,2.42,0,0,1-.47-.85,3.51,3.51,0,0,1-.17-1.12,3.59,3.59,0,0,1,.17-1.11,2.42,2.42,0,0,1,.47-.85A2,2,0,0,1,615,131a2.4,2.4,0,0,1,1-.19,2.27,2.27,0,0,1,.93.19,2,2,0,0,1,.7.53,2.43,2.43,0,0,1,.45.79,3.2,3.2,0,0,1,.15,1v.37H614.5V134a1.8,1.8,0,0,0,.11.62,1.44,1.44,0,0,0,.3.49,1.37,1.37,0,0,0,.48.33,1.62,1.62,0,0,0,.64.12,1.54,1.54,0,0,0,.86-.23,1.46,1.46,0,0,0,.56-.66l.57.42a2.08,2.08,0,0,1-.78.86A2.32,2.32,0,0,1,616,136.22Zm0-4.73a1.46,1.46,0,0,0-.6.12,1.36,1.36,0,0,0-.46.32,1.46,1.46,0,0,0-.31.49,1.8,1.8,0,0,0-.11.62v.07h2.85V133a1.55,1.55,0,0,0-.37-1.09A1.28,1.28,0,0,0,616,131.49Z"/><path d="M622.83,135.27h0a1.57,1.57,0,0,1-1.51.95,1.92,1.92,0,0,1-.87-.19,1.72,1.72,0,0,1-.66-.54,2.19,2.19,0,0,1-.42-.85,3.84,3.84,0,0,1-.15-1.12,3.94,3.94,0,0,1,.15-1.12,2.34,2.34,0,0,1,.42-.85,1.92,1.92,0,0,1,.66-.54,2.06,2.06,0,0,1,.87-.19,1.74,1.74,0,0,1,.93.24,1.43,1.43,0,0,1,.58.71h0V128.7h.8v7.4h-.8Zm-1.33.24a1.81,1.81,0,0,0,.52-.07,1.17,1.17,0,0,0,.42-.2,1,1,0,0,0,.29-.33.93.93,0,0,0,.1-.45v-1.93a.82.82,0,0,0-.1-.4,1,1,0,0,0-.29-.31,1.38,1.38,0,0,0-.42-.21,1.82,1.82,0,0,0-.52-.08,1.4,1.4,0,0,0-1.07.43,1.61,1.61,0,0,0-.39,1.12V134a1.61,1.61,0,0,0,.39,1.12A1.39,1.39,0,0,0,621.5,135.51Z"/><path d="M627.69,128.7h.8v4.69h0l.79-.88,1.46-1.57h1l-1.91,2,2.1,3.12h-1l-1.71-2.63-.77.79v1.84h-.8Z"/><path d="M634.9,136.22A2.24,2.24,0,0,1,634,136a1.86,1.86,0,0,1-.73-.54,2.42,2.42,0,0,1-.47-.85,3.51,3.51,0,0,1-.17-1.12,3.59,3.59,0,0,1,.17-1.11,2.42,2.42,0,0,1,.47-.85A2,2,0,0,1,634,131a2.4,2.4,0,0,1,.95-.19,2.27,2.27,0,0,1,.93.19,2,2,0,0,1,.7.53,2.43,2.43,0,0,1,.45.79,3.2,3.2,0,0,1,.15,1v.37h-3.71V134a1.8,1.8,0,0,0,.11.62,1.44,1.44,0,0,0,.3.49,1.37,1.37,0,0,0,.48.33,1.62,1.62,0,0,0,.64.12,1.54,1.54,0,0,0,.86-.23,1.46,1.46,0,0,0,.56-.66l.57.42a2.08,2.08,0,0,1-.78.86A2.32,2.32,0,0,1,634.9,136.22Zm0-4.73a1.46,1.46,0,0,0-.6.12,1.36,1.36,0,0,0-.46.32,1.46,1.46,0,0,0-.31.49,1.8,1.8,0,0,0-.11.62v.07h2.85V133a1.55,1.55,0,0,0-.37-1.09A1.28,1.28,0,0,0,634.9,131.49Z"/><path d="M641.63,130.94h.79l-2.31,6.36a2.43,2.43,0,0,1-.18.39.73.73,0,0,1-.22.24.77.77,0,0,1-.32.13,2.21,2.21,0,0,1-.48,0h-.41v-.71h.81l.39-1.09-1.93-5.36h.8l1.24,3.51.24.84h.05l.28-.84Z"/><path d="M590,148.1v-5.16h.8v.83h0c.06-.13.13-.25.2-.37a1.58,1.58,0,0,1,.28-.3,1.43,1.43,0,0,1,.39-.2,1.58,1.58,0,0,1,.52-.08,1.91,1.91,0,0,1,.94.25,1.5,1.5,0,0,1,.64.8h0a1.48,1.48,0,0,1,.52-.73,1.62,1.62,0,0,1,1.05-.32,1.56,1.56,0,0,1,1.23.52,2.13,2.13,0,0,1,.45,1.45v3.31h-.8v-3.17a1.68,1.68,0,0,0-.27-1,1,1,0,0,0-.86-.36,1.7,1.7,0,0,0-.46.06,1.21,1.21,0,0,0-.38.18.88.88,0,0,0-.27.31.87.87,0,0,0-.1.44v3.58h-.8v-3.17a1.68,1.68,0,0,0-.27-1,1,1,0,0,0-.84-.36,1.7,1.7,0,0,0-.46.06,1.17,1.17,0,0,0-.39.18,1,1,0,0,0-.28.31.87.87,0,0,0-.1.44v3.58Z"/><path d="M600.63,148.22a2.29,2.29,0,0,1-1-.19,1.93,1.93,0,0,1-.73-.54,2.59,2.59,0,0,1-.47-.85,3.52,3.52,0,0,1-.16-1.12,3.59,3.59,0,0,1,.16-1.11,2.59,2.59,0,0,1,.47-.85,2.07,2.07,0,0,1,.73-.55,2.45,2.45,0,0,1,1-.19,2.34,2.34,0,0,1,.93.19,2.13,2.13,0,0,1,.7.53,2.25,2.25,0,0,1,.44.79,3.19,3.19,0,0,1,.16,1v.37h-3.71V146a1.79,1.79,0,0,0,.1.62,1.44,1.44,0,0,0,.3.49,1.37,1.37,0,0,0,.48.33,1.67,1.67,0,0,0,.65.12,1.51,1.51,0,0,0,.85-.23,1.48,1.48,0,0,0,.57-.66l.57.42a2.08,2.08,0,0,1-.78.86A2.36,2.36,0,0,1,600.63,148.22Zm0-4.73a1.46,1.46,0,0,0-.6.12,1.4,1.4,0,0,0-.47.32,1.44,1.44,0,0,0-.3.49,1.59,1.59,0,0,0-.11.62v.07H602V145a1.55,1.55,0,0,0-.38-1.09A1.26,1.26,0,0,0,600.63,143.49Z"/><path d="M605.32,148.1a.81.81,0,0,1-.64-.23.89.89,0,0,1-.21-.61v-3.61h-.85v-.71h.48a.46.46,0,0,0,.35-.1.51.51,0,0,0,.1-.37v-1h.72v1.43h1.13v.71h-1.13v3.74h1.05v.71Z"/><path d="M611.44,148.1a.8.8,0,0,1-.65-.24,1.16,1.16,0,0,1-.24-.6h0a1.37,1.37,0,0,1-.56.72,1.74,1.74,0,0,1-.93.24,1.83,1.83,0,0,1-1.28-.42,1.48,1.48,0,0,1-.45-1.14,1.32,1.32,0,0,1,.53-1.12,2.86,2.86,0,0,1,1.67-.39h1v-.51a1.14,1.14,0,0,0-.3-.84,1.3,1.3,0,0,0-.92-.29,1.39,1.39,0,0,0-.79.21,1.75,1.75,0,0,0-.52.56l-.48-.45a1.81,1.81,0,0,1,.67-.71,2.06,2.06,0,0,1,1.16-.3,2.18,2.18,0,0,1,1.46.46,1.66,1.66,0,0,1,.52,1.28v2.83h.59v.71Zm-2.3-.56a1.93,1.93,0,0,0,.55-.07,1.22,1.22,0,0,0,.43-.2.89.89,0,0,0,.28-.3.76.76,0,0,0,.1-.37v-.85h-1.06a2,2,0,0,0-1,.2.65.65,0,0,0-.31.58v.21a.7.7,0,0,0,.27.59A1.21,1.21,0,0,0,609.14,147.54Z"/><path d="M616.33,147.27h0a1.57,1.57,0,0,1-1.51.95,1.92,1.92,0,0,1-.87-.19,1.75,1.75,0,0,1-.67-.54,2.5,2.5,0,0,1-.42-.85,3.86,3.86,0,0,1-.14-1.12,4,4,0,0,1,.14-1.12,2.7,2.7,0,0,1,.42-.85,2,2,0,0,1,.67-.54,2.06,2.06,0,0,1,.87-.19,1.68,1.68,0,0,1,.92.24,1.45,1.45,0,0,1,.59.71h0V140.7h.8v7.4h-.8Zm-1.33.24a1.7,1.7,0,0,0,.51-.07,1.22,1.22,0,0,0,.43-.2,1,1,0,0,0,.28-.33.94.94,0,0,0,.11-.45v-1.93a.83.83,0,0,0-.11-.4.92.92,0,0,0-.28-.31,1.44,1.44,0,0,0-.43-.21,1.7,1.7,0,0,0-.51-.08,1.38,1.38,0,0,0-1.07.43,1.61,1.61,0,0,0-.39,1.12V146a1.61,1.61,0,0,0,.39,1.12A1.38,1.38,0,0,0,615,147.51Z"/><path d="M622.58,148.1a.8.8,0,0,1-.65-.24,1.16,1.16,0,0,1-.24-.6h-.05a1.37,1.37,0,0,1-.56.72,1.74,1.74,0,0,1-.93.24,1.81,1.81,0,0,1-1.28-.42,1.48,1.48,0,0,1-.45-1.14,1.3,1.3,0,0,1,.53-1.12,2.86,2.86,0,0,1,1.67-.39h1v-.51a1.14,1.14,0,0,0-.3-.84,1.3,1.3,0,0,0-.92-.29,1.39,1.39,0,0,0-.79.21,1.75,1.75,0,0,0-.52.56l-.48-.45a1.81,1.81,0,0,1,.67-.71,2.06,2.06,0,0,1,1.16-.3,2.18,2.18,0,0,1,1.46.46,1.66,1.66,0,0,1,.52,1.28v2.83H623v.71Zm-2.3-.56a1.93,1.93,0,0,0,.55-.07,1.22,1.22,0,0,0,.43-.2.89.89,0,0,0,.28-.3.76.76,0,0,0,.1-.37v-.85h-1.06a2,2,0,0,0-1,.2.65.65,0,0,0-.31.58v.21a.7.7,0,0,0,.27.59A1.19,1.19,0,0,0,620.28,147.54Z"/><path d="M625.31,148.1a.81.81,0,0,1-.64-.23.89.89,0,0,1-.21-.61v-3.61h-.85v-.71h.48a.46.46,0,0,0,.35-.1.56.56,0,0,0,.1-.37v-1h.72v1.43h1.13v.71h-1.13v3.74h1v.71Z"/><path d="M631.43,148.1a.8.8,0,0,1-.65-.24,1.16,1.16,0,0,1-.24-.6h0a1.37,1.37,0,0,1-.56.72,1.74,1.74,0,0,1-.93.24,1.83,1.83,0,0,1-1.28-.42,1.48,1.48,0,0,1-.45-1.14,1.32,1.32,0,0,1,.53-1.12,2.86,2.86,0,0,1,1.67-.39h1v-.51a1.14,1.14,0,0,0-.3-.84,1.3,1.3,0,0,0-.92-.29,1.39,1.39,0,0,0-.79.21,1.75,1.75,0,0,0-.52.56l-.48-.45a1.81,1.81,0,0,1,.67-.71,2.06,2.06,0,0,1,1.16-.3,2.18,2.18,0,0,1,1.46.46,1.66,1.66,0,0,1,.52,1.28v2.83h.59v.71Zm-2.3-.56a1.93,1.93,0,0,0,.55-.07,1.22,1.22,0,0,0,.43-.2.89.89,0,0,0,.28-.3.76.76,0,0,0,.1-.37v-.85h-1.06a2,2,0,0,0-1,.2.65.65,0,0,0-.31.58v.21a.7.7,0,0,0,.27.59A1.19,1.19,0,0,0,629.13,147.54Z"/><path d="M422.35,131.47l-1,1.1v2.33h-.84v-7h.84v3.71h0l1-1.21,2.11-2.5h1l-2.6,3,2.78,4h-1Z"/><path d="M428.72,135a2.4,2.4,0,0,1-1-.19,2,2,0,0,1-.73-.55,2.61,2.61,0,0,1-.48-.85,3.93,3.93,0,0,1,0-2.22,2.56,2.56,0,0,1,.48-.86,1.86,1.86,0,0,1,.73-.54,2.24,2.24,0,0,1,1-.19,2.27,2.27,0,0,1,.93.18,2.16,2.16,0,0,1,.7.53,2.43,2.43,0,0,1,.45.79,3.24,3.24,0,0,1,.15,1v.38h-3.71v.24a1.74,1.74,0,0,0,.11.61,1.48,1.48,0,0,0,.3.5,1.43,1.43,0,0,0,.47.33,1.67,1.67,0,0,0,.65.12,1.56,1.56,0,0,0,.85-.23,1.53,1.53,0,0,0,.57-.66l.57.41a2.08,2.08,0,0,1-.78.86A2.32,2.32,0,0,1,428.72,135Zm0-4.73a1.46,1.46,0,0,0-.6.11,1.36,1.36,0,0,0-.46.32,1.57,1.57,0,0,0-.31.49,1.81,1.81,0,0,0-.11.63v.07h2.85v-.11a1.56,1.56,0,0,0-.37-1.1A1.28,1.28,0,0,0,428.72,130.29Z"/><path d="M435.45,129.74h.79l-2.31,6.36a2.74,2.74,0,0,1-.18.38.76.76,0,0,1-.22.25,1,1,0,0,1-.32.13,3.2,3.2,0,0,1-.48,0h-.41v-.71h.81l.39-1.1-1.93-5.35h.8l1.24,3.5.24.84h.05l.28-.84Z"/><path d="M440.47,134.9a.83.83,0,0,1-.64-.24.85.85,0,0,1-.21-.59V127.5h.8v6.69h.76v.71Z"/><path d="M442.74,128.53a.53.53,0,0,1-.38-.13.48.48,0,0,1-.11-.32V128a.49.49,0,0,1,.11-.33.52.52,0,0,1,.38-.12.48.48,0,0,1,.37.12.45.45,0,0,1,.12.33v.13a.44.44,0,0,1-.12.32A.49.49,0,0,1,442.74,128.53Zm-.4,1.21h.8v5.16h-.8Z"/><path d="M445.12,130.45h-.84v-.71h.84v-1a1.28,1.28,0,0,1,.28-.87,1.06,1.06,0,0,1,.85-.33H447v.71h-1.11v1.53H447v.71h-1.11v4.45h-.8Z"/><path d="M450,135a2.49,2.49,0,0,1-1-.19,2.17,2.17,0,0,1-.73-.55,2.79,2.79,0,0,1-.47-.85,3.93,3.93,0,0,1,0-2.22,2.73,2.73,0,0,1,.47-.86,2,2,0,0,1,.73-.54,2.32,2.32,0,0,1,1-.19,2.27,2.27,0,0,1,.93.18,2.16,2.16,0,0,1,.7.53,2.43,2.43,0,0,1,.45.79,3.24,3.24,0,0,1,.15,1v.38h-3.71v.24a1.74,1.74,0,0,0,.11.61,1.32,1.32,0,0,0,.29.5,1.47,1.47,0,0,0,.48.33,1.67,1.67,0,0,0,.65.12,1.56,1.56,0,0,0,.85-.23,1.53,1.53,0,0,0,.57-.66l.57.41a2.08,2.08,0,0,1-.78.86A2.32,2.32,0,0,1,450,135Zm0-4.73a1.46,1.46,0,0,0-.6.11,1.27,1.27,0,0,0-.46.32,1.57,1.57,0,0,0-.31.49,1.81,1.81,0,0,0-.11.63v.07h2.85v-.11a1.56,1.56,0,0,0-.37-1.1A1.28,1.28,0,0,0,450,130.29Z"/><path d="M455.49,135a2.5,2.5,0,0,1-1-.19,2.08,2.08,0,0,1-.73-.54,2.75,2.75,0,0,1-.45-.85,3.94,3.94,0,0,1-.15-1.12,3.84,3.84,0,0,1,.15-1.12,2.54,2.54,0,0,1,.45-.85,1.86,1.86,0,0,1,.73-.54,2.33,2.33,0,0,1,1-.19,2.08,2.08,0,0,1,1.23.33,2,2,0,0,1,.7.88l-.67.34a1.17,1.17,0,0,0-.46-.62,1.35,1.35,0,0,0-.8-.22,1.54,1.54,0,0,0-.63.11,1.23,1.23,0,0,0-.45.32,1.37,1.37,0,0,0-.27.49,2.08,2.08,0,0,0-.09.63v.88a1.68,1.68,0,0,0,.36,1.11,1.35,1.35,0,0,0,1.08.44,1.45,1.45,0,0,0,1.4-.9l.58.39a2.1,2.1,0,0,1-.75.89A2.17,2.17,0,0,1,455.49,135Z"/><path d="M461.78,129.74h.79l-2.31,6.36a2.74,2.74,0,0,1-.18.38.76.76,0,0,1-.22.25,1,1,0,0,1-.33.13,2.94,2.94,0,0,1-.47,0h-.41v-.71h.81l.39-1.1-1.93-5.35h.8l1.24,3.5.24.84h.05l.28-.84Z"/><path d="M465.51,135a2.5,2.5,0,0,1-1-.19,2.08,2.08,0,0,1-.73-.54,2.75,2.75,0,0,1-.45-.85,3.94,3.94,0,0,1-.15-1.12,3.84,3.84,0,0,1,.15-1.12,2.54,2.54,0,0,1,.45-.85,1.86,1.86,0,0,1,.73-.54,2.33,2.33,0,0,1,1-.19,2.08,2.08,0,0,1,1.23.33,2,2,0,0,1,.7.88l-.67.34a1.17,1.17,0,0,0-.46-.62,1.35,1.35,0,0,0-.8-.22,1.54,1.54,0,0,0-.63.11,1.23,1.23,0,0,0-.45.32,1.37,1.37,0,0,0-.27.49,2.08,2.08,0,0,0-.09.63v.88a1.68,1.68,0,0,0,.36,1.11,1.35,1.35,0,0,0,1.08.44,1.45,1.45,0,0,0,1.4-.9l.58.39a2.1,2.1,0,0,1-.75.89A2.17,2.17,0,0,1,465.51,135Z"/><path d="M469.47,134.9a.83.83,0,0,1-.64-.24.85.85,0,0,1-.21-.59V127.5h.8v6.69h.76v.71Z"/><path d="M473.28,135a2.49,2.49,0,0,1-1-.19,2.17,2.17,0,0,1-.73-.55,2.59,2.59,0,0,1-.47-.85,3.93,3.93,0,0,1,0-2.22,2.54,2.54,0,0,1,.47-.86,2,2,0,0,1,.73-.54,2.32,2.32,0,0,1,1-.19,2.27,2.27,0,0,1,.93.18,2.16,2.16,0,0,1,.7.53,2.25,2.25,0,0,1,.44.79,3,3,0,0,1,.16,1v.38H471.8v.24a1.74,1.74,0,0,0,.1.61,1.48,1.48,0,0,0,.3.5,1.37,1.37,0,0,0,.48.33,1.67,1.67,0,0,0,.65.12,1.56,1.56,0,0,0,.85-.23,1.53,1.53,0,0,0,.57-.66l.57.41a2.08,2.08,0,0,1-.78.86A2.32,2.32,0,0,1,473.28,135Zm0-4.73a1.46,1.46,0,0,0-.6.11,1.4,1.4,0,0,0-.47.32,1.54,1.54,0,0,0-.3.49,1.81,1.81,0,0,0-.11.63v.07h2.85v-.11a1.56,1.56,0,0,0-.38-1.1A1.26,1.26,0,0,0,473.28,130.29Z"/><path d="M420.18,146.9v-5.16h.8v.83h0a2.32,2.32,0,0,1,.21-.38,1.53,1.53,0,0,1,.27-.3,1.59,1.59,0,0,1,.39-.2,1.64,1.64,0,0,1,.52-.07,1.91,1.91,0,0,1,.94.24,1.45,1.45,0,0,1,.64.8h0a1.55,1.55,0,0,1,.53-.73,1.57,1.57,0,0,1,1-.31,1.53,1.53,0,0,1,1.23.51,2.14,2.14,0,0,1,.45,1.46v3.31h-.8v-3.18a1.68,1.68,0,0,0-.27-1,1,1,0,0,0-.86-.35,1.63,1.63,0,0,0-.45.06,1.17,1.17,0,0,0-.39.18,1,1,0,0,0-.27.3.89.89,0,0,0-.1.44v3.59h-.8v-3.18a1.68,1.68,0,0,0-.27-1,1,1,0,0,0-.84-.35,1.76,1.76,0,0,0-.46.06,1.17,1.17,0,0,0-.39.18,1.15,1.15,0,0,0-.28.3,1,1,0,0,0-.1.44v3.59Z"/><path d="M432.66,146.9a.77.77,0,0,1-.64-.24,1.17,1.17,0,0,1-.25-.6h0a1.32,1.32,0,0,1-.56.72,1.74,1.74,0,0,1-.93.24,1.79,1.79,0,0,1-1.27-.42,1.46,1.46,0,0,1-.46-1.14,1.29,1.29,0,0,1,.54-1.12,2.82,2.82,0,0,1,1.66-.39h1v-.51a1.1,1.1,0,0,0-.3-.84,1.26,1.26,0,0,0-.92-.29,1.43,1.43,0,0,0-.79.21,1.65,1.65,0,0,0-.52.56l-.48-.45a1.83,1.83,0,0,1,.67-.72,2.08,2.08,0,0,1,1.16-.29,2.16,2.16,0,0,1,1.46.45,1.62,1.62,0,0,1,.52,1.28v2.84h.59v.71Zm-2.3-.56a2.36,2.36,0,0,0,.55-.07,1.56,1.56,0,0,0,.43-.2,1.13,1.13,0,0,0,.28-.3.71.71,0,0,0,.1-.37v-.85h-1.06a1.85,1.85,0,0,0-1,.2.62.62,0,0,0-.32.58v.21a.69.69,0,0,0,.28.59A1.18,1.18,0,0,0,430.36,146.34Z"/><path d="M434.25,146.9v-5.16h.8v.83h0a1.81,1.81,0,0,1,.53-.7,1.53,1.53,0,0,1,.93-.25,1.62,1.62,0,0,1,1.26.51,2.1,2.1,0,0,1,.47,1.46v3.31h-.8v-3.18c0-.93-.39-1.39-1.17-1.39a1.89,1.89,0,0,0-.47.06,1.32,1.32,0,0,0-.4.18,1,1,0,0,0-.29.3.89.89,0,0,0-.1.44v3.59Z"/><path d="M443.68,146.9a.77.77,0,0,1-.64-.24,1.17,1.17,0,0,1-.25-.6h-.05a1.32,1.32,0,0,1-.56.72,1.74,1.74,0,0,1-.93.24,1.79,1.79,0,0,1-1.27-.42,1.46,1.46,0,0,1-.46-1.14,1.29,1.29,0,0,1,.54-1.12,2.82,2.82,0,0,1,1.66-.39h1v-.51a1.1,1.1,0,0,0-.3-.84,1.26,1.26,0,0,0-.92-.29,1.43,1.43,0,0,0-.79.21,1.65,1.65,0,0,0-.52.56l-.48-.45a1.83,1.83,0,0,1,.67-.72,2.08,2.08,0,0,1,1.16-.29,2.16,2.16,0,0,1,1.46.45,1.62,1.62,0,0,1,.52,1.28v2.84h.59v.71Zm-2.3-.56a2.36,2.36,0,0,0,.55-.07,1.56,1.56,0,0,0,.43-.2,1.13,1.13,0,0,0,.28-.3.71.71,0,0,0,.1-.37v-.85h-1.06a1.85,1.85,0,0,0-1,.2.62.62,0,0,0-.32.58v.21a.69.69,0,0,0,.28.59A1.18,1.18,0,0,0,441.38,146.34Z"/><path d="M449.62,147.47a1.28,1.28,0,0,1-.62,1.17,3.75,3.75,0,0,1-1.88.38,3.42,3.42,0,0,1-1.74-.33,1.06,1.06,0,0,1-.53-.94.92.92,0,0,1,.22-.66,1.35,1.35,0,0,1,.6-.34v-.11a.75.75,0,0,1-.46-.72.71.71,0,0,1,.25-.59,1.52,1.52,0,0,1,.64-.3v0a1.66,1.66,0,0,1-.72-.64,1.75,1.75,0,0,1-.25-.95,1.89,1.89,0,0,1,.14-.72,1.64,1.64,0,0,1,.4-.57,1.72,1.72,0,0,1,.6-.36,2.28,2.28,0,0,1,.8-.13,2.2,2.2,0,0,1,1,.2v-.09a.9.9,0,0,1,.14-.51.52.52,0,0,1,.46-.19h.77v.71h-1v.33a1.75,1.75,0,0,1,.44.57,2,2,0,0,1,0,1.48,1.61,1.61,0,0,1-.39.57,1.93,1.93,0,0,1-.62.37,2.53,2.53,0,0,1-.8.13,2.83,2.83,0,0,1-.5-.05,1.52,1.52,0,0,0-.47.2.43.43,0,0,0-.21.38.31.31,0,0,0,.22.31,1.82,1.82,0,0,0,.57.08h1.1a2.2,2.2,0,0,1,1.4.36A1.23,1.23,0,0,1,449.62,147.47Zm-.75.06a.59.59,0,0,0-.24-.5,1.39,1.39,0,0,0-.83-.18h-1.72a.72.72,0,0,0-.48.7.81.81,0,0,0,.25.58,1.26,1.26,0,0,0,.87.24h.74a2.13,2.13,0,0,0,1-.21A.67.67,0,0,0,448.87,147.53Zm-1.79-3a1.26,1.26,0,0,0,.81-.25.92.92,0,0,0,.3-.76v-.28a.94.94,0,0,0-.3-.76,1.49,1.49,0,0,0-1.62,0,.94.94,0,0,0-.3.76v.28a.92.92,0,0,0,.3.76A1.26,1.26,0,0,0,447.08,144.55Z"/><path d="M452.49,147a2.49,2.49,0,0,1-1-.19,2.17,2.17,0,0,1-.73-.55,2.59,2.59,0,0,1-.47-.85,3.93,3.93,0,0,1,0-2.22,2.54,2.54,0,0,1,.47-.86,2,2,0,0,1,.73-.54,2.32,2.32,0,0,1,1-.19,2.27,2.27,0,0,1,.93.18,2.16,2.16,0,0,1,.7.53,2.25,2.25,0,0,1,.44.79,3,3,0,0,1,.16,1v.38H451v.24a1.74,1.74,0,0,0,.1.61,1.48,1.48,0,0,0,.3.5,1.37,1.37,0,0,0,.48.33,1.67,1.67,0,0,0,.65.12,1.56,1.56,0,0,0,.85-.23,1.53,1.53,0,0,0,.57-.66l.57.41a2.08,2.08,0,0,1-.78.86A2.32,2.32,0,0,1,452.49,147Zm0-4.73a1.46,1.46,0,0,0-.6.11,1.4,1.4,0,0,0-.47.32,1.54,1.54,0,0,0-.3.49,1.81,1.81,0,0,0-.11.63v.07h2.85v-.11a1.56,1.56,0,0,0-.38-1.1A1.26,1.26,0,0,0,452.49,142.29Z"/><path d="M456,146.9v-5.16h.8v.83h0a3.39,3.39,0,0,1,.2-.38,1.23,1.23,0,0,1,.67-.5,1.64,1.64,0,0,1,.52-.07,1.91,1.91,0,0,1,.94.24,1.45,1.45,0,0,1,.64.8h0a1.55,1.55,0,0,1,.53-.73,1.57,1.57,0,0,1,1-.31,1.53,1.53,0,0,1,1.23.51,2.14,2.14,0,0,1,.45,1.46v3.31h-.8v-3.18a1.68,1.68,0,0,0-.27-1,1,1,0,0,0-.86-.35,1.76,1.76,0,0,0-.46.06,1.21,1.21,0,0,0-.38.18,1,1,0,0,0-.27.3.89.89,0,0,0-.1.44v3.59h-.8v-3.18a1.68,1.68,0,0,0-.27-1,1,1,0,0,0-.84-.35,1.76,1.76,0,0,0-.46.06,1.17,1.17,0,0,0-.39.18,1.15,1.15,0,0,0-.28.3,1,1,0,0,0-.1.44v3.59Z"/><path d="M466.71,147a2.49,2.49,0,0,1-1-.19,2.17,2.17,0,0,1-.73-.55,2.59,2.59,0,0,1-.47-.85,3.93,3.93,0,0,1,0-2.22,2.54,2.54,0,0,1,.47-.86,2,2,0,0,1,.73-.54,2.32,2.32,0,0,1,1-.19,2.27,2.27,0,0,1,.93.18,2.16,2.16,0,0,1,.7.53,2.25,2.25,0,0,1,.44.79,3,3,0,0,1,.16,1v.38h-3.71v.24a1.74,1.74,0,0,0,.1.61,1.48,1.48,0,0,0,.3.5,1.37,1.37,0,0,0,.48.33,1.67,1.67,0,0,0,.65.12,1.56,1.56,0,0,0,.85-.23,1.53,1.53,0,0,0,.57-.66l.57.41a2.08,2.08,0,0,1-.78.86A2.32,2.32,0,0,1,466.71,147Zm0-4.73a1.46,1.46,0,0,0-.6.11,1.4,1.4,0,0,0-.47.32,1.54,1.54,0,0,0-.3.49,1.81,1.81,0,0,0-.11.63v.07h2.85v-.11a1.56,1.56,0,0,0-.38-1.1A1.26,1.26,0,0,0,466.71,142.29Z"/><path d="M470.26,146.9v-5.16h.8v.83h0a1.72,1.72,0,0,1,.53-.7,1.53,1.53,0,0,1,.93-.25,1.62,1.62,0,0,1,1.26.51,2.1,2.1,0,0,1,.47,1.46v3.31h-.8v-3.18c0-.93-.39-1.39-1.17-1.39a1.84,1.84,0,0,0-.47.06,1.32,1.32,0,0,0-.4.18.92.92,0,0,0-.29.3.89.89,0,0,0-.1.44v3.59Z"/><path d="M477.08,146.9a.83.83,0,0,1-.64-.24.89.89,0,0,1-.21-.61v-3.6h-.85v-.71h.48a.46.46,0,0,0,.35-.11.5.5,0,0,0,.1-.36v-1H477v1.43h1.13v.71H477v3.74h1.05v.71Z"/><text transform="translate(498.06 186.51)" font-size="9" font-family="IBMPlexSans-SemiBold, IBM Plex Sans" font-weight="600">Service instance</text><text transform="translate(360.17 74.51)" font-size="10" font-family="IBMPlexSans-SemiBold, IBM Plex Sans" font-weight="600">Key Protect</text><path d="M199.47,157.82l-.56-1.65h-2.26l-.56,1.65h-.68l2-5.59h.86l1.95,5.59Zm-1.68-5h0l-.94,2.72h1.93Z"/><path d="M203.67,157.15h0a1.25,1.25,0,0,1-1.21.76,1.58,1.58,0,0,1-.69-.15,1.38,1.38,0,0,1-.53-.43,2,2,0,0,1-.34-.68,3.16,3.16,0,0,1-.12-.9,3,3,0,0,1,.12-.89,1.89,1.89,0,0,1,.34-.68,1.38,1.38,0,0,1,.53-.43,1.46,1.46,0,0,1,.69-.16,1.43,1.43,0,0,1,.74.19,1.17,1.17,0,0,1,.47.57h0V151.9h.64v5.92h-.64Zm-1.06.2a1.4,1.4,0,0,0,.41-.06.91.91,0,0,0,.34-.17.82.82,0,0,0,.23-.26.71.71,0,0,0,.08-.36V155a.59.59,0,0,0-.08-.32.78.78,0,0,0-.23-.25,1.08,1.08,0,0,0-.34-.17,1.4,1.4,0,0,0-.41-.06,1.14,1.14,0,0,0-.86.34,1.33,1.33,0,0,0-.31.9v.71a1.28,1.28,0,0,0,.31.89A1.11,1.11,0,0,0,202.61,157.35Z"/><path d="M208.31,157.15h0a1.25,1.25,0,0,1-1.21.76,1.55,1.55,0,0,1-.69-.15,1.38,1.38,0,0,1-.53-.43,2,2,0,0,1-.34-.68,3.16,3.16,0,0,1-.12-.9,3,3,0,0,1,.12-.89,1.89,1.89,0,0,1,.34-.68,1.38,1.38,0,0,1,.53-.43,1.55,1.55,0,0,1,1.43,0,1.17,1.17,0,0,1,.47.57h0V151.9H209v5.92h-.64Zm-1.06.2a1.4,1.4,0,0,0,.41-.06.91.91,0,0,0,.34-.17.82.82,0,0,0,.23-.26.71.71,0,0,0,.08-.36V155a.59.59,0,0,0-.08-.32.78.78,0,0,0-.23-.25,1.08,1.08,0,0,0-.34-.17,1.4,1.4,0,0,0-.41-.06,1.14,1.14,0,0,0-.86.34,1.33,1.33,0,0,0-.31.9v.71a1.28,1.28,0,0,0,.31.89A1.11,1.11,0,0,0,207.25,157.35Z"/><path d="M215.2,157.82a.63.63,0,0,1-.51-.19,1,1,0,0,1-.2-.48h0a1.07,1.07,0,0,1-.45.57,1.36,1.36,0,0,1-.74.19,1.46,1.46,0,0,1-1-.33,1.17,1.17,0,0,1-.37-.91,1.07,1.07,0,0,1,.43-.9,2.27,2.27,0,0,1,1.33-.31h.82v-.41a.89.89,0,0,0-.24-.67,1,1,0,0,0-.74-.23,1.08,1.08,0,0,0-.62.16,1.4,1.4,0,0,0-.42.45l-.39-.36a1.46,1.46,0,0,1,.54-.57,1.65,1.65,0,0,1,.93-.24,1.7,1.7,0,0,1,1.16.37,1.3,1.3,0,0,1,.42,1v2.27h.47v.57Zm-1.84-.45a1.51,1.51,0,0,0,.44-.06,1,1,0,0,0,.35-.16.83.83,0,0,0,.22-.24.6.6,0,0,0,.08-.29v-.68h-.85a1.5,1.5,0,0,0-.8.16.5.5,0,0,0-.25.46v.17a.55.55,0,0,0,.22.47A.94.94,0,0,0,213.36,157.37Z"/><path d="M216.47,157.82v-4.13h.64v.66h0a1.37,1.37,0,0,1,.42-.55,1.2,1.2,0,0,1,.74-.21,1.3,1.3,0,0,1,1,.42,1.7,1.7,0,0,1,.37,1.16v2.65h-.64v-2.54c0-.75-.31-1.12-.94-1.12a1.5,1.5,0,0,0-.37.05,1.22,1.22,0,0,0-.33.14.75.75,0,0,0-.22.25.65.65,0,0,0-.09.35v2.87Z"/><path d="M223.66,157.15h0a1.25,1.25,0,0,1-1.2.76,1.6,1.6,0,0,1-.7-.15,1.46,1.46,0,0,1-.53-.43,2,2,0,0,1-.34-.68,3.58,3.58,0,0,1-.11-.9,3.44,3.44,0,0,1,.11-.89,1.89,1.89,0,0,1,.34-.68,1.56,1.56,0,0,1,2-.4,1.15,1.15,0,0,1,.46.57h0V151.9h.64v5.92h-.64Zm-1.07.2a1.35,1.35,0,0,0,.41-.06.84.84,0,0,0,.34-.17.76.76,0,0,0,.32-.62V155a.59.59,0,0,0-.09-.32.68.68,0,0,0-.23-.25,1,1,0,0,0-.34-.17,1.35,1.35,0,0,0-.41-.06,1.11,1.11,0,0,0-.85.34,1.29,1.29,0,0,0-.32.9v.71a1.24,1.24,0,0,0,.32.89A1.08,1.08,0,0,0,222.59,157.35Z"/><path d="M227.55,157.82v-4.13h.64v.66h0a2.69,2.69,0,0,1,.16-.29.92.92,0,0,1,.23-.25,1.22,1.22,0,0,1,.3-.16,1.33,1.33,0,0,1,.42-.06,1.5,1.5,0,0,1,.75.2,1.15,1.15,0,0,1,.51.64h0a1.2,1.2,0,0,1,.42-.59,1.31,1.31,0,0,1,.84-.25,1.2,1.2,0,0,1,1,.42,1.7,1.7,0,0,1,.36,1.16v2.65h-.64v-2.54a1.34,1.34,0,0,0-.22-.84.79.79,0,0,0-.68-.28,1.5,1.5,0,0,0-.37.05,1.09,1.09,0,0,0-.31.14.72.72,0,0,0-.21.25.65.65,0,0,0-.08.35v2.87h-.64v-2.54a1.34,1.34,0,0,0-.22-.84.78.78,0,0,0-.67-.28,1.5,1.5,0,0,0-.37.05,1,1,0,0,0-.31.14.88.88,0,0,0-.22.25.65.65,0,0,0-.08.35v2.87Z"/><path d="M237.53,157.82a.67.67,0,0,1-.52-.19.94.94,0,0,1-.19-.48h0a1.07,1.07,0,0,1-.45.57,1.39,1.39,0,0,1-.75.19,1.49,1.49,0,0,1-1-.33,1.2,1.2,0,0,1-.36-.91,1,1,0,0,1,.43-.9,2.25,2.25,0,0,1,1.33-.31h.82v-.41a.89.89,0,0,0-.24-.67,1,1,0,0,0-.74-.23,1.14,1.14,0,0,0-.63.16,1.4,1.4,0,0,0-.42.45l-.38-.36a1.51,1.51,0,0,1,.53-.57,1.69,1.69,0,0,1,.93-.24A1.74,1.74,0,0,1,237,154a1.3,1.3,0,0,1,.42,1v2.27h.47v.57Zm-1.84-.45a1.51,1.51,0,0,0,.44-.06.89.89,0,0,0,.34-.16.87.87,0,0,0,.23-.24.6.6,0,0,0,.08-.29v-.68h-.85a1.54,1.54,0,0,0-.81.16.52.52,0,0,0-.25.46v.17a.57.57,0,0,0,.22.47A1,1,0,0,0,235.69,157.37Z"/><path d="M238.8,157.82v-4.13h.64v.66h0a1.39,1.39,0,0,1,.43-.55,1.18,1.18,0,0,1,.74-.21,1.26,1.26,0,0,1,1,.42,1.65,1.65,0,0,1,.37,1.16v2.65h-.63v-2.54c0-.75-.32-1.12-.94-1.12a1.5,1.5,0,0,0-.37.05,1.22,1.22,0,0,0-.33.14.92.92,0,0,0-.23.25.75.75,0,0,0-.08.35v2.87Z"/><path d="M246.35,157.82a.64.64,0,0,1-.52-.19,1,1,0,0,1-.2-.48h0a1.11,1.11,0,0,1-.44.57,1.39,1.39,0,0,1-.75.19,1.46,1.46,0,0,1-1-.33,1.2,1.2,0,0,1-.36-.91,1.06,1.06,0,0,1,.42-.9,2.29,2.29,0,0,1,1.34-.31h.81v-.41a.89.89,0,0,0-.24-.67,1,1,0,0,0-.73-.23,1.14,1.14,0,0,0-.63.16,1.4,1.4,0,0,0-.42.45l-.38-.36a1.51,1.51,0,0,1,.53-.57,1.69,1.69,0,0,1,.93-.24,1.74,1.74,0,0,1,1.17.37,1.33,1.33,0,0,1,.41,1v2.27h.48v.57Zm-1.85-.45a1.46,1.46,0,0,0,.44-.06.94.94,0,0,0,.35-.16.71.71,0,0,0,.22-.24.51.51,0,0,0,.08-.29v-.68h-.84a1.54,1.54,0,0,0-.81.16.5.5,0,0,0-.25.46v.17a.55.55,0,0,0,.22.47A1,1,0,0,0,244.5,157.37Z"/><path d="M251.1,158.28a1,1,0,0,1-.5.93,3,3,0,0,1-1.5.3,2.75,2.75,0,0,1-1.4-.26.85.85,0,0,1-.42-.75.7.7,0,0,1,.18-.52,1,1,0,0,1,.48-.28v-.09a.58.58,0,0,1-.37-.57.6.6,0,0,1,.2-.48,1.34,1.34,0,0,1,.51-.24v0a1.35,1.35,0,0,1-.57-.51,1.38,1.38,0,0,1-.21-.76,1.44,1.44,0,0,1,.43-1,1.42,1.42,0,0,1,.49-.29,1.83,1.83,0,0,1,.64-.11,1.94,1.94,0,0,1,.78.16v-.07a.72.72,0,0,1,.11-.4.42.42,0,0,1,.37-.16h.62v.57h-.79V154a1.35,1.35,0,0,1,.35.47,1.43,1.43,0,0,1,.12.6,1.4,1.4,0,0,1-.11.58,1.21,1.21,0,0,1-.31.45,1.39,1.39,0,0,1-.5.3,2.1,2.1,0,0,1-.64.1,1.87,1.87,0,0,1-.4,0,1.53,1.53,0,0,0-.37.16.36.36,0,0,0-.17.3.24.24,0,0,0,.18.25,1.37,1.37,0,0,0,.45.07h.88a1.71,1.71,0,0,1,1.12.29A1,1,0,0,1,251.1,158.28Zm-.6,0a.48.48,0,0,0-.19-.39,1.12,1.12,0,0,0-.67-.15h-1.38a.58.58,0,0,0-.38.56.63.63,0,0,0,.2.46,1,1,0,0,0,.7.19h.59a1.72,1.72,0,0,0,.83-.16A.55.55,0,0,0,250.5,158.32Zm-1.44-2.38a1,1,0,0,0,.65-.2.74.74,0,0,0,.24-.61v-.22a.75.75,0,0,0-.24-.61,1,1,0,0,0-.65-.19,1,1,0,0,0-.64.19.75.75,0,0,0-.24.61v.22a.74.74,0,0,0,.24.61A1,1,0,0,0,249.06,155.94Z"/><path d="M253.39,157.91a1.87,1.87,0,0,1-.76-.15,1.8,1.8,0,0,1-.59-.43,2.12,2.12,0,0,1-.37-.68,2.84,2.84,0,0,1-.13-.9,2.71,2.71,0,0,1,.13-.88,2.07,2.07,0,0,1,.37-.69,1.66,1.66,0,0,1,.59-.43,1.73,1.73,0,0,1,.76-.16,1.65,1.65,0,0,1,.75.16,1.76,1.76,0,0,1,.56.41,1.88,1.88,0,0,1,.35.64,2.28,2.28,0,0,1,.13.8v.31h-3v.19a1.57,1.57,0,0,0,.08.49,1.47,1.47,0,0,0,.24.4,1.07,1.07,0,0,0,.39.26,1.36,1.36,0,0,0,.51.1,1.32,1.32,0,0,0,.69-.19,1.24,1.24,0,0,0,.45-.53l.45.33a1.53,1.53,0,0,1-.62.69A1.83,1.83,0,0,1,253.39,157.91Zm0-3.78a1.28,1.28,0,0,0-.48.09,1.08,1.08,0,0,0-.37.26,1.28,1.28,0,0,0-.24.39,1.35,1.35,0,0,0-.09.5v.06h2.28v-.09a1.25,1.25,0,0,0-.3-.88A1,1,0,0,0,253.39,154.13Z"/><path d="M195.91,167.42v-4.13h.64v.76h0a1.17,1.17,0,0,1,.4-.53,1.24,1.24,0,0,1,.79-.23H198v.64h-.38a1.35,1.35,0,0,0-.81.2.56.56,0,0,0-.29.49v2.8Z"/><path d="M200.4,167.51a1.87,1.87,0,0,1-.76-.15,1.8,1.8,0,0,1-.59-.43,2.14,2.14,0,0,1-.38-.68,2.84,2.84,0,0,1-.13-.9,2.71,2.71,0,0,1,.13-.88,2.09,2.09,0,0,1,.38-.69,1.66,1.66,0,0,1,.59-.43,1.89,1.89,0,0,1,1.52,0,1.76,1.76,0,0,1,.59.43,2.09,2.09,0,0,1,.38.69,2.71,2.71,0,0,1,.14.88,2.83,2.83,0,0,1-.14.9,2.14,2.14,0,0,1-.38.68,1.91,1.91,0,0,1-.59.43A1.87,1.87,0,0,1,200.4,167.51Zm0-.56a1.18,1.18,0,0,0,.85-.32,1.32,1.32,0,0,0,.33-1v-.59a1.3,1.3,0,0,0-.33-1,1.29,1.29,0,0,0-1.7,0,1.3,1.3,0,0,0-.32,1v.59a1.32,1.32,0,0,0,.32,1A1.18,1.18,0,0,0,200.4,167Z"/><path d="M204.88,167.51a1.87,1.87,0,0,1-.76-.15,1.8,1.8,0,0,1-.59-.43,2.14,2.14,0,0,1-.38-.68,2.84,2.84,0,0,1-.13-.9,2.71,2.71,0,0,1,.13-.88,2.09,2.09,0,0,1,.38-.69,1.66,1.66,0,0,1,.59-.43,1.89,1.89,0,0,1,1.52,0,1.76,1.76,0,0,1,.59.43,2.09,2.09,0,0,1,.38.69,2.71,2.71,0,0,1,.14.88,2.83,2.83,0,0,1-.14.9,2.14,2.14,0,0,1-.38.68,1.91,1.91,0,0,1-.59.43A1.87,1.87,0,0,1,204.88,167.51Zm0-.56a1.18,1.18,0,0,0,.85-.32,1.32,1.32,0,0,0,.33-1v-.59a1.3,1.3,0,0,0-.33-1,1.29,1.29,0,0,0-1.7,0,1.3,1.3,0,0,0-.32,1v.59a1.32,1.32,0,0,0,.32,1A1.18,1.18,0,0,0,204.88,167Z"/><path d="M208.71,167.42a.65.65,0,0,1-.5-.19.69.69,0,0,1-.18-.49v-2.88h-.68v-.57h.39a.39.39,0,0,0,.28-.08.47.47,0,0,0,.08-.3v-.76h.57v1.14h.91v.57h-.91v3h.84v.57Z"/><path d="M212.5,161.5h.64v3.75h0l.63-.7,1.17-1.26h.78l-1.53,1.63,1.68,2.5h-.78l-1.37-2.11-.61.64v1.47h-.64Z"/><path d="M218.27,167.51a1.89,1.89,0,0,1-.77-.15,1.66,1.66,0,0,1-.58-.43,2,2,0,0,1-.38-.68,2.84,2.84,0,0,1-.13-.9,2.71,2.71,0,0,1,.13-.88,1.92,1.92,0,0,1,.38-.69,1.55,1.55,0,0,1,.58-.43,1.74,1.74,0,0,1,.77-.16,1.64,1.64,0,0,1,.74.16,1.76,1.76,0,0,1,.56.41,2.09,2.09,0,0,1,.36.64,2.53,2.53,0,0,1,.12.8v.31h-3v.19a1.33,1.33,0,0,0,.09.49,1.1,1.1,0,0,0,.24.4,1,1,0,0,0,.38.26,1.38,1.38,0,0,0,.52.1,1.29,1.29,0,0,0,.68-.19,1.24,1.24,0,0,0,.45-.53l.46.33a1.55,1.55,0,0,1-.63.69A1.82,1.82,0,0,1,218.27,167.51Zm0-3.78a1.21,1.21,0,0,0-.48.09,1.12,1.12,0,0,0-.38.26,1.28,1.28,0,0,0-.24.39,1.35,1.35,0,0,0-.09.5V165h2.28v-.09a1.25,1.25,0,0,0-.3-.88A1,1,0,0,0,218.27,163.73Z"/><path d="M223.65,163.29h.63l-1.85,5.09a1.8,1.8,0,0,1-.14.31.66.66,0,0,1-.18.19.78.78,0,0,1-.26.11,2,2,0,0,1-.38,0h-.32v-.57h.64l.32-.88-1.55-4.28h.64l1,2.8.2.67h0l.22-.67Z"/><path d="M226.34,167.51a1.91,1.91,0,0,1-1-.22,2,2,0,0,1-.66-.58l.45-.37a1.83,1.83,0,0,0,.54.47,1.34,1.34,0,0,0,.68.16,1,1,0,0,0,.64-.18.58.58,0,0,0,.23-.49.56.56,0,0,0-.16-.41.89.89,0,0,0-.56-.24l-.33-.05a3.77,3.77,0,0,1-.53-.12,1.42,1.42,0,0,1-.42-.23,1,1,0,0,1-.28-.34,1.27,1.27,0,0,1-.1-.5,1.25,1.25,0,0,1,.11-.53,1.15,1.15,0,0,1,.31-.38,1.38,1.38,0,0,1,.47-.23,2.21,2.21,0,0,1,.59-.08,1.8,1.8,0,0,1,.84.18,2,2,0,0,1,.6.49l-.43.38a1.27,1.27,0,0,0-.4-.35,1.32,1.32,0,0,0-.66-.15.91.91,0,0,0-.61.17.59.59,0,0,0-.2.47.5.5,0,0,0,.2.44,1.5,1.5,0,0,0,.59.2l.32,0a1.72,1.72,0,0,1,1,.39,1.06,1.06,0,0,1,.29.77,1.17,1.17,0,0,1-.41.94A1.68,1.68,0,0,1,226.34,167.51Z"/><text transform="translate(204.67 131.71)" font-size="9" font-family="IBMPlexSans, IBM Plex Sans">REST APIs</text><text transform="translate(134.22 294.73) rotate(-90)" font-size="10" font-family="IBMPlexSans, IBM Plex Sans">Load balancer</text><text transform="translate(315.05 19.98)" font-size="10" fill="#8d8d8d" font-family="IBMPlexSans, IBM Plex Sans">Multi-zone region</text><text transform="translate(112.18 19.98)" font-size="10" font-family="IBMPlexSans-SemiBold, IBM Plex Sans" font-weight="600">IBM Cloud</text><text transform="translate(13.32 167.4)" font-size="10" font-family="IBMPlexSans, IBM Plex Sans">Admin</text></g></svg>