<svg xmlns="http://www.w3.org/2000/svg" viewBox="0 0 1000 559"><defs><clipPath id="a"><path fill="none" d="M120 147h35.78v52.29H120z"/></clipPath><clipPath id="b"><path fill="none" d="M105.44 379.49h64.48v30h-64.48z"/></clipPath><clipPath id="c"><path fill="none" d="M106.18 380.16h62v28h-62z"/></clipPath><clipPath id="d"><path fill="none" d="M604.06 147h35.78v52.29h-35.78z"/></clipPath><clipPath id="e"><path fill="none" d="M261.19 379.4h64.48v30h-64.48z"/></clipPath><clipPath id="f"><path fill="none" d="M261.19 379.4h64.48v30h-64.48z"/></clipPath><clipPath id="g"><path fill="none" d="M205.5 182.5h15v15h-15z"/></clipPath><clipPath id="h"><path fill="none" d="M205.5 400.5h15v15h-15z"/></clipPath><clipPath id="i"><path fill="none" d="M436.21 162.29h50v37h-50z"/></clipPath><clipPath id="j"><path fill="none" d="M436 379h50v37h-50z"/></clipPath><clipPath id="k"><path fill="none" d="M260.46 160.55h64.48v30h-64.48z"/></clipPath><clipPath id="l"><path fill="none" d="M260.46 160.55h64.48v30h-64.48z"/></clipPath><clipPath id="m"><path fill="none" d="M614.45 294.5h15v15h-15z"/></clipPath><clipPath id="n"><path fill="none" d="M595.2 361.49h53.5v52h-53.5z"/></clipPath><clipPath id="o"><path fill="none" d="M781.18 147h54.87v52.29h-54.87z"/></clipPath></defs><g data-name="Visual"><path fill="#fff" d="M48.5 83.5h901v200h-901z"/><path fill="none" stroke="#d8d8d8" stroke-miterlimit="10" d="M949.5 282v1.5H948"/><path fill="none" stroke="#d8d8d8" stroke-miterlimit="10" stroke-dasharray="3 2" d="M946 283.5H51"/><path fill="none" stroke="#d8d8d8" stroke-miterlimit="10" d="M50 283.5h-1.5V282"/><path fill="none" stroke="#d8d8d8" stroke-miterlimit="10" stroke-dasharray="3 2" d="M48.5 280V86"/><path fill="none" stroke="#d8d8d8" stroke-miterlimit="10" d="M48.5 85v-1.5H50"/><path fill="none" stroke="#d8d8d8" stroke-miterlimit="10" stroke-dasharray="3 2" d="M52 83.5h895"/><path fill="none" stroke="#d8d8d8" stroke-miterlimit="10" d="M948 83.5h1.5V85"/><path fill="none" stroke="#d8d8d8" stroke-miterlimit="10" stroke-dasharray="3 2" d="M949.5 87v194"/><path fill="#fff" d="M48.5 300.5h901v200h-901z"/><path fill="none" stroke="#d8d8d8" stroke-miterlimit="10" d="M949.5 499v1.5H948"/><path fill="none" stroke="#d8d8d8" stroke-miterlimit="10" stroke-dasharray="3 2" d="M946 500.5H51"/><path fill="none" stroke="#d8d8d8" stroke-miterlimit="10" d="M50 500.5h-1.5V499"/><path fill="none" stroke="#d8d8d8" stroke-miterlimit="10" stroke-dasharray="3 2" d="M48.5 497V303"/><path fill="none" stroke="#d8d8d8" stroke-miterlimit="10" d="M48.5 302v-1.5H50"/><path fill="none" stroke="#d8d8d8" stroke-miterlimit="10" stroke-dasharray="3 2" d="M52 300.5h895"/><path fill="none" stroke="#d8d8d8" stroke-miterlimit="10" d="M948 300.5h1.5v1.5"/><path fill="none" stroke="#d8d8d8" stroke-miterlimit="10" stroke-dasharray="3 2" d="M949.5 304v194"/><path fill="#edf5ff" d="M69.5 123.5h300v140h-300z"/><path fill="none" stroke="#000f5e" stroke-miterlimit="10" d="M369.5 262v1.5H368"/><path fill="none" stroke="#000f5e" stroke-miterlimit="10" stroke-dasharray="3 2" d="M366 263.5H72"/><path fill="none" stroke="#000f5e" stroke-miterlimit="10" d="M71 263.5h-1.5V262"/><path fill="none" stroke="#000f5e" stroke-miterlimit="10" stroke-dasharray="3 2" d="M69.5 260V126"/><path fill="none" stroke="#000f5e" stroke-miterlimit="10" d="M69.5 125v-1.5H71"/><path fill="none" stroke="#000f5e" stroke-miterlimit="10" stroke-dasharray="3 2" d="M73 123.5h294"/><path fill="none" stroke="#000f5e" stroke-miterlimit="10" d="M368 123.5h1.5v1.5"/><path fill="none" stroke="#000f5e" stroke-miterlimit="10" stroke-dasharray="3 2" d="M369.5 127v134"/><path fill="#f8f4f2" d="M69.5 340.5h300v140h-300z"/><path fill="none" stroke="#000f5e" stroke-miterlimit="10" d="M369.5 479v1.5H368"/><path fill="none" stroke="#000f5e" stroke-miterlimit="10" stroke-dasharray="3 2" d="M366 480.5H72"/><path fill="none" stroke="#000f5e" stroke-miterlimit="10" d="M71 480.5h-1.5V479"/><path fill="none" stroke="#000f5e" stroke-miterlimit="10" stroke-dasharray="3 2" d="M69.5 477V343"/><path fill="none" stroke="#000f5e" stroke-miterlimit="10" d="M69.5 342v-1.5H71"/><path fill="none" stroke="#000f5e" stroke-miterlimit="10" stroke-dasharray="3 2" d="M73 340.5h294"/><path fill="none" stroke="#000f5e" stroke-miterlimit="10" d="M368 340.5h1.5v1.5"/><path fill="none" stroke="#000f5e" stroke-miterlimit="10" stroke-dasharray="3 2" d="M369.5 344v134"/><path fill="#f4f4f4" d="M547.5 123.5h140v357h-140z"/><path fill="none" stroke="#000f5e" stroke-miterlimit="10" d="M686 123.5h1.5v1.5"/><path fill="none" stroke="#000f5e" stroke-miterlimit="10" stroke-dasharray="3.02 2.01" d="M687.5 127.01v350.98"/><path fill="none" stroke="#000f5e" stroke-miterlimit="10" d="M687.5 479v1.5H686"/><path fill="none" stroke="#000f5e" stroke-miterlimit="10" stroke-dasharray="3 2" d="M684 480.5H550"/><path fill="none" stroke="#000f5e" stroke-miterlimit="10" d="M549 480.5h-1.5V479"/><path fill="none" stroke="#000f5e" stroke-miterlimit="10" stroke-dasharray="3.02 2.01" d="M547.5 476.99V126.01"/><path fill="none" stroke="#000f5e" stroke-miterlimit="10" d="M547.5 125v-1.5h1.5"/><path fill="none" stroke="#000f5e" stroke-miterlimit="10" stroke-dasharray="3 2" d="M551 123.5h134"/><g clip-path="url(#a)" data-name="Artwork 11"><path fill="#fff" d="M138.39 160v-12h-17v48h31v-36h-14z"/><path d="M121.67 148.67h16.67V162h13.33v33.33h-30zM120 147v50h33.33v-36.67L140 147z" fill="#000f5e"/><path fill="#000f5e" d="M126.67 167h20v1.67h-20zM126.67 170.33h20V172h-20zM126.67 173.67h10v1.67h-10z"/><g clip-path="url(#a)"><path d="M149.71 183.52a8 8 0 0 0-5.93.85v-.82a4.24 4.24 0 0 1 1.48-3.31 3.85 3.85 0 0 1 5.32.25l1.42-1.42a5.9 5.9 0 0 0-7-1.07 6.17 6.17 0 0 0-3.19 5.51V186a8 8 0 1 0 7.93-2.49m2 10.06l-1.42 1.43-2.32-2.3-2.26 2.3-1.41-1.41 2.29-2.29-2.3-2.3 1.41-1.41 2.29 2.29 2.29-2.29 1.41 1.41-2.29 2.29z" fill="#db2663"/></g></g><g clip-path="url(#b)" data-name="Artwork 23"><g clip-path="url(#c)" opacity=".65"><path d="M162.18 388.16h-29.36a14 14 0 1 0 0 12h7.36v-2h3v2h19l6-6z" fill="#b380e0"/></g><path d="M162.85 387.42h-29.2a15 15 0 1 0 0 14.14h5.63l2.36-2.36 2.36 2.36h18.86l7.07-7.07zm-.69 12.48h-17.47l-1.87-1.9-1.18-1.18-1.18 1.18-1.87 1.87h-5.94l-.47.88a13.34 13.34 0 1 1 0-12.57l.47.88h29.51l5.4 5.41z" fill="#6e177d"/><path d="M117.93 392.11a3.33 3.33 0 1 1-4.71 0 3.33 3.33 0 0 1 4.71 0M146.21 393.63h14.14v1.67h-14.14z" fill="#6e177d"/></g><g clip-path="url(#d)" data-name="Artwork 12"><path fill="#fff" d="M636.45 160v36h-31v-48h18v12h13z"/><path d="M605.72 148.67h16.67V162h13.33v33.33h-30zm-1.66-1.67v50h33.33v-36.67L624.06 147z" fill="#000f5e"/><path fill="#000f5e" d="M610.72 167h20v1.67h-20zM610.72 170.33h20V172h-20zM610.72 173.67h10v1.67h-10z"/><g clip-path="url(#d)"><path d="M637.45 191a5.52 5.52 0 1 1-5.5-6 5.77 5.77 0 0 1 5.5 6" fill="#fff"/><path d="M637.84 183.29a6 6 0 0 0-8.61-5.39 6.22 6.22 0 0 0-3.39 5.65V186a8 8 0 1 0 12 0zm-10 0a4 4 0 0 1 6.27-3.24 4.33 4.33 0 0 1 1.73 3.55v.77a8 8 0 0 0-8 0zm2.82 12.41L627 192l1.41-1.41 2.29 2.29 5.29-5.29 1.41 1.41z" fill="#5aa700"/></g></g><g clip-path="url(#e)" data-name="Artwork 24"><g clip-path="url(#f)"><path d="M317.93 388.07h-29.36a14 14 0 1 0 0 12h7.36v-2h3v2h19l6-6z" fill="#a2c0fb"/><path fill="#000f5e" d="M301.96 395.07h14.14v.14h-14.14zM297.39 396.76l1.31 1.31h-2.62l1.31-1.31z"/><path fill="#000f5e" d="M301.97 393.54h14.14v1.67h-14.14zM273.68 392a3.33 3.33 0 1 1-4.71 0 3.31 3.31 0 0 1 4.71 0"/><path d="M266.1 385.67a13.14 13.14 0 0 0-3 6.22 13.65 13.65 0 0 1 13.33-11.82A13.5 13.5 0 0 1 289 389h-.61l-.47-.88a13.05 13.05 0 0 0-2.32-3.12 13.34 13.34 0 0 0-19.5.69M288.74 399.81a2.61 2.61 0 0 1-.11.26 13.47 13.47 0 0 1-12.2 8 13.21 13.21 0 0 1-9.63-4.19 13.34 13.34 0 0 0 18.8 0 13.08 13.08 0 0 0 2.33-3.14l.33-.62.14-.26z" fill="#000f5e"/><path d="M318.6 387.33h-29.2a15 15 0 1 0 0 14.14h5.6l2.36-2.35 2.35 2.35h18.89l7.07-7.07zm-21.21 9.43l-1.31 1.31-.15.15-1.59 1.59h-5.94l-.14.26-.33.62a13.07 13.07 0 0 1-2.33 3.14 13.34 13.34 0 0 1-18.8.05c-.25-.24-.48-.49-.71-.75a13.34 13.34 0 0 1-3-11.19 13.14 13.14 0 0 1 3-6.22 13.34 13.34 0 0 1 19.5-.69 13.07 13.07 0 0 1 2.33 3.14l.47.88h29.51l2 2 3.38 3.38-3.38 3.39-2 2h-17.47l-1.5-1.51z" fill="#000f5e"/><path d="M273.68 396.73a3.33 3.33 0 1 1 0-4.71 3.33 3.33 0 0 1 0 4.71M301.96 393.54h14.14v1.67h-14.14z" fill="#000f5e"/></g></g><g clip-path="url(#g)" data-name="Artwork 10"><g clip-path="url(#g)"><path fill="none" stroke="#000f5e" stroke-miterlimit="10" stroke-width="1.75" d="M205.5 190h15"/></g><g clip-path="url(#g)"><path fill="none" stroke="#000f5e" stroke-miterlimit="10" stroke-width="1.75" d="M213 197.5v-15"/></g></g><g clip-path="url(#h)" data-name="Artwork 10"><g clip-path="url(#h)"><path fill="none" stroke="#000f5e" stroke-miterlimit="10" stroke-width="1.75" d="M205.5 408h15"/></g><g clip-path="url(#h)"><path fill="none" stroke="#000f5e" stroke-miterlimit="10" stroke-width="1.75" d="M213 415.5v-15"/></g></g><g clip-path="url(#i)" data-name="Artwork 15"><path d="M469.64 188.29a8.38 8.38 0 0 0-.11-1.32l2.68-2.34-2.28-3.74-3.2 1a8.43 8.43 0 0 0-2.62-1.55l-.71-3.09H459l-.71 3.09a8.44 8.44 0 0 0-2.62 1.55l-3.2-1-2.28 3.74 2.68 2.35a7.78 7.78 0 0 0 0 2.64l-2.66 2.38 2.28 3.74 3.2-1a8.41 8.41 0 0 0 2.62 1.55l.71 3.09h4.4l.71-3.09a8.41 8.41 0 0 0 2.62-1.55l3.2 1 2.28-3.74-2.68-2.34a8.36 8.36 0 0 0 .11-1.32m-8.43 2.53a3 3 0 1 1 3-3 3 3 0 0 1-3 3" fill="#001689"/><path d="M455.64 173.29a8.38 8.38 0 0 0-.11-1.32l2.68-2.34-2.28-3.74-3.2 1a8.43 8.43 0 0 0-2.62-1.55l-.71-3.09H445l-.71 3.09a8.44 8.44 0 0 0-2.62 1.55l-3.2-1-2.28 3.74 2.68 2.35a7.78 7.78 0 0 0 0 2.64l-2.66 2.38 2.28 3.74 3.2-1a8.41 8.41 0 0 0 2.62 1.55l.71 3.09h4.4l.71-3.09a8.41 8.41 0 0 0 2.62-1.55l3.2 1 2.28-3.74-2.68-2.35a8.36 8.36 0 0 0 .11-1.32m-8.43 2.53a3 3 0 1 1 3-3 3 3 0 0 1-3 3" fill="#69a6ff"/><path d="M483.64 173.29a8.38 8.38 0 0 0-.11-1.32l2.68-2.34-2.28-3.74-3.2 1a8.43 8.43 0 0 0-2.62-1.55l-.71-3.09H473l-.71 3.09a8.44 8.44 0 0 0-2.62 1.55l-3.2-1-2.28 3.74 2.68 2.35a7.78 7.78 0 0 0 0 2.64l-2.66 2.38 2.28 3.74 3.2-1a8.41 8.41 0 0 0 2.62 1.55l.71 3.09h4.4l.71-3.09a8.41 8.41 0 0 0 2.62-1.55l3.2 1 2.28-3.74-2.68-2.35a8.36 8.36 0 0 0 .11-1.32m-8.43 2.53a3 3 0 1 1 3-3 3 3 0 0 1-3 3" fill="#003bc9"/></g><g clip-path="url(#j)" data-name="Artwork 16"><path d="M469.43 405a8.38 8.38 0 0 0-.11-1.32l2.68-2.34-2.28-3.74-3.2 1a8.43 8.43 0 0 0-2.62-1.55l-.7-3.05h-4.4l-.71 3.09a8.44 8.44 0 0 0-2.62 1.55l-3.2-1-2.27 3.69 2.68 2.35a7.78 7.78 0 0 0 0 2.64l-2.68 2.35 2.28 3.74 3.2-1a8.41 8.41 0 0 0 2.62 1.55l.71 3.09h4.4l.71-3.09a8.41 8.41 0 0 0 2.62-1.55l3.2 1 2.28-3.74-2.68-2.34a8.36 8.36 0 0 0 .11-1.32m-8.45 2.52a3 3 0 1 1 3-3 3 3 0 0 1-3 3" fill="#6e177d"/><path d="M455.43 390a8.38 8.38 0 0 0-.11-1.32l2.68-2.34-2.28-3.74-3.2 1a8.43 8.43 0 0 0-2.62-1.55l-.7-3.05h-4.4l-.71 3.09a8.44 8.44 0 0 0-2.62 1.55l-3.2-1-2.27 3.69 2.68 2.35a7.78 7.78 0 0 0 0 2.64l-2.68 2.35 2.28 3.74 3.2-1a8.41 8.41 0 0 0 2.62 1.55l.71 3.09h4.4l.71-3.09a8.41 8.41 0 0 0 2.62-1.55l3.2 1 2.28-3.74-2.68-2.35a8.36 8.36 0 0 0 .11-1.32m-8.45 2.53a3 3 0 1 1 3-3 3 3 0 0 1-3 3" fill="#b380e0"/><path d="M483.43 390a8.38 8.38 0 0 0-.11-1.32l2.68-2.34-2.28-3.74-3.2 1a8.43 8.43 0 0 0-2.62-1.55l-.7-3.05h-4.4l-.71 3.09a8.44 8.44 0 0 0-2.62 1.55l-3.2-1-2.27 3.69 2.68 2.35a7.78 7.78 0 0 0 0 2.64l-2.68 2.35 2.28 3.74 3.2-1a8.41 8.41 0 0 0 2.62 1.55l.71 3.09h4.4l.71-3.09a8.41 8.41 0 0 0 2.62-1.55l3.2 1 2.28-3.74-2.68-2.35a8.36 8.36 0 0 0 .11-1.32m-8.45 2.53a3 3 0 1 1 3-3 3 3 0 0 1-3 3" fill="#8747b8"/></g><path fill="#a71c71" d="M349.5 190.5h66"/><path fill="none" stroke="#a71c71" stroke-miterlimit="10" d="M353.54 190.5h54.79"/><circle cx="353.76" cy="190.5" r="3.76" fill="#fff"/><path d="M353.76 194.76a4.26 4.26 0 1 0-4.26-4.26 4.26 4.26 0 0 0 4.26 4.26zm0-7.52a3.26 3.26 0 1 1-3.26 3.26 3.26 3.26 0 0 1 3.26-3.26zM406.87 195.49l8.63-4.99-8.63-4.99v9.98z" fill="#a71c71"/><path fill="none" stroke="#a71c71" stroke-miterlimit="10" d="M510 189.25h51.32"/><path fill="#a71c71" d="M559.87 194.24l8.63-4.99-8.63-4.99v9.98z"/><path fill="none" stroke="#a71c71" stroke-miterlimit="10" d="M353.54 407.5h54.79"/><circle cx="353.76" cy="407.5" r="3.76" fill="#fff"/><path d="M353.76 411.76a4.26 4.26 0 1 0-4.26-4.26 4.26 4.26 0 0 0 4.26 4.26zm0-7.52a3.26 3.26 0 1 1-3.26 3.26 3.26 3.26 0 0 1 3.26-3.26zM406.87 412.49l8.63-4.99-8.63-4.99v9.98z" fill="#a71c71"/><path fill="none" stroke="#a71c71" stroke-miterlimit="10" d="M510 406.25h51.32"/><path fill="#a71c71" d="M559.87 411.24l8.63-4.99-8.63-4.99v9.98z"/><g clip-path="url(#k)" data-name="Artwork 24"><g clip-path="url(#l)"><path d="M317.2 169.22h-29.36a14 14 0 1 0 0 12h7.36v-2h3v2h19l6-6z" fill="#a2c0fb"/><path fill="#000f5e" d="M301.23 176.22h14.14v.14h-14.14zM296.66 177.91l1.31 1.31h-2.62l1.31-1.31z"/><path fill="#000f5e" d="M301.23 174.69h14.14v1.67h-14.14zM272.94 173.17a3.33 3.33 0 1 1-4.71 0 3.31 3.31 0 0 1 4.71 0"/><path d="M265.37 166.82a13.14 13.14 0 0 0-3 6.22 13.65 13.65 0 0 1 13.33-11.82 13.5 13.5 0 0 1 12.58 8.93h-.61l-.47-.88a13.05 13.05 0 0 0-2.33-3.14 13.34 13.34 0 0 0-19.5.69M288 181a2.61 2.61 0 0 1-.11.26 13.47 13.47 0 0 1-12.2 8 13.21 13.21 0 0 1-9.63-4.19 13.34 13.34 0 0 0 18.8 0 13.08 13.08 0 0 0 2.33-3.14l.33-.62.14-.26z" fill="#000f5e"/><path d="M317.87 168.48h-29.2a15 15 0 1 0 0 14.14h5.63l2.36-2.35 2.35 2.35h18.86l7.07-7.07zm-21.21 9.43l-1.31 1.31-.15.15-1.59 1.63h-5.94l-.14.26-.33.62a13.07 13.07 0 0 1-2.33 3.14 13.34 13.34 0 0 1-18.8.05c-.25-.24-.48-.49-.71-.75a13.34 13.34 0 0 1-3-11.19 13.14 13.14 0 0 1 3-6.22 13.34 13.34 0 0 1 19.5-.69 13.07 13.07 0 0 1 2.33 3.14l.47.88h29.51l2 2 3.38 3.38-3.38 3.39-2 2H299.7l-1.5-1.51z" fill="#000f5e"/><path d="M272.94 177.88a3.33 3.33 0 1 1 0-4.71 3.33 3.33 0 0 1 0 4.71M301.23 174.69h14.14v1.67h-14.14z" fill="#000f5e"/></g></g><g clip-path="url(#m)" data-name="Artwork 10"><g clip-path="url(#m)"><path fill="none" stroke="#000f5e" stroke-miterlimit="10" stroke-width="1.75" d="M614.45 302h15"/></g><g clip-path="url(#m)"><path fill="none" stroke="#000f5e" stroke-miterlimit="10" stroke-width="1.75" d="M621.95 309.5v-15"/></g></g><g clip-path="url(#n)" data-name="Artwork 27"><path d="M638.94 395.94a3.34 3.34 0 0 1-2.6 1 8.65 8.65 0 0 1-1.4-.09c-.45-.1-.92-.16-1.36-.29a26.33 26.33 0 0 1-5.11-2 53 53 0 0 1-9-6.22c-1.39-1.19-2.76-2.41-4.07-3.71a26 26 0 0 1-3.49-4.32 21.1 21.1 0 0 1-2.4-5.13 14 14 0 0 1-.33-1.42 9 9 0 0 1-.09-1.49 5.21 5.21 0 0 1 .26-1.5q.18-.36.36-.69c.18-.19.37-.37.54-.53l.22.2a3 3 0 0 0 0 2.36 10.9 10.9 0 0 0 1 2.26 36.81 36.81 0 0 0 2.9 4.21 98.23 98.23 0 0 0 6.73 8 51.08 51.08 0 0 0 8.15 6.68 25 25 0 0 0 4.64 2.46c.4.17.82.27 1.24.41a8.13 8.13 0 0 0 1.26.22 2.89 2.89 0 0 0 2.36-.59z" fill="#efc100"/><path d="M647.16 365.1l-9.17-.34.32.35h-.18l-.37-.37-17.68 17.68.21.21-3.12 3.12a14.43 14.43 0 0 0-4.22-.63 13.51 13.51 0 1 0 14 13.5 13 13 0 0 0-.86-4.63l4.86-4.86-1-1 2.53-2.53 1 1 12.68-12.68.35.39.06-.8.35-.35-.3-.3z" fill="#cba9e6"/><path d="M638.2 363.49l-20.65 20.65a15 15 0 1 0 10 10l4-4v-3.33h3.33l13.33-13.33v-10zm8.33 9.31l-12.36 12.36h-4.31v4.31l-3.49 3.53-.71.71.29 1a13.35 13.35 0 1 1-8.89-8.89l1 .29.71-.71 20.16-20.16h7.64z" fill="#6e177d"/><path d="M609.74 398.57a3.33 3.33 0 1 1-3.33 3.33 3.33 3.33 0 0 1 3.33-3.33M630.828 379.657l9.999-9.998 1.18 1.18-9.998 10z" fill="#6e177d"/><path d="M644.16 363.1l-9.17-.34.32.35h-.18l-.37-.37-17.68 17.68.21.21-3.12 3.12a14.43 14.43 0 0 0-4.22-.63 13.51 13.51 0 1 0 14 13.5 13 13 0 0 0-.86-4.63l4.86-4.86-1-1 2.53-2.53 1 1 12.68-12.68.35.39.06-.8.35-.35-.3-.3z" fill="#9bc1fa"/><path d="M635.2 361.49l-20.65 20.65a15 15 0 1 0 10 10l4-4v-3.33h3.33l13.33-13.33v-10zm8.33 9.31l-12.36 12.36h-4.31v4.31l-3.49 3.53-.71.71.29 1a13.35 13.35 0 1 1-8.89-8.89l1 .29.71-.71 20.16-20.16h7.64z" fill="#000f5e"/><path d="M606.74 396.57a3.33 3.33 0 1 1-3.33 3.33 3.33 3.33 0 0 1 3.33-3.33M627.823 377.654l9.998-9.998 1.181 1.18-9.998 10z" fill="#000f5e"/><path d="M610.24 369.54a3.34 3.34 0 0 1 2.6-1 8.64 8.64 0 0 1 1.4.09c.45.1.92.16 1.36.29a26.3 26.3 0 0 1 5.11 2 53 53 0 0 1 9 6.22c1.39 1.19 2.77 2.41 4.07 3.71a25.91 25.91 0 0 1 3.49 4.32 21.11 21.11 0 0 1 2.4 5.13 14 14 0 0 1 .33 1.42 9 9 0 0 1 .09 1.49 5.25 5.25 0 0 1-.26 1.5c-.12.24-.24.47-.36.69s-.37.37-.54.53l-.22-.2a3 3 0 0 0 0-2.36 10.93 10.93 0 0 0-1-2.26 36.69 36.69 0 0 0-2.9-4.21 98.22 98.22 0 0 0-6.73-8 51.08 51.08 0 0 0-8.15-6.68 25.08 25.08 0 0 0-4.64-2.46c-.4-.17-.82-.27-1.24-.41a8.11 8.11 0 0 0-1.26-.22 2.89 2.89 0 0 0-2.36.59z" fill="#efc100"/><path d="M646.7 405.11a5.52 5.52 0 1 1-5.5-6 5.77 5.77 0 0 1 5.5 6" fill="#fff"/><path d="M646.7 397.4a6 6 0 0 0-8.61-5.39 6.23 6.23 0 0 0-3.39 5.65v2.46a8 8 0 1 0 12 0zm-10 0a4 4 0 0 1 6.27-3.24 4.33 4.33 0 0 1 1.73 3.55v.77a8 8 0 0 0-8 0zm2.82 12.41l-3.71-3.71 1.41-1.41 2.29 2.29 5.29-5.29 1.41 1.41z" fill="#5aa700"/></g><g clip-path="url(#o)" data-name="Artwork 29"><path d="M835.81 177.54a4.42 4.42 0 0 1-2.34 2.81 13.43 13.43 0 0 1-3.44 1.31 34.27 34.27 0 0 1-7.24.87 69.22 69.22 0 0 1-14.44-1.45c-4.73-1-9.54-2.13-13.91-4.44a28.81 28.81 0 0 1-6.14-4.21 12.71 12.71 0 0 1-2.43-2.95 6.47 6.47 0 0 1-.71-1.84 3.34 3.34 0 0 1 .16-1.94l.29.07a4.1 4.1 0 0 0 1.36 2.9 14.33 14.33 0 0 0 2.63 2.09 42.4 42.4 0 0 0 6.13 3.16 103.43 103.43 0 0 0 13.16 4.81 67.27 67.27 0 0 0 13.93 2.27 33 33 0 0 0 7-.27 12.81 12.81 0 0 0 3.33-1 4 4 0 0 0 2.34-2.32z" fill="#efc100"/><path d="M830.14 149l-9.17-.34.32.35h-.18l-.37-.37-17.68 17.66.21.21-3.12 3.12a14.43 14.43 0 0 0-4.22-.63 13.51 13.51 0 1 0 14 13.5 13 13 0 0 0-.86-4.64l4.86-4.86-1-1 2.53-2.53 1 1 12.68-12.68.35.39.06-.8.35-.35-.3-.3z" fill="#9bc1fa"/><path d="M821.18 147.38L800.53 168a15 15 0 1 0 10 10l4-4v-3.33h3.33l13.33-13.33v-10zm8.33 9.31L817.16 169h-4.31v4.31l-3.49 3.49-.71.71.29 1a13.34 13.34 0 1 1-8.89-8.89l1 .29.71-.71 20.11-20.2h7.64z" fill="#000f5e"/><path d="M792.73 182.46a3.33 3.33 0 1 1-3.33 3.33 3.33 3.33 0 0 1 3.33-3.33M813.805 163.541l9.998-9.999 1.181 1.181-9.998 9.999z" fill="#000f5e"/><path fill="#fff" d="M826.93 160v36h-31v-48h18v12h13z"/><path d="M814.54 147h-20v50h33.33v-36.67zm11.67 48.33h-30v-46.66h16.67V162h13.33z" fill="#000f5e"/><path fill="#000f5e" d="M801.21 167h20v1.67h-20zM801.21 170.33h20V172h-20zM801.21 173.67h10v1.67h-10z"/><path d="M785.33 165.71a4.42 4.42 0 0 1 2.34-2.81 13.43 13.43 0 0 1 3.44-1.31 34.19 34.19 0 0 1 7.23-.87 69.22 69.22 0 0 1 14.44 1.45c4.73 1 9.54 2.13 13.91 4.44a28.83 28.83 0 0 1 6.14 4.21 12.73 12.73 0 0 1 2.43 2.95 6.41 6.41 0 0 1 .71 1.84 3.34 3.34 0 0 1-.16 1.94l-.29-.07a4.1 4.1 0 0 0-1.36-2.9 14.37 14.37 0 0 0-2.63-2.09 42.45 42.45 0 0 0-6.13-3.16 103.48 103.48 0 0 0-13.16-4.81 67.29 67.29 0 0 0-13.92-2.29 33 33 0 0 0-7 .27 12.79 12.79 0 0 0-3.33 1 4 4 0 0 0-2.34 2.32z" fill="#efc100"/><path d="M827.93 191a5.52 5.52 0 1 1-5.5-6 5.77 5.77 0 0 1 5.5 6" fill="#fff"/><path d="M828.32 183.29a6 6 0 0 0-8.61-5.39 6.22 6.22 0 0 0-3.39 5.65V186a8 8 0 1 0 12 0zm-10 0a4 4 0 0 1 6.27-3.24 4.33 4.33 0 0 1 1.73 3.55v.77a8 8 0 0 0-8 0zm2.82 12.41l-3.7-3.7 1.41-1.41 2.29 2.29 5.29-5.29 1.41 1.41z" fill="#5aa700"/></g><path d="M810.66 259.9c0 13.39.08 40.83.08 40.83L672 300.39" fill="none" stroke="#a71c71" stroke-miterlimit="10"/><path fill="#a71c71" d="M805.67 261.37l4.97-8.65 5.01 8.63-9.98.02z"/><circle cx="672.26" cy="300.39" r="3.76" transform="rotate(-89.86 672.259 300.387)" fill="#fff"/><path d="M672.27 296.13a4.26 4.26 0 1 1-4.27 4.25 4.26 4.26 0 0 1 4.27-4.25zm0 7.52a3.26 3.26 0 1 0-3.25-3.27 3.26 3.26 0 0 0 3.25 3.27z" fill="#a71c71"/><path fill="none" stroke="#b380e0" stroke-miterlimit="10" d="M137.37 468.68v.5"/><path fill="none" stroke="#b380e0" stroke-miterlimit="10" stroke-dasharray="1.02 1.02" d="M137.37 470.19v48.31"/><path fill="none" stroke="#b380e0" stroke-miterlimit="10" d="M137.38 519.01v.5l.12-.07h.36"/><path fill="none" stroke="#b380e0" stroke-miterlimit="10" stroke-dasharray="1 1" d="M138.86 519.44H902.5"/><path fill="none" stroke="#b380e0" stroke-miterlimit="10" d="M903 519.44l.5.06v-.5"/><path fill="none" stroke="#b380e0" stroke-miterlimit="10" stroke-dasharray="1 1" d="M903.5 518V149.37"/><path fill="none" stroke="#b380e0" stroke-miterlimit="10" d="M903.5 148.88v-.5h-.5"/><path fill="none" stroke="#b380e0" stroke-miterlimit="10" stroke-dasharray="1 1" d="M902 148.38h-69.5"/><path fill="none" stroke="#b380e0" stroke-miterlimit="10" d="M832 148.38h-.5"/><path fill="#b380e0" d="M132.39 470.13l4.99-8.63 4.98 8.63h-9.97z"/><rect x="716" y="376" width="171" height="91" rx="10.51" ry="10.51" fill="#b380e0" opacity=".15"/><path fill="none" stroke="#b380e0" stroke-miterlimit="10" stroke-dasharray="1 1" d="M875.07 400.5h28.43"/><circle cx="875.26" cy="400.5" r="3.76" fill="#b380e0"/><path fill="none" stroke="#a71c71" stroke-miterlimit="10" stroke-dasharray="1 1" d="M292.5 253v106.82"/><path fill="#a71c71" d="M287.51 358.37l4.99 8.63 4.99-8.63h-9.98z"/></g><g data-name="Text"><text transform="translate(599.58 438.9)" font-size="11" font-family="IBMPlexSans, IBM Plex Sans"><tspan letter-spacing="-.01em">W<tspan x="9.69" y="0" letter-spacing="0em">r</tspan><tspan x="13.68" y="0" letter-spacing="0em">apped</tspan></tspan><tspan x="11.98" y="13.2">DEK</tspan></text><text transform="translate(451.28 221.9)" font-size="11" font-family="IBMPlexSans, IBM Plex Sans">AES<tspan x="-13.71" y="13.2">al</tspan><tspan x="-4.84" y="13.2" letter-spacing="-.01em">g</tspan><tspan x=".9" y="13.2">orithm</tspan></text><text transform="translate(255.37 438.9)" font-size="11" font-family="IBMPlexSans, IBM Plex Sans">DEK f<tspan x="26.93" y="0" letter-spacing="0em">r</tspan><tspan x="30.91" y="0" letter-spacing="0em">om Cloud</tspan><tspan x="2.46" y="13.2">Object S</tspan><tspan x="43.8" y="13.2" letter-spacing="0em">t</tspan><tspan x="47.61" y="13.2">o</tspan><tspan x="53.77" y="13.2" letter-spacing="0em">r</tspan><tspan x="57.77" y="13.2">a</tspan><tspan x="63.64" y="13.2" letter-spacing="-.01em">g</tspan><tspan x="69.38" y="13.2">e</tspan></text><text transform="translate(109.32 438.9)" font-size="11" font-family="IBMPlexSans, IBM Plex Sans"><tspan letter-spacing="-.02em">R</tspan><tspan x="6.88" y="0">oot </tspan><tspan x="25.65" y="0" letter-spacing="-.02em">k</tspan><tspan x="31.26" y="0" letter-spacing="0em">e</tspan><tspan x="37.25" y="0">y in</tspan><tspan x="-1.19" y="13.2" letter-spacing="-.02em">K</tspan><tspan x="5.51" y="13.2" letter-spacing="0em">e</tspan><tspan x="11.49" y="13.2">y </tspan><tspan x="19.57" y="13.2" letter-spacing="-.01em">P</tspan><tspan x="26.13" y="13.2" letter-spacing="-.01em">r</tspan><tspan x="30.11" y="13.2">o</tspan><tspan x="36.27" y="13.2" letter-spacing="0em">t</tspan><tspan x="40.09" y="13.2">ect</tspan></text><text transform="translate(70.72 324.38)" font-size="12" font-family="IBMPlexSans-SemiBold, IBM Plex Sans" font-weight="700"><tspan letter-spacing="-.02em">K</tspan><tspan x="7.84" y="0" letter-spacing="-.01em">e</tspan><tspan x="14.46" y="0">y </tspan><tspan x="23.58" y="0" letter-spacing="-.01em">P</tspan><tspan x="31.15" y="0" letter-spacing="-.01em">r</tspan><tspan x="35.81" y="0" letter-spacing="0em">ot</tspan><tspan x="46.96" y="0">ect</tspan></text><text transform="translate(596.76 221.9)" font-size="11" font-family="IBMPlexSans, IBM Plex Sans">Enc<tspan x="18.19" y="0" letter-spacing=".01em">r</tspan><tspan x="22.34" y="0" letter-spacing="0em">y</tspan><tspan x="27.83" y="0" letter-spacing="-.01em">p</tspan><tspan x="34.14" y="0" letter-spacing="0em">t</tspan><tspan x="37.96" y="0">ed</tspan><tspan x="14.2" y="13.2">data</tspan></text><text transform="translate(451.28 438.9)" font-size="11" font-family="IBMPlexSans, IBM Plex Sans">AES<tspan x="-13.71" y="13.2">al</tspan><tspan x="-4.84" y="13.2" letter-spacing="-.01em">g</tspan><tspan x=".9" y="13.2">orithm</tspan></text><text transform="translate(252.38 221.9)" font-size="11" font-family="IBMPlexSans, IBM Plex Sans">Data enc<tspan x="43.41" y="0" letter-spacing=".01em">r</tspan><tspan x="47.55" y="0">y</tspan><tspan x="53.04" y="0" letter-spacing="-.01em">p</tspan><tspan x="59.35" y="0" letter-spacing="0em">tion </tspan><tspan x="16.52" y="13.2" letter-spacing="-.02em">k</tspan><tspan x="22.13" y="13.2" letter-spacing="0em">e</tspan><tspan x="28.12" y="13.2">y (DE</tspan><tspan x="53.68" y="13.2" letter-spacing=".01em">K</tspan><tspan x="60.76" y="13.2">)</tspan></text><text transform="translate(104.3 221.9)" font-size="11" font-family="IBMPlexSans, IBM Plex Sans">Unenc<tspan x="31.53" y="0" letter-spacing=".01em">r</tspan><tspan x="35.67" y="0" letter-spacing="0em">y</tspan><tspan x="41.16" y="0" letter-spacing="-.01em">p</tspan><tspan x="47.48" y="0" letter-spacing="0em">t</tspan><tspan x="51.29" y="0" letter-spacing="0em">ed </tspan><tspan x="22.16" y="13.2">data</tspan></text><text transform="translate(70.72 107.38)" font-size="12" font-family="IBMPlexSans-SemiBold, IBM Plex Sans" font-weight="700">Cloud Object <tspan x="74.3" y="0" letter-spacing="0em">St</tspan><tspan x="86.03" y="0">o</tspan><tspan x="92.78" y="0" letter-spacing="-.01em">r</tspan><tspan x="97.37" y="0" letter-spacing="0em">a</tspan><tspan x="104.07" y="0" letter-spacing="-.01em">g</tspan><tspan x="110.54" y="0">e</tspan></text><text transform="translate(49 63)" font-size="16" fill="#272727" font-family="IBMPlexSans-Bold, IBM Plex Sans" font-weight="700">E<tspan x="9.71" y="0" letter-spacing="-.01em">nv</tspan><tspan x="27.6" y="0" letter-spacing="0em">elope enc</tspan><tspan x="99.76" y="0" letter-spacing=".01em">r</tspan><tspan x="106.33" y="0">y</tspan><tspan x="114.88" y="0" letter-spacing="-.01em">p</tspan><tspan x="124.51" y="0">tion</tspan></text><text transform="translate(774.56 221.9)" font-size="11" font-family="IBMPlexSans-SemiBold, IBM Plex Sans" font-weight="700"><tspan letter-spacing="-.01em">W</tspan><tspan x="10.33" y="0" letter-spacing="-.01em">r</tspan><tspan x="14.53" y="0">apped d</tspan><tspan x="55.81" y="0" letter-spacing="0em">a</tspan><tspan x="61.92" y="0">ta</tspan><tspan x="11" y="13.2">in </tspan><tspan x="23.1" y="13.2" letter-spacing="-.01em">s</tspan><tspan x="28.5" y="13.2" letter-spacing="0em">t</tspan><tspan x="32.57" y="13.2">o</tspan><tspan x="38.76" y="13.2" letter-spacing="-.01em">r</tspan><tspan x="42.96" y="13.2">a</tspan><tspan x="49.11" y="13.2" letter-spacing="-.01em">g</tspan><tspan x="55.04" y="13.2">e</tspan></text><text transform="translate(734.61 417.4)" font-size="11" font-family="IBMPlexSans, IBM Plex Sans"><tspan letter-spacing="-.02em">R</tspan><tspan x="6.88" y="0">oot </tspan><tspan x="25.65" y="0" letter-spacing="-.02em">k</tspan><tspan x="31.26" y="0" letter-spacing="0em">e</tspan><tspan x="37.25" y="0" letter-spacing="0em">y</tspan><tspan x="42.69" y="0">s in </tspan><tspan x="62.24" y="0" font-family="IBMPlexSans-SemiBold, IBM Plex Sans" font-weight="700" letter-spacing="-.02em">K</tspan><tspan x="69.42" y="0" font-family="IBMPlexSans-SemiBold, IBM Plex Sans" font-weight="700" letter-spacing="-.01em">e</tspan><tspan x="75.49" y="0" font-family="IBMPlexSans-SemiBold, IBM Plex Sans" font-weight="700" letter-spacing="0em">y </tspan><tspan x="83.85" y="0" font-family="IBMPlexSans-SemiBold, IBM Plex Sans" font-weight="700" letter-spacing="-.01em">P</tspan><tspan x="90.79" y="0" font-family="IBMPlexSans-SemiBold, IBM Plex Sans" font-weight="700" letter-spacing="0em">r</tspan><tspan x="95.06" y="0" font-family="IBMPlexSans-SemiBold, IBM Plex Sans" font-weight="700" letter-spacing="0em">ot</tspan><tspan x="105.28" y="0" font-family="IBMPlexSans-SemiBold, IBM Plex Sans" font-weight="700">ect </tspan><tspan x="0" y="13.2">p</tspan><tspan x="6.38" y="13.2" letter-spacing="0em">r</tspan><tspan x="10.36" y="13.2" letter-spacing="0em">o</tspan><tspan x="16.52" y="13.2" letter-spacing="0em">t</tspan><tspan x="20.34" y="13.2">ect the data </tspan><tspan x="81.7" y="13.2" letter-spacing="-.01em">s</tspan><tspan x="86.98" y="13.2" letter-spacing="0em">t</tspan><tspan x="90.79" y="13.2">o</tspan><tspan x="96.95" y="13.2" letter-spacing="0em">r</tspan><tspan x="100.94" y="13.2" letter-spacing="0em">ed in </tspan><tspan font-family="IBMPlexSans-SemiBold, IBM Plex Sans" font-weight="700"><tspan x="0" y="26.4">Cloud Object </tspan><tspan x="68.11" y="26.4" letter-spacing="0em">St</tspan><tspan x="78.86" y="26.4" letter-spacing="0em">o</tspan><tspan x="85.05" y="26.4" letter-spacing="-.01em">r</tspan><tspan x="89.25" y="26.4">a</tspan><tspan x="95.4" y="26.4" letter-spacing="-.01em">g</tspan><tspan x="101.33" y="26.4" letter-spacing="0em">e</tspan></tspan></text></g></svg>