<svg xmlns="http://www.w3.org/2000/svg" width="1000" height="559" viewBox="0 0 1000 559"><defs><style>.cls-1{fill:#fff;}.cls-10,.cls-12,.cls-13,.cls-14,.cls-15,.cls-16,.cls-17,.cls-2,.cls-20,.cls-21,.cls-3,.cls-35,.cls-4,.cls-6,.cls-7{fill:none;stroke-miterlimit:10;}.cls-2,.cls-3,.cls-4{stroke:#d8d8d8;}.cls-3{stroke-dasharray:3.0033 2.0022;}.cls-4,.cls-7{stroke-dasharray:3 2;}.cls-5{fill:#edf5ff;}.cls-10,.cls-35,.cls-6,.cls-7{stroke:#000f5e;}.cls-8{fill:#f8f4f2;}.cls-9{fill:#f4f4f4;}.cls-10{stroke-dasharray:3.017 2.0114;}.cls-11{fill:#a71c71;}.cls-12,.cls-21{stroke:#a71c71;}.cls-13,.cls-14,.cls-15,.cls-16,.cls-17,.cls-20{stroke:#b380e0;}.cls-14{stroke-dasharray:1.0169 1.0169;}.cls-15{stroke-dasharray:1.0002 1.0002;}.cls-16{stroke-dasharray:0.9976 0.9976;}.cls-17{stroke-dasharray:1 1;}.cls-18,.cls-19{fill:#b380e0;}.cls-19{opacity:0.15;}.cls-20,.cls-21{stroke-dasharray:1 1;}.cls-22{fill:#001689;}.cls-23{fill:#69a6ff;}.cls-24{fill:#003bc9;}.cls-25{fill:#6e177d;}.cls-26{fill:#8747b8;}.cls-27{fill:#000f5e;}.cls-28{fill:#db2663;}.cls-29{fill:#a2c0fb;}.cls-30{fill:#ceaceb;}.cls-31{fill:#5aa700;}.cls-32{fill:#efc100;}.cls-33{fill:#cba9e6;}.cls-34{fill:#9bc1fa;}.cls-35{stroke-width:1.25px;}.cls-36{fill:#272727;}</style></defs><title>kp-cos-envelope</title><g id="Visual"><rect class="cls-1" x="48.5" y="83.5" width="901" height="200"/><polyline class="cls-2" points="949.5 282 949.5 283.5 948 283.5"/><line class="cls-3" x1="945.9977" y1="283.5" x2="51.0011" y2="283.5"/><polyline class="cls-2" points="50 283.5 48.5 283.5 48.5 282"/><line class="cls-4" x1="48.5" y1="280" x2="48.5" y2="86"/><polyline class="cls-2" points="48.5 85 48.5 83.5 50 83.5"/><line class="cls-3" x1="52.0022" y1="83.5" x2="946.9989" y2="83.5"/><polyline class="cls-2" points="948 83.5 949.5 83.5 949.5 85"/><line class="cls-4" x1="949.5" y1="87" x2="949.5" y2="281"/><rect class="cls-1" x="48.5" y="300.5" width="901" height="200"/><polyline class="cls-2" points="949.5 499 949.5 500.5 948 500.5"/><line class="cls-3" x1="945.9977" y1="500.5" x2="51.0011" y2="500.5"/><polyline class="cls-2" points="50 500.5 48.5 500.5 48.5 499"/><line class="cls-4" x1="48.5" y1="497" x2="48.5" y2="303"/><polyline class="cls-2" points="48.5 302 48.5 300.5 50 300.5"/><line class="cls-3" x1="52.0022" y1="300.5" x2="946.9989" y2="300.5"/><polyline class="cls-2" points="948 300.5 949.5 300.5 949.5 302"/><line class="cls-4" x1="949.5" y1="304" x2="949.5" y2="498"/><rect class="cls-5" x="69.5" y="123.5" width="300" height="140"/><polyline class="cls-6" points="369.5 262 369.5 263.5 368 263.5"/><line class="cls-7" x1="366" y1="263.5" x2="72" y2="263.5"/><polyline class="cls-6" points="71 263.5 69.5 263.5 69.5 262"/><line class="cls-7" x1="69.5" y1="260" x2="69.5" y2="126"/><polyline class="cls-6" points="69.5 125 69.5 123.5 71 123.5"/><line class="cls-7" x1="73" y1="123.5" x2="367" y2="123.5"/><polyline class="cls-6" points="368 123.5 369.5 123.5 369.5 125"/><line class="cls-7" x1="369.5" y1="127" x2="369.5" y2="261"/><rect class="cls-8" x="69.5" y="340.5" width="300" height="140"/><polyline class="cls-6" points="369.5 479 369.5 480.5 368 480.5"/><line class="cls-7" x1="366" y1="480.5" x2="72" y2="480.5"/><polyline class="cls-6" points="71 480.5 69.5 480.5 69.5 479"/><line class="cls-7" x1="69.5" y1="477" x2="69.5" y2="343"/><polyline class="cls-6" points="69.5 342 69.5 340.5 71 340.5"/><line class="cls-7" x1="73" y1="340.5" x2="367" y2="340.5"/><polyline class="cls-6" points="368 340.5 369.5 340.5 369.5 342"/><line class="cls-7" x1="369.5" y1="344" x2="369.5" y2="478"/><rect class="cls-9" x="547.5" y="123.5" width="140" height="357"/><polyline class="cls-6" points="686 123.5 687.5 123.5 687.5 125"/><line class="cls-10" x1="687.5" y1="127.0114" x2="687.5" y2="477.9943"/><polyline class="cls-6" points="687.5 479 687.5 480.5 686 480.5"/><line class="cls-7" x1="684" y1="480.5" x2="550" y2="480.5"/><polyline class="cls-6" points="549 480.5 547.5 480.5 547.5 479"/><line class="cls-10" x1="547.5" y1="476.9886" x2="547.5" y2="126.0057"/><polyline class="cls-6" points="547.5 125 547.5 123.5 549 123.5"/><line class="cls-7" x1="551" y1="123.5" x2="685" y2="123.5"/><line class="cls-11" x1="349.4962" y1="190.5" x2="415.5038" y2="190.5"/><line class="cls-12" x1="353.543" y1="190.5" x2="408.3275" y2="190.5"/><path class="cls-1" d="M353.756,194.26a3.76,3.76,0,1,1,3.76-3.76A3.76,3.76,0,0,1,353.756,194.26Z"/><path class="cls-11" d="M353.756,194.76a4.26,4.26,0,1,0-4.26-4.26,4.2649,4.2649,0,0,0,4.26,4.26Zm0-7.52a3.26,3.26,0,1,1-3.26,3.26,3.263,3.263,0,0,1,3.26-3.26Z"/><polygon class="cls-11" points="406.869 195.486 415.504 190.5 406.869 185.514 406.869 195.486"/><line class="cls-12" x1="509.9989" y1="189.25" x2="561.3248" y2="189.25"/><polygon class="cls-11" points="559.866 194.236 568.501 189.25 559.866 184.264 559.866 194.236"/><line class="cls-12" x1="353.543" y1="407.5" x2="408.3275" y2="407.5"/><path class="cls-1" d="M353.756,411.26a3.76,3.76,0,1,1,3.76-3.76A3.76,3.76,0,0,1,353.756,411.26Z"/><path class="cls-11" d="M353.756,411.76a4.26,4.26,0,1,0-4.26-4.26,4.2649,4.2649,0,0,0,4.26,4.26Zm0-7.52a3.26,3.26,0,1,1-3.26,3.26,3.263,3.263,0,0,1,3.26-3.26Z"/><polygon class="cls-11" points="406.869 412.486 415.504 407.5 406.869 402.514 406.869 412.486"/><line class="cls-12" x1="509.9989" y1="406.25" x2="561.3248" y2="406.25"/><polygon class="cls-11" points="559.866 411.236 568.501 406.25 559.866 401.264 559.866 411.236"/><path class="cls-12" d="M810.6577,259.8992c.0258,13.3868.0789,40.8251.0789,40.8251l-138.69-.3386"/><polygon class="cls-11" points="805.674 261.368 810.644 252.723 815.647 261.349 805.674 261.368"/><path class="cls-1" d="M672.2686,296.6265a3.76,3.76,0,1,0,3.75,3.7689A3.76,3.76,0,0,0,672.2686,296.6265Z"/><path class="cls-11" d="M672.27,296.1265a4.26,4.26,0,1,1-4.27,4.2494,4.2649,4.2649,0,0,1,4.27-4.2494C674.6183,296.1323,669.9211,296.1208,672.27,296.1265Zm-.0184,7.5195A3.26,3.26,0,1,0,669,300.3783a3.2629,3.2629,0,0,0,3.2518,3.2677Z"/><line class="cls-13" x1="137.3748" y1="468.676" x2="137.3748" y2="469.176"/><line class="cls-14" x1="137.3748" y1="470.1929" x2="137.3748" y2="518.4979"/><polyline class="cls-13" points="137.375 519.006 137.375 519.506 137.5 519.438 137.857 519.438"/><line class="cls-15" x1="138.8574" y1="519.4377" x2="902.501" y2="519.4377"/><polyline class="cls-13" points="903.001 519.438 903.5 519.5 903.5 519"/><line class="cls-16" x1="903.5" y1="518.0024" x2="903.5" y2="149.3738"/><polyline class="cls-13" points="903.5 148.875 903.5 148.5 903.5 148.375 903 148.375"/><line class="cls-17" x1="902" y1="148.375" x2="832.4989" y2="148.375"/><line class="cls-13" x1="831.9989" y1="148.375" x2="831.4989" y2="148.375"/><polygon class="cls-18" points="132.389 470.135 137.375 461.5 142.361 470.135 132.389 470.135"/><rect class="cls-19" x="716" y="376" width="171" height="91" rx="10.5061"/><line class="cls-20" x1="875.0718" y1="400.5" x2="903.5" y2="400.5"/><path class="cls-18" d="M875.26,404.26a3.76,3.76,0,1,1,3.76-3.76A3.76,3.76,0,0,1,875.26,404.26Z"/><line class="cls-21" x1="292.5" y1="253" x2="292.5" y2="359.8238"/><polygon class="cls-11" points="287.514 358.365 292.5 367 297.486 358.365 287.514 358.365"/><g id="Icon"><path class="cls-22" d="M469.642,188.29a8.352,8.352,0,0,0-.114-1.322l2.681-2.345-2.277-3.738-3.197,1.044a8.4073,8.4073,0,0,0-2.617-1.547l-.709-3.092h-4.4l-.709,3.092a8.4214,8.4214,0,0,0-2.617,1.548l-3.197-1.045-2.277,3.738,2.68,2.346a7.7779,7.7779,0,0,0,0,2.642l-2.68,2.346,2.278,3.738,3.196-1.044a8.3929,8.3929,0,0,0,2.618,1.547l.708,3.092h4.4l.708-3.092a8.3881,8.3881,0,0,0,2.617-1.547l3.196,1.044,2.279-3.738-2.681-2.345A8.352,8.352,0,0,0,469.642,188.29Zm-8.433,2.5283a3,3,0,1,1,3-3A3.0011,3.0011,0,0,1,461.209,190.8179Z"/></g><g id="Icon-2" data-name="Icon"><path class="cls-23" d="M455.642,173.29a8.352,8.352,0,0,0-.114-1.322l2.681-2.345-2.277-3.738-3.197,1.044a8.4073,8.4073,0,0,0-2.617-1.547l-.709-3.092h-4.4l-.709,3.092a8.4214,8.4214,0,0,0-2.617,1.548l-3.197-1.045-2.277,3.738,2.68,2.346a7.7779,7.7779,0,0,0,0,2.642l-2.68,2.346,2.278,3.738,3.196-1.044a8.3929,8.3929,0,0,0,2.618,1.547l.708,3.092h4.4l.708-3.092a8.3881,8.3881,0,0,0,2.617-1.547l3.196,1.044,2.279-3.738-2.681-2.345A8.352,8.352,0,0,0,455.642,173.29Zm-8.433,2.5283a3,3,0,1,1,3-3A3.0011,3.0011,0,0,1,447.209,175.8179Z"/></g><g id="Icon-3" data-name="Icon"><path class="cls-24" d="M483.642,173.29a8.352,8.352,0,0,0-.114-1.322l2.681-2.345-2.277-3.738-3.197,1.044a8.4073,8.4073,0,0,0-2.617-1.547l-.709-3.092h-4.4l-.709,3.092a8.4214,8.4214,0,0,0-2.617,1.548l-3.197-1.045-2.277,3.738,2.68,2.346a7.7779,7.7779,0,0,0,0,2.642l-2.68,2.346,2.278,3.738,3.196-1.044a8.3929,8.3929,0,0,0,2.618,1.547l.708,3.092h4.4l.708-3.092a8.3881,8.3881,0,0,0,2.617-1.547l3.196,1.044,2.279-3.738-2.681-2.345A8.352,8.352,0,0,0,483.642,173.29Zm-8.433,2.5283a3,3,0,1,1,3-3A3.0011,3.0011,0,0,1,475.209,175.8179Z"/></g><g id="Icon-4" data-name="Icon"><path class="cls-25" d="M469.642,405a8.352,8.352,0,0,0-.114-1.322l2.681-2.345-2.277-3.738-3.197,1.044a8.4073,8.4073,0,0,0-2.617-1.547L463.409,394h-4.4l-.709,3.092a8.4214,8.4214,0,0,0-2.617,1.548l-3.197-1.045-2.277,3.738,2.68,2.346a7.7779,7.7779,0,0,0,0,2.642l-2.68,2.346,2.278,3.738,3.196-1.044a8.3929,8.3929,0,0,0,2.618,1.547l.708,3.092h4.4l.708-3.092a8.3881,8.3881,0,0,0,2.617-1.547l3.196,1.044,2.279-3.738-2.681-2.345A8.352,8.352,0,0,0,469.642,405Zm-8.433,2.5283a3,3,0,1,1,3-3A3.0011,3.0011,0,0,1,461.209,407.5283Z"/></g><g id="Icon-5" data-name="Icon"><path class="cls-18" d="M455.642,390a8.352,8.352,0,0,0-.114-1.322l2.681-2.345-2.277-3.738-3.197,1.044a8.4073,8.4073,0,0,0-2.617-1.547L449.409,379h-4.4l-.709,3.092a8.4214,8.4214,0,0,0-2.617,1.548l-3.197-1.045-2.277,3.738,2.68,2.346a7.7779,7.7779,0,0,0,0,2.642l-2.68,2.346,2.278,3.738,3.196-1.044a8.3929,8.3929,0,0,0,2.618,1.547l.708,3.092h4.4l.708-3.092a8.3881,8.3881,0,0,0,2.617-1.547l3.196,1.044,2.279-3.738-2.681-2.345A8.352,8.352,0,0,0,455.642,390Zm-8.433,2.5283a3,3,0,1,1,3-3A3.0011,3.0011,0,0,1,447.209,392.5283Z"/></g><g id="Icon-6" data-name="Icon"><path class="cls-26" d="M483.642,390a8.352,8.352,0,0,0-.114-1.322l2.681-2.345-2.277-3.738-3.197,1.044a8.4073,8.4073,0,0,0-2.617-1.547L477.409,379h-4.4l-.709,3.092a8.4214,8.4214,0,0,0-2.617,1.548l-3.197-1.045-2.277,3.738,2.68,2.346a7.7779,7.7779,0,0,0,0,2.642l-2.68,2.346,2.278,3.738,3.196-1.044a8.3929,8.3929,0,0,0,2.618,1.547l.708,3.092h4.4l.708-3.092a8.3881,8.3881,0,0,0,2.617-1.547l3.196,1.044,2.279-3.738-2.681-2.345A8.352,8.352,0,0,0,483.642,390Zm-8.433,2.5283a3,3,0,1,1,3-3A3.0011,3.0011,0,0,1,475.209,392.5283Z"/></g><polygon class="cls-1" points="151.733 160 151.733 196 120.733 196 120.733 148 138.733 148 138.733 160 151.733 160"/><path class="cls-27" d="M139.5667,147h-20v50H152.9V160.3333Zm11.6666,48.3333h-30V148.6667H137.9V162h13.3333Z"/><rect class="cls-27" x="126.2333" y="167" width="20" height="1.6667"/><rect class="cls-27" x="126.2333" y="170.3333" width="20" height="1.6667"/><rect class="cls-27" x="126.2333" y="173.6667" width="10" height="1.6667"/><path class="cls-28" d="M149.281,183.5205a7.9965,7.9965,0,0,0-5.9331.8491v-.8187a4.2479,4.2479,0,0,1,1.4765-3.3078,3.8461,3.8461,0,0,1,5.3235.2475l1.416-1.416a5.8948,5.8948,0,0,0-7.03-1.0734,6.1713,6.1713,0,0,0-3.186,5.5119v2.4995a7.9914,7.9914,0,1,0,7.9331-2.4921Zm2.0241,10.0621-1.414,1.414-2.293-2.293-2.293,2.293-1.414-1.414,2.293-2.293-2.293-2.293,1.414-1.414,2.293,2.293,2.293-2.293,1.414,1.414-2.293,2.293Z"/><path class="cls-29" d="M317.3689,169.2209H288.0036a14,14,0,1,0,0,12h7.3653v-2h3v2h19l6-6Z"/><rect class="cls-27" x="301.399" y="176.2209" width="14.14" height="0.14"/><polygon class="cls-27" points="296.829 177.911 298.139 179.221 295.519 179.221 296.829 177.911"/><rect class="cls-27" x="301.399" y="174.6909" width="14.14" height="1.67"/><path class="cls-27" d="M273.1089,173.1709a3.33,3.33,0,1,1-4.71,0A3.3137,3.3137,0,0,1,273.1089,173.1709Z"/><path class="cls-27" d="M265.5389,166.8209a13.1374,13.1374,0,0,0-3,6.22,13.6475,13.6475,0,0,1,13.33-11.82,13.5046,13.5046,0,0,1,12.58,8.93h-.61l-.47-.88a13.0751,13.0751,0,0,0-2.33-3.14A13.3383,13.3383,0,0,0,265.5389,166.8209Z"/><path class="cls-27" d="M288.1789,180.9609c-.03.09-.07.17-.11.26a13.4733,13.4733,0,0,1-12.2,8,13.2127,13.2127,0,0,1-9.63-4.19,13.3419,13.3419,0,0,0,18.8-.05,13.0751,13.0751,0,0,0,2.33-3.14l.33-.62.14-.26Z"/><path class="cls-27" d="M318.0389,168.4809h-29.2a15.0219,15.0219,0,1,0,0,14.14h5.63l2.36-2.35,2.35,2.35h18.86l7.07-7.07Zm-21.21,9.43-1.31,1.31-.15.15-1.59,1.59h-5.94l-.14.26-.33.62a13.0751,13.0751,0,0,1-2.33,3.14,13.3419,13.3419,0,0,1-18.8.05c-.25-.24-.48-.49-.71-.75a13.3462,13.3462,0,0,1-3-11.19.1087.1087,0,0,1,.01-.05,13.1374,13.1374,0,0,1,3-6.22,13.3383,13.3383,0,0,1,19.5-.69,13.0751,13.0751,0,0,1,2.33,3.14l.47.88h29.51l2.02,2.02,3.38,3.38-3.38,3.39-2.02,2.02h-17.48l-1.5-1.51Z"/><path class="cls-27" d="M273.1089,177.8809a3.33,3.33,0,1,1,0-4.71A3.3315,3.3315,0,0,1,273.1089,177.8809Z"/><rect class="cls-27" x="301.399" y="174.6909" width="14.14" height="1.67"/><path class="cls-30" d="M118.9827,380.16a14,14,0,1,0,12.6347,20h7.3653l1-2,1,1,1,1h19l6-6-6-6H131.6174a13.9876,13.9876,0,0,0-12.6347-8"/><path class="cls-25" d="M161.6529,387.4222l-29.2-.0007a15.01,15.01,0,1,0,0,14.1422l5.63.0006,2.357-2.3571,2.357,2.3571h18.8562l7.0711-7.0711Zm-.69,12.4754-17.4753,0-1.8691-1.8692L140.44,396.85l-1.1785,1.1785-1.8689,1.8689-4.9391-.0006h-.9994l-.4708.8815a13.34,13.34,0,1,1,0-12.5709l.4708.88h.9988l28.5094.0007,5.4046,5.4046Z"/><circle class="cls-25" cx="114.3694" cy="394.4662" r="3.3333"/><rect class="cls-25" x="145.0102" y="393.6327" width="14.1419" height="1.6667"/><path class="cls-29" d="M318.815,388.0691H289.45a14,14,0,1,0,0,12h7.3654v-2h3v2h19l6-6Z"/><rect class="cls-27" x="302.845" y="395.0691" width="14.14" height="0.14"/><polygon class="cls-27" points="298.275 396.759 299.585 398.069 296.965 398.069 298.275 396.759"/><rect class="cls-27" x="302.845" y="393.5391" width="14.14" height="1.67"/><path class="cls-27" d="M274.555,392.0191a3.33,3.33,0,1,1-4.71,0A3.3137,3.3137,0,0,1,274.555,392.0191Z"/><path class="cls-27" d="M266.985,385.6691a13.1356,13.1356,0,0,0-3,6.22,13.6474,13.6474,0,0,1,13.33-11.82,13.5043,13.5043,0,0,1,12.58,8.93h-.61l-.47-.88a13.0731,13.0731,0,0,0-2.33-3.14A13.3383,13.3383,0,0,0,266.985,385.6691Z"/><path class="cls-27" d="M289.625,399.8091c-.03.09-.07.17-.11.26a13.4732,13.4732,0,0,1-12.2,8,13.213,13.213,0,0,1-9.63-4.19,13.342,13.342,0,0,0,18.8-.05,13.079,13.079,0,0,0,2.33-3.14l.33-.62.14-.26Z"/><path class="cls-27" d="M319.485,387.3291h-29.2a15.0221,15.0221,0,1,0,0,14.14h5.63l2.36-2.35,2.35,2.35h18.86l7.07-7.07Zm-21.21,9.43-1.31,1.31-.15.15-1.59,1.59h-5.94l-.14.26-.33.62a13.079,13.079,0,0,1-2.33,3.14,13.342,13.342,0,0,1-18.8.05c-.25-.24-.48-.49-.71-.75a13.3462,13.3462,0,0,1-3-11.19.1085.1085,0,0,1,.01-.05,13.1356,13.1356,0,0,1,3-6.22,13.3383,13.3383,0,0,1,19.5-.69,13.0731,13.0731,0,0,1,2.33,3.14l.47.88h29.51l2.02,2.02,3.38,3.38-3.38,3.39-2.02,2.02h-17.48l-1.5-1.51Z"/><path class="cls-27" d="M274.555,396.7291a3.33,3.33,0,1,1,0-4.71A3.3318,3.3318,0,0,1,274.555,396.7291Z"/><rect class="cls-27" x="302.845" y="393.5391" width="14.14" height="1.67"/><polygon class="cls-1" points="636.224 160 636.224 196 605.224 196 605.224 148 623.224 148 623.224 160 636.224 160"/><path class="cls-27" d="M624.0576,147h-20v50H637.391V160.3333Zm11.6667,48.3333h-30V148.6667H622.391V162h13.3333Z"/><rect class="cls-27" x="610.7243" y="167" width="20" height="1.6667"/><rect class="cls-27" x="610.7243" y="170.3333" width="20" height="1.6667"/><rect class="cls-27" x="610.7243" y="173.6667" width="10" height="1.6667"/><ellipse class="cls-1" cx="631.9482" cy="191" rx="5.5" ry="6"/><path class="cls-31" d="M637.8388,183.29a6.0244,6.0244,0,0,0-8.6073-5.39,6.2232,6.2232,0,0,0-3.3927,5.6521v2.4608a8,8,0,1,0,12-.001Zm-10,0a3.9868,3.9868,0,0,1,6.2723-3.239,4.33,4.33,0,0,1,1.7277,3.5454v.7726a7.9506,7.9506,0,0,0-8,.001Zm2.8247,12.414-3.707-3.707,1.414-1.414,2.293,2.293,5.293-5.293,1.414,1.414Z"/><path class="cls-32" d="M638.9435,395.94a3.3384,3.3384,0,0,1-2.5982,1.021,8.6224,8.6224,0,0,1-1.4036-.0866c-.45-.0977-.9191-.1575-1.36-.29a26.2556,26.2556,0,0,1-5.112-2.0436,53.0115,53.0115,0,0,1-9.02-6.2148c-1.3877-1.1931-2.7646-2.41-4.0729-3.7143a25.9106,25.9106,0,0,1-3.4871-4.3255,21.0653,21.0653,0,0,1-2.3972-5.1292,14.41,14.41,0,0,1-.33-1.4167,9.0057,9.0057,0,0,1-.0926-1.4906,5.2507,5.2507,0,0,1,.263-1.4986c.12-.24.2417-.47.3633-.6855.18-.1937.3673-.3679.54-.53l.2208.2031a3.0211,3.0211,0,0,0-.0242,2.3632,10.8783,10.8783,0,0,0,1.0129,2.2544,36.5657,36.5657,0,0,0,2.9018,4.2083,98.0049,98.0049,0,0,0,6.7277,7.9947,51.1029,51.1029,0,0,0,8.1506,6.6853,25.1033,25.1033,0,0,0,4.635,2.4579c.4037.1714.8223.2673,1.2365.4069a8.1738,8.1738,0,0,0,1.2639.2164,2.8928,2.8928,0,0,0,2.3619-.5886Z"/><path class="cls-33" d="M647.1561,365.0979l-9.17-.3382.3161.3539h-.1768l-.3744-.3744-17.6776,17.6776.207.2071-3.1156,3.1156a14.4632,14.4632,0,0,0-4.2171-.6259,13.5089,13.5089,0,1,0,14,13.5,13.0151,13.0151,0,0,0-.8649-4.6351l4.8649-4.8649-1-1,2.5325-2.5325.9571.9571,12.6789-12.6789.3468.3881.06-.7951.3492-.3492-.3-.3Z"/><path class="cls-25" d="M638.1983,363.49l-20.648,20.647a15.01,15.01,0,1,0,10,10l3.9813-3.98v-3.3333h3.3333L648.1983,373.49v-10Zm8.3333,9.31-12.3567,12.357h-4.31v4.31l-3.4929,3.4921-.7067.7067.29.9562a13.3394,13.3394,0,1,1-8.8887-8.8892l.9554.29.7063-.7062,20.16-20.1587h7.6433Z"/><circle class="cls-25" cx="609.7446" cy="401.9056" r="3.3333"/><rect class="cls-25" x="629.3399" y="374.406" width="14.1419" height="1.6667" transform="translate(-78.9343 559.9139) rotate(-44.9999)"/><path class="cls-34" d="M644.1561,363.0979l-9.17-.3382.3161.3539h-.1768l-.3744-.3744-17.6776,17.6776.207.2071-3.1156,3.1156a14.4632,14.4632,0,0,0-4.2171-.6259,13.5089,13.5089,0,1,0,14,13.5,13.0151,13.0151,0,0,0-.8649-4.6351l4.8649-4.8649-1-1,2.5325-2.5325.9571.9571,12.6789-12.6789.3468.3881.06-.7951.3492-.3492-.3-.3Z"/><path class="cls-27" d="M635.1983,361.49l-20.648,20.647a15.01,15.01,0,1,0,10,10l3.9813-3.98v-3.3333h3.3333L645.1983,371.49v-10Zm8.3333,9.31-12.3567,12.357h-4.31v4.31l-3.4929,3.4921-.7067.7067.29.9562a13.3394,13.3394,0,1,1-8.8887-8.8892l.9554.29.7063-.7062,20.16-20.1587h7.6433Z"/><circle class="cls-27" cx="606.7446" cy="399.9056" r="3.3333"/><rect class="cls-27" x="626.3399" y="372.406" width="14.1419" height="1.6667" transform="translate(-78.3987 557.2068) rotate(-44.9999)"/><path class="cls-32" d="M610.2358,369.5357a3.3388,3.3388,0,0,1,2.5982-1.021,8.6205,8.6205,0,0,1,1.4035.0867c.45.0977.9192.1574,1.36.29a26.2527,26.2527,0,0,1,5.1121,2.0436,53.0107,53.0107,0,0,1,9.02,6.2148c1.3877,1.193,2.7646,2.41,4.0729,3.7142a25.9187,25.9187,0,0,1,3.4871,4.3255,21.066,21.066,0,0,1,2.3972,5.1293,14.4146,14.4146,0,0,1,.33,1.4166,9.0076,9.0076,0,0,1,.0926,1.4907,5.2474,5.2474,0,0,1-.2631,1.4986c-.12.24-.2416.4695-.3632.6855-.18.1937-.3673.3679-.54.53l-.2208-.203a3.0211,3.0211,0,0,0,.0242-2.3632,10.8835,10.8835,0,0,0-1.0129-2.2544,36.57,36.57,0,0,0-2.9018-4.2083,98.0264,98.0264,0,0,0-6.7277-7.9948,51.0969,51.0969,0,0,0-8.1506-6.6852,25.1,25.1,0,0,0-4.635-2.4579c-.4037-.1714-.8223-.2673-1.2365-.4069a8.1738,8.1738,0,0,0-1.2639-.2164,2.8928,2.8928,0,0,0-2.3619.5886Z"/><ellipse class="cls-1" cx="641.1983" cy="405.1136" rx="5.5" ry="6"/><path class="cls-31" d="M646.6983,397.4031a6.0244,6.0244,0,0,0-8.6074-5.39,6.2232,6.2232,0,0,0-3.3926,5.652v2.4608a8,8,0,1,0,12-.001Zm-10,0a3.9867,3.9867,0,0,1,6.2723-3.2389,4.33,4.33,0,0,1,1.7277,3.5453v.7726a7.9506,7.9506,0,0,0-8,.001Zm2.8246,12.414-3.707-3.707,1.414-1.414,2.293,2.293,5.293-5.293,1.414,1.414Z"/><path class="cls-34" d="M832.3272,148.9843l-9.1695-.3381.3161.3538h-.1767l-.3744-.3744L805.245,166.3033l.2071.2071-3.1156,3.1156a14.4642,14.4642,0,0,0-4.2171-.626,13.5089,13.5089,0,1,0,14,13.5,13.0151,13.0151,0,0,0-.8649-4.6351L816.1194,173l-1-1,2.5325-2.5325.9571.9571,12.6789-12.6789.3468.3882.06-.7952.3492-.3491-.3-.3Z"/><path class="cls-27" d="M823.37,147.3767l-20.648,20.6471a15.01,15.01,0,1,0,10,10l3.9812-3.98V170.71h3.3334l13.3333-13.3333v-10Zm8.3333,9.31-12.3567,12.3571h-4.31v4.31l-3.493,3.492-.7066.7067.29.9563a13.34,13.34,0,1,1-8.8887-8.8892l.9554.29.7062-.7063,20.16-20.1587h7.6433Z"/><circle class="cls-27" cx="794.9158" cy="185.792" r="3.3333"/><rect class="cls-27" x="814.511" y="158.2924" width="14.1419" height="1.6667" transform="translate(128.1158 627.5515) rotate(-44.9999)"/><path class="cls-32" d="M837.9991,177.5416a4.4275,4.4275,0,0,1-2.3366,2.8143,13.4534,13.4534,0,0,1-3.4391,1.3063,34.1724,34.1724,0,0,1-7.2342.87,69.1717,69.1717,0,0,1-14.4454-1.4515c-4.735-.9881-9.539-2.1273-13.9089-4.4438a28.783,28.783,0,0,1-6.1369-4.2058,12.6932,12.6932,0,0,1-2.431-2.9489,6.4214,6.4214,0,0,1-.7081-1.8357,3.3274,3.3274,0,0,1,.1636-1.9392l.2921.0684a4.1,4.1,0,0,0,1.363,2.9034,14.3554,14.3554,0,0,0,2.6264,2.0947,42.5554,42.5554,0,0,0,6.1256,3.1569,103.5353,103.5353,0,0,0,13.162,4.8134,67.2588,67.2588,0,0,0,13.9191,2.2882,33.003,33.003,0,0,0,7.0229-.2751,12.7822,12.7822,0,0,0,3.333-.964,3.9774,3.9774,0,0,0,2.34-2.32Z"/><polygon class="cls-1" points="829.119 160 829.119 196 798.119 196 798.119 148 816.119 148 816.119 160 829.119 160"/><path class="cls-27" d="M816.7288,147h-20v50h33.3333V160.3333Zm11.6667,48.3333h-30V148.6667h16.6666V162h13.3334Z"/><rect class="cls-27" x="803.3955" y="167" width="20" height="1.6667"/><rect class="cls-27" x="803.3955" y="170.3333" width="20" height="1.6667"/><rect class="cls-27" x="803.3955" y="173.6667" width="10" height="1.6667"/><path class="cls-32" d="M787.5225,165.7074a4.428,4.428,0,0,1,2.3366-2.8144,13.4531,13.4531,0,0,1,3.4391-1.3062,34.1733,34.1733,0,0,1,7.2343-.87,69.17,69.17,0,0,1,14.4453,1.4515c4.735.988,9.5391,2.1273,13.909,4.4437a28.7849,28.7849,0,0,1,6.1368,4.2058,12.6938,12.6938,0,0,1,2.431,2.949,6.4162,6.4162,0,0,1,.7081,1.8357,3.3266,3.3266,0,0,1-.1636,1.9392l-.2921-.0685a4.1,4.1,0,0,0-1.3629-2.9034,14.3574,14.3574,0,0,0-2.6264-2.0946,42.5622,42.5622,0,0,0-6.1257-3.157,103.5139,103.5139,0,0,0-13.162-4.8133,67.2588,67.2588,0,0,0-13.9191-2.2882,33.003,33.003,0,0,0-7.0229.2751,12.7781,12.7781,0,0,0-3.333.9639,3.9782,3.9782,0,0,0-2.34,2.32Z"/><ellipse class="cls-1" cx="824.6194" cy="191" rx="5.5" ry="6"/><path class="cls-31" d="M830.51,183.29a6.0244,6.0244,0,0,0-8.6073-5.39,6.2232,6.2232,0,0,0-3.3927,5.6521v2.4608a8,8,0,1,0,12-.001Zm-10,0a3.9868,3.9868,0,0,1,6.2723-3.239,4.33,4.33,0,0,1,1.7277,3.5454v.7726a7.9506,7.9506,0,0,0-8,.001Zm2.8246,12.414-3.707-3.707,1.414-1.414,2.293,2.293,5.293-5.293,1.414,1.414Z"/><line class="cls-35" x1="213" y1="182.75" x2="213" y2="197.25"/><line class="cls-35" x1="220.25" y1="190" x2="205.75" y2="190"/><line class="cls-35" x1="213" y1="400.75" x2="213" y2="415.25"/><line class="cls-35" x1="220.25" y1="408" x2="205.75" y2="408"/><line class="cls-35" x1="621.9479" y1="294.75" x2="621.9479" y2="309.25"/><line class="cls-35" x1="629.1979" y1="302" x2="614.6979" y2="302"/></g><g id="Text"><path d="M736.56,417.3984h-.9239V409.72h3.0586a2.1954,2.1954,0,0,1,.6045,4.29l1.7608,3.3886h-1.0459l-1.6612-3.3007H736.56Zm2.1347-4.0927a1.0278,1.0278,0,0,0,1.1543-1.1v-.5723a1.0285,1.0285,0,0,0-1.1543-1.1006H736.56v2.7725Z"/><path d="M742.0039,414.56c0-1.8037,1.0459-2.97,2.5635-2.97s2.5635,1.1661,2.5635,2.97-1.045,2.9707-2.5635,2.9707S742.0039,416.3643,742.0039,414.56Zm4.1807.4072v-.8135a1.6248,1.6248,0,1,0-3.2344,0v.8135a1.6248,1.6248,0,1,0,3.2344,0Z"/><path d="M748.1641,414.56c0-1.8037,1.0459-2.97,2.5634-2.97s2.5635,1.1661,2.5635,2.97-1.0449,2.9707-2.5635,2.9707S748.1641,416.3643,748.1641,414.56Zm4.1806.4072v-.8135a1.6248,1.6248,0,1,0-3.2343,0v.8135a1.6248,1.6248,0,1,0,3.2343,0Z"/><path d="M755.9971,417.3984a.8667.8667,0,0,1-.9356-.9355v-3.9707h-.9345v-.7705h.5273c.374,0,.4951-.1319.4951-.5176v-1.0557h.793v1.5733h1.2431v.7705h-1.2431v4.1357h1.1543v.77Z"/><path d="M761.1992,409.2568h.88v5.16h.0439l.8692-.9678,1.6064-1.7275h1.0664l-2.1005,2.2441,2.31,3.4326h-1.0664l-1.8818-2.8935-.8467.8691v2.0244h-.88Z"/><path d="M766.3906,414.56c0-1.8037,1.0127-2.97,2.5528-2.97a2.4854,2.4854,0,0,1,2.4531,2.7725v.418h-4.0811v.2636a1.6079,1.6079,0,0,0,1.6826,1.7168,1.645,1.645,0,0,0,1.5625-.9795l.627.4512a2.3813,2.3813,0,0,1-2.2441,1.2979C767.4033,417.53,766.3906,416.3643,766.3906,414.56Zm.9248-.5166v.0771h3.1358v-.1211a1.51,1.51,0,0,0-1.5078-1.6719A1.613,1.613,0,0,0,767.3154,414.043Z"/><path d="M776.292,411.7217h.8691l-2.541,6.9971c-.2529.6816-.4844.88-1.32.88h-.4512v-.7695h.8907l.43-1.2109-2.123-5.8965h.88l1.3642,3.8613.2637.9238h.0547l.3086-.9238Z"/><path d="M777.6992,416.4189l.627-.5058a2.0594,2.0594,0,0,0,1.6826.8691c.748,0,1.1885-.3408,1.1885-.9238,0-.44-.2422-.7813-.99-.8916l-.4511-.0654c-1.045-.1543-1.8262-.583-1.8262-1.64,0-1.1221.8691-1.6719,2.0244-1.6719a2.3636,2.3636,0,0,1,1.9805.9131l-.583.5283a1.7509,1.7509,0,0,0-1.4639-.6933c-.7256,0-1.11.3408-1.11.88,0,.55.3848.77,1.0889.88l.44.0664c1.2539.1865,1.7373.7373,1.7373,1.5947,0,1.1006-.8027,1.7715-2.1005,1.7715A2.6358,2.6358,0,0,1,777.6992,416.4189Z"/><path d="M786.0918,409.8955v-.1435c0-.2969.165-.4952.5391-.4952s.539.1983.539.4952v.1435c0,.2969-.165.4951-.539.4951S786.0918,410.1924,786.0918,409.8955Zm.1,1.8262h.88v5.6767h-.88Z"/><path d="M788.9414,417.3984v-5.6767h.88v.9238h.0439a1.61,1.61,0,0,1,1.6065-1.0557c1.166,0,1.9033.792,1.9033,2.167v3.6416h-.8809v-3.4873c0-1.0127-.4394-1.5293-1.2871-1.5293-.7041,0-1.3857.3516-1.3857,1.0782v3.9384Z"/><path d="M800.2275,413.9219l-1.0234,1.21v2.2666H797.752V409.72h1.4521v3.7842h.0547l1.0889-1.4414,1.9033-2.3428h1.6728l-2.6738,3.2012,2.8936,4.4775H802.416Z"/><path d="M804.4619,414.5156c0-1.8144.98-2.9922,2.6631-2.9922,1.793,0,2.6182,1.32,2.6182,2.8936v.4619h-3.8174v.1436a1.2747,1.2747,0,0,0,1.3965,1.3857,1.7457,1.7457,0,0,0,1.4638-.7812l.7588.8476a2.8435,2.8435,0,0,1-2.376,1.0557C805.4746,417.53,804.4619,416.3535,804.4619,414.5156Zm1.4639-.5937v.0879H808.28v-.0987c0-.792-.4073-1.331-1.1338-1.331A1.2184,1.2184,0,0,0,805.9258,413.9219Z"/><path d="M814.44,411.6553h1.32l-2.3106,6.7666a1.4839,1.4839,0,0,1-1.64,1.1767h-.8467v-1.122h1.0342l.2636-.8028-2.0576-6.0185h1.3975l1.001,3.0371.374,1.4521h.0664l.3955-1.4521Z"/><path d="M819.3672,417.3984V409.72h3.4541a2.3781,2.3781,0,0,1,0,4.752h-2.002v2.9267Zm1.4521-4.1806h1.87a.8078.8078,0,0,0,.9023-.8692v-.5058a.8.8,0,0,0-.9023-.8584h-1.87Z"/><path d="M826.22,417.3984v-5.7431h1.4082v1.1885h.0547a1.4728,1.4728,0,0,1,1.5186-1.1885h.3076v1.331h-.44c-.9454,0-1.4405.2647-1.4405.8916v3.52Z"/><path d="M830.1025,414.5156c0-1.8369,1.0235-2.9922,2.6631-2.9922,1.6494,0,2.6729,1.1553,2.6729,2.9922,0,1.8487-1.0235,3.0147-2.6729,3.0147C831.126,417.53,830.1025,416.3643,830.1025,414.5156Zm3.8623.5391v-1.0664c0-.8584-.4628-1.3311-1.1992-1.3311-.7265,0-1.1885.4727-1.1885,1.3311v1.0664c0,.8691.462,1.3428,1.1885,1.3428C833.502,416.3975,833.9648,415.9238,833.9648,415.0547Z"/><path d="M838.43,417.3984a1.3293,1.3293,0,0,1-1.4854-1.4629v-3.1689h-.8466v-1.1113h.4394c.418,0,.5508-.1973.5508-.5938v-.98h1.2646v1.5733H839.53v1.1113h-1.1778v3.51h1.0889v1.122Z"/><path d="M840.3213,414.5156c0-1.8144.98-2.9922,2.6631-2.9922,1.7929,0,2.6181,1.32,2.6181,2.8936v.4619h-3.8173v.1436a1.2746,1.2746,0,0,0,1.3964,1.3857,1.7457,1.7457,0,0,0,1.4639-.7812l.7588.8476a2.8437,2.8437,0,0,1-2.376,1.0557C841.334,417.53,840.3213,416.3535,840.3213,414.5156Zm1.4639-.5937v.0879H844.14v-.0987c0-.792-.4072-1.331-1.1337-1.331A1.2184,1.2184,0,0,0,841.7852,413.9219Z"/><path d="M846.459,414.5156c0-1.8369.957-2.9922,2.6514-2.9922a2.22,2.22,0,0,1,2.2558,1.4522l-1.1553.5176a1.0717,1.0717,0,0,0-1.1005-.836c-.78,0-1.1768.55-1.1768,1.3526v1.0449c0,.8037.3965,1.3428,1.1768,1.3428a1.2281,1.2281,0,0,0,1.2109-.9024l1.0781.5176a2.2445,2.2445,0,0,1-2.289,1.5176C847.416,417.53,846.459,416.3643,846.459,414.5156Z"/><path d="M854.28,417.3984a1.3293,1.3293,0,0,1-1.4854-1.4629v-3.1689h-.8467v-1.1113h.4395c.418,0,.5508-.1973.5508-.5938v-.98h1.2646v1.5733h1.1778v1.1113h-1.1778v3.51h1.0889v1.122Z"/><path d="M735.5479,424.9219h.88v.9238h.044a1.6579,1.6579,0,0,1,1.6611-1.0557c1.419,0,2.3106,1.1553,2.3106,2.97s-.8916,2.9707-2.3106,2.9707a1.7106,1.7106,0,0,1-1.6611-1.0557h-.044v3.124h-.88Zm3.9492,3.3222v-.9677a1.5491,1.5491,0,0,0-1.6065-1.6944c-.8027,0-1.4629.4619-1.4629,1.0889v2.1123c0,.7373.66,1.1553,1.4629,1.1553A1.5491,1.5491,0,0,0,739.4971,428.2441Z"/><path d="M741.9277,430.5986v-5.6767h.88v1.0449h.0547a1.6308,1.6308,0,0,1,1.64-1.0449h.3408v.88h-.5176c-.9453,0-1.5176.4072-1.5176.9462v3.8506Z"/><path d="M745.4912,427.76c0-1.8037,1.0459-2.97,2.5635-2.97s2.5635,1.1661,2.5635,2.97-1.045,2.9707-2.5635,2.9707S745.4912,429.5645,745.4912,427.76Zm4.1807.4072v-.8135a1.6248,1.6248,0,1,0-3.2344,0v.8135a1.6248,1.6248,0,1,0,3.2344,0Z"/><path d="M753.3232,430.5986a.8667.8667,0,0,1-.9355-.9355v-3.9707h-.9346v-.7705h.5274c.374,0,.4951-.1319.4951-.5176v-1.0557h.793v1.5733h1.2431v.7705h-1.2431v4.1357h1.1543v.77Z"/><path d="M755.4678,427.76c0-1.8037,1.0127-2.97,2.5527-2.97a2.4854,2.4854,0,0,1,2.4531,2.7725v.418h-4.081v.2636a1.6078,1.6078,0,0,0,1.6826,1.7168,1.6452,1.6452,0,0,0,1.5625-.9795l.6269.4512a2.3814,2.3814,0,0,1-2.2441,1.2979C756.4805,430.7305,755.4678,429.5645,755.4678,427.76Zm.9248-.5166v.0771h3.1347v-.1211a1.5092,1.5092,0,0,0-1.5068-1.6719A1.613,1.613,0,0,0,756.3926,427.2432Z"/><path d="M761.5068,427.76c0-1.8145.9356-2.97,2.5313-2.97a2.1269,2.1269,0,0,1,2.123,1.3311l-.7373.374a1.3674,1.3674,0,0,0-1.3857-.9238,1.5243,1.5243,0,0,0-1.585,1.7051v.9677a1.5243,1.5243,0,0,0,1.585,1.7051,1.6025,1.6025,0,0,0,1.54-.99l.6377.43a2.2385,2.2385,0,0,1-2.1777,1.3418C762.4424,430.7305,761.5068,429.5752,761.5068,427.76Z"/><path d="M768.7129,430.5986a.8667.8667,0,0,1-.9356-.9355v-3.9707h-.9345v-.7705h.5273c.374,0,.4951-.1319.4951-.5176v-1.0557h.793v1.5733h1.2432v.7705h-1.2432v4.1357h1.1543v.77Z"/><path d="M775.1689,430.5986a.8667.8667,0,0,1-.9355-.9355v-3.9707h-.9346v-.7705h.5274c.374,0,.4951-.1319.4951-.5176v-1.0557h.793v1.5733h1.2431v.7705h-1.2431v4.1357h1.1543v.77Z"/><path d="M777.7764,422.457h.88v3.3887h.044a1.61,1.61,0,0,1,1.6064-1.0557c1.1661,0,1.9034.792,1.9034,2.167v3.6416h-.8809v-3.4873c0-1.0127-.44-1.5293-1.2871-1.5293-.7041,0-1.3858.3516-1.3858,1.0782v3.9384h-.88Z"/><path d="M783.6055,427.76c0-1.8037,1.0127-2.97,2.5527-2.97a2.4854,2.4854,0,0,1,2.4531,2.7725v.418H784.53v.2636a1.6078,1.6078,0,0,0,1.6826,1.7168,1.6452,1.6452,0,0,0,1.5625-.9795l.6269.4512a2.3814,2.3814,0,0,1-2.2441,1.2979C784.6182,430.7305,783.6055,429.5645,783.6055,427.76Zm.9248-.5166v.0771h3.1357v-.1211a1.51,1.51,0,0,0-1.5078-1.6719A1.613,1.613,0,0,0,784.53,427.2432Z"/><path d="M796.2891,429.6748h-.044a1.7106,1.7106,0,0,1-1.6611,1.0557c-1.419,0-2.3106-1.1553-2.3106-2.9707s.8916-2.97,2.3106-2.97a1.6579,1.6579,0,0,1,1.6611,1.0557h.044V422.457h.88v8.1416h-.88Zm0-.8916v-2.1123c0-.627-.66-1.0889-1.4629-1.0889a1.5491,1.5491,0,0,0-1.6065,1.6944v.9677a1.5491,1.5491,0,0,0,1.6065,1.6944C795.6289,429.9385,796.2891,429.5205,796.2891,428.7832Z"/><path d="M803.1641,430.5986a.9167.9167,0,0,1-.9786-.9238H802.13a1.6033,1.6033,0,0,1-1.6387,1.0557,1.6742,1.6742,0,0,1-1.9033-1.7159c0-1.0673.7695-1.6611,2.42-1.6611H802.13v-.5615c0-.8027-.44-1.2432-1.3418-1.2432a1.5833,1.5833,0,0,0-1.4414.8477l-.5283-.4951a2.158,2.158,0,0,1,2.0136-1.1114c1.3643,0,2.1778.7149,2.1778,1.9141v3.124h.6494v.77Zm-1.0342-1.65v-.9345h-1.166c-1.001,0-1.4522.3076-1.4522.8574v.2314c0,.5606.44.88,1.1221.88C801.5029,429.9824,802.13,429.5312,802.13,428.9482Z"/><path d="M806.167,430.5986a.8667.8667,0,0,1-.9356-.9355v-3.9707h-.9345v-.7705h.5273c.374,0,.4951-.1319.4951-.5176v-1.0557h.793v1.5733h1.2432v.7705h-1.2432v4.1357h1.1543v.77Z"/><path d="M812.8994,430.5986a.9166.9166,0,0,1-.9785-.9238h-.0557a1.6032,1.6032,0,0,1-1.6386,1.0557,1.6743,1.6743,0,0,1-1.9034-1.7159c0-1.0673.77-1.6611,2.42-1.6611h1.122v-.5615c0-.8027-.4394-1.2432-1.3418-1.2432a1.5833,1.5833,0,0,0-1.4414.8477l-.5283-.4951a2.158,2.158,0,0,1,2.0137-1.1114c1.3642,0,2.1777.7149,2.1777,1.9141v3.124h.6494v.77Zm-1.0342-1.65v-.9345h-1.166c-1.001,0-1.4521.3076-1.4521.8574v.2314c0,.5606.44.88,1.122.88C811.2383,429.9824,811.8652,429.5312,811.8652,428.9482Z"/><path d="M816.7051,429.6191l.6269-.5058a2.06,2.06,0,0,0,1.6826.8691c.7481,0,1.1885-.3408,1.1885-.9238,0-.44-.2422-.7813-.99-.8916l-.4512-.0654c-1.0449-.1543-1.8262-.583-1.8262-1.64,0-1.1221.8692-1.6719,2.0245-1.6719a2.3635,2.3635,0,0,1,1.98.9131l-.583.5283a1.7507,1.7507,0,0,0-1.4638-.6933c-.7256,0-1.11.3408-1.11.88,0,.55.3848.77,1.0889.88l.44.0664c1.2539.1865,1.7373.7373,1.7373,1.5947,0,1.1006-.8027,1.7715-2.1006,1.7715A2.6356,2.6356,0,0,1,816.7051,429.6191Z"/><path d="M823.7783,430.5986a.8667.8667,0,0,1-.9355-.9355v-3.9707h-.9346v-.7705h.5273c.3741,0,.4952-.1319.4952-.5176v-1.0557h.7929v1.5733h1.2432v.7705h-1.2432v4.1357h1.1543v.77Z"/><path d="M825.9219,427.76c0-1.8037,1.0459-2.97,2.5635-2.97s2.5634,1.1661,2.5634,2.97-1.0449,2.9707-2.5634,2.9707S825.9219,429.5645,825.9219,427.76Zm4.1806.4072v-.8135a1.6248,1.6248,0,1,0-3.2343,0v.8135a1.6248,1.6248,0,1,0,3.2343,0Z"/><path d="M832.501,430.5986v-5.6767h.88v1.0449h.0546a1.631,1.631,0,0,1,1.64-1.0449h.3408v.88h-.5176c-.9453,0-1.5175.4072-1.5175.9462v3.8506Z"/><path d="M836.0645,427.76c0-1.8037,1.0126-2.97,2.5527-2.97a2.4854,2.4854,0,0,1,2.4531,2.7725v.418h-4.081v.2636a1.6078,1.6078,0,0,0,1.6826,1.7168,1.6452,1.6452,0,0,0,1.5625-.9795l.6269.4512a2.3814,2.3814,0,0,1-2.2441,1.2979C837.0771,430.7305,836.0645,429.5645,836.0645,427.76Zm.9248-.5166v.0771h3.1357v-.1211a1.51,1.51,0,0,0-1.5078-1.6719A1.613,1.613,0,0,0,836.9893,427.2432Z"/><path d="M846.1514,429.6748h-.044a1.7106,1.7106,0,0,1-1.6611,1.0557c-1.419,0-2.3106-1.1553-2.3106-2.9707s.8916-2.97,2.3106-2.97a1.6579,1.6579,0,0,1,1.6611,1.0557h.044V422.457h.88v8.1416h-.88Zm0-.8916v-2.1123c0-.627-.66-1.0889-1.4629-1.0889a1.5491,1.5491,0,0,0-1.6065,1.6944v.9677a1.5491,1.5491,0,0,0,1.6065,1.6944C845.4912,429.9385,846.1514,429.5205,846.1514,428.7832Z"/><path d="M851.3984,423.0957v-.1436c0-.2968.1651-.4951.5391-.4951s.5391.1983.5391.4951v.1436c0,.2969-.1651.4951-.5391.4951S851.3984,423.3926,851.3984,423.0957Zm.1,1.8262h.88v5.6767h-.88Z"/><path d="M854.248,430.5986v-5.6767h.88v.9238h.044a1.61,1.61,0,0,1,1.6064-1.0557c1.166,0,1.9033.792,1.9033,2.167v3.6416h-.8808v-3.4873c0-1.0127-.4395-1.5293-1.2871-1.5293-.7041,0-1.3858.3516-1.3858,1.0782v3.9384Z"/><path d="M735.25,440.0029c0-2.5634,1.1553-4.0156,3.0918-4.0156a2.7133,2.7133,0,0,1,2.6406,1.6836l-.748.4512a1.93,1.93,0,0,0-1.8926-1.31c-1.32,0-2.1016,1.0459-2.1016,2.6191v1.1436c0,1.5732.7813,2.53,2.1016,2.53A1.9918,1.9918,0,0,0,740.3,441.72l.7373.4619a2.8264,2.8264,0,0,1-2.6953,1.7491C736.4053,443.9307,735.25,442.5664,735.25,440.0029Z"/><path d="M743.3135,443.7988a.86.86,0,0,1-.9346-.9131v-7.2285h.88v7.3711h.8359v.7705Z"/><path d="M744.9512,440.96c0-1.8038,1.0459-2.97,2.5634-2.97s2.5635,1.166,2.5635,2.97-1.0449,2.9707-2.5635,2.9707S744.9512,442.7646,744.9512,440.96Zm4.1806.4072v-.8135a1.6248,1.6248,0,1,0-3.2343,0v.8135a1.6248,1.6248,0,1,0,3.2343,0Z"/><path d="M755.0283,442.875h-.0439a1.5775,1.5775,0,0,1-1.5957,1.0557c-1.166,0-1.9141-.792-1.9141-2.167v-3.6416h.8809v3.4873c0,1.0127.45,1.5293,1.2978,1.5293.6934,0,1.375-.3408,1.375-1.0889v-3.9277h.88v5.6767h-.88Z"/><path d="M761.4082,442.875h-.0439a1.7107,1.7107,0,0,1-1.6612,1.0557c-1.4189,0-2.31-1.1553-2.31-2.9707s.8916-2.97,2.31-2.97a1.6579,1.6579,0,0,1,1.6612,1.0557h.0439v-3.3887h.88v8.1416h-.88Zm0-.8916v-2.1123c0-.627-.66-1.0889-1.4629-1.0889a1.549,1.549,0,0,0-1.6064,1.6944v.9677a1.549,1.549,0,0,0,1.6064,1.6944C760.748,443.1387,761.4082,442.7207,761.4082,441.9834Z"/><path d="M766.4561,439.959c0-2.5742,1.2763-3.9717,3.2568-3.9717s3.2568,1.3975,3.2568,3.9717-1.2763,3.9717-3.2568,3.9717S766.4561,442.5332,766.4561,439.959Zm5.5234.6387v-1.2764a2.2783,2.2783,0,1,0-4.5332,0v1.2764a2.2782,2.2782,0,1,0,4.5332,0Z"/><path d="M774.542,435.6572h.88v3.3887h.0439a1.6579,1.6579,0,0,1,1.6612-1.0557c1.4189,0,2.3105,1.1553,2.3105,2.97s-.8916,2.9707-2.3105,2.9707a1.7106,1.7106,0,0,1-1.6612-1.0557h-.0439v.9238h-.88Zm3.9492,5.7871v-.9677a1.549,1.549,0,0,0-1.6064-1.6944c-.8028,0-1.4629.4619-1.4629,1.0889v2.1123c0,.7373.66,1.1553,1.4629,1.1553A1.549,1.549,0,0,0,778.4912,441.4443Z"/><path d="M780.9219,438.1221h.88v6.5566a1.1594,1.1594,0,0,1-1.2325,1.32h-.5722v-.77h.9248Zm-.1-1.8262v-.1436c0-.2968.165-.4951.539-.4951s.5391.1983.5391.4951v.1436c0,.2969-.165.4951-.5391.4951S780.8223,436.5928,780.8223,436.2959Z"/><path d="M783.2529,440.96c0-1.8038,1.0127-2.97,2.5528-2.97a2.4854,2.4854,0,0,1,2.4531,2.7725v.418h-4.0811v.2636a1.6079,1.6079,0,0,0,1.6827,1.7168,1.6452,1.6452,0,0,0,1.5625-.9795l.6269.4512a2.3815,2.3815,0,0,1-2.2441,1.2979C784.2656,443.9307,783.2529,442.7646,783.2529,440.96Zm.9248-.5166v.0771h3.1348v-.1211a1.5093,1.5093,0,0,0-1.5068-1.6719A1.613,1.613,0,0,0,784.1777,440.4434Z"/><path d="M789.292,440.96c0-1.8145.9355-2.97,2.5312-2.97a2.1271,2.1271,0,0,1,2.1231,1.3311l-.7373.374a1.3675,1.3675,0,0,0-1.3858-.9238,1.5243,1.5243,0,0,0-1.5849,1.7051v.9677a1.5243,1.5243,0,0,0,1.5849,1.7051,1.6025,1.6025,0,0,0,1.54-.99l.6377.43a2.2385,2.2385,0,0,1-2.1778,1.3418C790.2275,443.9307,789.292,442.7754,789.292,440.96Z"/><path d="M796.498,443.7988a.8667.8667,0,0,1-.9355-.9355v-3.9707h-.9346v-.7705h.5274c.374,0,.4951-.1319.4951-.5176v-1.0557h.793v1.5733h1.2431v.7705h-1.2431v4.1357h1.1543v.7705Z"/><path d="M801.2275,442.5889l.6827-.5723a2.446,2.446,0,0,0,2.0683,1.1006c1.1,0,1.6934-.5723,1.6934-1.4531,0-.7256-.4063-1.0889-1.419-1.3194l-.6269-.1435c-1.3975-.3194-2.167-.9346-2.167-2.1123,0-1.3643,1.0342-2.1016,2.541-2.1016a2.8882,2.8882,0,0,1,2.541,1.2549l-.6924.5058a2.1666,2.1666,0,0,0-1.8925-.9462c-.98,0-1.584.4287-1.584,1.2539,0,.7265.4726,1.0566,1.4414,1.2763l.6269.1436c1.4961.3408,2.1455,1.001,2.1455,2.1445,0,1.4082-.99,2.3106-2.6406,2.3106A3.1819,3.1819,0,0,1,801.2275,442.5889Z"/><path d="M809.3457,443.7988a.8667.8667,0,0,1-.9355-.9355v-3.9707h-.9346v-.7705h.5273c.3741,0,.4951-.1319.4951-.5176v-1.0557h.793v1.5733h1.2432v.7705H809.291v4.1357h1.1543v.7705Z"/><path d="M811.4893,440.96c0-1.8038,1.0459-2.97,2.5634-2.97s2.5635,1.166,2.5635,2.97-1.0449,2.9707-2.5635,2.9707S811.4893,442.7646,811.4893,440.96Zm4.1806.4072v-.8135a1.6248,1.6248,0,1,0-3.2344,0v.8135a1.6248,1.6248,0,1,0,3.2344,0Z"/><path d="M818.0684,443.7988v-5.6767h.88v1.0449h.0547a1.631,1.631,0,0,1,1.64-1.0449h.3408v.88h-.5176c-.9453,0-1.5176.4072-1.5176.9462v3.8506Z"/><path d="M826.1865,443.7988a.9166.9166,0,0,1-.9785-.9238h-.0557a1.6031,1.6031,0,0,1-1.6386,1.0557,1.6742,1.6742,0,0,1-1.9033-1.7159c0-1.0673.7695-1.6611,2.42-1.6611h1.122v-.5615c0-.8027-.4394-1.2432-1.3418-1.2432a1.5834,1.5834,0,0,0-1.4414.8477l-.5283-.4951a2.1581,2.1581,0,0,1,2.0137-1.1114c1.3643,0,2.1777.7149,2.1777,1.9141v3.124h.6494v.7705Zm-1.0342-1.65v-.9345h-1.166c-1.0009,0-1.4521.3076-1.4521.8574v.2314c0,.5606.44.88,1.122.88C824.5254,443.1826,825.1523,442.7314,825.1523,442.1484Z"/><path d="M829.9707,446.1309c-1.7715,0-2.498-.5059-2.498-1.3965a1.0658,1.0658,0,0,1,.9023-1.1006v-.1211a.8236.8236,0,0,1-.5059-.792c0-.5723.4073-.8467.98-.99v-.044a1.845,1.845,0,0,1-1.0674-1.7383,1.9448,1.9448,0,0,1,2.1338-1.958,2.553,2.553,0,0,1,1.0782.22v-.0987c0-.44.1875-.76.66-.76h.8477v.77h-1.0781v.3633a1.8835,1.8835,0,0,1,.6484,1.4628,1.9482,1.9482,0,0,1-2.1445,1.958,2.9011,2.9011,0,0,1-.5508-.0546c-.374.0986-.7481.2861-.7481.6377,0,.3418.3526.43.8692.43h1.2109c1.4082,0,2.0127.5723,2.0127,1.5069C832.7207,445.5918,831.7969,446.1309,829.9707,446.1309Zm.7481-2.3868h-1.8926a.792.792,0,0,0-.5283.77c0,.4951.3417.9023,1.2324.9023h.8144c.9785,0,1.5508-.3076,1.5508-.9238C831.8955,444.041,831.5986,443.7441,830.7188,443.7441Zm.4287-3.6416v-.3086c0-.748-.4727-1.1-1.2207-1.1s-1.2217.3516-1.2217,1.1v.3086c0,.7481.4736,1.1,1.2217,1.1S831.1475,440.8506,831.1475,440.1025Z"/><path d="M833.2588,440.96c0-1.8038,1.0127-2.97,2.5527-2.97a2.4853,2.4853,0,0,1,2.4531,2.7725v.418h-4.081v.2636a1.6078,1.6078,0,0,0,1.6826,1.7168,1.6452,1.6452,0,0,0,1.5625-.9795l.627.4512a2.3815,2.3815,0,0,1-2.2442,1.2979C834.2715,443.9307,833.2588,442.7646,833.2588,440.96Zm.9248-.5166v.0771h3.1348v-.1211a1.5093,1.5093,0,0,0-1.5069-1.6719A1.613,1.613,0,0,0,834.1836,440.4434Z"/><path d="M601.67,438.8965l-1.8691-7.68h.9785l.8252,3.6973.6377,2.8711h.0224l.7149-2.8711.9678-3.6973h1.0566l.9356,3.6973.7148,2.86h.0332l.66-2.86.8691-3.6973h.9453l-1.9687,7.68H606.17l-1.001-3.8291-.7041-2.8164h-.0214l-.7266,2.8164-1.0234,3.8291Z"/><path d="M610.2061,438.8965V433.22h.88v1.0449h.0547a1.6328,1.6328,0,0,1,1.64-1.0449h.3408v.88h-.5166c-.9463,0-1.5186.4072-1.5186.9463v3.8506Z"/><path d="M618.3242,438.8965a.9174.9174,0,0,1-.9785-.9248h-.0547a1.604,1.604,0,0,1-1.64,1.0566,1.6744,1.6744,0,0,1-1.9034-1.7168c0-1.0664.7706-1.6611,2.42-1.6611h1.123V435.09c0-.8037-.44-1.2431-1.3418-1.2431a1.5843,1.5843,0,0,0-1.4414.8467l-.5283-.4952a2.1572,2.1572,0,0,1,2.0127-1.1113c1.3652,0,2.1787.7158,2.1787,1.9151v3.124h.6494v.7705Zm-1.0332-1.65v-.9356h-1.166c-1.002,0-1.4531.3086-1.4531.8584V437.4c0,.56.44.88,1.123.88C616.6641,438.28,617.291,437.8291,617.291,437.2461Z"/><path d="M620.0723,433.22h.8808v.9239h.044a1.6585,1.6585,0,0,1,1.6611-1.0567c1.42,0,2.3106,1.1553,2.3106,2.9707s-.8907,2.9707-2.3106,2.9707a1.7113,1.7113,0,0,1-1.6611-1.0566h-.044v3.125h-.8808Zm3.95,3.3223v-.9678a1.549,1.549,0,0,0-1.6065-1.6943c-.8027,0-1.4629.4619-1.4629,1.0889v2.1123c0,.7373.66,1.1552,1.4629,1.1552A1.55,1.55,0,0,0,624.0225,436.542Z"/><path d="M626.4531,433.22h.88v.9239h.044a1.6584,1.6584,0,0,1,1.6611-1.0567c1.4189,0,2.3105,1.1553,2.3105,2.9707s-.8916,2.9707-2.3105,2.9707a1.7112,1.7112,0,0,1-1.6611-1.0566h-.044v3.125h-.88Zm3.9492,3.3223v-.9678a1.549,1.549,0,0,0-1.6064-1.6943c-.8027,0-1.4629.4619-1.4629,1.0889v2.1123c0,.7373.66,1.1552,1.4629,1.1552A1.55,1.55,0,0,0,630.4023,436.542Z"/><path d="M632.4141,436.0576c0-1.8037,1.0127-2.9707,2.5527-2.9707a2.4858,2.4858,0,0,1,2.4531,2.7725v.4189h-4.081v.2637a1.607,1.607,0,0,0,1.6826,1.7158,1.6455,1.6455,0,0,0,1.5625-.9785l.6269.4512a2.3823,2.3823,0,0,1-2.2441,1.2978C633.4268,439.0283,632.4141,437.8623,632.4141,436.0576Zm.9248-.5166v.0772h3.1357v-.1211a1.51,1.51,0,0,0-1.5078-1.6729A1.6138,1.6138,0,0,0,633.3389,435.541Z"/><path d="M642.502,437.9717h-.044a1.7113,1.7113,0,0,1-1.6611,1.0566c-1.419,0-2.3106-1.1553-2.3106-2.9707s.8916-2.9707,2.3106-2.9707a1.6585,1.6585,0,0,1,1.6611,1.0567h.044v-3.3887h.8808v8.1416h-.8808Zm0-.8906v-2.1123c0-.627-.66-1.0889-1.4629-1.0889a1.549,1.549,0,0,0-1.6065,1.6943v.9678a1.55,1.55,0,0,0,1.6065,1.6943C641.8418,438.2363,642.502,437.8184,642.502,437.0811Z"/><path d="M612.5879,444.417h2.5742c1.9141,0,3.1465,1.2764,3.1465,3.84s-1.2324,3.84-3.1465,3.84h-2.5742Zm2.5742,6.8652a2.1341,2.1341,0,0,0,2.1563-2.3984V447.63a2.1341,2.1341,0,0,0-2.1563-2.3985h-1.65v6.0508Z"/><path d="M619.9688,452.0967v-7.68h4.6865v.8144h-3.7627V447.63h3.5429v.8144h-3.5429v2.8379h3.7627v.8145Z"/><path d="M628.3945,448.3232l-1.0888,1.21v2.5635h-.9248v-7.68h.9248v4.082h.0332l1.1006-1.331,2.32-2.751h1.1338l-2.86,3.29,3.0586,4.39h-1.1445Z"/><path d="M457.1123,221.896l-.7705-2.2661H453.24l-.7705,2.2661h-.9355l2.6846-7.6792h1.1777l2.6836,7.6792Zm-2.2988-6.8208h-.0557l-1.2978,3.74h2.6513Z"/><path d="M459.3555,221.896v-7.6792h4.6865v.8144h-3.7627v2.398h3.543v.8145h-3.543v2.8383h3.7627v.814Z"/><path d="M465.207,220.686l.6826-.5722a2.4458,2.4458,0,0,0,2.0684,1.1c1.1,0,1.6943-.5723,1.6943-1.4522,0-.7261-.4072-1.0893-1.42-1.32l-.6269-.1431c-1.3965-.3188-2.167-.935-2.167-2.1123,0-1.3642,1.0342-2.101,2.541-2.101a2.8916,2.8916,0,0,1,2.542,1.2539l-.6934.5063a2.1669,2.1669,0,0,0-1.8926-.9463c-.9785,0-1.5839.4292-1.5839,1.2544,0,.7261.4726,1.0562,1.4414,1.2759l.6269.1431c1.4961.3413,2.1455,1.0014,2.1455,2.1455,0,1.4082-.99,2.31-2.6406,2.31A3.1815,3.1815,0,0,1,465.207,220.686Z"/><path d="M442.6357,235.0962a.9165.9165,0,0,1-.9785-.9243h-.0556a1.6017,1.6017,0,0,1-1.6387,1.0561,1.674,1.674,0,0,1-1.9033-1.7163c0-1.0669.7705-1.6611,2.42-1.6611h1.1221v-.561c0-.8033-.44-1.2432-1.3418-1.2432a1.5859,1.5859,0,0,0-1.4414.8472l-.5274-.4952a2.1564,2.1564,0,0,1,2.0127-1.1113c1.3643,0,2.1787.7153,2.1787,1.9146v3.1245h.6485v.77Zm-1.0341-1.65v-.9351h-1.1661c-1.0009,0-1.4521.3081-1.4521.8584v.231c0,.561.44.88,1.1221.88C440.9746,234.48,441.6016,234.0288,441.6016,233.4458Z"/><path d="M445.3193,235.0962a.8607.8607,0,0,1-.9345-.9131v-7.228h.88v7.3711h.836v.77Z"/><path d="M449.4111,237.4287c-1.77,0-2.497-.5063-2.497-1.3975a1.064,1.064,0,0,1,.9023-1.1V234.81a.8216.8216,0,0,1-.5059-.792c0-.5723.4073-.8472.9786-.99v-.0439a1.8452,1.8452,0,0,1-1.0664-1.7383,1.945,1.945,0,0,1,2.1337-1.9585,2.5466,2.5466,0,0,1,1.0782.22v-.0991c0-.44.1875-.7588.66-.7588h.8477v.77h-1.0781v.3628a1.89,1.89,0,0,1,.6484,1.4634,1.9488,1.9488,0,0,1-2.1455,1.9585,2.8977,2.8977,0,0,1-.55-.0552c-.374.0991-.7481.2862-.7481.6382,0,.3408.3526.4287.8692.4287h1.21c1.4082,0,2.0137.5723,2.0137,1.5073C452.1621,236.89,451.2383,237.4287,449.4111,237.4287Zm.7491-2.3877h-1.8926a.7928.7928,0,0,0-.5283.77c0,.4947.3408.9019,1.2324.9019h.8135c.9794,0,1.5517-.3081,1.5517-.9243C451.3369,235.3384,451.04,235.041,450.16,235.041Zm.4287-3.6416v-.3076c0-.748-.4737-1.1006-1.2217-1.1006s-1.2207.3526-1.2207,1.1006v.3076c0,.7485.4726,1.1006,1.2207,1.1006S450.5889,232.1479,450.5889,231.3994Z"/><path d="M452.7,232.2578c0-1.8042,1.0449-2.9707,2.5635-2.9707s2.5634,1.1665,2.5634,2.9707-1.0449,2.97-2.5634,2.97S452.7,234.062,452.7,232.2578Zm4.1807.4072v-.8144a1.6248,1.6248,0,1,0-3.2344,0v.8144a1.6248,1.6248,0,1,0,3.2344,0Z"/><path d="M459.2783,235.0962v-5.6768h.8809v1.045h.0547a1.63,1.63,0,0,1,1.6386-1.045h.3418v.88h-.5175c-.9463,0-1.5176.4072-1.5176.9463v3.8506Z"/><path d="M463.2158,227.5933V227.45c0-.2974.1651-.4951.5391-.4951s.539.1977.539.4951v.1431c0,.2968-.165.4951-.539.4951S463.2158,227.89,463.2158,227.5933Zm.1,1.8261h.88v5.6768h-.88Z"/><path d="M467.3193,235.0962a.8661.8661,0,0,1-.9345-.9351V230.19h-.9356v-.77h.5283c.3741,0,.4952-.1323.4952-.5171v-1.0561h.7919v1.5732h1.2432v.77h-1.2432v4.1367H468.42v.77Z"/><path d="M469.9258,226.9551h.8808v3.3887h.044a1.6087,1.6087,0,0,1,1.6055-1.0567c1.1669,0,1.9033.7925,1.9033,2.1675v3.6416h-.88v-3.4873c0-1.0122-.44-1.5293-1.2871-1.5293-.7041,0-1.3858.352-1.3858,1.0781v3.9385h-.8808Z"/><path d="M476.1738,235.0962v-5.6768h.8809v.9244h.0439a1.5271,1.5271,0,0,1,1.5293-1.0567,1.7479,1.7479,0,0,1,1.7383,1.1553h.0215a1.703,1.703,0,0,1,1.7275-1.1553c1.1553,0,1.8477.7925,1.8477,2.1675v3.6416h-.88v-3.4873c0-1.0015-.3848-1.5293-1.2432-1.5293-.6933,0-1.331.352-1.331,1.0781v3.9385h-.88v-3.4873c0-1.0122-.3857-1.5293-1.2217-1.5293-.6924,0-1.3525.352-1.3525,1.0781v3.9385Z"/><path d="M256.397,431.2168h2.5747c1.914,0,3.1465,1.2764,3.1465,3.84s-1.2325,3.8389-3.1465,3.8389H256.397Zm2.5747,6.8652a2.1347,2.1347,0,0,0,2.1562-2.3984v-1.2549a2.134,2.134,0,0,0-2.1562-2.3975h-1.65v6.0508Z"/><path d="M263.7778,438.8955v-7.6787h4.687v.8144h-3.7627v2.3975h3.5425v.8145h-3.5425v2.8388h3.7627v.8135Z"/><path d="M272.2046,435.1221l-1.0894,1.21v2.5635h-.9243v-7.6787h.9243v4.0811h.0332l1.1-1.3311,2.3213-2.75h1.1333l-2.8608,3.2891,3.0586,4.39h-1.1441Z"/><path d="M279.981,433.9893h-.9244v-.7705h.9244v-1.1436a1.1726,1.1726,0,0,1,1.2431-1.32h.8584v.7695h-1.2212v1.6944h1.2212v.7705h-1.2212v4.9062h-.88Z"/><path d="M283.2363,438.8955v-5.6767h.88v1.0449h.0547a1.631,1.631,0,0,1,1.6391-1.0449h.3414v.88h-.5171c-.9463,0-1.5181.4073-1.5181.9463v3.8506Z"/><path d="M286.8008,436.0576c0-1.8047,1.0449-2.9707,2.5635-2.9707s2.5634,1.166,2.5634,2.9707-1.0454,2.97-2.5634,2.97S286.8008,437.8613,286.8008,436.0576Zm4.1806.4072V435.65a1.6248,1.6248,0,1,0-3.2343,0v.8144a1.6248,1.6248,0,1,0,3.2343,0Z"/><path d="M293.3784,438.8955v-5.6767h.88v.9248h.0439a1.5269,1.5269,0,0,1,1.5293-1.0567,1.7469,1.7469,0,0,1,1.7383,1.1553h.022a1.7022,1.7022,0,0,1,1.727-1.1553c1.1553,0,1.8482.792,1.8482,2.167v3.6416h-.88v-3.4873c0-1.001-.3853-1.5293-1.2432-1.5293-.6933,0-1.3315.3525-1.3315,1.0781v3.9385h-.88v-3.4873c0-1.0117-.3852-1.5293-1.2212-1.5293-.6929,0-1.353.3525-1.353,1.0781v3.9385Z"/><path d="M305.28,435.1006c0-2.5635,1.1552-4.0156,3.0913-4.0156a2.714,2.714,0,0,1,2.6406,1.6826l-.7485.4512a1.928,1.928,0,0,0-1.8921-1.3086c-1.32,0-2.1011,1.0449-2.1011,2.6181v1.1436c0,1.5732.7808,2.5312,2.1011,2.5312a1.9942,1.9942,0,0,0,1.9585-1.3867l.7368.4619a2.8261,2.8261,0,0,1-2.6953,1.749C306.4355,439.0273,305.28,437.6641,305.28,435.1006Z"/><path d="M313.3433,438.8955a.8607.8607,0,0,1-.9351-.9131v-7.2275h.88v7.3711h.8359v.77Z"/><path d="M314.9819,436.0576c0-1.8047,1.045-2.9707,2.5635-2.9707s2.5635,1.166,2.5635,2.9707-1.0454,2.97-2.5635,2.97S314.9819,437.8613,314.9819,436.0576Zm4.1807.4072V435.65a1.6248,1.6248,0,1,0-3.2344,0v.8144a1.6248,1.6248,0,1,0,3.2344,0Z"/><path d="M325.0586,437.9717h-.044a1.5773,1.5773,0,0,1-1.5952,1.0556c-1.166,0-1.914-.7919-1.914-2.1669v-3.6416h.88v3.4873c0,1.0127.4511,1.5293,1.2983,1.5293.6929,0,1.375-.3409,1.375-1.0889v-3.9277h.88v5.6767h-.88Z"/><path d="M331.4385,437.9717h-.044a1.71,1.71,0,0,1-1.6611,1.0556c-1.4189,0-2.31-1.1543-2.31-2.97s.8912-2.9707,2.31-2.9707a1.6572,1.6572,0,0,1,1.6611,1.0567h.044v-3.3887h.88v8.1406h-.88Zm0-.8916v-2.1123c0-.627-.66-1.0889-1.4629-1.0889a1.55,1.55,0,0,0-1.6065,1.6943v.9678a1.5491,1.5491,0,0,0,1.6065,1.6944C330.7788,438.2354,331.4385,437.8174,331.4385,437.08Z"/><path d="M258.4707,448.2568c0-2.5752,1.2759-3.9716,3.2564-3.9716s3.2563,1.3964,3.2563,3.9716-1.2759,3.9707-3.2563,3.9707S258.4707,450.8311,258.4707,448.2568Zm5.523.6377v-1.2763a2.278,2.278,0,1,0-4.5328,0v1.2763a2.2781,2.2781,0,1,0,4.5328,0Z"/><path d="M266.5557,443.9551h.88v3.3887h.044a1.6572,1.6572,0,0,1,1.6611-1.0567c1.4194,0,2.3106,1.1553,2.3106,2.9707s-.8912,2.97-2.3106,2.97a1.71,1.71,0,0,1-1.6611-1.0556h-.044v.9238h-.88Zm3.95,5.7861v-.9678a1.55,1.55,0,0,0-1.6065-1.6943c-.8027,0-1.4629.4619-1.4629,1.0889V450.28c0,.7373.66,1.1552,1.4629,1.1552A1.549,1.549,0,0,0,270.5054,449.7412Z"/><path d="M272.9355,446.4189h.88v6.5577a1.1593,1.1593,0,0,1-1.2324,1.3193h-.5718v-.7695h.9238Zm-.0991-1.8261V444.45c0-.2979.1651-.4951.5391-.4951s.5391.1972.5391.4951v.1426c0,.2968-.1651.4951-.5391.4951S272.8364,444.89,272.8364,444.5928Z"/><path d="M275.2676,449.2578c0-1.8047,1.0122-2.9707,2.5522-2.9707a2.4857,2.4857,0,0,1,2.4536,2.7725v.4179h-4.0815v.2637a1.6079,1.6079,0,0,0,1.6831,1.7168,1.6455,1.6455,0,0,0,1.562-.98l.6275.4512a2.3816,2.3816,0,0,1-2.2447,1.2978C276.28,452.2275,275.2676,451.0615,275.2676,449.2578Zm.9243-.5176v.0772h3.1352v-.1211a1.51,1.51,0,0,0-1.5073-1.6719A1.613,1.613,0,0,0,276.1919,448.74Z"/><path d="M281.3062,449.2578c0-1.8154.935-2.9707,2.53-2.9707a2.1278,2.1278,0,0,1,2.1236,1.3311l-.7373.374a1.3673,1.3673,0,0,0-1.3863-.9238,1.5241,1.5241,0,0,0-1.584,1.705v.9678a1.5249,1.5249,0,0,0,1.584,1.7061,1.6037,1.6037,0,0,0,1.5406-.99l.6376.4287a2.2369,2.2369,0,0,1-2.1782,1.3418C282.2412,452.2275,281.3062,451.0732,281.3062,449.2578Z"/><path d="M288.5117,452.0957a.8663.8663,0,0,1-.935-.9346V447.19h-.9356v-.7706h.5283c.3741,0,.4952-.1318.4952-.5166v-1.0566h.7919v1.5732H289.7v.7706h-1.2432v4.1367h1.1553v.77Z"/><path d="M293.2407,450.8857l.6822-.5722a2.4466,2.4466,0,0,0,2.0683,1.1006c1.1,0,1.6943-.5723,1.6943-1.4522,0-.7265-.4072-1.09-1.4194-1.32l-.6269-.1436c-1.397-.3183-2.1675-.9345-2.1675-2.1123,0-1.3642,1.0342-2.1005,2.5415-2.1005a2.89,2.89,0,0,1,2.5415,1.2539l-.6934.5058a2.1664,2.1664,0,0,0-1.8921-.9463c-.979,0-1.5839.43-1.5839,1.2549,0,.7256.4726,1.0557,1.4409,1.2754l.6269.1436c1.4966.3408,2.1455,1.0009,2.1455,2.1455,0,1.4082-.99,2.31-2.64,2.31A3.1815,3.1815,0,0,1,293.2407,450.8857Z"/><path d="M301.3594,452.0957a.8664.8664,0,0,1-.9351-.9346V447.19h-.9355v-.7706h.5283c.374,0,.4951-.1318.4951-.5166v-1.0566h.792v1.5732h1.2432v.7706h-1.2432v4.1367H302.46v.77Z"/><path d="M303.5039,449.2578c0-1.8047,1.0449-2.9707,2.5635-2.9707s2.5635,1.166,2.5635,2.9707-1.0455,2.97-2.5635,2.97S303.5039,451.0615,303.5039,449.2578Zm4.1807.4072v-.8144a1.6248,1.6248,0,1,0-3.2344,0v.8144a1.6248,1.6248,0,1,0,3.2344,0Z"/><path d="M310.082,452.0957v-5.6768h.88v1.045h.0547a1.6311,1.6311,0,0,1,1.6391-1.045h.3414v.88h-.5171c-.9463,0-1.5181.4073-1.5181.9463v3.8506Z"/><path d="M318.2,452.0957a.9164.9164,0,0,1-.979-.9238h-.0552a1.6019,1.6019,0,0,1-1.6391,1.0556,1.6737,1.6737,0,0,1-1.9034-1.7158c0-1.0674.7705-1.6611,2.42-1.6611h1.1221v-.5615c0-.8028-.44-1.2432-1.3418-1.2432a1.5844,1.5844,0,0,0-1.4414.8477l-.5278-.4952a2.1562,2.1562,0,0,1,2.0132-1.1113c1.3642,0,2.1782.7149,2.1782,1.9141v3.125h.6489v.77Zm-1.0342-1.65v-.9346H316c-1.001,0-1.4521.3077-1.4521.8584V450.6c0,.5615.44.88,1.122.88C316.5391,451.48,317.166,451.0283,317.166,450.4453Z"/><path d="M321.9839,454.4287c-1.771,0-2.4971-.5068-2.4971-1.3975a1.0648,1.0648,0,0,1,.9019-1.1005V451.81a.8212.8212,0,0,1-.5059-.792c0-.5723.4072-.8467.979-.99v-.0439a1.8451,1.8451,0,0,1-1.0669-1.7383,1.9452,1.9452,0,0,1,2.1343-1.958,2.5573,2.5573,0,0,1,1.0781.22v-.0986c0-.44.187-.7588.66-.7588h.8471v.7695h-1.0781v.3633a1.8869,1.8869,0,0,1,.6489,1.4629,1.9494,1.9494,0,0,1-2.1455,1.959,2.8935,2.8935,0,0,1-.55-.0557c-.374.1-.748.2862-.748.6387,0,.3408.352.4287.8691.4287h1.21c1.4082,0,2.0132.5723,2.0132,1.5069C324.7344,453.89,323.8105,454.4287,321.9839,454.4287Zm.7485-2.3877H320.84a.7927.7927,0,0,0-.5278.7705c0,.4942.3408.9014,1.2319.9014h.814c.98,0,1.5513-.3076,1.5513-.9238C323.9092,452.3379,323.6123,452.041,322.7324,452.041Zm.4287-3.6416v-.3076c0-.748-.4731-1.1006-1.2212-1.1006s-1.2211.3526-1.2211,1.1006v.3076c0,.7481.4731,1.1006,1.2211,1.1006S323.1611,449.1475,323.1611,448.3994Z"/><path d="M325.2729,449.2578c0-1.8047,1.0123-2.9707,2.5523-2.9707a2.4857,2.4857,0,0,1,2.4536,2.7725v.4179h-4.0815v.2637a1.6079,1.6079,0,0,0,1.6831,1.7168,1.6455,1.6455,0,0,0,1.562-.98l.6274.4512a2.3815,2.3815,0,0,1-2.2446,1.2978C326.2852,452.2275,325.2729,451.0615,325.2729,449.2578Zm.9244-.5176v.0772h3.1352v-.1211a1.51,1.51,0,0,0-1.5073-1.6719A1.613,1.613,0,0,0,326.1973,448.74Z"/><path d="M111.2656,438.8955h-.9243v-7.68H113.4a2.1958,2.1958,0,0,1,.605,4.291l1.76,3.3887H114.72l-1.6611-3.3008h-1.7935Zm2.1343-4.0928a1.0291,1.0291,0,0,0,1.1553-1.1006v-.5712A1.0291,1.0291,0,0,0,113.4,432.03h-2.1343v2.7724Z"/><path d="M116.71,436.0566c0-1.8037,1.045-2.9707,2.5635-2.9707s2.5635,1.167,2.5635,2.9707-1.0454,2.9707-2.5635,2.9707S116.71,437.8613,116.71,436.0566Zm4.1807.4073v-.8145a1.6248,1.6248,0,1,0-3.2344,0v.8145a1.6248,1.6248,0,1,0,3.2344,0Z"/><path d="M122.8706,436.0566c0-1.8037,1.0449-2.9707,2.5635-2.9707s2.5635,1.167,2.5635,2.9707-1.0455,2.9707-2.5635,2.9707S122.8706,437.8613,122.8706,436.0566Zm4.1807.4073v-.8145a1.6248,1.6248,0,1,0-3.2344,0v.8145a1.6248,1.6248,0,1,0,3.2344,0Z"/><path d="M130.7026,438.8955a.867.867,0,0,1-.935-.9355v-3.9717h-.9356v-.7695h.5284c.374,0,.4951-.1329.4951-.5176v-1.0557h.792v1.5733h1.2431v.7695h-1.2431v4.1367h1.1552v.7705Z"/><path d="M135.9053,430.7539h.88v5.16h.044l.8691-.9688,1.606-1.7265h1.0674l-2.1016,2.2441,2.3106,3.4326h-1.0674l-1.8809-2.8935-.8472.8691v2.0244h-.88Z"/><path d="M141.0972,436.0566c0-1.8037,1.0122-2.9707,2.5522-2.9707a2.4862,2.4862,0,0,1,2.4536,2.7725v.4189h-4.0815v.2637a1.6071,1.6071,0,0,0,1.6831,1.7158,1.6446,1.6446,0,0,0,1.562-.9785l.6274.4512a2.383,2.383,0,0,1-2.2446,1.2978C142.1094,439.0273,141.0972,437.8613,141.0972,436.0566Zm.9243-.5166v.0772h3.1352v-.1211a1.51,1.51,0,0,0-1.5073-1.6729A1.6138,1.6138,0,0,0,142.0215,435.54Z"/><path d="M150.998,433.2188h.8692l-2.5415,6.997c-.2529.6817-.4839.88-1.32.88h-.4512v-.7705h.8911l.4292-1.21-2.1235-5.8964h.88l1.3638,3.8613.2642.9238h.0551l.3081-.9238Z"/><path d="M155.4849,431.3926v-.1436c0-.2969.165-.4951.539-.4951s.5391.1982.5391.4951v.1436c0,.2969-.1651.4951-.5391.4951S155.4849,431.69,155.4849,431.3926Zm.0991,1.8262h.88v5.6767h-.88Z"/><path d="M158.334,438.8955v-5.6767h.88v.9238h.0439a1.61,1.61,0,0,1,1.606-1.0567c1.1665,0,1.9033.793,1.9033,2.168v3.6416h-.88v-3.4873c0-1.0127-.44-1.5293-1.2871-1.5293-.7041,0-1.3862.3516-1.3862,1.0781v3.9385Z"/><path d="M111.1616,448.3223l-1.0893,1.21v2.5635h-.9244v-7.68h.9244v4.082h.0332l1.1-1.331,2.3213-2.751H114.66l-2.8609,3.29,3.0586,4.39h-1.144Z"/><path d="M115.3408,449.2568c0-1.8037,1.0122-2.9707,2.5523-2.9707a2.4862,2.4862,0,0,1,2.4536,2.7725v.4189h-4.0816v.2637a1.6072,1.6072,0,0,0,1.6831,1.7158,1.6447,1.6447,0,0,0,1.5621-.9785l.6274.4512a2.3832,2.3832,0,0,1-2.2446,1.2978C116.353,452.2275,115.3408,451.0615,115.3408,449.2568Zm.9243-.5166v.0772H119.4v-.1211a1.51,1.51,0,0,0-1.5073-1.6729A1.6138,1.6138,0,0,0,116.2651,448.74Z"/><path d="M125.2417,446.4189h.8691l-2.5415,6.9971c-.2529.6817-.4839.88-1.32.88h-.4512v-.7705h.8912l.4292-1.21-2.1236-5.8965h.88l1.3638,3.8614.2641.9238h.0552l.3081-.9238Z"/><path d="M129.916,452.0957v-7.68h3.0586a2.2014,2.2014,0,0,1,0,4.4014H130.84v3.2783Zm.9243-4.0928h2.1343a1.0291,1.0291,0,0,0,1.1553-1.1006v-.5712a1.0291,1.0291,0,0,0-1.1553-1.1006H130.84Z"/><path d="M136.3838,452.0957v-5.6768h.88v1.045h.0546a1.6313,1.6313,0,0,1,1.6392-1.045h.3413v.88h-.5171c-.9463,0-1.518.4073-1.518.9463v3.8506Z"/><path d="M139.9478,449.2568c0-1.8037,1.0449-2.9707,2.5634-2.9707s2.5635,1.167,2.5635,2.9707-1.0454,2.9707-2.5635,2.9707S139.9478,451.0615,139.9478,449.2568Zm4.1806.4073V448.85a1.6248,1.6248,0,1,0-3.2344,0v.8145a1.6248,1.6248,0,1,0,3.2344,0Z"/><path d="M147.78,452.0957a.8668.8668,0,0,1-.9351-.9355v-3.9717H145.91v-.77h.5283c.374,0,.4951-.1328.4951-.5175v-1.0557h.792v1.5732h1.2432v.77h-1.2432v4.1367H148.88v.7705Z"/><path d="M149.9248,449.2568c0-1.8037,1.0122-2.9707,2.5523-2.9707a2.4862,2.4862,0,0,1,2.4536,2.7725v.4189h-4.0816v.2637a1.6072,1.6072,0,0,0,1.6831,1.7158,1.6444,1.6444,0,0,0,1.562-.9785l.6275.4512a2.3832,2.3832,0,0,1-2.2446,1.2978C150.937,452.2275,149.9248,451.0615,149.9248,449.2568Zm.9243-.5166v.0772h3.1353v-.1211a1.51,1.51,0,0,0-1.5073-1.6729A1.6138,1.6138,0,0,0,150.8491,448.74Z"/><path d="M155.9639,449.2568c0-1.8154.935-2.9707,2.53-2.9707a2.1285,2.1285,0,0,1,2.1236,1.3321l-.7373.374a1.3681,1.3681,0,0,0-1.3863-.9248,1.5248,1.5248,0,0,0-1.5839,1.706v.9678a1.5241,1.5241,0,0,0,1.5839,1.7051,1.6022,1.6022,0,0,0,1.5406-.99l.6377.43a2.2386,2.2386,0,0,1-2.1783,1.3418C156.8989,452.2275,155.9639,451.0723,155.9639,449.2568Z"/><path d="M163.1689,452.0957a.8668.8668,0,0,1-.935-.9355v-3.9717h-.9356v-.77h.5284c.374,0,.4951-.1328.4951-.5175v-1.0557h.792v1.5732h1.2431v.77h-1.2431v4.1367h1.1552v.7705Z"/><path d="M74.3994,320.5854l-1.1157,1.3194v2.4707h-1.583v-8.3716h1.583v4.126h.06l1.1874-1.5713,2.0748-2.5547h1.8232l-2.9146,3.49,3.1543,4.8814H76.7861Z"/><path d="M79.021,321.2334c0-1.979,1.0674-3.2622,2.9023-3.2622,1.9551,0,2.8545,1.439,2.8545,3.1543v.5034H80.6162v.1563a1.39,1.39,0,0,0,1.523,1.5107,1.9,1.9,0,0,0,1.5952-.8516l.8276.9239a3.0988,3.0988,0,0,1-2.5908,1.1513C80.1245,324.52,79.021,323.2363,79.021,321.2334Zm1.5952-.648v.0962h2.5664v-.1079c0-.8637-.4438-1.4511-1.2353-1.4511A1.3287,1.3287,0,0,0,80.6162,320.5854Z"/><path d="M89.9028,318.1147h1.439l-2.5186,7.376a1.6177,1.6177,0,0,1-1.7871,1.2837h-.9233v-1.2236H87.24l.2876-.8755-2.2426-6.5606h1.5234L87.9,321.4253l.4077,1.583h.0718l.4316-1.583Z"/><path d="M95.28,324.3755v-8.3716h3.7661a2.593,2.593,0,0,1,0,5.1812H96.8633v3.19Zm1.583-4.5576h2.039a.8805.8805,0,0,0,.9834-.9473v-.5518a.872.872,0,0,0-.9834-.9355h-2.039Z"/><path d="M102.7568,324.3755v-6.2608h1.5352V319.41h.06a1.6059,1.6059,0,0,1,1.6552-1.2955h.336v1.4512h-.48c-1.0313,0-1.5708.2881-1.5708.9717v3.8379Z"/><path d="M106.9927,321.2334c0-2.0029,1.1152-3.2622,2.9023-3.2622,1.7988,0,2.9146,1.2593,2.9146,3.2622,0,2.0146-1.1158,3.2861-2.9146,3.2861C108.1079,324.52,106.9927,323.248,106.9927,321.2334Zm4.2094.5874v-1.1631c0-.9355-.5034-1.4512-1.3071-1.4512-.7915,0-1.2954.5157-1.2954,1.4512v1.1631c0,.9478.5039,1.4634,1.2954,1.4634C110.6987,323.2842,111.2021,322.7686,111.2021,321.8208Z"/><path d="M116.0752,324.3755a1.4489,1.4489,0,0,1-1.6191-1.5952v-3.4541h-.9234v-1.2115h.48c.4556,0,.6-.2158.6-.6474V316.4h1.3789v1.7148h1.2837v1.2115h-1.2837v3.8261h1.1875v1.2232Z"/><path d="M118.1406,321.2334c0-1.979,1.0674-3.2622,2.9024-3.2622,1.955,0,2.8545,1.439,2.8545,3.1543v.5034h-4.1617v.1563a1.39,1.39,0,0,0,1.523,1.5107,1.9,1.9,0,0,0,1.5952-.8516l.8276.9239a3.0988,3.0988,0,0,1-2.5908,1.1513C119.2441,324.52,118.1406,323.2363,118.1406,321.2334Zm1.5952-.648v.0962h2.5664v-.1079c0-.8637-.4438-1.4511-1.2353-1.4511A1.329,1.329,0,0,0,119.7358,320.5854Z"/><path d="M124.8364,321.2334c0-2.0029,1.0435-3.2622,2.89-3.2622a2.42,2.42,0,0,1,2.4589,1.583l-1.2592.5635a1.1694,1.1694,0,0,0-1.2-.9112c-.8511,0-1.2832.6-1.2832,1.4751v1.1392c0,.8755.4321,1.4634,1.2832,1.4634a1.3385,1.3385,0,0,0,1.3193-.9834l1.1758.5635a2.4469,2.4469,0,0,1-2.4951,1.6552C125.88,324.52,124.8364,323.248,124.8364,321.2334Z"/><path d="M133.3667,324.3755a1.4489,1.4489,0,0,1-1.6191-1.5952v-3.4541h-.9234v-1.2115h.48c.4556,0,.6-.2158.6-.6474V316.4h1.3789v1.7148h1.2837v1.2115h-1.2837v3.8261H134.47v1.2232Z"/><path d="M597.7812,221.896v-7.6792h4.6876v.8144h-3.7627v2.398h3.5419v.8145h-3.5419v2.8383h3.7627v.814Z"/><path d="M604.1064,221.896v-5.6768h.8809v.9244h.0439a1.6088,1.6088,0,0,1,1.6055-1.0567c1.167,0,1.9033.7925,1.9033,2.1675v3.6416h-.88v-3.4873c0-1.0122-.4405-1.5293-1.2872-1.5293-.7041,0-1.3857.352-1.3857,1.0781v3.9385Z"/><path d="M609.9365,219.0576c0-1.8154.9346-2.9707,2.53-2.9707a2.1273,2.1273,0,0,1,2.123,1.3316l-.7373.374a1.3669,1.3669,0,0,0-1.3857-.9243,1.5245,1.5245,0,0,0-1.584,1.7055v.9678a1.5245,1.5245,0,0,0,1.584,1.7056,1.6022,1.6022,0,0,0,1.54-.99l.6377.4292a2.2367,2.2367,0,0,1-2.1777,1.3418C610.8711,222.0278,609.9365,220.873,609.9365,219.0576Z"/><path d="M615.8877,221.896v-5.6768h.88v1.045h.0547a1.6318,1.6318,0,0,1,1.64-1.045h.3408v.88h-.5166c-.9463,0-1.5185.4072-1.5185.9463v3.8506Z"/><path d="M623.5322,216.2192h.8692l-2.541,6.9971c-.253.6821-.4844.88-1.32.88h-.4511v-.77h.8916l.4287-1.21-2.1231-5.897h.88l1.3643,3.8614.2636.9243h.0557l.3076-.9243Z"/><path d="M625.5234,216.2192h.88v.9244h.044a1.6577,1.6577,0,0,1,1.6611-1.0567c1.42,0,2.3105,1.1553,2.3105,2.9707s-.8906,2.97-2.3105,2.97a1.7108,1.7108,0,0,1-1.6611-1.0561h-.044v3.1245h-.88Zm3.9493,3.3223v-.9678a1.5493,1.5493,0,0,0-1.6065-1.6943c-.8027,0-1.4629.4619-1.4629,1.0889v2.1123c0,.7373.66,1.1552,1.4629,1.1552A1.5493,1.5493,0,0,0,629.4727,219.5415Z"/><path d="M633.0918,221.896a.8669.8669,0,0,1-.9356-.9351v-3.9716h-.9355v-.77h.5283c.374,0,.4951-.1323.4951-.5171V214.646h.792v1.5732h1.2432v.77h-1.2432v4.1367h1.1553v.77Z"/><path d="M635.2363,219.0576c0-1.8042,1.0117-2.9707,2.5518-2.9707a2.4864,2.4864,0,0,1,2.4541,2.7725v.4184H636.16v.2637a1.6077,1.6077,0,0,0,1.6836,1.7163,1.6444,1.6444,0,0,0,1.5615-.979l.6279.4512a2.3831,2.3831,0,0,1-2.2451,1.2978C636.248,222.0278,635.2363,220.8618,635.2363,219.0576Zm.9239-.5171v.0772h3.1357v-.1211a1.51,1.51,0,0,0-1.5078-1.6724A1.6134,1.6134,0,0,0,636.16,218.5405Z"/><path d="M645.3232,220.9717h-.0439a1.7109,1.7109,0,0,1-1.6611,1.0561c-1.419,0-2.31-1.1548-2.31-2.97s.8906-2.9707,2.31-2.9707a1.6579,1.6579,0,0,1,1.6611,1.0567h.0439v-3.3887h.8809v8.1411h-.8809Zm0-.8911v-2.1123c0-.627-.6591-1.0889-1.4628-1.0889a1.5492,1.5492,0,0,0-1.6065,1.6943v.9678a1.5492,1.5492,0,0,0,1.6065,1.6943C644.6641,221.2358,645.3232,220.8179,645.3232,220.0806Z"/><path d="M615.52,234.1719h-.0439a1.7109,1.7109,0,0,1-1.6611,1.0561c-1.419,0-2.3106-1.1548-2.3106-2.97s.8916-2.9707,2.3106-2.9707a1.6579,1.6579,0,0,1,1.6611,1.0567h.0439v-3.3887h.88v8.1411h-.88Zm0-.8911v-2.1123c0-.627-.66-1.0889-1.4629-1.0889a1.5492,1.5492,0,0,0-1.6064,1.6943v.9678a1.5492,1.5492,0,0,0,1.6064,1.6943C614.8594,234.436,615.52,234.0181,615.52,233.2808Z"/><path d="M622.3945,235.0962a.9173.9173,0,0,1-.98-.9243H621.36a1.603,1.603,0,0,1-1.64,1.0561,1.674,1.674,0,0,1-1.9033-1.7163c0-1.0669.77-1.6611,2.4209-1.6611H621.36v-.561c0-.8033-.4405-1.2432-1.3418-1.2432a1.5839,1.5839,0,0,0-1.4415.8472l-.5283-.4952a2.158,2.158,0,0,1,2.0137-1.1113c1.3643,0,2.1777.7153,2.1777,1.9146v3.1245h.6494v.77Zm-1.0341-1.65v-.9351h-1.1661c-1.0009,0-1.4521.3081-1.4521.8584v.231c0,.561.4394.88,1.1221.88C620.7334,234.48,621.36,234.0288,621.36,233.4458Z"/><path d="M625.3975,235.0962a.8669.8669,0,0,1-.9356-.9351V230.19h-.9355v-.77h.5283c.374,0,.4951-.1323.4951-.5171v-1.0561h.792v1.5732h1.2432v.77h-1.2432v4.1367h1.1553v.77Z"/><path d="M632.1289,235.0962a.9164.9164,0,0,1-.9785-.9243h-.0557a1.6017,1.6017,0,0,1-1.6386,1.0561,1.6741,1.6741,0,0,1-1.9034-1.7163c0-1.0669.7705-1.6611,2.42-1.6611h1.122v-.561c0-.8033-.4394-1.2432-1.3418-1.2432a1.586,1.586,0,0,0-1.4414.8472l-.5273-.4952a2.1562,2.1562,0,0,1,2.0127-1.1113c1.3642,0,2.1787.7153,2.1787,1.9146v3.1245h.6484v.77Zm-1.0342-1.65v-.9351h-1.166c-1.001,0-1.4521.3081-1.4521.8584v.231c0,.561.44.88,1.122.88C630.4678,234.48,631.0947,234.0288,631.0947,233.4458Z"/><path d="M457.1123,438.8965l-.7705-2.2666H453.24l-.7705,2.2666h-.9355l2.6846-7.68h1.1777l2.6836,7.68Zm-2.2988-6.8213h-.0557l-1.2978,3.74h2.6513Z"/><path d="M459.3555,438.8965v-7.68h4.6865v.8144h-3.7627V434.43h3.543v.8144h-3.543v2.8379h3.7627v.8145Z"/><path d="M465.207,437.6855l.6826-.5722a2.4463,2.4463,0,0,0,2.0684,1.1006c1.1,0,1.6943-.5723,1.6943-1.4522,0-.7265-.4072-1.09-1.42-1.32l-.6269-.1426c-1.3965-.3193-2.167-.9355-2.167-2.1133,0-1.3632,1.0342-2.1005,2.541-2.1005a2.8927,2.8927,0,0,1,2.542,1.2539l-.6934.5068a2.1653,2.1653,0,0,0-1.8926-.9473c-.9785,0-1.5839.43-1.5839,1.2549,0,.7256.4726,1.0557,1.4414,1.2764l.6269.1426c1.4961.3418,2.1455,1.0019,2.1455,2.1455,0,1.4082-.99,2.31-2.6406,2.31A3.1815,3.1815,0,0,1,465.207,437.6855Z"/><path d="M442.6357,452.0957a.9161.9161,0,0,1-.9785-.9238h-.0556a1.6021,1.6021,0,0,1-1.6387,1.0566,1.6744,1.6744,0,0,1-1.9033-1.7168c0-1.0664.7705-1.6611,2.42-1.6611h1.1221v-.5615c0-.8028-.44-1.2422-1.3418-1.2422a1.5864,1.5864,0,0,0-1.4414.8467l-.5274-.4952a2.1555,2.1555,0,0,1,2.0127-1.1113c1.3643,0,2.1787.7149,2.1787,1.9141v3.125h.6485v.77Zm-1.0341-1.65v-.9346h-1.1661c-1.0009,0-1.4521.3077-1.4521.8584V450.6c0,.5615.44.8809,1.1221.8809C440.9746,451.4805,441.6016,451.0293,441.6016,450.4453Z"/><path d="M445.3193,452.0957a.86.86,0,0,1-.9345-.9121v-7.2285h.88v7.3711h.836v.77Z"/><path d="M449.4111,454.4287c-1.77,0-2.497-.5068-2.497-1.3975a1.0633,1.0633,0,0,1,.9023-1.1v-.1211a.8227.8227,0,0,1-.5059-.7929c0-.5723.4073-.8467.9786-.99v-.0429a1.8467,1.8467,0,0,1-1.0664-1.7383,1.9448,1.9448,0,0,1,2.1337-1.959,2.539,2.539,0,0,1,1.0782.2207v-.1c0-.4394.1875-.7588.66-.7588h.8477v.77h-1.0781v.3623a1.8906,1.8906,0,0,1,.6484,1.4639,1.949,1.949,0,0,1-2.1455,1.958,2.8969,2.8969,0,0,1-.55-.0557c-.374.1-.7481.2871-.7481.6387,0,.3408.3526.4287.8692.4287h1.21c1.4082,0,2.0137.5723,2.0137,1.5069C452.1621,453.89,451.2383,454.4287,449.4111,454.4287Zm.7491-2.3877h-1.8926a.7923.7923,0,0,0-.5283.7705c0,.4951.3408.9014,1.2324.9014h.8135c.9794,0,1.5517-.3076,1.5517-.9238C451.3369,452.3379,451.04,452.041,450.16,452.041Zm.4287-3.6416v-.3076c0-.748-.4737-1.1006-1.2217-1.1006s-1.2207.3526-1.2207,1.1006v.3076c0,.749.4726,1.1006,1.2207,1.1006S450.5889,449.1484,450.5889,448.3994Z"/><path d="M452.7,449.2578c0-1.8047,1.0449-2.9707,2.5635-2.9707s2.5634,1.166,2.5634,2.9707-1.0449,2.9707-2.5634,2.9707S452.7,451.0625,452.7,449.2578Zm4.1807.4072v-.8144a1.6248,1.6248,0,1,0-3.2344,0v.8144a1.6248,1.6248,0,1,0,3.2344,0Z"/><path d="M459.2783,452.0957V446.42h.8809v1.0449h.0547a1.63,1.63,0,0,1,1.6386-1.0449h.3418v.8789h-.5175c-.9463,0-1.5176.4082-1.5176.9473v3.85Z"/><path d="M463.2158,444.5938V444.45c0-.2979.1651-.4951.5391-.4951s.539.1972.539.4951v.1436c0,.2968-.165.4941-.539.4941S463.2158,444.8906,463.2158,444.5938Zm.1,1.8261h.88v5.6758h-.88Z"/><path d="M467.3193,452.0957a.8657.8657,0,0,1-.9345-.9346V447.19h-.9356v-.77h.5283c.3741,0,.4952-.1328.4952-.5176v-1.0566h.7919V446.42h1.2432v.77h-1.2432v4.1367H468.42v.77Z"/><path d="M469.9258,443.9551h.8808v3.3887h.044a1.6081,1.6081,0,0,1,1.6055-1.0567c1.1669,0,1.9033.793,1.9033,2.168v3.6406h-.88v-3.4863c0-1.0127-.44-1.5293-1.2871-1.5293-.7041,0-1.3858.3515-1.3858,1.0781v3.9375h-.8808Z"/><path d="M476.1738,452.0957V446.42h.8809v.9239h.0439a1.5265,1.5265,0,0,1,1.5293-1.0567,1.7486,1.7486,0,0,1,1.7383,1.1553h.0215a1.7024,1.7024,0,0,1,1.7275-1.1553c1.1553,0,1.8477.793,1.8477,2.168v3.6406h-.88v-3.4863c0-1.002-.3848-1.5293-1.2432-1.5293-.6933,0-1.331.3515-1.331,1.0781v3.9375h-.88v-3.4863c0-1.0127-.3857-1.5293-1.2217-1.5293-.6924,0-1.3525.3515-1.3525,1.0781v3.9375Z"/><path d="M253.4058,214.2168h2.5747c1.914,0,3.1465,1.2764,3.1465,3.84s-1.2325,3.8394-3.1465,3.8394h-2.5747Zm2.5747,6.8652a2.1345,2.1345,0,0,0,2.1562-2.3984v-1.2544a2.1341,2.1341,0,0,0-2.1562-2.398h-1.65v6.0508Z"/><path d="M264.8242,221.896a.9168.9168,0,0,1-.979-.9243H263.79a1.6022,1.6022,0,0,1-1.6391,1.0561,1.674,1.674,0,0,1-1.9033-1.7163c0-1.0669.7705-1.6611,2.42-1.6611h1.122v-.561c0-.8033-.44-1.2432-1.3418-1.2432a1.5849,1.5849,0,0,0-1.4414.8472l-.5278-.4952a2.1572,2.1572,0,0,1,2.0132-1.1113c1.3642,0,2.1782.7153,2.1782,1.9146v3.1245h.6489v.77Zm-1.0342-1.65v-.9351h-1.166c-1.001,0-1.4521.3082-1.4521.8584v.231c0,.561.44.88,1.122.88C263.1631,221.28,263.79,220.8286,263.79,220.2456Z"/><path d="M267.8271,221.896a.8665.8665,0,0,1-.935-.9351v-3.9716h-.9356v-.77h.5284c.374,0,.4951-.1323.4951-.5171V214.646h.792v1.5732h1.2431v.77H267.772v4.1367h1.1552v.77Z"/><path d="M274.5591,221.896a.9168.9168,0,0,1-.979-.9243h-.0552a1.6023,1.6023,0,0,1-1.6392,1.0561,1.674,1.674,0,0,1-1.9033-1.7163c0-1.0669.7705-1.6611,2.42-1.6611h1.1221v-.561c0-.8033-.44-1.2432-1.3418-1.2432a1.5849,1.5849,0,0,0-1.4414.8472l-.5278-.4952a2.1571,2.1571,0,0,1,2.0132-1.1113c1.3642,0,2.1782.7153,2.1782,1.9146v3.1245h.6489v.77Zm-1.0342-1.65v-.9351h-1.166c-1.001,0-1.4522.3082-1.4522.8584v.231c0,.561.44.88,1.1221.88C272.8979,221.28,273.5249,220.8286,273.5249,220.2456Z"/><path d="M278.4858,219.0576c0-1.8042,1.0122-2.9707,2.5523-2.9707a2.486,2.486,0,0,1,2.4536,2.7725v.4184H279.41v.2637a1.6075,1.6075,0,0,0,1.6831,1.7163,1.645,1.645,0,0,0,1.562-.979l.6274.4512a2.3823,2.3823,0,0,1-2.2446,1.2978C279.498,222.0278,278.4858,220.8618,278.4858,219.0576Zm.9244-.5171v.0772h3.1352v-.1211a1.51,1.51,0,0,0-1.5073-1.6724A1.6134,1.6134,0,0,0,279.41,218.5405Z"/><path d="M284.9424,221.896v-5.6768h.88v.9244h.0439a1.6093,1.6093,0,0,1,1.606-1.0567c1.1665,0,1.9033.7925,1.9033,2.1675v3.6416h-.88v-3.4873c0-1.0122-.44-1.5293-1.2871-1.5293-.7041,0-1.3862.352-1.3862,1.0781v3.9385Z"/><path d="M290.7725,219.0576c0-1.8154.935-2.9707,2.53-2.9707a2.1282,2.1282,0,0,1,2.1236,1.3316l-.7373.374a1.3677,1.3677,0,0,0-1.3863-.9243,1.5244,1.5244,0,0,0-1.5839,1.7055v.9678a1.5245,1.5245,0,0,0,1.5839,1.7056,1.6029,1.6029,0,0,0,1.5406-.99l.6377.4292a2.2379,2.2379,0,0,1-2.1783,1.3418C291.7075,222.0278,290.7725,220.873,290.7725,219.0576Z"/><path d="M296.7231,221.896v-5.6768h.88v1.045h.0547a1.6311,1.6311,0,0,1,1.6392-1.045h.3413v.88h-.5171c-.9463,0-1.5181.4072-1.5181.9463v3.8506Z"/><path d="M304.3687,216.2192h.8691l-2.5415,6.9971c-.2529.6821-.4839.88-1.32.88h-.4512v-.77h.8911l.4292-1.21-2.1235-5.897h.88l1.3638,3.8614.2642.9243h.0551l.3082-.9243Z"/><path d="M306.3589,216.2192h.88v.9244h.0439a1.6579,1.6579,0,0,1,1.6611-1.0567c1.42,0,2.3106,1.1553,2.3106,2.9707s-.8911,2.97-2.3106,2.97a1.7109,1.7109,0,0,1-1.6611-1.0561h-.0439v3.1245h-.88Zm3.95,3.3223v-.9678a1.5492,1.5492,0,0,0-1.6065-1.6943c-.8027,0-1.4628.4619-1.4628,1.0889v2.1123c0,.7373.66,1.1552,1.4628,1.1552A1.5492,1.5492,0,0,0,310.3086,219.5415Z"/><path d="M313.9272,221.896a.8667.8667,0,0,1-.935-.9351v-3.9716h-.9356v-.77h.5284c.374,0,.4951-.1323.4951-.5171V214.646h.792v1.5732h1.2431v.77h-1.2431v4.1367h1.1552v.77Z"/><path d="M316.4351,214.3931V214.25c0-.2974.165-.4951.539-.4951s.5391.1977.5391.4951v.1431c0,.2968-.1651.4951-.5391.4951S316.4351,214.69,316.4351,214.3931Zm.0991,1.8261h.88v5.6768h-.88Z"/><path d="M318.8662,219.0576c0-1.8042,1.0449-2.9707,2.5635-2.9707s2.5635,1.1665,2.5635,2.9707-1.0454,2.97-2.5635,2.97S318.8662,220.8618,318.8662,219.0576Zm4.1807.4072V218.65a1.6248,1.6248,0,1,0-3.2344,0v.8144a1.6248,1.6248,0,1,0,3.2344,0Z"/><path d="M325.4438,221.896v-5.6768h.88v.9244h.044a1.6093,1.6093,0,0,1,1.6059-1.0567c1.1665,0,1.9033.7925,1.9033,2.1675v3.6416h-.88v-3.4873c0-1.0122-.44-1.5293-1.2872-1.5293-.7041,0-1.3862.352-1.3862,1.0781v3.9385Z"/><path d="M269.8394,226.9551h.88v5.16h.044l.8691-.9682,1.606-1.7271h1.0674l-2.1016,2.2442,2.31,3.4326h-1.0673l-1.8809-2.8936-.8472.8692v2.0244h-.88Z"/><path d="M275.0312,232.2578c0-1.8042,1.0123-2.9707,2.5523-2.9707a2.4859,2.4859,0,0,1,2.4536,2.7725v.4184h-4.0815v.2637a1.6075,1.6075,0,0,0,1.6831,1.7163,1.645,1.645,0,0,0,1.562-.979l.6274.4512a2.3823,2.3823,0,0,1-2.2446,1.2978C276.0435,235.228,275.0312,234.062,275.0312,232.2578Zm.9244-.5171v.0772h3.1352v-.1211a1.51,1.51,0,0,0-1.5073-1.6724A1.6134,1.6134,0,0,0,275.9556,231.7407Z"/><path d="M284.9321,229.4194h.8692l-2.5415,6.9971c-.253.6821-.4839.88-1.32.88h-.4511v-.77h.8911l.4292-1.21-2.1236-5.897h.88l1.3638,3.8614.2641.9243h.0552l.3081-.9243Z"/><path d="M291.4873,226.7349h.8364a6.4123,6.4123,0,0,0-2.0024,4.4668v.9462a6.4428,6.4428,0,0,0,2.0024,4.4556h-.8364a7.1093,7.1093,0,0,1,0-9.8686Z"/><path d="M293.291,227.417h2.5747c1.9141,0,3.1465,1.2764,3.1465,3.84s-1.2324,3.8394-3.1465,3.8394H293.291Zm2.5747,6.8652a2.1345,2.1345,0,0,0,2.1563-2.3984v-1.2544a2.1342,2.1342,0,0,0-2.1563-2.398h-1.65v6.0508Z"/><path d="M300.6719,235.0962V227.417h4.687v.8144h-3.7627v2.398h3.5425v.8144h-3.5425v2.8384h3.7627v.814Z"/><path d="M309.0986,231.3228l-1.0893,1.21v2.5635h-.9243V227.417h.9243v4.0815h.0332l1.1-1.331,2.3213-2.75h1.1333l-2.8609,3.29,3.0586,4.39h-1.144Z"/><path d="M313.9268,236.6035H313.09a6.4424,6.4424,0,0,0,2.0025-4.4556v-.9462a6.4125,6.4125,0,0,0-2.0025-4.4668h.8365a7.1093,7.1093,0,0,1,0,9.8686Z"/><path d="M106.1958,214.2168V218.97c0,1.4629.4731,2.2334,1.8374,2.2334s1.8374-.77,1.8374-2.2334v-4.7529h.9238V218.75c0,2.2334-.748,3.2783-2.7939,3.2783s-2.7285-1.0449-2.7285-3.2783v-4.5327Z"/><path d="M112.6968,221.896v-5.6768h.88v.9244h.044a1.6093,1.6093,0,0,1,1.606-1.0567c1.1665,0,1.9033.7925,1.9033,2.1675v3.6416h-.88v-3.4873c0-1.0122-.44-1.5293-1.2871-1.5293-.7041,0-1.3863.352-1.3863,1.0781v3.9385Z"/><path d="M118.5269,219.0576c0-1.8042,1.0122-2.9707,2.5522-2.9707a2.4859,2.4859,0,0,1,2.4536,2.7725v.4184h-4.0815v.2637a1.6075,1.6075,0,0,0,1.6831,1.7163,1.645,1.645,0,0,0,1.562-.979l.6274.4512a2.3823,2.3823,0,0,1-2.2446,1.2978C119.5391,222.0278,118.5269,220.8618,118.5269,219.0576Zm.9243-.5171v.0772h3.1352v-.1211a1.51,1.51,0,0,0-1.5073-1.6724A1.6134,1.6134,0,0,0,119.4512,218.5405Z"/><path d="M124.9834,221.896v-5.6768h.88v.9244h.0439a1.6093,1.6093,0,0,1,1.606-1.0567c1.1665,0,1.9033.7925,1.9033,2.1675v3.6416h-.88v-3.4873c0-1.0122-.44-1.5293-1.2871-1.5293-.7041,0-1.3862.352-1.3862,1.0781v3.9385Z"/><path d="M130.8135,219.0576c0-1.8154.935-2.9707,2.53-2.9707a2.1281,2.1281,0,0,1,2.1235,1.3316l-.7373.374a1.3677,1.3677,0,0,0-1.3862-.9243,1.5244,1.5244,0,0,0-1.584,1.7055v.9678a1.5245,1.5245,0,0,0,1.584,1.7056,1.6029,1.6029,0,0,0,1.5405-.99l.6377.4292a2.2378,2.2378,0,0,1-2.1782,1.3418C131.7485,222.0278,130.8135,220.873,130.8135,219.0576Z"/><path d="M136.7646,221.896v-5.6768h.88v1.045H137.7a1.6311,1.6311,0,0,1,1.6392-1.045h.3413v.88h-.5171c-.9463,0-1.5181.4072-1.5181.9463v3.8506Z"/><path d="M144.41,216.2192h.8691l-2.5415,6.9971c-.2529.6821-.4839.88-1.32.88h-.4512v-.77h.8911l.4292-1.21-2.1235-5.897h.88l1.3637,3.8614.2642.9243h.0552l.3081-.9243Z"/><path d="M146.4,216.2192h.88v.9244h.0439a1.6579,1.6579,0,0,1,1.6611-1.0567c1.4195,0,2.3106,1.1553,2.3106,2.9707s-.8911,2.97-2.3106,2.97a1.7109,1.7109,0,0,1-1.6611-1.0561h-.0439v3.1245h-.88Zm3.95,3.3223v-.9678a1.5492,1.5492,0,0,0-1.6064-1.6943c-.8028,0-1.4629.4619-1.4629,1.0889v2.1123c0,.7373.66,1.1552,1.4629,1.1552A1.5492,1.5492,0,0,0,150.35,219.5415Z"/><path d="M153.9683,221.896a.8665.8665,0,0,1-.9351-.9351v-3.9716h-.9355v-.77h.5283c.374,0,.4951-.1323.4951-.5171V214.646h.792v1.5732h1.2431v.77h-1.2431v4.1367h1.1553v.77Z"/><path d="M156.1133,219.0576c0-1.8042,1.0122-2.9707,2.5522-2.9707a2.4859,2.4859,0,0,1,2.4536,2.7725v.4184h-4.0815v.2637a1.6076,1.6076,0,0,0,1.6831,1.7163,1.645,1.645,0,0,0,1.562-.979l.6275.4512a2.3825,2.3825,0,0,1-2.2447,1.2978C157.1255,222.0278,156.1133,220.8618,156.1133,219.0576Zm.9243-.5171v.0772h3.1353v-.1211a1.51,1.51,0,0,0-1.5074-1.6724A1.6134,1.6134,0,0,0,157.0376,218.5405Z"/><path d="M166.2,220.9717h-.044a1.7108,1.7108,0,0,1-1.6611,1.0561c-1.4189,0-2.31-1.1548-2.31-2.97s.8911-2.9707,2.31-2.9707a1.6577,1.6577,0,0,1,1.6611,1.0567h.044v-3.3887h.88v8.1411h-.88Zm0-.8911v-2.1123c0-.627-.66-1.0889-1.4629-1.0889a1.5492,1.5492,0,0,0-1.6064,1.6943v.9678a1.5492,1.5492,0,0,0,1.6064,1.6943C165.5405,221.2358,166.2,220.8179,166.2,220.0806Z"/><path d="M131.0283,234.1719h-.0439a1.7109,1.7109,0,0,1-1.6612,1.0561c-1.4189,0-2.31-1.1548-2.31-2.97s.8911-2.9707,2.31-2.9707a1.6579,1.6579,0,0,1,1.6612,1.0567h.0439v-3.3887h.88v8.1411h-.88Zm0-.8911v-2.1123c0-.627-.66-1.0889-1.4629-1.0889a1.5492,1.5492,0,0,0-1.6064,1.6943v.9678a1.5492,1.5492,0,0,0,1.6064,1.6943C130.3687,234.436,131.0283,234.0181,131.0283,233.2808Z"/><path d="M137.9033,235.0962a.9168.9168,0,0,1-.979-.9243h-.0552a1.6022,1.6022,0,0,1-1.6391,1.0561,1.674,1.674,0,0,1-1.9033-1.7163c0-1.0669.77-1.6611,2.42-1.6611h1.122v-.561c0-.8033-.44-1.2432-1.3418-1.2432a1.5849,1.5849,0,0,0-1.4414.8472l-.5278-.4952a2.1572,2.1572,0,0,1,2.0132-1.1113c1.3642,0,2.1782.7153,2.1782,1.9146v3.1245h.6489v.77Zm-1.0342-1.65v-.9351h-1.166c-1.001,0-1.4521.3081-1.4521.8584v.231c0,.561.44.88,1.122.88C136.2422,234.48,136.8691,234.0288,136.8691,233.4458Z"/><path d="M140.9062,235.0962a.8667.8667,0,0,1-.935-.9351V230.19h-.9356v-.77h.5284c.374,0,.4951-.1323.4951-.5171v-1.0561h.792v1.5732h1.2431v.77h-1.2431v4.1367h1.1552v.77Z"/><path d="M147.6382,235.0962a.9168.9168,0,0,1-.979-.9243h-.0552a1.6023,1.6023,0,0,1-1.6392,1.0561,1.674,1.674,0,0,1-1.9033-1.7163c0-1.0669.77-1.6611,2.42-1.6611h1.1221v-.561c0-.8033-.44-1.2432-1.3418-1.2432a1.5849,1.5849,0,0,0-1.4414.8472l-.5278-.4952a2.1571,2.1571,0,0,1,2.0132-1.1113c1.3642,0,2.1782.7153,2.1782,1.9146v3.1245h.6489v.77Zm-1.0342-1.65v-.9351h-1.166c-1.001,0-1.4522.3081-1.4522.8584v.231c0,.561.44.88,1.1221.88C145.9771,234.48,146.604,234.0288,146.604,233.4458Z"/><path d="M71.3408,103.25c0-2.8188,1.4033-4.39,3.61-4.39a3.0523,3.0523,0,0,1,3.0581,1.9306l-1.3555.72a1.6566,1.6566,0,0,0-1.7026-1.2475c-1.1758,0-1.9312.8515-1.9312,2.2788v1.3193c0,1.4395.7554,2.2549,1.9312,2.2549a1.86,1.86,0,0,0,1.8105-1.331l1.2837.7553a3.2163,3.2163,0,0,1-3.0942,1.979C72.7441,107.52,71.3408,106.0684,71.3408,103.25Z"/><path d="M80.8442,107.3755a1.3576,1.3576,0,0,1-1.5351-1.5112V98.5005h1.5351v7.6518h.8272v1.2232Z"/><path d="M82.417,104.2334c0-2.0029,1.1152-3.2622,2.9023-3.2622,1.7989,0,2.9146,1.2593,2.9146,3.2622,0,2.0146-1.1157,3.2861-2.9146,3.2861C83.5322,107.52,82.417,106.248,82.417,104.2334Zm4.2095.5874v-1.1631c0-.9355-.5035-1.4512-1.3072-1.4512-.7915,0-1.2954.5157-1.2954,1.4512v1.1631c0,.9478.5039,1.4634,1.2954,1.4634C86.123,106.2842,86.6265,105.7686,86.6265,104.8208Z"/><path d="M93.3345,106.332h-.06a1.6984,1.6984,0,0,1-1.751,1.1875c-1.2832,0-2.0029-.8877-2.0029-2.4467v-3.9581h1.5352v3.8023c0,.8633.3237,1.331,1.0556,1.331.6114,0,1.2232-.3237,1.2232-.9956v-4.1377H94.87v6.2608H93.3345Z"/><path d="M100.5342,106.332h-.06a1.7583,1.7583,0,0,1-1.727,1.1875c-1.5713,0-2.4468-1.1875-2.4468-3.2861,0-2.0869.8755-3.2622,2.4468-3.2622a1.7233,1.7233,0,0,1,1.727,1.1753h.06v-3.646h1.5351v8.875h-1.5351Zm0-1.1035v-1.9907c0-.6118-.564-1.0073-1.2954-1.0073a1.3329,1.3329,0,0,0-1.3311,1.4751v1.08a1.3227,1.3227,0,0,0,1.3311,1.4628C99.97,106.248,100.5342,105.8765,100.5342,105.2285Z"/><path d="M106.4165,103.19c0-2.8305,1.4512-4.3295,3.646-4.3295,2.207,0,3.646,1.499,3.646,4.3295s-1.439,4.33-3.646,4.33C107.8677,107.52,106.4165,106.02,106.4165,103.19Zm5.6128.6475V102.542c0-1.4273-.7676-2.2788-1.9668-2.2788s-1.9668.8515-1.9668,2.2788v1.2954c0,1.4272.7676,2.2788,1.9668,2.2788S112.0293,105.2646,112.0293,103.8374Z"/><path d="M115.2246,98.5005H116.76v3.646h.0478a1.7337,1.7337,0,0,1,1.7271-1.1753c1.583,0,2.4585,1.1753,2.4585,3.2622,0,2.0986-.8755,3.2861-2.4585,3.2861a1.769,1.769,0,0,1-1.7271-1.1875H116.76v1.0435h-1.5352Zm4.1616,6.2847v-1.08a1.3417,1.3417,0,0,0-1.3432-1.4751c-.7315,0-1.2832.3955-1.2832,1.0073v1.9907c0,.648.5517,1.02,1.2832,1.02A1.3316,1.3316,0,0,0,119.3862,104.7852Z"/><path d="M122.4243,101.1147H123.96v7.0162a1.4593,1.4593,0,0,1-1.6553,1.6435h-.8394v-1.2236h.96Zm-.1323-1.6787v-.24c0-.4434.2642-.7676.9-.7676.6235,0,.8994.3242.8994.7676v.24c0,.4434-.2759.7676-.8994.7676C122.5562,100.2036,122.292,99.8794,122.292,99.436Z"/><path d="M125.3164,104.2334c0-1.979,1.0674-3.2622,2.9024-3.2622,1.955,0,2.8544,1.439,2.8544,3.1543v.5034h-4.1616v.1563a1.39,1.39,0,0,0,1.523,1.5107,1.9,1.9,0,0,0,1.5952-.8516l.8276.9239a3.0988,3.0988,0,0,1-2.5908,1.1513C126.42,107.52,125.3164,106.2363,125.3164,104.2334Zm1.5952-.648v.0962h2.5664v-.1079c0-.8637-.4438-1.4511-1.2353-1.4511A1.329,1.329,0,0,0,126.9116,103.5854Z"/><path d="M132.0122,104.2334c0-2.0029,1.0435-3.2622,2.89-3.2622a2.42,2.42,0,0,1,2.459,1.583l-1.2592.5635a1.1694,1.1694,0,0,0-1.2-.9112c-.851,0-1.2832.6-1.2832,1.4751v1.1392c0,.8755.4322,1.4634,1.2832,1.4634a1.3387,1.3387,0,0,0,1.3194-.9834l1.1758.5635a2.4469,2.4469,0,0,1-2.4952,1.6552C133.0557,107.52,132.0122,106.248,132.0122,104.2334Z"/><path d="M140.5425,107.3755a1.449,1.449,0,0,1-1.6192-1.5952v-3.4541H138v-1.2115h.48c.4555,0,.6-.2158.6-.6474V99.4h1.3789v1.7148h1.2837v1.2115h-1.2837v3.8261h1.1875v1.2232Z"/><path d="M145.4878,106.1279l1.0674-1.0312a2.7257,2.7257,0,0,0,2.1469,1.0312c.9712,0,1.4751-.4673,1.4751-1.1753,0-.5634-.2641-.9111-1.14-1.0673l-.7915-.12c-1.6909-.2641-2.5064-1.0674-2.5064-2.4345,0-1.5,1.1631-2.4707,3.0342-2.4707a3.52,3.52,0,0,1,2.8667,1.2353l-1.08,1.019a2.2283,2.2283,0,0,0-1.8711-.8632c-.8994,0-1.3671.36-1.3671.9834,0,.6357.36.8994,1.1635,1.0434l.7793.1441c1.6909.3,2.4829,1.0551,2.4829,2.4345,0,1.583-1.14,2.6626-3.1425,2.6626A3.8846,3.8846,0,0,1,145.4878,106.1279Z"/><path d="M155.146,107.3755a1.4489,1.4489,0,0,1-1.6191-1.5952v-3.4541h-.9234v-1.2115h.48c.4556,0,.6-.2158.6-.6474V99.4h1.3789v1.7148h1.2837v1.2115H155.062v3.8261H156.25v1.2232Z"/><path d="M157.2119,104.2334c0-2.0029,1.1152-3.2622,2.9024-3.2622,1.7988,0,2.9145,1.2593,2.9145,3.2622,0,2.0146-1.1157,3.2861-2.9145,3.2861C158.3271,107.52,157.2119,106.248,157.2119,104.2334Zm4.2095.5874v-1.1631c0-.9355-.5034-1.4512-1.3071-1.4512-.7915,0-1.2955.5157-1.2955,1.4512v1.1631c0,.9478.504,1.4634,1.2955,1.4634C160.918,106.2842,161.4214,105.7686,161.4214,104.8208Z"/><path d="M164.3877,107.3755v-6.2608h1.5352V102.41h.06a1.6061,1.6061,0,0,1,1.6553-1.2955h.3359v1.4512h-.48c-1.0313,0-1.5708.2881-1.5708.9717v3.8379Z"/><path d="M168.5278,105.6724c0-1.2832.9712-1.919,2.6743-1.919H172.27v-.4555c0-.6958-.3476-1.1036-1.1631-1.1036a1.63,1.63,0,0,0-1.4272.7915l-.9116-.8154a2.6361,2.6361,0,0,1,2.4468-1.1992c1.6909,0,2.59.8032,2.59,2.2305v2.9506h.624v1.2232h-.8516a1.1393,1.1393,0,0,1-1.1635-1.08h-.0718a1.6932,1.6932,0,0,1-1.8232,1.2236A1.7748,1.7748,0,0,1,168.5278,105.6724Zm3.7417-.168v-.8276h-.9834c-.8037,0-1.1992.2758-1.1992.7675v.2041c0,.5039.3477.7554.9473.7554C171.7178,106.4038,172.27,106.0923,172.27,105.5044Z"/><path d="M178.0415,109.918c-2.1108,0-2.9141-.5518-2.9141-1.4751a1.1529,1.1529,0,0,1,1.1153-1.1992v-.1319a1.03,1.03,0,0,1-.8037-1.0434c0-.648.5517-.9717,1.1513-1.1036v-.0478a1.89,1.89,0,0,1-1.1391-1.8232c0-1.271.8994-2.1226,2.59-2.1226a3.48,3.48,0,0,1,1.0918.1558v-.2041a.8.8,0,0,1,.8872-.9112h.9717v1.1753h-1.3316v.168a1.8727,1.8727,0,0,1,.9717,1.7388c0,1.2592-.8877,2.0991-2.5908,2.0991a3.8586,3.8586,0,0,1-.96-.1079.6409.6409,0,0,0-.4433.5634c0,.312.2636.4678.8154.4678h1.6792c1.5352,0,2.1948.66,2.1948,1.7871C181.3281,109.21,180.44,109.918,178.0415,109.918Zm.78-2.4707h-2.1348a.7688.7688,0,0,0-.3237.6479c0,.48.36.7676,1.3193.7676h.7676c.9951,0,1.439-.252,1.439-.78C179.8887,107.6875,179.6011,107.4473,178.8213,107.4473Zm.3476-4.2574v-.2041c0-.6357-.3955-.9594-1.1274-.9594s-1.1269.3237-1.1269.9594v.2041c0,.6236.3955.96,1.1269.96S179.1689,103.8135,179.1689,103.19Z"/><path d="M181.7275,104.2334c0-1.979,1.0674-3.2622,2.9024-3.2622,1.9551,0,2.8545,1.439,2.8545,3.1543v.5034h-4.1616v.1563a1.39,1.39,0,0,0,1.5229,1.5107,1.9,1.9,0,0,0,1.5952-.8516l.8277.9239a3.0991,3.0991,0,0,1-2.5909,1.1513C182.8311,107.52,181.7275,106.2363,181.7275,104.2334Zm1.5953-.648v.0962h2.5664v-.1079c0-.8637-.4439-1.4511-1.2354-1.4511A1.3289,1.3289,0,0,0,183.3228,103.5854Z"/><path class="cls-36" d="M50.2324,63V51.8276h7.603v2.1607h-5.17v2.2729h4.4336v2.145H52.6655v2.4332h5.17V63Z"/><path class="cls-36" d="M59.8164,63V54.5967h2.3691V56.021h.0957a2.2916,2.2916,0,0,1,2.337-1.6167c1.7129,0,2.625,1.2168,2.625,3.33V63H64.8745V57.9258c0-1.0723-.3042-1.6006-1.1684-1.6006-.7686,0-1.5206.4-1.5206,1.2324V63Z"/><path class="cls-36" d="M71.0171,63l-2.7529-8.4033h2.3369l1.04,3.393.7842,3.0415h.1279l.7847-3.0415,1.0083-3.393h2.2407L73.8345,63Z"/><path class="cls-36" d="M77.1758,58.7905c0-2.6572,1.4087-4.3862,3.9375-4.3862,2.7851,0,3.9057,2.0171,3.9057,4.29v.7041H79.625v.128a1.6509,1.6509,0,0,0,1.8564,1.809,2.6636,2.6636,0,0,0,2.065-1.0083l1.1846,1.4722A4.5536,4.5536,0,0,1,81.21,63.1919C78.6323,63.1919,77.1758,61.48,77.1758,58.7905Zm2.4492-.9126v.128H82.57v-.1441c0-1.0244-.4638-1.7124-1.4082-1.7124A1.5362,1.5362,0,0,0,79.625,57.8779Z"/><path class="cls-36" d="M89.0493,63a2.0586,2.0586,0,0,1-2.353-2.3047v-9.54h2.3691V61.1592h1.0562V63Z"/><path class="cls-36" d="M91.0156,58.7905c0-2.7055,1.4727-4.3862,3.9375-4.3862s3.9375,1.6807,3.9375,4.3862-1.4721,4.4014-3.9375,4.4014S91.0156,61.4956,91.0156,58.7905Zm5.41.8643V57.9419c0-1.0562-.544-1.6646-1.4727-1.6646s-1.4726.6084-1.4726,1.6646v1.7129c0,1.0561.5444,1.6645,1.4726,1.6645S96.4258,60.7109,96.4258,59.6548Z"/><path class="cls-36" d="M100.5684,54.5967h2.3691v1.4087h.08a2.2761,2.2761,0,0,1,2.2573-1.6011c2.1289,0,3.2329,1.5366,3.2329,4.3862s-1.104,4.4014-3.2329,4.4014a2.2945,2.2945,0,0,1-2.2573-1.6006h-.08v4.61h-2.3691Zm5.4741,4.93V58.07a1.5792,1.5792,0,0,0-1.5528-1.7446c-.8959,0-1.5522.4644-1.5522,1.2324v2.481c0,.7685.6563,1.2329,1.5522,1.2329A1.5794,1.5794,0,0,0,106.0425,59.5264Z"/><path class="cls-36" d="M109.7676,58.7905c0-2.6572,1.4087-4.3862,3.9375-4.3862,2.7851,0,3.9057,2.0171,3.9057,4.29v.7041h-5.394v.128a1.6509,1.6509,0,0,0,1.8564,1.809,2.6636,2.6636,0,0,0,2.065-1.0083l1.1846,1.4722a4.5536,4.5536,0,0,1-3.5215,1.3926C111.2241,63.1919,109.7676,61.48,109.7676,58.7905Zm2.4492-.9126v.128h2.9448v-.1441c0-1.0244-.4638-1.7124-1.4082-1.7124A1.5362,1.5362,0,0,0,112.2168,57.8779Z"/><path class="cls-36" d="M122.5352,58.7905c0-2.6572,1.4086-4.3862,3.9375-4.3862,2.7851,0,3.9057,2.0171,3.9057,4.29v.7041h-5.394v.128a1.6509,1.6509,0,0,0,1.8564,1.809,2.6638,2.6638,0,0,0,2.065-1.0083l1.1845,1.4722a4.5533,4.5533,0,0,1-3.5215,1.3926C123.9917,63.1919,122.5352,61.48,122.5352,58.7905Zm2.4492-.9126v.128h2.9448v-.1441c0-1.0244-.4639-1.7124-1.4082-1.7124A1.5362,1.5362,0,0,0,124.9844,57.8779Z"/><path class="cls-36" d="M132.0557,63V54.5967h2.3691V56.021h.0957a2.2915,2.2915,0,0,1,2.3369-1.6167c1.7129,0,2.625,1.2168,2.625,3.33V63h-2.3686V57.9258c0-1.0723-.3042-1.6006-1.1685-1.6006-.7685,0-1.52.4-1.52,1.2324V63Z"/><path class="cls-36" d="M141.0635,58.7905c0-2.6894,1.3926-4.3862,3.9219-4.3862a3.3027,3.3027,0,0,1,3.3613,2.1934l-1.9209.832a1.3916,1.3916,0,0,0-1.44-1.1524c-.96,0-1.4571.688-1.4571,1.7447v1.5688c0,1.0562.4966,1.7446,1.4571,1.7446a1.58,1.58,0,0,0,1.5683-1.2646l1.8408.8a3.2919,3.2919,0,0,1-3.4091,2.3208C142.4561,63.1919,141.0635,61.48,141.0635,58.7905Z"/><path class="cls-36" d="M149.8633,63V54.5967h2.3691v1.8247h.08a2.1075,2.1075,0,0,1,2.145-1.8247h.416v2.209h-.5918c-1.3769,0-2.0488.3037-2.0488,1.28V63Z"/><path class="cls-36" d="M161.5776,54.5967h2.2085l-3.2329,9.7a2.3923,2.3923,0,0,1-2.5771,1.9048h-1.4727V64.36h1.5845l.2881-.9283-2.9448-8.8354h2.353l1.2324,3.9214.6079,2.4331h.0962l.6245-2.4331Z"/><path class="cls-36" d="M164.9834,54.5967h2.3691v1.4087h.08a2.2763,2.2763,0,0,1,2.2574-1.6011c2.1289,0,3.2329,1.5366,3.2329,4.3862s-1.104,4.4014-3.2329,4.4014a2.2947,2.2947,0,0,1-2.2574-1.6006h-.08v4.61h-2.3691Zm5.4741,4.93V58.07a1.5792,1.5792,0,0,0-1.5527-1.7446c-.896,0-1.5523.4644-1.5523,1.2324v2.481c0,.7685.6563,1.2329,1.5523,1.2329A1.5793,1.5793,0,0,0,170.4575,59.5264Z"/><path class="cls-36" d="M177.5605,63a2.2121,2.2121,0,0,1-2.497-2.4492V56.4375h-1.1846V54.5967h.5923c.64,0,.8325-.32.8325-.8965V52.3237h2.1284v2.273h1.6651v1.8408h-1.6651v4.7217h1.5367V63Z"/><path class="cls-36" d="M180.5513,52.5317V52.18c0-.6724.416-1.1685,1.3764-1.1685s1.3765.4961,1.3765,1.1685v.352c0,.6724-.416,1.1685-1.3765,1.1685S180.5513,53.2041,180.5513,52.5317Zm.1919,2.065h2.3691V63h-2.3691Z"/><path class="cls-36" d="M184.7905,58.7905c0-2.7055,1.4727-4.3862,3.9375-4.3862s3.938,1.6807,3.938,4.3862-1.4726,4.4014-3.938,4.4014S184.7905,61.4956,184.7905,58.7905Zm5.41.8643V57.9419c0-1.0562-.544-1.6646-1.4727-1.6646s-1.4726.6084-1.4726,1.6646v1.7129c0,1.0561.5444,1.6645,1.4726,1.6645S190.2007,60.7109,190.2007,59.6548Z"/><path class="cls-36" d="M194.3428,63V54.5967h2.3691V56.021h.0957a2.2915,2.2915,0,0,1,2.3369-1.6167c1.7129,0,2.625,1.2168,2.625,3.33V63h-2.3686V57.9258c0-1.0723-.3042-1.6006-1.1685-1.6006-.7685,0-1.52.4-1.52,1.2324V63Z"/><path d="M776.627,221.896l-1.7823-7.6792h1.4522l.76,3.6855.4727,2.3545h.0332l.55-2.3545.88-3.6855h1.6064l.88,3.6855.5391,2.3545h.0332l.4844-2.3545.7812-3.6855h1.3857l-1.8369,7.6792h-1.64l-.9785-4.06-.4737-2.0244h-.0214l-.4952,2.0244-.98,4.06Z"/><path d="M785.7021,221.896v-5.7427H787.11v1.188h.0546a1.4736,1.4736,0,0,1,1.5186-1.188h.3076v1.3311h-.4394c-.9463,0-1.4414.2641-1.4414.8911v3.52Z"/><path d="M789.4971,220.334c0-1.1773.8906-1.76,2.4531-1.76h.9785v-.4184c0-.6377-.3183-1.0117-1.0664-1.0117a1.495,1.495,0,0,0-1.31.726l-.8359-.7485a2.4186,2.4186,0,0,1,2.2441-1.1c1.5518,0,2.376.7373,2.376,2.0464v2.7065h.5723v1.1221h-.7813a1.0445,1.0445,0,0,1-1.0664-.99h-.0664a1.5522,1.5522,0,0,1-1.6719,1.122A1.6276,1.6276,0,0,1,789.4971,220.334Zm3.4316-.1543V219.42h-.9014c-.7373,0-1.1005.2534-1.1005.7041v.187c0,.4624.3193.6934.8691.6934C792.4229,221.0049,792.9287,220.7188,792.9287,220.18Z"/><path d="M796.0527,216.1533h1.4082v.9458h.044a1.591,1.591,0,0,1,1.584-1.0781c1.4521,0,2.2558,1.0781,2.2558,2.9927,0,1.9253-.8037,3.0141-2.2558,3.0141a1.6223,1.6223,0,0,1-1.584-1.0888h-.044v3.1572h-1.4082ZM799.87,219.52v-.99a1.2307,1.2307,0,0,0-1.2324-1.353c-.6709,0-1.1768.3633-1.1768.9243v1.8262c0,.5942.5059.935,1.1768.935A1.2214,1.2214,0,0,0,799.87,219.52Z"/><path d="M802.6523,216.1533h1.4082v.9458h.044a1.5922,1.5922,0,0,1,1.585-1.0781c1.4521,0,2.2548,1.0781,2.2548,2.9927,0,1.9253-.8027,3.0141-2.2548,3.0141a1.6236,1.6236,0,0,1-1.585-1.0888h-.044v3.1572h-1.4082Zm3.8184,3.3662v-.99a1.2313,1.2313,0,0,0-1.2324-1.353c-.6709,0-1.1778.3633-1.1778.9243v1.8262c0,.5942.5069.935,1.1778.935A1.222,1.222,0,0,0,806.4707,219.52Z"/><path d="M808.8682,219.0137c0-1.8155.9785-2.9927,2.6621-2.9927,1.7929,0,2.6181,1.32,2.6181,2.8936v.4619h-3.8173v.143a1.2754,1.2754,0,0,0,1.3974,1.3863,1.7451,1.7451,0,0,0,1.4629-.7813l.7588.8472a2.84,2.84,0,0,1-2.376,1.0561C809.88,222.0278,808.8682,220.8511,808.8682,219.0137Zm1.4629-.5943v.0879h2.3544v-.0986c0-.7925-.4072-1.3316-1.1337-1.3316A1.2193,1.2193,0,0,0,810.3311,218.4194Z"/><path d="M818.9551,220.939H818.9a1.6131,1.6131,0,0,1-1.585,1.0888c-1.44,0-2.2441-1.0888-2.2441-3.0141,0-1.9146.8037-2.9927,2.2441-2.9927a1.5822,1.5822,0,0,1,1.585,1.0781h.0547v-3.3442h1.4082v8.1411h-1.4082Zm0-1.0122v-1.8262c0-.561-.5176-.9243-1.1885-.9243a1.2228,1.2228,0,0,0-1.2207,1.353v.99a1.2134,1.2134,0,0,0,1.2207,1.3423C818.4375,220.8618,818.9551,220.521,818.9551,219.9268Z"/><path d="M828.15,220.939h-.0547a1.6127,1.6127,0,0,1-1.584,1.0888c-1.4414,0-2.2441-1.0888-2.2441-3.0141,0-1.9146.8027-2.9927,2.2441-2.9927a1.5817,1.5817,0,0,1,1.584,1.0781h.0547v-3.3442h1.4082v8.1411H828.15Zm0-1.0122v-1.8262c0-.561-.5166-.9243-1.1875-.9243a1.2229,1.2229,0,0,0-1.2217,1.353v.99a1.2136,1.2136,0,0,0,1.2217,1.3423C827.6338,220.8618,828.15,220.521,828.15,219.9268Z"/><path d="M830.7793,220.334c0-1.1773.8916-1.76,2.4531-1.76h.98v-.4184c0-.6377-.3193-1.0117-1.0674-1.0117a1.4922,1.4922,0,0,0-1.3086.726l-.8369-.7485a2.42,2.42,0,0,1,2.2451-1.1c1.5508,0,2.376.7373,2.376,2.0464v2.7065h.5723v1.1221h-.7813a1.0446,1.0446,0,0,1-1.0673-.99h-.0655a1.5533,1.5533,0,0,1-1.6728,1.122A1.6276,1.6276,0,0,1,830.7793,220.334Zm3.4326-.1543V219.42H833.31c-.7373,0-1.1.2534-1.1.7041v.187c0,.4624.3183.6934.8691.6934C833.7061,221.0049,834.2119,220.7188,834.2119,220.18Z"/><path d="M839.085,221.896a1.3288,1.3288,0,0,1-1.4854-1.4634v-3.1684h-.8476v-1.1109h.44c.418,0,.55-.1982.55-.5942v-.979h1.2656v1.5732h1.1768v1.1109h-1.1768v3.51h1.0889v1.1221Z"/><path d="M840.998,220.334c0-1.1773.8916-1.76,2.4532-1.76h.98v-.4184c0-.6377-.3194-1.0117-1.0674-1.0117a1.492,1.492,0,0,0-1.3086.726l-.8369-.7485a2.42,2.42,0,0,1,2.2451-1.1c1.5508,0,2.376.7373,2.376,2.0464v2.7065h.5722v1.1221H845.63a1.0447,1.0447,0,0,1-1.0674-.99h-.0654a1.5534,1.5534,0,0,1-1.6729,1.122A1.6276,1.6276,0,0,1,840.998,220.334Zm3.4327-.1543V219.42h-.9024c-.7373,0-1.1.2534-1.1.7041v.187c0,.4624.3184.6934.8692.6934C843.9248,221.0049,844.4307,220.7188,844.4307,220.18Z"/><path d="M786.251,227.813v-.22c0-.4073.2422-.7041.8252-.7041.5722,0,.8252.2968.8252.7041v.22c0,.4072-.253.7041-.8252.7041C786.4932,228.5171,786.251,228.22,786.251,227.813Zm.1211,1.5405H787.78v5.7427h-1.4082Z"/><path d="M789.4082,235.0962v-5.7427h1.4082v.957h.0547a1.5844,1.5844,0,0,1,1.6064-1.0893c1.1768,0,1.837.8144,1.837,2.2446v3.63h-1.4083v-3.4873c0-.8145-.2744-1.2324-.9453-1.2324-.5839,0-1.1445.3081-1.1445.9243v3.7954Z"/><path d="M797.9766,234.1719l.8584-.836a2.018,2.018,0,0,0,1.5732.7813c.6709,0,.957-.2529.957-.66,0-.33-.1982-.539-.7041-.6049l-.5722-.0772c-1.2315-.1543-1.9141-.6934-1.9141-1.7383,0-1.1113.8691-1.8154,2.1787-1.8154a2.7366,2.7366,0,0,1,2.2442.9023l-.8252.8252a1.8977,1.8977,0,0,0-1.375-.6162c-.6055,0-.8692.2422-.8692.5943,0,.3847.209.561.7481.6489l.583.0771c1.2539.1758,1.8594.7368,1.8594,1.6944,0,1.1108-.9356,1.8808-2.3653,1.8808A2.9174,2.9174,0,0,1,797.9766,234.1719Z"/><path d="M805.666,235.0962a1.3292,1.3292,0,0,1-1.4853-1.4634v-3.1684h-.8467v-1.1109h.44c.418,0,.55-.1982.55-.5942v-.979h1.2647v1.5732h1.1777v1.1109h-1.1777v3.51h1.09v1.1221Z"/><path d="M807.5586,232.2139c0-1.8374,1.0225-2.9927,2.6621-2.9927,1.65,0,2.6729,1.1553,2.6729,2.9927,0,1.8481-1.0225,3.0141-2.6729,3.0141C808.5811,235.228,807.5586,234.062,807.5586,232.2139Zm3.8613.539v-1.0674c0-.8579-.4619-1.331-1.1992-1.331-.7266,0-1.1885.4731-1.1885,1.331v1.0674c0,.8692.4619,1.3423,1.1885,1.3423C810.958,234.0952,811.42,233.6221,811.42,232.7529Z"/><path d="M814.1357,235.0962v-5.7427h1.4082v1.188H815.6a1.4717,1.4717,0,0,1,1.5176-1.188h.3086v1.3311h-.44c-.9463,0-1.4415.2641-1.4415.8911v3.52Z"/><path d="M817.9307,233.5342c0-1.1773.8916-1.76,2.4531-1.76h.98v-.4184c0-.6377-.3194-1.0117-1.0674-1.0117a1.492,1.492,0,0,0-1.3086.726l-.8369-.7485a2.42,2.42,0,0,1,2.2451-1.1c1.5508,0,2.376.7373,2.376,2.0464v2.7065h.5723v1.1221h-.7813a1.0447,1.0447,0,0,1-1.0674-.99H821.43a1.5534,1.5534,0,0,1-1.6729,1.122A1.6276,1.6276,0,0,1,817.9307,233.5342Zm3.4326-.1543v-.7593h-.9024c-.7373,0-1.1.2534-1.1.7041v.187c0,.4624.3184.6934.8692.6934C820.8574,234.2051,821.3633,233.9189,821.3633,233.38Z"/><path d="M826.6543,237.4287c-1.9365,0-2.6738-.5063-2.6738-1.3535a1.0577,1.0577,0,0,1,1.0234-1.1v-.1211a.9435.9435,0,0,1-.7373-.957c0-.5943.5059-.8911,1.0566-1.0122v-.044a1.7329,1.7329,0,0,1-1.0459-1.6723c0-1.1661.8252-1.9473,2.377-1.9473a3.1875,3.1875,0,0,1,1.001.1431v-.1871a.7339.7339,0,0,1,.8144-.8359h.8907v1.0781H828.14v.1538a1.719,1.719,0,0,1,.8907,1.5953c0,1.1552-.8145,1.9253-2.376,1.9253a3.5426,3.5426,0,0,1-.8809-.0987.5873.5873,0,0,0-.4062.5166c0,.2862.2412.4292.748.4292h1.54c1.4082,0,2.0136.605,2.0136,1.6392C829.6689,236.7793,828.8545,237.4287,826.6543,237.4287Zm.7148-2.2666h-1.958a.7058.7058,0,0,0-.2968.5942c0,.44.33.7041,1.21.7041h.7041c.9131,0,1.32-.2309,1.32-.7153C828.3486,235.3823,828.084,235.1621,827.3691,235.1621Zm.3194-3.9053v-.187c0-.5835-.3633-.88-1.0342-.88s-1.0342.2968-1.0342.88v.187c0,.5718.3633.88,1.0342.88S827.6885,231.8286,827.6885,231.2568Z"/><path d="M830.0312,232.2139c0-1.8155.9786-2.9927,2.6622-2.9927,1.7929,0,2.6181,1.32,2.6181,2.8935v.462h-3.8174v.143a1.2754,1.2754,0,0,0,1.3975,1.3863,1.7451,1.7451,0,0,0,1.4629-.7813l.7588.8472a2.84,2.84,0,0,1-2.376,1.0561C831.043,235.228,830.0312,234.0513,830.0312,232.2139Zm1.4629-.5943v.0879h2.3545v-.0986c0-.7925-.4072-1.3316-1.1338-1.3316A1.2194,1.2194,0,0,0,831.4941,231.62Z"/></g></svg>