<?xml version="1.0" encoding="UTF-8"?><svg xmlns="http://www.w3.org/2000/svg" width="1440" height="720" xmlns:xlink="http://www.w3.org/1999/xlink" viewBox="0 0 1440 720"><defs><style>.cls-1,.cls-2,.cls-3,.cls-4,.cls-5,.cls-6,.cls-7,.cls-8{stroke-miterlimit:10;stroke-width:1.2474px;}.cls-1,.cls-3,.cls-4,.cls-5,.cls-6,.cls-7{fill:none;}.cls-1,.cls-8{stroke:#001d6c;}.cls-9{font-size:103.6951px;}.cls-9,.cls-10,.cls-11,.cls-12,.cls-13,.cls-14{fill:#001d6c;}.cls-9,.cls-11,.cls-13,.cls-14{font-family:IBMPlexSans-Thin, 'IBM Plex Sans';font-weight:200;}.cls-2{fill:url(#linear-gradient-16);stroke:url(#linear-gradient-17);}.cls-3{stroke:url(#linear-gradient-10);}.cls-4{stroke:url(#linear-gradient-13);}.cls-15{fill:url(#linear-gradient-8);}.cls-16{fill:url(#linear-gradient-5);}.cls-17{fill:url(#linear-gradient-6);}.cls-18{fill:url(#linear-gradient-9);}.cls-19{fill:url(#linear-gradient-3);}.cls-20{fill:url(#linear-gradient-2);}.cls-11{font-size:119.2048px;}.cls-21{fill:#4589ff;}.cls-22{fill:url(#linear-gradient-11);}.cls-23{fill:url(#linear-gradient-12);}.cls-24{fill:url(#linear-gradient-14);}.cls-25{fill:url(#linear-gradient-15);}.cls-5{stroke:url(#linear-gradient);}.cls-12,.cls-26{font-family:IBMPlexSans, 'IBM Plex Sans';font-size:15.4933px;}.cls-13{font-size:129.1106px;}.cls-26,.cls-8{fill:#fff;}.cls-6{stroke:url(#linear-gradient-4);}.cls-7{stroke:url(#linear-gradient-7);}.cls-14{font-size:94.1085px;}.cls-27{fill:#0043ce;}.cls-28{fill:#a6c8ff;}</style><linearGradient id="linear-gradient" x1="302.7686" y1="412.6751" x2="1037.8085" y2="412.6751" gradientUnits="userSpaceOnUse"><stop offset=".0062" stop-color="#a6c8ff"/><stop offset=".0406" stop-color="#9ec0f8"/><stop offset=".3818" stop-color="#5b7abc"/><stop offset=".6665" stop-color="#294891"/><stop offset=".8808" stop-color="#0b2876"/><stop offset="1" stop-color="#001d6c"/></linearGradient><linearGradient id="linear-gradient-2" x1="302.1448" x2="1037.1847" xlink:href="#linear-gradient"/><linearGradient id="linear-gradient-3" x1="302.1448" x2="1037.1847" xlink:href="#linear-gradient"/><linearGradient id="linear-gradient-4" x1="606.1339" y1="460.4933" x2="1352.1752" y2="460.4933" xlink:href="#linear-gradient"/><linearGradient id="linear-gradient-5" x1="605.5102" y1="460.4933" x2="1351.5515" y2="460.4933" xlink:href="#linear-gradient"/><linearGradient id="linear-gradient-6" x1="605.5102" y1="460.4933" x2="1351.5515" y2="460.4933" xlink:href="#linear-gradient"/><linearGradient id="linear-gradient-7" y1="518.0781" x2="1352.1752" y2="518.0781" xlink:href="#linear-gradient"/><linearGradient id="linear-gradient-8" x1="302.1448" y1="518.0781" x2="1351.5515" y2="518.0781" xlink:href="#linear-gradient"/><linearGradient id="linear-gradient-9" x1="302.1448" y1="518.0781" x2="1351.5515" y2="518.0781" xlink:href="#linear-gradient"/><linearGradient id="linear-gradient-10" x1="303.0701" y1="575.036" x2="1352.4767" y2="575.036" xlink:href="#linear-gradient"/><linearGradient id="linear-gradient-11" x1="302.4464" y1="575.036" x2="1351.853" y2="575.036" xlink:href="#linear-gradient"/><linearGradient id="linear-gradient-12" x1="302.4464" y1="575.036" x2="1351.853" y2="575.036" xlink:href="#linear-gradient"/><linearGradient id="linear-gradient-13" y1="631.9313" x2="1352.1752" y2="631.9313" xlink:href="#linear-gradient"/><linearGradient id="linear-gradient-14" x1="302.1448" y1="631.9313" x2="1351.5515" y2="631.9313" xlink:href="#linear-gradient"/><linearGradient id="linear-gradient-15" x1="302.1448" y1="631.9313" x2="1351.5515" y2="631.9313" xlink:href="#linear-gradient"/><linearGradient id="linear-gradient-16" x1="302.1448" y1="297.4115" x2="1351.853" y2="297.4115" xlink:href="#linear-gradient"/><linearGradient id="linear-gradient-17" x1="301.5211" y1="297.4115" x2="1352.4767" y2="297.4115" gradientUnits="userSpaceOnUse"><stop offset=".0062" stop-color="#a6c8ff"/><stop offset=".0254" stop-color="#96b8f1"/><stop offset=".0762" stop-color="#7393d2"/><stop offset=".1333" stop-color="#5473b6"/><stop offset=".1965" stop-color="#39589f"/><stop offset=".2678" stop-color="#24428c"/><stop offset=".3512" stop-color="#13317d"/><stop offset=".4542" stop-color="#082573"/><stop offset=".5987" stop-color="#011e6d"/><stop offset="1" stop-color="#001d6c"/></linearGradient></defs><g id="Layer_1"><rect class="cls-1" x="44.9418" y="21.69" width="1363.2547" height="665.6993" rx="25.6598" ry="25.6598"/><line class="cls-5" x1="302.7686" y1="412.6751" x2="1036.561" y2="412.6751"/><rect class="cls-20" x="302.1448" y="408.621" width="1.2475" height="8.1083"/><rect class="cls-19" x="1035.9373" y="408.621" width="1.2474" height="8.1083"/><line class="cls-6" x1="606.1339" y1="460.4933" x2="1350.9277" y2="460.4933"/><rect class="cls-16" x="605.5102" y="456.4391" width="1.2474" height="8.1084"/><rect class="cls-17" x="1350.304" y="456.4391" width="1.2474" height="8.1084"/><line class="cls-7" x1="302.7686" y1="518.0781" x2="1350.9277" y2="518.0781"/><rect class="cls-15" x="302.1448" y="514.0239" width="1.2475" height="8.1084"/><rect class="cls-18" x="1350.304" y="514.0239" width="1.2474" height="8.1084"/><line class="cls-3" x1="303.0701" y1="575.036" x2="1351.2293" y2="575.036"/><rect class="cls-22" x="302.4464" y="570.9818" width="1.2474" height="8.1084"/><rect class="cls-23" x="1350.6056" y="570.9818" width="1.2474" height="8.1084"/><line class="cls-4" x1="302.7686" y1="631.9313" x2="1350.9277" y2="631.9313"/><rect class="cls-24" x="302.1448" y="627.8771" width="1.2475" height="8.1084"/><rect class="cls-25" x="1350.304" y="627.8771" width="1.2474" height="8.1084"/><rect class="cls-1" x="91.1882" y="168.0732" width="157.0569" height="49.2261" rx="9.1547" ry="9.1547"/><rect class="cls-1" x="91.1882" y="272.7498" width="157.0569" height="49.2261" rx="9.1547" ry="9.1547"/><rect class="cls-1" x="91.1882" y="400.9573" width="157.0569" height="49.2261" rx="9.1547" ry="9.1547"/><rect class="cls-1" x="91.1882" y="550.1494" width="157.0569" height="49.2261" rx="9.1547" ry="9.1547"/><rect class="cls-8" x="306.6214" y="83.9107" width="513.8331" height="49.2261" rx="9.1547" ry="9.1547"/><rect class="cls-8" x="842.9908" y="83.9107" width="508.5607" height="49.2261" rx="9.1547" ry="9.1547"/><rect class="cls-28" x="306.6214" y="168.0732" width="248.0517" height="49.2261" rx="9.1547" ry="9.1547"/><rect class="cls-21" x="572.4028" y="168.0732" width="248.0517" height="49.2261" rx="9.1547" ry="9.1547"/><rect class="cls-2" x="302.1448" y="272.7985" width="1049.7082" height="49.2261" rx="9.1547" ry="9.1547"/><rect class="cls-27" x="838.1842" y="168.0732" width="248.0517" height="49.2261" rx="9.1547" ry="9.1547"/><rect class="cls-10" x="1103.9656" y="168.0732" width="247.8874" height="49.2261" rx="9.1547" ry="9.1547"/></g><g id="Text"><text class="cls-12" transform="translate(524.4407 113.072) scale(.9686 1)"><tspan x="0" y="0">Standard</tspan></text><text class="cls-12" transform="translate(1054.8206 113.072) scale(.9686 1)"><tspan x="0" y="0">Dedicated</tspan></text><text class="cls-12" transform="translate(106.9207 197.2351) scale(.9686 1)"><tspan x="0" y="0">Data classification</tspan></text><text class="cls-12" transform="translate(105.6727 301.4646) scale(.8666 1)"><tspan x="0" y="0">Encryption by target</tspan></text><text class="cls-12" transform="translate(108.3177 430.1179) scale(.9686 1)"><tspan x="0" y="0">Key management</tspan></text><text class="cls-26" transform="translate(411.4773 197.2341) scale(.9686 1)"><tspan x="0" y="0">Public</tspan></text><text class="cls-26" transform="translate(672.1951 197.2351) scale(.9686 1)"><tspan x="0" y="0">Internal</tspan></text><text class="cls-26" transform="translate(923.9827 197.2351) scale(.9686 1)"><tspan x="0" y="0">Confidential</tspan></text><text class="cls-26" transform="translate(1199.9837 197.2351) scale(.9686 1)"><tspan x="0" y="0">Sensitive</tspan></text><text class="cls-26" transform="translate(336.9124 301.9597) scale(.9686 1)"><tspan x="0" y="0">Physical storage</tspan></text><text class="cls-26" transform="translate(500.9842 301.4636) scale(.9686 1)"><tspan x="0" y="0">Block storage</tspan></text><text class="cls-26" transform="translate(813.7166 302.1463) scale(.9686 1)"><tspan x="0" y="0">Database and object storage</tspan></text><text class="cls-26" transform="translate(659.4139 302.1463) scale(.9686 1)"><tspan x="0" y="0">File system</tspan></text><text class="cls-26" transform="translate(1055.4505 301.4636) scale(.9686 1)"><tspan x="0" y="0">Granular data at rest</tspan></text><text class="cls-26" transform="translate(1235.7474 301.4636) scale(.9686 1)"><tspan x="0" y="0">Data in use</tspan></text><text class="cls-12" transform="translate(103.9979 579.4754) scale(.8755 1)"><tspan x="0" y="0">Secrets management</tspan></text><text class="cls-12" transform="translate(327.7161 507.4646) scale(.9686 1)"><tspan x="0" y="0">Access (API keys and credentials)</tspan></text><text class="cls-12" transform="translate(329.5145 563.2566) scale(.9686 1)"><tspan x="0" y="0">Certificates (SSL/TLS)</tspan></text><text class="cls-12" transform="translate(329.2127 620.1511) scale(.9686 1)"><tspan x="0" y="0">Database configurations</tspan></text><text class="cls-12" transform="translate(328.0906 402.2332) scale(.9686 1)"><tspan x="0" y="0">Bring your own key (user managed)</tspan></text><text class="cls-12" transform="translate(1037.1858 450.1843) scale(.9686 1)"><tspan x="0" y="0">Keep your own key (user owned and managed)</tspan></text><text class="cls-13" transform="translate(260.1375 615.367) scale(.9686 1)"><tspan x="0" y="0">{</tspan></text><text class="cls-11" transform="translate(256.5623 463.0613) scale(1.049 1)"><tspan x="0" y="0">{</tspan></text><text class="cls-9" transform="translate(259.6893 329.9763) scale(1.2059 1)"><tspan x="0" y="0">{</tspan></text><text class="cls-14" transform="translate(259.6888 222.283) scale(1.3288 1)"><tspan x="0" y="0">{</tspan></text></g></svg>