<?xml version="1.0" encoding="utf-8"?>
<!-- Generator: Adobe Illustrator 26.3.1, SVG Export Plug-In . SVG Version: 6.00 Build 0)  -->
<svg version="1.1" xmlns="http://www.w3.org/2000/svg" xmlns:xlink="http://www.w3.org/1999/xlink" x="0px" y="0px"
	 viewBox="0 0 1000 550" style="enable-background:new 0 0 1000 550;" xml:space="preserve">
<style type="text/css">
	.st0{fill:#FFFFFF;}
	.st1{fill:none;stroke:#D8D8D8;stroke-miterlimit:10;}
	.st2{fill:none;stroke:#D8D8D8;stroke-miterlimit:10;stroke-dasharray:2.9951,1.9967;}
	.st3{fill:none;stroke:#D8D8D8;stroke-miterlimit:10;stroke-dasharray:3.0073,2.0049;}
	.st4{display:none;}
	.st5{display:inline;}
	.st6{fill:#EDF5FF;}
	.st7{fill:none;stroke:#000F5E;stroke-miterlimit:10;}
	.st8{fill:none;stroke:#000F5E;stroke-miterlimit:10;stroke-dasharray:3,2;}
	.st9{fill:#EAEAEA;}
	.st10{fill:none;stroke:#000F5E;stroke-miterlimit:10;stroke-dasharray:2.9879,1.9919;}
	.st11{fill:none;stroke:#000F5E;stroke-miterlimit:10;stroke-dasharray:3.011,2.0074;}
	.st12{fill:none;stroke:#000F5E;stroke-miterlimit:10;stroke-dasharray:2.9871,1.9914;}
	.st13{opacity:0.15;fill:#B380E0;}
	.st14{fill:#000F5E;}
	.st15{fill:none;stroke:#A71C71;stroke-miterlimit:10;}
	.st16{fill:#A71C71;}
	.st17{fill:#C5DEFF;stroke:#000F5E;stroke-miterlimit:10;stroke-dasharray:3,2;}
	.st18{fill:#EDE9E7;}
	.st19{fill:#23292E;}
	.st20{fill:#A8A3A3;}
	.st21{fill:#69A6FF;stroke:#000F5E;stroke-width:2;stroke-miterlimit:10;}
	.st22{fill:#EDF5FF;stroke:#000F5E;stroke-width:2;stroke-miterlimit:10;}
	.st23{fill:none;stroke:#000F5E;stroke-width:2;stroke-miterlimit:10;}
	.st24{fill:#003BC9;stroke:#000F5E;stroke-width:2;stroke-miterlimit:10;}
	.st25{fill:none;stroke:#A71C71;stroke-miterlimit:10;stroke-dasharray:1,1;}
	.st26{fill:#EFC100;}
	.st27{fill:#CBA9E6;}
	.st28{fill:#6E177D;}
	.st29{fill:#9BC1FA;}
	.st30{fill:#5AA700;}
	.st31{font-family:'IBMPlexSans';}
	.st32{font-size:11px;}
	.st33{font-family:'IBMPlexSans-SemiBold';}
	.st34{font-size:12px;}
	.st35{font-family:'IBMPlexSans-Bold';}
	.st36{fill:#272727;}
	.st37{font-size:16px;}
	.st38{fill:#CEACEB;}
</style>
<g id="Visual">
	<g>
		<g>
			<rect x="340.5" y="83.5" class="st0" width="609" height="416"/>
			<g>
				<polyline class="st1" points="949.5,498 949.5,499.5 948,499.5 				"/>
				<line class="st2" x1="946" y1="499.5" x2="343" y2="499.5"/>
				<polyline class="st1" points="342,499.5 340.5,499.5 340.5,498 				"/>
				<line class="st3" x1="340.5" y1="496" x2="340.5" y2="86"/>
				<polyline class="st1" points="340.5,85 340.5,83.5 342,83.5 				"/>
				<line class="st2" x1="344" y1="83.5" x2="947" y2="83.5"/>
				<polyline class="st1" points="948,83.5 949.5,83.5 949.5,85 				"/>
				<line class="st3" x1="949.5" y1="87" x2="949.5" y2="497"/>
			</g>
		</g>
	</g>
	<g class="st4">
		<g class="st5">
			<rect x="69.5" y="123.5" class="st6" width="140" height="140"/>
			<g>
				<polyline class="st7" points="209.5,262 209.5,263.5 208,263.5 				"/>
				<line class="st8" x1="206" y1="263.5" x2="72" y2="263.5"/>
				<polyline class="st7" points="71,263.5 69.5,263.5 69.5,262 				"/>
				<line class="st8" x1="69.5" y1="260" x2="69.5" y2="126"/>
				<polyline class="st7" points="69.5,125 69.5,123.5 71,123.5 				"/>
				<line class="st8" x1="73" y1="123.5" x2="207" y2="123.5"/>
				<polyline class="st7" points="208,123.5 209.5,123.5 209.5,125 				"/>
				<line class="st8" x1="209.5" y1="127" x2="209.5" y2="261"/>
			</g>
		</g>
	</g>
	<g>
		<g>
			<rect x="683.5" y="294.5" class="st9" width="249" height="150"/>
			<g>
				<polyline class="st7" points="932.5,443 932.5,444.5 931,444.5 				"/>
				<line class="st10" x1="929.01" y1="444.5" x2="686" y2="444.5"/>
				<polyline class="st7" points="685,444.5 683.5,444.5 683.5,443 				"/>
				<line class="st8" x1="683.5" y1="441" x2="683.5" y2="297"/>
				<polyline class="st7" points="683.5,296 683.5,294.5 685,294.5 				"/>
				<line class="st10" x1="686.99" y1="294.5" x2="930" y2="294.5"/>
				<polyline class="st7" points="931,294.5 932.5,294.5 932.5,296 				"/>
				<line class="st8" x1="932.5" y1="298" x2="932.5" y2="442"/>
			</g>
		</g>
	</g>
	<g>
		<g>
			<rect x="683.5" y="123.5" class="st9" width="249" height="150"/>
			<g>
				<polyline class="st7" points="932.5,272 932.5,273.5 931,273.5 				"/>
				<line class="st10" x1="929.01" y1="273.5" x2="686" y2="273.5"/>
				<polyline class="st7" points="685,273.5 683.5,273.5 683.5,272 				"/>
				<line class="st8" x1="683.5" y1="270" x2="683.5" y2="126"/>
				<polyline class="st7" points="683.5,125 683.5,123.5 685,123.5 				"/>
				<line class="st10" x1="686.99" y1="123.5" x2="930" y2="123.5"/>
				<polyline class="st7" points="931,123.5 932.5,123.5 932.5,125 				"/>
				<line class="st8" x1="932.5" y1="127" x2="932.5" y2="271"/>
			</g>
		</g>
	</g>
	<g>
		<g>
			<rect x="363.5" y="123.5" class="st6" width="276" height="234"/>
			<g>
				<polyline class="st7" points="639.5,356 639.5,357.5 638,357.5 				"/>
				<line class="st11" x1="635.99" y1="357.5" x2="366" y2="357.5"/>
				<polyline class="st7" points="365,357.5 363.5,357.5 363.5,356 				"/>
				<line class="st12" x1="363.5" y1="354.01" x2="363.5" y2="126"/>
				<polyline class="st7" points="363.5,125 363.5,123.5 365,123.5 				"/>
				<line class="st11" x1="367.01" y1="123.5" x2="637" y2="123.5"/>
				<polyline class="st7" points="638,123.5 639.5,123.5 639.5,125 				"/>
				<line class="st12" x1="639.5" y1="126.99" x2="639.5" y2="355"/>
			</g>
		</g>
	</g>
	<g>
		<path class="st13" d="M622,408H442v54.49c0,5.8,4.7,10.51,10.51,10.51h158.99c5.8,0,10.51-4.7,10.51-10.51V408z"/>
	</g>
	<g>
		<path class="st13" d="M326,183H185v23.49c0,5.8,4.7,10.51,10.51,10.51h119.99c5.8,0,10.51-4.7,10.51-10.51V183z"/>
		<g>
			<g>
				<line class="st7" x1="371.82" y1="183.25" x2="152.05" y2="183.25"/>
				<g>
					<polygon class="st14" points="370.36,178.26 379,183.25 370.36,188.24 					"/>
				</g>
				<g>
					<g>
						<path class="st0" d="M152.26,179.49c-2.08,0-3.76,1.68-3.76,3.76s1.68,3.76,3.76,3.76c2.08,0,3.76-1.68,3.76-3.76
							S154.34,179.49,152.26,179.49z"/>
						<path class="st14" d="M152.26,178.99c2.35,0,4.26,1.91,4.26,4.26s-1.91,4.26-4.26,4.26c-2.35,0-4.26-1.91-4.26-4.26
							S149.91,178.99,152.26,178.99C154.61,178.99,149.91,178.99,152.26,178.99z M152.26,186.51c1.8,0,3.26-1.46,3.26-3.26
							s-1.46-3.26-3.26-3.26c-1.8,0-3.26,1.46-3.26,3.26S150.46,186.51,152.26,186.51C154.06,186.51,150.46,186.51,152.26,186.51z"
							/>
					</g>
				</g>
			</g>
		</g>
	</g>
	<g>
		<g>
			<g>
				<polyline class="st15" points="708,199.5 663.5,199.5 663.5,407.5 415.5,407.5 415.5,236.07 				"/>
				<g>
					<rect x="707.5" y="196.25" class="st16" width="1" height="6.5"/>
				</g>
				<g>
					<path class="st16" d="M419.26,236.26c0-2.08-1.68-3.76-3.76-3.76s-3.76,1.68-3.76,3.76c0,2.08,1.68,3.76,3.76,3.76
						S419.26,238.34,419.26,236.26z"/>
				</g>
			</g>
		</g>
		<g>
			<g>
				<line class="st15" x1="664" y1="366.5" x2="708.5" y2="366.5"/>
				<g>
					<rect x="708" y="363.25" class="st16" width="1" height="6.5"/>
				</g>
			</g>
		</g>
	</g>
	<polygon class="st17" points="379.5,260.5 379.5,299.75 379.5,339 500.5,339 622.5,339 622.5,299.75 622.5,260.5 	"/>
	<g id="Hardware_security_module">
		<g id="HSM">
			<g id="XMLID_8_">
				<rect x="394.1" y="296.8" class="st18" width="48.5" height="12.79"/>
				<path class="st19" d="M441.85,297.55v11.29h-47v-11.29H441.85 M443.35,296.05h-50v14.29h50V296.05L443.35,296.05z"/>
			</g>
			<g id="XMLID_3_">
				<rect id="XMLID_7_" x="416.09" y="301.95" class="st19" width="21.52" height="2.9"/>
				<circle id="XMLID_6_" class="st19" cx="410.8" cy="303.39" r="1.71"/>
				<circle id="XMLID_5_" class="st19" cx="405.42" cy="303.39" r="1.71"/>
				<circle id="XMLID_4_" class="st19" cx="400.03" cy="303.39" r="1.71"/>
			</g>
			<g>
				<polygon class="st20" points="394.57,295.3 397.3,289.9 438.83,289.9 442.03,295.3 				"/>
				<path class="st19" d="M438.4,290.65l2.31,3.91h-44.93l1.98-3.91H438.4 M439.25,289.15h-42.42l-3.49,6.91h50L439.25,289.15
					L439.25,289.15z"/>
			</g>
		</g>
	</g>
	<g>
		<rect x="59" y="168.49" class="st21" width="69" height="31"/>
		<g>
			<polygon class="st22" points="58.5,146.49 58.5,195.65 52.86,199.49 58.5,199.49 91.14,199.49 94.5,199.49 94.5,146.49 			"/>
			<line class="st23" x1="77" y1="133.44" x2="77" y2="146.44"/>
		</g>
		<g>
			<rect x="67" y="187.44" class="st24" width="21" height="12"/>
			<line class="st23" x1="74" y1="188.44" x2="74" y2="199.44"/>
			<line class="st23" x1="77" y1="193.44" x2="77" y2="195.44"/>
		</g>
		<g>
			<line class="st23" x1="100" y1="176.44" x2="123" y2="176.44"/>
			<line class="st23" x1="100" y1="180.44" x2="123" y2="180.44"/>
			<line class="st23" x1="100" y1="184.44" x2="123" y2="184.44"/>
		</g>
		<g>
			<line class="st23" x1="66" y1="155.44" x2="89" y2="155.44"/>
			<line class="st23" x1="66" y1="159.44" x2="89" y2="159.44"/>
			<line class="st23" x1="66" y1="163.44" x2="89" y2="163.44"/>
			<line class="st23" x1="66" y1="167.44" x2="89" y2="167.44"/>
		</g>
	</g>
	<g>
		<g>
			<line class="st25" x1="788.5" y1="194.5" x2="825.82" y2="194.5"/>
			<g>
				<rect x="788" y="191.25" class="st16" width="1" height="6.5"/>
			</g>
			<g>
				<polygon class="st16" points="824.36,199.49 833,194.5 824.36,189.51 				"/>
			</g>
		</g>
	</g>
	<g>
		<g>
			<line class="st25" x1="788.5" y1="366.5" x2="825.82" y2="366.5"/>
			<g>
				<rect x="788" y="363.25" class="st16" width="1" height="6.5"/>
			</g>
			<g>
				<polygon class="st16" points="824.36,371.49 833,366.5 824.36,361.51 				"/>
			</g>
		</g>
	</g>
	<g>
		<g>
			<g>
				<path class="st26" d="M762.68,194.52c-0.49,0.62-1.31,0.81-2.03,0.84c-0.74,0.03-1.46-0.09-2.16-0.26
					c-1.39-0.35-2.71-0.9-3.99-1.52c-2.53-1.29-4.86-2.91-7.04-4.73c-2.15-1.82-4.41-3.68-5.91-6.19c-0.74-1.25-1.41-2.58-1.79-4.05
					c-0.1-0.36-0.16-0.75-0.23-1.12c-0.02-0.4-0.08-0.77-0.03-1.19c0.02-0.4,0.12-0.81,0.26-1.19c0.1-0.19,0.21-0.37,0.32-0.54
					c0.15-0.15,0.31-0.28,0.45-0.4l0.22,0.2c-0.25,0.62-0.11,1.21,0.11,1.78c0.2,0.57,0.52,1.12,0.85,1.66
					c0.69,1.07,1.46,2.12,2.29,3.13c1.68,2,3.19,4.21,5.08,6.14c1.9,1.9,3.94,3.68,6.17,5.2c1.11,0.75,2.28,1.44,3.51,1.94
					c0.62,0.25,1.25,0.45,1.89,0.51c0.63,0.08,1.31,0.03,1.79-0.4L762.68,194.52z"/>
			</g>
			<path class="st27" d="M768.97,170.78l-7.05-0.26l0.24,0.27h-0.14l-0.29-0.29l-13.6,13.6l0.16,0.16l-2.4,2.4
				c-1.02-0.31-2.11-0.48-3.24-0.48c-5.95,0-10.77,4.65-10.77,10.38c0,5.74,4.82,10.38,10.77,10.38s10.77-4.65,10.77-10.38
				c0-1.25-0.24-2.45-0.67-3.57l3.74-3.74l-0.77-0.77l1.95-1.95l0.74,0.74l9.75-9.75l0.27,0.3l0.05-0.61l0.27-0.27l-0.23-0.23
				L768.97,170.78z"/>
			<g>
				<g>
					<path class="st28" d="M762.08,169.54l-15.88,15.88c-1.06-0.32-2.18-0.5-3.35-0.5c-6.64,0-11.98,5.61-11.51,12.36
						c0.39,5.69,5,10.3,10.69,10.69c6.74,0.46,12.36-4.87,12.36-11.51c0-1.17-0.18-2.29-0.5-3.35l3.06-3.06v-2.56l2.56,0
						l10.26-10.26v-7.69L762.08,169.54z M768.49,176.7l-9.51,9.51h-2.03h-1.28v1.28l0,2.03l-2.69,2.69l-0.54,0.54l0.22,0.74
						c0.29,0.97,0.44,1.97,0.44,2.98c0,5.9-5.01,10.65-10.99,10.23c-5.05-0.35-9.14-4.45-9.5-9.5c-0.42-5.98,4.33-10.99,10.23-10.99
						c1.01,0,2.01,0.15,2.98,0.44l0.73,0.22l0.54-0.54l15.51-15.51l5.88,0L768.49,176.7z"/>
					<circle class="st28" cx="740.19" cy="199.09" r="2.56"/>
					
						<rect x="755.26" y="177.94" transform="matrix(0.7071 -0.7071 0.7071 0.7071 96.531 590.1996)" class="st28" width="10.88" height="1.28"/>
				</g>
			</g>
			<path class="st29" d="M766.66,169.24l-7.05-0.26l0.24,0.27h-0.14l-0.29-0.29l-13.6,13.6l0.16,0.16l-2.4,2.4
				c-1.02-0.31-2.11-0.48-3.24-0.48c-5.95,0-10.77,4.65-10.77,10.38c0,5.74,4.82,10.38,10.77,10.38s10.77-4.65,10.77-10.38
				c0-1.25-0.24-2.45-0.67-3.57l3.74-3.74l-0.77-0.77l1.95-1.95l0.74,0.74l9.75-9.75l0.27,0.3l0.05-0.61l0.27-0.27l-0.23-0.23
				L766.66,169.24z"/>
			<g>
				<path class="st14" d="M759.77,168l-15.88,15.88c-1.06-0.32-2.18-0.5-3.35-0.5c-6.64,0-11.98,5.61-11.51,12.36
					c0.39,5.69,5,10.3,10.69,10.69c6.74,0.46,12.36-4.87,12.36-11.51c0-1.17-0.18-2.29-0.5-3.35l3.06-3.06v-2.56h2.56l10.26-10.26
					l0-7.69L759.77,168z M766.18,175.16l-9.51,9.51h-2.03h-1.28v1.28v2.03l-2.69,2.69l-0.54,0.54l0.22,0.74
					c0.29,0.97,0.44,1.97,0.44,2.98c0,5.9-5.01,10.65-10.99,10.23c-5.05-0.35-9.14-4.45-9.5-9.5c-0.42-5.98,4.33-10.99,10.23-10.99
					c1.01,0,2.01,0.15,2.98,0.44l0.73,0.22l0.54-0.54l15.51-15.51l5.88,0V175.16z"/>
				<circle class="st14" cx="737.88" cy="197.55" r="2.56"/>
				
					<rect x="752.95" y="176.4" transform="matrix(0.7071 -0.7071 0.7071 0.7071 96.943 588.1172)" class="st14" width="10.88" height="1.28"/>
			</g>
			<g>
				<path class="st26" d="M740.54,174.17c0.49-0.62,1.31-0.81,2.03-0.84c0.74-0.03,1.46,0.09,2.16,0.26
					c1.39,0.35,2.71,0.9,3.99,1.52c2.53,1.29,4.86,2.91,7.04,4.73c2.15,1.82,4.41,3.68,5.91,6.19c0.74,1.25,1.41,2.58,1.79,4.05
					c0.1,0.36,0.16,0.75,0.23,1.12c0.02,0.4,0.08,0.77,0.03,1.19c-0.02,0.4-0.12,0.81-0.26,1.19c-0.1,0.19-0.21,0.37-0.32,0.54
					c-0.15,0.15-0.31,0.28-0.45,0.4l-0.22-0.2c0.25-0.62,0.11-1.21-0.11-1.78c-0.2-0.57-0.52-1.12-0.85-1.66
					c-0.69-1.07-1.46-2.12-2.29-3.13c-1.68-2-3.19-4.21-5.08-6.14c-1.9-1.9-3.94-3.68-6.17-5.2c-1.11-0.75-2.28-1.44-3.51-1.94
					c-0.62-0.25-1.25-0.45-1.89-0.51c-0.63-0.08-1.31-0.03-1.79,0.4L740.54,174.17z"/>
			</g>
		</g>
		<g>
			<ellipse class="st0" cx="764.38" cy="201.56" rx="4.23" ry="4.62"/>
			<g>
				<g>
					<path class="st30" d="M768.62,195.63c0-3.15-3.38-5.7-6.62-4.15c-1.64,0.79-2.61,2.53-2.61,4.35v1.89
						c-1.23,1.39-1.84,3.33-1.39,5.41c0.5,2.35,2.42,4.22,4.78,4.68c3.94,0.76,7.38-2.24,7.38-6.03c0-1.56-0.58-2.98-1.54-4.06
						V195.63z M760.92,195.63c0-2.21,2.62-4.06,4.82-2.49c0.87,0.62,1.33,1.66,1.33,2.73v0.59c-0.91-0.52-1.95-0.83-3.08-0.83
						c-1.12,0-2.17,0.31-3.08,0.83V195.63z M763.1,205.17l-2.85-2.85l1.09-1.09l1.76,1.76l4.07-4.07l1.09,1.09L763.1,205.17z"/>
				</g>
			</g>
		</g>
	</g>
	<g>
		<g>
			<g>
				<path class="st26" d="M762.68,365.52c-0.49,0.62-1.31,0.81-2.03,0.84c-0.74,0.03-1.46-0.09-2.16-0.26
					c-1.39-0.35-2.71-0.9-3.99-1.52c-2.53-1.29-4.86-2.91-7.04-4.73c-2.15-1.82-4.41-3.68-5.91-6.19c-0.74-1.25-1.41-2.58-1.79-4.05
					c-0.1-0.36-0.16-0.75-0.23-1.12c-0.02-0.4-0.08-0.77-0.03-1.19c0.02-0.4,0.12-0.81,0.26-1.19c0.1-0.19,0.21-0.37,0.32-0.54
					c0.15-0.15,0.31-0.28,0.45-0.4l0.22,0.2c-0.25,0.62-0.11,1.21,0.11,1.78c0.2,0.57,0.52,1.12,0.85,1.66
					c0.69,1.07,1.46,2.12,2.29,3.13c1.68,2,3.19,4.21,5.08,6.14c1.9,1.9,3.94,3.68,6.17,5.2c1.11,0.75,2.28,1.44,3.51,1.94
					c0.62,0.25,1.25,0.45,1.89,0.51c0.63,0.08,1.31,0.03,1.79-0.4L762.68,365.52z"/>
			</g>
			<path class="st27" d="M768.97,341.78l-7.05-0.26l0.24,0.27h-0.14l-0.29-0.29l-13.6,13.6l0.16,0.16l-2.4,2.4
				c-1.02-0.31-2.11-0.48-3.24-0.48c-5.95,0-10.77,4.65-10.77,10.38c0,5.74,4.82,10.38,10.77,10.38s10.77-4.65,10.77-10.38
				c0-1.25-0.24-2.45-0.67-3.57l3.74-3.74l-0.77-0.77l1.95-1.95l0.74,0.74l9.75-9.75l0.27,0.3l0.05-0.61l0.27-0.27l-0.23-0.23
				L768.97,341.78z"/>
			<g>
				<g>
					<path class="st28" d="M762.08,340.54l-15.88,15.88c-1.06-0.32-2.18-0.5-3.35-0.5c-6.64,0-11.98,5.61-11.51,12.36
						c0.39,5.69,5,10.3,10.69,10.69c6.74,0.46,12.36-4.87,12.36-11.51c0-1.17-0.18-2.29-0.5-3.35l3.06-3.06v-2.56h2.56l10.26-10.26
						v-7.69L762.08,340.54z M768.49,347.7l-9.51,9.51h-2.03h-1.28v1.28l0,2.03l-2.69,2.69l-0.54,0.54l0.22,0.74
						c0.29,0.97,0.44,1.97,0.44,2.98c0,5.9-5.01,10.65-10.99,10.23c-5.05-0.35-9.14-4.45-9.5-9.5c-0.42-5.98,4.33-10.99,10.23-10.99
						c1.01,0,2.01,0.15,2.98,0.44l0.73,0.22l0.54-0.54l15.51-15.51h5.88L768.49,347.7z"/>
					<circle class="st28" cx="740.19" cy="370.09" r="2.56"/>
					
						<rect x="755.26" y="348.94" transform="matrix(0.7071 -0.7071 0.7071 0.7071 -24.384 640.2841)" class="st28" width="10.88" height="1.28"/>
				</g>
			</g>
			<path class="st29" d="M766.66,340.24l-7.05-0.26l0.24,0.27h-0.14l-0.29-0.29l-13.6,13.6l0.16,0.16l-2.4,2.4
				c-1.02-0.31-2.11-0.48-3.24-0.48c-5.95,0-10.77,4.65-10.77,10.38c0,5.74,4.82,10.38,10.77,10.38s10.77-4.65,10.77-10.38
				c0-1.25-0.24-2.45-0.67-3.57l3.74-3.74l-0.77-0.77l1.95-1.95l0.74,0.74l9.75-9.75l0.27,0.3l0.05-0.61l0.27-0.27l-0.23-0.23
				L766.66,340.24z"/>
			<g>
				<path class="st14" d="M759.77,339l-15.88,15.88c-1.06-0.32-2.18-0.5-3.35-0.5c-6.64,0-11.98,5.61-11.51,12.36
					c0.39,5.69,5,10.3,10.69,10.69c6.74,0.46,12.36-4.87,12.36-11.51c0-1.17-0.18-2.29-0.5-3.35l3.06-3.06v-2.56h2.56l10.26-10.26
					l0-7.69L759.77,339z M766.18,346.16l-9.51,9.51h-2.03l-1.28,0v1.28v2.03l-2.69,2.69l-0.54,0.54l0.22,0.74
					c0.29,0.97,0.44,1.97,0.44,2.98c0,5.9-5.01,10.65-10.99,10.23c-5.05-0.35-9.14-4.45-9.5-9.5c-0.42-5.98,4.33-10.99,10.23-10.99
					c1.01,0,2.01,0.15,2.98,0.44l0.73,0.22l0.54-0.54l15.51-15.51l5.88,0V346.16z"/>
				<circle class="st14" cx="737.88" cy="368.55" r="2.56"/>
				
					<rect x="752.95" y="347.4" transform="matrix(0.7071 -0.7071 0.7071 0.7071 -23.972 638.2017)" class="st14" width="10.88" height="1.28"/>
			</g>
			<g>
				<path class="st26" d="M740.54,345.17c0.49-0.62,1.31-0.81,2.03-0.84c0.74-0.03,1.46,0.09,2.16,0.26
					c1.39,0.35,2.71,0.9,3.99,1.52c2.53,1.29,4.86,2.91,7.04,4.73c2.15,1.82,4.41,3.68,5.91,6.19c0.74,1.25,1.41,2.58,1.79,4.05
					c0.1,0.36,0.16,0.75,0.23,1.12c0.02,0.4,0.08,0.77,0.03,1.19c-0.02,0.4-0.12,0.81-0.26,1.19c-0.1,0.19-0.21,0.37-0.32,0.54
					c-0.15,0.15-0.31,0.28-0.45,0.4l-0.22-0.2c0.25-0.62,0.11-1.21-0.11-1.78c-0.2-0.57-0.52-1.12-0.85-1.66
					c-0.69-1.07-1.46-2.12-2.29-3.13c-1.68-2-3.19-4.21-5.08-6.14c-1.9-1.9-3.94-3.68-6.17-5.2c-1.11-0.75-2.28-1.44-3.51-1.94
					c-0.62-0.25-1.25-0.45-1.89-0.51c-0.63-0.08-1.31-0.03-1.79,0.4L740.54,345.17z"/>
			</g>
		</g>
		<g>
			<ellipse class="st0" cx="764.38" cy="372.56" rx="4.23" ry="4.62"/>
			<g>
				<g>
					<path class="st30" d="M768.62,366.63c0-3.15-3.38-5.7-6.62-4.15c-1.64,0.79-2.61,2.53-2.61,4.35v1.89
						c-1.23,1.39-1.84,3.33-1.39,5.41c0.5,2.35,2.42,4.22,4.78,4.68c3.94,0.76,7.38-2.24,7.38-6.03c0-1.56-0.58-2.98-1.54-4.06
						V366.63z M760.92,366.63c0-2.21,2.62-4.06,4.82-2.49c0.87,0.62,1.33,1.66,1.33,2.73v0.59c-0.91-0.52-1.95-0.83-3.08-0.83
						c-1.12,0-2.17,0.31-3.08,0.83V366.63z M763.1,376.17l-2.85-2.85l1.09-1.09l1.76,1.76l4.07-4.07l1.09,1.09L763.1,376.17z"/>
				</g>
			</g>
		</g>
	</g>
	<g>
		<g>
			<g>
				<g>
					<path class="st26" d="M889.61,191.37c-0.17,1-0.98,1.73-1.79,2.21c-0.83,0.49-1.73,0.8-2.64,1.04
						c-1.83,0.47-3.7,0.66-5.56,0.74c-3.73,0.08-7.45-0.32-11.11-1.01c-3.64-0.73-7.37-1.52-10.73-3.36
						c-1.67-0.92-3.29-1.96-4.7-3.34c-0.7-0.68-1.35-1.45-1.84-2.36c-0.23-0.46-0.43-0.94-0.51-1.47c-0.09-0.52-0.03-1.07,0.19-1.52
						l0.29,0.07c0.03,0.89,0.55,1.55,1.14,2.12c0.59,0.58,1.3,1.05,2.03,1.5c1.48,0.88,3.06,1.62,4.68,2.29
						c3.25,1.3,6.52,2.77,9.98,3.73c3.45,0.95,7.01,1.64,10.59,1.85c1.79,0.12,3.59,0.12,5.35-0.14c0.88-0.13,1.74-0.34,2.54-0.7
						c0.78-0.35,1.54-0.88,1.79-1.72L889.61,191.37z"/>
				</g>
				<polygon class="st0" points="882.78,177.94 882.78,205.48 859.07,205.48 859.07,168.76 872.84,168.76 872.84,177.94 				"/>
				<path class="st14" d="M873.3,168h-1.27H858v38.25h25.5v-26.77v-1.27L873.3,168z M882.23,204.97h-22.95v-35.7h12.75v10.2h10.2
					V204.97z"/>
				<rect x="863.1" y="183.3" class="st14" width="15.3" height="1.27"/>
				<rect x="863.1" y="185.85" class="st14" width="15.3" height="1.27"/>
				<rect x="863.1" y="188.4" class="st14" width="7.65" height="1.27"/>
			</g>
		</g>
		<g>
			<path class="st26" d="M850.93,182.3c0.17-1,0.98-1.73,1.79-2.21c0.83-0.49,1.73-0.8,2.64-1.04c1.83-0.47,3.7-0.66,5.56-0.74
				c3.73-0.08,7.45,0.32,11.11,1.01c3.64,0.73,7.37,1.52,10.73,3.36c1.67,0.92,3.29,1.96,4.7,3.34c0.7,0.68,1.35,1.45,1.84,2.36
				c0.23,0.46,0.43,0.94,0.51,1.47c0.09,0.52,0.03,1.07-0.19,1.52l-0.29-0.07c-0.03-0.89-0.55-1.55-1.14-2.12
				c-0.59-0.58-1.3-1.05-2.03-1.5c-1.48-0.88-3.06-1.62-4.68-2.29c-3.25-1.3-6.52-2.77-9.98-3.73c-3.45-0.95-7.01-1.64-10.59-1.85
				c-1.79-0.12-3.59-0.12-5.35,0.14c-0.88,0.13-1.74,0.34-2.54,0.7c-0.78,0.35-1.54,0.88-1.79,1.72L850.93,182.3z"/>
		</g>
		<ellipse class="st0" cx="879.34" cy="201.66" rx="4.21" ry="4.59"/>
		<g>
			<g>
				<g>
					<path class="st30" d="M883.85,195.76c0-3.13-3.36-5.67-6.58-4.12c-1.63,0.78-2.6,2.51-2.6,4.32v1.88
						c-1.22,1.38-1.83,3.31-1.39,5.38c0.5,2.34,2.41,4.2,4.75,4.66c3.92,0.76,7.34-2.22,7.34-6c0-1.55-0.58-2.96-1.53-4.04V195.76z
						 M876.2,195.76c0-2.2,2.61-4.04,4.8-2.48c0.86,0.62,1.32,1.65,1.32,2.71v0.59c-0.9-0.52-1.94-0.83-3.06-0.83
						c-1.12,0-2.16,0.3-3.06,0.83V195.76z M878.36,205.26l-2.84-2.84l1.08-1.08l1.75,1.75l4.05-4.05l1.08,1.08L878.36,205.26z"/>
				</g>
			</g>
		</g>
	</g>
	<g>
		<g>
			<g>
				<g>
					<path class="st26" d="M889.61,362.37c-0.17,1-0.98,1.73-1.79,2.21c-0.83,0.49-1.73,0.8-2.64,1.04
						c-1.83,0.47-3.7,0.66-5.56,0.74c-3.73,0.08-7.45-0.32-11.11-1.01c-3.64-0.73-7.37-1.52-10.73-3.36
						c-1.67-0.92-3.29-1.96-4.7-3.34c-0.7-0.68-1.35-1.45-1.84-2.36c-0.23-0.46-0.43-0.94-0.51-1.47c-0.09-0.52-0.03-1.07,0.19-1.52
						l0.29,0.07c0.03,0.89,0.55,1.55,1.14,2.12c0.59,0.58,1.3,1.05,2.03,1.5c1.48,0.88,3.06,1.62,4.68,2.29
						c3.25,1.3,6.52,2.77,9.98,3.73c3.45,0.95,7.01,1.64,10.59,1.85c1.79,0.12,3.59,0.12,5.35-0.14c0.88-0.13,1.74-0.34,2.54-0.7
						c0.78-0.35,1.54-0.88,1.79-1.72L889.61,362.37z"/>
				</g>
				<polygon class="st0" points="882.78,348.94 882.78,376.48 859.07,376.48 859.07,339.76 872.84,339.76 872.84,348.94 				"/>
				<path class="st14" d="M873.3,339h-1.27H858v38.25h25.5v-26.77v-1.27L873.3,339z M882.23,375.97h-22.95v-35.7h12.75v10.2h10.2
					V375.97z"/>
				<rect x="863.1" y="354.3" class="st14" width="15.3" height="1.27"/>
				<rect x="863.1" y="356.85" class="st14" width="15.3" height="1.27"/>
				<rect x="863.1" y="359.4" class="st14" width="7.65" height="1.27"/>
			</g>
		</g>
		<g>
			<path class="st26" d="M850.93,353.3c0.17-1,0.98-1.73,1.79-2.21c0.83-0.49,1.73-0.8,2.64-1.04c1.83-0.47,3.7-0.66,5.56-0.74
				c3.73-0.08,7.45,0.32,11.11,1.01c3.64,0.73,7.37,1.52,10.73,3.36c1.67,0.92,3.29,1.96,4.7,3.34c0.7,0.68,1.35,1.45,1.84,2.36
				c0.23,0.46,0.43,0.94,0.51,1.47c0.09,0.52,0.03,1.07-0.19,1.52l-0.29-0.07c-0.03-0.89-0.55-1.55-1.14-2.12
				c-0.59-0.58-1.3-1.05-2.03-1.5c-1.48-0.88-3.06-1.62-4.68-2.29c-3.25-1.3-6.52-2.77-9.98-3.73c-3.45-0.95-7.01-1.64-10.59-1.85
				c-1.79-0.12-3.59-0.12-5.35,0.14c-0.88,0.13-1.74,0.34-2.54,0.7c-0.78,0.35-1.54,0.88-1.79,1.72L850.93,353.3z"/>
		</g>
		<ellipse class="st0" cx="879.34" cy="372.66" rx="4.21" ry="4.59"/>
		<g>
			<g>
				<g>
					<path class="st30" d="M883.85,366.76c0-3.13-3.36-5.67-6.58-4.12c-1.63,0.78-2.6,2.51-2.6,4.32v1.88
						c-1.22,1.38-1.83,3.31-1.39,5.38c0.5,2.34,2.41,4.2,4.75,4.66c3.92,0.76,7.34-2.22,7.34-6c0-1.55-0.58-2.96-1.53-4.04V366.76z
						 M876.2,366.76c0-2.2,2.61-4.04,4.8-2.48c0.86,0.62,1.32,1.65,1.32,2.71v0.59c-0.9-0.52-1.94-0.83-3.06-0.83
						c-1.12,0-2.16,0.3-3.06,0.83V366.76z M878.36,376.26l-2.84-2.84l1.08-1.08l1.75,1.75l4.05-4.05l1.08,1.08L878.36,376.26z"/>
				</g>
			</g>
		</g>
	</g>
</g>
<g id="Text">
	<text transform="matrix(1 0 0 1 846.525 403.8958)"><tspan x="0" y="0" class="st31 st32">Wrapped </tspan><tspan x="12.75" y="13.2" class="st31 st32">data</tspan></text>
	<text transform="matrix(1 0 0 1 714.8393 403.8958)"><tspan x="0" y="0" class="st31 st32">Wrapped data</tspan><tspan x="-1.6" y="13.2" class="st31 st32">encryption key</tspan></text>
	<text transform="matrix(1 0 0 1 699.7173 320.3755)" class="st33 st34">Service B</text>
	<text transform="matrix(1 0 0 1 846.525 232.8958)"><tspan x="0" y="0" class="st31 st32">Wrapped </tspan><tspan x="12.75" y="13.2" class="st31 st32">data</tspan></text>
	<text transform="matrix(1 0 0 1 714.8393 232.8958)"><tspan x="0" y="0" class="st31 st32">Wrapped data</tspan><tspan x="-1.6" y="13.2" class="st31 st32">encryption key</tspan></text>
	<text transform="matrix(1 0 0 1 699.7173 149.3755)" class="st33 st34">Service A</text>
	<text transform="matrix(1 0 0 1 460.6123 430.3984)"><tspan x="0" y="0" class="st31 st32">Wrap your data encryption</tspan><tspan x="0" y="13.2" class="st31 st32">keys with an added layer</tspan><tspan x="0" y="26.4" class="st31 st32">of security</tspan></text>
	<text transform="matrix(1 0 0 1 466.4571 296.467)"><tspan x="0" y="0" class="st33 st32">FIPS 140-2 Level 3</tspan><tspan x="0" y="13.2" class="st31 st32">Hardware security module</tspan></text>
	<text transform="matrix(1 0 0 1 554.1525 221.8957)"><tspan x="0" y="0" class="st31 st32">Root key</tspan><tspan x="43.14" y="0" class="st35 st32"> C</tspan></text>
	<text id="Root_key_B" transform="matrix(1 0 0 1 472.5016 221.8958)"><tspan x="0" y="0" class="st31 st32">Root key </tspan><tspan x="45.74" y="0" class="st35 st32">B</tspan></text>
	<text transform="matrix(1 0 0 1 391.7093 221.8958)"><tspan x="0" y="0" class="st31 st32">Root key</tspan><tspan x="43.14" y="0" class="st35 st32"> A</tspan></text>
	<text transform="matrix(1 0 0 1 379.7173 149.3755)" class="st33 st34">Key Protect</text>
	<text transform="matrix(1 0 0 1 364.7173 107.3755)" class="st33 st34">IBM Cloud</text>
	<text transform="matrix(1 0 0 1 203.6123 205.3984)" class="st31 st32">Add root keys</text>
	<text transform="matrix(1 0 0 1 52.2823 221.8958)" class="st31 st32">Your enterprise</text>
	<text transform="matrix(1 0 0 1 49 63)" class="st36 st35 st37">Integrating services with Key Protect</text>
	<g>
		<g>
			<path class="st38" d="M487.37,178.44c-5.15,0-9.33,4.18-9.33,9.33c0,5.15,4.18,9.33,9.33,9.33c3.72,0,6.92-2.18,8.42-5.33h4.91
				l0.67-1.33l0.67,0.67l0.67,0.67h12.67l4-4l-4-4h-14h-5.58C494.3,180.63,491.09,178.44,487.37,178.44"/>
		</g>
		<g>
			<g>
				<path class="st28" d="M515.82,183.29l-19.47,0c-0.45-0.85-1.03-1.64-1.75-2.36c-4.07-4.07-10.78-3.9-14.63,0.52
					c-3.25,3.73-3.25,9.38,0,13.1c3.85,4.42,10.55,4.59,14.63,0.52c0.71-0.71,1.29-1.51,1.75-2.36l3.75,0l1.57-1.57l1.57,1.57
					l12.57,0l4.71-4.71L515.82,183.29z M515.36,191.6l-11.65,0l-1.25-1.25l-0.79-0.79l-0.79,0.79l-1.25,1.25l-3.29,0h-0.67
					l-0.31,0.59c-0.41,0.77-0.94,1.48-1.55,2.1c-3.61,3.61-9.59,3.46-13-0.47c-2.88-3.31-2.88-8.33,0-11.64
					c3.41-3.92,9.39-4.08,13-0.46c0.62,0.62,1.14,1.32,1.55,2.09l0.31,0.59h0.67l19.01,0l3.6,3.6L515.36,191.6z"/>
				<circle class="st28" cx="484.3" cy="187.98" r="2.22"/>
				<rect x="504.72" y="187.43" class="st28" width="9.43" height="1.11"/>
			</g>
		</g>
	</g>
	<g>
		<g>
			<path class="st38" d="M406.68,178.44c-5.15,0-9.33,4.18-9.33,9.33c0,5.15,4.18,9.33,9.33,9.33c3.72,0,6.92-2.18,8.42-5.33h4.91
				l0.67-1.33l0.67,0.67l0.67,0.67h12.67l4-4l-4-4h-14h-5.58C413.6,180.63,410.4,178.44,406.68,178.44"/>
		</g>
		<g>
			<g>
				<path class="st28" d="M435.13,183.29l-19.47,0c-0.45-0.85-1.03-1.64-1.75-2.36c-4.07-4.07-10.78-3.9-14.63,0.52
					c-3.25,3.73-3.25,9.38,0,13.1c3.85,4.42,10.55,4.59,14.63,0.52c0.71-0.71,1.29-1.51,1.75-2.36l3.75,0l1.57-1.57l1.57,1.57
					l12.57,0l4.71-4.71L435.13,183.29z M434.67,191.6l-11.65,0l-1.25-1.25l-0.79-0.79l-0.79,0.79l-1.25,1.25l-3.29,0h-0.67
					l-0.31,0.59c-0.41,0.77-0.94,1.48-1.55,2.1c-3.61,3.61-9.59,3.46-13-0.47c-2.88-3.31-2.88-8.33,0-11.64
					c3.41-3.92,9.39-4.08,13-0.46c0.62,0.62,1.14,1.32,1.55,2.09l0.31,0.59h0.67l19.01,0l3.6,3.6L434.67,191.6z"/>
				<circle class="st28" cx="403.6" cy="187.98" r="2.22"/>
				<rect x="424.03" y="187.43" class="st28" width="9.43" height="1.11"/>
			</g>
		</g>
	</g>
	<g>
		<g>
			<path class="st38" d="M568.93,178.44c-5.15,0-9.33,4.18-9.33,9.33c0,5.15,4.18,9.33,9.33,9.33c3.72,0,6.92-2.18,8.42-5.33h4.91
				l0.67-1.33l0.67,0.67l0.67,0.67h12.67l4-4l-4-4h-14h-5.58C575.86,180.63,572.66,178.44,568.93,178.44"/>
		</g>
		<g>
			<g>
				<path class="st28" d="M597.38,183.29l-19.47,0c-0.45-0.85-1.03-1.64-1.75-2.36c-4.07-4.07-10.78-3.9-14.63,0.52
					c-3.25,3.73-3.25,9.38,0,13.1c3.85,4.42,10.55,4.59,14.63,0.52c0.71-0.71,1.29-1.51,1.75-2.36l3.75,0l1.57-1.57l1.57,1.57
					l12.57,0l4.71-4.71L597.38,183.29z M596.92,191.6l-11.65,0l-1.25-1.25l-0.79-0.79l-0.79,0.79l-1.25,1.25l-3.29,0h-0.67
					l-0.31,0.59c-0.41,0.77-0.94,1.48-1.55,2.1c-3.61,3.61-9.59,3.46-13-0.47c-2.88-3.31-2.88-8.33,0-11.64
					c3.41-3.92,9.39-4.08,13-0.46c0.62,0.62,1.14,1.32,1.55,2.09l0.31,0.59h0.67l19.01,0l3.6,3.6L596.92,191.6z"/>
				<circle class="st28" cx="565.86" cy="187.98" r="2.22"/>
				<rect x="586.29" y="187.43" class="st28" width="9.43" height="1.11"/>
			</g>
		</g>
	</g>
</g>
</svg>
