<svg xmlns="http://www.w3.org/2000/svg" viewBox="0 0 1000 550"><defs><clipPath id="a"><path fill="none" d="M851 339h38.54v40H851z"/></clipPath><clipPath id="b"><path fill="none" d="M396.85 178h42.99v20h-42.99z"/></clipPath><clipPath id="c"><path fill="none" d="M397.35 178.44h41.33v18.67h-41.33z"/></clipPath><clipPath id="d"><path fill="none" d="M477.54 178h42.99v20h-42.99z"/></clipPath><clipPath id="e"><path fill="none" d="M478.04 178.44h41.33v18.67h-41.33z"/></clipPath><clipPath id="f"><path fill="none" d="M559.11 178h42.99v20h-42.99z"/></clipPath><clipPath id="g"><path fill="none" d="M559.6 178.44h41.33v18.67H559.6z"/></clipPath><clipPath id="h"><path fill="none" d="M729 168h41.15v40H729z"/></clipPath><clipPath id="i"><path fill="none" d="M729 339h41.15v40H729z"/></clipPath><clipPath id="j"><path fill="none" d="M851 168h38.54v40H851z"/></clipPath></defs><g data-name="Visual"><path fill="#fff" d="M340.5 83.5h609v416h-609z"/><path fill="none" stroke="#d8d8d8" stroke-miterlimit="10" d="M949.5 498v1.5H948"/><path fill="none" stroke="#d8d8d8" stroke-miterlimit="10" stroke-dasharray="3 2" d="M946 499.5H343"/><path fill="none" stroke="#d8d8d8" stroke-miterlimit="10" d="M342 499.5h-1.5V498"/><path fill="none" stroke="#d8d8d8" stroke-miterlimit="10" stroke-dasharray="3.01 2" d="M340.5 496V86"/><path fill="none" stroke="#d8d8d8" stroke-miterlimit="10" d="M340.5 85v-1.5h1.5"/><path fill="none" stroke="#d8d8d8" stroke-miterlimit="10" stroke-dasharray="3 2" d="M344 83.5h603"/><path fill="none" stroke="#d8d8d8" stroke-miterlimit="10" d="M948 83.5h1.5V85"/><path fill="none" stroke="#d8d8d8" stroke-miterlimit="10" stroke-dasharray="3.01 2" d="M949.5 87v410"/><path fill="#eaeaea" d="M683.5 294.5h249v150h-249z"/><path fill="none" stroke="#000f5e" stroke-miterlimit="10" d="M932.5 443v1.5H931"/><path fill="none" stroke="#000f5e" stroke-miterlimit="10" stroke-dasharray="2.99 1.99" d="M929.01 444.5H686"/><path fill="none" stroke="#000f5e" stroke-miterlimit="10" d="M685 444.5h-1.5V443"/><path fill="none" stroke="#000f5e" stroke-miterlimit="10" stroke-dasharray="3 2" d="M683.5 441V297"/><path fill="none" stroke="#000f5e" stroke-miterlimit="10" d="M683.5 296v-1.5h1.5"/><path fill="none" stroke="#000f5e" stroke-miterlimit="10" stroke-dasharray="2.99 1.99" d="M686.99 294.5H930"/><path fill="none" stroke="#000f5e" stroke-miterlimit="10" d="M931 294.5h1.5v1.5"/><path fill="none" stroke="#000f5e" stroke-miterlimit="10" stroke-dasharray="3 2" d="M932.5 298v144"/><path fill="#eaeaea" d="M683.5 123.5h249v150h-249z"/><path fill="none" stroke="#000f5e" stroke-miterlimit="10" d="M932.5 272v1.5H931"/><path fill="none" stroke="#000f5e" stroke-miterlimit="10" stroke-dasharray="2.99 1.99" d="M929.01 273.5H686"/><path fill="none" stroke="#000f5e" stroke-miterlimit="10" d="M685 273.5h-1.5V272"/><path fill="none" stroke="#000f5e" stroke-miterlimit="10" stroke-dasharray="3 2" d="M683.5 270V126"/><path fill="none" stroke="#000f5e" stroke-miterlimit="10" d="M683.5 125v-1.5h1.5"/><path fill="none" stroke="#000f5e" stroke-miterlimit="10" stroke-dasharray="2.99 1.99" d="M686.99 123.5H930"/><path fill="none" stroke="#000f5e" stroke-miterlimit="10" d="M931 123.5h1.5v1.5"/><path fill="none" stroke="#000f5e" stroke-miterlimit="10" stroke-dasharray="3 2" d="M932.5 127v144"/><path fill="#edf5ff" d="M363.5 123.5h276v234h-276z"/><path fill="none" stroke="#000f5e" stroke-miterlimit="10" d="M639.5 356v1.5H638"/><path fill="none" stroke="#000f5e" stroke-miterlimit="10" stroke-dasharray="3.01 2.01" d="M635.99 357.5H366"/><path fill="none" stroke="#000f5e" stroke-miterlimit="10" d="M365 357.5h-1.5V356"/><path fill="none" stroke="#000f5e" stroke-miterlimit="10" stroke-dasharray="2.99 1.99" d="M363.5 354.01V126"/><path fill="none" stroke="#000f5e" stroke-miterlimit="10" d="M363.5 125v-1.5h1.5"/><path fill="none" stroke="#000f5e" stroke-miterlimit="10" stroke-dasharray="3.01 2.01" d="M367.01 123.5H637"/><path fill="none" stroke="#000f5e" stroke-miterlimit="10" d="M638 123.5h1.5v1.5"/><path fill="none" stroke="#000f5e" stroke-miterlimit="10" stroke-dasharray="2.99 1.99" d="M639.5 126.99V355"/><path d="M442 408h180v54.49A10.51 10.51 0 0 1 611.49 473h-159A10.51 10.51 0 0 1 442 462.49V408zM185 183h141v23.49A10.51 10.51 0 0 1 315.49 217h-120A10.51 10.51 0 0 1 185 206.49V183z" fill="#b380e0" opacity=".15"/><path fill="none" stroke="#000f5e" stroke-miterlimit="10" d="M371.82 183.25H152.05"/><path fill="#000f5e" d="M370.37 178.26l8.63 4.99-8.63 4.99v-9.98z"/><circle cx="152.26" cy="183.25" r="3.76" fill="#fff"/><path d="M152.26 179a4.26 4.26 0 1 1-4.26 4.26 4.26 4.26 0 0 1 4.26-4.26zm0 7.52a3.26 3.26 0 1 0-3.26-3.26 3.26 3.26 0 0 0 3.26 3.26z" fill="#000f5e"/><path fill="none" stroke="#a71c71" stroke-miterlimit="10" d="M708 199.5h-44.5v208h-248V236.07"/><path fill="#a71c71" d="M707.5 196.25h1v6.5h-1z"/><circle cx="415.5" cy="236.26" r="3.76" fill="#a71c71"/><path fill="none" stroke="#a71c71" stroke-miterlimit="10" d="M664 366.5h44.5"/><path fill="#a71c71" d="M708 363.25h1v6.5h-1z"/><path fill="#c5deff" stroke="#000f5e" stroke-miterlimit="10" stroke-dasharray="3 2" d="M379.5 260.5V339h243v-78.5h-243z"/><g data-name="Hardware security module"><g data-name="HSM"><g data-name="&lt;Rectangle&gt;"><path fill="#ede9e7" d="M394.1 296.8h48.5v12.79h-48.5z"/><path d="M441.85 297.55v11.29h-47v-11.29h47m1.5-1.5h-50v14.29h50v-14.29z" fill="#23292e"/></g><g data-name="&lt;Group&gt;" fill="#23292e"><path data-name="&lt;Rectangle&gt;" d="M416.09 301.95h21.52v2.9h-21.52z"/><circle data-name="&lt;Path&gt;" cx="410.8" cy="303.39" r="1.71"/><circle data-name="&lt;Path&gt;" cx="405.42" cy="303.39" r="1.71"/><circle data-name="&lt;Path&gt;" cx="400.03" cy="303.39" r="1.71"/></g><path fill="#a8a3a3" d="M394.56 295.3l2.74-5.4h41.53l3.2 5.4h-47.47z"/><path d="M438.4 290.65l2.31 3.91h-44.92l2-3.91h40.61m.85-1.5h-42.41l-3.49 6.91h50l-4.09-6.91z" fill="#23292e"/></g></g><g clip-path="url(#a)" data-name="Wrapped data"><path d="M889.43 352.73a3.39 3.39 0 0 1-.56 2.74 10.32 10.32 0 0 1-1.85 2.12 26.17 26.17 0 0 1-4.57 3.2 53 53 0 0 1-10.27 4.21 39.71 39.71 0 0 1-11 2 22 22 0 0 1-5.66-.62 9.7 9.7 0 0 1-2.7-1.11 4.93 4.93 0 0 1-1.14-1 2.54 2.54 0 0 1-.59-1.37l.22-.06a3.14 3.14 0 0 0 2 1.47 11 11 0 0 0 2.53.47 32.66 32.66 0 0 0 5.27-.08 79.3 79.3 0 0 0 10.62-1.5 51.43 51.43 0 0 0 10.21-3.48 25.22 25.22 0 0 0 4.64-2.72 9.76 9.76 0 0 0 1.9-1.85 3 3 0 0 0 .74-2.41z" fill="#efc100"/><path fill="#fff" d="M882.78 348.94v27.54h-23.71v-36.72h13.77v9.18h9.94z"/><path d="M873.3 339H858v38.25h25.5v-28zm8.92 37h-22.94v-35.7H872v10.2h10.2z" fill="#000f5e"/><path fill="#000f5e" d="M863.1 354.3h15.3v1.28h-15.3zM863.1 356.85h15.3v1.28h-15.3zM863.1 359.4h7.65v1.28h-7.65z"/><path d="M851.11 362.95a3.39 3.39 0 0 1 .56-2.74 10.33 10.33 0 0 1 1.85-2.12 26.13 26.13 0 0 1 4.57-3.2 52.92 52.92 0 0 1 10.27-4.23 39.71 39.71 0 0 1 11-2 22 22 0 0 1 5.66.62 9.71 9.71 0 0 1 2.7 1.11 4.93 4.93 0 0 1 1.14 1 2.54 2.54 0 0 1 .59 1.37l-.22.06a3.14 3.14 0 0 0-2-1.47 11 11 0 0 0-2.53-.47 32.65 32.65 0 0 0-5.27.08 79.28 79.28 0 0 0-10.62 1.5 51.47 51.47 0 0 0-10.21 3.48 25.27 25.27 0 0 0-4.64 2.72 9.76 9.76 0 0 0-1.9 1.85 3 3 0 0 0-.74 2.41z" fill="#efc100"/><path d="M883.55 372.66a4.22 4.22 0 1 1-4.21-4.59 4.41 4.41 0 0 1 4.21 4.59" fill="#fff"/><path d="M883.85 366.76a4.61 4.61 0 0 0-6.58-4.12 4.76 4.76 0 0 0-2.59 4.32v1.88a6.12 6.12 0 1 0 9.18 0zm-7.65 0a3 3 0 0 1 4.8-2.48 3.31 3.31 0 0 1 1.32 2.71v.59a6.08 6.08 0 0 0-6.12 0zm2.16 9.5l-2.84-2.84 1.08-1.08 1.75 1.75 4-4 1.08 1.08z" fill="#5aa700"/></g><g clip-path="url(#b)" data-name="Root key"><g clip-path="url(#c)" opacity=".65"><path d="M434.68 183.78H415.1a9.33 9.33 0 1 0 0 8h4.9v-1.33h2v1.33h12.67l4-4z" fill="#b380e0"/></g><path d="M435.13 183.29h-19.47a10 10 0 1 0 0 9.43h3.75l1.57-1.57 1.57 1.57h12.57l4.71-4.71zm-.46 8.32H423l-1.25-1.25-.79-.79-.79.79-1.17 1.24h-4l-.31.59a8.89 8.89 0 1 1 0-8.38l.31.59h19.67l3.6 3.6z" fill="#6e177d"/><path d="M405.17 186.41a2.22 2.22 0 1 1-3.14 0 2.22 2.22 0 0 1 3.14 0M424.03 187.43h9.43v1.11h-9.43z" fill="#6e177d"/></g><g clip-path="url(#d)" data-name="Root key"><g clip-path="url(#e)" opacity=".65"><path d="M515.37 183.78H495.8a9.33 9.33 0 1 0 0 8h4.91v-1.33h2v1.33h12.67l4-4z" fill="#b380e0"/></g><path d="M515.82 183.29h-19.47a10 10 0 1 0 0 9.43h3.75l1.57-1.57 1.57 1.57h12.57l4.71-4.71zm-.46 8.32h-11.65l-1.25-1.25-.79-.79-.79.79-1.25 1.25h-4l-.31.59a8.89 8.89 0 1 1 0-8.38l.31.59h19.67L519 188z" fill="#6e177d"/><path d="M485.87 186.41a2.22 2.22 0 1 1-3.14 0 2.22 2.22 0 0 1 3.14 0M504.72 187.43h9.43v1.11h-9.43z" fill="#6e177d"/></g><g clip-path="url(#f)" data-name="Root key"><g clip-path="url(#g)" opacity=".65"><path d="M596.94 183.78h-19.58a9.33 9.33 0 1 0 0 8h4.91v-1.33h2v1.33h12.67l4-4z" fill="#b380e0"/></g><path d="M597.38 183.29h-19.46a10 10 0 1 0 0 9.43h3.75l1.57-1.57 1.57 1.57h12.57l4.72-4.72zm-.46 8.32h-11.65l-1.27-1.25-.79-.79-.79.79-1.25 1.25h-4l-.31.59a8.89 8.89 0 1 1 0-8.38l.31.59h19.67l3.6 3.6z" fill="#6e177d"/><path d="M567.43 186.41a2.22 2.22 0 1 1-3.14 0 2.22 2.22 0 0 1 3.14 0M586.29 187.43h9.43v1.11h-9.43z" fill="#6e177d"/></g><path fill="#69a6ff" stroke="#000f5e" stroke-miterlimit="10" stroke-width="2" d="M59 168.49h69v31H59z"/><path fill="#edf5ff" stroke="#000f5e" stroke-miterlimit="10" stroke-width="2" d="M58.5 146.49v49.16l-5.63 3.84H94.5v-53h-36z"/><path fill="none" stroke="#000f5e" stroke-miterlimit="10" stroke-width="2" d="M77 133.44v13"/><path fill="#003bc9" stroke="#000f5e" stroke-miterlimit="10" stroke-width="2" d="M67 187.44h21v12H67z"/><path fill="none" stroke="#000f5e" stroke-miterlimit="10" stroke-width="2" d="M74 188.44v11M77 193.44v2M100 176.44h23M100 180.44h23M100 184.44h23M66 155.44h23M66 159.44h23M66 163.44h23M66 167.44h23"/><g clip-path="url(#h)" data-name="Wrapped DEK"><path d="M762.65 194.5a2.57 2.57 0 0 1-2 .79 6.66 6.66 0 0 1-1.08-.07c-.35-.08-.71-.12-1-.22a20.25 20.25 0 0 1-3.93-1.57 40.78 40.78 0 0 1-6.94-4.78c-1.07-.92-2.13-1.85-3.13-2.86a20 20 0 0 1-2.68-3.33 16.23 16.23 0 0 1-1.84-3.95 10.77 10.77 0 0 1-.25-1.09 6.94 6.94 0 0 1-.07-1.15 4 4 0 0 1 .2-1.15q.14-.28.28-.53c.14-.15.28-.28.41-.41l.17.16a2.32 2.32 0 0 0 0 1.82 8.39 8.39 0 0 0 .78 1.73 28.31 28.31 0 0 0 2.23 3.24 75.56 75.56 0 0 0 5.18 6.15 39.29 39.29 0 0 0 6.27 5.14 19.27 19.27 0 0 0 3.57 1.89c.31.13.63.21 1 .31a6.25 6.25 0 0 0 1 .17 2.22 2.22 0 0 0 1.82-.45z" fill="#efc100"/><path d="M769 170.78l-7.05-.26.24.27H762l-.29-.29-13.6 13.6.16.16-2.4 2.4a11.1 11.1 0 0 0-3.24-.48 10.39 10.39 0 1 0 10.77 10.38 10 10 0 0 0-.67-3.57l3.74-3.74-.77-.77 1.95-1.95.74.74 9.75-9.75.27.3v-.61l.27-.27-.23-.23z" fill="#cba9e6"/><path d="M762.08 169.54l-15.88 15.88a11.54 11.54 0 1 0 7.69 7.69l3.06-3.06v-2.56h2.56l10.26-10.26v-7.69zm6.41 7.16l-9.5 9.5h-3.32v3.32l-2.67 2.69-.54.54.22.74a10.27 10.27 0 1 1-6.84-6.84l.73.22.54-.54 15.51-15.51h5.88z" fill="#6e177d"/><path d="M740.19 196.52a2.56 2.56 0 1 1-2.56 2.56 2.56 2.56 0 0 1 2.56-2.56M756.395 181.966l7.693-7.693.905.905-7.693 7.693z" fill="#6e177d"/><path d="M766.66 169.24l-7.05-.26.24.27h-.14l-.29-.29-13.6 13.6.16.16-2.4 2.4a11.1 11.1 0 0 0-3.24-.48A10.39 10.39 0 1 0 751.12 195a10 10 0 0 0-.67-3.57l3.74-3.74-.77-.77 1.95-1.95.74.74 9.75-9.75.27.3v-.61l.27-.27-.23-.23z" fill="#9bc1fa"/><path d="M759.77 168l-15.88 15.88a11.54 11.54 0 1 0 7.69 7.69l3.06-3.06v-2.56h2.56l10.26-10.26V168zm6.41 7.16l-9.5 9.5h-3.32V188l-2.69 2.69-.54.54.22.74a10.27 10.27 0 1 1-6.84-6.84l.73.22.54-.54 15.51-15.51h5.88z" fill="#000f5e"/><path d="M737.88 195a2.56 2.56 0 1 1-2.56 2.56 2.56 2.56 0 0 1 2.56-2.56M754.097 180.43l7.693-7.693.905.905-7.693 7.694z" fill="#000f5e"/><path d="M740.57 174.19a2.57 2.57 0 0 1 2-.79 6.65 6.65 0 0 1 1.08.07c.35.08.71.12 1 .22a20.23 20.23 0 0 1 3.93 1.57 40.79 40.79 0 0 1 6.94 4.78c1.07.92 2.13 1.85 3.13 2.86a19.93 19.93 0 0 1 2.68 3.33 16.24 16.24 0 0 1 1.84 3.95 10.77 10.77 0 0 1 .25 1.09 6.94 6.94 0 0 1 .07 1.15 4 4 0 0 1-.2 1.15c-.09.19-.19.36-.28.53s-.28.28-.42.41l-.17-.16a2.32 2.32 0 0 0 0-1.82 8.41 8.41 0 0 0-.78-1.73 28.22 28.22 0 0 0-2.23-3.24 75.55 75.55 0 0 0-5.18-6.15 39.29 39.29 0 0 0-6.27-5.14 19.29 19.29 0 0 0-3.57-1.89c-.31-.13-.63-.21-1-.31a6.24 6.24 0 0 0-1-.17 2.22 2.22 0 0 0-1.82.45z" fill="#efc100"/><path d="M768.62 201.56a4.25 4.25 0 1 1-4.23-4.62 4.44 4.44 0 0 1 4.23 4.62" fill="#fff"/><path d="M768.62 195.63a4.63 4.63 0 0 0-6.62-4.15 4.79 4.79 0 0 0-2.61 4.35v1.89a6.15 6.15 0 1 0 9.23 0zm-7.69 0a3.07 3.07 0 0 1 4.82-2.49 3.33 3.33 0 0 1 1.33 2.73v.59a6.12 6.12 0 0 0-6.15 0zm2.17 9.55l-2.85-2.85 1.09-1.09 1.76 1.76 4.07-4.07 1.09 1.09z" fill="#5aa700"/></g><g clip-path="url(#i)" data-name="Wrapped DEK"><path d="M762.65 365.5a2.57 2.57 0 0 1-2 .79 6.66 6.66 0 0 1-1.08-.07c-.35-.08-.71-.12-1-.22a20.25 20.25 0 0 1-3.93-1.57 40.78 40.78 0 0 1-6.94-4.78c-1.07-.92-2.13-1.85-3.13-2.86a20 20 0 0 1-2.68-3.33 16.23 16.23 0 0 1-1.84-3.95 10.77 10.77 0 0 1-.25-1.09 6.94 6.94 0 0 1-.07-1.15 4 4 0 0 1 .2-1.15q.14-.28.28-.53c.14-.15.28-.28.41-.41l.17.16a2.32 2.32 0 0 0 0 1.82 8.39 8.39 0 0 0 .78 1.73 28.31 28.31 0 0 0 2.23 3.24 75.56 75.56 0 0 0 5.18 6.15 39.29 39.29 0 0 0 6.27 5.14 19.27 19.27 0 0 0 3.57 1.89c.31.13.63.21 1 .31a6.25 6.25 0 0 0 1 .17 2.22 2.22 0 0 0 1.82-.45z" fill="#efc100"/><path d="M769 341.78l-7.05-.26.24.27H762l-.29-.29-13.6 13.6.16.16-2.4 2.4a11.1 11.1 0 0 0-3.24-.48 10.39 10.39 0 1 0 10.77 10.38 10 10 0 0 0-.67-3.57l3.74-3.74-.77-.77 1.95-1.95.74.74 9.75-9.75.27.3v-.61l.27-.27-.23-.23z" fill="#cba9e6"/><path d="M762.08 340.54l-15.88 15.88a11.54 11.54 0 1 0 7.69 7.69l3.06-3.06v-2.56h2.56l10.26-10.26v-7.69zm6.41 7.16l-9.5 9.5h-3.32v3.32l-2.67 2.69-.54.54.22.74a10.27 10.27 0 1 1-6.84-6.84l.73.22.54-.54 15.51-15.51h5.88z" fill="#6e177d"/><path d="M740.19 367.52a2.56 2.56 0 1 1-2.56 2.56 2.56 2.56 0 0 1 2.56-2.56M756.4 352.971l7.694-7.693.905.905-7.694 7.693z" fill="#6e177d"/><path d="M766.66 340.24l-7.05-.26.24.27h-.14l-.29-.29-13.6 13.6.16.16-2.4 2.4a11.1 11.1 0 0 0-3.24-.48A10.39 10.39 0 1 0 751.12 366a10 10 0 0 0-.67-3.57l3.74-3.74-.77-.77 1.95-1.95.74.74 9.75-9.75.27.3v-.61l.27-.27-.23-.23z" fill="#9bc1fa"/><path d="M759.77 339l-15.88 15.88a11.54 11.54 0 1 0 7.69 7.69l3.06-3.06v-2.56h2.56l10.26-10.26V339zm6.41 7.16l-9.5 9.5h-3.32V359l-2.69 2.69-.54.54.22.74a10.27 10.27 0 1 1-6.84-6.84l.73.22.54-.54 15.51-15.51h5.88z" fill="#000f5e"/><path d="M737.88 366a2.56 2.56 0 1 1-2.56 2.56 2.56 2.56 0 0 1 2.56-2.56M754.102 351.426l7.693-7.694.905.906-7.693 7.693z" fill="#000f5e"/><path d="M740.57 345.19a2.57 2.57 0 0 1 2-.79 6.65 6.65 0 0 1 1.08.07c.35.08.71.12 1 .22a20.23 20.23 0 0 1 3.93 1.57 40.79 40.79 0 0 1 6.94 4.78c1.07.92 2.13 1.85 3.13 2.86a19.93 19.93 0 0 1 2.68 3.33 16.24 16.24 0 0 1 1.84 3.95 10.77 10.77 0 0 1 .25 1.09 6.94 6.94 0 0 1 .07 1.15 4 4 0 0 1-.2 1.15c-.09.19-.19.36-.28.53s-.28.28-.42.41l-.17-.16a2.32 2.32 0 0 0 0-1.82 8.41 8.41 0 0 0-.78-1.73 28.22 28.22 0 0 0-2.23-3.24 75.55 75.55 0 0 0-5.18-6.15 39.29 39.29 0 0 0-6.27-5.14 19.29 19.29 0 0 0-3.57-1.89c-.31-.13-.63-.21-1-.31a6.24 6.24 0 0 0-1-.17 2.22 2.22 0 0 0-1.82.45z" fill="#efc100"/><path d="M768.62 372.56a4.25 4.25 0 1 1-4.23-4.62 4.44 4.44 0 0 1 4.23 4.62" fill="#fff"/><path d="M768.62 366.63a4.63 4.63 0 0 0-6.62-4.15 4.79 4.79 0 0 0-2.61 4.35v1.89a6.15 6.15 0 1 0 9.23 0zm-7.69 0a3.07 3.07 0 0 1 4.82-2.49 3.33 3.33 0 0 1 1.33 2.73v.59a6.12 6.12 0 0 0-6.15 0zm2.17 9.55l-2.85-2.85 1.09-1.09 1.76 1.76 4.07-4.07 1.09 1.09z" fill="#5aa700"/></g><g clip-path="url(#j)" data-name="Wrapped data"><path d="M889.43 181.73a3.39 3.39 0 0 1-.56 2.74 10.32 10.32 0 0 1-1.85 2.12 26.17 26.17 0 0 1-4.57 3.2 53 53 0 0 1-10.27 4.21 39.71 39.71 0 0 1-11 2 22 22 0 0 1-5.66-.62 9.7 9.7 0 0 1-2.7-1.11 4.93 4.93 0 0 1-1.14-1 2.54 2.54 0 0 1-.59-1.37l.22-.06a3.14 3.14 0 0 0 2 1.47 11 11 0 0 0 2.53.47 32.66 32.66 0 0 0 5.27-.08 79.3 79.3 0 0 0 10.62-1.5 51.43 51.43 0 0 0 10.21-3.48 25.22 25.22 0 0 0 4.64-2.72 9.76 9.76 0 0 0 1.9-1.85 3 3 0 0 0 .74-2.41z" fill="#efc100"/><path fill="#fff" d="M882.78 177.94v27.54h-23.71v-36.72h13.77v9.18h9.94z"/><path d="M873.3 168H858v38.25h25.5v-28zm8.92 37h-22.94v-35.7H872v10.2h10.2z" fill="#000f5e"/><path fill="#000f5e" d="M863.1 183.3h15.3v1.28h-15.3zM863.1 185.85h15.3v1.28h-15.3zM863.1 188.4h7.65v1.28h-7.65z"/><path d="M851.11 191.95a3.39 3.39 0 0 1 .56-2.74 10.33 10.33 0 0 1 1.85-2.12 26.13 26.13 0 0 1 4.57-3.2 52.92 52.92 0 0 1 10.27-4.23 39.71 39.71 0 0 1 11-2 22 22 0 0 1 5.66.62 9.71 9.71 0 0 1 2.7 1.11 4.93 4.93 0 0 1 1.14 1 2.54 2.54 0 0 1 .59 1.37l-.22.06a3.14 3.14 0 0 0-2-1.47 11 11 0 0 0-2.53-.47 32.65 32.65 0 0 0-5.27.08 79.28 79.28 0 0 0-10.62 1.5 51.47 51.47 0 0 0-10.21 3.48 25.27 25.27 0 0 0-4.64 2.72 9.76 9.76 0 0 0-1.9 1.85 3 3 0 0 0-.74 2.41z" fill="#efc100"/><path d="M883.55 201.66a4.22 4.22 0 1 1-4.21-4.59 4.41 4.41 0 0 1 4.21 4.59" fill="#fff"/><path d="M883.85 195.76a4.61 4.61 0 0 0-6.58-4.12 4.76 4.76 0 0 0-2.59 4.32v1.88a6.12 6.12 0 1 0 9.18 0zm-7.65 0a3 3 0 0 1 4.8-2.48 3.31 3.31 0 0 1 1.32 2.71v.59a6.08 6.08 0 0 0-6.12 0zm2.16 9.5l-2.84-2.84 1.08-1.08 1.75 1.75 4-4 1.08 1.08z" fill="#5aa700"/></g><path fill="none" stroke="#a71c71" stroke-miterlimit="10" stroke-dasharray="1 1" d="M788.5 194.5h37.32"/><path fill="#a71c71" d="M788 191.25h1v6.5h-1zM824.37 199.49l8.63-4.99-8.63-4.99v9.98z"/><path fill="none" stroke="#a71c71" stroke-miterlimit="10" stroke-dasharray="1 1" d="M788.5 366.5h37.32"/><path fill="#a71c71" d="M788 363.25h1v6.5h-1zM824.37 371.49l8.63-4.99-8.63-4.99v9.98z"/></g><g data-name="Text"><text transform="translate(847.9 403.9)" font-size="11" font-family="IBMPlexSans, IBM Plex Sans"><tspan letter-spacing="-.01em">W<tspan x="9.69" y="0" letter-spacing="0em">r</tspan><tspan x="13.68" y="0" letter-spacing="0em">apped</tspan></tspan><tspan x="11.37" y="13.2">data</tspan></text><text transform="translate(714.92 403.9)" font-size="11" font-family="IBMPlexSans, IBM Plex Sans"><tspan letter-spacing="-.01em">W<tspan x="9.69" y="0" letter-spacing="0em">r</tspan><tspan x="13.68" y="0" letter-spacing="0em">apped data</tspan></tspan><tspan x="-1.57" y="13.2">enc</tspan><tspan x="16.25" y="13.2" letter-spacing=".01em">r</tspan><tspan x="20.39" y="13.2">y</tspan><tspan x="25.88" y="13.2" letter-spacing="-.01em">p</tspan><tspan x="32.2" y="13.2">tion </tspan><tspan x="53.81" y="13.2" letter-spacing="-.02em">k</tspan><tspan x="59.42" y="13.2" letter-spacing="-.01em">e</tspan><tspan x="65.41" y="13.2" letter-spacing="0em">y</tspan></text><text transform="translate(699.72 320.38)" font-size="12" font-family="IBMPlexSans-SemiBold, IBM Plex Sans" font-weight="700">Se<tspan x="14.03" y="0" letter-spacing=".01em">r</tspan><tspan x="18.84" y="0" letter-spacing="0em">vi</tspan><tspan x="28.44" y="0" letter-spacing="-.01em">c</tspan><tspan x="34.54" y="0" letter-spacing="0em">e B</tspan></text><text transform="translate(847.9 232.9)" font-size="11" font-family="IBMPlexSans, IBM Plex Sans"><tspan letter-spacing="-.01em">W<tspan x="9.69" y="0" letter-spacing="0em">r</tspan><tspan x="13.68" y="0" letter-spacing="0em">apped</tspan></tspan><tspan x="11.37" y="13.2">data</tspan></text><text transform="translate(714.92 232.9)" font-size="11" font-family="IBMPlexSans, IBM Plex Sans"><tspan letter-spacing="-.01em">W<tspan x="9.69" y="0" letter-spacing="0em">r</tspan><tspan x="13.68" y="0" letter-spacing="0em">apped data</tspan></tspan><tspan x="-1.57" y="13.2">enc</tspan><tspan x="16.25" y="13.2" letter-spacing=".01em">r</tspan><tspan x="20.39" y="13.2">y</tspan><tspan x="25.88" y="13.2" letter-spacing="-.01em">p</tspan><tspan x="32.2" y="13.2">tion </tspan><tspan x="53.81" y="13.2" letter-spacing="-.02em">k</tspan><tspan x="59.42" y="13.2" letter-spacing="-.01em">e</tspan><tspan x="65.41" y="13.2" letter-spacing="0em">y</tspan></text><text transform="translate(699.72 149.38)" font-size="12" font-family="IBMPlexSans-SemiBold, IBM Plex Sans" font-weight="700">Se<tspan x="14.03" y="0" letter-spacing=".01em">r</tspan><tspan x="18.84" y="0" letter-spacing="0em">vi</tspan><tspan x="28.44" y="0" letter-spacing="-.01em">c</tspan><tspan x="34.54" y="0" letter-spacing="0em">e A</tspan></text><text transform="translate(460.61 430.4)" font-size="11" font-family="IBMPlexSans, IBM Plex Sans"><tspan letter-spacing="-.01em">W</tspan><tspan x="9.69" y="0" letter-spacing="0em">r</tspan><tspan x="13.68" y="0">ap </tspan><tspan x="28.53" y="0" letter-spacing="0em">y</tspan><tspan x="33.97" y="0">our data enc</tspan><tspan x="95.41" y="0" letter-spacing=".01em">r</tspan><tspan x="99.56" y="0">y</tspan><tspan x="105.05" y="0" letter-spacing="-.01em">p</tspan><tspan x="111.36" y="0">tion</tspan><tspan x="0" y="13.2" letter-spacing="-.02em">k</tspan><tspan x="5.61" y="13.2" letter-spacing="-.01em">e</tspan><tspan x="11.59" y="13.2" letter-spacing="0em">y</tspan><tspan x="17.04" y="13.2" letter-spacing="0em">s with an added l</tspan><tspan x="100.25" y="13.2" letter-spacing="-.01em">ay</tspan><tspan x="111.51" y="13.2">er</tspan><tspan letter-spacing="-.01em"><tspan x="0" y="26.4">o</tspan><tspan x="6.09" y="26.4" letter-spacing="0em">f security</tspan></tspan></text><text transform="translate(466.46 296.47)" font-size="11" font-family="IBMPlexSans-SemiBold, IBM Plex Sans"><tspan font-weight="700">FI<tspan x="11" y="0" letter-spacing="-.01em">P</tspan><tspan x="17.97" y="0" letter-spacing="0em">S 140-2 </tspan><tspan x="60.71" y="0" letter-spacing="-.01em">L</tspan><tspan x="66.33" y="0" letter-spacing="-.01em">e</tspan><tspan x="72.37" y="0" letter-spacing="-.01em">v</tspan><tspan x="78.04" y="0">el 2</tspan></tspan><tspan font-family="IBMPlexSans, IBM Plex Sans"><tspan x="0" y="13.2">Ha</tspan><tspan x="13.65" y="13.2" letter-spacing="-.01em">r</tspan><tspan x="17.62" y="13.2">d</tspan><tspan x="24" y="13.2" letter-spacing="-.01em">w</tspan><tspan x="32.35" y="13.2">a</tspan><tspan x="38.22" y="13.2" letter-spacing="-.01em">r</tspan><tspan x="42.21" y="13.2">e security module</tspan></tspan></text><text transform="translate(554.36 221.9)" font-size="11" font-family="IBMPlexSans, IBM Plex Sans"><tspan letter-spacing="-.02em">R</tspan><tspan x="6.88" y="0">oot </tspan><tspan x="25.65" y="0" letter-spacing="-.02em">k</tspan><tspan x="31.26" y="0" letter-spacing="0em">e</tspan><tspan x="37.25" y="0">y</tspan><tspan x="42.73" y="0" font-family="IBMPlexSans-Bold, IBM Plex Sans" font-weight="700"> C</tspan></text><text transform="translate(472.7 221.9)" font-size="11" font-family="IBMPlexSans, IBM Plex Sans"><tspan letter-spacing="-.02em">R</tspan><tspan x="6.88" y="0">oot </tspan><tspan x="25.65" y="0" letter-spacing="-.02em">k</tspan><tspan x="31.26" y="0" letter-spacing="-.01em">e</tspan><tspan x="37.25" y="0" letter-spacing="0em">y </tspan><tspan x="45.33" y="0" font-family="IBMPlexSans-Bold, IBM Plex Sans" font-weight="700">B</tspan></text><text transform="translate(391.91 221.9)" font-size="11" font-family="IBMPlexSans, IBM Plex Sans"><tspan letter-spacing="-.02em">R</tspan><tspan x="6.88" y="0">oot </tspan><tspan x="25.65" y="0" letter-spacing="-.02em">k</tspan><tspan x="31.26" y="0" letter-spacing="-.01em">e</tspan><tspan x="37.25" y="0" letter-spacing="0em">y</tspan><tspan x="42.73" y="0" font-family="IBMPlexSans-Bold, IBM Plex Sans" font-weight="700"> A</tspan></text><text transform="translate(379.72 149.38)" font-size="12" font-family="IBMPlexSans-SemiBold, IBM Plex Sans" font-weight="700"><tspan letter-spacing="-.02em">K</tspan><tspan x="7.84" y="0" letter-spacing="-.01em">e</tspan><tspan x="14.46" y="0">y </tspan><tspan x="23.58" y="0" letter-spacing="-.01em">P</tspan><tspan x="31.15" y="0" letter-spacing="-.01em">r</tspan><tspan x="35.81" y="0" letter-spacing="0em">ot</tspan><tspan x="46.96" y="0">ect</tspan></text><text transform="translate(364.72 107.38)" font-size="12" font-family="IBMPlexSans-SemiBold, IBM Plex Sans" font-weight="700">IBM Cloud</text><text transform="translate(203.61 205.4)" font-size="11" font-family="IBMPlexSans, IBM Plex Sans">Add <tspan x="22.41" y="0" letter-spacing="0em">r</tspan><tspan x="26.39" y="0">oot </tspan><tspan x="45.17" y="0" letter-spacing="-.02em">k</tspan><tspan x="50.78" y="0" letter-spacing="0em">e</tspan><tspan x="56.76" y="0" letter-spacing="0em">y</tspan><tspan x="62.2" y="0">s</tspan></text><text transform="translate(52.58 221.9)" font-size="11" font-family="IBMPlexSans, IBM Plex Sans"><tspan letter-spacing="-.05em">Y</tspan><tspan x="5.97" y="0" letter-spacing="0em">our en</tspan><tspan x="37.3" y="0" letter-spacing="0em">t</tspan><tspan x="41.12" y="0">erprise</tspan></text><text transform="translate(49 63)" font-size="16" fill="#272727" font-family="IBMPlexSans-Bold, IBM Plex Sans" font-weight="700">In<tspan x="16.45" y="0" letter-spacing="0em">t</tspan><tspan x="22.51" y="0">eg</tspan><tspan x="40.34" y="0" letter-spacing="-.01em">r</tspan><tspan x="46.58" y="0" letter-spacing="-.01em">a</tspan><tspan x="55.58" y="0">ting se</tspan><tspan x="105.49" y="0" letter-spacing=".01em">r</tspan><tspan x="112.06" y="0" letter-spacing="0em">vi</tspan><tspan x="125.25" y="0" letter-spacing="0em">c</tspan><tspan x="133.44" y="0">es with </tspan><tspan x="191.74" y="0" letter-spacing="-.02em">K</tspan><tspan x="202.48" y="0" letter-spacing="-.01em">e</tspan><tspan x="211.36" y="0">y </tspan><tspan x="223.68" y="0" letter-spacing="-.01em">P</tspan><tspan x="234.01" y="0" letter-spacing="-.01em">r</tspan><tspan x="240.4" y="0" letter-spacing="-.01em">o</tspan><tspan x="249.33" y="0" letter-spacing="0em">t</tspan><tspan x="255.39" y="0">ect</tspan></text></g></svg>