<svg xmlns="http://www.w3.org/2000/svg" xmlns:xlink="http://www.w3.org/1999/xlink" viewBox="0 0 1000 550"><defs><clipPath id="e429d792-8500-4dca-be36-8243e52a8d4f"><rect x="851" y="339" width="38.54" height="40" fill="none"/></clipPath><clipPath id="fbc2860c-2245-4f6e-9243-67264eb30bb8"><rect x="396.85" y="178" width="42.99" height="20" fill="none"/></clipPath><clipPath id="e3adf87a-8a41-40b2-b803-57ee72c68a6b"><rect x="477.54" y="178" width="42.99" height="20" fill="none"/></clipPath><clipPath id="ffd83524-45b5-4860-b798-20209fc599bb"><rect x="559.11" y="178" width="42.99" height="20" fill="none"/></clipPath><clipPath id="8c223e7e-c4c0-426a-93f4-eb235806b487"><rect x="729" y="168" width="41.15" height="40" fill="none"/></clipPath><clipPath id="16914988-e390-4a4d-9ac5-5f3816364291"><rect x="729" y="339" width="41.15" height="40" fill="none"/></clipPath><clipPath id="4eb0bb49-e4a2-4124-840b-37adfc1a134c"><rect x="851" y="168" width="38.54" height="40" fill="none"/></clipPath></defs><title>kp-integrations</title><g id="1ecabfd7-b161-4b43-a535-08f1d81cfaca" data-name="Visual"><rect x="340.5" y="83.5" width="609" height="416" fill="#fff"/><polyline points="949.5 498 949.5 499.5 948 499.5" fill="none" stroke="#d8d8d8" stroke-miterlimit="10"/><line x1="946" y1="499.5" x2="343" y2="499.5" fill="none" stroke="#d8d8d8" stroke-miterlimit="10" stroke-dasharray="3 2"/><polyline points="342 499.5 340.5 499.5 340.5 498" fill="none" stroke="#d8d8d8" stroke-miterlimit="10"/><line x1="340.5" y1="496" x2="340.5" y2="86" fill="none" stroke="#d8d8d8" stroke-miterlimit="10" stroke-dasharray="3.01 2"/><polyline points="340.5 85 340.5 83.5 342 83.5" fill="none" stroke="#d8d8d8" stroke-miterlimit="10"/><line x1="344" y1="83.5" x2="947" y2="83.5" fill="none" stroke="#d8d8d8" stroke-miterlimit="10" stroke-dasharray="3 2"/><polyline points="948 83.5 949.5 83.5 949.5 85" fill="none" stroke="#d8d8d8" stroke-miterlimit="10"/><line x1="949.5" y1="87" x2="949.5" y2="497" fill="none" stroke="#d8d8d8" stroke-miterlimit="10" stroke-dasharray="3.01 2"/><rect x="683.5" y="294.5" width="249" height="150" fill="#eaeaea"/><polyline points="932.5 443 932.5 444.5 931 444.5" fill="none" stroke="#000f5e" stroke-miterlimit="10"/><line x1="929.01" y1="444.5" x2="686" y2="444.5" fill="none" stroke="#000f5e" stroke-miterlimit="10" stroke-dasharray="2.99 1.99"/><polyline points="685 444.5 683.5 444.5 683.5 443" fill="none" stroke="#000f5e" stroke-miterlimit="10"/><line x1="683.5" y1="441" x2="683.5" y2="297" fill="none" stroke="#000f5e" stroke-miterlimit="10" stroke-dasharray="3 2"/><polyline points="683.5 296 683.5 294.5 685 294.5" fill="none" stroke="#000f5e" stroke-miterlimit="10"/><line x1="686.99" y1="294.5" x2="930" y2="294.5" fill="none" stroke="#000f5e" stroke-miterlimit="10" stroke-dasharray="2.99 1.99"/><polyline points="931 294.5 932.5 294.5 932.5 296" fill="none" stroke="#000f5e" stroke-miterlimit="10"/><line x1="932.5" y1="298" x2="932.5" y2="442" fill="none" stroke="#000f5e" stroke-miterlimit="10" stroke-dasharray="3 2"/><rect x="683.5" y="123.5" width="249" height="150" fill="#eaeaea"/><polyline points="932.5 272 932.5 273.5 931 273.5" fill="none" stroke="#000f5e" stroke-miterlimit="10"/><line x1="929.01" y1="273.5" x2="686" y2="273.5" fill="none" stroke="#000f5e" stroke-miterlimit="10" stroke-dasharray="2.99 1.99"/><polyline points="685 273.5 683.5 273.5 683.5 272" fill="none" stroke="#000f5e" stroke-miterlimit="10"/><line x1="683.5" y1="270" x2="683.5" y2="126" fill="none" stroke="#000f5e" stroke-miterlimit="10" stroke-dasharray="3 2"/><polyline points="683.5 125 683.5 123.5 685 123.5" fill="none" stroke="#000f5e" stroke-miterlimit="10"/><line x1="686.99" y1="123.5" x2="930" y2="123.5" fill="none" stroke="#000f5e" stroke-miterlimit="10" stroke-dasharray="2.99 1.99"/><polyline points="931 123.5 932.5 123.5 932.5 125" fill="none" stroke="#000f5e" stroke-miterlimit="10"/><line x1="932.5" y1="127" x2="932.5" y2="271" fill="none" stroke="#000f5e" stroke-miterlimit="10" stroke-dasharray="3 2"/><rect x="363.5" y="123.5" width="276" height="234" fill="#edf5ff"/><polyline points="639.5 356 639.5 357.5 638 357.5" fill="none" stroke="#000f5e" stroke-miterlimit="10"/><line x1="635.99" y1="357.5" x2="366" y2="357.5" fill="none" stroke="#000f5e" stroke-miterlimit="10" stroke-dasharray="3.01 2.01"/><polyline points="365 357.5 363.5 357.5 363.5 356" fill="none" stroke="#000f5e" stroke-miterlimit="10"/><line x1="363.5" y1="354.01" x2="363.5" y2="126" fill="none" stroke="#000f5e" stroke-miterlimit="10" stroke-dasharray="2.99 1.99"/><polyline points="363.5 125 363.5 123.5 365 123.5" fill="none" stroke="#000f5e" stroke-miterlimit="10"/><line x1="367.01" y1="123.5" x2="637" y2="123.5" fill="none" stroke="#000f5e" stroke-miterlimit="10" stroke-dasharray="3.01 2.01"/><polyline points="638 123.5 639.5 123.5 639.5 125" fill="none" stroke="#000f5e" stroke-miterlimit="10"/><line x1="639.5" y1="126.99" x2="639.5" y2="355" fill="none" stroke="#000f5e" stroke-miterlimit="10" stroke-dasharray="2.99 1.99"/><path d="M442,408H622a0,0,0,0,1,0,0v54.49A10.51,10.51,0,0,1,611.49,473h-159A10.51,10.51,0,0,1,442,462.49V408A0,0,0,0,1,442,408Z" fill="#b380e0" opacity="0.15"/><path d="M185,183H326a0,0,0,0,1,0,0v23.49A10.51,10.51,0,0,1,315.49,217h-120A10.51,10.51,0,0,1,185,206.49V183A0,0,0,0,1,185,183Z" fill="#b380e0" opacity="0.15"/><line x1="371.82" y1="183.25" x2="152.05" y2="183.25" fill="none" stroke="#000f5e" stroke-miterlimit="10"/><polygon points="370.37 178.26 379 183.25 370.37 188.24 370.37 178.26" fill="#000f5e"/><circle cx="152.26" cy="183.25" r="3.76" fill="#fff"/><path d="M152.26,179a4.26,4.26,0,1,1-4.26,4.26,4.26,4.26,0,0,1,4.26-4.26Zm0,7.52a3.26,3.26,0,1,0-3.26-3.26,3.26,3.26,0,0,0,3.26,3.26Z" fill="#000f5e"/><polyline points="708 199.5 663.5 199.5 663.5 407.5 415.5 407.5 415.5 236.07" fill="none" stroke="#a71c71" stroke-miterlimit="10"/><rect x="707.5" y="196.25" width="1" height="6.5" fill="#a71c71"/><circle cx="415.5" cy="236.26" r="3.76" fill="#a71c71"/><line x1="664" y1="366.5" x2="708.5" y2="366.5" fill="none" stroke="#a71c71" stroke-miterlimit="10"/><rect x="708" y="363.25" width="1" height="6.5" fill="#a71c71"/><polygon points="379.5 260.5 379.5 299.75 379.5 339 500.5 339 622.5 339 622.5 299.75 622.5 260.5 379.5 260.5" fill="#c5deff" stroke="#000f5e" stroke-miterlimit="10" stroke-dasharray="3 2"/><g id="3ecf4d49-9e0e-48ea-9784-06c53bb0e244" data-name="Hardware security module"><g id="c75a5c45-c935-489f-9b70-021ff91dddc9" data-name="HSM"><g id="4dfd34b6-6758-48cd-8681-99e1a48d35e8" data-name="&lt;Rectangle&gt;"><rect x="394.1" y="296.8" width="48.5" height="12.79" fill="#ede9e7"/><path d="M441.85,297.55v11.29h-47V297.55h47m1.5-1.5h-50v14.29h50V296.05Z" fill="#23292e"/></g><g id="b018a8ec-3bcf-4482-bacb-e1cb28e99699" data-name="&lt;Group&gt;"><rect id="a808e433-228b-4c42-9a87-2d49c41c99b5" data-name="&lt;Rectangle&gt;" x="416.09" y="301.95" width="21.52" height="2.9" fill="#23292e"/><circle id="06844d07-5c85-4b11-b952-5baaf9cacbe1" data-name="&lt;Path&gt;" cx="410.8" cy="303.39" r="1.71" fill="#23292e"/><circle id="de8b30cd-acfc-4027-96d5-f205669274f4" data-name="&lt;Path&gt;" cx="405.42" cy="303.39" r="1.71" fill="#23292e"/><circle id="732c6597-4df9-4846-9c46-f14fef4feb38" data-name="&lt;Path&gt;" cx="400.03" cy="303.39" r="1.71" fill="#23292e"/></g><polygon points="394.56 295.3 397.3 289.9 438.83 289.9 442.03 295.3 394.56 295.3" fill="#a8a3a3"/><path d="M438.4,290.65l2.31,3.91H395.79l2-3.91H438.4m.85-1.5H396.84l-3.49,6.91h50l-4.09-6.91Z" fill="#23292e"/></g></g><g id="241c1e8b-9612-4623-acf9-aaba417be3d5" data-name="Wrapped data"><g clip-path="url(#e429d792-8500-4dca-be36-8243e52a8d4f)"><g clip-path="url(#e429d792-8500-4dca-be36-8243e52a8d4f)"><path d="M889.43,352.73a3.39,3.39,0,0,1-.56,2.74,10.32,10.32,0,0,1-1.85,2.12,26.17,26.17,0,0,1-4.57,3.2A53,53,0,0,1,872.18,365a39.71,39.71,0,0,1-11,2,22,22,0,0,1-5.66-.62,9.7,9.7,0,0,1-2.7-1.11,4.93,4.93,0,0,1-1.14-1,2.54,2.54,0,0,1-.59-1.37l.22-.06a3.14,3.14,0,0,0,2,1.47,11,11,0,0,0,2.53.47,32.66,32.66,0,0,0,5.27-.08,79.3,79.3,0,0,0,10.62-1.5,51.43,51.43,0,0,0,10.21-3.48,25.22,25.22,0,0,0,4.64-2.72,9.76,9.76,0,0,0,1.9-1.85,3,3,0,0,0,.74-2.41Z" fill="#efc100"/><polygon points="882.78 348.94 882.78 376.48 859.07 376.48 859.07 339.76 872.84 339.76 872.84 348.94 882.78 348.94" fill="#fff"/><path d="M873.3,339H858v38.25h25.5v-28Zm8.92,37H859.28v-35.7H872v10.2h10.2Z" fill="#000f5e"/><rect x="863.1" y="354.3" width="15.3" height="1.28" fill="#000f5e"/><rect x="863.1" y="356.85" width="15.3" height="1.28" fill="#000f5e"/><rect x="863.1" y="359.4" width="7.65" height="1.28" fill="#000f5e"/><path d="M851.11,362.95a3.39,3.39,0,0,1,.56-2.74,10.33,10.33,0,0,1,1.85-2.12,26.13,26.13,0,0,1,4.57-3.2,52.92,52.92,0,0,1,10.27-4.23,39.71,39.71,0,0,1,11-2,22,22,0,0,1,5.66.62,9.71,9.71,0,0,1,2.7,1.11,4.93,4.93,0,0,1,1.14,1,2.54,2.54,0,0,1,.59,1.37l-.22.06a3.14,3.14,0,0,0-2-1.47,11,11,0,0,0-2.53-.47,32.65,32.65,0,0,0-5.27.08,79.28,79.28,0,0,0-10.62,1.5,51.47,51.47,0,0,0-10.21,3.48,25.27,25.27,0,0,0-4.64,2.72,9.76,9.76,0,0,0-1.9,1.85,3,3,0,0,0-.74,2.41Z" fill="#efc100"/><path d="M883.55,372.66a4.22,4.22,0,1,1-4.21-4.59,4.41,4.41,0,0,1,4.21,4.59" fill="#fff"/><path d="M883.85,366.76a4.61,4.61,0,0,0-6.58-4.12,4.76,4.76,0,0,0-2.59,4.32v1.88a6.12,6.12,0,1,0,9.18,0Zm-7.65,0a3,3,0,0,1,4.8-2.48,3.31,3.31,0,0,1,1.32,2.71v.59a6.08,6.08,0,0,0-6.12,0Zm2.16,9.5-2.84-2.84,1.08-1.08,1.75,1.75,4-4,1.08,1.08Z" fill="#5aa700"/></g></g></g><g id="1c548705-f694-4bc9-8a19-112ba8ad5c6b" data-name="Root key"><g clip-path="url(#fbc2860c-2245-4f6e-9243-67264eb30bb8)"><g clip-path="url(#fbc2860c-2245-4f6e-9243-67264eb30bb8)"><path d="M406.68,178.44a9.33,9.33,0,1,0,8.42,13.33H420l.67-1.33.67.67.67.67h12.67l4-4-4-4H415.1a9.32,9.32,0,0,0-8.42-5.33" fill="#ceaceb"/><path d="M435.13,183.29H415.66a10,10,0,1,0,0,9.43h3.75l1.57-1.57,1.57,1.57h12.57l4.71-4.71Zm-.46,8.32H423l-1.25-1.25-.79-.79-.79.79L419,191.6h-4l-.31.59a8.89,8.89,0,1,1,0-8.38l.31.59h19.67l3.6,3.6Z" fill="#6e177d"/><path d="M405.17,186.41a2.22,2.22,0,1,1-3.14,0,2.22,2.22,0,0,1,3.14,0" fill="#6e177d"/><rect x="424.03" y="187.43" width="9.43" height="1.11" fill="#6e177d"/></g></g></g><g id="a7530de0-3741-4c1e-98ea-195a0abd843c" data-name="Root key"><g clip-path="url(#e3adf87a-8a41-40b2-b803-57ee72c68a6b)"><g clip-path="url(#e3adf87a-8a41-40b2-b803-57ee72c68a6b)"><path d="M487.37,178.44a9.33,9.33,0,1,0,8.42,13.33h4.91l.67-1.33.67.67.67.67h12.67l4-4-4-4H495.8a9.32,9.32,0,0,0-8.42-5.33" fill="#ceaceb"/><path d="M515.82,183.29H496.35a10,10,0,1,0,0,9.43h3.75l1.57-1.57,1.57,1.57h12.57l4.71-4.71Zm-.46,8.32H503.71l-1.25-1.25-.79-.79-.79.79-1.25,1.25h-4l-.31.59a8.89,8.89,0,1,1,0-8.38l.31.59h19.67L519,188Z" fill="#6e177d"/><path d="M485.87,186.41a2.22,2.22,0,1,1-3.14,0,2.22,2.22,0,0,1,3.14,0" fill="#6e177d"/><rect x="504.72" y="187.43" width="9.43" height="1.11" fill="#6e177d"/></g></g></g><g id="6628f088-3765-479a-b84f-ee919cfa74b1" data-name="Root key"><g clip-path="url(#ffd83524-45b5-4860-b798-20209fc599bb)"><g clip-path="url(#ffd83524-45b5-4860-b798-20209fc599bb)"><path d="M568.94,178.44a9.33,9.33,0,1,0,8.42,13.33h4.91l.67-1.33.67.67.67.67h12.67l4-4-4-4H577.36a9.32,9.32,0,0,0-8.42-5.33" fill="#ceaceb"/><path d="M597.38,183.29H577.92a10,10,0,1,0,0,9.43h3.75l1.57-1.57,1.57,1.57h12.57L602.1,188Zm-.46,8.32H585.27L584,190.36l-.79-.79-.79.79-1.25,1.25h-4l-.31.59a8.89,8.89,0,1,1,0-8.38l.31.59h19.67l3.6,3.6Z" fill="#6e177d"/><path d="M567.43,186.41a2.22,2.22,0,1,1-3.14,0,2.22,2.22,0,0,1,3.14,0" fill="#6e177d"/><rect x="586.29" y="187.43" width="9.43" height="1.11" fill="#6e177d"/></g></g></g><rect x="59" y="168.49" width="69" height="31" fill="#69a6ff" stroke="#000f5e" stroke-miterlimit="10" stroke-width="2"/><polygon points="58.5 146.49 58.5 195.65 52.87 199.49 58.5 199.49 91.14 199.49 94.5 199.49 94.5 146.49 58.5 146.49" fill="#edf5ff" stroke="#000f5e" stroke-miterlimit="10" stroke-width="2"/><line x1="77" y1="133.44" x2="77" y2="146.44" fill="none" stroke="#000f5e" stroke-miterlimit="10" stroke-width="2"/><rect x="67" y="187.44" width="21" height="12" fill="#003bc9" stroke="#000f5e" stroke-miterlimit="10" stroke-width="2"/><line x1="74" y1="188.44" x2="74" y2="199.44" fill="none" stroke="#000f5e" stroke-miterlimit="10" stroke-width="2"/><line x1="77" y1="193.44" x2="77" y2="195.44" fill="none" stroke="#000f5e" stroke-miterlimit="10" stroke-width="2"/><line x1="100" y1="176.44" x2="123" y2="176.44" fill="none" stroke="#000f5e" stroke-miterlimit="10" stroke-width="2"/><line x1="100" y1="180.44" x2="123" y2="180.44" fill="none" stroke="#000f5e" stroke-miterlimit="10" stroke-width="2"/><line x1="100" y1="184.44" x2="123" y2="184.44" fill="none" stroke="#000f5e" stroke-miterlimit="10" stroke-width="2"/><line x1="66" y1="155.44" x2="89" y2="155.44" fill="none" stroke="#000f5e" stroke-miterlimit="10" stroke-width="2"/><line x1="66" y1="159.44" x2="89" y2="159.44" fill="none" stroke="#000f5e" stroke-miterlimit="10" stroke-width="2"/><line x1="66" y1="163.44" x2="89" y2="163.44" fill="none" stroke="#000f5e" stroke-miterlimit="10" stroke-width="2"/><line x1="66" y1="167.44" x2="89" y2="167.44" fill="none" stroke="#000f5e" stroke-miterlimit="10" stroke-width="2"/><g id="62a252ae-47b7-4d42-8eb5-05d3d37bb9d7" data-name="Wrapped DEK"><g clip-path="url(#8c223e7e-c4c0-426a-93f4-eb235806b487)"><g clip-path="url(#8c223e7e-c4c0-426a-93f4-eb235806b487)"><path d="M762.65,194.5a2.57,2.57,0,0,1-2,.79,6.66,6.66,0,0,1-1.08-.07c-.35-.08-.71-.12-1-.22a20.25,20.25,0,0,1-3.93-1.57,40.78,40.78,0,0,1-6.94-4.78c-1.07-.92-2.13-1.85-3.13-2.86a20,20,0,0,1-2.68-3.33,16.23,16.23,0,0,1-1.84-3.95,10.77,10.77,0,0,1-.25-1.09,6.94,6.94,0,0,1-.07-1.15,4,4,0,0,1,.2-1.15q.14-.28.28-.53c.14-.15.28-.28.41-.41l.17.16a2.32,2.32,0,0,0,0,1.82,8.39,8.39,0,0,0,.78,1.73,28.31,28.31,0,0,0,2.23,3.24,75.56,75.56,0,0,0,5.18,6.15,39.29,39.29,0,0,0,6.27,5.14,19.27,19.27,0,0,0,3.57,1.89c.31.13.63.21,1,.31a6.25,6.25,0,0,0,1,.17,2.22,2.22,0,0,0,1.82-.45Z" fill="#efc100"/><path d="M769,170.78l-7.05-.26.24.27H762l-.29-.29-13.6,13.6.16.16-2.4,2.4a11.1,11.1,0,0,0-3.24-.48,10.39,10.39,0,1,0,10.77,10.38,10,10,0,0,0-.67-3.57l3.74-3.74-.77-.77,1.95-1.95.74.74,9.75-9.75.27.3,0-.61.27-.27-.23-.23Z" fill="#cba9e6"/><path d="M762.08,169.54l-15.88,15.88a11.54,11.54,0,1,0,7.69,7.69l3.06-3.06v-2.56h2.56l10.26-10.26v-7.69Zm6.41,7.16-9.5,9.5h-3.32v3.32L753,192.21l-.54.54.22.74a10.27,10.27,0,1,1-6.84-6.84l.73.22.54-.54,15.51-15.51h5.88Z" fill="#6e177d"/><path d="M740.19,196.52a2.56,2.56,0,1,1-2.56,2.56,2.56,2.56,0,0,1,2.56-2.56" fill="#6e177d"/><rect x="755.26" y="177.93" width="10.88" height="1.28" transform="translate(96.53 590.2) rotate(-45)" fill="#6e177d"/><path d="M766.66,169.24l-7.05-.26.24.27h-.14l-.29-.29-13.6,13.6.16.16-2.4,2.4a11.1,11.1,0,0,0-3.24-.48A10.39,10.39,0,1,0,751.12,195a10,10,0,0,0-.67-3.57l3.74-3.74-.77-.77,1.95-1.95.74.74,9.75-9.75.27.3,0-.61.27-.27-.23-.23Z" fill="#9bc1fa"/><path d="M759.77,168l-15.88,15.88a11.54,11.54,0,1,0,7.69,7.69l3.06-3.06v-2.56h2.56l10.26-10.26V168Zm6.41,7.16-9.5,9.5h-3.32V188l-2.69,2.69-.54.54.22.74a10.27,10.27,0,1,1-6.84-6.84l.73.22.54-.54,15.51-15.51h5.88Z" fill="#000f5e"/><path d="M737.88,195a2.56,2.56,0,1,1-2.56,2.56,2.56,2.56,0,0,1,2.56-2.56" fill="#000f5e"/><rect x="752.96" y="176.4" width="10.88" height="1.28" transform="translate(96.94 588.12) rotate(-45)" fill="#000f5e"/><path d="M740.57,174.19a2.57,2.57,0,0,1,2-.79,6.65,6.65,0,0,1,1.08.07c.35.08.71.12,1,.22a20.23,20.23,0,0,1,3.93,1.57,40.79,40.79,0,0,1,6.94,4.78c1.07.92,2.13,1.85,3.13,2.86a19.93,19.93,0,0,1,2.68,3.33,16.24,16.24,0,0,1,1.84,3.95,10.77,10.77,0,0,1,.25,1.09,6.94,6.94,0,0,1,.07,1.15,4,4,0,0,1-.2,1.15c-.09.19-.19.36-.28.53s-.28.28-.42.41l-.17-.16a2.32,2.32,0,0,0,0-1.82,8.41,8.41,0,0,0-.78-1.73,28.22,28.22,0,0,0-2.23-3.24,75.55,75.55,0,0,0-5.18-6.15,39.29,39.29,0,0,0-6.27-5.14,19.29,19.29,0,0,0-3.57-1.89c-.31-.13-.63-.21-1-.31a6.24,6.24,0,0,0-1-.17,2.22,2.22,0,0,0-1.82.45Z" fill="#efc100"/><path d="M768.62,201.56a4.25,4.25,0,1,1-4.23-4.62,4.44,4.44,0,0,1,4.23,4.62" fill="#fff"/><path d="M768.62,195.63a4.63,4.63,0,0,0-6.62-4.15,4.79,4.79,0,0,0-2.61,4.35v1.89a6.15,6.15,0,1,0,9.23,0Zm-7.69,0a3.07,3.07,0,0,1,4.82-2.49,3.33,3.33,0,0,1,1.33,2.73v.59a6.12,6.12,0,0,0-6.15,0Zm2.17,9.55-2.85-2.85,1.09-1.09L763.1,203l4.07-4.07,1.09,1.09Z" fill="#5aa700"/></g></g></g><g id="a18f633e-bac6-495d-885d-1b8d94674d27" data-name="Wrapped DEK"><g clip-path="url(#16914988-e390-4a4d-9ac5-5f3816364291)"><g clip-path="url(#16914988-e390-4a4d-9ac5-5f3816364291)"><path d="M762.65,365.5a2.57,2.57,0,0,1-2,.79,6.66,6.66,0,0,1-1.08-.07c-.35-.08-.71-.12-1-.22a20.25,20.25,0,0,1-3.93-1.57,40.78,40.78,0,0,1-6.94-4.78c-1.07-.92-2.13-1.85-3.13-2.86a20,20,0,0,1-2.68-3.33,16.23,16.23,0,0,1-1.84-3.95,10.77,10.77,0,0,1-.25-1.09,6.94,6.94,0,0,1-.07-1.15,4,4,0,0,1,.2-1.15q.14-.28.28-.53c.14-.15.28-.28.41-.41l.17.16a2.32,2.32,0,0,0,0,1.82,8.39,8.39,0,0,0,.78,1.73,28.31,28.31,0,0,0,2.23,3.24,75.56,75.56,0,0,0,5.18,6.15,39.29,39.29,0,0,0,6.27,5.14,19.27,19.27,0,0,0,3.57,1.89c.31.13.63.21,1,.31a6.25,6.25,0,0,0,1,.17,2.22,2.22,0,0,0,1.82-.45Z" fill="#efc100"/><path d="M769,341.78l-7.05-.26.24.27H762l-.29-.29-13.6,13.6.16.16-2.4,2.4a11.1,11.1,0,0,0-3.24-.48,10.39,10.39,0,1,0,10.77,10.38,10,10,0,0,0-.67-3.57l3.74-3.74-.77-.77,1.95-1.95.74.74,9.75-9.75.27.3,0-.61.27-.27-.23-.23Z" fill="#cba9e6"/><path d="M762.08,340.54l-15.88,15.88a11.54,11.54,0,1,0,7.69,7.69l3.06-3.06v-2.56h2.56l10.26-10.26v-7.69Zm6.41,7.16-9.5,9.5h-3.32v3.32L753,363.21l-.54.54.22.74a10.27,10.27,0,1,1-6.84-6.84l.73.22.54-.54,15.51-15.51h5.88Z" fill="#6e177d"/><path d="M740.19,367.52a2.56,2.56,0,1,1-2.56,2.56,2.56,2.56,0,0,1,2.56-2.56" fill="#6e177d"/><rect x="755.26" y="348.93" width="10.88" height="1.28" transform="translate(-24.38 640.29) rotate(-45)" fill="#6e177d"/><path d="M766.66,340.24l-7.05-.26.24.27h-.14l-.29-.29-13.6,13.6.16.16-2.4,2.4a11.1,11.1,0,0,0-3.24-.48A10.39,10.39,0,1,0,751.12,366a10,10,0,0,0-.67-3.57l3.74-3.74-.77-.77,1.95-1.95.74.74,9.75-9.75.27.3,0-.61.27-.27-.23-.23Z" fill="#9bc1fa"/><path d="M759.77,339l-15.88,15.88a11.54,11.54,0,1,0,7.69,7.69l3.06-3.06v-2.56h2.56l10.26-10.26V339Zm6.41,7.16-9.5,9.5h-3.32V359l-2.69,2.69-.54.54.22.74a10.27,10.27,0,1,1-6.84-6.84l.73.22.54-.54,15.51-15.51h5.88Z" fill="#000f5e"/><path d="M737.88,366a2.56,2.56,0,1,1-2.56,2.56,2.56,2.56,0,0,1,2.56-2.56" fill="#000f5e"/><rect x="752.96" y="347.4" width="10.88" height="1.28" transform="translate(-23.97 638.2) rotate(-45)" fill="#000f5e"/><path d="M740.57,345.19a2.57,2.57,0,0,1,2-.79,6.65,6.65,0,0,1,1.08.07c.35.08.71.12,1,.22a20.23,20.23,0,0,1,3.93,1.57,40.79,40.79,0,0,1,6.94,4.78c1.07.92,2.13,1.85,3.13,2.86a19.93,19.93,0,0,1,2.68,3.33,16.24,16.24,0,0,1,1.84,3.95,10.77,10.77,0,0,1,.25,1.09,6.94,6.94,0,0,1,.07,1.15,4,4,0,0,1-.2,1.15c-.09.19-.19.36-.28.53s-.28.28-.42.41l-.17-.16a2.32,2.32,0,0,0,0-1.82,8.41,8.41,0,0,0-.78-1.73,28.22,28.22,0,0,0-2.23-3.24,75.55,75.55,0,0,0-5.18-6.15,39.29,39.29,0,0,0-6.27-5.14,19.29,19.29,0,0,0-3.57-1.89c-.31-.13-.63-.21-1-.31a6.24,6.24,0,0,0-1-.17,2.22,2.22,0,0,0-1.82.45Z" fill="#efc100"/><path d="M768.62,372.56a4.25,4.25,0,1,1-4.23-4.62,4.44,4.44,0,0,1,4.23,4.62" fill="#fff"/><path d="M768.62,366.63a4.63,4.63,0,0,0-6.62-4.15,4.79,4.79,0,0,0-2.61,4.35v1.89a6.15,6.15,0,1,0,9.23,0Zm-7.69,0a3.07,3.07,0,0,1,4.82-2.49,3.33,3.33,0,0,1,1.33,2.73v.59a6.12,6.12,0,0,0-6.15,0Zm2.17,9.55-2.85-2.85,1.09-1.09L763.1,374l4.07-4.07,1.09,1.09Z" fill="#5aa700"/></g></g></g><g id="808a0a95-5d9e-438f-97b4-6d7144c5199d" data-name="Wrapped data"><g clip-path="url(#4eb0bb49-e4a2-4124-840b-37adfc1a134c)"><g clip-path="url(#4eb0bb49-e4a2-4124-840b-37adfc1a134c)"><path d="M889.43,181.73a3.39,3.39,0,0,1-.56,2.74,10.32,10.32,0,0,1-1.85,2.12,26.17,26.17,0,0,1-4.57,3.2A53,53,0,0,1,872.18,194a39.71,39.71,0,0,1-11,2,22,22,0,0,1-5.66-.62,9.7,9.7,0,0,1-2.7-1.11,4.93,4.93,0,0,1-1.14-1,2.54,2.54,0,0,1-.59-1.37l.22-.06a3.14,3.14,0,0,0,2,1.47,11,11,0,0,0,2.53.47,32.66,32.66,0,0,0,5.27-.08,79.3,79.3,0,0,0,10.62-1.5,51.43,51.43,0,0,0,10.21-3.48,25.22,25.22,0,0,0,4.64-2.72,9.76,9.76,0,0,0,1.9-1.85,3,3,0,0,0,.74-2.41Z" fill="#efc100"/><polygon points="882.78 177.94 882.78 205.48 859.07 205.48 859.07 168.76 872.84 168.76 872.84 177.94 882.78 177.94" fill="#fff"/><path d="M873.3,168H858v38.25h25.5v-28Zm8.92,37H859.28v-35.7H872v10.2h10.2Z" fill="#000f5e"/><rect x="863.1" y="183.3" width="15.3" height="1.28" fill="#000f5e"/><rect x="863.1" y="185.85" width="15.3" height="1.28" fill="#000f5e"/><rect x="863.1" y="188.4" width="7.65" height="1.28" fill="#000f5e"/><path d="M851.11,191.95a3.39,3.39,0,0,1,.56-2.74,10.33,10.33,0,0,1,1.85-2.12,26.13,26.13,0,0,1,4.57-3.2,52.92,52.92,0,0,1,10.27-4.23,39.71,39.71,0,0,1,11-2,22,22,0,0,1,5.66.62,9.71,9.71,0,0,1,2.7,1.11,4.93,4.93,0,0,1,1.14,1,2.54,2.54,0,0,1,.59,1.37l-.22.06a3.14,3.14,0,0,0-2-1.47,11,11,0,0,0-2.53-.47,32.65,32.65,0,0,0-5.27.08,79.28,79.28,0,0,0-10.62,1.5,51.47,51.47,0,0,0-10.21,3.48,25.27,25.27,0,0,0-4.64,2.72,9.76,9.76,0,0,0-1.9,1.85,3,3,0,0,0-.74,2.41Z" fill="#efc100"/><path d="M883.55,201.66a4.22,4.22,0,1,1-4.21-4.59,4.41,4.41,0,0,1,4.21,4.59" fill="#fff"/><path d="M883.85,195.76a4.61,4.61,0,0,0-6.58-4.12,4.76,4.76,0,0,0-2.59,4.32v1.88a6.12,6.12,0,1,0,9.18,0Zm-7.65,0a3,3,0,0,1,4.8-2.48,3.31,3.31,0,0,1,1.32,2.71v.59a6.08,6.08,0,0,0-6.12,0Zm2.16,9.5-2.84-2.84,1.08-1.08,1.75,1.75,4-4,1.08,1.08Z" fill="#5aa700"/></g></g></g><line x1="788.5" y1="194.5" x2="825.82" y2="194.5" fill="none" stroke="#a71c71" stroke-miterlimit="10" stroke-dasharray="1 1"/><rect x="788" y="191.25" width="1" height="6.5" fill="#a71c71"/><polygon points="824.37 199.49 833 194.5 824.37 189.51 824.37 199.49" fill="#a71c71"/><line x1="788.5" y1="366.5" x2="825.82" y2="366.5" fill="none" stroke="#a71c71" stroke-miterlimit="10" stroke-dasharray="1 1"/><rect x="788" y="363.25" width="1" height="6.5" fill="#a71c71"/><polygon points="824.37 371.49 833 366.5 824.37 361.51 824.37 371.49" fill="#a71c71"/></g><g id="d2b008af-57f5-44c0-9e2f-9f856a8ad95d" data-name="Text"><text transform="translate(847.9 403.9)" font-size="11" font-family="IBMPlexSans, IBM Plex Sans"><tspan letter-spacing="-0.01em">W<tspan x="9.69" y="0" letter-spacing="0em">r</tspan><tspan x="13.68" y="0" letter-spacing="0em">apped</tspan></tspan><tspan x="11.37" y="13.2">data</tspan></text><text transform="translate(714.92 403.9)" font-size="11" font-family="IBMPlexSans, IBM Plex Sans"><tspan letter-spacing="-0.01em">W<tspan x="9.69" y="0" letter-spacing="0em">r</tspan><tspan x="13.68" y="0" letter-spacing="0em">apped data</tspan></tspan><tspan x="-1.57" y="13.2">enc</tspan><tspan x="16.25" y="13.2" letter-spacing="0.01em">r</tspan><tspan x="20.39" y="13.2">y</tspan><tspan x="25.88" y="13.2" letter-spacing="-0.01em">p</tspan><tspan x="32.2" y="13.2">tion </tspan><tspan x="53.81" y="13.2" letter-spacing="-0.02em">k</tspan><tspan x="59.42" y="13.2" letter-spacing="-0.01em">e</tspan><tspan x="65.41" y="13.2" letter-spacing="0em">y</tspan></text><text transform="translate(699.72 320.38)" font-size="12" font-family="IBMPlexSans-SemiBold, IBM Plex Sans" font-weight="700">Se<tspan x="14.03" y="0" letter-spacing="0.01em">r</tspan><tspan x="18.84" y="0" letter-spacing="0em">vi</tspan><tspan x="28.44" y="0" letter-spacing="-0.01em">c</tspan><tspan x="34.54" y="0" letter-spacing="0em">e B</tspan></text><text transform="translate(847.9 232.9)" font-size="11" font-family="IBMPlexSans, IBM Plex Sans"><tspan letter-spacing="-0.01em">W<tspan x="9.69" y="0" letter-spacing="0em">r</tspan><tspan x="13.68" y="0" letter-spacing="0em">apped</tspan></tspan><tspan x="11.37" y="13.2">data</tspan></text><text transform="translate(714.92 232.9)" font-size="11" font-family="IBMPlexSans, IBM Plex Sans"><tspan letter-spacing="-0.01em">W<tspan x="9.69" y="0" letter-spacing="0em">r</tspan><tspan x="13.68" y="0" letter-spacing="0em">apped data</tspan></tspan><tspan x="-1.57" y="13.2">enc</tspan><tspan x="16.25" y="13.2" letter-spacing="0.01em">r</tspan><tspan x="20.39" y="13.2">y</tspan><tspan x="25.88" y="13.2" letter-spacing="-0.01em">p</tspan><tspan x="32.2" y="13.2">tion </tspan><tspan x="53.81" y="13.2" letter-spacing="-0.02em">k</tspan><tspan x="59.42" y="13.2" letter-spacing="-0.01em">e</tspan><tspan x="65.41" y="13.2" letter-spacing="0em">y</tspan></text><text transform="translate(699.72 149.38)" font-size="12" font-family="IBMPlexSans-SemiBold, IBM Plex Sans" font-weight="700">Se<tspan x="14.03" y="0" letter-spacing="0.01em">r</tspan><tspan x="18.84" y="0" letter-spacing="0em">vi</tspan><tspan x="28.44" y="0" letter-spacing="-0.01em">c</tspan><tspan x="34.54" y="0" letter-spacing="0em">e A</tspan></text><text transform="translate(460.61 430.4)" font-size="11" font-family="IBMPlexSans, IBM Plex Sans"><tspan letter-spacing="-0.01em">W</tspan><tspan x="9.69" y="0" letter-spacing="0em">r</tspan><tspan x="13.68" y="0">ap </tspan><tspan x="28.53" y="0" letter-spacing="0em">y</tspan><tspan x="33.97" y="0">our data enc</tspan><tspan x="95.41" y="0" letter-spacing="0.01em">r</tspan><tspan x="99.56" y="0">y</tspan><tspan x="105.05" y="0" letter-spacing="-0.01em">p</tspan><tspan x="111.36" y="0">tion</tspan><tspan x="0" y="13.2" letter-spacing="-0.02em">k</tspan><tspan x="5.61" y="13.2" letter-spacing="-0.01em">e</tspan><tspan x="11.59" y="13.2" letter-spacing="0em">y</tspan><tspan x="17.04" y="13.2" letter-spacing="0em">s with an added l</tspan><tspan x="100.25" y="13.2" letter-spacing="-0.01em">ay</tspan><tspan x="111.51" y="13.2">er</tspan><tspan letter-spacing="-0.01em"><tspan x="0" y="26.4">o</tspan><tspan x="6.09" y="26.4" letter-spacing="0em">f security</tspan></tspan></text><text transform="translate(466.46 296.47)" font-size="11" font-family="IBMPlexSans-SemiBold, IBM Plex Sans"><tspan font-weight="700">FI<tspan x="11" y="0" letter-spacing="-0.01em">P</tspan><tspan x="17.97" y="0" letter-spacing="0em">S 140-2 </tspan><tspan x="60.71" y="0" letter-spacing="-0.01em">L</tspan><tspan x="66.33" y="0" letter-spacing="-0.01em">e</tspan><tspan x="72.37" y="0" letter-spacing="-0.01em">v</tspan><tspan x="78.04" y="0">el 3</tspan></tspan><tspan font-family="IBMPlexSans, IBM Plex Sans"><tspan x="0" y="13.2">Ha</tspan><tspan x="13.65" y="13.2" letter-spacing="-0.01em">r</tspan><tspan x="17.62" y="13.2">d</tspan><tspan x="24" y="13.2" letter-spacing="-0.01em">w</tspan><tspan x="32.35" y="13.2">a</tspan><tspan x="38.22" y="13.2" letter-spacing="-0.01em">r</tspan><tspan x="42.21" y="13.2">e security module</tspan></tspan></text><text transform="translate(554.36 221.9)" font-size="11" font-family="IBMPlexSans, IBM Plex Sans"><tspan letter-spacing="-0.02em">R</tspan><tspan x="6.88" y="0">oot </tspan><tspan x="25.65" y="0" letter-spacing="-0.02em">k</tspan><tspan x="31.26" y="0" letter-spacing="0em">e</tspan><tspan x="37.25" y="0">y</tspan><tspan x="42.73" y="0" xml:space="preserve" font-family="IBMPlexSans-Bold, IBM Plex Sans" font-weight="700"> C</tspan></text><text transform="translate(472.7 221.9)" font-size="11" font-family="IBMPlexSans, IBM Plex Sans"><tspan letter-spacing="-0.02em">R</tspan><tspan x="6.88" y="0">oot </tspan><tspan x="25.65" y="0" letter-spacing="-0.02em">k</tspan><tspan x="31.26" y="0" letter-spacing="-0.01em">e</tspan><tspan x="37.25" y="0" letter-spacing="0em">y </tspan><tspan x="45.33" y="0" font-family="IBMPlexSans-Bold, IBM Plex Sans" font-weight="700">B</tspan></text><text transform="translate(391.91 221.9)" font-size="11" font-family="IBMPlexSans, IBM Plex Sans"><tspan letter-spacing="-0.02em">R</tspan><tspan x="6.88" y="0">oot </tspan><tspan x="25.65" y="0" letter-spacing="-0.02em">k</tspan><tspan x="31.26" y="0" letter-spacing="-0.01em">e</tspan><tspan x="37.25" y="0" letter-spacing="0em">y</tspan><tspan x="42.73" y="0" xml:space="preserve" font-family="IBMPlexSans-Bold, IBM Plex Sans" font-weight="700"> A</tspan></text><text transform="translate(379.72 149.38)" font-size="12" font-family="IBMPlexSans-SemiBold, IBM Plex Sans" font-weight="700"><tspan letter-spacing="-0.02em">K</tspan><tspan x="7.84" y="0" letter-spacing="-0.01em">e</tspan><tspan x="14.46" y="0">y </tspan><tspan x="23.58" y="0" letter-spacing="-0.01em">P</tspan><tspan x="31.15" y="0" letter-spacing="-0.01em">r</tspan><tspan x="35.81" y="0" letter-spacing="0em">ot</tspan><tspan x="46.96" y="0">ect</tspan></text><text transform="translate(364.72 107.38)" font-size="12" font-family="IBMPlexSans-SemiBold, IBM Plex Sans" font-weight="700">IBM Cloud</text><text transform="translate(203.61 205.4)" font-size="11" font-family="IBMPlexSans, IBM Plex Sans">Add <tspan x="22.41" y="0" letter-spacing="0em">r</tspan><tspan x="26.39" y="0">oot </tspan><tspan x="45.17" y="0" letter-spacing="-0.02em">k</tspan><tspan x="50.78" y="0" letter-spacing="0em">e</tspan><tspan x="56.76" y="0" letter-spacing="0em">y</tspan><tspan x="62.2" y="0">s</tspan></text><text transform="translate(52.58 221.9)" font-size="11" font-family="IBMPlexSans, IBM Plex Sans"><tspan letter-spacing="-0.05em">Y</tspan><tspan x="5.97" y="0" letter-spacing="0em">our en</tspan><tspan x="37.3" y="0" letter-spacing="0em">t</tspan><tspan x="41.12" y="0">erprise</tspan></text><text transform="translate(49 63)" font-size="16" fill="#272727" font-family="IBMPlexSans-Bold, IBM Plex Sans" font-weight="700">In<tspan x="16.45" y="0" letter-spacing="0em">t</tspan><tspan x="22.51" y="0">eg</tspan><tspan x="40.34" y="0" letter-spacing="-0.01em">r</tspan><tspan x="46.58" y="0" letter-spacing="-0.01em">a</tspan><tspan x="55.58" y="0">ting se</tspan><tspan x="105.49" y="0" letter-spacing="0.01em">r</tspan><tspan x="112.06" y="0" letter-spacing="0em">vi</tspan><tspan x="125.25" y="0" letter-spacing="0em">c</tspan><tspan x="133.44" y="0">es with </tspan><tspan x="191.74" y="0" letter-spacing="-0.02em">K</tspan><tspan x="202.48" y="0" letter-spacing="-0.01em">e</tspan><tspan x="211.36" y="0">y </tspan><tspan x="223.68" y="0" letter-spacing="-0.01em">P</tspan><tspan x="234.01" y="0" letter-spacing="-0.01em">r</tspan><tspan x="240.4" y="0" letter-spacing="-0.01em">o</tspan><tspan x="249.33" y="0" letter-spacing="0em">t</tspan><tspan x="255.39" y="0">ect</tspan></text></g></svg>