<svg xmlns="http://www.w3.org/2000/svg" viewBox="0 0 901 450.58"><g id="Visual"><rect x="291.5" y="34.08" width="609" height="416" fill="#fff"/><polyline points="900.5 448.58 900.5 450.08 899 450.08" fill="none" stroke="#d8d8d8" stroke-miterlimit="10"/><line x1="897" y1="450.08" x2="294" y2="450.08" fill="none" stroke="#d8d8d8" stroke-miterlimit="10" stroke-dasharray="3 2"/><polyline points="293 450.08 291.5 450.08 291.5 448.58" fill="none" stroke="#d8d8d8" stroke-miterlimit="10"/><line x1="291.5" y1="446.58" x2="291.5" y2="36.59" fill="none" stroke="#d8d8d8" stroke-miterlimit="10" stroke-dasharray="3.01 2"/><polyline points="291.5 35.58 291.5 34.08 293 34.08" fill="none" stroke="#d8d8d8" stroke-miterlimit="10"/><line x1="295" y1="34.08" x2="898" y2="34.08" fill="none" stroke="#d8d8d8" stroke-miterlimit="10" stroke-dasharray="3 2"/><polyline points="899 34.08 900.5 34.08 900.5 35.58" fill="none" stroke="#d8d8d8" stroke-miterlimit="10"/><line x1="900.5" y1="37.59" x2="900.5" y2="447.58" fill="none" stroke="#d8d8d8" stroke-miterlimit="10" stroke-dasharray="3.01 2"/><rect x="634.5" y="245.08" width="249" height="150" fill="#eaeaea"/><polyline points="883.5 393.58 883.5 395.08 882 395.08" fill="none" stroke="#000f5e" stroke-miterlimit="10"/><line x1="880.01" y1="395.08" x2="637" y2="395.08" fill="none" stroke="#000f5e" stroke-miterlimit="10" stroke-dasharray="2.99 1.99"/><polyline points="636 395.08 634.5 395.08 634.5 393.58" fill="none" stroke="#000f5e" stroke-miterlimit="10"/><line x1="634.5" y1="391.58" x2="634.5" y2="247.58" fill="none" stroke="#000f5e" stroke-miterlimit="10" stroke-dasharray="3 2"/><polyline points="634.5 246.58 634.5 245.08 636 245.08" fill="none" stroke="#000f5e" stroke-miterlimit="10"/><line x1="637.99" y1="245.08" x2="881" y2="245.08" fill="none" stroke="#000f5e" stroke-miterlimit="10" stroke-dasharray="2.99 1.99"/><polyline points="882 245.08 883.5 245.08 883.5 246.58" fill="none" stroke="#000f5e" stroke-miterlimit="10"/><line x1="883.5" y1="248.58" x2="883.5" y2="392.58" fill="none" stroke="#000f5e" stroke-miterlimit="10" stroke-dasharray="3 2"/><rect x="634.5" y="74.08" width="249" height="150" fill="#eaeaea"/><polyline points="883.5 222.58 883.5 224.08 882 224.08" fill="none" stroke="#000f5e" stroke-miterlimit="10"/><line x1="880.01" y1="224.08" x2="637" y2="224.08" fill="none" stroke="#000f5e" stroke-miterlimit="10" stroke-dasharray="2.99 1.99"/><polyline points="636 224.08 634.5 224.08 634.5 222.58" fill="none" stroke="#000f5e" stroke-miterlimit="10"/><line x1="634.5" y1="220.58" x2="634.5" y2="76.58" fill="none" stroke="#000f5e" stroke-miterlimit="10" stroke-dasharray="3 2"/><polyline points="634.5 75.58 634.5 74.08 636 74.08" fill="none" stroke="#000f5e" stroke-miterlimit="10"/><line x1="637.99" y1="74.08" x2="881" y2="74.08" fill="none" stroke="#000f5e" stroke-miterlimit="10" stroke-dasharray="2.99 1.99"/><polyline points="882 74.08 883.5 74.08 883.5 75.58" fill="none" stroke="#000f5e" stroke-miterlimit="10"/><line x1="883.5" y1="77.58" x2="883.5" y2="221.58" fill="none" stroke="#000f5e" stroke-miterlimit="10" stroke-dasharray="3 2"/><rect x="314.5" y="74.08" width="276" height="234" fill="#edf5ff"/><polyline points="590.5 306.58 590.5 308.08 589 308.08" fill="none" stroke="#000f5e" stroke-miterlimit="10"/><line x1="586.99" y1="308.08" x2="317" y2="308.08" fill="none" stroke="#000f5e" stroke-miterlimit="10" stroke-dasharray="3.01 2.01"/><polyline points="316 308.08 314.5 308.08 314.5 306.58" fill="none" stroke="#000f5e" stroke-miterlimit="10"/><line x1="314.5" y1="304.59" x2="314.5" y2="76.58" fill="none" stroke="#000f5e" stroke-miterlimit="10" stroke-dasharray="2.99 1.99"/><polyline points="314.5 75.58 314.5 74.08 316 74.08" fill="none" stroke="#000f5e" stroke-miterlimit="10"/><line x1="318.01" y1="74.08" x2="588" y2="74.08" fill="none" stroke="#000f5e" stroke-miterlimit="10" stroke-dasharray="3.01 2.01"/><polyline points="589 74.08 590.5 74.08 590.5 75.58" fill="none" stroke="#000f5e" stroke-miterlimit="10"/><line x1="590.5" y1="77.58" x2="590.5" y2="305.59" fill="none" stroke="#000f5e" stroke-miterlimit="10" stroke-dasharray="2.99 1.99"/><path d="M393,358.58H573a0,0,0,0,1,0,0v54.49a10.51,10.51,0,0,1-10.51,10.51h-159A10.51,10.51,0,0,1,393,413.08V358.58A0,0,0,0,1,393,358.58Z" fill="#b380e0" opacity="0.15"/><path d="M136,133.58H277a0,0,0,0,1,0,0v23.49a10.51,10.51,0,0,1-10.51,10.51h-120A10.51,10.51,0,0,1,136,157.08V133.58A0,0,0,0,1,136,133.58Z" fill="#b380e0" opacity="0.15"/><line x1="322.82" y1="133.83" x2="103.05" y2="133.83" fill="none" stroke="#000f5e" stroke-miterlimit="10"/><polygon points="321.37 128.85 330 133.83 321.37 138.82 321.37 128.85" fill="#000f5e"/><path d="M103.26,130.07a3.76,3.76,0,1,0,3.76,3.76A3.76,3.76,0,0,0,103.26,130.07Z" fill="#fff"/><path d="M103.26,129.57A4.26,4.26,0,1,1,99,133.83a4.27,4.27,0,0,1,4.26-4.26Zm0,7.52a3.26,3.26,0,1,0-3.26-3.26,3.26,3.26,0,0,0,3.26,3.26Z" fill="#000f5e"/><polyline points="659 150.08 614.5 150.08 614.5 358.08 366.5 358.08 366.5 186.66" fill="none" stroke="#a71c71" stroke-miterlimit="10"/><rect x="658.5" y="146.83" width="1" height="6.5" fill="#a71c71"/><path d="M370.26,186.84a3.76,3.76,0,1,0-3.76,3.76A3.76,3.76,0,0,0,370.26,186.84Z" fill="#a71c71"/><line x1="615" y1="317.08" x2="659.5" y2="317.08" fill="none" stroke="#a71c71" stroke-miterlimit="10"/><rect x="659" y="313.83" width="1" height="6.5" fill="#a71c71"/><polygon points="330.5 211.08 330.5 250.33 330.5 289.58 451.5 289.58 573.5 289.58 573.5 250.33 573.5 211.08 330.5 211.08" fill="#c5deff" stroke="#000f5e" stroke-miterlimit="10" stroke-dasharray="3 2"/><g id="Hardware_security_module" data-name="Hardware security module"><g id="HSM"><rect x="345.1" y="247.39" width="48.5" height="12.79" fill="#ede9e7"/><path d="M392.85,248.14v11.29h-47V248.14h47m1.5-1.5h-50v14.29h50V246.64Z" fill="#23292e"/><rect x="367.09" y="252.53" width="21.52" height="2.9" fill="#23292e"/><circle cx="361.8" cy="253.98" r="1.71" fill="#23292e"/><circle cx="356.42" cy="253.98" r="1.71" fill="#23292e"/><circle cx="351.03" cy="253.98" r="1.71" fill="#23292e"/><polygon points="345.56 245.89 348.3 240.48 389.83 240.48 393.03 245.89 345.56 245.89" fill="#a8a3a3"/><path d="M389.4,241.23l2.31,3.91H346.79l2-3.91H389.4m.85-1.5H347.84l-3.49,6.91h50l-4.1-6.91Z" fill="#23292e"/></g></g><rect x="10" y="119.07" width="69" height="31" fill="#69a6ff" stroke="#000f5e" stroke-miterlimit="10" stroke-width="2"/><polygon points="9.5 97.07 9.5 146.23 3.87 150.07 9.5 150.07 42.13 150.07 45.5 150.07 45.5 97.07 9.5 97.07" fill="#edf5ff" stroke="#000f5e" stroke-miterlimit="10" stroke-width="2"/><line x1="28" y1="84.03" x2="28" y2="97.03" fill="none" stroke="#000f5e" stroke-miterlimit="10" stroke-width="2"/><rect x="18" y="138.03" width="21" height="12" fill="#003bc9" stroke="#000f5e" stroke-miterlimit="10" stroke-width="2"/><line x1="25" y1="139.03" x2="25" y2="150.03" fill="none" stroke="#000f5e" stroke-miterlimit="10" stroke-width="2"/><line x1="28" y1="144.03" x2="28" y2="146.03" fill="none" stroke="#000f5e" stroke-miterlimit="10" stroke-width="2"/><line x1="51" y1="127.03" x2="74" y2="127.03" fill="none" stroke="#000f5e" stroke-miterlimit="10" stroke-width="2"/><line x1="51" y1="131.03" x2="74" y2="131.03" fill="none" stroke="#000f5e" stroke-miterlimit="10" stroke-width="2"/><line x1="51" y1="135.03" x2="74" y2="135.03" fill="none" stroke="#000f5e" stroke-miterlimit="10" stroke-width="2"/><line x1="17" y1="106.03" x2="40" y2="106.03" fill="none" stroke="#000f5e" stroke-miterlimit="10" stroke-width="2"/><line x1="17" y1="110.03" x2="40" y2="110.03" fill="none" stroke="#000f5e" stroke-miterlimit="10" stroke-width="2"/><line x1="17" y1="114.03" x2="40" y2="114.03" fill="none" stroke="#000f5e" stroke-miterlimit="10" stroke-width="2"/><line x1="17" y1="118.03" x2="40" y2="118.03" fill="none" stroke="#000f5e" stroke-miterlimit="10" stroke-width="2"/><line x1="739.5" y1="145.08" x2="776.82" y2="145.08" fill="none" stroke="#a71c71" stroke-miterlimit="10" stroke-dasharray="1 1"/><rect x="739" y="141.83" width="1" height="6.5" fill="#a71c71"/><polygon points="775.37 150.07 784 145.08 775.37 140.1 775.37 150.07" fill="#a71c71"/><line x1="739.5" y1="317.08" x2="776.82" y2="317.08" fill="none" stroke="#a71c71" stroke-miterlimit="10" stroke-dasharray="1 1"/><rect x="739" y="313.83" width="1" height="6.5" fill="#a71c71"/><polygon points="775.37 322.07 784 317.08 775.37 312.1 775.37 322.07" fill="#a71c71"/><path d="M713.68,145.11a2.65,2.65,0,0,1-2,.83,7.8,7.8,0,0,1-2.16-.26,20.56,20.56,0,0,1-4-1.52,37.7,37.7,0,0,1-7-4.73,25.77,25.77,0,0,1-5.91-6.19,15.37,15.37,0,0,1-1.79-4.05,10.26,10.26,0,0,1-.22-1.13,6.62,6.62,0,0,1,0-1.18,4.09,4.09,0,0,1,.26-1.19c.11-.19.21-.37.32-.54s.31-.28.45-.4l.22.2a2.33,2.33,0,0,0,.12,1.78,8.36,8.36,0,0,0,.84,1.66,35.75,35.75,0,0,0,2.29,3.13c1.68,2,3.2,4.21,5.08,6.14a42.58,42.58,0,0,0,6.17,5.2,19.42,19.42,0,0,0,3.51,1.94,7.53,7.53,0,0,0,1.9.51,2.15,2.15,0,0,0,1.78-.41Z" fill="#efc100"/><path d="M720,121.36l-7.06-.26.25.27H713l-.29-.29-13.6,13.6.16.16-2.39,2.4a11.26,11.26,0,0,0-3.25-.48,10.39,10.39,0,1,0,10.77,10.38,10.14,10.14,0,0,0-.66-3.57l3.74-3.74-.77-.77,1.95-1.94.73.73,9.76-9.75.26.3.05-.61.27-.27-.23-.23Z" fill="#cba9e6"/><path d="M713.08,120.12,697.19,136a11.51,11.51,0,1,0,7.7,7.7l3.06-3.06v-2.57h2.56l10.26-10.26v-7.69Zm6.41,7.16L710,136.79h-3.31v3.31L704,142.79l-.54.54.22.74a10.39,10.39,0,0,1,.44,3,10.25,10.25,0,1,1-7.28-9.82l.74.22.54-.54,15.51-15.51h5.88Z" fill="#6e177d"/><circle cx="691.19" cy="149.67" r="2.56" fill="#6e177d"/><rect x="706.26" y="128.52" width="10.88" height="1.28" transform="translate(117.12 541.08) rotate(-45)" fill="#6e177d"/><path d="M717.66,119.82l-7-.26.24.27h-.14l-.28-.29-13.6,13.6.16.16-2.4,2.4a11.14,11.14,0,0,0-3.24-.48,10.39,10.39,0,1,0,10.77,10.38,10.05,10.05,0,0,0-.67-3.56l3.74-3.75-.77-.77,2-1.94.74.73,9.75-9.75.27.3,0-.61.27-.27-.23-.23Z" fill="#9bc1fa"/><path d="M710.77,118.58l-15.88,15.89a11.55,11.55,0,1,0,7.69,7.69l3.06-3.06v-2.57h2.56l10.26-10.25v-7.7Zm6.41,7.17-9.51,9.5h-3.31v3.32l-2.69,2.68-.54.55.22.73a10.05,10.05,0,0,1,.44,3,10.25,10.25,0,1,1-7.28-9.82l.74.23.54-.55,15.51-15.5h5.88Z" fill="#000f5e"/><circle cx="688.88" cy="148.13" r="2.56" fill="#000f5e"/><rect x="703.95" y="126.98" width="10.88" height="1.28" transform="translate(117.53 539) rotate(-45)" fill="#000f5e"/><path d="M691.54,124.75a2.62,2.62,0,0,1,2-.84,7.68,7.68,0,0,1,2.15.27,19.79,19.79,0,0,1,4,1.52,37.87,37.87,0,0,1,7,4.73,26,26,0,0,1,5.91,6.19,15.56,15.56,0,0,1,1.79,4,10.55,10.55,0,0,1,.22,1.12,6.74,6.74,0,0,1,0,1.19,4.17,4.17,0,0,1-.26,1.19c-.1.19-.21.37-.31.54s-.31.28-.45.4l-.23-.21a2.26,2.26,0,0,0-.11-1.77,9,9,0,0,0-.85-1.66,30.9,30.9,0,0,0-2.29-3.13c-1.68-2-3.19-4.22-5.08-6.15A43,43,0,0,0,699,127a19.15,19.15,0,0,0-3.51-1.94,6.87,6.87,0,0,0-1.9-.51,2.21,2.21,0,0,0-1.79.4Z" fill="#efc100"/><ellipse cx="715.38" cy="152.14" rx="4.23" ry="4.62" fill="#fff"/><path d="M719.62,146.21a4.64,4.64,0,0,0-6.63-4.15,4.79,4.79,0,0,0-2.61,4.35v1.89a6.15,6.15,0,1,0,9.24,0Zm-7.7,0a3.07,3.07,0,0,1,4.83-2.49,3.34,3.34,0,0,1,1.33,2.72v.6a6.09,6.09,0,0,0-3.08-.83,6.2,6.2,0,0,0-3.08.83Zm2.18,9.55-2.86-2.85,1.09-1.09,1.77,1.76,4.07-4.07,1.08,1.09Z" fill="#5aa700"/><path d="M713.68,316.11a2.65,2.65,0,0,1-2,.83,7.8,7.8,0,0,1-2.16-.26,20.56,20.56,0,0,1-4-1.52,37.7,37.7,0,0,1-7-4.73,25.77,25.77,0,0,1-5.91-6.19,15.37,15.37,0,0,1-1.79-4.05,10.26,10.26,0,0,1-.22-1.13,6.62,6.62,0,0,1,0-1.18,4.09,4.09,0,0,1,.26-1.19c.11-.19.21-.37.32-.54s.31-.28.45-.4l.22.2a2.33,2.33,0,0,0,.12,1.78,8.36,8.36,0,0,0,.84,1.66,35.75,35.75,0,0,0,2.29,3.13c1.68,2,3.2,4.21,5.08,6.14a42.58,42.58,0,0,0,6.17,5.2,19.42,19.42,0,0,0,3.51,1.94,7.53,7.53,0,0,0,1.9.51,2.15,2.15,0,0,0,1.78-.41Z" fill="#efc100"/><path d="M720,292.36l-7.06-.26.25.27H713l-.29-.29-13.6,13.6.16.16-2.39,2.4a11.26,11.26,0,0,0-3.25-.48,10.39,10.39,0,1,0,10.77,10.38,10.14,10.14,0,0,0-.66-3.57l3.74-3.74-.77-.77,1.95-1.94.73.73,9.76-9.75.26.3.05-.61.27-.27-.23-.23Z" fill="#cba9e6"/><path d="M713.08,291.12,697.19,307a11.51,11.51,0,1,0,7.7,7.7l3.06-3.06v-2.57h2.56l10.26-10.26v-7.69Zm6.41,7.16L710,307.79h-3.31v3.31L704,313.79l-.54.54.22.74a10.39,10.39,0,0,1,.44,3,10.25,10.25,0,1,1-7.28-9.82l.74.22.54-.54,15.51-15.51h5.88Z" fill="#6e177d"/><circle cx="691.19" cy="320.67" r="2.56" fill="#6e177d"/><rect x="706.26" y="299.52" width="10.88" height="1.28" transform="translate(-3.79 591.16) rotate(-45)" fill="#6e177d"/><path d="M717.66,290.82l-7-.26.24.27h-.14l-.28-.29-13.6,13.6.16.16-2.4,2.4a11.14,11.14,0,0,0-3.24-.48,10.39,10.39,0,1,0,10.77,10.38,10.05,10.05,0,0,0-.67-3.56l3.74-3.75-.77-.77,2-1.94.74.73,9.75-9.75.27.3,0-.61.27-.27-.23-.23Z" fill="#9bc1fa"/><path d="M710.77,289.58l-15.88,15.89a11.55,11.55,0,1,0,7.69,7.69l3.06-3.06v-2.57h2.56l10.26-10.25v-7.7Zm6.41,7.17-9.51,9.5h-3.31v3.32l-2.69,2.68-.54.55.22.73a10.05,10.05,0,0,1,.44,3,10.25,10.25,0,1,1-7.28-9.82l.74.23.54-.55,15.51-15.5h5.88Z" fill="#000f5e"/><circle cx="688.88" cy="319.13" r="2.56" fill="#000f5e"/><rect x="703.95" y="297.98" width="10.88" height="1.28" transform="translate(-3.38 589.08) rotate(-45)" fill="#000f5e"/><path d="M691.54,295.75a2.62,2.62,0,0,1,2-.84,7.68,7.68,0,0,1,2.15.27,19.79,19.79,0,0,1,4,1.52,37.87,37.87,0,0,1,7,4.73,26,26,0,0,1,5.91,6.19,15.56,15.56,0,0,1,1.79,4.05,10.55,10.55,0,0,1,.22,1.12,6.74,6.74,0,0,1,0,1.19,4.17,4.17,0,0,1-.26,1.19c-.1.19-.21.37-.31.54s-.31.28-.45.4l-.23-.21a2.26,2.26,0,0,0-.11-1.77,9,9,0,0,0-.85-1.66,30.9,30.9,0,0,0-2.29-3.13c-1.68-2-3.19-4.22-5.08-6.15A43,43,0,0,0,699,298a19.15,19.15,0,0,0-3.51-1.94,6.87,6.87,0,0,0-1.9-.51,2.21,2.21,0,0,0-1.79.4Z" fill="#efc100"/><ellipse cx="715.38" cy="323.14" rx="4.23" ry="4.62" fill="#fff"/><path d="M719.62,317.21a4.64,4.64,0,0,0-6.63-4.15,4.79,4.79,0,0,0-2.61,4.35v1.89a6.15,6.15,0,1,0,9.24,0Zm-7.7,0a3.07,3.07,0,0,1,4.83-2.49,3.34,3.34,0,0,1,1.33,2.72v.6a6.09,6.09,0,0,0-3.08-.83,6.2,6.2,0,0,0-3.08.83Zm2.18,9.55-2.86-2.85,1.09-1.09,1.77,1.76,4.07-4.07,1.08,1.09Z" fill="#5aa700"/><path d="M840.61,142a3.45,3.45,0,0,1-1.79,2.21,10.67,10.67,0,0,1-2.64,1,26.25,26.25,0,0,1-5.56.73,53.12,53.12,0,0,1-11.11-1c-3.64-.73-7.37-1.52-10.73-3.36a21.42,21.42,0,0,1-4.7-3.34,9.63,9.63,0,0,1-1.83-2.35,5,5,0,0,1-.51-1.47,2.53,2.53,0,0,1,.19-1.52l.29.07a3.12,3.12,0,0,0,1.14,2.11,11.39,11.39,0,0,0,2,1.51,37,37,0,0,0,4.69,2.29,93.48,93.48,0,0,0,10,3.72,50.66,50.66,0,0,0,10.58,1.85,24.51,24.51,0,0,0,5.35-.14,9.57,9.57,0,0,0,2.54-.7,3,3,0,0,0,1.79-1.71Z" fill="#efc100"/><polygon points="833.78 128.53 833.78 156.07 810.07 156.07 810.07 119.35 823.84 119.35 823.84 128.53 833.78 128.53" fill="#fff"/><path d="M824.3,118.58H809v38.25h25.5V128.78Zm8.93,37h-23v-35.7H823v10.2h10.2Z" fill="#000f5e"/><rect x="814.1" y="133.88" width="15.3" height="1.27" fill="#000f5e"/><rect x="814.1" y="136.43" width="15.3" height="1.27" fill="#000f5e"/><rect x="814.1" y="138.98" width="7.65" height="1.27" fill="#000f5e"/><path d="M801.93,132.89a3.44,3.44,0,0,1,1.78-2.21,10.51,10.51,0,0,1,2.65-1,26.09,26.09,0,0,1,5.56-.74,53.8,53.8,0,0,1,11.11,1c3.64.73,7.37,1.52,10.73,3.36a21.13,21.13,0,0,1,4.69,3.34,9.54,9.54,0,0,1,1.84,2.36,4.87,4.87,0,0,1,.51,1.46,2.57,2.57,0,0,1-.19,1.53l-.29-.07a3.16,3.16,0,0,0-1.14-2.12,10.88,10.88,0,0,0-2-1.5,36.4,36.4,0,0,0-4.69-2.3,93.48,93.48,0,0,0-10-3.72,50.66,50.66,0,0,0-10.58-1.85,25.15,25.15,0,0,0-5.35.14,9.47,9.47,0,0,0-2.54.7,3,3,0,0,0-1.79,1.72Z" fill="#efc100"/><ellipse cx="830.34" cy="152.24" rx="4.21" ry="4.59" fill="#fff"/><path d="M834.85,146.34a4.61,4.61,0,0,0-6.59-4.12,4.77,4.77,0,0,0-2.59,4.33v1.88a6.12,6.12,0,1,0,9.18,0Zm-7.65,0a3,3,0,0,1,4.79-2.47,3.29,3.29,0,0,1,1.33,2.71v.59a6.06,6.06,0,0,0-6.12,0Zm2.16,9.5L826.52,153l1.08-1.09,1.76,1.76,4-4.05,1.08,1.08Z" fill="#5aa700"/><path d="M840.61,313a3.45,3.45,0,0,1-1.79,2.21,10.67,10.67,0,0,1-2.64,1,26.25,26.25,0,0,1-5.56.73,53.12,53.12,0,0,1-11.11-1c-3.64-.73-7.37-1.52-10.73-3.36a21.42,21.42,0,0,1-4.7-3.34,9.63,9.63,0,0,1-1.83-2.35,5,5,0,0,1-.51-1.47,2.53,2.53,0,0,1,.19-1.52l.29.06a3.12,3.12,0,0,0,1.14,2.12,11.39,11.39,0,0,0,2,1.51,37,37,0,0,0,4.69,2.29,93.48,93.48,0,0,0,10,3.72,50.66,50.66,0,0,0,10.58,1.85,24.51,24.51,0,0,0,5.35-.14,9.57,9.57,0,0,0,2.54-.7,3,3,0,0,0,1.79-1.71Z" fill="#efc100"/><polygon points="833.78 299.53 833.78 327.07 810.07 327.07 810.07 290.35 823.84 290.35 823.84 299.53 833.78 299.53" fill="#fff"/><path d="M824.3,289.58H809v38.25h25.5V299.78Zm8.93,37h-23v-35.7H823v10.2h10.2Z" fill="#000f5e"/><rect x="814.1" y="304.88" width="15.3" height="1.27" fill="#000f5e"/><rect x="814.1" y="307.43" width="15.3" height="1.27" fill="#000f5e"/><rect x="814.1" y="309.98" width="7.65" height="1.27" fill="#000f5e"/><path d="M801.93,303.89a3.44,3.44,0,0,1,1.78-2.21,10.51,10.51,0,0,1,2.65-1,26.09,26.09,0,0,1,5.56-.74,53.8,53.8,0,0,1,11.11,1c3.64.73,7.37,1.52,10.73,3.36a21.13,21.13,0,0,1,4.69,3.34,9.54,9.54,0,0,1,1.84,2.36,4.87,4.87,0,0,1,.51,1.46,2.57,2.57,0,0,1-.19,1.53l-.29-.07a3.16,3.16,0,0,0-1.14-2.12,10.88,10.88,0,0,0-2-1.5,36.4,36.4,0,0,0-4.69-2.3,93.48,93.48,0,0,0-10-3.72,50.66,50.66,0,0,0-10.58-1.85,25.15,25.15,0,0,0-5.35.14,9.47,9.47,0,0,0-2.54.7,3,3,0,0,0-1.79,1.71Z" fill="#efc100"/><ellipse cx="830.34" cy="323.24" rx="4.21" ry="4.59" fill="#fff"/><path d="M834.85,317.34a4.61,4.61,0,0,0-6.59-4.12,4.77,4.77,0,0,0-2.59,4.33v1.88a6.12,6.12,0,1,0,9.18,0Zm-7.65,0a3,3,0,0,1,4.79-2.47,3.29,3.29,0,0,1,1.33,2.71v.59a6.06,6.06,0,0,0-6.12,0Zm2.16,9.5L826.52,324l1.08-1.09,1.76,1.76,4-4.05,1.08,1.08Z" fill="#5aa700"/></g><g id="Text"><text transform="translate(798.82 354.48)" font-size="11" font-family="IBMPlexSans, IBM Plex Sans">Wrapped<tspan x="11.45" y="13.2">data</tspan></text><text transform="translate(665.84 354.48)" font-size="11" font-family="IBMPlexSans, IBM Plex Sans">Wrapped data<tspan x="-1.6" y="13.2">encryption key</tspan></text><text transform="translate(650.72 270.96)" font-size="12" font-family="IBMPlexSans-SemiBold, IBM Plex Sans" font-weight="600">Se<tspan x="14.03" y="0" letter-spacing="0.01em">r</tspan><tspan x="18.84" y="0" letter-spacing="0em">vi</tspan><tspan x="28.44" y="0" letter-spacing="-0.01em">c</tspan><tspan x="34.54" y="0" letter-spacing="0em">e B</tspan></text><text transform="translate(798.82 183.48)" font-size="11" font-family="IBMPlexSans, IBM Plex Sans">Wrapped<tspan x="11.45" y="13.2">data</tspan></text><text transform="translate(665.84 183.48)" font-size="11" font-family="IBMPlexSans, IBM Plex Sans">Wrapped data<tspan x="-1.6" y="13.2">encryption key</tspan></text><text transform="translate(650.72 99.96)" font-size="12" font-family="IBMPlexSans-SemiBold, IBM Plex Sans" font-weight="600">Se<tspan x="14.03" y="0" letter-spacing="0.01em">r</tspan><tspan x="18.84" y="0" letter-spacing="0em">vi</tspan><tspan x="28.44" y="0" letter-spacing="-0.01em">c</tspan><tspan x="34.54" y="0" letter-spacing="0em">e A</tspan></text><text transform="translate(411.61 380.98)" font-size="11" font-family="IBMPlexSans, IBM Plex Sans">Wrap your data encryption<tspan x="0" y="13.2">keys with an added layer</tspan><tspan x="0" y="26.4">of security</tspan></text><text transform="translate(417.46 247.05)" font-size="11" font-family="IBMPlexSans-SemiBold, IBM Plex Sans" font-weight="600">FIPS 140-2 Level 3<tspan font-family="IBMPlexSans, IBM Plex Sans" font-weight="400"><tspan x="0" y="13.2">Hardware security module</tspan></tspan></text><text transform="translate(505.15 172.48)" font-size="11" font-family="IBMPlexSans, IBM Plex Sans">Root key<tspan x="43.14" y="0" xml:space="preserve" font-family="IBMPlexSans-Bold, IBM Plex Sans" font-weight="700" letter-spacing="0em"> C</tspan></text><text id="Root_key_B" data-name="Root key B" transform="translate(423.5 172.48)" font-size="11" font-family="IBMPlexSans, IBM Plex Sans">Root key <tspan x="45.74" y="0" font-family="IBMPlexSans-Bold, IBM Plex Sans" font-weight="700">B</tspan></text><text transform="translate(342.71 172.48)" font-size="11" font-family="IBMPlexSans, IBM Plex Sans">Root key<tspan x="43.14" y="0" xml:space="preserve" font-family="IBMPlexSans-Bold, IBM Plex Sans" font-weight="700"> A</tspan></text><text transform="translate(330.72 99.96)" font-size="12" font-family="IBMPlexSans-SemiBold, IBM Plex Sans" font-weight="600">Key Protect</text><text transform="translate(315.72 57.96)" font-size="12" font-family="IBMPlexSans-SemiBold, IBM Plex Sans" font-weight="600">IBM Cloud</text><text transform="translate(154.61 155.98)" font-size="11" font-family="IBMPlexSans, IBM Plex Sans">Add root keys</text><text transform="translate(3.28 172.48)" font-size="11" font-family="IBMPlexSans, IBM Plex Sans">Your enterprise</text><text transform="translate(0 13.58)" font-size="16" fill="#272727" font-family="IBMPlexSans-Bold, IBM Plex Sans" font-weight="700">Integrating services with Key Protect</text><path d="M438.37,129a9.34,9.34,0,1,0,8.43,13.33h4.91l.66-1.33.67.67.67.66h12.66l4-4-4-4H446.8a9.34,9.34,0,0,0-8.43-5.33" fill="#ceaceb"/><path d="M466.82,133.87H447.35a10,10,0,1,0-1.74,11.79,10.27,10.27,0,0,0,1.74-2.36h3.76l1.57-1.57,1.57,1.57h12.57l4.71-4.72Zm-.46,8.32H454.71l-1.25-1.25-.78-.78-.79.78-1.24,1.25h-4l-.32.58a8.65,8.65,0,0,1-1.55,2.1,8.89,8.89,0,1,1,0-12.57,8.79,8.79,0,0,1,1.55,2.09l.32.59h19.67l3.6,3.6Z" fill="#6e177d"/><circle cx="435.3" cy="138.57" r="2.22" fill="#6e177d"/><rect x="455.72" y="138.01" width="9.43" height="1.11" fill="#6e177d"/><path d="M357.68,129a9.34,9.34,0,1,0,8.42,13.33H371l.67-1.33.67.67.66.66h12.67l4-4-4-4H366.1a9.32,9.32,0,0,0-8.42-5.33" fill="#ceaceb"/><path d="M386.13,133.87H366.66a9.83,9.83,0,0,0-1.75-2.36,10,10,0,1,0,1.75,11.79h3.75l1.57-1.57,1.58,1.57h12.57l4.71-4.72Zm-.46,8.32H374l-1.25-1.25-.79-.78-.78.78L370,142.19h-4l-.31.58a8.89,8.89,0,1,1-1.55-10.47,9.07,9.07,0,0,1,1.55,2.09l.31.59h19.68l3.6,3.6Z" fill="#6e177d"/><circle cx="354.6" cy="138.57" r="2.22" fill="#6e177d"/><rect x="375.03" y="138.01" width="9.43" height="1.11" fill="#6e177d"/><path d="M519.94,129a9.34,9.34,0,1,0,8.42,13.33h4.91l.66-1.33.67.67.67.66h12.66l4-4-4-4H528.36a9.32,9.32,0,0,0-8.42-5.33" fill="#ceaceb"/><path d="M548.38,133.87H528.92a10.39,10.39,0,0,0-1.75-2.36,10,10,0,1,0,0,14.15,10.62,10.62,0,0,0,1.75-2.36h3.75l1.57-1.57,1.57,1.57h12.57l4.72-4.72Zm-.46,8.32H536.27L535,140.94l-.79-.78-.79.78-1.24,1.25h-4l-.31.58a8.89,8.89,0,1,1-1.56-10.47,9.12,9.12,0,0,1,1.56,2.09l.31.59h19.67l3.6,3.6Z" fill="#6e177d"/><circle cx="516.86" cy="138.57" r="2.22" fill="#6e177d"/><rect x="537.29" y="138.01" width="9.43" height="1.11" fill="#6e177d"/></g></svg>