<svg id="dceb6d14-c938-4121-b763-a611bde9e86b" data-name="Layer 1" xmlns="http://www.w3.org/2000/svg" xmlns:xlink="http://www.w3.org/1999/xlink" viewBox="0 0 580 440"><defs><clipPath id="3aedf27a-f738-4cca-8eaa-10d077a190fa"><polyline points="166 66.5 208.99 66.5 208.99 86.5 166 86.5 166 66.5" fill="none"/></clipPath><clipPath id="51937aaa-646c-4074-9cab-3e6a63b40e6e"><polyline points="166 70.5 208.99 70.5 208.99 90.5 166 90.5 166 70.5" fill="none"/></clipPath><clipPath id="aab407f8-6308-4e48-976f-ab851b5e37e1"><rect x="166" y="74" width="42.99" height="20" fill="none"/></clipPath><clipPath id="51fd1914-c53b-486c-88b4-36969619839a"><polyline points="166 156.5 208.99 156.5 208.99 176.5 166 176.5 166 156.5" fill="none"/></clipPath><clipPath id="96d4647b-2c34-44d5-8533-20e6f0c82495"><polyline points="166 215.5 208.99 215.5 208.99 235.5 166 235.5 166 215.5" fill="none"/></clipPath><clipPath id="7da36c59-ea59-4984-bfb2-ed98de52fe15"><rect x="166" y="301" width="42.99" height="20" fill="none"/></clipPath></defs><title>root-key-stack</title><rect x="123.5" y="50.5" width="132" height="340" fill="#edf5ff"/><polyline points="255.5 389 255.5 390.5 254 390.5" fill="none" stroke="#000f5e" stroke-miterlimit="10"/><line x1="251.97" y1="390.5" x2="126.02" y2="390.5" fill="none" stroke="#000f5e" stroke-miterlimit="10" stroke-dasharray="3.05 2.03"/><polyline points="125 390.5 123.5 390.5 123.5 389" fill="none" stroke="#000f5e" stroke-miterlimit="10"/><line x1="123.5" y1="387" x2="123.5" y2="53" fill="none" stroke="#000f5e" stroke-miterlimit="10" stroke-dasharray="3 2"/><polyline points="123.5 52 123.5 50.5 125 50.5" fill="none" stroke="#000f5e" stroke-miterlimit="10"/><line x1="127.03" y1="50.5" x2="252.98" y2="50.5" fill="none" stroke="#000f5e" stroke-miterlimit="10" stroke-dasharray="3.05 2.03"/><polyline points="254 50.5 255.5 50.5 255.5 52" fill="none" stroke="#000f5e" stroke-miterlimit="10"/><line x1="255.5" y1="54" x2="255.5" y2="388" fill="none" stroke="#000f5e" stroke-miterlimit="10" stroke-dasharray="3 2"/><rect x="140.5" y="133.5" width="96" height="238" fill="#fff"/><rect x="140.5" y="133.5" width="96" height="238" fill="none" stroke="#eaeaea" stroke-miterlimit="10" stroke-width="0.5"/><g clip-path="url(#3aedf27a-f738-4cca-8eaa-10d077a190fa)"><g clip-path="url(#3aedf27a-f738-4cca-8eaa-10d077a190fa)"><path d="M193.18,77V75.93h9.43V77h-9.43M172.75,78.7a2.22,2.22,0,1,1,1.57-.65,2.22,2.22,0,0,1-1.57.65M176,67.62a8.89,8.89,0,1,0,7.84,13.07l.31-.59h4l1.25-1.25.79-.79.79.79,1.25,1.25h11.65l3.6-3.6-3.6-3.6H184.14l-.31-.59A8.87,8.87,0,0,0,176,67.62" fill="#e6d5f5"/><path d="M176,85.38a8.89,8.89,0,1,1,7.84-13.07l.31.59h19.67l3.6,3.6-3.6,3.6H192.16l-1.25-1.25-.79-.79-.79.79L188.1,80.1h-4l-.31.59A8.87,8.87,0,0,1,176,85.38m0-18.88h0a10,10,0,0,0,0,20h.1a10,10,0,0,0,8.77-5.29h3.75l1.57-1.57,1.57,1.57h12.57L209,76.5l-4.71-4.71H184.81A10,10,0,0,0,176,66.5" fill="#b68bbe"/><path d="M172.75,74.26a2.22,2.22,0,1,0,1.57.65,2.22,2.22,0,0,0-1.57-.65" fill="#b68bbe"/><polyline points="202.61 75.93 193.18 75.93 193.18 77.04 202.61 77.04 202.61 75.93" fill="#b68bbe"/></g></g><rect x="300" y="64" width="224" height="75" fill="#161616"/><text transform="translate(165.28 114.9)" font-size="11" font-family="IBMPlexSans-Bold, IBM Plex Sans" font-weight="700"><tspan letter-spacing="-0.02em">R</tspan><tspan x="7.25" y="0">o</tspan><tspan x="13.45" y="0" letter-spacing="-0.01em">o</tspan><tspan x="19.59" y="0">t </tspan><tspan x="26.4" y="0" letter-spacing="-0.03em">k</tspan><tspan x="32.45" y="0" letter-spacing="-0.01em">e</tspan><tspan x="38.55" y="0">y</tspan></text><circle cx="184" cy="276" r="1" fill="#c6c6c6"/><circle cx="184" cy="288" r="1" fill="#c6c6c6"/><circle cx="184" cy="282" r="1" fill="#c6c6c6"/><text transform="translate(313.5 82)" font-size="7" font-family="IBMPlexMono, IBM Plex Mono"><tspan fill="#a3a3a3">{</tspan><tspan x="0" y="8.4" xml:space="preserve">  </tspan><tspan x="8.4" y="8.4" fill="#6ba5fc">“name”</tspan><tspan x="33.6" y="8.4" fill="#a3a3a3">:</tspan><tspan x="37.8" y="8.4" letter-spacing="0em"> </tspan><tspan x="42" y="8.4" fill="#169997">“my-root-key”</tspan><tspan x="96.6" y="8.4" fill="#a3a3a3">,</tspan><tspan x="0" y="16.8" xml:space="preserve">  </tspan><tspan x="8.4" y="16.8" fill="#6ba5fc">“id”</tspan><tspan x="25.2" y="16.8" fill="#a3a3a3">:</tspan><tspan x="29.4" y="16.8" letter-spacing="0em"> </tspan><tspan x="33.6" y="16.8" fill="#169997">“cae8fc45-6e0f-4eb7-8a28-b85c63764ed9”</tspan><tspan x="193.2" y="16.8" fill="#a3a3a3">,</tspan><tspan x="0" y="25.2" xml:space="preserve">  </tspan><tspan x="8.4" y="25.2" fill="#6ba5fc">“creationDate”</tspan><tspan x="67.2" y="25.2" fill="#a3a3a3" letter-spacing="0em">:</tspan><tspan x="71.4" y="25.2"> </tspan><tspan x="75.6" y="25.2" fill="#169997">“2018-09-12T23:20:50.52Z”</tspan><tspan x="180.6" y="25.2" fill="#a3a3a3" letter-spacing="0em">,</tspan><tspan x="0" y="33.6" xml:space="preserve">  </tspan><tspan x="8.4" y="33.6" fill="#6ba5fc">“extractable”</tspan><tspan x="63" y="33.6" fill="#a3a3a3">: false</tspan><tspan fill="#a3a3a3"><tspan x="0" y="42">}</tspan></tspan></text><rect x="300" y="185" width="224" height="85" fill="#161616"/><text transform="translate(313.5 203)" font-size="7" font-family="IBMPlexMono, IBM Plex Mono"><tspan fill="#a3a3a3">{</tspan><tspan x="0" y="8.4" xml:space="preserve">  </tspan><tspan x="8.4" y="8.4" fill="#6ba5fc">“name”</tspan><tspan x="33.6" y="8.4" fill="#a3a3a3">:</tspan><tspan x="37.8" y="8.4" letter-spacing="0em"> </tspan><tspan x="42" y="8.4" fill="#169997">“my-root-key”</tspan><tspan x="96.6" y="8.4" fill="#a3a3a3">,</tspan><tspan x="0" y="16.8" xml:space="preserve">  </tspan><tspan x="8.4" y="16.8" fill="#6ba5fc">“id”</tspan><tspan x="25.2" y="16.8" fill="#a3a3a3">:</tspan><tspan x="29.4" y="16.8" letter-spacing="0em"> </tspan><tspan x="33.6" y="16.8" fill="#169997">“cae8fc45-6e0f-4eb7-8a28-b85c63764ed9”</tspan><tspan x="193.2" y="16.8" fill="#a3a3a3">,</tspan><tspan x="0" y="25.2" xml:space="preserve">  </tspan><tspan x="8.4" y="25.2" fill="#6ba5fc">“creationDate”</tspan><tspan x="67.2" y="25.2" fill="#a3a3a3" letter-spacing="0em">:</tspan><tspan x="71.4" y="25.2"> </tspan><tspan x="75.6" y="25.2" fill="#169997">“2018-09-12T23:20:50.52Z”</tspan><tspan x="180.6" y="25.2" fill="#a3a3a3" letter-spacing="0em">,</tspan><tspan fill="#a3a3a3"><tspan x="0" y="33.6" xml:space="preserve">  </tspan><tspan x="8.4" y="33.6" fill="#6ba5fc">“lastRotateDate”</tspan><tspan x="75.6" y="33.6">: </tspan><tspan x="84" y="33.6" fill="#169997" letter-spacing="0em">“2018-09-19T00:00:00.00Z”</tspan><tspan x="189" y="33.6">,</tspan></tspan><tspan x="0" y="42" xml:space="preserve">  </tspan><tspan x="8.4" y="42" fill="#6ba5fc">“extractable”</tspan><tspan x="63" y="42" fill="#a3a3a3">: false</tspan><tspan fill="#a3a3a3"><tspan x="0" y="50.4">}</tspan></tspan></text><g clip-path="url(#51937aaa-646c-4074-9cab-3e6a63b40e6e)"><g clip-path="url(#51937aaa-646c-4074-9cab-3e6a63b40e6e)"><path d="M193.18,81V79.93h9.43V81h-9.43M172.75,82.7a2.22,2.22,0,1,1,1.57-.65,2.22,2.22,0,0,1-1.57.65M176,71.62a8.89,8.89,0,1,0,7.84,13.07l.31-.59h4l1.25-1.25.79-.79.79.79,1.25,1.25h11.65l3.6-3.6-3.6-3.6H184.14l-.31-.59A8.87,8.87,0,0,0,176,71.62" fill="#e6d5f5"/><path d="M176,89.38a8.89,8.89,0,1,1,7.84-13.07l.31.59h19.67l3.6,3.6-3.6,3.6H192.16l-1.25-1.25-.79-.79-.79.79L188.1,84.1h-4l-.31.59A8.87,8.87,0,0,1,176,89.38m0-18.88h0a10,10,0,0,0,0,20h.1a10,10,0,0,0,8.77-5.29h3.75l1.57-1.57,1.57,1.57h12.57L209,80.5l-4.71-4.71H184.81A10,10,0,0,0,176,70.5" fill="#b68bbe"/><path d="M172.75,78.26a2.22,2.22,0,1,0,1.57.65,2.22,2.22,0,0,0-1.57-.65" fill="#b68bbe"/><polyline points="202.61 79.93 193.18 79.93 193.18 81.04 202.61 81.04 202.61 79.93" fill="#b68bbe"/></g></g><g id="57890e12-7faf-4ea5-970e-0c84db4dc1a9" data-name="Root key"><g clip-path="url(#aab407f8-6308-4e48-976f-ab851b5e37e1)"><g clip-path="url(#aab407f8-6308-4e48-976f-ab851b5e37e1)"><path d="M175.83,74.44a9.33,9.33,0,1,0,8.42,13.33h4.91l.67-1.33.67.67.67.67h12.67l4-4-4-4H184.25a9.32,9.32,0,0,0-8.42-5.33" fill="#ceaceb"/><path d="M204.27,79.29H184.81a10,10,0,1,0,0,9.43h3.75l1.57-1.57,1.57,1.57h12.57L209,84Zm-.46,8.32H192.16l-1.25-1.25-.79-.79-.79.79L188.1,87.6h-4l-.31.59a8.89,8.89,0,1,1,0-8.38l.31.59h19.67l3.6,3.6Z" fill="#6e177d"/><path d="M174.32,82.41a2.22,2.22,0,1,1-3.14,0,2.22,2.22,0,0,1,3.14,0" fill="#6e177d"/><rect x="193.18" y="83.43" width="9.43" height="1.11" fill="#6e177d"/></g></g></g><g clip-path="url(#51fd1914-c53b-486c-88b4-36969619839a)"><g clip-path="url(#51fd1914-c53b-486c-88b4-36969619839a)"><path d="M193.18,167v-1.11h9.43V167h-9.43m-20.43,1.67a2.22,2.22,0,1,1,1.57-.65,2.22,2.22,0,0,1-1.57.65M176,157.62a8.89,8.89,0,1,0,7.84,13.07l.31-.59h4l1.25-1.25.79-.79.79.79,1.25,1.25h11.65l3.6-3.6-3.6-3.6H184.14l-.31-.59a8.87,8.87,0,0,0-7.84-4.69" fill="#e6d5f5"/><path d="M176,175.38a8.89,8.89,0,1,1,7.84-13.07l.31.59h19.67l3.6,3.6-3.6,3.6H192.16l-1.25-1.25-.79-.79-.79.79-1.25,1.25h-4l-.31.59a8.87,8.87,0,0,1-7.84,4.69m0-18.88h0a10,10,0,0,0,0,20h.1a10,10,0,0,0,8.77-5.29h3.75l1.57-1.57,1.57,1.57h12.57L209,166.5l-4.71-4.71H184.81a10,10,0,0,0-8.8-5.29" fill="#b68bbe"/><path d="M172.75,164.26a2.22,2.22,0,1,0,1.57.65,2.22,2.22,0,0,0-1.57-.65" fill="#b68bbe"/><polyline points="202.61 165.93 193.18 165.93 193.18 167.04 202.61 167.04 202.61 165.93" fill="#b68bbe"/></g></g><text transform="translate(175.05 196.9)" font-size="10" font-family="IBMPlexSans, IBM Plex Sans" letter-spacing="-0.03em">K<tspan x="6.09" y="0" letter-spacing="0em">e</tspan><tspan x="11.53" y="0" letter-spacing="0em">y 1</tspan></text><g clip-path="url(#96d4647b-2c34-44d5-8533-20e6f0c82495)"><g clip-path="url(#96d4647b-2c34-44d5-8533-20e6f0c82495)"><path d="M193.18,226v-1.11h9.43V226h-9.43m-20.43,1.67a2.22,2.22,0,1,1,1.57-.65,2.22,2.22,0,0,1-1.57.65M176,216.62a8.89,8.89,0,1,0,7.84,13.07l.31-.59h4l1.25-1.25.79-.79.79.79,1.25,1.25h11.65l3.6-3.6-3.6-3.6H184.14l-.31-.59a8.87,8.87,0,0,0-7.84-4.69" fill="#e6d5f5"/><path d="M176,234.38a8.89,8.89,0,1,1,7.84-13.07l.31.59h19.67l3.6,3.6-3.6,3.6H192.16l-1.25-1.25-.79-.79-.79.79-1.25,1.25h-4l-.31.59a8.87,8.87,0,0,1-7.84,4.69m0-18.88h0a10,10,0,0,0,0,20h.1a10,10,0,0,0,8.77-5.29h3.75l1.57-1.57,1.57,1.57h12.57L209,225.5l-4.71-4.71H184.81a10,10,0,0,0-8.8-5.29" fill="#b68bbe"/><path d="M172.75,223.26a2.22,2.22,0,1,0,1.57.65,2.22,2.22,0,0,0-1.57-.65" fill="#b68bbe"/><polyline points="202.61 224.93 193.18 224.93 193.18 226.04 202.61 226.04 202.61 224.93" fill="#b68bbe"/></g></g><text transform="translate(175.05 255.9)" font-size="10" font-family="IBMPlexSans, IBM Plex Sans" letter-spacing="-0.03em">K<tspan x="6.09" y="0" letter-spacing="0em">e</tspan><tspan x="11.53" y="0" letter-spacing="0em">y 2</tspan></text><text transform="translate(163.53 342.9)" font-size="10" font-family="IBMPlexSans-Bold, IBM Plex Sans"><tspan font-weight="700"><tspan letter-spacing="0em">L</tspan><tspan x="5.34" y="0" letter-spacing="-0.01em">a</tspan><tspan x="10.97" y="0" letter-spacing="0em">t</tspan><tspan x="14.76" y="0">e</tspan><tspan x="20.38" y="0" letter-spacing="-0.01em">s</tspan><tspan x="25.34" y="0">t </tspan><tspan x="31.53" y="0" letter-spacing="-0.03em">k</tspan><tspan x="37.03" y="0" letter-spacing="-0.01em">e</tspan><tspan x="42.58" y="0" letter-spacing="0em">y</tspan></tspan><tspan font-family="IBMPlexSans, IBM Plex Sans"><tspan x="7.26" y="12">(acti</tspan><tspan x="26.99" y="12" letter-spacing="-0.01em">v</tspan><tspan x="31.83" y="12">e)</tspan></tspan></text><g id="491ccc36-cf67-47e3-be21-52e0097d9f40" data-name="Root key"><g clip-path="url(#7da36c59-ea59-4984-bfb2-ed98de52fe15)"><g clip-path="url(#7da36c59-ea59-4984-bfb2-ed98de52fe15)"><path d="M175.83,301.44a9.33,9.33,0,1,0,8.42,13.33h4.91l.67-1.33.67.67.67.67h12.67l4-4-4-4H184.25a9.32,9.32,0,0,0-8.42-5.33" fill="#ceaceb"/><path d="M204.27,306.29H184.81a10,10,0,1,0,0,9.43h3.75l1.57-1.57,1.57,1.57h12.57L209,311Zm-.46,8.32H192.16l-1.25-1.25-.79-.79-.79.79-1.25,1.25h-4l-.31.59a8.89,8.89,0,1,1,0-8.38l.31.59h19.67l3.6,3.6Z" fill="#6e177d"/><path d="M174.32,309.41a2.22,2.22,0,1,1-3.14,0,2.22,2.22,0,0,1,3.14,0" fill="#6e177d"/><rect x="193.18" y="310.43" width="9.43" height="1.11" fill="#6e177d"/></g></g></g><text transform="translate(300 56.5)" font-size="8" font-family="IBMPlexSans-Bold, IBM Plex Sans"><tspan font-weight="700">Example metad</tspan><tspan x="58.84" y="0" font-weight="700" letter-spacing="-0.01em">a</tspan><tspan x="63.34" y="0" font-weight="700" letter-spacing="0em">ta</tspan><tspan x="70.96" y="0" xml:space="preserve" font-family="IBMPlexSans, IBM Plex Sans"> (be</tspan><tspan x="84.56" y="0" font-family="IBMPlexSans, IBM Plex Sans" letter-spacing="0em">f</tspan><tspan x="87.12" y="0" font-family="IBMPlexSans, IBM Plex Sans">o</tspan><tspan x="91.6" y="0" font-family="IBMPlexSans, IBM Plex Sans" letter-spacing="-0.01em">r</tspan><tspan x="94.49" y="0" font-family="IBMPlexSans, IBM Plex Sans" letter-spacing="0em">e </tspan><tspan x="100.77" y="0" font-family="IBMPlexSans, IBM Plex Sans" letter-spacing="0em">r</tspan><tspan x="103.67" y="0" font-family="IBMPlexSans, IBM Plex Sans" letter-spacing="0em">otation)</tspan></text><text transform="translate(300 178.5)" font-size="8" font-family="IBMPlexSans-Bold, IBM Plex Sans"><tspan font-weight="700">Example metad</tspan><tspan x="58.84" y="0" font-weight="700" letter-spacing="-0.01em">a</tspan><tspan x="63.34" y="0" font-weight="700" letter-spacing="0em">ta</tspan><tspan x="70.96" y="0" xml:space="preserve" font-family="IBMPlexSans, IBM Plex Sans"> (af</tspan><tspan x="82.39" y="0" font-family="IBMPlexSans, IBM Plex Sans" letter-spacing="0em">t</tspan><tspan x="85.17" y="0" font-family="IBMPlexSans, IBM Plex Sans">er </tspan><tspan x="94.38" y="0" font-family="IBMPlexSans, IBM Plex Sans" letter-spacing="-0.01em">r</tspan><tspan x="97.28" y="0" font-family="IBMPlexSans, IBM Plex Sans" letter-spacing="0em">otation)</tspan></text><line x1="52" y1="183.75" x2="52" y2="183.25" fill="none" stroke="#6e177d" stroke-miterlimit="10"/><line x1="52" y1="182.29" x2="52" y2="167.48" fill="none" stroke="#6e177d" stroke-miterlimit="10" stroke-dasharray="0.96 0.96"/><polyline points="52 167 52 166.5 52.5 166.5" fill="none" stroke="#6e177d" stroke-miterlimit="10"/><line x1="53.51" y1="166.5" x2="137.97" y2="166.5" fill="none" stroke="#6e177d" stroke-miterlimit="10" stroke-dasharray="1.01 1.01"/><line x1="138.48" y1="166.5" x2="138.98" y2="166.5" fill="none" stroke="#6e177d" stroke-miterlimit="10"/><rect x="50.38" y="183.5" width="3.25" height="0.5" fill="#6e177d"/><circle cx="138.87" cy="166.5" r="1.88" fill="#fff"/><path d="M138.87,168.63A2.13,2.13,0,1,1,141,166.5a2.13,2.13,0,0,1-2.13,2.13Zm0-3.76a1.63,1.63,0,1,0,1.63,1.63,1.63,1.63,0,0,0-1.63-1.63Z" fill="#6e177d"/><text transform="translate(50 202.67)" font-size="9" font-family="IBMPlexSans, IBM Plex Sans">Each <tspan x="21.82" y="0" letter-spacing="0em">r</tspan><tspan x="25.07" y="0">otation</tspan><tspan x="0" y="10.8">c</tspan><tspan x="4.53" y="10.8" letter-spacing="0em">r</tspan><tspan x="7.79" y="10.8">ea</tspan><tspan x="17.53" y="10.8" letter-spacing="0em">t</tspan><tspan x="20.65" y="10.8">es n</tspan><tspan x="37.21" y="10.8" letter-spacing="0em">e</tspan><tspan x="42.11" y="10.8" letter-spacing="0em">w</tspan><tspan x="0" y="21.6" letter-spacing="-0.02em">k</tspan><tspan x="4.59" y="21.6" letter-spacing="0em">e</tspan><tspan x="9.49" y="21.6" letter-spacing="0em">y ma</tspan><tspan x="28.76" y="21.6" letter-spacing="0em">t</tspan><tspan x="31.89" y="21.6">erial</tspan></text><rect x="300" y="289" width="224" height="99" rx="10.51" ry="10.51" fill="#b380e0" opacity="0.15"/><path d="M161.71,208.24c-3.5-4.25-6.3-8.11-6.71-14.63-.54-8.58,3.49-13.11,7.58-16.32" fill="none" stroke="#b380e0" stroke-miterlimit="10" stroke-dasharray="1 1"/><polygon points="163.18 206.09 164 211.01 159.33 209.26 163.18 206.09" fill="#b380e0"/><circle cx="162.5" cy="177.36" r="1.88" transform="translate(-74.2 134.49) rotate(-37.24)" fill="#b380e0"/><text transform="translate(313.5 314.67)" font-size="8" font-family="IBMPlexSans-Bold, IBM Plex Sans"><tspan xml:space="preserve" font-weight="700">•  The identi</tspan><tspan x="44.81" y="0" font-weight="700" letter-spacing="0.01em">f</tspan><tspan x="47.78" y="0" font-weight="700">ying in</tspan><tspan x="72.46" y="0" font-weight="700" letter-spacing="0em">f</tspan><tspan x="75.32" y="0" font-weight="700" letter-spacing="0em">orm</tspan><tspan x="90.21" y="0" font-weight="700" letter-spacing="-0.01em">a</tspan><tspan x="94.72" y="0" font-weight="700">tion </tspan><tspan x="111.24" y="0" font-weight="700" letter-spacing="0em">f</tspan><tspan x="114.09" y="0" font-weight="700" letter-spacing="0em">or a </tspan><tspan x="130.17" y="0" font-weight="700" letter-spacing="-0.01em">r</tspan><tspan x="133.36" y="0" font-weight="700">o</tspan><tspan x="137.87" y="0" font-weight="700" letter-spacing="-0.01em">o</tspan><tspan x="142.33" y="0" font-weight="700">t </tspan><tspan x="147.29" y="0" font-weight="700" letter-spacing="-0.03em">k</tspan><tspan x="151.69" y="0" font-weight="700" letter-spacing="-0.01em">e</tspan><tspan x="156.13" y="0" font-weight="700">y</tspan><tspan x="160.4" y="0" font-family="IBMPlexSans, IBM Plex Sans">,</tspan><tspan font-family="IBMPlexSans, IBM Plex Sans"><tspan x="8.66" y="9.6">such as the </tspan><tspan x="51.24" y="9.6" letter-spacing="-0.02em">k</tspan><tspan x="55.32" y="9.6" letter-spacing="-0.01em">e</tspan><tspan x="59.67" y="9.6">y I</tspan><tspan x="68.75" y="9.6" letter-spacing="-0.03em">D</tspan><tspan x="73.88" y="9.6">, does not chan</tspan><tspan x="128.35" y="9.6" letter-spacing="-0.01em">g</tspan><tspan x="132.52" y="9.6" letter-spacing="0em">e af</tspan><tspan x="145.67" y="9.6" letter-spacing="0em">t</tspan><tspan x="148.44" y="9.6">er</tspan><tspan x="8.46" y="19.2" letter-spacing="-0.01em">r</tspan><tspan x="11.35" y="19.2">otation.</tspan></tspan><tspan x="0" y="38.4" xml:space="preserve" font-weight="700">•  </tspan><tspan x="7.22" y="38.4" font-weight="700" letter-spacing="-0.02em">K</tspan><tspan x="12.58" y="38.4" font-weight="700" letter-spacing="-0.01em">e</tspan><tspan x="17.02" y="38.4" font-weight="700">y </tspan><tspan x="23.18" y="38.4" font-weight="700" letter-spacing="-0.01em">P</tspan><tspan x="28.35" y="38.4" font-weight="700" letter-spacing="0em">r</tspan><tspan x="31.54" y="38.4" font-weight="700" letter-spacing="-0.01em">o</tspan><tspan x="36.01" y="38.4" font-weight="700" letter-spacing="0em">t</tspan><tspan x="39.04" y="38.4" font-weight="700" letter-spacing="0em">ect uses the l</tspan><tspan x="88.48" y="38.4" font-weight="700" letter-spacing="-0.01em">a</tspan><tspan x="92.98" y="38.4" font-weight="700" letter-spacing="0em">t</tspan><tspan x="96.02" y="38.4" font-weight="700">e</tspan><tspan x="100.51" y="38.4" font-weight="700" letter-spacing="-0.01em">s</tspan><tspan x="104.48" y="38.4" font-weight="700">t </tspan><tspan x="109.43" y="38.4" font-weight="700" letter-spacing="-0.03em">k</tspan><tspan x="113.83" y="38.4" font-weight="700" letter-spacing="-0.01em">e</tspan><tspan x="118.27" y="38.4" font-weight="700">y</tspan><tspan x="122.54" y="38.4" font-family="IBMPlexSans, IBM Plex Sans" letter-spacing="0em"> </tspan><tspan x="124.43" y="38.4" font-weight="700">m</tspan><tspan x="131.58" y="38.4" font-weight="700" letter-spacing="-0.01em">a</tspan><tspan x="136.09" y="38.4" font-weight="700" letter-spacing="0em">t</tspan><tspan x="139.12" y="38.4" font-weight="700" letter-spacing="0em">erial </tspan><tspan x="158" y="38.4" font-family="IBMPlexSans, IBM Plex Sans" letter-spacing="0em">t</tspan><tspan x="160.77" y="38.4" font-family="IBMPlexSans, IBM Plex Sans">o </tspan><tspan font-family="IBMPlexSans, IBM Plex Sans"><tspan x="7.27" y="48">w</tspan><tspan x="13.41" y="48" letter-spacing="0em">r</tspan><tspan x="16.31" y="48">ap the data enc</tspan><tspan x="71.58" y="48" letter-spacing="0.01em">r</tspan><tspan x="74.6" y="48" letter-spacing="0em">y</tspan><tspan x="78.59" y="48" letter-spacing="-0.01em">p</tspan><tspan x="83.18" y="48" letter-spacing="0em">tion </tspan><tspan x="98.9" y="48" letter-spacing="-0.02em">k</tspan><tspan x="102.98" y="48" letter-spacing="-0.01em">e</tspan><tspan x="107.34" y="48" letter-spacing="0em">y</tspan><tspan x="111.3" y="48">s (DEKs) that </tspan><tspan x="7.27" y="57.6">enc</tspan><tspan x="20.23" y="57.6" letter-spacing="0.01em">r</tspan><tspan x="23.24" y="57.6" letter-spacing="0em">y</tspan><tspan x="27.23" y="57.6" letter-spacing="-0.01em">p</tspan><tspan x="31.83" y="57.6">t </tspan><tspan x="36.52" y="57.6" letter-spacing="-0.01em">y</tspan><tspan x="40.47" y="57.6">our dat</tspan><tspan x="66.04" y="57.6" letter-spacing="0.01em">a</tspan><tspan x="70.39" y="57.6">.</tspan></tspan></text><line x1="53" y1="326.75" x2="53" y2="326.25" fill="none" stroke="#6e177d" stroke-miterlimit="10"/><line x1="53" y1="325.29" x2="53" y2="310.48" fill="none" stroke="#6e177d" stroke-miterlimit="10" stroke-dasharray="0.96 0.96"/><polyline points="53 310 53 309.5 53.5 309.5" fill="none" stroke="#6e177d" stroke-miterlimit="10"/><line x1="54.51" y1="309.5" x2="138.97" y2="309.5" fill="none" stroke="#6e177d" stroke-miterlimit="10" stroke-dasharray="1.01 1.01"/><line x1="139.48" y1="309.5" x2="139.98" y2="309.5" fill="none" stroke="#6e177d" stroke-miterlimit="10"/><rect x="51.38" y="326.5" width="3.25" height="0.5" fill="#6e177d"/><circle cx="139.87" cy="309.5" r="1.88" fill="#fff"/><path d="M139.87,311.63A2.13,2.13,0,1,1,142,309.5a2.13,2.13,0,0,1-2.13,2.13Zm0-3.76a1.63,1.63,0,1,0,1.63,1.63,1.63,1.63,0,0,0-1.63-1.63Z" fill="#6e177d"/><text transform="translate(51 345.67)" font-size="9" font-family="IBMPlexSans, IBM Plex Sans">On<tspan x="11.48" y="0" letter-spacing="-0.01em">l</tspan><tspan x="13.84" y="0">y the la</tspan><tspan x="43.05" y="0" letter-spacing="0em">t</tspan><tspan x="46.17" y="0">e</tspan><tspan x="51.11" y="0" letter-spacing="-0.01em">s</tspan><tspan x="55.43" y="0" letter-spacing="0em">t</tspan><tspan x="0" y="10.8" letter-spacing="-0.02em">k</tspan><tspan x="4.59" y="10.8" letter-spacing="0em">e</tspan><tspan x="9.49" y="10.8" letter-spacing="0em">y ma</tspan><tspan x="28.76" y="10.8" letter-spacing="0em">t</tspan><tspan x="31.89" y="10.8">erial</tspan><tspan x="0" y="21.6">w</tspan><tspan x="6.91" y="21.6" letter-spacing="0em">r</tspan><tspan x="10.18" y="21.6">aps DEKs</tspan></text></svg>