<svg xmlns="http://www.w3.org/2000/svg" xmlns:xlink="http://www.w3.org/1999/xlink" viewBox="0 0 474 342.29"><defs><clipPath id="clip-path"><polyline points="116 16.79 158.99 16.79 158.99 36.79 116 36.79 116 16.79" fill="none"/></clipPath><clipPath id="clip-path-3"><polyline points="116 20.79 158.99 20.79 158.99 40.79 116 40.79 116 20.79" fill="none"/></clipPath><clipPath id="clip-path-5"><polyline points="116 106.79 158.99 106.79 158.99 126.79 116 126.79 116 106.79" fill="none"/></clipPath><clipPath id="clip-path-7"><polyline points="116 165.79 158.99 165.79 158.99 185.79 116 185.79 116 165.79" fill="none"/></clipPath></defs><g id="Graphics"><rect x="73.5" y="0.79" width="132" height="340" fill="#edf5ff"/><polyline points="205.5 339.29 205.5 340.79 204 340.79" fill="none" stroke="#000f5e" stroke-miterlimit="10"/><line x1="201.97" y1="340.79" x2="76.02" y2="340.79" fill="none" stroke="#000f5e" stroke-miterlimit="10" stroke-dasharray="3.05 2.03"/><polyline points="75 340.79 73.5 340.79 73.5 339.29" fill="none" stroke="#000f5e" stroke-miterlimit="10"/><line x1="73.5" y1="337.29" x2="73.5" y2="3.29" fill="none" stroke="#000f5e" stroke-miterlimit="10" stroke-dasharray="3 2"/><polyline points="73.5 2.29 73.5 0.79 75 0.79" fill="none" stroke="#000f5e" stroke-miterlimit="10"/><line x1="77.03" y1="0.79" x2="202.98" y2="0.79" fill="none" stroke="#000f5e" stroke-miterlimit="10" stroke-dasharray="3.05 2.03"/><polyline points="204 0.79 205.5 0.79 205.5 2.29" fill="none" stroke="#000f5e" stroke-miterlimit="10"/><line x1="205.5" y1="4.29" x2="205.5" y2="338.29" fill="none" stroke="#000f5e" stroke-miterlimit="10" stroke-dasharray="3 2"/><rect x="90.5" y="83.79" width="96" height="238" fill="#fff"/><rect x="90.5" y="83.79" width="96" height="238" fill="none" stroke="#eaeaea" stroke-miterlimit="10" stroke-width="0.5"/><g clip-path="url(#clip-path)"><g clip-path="url(#clip-path)"><path d="M143.18,27.33V26.22h9.43v1.11h-9.43M122.75,29a2.23,2.23,0,1,1,1.57-.65,2.22,2.22,0,0,1-1.57.65M126,17.91a8.89,8.89,0,1,0,6.29,15.17,9.21,9.21,0,0,0,1.55-2.1l.31-.59h4l1.25-1.24.78-.79.79.79,1.24,1.25h11.65l3.61-3.6-3.61-3.6H134.14l-.31-.59a9.15,9.15,0,0,0-1.55-2.09,8.85,8.85,0,0,0-6.29-2.6" fill="#e6d5f5"/><path d="M126,35.68a8.89,8.89,0,1,1,6.29-15.17,9.15,9.15,0,0,1,1.55,2.09l.31.59h19.67l3.61,3.6-3.61,3.6H142.16l-1.24-1.25-.79-.79-.78.79-1.25,1.24h-4l-.31.59a9.21,9.21,0,0,1-1.55,2.1,8.89,8.89,0,0,1-6.29,2.6m0-18.89h0a10,10,0,0,0,0,20h.1a10,10,0,0,0,8.77-5.28h3.75l1.57-1.58,1.57,1.58h12.57L159,26.79l-4.72-4.71H134.81a10,10,0,0,0-8.8-5.29" fill="#b68bbe"/><path d="M122.75,24.55a2.23,2.23,0,1,0,1.57.65,2.22,2.22,0,0,0-1.57-.65" fill="#b68bbe"/><polyline points="152.61 26.22 143.18 26.22 143.18 27.33 152.61 27.33 152.61 26.22" fill="#b68bbe"/></g></g><rect x="250" y="14.29" width="224" height="98" fill="#161616"/><circle cx="134" cy="226.29" r="1" fill="#c6c6c6"/><circle cx="134" cy="238.29" r="1" fill="#c6c6c6"/><circle cx="134" cy="232.29" r="1" fill="#c6c6c6"/><text transform="translate(263.5 32.29)" font-size="7" fill="#a3a3a3" font-family="IBMPlexMono, IBM Plex Mono">{<tspan fill="#000"><tspan x="0" y="8.4" xml:space="preserve">  </tspan><tspan x="8.4" y="8.4" fill="#6ba5fc">“name”</tspan><tspan x="33.6" y="8.4" fill="#a3a3a3">:</tspan><tspan x="37.8" y="8.4" letter-spacing="0em"> </tspan><tspan x="42" y="8.4" fill="#169997">“my-root-key”</tspan><tspan x="96.6" y="8.4" fill="#a3a3a3">,</tspan><tspan x="0" y="16.8" xml:space="preserve">  </tspan><tspan x="8.4" y="16.8" fill="#6ba5fc">“id”</tspan><tspan x="25.2" y="16.8" fill="#a3a3a3">:</tspan><tspan x="29.4" y="16.8" letter-spacing="0em"> </tspan><tspan x="33.6" y="16.8" fill="#169997">“cae8fc45-6e0f-4eb7-8a28-b85c63764ed9”</tspan><tspan x="193.2" y="16.8" fill="#a3a3a3">,</tspan><tspan x="0" y="25.2" xml:space="preserve">  </tspan><tspan x="8.4" y="25.2" fill="#6ba5fc">“creationDate”</tspan><tspan x="67.2" y="25.2" fill="#a3a3a3" letter-spacing="0em">:</tspan><tspan x="71.4" y="25.2"> </tspan><tspan x="75.6" y="25.2" fill="#169997">“2020-03-10T23:20:50.52Z”</tspan><tspan x="180.6" y="25.2" fill="#a3a3a3" letter-spacing="0em">,</tspan></tspan><tspan x="0" y="33.6" xml:space="preserve">  </tspan><tspan x="8.4" y="33.6" fill="#6ba5fc">“keyVersion”</tspan><tspan x="58.8" y="33.6">: {</tspan><tspan fill="#000"><tspan x="0" y="42" xml:space="preserve">    </tspan><tspan x="16.8" y="42" fill="#6ba5fc">“id”</tspan><tspan x="33.6" y="42" fill="#a3a3a3">:</tspan><tspan x="37.8" y="42" letter-spacing="0em"> </tspan><tspan x="42" y="42" fill="#169997">“cae8fc45-6e0f-4eb7-8a28-b85c63764ed9”</tspan><tspan x="201.6" y="42" fill="#a3a3a3">,</tspan></tspan><tspan x="0" y="50.4" xml:space="preserve">    </tspan><tspan x="16.8" y="50.4" fill="#6ba5fc">“creationDate”</tspan><tspan x="75.6" y="50.4">:</tspan><tspan x="79.8" y="50.4" fill="#000"> </tspan><tspan x="84" y="50.4" fill="#169997" letter-spacing="0em">“2020-03-10T23:20:50.52Z”</tspan><tspan x="189" y="50.4"></tspan><tspan x="0" y="58.8" xml:space="preserve">  }</tspan><tspan x="0" y="67.2">}</tspan></text><rect x="250" y="132.29" width="224" height="104" fill="#161616"/><text transform="translate(263.5 150.29)" font-size="7" fill="#a3a3a3" font-family="IBMPlexMono, IBM Plex Mono">{<tspan fill="#000"><tspan x="0" y="8.4" xml:space="preserve">  </tspan><tspan x="8.4" y="8.4" fill="#6ba5fc">“name”</tspan><tspan x="33.6" y="8.4" fill="#a3a3a3">:</tspan><tspan x="37.8" y="8.4" letter-spacing="0em"> </tspan><tspan x="42" y="8.4" fill="#169997">“my-root-key”</tspan><tspan x="96.6" y="8.4" fill="#a3a3a3">,</tspan><tspan x="0" y="16.8" xml:space="preserve">  </tspan><tspan x="8.4" y="16.8" fill="#6ba5fc">“id”</tspan><tspan x="25.2" y="16.8" fill="#a3a3a3">:</tspan><tspan x="29.4" y="16.8" letter-spacing="0em"> </tspan><tspan x="33.6" y="16.8" fill="#169997">“cae8fc45-6e0f-4eb7-8a28-b85c63764ed9”</tspan><tspan x="193.2" y="16.8" fill="#a3a3a3">,</tspan><tspan x="0" y="25.2" xml:space="preserve">  </tspan><tspan x="8.4" y="25.2" fill="#6ba5fc">“creationDate”</tspan><tspan x="67.2" y="25.2" fill="#a3a3a3" letter-spacing="0em">:</tspan><tspan x="71.4" y="25.2"> </tspan><tspan x="75.6" y="25.2" fill="#169997">“2020-03-10T23:20:50.52Z”</tspan><tspan x="180.6" y="25.2" fill="#a3a3a3" letter-spacing="0em">,</tspan></tspan><tspan x="0" y="33.6" xml:space="preserve">  </tspan><tspan x="8.4" y="33.6" fill="#6ba5fc">“lastRotateDate”</tspan><tspan x="75.6" y="33.6">: </tspan><tspan x="84" y="33.6" fill="#169997" letter-spacing="0em">“2020-03-12T00:00:00.00Z”</tspan><tspan x="189" y="33.6">,</tspan><tspan fill="#6ba5fc"><tspan x="0" y="42" xml:space="preserve">  “keyVersion”</tspan><tspan x="58.8" y="42" fill="#a3a3a3">: {</tspan></tspan><tspan fill="#000"><tspan x="0" y="50.4" xml:space="preserve">    </tspan><tspan x="16.8" y="50.4" fill="#6ba5fc">“id”</tspan><tspan x="33.6" y="50.4" fill="#a3a3a3">:</tspan><tspan x="37.8" y="50.4" letter-spacing="0em"> </tspan><tspan x="42" y="50.4" fill="#169997">“6efbc310-63a4-46ee-ae73-cb55ac072039”</tspan><tspan x="201.6" y="50.4" fill="#a3a3a3">,</tspan></tspan><tspan x="0" y="58.8" xml:space="preserve">    </tspan><tspan x="16.8" y="58.8" fill="#6ba5fc">“creationDate”</tspan><tspan x="75.6" y="58.8">:</tspan><tspan x="79.8" y="58.8" fill="#000"> </tspan><tspan x="84" y="58.8" fill="#169997" letter-spacing="0em">“2020-03-12T00:00:00.00Z”</tspan><tspan x="0" y="67.2" xml:space="preserve">  }</tspan><tspan x="0" y="75.6">}</tspan></text><g clip-path="url(#clip-path-3)"><g clip-path="url(#clip-path-3)"><path d="M143.18,31.33V30.22h9.43v1.11h-9.43M122.75,33a2.23,2.23,0,1,1,1.57-.65,2.22,2.22,0,0,1-1.57.65M126,21.91a8.89,8.89,0,1,0,6.29,15.17,9.21,9.21,0,0,0,1.55-2.1l.31-.59h4l1.25-1.24.78-.79.79.79,1.24,1.25h11.65l3.61-3.6-3.61-3.6H134.14l-.31-.59a9.15,9.15,0,0,0-1.55-2.09,8.85,8.85,0,0,0-6.29-2.6" fill="#e6d5f5"/><path d="M126,39.68a8.89,8.89,0,1,1,6.29-15.17,9.15,9.15,0,0,1,1.55,2.09l.31.59h19.67l3.61,3.6-3.61,3.6H142.16l-1.24-1.25-.79-.79-.78.79-1.25,1.24h-4l-.31.59a9.21,9.21,0,0,1-1.55,2.1,8.89,8.89,0,0,1-6.29,2.6m0-18.89h0a10,10,0,0,0,0,20h.1a10,10,0,0,0,8.77-5.28h3.75l1.57-1.58,1.57,1.58h12.57L159,30.79l-4.72-4.71H134.81a10,10,0,0,0-8.8-5.29" fill="#b68bbe"/><path d="M122.75,28.55a2.23,2.23,0,1,0,1.57.65,2.22,2.22,0,0,0-1.57-.65" fill="#b68bbe"/><polyline points="152.61 30.22 143.18 30.22 143.18 31.33 152.61 31.33 152.61 30.22" fill="#b68bbe"/></g></g><g clip-path="url(#clip-path-5)"><g clip-path="url(#clip-path-5)"><path d="M143.18,117.33v-1.11h9.43v1.11h-9.43M122.75,119a2.23,2.23,0,1,1,1.57-.65,2.22,2.22,0,0,1-1.57.65M126,107.91a8.89,8.89,0,1,0,6.29,15.17,9.21,9.21,0,0,0,1.55-2.1l.31-.59h4l1.25-1.24.78-.79.79.79,1.24,1.25h11.65l3.61-3.6-3.61-3.6H134.14l-.31-.59a9.15,9.15,0,0,0-1.55-2.09,8.85,8.85,0,0,0-6.29-2.6" fill="#e6d5f5"/><path d="M126,125.68a8.89,8.89,0,1,1,6.29-15.17,9.15,9.15,0,0,1,1.55,2.09l.31.59h19.67l3.61,3.6-3.61,3.6H142.16l-1.24-1.25-.79-.79-.78.79-1.25,1.24h-4l-.31.59a9.21,9.21,0,0,1-1.55,2.1,8.89,8.89,0,0,1-6.29,2.6m0-18.89h0a10,10,0,0,0,0,20h.1a10,10,0,0,0,8.77-5.28h3.75l1.57-1.58,1.57,1.58h12.57l4.72-4.72-4.72-4.71H134.81a10,10,0,0,0-8.8-5.29" fill="#b68bbe"/><path d="M122.75,114.55a2.23,2.23,0,1,0,1.57.65,2.22,2.22,0,0,0-1.57-.65" fill="#b68bbe"/><polyline points="152.61 116.22 143.18 116.22 143.18 117.33 152.61 117.33 152.61 116.22" fill="#b68bbe"/></g></g><text transform="translate(116.36 147.19)" font-size="10" font-family="IBMPlexSans, IBM Plex Sans">Version 1</text><g clip-path="url(#clip-path-7)"><g clip-path="url(#clip-path-7)"><path d="M143.18,176.33v-1.11h9.43v1.11h-9.43M122.75,178a2.23,2.23,0,1,1,1.57-.65,2.22,2.22,0,0,1-1.57.65M126,166.91a8.89,8.89,0,1,0,6.29,15.17,9.21,9.21,0,0,0,1.55-2.1l.31-.59h4l1.25-1.24.78-.79.79.79,1.24,1.25h11.65l3.61-3.6-3.61-3.6H134.14l-.31-.59a9.15,9.15,0,0,0-1.55-2.09,8.85,8.85,0,0,0-6.29-2.6" fill="#e6d5f5"/><path d="M126,184.68a8.89,8.89,0,1,1,6.29-15.17,9.15,9.15,0,0,1,1.55,2.09l.31.59h19.67l3.61,3.6-3.61,3.6H142.16l-1.24-1.25-.79-.79-.78.79-1.25,1.24h-4l-.31.59a9.21,9.21,0,0,1-1.55,2.1,8.89,8.89,0,0,1-6.29,2.6m0-18.89h0a10,10,0,0,0,0,20h.1a10,10,0,0,0,8.77-5.28h3.75l1.57-1.58,1.57,1.58h12.57l4.72-4.72-4.72-4.71H134.81a10,10,0,0,0-8.8-5.29" fill="#b68bbe"/><path d="M122.75,173.55a2.23,2.23,0,1,0,1.57.65,2.22,2.22,0,0,0-1.57-.65" fill="#b68bbe"/><polyline points="152.61 175.22 143.18 175.22 143.18 176.33 152.61 176.33 152.61 175.22" fill="#b68bbe"/></g></g><text transform="translate(116.36 206.19)" font-size="10" font-family="IBMPlexSans, IBM Plex Sans">Version 2</text><line x1="2" y1="134.04" x2="2" y2="133.54" fill="none" stroke="#6e177d" stroke-miterlimit="10"/><line x1="2" y1="132.59" x2="2" y2="117.77" fill="none" stroke="#6e177d" stroke-miterlimit="10" stroke-dasharray="0.96 0.96"/><polyline points="2 117.29 2 116.79 2.5 116.79" fill="none" stroke="#6e177d" stroke-miterlimit="10"/><line x1="3.51" y1="116.79" x2="87.97" y2="116.79" fill="none" stroke="#6e177d" stroke-miterlimit="10" stroke-dasharray="1.01 1.01"/><line x1="88.48" y1="116.79" x2="88.98" y2="116.79" fill="none" stroke="#6e177d" stroke-miterlimit="10"/><rect x="0.38" y="133.79" width="3.25" height="0.5" fill="#6e177d"/><path d="M88.87,118.67A1.88,1.88,0,1,0,87,116.79,1.88,1.88,0,0,0,88.87,118.67Z" fill="#fff"/><path d="M88.87,118.92A2.13,2.13,0,1,1,91,116.79a2.13,2.13,0,0,1-2.13,2.13Zm0-3.76a1.63,1.63,0,1,0,1.63,1.63,1.63,1.63,0,0,0-1.63-1.63Z" fill="#6e177d"/><rect x="250" y="243.29" width="224" height="99" rx="10.51" fill="#b380e0" opacity="0.15"/><path d="M111.71,158.53c-3.5-4.25-6.3-8.11-6.71-14.62-.54-8.59,3.49-13.12,7.58-16.32" fill="none" stroke="#b380e0" stroke-miterlimit="10" stroke-dasharray="1 1"/><polygon points="113.18 156.38 114 161.3 109.33 159.55 113.18 156.38" fill="#b380e0"/><circle cx="112.5" cy="127.65" r="1.88" transform="translate(-33.61 40.46) rotate(-17.78)" fill="#b380e0"/><line x1="3" y1="277.04" x2="3" y2="276.54" fill="none" stroke="#6e177d" stroke-miterlimit="10"/><line x1="3" y1="275.59" x2="3" y2="260.77" fill="none" stroke="#6e177d" stroke-miterlimit="10" stroke-dasharray="0.96 0.96"/><polyline points="3 260.29 3 259.79 3.5 259.79" fill="none" stroke="#6e177d" stroke-miterlimit="10"/><line x1="4.51" y1="259.79" x2="88.97" y2="259.79" fill="none" stroke="#6e177d" stroke-miterlimit="10" stroke-dasharray="1.01 1.01"/><line x1="89.48" y1="259.79" x2="89.98" y2="259.79" fill="none" stroke="#6e177d" stroke-miterlimit="10"/><rect x="1.38" y="276.79" width="3.25" height="0.5" fill="#6e177d"/><path d="M89.87,261.67A1.88,1.88,0,1,0,88,259.79,1.88,1.88,0,0,0,89.87,261.67Z" fill="#fff"/><path d="M89.87,261.92A2.13,2.13,0,1,1,92,259.79a2.13,2.13,0,0,1-2.13,2.13Zm0-3.76a1.63,1.63,0,1,0,1.63,1.63,1.63,1.63,0,0,0-1.63-1.63Z" fill="#6e177d"/><path d="M125.83,24.74a9.33,9.33,0,1,0,8.42,13.33h4.91l.67-1.33.66.66.67.67h12.67l4-4-4-4H134.25a9.32,9.32,0,0,0-8.42-5.33" fill="#ceaceb"/><path d="M154.27,29.58H134.81a9.9,9.9,0,0,0-1.75-2.36A10,10,0,1,0,134.81,39h3.75l1.57-1.58L141.7,39h12.57L159,34.29Zm-.46,8.31H142.16l-1.24-1.25-.79-.79-.78.79-1.25,1.24h-4l-.31.59a9.21,9.21,0,0,1-1.55,2.1,8.89,8.89,0,1,1,0-12.57,9.15,9.15,0,0,1,1.55,2.09l.31.59h19.67l3.61,3.6Z" fill="#6e177d"/><circle cx="122.75" cy="34.27" r="2.22" fill="#6e177d"/><rect x="143.18" y="33.72" width="9.43" height="1.11" fill="#6e177d"/><path d="M125.83,251.74a9.33,9.33,0,1,0,8.42,13.33h4.91l.67-1.33.66.66.67.67h12.67l4-4-4-4H134.25a9.32,9.32,0,0,0-8.42-5.33" fill="#ceaceb"/><path d="M154.27,256.58H134.81a9.9,9.9,0,0,0-1.75-2.36A10,10,0,1,0,134.81,266h3.75l1.57-1.58L141.7,266h12.57l4.72-4.72Zm-.46,8.31H142.16l-1.24-1.25-.79-.79-.78.79-1.25,1.24h-4l-.31.59a9.21,9.21,0,0,1-1.55,2.1,8.89,8.89,0,1,1,0-12.57,9.15,9.15,0,0,1,1.55,2.09l.31.59h19.67l3.61,3.6Z" fill="#6e177d"/><circle cx="122.75" cy="261.27" r="2.22" fill="#6e177d"/><rect x="143.18" y="260.72" width="9.43" height="1.11" fill="#6e177d"/></g><g id="Text"><path d="M265.22,294.9a1.64,1.64,0,0,1-.57-.08.85.85,0,0,1-.37-.22.83.83,0,0,1-.22-.33,1.4,1.4,0,0,1-.06-.41v-.29a1.42,1.42,0,0,1,.06-.42.83.83,0,0,1,.22-.33,1,1,0,0,1,.37-.22,2.07,2.07,0,0,1,1.14,0,1,1,0,0,1,.37.22.83.83,0,0,1,.22.33,1.42,1.42,0,0,1,.06.42v.29a1.4,1.4,0,0,1-.06.41.83.83,0,0,1-.22.33.85.85,0,0,1-.37.22A1.64,1.64,0,0,1,265.22,294.9Z"/><path d="M271.14,296.1v-.84h.74v-3.89h-.74v-.85h2.54v.85h-.75v3.89h.75v.84Z"/><path d="M274.69,296.1v-4.17h1v.69h0a1.43,1.43,0,0,1,.41-.56,1.17,1.17,0,0,1,.76-.23,1.19,1.19,0,0,1,1,.43,1.9,1.9,0,0,1,.34,1.2v2.64h-1v-2.53a1.18,1.18,0,0,0-.16-.67.62.62,0,0,0-.53-.23,1.06,1.06,0,0,0-.31.05.89.89,0,0,0-.26.12.63.63,0,0,0-.19.21.54.54,0,0,0-.07.29v2.76Z"/><path d="M280.7,296.1a1.09,1.09,0,0,1-.8-.27,1.06,1.06,0,0,1-.28-.79v-2.29H279v-.82h.32a.4.4,0,0,0,.32-.11.49.49,0,0,0,.08-.32v-.72h.92v1.15h.86v.82h-.86v2.53h.8v.82Z"/><path d="M284.08,296.2a2,2,0,0,1-.83-.16,1.63,1.63,0,0,1-.62-.44,1.89,1.89,0,0,1-.39-.68,2.9,2.9,0,0,1-.13-.91,2.84,2.84,0,0,1,.13-.9,1.88,1.88,0,0,1,.38-.68,1.68,1.68,0,0,1,.61-.44,1.92,1.92,0,0,1,.81-.16,2,2,0,0,1,.85.17,1.5,1.5,0,0,1,.59.46,1.9,1.9,0,0,1,.35.66,2.76,2.76,0,0,1,.12.82v.33h-2.78v.11a1,1,0,0,0,.26.72,1,1,0,0,0,.76.28,1.23,1.23,0,0,0,.63-.16,1.85,1.85,0,0,0,.43-.41l.55.62a1.73,1.73,0,0,1-.7.57A2.51,2.51,0,0,1,284.08,296.2Zm0-3.6a.83.83,0,0,0-.65.27,1,1,0,0,0-.24.71v.06h1.71v-.07a1.1,1.1,0,0,0-.21-.7A.72.72,0,0,0,284.06,292.6Z"/><path d="M290.62,296.46a1.37,1.37,0,0,1-.12.58,1,1,0,0,1-.38.42,2.06,2.06,0,0,1-.68.25,4.78,4.78,0,0,1-1,.09,4.7,4.7,0,0,1-.9-.07,2,2,0,0,1-.6-.19.8.8,0,0,1-.34-.31.81.81,0,0,1-.11-.41.74.74,0,0,1,.2-.55.91.91,0,0,1,.55-.25v-.09a.75.75,0,0,1-.4-.25.77.77,0,0,1-.14-.45.51.51,0,0,1,.07-.28.62.62,0,0,1,.17-.22,1,1,0,0,1,.24-.14,1.42,1.42,0,0,1,.29-.1v0a1.21,1.21,0,0,1-.57-.49,1.44,1.44,0,0,1,.25-1.75,1.88,1.88,0,0,1,1.29-.39,2.43,2.43,0,0,1,.38,0,1.37,1.37,0,0,1,.35.08v-.14c0-.41.19-.61.59-.61h.65V292h-.89v.11a1.19,1.19,0,0,1,.49.48,1.45,1.45,0,0,1,.16.68,1.27,1.27,0,0,1-.44,1,1.88,1.88,0,0,1-1.29.39,2.91,2.91,0,0,1-.64-.07.6.6,0,0,0-.21.14.33.33,0,0,0-.09.23c0,.21.18.31.55.31h1.12a1.62,1.62,0,0,1,1.11.32A1.13,1.13,0,0,1,290.62,296.46Zm-1,.12a.36.36,0,0,0-.16-.32,1.05,1.05,0,0,0-.55-.11h-1.43a.52.52,0,0,0-.21.43.42.42,0,0,0,.2.38,1.25,1.25,0,0,0,.68.14h.51a1.61,1.61,0,0,0,.73-.13A.43.43,0,0,0,289.66,296.58Zm-1.23-2.64q.75,0,.75-.63v-.14q0-.63-.75-.63t-.75.63v.14Q287.68,293.94,288.43,293.94Z"/><path d="M291.21,296.1v-4.17h1v.86h0a1,1,0,0,1,.12-.32,1,1,0,0,1,.22-.28,1.13,1.13,0,0,1,.32-.19,1.2,1.2,0,0,1,.44-.07h.22v1h-.32a1.63,1.63,0,0,0-.78.15.51.51,0,0,0-.26.49v2.56Z"/><path d="M297.43,296.1a.7.7,0,0,1-.53-.19.85.85,0,0,1-.25-.53h0a1,1,0,0,1-.42.62,1.49,1.49,0,0,1-.79.2,1.38,1.38,0,0,1-1-.33,1.21,1.21,0,0,1-.34-.9,1.08,1.08,0,0,1,.46-1,2.34,2.34,0,0,1,1.32-.31h.72v-.31a.67.67,0,0,0-.78-.73,1,1,0,0,0-.58.15,1.62,1.62,0,0,0-.37.37l-.61-.54a1.81,1.81,0,0,1,.61-.59,2.14,2.14,0,0,1,1-.22,1.93,1.93,0,0,1,1.29.38,1.42,1.42,0,0,1,.44,1.11v2H298v.82Zm-1.7-.64a1,1,0,0,0,.59-.16.48.48,0,0,0,.24-.44v-.55h-.66c-.53,0-.8.17-.8.51V295a.43.43,0,0,0,.16.37A.73.73,0,0,0,295.73,295.46Z"/><path d="M300.13,296.1a1.09,1.09,0,0,1-.8-.27,1.06,1.06,0,0,1-.28-.79v-2.29h-.61v-.82h.31a.4.4,0,0,0,.32-.11.49.49,0,0,0,.09-.32v-.72h.92v1.15h.85v.82h-.85v2.53h.79v.82Z"/><path d="M303.51,296.2a2,2,0,0,1-.83-.16,1.71,1.71,0,0,1-.62-.44,2,2,0,0,1-.38-.68,2.63,2.63,0,0,1-.14-.91,2.84,2.84,0,0,1,.13-.9,2,2,0,0,1,.38-.68,1.68,1.68,0,0,1,.61-.44,1.94,1.94,0,0,1,.82-.16,2,2,0,0,1,.84.17,1.61,1.61,0,0,1,.6.46,1.88,1.88,0,0,1,.34.66,2.76,2.76,0,0,1,.12.82v.33H302.6v.11a1,1,0,0,0,.26.72,1,1,0,0,0,.76.28,1.2,1.2,0,0,0,.63-.16,1.67,1.67,0,0,0,.43-.41l.56.62a1.87,1.87,0,0,1-.7.57A2.56,2.56,0,0,1,303.51,296.2Zm0-3.6a.83.83,0,0,0-.65.27,1,1,0,0,0-.24.71v.06h1.72v-.07a1.1,1.1,0,0,0-.22-.7A.72.72,0,0,0,303.49,292.6Z"/><path d="M308.88,295.41h-.05a1,1,0,0,1-.42.57,1.21,1.21,0,0,1-.73.22,1.42,1.42,0,0,1-1.21-.57,2.69,2.69,0,0,1-.42-1.62,2.64,2.64,0,0,1,.42-1.61,1.42,1.42,0,0,1,1.21-.57,1.28,1.28,0,0,1,.73.21,1.06,1.06,0,0,1,.42.58h.05v-2.44h1v5.92h-1Zm-.87-.06a1.1,1.1,0,0,0,.62-.17.61.61,0,0,0,.25-.51v-1.33a.58.58,0,0,0-.25-.48,1,1,0,0,0-.62-.19.81.81,0,0,0-.64.27,1,1,0,0,0-.25.72v.72a1,1,0,0,0,.25.71A.84.84,0,0,0,308,295.35Z"/><path d="M314.62,296.2a2.19,2.19,0,0,1-.83-.15,1.56,1.56,0,0,1-.6-.44,1.91,1.91,0,0,1-.37-.69,2.9,2.9,0,0,1-.13-.91,2.86,2.86,0,0,1,.13-.91,1.94,1.94,0,0,1,.37-.68,1.56,1.56,0,0,1,.6-.44,2.19,2.19,0,0,1,.83-.15,1.77,1.77,0,0,1,1,.28,1.56,1.56,0,0,1,.6.78l-.84.37a.88.88,0,0,0-.27-.43.9.9,0,0,0-1.17.1,1.08,1.08,0,0,0-.22.71v.76a1.08,1.08,0,0,0,.22.71.76.76,0,0,0,.64.27.85.85,0,0,0,.57-.19,1.43,1.43,0,0,0,.31-.47l.78.38a1.65,1.65,0,0,1-.63.82A1.8,1.8,0,0,1,314.62,296.2Z"/><path d="M318.1,296.1a1,1,0,0,1-.78-.26,1.06,1.06,0,0,1-.24-.74v-4.92h1v5.1h.55v.82Z"/><path d="M321.08,296.2a2,2,0,0,1-.8-.15,1.68,1.68,0,0,1-.61-.44,1.94,1.94,0,0,1-.39-.69,2.9,2.9,0,0,1-.13-.91,2.86,2.86,0,0,1,.13-.91,2,2,0,0,1,.39-.68,1.68,1.68,0,0,1,.61-.44,2,2,0,0,1,.8-.15,2.09,2.09,0,0,1,.81.15,1.68,1.68,0,0,1,.61.44,2,2,0,0,1,.39.68,2.85,2.85,0,0,1,.14.91,2.9,2.9,0,0,1-.14.91,1.94,1.94,0,0,1-.39.69,1.68,1.68,0,0,1-.61.44A2.09,2.09,0,0,1,321.08,296.2Zm0-.82a.85.85,0,0,0,.64-.25,1,1,0,0,0,.24-.73v-.78a1,1,0,0,0-.24-.72,1,1,0,0,0-1.27,0,1.05,1.05,0,0,0-.23.72v.78a1.06,1.06,0,0,0,.23.73A.86.86,0,0,0,321.08,295.38Z"/><path d="M326.43,295.41h0a2.1,2.1,0,0,1-.15.3,1.34,1.34,0,0,1-.23.25,1.56,1.56,0,0,1-.34.18,1.53,1.53,0,0,1-.45.06,1.21,1.21,0,0,1-1-.42,1.89,1.89,0,0,1-.35-1.21v-2.64h1v2.53a1.11,1.11,0,0,0,.16.66.63.63,0,0,0,.54.23,1,1,0,0,0,.3,0,.69.69,0,0,0,.26-.12.6.6,0,0,0,.18-.21.55.55,0,0,0,.08-.29v-2.76h1v4.17h-1Z"/><path d="M331.23,295.41h0a1.07,1.07,0,0,1-.43.57,1.2,1.2,0,0,1-.72.22,1.43,1.43,0,0,1-1.22-.57,2.69,2.69,0,0,1-.42-1.62,2.64,2.64,0,0,1,.42-1.61,1.43,1.43,0,0,1,1.22-.57,1.27,1.27,0,0,1,.72.21,1.13,1.13,0,0,1,.43.58h0v-2.44h1v5.92h-1Zm-.87-.06a1.1,1.1,0,0,0,.62-.17.61.61,0,0,0,.25-.51v-1.33a.58.58,0,0,0-.25-.48,1,1,0,0,0-.62-.19.82.82,0,0,0-.64.27,1,1,0,0,0-.25.72v.72a1,1,0,0,0,.25.71A.85.85,0,0,0,330.36,295.35Z"/><path d="M336.69,296.2a2.36,2.36,0,0,1-1-.2,2.45,2.45,0,0,1-.72-.57l.63-.61a1.78,1.78,0,0,0,.5.42,1.34,1.34,0,0,0,.64.15.83.83,0,0,0,.53-.13.41.41,0,0,0,.17-.35.37.37,0,0,0-.12-.29.79.79,0,0,0-.39-.15l-.42-.05a2,2,0,0,1-1-.39,1.1,1.1,0,0,1-.35-.88,1.26,1.26,0,0,1,.11-.55,1.07,1.07,0,0,1,.32-.41,1.5,1.5,0,0,1,.5-.27,2.17,2.17,0,0,1,.65-.09,2.92,2.92,0,0,1,.54.05,2.43,2.43,0,0,1,.43.12,2,2,0,0,1,.35.21,2.7,2.7,0,0,1,.31.28l-.6.6a1.43,1.43,0,0,0-.44-.32,1.16,1.16,0,0,0-.56-.13.77.77,0,0,0-.48.12.37.37,0,0,0-.15.31.41.41,0,0,0,.12.32.93.93,0,0,0,.42.15l.43.06q1.35.19,1.35,1.23a1.31,1.31,0,0,1-.12.56,1.33,1.33,0,0,1-.35.43,1.72,1.72,0,0,1-.54.28A2.26,2.26,0,0,1,336.69,296.2Z"/><path d="M341,296.2a2,2,0,0,1-.83-.16,1.68,1.68,0,0,1-.61-.44,1.89,1.89,0,0,1-.39-.68A2.9,2.9,0,0,1,339,294a2.83,2.83,0,0,1,.14-.9,1.74,1.74,0,0,1,.38-.68,1.56,1.56,0,0,1,.6-.44,2,2,0,0,1,.82-.16,2,2,0,0,1,.85.17,1.5,1.5,0,0,1,.59.46,1.9,1.9,0,0,1,.35.66,2.75,2.75,0,0,1,.11.82v.33H340.1v.11a1,1,0,0,0,.25.72,1,1,0,0,0,.76.28,1.17,1.17,0,0,0,.63-.16,1.71,1.71,0,0,0,.44-.41l.55.62a1.73,1.73,0,0,1-.7.57A2.56,2.56,0,0,1,341,296.2Zm0-3.6a.82.82,0,0,0-.65.27,1,1,0,0,0-.24.71v.06h1.71v-.07a1.1,1.1,0,0,0-.21-.7A.73.73,0,0,0,341,292.6Z"/><path d="M343.78,296.1v-4.17h1v.86h0a1.27,1.27,0,0,1,.13-.32.85.85,0,0,1,.22-.28,1,1,0,0,1,.32-.19,1.2,1.2,0,0,1,.44-.07h.22v1h-.32a1.58,1.58,0,0,0-.78.15.51.51,0,0,0-.27.49v2.56Z"/><path d="M347.82,296.1l-1.39-4.17h1l.59,1.8.41,1.49h.05l.41-1.49.57-1.8h1L349,296.1Z"/><path d="M351.63,291.32a.63.63,0,0,1-.46-.14.49.49,0,0,1-.14-.37v-.16a.49.49,0,0,1,.14-.37.81.81,0,0,1,.91,0,.5.5,0,0,1,.15.37v.16a.5.5,0,0,1-.15.37A.64.64,0,0,1,351.63,291.32Zm-.52.61h1v4.17h-1Z"/><path d="M355,296.2a2.1,2.1,0,0,1-.82-.15,1.68,1.68,0,0,1-.61-.44,2.07,2.07,0,0,1-.37-.69A2.9,2.9,0,0,1,353,294a2.86,2.86,0,0,1,.13-.91,2.12,2.12,0,0,1,.37-.68,1.68,1.68,0,0,1,.61-.44,2.1,2.1,0,0,1,.82-.15,1.77,1.77,0,0,1,1,.28,1.56,1.56,0,0,1,.6.78l-.84.37a.88.88,0,0,0-.27-.43.9.9,0,0,0-1.17.1,1.08,1.08,0,0,0-.22.71v.76a1.08,1.08,0,0,0,.22.71.76.76,0,0,0,.64.27.81.81,0,0,0,.57-.19,1.29,1.29,0,0,0,.31-.47l.78.38a1.55,1.55,0,0,1-.63.82A1.78,1.78,0,0,1,355,296.2Z"/><path d="M359.11,296.2a1.94,1.94,0,0,1-.82-.16,1.63,1.63,0,0,1-.62-.44,1.89,1.89,0,0,1-.39-.68,2.9,2.9,0,0,1-.13-.91,2.84,2.84,0,0,1,.13-.9,1.88,1.88,0,0,1,.38-.68,1.6,1.6,0,0,1,.61-.44,1.92,1.92,0,0,1,.81-.16,2,2,0,0,1,.85.17,1.5,1.5,0,0,1,.59.46,1.9,1.9,0,0,1,.35.66,2.76,2.76,0,0,1,.12.82v.33h-2.78v.11a1,1,0,0,0,.26.72,1,1,0,0,0,.76.28,1.16,1.16,0,0,0,.62-.16,1.71,1.71,0,0,0,.44-.41l.55.62a1.73,1.73,0,0,1-.7.57A2.52,2.52,0,0,1,359.11,296.2Zm0-3.6a.83.83,0,0,0-.65.27,1,1,0,0,0-.24.71v.06h1.71v-.07a1.1,1.1,0,0,0-.21-.7A.72.72,0,0,0,359.1,292.6Z"/><path d="M363.26,296.2a2.33,2.33,0,0,1-1-.2,2.45,2.45,0,0,1-.72-.57l.62-.61a2,2,0,0,0,.51.42,1.34,1.34,0,0,0,.64.15.84.84,0,0,0,.53-.13.41.41,0,0,0,.16-.35.36.36,0,0,0-.11-.29.8.8,0,0,0-.4-.15l-.41-.05a2,2,0,0,1-1-.39,1.08,1.08,0,0,1-.36-.88,1.26,1.26,0,0,1,.12-.55,1.07,1.07,0,0,1,.32-.41,1.5,1.5,0,0,1,.5-.27,2.17,2.17,0,0,1,.65-.09,2.92,2.92,0,0,1,.54.05,2.43,2.43,0,0,1,.43.12,2.5,2.5,0,0,1,.35.21,3.92,3.92,0,0,1,.31.28l-.6.6a1.43,1.43,0,0,0-.44-.32,1.18,1.18,0,0,0-.56-.13.75.75,0,0,0-.48.12.37.37,0,0,0-.15.31.41.41,0,0,0,.12.32.84.84,0,0,0,.42.15l.43.06q1.35.19,1.35,1.23a1.28,1.28,0,0,1-.47,1,1.72,1.72,0,0,1-.54.28A2.3,2.3,0,0,1,363.26,296.2Z"/><path d="M370.27,295.41h0a2.1,2.1,0,0,1-.15.3,1.34,1.34,0,0,1-.23.25,1.56,1.56,0,0,1-.34.18,1.53,1.53,0,0,1-.45.06,1.19,1.19,0,0,1-1-.42,1.89,1.89,0,0,1-.35-1.21v-2.64h1v2.53a1.11,1.11,0,0,0,.16.66.63.63,0,0,0,.54.23,1,1,0,0,0,.3,0,.69.69,0,0,0,.26-.12.72.72,0,0,0,.18-.21.55.55,0,0,0,.08-.29v-2.76h1v4.17h-1Z"/><path d="M373.84,296.2a2.36,2.36,0,0,1-1-.2,2.45,2.45,0,0,1-.72-.57l.63-.61a1.68,1.68,0,0,0,.51.42,1.28,1.28,0,0,0,.63.15.83.83,0,0,0,.53-.13.41.41,0,0,0,.17-.35.37.37,0,0,0-.12-.29.79.79,0,0,0-.39-.15l-.42-.05a2,2,0,0,1-1-.39,1.1,1.1,0,0,1-.35-.88,1.26,1.26,0,0,1,.11-.55,1.07,1.07,0,0,1,.32-.41,1.6,1.6,0,0,1,.5-.27,2.17,2.17,0,0,1,.65-.09,2.92,2.92,0,0,1,.54.05,2.43,2.43,0,0,1,.43.12,1.71,1.71,0,0,1,.35.21,2.7,2.7,0,0,1,.31.28l-.6.6a1.43,1.43,0,0,0-.44-.32,1.16,1.16,0,0,0-.56-.13.77.77,0,0,0-.48.12.37.37,0,0,0-.15.31.38.38,0,0,0,.13.32.84.84,0,0,0,.42.15l.42.06q1.35.19,1.35,1.23a1.31,1.31,0,0,1-.12.56,1.21,1.21,0,0,1-.35.43,1.72,1.72,0,0,1-.54.28A2.26,2.26,0,0,1,373.84,296.2Z"/><path d="M378.15,296.2a1.94,1.94,0,0,1-.82-.16,1.63,1.63,0,0,1-.62-.44,1.89,1.89,0,0,1-.39-.68,2.9,2.9,0,0,1-.13-.91,2.84,2.84,0,0,1,.13-.9,1.88,1.88,0,0,1,.38-.68,1.6,1.6,0,0,1,.61-.44,1.92,1.92,0,0,1,.81-.16,2,2,0,0,1,.85.17,1.5,1.5,0,0,1,.59.46,1.9,1.9,0,0,1,.35.66,2.76,2.76,0,0,1,.12.82v.33h-2.78v.11a1,1,0,0,0,.26.72,1,1,0,0,0,.76.28,1.16,1.16,0,0,0,.62-.16,1.71,1.71,0,0,0,.44-.41l.55.62a1.73,1.73,0,0,1-.7.57A2.52,2.52,0,0,1,378.15,296.2Zm0-3.6a.83.83,0,0,0-.65.27,1,1,0,0,0-.24.71v.06H379v-.07a1.1,1.1,0,0,0-.21-.7A.73.73,0,0,0,378.14,292.6Z"/><path d="M384.12,296.1a1.09,1.09,0,0,1-.8-.27A1.06,1.06,0,0,1,383,295v-2.29h-.61v-.82h.32a.37.37,0,0,0,.31-.11.49.49,0,0,0,.09-.32v-.72h.92v1.15h.85v.82h-.85v2.53h.79v.82Z"/><path d="M385.81,290.18h1v2.44h0a1.34,1.34,0,0,1,.41-.56,1.17,1.17,0,0,1,.76-.23,1.19,1.19,0,0,1,1,.43,1.85,1.85,0,0,1,.35,1.2v2.64h-1v-2.53a1.1,1.1,0,0,0-.16-.67.59.59,0,0,0-.52-.23,1.06,1.06,0,0,0-.31.05,1.11,1.11,0,0,0-.27.12.72.72,0,0,0-.18.21.55.55,0,0,0-.08.29v2.76h-1Z"/><path d="M392.2,296.2a2,2,0,0,1-.83-.16,1.68,1.68,0,0,1-.61-.44,1.89,1.89,0,0,1-.39-.68,2.9,2.9,0,0,1-.14-.91,2.83,2.83,0,0,1,.14-.9,1.74,1.74,0,0,1,.38-.68,1.56,1.56,0,0,1,.6-.44,2,2,0,0,1,.82-.16,2,2,0,0,1,.85.17,1.5,1.5,0,0,1,.59.46,2.08,2.08,0,0,1,.35.66,2.75,2.75,0,0,1,.11.82v.33H391.3v.11a.92.92,0,0,0,1,1,1.17,1.17,0,0,0,.63-.16,1.88,1.88,0,0,0,.44-.41l.55.62a1.73,1.73,0,0,1-.7.57A2.56,2.56,0,0,1,392.2,296.2Zm0-3.6a.82.82,0,0,0-.65.27,1,1,0,0,0-.24.71v.06H393v-.07a1.1,1.1,0,0,0-.21-.7A.73.73,0,0,0,392.19,292.6Z"/><path d="M397.89,296.1a1,1,0,0,1-.78-.26,1.06,1.06,0,0,1-.24-.74v-4.92h1v5.1h.55v.82Z"/><path d="M402.29,296.1a.72.72,0,0,1-.53-.19,1,1,0,0,1-.25-.53h0a1,1,0,0,1-.43.62,1.49,1.49,0,0,1-.79.2,1.35,1.35,0,0,1-1-.33,1.22,1.22,0,0,1-.35-.9,1.08,1.08,0,0,1,.47-1,2.32,2.32,0,0,1,1.32-.31h.71v-.31a.73.73,0,0,0-.19-.54.78.78,0,0,0-.59-.19,1,1,0,0,0-.58.15,1.85,1.85,0,0,0-.37.37l-.61-.54a1.85,1.85,0,0,1,.62-.59,2.07,2.07,0,0,1,1-.22,1.93,1.93,0,0,1,1.29.38,1.42,1.42,0,0,1,.44,1.11v2h.42v.82Zm-1.7-.64a1,1,0,0,0,.59-.16.48.48,0,0,0,.24-.44v-.55h-.66c-.53,0-.8.17-.8.51V295a.44.44,0,0,0,.17.37A.7.7,0,0,0,400.59,295.46Z"/><path d="M405,296.1a1.09,1.09,0,0,1-.8-.27,1.1,1.1,0,0,1-.28-.79v-2.29h-.61v-.82h.32a.37.37,0,0,0,.31-.11.49.49,0,0,0,.09-.32v-.72h.92v1.15h.85v.82h-.85v2.53h.79v.82Z"/><path d="M408.37,296.2a2,2,0,0,1-.83-.16,1.6,1.6,0,0,1-.61-.44,1.89,1.89,0,0,1-.39-.68,2.9,2.9,0,0,1-.14-.91,3.15,3.15,0,0,1,.13-.9,2,2,0,0,1,.38-.68,1.68,1.68,0,0,1,.61-.44,1.94,1.94,0,0,1,.82-.16,2,2,0,0,1,.85.17,1.58,1.58,0,0,1,.59.46,2.08,2.08,0,0,1,.35.66,3.12,3.12,0,0,1,.11.82v.33h-2.77v.11a.92.92,0,0,0,1,1,1.17,1.17,0,0,0,.63-.16,1.88,1.88,0,0,0,.44-.41l.55.62a1.8,1.8,0,0,1-.7.57A2.56,2.56,0,0,1,408.37,296.2Zm0-3.6a.81.81,0,0,0-.64.27,1,1,0,0,0-.24.71v.06h1.71v-.07a1.1,1.1,0,0,0-.21-.7A.75.75,0,0,0,408.35,292.6Z"/><path d="M412.51,296.2a2.28,2.28,0,0,1-1-.2,2.22,2.22,0,0,1-.72-.57l.62-.61a1.68,1.68,0,0,0,.51.42,1.28,1.28,0,0,0,.63.15.86.86,0,0,0,.54-.13.43.43,0,0,0,.16-.35.37.37,0,0,0-.12-.29.75.75,0,0,0-.39-.15l-.42-.05a2,2,0,0,1-1-.39,1.08,1.08,0,0,1-.36-.88,1.42,1.42,0,0,1,.11-.55,1.17,1.17,0,0,1,.32-.41,1.6,1.6,0,0,1,.5-.27,2.22,2.22,0,0,1,.65-.09,2.76,2.76,0,0,1,.54.05,2.43,2.43,0,0,1,.43.12,1.71,1.71,0,0,1,.35.21,4,4,0,0,1,.32.28l-.6.6a1.55,1.55,0,0,0-.44-.32,1.21,1.21,0,0,0-.56-.13.78.78,0,0,0-.49.12.37.37,0,0,0-.15.31.41.41,0,0,0,.13.32.84.84,0,0,0,.42.15l.42.06q1.35.19,1.35,1.23a1.31,1.31,0,0,1-.12.56,1.21,1.21,0,0,1-.35.43,1.72,1.72,0,0,1-.54.28A2.26,2.26,0,0,1,412.51,296.2Z"/><path d="M416.44,296.1a1.09,1.09,0,0,1-.8-.27,1.06,1.06,0,0,1-.28-.79v-2.29h-.61v-.82h.32a.37.37,0,0,0,.31-.11.49.49,0,0,0,.09-.32v-.72h.92v1.15h.85v.82h-.85v2.53h.79v.82Z"/><path d="M420,290.18h1v3.57h0l.55-.75.94-1.07h1.16l-1.44,1.61,1.59,2.56h-1.21l-1.08-1.87-.55.6v1.27h-1Z"/><path d="M426.2,296.2a2,2,0,0,1-.83-.16,1.6,1.6,0,0,1-.61-.44,1.89,1.89,0,0,1-.39-.68,2.9,2.9,0,0,1-.14-.91,2.83,2.83,0,0,1,.14-.9,1.74,1.74,0,0,1,.38-.68,1.56,1.56,0,0,1,.6-.44,2,2,0,0,1,.82-.16,2,2,0,0,1,.85.17,1.58,1.58,0,0,1,.59.46,2.08,2.08,0,0,1,.35.66,3.12,3.12,0,0,1,.11.82v.33H425.3v.11a.92.92,0,0,0,1,1,1.17,1.17,0,0,0,.63-.16,1.88,1.88,0,0,0,.44-.41l.55.62a1.73,1.73,0,0,1-.7.57A2.56,2.56,0,0,1,426.2,296.2Zm0-3.6a.82.82,0,0,0-.65.27,1,1,0,0,0-.24.71v.06H427v-.07a1.1,1.1,0,0,0-.21-.7A.73.73,0,0,0,426.19,292.6Z"/><path d="M431.54,291.93h1l-1.68,4.92a3.66,3.66,0,0,1-.18.39,1.2,1.2,0,0,1-.24.26,1,1,0,0,1-.33.16,1.89,1.89,0,0,1-.44,0H429v-.82h.75l.19-.58-1.49-4.37h1l.73,2.2.27,1.05h0l.29-1.05Z"/><path d="M271.64,299.78h1v3.57h0l.55-.75.94-1.07h1.16l-1.44,1.61,1.59,2.56h-1.22l-1.07-1.87-.55.6v1.27h-1Z"/><path d="M277.83,305.8a2,2,0,0,1-.83-.16,1.71,1.71,0,0,1-.62-.44,2,2,0,0,1-.38-.68,2.9,2.9,0,0,1-.14-.91,2.84,2.84,0,0,1,.13-.9,2.14,2.14,0,0,1,.38-.68,1.68,1.68,0,0,1,.61-.44,1.94,1.94,0,0,1,.82-.16,2,2,0,0,1,.84.17,1.61,1.61,0,0,1,.6.46,1.88,1.88,0,0,1,.34.66,2.76,2.76,0,0,1,.12.82v.33h-2.78V304a1,1,0,0,0,.26.72,1,1,0,0,0,.76.28,1.17,1.17,0,0,0,.63-.16,1.67,1.67,0,0,0,.43-.41l.56.62a1.87,1.87,0,0,1-.7.57A2.56,2.56,0,0,1,277.83,305.8Zm0-3.6a.83.83,0,0,0-.65.27,1,1,0,0,0-.24.71v.06h1.72v-.07a1.1,1.1,0,0,0-.22-.7A.72.72,0,0,0,277.81,302.2Z"/><path d="M283.16,301.53h1l-1.68,4.92a1.76,1.76,0,0,1-.18.39.83.83,0,0,1-.23.26,1,1,0,0,1-.33.16,2,2,0,0,1-.45,0h-.61v-.82h.75l.19-.58-1.5-4.37h1l.73,2.2.27,1.06h0l.29-1.06Z"/><path d="M287.58,305.7l-1.39-4.17h1l.58,1.8.41,1.49h.05l.41-1.49.57-1.8h1l-1.4,4.17Z"/><path d="M292.56,305.8a1.94,1.94,0,0,1-.82-.16,1.63,1.63,0,0,1-.62-.44,1.89,1.89,0,0,1-.39-.68,2.9,2.9,0,0,1-.14-.91,2.83,2.83,0,0,1,.14-.9,2,2,0,0,1,.38-.68,1.56,1.56,0,0,1,.6-.44,2.2,2.2,0,0,1,1.67,0,1.5,1.5,0,0,1,.59.46,1.9,1.9,0,0,1,.35.66,2.75,2.75,0,0,1,.11.82v.33h-2.77V304a1,1,0,0,0,.26.72,1,1,0,0,0,.75.28,1.17,1.17,0,0,0,.63-.16,1.71,1.71,0,0,0,.44-.41l.55.62a1.73,1.73,0,0,1-.7.57A2.56,2.56,0,0,1,292.56,305.8Zm0-3.6a.83.83,0,0,0-.65.27,1,1,0,0,0-.24.71v.06h1.71v-.07a1.1,1.1,0,0,0-.21-.7A.73.73,0,0,0,292.55,302.2Z"/><path d="M295.34,305.7v-4.17h1v.86h0a1.27,1.27,0,0,1,.13-.32.85.85,0,0,1,.22-.28,1.13,1.13,0,0,1,.32-.19,1.2,1.2,0,0,1,.44-.07h.22v1h-.32a1.58,1.58,0,0,0-.78.15.52.52,0,0,0-.27.49v2.56Z"/><path d="M299.85,305.8a2.36,2.36,0,0,1-1-.2,2.45,2.45,0,0,1-.72-.57l.63-.61a1.78,1.78,0,0,0,.5.42,1.34,1.34,0,0,0,.64.15.83.83,0,0,0,.53-.13.41.41,0,0,0,.17-.35.37.37,0,0,0-.12-.29.79.79,0,0,0-.39-.15l-.42-.05a2,2,0,0,1-1-.39,1.1,1.1,0,0,1-.35-.88,1.26,1.26,0,0,1,.11-.55,1.07,1.07,0,0,1,.32-.41,1.34,1.34,0,0,1,.5-.27,2.17,2.17,0,0,1,.65-.09,2.92,2.92,0,0,1,.54.05,1.8,1.8,0,0,1,.43.12,2,2,0,0,1,.35.21,2.7,2.7,0,0,1,.31.28l-.6.6a1.43,1.43,0,0,0-.44-.32,1.16,1.16,0,0,0-.56-.13.77.77,0,0,0-.48.12.37.37,0,0,0-.15.31.38.38,0,0,0,.13.32.84.84,0,0,0,.41.15l.43.06q1.35.19,1.35,1.23a1.31,1.31,0,0,1-.12.56,1.33,1.33,0,0,1-.35.43,1.72,1.72,0,0,1-.54.28A2.26,2.26,0,0,1,299.85,305.8Z"/><path d="M303,300.92a.63.63,0,0,1-.46-.14.49.49,0,0,1-.14-.37v-.16a.49.49,0,0,1,.14-.37.59.59,0,0,1,.46-.14.58.58,0,0,1,.45.14.5.5,0,0,1,.15.37v.16a.5.5,0,0,1-.15.37A.62.62,0,0,1,303,300.92Zm-.52.61h1v4.17h-1Z"/><path d="M306.34,305.8a2,2,0,0,1-.8-.15,1.6,1.6,0,0,1-.61-.44,1.94,1.94,0,0,1-.39-.69,2.9,2.9,0,0,1-.14-.91,2.85,2.85,0,0,1,.14-.91,2,2,0,0,1,.39-.68,1.71,1.71,0,0,1,.61-.44,2,2,0,0,1,.8-.15,2.09,2.09,0,0,1,.81.15,1.8,1.8,0,0,1,.61.44,2,2,0,0,1,.39.68,2.86,2.86,0,0,1,.13.91,2.9,2.9,0,0,1-.13.91,1.94,1.94,0,0,1-.39.69,1.68,1.68,0,0,1-.61.44A2.09,2.09,0,0,1,306.34,305.8Zm0-.82a.87.87,0,0,0,.64-.25,1.06,1.06,0,0,0,.23-.73v-.78a1.05,1.05,0,0,0-.23-.72.86.86,0,0,0-.64-.24.82.82,0,0,0-.63.24,1,1,0,0,0-.24.72V304a1,1,0,0,0,.24.73A.83.83,0,0,0,306.34,305Z"/><path d="M309.19,305.7v-4.17h1v.69h0a1.34,1.34,0,0,1,.41-.56,1.15,1.15,0,0,1,.76-.23,1.19,1.19,0,0,1,1,.43,1.84,1.84,0,0,1,.34,1.2v2.64h-1v-2.53a1.12,1.12,0,0,0-.16-.67.61.61,0,0,0-.53-.23,1,1,0,0,0-.3.05,1.11,1.11,0,0,0-.27.12.76.76,0,0,0-.19.21.65.65,0,0,0-.07.29v2.76Z"/><path d="M316.78,305.7a.67.67,0,0,1-.51-.18.73.73,0,0,1-.17-.49v-2.89h-.68v-.56h.38a.37.37,0,0,0,.29-.09.42.42,0,0,0,.07-.29v-.77h.58v1.15h.9v.56h-.9v3h.84v.56Z"/><path d="M320.24,305.8a1.92,1.92,0,0,1-.77-.15,1.66,1.66,0,0,1-.58-.44,1.88,1.88,0,0,1-.38-.68,2.72,2.72,0,0,1-.14-.89,2.77,2.77,0,0,1,.14-.89,2,2,0,0,1,.38-.68,1.66,1.66,0,0,1,.58-.44,1.92,1.92,0,0,1,.77-.15,1.86,1.86,0,0,1,.75.15,1.69,1.69,0,0,1,.59.44,2.14,2.14,0,0,1,.38.68,2.77,2.77,0,0,1,.14.89,2.72,2.72,0,0,1-.14.89,2,2,0,0,1-.38.68,1.69,1.69,0,0,1-.59.44A1.86,1.86,0,0,1,320.24,305.8Zm0-.57a1.17,1.17,0,0,0,.84-.32,1.29,1.29,0,0,0,.33-1v-.6a1.29,1.29,0,0,0-.33-1,1.28,1.28,0,0,0-1.69,0,1.29,1.29,0,0,0-.33,1v.6a1.29,1.29,0,0,0,.33,1A1.18,1.18,0,0,0,320.24,305.23Z"/><path d="M324.61,301.58h.62l.44,1.78.44,1.81h0l.5-1.81.52-1.78h.57l.54,1.78.51,1.81h0l.42-1.81.45-1.78h.6l-1.1,4.12h-.79l-.58-2-.36-1.26h0l-.35,1.26-.58,2h-.78Z"/><path d="M331.19,305.7v-4.12h.64v.76h0a1.12,1.12,0,0,1,.4-.53,1.18,1.18,0,0,1,.79-.23h.25v.64h-.38a1.43,1.43,0,0,0-.81.19.57.57,0,0,0-.29.49v2.8Z"/><path d="M337.12,305.7a.6.6,0,0,1-.51-.19,1,1,0,0,1-.2-.48h0a1.06,1.06,0,0,1-.45.58,1.36,1.36,0,0,1-.74.19,1.41,1.41,0,0,1-1-.34,1.17,1.17,0,0,1-.37-.91,1,1,0,0,1,.43-.89,2.27,2.27,0,0,1,1.33-.32h.82v-.4a.91.91,0,0,0-.24-.68,1,1,0,0,0-.74-.23,1.08,1.08,0,0,0-.62.17,1.3,1.3,0,0,0-.42.45l-.39-.36a1.34,1.34,0,0,1,.54-.57,2,2,0,0,1,2.09.13,1.27,1.27,0,0,1,.42,1v2.27h.47v.56Zm-1.84-.44a1.51,1.51,0,0,0,.44-.06,1.13,1.13,0,0,0,.35-.16.83.83,0,0,0,.22-.24.61.61,0,0,0,.08-.3v-.68h-.85a1.6,1.6,0,0,0-.8.16.53.53,0,0,0-.25.47v.17a.55.55,0,0,0,.22.47A.94.94,0,0,0,335.28,305.26Z"/><path d="M338.39,301.58H339v.66h0a1.11,1.11,0,0,1,.46-.57,1.38,1.38,0,0,1,.74-.19,1.6,1.6,0,0,1,.7.15,1.48,1.48,0,0,1,.53.43,2.07,2.07,0,0,1,.34.68,3.43,3.43,0,0,1,0,1.8,2.07,2.07,0,0,1-.34.68,1.48,1.48,0,0,1-.53.43,1.6,1.6,0,0,1-.7.15,1.23,1.23,0,0,1-1.2-.76h0v2.26h-.64Zm1.71,3.65a1.11,1.11,0,0,0,.86-.34,1.33,1.33,0,0,0,.31-.9v-.7a1.33,1.33,0,0,0-.31-.9,1.11,1.11,0,0,0-.86-.34,1.4,1.4,0,0,0-.41.06,1.07,1.07,0,0,0-.34.16.71.71,0,0,0-.23.26.56.56,0,0,0-.09.31v1.55a.74.74,0,0,0,.09.36.71.71,0,0,0,.23.26,1.08,1.08,0,0,0,.34.17A1.84,1.84,0,0,0,340.1,305.23Z"/><path d="M345.83,305.7a.65.65,0,0,1-.5-.18.69.69,0,0,1-.18-.49v-2.89h-.68v-.56h.39a.35.35,0,0,0,.28-.09.42.42,0,0,0,.08-.29v-.77h.57v1.15h.91v.56h-.91v3h.84v.56Z"/><path d="M347.73,299.78h.64v2.46h0a1.33,1.33,0,0,1,.43-.55,1.18,1.18,0,0,1,.74-.21,1.3,1.3,0,0,1,1,.41,1.68,1.68,0,0,1,.37,1.17v2.64h-.64v-2.54q0-1.11-.93-1.11a1.14,1.14,0,0,0-.37.05,1.22,1.22,0,0,0-.33.14.88.88,0,0,0-.23.24.78.78,0,0,0-.08.35v2.87h-.64Z"/><path d="M353.83,305.8a1.89,1.89,0,0,1-.77-.15,1.66,1.66,0,0,1-.58-.44,2,2,0,0,1-.38-.68,2.73,2.73,0,0,1-.13-.89,2.77,2.77,0,0,1,.13-.89,2.14,2.14,0,0,1,.38-.68,1.66,1.66,0,0,1,.58-.44,1.89,1.89,0,0,1,.77-.15,1.78,1.78,0,0,1,.74.15,1.56,1.56,0,0,1,.56.42,2,2,0,0,1,.36.63,2.64,2.64,0,0,1,.12.81v.3h-3V304a1.39,1.39,0,0,0,.09.5,1,1,0,0,0,.24.39,1.19,1.19,0,0,0,.38.27,1.38,1.38,0,0,0,.52.09,1.25,1.25,0,0,0,.68-.18,1.17,1.17,0,0,0,.45-.53l.46.33a1.6,1.6,0,0,1-.63.69A1.88,1.88,0,0,1,353.83,305.8Zm0-3.78a1.21,1.21,0,0,0-.48.09,1,1,0,0,0-.38.26,1.28,1.28,0,0,0-.24.39,1.35,1.35,0,0,0-.09.5v.05h2.28v-.09a1.24,1.24,0,0,0-.3-.87A1,1,0,0,0,353.83,302Z"/><path d="M361.19,305h0a1.25,1.25,0,0,1-1.21.76,1.58,1.58,0,0,1-.69-.15,1.48,1.48,0,0,1-.53-.43,2.07,2.07,0,0,1-.34-.68,3.43,3.43,0,0,1,0-1.8,2.07,2.07,0,0,1,.34-.68,1.48,1.48,0,0,1,.53-.43,1.58,1.58,0,0,1,.69-.15,1.34,1.34,0,0,1,.74.19,1.08,1.08,0,0,1,.47.57h0v-2.46h.64v5.92h-.64Zm-1.06.19a1.84,1.84,0,0,0,.41-.05,1.08,1.08,0,0,0,.34-.17.82.82,0,0,0,.23-.26.73.73,0,0,0,.08-.36v-1.55a.55.55,0,0,0-.08-.31.82.82,0,0,0-.23-.26,1.07,1.07,0,0,0-.34-.16,1.4,1.4,0,0,0-.41-.06,1.11,1.11,0,0,0-.86.34,1.33,1.33,0,0,0-.31.9v.7a1.33,1.33,0,0,0,.31.9A1.11,1.11,0,0,0,360.13,305.23Z"/><path d="M366.19,305.7a.6.6,0,0,1-.51-.19,1,1,0,0,1-.2-.48h0a1.06,1.06,0,0,1-.45.58,1.34,1.34,0,0,1-.74.19,1.41,1.41,0,0,1-1-.34,1.17,1.17,0,0,1-.36-.91,1,1,0,0,1,.42-.89,2.28,2.28,0,0,1,1.34-.32h.81v-.4a.91.91,0,0,0-.24-.68,1,1,0,0,0-.73-.23,1.11,1.11,0,0,0-.63.17,1.3,1.3,0,0,0-.42.45l-.39-.36a1.4,1.4,0,0,1,.54-.57,1.67,1.67,0,0,1,.93-.24,1.69,1.69,0,0,1,1.17.37,1.3,1.3,0,0,1,.41,1v2.27h.47v.56Zm-1.84-.44a1.51,1.51,0,0,0,.44-.06,1.13,1.13,0,0,0,.35-.16.83.83,0,0,0,.22-.24.52.52,0,0,0,.08-.3v-.68h-.85a1.63,1.63,0,0,0-.8.16.53.53,0,0,0-.25.47v.17a.55.55,0,0,0,.22.47A.94.94,0,0,0,364.35,305.26Z"/><path d="M368.38,305.7a.66.66,0,0,1-.51-.18.68.68,0,0,1-.17-.49v-2.89H367v-.56h.38a.39.39,0,0,0,.29-.09.42.42,0,0,0,.07-.29v-.77h.58v1.15h.9v.56h-.9v3h.84v.56Z"/><path d="M373.27,305.7a.6.6,0,0,1-.51-.19,1,1,0,0,1-.2-.48h0a1.06,1.06,0,0,1-.45.58,1.34,1.34,0,0,1-.74.19,1.41,1.41,0,0,1-1-.34,1.17,1.17,0,0,1-.36-.91,1,1,0,0,1,.42-.89,2.28,2.28,0,0,1,1.34-.32h.81v-.4a.91.91,0,0,0-.24-.68,1,1,0,0,0-.73-.23,1.11,1.11,0,0,0-.63.17,1.3,1.3,0,0,0-.42.45l-.39-.36a1.4,1.4,0,0,1,.54-.57,2,2,0,0,1,2.1.13,1.3,1.3,0,0,1,.41,1v2.27h.47v.56Zm-1.84-.44a1.51,1.51,0,0,0,.44-.06,1.13,1.13,0,0,0,.35-.16.83.83,0,0,0,.22-.24.52.52,0,0,0,.08-.3v-.68h-.85a1.63,1.63,0,0,0-.8.16.53.53,0,0,0-.25.47v.17a.55.55,0,0,0,.22.47A.94.94,0,0,0,371.43,305.26Z"/><path d="M378,305.8a1.89,1.89,0,0,1-.77-.15,1.66,1.66,0,0,1-.58-.44,1.88,1.88,0,0,1-.38-.68,2.73,2.73,0,0,1-.13-.89,2.77,2.77,0,0,1,.13-.89,2,2,0,0,1,.38-.68,1.66,1.66,0,0,1,.58-.44,1.89,1.89,0,0,1,.77-.15,1.78,1.78,0,0,1,.74.15,1.65,1.65,0,0,1,.56.42,2.16,2.16,0,0,1,.36.63,2.64,2.64,0,0,1,.12.81v.3h-3V304a1.39,1.39,0,0,0,.09.5,1,1,0,0,0,.24.39,1.19,1.19,0,0,0,.38.27,1.38,1.38,0,0,0,.52.09,1.28,1.28,0,0,0,.68-.18,1.3,1.3,0,0,0,.45-.53l.46.33a1.67,1.67,0,0,1-.63.69A1.88,1.88,0,0,1,378,305.8Zm0-3.78a1.21,1.21,0,0,0-.48.09,1,1,0,0,0-.38.26,1.28,1.28,0,0,0-.24.39,1.35,1.35,0,0,0-.09.5v.05h2.28v-.09a1.24,1.24,0,0,0-.3-.87A1,1,0,0,0,378,302Z"/><path d="M380.83,305.7v-4.12h.64v.66h0a1.25,1.25,0,0,1,.43-.55,1.18,1.18,0,0,1,.74-.21,1.32,1.32,0,0,1,1,.41,1.68,1.68,0,0,1,.37,1.17v2.64h-.64v-2.54c0-.74-.31-1.11-.94-1.11a1.18,1.18,0,0,0-.37.05,1,1,0,0,0-.32.14.75.75,0,0,0-.23.24.67.67,0,0,0-.08.35v2.87Z"/><path d="M386.91,305.8a1.94,1.94,0,0,1-.78-.15,1.66,1.66,0,0,1-.58-.43,1.93,1.93,0,0,1-.36-.68,3.43,3.43,0,0,1,0-1.8,1.93,1.93,0,0,1,.36-.68,1.66,1.66,0,0,1,.58-.43,1.94,1.94,0,0,1,.78-.15,1.55,1.55,0,0,1,1.54,1l-.54.27a1,1,0,0,0-.36-.5,1.17,1.17,0,0,0-.64-.17,1.33,1.33,0,0,0-.51.09,1,1,0,0,0-.36.26,1,1,0,0,0-.21.39,1.59,1.59,0,0,0-.08.5v.7a1.31,1.31,0,0,0,.3.89,1,1,0,0,0,.86.35,1.17,1.17,0,0,0,1.12-.72l.46.31a1.62,1.62,0,0,1-.6.72A1.76,1.76,0,0,1,386.91,305.8Z"/><path d="M389.39,305.7v-4.12H390v.76h0a1.27,1.27,0,0,1,.4-.53,1.23,1.23,0,0,1,.8-.23h.24v.64h-.37a1.43,1.43,0,0,0-.81.19.58.58,0,0,0-.3.49v2.8Z"/><path d="M394.87,301.58h.64l-1.85,5.08a1.8,1.8,0,0,1-.15.31.55.55,0,0,1-.17.2.67.67,0,0,1-.26.1,2.09,2.09,0,0,1-.38,0h-.33v-.56H393l.31-.88-1.54-4.28h.64l1,2.8.19.67h0l.22-.67Z"/><path d="M396.32,301.58H397v.66h0a1.17,1.17,0,0,1,.47-.57,1.36,1.36,0,0,1,.74-.19,1.6,1.6,0,0,1,.7.15,1.57,1.57,0,0,1,.53.43,2.07,2.07,0,0,1,.34.68,3.74,3.74,0,0,1,0,1.8,2.07,2.07,0,0,1-.34.68,1.57,1.57,0,0,1-.53.43,1.6,1.6,0,0,1-.7.15A1.25,1.25,0,0,1,397,305h0v2.26h-.64Zm1.71,3.65a1.09,1.09,0,0,0,.85-.34,1.28,1.28,0,0,0,.31-.9v-.7a1.28,1.28,0,0,0-.31-.9,1.09,1.09,0,0,0-.85-.34,1.42,1.42,0,0,0-.42.06,1.19,1.19,0,0,0-.34.16,1,1,0,0,0-.23.26.65.65,0,0,0-.08.31v1.55a.86.86,0,0,0,.08.36,1,1,0,0,0,.23.26,1.2,1.2,0,0,0,.34.17A1.86,1.86,0,0,0,398,305.23Z"/><path d="M401.87,305.7a.65.65,0,0,1-.5-.18.69.69,0,0,1-.18-.49v-2.89h-.68v-.56h.39a.35.35,0,0,0,.28-.09.42.42,0,0,0,.08-.29v-.77h.57v1.15h.91v.56h-.91v3h.84v.56Z"/><path d="M404.09,300.61a.41.41,0,0,1-.3-.1.39.39,0,0,1-.09-.26v-.11a.39.39,0,0,1,.09-.26.5.5,0,0,1,.6,0,.39.39,0,0,1,.09.26v.11a.39.39,0,0,1-.09.26A.41.41,0,0,1,404.09,300.61Zm-.32,1h.64v4.12h-.64Z"/><path d="M407.33,305.8a1.87,1.87,0,0,1-.76-.15,1.61,1.61,0,0,1-.59-.44,2,2,0,0,1-.38-.68,2.73,2.73,0,0,1-.13-.89,2.77,2.77,0,0,1,.13-.89,2.14,2.14,0,0,1,.38-.68,1.61,1.61,0,0,1,.59-.44,2,2,0,0,1,1.52,0,1.66,1.66,0,0,1,.58.44,2,2,0,0,1,.39.68,2.77,2.77,0,0,1,.13.89,2.73,2.73,0,0,1-.13.89,1.89,1.89,0,0,1-.39.68,1.66,1.66,0,0,1-.58.44A1.87,1.87,0,0,1,407.33,305.8Zm0-.57a1.18,1.18,0,0,0,.85-.32,1.29,1.29,0,0,0,.33-1v-.6a1.29,1.29,0,0,0-.33-1,1.29,1.29,0,0,0-1.7,0,1.29,1.29,0,0,0-.33,1v.6a1.29,1.29,0,0,0,.33,1A1.18,1.18,0,0,0,407.33,305.23Z"/><path d="M410.25,305.7v-4.12h.64v.66h0a1.33,1.33,0,0,1,.43-.55,1.18,1.18,0,0,1,.74-.21,1.3,1.3,0,0,1,1,.41,1.68,1.68,0,0,1,.37,1.17v2.64h-.64v-2.54q0-1.11-.93-1.11a1.14,1.14,0,0,0-.37.05,1.22,1.22,0,0,0-.33.14.88.88,0,0,0-.23.24.78.78,0,0,0-.08.35v2.87Z"/><path d="M416.68,299.78h.64v3.76h0l.64-.71,1.16-1.25h.78l-1.53,1.63,1.68,2.49h-.77l-1.37-2.1-.62.63v1.47h-.64Z"/><path d="M422.45,305.8a1.84,1.84,0,0,1-.76-.15,1.61,1.61,0,0,1-.59-.44,1.86,1.86,0,0,1-.37-.68,2.72,2.72,0,0,1-.14-.89,2.77,2.77,0,0,1,.14-.89,1.94,1.94,0,0,1,.37-.68,1.61,1.61,0,0,1,.59-.44,1.84,1.84,0,0,1,.76-.15,1.75,1.75,0,0,1,.74.15,1.56,1.56,0,0,1,.56.42,1.79,1.79,0,0,1,.36.63,2.64,2.64,0,0,1,.12.81v.3h-3V304a1.38,1.38,0,0,0,.08.5,1.28,1.28,0,0,0,.24.39,1.19,1.19,0,0,0,.38.27,1.46,1.46,0,0,0,.52.09,1.19,1.19,0,0,0,1.14-.71l.45.33a1.64,1.64,0,0,1-.62.69A2,2,0,0,1,422.45,305.8Zm0-3.78a1.21,1.21,0,0,0-.48.09,1,1,0,0,0-.37.26,1.14,1.14,0,0,0-.25.39,1.35,1.35,0,0,0-.08.5v.05h2.28v-.09a1.24,1.24,0,0,0-.3-.87A1,1,0,0,0,422.45,302Z"/><path d="M427.83,301.58h.63l-1.84,5.08a1.8,1.8,0,0,1-.15.31.55.55,0,0,1-.43.3,2.09,2.09,0,0,1-.38,0h-.33v-.56H426l.31-.88-1.54-4.28h.63l1,2.8.19.67h0l.22-.67Z"/><path d="M430.52,305.8a1.89,1.89,0,0,1-1-.22,2.21,2.21,0,0,1-.67-.59l.46-.37a1.57,1.57,0,0,0,.53.47,1.41,1.41,0,0,0,.69.17,1,1,0,0,0,.64-.18.59.59,0,0,0,.22-.5.61.61,0,0,0-.15-.41,1,1,0,0,0-.57-.23l-.32-.05a2.57,2.57,0,0,1-.53-.13,1.4,1.4,0,0,1-.42-.22.87.87,0,0,1-.28-.35,1.07,1.07,0,0,1-.1-.49,1.16,1.16,0,0,1,.11-.54,1,1,0,0,1,.31-.38,1.28,1.28,0,0,1,.47-.22,1.81,1.81,0,0,1,.58-.08,1.74,1.74,0,0,1,.84.18,1.85,1.85,0,0,1,.6.48l-.43.39a1.22,1.22,0,0,0-.39-.35,1.35,1.35,0,0,0-.67-.16.86.86,0,0,0-.6.18.56.56,0,0,0-.21.46.48.48,0,0,0,.21.44,1.45,1.45,0,0,0,.58.2l.33.05a1.68,1.68,0,0,1,1,.4,1,1,0,0,1,.29.76,1.19,1.19,0,0,1-.41.95A1.67,1.67,0,0,1,430.52,305.8Z"/><path d="M271.72,312.81a5,5,0,0,1,.11-1.11,4.49,4.49,0,0,1,.31-1,4.22,4.22,0,0,1,.46-.84,3.52,3.52,0,0,1,.56-.64h.61a5,5,0,0,0-.6.69,5.07,5.07,0,0,0-.46.82,5.66,5.66,0,0,0-.29.88,3.73,3.73,0,0,0-.1.86v.69a3.81,3.81,0,0,0,.1.87,4.81,4.81,0,0,0,.3.88,4.41,4.41,0,0,0,.46.82,3.46,3.46,0,0,0,.59.67h-.61a3.81,3.81,0,0,1-.56-.62,4.79,4.79,0,0,1-.46-.84,6,6,0,0,1-.31-1A5.13,5.13,0,0,1,271.72,312.81Z"/><path d="M274.48,309.72h1.87a2.39,2.39,0,0,1,.94.18,1.88,1.88,0,0,1,.73.52,2.56,2.56,0,0,1,.46.87,4.48,4.48,0,0,1,.15,1.22,4.42,4.42,0,0,1-.15,1.22,2.56,2.56,0,0,1-.46.87,1.91,1.91,0,0,1-.73.53,2.38,2.38,0,0,1-.94.17h-1.87Zm1.87,5a1.81,1.81,0,0,0,.63-.11,1.43,1.43,0,0,0,.5-.34,1.85,1.85,0,0,0,.32-.55,2.13,2.13,0,0,0,.12-.74v-.91a2.09,2.09,0,0,0-.12-.74,1.73,1.73,0,0,0-.32-.55,1.31,1.31,0,0,0-.5-.34,1.61,1.61,0,0,0-.63-.12h-1.2v4.4Z"/><path d="M279.84,315.3v-5.58h3.41v.59h-2.73v1.87h2.57v.6h-2.57v1.93h2.73v.59Z"/><path d="M286,312.56l-.79.88v1.86h-.67v-5.58h.67v3h0l.8-1,1.69-2h.83l-2.08,2.39,2.22,3.19h-.83Z"/><path d="M290.75,315.4a1.89,1.89,0,0,1-1-.22,2.21,2.21,0,0,1-.67-.59l.46-.37a1.7,1.7,0,0,0,.54.47,1.34,1.34,0,0,0,.68.17,1,1,0,0,0,.64-.18.6.6,0,0,0,.23-.5.57.57,0,0,0-.16-.41,1,1,0,0,0-.56-.23l-.33-.05a2.74,2.74,0,0,1-.53-.13,1.4,1.4,0,0,1-.42-.22,1,1,0,0,1-.28-.35,1.07,1.07,0,0,1-.1-.49,1.3,1.3,0,0,1,.11-.54,1.26,1.26,0,0,1,.31-.38,1.36,1.36,0,0,1,.47-.22,2.2,2.2,0,0,1,.58-.08,1.81,1.81,0,0,1,.85.18,1.92,1.92,0,0,1,.59.48l-.42.39a1.16,1.16,0,0,0-.4-.35,1.35,1.35,0,0,0-.67-.16.9.9,0,0,0-.6.18.58.58,0,0,0-.2.46.49.49,0,0,0,.2.44,1.5,1.5,0,0,0,.59.2l.32.05a1.72,1.72,0,0,1,1,.4,1,1,0,0,1,.28.76,1.18,1.18,0,0,1-.4.95A1.71,1.71,0,0,1,290.75,315.4Z"/><path d="M294.75,312.81a5.13,5.13,0,0,1-.12,1.12,6,6,0,0,1-.31,1,4.22,4.22,0,0,1-.46.84,3.41,3.41,0,0,1-.56.62h-.61a3.87,3.87,0,0,0,.6-.67,5.07,5.07,0,0,0,.46-.82A4.77,4.77,0,0,0,294,314a3.84,3.84,0,0,0,.11-.87v-.69a3.76,3.76,0,0,0-.11-.86,4.77,4.77,0,0,0-.29-.88,4.41,4.41,0,0,0-.46-.82,3.91,3.91,0,0,0-.6-.69h.61a4,4,0,0,1,.57.64,4.79,4.79,0,0,1,.46.84,5.07,5.07,0,0,1,.3,1A5,5,0,0,1,294.75,312.81Z"/><path d="M298.89,315.3a.69.69,0,0,1-.51-.18.74.74,0,0,1-.17-.5v-2.88h-.68v-.56h.39a.36.36,0,0,0,.28-.09.42.42,0,0,0,.08-.29V310h.57v1.15h.9v.56h-.9v3h.84v.56Z"/><path d="M300.79,309.38h.64v2.46h0a1.25,1.25,0,0,1,.43-.55,1.18,1.18,0,0,1,.74-.21,1.32,1.32,0,0,1,1,.41,1.68,1.68,0,0,1,.37,1.17v2.64h-.64v-2.54q0-1.11-.93-1.11a1.2,1.2,0,0,0-.38.05,1,1,0,0,0-.32.14.75.75,0,0,0-.23.24.78.78,0,0,0-.08.35v2.87h-.64Z"/><path d="M308.33,315.3a.6.6,0,0,1-.51-.19,1,1,0,0,1-.2-.48h0a1.06,1.06,0,0,1-.45.58,1.38,1.38,0,0,1-.74.19,1.41,1.41,0,0,1-1-.34,1.14,1.14,0,0,1-.37-.91,1,1,0,0,1,.43-.89,2.27,2.27,0,0,1,1.33-.32h.82v-.4a.91.91,0,0,0-.24-.68,1.06,1.06,0,0,0-.74-.23,1.08,1.08,0,0,0-.62.17,1.43,1.43,0,0,0-.43.45l-.38-.36a1.34,1.34,0,0,1,.54-.57,1.63,1.63,0,0,1,.92-.24,1.66,1.66,0,0,1,1.17.37,1.27,1.27,0,0,1,.42,1v2.27h.47v.56Zm-1.84-.44a1.51,1.51,0,0,0,.44-.06,1.25,1.25,0,0,0,.35-.16.83.83,0,0,0,.22-.24.61.61,0,0,0,.08-.3v-.68h-.85a1.57,1.57,0,0,0-.8.16.54.54,0,0,0-.26.47v.17a.56.56,0,0,0,.23.47A.94.94,0,0,0,306.49,314.86Z"/><path d="M310.51,315.3a.65.65,0,0,1-.5-.18.7.7,0,0,1-.18-.5v-2.88h-.67v-.56h.38a.35.35,0,0,0,.28-.09.42.42,0,0,0,.08-.29V310h.57v1.15h.91v.56h-.91v3h.85v.56Z"/><path d="M315.85,315.4a1.84,1.84,0,0,1-.76-.15,1.69,1.69,0,0,1-.59-.44,1.86,1.86,0,0,1-.37-.68,2.73,2.73,0,0,1-.13-.89,2.82,2.82,0,0,1,.13-.89,1.86,1.86,0,0,1,.37-.68,1.69,1.69,0,0,1,.59-.44,1.84,1.84,0,0,1,.76-.15,1.72,1.72,0,0,1,.74.15,1.69,1.69,0,0,1,.57.42,1.93,1.93,0,0,1,.35.63,2.64,2.64,0,0,1,.12.81v.3h-3v.19a1.64,1.64,0,0,0,.08.5,1.28,1.28,0,0,0,.24.39,1.13,1.13,0,0,0,.39.27,1.36,1.36,0,0,0,.51.09,1.31,1.31,0,0,0,.69-.18,1.24,1.24,0,0,0,.45-.53l.45.33a1.64,1.64,0,0,1-.62.69A1.92,1.92,0,0,1,315.85,315.4Zm0-3.78a1.21,1.21,0,0,0-.48.09,1,1,0,0,0-.37.26,1.14,1.14,0,0,0-.25.39,1.59,1.59,0,0,0-.08.5v.05H317v-.09a1.24,1.24,0,0,0-.3-.87A1,1,0,0,0,315.85,311.62Z"/><path d="M318.69,315.3v-4.12h.64v.66h0a1.33,1.33,0,0,1,.43-.55,1.18,1.18,0,0,1,.74-.21,1.3,1.3,0,0,1,1,.41,1.68,1.68,0,0,1,.38,1.17v2.64h-.64v-2.54c0-.74-.32-1.11-.94-1.11a1.14,1.14,0,0,0-.37.05,1.22,1.22,0,0,0-.33.14.72.72,0,0,0-.22.24.68.68,0,0,0-.09.35v2.87Z"/><path d="M324.77,315.4a1.86,1.86,0,0,1-.77-.15,1.57,1.57,0,0,1-.58-.43,2.12,2.12,0,0,1-.37-.68,3.44,3.44,0,0,1,0-1.8,2.12,2.12,0,0,1,.37-.68,1.57,1.57,0,0,1,.58-.43,1.86,1.86,0,0,1,.77-.15,1.66,1.66,0,0,1,1,.27,1.58,1.58,0,0,1,.55.7l-.53.27a1,1,0,0,0-.37-.5,1.15,1.15,0,0,0-.64-.17,1.28,1.28,0,0,0-.5.09.88.88,0,0,0-.36.26,1.07,1.07,0,0,0-.22.39,1.59,1.59,0,0,0-.07.5v.7a1.34,1.34,0,0,0,.29.89,1,1,0,0,0,.86.35,1.16,1.16,0,0,0,1.12-.72l.46.31a1.67,1.67,0,0,1-.59.72A1.78,1.78,0,0,1,324.77,315.4Z"/><path d="M327.26,315.3v-4.12h.64v.76h0a1.18,1.18,0,0,1,1.19-.76h.25v.64H329a1.47,1.47,0,0,0-.81.19.59.59,0,0,0-.29.49v2.8Z"/><path d="M332.74,311.18h.63l-1.85,5.08a1.86,1.86,0,0,1-.14.31.7.7,0,0,1-.18.2.62.62,0,0,1-.26.1,2,2,0,0,1-.38,0h-.33v-.56h.65l.31-.88-1.54-4.28h.64l1,2.8.19.67h0l.23-.67Z"/><path d="M334.19,311.18h.64v.66h0a1.08,1.08,0,0,1,.47-.57,1.34,1.34,0,0,1,.74-.19,1.58,1.58,0,0,1,.69.15,1.48,1.48,0,0,1,.53.43,2.07,2.07,0,0,1,.34.68,3.43,3.43,0,0,1,0,1.8,2.07,2.07,0,0,1-.34.68,1.48,1.48,0,0,1-.53.43,1.58,1.58,0,0,1-.69.15,1.24,1.24,0,0,1-1.21-.76h0v2.26h-.64Zm1.7,3.65a1.11,1.11,0,0,0,.86-.34,1.28,1.28,0,0,0,.31-.9v-.7a1.28,1.28,0,0,0-.31-.9,1.11,1.11,0,0,0-.86-.34,1.4,1.4,0,0,0-.41.06,1.07,1.07,0,0,0-.34.16.82.82,0,0,0-.23.26.58.58,0,0,0-.08.31V314a.73.73,0,0,0,.08.36.82.82,0,0,0,.23.26,1.08,1.08,0,0,0,.34.17A1.84,1.84,0,0,0,335.89,314.83Z"/><path d="M339.74,315.3a.66.66,0,0,1-.51-.18.74.74,0,0,1-.17-.5v-2.88h-.68v-.56h.38a.37.37,0,0,0,.29-.09.42.42,0,0,0,.07-.29V310h.58v1.15h.9v.56h-.9v3h.84v.56Z"/><path d="M346.07,311.18h.63l-1.85,5.08a3.33,3.33,0,0,1-.14.31.7.7,0,0,1-.18.2.62.62,0,0,1-.26.1,2,2,0,0,1-.38,0h-.33v-.56h.65l.31-.88L343,311.18h.64l1,2.8.19.67h0l.23-.67Z"/><path d="M349.07,315.4a1.91,1.91,0,0,1-.76-.15,1.57,1.57,0,0,1-.58-.44,1.88,1.88,0,0,1-.38-.68,2.72,2.72,0,0,1-.14-.89,2.81,2.81,0,0,1,.14-.89,1.88,1.88,0,0,1,.38-.68,1.57,1.57,0,0,1,.58-.44,1.91,1.91,0,0,1,.76-.15,1.87,1.87,0,0,1,.76.15,1.69,1.69,0,0,1,.59.44,2,2,0,0,1,.38.68,2.81,2.81,0,0,1,.14.89,2.72,2.72,0,0,1-.14.89,2,2,0,0,1-.38.68,1.69,1.69,0,0,1-.59.44A1.87,1.87,0,0,1,349.07,315.4Zm0-.57a1.14,1.14,0,0,0,.85-.32,1.29,1.29,0,0,0,.33-1v-.6a1.29,1.29,0,0,0-.33-1,1.28,1.28,0,0,0-1.69,0,1.29,1.29,0,0,0-.33,1v.6a1.29,1.29,0,0,0,.33,1A1.13,1.13,0,0,0,349.07,314.83Z"/><path d="M354.54,314.64h0c-.05.09-.1.19-.16.28a1.34,1.34,0,0,1-.23.25,1.28,1.28,0,0,1-.33.17,1.42,1.42,0,0,1-.44.06,1.33,1.33,0,0,1-1-.41,1.68,1.68,0,0,1-.38-1.17v-2.64h.64v2.54c0,.74.32,1.11,1,1.11a1.14,1.14,0,0,0,.37-.05,1,1,0,0,0,.32-.14.72.72,0,0,0,.22-.24.69.69,0,0,0,.09-.36v-2.86h.64v4.12h-.64Z"/><path d="M356.54,315.3v-4.12h.64v.76h0a1.18,1.18,0,0,1,1.19-.76h.25v.64h-.38a1.47,1.47,0,0,0-.81.19.59.59,0,0,0-.29.49v2.8Z"/><path d="M364,314.64h0a1.25,1.25,0,0,1-1.21.76,1.55,1.55,0,0,1-.69-.15,1.61,1.61,0,0,1-.54-.43,2.27,2.27,0,0,1-.33-.68,3.44,3.44,0,0,1,0-1.8,2.27,2.27,0,0,1,.33-.68,1.61,1.61,0,0,1,.54-.43,1.55,1.55,0,0,1,.69-.15,1.34,1.34,0,0,1,.74.19,1.12,1.12,0,0,1,.47.57h0v-2.46h.64v5.92H364Zm-1.06.19a1.84,1.84,0,0,0,.41-.05,1.2,1.2,0,0,0,.34-.17.82.82,0,0,0,.23-.26A.86.86,0,0,0,364,314v-1.55a.68.68,0,0,0-.08-.31.82.82,0,0,0-.23-.26,1.19,1.19,0,0,0-.34-.16,1.4,1.4,0,0,0-.41-.06,1.11,1.11,0,0,0-.86.34,1.28,1.28,0,0,0-.31.9v.7a1.28,1.28,0,0,0,.31.9A1.11,1.11,0,0,0,362.94,314.83Z"/><path d="M369,315.3a.6.6,0,0,1-.51-.19,1,1,0,0,1-.2-.48h0a1.06,1.06,0,0,1-.45.58,1.36,1.36,0,0,1-.74.19,1.41,1.41,0,0,1-1-.34,1.14,1.14,0,0,1-.37-.91,1,1,0,0,1,.43-.89,2.27,2.27,0,0,1,1.33-.32h.82v-.4a.91.91,0,0,0-.24-.68,1.06,1.06,0,0,0-.74-.23,1.08,1.08,0,0,0-.62.17,1.3,1.3,0,0,0-.42.45l-.39-.36a1.34,1.34,0,0,1,.54-.57,2,2,0,0,1,2.09.13,1.27,1.27,0,0,1,.42,1v2.27h.47v.56Zm-1.84-.44a1.51,1.51,0,0,0,.44-.06,1.13,1.13,0,0,0,.35-.16.83.83,0,0,0,.22-.24.61.61,0,0,0,.08-.3v-.68h-.85a1.6,1.6,0,0,0-.8.16.53.53,0,0,0-.25.47v.17a.55.55,0,0,0,.22.47A.94.94,0,0,0,367.16,314.86Z"/><path d="M371.19,315.3a.66.66,0,0,1-.51-.18.69.69,0,0,1-.17-.5v-2.88h-.68v-.56h.38a.35.35,0,0,0,.28-.09.42.42,0,0,0,.08-.29V310h.58v1.15h.9v.56h-.9v3H372v.56Z"/><path d="M376.08,315.3a.6.6,0,0,1-.51-.19,1,1,0,0,1-.2-.48h0a1.06,1.06,0,0,1-.45.58,1.36,1.36,0,0,1-.74.19,1.41,1.41,0,0,1-1-.34,1.17,1.17,0,0,1-.37-.91,1,1,0,0,1,.43-.89,2.27,2.27,0,0,1,1.33-.32h.82v-.4a.91.91,0,0,0-.24-.68,1.06,1.06,0,0,0-.74-.23,1.08,1.08,0,0,0-.62.17,1.3,1.3,0,0,0-.42.45l-.39-.36a1.34,1.34,0,0,1,.54-.57,2,2,0,0,1,2.09.13,1.27,1.27,0,0,1,.42,1v2.27h.47v.56Zm-1.84-.44a1.51,1.51,0,0,0,.44-.06,1.13,1.13,0,0,0,.35-.16.83.83,0,0,0,.22-.24.61.61,0,0,0,.08-.3v-.68h-.85a1.6,1.6,0,0,0-.8.16.53.53,0,0,0-.25.47v.17a.55.55,0,0,0,.22.47A.94.94,0,0,0,374.24,314.86Z"/><path d="M377.76,315.4a.43.43,0,0,1-.49-.46v-.11a.45.45,0,0,1,.12-.33.46.46,0,0,1,.37-.13.43.43,0,0,1,.49.46v.11a.46.46,0,0,1-.12.33A.45.45,0,0,1,377.76,315.4Z"/><text transform="translate(263.5 268.96)" font-size="8" font-family="IBMPlexSans-Bold, IBM Plex Sans" font-weight="700"><tspan xml:space="preserve">•  </tspan><tspan x="7.22" y="0" font-family="IBMPlexSans-SemiBold, IBM Plex Sans" font-weight="600">The ID of the root key</tspan><tspan x="87.12" y="0" letter-spacing="0em"> </tspan><tspan x="89.01" y="0" font-family="IBMPlexSans, IBM Plex Sans" font-weight="400">does not change after</tspan><tspan font-family="IBMPlexSans, IBM Plex Sans" font-weight="400"><tspan x="8" y="9.6">rotation.</tspan></tspan></text><text transform="translate(250 125.79)" font-size="8" font-family="IBMPlexSans-Bold, IBM Plex Sans" font-weight="700">Example metadata<tspan x="71.01" y="0" xml:space="preserve" font-family="IBMPlexSans, IBM Plex Sans" font-weight="400"> (after rotation)</tspan></text><text transform="translate(250 6.79)" font-size="8" font-family="IBMPlexSans-Bold, IBM Plex Sans" font-weight="700">Example metadata<tspan x="71.01" y="0" xml:space="preserve" font-family="IBMPlexSans, IBM Plex Sans" font-weight="400"> (before rotation)</tspan></text><text transform="translate(1 295.96)" font-size="9" font-family="IBMPlexSans, IBM Plex Sans">Only the latest<tspan x="0" y="10.8">key version</tspan><tspan x="0" y="21.6">wraps DEKs</tspan></text><text transform="translate(0 152.96)" font-size="9" font-family="IBMPlexSans, IBM Plex Sans">Each rotation<tspan x="0" y="10.8">creates a new</tspan><tspan x="0" y="21.6">key version</tspan></text><text transform="translate(104.39 293.19)" font-size="10" font-family="IBMPlexSans-Bold, IBM Plex Sans" font-weight="700">Latest version<tspan font-family="IBMPlexSans, IBM Plex Sans" font-weight="400"><tspan x="16.36" y="12">(active)</tspan></tspan></text><text transform="translate(114.98 65.19)" font-size="11" font-family="IBMPlexSans-Bold, IBM Plex Sans" font-weight="700">Root key</text></g></svg>