<?xml version="1.0" encoding="utf-8"?>
<!-- Generator: Adobe Illustrator 26.5.0, SVG Export Plug-In . SVG Version: 6.00 Build 0)  -->
<svg version="1.1" id="Layer_1" xmlns="http://www.w3.org/2000/svg" xmlns:xlink="http://www.w3.org/1999/xlink" x="0px" y="0px"
	 viewBox="0 0 1138 573" style="enable-background:new 0 0 1138 573;" xml:space="preserve">
<style type="text/css">
	.st0{fill:#FFFFFF;}
	.st1{fill:#002D9C;}
	.st2{fill:none;stroke:#FFFFFF;stroke-linecap:round;stroke-miterlimit:10;}
	.st3{fill:none;stroke:#FFFFFF;stroke-linecap:round;stroke-linejoin:round;}
	.st4{fill:none;stroke:#FFFFFF;stroke-miterlimit:10;}
	.st5{fill:#106DFF;}
	.st6{fill:none;stroke:#FFFFFF;stroke-linejoin:round;}
	.st7{fill:none;stroke:#6F6F6F;stroke-width:0.5;stroke-linejoin:round;}
	.st8{fill:#6F6F6F;}
	.st9{fill:none;stroke:#A0A0A0;stroke-linecap:round;stroke-linejoin:round;stroke-dasharray:0,4,0,4,0,4;}
	.st10{fill:#F0F0F0;}
	.st11{fill:url(#SVGID_1_);}
	.st12{fill:#001D6C;}
	.st13{fill:url(#SVGID_00000058576352187506564970000009464703354216266926_);}
	.st14{fill:url(#SVGID_00000026881209257371177950000008931640785349691800_);}
	.st15{fill:url(#SVGID_00000011012988207806193040000004757889407336652220_);}
	.st16{font-family:'IBMPlexSans-SemiBold';}
	.st17{font-size:14px;}
	.st18{font-size:16px;}
	.st19{font-family:'IBMPlexSans';}
</style>
<ellipse cx="30.8" cy="151.6" rx="30" ry="30.4"/>
<path id="id--badge" class="st0" d="M42.7,169.9H18.9c-0.2,0-0.4-0.2-0.4-0.4l0,0v-29.8c0-0.2,0.2-0.4,0.4-0.4l0,0H28v-5.5
	c0-0.2,0.2-0.4,0.4-0.4l0,0h4.8c0.2,0,0.4,0.2,0.4,0.4l0,0v5.5h9.1c0.2,0,0.4,0.2,0.4,0.4l0,0v29.8
	C43.1,169.7,42.9,169.9,42.7,169.9L42.7,169.9z M19.3,169.1h23v-28.9h-8.7v3.1c0,0.2-0.2,0.4-0.4,0.4l0,0h-4.8
	c-0.2,0-0.4-0.2-0.4-0.4l0,0v-3.1h-8.7V169.1z M28.8,142.8h3.9v-8.7h-3.9L28.8,142.8z M32,166.3h-8.3v-0.9H32V166.3z M37.9,163.9
	H23.6V163h14.3V163.9z M38.4,161.1h-0.9c-0.1-3.1-2.2-5.7-5.2-6.3c-0.2-0.1-0.4-0.3-0.3-0.5c0-0.1,0.1-0.2,0.2-0.3
	c1.8-0.8,2.6-2.9,1.8-4.6c-0.8-1.8-2.9-2.6-4.6-1.8s-2.6,2.9-1.8,4.6c0.4,0.8,1,1.4,1.8,1.8c0.2,0.1,0.3,0.3,0.2,0.6
	c-0.1,0.1-0.2,0.2-0.3,0.2c-3,0.7-5.1,3.3-5.2,6.3h-0.9c0.1-3.1,2-5.8,4.9-6.9c-1.9-1.5-2.3-4.2-0.8-6.1c1.5-1.9,4.2-2.3,6.1-0.8
	c1.9,1.5,2.3,4.2,0.8,6.1c-0.2,0.3-0.5,0.6-0.8,0.8C36.3,155.3,38.3,158,38.4,161.1L38.4,161.1z"/>
<circle class="st1" cx="30.8" cy="325.8" r="30"/>
<path class="st2" d="M8.7,323.6c1.2-12.2,12-21.1,24.2-19.9c10.4,1,18.7,9.2,19.8,19.6"/>
<path class="st2" d="M50.8,335.3c-5.3,11-18.5,15.7-29.5,10.4c-6.9-3.3-11.7-10-12.5-17.7"/>
<path class="st3" d="M28.6,327.8c-1.1,5.5-6.4,9-11.8,8c-3.9-0.8-7-3.8-7.9-7.7"/>
<path class="st3" d="M28.5,323.5c-1.3-5.4-6.7-8.8-12.1-7.5c-3.8,0.9-6.7,3.9-7.6,7.7"/>
<line class="st3" x1="30.9" y1="325.8" x2="50.6" y2="325.8"/>
<line class="st3" x1="52.9" y1="335.2" x2="52.9" y2="328.1"/>
<line class="st3" x1="44.9" y1="333.1" x2="44.9" y2="325.8"/>
<line class="st3" x1="47" y1="335.2" x2="52.9" y2="335.2"/>
<path class="st4" d="M44.9,337.2c-1.2,0-2.1-0.9-2.1-2.1s0.9-2.1,2.1-2.1c1.2,0,2.1,0.9,2.1,2.1S46,337.2,44.9,337.2L44.9,337.2z"/>
<path class="st4" d="M52.9,323.7c1.2,0,2.1,0.9,2.1,2.1s-0.9,2.1-2.1,2.1c-1.2,0-2.1-0.9-2.1-2.1C50.8,324.6,51.8,323.7,52.9,323.7
	L52.9,323.7"/>
<path class="st4" d="M28.6,323.7c0.1,0,0.1,0,0.2,0c1.1,0,2.1,0.9,2.1,2.1s-0.9,2.1-2.1,2.1s-2.1-0.9-2.1-2.1
	C26.7,324.7,27.5,323.8,28.6,323.7"/>
<path class="st4" d="M8.6,327.9c-1.2,0-2.1-0.9-2.1-2.1s0.9-2.1,2.1-2.1s2.1,0.9,2.1,2.1l0,0C10.7,326.9,9.8,327.9,8.6,327.9z"/>
<circle class="st5" cx="30.8" cy="499.9" r="30"/>
<path id="document--security" class="st6" d="M32.8,514.8H17.9V485h17.9l6,6v6.9 M35.8,485.1v6h6 M21.9,495h15.9 M21.9,499h9.9
	 M21.9,502.9h9.9 M21.9,506.9h9.9 M21.9,510.9h9.9 M34.8,500.9v7.4c0,3.6,2.9,6.4,6.4,6.5c3.6,0,6.4-2.9,6.5-6.4l0,0V501H34.8V500.9
	z"/>
<line class="st7" x1="660.6" y1="182" x2="91" y2="182"/>
<polygon class="st8" points="659.5,178.2 666,182 659.5,185.7 "/>
<line class="st7" x1="660.6" y1="355.8" x2="91" y2="355.8"/>
<polygon class="st8" points="659.5,352 666,355.8 659.5,359.5 "/>
<line class="st7" x1="660.6" y1="529.9" x2="92" y2="529.9"/>
<polygon class="st8" points="659.5,526.2 666,529.9 659.5,533.7 "/>
<line class="st9" x1="622.5" y1="121.2" x2="622.5" y2="572.6"/>
<line class="st9" x1="322.5" y1="121.2" x2="322.5" y2="572.6"/>
<polyline class="st10" points="695.7,428.1 695.7,571.7 901.7,571.7 901.7,428.1 695.7,428.1 "/>
<polyline class="st5" points="695.5,427.6 695.5,431.6 901.7,431.6 901.7,427.6 695.5,427.6 "/>
<g>
	
		<linearGradient id="SVGID_1_" gradientUnits="userSpaceOnUse" x1="616.5" y1="1100.3301" x2="642.5" y2="1126.3301" gradientTransform="matrix(1 0 0 -1 98.5 1582.9302)">
		<stop  offset="0.1" style="stop-color:#08BDBA"/>
		<stop  offset="0.9" style="stop-color:#0F62FE"/>
	</linearGradient>
	<path class="st11" d="M715,456.6h26v26h-26V456.6z"/>
</g>
<path class="st12" d="M731.4,469.5c0-0.6-0.2-1.1-0.5-1.6l2.7-2.7l-1.1-1.1l-2.7,2.7c-1-0.6-2.3-0.6-3.3,0l-2.7-2.7l-1.1,1.1
	l2.7,2.7c-0.6,1-0.6,2.3,0,3.3l-2.7,2.7l1.1,1.1l2.7-2.7c1,0.6,2.3,0.6,3.3,0l2.7,2.7l1.1-1.1l-2.7-2.7
	C731.3,470.7,731.4,470.1,731.4,469.5z M728.2,471.2c-0.9,0-1.6-0.7-1.6-1.6s0.7-1.6,1.6-1.6s1.6,0.7,1.6,1.6l0,0
	C729.8,470.4,729.1,471.2,728.2,471.2L728.2,471.2z"/>
<polyline class="st10" points="695.5,254.5 695.5,398.1 901.5,398.1 901.5,254.5 695.5,254.5 "/>
<polyline class="st1" points="696,253.5 696,257.5 902,257.5 902,253.5 696,253.5 "/>
<g>
	
		<linearGradient id="SVGID_00000141456502348727825010000003507337200545491111_" gradientUnits="userSpaceOnUse" x1="716" y1="339.6" x2="740" y2="315.6" gradientTransform="matrix(1 0 0 1 0 -38)">
		<stop  offset="0.1" style="stop-color:#A56EFF"/>
		<stop  offset="0.9" style="stop-color:#0F62FE"/>
	</linearGradient>
	<rect x="716" y="277.6" style="fill:url(#SVGID_00000141456502348727825010000003507337200545491111_);" width="24" height="24"/>
</g>
<path class="st12" d="M735.5,288.2v-9.1h-3.8v1.5h2.2v1.5h-2.2v1.5h2.2v4.6c-1.6,0.4-2.6,2.1-2.2,3.7c0.4,1.6,2.1,2.6,3.7,2.2
	s2.6-2.1,2.2-3.7C737.4,289.3,736.6,288.4,735.5,288.2z M734.8,292.6c-0.8,0-1.5-0.7-1.5-1.5s0.7-1.5,1.5-1.5s1.5,0.7,1.5,1.5
	S735.6,292.6,734.8,292.6z"/>
<polyline class="st10" points="931,254.5 931,398.2 1137,398.2 1137,254.5 931,254.5 "/>
<polyline class="st1" points="931,253.5 931,257.6 1137,257.6 1137,253.5 931,253.5 "/>
<g>
	
		<linearGradient id="SVGID_00000005977326435516537610000012782364250435013271_" gradientUnits="userSpaceOnUse" x1="938" y1="751.3301" x2="963" y2="776.3301" gradientTransform="matrix(1 0 0 -1 13 1053.9302)">
		<stop  offset="0.1" style="stop-color:#0F62FE"/>
		<stop  offset="0.9" style="stop-color:#1192E8"/>
	</linearGradient>
	<path style="fill:url(#SVGID_00000005977326435516537610000012782364250435013271_);" d="M951,277.6h25v25h-25V277.6z"/>
</g>
<path class="st12" d="M970.5,301l-1.7-0.8c-1.4-0.6-2.2-2-2.2-3.5v-5.1h7.8v5.1c0,1.5-0.9,2.9-2.2,3.5L970.5,301z M968.2,293.2v3.5
	c0,0.9,0.5,1.7,1.3,2.1l1,0.5l1-0.5c0.8-0.4,1.3-1.2,1.3-2.1v-3.5H968.2z"/>
<polyline class="st10" points="696,80 696,223.6 902,223.6 902,80 696,80 "/>
<g>
	
		<linearGradient id="SVGID_00000011743348185552099080000001578114344145061823_" gradientUnits="userSpaceOnUse" x1="614.5" y1="1450.3301" x2="640.5" y2="1476.3301" gradientTransform="matrix(1 0 0 -1 98.5 1582.9302)">
		<stop  offset="0.1" style="stop-color:#08BDBA"/>
		<stop  offset="0.9" style="stop-color:#0F62FE"/>
	</linearGradient>
	<path style="fill:url(#SVGID_00000011743348185552099080000001578114344145061823_);" d="M713,106.6h26v26h-26V106.6z"/>
</g>
<path class="st12" d="M729.4,119.5c0-0.6-0.2-1.1-0.5-1.6l2.7-2.7l-1.1-1.1l-2.7,2.7c-1-0.6-2.3-0.6-3.3,0l-2.7-2.7l-1.1,1.1
	l2.7,2.7c-0.6,1-0.6,2.3,0,3.3l-2.7,2.7l1.1,1.1l2.7-2.7c1,0.6,2.3,0.6,3.3,0l2.7,2.7l1.1-1.1l-2.7-2.7
	C729.3,120.7,729.4,120.1,729.4,119.5z M726.2,121.2c-0.9,0-1.6-0.7-1.6-1.6s0.7-1.6,1.6-1.6s1.6,0.7,1.6,1.6l0,0
	C727.8,120.4,727.1,121.2,726.2,121.2L726.2,121.2z"/>
<polyline points="695.8,79.6 695.8,83.6 902,83.6 902,79.6 695.8,79.6 "/>
<text transform="matrix(1 0 0 1 717.682 163.8248)" class="st16 st17">Secrets Manager</text>
<path d="M960,328.2h-4.1v4.1h-1.8v-9.8h1.8v4h4.1v-4h1.8v9.8H960V328.2z"/>
<path d="M968.5,325h1.7l-2.9,8.6c-0.1,0.2-0.2,0.5-0.3,0.7s-0.2,0.3-0.4,0.5c-0.2,0.1-0.4,0.2-0.6,0.3c-0.3,0.1-0.5,0.1-0.8,0.1
	h-1.1v-1.4h1.3l0.3-1l-2.6-7.6h1.8l1.3,3.9l0.5,1.8h0.1l0.5-1.8L968.5,325z"/>
<path d="M971.3,325h1.8v1.2h0.1c0.1-0.4,0.4-0.8,0.7-1c0.4-0.3,0.8-0.4,1.3-0.4c0.8,0,1.6,0.3,2.1,1c0.5,0.8,0.8,1.8,0.7,2.8
	c0.1,1-0.2,2-0.7,2.8c-0.5,0.7-1.3,1-2.1,1c-0.5,0-0.9-0.1-1.3-0.4c-0.4-0.2-0.6-0.6-0.7-1h-0.1v4h-1.8V325z M974.6,331
	c0.4,0,0.8-0.2,1.1-0.5s0.5-0.8,0.4-1.2V328c0-0.5-0.1-0.9-0.4-1.3c-0.3-0.3-0.7-0.5-1.1-0.5c-0.4,0-0.8,0.1-1.1,0.3
	c-0.3,0.2-0.4,0.5-0.4,0.9v2.3c0,0.3,0.1,0.7,0.4,0.9C973.9,330.9,974.3,331,974.6,331z"/>
<path d="M982.7,332.5c-0.5,0-1-0.1-1.4-0.3c-0.4-0.2-0.8-0.4-1.1-0.8s-0.5-0.8-0.7-1.2c-0.2-0.5-0.2-1-0.2-1.6
	c0-0.5,0.1-1.1,0.2-1.6c0.1-0.4,0.4-0.8,0.7-1.2c0.3-0.3,0.7-0.6,1.1-0.8c0.5-0.2,0.9-0.3,1.4-0.3s1,0.1,1.5,0.3
	c0.4,0.2,0.8,0.5,1,0.8c0.3,0.3,0.5,0.7,0.6,1.2s0.2,0.9,0.2,1.4v0.6h-4.9v0.2c0,0.5,0.1,0.9,0.4,1.3c0.4,0.3,0.8,0.5,1.3,0.5
	c0.4,0,0.8-0.1,1.1-0.3c0.3-0.2,0.5-0.4,0.8-0.7l1,1.1c-0.3,0.4-0.7,0.8-1.2,1C983.9,332.3,983.3,332.5,982.7,332.5z M982.7,326.2
	c-0.4,0-0.8,0.2-1.1,0.5s-0.4,0.8-0.4,1.2v0.1h3v-0.1c0-0.4-0.1-0.9-0.4-1.2C983.5,326.3,983.1,326.1,982.7,326.2L982.7,326.2z"/>
<path d="M987.6,332.3V325h1.8v1.5h0.1c0-0.2,0.1-0.4,0.2-0.6c0.1-0.2,0.2-0.3,0.4-0.5c0.2-0.1,0.4-0.3,0.6-0.3
	c0.2-0.1,0.5-0.1,0.8-0.1h0.4v1.7h-0.6c-0.5,0-0.9,0.1-1.4,0.3c-0.3,0.2-0.5,0.5-0.5,0.9v4.5h-1.8V332.3z"/>
<path d="M996.5,332.3v-9.8h4.4c0.4,0,0.8,0.1,1.2,0.2c0.3,0.1,0.7,0.3,0.9,0.6c0.3,0.3,0.5,0.6,0.6,1c0.3,0.8,0.3,1.7,0,2.5
	c-0.1,0.4-0.3,0.7-0.6,1s-0.6,0.5-0.9,0.6c-0.4,0.1-0.8,0.2-1.2,0.2h-2.5v3.7L996.5,332.3L996.5,332.3z M998.3,327h2.4
	c0.3,0,0.6-0.1,0.8-0.3c0.2-0.2,0.3-0.5,0.3-0.8v-0.6c0-0.3-0.1-0.6-0.3-0.8c-0.2-0.2-0.5-0.3-0.8-0.3h-2.4V327z"/>
<path d="M1005.3,332.3V325h1.8v1.5h0.1c0-0.2,0.1-0.4,0.2-0.6c0.1-0.2,0.2-0.3,0.4-0.5c0.2-0.1,0.4-0.3,0.6-0.3
	c0.2-0.1,0.5-0.1,0.8-0.1h0.4v1.7h-0.6c-0.5,0-0.9,0.1-1.4,0.3c-0.3,0.2-0.5,0.5-0.5,0.9v4.5h-1.8V332.3z"/>
<path d="M1013.7,332.5c-0.5,0-1-0.1-1.4-0.3c-0.4-0.2-0.8-0.4-1.1-0.8s-0.5-0.8-0.7-1.2c-0.2-0.5-0.2-1-0.2-1.6
	c0-0.5,0.1-1.1,0.2-1.6c0.1-0.4,0.4-0.8,0.7-1.2c0.3-0.3,0.7-0.6,1.1-0.8c0.4-0.2,0.9-0.3,1.4-0.3s1,0.1,1.4,0.3
	c0.4,0.2,0.8,0.4,1.1,0.8c0.3,0.3,0.5,0.8,0.7,1.2c0.2,0.5,0.2,1,0.2,1.6c0,0.5-0.1,1.1-0.2,1.6c-0.1,0.4-0.4,0.9-0.7,1.2
	c-0.3,0.3-0.7,0.6-1.1,0.8C1014.7,332.4,1014.2,332.5,1013.7,332.5z M1013.7,331c0.4,0,0.8-0.1,1.1-0.4c0.3-0.4,0.4-0.8,0.4-1.3
	v-1.4c0-0.5-0.1-0.9-0.4-1.3c-0.3-0.3-0.7-0.5-1.1-0.4c-0.4,0-0.8,0.1-1.1,0.4c-0.3,0.4-0.4,0.8-0.4,1.3v1.4c0,0.5,0.1,0.9,0.4,1.3
	C1012.9,330.9,1013.3,331,1013.7,331z"/>
<path d="M1021,332.3c-0.5,0-1-0.1-1.4-0.5c-0.3-0.4-0.5-0.9-0.5-1.4v-4h-1.1V325h0.6c0.2,0,0.4,0,0.6-0.2c0.1-0.2,0.2-0.4,0.1-0.6
	V323h1.6v2h1.5v1.4h-1.5v4.4h1.4v1.4h-1.3V332.3z"/>
<path d="M1026.9,332.5c-0.5,0-1-0.1-1.4-0.3c-0.4-0.2-0.8-0.4-1.1-0.8c-0.3-0.4-0.5-0.8-0.7-1.2c-0.2-0.5-0.2-1-0.2-1.6
	c0-0.5,0.1-1.1,0.2-1.6c0.1-0.4,0.4-0.8,0.7-1.2c0.3-0.3,0.7-0.6,1.1-0.8c0.5-0.2,0.9-0.3,1.4-0.3s1,0.1,1.5,0.3
	c0.4,0.2,0.8,0.5,1,0.8c0.3,0.3,0.5,0.7,0.6,1.2s0.2,0.9,0.2,1.4v0.6h-4.9v0.2c0,0.5,0.1,0.9,0.4,1.3c0.4,0.3,0.8,0.5,1.3,0.5
	c0.4,0,0.8-0.1,1.1-0.3c0.3-0.2,0.5-0.4,0.8-0.7l1,1.1c-0.3,0.4-0.7,0.8-1.2,1C1028.1,332.3,1027.5,332.5,1026.9,332.5z
	 M1026.9,326.2c-0.4,0-0.8,0.2-1.1,0.5c-0.3,0.3-0.4,0.8-0.4,1.2v0.1h3v-0.1c0-0.4-0.1-0.9-0.4-1.2
	C1027.7,326.3,1027.3,326.1,1026.9,326.2L1026.9,326.2z"/>
<path d="M1034.7,332.5c-0.5,0-1-0.1-1.4-0.3c-0.4-0.2-0.8-0.4-1.1-0.8c-0.3-0.4-0.5-0.8-0.7-1.2c-0.2-0.5-0.2-1.1-0.2-1.6
	s0.1-1.1,0.2-1.6c0.1-0.4,0.4-0.8,0.7-1.2c0.3-0.3,0.7-0.6,1.1-0.8c0.5-0.2,0.9-0.3,1.4-0.3c0.6,0,1.3,0.1,1.8,0.5
	c0.5,0.3,0.8,0.8,1,1.4l-1.5,0.7c-0.1-0.3-0.2-0.6-0.5-0.8c-0.3-0.2-0.6-0.3-0.9-0.3c-0.4,0-0.8,0.1-1.1,0.5
	c-0.3,0.4-0.4,0.8-0.4,1.2v1.3c0,0.4,0.1,0.9,0.4,1.2c0.3,0.3,0.7,0.5,1.1,0.5s0.7-0.1,1-0.3c0.2-0.2,0.4-0.5,0.5-0.8l1.4,0.7
	c-0.2,0.6-0.6,1.1-1.1,1.4C1035.9,332.3,1035.3,332.5,1034.7,332.5z"/>
<path d="M1041.2,332.3c-0.5,0-1-0.1-1.4-0.5c-0.3-0.4-0.5-0.9-0.5-1.4v-4h-1.1V325h0.6c0.2,0,0.4,0,0.6-0.2c0.1-0.2,0.2-0.4,0.1-0.6
	V323h1.6v2h1.5v1.4h-1.5v4.4h1.4v1.4h-1.3V332.3z"/>
<path d="M957.8,349.3c-0.6,0-1.2-0.1-1.7-0.3c-0.5-0.2-1-0.5-1.3-0.9c-0.4-0.5-0.7-1-0.8-1.6c-0.2-0.7-0.3-1.4-0.3-2.2
	c0-0.7,0.1-1.5,0.3-2.2c0.2-0.6,0.5-1.1,0.8-1.6c0.4-0.4,0.8-0.8,1.3-1c0.6-0.2,1.1-0.3,1.7-0.3c0.8,0,1.5,0.2,2.2,0.6
	c0.6,0.4,1.1,1,1.4,1.7l-1.6,0.8c-0.1-0.4-0.4-0.8-0.7-1.1c-0.4-0.3-0.8-0.4-1.3-0.4c-0.6,0-1.2,0.2-1.6,0.7c-0.4,0.6-0.7,1.3-0.6,2
	v1.5c0,0.7,0.2,1.4,0.6,2c0.4,0.5,1,0.7,1.6,0.7c0.5,0,1-0.1,1.4-0.4c0.3-0.3,0.6-0.7,0.8-1.1l1.5,0.9c-0.3,0.7-0.8,1.3-1.4,1.7
	C959.4,349.1,958.6,349.3,957.8,349.3z"/>
<path d="M962.9,349.1v-7.3h1.8v1.5h0.1c0-0.2,0.1-0.4,0.2-0.6c0.1-0.2,0.2-0.3,0.4-0.5c0.2-0.1,0.4-0.3,0.6-0.3
	c0.2-0.1,0.5-0.1,0.8-0.1h0.4v1.7h-0.6c-0.5,0-0.9,0.1-1.4,0.3c-0.3,0.2-0.5,0.5-0.5,0.9v4.5h-1.8V349.1z"/>
<path d="M972.9,341.8h1.7l-2.9,8.6c-0.1,0.2-0.2,0.5-0.3,0.7s-0.2,0.3-0.4,0.5c-0.2,0.1-0.4,0.2-0.6,0.3c-0.3,0.1-0.5,0.1-0.8,0.1
	h-1.1v-1.4h1.3l0.3-1l-2.6-7.6h1.8l1.3,3.9l0.5,1.8h0.1l0.5-1.8L972.9,341.8z"/>
<path d="M975.8,341.8h1.8v1.2h0.1c0.1-0.4,0.4-0.8,0.7-1c0.4-0.3,0.8-0.4,1.3-0.4c0.8,0,1.6,0.3,2.1,1c0.5,0.8,0.8,1.8,0.7,2.8
	c0.1,1-0.2,2-0.7,2.8c-0.5,0.7-1.3,1-2.1,1c-0.5,0-0.9-0.1-1.3-0.4c-0.4-0.2-0.6-0.6-0.7-1h-0.1v4h-1.8V341.8z M979.1,347.8
	c0.4,0,0.8-0.2,1.1-0.5s0.5-0.8,0.4-1.2v-1.3c0-0.5-0.1-0.9-0.4-1.3c-0.3-0.3-0.7-0.5-1.1-0.5c-0.4,0-0.8,0.1-1.1,0.3
	c-0.3,0.2-0.4,0.5-0.4,0.9v2.3c0,0.3,0.1,0.7,0.4,0.9C978.3,347.7,978.7,347.8,979.1,347.8L979.1,347.8z"/>
<path d="M986.4,349.1c-0.5,0-1-0.1-1.4-0.5c-0.3-0.4-0.5-0.9-0.5-1.4v-4h-1.1v-1.4h0.6c0.2,0,0.4,0,0.6-0.2c0.1-0.2,0.2-0.4,0.1-0.6
	v-1.2h1.6v2h1.5v1.4h-1.5v4.4h1.4v1.4L986.4,349.1z"/>
<path d="M992.3,349.3c-0.5,0-1-0.1-1.4-0.3c-0.4-0.2-0.8-0.4-1.1-0.8s-0.5-0.8-0.7-1.2c-0.2-0.5-0.2-1-0.2-1.6
	c0-0.5,0.1-1.1,0.2-1.6c0.1-0.4,0.4-0.8,0.7-1.2c0.3-0.3,0.7-0.6,1.1-0.8c0.4-0.2,0.9-0.3,1.4-0.3s1,0.1,1.4,0.3
	c0.4,0.2,0.8,0.4,1.1,0.8c0.3,0.3,0.5,0.8,0.7,1.2c0.2,0.5,0.2,1,0.2,1.6c0,0.5-0.1,1.1-0.2,1.6c-0.1,0.4-0.4,0.9-0.7,1.2
	c-0.3,0.3-0.7,0.6-1.1,0.8C993.3,349.2,992.8,349.3,992.3,349.3z M992.3,347.8c0.4,0,0.8-0.1,1.1-0.4c0.3-0.4,0.4-0.8,0.4-1.3v-1.4
	c0-0.5-0.1-0.9-0.4-1.3c-0.3-0.3-0.7-0.5-1.1-0.4c-0.4,0-0.8,0.1-1.1,0.4c-0.3,0.4-0.4,0.8-0.4,1.3v1.4c0,0.5,0.1,0.9,0.4,1.3
	C991.5,347.7,991.9,347.8,992.3,347.8z"/>
<path d="M1003.7,349.3c-0.7,0-1.5-0.1-2.1-0.4s-1.1-0.7-1.5-1.2l1.2-1.2c0.3,0.4,0.7,0.7,1.1,0.9c0.4,0.2,0.9,0.3,1.4,0.3
	s0.9-0.1,1.3-0.4c0.3-0.2,0.5-0.6,0.4-1c0-0.3-0.1-0.6-0.3-0.8c-0.3-0.3-0.7-0.4-1-0.4l-0.9-0.1c-2-0.3-2.9-1.3-2.9-2.8
	c0-0.4,0.1-0.8,0.2-1.2c0.2-0.4,0.4-0.7,0.7-0.9c0.3-0.3,0.7-0.5,1.1-0.6c0.5-0.1,1-0.2,1.5-0.2c0.7,0,1.3,0.1,1.9,0.4
	c0.6,0.2,1,0.6,1.4,1.1l-1.3,1.2c-0.2-0.3-0.5-0.5-0.9-0.7s-0.9-0.3-1.3-0.3c-0.4,0-0.8,0.1-1.2,0.3c-0.3,0.2-0.4,0.5-0.4,0.8
	s0.1,0.6,0.3,0.8c0.3,0.2,0.7,0.3,1,0.4l0.9,0.2c0.8,0.1,1.6,0.4,2.2,0.9c0.5,0.5,0.7,1.2,0.7,1.9c0,0.4-0.1,0.9-0.2,1.3
	c-0.2,0.4-0.4,0.7-0.7,1s-0.7,0.5-1.1,0.6C1004.8,349.2,1004.3,349.3,1003.7,349.3z"/>
<path d="M1012.1,349.3c-0.5,0-1-0.1-1.4-0.3c-0.4-0.2-0.8-0.4-1.1-0.8s-0.5-0.8-0.7-1.2c-0.2-0.5-0.2-1-0.2-1.6
	c0-0.5,0.1-1.1,0.2-1.6c0.1-0.4,0.4-0.8,0.7-1.2c0.3-0.3,0.7-0.6,1.1-0.8c0.5-0.2,0.9-0.3,1.4-0.3s1,0.1,1.5,0.3
	c0.4,0.2,0.8,0.5,1,0.8c0.3,0.3,0.5,0.7,0.6,1.2s0.2,0.9,0.2,1.4v0.6h-4.9v0.2c0,0.5,0.1,0.9,0.4,1.3c0.4,0.3,0.8,0.5,1.3,0.5
	c0.4,0,0.8-0.1,1.1-0.3c0.3-0.2,0.5-0.4,0.8-0.7l1,1.1c-0.3,0.4-0.7,0.8-1.2,1C1013.3,349.1,1012.7,349.3,1012.1,349.3z M1012.1,343
	c-0.4,0-0.8,0.2-1.1,0.5s-0.4,0.8-0.4,1.2v0.1h3v-0.1c0-0.4-0.1-0.9-0.4-1.2C1012.9,343.1,1012.5,342.9,1012.1,343L1012.1,343z"/>
<path d="M1017,349.1v-7.3h1.8v1.5h0.1c0-0.2,0.1-0.4,0.2-0.6c0.1-0.2,0.2-0.3,0.4-0.5c0.2-0.1,0.4-0.3,0.6-0.3
	c0.2-0.1,0.5-0.1,0.8-0.1h0.4v1.7h-0.6c-0.5,0-0.9,0.1-1.4,0.3c-0.3,0.2-0.5,0.5-0.5,0.9v4.5h-1.8V349.1z"/>
<path d="M1024,349.1l-2.4-7.3h1.8l1,3.1l0.7,2.6h0.1l0.7-2.6l1-3.1h1.7l-2.4,7.3H1024z"/>
<path d="M1030.7,340.7c-0.3,0-0.6-0.1-0.8-0.3c-0.2-0.2-0.3-0.4-0.2-0.6v-0.3c0-0.2,0.1-0.5,0.2-0.6c0.5-0.3,1.1-0.3,1.6,0
	c0.2,0.2,0.3,0.4,0.3,0.6v0.3c0,0.2-0.1,0.5-0.3,0.6C1031.3,340.6,1031,340.7,1030.7,340.7z M1029.8,341.8h1.8v7.3h-1.8V341.8z"/>
<path d="M1036.5,349.3c-0.5,0-1-0.1-1.4-0.3c-0.4-0.2-0.8-0.4-1.1-0.8c-0.3-0.4-0.5-0.8-0.7-1.2c-0.2-0.5-0.2-1.1-0.2-1.6
	s0.1-1.1,0.2-1.6c0.1-0.4,0.4-0.8,0.7-1.2c0.3-0.3,0.7-0.6,1.1-0.8c0.5-0.2,0.9-0.3,1.4-0.3c0.6,0,1.3,0.1,1.8,0.5
	c0.5,0.3,0.8,0.8,1,1.4l-1.5,0.7c-0.1-0.3-0.2-0.6-0.5-0.8c-0.3-0.2-0.6-0.3-0.9-0.3c-0.4,0-0.8,0.1-1.1,0.5
	c-0.3,0.4-0.4,0.8-0.4,1.2v1.3c0,0.4,0.1,0.9,0.4,1.2c0.3,0.3,0.7,0.5,1.1,0.5s0.7-0.1,1-0.3c0.2-0.2,0.4-0.5,0.5-0.8l1.4,0.7
	c-0.2,0.6-0.6,1.1-1.1,1.4C1037.8,349.1,1037.2,349.3,1036.5,349.3z"/>
<path d="M1043.8,349.3c-0.5,0-1-0.1-1.4-0.3c-0.4-0.2-0.8-0.4-1.1-0.8c-0.3-0.4-0.5-0.8-0.7-1.2c-0.2-0.5-0.2-1-0.2-1.6
	c0-0.5,0.1-1.1,0.2-1.6c0.1-0.4,0.4-0.8,0.7-1.2c0.3-0.3,0.7-0.6,1.1-0.8c0.5-0.2,0.9-0.3,1.4-0.3s1,0.1,1.5,0.3
	c0.4,0.2,0.8,0.5,1,0.8c0.3,0.3,0.5,0.7,0.6,1.2s0.2,0.9,0.2,1.4v0.6h-4.9v0.2c0,0.5,0.1,0.9,0.4,1.3c0.4,0.3,0.8,0.5,1.3,0.5
	c0.4,0,0.8-0.1,1.1-0.3c0.3-0.2,0.5-0.4,0.8-0.7l1,1.1c-0.3,0.4-0.7,0.8-1.2,1C1045,349.1,1044.4,349.3,1043.8,349.3z M1043.8,343
	c-0.4,0-0.8,0.2-1.1,0.5c-0.3,0.3-0.4,0.8-0.4,1.2v0.1h3v-0.1c0-0.4-0.1-0.9-0.4-1.2C1044.6,343.1,1044.2,342.9,1043.8,343
	L1043.8,343z"/>
<path d="M1051,349.3c-0.6,0-1.2-0.1-1.8-0.4c-0.5-0.2-0.9-0.6-1.3-1l1.1-1.1c0.3,0.3,0.6,0.5,0.9,0.7s0.7,0.3,1.1,0.3
	c0.3,0,0.7-0.1,0.9-0.2c0.2-0.1,0.3-0.4,0.3-0.6s-0.1-0.4-0.2-0.5c-0.2-0.2-0.4-0.2-0.7-0.3l-0.7-0.1c-0.7,0-1.3-0.3-1.8-0.7
	c-0.4-0.4-0.7-1-0.6-1.5c0-0.3,0.1-0.7,0.2-1s0.3-0.5,0.6-0.7c0.3-0.2,0.6-0.4,0.9-0.5c0.4-0.1,0.8-0.2,1.1-0.2c0.3,0,0.6,0,0.9,0.1
	c0.3,0,0.5,0.1,0.7,0.2s0.4,0.2,0.6,0.4c0.2,0.1,0.4,0.3,0.5,0.5l-1.1,1c-0.2-0.2-0.5-0.4-0.8-0.6s-0.6-0.2-1-0.2
	c-0.3,0-0.6,0-0.8,0.2c-0.2,0.1-0.3,0.3-0.3,0.5s0.1,0.4,0.2,0.6c0.2,0.2,0.5,0.2,0.7,0.3l0.7,0.1c1.6,0.2,2.4,0.9,2.4,2.2
	c0,0.3-0.1,0.7-0.2,1s-0.4,0.6-0.6,0.8c-0.3,0.2-0.6,0.4-0.9,0.5C1051.9,349.2,1051.5,349.3,1051,349.3z"/>
<text transform="matrix(1 0 0 1 717.9422 332.2381)" class="st16 st17">Key Protect</text>
<text transform="matrix(1 0 0 1 717.3763 511.8821)" class="st16 st17">Secrets Manager</text>
<text transform="matrix(1 0 0 1 622.4999 38.6025)" class="st16 st18">I can use...</text>
<text transform="matrix(1 0 0 1 368.5681 504.1095)" class="st19 st17">secure data in transit</text>
<text transform="matrix(1 0 0 1 367.1679 329.9346)" class="st19 st17">encrypt data at rest</text>
<text transform="matrix(1 0 0 1 366.3675 155.7595)" class="st19 st17">access resources</text>
<text transform="matrix(1 0 0 1 322.5002 37.7944)" class="st16 st18">so that I can...</text>
<text transform="matrix(1 0 0 1 92.5681 504.1095)" class="st19 st17">SSL / TLS certificates</text>
<text transform="matrix(1 0 0 1 91.1679 329.9346)" class="st19 st17">symmetric keys</text>
<text transform="matrix(1 0 0 1 90.3675 155.7595)" class="st19 st17">secrets and credentials</text>
<text transform="matrix(1 0 0 1 40.3675 38.2201)" class="st16 st18">If I want to manage...</text>
</svg>
