<svg xmlns="http://www.w3.org/2000/svg" viewBox="0 0 920 400"><defs><clipPath id="a"><path fill="none" d="M643.02 169.6h50v23.26h-50z"/></clipPath><clipPath id="b"><path fill="none" d="M498.46 158.74h46.3v45h-46.3z"/></clipPath><clipPath id="c"><path fill="none" d="M203.81 169.61h50v23.26h-50z"/></clipPath><clipPath id="d"><path fill="none" d="M204.39 170.12h48.07v21.71h-48.07z"/></clipPath></defs><g data-name="Visual elements"><path fill="none" stroke="#1b5cab" stroke-miterlimit="10" stroke-width="2" d="M585.22 182.36h40.67"/><path fill="#1b5cab" d="M587.12 188.84l-11.23-6.48 11.23-6.48v12.96z"/><path fill="none" stroke="#1b5cab" stroke-miterlimit="10" stroke-width="2" d="M731 182.36h40.67"/><path fill="#1b5cab" d="M732.9 188.84l-11.23-6.48 11.23-6.48v12.96z"/><path fill="none" stroke="#1b5cab" stroke-miterlimit="10" stroke-width="2" d="M270.19 182.36h40.67"/><path fill="#1b5cab" d="M308.96 188.84l11.23-6.48-11.23-6.48v12.96z"/><path fill="none" stroke="#1b5cab" stroke-miterlimit="10" stroke-width="2" d="M416.28 182.36h40.67"/><path fill="#1b5cab" d="M455.06 188.84l11.22-6.48-11.22-6.48v12.96z"/><path fill="none" stroke="#1b5cab" stroke-linecap="round" stroke-miterlimit="10" stroke-width="4" d="M134.51 182.36"/><path fill="none" stroke="#1b5cab" stroke-linecap="round" stroke-miterlimit="10" stroke-width="4" stroke-dasharray="0 13.33" d="M147.84 182.36h20"/><path fill="none" stroke="#1b5cab" stroke-linecap="round" stroke-miterlimit="10" stroke-width="4" d="M174.51 182.36"/><g data-name="&lt;Group&gt;"><path fill="none" stroke="#7f50a0" stroke-miterlimit="10" stroke-width="2" d="M373.17 305.31v.5"/><path fill="none" stroke="#7f50a0" stroke-miterlimit="10" stroke-width="2" stroke-dasharray="1 1" d="M373.17 306.81v49.47"/><path fill="none" stroke="#7f50a0" stroke-miterlimit="10" stroke-width="2" d="M373.17 356.78v.5h-.22.5"/><path fill="none" stroke="#7f50a0" stroke-miterlimit="10" stroke-width="2" stroke-dasharray="1.01 1.01" d="M374.45 357.28H522.8"/><path fill="none" stroke="#7f50a0" stroke-miterlimit="10" stroke-width="2" d="M523.3 357.28h.5v-.5"/><path fill="none" stroke="#7f50a0" stroke-miterlimit="10" stroke-width="2" stroke-dasharray="0.98 0.98" d="M523.8 355.8v-50.72"/><path fill="none" stroke="#7f50a0" stroke-miterlimit="10" stroke-width="2" d="M523.8 304.59v-.5"/><path fill="#7f50a0" d="M366.69 307.21l6.48-11.23 6.48 11.23h-12.96z"/></g><path data-name="&lt;Path&gt;" fill="#7f50a0" d="M523.8 338.97l6.5-12.34h-13l6.5 12.34zM424.45 356.9l13 6.85v-13.69l-13 6.84z"/><g data-name="&lt;Group&gt;"><circle data-name="&lt;Path&gt;" cx="82.41" cy="181.15" r="43.53" fill="#eaeaea"/></g><g data-name="&lt;Group&gt;"><circle data-name="&lt;Path&gt;" cx="375.21" cy="181.15" r="43.53" fill="#eaeaea"/></g><g data-name="&lt;Group&gt;"><circle data-name="&lt;Path&gt;" cx="814.42" cy="181.15" r="43.53" fill="#eaeaea"/></g><g data-name="&lt;Group&gt;"><circle data-name="&lt;Path&gt;" cx="228.81" cy="181.24" r="43.53" fill="#eaeaea"/></g><g data-name="&lt;Group&gt;"><circle data-name="&lt;Path&gt;" cx="668.02" cy="181.24" r="43.53" fill="#eaeaea"/></g><g data-name="&lt;Group&gt;"><circle data-name="&lt;Path&gt;" cx="521.61" cy="181.24" r="43.53" fill="#eaeaea"/></g><circle cx="262" cy="209" r="6" fill="#fff"/><path d="M262 199a10 10 0 1 0 10 10 10 10 0 0 0-10-10zm4.52 10.88h-3.64v3.64h-1.82v-3.64h-3.64v-1.82h3.64v-3.64h1.82v3.64h3.64z" fill="#6d297c"/><g data-name="&lt;Group&gt;"><g data-name="&lt;Rectangle&gt;"><path fill="#c8dcf2" d="M790.1 177.8h48.5v12.79h-48.5z"/><path d="M837.85 178.55v11.29h-47v-11.29h47m1.5-1.5h-50v14.29h50v-14.29z" fill="#344fa2"/></g><g data-name="&lt;Group&gt;" fill="#344fa2"><path data-name="&lt;Rectangle&gt;" d="M812.09 182.95h21.52v2.9h-21.52z"/><circle data-name="&lt;Path&gt;" cx="806.8" cy="184.39" r="1.71"/><circle data-name="&lt;Path&gt;" cx="801.42" cy="184.39" r="1.71"/><circle data-name="&lt;Path&gt;" cx="796.03" cy="184.39" r="1.71"/></g><path fill="#77a0d4" d="M790.57 176.3l2.73-5.4h41.53l3.2 5.4h-47.46z"/><path d="M834.4 171.65l2.31 3.91h-44.92l2-3.91h40.61m.85-1.5h-42.41l-3.49 6.91h50l-4.09-6.91z" fill="#344fa2"/></g><g clip-path="url(#a)" data-name="Artwork 40"><path d="M687 176.33h-22.76a10.86 10.86 0 1 0 0 9.3H670v-.78h2.33v.78H687l4.65-4.65z" fill="#fae9ab"/><path d="M687.53 175.75h-22.64a11.64 11.64 0 1 0 0 11h4.36l1.83-1.83 1.83 1.83h14.62l5.48-5.48zm-.54 9.67h-13.54L672 184l-.91-.91-.91.91-1.45 1.45h-4.61l-.36.68a10.34 10.34 0 1 1 0-9.75l.37.68H687l4.19 4.19z" fill="#c2a02e"/><path d="M652.7 179.39a2.58 2.58 0 1 1-3.66 0 2.58 2.58 0 0 1 3.66 0M674.63 180.57h10.97v1.29h-10.97z" fill="#c2a02e"/></g><g clip-path="url(#b)" data-name="Artwork 32"><path d="M536.32 188.55a3 3 0 0 1-2.25.89 9 9 0 0 1-2.39-.33 22.4 22.4 0 0 1-4.42-1.77 44.65 44.65 0 0 1-7.81-5.38 31.71 31.71 0 0 1-6.54-7 18.27 18.27 0 0 1-2.07-4.44 12 12 0 0 1-.29-1.23 7.7 7.7 0 0 1-.08-1.29 4.51 4.51 0 0 1 .23-1.3q.16-.31.31-.59c.16-.17.32-.32.47-.46l.19.18a2.61 2.61 0 0 0 0 2 9.4 9.4 0 0 0 .88 2 31.76 31.76 0 0 0 2.51 3.64 85 85 0 0 0 5.82 6.92 42.94 42.94 0 0 0 7.05 5.78 21.39 21.39 0 0 0 4 2.13 8.5 8.5 0 0 0 2.17.54 2.58 2.58 0 0 0 2-.52z" fill="#071438"/><path d="M543.43 161.86l-7.94-.29.27.31h-.15l-.32-.32L520 176.85l.18.18-2.7 2.7a12.49 12.49 0 0 0-3.65-.54 11.69 11.69 0 1 0 12.12 11.68 11.26 11.26 0 0 0-.75-4l4.21-4.21-.87-.87 2.19-2.19.83.83 11-11 .3.33.05-.69.3-.3-.26-.26z" fill="#f9ebb0"/><path d="M535.68 160.47l-17.87 17.87a13 13 0 1 0 8.65 8.65l3.44-3.45v-2.88h2.89l11.54-11.54v-8.65zm7.21 8.06l-10.69 10.69h-3.73v3.73l-3 3-.61.61.25.83a11.55 11.55 0 1 1-7.69-7.69l.83.25.61-.61 17.45-17.45h6.61z" fill="#ecbf1d"/><path d="M511.05 190.83a2.88 2.88 0 1 1-2.89 2.88 2.88 2.88 0 0 1 2.89-2.88M529.294 174.445l8.655-8.655 1.018 1.018-8.655 8.655z" fill="#ecbf1d"/><path d="M540.83 160.13l-7.94-.29.27.31H533l-.32-.32-15.3 15.3.18.18-2.7 2.7a12.49 12.49 0 0 0-3.65-.54 11.69 11.69 0 1 0 12.12 11.68 11.26 11.26 0 0 0-.75-4l4.21-4.21-.87-.87 2.19-2.19.83.83 11-11 .3.33.05-.69.3-.3-.26-.26z" fill="#c5a7cf"/><path d="M533.08 158.74l-17.87 17.86a13 13 0 1 0 8.65 8.65l3.44-3.45v-2.88h2.89l11.54-11.54v-8.65zm7.21 8.06l-10.69 10.69h-3.73v3.73l-3 3-.61.61.25.83a11.55 11.55 0 1 1-7.69-7.69l.83.25.61-.61 17.45-17.45h6.61z" fill="#632472"/><path d="M508.46 189.1a2.88 2.88 0 1 1-2.89 2.88 2.88 2.88 0 0 1 2.89-2.88M526.692 172.72l8.655-8.655 1.018 1.018-8.655 8.655z" fill="#632472"/><path d="M511.48 165.7a2.89 2.89 0 0 1 2.25-.88 7.48 7.48 0 0 1 1.21.08c.39.08.8.14 1.18.25a22.76 22.76 0 0 1 4.42 1.77 45.88 45.88 0 0 1 7.81 5.38c1.2 1 2.39 2.08 3.52 3.21a22.42 22.42 0 0 1 3 3.74 18.27 18.27 0 0 1 2.07 4.44 12.11 12.11 0 0 1 .29 1.23 7.8 7.8 0 0 1 .08 1.29 4.54 4.54 0 0 1-.23 1.3q-.16.31-.31.59c-.16.17-.32.32-.47.46l-.19-.18a2.61 2.61 0 0 0 0-2 9.46 9.46 0 0 0-.88-2 31.75 31.75 0 0 0-2.51-3.64 85 85 0 0 0-5.82-6.92 44.24 44.24 0 0 0-7.05-5.79 21.71 21.71 0 0 0-4-2.13c-.35-.15-.71-.23-1.07-.35a7 7 0 0 0-1.09-.19 2.5 2.5 0 0 0-2 .51z" fill="#071438"/><path d="M543 196.49a4.78 4.78 0 1 1-4.76-5.19 5 5 0 0 1 4.76 5.19" fill="#fff"/><path d="M543 189.82a5.21 5.21 0 0 0-7.45-4.67 5.39 5.39 0 0 0-2.94 4.89v2.13a6.92 6.92 0 1 0 10.38 0zm-8.65 0a3.45 3.45 0 0 1 5.43-2.8 3.74 3.74 0 0 1 1.5 3.07v.67a6.89 6.89 0 0 0-6.92 0zm2.44 10.74l-3.21-3.21 1.22-1.22 2 2 4.58-4.58 1.22 1.22z" fill="#50a546"/></g><g data-name="&lt;Group&gt;"><g data-name="&lt;Group&gt;" fill="#0c4269"><path data-name="&lt;Compound Path&gt;" d="M382.45 174.61a2.54 2.54 0 0 0-1.41 2l3.87 2.25-9.7 5.77-9.7-5.84 3.66-2.11a2.51 2.51 0 0 0-1.34-2l-7.38 4.15v16.31l14.77 8.44 14.78-8.72v-16zm-8.65 25.59l-10.55-6.54v-13.35l10.55 6.54zm13.36-7l-10.54 6.8v-13.36l10.55-6.54z"/><path data-name="&lt;Path&gt;" d="M381.33 174l-2.67-1.48a4.27 4.27 0 0 1-.91 2.25l2.25 1.34a3.1 3.1 0 0 1 1.33-2.11z"/></g><path data-name="&lt;Path&gt;" d="M372.54 172.15v.14a2.41 2.41 0 0 0 .91 2l1.76-1 1.48.84a2.33 2.33 0 0 0 .77-1.83 1.2 1.2 0 0 0-.07-.49l-2.11-1.2zM370.29 176.09l2.18-1.27a3.81 3.81 0 0 1-1.05-2l-2.32 1.34a4 4 0 0 1 1.19 1.93z" fill="#0c4269"/><circle data-name="&lt;Path&gt;" cx="375" cy="183.47" r="2.46" fill="#0baed1"/><circle data-name="&lt;Path&gt;" cx="375" cy="161.11" r="2.46" fill="#88c540"/><g data-name="&lt;Group&gt;"><circle data-name="&lt;Path&gt;" cx="383.51" cy="176.86" r="2.46" fill="#88c540"/></g><g data-name="&lt;Group&gt;"><circle data-name="&lt;Path&gt;" cx="366.7" cy="176.86" r="2.46" fill="#88c540"/></g><circle data-name="&lt;Path&gt;" cx="383.51" cy="165.68" r="2.46" fill="#0baed1"/><circle data-name="&lt;Path&gt;" cx="366.92" cy="165.96" r="2.46" fill="#0baed1"/><path data-name="&lt;Path&gt;" d="M385.9 176.86a2.33 2.33 0 0 0-2.46-2.46v4.85a2.35 2.35 0 0 0 2.46-2.39z" fill="none"/><path data-name="&lt;Path&gt;" d="M381 176.86a2.33 2.33 0 0 0 2.46 2.46v-4.85a2.43 2.43 0 0 0-2.46 2.39z" fill="none"/><path data-name="&lt;Path&gt;" d="M375 169.83a2.44 2.44 0 0 0-2.46 2.46 2.46 2.46 0 1 0 2.46-2.46z" fill="#88c540"/></g><g clip-path="url(#c)" data-name="Root key"><g clip-path="url(#d)" opacity=".65"><path d="M247.81 176.33H225a10.86 10.86 0 1 0 0 9.3h5.71v-1.55h2.33v1.55h14.73l4.65-4.65z" fill="#a27db8"/></g><path d="M248.33 175.75h-22.64a11.64 11.64 0 1 0 0 11h4.37l1.83-1.83 1.83 1.83h14.62l5.48-5.48zm-.54 9.67h-13.55l-1.45-1.42-.91-.91-.88.91-1.45 1.45h-4.61l-.36.68a10.34 10.34 0 1 1 0-9.75l.37.68h22.88l4.19 4.19z" fill="#632472"/><path d="M213.49 179.39a2.58 2.58 0 1 1-3.66 0 2.58 2.58 0 0 1 3.66 0M235.42 180.57h10.97v1.29h-10.97z" fill="#632472"/></g><path d="M82.41 187.58a11.67 11.67 0 1 0-11.67-11.67 11.67 11.67 0 0 0 11.67 11.67zm0-22.17a10.5 10.5 0 1 1-10.5 10.5 10.51 10.51 0 0 1 10.5-10.5zm9.33 24.5H73.08a4.67 4.67 0 0 0-4.67 4.67v4.67h28v-4.67a4.67 4.67 0 0 0-4.67-4.67z" fill="#1f2159"/><path d="M88.49 173.24l-1.65-1.65-6.18 6.18-2.66-2.68-1.65 1.65 4.32 4.32z" fill="#1f2159"/><path data-name="&lt;Rectangle&gt;" fill="#1f2159" d="M479.78.04h440.43V48.2H479.78z"/><path data-name="&lt;Rectangle&gt;" fill="#1b5cab" d="M-.21.04h480V48.2h-480z"/></g><g data-name="Text" fill="#231f20"><text transform="translate(39.28 94.54)" font-size="20" font-family="IBMPlexSans-SemiBold, IBM Plex Sans" font-weight="700">IBM Cloud</text><text transform="translate(772.82 266.08)" font-size="18" font-family="IBMPlexSans, IBM Plex Sans">Ha<tspan x="22.34" y="0" letter-spacing="-.01em">r</tspan><tspan x="28.84" y="0">d</tspan><tspan x="39.28" y="0" letter-spacing="-.01em">w</tspan><tspan x="52.94" y="0" letter-spacing="0em">a</tspan><tspan x="62.55" y="0" letter-spacing="0em">r</tspan><tspan x="69.07" y="0">e </tspan><tspan x="-23.31" y="21.6">security module</tspan></text><text transform="translate(328.81 266.08)" font-size="18" font-family="IBMPlexSans, IBM Plex Sans"><tspan letter-spacing="-.02em">K</tspan><tspan x="10.96" y="0" letter-spacing="0em">e</tspan><tspan x="20.75" y="0">y </tspan><tspan x="33.98" y="0" letter-spacing="-.01em">P</tspan><tspan x="44.71" y="0" letter-spacing="0em">r</tspan><tspan x="51.23" y="0">o</tspan><tspan x="61.31" y="0" letter-spacing="0em">t</tspan><tspan x="67.55" y="0">ect</tspan></text><text transform="translate(56.18 266.08)" font-size="18" font-family="IBMPlexSans, IBM Plex Sans">Admin</text><text transform="translate(498.99 94.54)" font-size="20" font-family="IBMPlexSans-SemiBold, IBM Plex Sans" font-weight="700">D<tspan x="13.78" y="0" letter-spacing="0em">a</tspan><tspan x="24.88" y="0" letter-spacing="0em">ta </tspan><tspan x="48.26" y="0" letter-spacing="-.01em">c</tspan><tspan x="58.42" y="0">en</tspan><tspan x="81.34" y="0" letter-spacing="0em">t</tspan><tspan x="88.74" y="0">er</tspan></text><text transform="translate(195.03 266.08)" font-size="18" font-family="IBMPlexSans, IBM Plex Sans">Exi<tspan x="24.12" y="0" letter-spacing="-.01em">s</tspan><tspan x="32.76" y="0">ting </tspan><tspan letter-spacing="-.02em"><tspan x="19.8" y="21.6">k</tspan><tspan x="28.98" y="21.6" letter-spacing="0em">e</tspan><tspan x="38.77" y="21.6" letter-spacing="0em">y</tspan></tspan></text><text transform="translate(485.01 266.08)" font-size="18" font-family="IBMPlexSans, IBM Plex Sans"><tspan letter-spacing="-.01em">W</tspan><tspan x="15.86" y="0" letter-spacing="0em">r</tspan><tspan x="22.39" y="0">apped</tspan><tspan letter-spacing="-.02em"><tspan x="22.63" y="21.6">k</tspan><tspan x="31.81" y="21.6" letter-spacing="0em">e</tspan><tspan x="41.6" y="21.6" letter-spacing="0em">y</tspan></tspan></text><text transform="translate(639.48 266.08)" font-size="18" font-family="IBMPlexSans, IBM Plex Sans"><tspan letter-spacing="-.01em">P</tspan><tspan x="10.73" y="0" letter-spacing="0em">r</tspan><tspan x="17.24" y="0">oject</tspan><tspan letter-spacing="-.02em"><tspan x="14.56" y="21.6">k</tspan><tspan x="23.74" y="21.6" letter-spacing="0em">e</tspan><tspan x="33.53" y="21.6" letter-spacing="0em">y</tspan></tspan></text></g></svg>