<svg xmlns="http://www.w3.org/2000/svg" width="920" height="400" viewBox="0 0 920 400"><defs><style>.cls-1,.cls-19,.cls-3,.cls-4,.cls-5,.cls-6,.cls-7,.cls-8{fill:none;}.cls-1,.cls-3,.cls-4{stroke:#1b5cab;}.cls-1,.cls-3,.cls-4,.cls-5,.cls-6,.cls-7,.cls-8{stroke-miterlimit:10;}.cls-1,.cls-5,.cls-6,.cls-7,.cls-8{stroke-width:2px;}.cls-2{fill:#1b5cab;}.cls-3,.cls-4{stroke-linecap:round;stroke-width:4px;}.cls-4{stroke-dasharray:0 13.3333;}.cls-5,.cls-6,.cls-7,.cls-8{stroke:#7f50a0;}.cls-6{stroke-dasharray:0.9994 0.9994;}.cls-7{stroke-dasharray:1.0057 1.0057;}.cls-8{stroke-dasharray:0.9847 0.9847;}.cls-9{fill:#7f50a0;}.cls-10{fill:#eaeaea;}.cls-11{fill:#fff;}.cls-12{fill:#6d297c;}.cls-13{fill:#c8dcf2;}.cls-14{fill:#344fa2;}.cls-15{fill:#77a0d4;}.cls-16{fill:#0c4269;}.cls-17{fill:#0baed1;}.cls-18{fill:#88c540;}.cls-20{fill:#1f2159;}.cls-21{fill:#c8add3;}.cls-22{fill:#fae9ad;}.cls-23{fill:#c5a22e;}.cls-24{fill:#1e2159;}.cls-25{fill:#c7aad1;}.cls-26{fill:#5ba845;}.cls-27{fill:#231f20;}</style></defs><title>stored-key</title><g id="Visual_elements" data-name="Visual elements"><line class="cls-1" x1="585.2182" y1="182.3625" x2="625.8891" y2="182.3625"/><polygon class="cls-2" points="587.115 188.845 575.889 182.363 587.115 175.88 587.115 188.845"/><line class="cls-1" x1="731.0007" y1="182.3625" x2="771.6716" y2="182.3625"/><polygon class="cls-2" points="732.897 188.845 721.672 182.363 732.897 175.88 732.897 188.845"/><line class="cls-1" x1="270.1862" y1="182.3625" x2="310.8571" y2="182.3625"/><polygon class="cls-2" points="308.96 188.845 320.186 182.363 308.96 175.88 308.96 188.845"/><line class="cls-1" x1="416.2822" y1="182.3625" x2="456.9531" y2="182.3625"/><polygon class="cls-2" points="455.056 188.845 466.282 182.363 455.056 175.88 455.056 188.845"/><line class="cls-3" x1="134.5081" y1="182.3625" x2="134.5081" y2="182.3625"/><line class="cls-4" x1="147.8414" y1="182.3625" x2="167.8414" y2="182.3625"/><line class="cls-3" x1="174.5081" y1="182.3625" x2="174.5081" y2="182.3625"/><line class="cls-5" x1="373.1672" y1="305.3119" x2="373.1672" y2="305.8119"/><line class="cls-6" x1="373.1672" y1="306.8113" x2="373.1672" y2="356.28"/><polyline class="cls-5" points="373.167 356.78 373.167 357.28 372.947 357.28 373.447 357.28"/><line class="cls-7" x1="374.4524" y1="357.2797" x2="522.7974" y2="357.2797"/><polyline class="cls-5" points="523.3 357.28 523.8 357.28 523.8 356.78"/><polyline class="cls-8" points="523.8 355.795 523.8 354.654 523.8 305.084"/><line class="cls-5" x1="523.8002" y1="304.592" x2="523.8002" y2="304.092"/><polygon class="cls-9" points="366.685 307.209 373.167 295.983 379.649 307.209 366.685 307.209"/><polygon class="cls-9" points="523.8 338.97 530.3 326.631 523.8 326.631 517.3 326.631 523.8 338.97"/><polygon class="cls-9" points="424.452 356.905 437.452 363.754 437.452 356.905 437.452 350.057 424.452 356.905"/><circle class="cls-10" cx="82.4104" cy="181.1515" r="43.5281"/><circle class="cls-10" cx="375.2128" cy="181.1515" r="43.5281"/><circle class="cls-10" cx="814.4163" cy="181.1515" r="43.5281"/><circle class="cls-10" cx="228.8116" cy="181.2362" r="43.5281"/><circle class="cls-10" cx="668.0151" cy="181.2361" r="43.5281"/><circle class="cls-10" cx="521.6139" cy="181.2361" r="43.5281"/><circle class="cls-11" cx="262" cy="209" r="6"/><path class="cls-12" d="M262.03,199.033a10,10,0,1,0,10,10A10.0007,10.0007,0,0,0,262.03,199.033Zm4.5183,10.8791h-3.6364v3.6364h-1.8182v-3.6364h-3.6363v-1.8182h3.6363v-3.6364h1.8182v3.6364h3.6364Z"/><rect class="cls-13" x="790.0959" y="177.8042" width="48.5" height="12.7881"/><path class="cls-14" d="M837.8456,178.5543v11.2883h-47V178.5543h47m1.5-1.5h-50v14.2883h50V177.0543Z"/><rect class="cls-14" x="812.0898" y="182.9458" width="21.5216" height="2.8962"/><circle class="cls-14" cx="806.8049" cy="184.3939" r="1.713"/><circle class="cls-14" cx="801.4182" cy="184.3939" r="1.713"/><circle class="cls-14" cx="796.0315" cy="184.3939" r="1.713"/><polygon class="cls-15" points="790.566 176.304 793.299 170.898 834.826 170.898 838.029 176.304 790.566 176.304"/><path class="cls-14" d="M834.3992,171.6477l2.3143,3.9066H791.7851l1.9756-3.9066h40.6385m.8548-1.5H792.8384l-3.4928,6.9066h50l-4.0916-6.9066Z"/><path class="cls-16" d="M382.4549,174.6124a2.544,2.544,0,0,0-1.4062,2.0391l3.8672,2.25-9.7031,5.7656-9.7032-5.8359,3.6563-2.1094a2.5078,2.5078,0,0,0-1.336-1.9687l-7.3828,4.1484V195.214l14.7657,8.4375,14.7656-8.7891V178.8312Zm-8.6484,25.5938L363.26,193.6671V180.3078l10.5469,6.539Zm13.3594-6.9609-10.5469,6.75V186.6359l10.5469-6.5391Z"/><path class="cls-16" d="M381.33,173.98l-2.6718-1.4765a4.2684,4.2684,0,0,1-.9141,2.25l2.25,1.3359A3.0953,3.0953,0,0,1,381.33,173.98Z"/><path class="cls-16" d="M372.5409,172.1515v.1406a2.407,2.407,0,0,0,.914,1.9688l1.7579-.9844,1.4765.8438a2.3309,2.3309,0,0,0,.7735-1.8282,1.1955,1.1955,0,0,0-.07-.4922l-2.1093-1.1953Z"/><path class="cls-16" d="M370.2909,176.089l2.18-1.2656a3.8129,3.8129,0,0,1-1.0547-2.0391l-2.32,1.336A4.0429,4.0429,0,0,1,370.2909,176.089Z"/><circle class="cls-17" cx="375.0018" cy="183.4718" r="2.4609"/><circle class="cls-18" cx="375.0018" cy="161.1124" r="2.4609"/><circle class="cls-18" cx="383.5096" cy="176.8624" r="2.4609"/><circle class="cls-18" cx="366.7049" cy="176.8624" r="2.4609"/><circle class="cls-17" cx="383.5096" cy="165.6828" r="2.4609"/><circle class="cls-17" cx="366.9159" cy="165.964" r="2.4609"/><path class="cls-19" d="M385.9,176.8624a2.3251,2.3251,0,0,0-2.461-2.4609v4.8516A2.3462,2.3462,0,0,0,385.9,176.8624Z"/><path class="cls-19" d="M381.0487,176.8624a2.3251,2.3251,0,0,0,2.4609,2.461v-4.8516A2.43,2.43,0,0,0,381.0487,176.8624Z"/><path class="cls-18" d="M375.0018,169.8312a2.4443,2.4443,0,0,0-2.4609,2.4609,2.461,2.461,0,1,0,2.4609-2.4609Z"/><path class="cls-20" d="M82.41,187.5785a11.6667,11.6667,0,1,0-11.6667-11.6667A11.6657,11.6657,0,0,0,82.41,187.5785Zm0-22.1667a10.5,10.5,0,1,1-10.5,10.5A10.5117,10.5117,0,0,1,82.41,165.4118Zm9.3333,24.5H73.0771a4.6669,4.6669,0,0,0-4.6667,4.6667v4.6667h28v-4.6667A4.6669,4.6669,0,0,0,91.7437,189.9118Z"/><path class="cls-20" d="M88.4852,173.237l-1.65-1.65L80.66,177.7619l-2.6752-2.6752-1.65,1.65,4.3248,4.3248Z"/><rect class="cls-20" x="479.7772" y="0.0417" width="440.4325" height="48.161"/><rect class="cls-2" x="-0.2097" y="0.0417" width="480" height="48.161"/><path class="cls-21" d="M215.242,170.1222a10.8557,10.8557,0,1,0,9.7971,15.5081h5.711l.7754-1.5508.7754.7754.7754.7754h14.7326l4.6525-4.6524-4.6525-4.6525h-22.77a10.8463,10.8463,0,0,0-9.7971-6.2032"/><path class="cls-12" d="M248.3287,175.7534l-22.6418,0a11.6391,11.6391,0,1,0,0,10.9658l4.3653,0,1.8277-1.8276,1.8276,1.8276h14.6211l5.483-5.4829Zm-.5353,9.6734-13.55,0-1.4493-1.4494-.9138-.9138-.9139.9138-1.449,1.4491-3.83,0h-.7749l-.3651.6835a10.3435,10.3435,0,1,1,0-9.7475l.365.6826h.7745l22.1063.0005,4.1907,4.1908Z"/><circle class="cls-12" cx="211.6649" cy="181.2153" r="2.5847"/><rect class="cls-12" x="235.4239" y="180.5691" width="10.9657" height="1.2923"/><path class="cls-22" d="M687.0125,176.3253h-22.77a10.8557,10.8557,0,1,0,0,9.3048h5.7111v-.7754H672.28v.7754h14.7327l4.6524-4.6524Z"/><path class="cls-23" d="M687.5322,175.7532l-22.6418,0a11.6392,11.6392,0,1,0,0,10.9659l4.3653,0,1.8277-1.8276,1.8276,1.8276h14.6212l5.4829-5.4829Zm-.5353,9.6735-13.55,0-1.4493-1.4493-.9138-.9139-.9138.9139-1.4491,1.449-3.83,0h-.775l-.365.6835a10.3437,10.3437,0,1,1,0-9.7475l.3651.6826h.7744l22.1063,0,4.1908,4.1908Z"/><circle class="cls-23" cx="650.8684" cy="181.2151" r="2.5847"/><rect class="cls-23" x="674.6274" y="180.5689" width="10.9657" height="1.2923"/><path class="cls-24" d="M536.3362,188.5624a3.0044,3.0044,0,0,1-2.2631.9214,9.0612,9.0612,0,0,1-2.41-.3126,22.4512,22.4512,0,0,1-4.4533-1.7461,44.7481,44.7481,0,0,1-7.8659-5.3456,30.3952,30.3952,0,0,1-6.5992-6.961,17.8446,17.8446,0,0,1-2.0409-4.5011,12.2368,12.2368,0,0,1-.2692-1.2465,7.923,7.923,0,0,1-.0574-1.3136,4.61,4.61,0,0,1,.2607-1.3185c.1111-.2113.2232-.4122.3356-.5994.1635-.1683.3339-.3177.49-.4545l.2208.2031a2.6134,2.6134,0,0,0,.0559,2.0216,9.7767,9.7767,0,0,0,.9164,1.9072,34.3152,34.3152,0,0,0,2.5456,3.58c1.8784,2.2792,3.6279,4.75,5.7669,6.916a42.8333,42.8333,0,0,0,6.9962,5.8159,21.2914,21.2914,0,0,0,3.9776,2.161,8.3921,8.3921,0,0,0,2.1485.5584,2.5532,2.5532,0,0,0,2.0242-.489Z"/><path class="cls-22" d="M543.4284,161.8581l-7.9351-.2926.2735.3062h-.1529l-.324-.324-15.298,15.298.1792.1792-2.6962,2.6962a12.516,12.516,0,0,0-3.6494-.5417,11.69,11.69,0,1,0,12.1154,11.6827,11.2634,11.2634,0,0,0-.7485-4.0112l4.21-4.21-.8654-.8654,2.1916-2.1915.8282.8282L542.529,169.44l.3.3359.0521-.6881.3021-.3022-.26-.26Z"/><path class="cls-23" d="M535.6765,160.4669l-17.8684,17.8676a12.99,12.99,0,1,0,8.6538,8.6539l3.4453-3.4446v-2.8846h2.8846L544.33,169.1208v-8.6539Zm7.2115,8.0564-10.6933,10.6936h-3.73v3.73l-3.0227,3.0219-.6116.6116.2514.8275a11.5436,11.5436,0,1,1-7.6922-7.6926l.8268.2506.6112-.6111,17.4458-17.4451h6.6144Z"/><circle class="cls-23" cx="511.0531" cy="193.711" r="2.8846"/><rect class="cls-23" x="528.0105" y="169.9132" width="12.2382" height="1.4423" transform="translate(35.7857 427.6632) rotate(-44.9999)"/><path class="cls-25" d="M540.8323,160.1273l-7.9352-.2926.2736.3062h-.153l-.324-.324-15.298,15.298.1792.1792-2.6962,2.6962a12.5155,12.5155,0,0,0-3.6494-.5417,11.69,11.69,0,1,0,12.1154,11.6827,11.2629,11.2629,0,0,0-.7485-4.0111l4.21-4.21-.8653-.8654,2.1915-2.1915.8283.8282,10.9721-10.9721.3.3359.0521-.6881.3022-.3022-.26-.26Z"/><path class="cls-12" d="M533.08,158.7361l-17.8684,17.8677a12.99,12.99,0,1,0,8.6538,8.6539l3.4454-3.4446v-2.8847h2.8846L541.7342,167.39v-8.6539Zm7.2116,8.0564-10.6933,10.6936h-3.73v3.73l-3.0227,3.022-.6115.6115.2513.8275a11.5442,11.5442,0,1,1-7.6922-7.6925l.8268.2506.6112-.6112,17.4459-17.4451h6.6144Z"/><circle class="cls-12" cx="508.457" cy="191.9802" r="2.8846"/><rect class="cls-12" x="525.4144" y="168.1824" width="12.2382" height="1.4423" transform="translate(36.2491 425.3205) rotate(-44.9999)"/><path class="cls-24" d="M511.4633,165.6849a2.9229,2.9229,0,0,1,2.2643-.9127,8.617,8.617,0,0,1,2.4089.31,22.8325,22.8325,0,0,1,4.456,1.7406,46.0213,46.0213,0,0,1,7.8643,5.3466,30.3889,30.3889,0,0,1,6.5983,6.9605,17.8427,17.8427,0,0,1,2.0406,4.5007,12.269,12.269,0,0,1,.269,1.2465,7.91,7.91,0,0,1,.0573,1.3134,4.6057,4.6057,0,0,1-.2607,1.3184c-.111.2113-.2232.4121-.3356.5993-.1635.1683-.3338.3177-.49.4545l-.2208-.2031a2.6141,2.6141,0,0,0-.0558-2.0215,9.7823,9.7823,0,0,0-.9163-1.9069,34.332,34.332,0,0,0-2.5451-3.58c-1.8782-2.279-3.6275-4.7492-5.7661-6.9155a44.1127,44.1127,0,0,0-6.9948-5.817,21.6827,21.6827,0,0,0-3.979-2.1549,7.9494,7.9494,0,0,0-2.1462-.5559,2.4772,2.4772,0,0,0-2.028.48Z"/><ellipse class="cls-11" cx="538.2726" cy="196.4871" rx="4.7596" ry="5.1923"/><path class="cls-26" d="M543.0322,189.8146a5.2133,5.2133,0,0,0-7.4486-4.6643,5.3855,5.3855,0,0,0-2.936,4.8912v2.1295a6.9228,6.9228,0,1,0,10.3846-.0008Zm-8.6538,0a3.45,3.45,0,0,1,5.4279-2.803,3.747,3.747,0,0,1,1.4952,3.0681v.6686a6.8806,6.8806,0,0,0-6.9231.0009Zm2.4444,10.7429-3.208-3.208,1.2237-1.2237,1.9843,1.9844,4.58-4.5805,1.2236,1.2236Z"/></g><g id="Text"><g id="IBM_Cloud" data-name="IBM Cloud"><path class="cls-27" d="M40.339,94.5444v-2.121H42.18V82.7017H40.339v-2.12h6.3418v2.12h-1.86v9.7217h1.86v2.121Z"/><path class="cls-27" d="M49.3791,80.5816H55.841a3.394,3.394,0,0,1,3.7012,3.58c0,2.1211-1.2207,2.9209-2.501,3.001v.12a3.06,3.06,0,0,1,3.02,3.2608,3.7516,3.7516,0,0,1-3.6006,4.0009h-7.082ZM52.02,86.4028H55.28a1.3783,1.3783,0,0,0,1.5206-1.48v-.62A1.3688,1.3688,0,0,0,55.28,82.8218H52.02Zm0,5.9h3.6816a1.422,1.422,0,0,0,1.6-1.52V90.103a1.4364,1.4364,0,0,0-1.6-1.54H52.02Z"/><path class="cls-27" d="M73.2013,84.6216h-.08l-1.06,2.1211L69.16,92.0239,66.3,86.7622l-1.1006-2.24h-.06V94.5444h-2.501V80.5816H65.56l3.5811,6.8212h.06l3.5615-6.8212h2.94V94.5444h-2.501Z"/><path class="cls-27" d="M83.0988,87.6626c0-4.7012,2.3408-7.3213,6.0215-7.3213a5.0913,5.0913,0,0,1,5.1006,3.2207l-2.26,1.2a2.7635,2.7635,0,0,0-2.8408-2.08c-1.961,0-3.2207,1.42-3.2207,3.8008v2.2c0,2.4,1.26,3.7608,3.2207,3.7608a3.1027,3.1027,0,0,0,3.02-2.2207l2.1406,1.2607A5.3658,5.3658,0,0,1,89.12,94.7847C85.44,94.7847,83.0988,92.3638,83.0988,87.6626Z"/><path class="cls-27" d="M98.94,94.5444a2.2643,2.2643,0,0,1-2.5605-2.52V79.7407H98.94V92.5034h1.38v2.041Z"/><path class="cls-27" d="M101.5588,89.3032c0-3.3408,1.86-5.4414,4.8408-5.4414,3.001,0,4.8613,2.1006,4.8613,5.4414,0,3.36-1.86,5.4815-4.8613,5.4815C103.4191,94.7847,101.5588,92.6636,101.5588,89.3032Zm7.0214.98v-1.94c0-1.5606-.8408-2.4209-2.1806-2.4209-1.32,0-2.16.86-2.16,2.4209v1.94c0,1.58.84,2.44,2.16,2.44C107.7394,92.7241,108.58,91.8638,108.58,90.2837Z"/><path class="cls-27" d="M119.76,92.8042h-.1006a2.8323,2.8323,0,0,1-2.92,1.9805c-2.1406,0-3.3408-1.4805-3.3408-4.0811V84.1021h2.5606v6.3408c0,1.44.54,2.2207,1.76,2.2207,1.02,0,2.041-.54,2.041-1.66V84.1021h2.5606V94.5444H119.76Z"/><path class="cls-27" d="M131.76,92.8042h-.1006a2.9329,2.9329,0,0,1-2.8808,1.9805c-2.62,0-4.08-1.9805-4.08-5.4815,0-3.48,1.46-5.4414,4.08-5.4414a2.8742,2.8742,0,0,1,2.8808,1.961h.1006V79.7407h2.5606V94.5444H131.76Zm0-1.8408v-3.32c0-1.02-.94-1.6807-2.1611-1.6807a2.2241,2.2241,0,0,0-2.2207,2.461v1.8a2.2067,2.2067,0,0,0,2.2207,2.44C130.82,92.6636,131.76,92.0435,131.76,90.9634Z"/></g><path class="cls-27" d="M782.3605,260.0982h-6.3564v5.9775h-1.5127V253.5083h1.5127v5.2568h6.3564v-5.2568h1.5117v12.5674h-1.5117Z"/><path class="cls-27" d="M793.8254,266.0757a1.501,1.501,0,0,1-1.6026-1.5127h-.09a2.6238,2.6238,0,0,1-2.6826,1.7285c-1.9629,0-3.1153-1.08-3.1153-2.8086,0-1.7461,1.2608-2.7187,3.961-2.7187h1.8369v-.918c0-1.3144-.7207-2.0352-2.1963-2.0352a2.5926,2.5926,0,0,0-2.3594,1.3868l-.8642-.8106a3.5317,3.5317,0,0,1,3.2949-1.8183c2.2334,0,3.5654,1.17,3.5654,3.1328v5.1133h1.0625v1.2607Zm-1.6924-2.7012v-1.53h-1.9082c-1.6387,0-2.377.5039-2.377,1.4042v.378c0,.9189.72,1.4414,1.836,1.4414C791.1066,265.0679,792.133,264.33,792.133,263.3745Z"/><path class="cls-27" d="M796.6857,266.0757v-9.291h1.44v1.7109h.09a2.6693,2.6693,0,0,1,2.6826-1.7109h.5586v1.44h-.8467c-1.5478,0-2.4844.666-2.4844,1.5488v6.3018Z"/><path class="cls-27" d="M809.1252,264.563h-.0723a2.8,2.8,0,0,1-2.7187,1.7285c-2.3223,0-3.7813-1.8906-3.7813-4.8613s1.459-4.8613,3.7813-4.8613a2.7145,2.7145,0,0,1,2.7187,1.7285h.0723v-5.5459h1.44v13.3242h-1.44Zm0-1.458v-3.457c0-1.0264-1.08-1.7832-2.3946-1.7832a2.5356,2.5356,0,0,0-2.6289,2.7734v1.584a2.5351,2.5351,0,0,0,2.6289,2.7734C808.0451,264.9956,809.1252,264.311,809.1252,263.105Z"/><path class="cls-27" d="M812.6506,256.7847h1.4043l.9912,4.0156.99,4.0693h.0352l1.1347-4.0693,1.17-4.0156h1.2793l1.2061,4.0156,1.1523,4.0693h.0362l.9541-4.0693,1.0088-4.0156h1.35l-2.4668,9.291h-1.7822l-1.2969-4.4648-.81-2.8272h-.0361l-.792,2.8272-1.2969,4.4648h-1.7461Z"/><path class="cls-27" d="M834.0373,266.0757a1.501,1.501,0,0,1-1.6026-1.5127h-.09a2.6238,2.6238,0,0,1-2.6826,1.7285c-1.9629,0-3.1153-1.08-3.1153-2.8086,0-1.7461,1.2608-2.7187,3.962-2.7187h1.8359v-.918c0-1.3144-.72-2.0352-2.1963-2.0352a2.5948,2.5948,0,0,0-2.3594,1.3868l-.8642-.8106a3.5328,3.5328,0,0,1,3.2949-1.8183c2.2334,0,3.5654,1.17,3.5654,3.1328v5.1133h1.0625v1.2607Zm-1.6924-2.7012v-1.53h-1.9082c-1.6387,0-2.377.5039-2.377,1.4042v.378c0,.9189.7207,1.4414,1.837,1.4414C831.3185,265.0679,832.3449,264.33,832.3449,263.3745Z"/><path class="cls-27" d="M836.8967,266.0757v-9.291h1.44v1.7109h.09a2.67,2.67,0,0,1,2.6836-1.7109h.5576v1.44h-.8457c-1.5488,0-2.4853.666-2.4853,1.5488v6.3018Z"/><path class="cls-27" d="M842.73,261.43c0-2.9531,1.6562-4.8613,4.1767-4.8613,2.4844,0,4.0156,1.9082,4.0156,4.5371v.6845h-6.6806v.4317a2.632,2.632,0,0,0,2.7549,2.81,2.6909,2.6909,0,0,0,2.5566-1.6026l1.0264.7383a3.8976,3.8976,0,0,1-3.6729,2.124C844.3859,266.2915,842.73,264.3833,842.73,261.43Zm1.5117-.8457v.126h5.1318v-.1983a2.4713,2.4713,0,0,0-2.4668-2.7373A2.6413,2.6413,0,0,0,844.2414,260.5845Z"/><path class="cls-27" d="M750.1564,286.0728l1.0254-.8282a3.3738,3.3738,0,0,0,2.7549,1.4229c1.2246,0,1.9453-.5586,1.9453-1.5127,0-.7207-.3965-1.2783-1.6211-1.459l-.7383-.1074c-1.71-.252-2.9883-.9541-2.9883-2.6826,0-1.8369,1.4219-2.7373,3.3125-2.7373a3.87,3.87,0,0,1,3.2413,1.4941l-.9541.8643a2.8668,2.8668,0,0,0-2.3946-1.1338c-1.1884,0-1.8193.5576-1.8193,1.44,0,.9.6309,1.26,1.7832,1.44l.72.1075c2.0528.3066,2.8447,1.207,2.8447,2.6113,0,1.8008-1.3144,2.8984-3.4384,2.8984A4.3151,4.3151,0,0,1,750.1564,286.0728Z"/><path class="cls-27" d="M759.12,283.03c0-2.9531,1.6562-4.8613,4.1767-4.8613,2.4854,0,4.0157,1.9082,4.0157,4.5371v.6845h-6.68v.4317a2.632,2.632,0,0,0,2.7549,2.81,2.6929,2.6929,0,0,0,2.5566-1.6026l1.0264.7383a3.9,3.9,0,0,1-3.6739,2.124C760.7765,287.8911,759.12,285.9829,759.12,283.03Zm1.5127-.8457v.126h5.1308v-.1983a2.4714,2.4714,0,0,0-2.4668-2.7373A2.6405,2.6405,0,0,0,760.633,282.1841Z"/><path class="cls-27" d="M769.0021,283.03c0-2.9707,1.53-4.8613,4.1406-4.8613a3.4825,3.4825,0,0,1,3.4756,2.1787l-1.206.6123a2.24,2.24,0,0,0-2.27-1.5127,2.4948,2.4948,0,0,0-2.5927,2.791v1.584a2.4948,2.4948,0,0,0,2.5927,2.791,2.623,2.623,0,0,0,2.5215-1.62l1.044.7021a3.6635,3.6635,0,0,1-3.5655,2.1963C770.5324,287.8911,769.0021,286.0005,769.0021,283.03Z"/><path class="cls-27" d="M784.466,286.1626h-.0723a2.5818,2.5818,0,0,1-2.6113,1.7285c-1.9082,0-3.1328-1.2959-3.1328-3.5468v-5.96h1.44v5.708c0,1.6562.7383,2.5029,2.125,2.5029,1.1338,0,2.251-.5586,2.251-1.7832v-6.4277h1.44v9.291h-1.44Z"/><path class="cls-27" d="M788.964,287.6753v-9.291h1.44v1.7109h.09a2.6693,2.6693,0,0,1,2.6826-1.7109h.5586v1.44h-.8467c-1.5478,0-2.4843.666-2.4843,1.5488v6.3018Z"/><path class="cls-27" d="M795.4074,275.396v-.2344c0-.4863.27-.8105.8818-.8105s.8828.3242.8828.8105v.2344c0,.4854-.27.81-.8828.81S795.4074,275.8814,795.4074,275.396Zm.1621,2.9883h1.44v9.291h-1.44Z"/><path class="cls-27" d="M802.1222,287.6753a1.418,1.418,0,0,1-1.53-1.53v-6.5h-1.5313v-1.2607h.8643c.6123,0,.8105-.2158.8105-.8457V275.81h1.2969v2.5742h2.0342v1.2607h-2.0342v6.77h1.8906v1.2607Z"/><path class="cls-27" d="M812.1135,278.3843h1.4228l-4.1592,11.4512c-.414,1.1171-.7929,1.4414-2.1611,1.4414h-.7383v-1.2608h1.459l.7021-1.98-3.4755-9.6514h1.44l2.2324,6.32.4326,1.5127h.09l.5039-1.5127Z"/><path class="cls-27" d="M819.6174,287.6753v-9.291h1.44v1.5127h.0723a2.5,2.5,0,0,1,2.5029-1.7285,2.86,2.86,0,0,1,2.8447,1.8906h.0361a2.7853,2.7853,0,0,1,2.8262-1.8906c1.8906,0,3.0254,1.2959,3.0254,3.5468v5.96h-1.44v-5.708c0-1.6377-.63-2.5029-2.0352-2.5029-1.1338,0-2.1777.5761-2.1777,1.7646v6.4463h-1.44v-5.708c0-1.6563-.6309-2.5029-1.9991-2.5029-1.1347,0-2.2148.5761-2.2148,1.7646v6.4463Z"/><path class="cls-27" d="M834.6476,283.03c0-2.9531,1.71-4.8613,4.1953-4.8613s4.1944,1.9082,4.1944,4.8613-1.71,4.8613-4.1944,4.8613S834.6476,285.9829,834.6476,283.03Zm6.8418.666v-1.332c0-1.9629-1.0986-2.917-2.6465-2.917s-2.6474.9541-2.6474,2.917v1.332c0,1.9629,1.0986,2.917,2.6474,2.917S841.4894,285.6587,841.4894,283.6958Z"/><path class="cls-27" d="M851.3537,286.1626h-.0723a2.8012,2.8012,0,0,1-2.7187,1.7285c-2.3233,0-3.7813-1.8906-3.7813-4.8613s1.458-4.8613,3.7813-4.8613a2.7145,2.7145,0,0,1,2.7187,1.7285h.0723v-5.5459h1.44v13.3242h-1.44Zm0-1.458v-3.457c0-1.0264-1.0811-1.7832-2.3955-1.7832a2.5362,2.5362,0,0,0-2.6289,2.7734v1.584a2.5357,2.5357,0,0,0,2.6289,2.7734C850.2726,286.5952,851.3537,285.9107,851.3537,284.7046Z"/><path class="cls-27" d="M861.5763,286.1626h-.0712a2.582,2.582,0,0,1-2.6114,1.7285c-1.9082,0-3.1328-1.2959-3.1328-3.5468v-5.96h1.44v5.708c0,1.6562.7383,2.5029,2.125,2.5029,1.1338,0,2.25-.5586,2.25-1.7832v-6.4277h1.4405v9.291h-1.4405Z"/><path class="cls-27" d="M867.6047,287.6753a1.4084,1.4084,0,0,1-1.53-1.4941v-11.83h1.44v12.0635h1.3682v1.2607Z"/><path class="cls-27" d="M870.2873,283.03c0-2.9531,1.6562-4.8613,4.1767-4.8613,2.4844,0,4.0157,1.9082,4.0157,4.5371v.6845H871.799v.4317a2.632,2.632,0,0,0,2.7549,2.81,2.6909,2.6909,0,0,0,2.5566-1.6026l1.0264.7383a3.8986,3.8986,0,0,1-3.6729,2.124C871.9435,287.8911,870.2873,285.9829,870.2873,283.03Zm1.5117-.8457v.126h5.1318v-.1983a2.4714,2.4714,0,0,0-2.4668-2.7373A2.6413,2.6413,0,0,0,871.799,282.1841Z"/><path class="cls-27" d="M333.7785,259.9l-1.7822,1.9805v4.1953h-1.5127V253.5083h1.5127v6.68h.0537l1.8008-2.1787,3.7988-4.501h1.8545l-4.6817,5.3828,5.0059,7.1846h-1.8731Z"/><path class="cls-27" d="M340.6174,261.43c0-2.9531,1.6562-4.8613,4.1767-4.8613,2.4854,0,4.0156,1.9082,4.0156,4.5371v.6845h-6.68v.4317a2.6312,2.6312,0,0,0,2.7539,2.81,2.6934,2.6934,0,0,0,2.5576-1.6026l1.0263.7383a3.9,3.9,0,0,1-3.6738,2.124C342.2736,266.2915,340.6174,264.3833,340.6174,261.43Zm1.5127-.8457v.126h5.1308v-.1983a2.4713,2.4713,0,0,0-2.4668-2.7373A2.6405,2.6405,0,0,0,342.13,260.5845Z"/><path class="cls-27" d="M356.82,256.7847h1.4219l-4.1592,11.4512c-.4141,1.1171-.792,1.4414-2.16,1.4414h-.7382v-1.2608h1.458l.7021-1.9805-3.4746-9.6513h1.44l2.2325,6.32.4316,1.5127h.0908l.5039-1.5127Z"/><path class="cls-27" d="M364.467,266.0757V253.5083h5.0058a3.6023,3.6023,0,0,1,0,7.2022H365.98v5.3652Zm1.5127-6.6982h3.4931a1.683,1.683,0,0,0,1.8907-1.8v-.9365a1.6837,1.6837,0,0,0-1.8907-1.8008H365.98Z"/><path class="cls-27" d="M375.051,266.0757v-9.291h1.44v1.7109h.09a2.6693,2.6693,0,0,1,2.6826-1.7109h.5586v1.44h-.8466c-1.5479,0-2.4844.666-2.4844,1.5488v6.3018Z"/><path class="cls-27" d="M380.883,261.43c0-2.9531,1.71-4.8613,4.1953-4.8613s4.1953,1.9082,4.1953,4.8613-1.7109,4.8613-4.1953,4.8613S380.883,264.3833,380.883,261.43Zm6.8418.666v-1.332c0-1.9629-1.0987-2.917-2.6465-2.917s-2.6475.9541-2.6475,2.917v1.332c0,1.9629,1.0987,2.917,2.6475,2.917S387.7248,264.0591,387.7248,262.0962Z"/><path class="cls-27" d="M393.6994,266.0757a1.4181,1.4181,0,0,1-1.53-1.53v-6.5h-1.53v-1.2607h.8643c.6123,0,.81-.2158.81-.8457v-1.7285H393.61v2.5742h2.0352v1.2607H393.61v6.77H395.5v1.2607Z"/><path class="cls-27" d="M397.2092,261.43c0-2.9531,1.6562-4.8613,4.1767-4.8613,2.4854,0,4.0156,1.9082,4.0156,4.5371v.6845h-6.68v.4317a2.6313,2.6313,0,0,0,2.754,2.81,2.6934,2.6934,0,0,0,2.5576-1.6026l1.0263.7383a3.9,3.9,0,0,1-3.6738,2.124C398.8654,266.2915,397.2092,264.3833,397.2092,261.43Zm1.5126-.8457v.126h5.1309v-.1983a2.4713,2.4713,0,0,0-2.4668-2.7373A2.6406,2.6406,0,0,0,398.7218,260.5845Z"/><path class="cls-27" d="M407.091,261.43c0-2.9707,1.53-4.8613,4.1406-4.8613a3.4826,3.4826,0,0,1,3.4756,2.1787l-1.2061.6123a2.24,2.24,0,0,0-2.2695-1.5127,2.4949,2.4949,0,0,0-2.5928,2.791v1.584a2.4949,2.4949,0,0,0,2.5928,2.791,2.623,2.623,0,0,0,2.5215-1.62l1.0439.7021a3.6633,3.6633,0,0,1-3.5654,2.1963C408.6213,266.2915,407.091,264.4009,407.091,261.43Z"/><path class="cls-27" d="M418.881,266.0757a1.418,1.418,0,0,1-1.53-1.53v-6.5h-1.53v-1.2607h.8642c.6123,0,.8106-.2158.8106-.8457v-1.7285h1.2959v2.5742h2.0351v1.2607h-2.0351v6.77h1.8906v1.2607Z"/><path class="cls-27" d="M65.7209,266.0757l-1.2608-3.709H59.383l-1.2608,3.709H56.5915l4.394-12.5674h1.9258l4.3936,12.5674Zm-3.7637-11.1631h-.09l-2.125,6.1221h4.34Z"/><path class="cls-27" d="M75.1877,264.563h-.0723a2.8013,2.8013,0,0,1-2.7187,1.7285c-2.3223,0-3.7813-1.8906-3.7813-4.8613s1.459-4.8613,3.7813-4.8613a2.7145,2.7145,0,0,1,2.7187,1.7285h.0723v-5.5459h1.44v13.3242h-1.44Zm0-1.458v-3.457c0-1.0264-1.08-1.7832-2.3946-1.7832a2.5356,2.5356,0,0,0-2.6289,2.7734v1.584a2.5351,2.5351,0,0,0,2.6289,2.7734C74.1076,264.9956,75.1877,264.311,75.1877,263.105Z"/><path class="cls-27" d="M79.6857,266.0757v-9.291h1.44v1.5127h.0723a2.4993,2.4993,0,0,1,2.502-1.7285,2.8614,2.8614,0,0,1,2.8457,1.8906h.0351a2.7875,2.7875,0,0,1,2.8272-1.8906c1.8906,0,3.0254,1.2959,3.0254,3.5468v5.96h-1.44v-5.708c0-1.6377-.6308-2.5029-2.0351-2.5029-1.1338,0-2.1787.5761-2.1787,1.7646v6.4463h-1.44v-5.708c0-1.6563-.63-2.5029-1.998-2.5029-1.1348,0-2.2149.5761-2.2149,1.7646v6.4463Z"/><path class="cls-27" d="M95.2375,253.7964v-.2344c0-.4863.27-.8105.8818-.8105s.8828.3242.8828.8105v.2344c0,.4854-.27.81-.8828.81S95.2375,254.2818,95.2375,253.7964Zm.1621,2.9883h1.44v9.291H95.4Z"/><path class="cls-27" d="M99.9,266.0757v-9.291h1.44v1.5127h.0723a2.6345,2.6345,0,0,1,2.6289-1.7285c1.9082,0,3.1142,1.2959,3.1142,3.5468v5.96h-1.44v-5.708c0-1.6563-.72-2.5029-2.1064-2.5029-1.1524,0-2.2686.5761-2.2686,1.7646v6.4463Z"/><path class="cls-27" d="M500.6281,80.5816h5.0811c3.6406,0,6.0214,2.34,6.0214,6.9814s-2.3808,6.9814-6.0214,6.9814h-5.0811Zm5.0811,11.623c1.96,0,3.2207-1.1611,3.2207-3.541V86.4624c0-2.3808-1.2608-3.541-3.2207-3.541h-2.44v9.2832Z"/><path class="cls-27" d="M513.508,91.7036c0-2.14,1.62-3.2,4.4609-3.2h1.78v-.76c0-1.1612-.58-1.8418-1.94-1.8418a2.7217,2.7217,0,0,0-2.3809,1.32l-1.52-1.3594a4.396,4.396,0,0,1,4.0811-2c2.82,0,4.3212,1.34,4.3212,3.7207v4.92h1.04v2.041h-1.42a1.9,1.9,0,0,1-1.94-1.8007h-.12a2.8242,2.8242,0,0,1-3.041,2.041C514.7082,94.7847,513.508,93.564,513.508,91.7036Zm6.2412-.28v-1.38h-1.6406c-1.34,0-2,.46-2,1.28v.34c0,.84.58,1.2607,1.58,1.2607C518.8293,92.9243,519.7492,92.4038,519.7492,91.4234Z"/><path class="cls-27" d="M528.6086,94.5444a2.4162,2.4162,0,0,1-2.7-2.66V86.1226h-1.541V84.1021h.8007c.76,0,1-.36,1-1.08v-1.78h2.3008v2.86h2.14v2.0205h-2.14v6.3808h1.9805v2.041Z"/><path class="cls-27" d="M532.0871,91.7036c0-2.14,1.62-3.2,4.4609-3.2h1.78v-.76c0-1.1612-.58-1.8418-1.94-1.8418a2.72,2.72,0,0,0-2.38,1.32l-1.5205-1.3594a4.3947,4.3947,0,0,1,4.081-2c2.82,0,4.32,1.34,4.32,3.7207v4.92h1.04v2.041h-1.42a1.9,1.9,0,0,1-1.9405-1.8007h-.12a2.823,2.823,0,0,1-3.04,2.041C533.2873,94.7847,532.0871,93.564,532.0871,91.7036Zm6.2412-.28v-1.38h-1.64c-1.3408,0-2.0009.46-2.0009,1.28v.34c0,.84.58,1.2607,1.58,1.2607C537.4084,92.9243,538.3283,92.4038,538.3283,91.4234Z"/><path class="cls-27" d="M548.0275,89.3032c0-3.3408,1.74-5.44,4.82-5.44a4.0373,4.0373,0,0,1,4.1016,2.6406l-2.1006.9395a1.9493,1.9493,0,0,0-2.001-1.52c-1.42,0-2.14,1.001-2.14,2.4609v1.9c0,1.46.72,2.44,2.14,2.44a2.2344,2.2344,0,0,0,2.2012-1.6406l1.96.94a4.0794,4.0794,0,0,1-4.1612,2.7608C549.7677,94.7847,548.0275,92.6636,548.0275,89.3032Z"/><path class="cls-27" d="M558.1867,89.3032c0-3.3007,1.78-5.44,4.8408-5.44,3.2608,0,4.7608,2.4,4.7608,5.26v.8408h-6.9415v.2607a2.319,2.319,0,0,0,2.5411,2.52,3.17,3.17,0,0,0,2.66-1.42l1.3809,1.5411a5.1707,5.1707,0,0,1-4.3213,1.92C560.0265,94.7847,558.1867,92.6441,558.1867,89.3032Zm2.66-1.08v.16h4.2813v-.1807c0-1.4394-.74-2.42-2.0605-2.42A2.2171,2.2171,0,0,0,560.8468,88.2232Z"/><path class="cls-27" d="M570.047,94.5444V84.1021h2.5606v1.7412h.1a2.88,2.88,0,0,1,2.9209-1.9805c2.1406,0,3.3408,1.48,3.3408,4.08v6.6015h-2.56V88.2026c0-1.48-.5-2.24-1.7207-2.24-1.06,0-2.08.5606-2.08,1.6807v6.9013Z"/><path class="cls-27" d="M585.0676,94.5444a2.417,2.417,0,0,1-2.7012-2.66V86.1226h-1.54V84.1021h.8c.7608,0,1.001-.36,1.001-1.08v-1.78h2.3v2.86h2.1407v2.0205h-2.1407v6.3808h1.9805v2.041Z"/><path class="cls-27" d="M588.507,89.3032c0-3.3007,1.78-5.44,4.8408-5.44,3.2608,0,4.7608,2.4,4.7608,5.26v.8408h-6.9414v.2607a2.3189,2.3189,0,0,0,2.541,2.52,3.17,3.17,0,0,0,2.66-1.42l1.3809,1.5411a5.1707,5.1707,0,0,1-4.3213,1.92C590.3468,94.7847,588.507,92.6441,588.507,89.3032Zm2.66-1.08v.16h4.2812v-.1807c0-1.4394-.74-2.42-2.0605-2.42A2.217,2.217,0,0,0,591.1672,88.2232Z"/><path class="cls-27" d="M600.3674,94.5444V84.1021h2.5605v2.1611h.1a2.679,2.679,0,0,1,2.7608-2.1611h.56V86.523h-.8008c-1.72,0-2.62.48-2.62,1.62v6.4013Z"/><path class="cls-27" d="M196.7092,266.0757V253.5083h7.67v1.332h-6.1582v3.9248h5.7978v1.3331h-5.7978v4.6455h6.1582v1.332Z"/><path class="cls-27" d="M205.9064,266.0757l3.44-4.6816-3.2949-4.6094h1.6923l2.3584,3.457h.0537l2.4493-3.457h1.6025l-3.2773,4.5019,3.35,4.7891h-1.6387l-2.4668-3.7275H210.12l-2.6651,3.7275Z"/><path class="cls-27" d="M216.0226,253.7964v-.2344c0-.4863.27-.8105.8828-.8105s.8819.3242.8819.8105v.2344c0,.4854-.27.81-.8819.81S216.0226,254.2818,216.0226,253.7964Zm.1621,2.9883h1.4405v9.291h-1.4405Z"/><path class="cls-27" d="M219.8029,264.4732l1.0264-.8282a3.3711,3.3711,0,0,0,2.7549,1.4229c1.2236,0,1.9443-.5586,1.9443-1.5127,0-.7207-.3965-1.2783-1.62-1.459l-.7383-.1074c-1.7109-.252-2.9893-.9541-2.9893-2.6826,0-1.8369,1.4229-2.7373,3.3125-2.7373a3.8691,3.8691,0,0,1,3.2412,1.4941l-.9541.8643a2.865,2.865,0,0,0-2.3945-1.1338c-1.1885,0-1.8183.5576-1.8183,1.44,0,.9.63,1.26,1.7822,1.44l.72.1075c2.0527.3066,2.8457,1.207,2.8457,2.6113,0,1.8008-1.3144,2.8984-3.4394,2.8984A4.3151,4.3151,0,0,1,219.8029,264.4732Z"/><path class="cls-27" d="M231.3771,266.0757a1.4181,1.4181,0,0,1-1.53-1.53v-6.5h-1.53v-1.2607h.8642c.6123,0,.81-.2158.81-.8457v-1.7285h1.2969v2.5742h2.0342v1.2607h-2.0342v6.77h1.8906v1.2607Z"/><path class="cls-27" d="M235.4806,253.7964v-.2344c0-.4863.27-.8105.8829-.8105s.8818.3242.8818.8105v.2344c0,.4854-.2695.81-.8818.81S235.4806,254.2818,235.4806,253.7964Zm.1621,2.9883h1.4405v9.291h-1.4405Z"/><path class="cls-27" d="M240.1427,266.0757v-9.291h1.4405v1.5127h.0722a2.6345,2.6345,0,0,1,2.6289-1.7285c1.9083,0,3.1143,1.2959,3.1143,3.5468v5.96h-1.4394v-5.708c0-1.6563-.7207-2.5029-2.1075-2.5029-1.1523,0-2.2685.5761-2.2685,1.7646v6.4463Z"/><path class="cls-27" d="M253.6974,269.8931c-2.8984,0-4.0869-.8281-4.0869-2.2871a1.743,1.743,0,0,1,1.4766-1.8008v-.1973a1.3472,1.3472,0,0,1-.8281-1.2969c0-.9365.666-1.3867,1.6025-1.62v-.0722a3.0212,3.0212,0,0,1-1.7471-2.8448,3.1841,3.1841,0,0,1,3.4932-3.205,4.1657,4.1657,0,0,1,1.7646.36v-.1621c0-.7207.3057-1.2422,1.08-1.2422h1.3867v1.26h-1.7646v.5947a3.0883,3.0883,0,0,1,1.0625,2.3945,3.19,3.19,0,0,1-3.5117,3.2051,4.802,4.802,0,0,1-.9-.09c-.6113.1611-1.2237.4677-1.2237,1.0439,0,.5586.5762.7022,1.4219.7022h1.9805c2.3047,0,3.2959.9365,3.2959,2.4668C258.1994,269.01,256.6867,269.8931,253.6974,269.8931Zm1.2246-3.9072h-3.0966a1.2946,1.2946,0,0,0-.8643,1.26c0,.8106.5576,1.4766,2.0166,1.4766h1.332c1.6026,0,2.5391-.5039,2.5391-1.5117C256.8488,266.4722,256.3625,265.9859,254.922,265.9859Zm.7022-5.96v-.5039c0-1.2246-.7744-1.8008-1.999-1.8008s-1.9981.5762-1.9981,1.8008v.5039c0,1.2246.7744,1.8008,1.9981,1.8008S255.6242,261.2505,255.6242,260.0259Z"/><path class="cls-27" d="M216.3644,274.3511h1.4405v8.4443h.0722l1.4219-1.584,2.6289-2.8271h1.7471l-3.44,3.6738,3.7813,5.6172h-1.7461l-3.0791-4.7353-1.3867,1.4228v3.3125h-1.4405Z"/><path class="cls-27" d="M224.8605,283.03c0-2.9531,1.6563-4.8613,4.1768-4.8613,2.4844,0,4.0156,1.9082,4.0156,4.5371v.6845h-6.6807v.4317a2.632,2.632,0,0,0,2.7549,2.81,2.6912,2.6912,0,0,0,2.5567-1.6026l1.0263.7383a3.8984,3.8984,0,0,1-3.6728,2.124C226.5168,287.8911,224.8605,285.9829,224.8605,283.03Zm1.5117-.8457v.126h5.1319v-.1983a2.4714,2.4714,0,0,0-2.4668-2.7373A2.6414,2.6414,0,0,0,226.3722,282.1841Z"/><path class="cls-27" d="M241.0617,278.3843h1.4228l-4.1591,11.4512c-.4141,1.1171-.792,1.4414-2.1612,1.4414h-.7382v-1.2608h1.4589l.7022-1.98-3.4756-9.6514h1.44l2.2334,6.32.4317,1.5127h.09l.5049-1.5127Z"/><path class="cls-27" d="M488.4318,266.0757l-3.06-12.5674h1.6025l1.3506,6.05,1.0439,4.6992h.0362l1.17-4.6992,1.5849-6.05h1.7286l1.53,6.05,1.17,4.6807h.0546l1.08-4.6807,1.4219-6.05h1.5488l-3.2226,12.5674h-1.6748l-1.6387-6.2656-1.1523-4.6094h-.0362l-1.1875,4.6094-1.6748,6.2656Z"/><path class="cls-27" d="M502.4,266.0757v-9.291h1.44v1.7109h.09a2.67,2.67,0,0,1,2.6836-1.7109h.5576v1.44h-.8457c-1.5489,0-2.4854.666-2.4854,1.5488v6.3018Z"/><path class="cls-27" d="M515.6847,266.0757a1.5009,1.5009,0,0,1-1.6025-1.5127h-.09a2.6239,2.6239,0,0,1-2.6827,1.7285c-1.9629,0-3.1152-1.08-3.1152-2.8086,0-1.7461,1.2607-2.7187,3.9619-2.7187h1.836v-.918c0-1.3144-.72-2.0352-2.1963-2.0352a2.5948,2.5948,0,0,0-2.3594,1.3868l-.8643-.8106a3.5329,3.5329,0,0,1,3.295-1.8183c2.2334,0,3.5654,1.17,3.5654,3.1328v5.1133h1.0625v1.2607Zm-1.6923-2.7012v-1.53h-1.9082c-1.6387,0-2.377.5039-2.377,1.4042v.378c0,.9189.7207,1.4414,1.8369,1.4414C512.966,265.0679,513.9924,264.33,513.9924,263.3745Z"/><path class="cls-27" d="M518.5451,256.7847h1.44v1.5127h.0723a2.7145,2.7145,0,0,1,2.7187-1.7285c2.3223,0,3.7813,1.8906,3.7813,4.8613s-1.459,4.8613-3.7813,4.8613a2.8,2.8,0,0,1-2.7187-1.7285h-.0723v5.1143h-1.44Zm6.4639,5.4375v-1.584a2.5357,2.5357,0,0,0-2.6289-2.7734c-1.3145,0-2.3946.7568-2.3946,1.7832v3.457c0,1.206,1.08,1.8906,2.3946,1.8906A2.5352,2.5352,0,0,0,525.009,262.2222Z"/><path class="cls-27" d="M528.9845,256.7847h1.44v1.5127h.0722a2.7147,2.7147,0,0,1,2.7188-1.7285c2.3223,0,3.7812,1.8906,3.7812,4.8613s-1.4589,4.8613-3.7812,4.8613a2.8006,2.8006,0,0,1-2.7188-1.7285h-.0722v5.1143h-1.44Zm6.4639,5.4375v-1.584a2.5356,2.5356,0,0,0-2.6289-2.7734c-1.3144,0-2.3945.7568-2.3945,1.7832v3.457c0,1.206,1.08,1.8906,2.3945,1.8906A2.5351,2.5351,0,0,0,535.4484,262.2222Z"/><path class="cls-27" d="M538.74,261.43c0-2.9531,1.6563-4.8613,4.1768-4.8613,2.4843,0,4.0156,1.9082,4.0156,4.5371v.6845h-6.6807v.4317a2.632,2.632,0,0,0,2.7549,2.81,2.6909,2.6909,0,0,0,2.5566-1.6026l1.0264.7383a3.8974,3.8974,0,0,1-3.6728,2.124C540.3967,266.2915,538.74,264.3833,538.74,261.43Zm1.5117-.8457v.126h5.1319v-.1983a2.4714,2.4714,0,0,0-2.4668-2.7373A2.6414,2.6414,0,0,0,540.2521,260.5845Z"/><path class="cls-27" d="M555.2492,264.563h-.0723a2.8013,2.8013,0,0,1-2.7187,1.7285c-2.3233,0-3.7813-1.8906-3.7813-4.8613s1.458-4.8613,3.7813-4.8613a2.7145,2.7145,0,0,1,2.7187,1.7285h.0723v-5.5459h1.44v13.3242h-1.44Zm0-1.458v-3.457c0-1.0264-1.0811-1.7832-2.3955-1.7832a2.5361,2.5361,0,0,0-2.6289,2.7734v1.584a2.5357,2.5357,0,0,0,2.6289,2.7734C554.1681,264.9956,555.2492,264.311,555.2492,263.105Z"/><path class="cls-27" d="M509.1672,274.3511h1.44v8.4443h.0723l1.4218-1.584,2.6289-2.8271h1.7471l-3.4394,3.6738,3.7812,5.6172h-1.7461l-3.0791-4.7353-1.3867,1.4228v3.3125h-1.44Z"/><path class="cls-27" d="M517.6633,283.03c0-2.9531,1.6562-4.8613,4.1767-4.8613,2.4844,0,4.0156,1.9082,4.0156,4.5371v.6845H519.175v.4317a2.632,2.632,0,0,0,2.7549,2.81,2.691,2.691,0,0,0,2.5566-1.6026l1.0264.7383a3.8986,3.8986,0,0,1-3.6729,2.124C519.3195,287.8911,517.6633,285.9829,517.6633,283.03Zm1.5117-.8457v.126h5.1318v-.1983a2.4714,2.4714,0,0,0-2.4668-2.7373A2.6413,2.6413,0,0,0,519.175,282.1841Z"/><path class="cls-27" d="M533.8644,278.3843h1.4229l-4.1592,11.4512c-.4141,1.1171-.792,1.4414-2.1611,1.4414h-.7383v-1.2608h1.459l.7021-1.98-3.4756-9.6514h1.44l2.2334,6.32.4316,1.5127h.09l.5049-1.5127Z"/><path class="cls-27" d="M641.1515,266.0757V253.5083h5.0049a3.6022,3.6022,0,0,1,0,7.2022h-3.4931v5.3652Zm1.5118-6.6982h3.4931a1.683,1.683,0,0,0,1.8906-1.8v-.9365a1.6837,1.6837,0,0,0-1.8906-1.8008h-3.4931Z"/><path class="cls-27" d="M651.7345,266.0757v-9.291h1.44v1.7109h.09a2.67,2.67,0,0,1,2.6836-1.7109h.5576v1.44H655.66c-1.5488,0-2.4853.666-2.4853,1.5488v6.3018Z"/><path class="cls-27" d="M657.5676,261.43c0-2.9531,1.71-4.8613,4.1943-4.8613s4.1953,1.9082,4.1953,4.8613-1.71,4.8613-4.1953,4.8613S657.5676,264.3833,657.5676,261.43Zm6.8417.666v-1.332c0-1.9629-1.0986-2.917-2.6474-2.917s-2.6465.9541-2.6465,2.917v1.332c0,1.9629,1.0986,2.917,2.6465,2.917S664.4093,264.0591,664.4093,262.0962Z"/><path class="cls-27" d="M668.3312,256.7847h1.4405v10.7314a1.8979,1.8979,0,0,1-2.0166,2.1612h-.9366v-1.2608h1.5127Zm-.1621-2.9883v-.2344c0-.4863.2705-.8105.8828-.8105s.8819.3242.8819.8105v.2344c0,.4854-.27.81-.8819.81S668.1691,254.2818,668.1691,253.7964Z"/><path class="cls-27" d="M672.1476,261.43c0-2.9531,1.6563-4.8613,4.1768-4.8613,2.4844,0,4.0156,1.9082,4.0156,4.5371v.6845h-6.6807v.4317a2.632,2.632,0,0,0,2.7549,2.81,2.6912,2.6912,0,0,0,2.5567-1.6026l1.0263.7383a3.8984,3.8984,0,0,1-3.6728,2.124C673.8039,266.2915,672.1476,264.3833,672.1476,261.43Zm1.5117-.8457v.126h5.1319v-.1983a2.4713,2.4713,0,0,0-2.4668-2.7373A2.6414,2.6414,0,0,0,673.6593,260.5845Z"/><path class="cls-27" d="M682.03,261.43c0-2.9707,1.53-4.8613,4.1406-4.8613a3.4826,3.4826,0,0,1,3.4756,2.1787l-1.2071.6123a2.2379,2.2379,0,0,0-2.2685-1.5127,2.4948,2.4948,0,0,0-2.5928,2.791v1.584a2.4948,2.4948,0,0,0,2.5928,2.791,2.6208,2.6208,0,0,0,2.52-1.62l1.0449.7021a3.6643,3.6643,0,0,1-3.5654,2.1963C683.56,266.2915,682.03,264.4009,682.03,261.43Z"/><path class="cls-27" d="M693.82,266.0757a1.4181,1.4181,0,0,1-1.53-1.53v-6.5h-1.53v-1.2607h.8642c.6123,0,.81-.2158.81-.8457v-1.7285H693.73v2.5742h2.0341v1.2607H693.73v6.77H695.62v1.2607Z"/><path class="cls-27" d="M655.57,274.3511h1.44v8.4443h.0723l1.4219-1.584,2.6289-2.8271H662.88l-3.4395,3.6738,3.7812,5.6172h-1.746l-3.0791-4.7353-1.3868,1.4228v3.3125h-1.44Z"/><path class="cls-27" d="M664.0656,283.03c0-2.9531,1.6562-4.8613,4.1768-4.8613,2.4843,0,4.0156,1.9082,4.0156,4.5371v.6845h-6.6807v.4317a2.632,2.632,0,0,0,2.7549,2.81,2.6909,2.6909,0,0,0,2.5566-1.6026l1.0264.7383a3.8984,3.8984,0,0,1-3.6728,2.124C665.7218,287.8911,664.0656,285.9829,664.0656,283.03Zm1.5117-.8457v.126h5.1319v-.1983a2.4714,2.4714,0,0,0-2.4668-2.7373A2.6414,2.6414,0,0,0,665.5773,282.1841Z"/><path class="cls-27" d="M680.2668,278.3843H681.69L677.53,289.8355c-.414,1.1171-.7919,1.4414-2.1611,1.4414h-.7383v-1.2608h1.459l.7022-1.98-3.4756-9.6514h1.44l2.2334,6.32.4316,1.5127h.09l.5049-1.5127Z"/></g></svg>