<svg xmlns="http://www.w3.org/2000/svg" width="1000" height="400" viewBox="0 0 1000 400"><defs><style>.cls-1{fill:#fff;}.cls-10,.cls-11,.cls-12,.cls-14,.cls-15,.cls-16,.cls-2,.cls-24,.cls-3,.cls-4,.cls-6,.cls-7,.cls-9{fill:none;stroke-miterlimit:10;}.cls-2,.cls-3,.cls-4{stroke:#d8d8d8;}.cls-3,.cls-7{stroke-dasharray:3 2;}.cls-4{stroke-dasharray:2.9929 1.9952;}.cls-5{fill:#f4f4f4;}.cls-24,.cls-6,.cls-7,.cls-9{stroke:#000f5e;}.cls-8{fill:#edf5ff;}.cls-9{stroke-dasharray:2.9621 1.9747;}.cls-10,.cls-11,.cls-12,.cls-14,.cls-15{stroke:#b380e0;}.cls-11{stroke-dasharray:1.0036 1.0036;}.cls-12{stroke-dasharray:0.9826 0.9826;}.cls-13{fill:#b380e0;}.cls-14{stroke-dasharray:0.9961 0.9961;}.cls-15{stroke-dasharray:1.0041 1.0041;}.cls-16{stroke:#a71c71;}.cls-17{fill:#a71c71;}.cls-18{fill:#6e177d;}.cls-19{fill:#8747b8;}.cls-20{fill:#000f5e;}.cls-21{fill:#db2663;}.cls-22{fill:#ceaceb;}.cls-23{fill:#5aa700;}.cls-24{stroke-width:1.25px;}.cls-25{fill:#272727;}</style></defs><title>symmetric-encryption</title><g id="Visual"><rect class="cls-1" x="48.5" y="83.5" width="425" height="200"/><polyline class="cls-2" points="473.5 282 473.5 283.5 472 283.5"/><line class="cls-3" x1="470" y1="283.5" x2="51" y2="283.5"/><polyline class="cls-2" points="50 283.5 48.5 283.5 48.5 282"/><line class="cls-3" x1="48.5" y1="280" x2="48.5" y2="86"/><polyline class="cls-2" points="48.5 85 48.5 83.5 50 83.5"/><line class="cls-3" x1="52" y1="83.5" x2="471" y2="83.5"/><polyline class="cls-2" points="472 83.5 473.5 83.5 473.5 85"/><line class="cls-3" x1="473.5" y1="87" x2="473.5" y2="281"/><rect class="cls-1" x="524" y="83.7347" width="425" height="199.5305"/><polyline class="cls-2" points="949 281.765 949 283.265 947.5 283.265"/><line class="cls-3" x1="945.5" y1="283.2653" x2="526.5" y2="283.2653"/><polyline class="cls-2" points="525.5 283.265 524 283.265 524 281.765"/><line class="cls-4" x1="524" y1="279.77" x2="524" y2="86.2324"/><polyline class="cls-2" points="524 85.235 524 83.735 525.5 83.735"/><line class="cls-3" x1="527.5" y1="83.7347" x2="946.5" y2="83.7347"/><polyline class="cls-2" points="947.5 83.735 949 83.735 949 85.235"/><line class="cls-4" x1="949" y1="87.23" x2="949" y2="280.7676"/><rect class="cls-5" x="629.5" y="118.5" width="300" height="140"/><polyline class="cls-6" points="929.5 257 929.5 258.5 928 258.5"/><line class="cls-7" x1="926" y1="258.5" x2="632" y2="258.5"/><polyline class="cls-6" points="631 258.5 629.5 258.5 629.5 257"/><line class="cls-7" x1="629.5" y1="255" x2="629.5" y2="121"/><polyline class="cls-6" points="629.5 120 629.5 118.5 631 118.5"/><line class="cls-7" x1="633" y1="118.5" x2="927" y2="118.5"/><polyline class="cls-6" points="928 118.5 929.5 118.5 929.5 120"/><line class="cls-7" x1="929.5" y1="122" x2="929.5" y2="256"/><rect class="cls-5" x="70.5" y="120.5" width="300" height="140"/><polyline class="cls-6" points="370.5 259 370.5 260.5 369 260.5"/><line class="cls-7" x1="367" y1="260.5" x2="73" y2="260.5"/><polyline class="cls-6" points="72 260.5 70.5 260.5 70.5 259"/><line class="cls-7" x1="70.5" y1="257" x2="70.5" y2="123"/><polyline class="cls-6" points="70.5 122 70.5 120.5 72 120.5"/><line class="cls-7" x1="74" y1="120.5" x2="368" y2="120.5"/><polyline class="cls-6" points="369 120.5 370.5 120.5 370.5 122"/><line class="cls-7" x1="370.5" y1="124" x2="370.5" y2="258"/><rect class="cls-8" x="432.8333" y="119" width="133.3333" height="140"/><polyline class="cls-6" points="564.667 119 566.167 119 566.167 120.5"/><line class="cls-7" x1="566.1667" y1="122.5" x2="566.1667" y2="256.5"/><polyline class="cls-6" points="566.167 257.5 566.167 259 564.667 259"/><line class="cls-9" x1="562.6919" y1="259" x2="435.3207" y2="259"/><polyline class="cls-6" points="434.333 259 432.833 259 432.833 257.5"/><line class="cls-7" x1="432.8333" y1="255.5" x2="432.8333" y2="121.5"/><polyline class="cls-6" points="432.833 120.5 432.833 119 434.333 119"/><line class="cls-9" x1="436.3081" y1="119" x2="563.6793" y2="119"/><line class="cls-10" x1="432.4999" y1="316" x2="431.9999" y2="316"/><line class="cls-11" x1="430.9963" y1="316" x2="293.0018" y2="316"/><polyline class="cls-10" points="292.5 316 292 316 292.004 315.5"/><line class="cls-12" x1="292.0127" y1="314.5175" x2="292.379" y2="271.7764"/><line class="cls-10" x1="292.3832" y1="271.2852" x2="292.3875" y2="270.7852"/><rect class="cls-13" x="431.9999" y="312.75" width="1" height="6.5"/><polygon class="cls-13" points="297.361 272.287 292.449 263.609 287.389 272.201 297.361 272.287"/><line class="cls-10" x1="691" y1="270.1762" x2="691" y2="270.6762"/><line class="cls-14" x1="691" y1="271.6723" x2="691" y2="315.002"/><polyline class="cls-10" points="691 315.5 691 316 690.5 316"/><line class="cls-15" x1="689.4959" y1="316" x2="567.502" y2="316"/><line class="cls-10" x1="567" y1="316" x2="566.5" y2="316"/><polygon class="cls-13" points="686.014 271.635 691 263 695.986 271.635 686.014 271.635"/><rect class="cls-13" x="566" y="312.75" width="1" height="6.5"/><line class="cls-16" x1="558.8671" y1="183.5" x2="607.644" y2="183.5"/><circle class="cls-1" cx="559.0801" cy="183.5" r="3.7598"/><path class="cls-17" d="M559.08,187.76a4.26,4.26,0,1,0-4.26-4.26,4.2649,4.2649,0,0,0,4.26,4.26Zm0-7.52a3.26,3.26,0,1,1-3.26,3.26,3.2629,3.2629,0,0,1,3.26-3.26Z"/><polygon class="cls-17" points="606.185 188.486 614.82 183.5 606.185 178.514 606.185 188.486"/><line class="cls-16" x1="361.6718" y1="183.5" x2="410.4488" y2="183.5"/><path class="cls-1" d="M361.8848,187.26a3.76,3.76,0,1,1,3.76-3.76A3.76,3.76,0,0,1,361.8848,187.26Z"/><path class="cls-17" d="M361.8848,187.76a4.26,4.26,0,1,0-4.26-4.26,4.2649,4.2649,0,0,0,4.26,4.26Zm0-7.52a3.26,3.26,0,1,1-3.26,3.26,3.2629,3.2629,0,0,1,3.26-3.26Z"/><polygon class="cls-17" points="408.99 188.486 417.625 183.5 408.99 178.514 408.99 188.486"/><g id="Icon"><path class="cls-18" d="M301.8132,180.29a8.352,8.352,0,0,0-.114-1.322l2.681-2.345-2.277-3.738-3.197,1.044a8.4073,8.4073,0,0,0-2.617-1.547l-.709-3.092h-4.4l-.709,3.092a8.4214,8.4214,0,0,0-2.617,1.548l-3.197-1.045-2.277,3.738,2.68,2.346a7.7779,7.7779,0,0,0,0,2.642l-2.68,2.346,2.278,3.738,3.196-1.044a8.3929,8.3929,0,0,0,2.618,1.547l.708,3.092h4.4l.708-3.092a8.3881,8.3881,0,0,0,2.617-1.547l3.196,1.044,2.279-3.738-2.681-2.345A8.352,8.352,0,0,0,301.8132,180.29Zm-8.433,2.5283a3,3,0,1,1,3-3A3.0011,3.0011,0,0,1,293.38,182.8179Z"/></g><g id="Icon-2" data-name="Icon"><path class="cls-13" d="M287.8132,165.29a8.352,8.352,0,0,0-.114-1.322l2.681-2.345-2.277-3.738-3.197,1.044a8.4073,8.4073,0,0,0-2.617-1.547l-.709-3.092h-4.4l-.709,3.092a8.4214,8.4214,0,0,0-2.617,1.548l-3.197-1.045-2.277,3.738,2.68,2.346a7.7779,7.7779,0,0,0,0,2.642l-2.68,2.346,2.278,3.738,3.196-1.044a8.3929,8.3929,0,0,0,2.618,1.547l.708,3.092h4.4l.708-3.092a8.3881,8.3881,0,0,0,2.617-1.547l3.196,1.044,2.279-3.738-2.681-2.345A8.352,8.352,0,0,0,287.8132,165.29Zm-8.433,2.5283a3,3,0,1,1,3-3A3.0011,3.0011,0,0,1,279.38,167.8179Z"/></g><g id="Icon-3" data-name="Icon"><path class="cls-19" d="M315.8132,165.29a8.352,8.352,0,0,0-.114-1.322l2.681-2.345-2.277-3.738-3.197,1.044a8.4073,8.4073,0,0,0-2.617-1.547l-.709-3.092h-4.4l-.709,3.092a8.4214,8.4214,0,0,0-2.617,1.548l-3.197-1.045-2.277,3.738,2.68,2.346a7.7779,7.7779,0,0,0,0,2.642l-2.68,2.346,2.278,3.738,3.196-1.044a8.3929,8.3929,0,0,0,2.618,1.547l.708,3.092h4.4l.708-3.092a8.3881,8.3881,0,0,0,2.617-1.547l3.196,1.044,2.279-3.738-2.681-2.345A8.352,8.352,0,0,0,315.8132,165.29Zm-8.433,2.5283a3,3,0,1,1,3-3A3.0011,3.0011,0,0,1,307.38,167.8179Z"/></g><g id="Icon-4" data-name="Icon"><path class="cls-18" d="M699.61,180.29a8.352,8.352,0,0,0-.114-1.322l2.681-2.345-2.277-3.738-3.197,1.044a8.4073,8.4073,0,0,0-2.617-1.547l-.709-3.092h-4.4l-.709,3.092a8.4214,8.4214,0,0,0-2.617,1.548l-3.197-1.045-2.277,3.738,2.68,2.346a7.7779,7.7779,0,0,0,0,2.642l-2.68,2.346,2.278,3.738,3.196-1.044a8.3929,8.3929,0,0,0,2.618,1.547l.708,3.092h4.4l.708-3.092a8.3881,8.3881,0,0,0,2.617-1.547l3.196,1.044,2.279-3.738-2.681-2.345A8.352,8.352,0,0,0,699.61,180.29Zm-8.433,2.5283a3,3,0,1,1,3-3A3.0011,3.0011,0,0,1,691.1772,182.8179Z"/></g><g id="Icon-5" data-name="Icon"><path class="cls-13" d="M685.61,165.29a8.352,8.352,0,0,0-.114-1.322l2.681-2.345-2.277-3.738-3.197,1.044a8.4073,8.4073,0,0,0-2.617-1.547l-.709-3.092h-4.4l-.709,3.092a8.4214,8.4214,0,0,0-2.617,1.548l-3.197-1.045-2.277,3.738,2.68,2.346a7.7779,7.7779,0,0,0,0,2.642l-2.68,2.346,2.278,3.738,3.196-1.044a8.3929,8.3929,0,0,0,2.618,1.547l.708,3.092h4.4l.708-3.092a8.3881,8.3881,0,0,0,2.617-1.547l3.196,1.044,2.279-3.738-2.681-2.345A8.352,8.352,0,0,0,685.61,165.29Zm-8.433,2.5283a3,3,0,1,1,3-3A3.0011,3.0011,0,0,1,677.1772,167.8179Z"/></g><g id="Icon-6" data-name="Icon"><path class="cls-19" d="M713.61,165.29a8.352,8.352,0,0,0-.114-1.322l2.681-2.345-2.277-3.738-3.197,1.044a8.4073,8.4073,0,0,0-2.617-1.547l-.709-3.092h-4.4l-.709,3.092a8.4214,8.4214,0,0,0-2.617,1.548l-3.197-1.045-2.277,3.738,2.68,2.346a7.7779,7.7779,0,0,0,0,2.642l-2.68,2.346,2.278,3.738,3.196-1.044a8.3929,8.3929,0,0,0,2.618,1.547l.708,3.092h4.4l.708-3.092a8.3881,8.3881,0,0,0,2.617-1.547l3.196,1.044,2.279-3.738-2.681-2.345A8.352,8.352,0,0,0,713.61,165.29Zm-8.433,2.5283a3,3,0,1,1,3-3A3.0011,3.0011,0,0,1,705.1772,167.8179Z"/></g><polygon class="cls-1" points="887.167 160 887.167 196 856.167 196 856.167 148 874.167 148 874.167 160 887.167 160"/><path class="cls-20" d="M875,147H855v50h33.3333V160.3333Zm11.6667,48.3333h-30V148.6667h16.6666V162h13.3334Z"/><rect class="cls-20" x="861.6667" y="167" width="20" height="1.6667"/><rect class="cls-20" x="861.6667" y="170.3333" width="20" height="1.6667"/><rect class="cls-20" x="861.6667" y="173.6667" width="10" height="1.6667"/><path class="cls-21" d="M884.7143,183.5205a7.9965,7.9965,0,0,0-5.9331.8491v-.8187a4.2479,4.2479,0,0,1,1.4765-3.3078,3.8461,3.8461,0,0,1,5.3235.2475l1.416-1.416a5.8948,5.8948,0,0,0-7.03-1.0734,6.1715,6.1715,0,0,0-3.186,5.5119v2.4995a7.9914,7.9914,0,1,0,7.9331-2.4921Zm2.0241,10.0621-1.414,1.414-2.293-2.293-2.293,2.293-1.414-1.414,2.293-2.293-2.293-2.293,1.414-1.414,2.293,2.293,2.293-2.293,1.414,1.414-2.293,2.293Z"/><polygon class="cls-1" points="138.167 160 138.167 196 107.167 196 107.167 148 125.167 148 125.167 160 138.167 160"/><path class="cls-20" d="M126,147H106v50h33.3333V160.3333Zm11.6667,48.3333h-30V148.6667h16.6666V162h13.3334Z"/><rect class="cls-20" x="112.6667" y="167" width="20" height="1.6667"/><rect class="cls-20" x="112.6667" y="170.3333" width="20" height="1.6667"/><rect class="cls-20" x="112.6667" y="173.6667" width="10" height="1.6667"/><path class="cls-21" d="M135.7143,183.5205a7.9965,7.9965,0,0,0-5.9331.8491v-.8187a4.2479,4.2479,0,0,1,1.4765-3.3078,3.8461,3.8461,0,0,1,5.3235.2475l1.416-1.416a5.8948,5.8948,0,0,0-7.03-1.0734,6.1715,6.1715,0,0,0-3.186,5.5119v2.4995a7.9914,7.9914,0,1,0,7.9331-2.4921Zm2.0241,10.0621-1.414,1.414-2.293-2.293-2.293,2.293-1.414-1.414,2.293-2.293-2.293-2.293,1.414-1.414,2.293,2.293,2.293-2.293,1.414,1.414-2.293,2.293Z"/><path class="cls-22" d="M482.3906,299.3494a14,14,0,1,0,12.6348,20h7.3652l1-2,1,1,1,1h19l6-6-6-6H495.0254a13.9879,13.9879,0,0,0-12.6348-8"/><path class="cls-18" d="M525.0608,306.6115l-29.2-.0006a15.0109,15.0109,0,1,0,0,14.1421l5.63.0006,2.357-2.357,2.357,2.357h18.8562l7.0711-7.0711Zm-.69,12.4755-17.4753,0-1.8691-1.8691-1.1785-1.1785-1.1785,1.1785L500.8,319.0869l-4.9392-.0006h-.9993l-.4709.8816a13.3393,13.3393,0,1,1,0-12.5709l.4708.88h.9988l28.5093.0006,5.4047,5.4047Z"/><circle class="cls-18" cx="477.7773" cy="313.6555" r="3.3333"/><rect class="cls-18" x="508.4181" y="312.8221" width="14.1419" height="1.6667"/><polygon class="cls-1" points="515.59 160 515.59 196 484.59 196 484.59 148 502.59 148 502.59 160 515.59 160"/><path class="cls-20" d="M503.4229,147h-20v50h33.3333V160.3333ZM515.09,195.3333h-30V148.6667h16.6667V162H515.09Z"/><rect class="cls-20" x="490.0895" y="167" width="20" height="1.6667"/><rect class="cls-20" x="490.0895" y="170.3333" width="20" height="1.6667"/><rect class="cls-20" x="490.0895" y="173.6667" width="10" height="1.6667"/><ellipse class="cls-1" cx="511.3135" cy="191" rx="5.5" ry="6"/><path class="cls-23" d="M517.2041,183.29a6.0244,6.0244,0,0,0-8.6074-5.39,6.2233,6.2233,0,0,0-3.3926,5.6521v2.4608a8,8,0,1,0,12-.001Zm-10,0a3.9868,3.9868,0,0,1,6.2723-3.239,4.33,4.33,0,0,1,1.7277,3.5454v.7726a7.9506,7.9506,0,0,0-8,.001Zm2.8246,12.414-3.707-3.707,1.414-1.414,2.293,2.293,5.293-5.293,1.414,1.414Z"/><line class="cls-24" x1="208.6354" y1="173.75" x2="208.6354" y2="188.25"/><line class="cls-24" x1="215.8854" y1="181" x2="201.3854" y2="181"/><line class="cls-24" x1="782.0338" y1="173.75" x2="782.0338" y2="188.25"/><line class="cls-24" x1="789.2838" y1="181" x2="774.7838" y2="181"/></g><g id="Text"><path d="M472.4014,348.6855l.6826-.5722a2.446,2.446,0,0,0,2.0683,1.1006c1.1,0,1.6944-.5723,1.6944-1.4522,0-.7265-.4072-1.09-1.42-1.32l-.627-.1435c-1.3965-.3184-2.167-.9346-2.167-2.1124,0-1.3642,1.0342-2.1005,2.541-2.1005a2.89,2.89,0,0,1,2.542,1.2539l-.6933.5058a2.167,2.167,0,0,0-1.8926-.9463c-.9785,0-1.584.43-1.584,1.2549,0,.7256.4727,1.0557,1.4414,1.2754l.627.1436c1.4961.3408,2.1455,1.0009,2.1455,2.1455,0,1.4082-.99,2.31-2.6407,2.31A3.1813,3.1813,0,0,1,472.4014,348.6855Z"/><path d="M482.7646,344.2188h.8692l-2.542,6.997c-.2529.6826-.4834.88-1.3193.88h-.4512v-.77h.8906l.43-1.21-2.124-5.8974h.8808l1.3633,3.8613.2647.9248h.0547l.3085-.9248Z"/><path d="M484.7549,349.8955v-5.6767h.88v.9248h.0439a1.5272,1.5272,0,0,1,1.5293-1.0567,1.7464,1.7464,0,0,1,1.7383,1.1553h.0225a1.7018,1.7018,0,0,1,1.7265-1.1553c1.1553,0,1.8486.792,1.8486,2.167v3.6416h-.88v-3.4873c0-1.001-.3858-1.5293-1.2432-1.5293-.6934,0-1.332.3525-1.332,1.0781v3.9385h-.88v-3.4873c0-1.0117-.3848-1.5293-1.2207-1.5293-.6934,0-1.3535.3525-1.3535,1.0781v3.9385Z"/><path d="M494.3574,349.8955v-5.6767h.8809v.9248h.0439a1.5265,1.5265,0,0,1,1.5293-1.0567,1.7473,1.7473,0,0,1,1.7383,1.1553h.0215a1.7024,1.7024,0,0,1,1.7275-1.1553c1.1553,0,1.8477.792,1.8477,2.167v3.6416h-.88v-3.4873c0-1.001-.3848-1.5293-1.2432-1.5293-.6933,0-1.331.3525-1.331,1.0781v3.9385h-.88v-3.4873c0-1.0117-.3857-1.5293-1.2217-1.5293-.6924,0-1.3525.3525-1.3525,1.0781v3.9385Z"/><path d="M503.542,347.0576c0-1.8047,1.0127-2.9707,2.5527-2.9707a2.4854,2.4854,0,0,1,2.4532,2.7725v.4179h-4.0811v.2637a1.6079,1.6079,0,0,0,1.6826,1.7168,1.6461,1.6461,0,0,0,1.5625-.9795l.627.4512a2.3809,2.3809,0,0,1-2.2442,1.2978C504.5547,350.0273,503.542,348.8613,503.542,347.0576Zm.9248-.5176v.0772h3.1348v-.1211a1.5093,1.5093,0,0,0-1.5069-1.6719A1.613,1.613,0,0,0,504.4668,346.54Z"/><path d="M511.2539,349.8955a.8665.8665,0,0,1-.9355-.9346v-3.9716h-.9356v-.7705h.5283c.3741,0,.4951-.1319.4951-.5167v-1.0566h.792v1.5733h1.2432v.7705h-1.2432v4.1367h1.1553v.77Z"/><path d="M513.86,349.8955v-5.6767h.88v1.0449h.0547a1.6318,1.6318,0,0,1,1.64-1.0449h.3408v.88h-.5166c-.9463,0-1.5186.4073-1.5186.9463v3.8506Z"/><path d="M517.7979,342.3926V342.25c0-.2979.165-.4951.539-.4951s.5391.1972.5391.4951v.1426c0,.2969-.1651.4951-.5391.4951S517.7979,342.69,517.7979,342.3926Zm.1,1.8262h.88v5.6767h-.88Z"/><path d="M520.23,347.0576c0-1.8154.9346-2.9707,2.53-2.9707a2.1271,2.1271,0,0,1,2.123,1.3311l-.7373.374a1.3667,1.3667,0,0,0-1.3857-.9238,1.524,1.524,0,0,0-1.584,1.705v.9678a1.5249,1.5249,0,0,0,1.584,1.7061,1.6029,1.6029,0,0,0,1.54-.99l.6377.4287a2.236,2.236,0,0,1-2.1777,1.3418C521.1641,350.0273,520.23,348.873,520.23,347.0576Z"/><path d="M492.2842,354.9551h.88v5.1592h.0439l.8691-.9678,1.6065-1.7276h1.0674l-2.1016,2.2442,2.3106,3.4326h-1.0674l-1.8809-2.8936-.8476.8692v2.0244h-.88Z"/><path d="M497.4756,360.2578c0-1.8047,1.0127-2.9707,2.5527-2.9707a2.4853,2.4853,0,0,1,2.4531,2.7725v.4179H498.4v.2637a1.6078,1.6078,0,0,0,1.6826,1.7168,1.6461,1.6461,0,0,0,1.5625-.98l.627.4512a2.3809,2.3809,0,0,1-2.2442,1.2978C498.4883,363.2275,497.4756,362.0615,497.4756,360.2578Zm.9248-.5176v.0772h3.1348v-.1211a1.5093,1.5093,0,0,0-1.5069-1.6719A1.613,1.613,0,0,0,498.4,359.74Z"/><path d="M507.377,357.4189h.8691l-2.542,6.9971c-.2529.6826-.4834.88-1.3193.88h-.4512v-.7695h.8906l.43-1.21-2.124-5.8975h.8808l1.3633,3.8614.2647.9248h.0547l.3086-.9248Z"/><path d="M852.125,219.896v-7.6792h3.0586a2.2012,2.2012,0,0,1,0,4.4009H853.05v3.2783Zm.9248-4.0928h2.1338a1.0285,1.0285,0,0,0,1.1553-1.1v-.5718a1.0285,1.0285,0,0,0-1.1553-1.1H853.05Z"/><path d="M859.6387,219.896a.861.861,0,0,1-.9356-.9131v-7.228h.8809v7.3711h.8359v.77Z"/><path d="M865.82,219.896a.9164.9164,0,0,1-.9785-.9243h-.0557a1.6016,1.6016,0,0,1-1.6386,1.0561,1.6741,1.6741,0,0,1-1.9034-1.7163c0-1.0669.77-1.6611,2.42-1.6611h1.122v-.561c0-.8033-.4394-1.2432-1.3418-1.2432a1.586,1.586,0,0,0-1.4414.8472l-.5273-.4952a2.1562,2.1562,0,0,1,2.0127-1.1113c1.3642,0,2.1787.7153,2.1787,1.9146v3.1245h.6484v.77Zm-1.0342-1.65v-.9351H863.62c-1.001,0-1.4521.3082-1.4521.8584v.231c0,.561.44.88,1.122.88C864.1592,219.28,864.7861,218.8286,864.7861,218.2456Z"/><path d="M867.47,212.3931V212.25c0-.2974.1651-.4951.5391-.4951s.5391.1977.5391.4951v.1431c0,.2968-.1651.4951-.5391.4951S867.47,212.69,867.47,212.3931Zm.1,1.8261h.88v5.6768h-.88Z"/><path d="M870.3193,219.896v-5.6768h.88v.9244h.044a1.61,1.61,0,0,1,1.6064-1.0567c1.166,0,1.9033.7925,1.9033,2.1675v3.6416h-.88v-3.4873c0-1.0122-.44-1.5293-1.2871-1.5293-.7041,0-1.3867.352-1.3867,1.0781v3.9385Z"/><path d="M877.8213,219.896a.8661.8661,0,0,1-.9346-.9351v-3.9716h-.9355v-.77h.5283c.374,0,.4951-.1323.4951-.5171V212.646h.792v1.5732H879.01v.77h-1.2432v4.1367h1.1553v.77Z"/><path d="M879.9658,217.0576c0-1.8042,1.0127-2.9707,2.5528-2.9707a2.4856,2.4856,0,0,1,2.4531,2.7725v.4184h-4.0811v.2637a1.6075,1.6075,0,0,0,1.6826,1.7163,1.6456,1.6456,0,0,0,1.5625-.979l.627.4512a2.3816,2.3816,0,0,1-2.2441,1.2978C880.9785,220.0278,879.9658,218.8618,879.9658,217.0576Zm.9248-.5171v.0772h3.1348v-.1211a1.5094,1.5094,0,0,0-1.5068-1.6724A1.6134,1.6134,0,0,0,880.8906,216.5405Z"/><path d="M885.5869,219.896l2.1016-2.86-2.0137-2.8164h1.0342l1.4414,2.1123h.0332l1.4961-2.1123h.9785l-2.002,2.75,2.0459,2.9263h-1.0009l-1.5069-2.2773h-.0332l-1.6279,2.2773Z"/><path d="M893.1221,219.896a.8661.8661,0,0,1-.9346-.9351v-3.9716h-.9355v-.77h.5283c.374,0,.4951-.1323.4951-.5171V212.646h.792v1.5732h1.2431v.77h-1.2431v4.1367h1.1553v.77Z"/><path d="M687.0811,219.896l-.7706-2.2661H683.208l-.77,2.2661h-.9346l2.6846-7.6792h1.1768l2.6845,7.6792Zm-2.3-6.8208h-.0546l-1.2989,3.74h2.6514Z"/><path d="M689.3232,219.896v-7.6792h4.6875v.8144H690.248v2.398h3.542v.8145h-3.542v2.8383h3.7627v.814Z"/><path d="M695.1758,218.686l.6816-.5722a2.4471,2.4471,0,0,0,2.0684,1.1c1.1006,0,1.6943-.5723,1.6943-1.4522,0-.7261-.4072-1.0893-1.4189-1.32l-.627-.1431c-1.3974-.3188-2.168-.935-2.168-2.1123,0-1.3642,1.0342-2.101,2.542-2.101a2.89,2.89,0,0,1,2.5411,1.2539l-.6934.5063a2.1664,2.1664,0,0,0-1.8916-.9463c-.98,0-1.584.4292-1.584,1.2544,0,.7261.4727,1.0562,1.44,1.2759l.627.1431c1.4971.3413,2.1455,1.0014,2.1455,2.1455,0,1.4082-.99,2.31-2.64,2.31A3.1814,3.1814,0,0,1,695.1758,218.686Z"/><path d="M672.6045,233.0962a.9173.9173,0,0,1-.98-.9243H671.57a1.6029,1.6029,0,0,1-1.64,1.0561,1.6741,1.6741,0,0,1-1.9034-1.7163c0-1.0669.7706-1.6611,2.4209-1.6611H671.57v-.561c0-.8033-.44-1.2432-1.3418-1.2432a1.5838,1.5838,0,0,0-1.4414.8472l-.5283-.4952a2.1579,2.1579,0,0,1,2.0137-1.1113c1.3642,0,2.1777.7153,2.1777,1.9146v3.1245H673.1v.77Zm-1.0342-1.65v-.9351h-1.166c-1.001,0-1.4522.3081-1.4522.8584v.231c0,.561.44.88,1.1221.88C670.9434,232.48,671.57,232.0288,671.57,231.4458Z"/><path d="M675.2881,233.0962a.861.861,0,0,1-.9356-.9131v-7.228h.8809v7.3711h.8359v.77Z"/><path d="M679.38,235.4287c-1.7715,0-2.4971-.5063-2.4971-1.3975a1.064,1.064,0,0,1,.9014-1.1V232.81a.8229.8229,0,0,1-.5059-.792c0-.5723.4072-.8472.98-.99v-.0439a1.8461,1.8461,0,0,1-1.0674-1.7383,1.9459,1.9459,0,0,1,2.1348-1.9585,2.553,2.553,0,0,1,1.0781.22v-.0991c0-.44.1865-.7588.66-.7588h.8467v.77H680.832v.3628a1.8868,1.8868,0,0,1,.6494,1.4634,1.9493,1.9493,0,0,1-2.1455,1.9585,2.89,2.89,0,0,1-.55-.0552c-.374.0991-.748.2862-.748.6382,0,.3408.3515.4287.8691.4287h1.21c1.4082,0,2.0127.5723,2.0127,1.5073C682.13,234.89,681.2061,235.4287,679.38,235.4287Zm.748-2.3877h-1.8925a.7931.7931,0,0,0-.5274.77c0,.4947.3408.9019,1.2315.9019h.8144c.9795,0,1.5508-.3081,1.5508-.9243C681.3047,233.3384,681.0078,233.041,680.1279,233.041Zm.4287-3.6416v-.3076c0-.748-.4726-1.1006-1.2207-1.1006s-1.2216.3526-1.2216,1.1006v.3076c0,.7485.4736,1.1006,1.2216,1.1006S680.5566,230.1479,680.5566,229.3994Z"/><path d="M682.6689,230.2578c0-1.8042,1.045-2.9707,2.5635-2.9707s2.5635,1.1665,2.5635,2.9707-1.0459,2.97-2.5635,2.97S682.6689,232.062,682.6689,230.2578Zm4.1807.4072v-.8144a1.6248,1.6248,0,1,0-3.2344,0v.8144a1.6248,1.6248,0,1,0,3.2344,0Z"/><path d="M689.2471,233.0962v-5.6768h.88v1.045h.0546a1.632,1.632,0,0,1,1.64-1.045h.3408v.88h-.5166c-.9463,0-1.5185.4072-1.5185.9463v3.8506Z"/><path d="M693.1846,225.5933V225.45c0-.2974.165-.4951.539-.4951s.5391.1977.5391.4951v.1431c0,.2968-.165.4951-.5391.4951S693.1846,225.89,693.1846,225.5933Zm.0986,1.8261h.8809v5.6768h-.8809Z"/><path d="M697.2881,233.0962a.8669.8669,0,0,1-.9356-.9351V228.19h-.9355v-.77h.5283c.374,0,.4951-.1323.4951-.5171v-1.0561h.792v1.5732h1.2432v.77h-1.2432v4.1367h1.1553v.77Z"/><path d="M699.8945,224.9551h.88v3.3887h.044a1.61,1.61,0,0,1,1.6064-1.0567c1.166,0,1.9033.7925,1.9033,2.1675v3.6416h-.88v-3.4873c0-1.0122-.44-1.5293-1.2871-1.5293-.7041,0-1.3867.352-1.3867,1.0781v3.9385h-.88Z"/><path d="M706.1426,233.0962v-5.6768h.88v.9244h.0439a1.5278,1.5278,0,0,1,1.5293-1.0567,1.7471,1.7471,0,0,1,1.7383,1.1553h.0224a1.7026,1.7026,0,0,1,1.7266-1.1553c1.1553,0,1.8486.7925,1.8486,2.1675v3.6416h-.88v-3.4873c0-1.0015-.3858-1.5293-1.2432-1.5293-.6934,0-1.332.352-1.332,1.0781v3.9385h-.88v-3.4873c0-1.0122-.3848-1.5293-1.2207-1.5293-.6934,0-1.3535.352-1.3535,1.0781v3.9385Z"/><path d="M476.207,216.1006c0-2.5635,1.1553-4.0156,3.0909-4.0156a2.7137,2.7137,0,0,1,2.6406,1.6831l-.7481.4511a1.929,1.929,0,0,0-1.8925-1.309c-1.32,0-2.1006,1.0449-2.1006,2.6181v1.1441c0,1.5732.78,2.5307,2.1006,2.5307a1.9943,1.9943,0,0,0,1.9589-1.3862l.7364.4619a2.8256,2.8256,0,0,1-2.6953,1.749C477.3623,220.0278,476.207,218.6641,476.207,216.1006Z"/><path d="M483.2354,212.3931V212.25c0-.2974.165-.4951.539-.4951s.5391.1977.5391.4951v.1431c0,.2968-.1651.4951-.5391.4951S483.2354,212.69,483.2354,212.3931Zm.1,1.8261h.88v5.6768h-.88Z"/><path d="M486.085,214.2192h.88v.9244h.044a1.6579,1.6579,0,0,1,1.6611-1.0567c1.42,0,2.3106,1.1553,2.3106,2.9707s-.8907,2.97-2.3106,2.97a1.7109,1.7109,0,0,1-1.6611-1.0561h-.044v3.1245h-.88Zm3.9492,3.3223v-.9678a1.5492,1.5492,0,0,0-1.6065-1.6943c-.8027,0-1.4629.4619-1.4629,1.0889v2.1123c0,.7373.66,1.1552,1.4629,1.1552A1.5492,1.5492,0,0,0,490.0342,217.5415Z"/><path d="M492.4648,211.7549h.88v3.3887h.044a1.61,1.61,0,0,1,1.6064-1.0567c1.166,0,1.9033.7925,1.9033,2.1675v3.6416h-.88v-3.4873c0-1.0122-.44-1.5293-1.2872-1.5293-.7041,0-1.3867.352-1.3867,1.0781v3.9385h-.88Z"/><path d="M498.2939,217.0576c0-1.8042,1.0127-2.9707,2.5528-2.9707a2.4856,2.4856,0,0,1,2.4531,2.7725v.4184h-4.081v.2637a1.6074,1.6074,0,0,0,1.6826,1.7163,1.6457,1.6457,0,0,0,1.5625-.979l.6269.4512a2.3815,2.3815,0,0,1-2.2441,1.2978C499.3066,220.0278,498.2939,218.8618,498.2939,217.0576Zm.9249-.5171v.0772h3.1347v-.1211a1.5094,1.5094,0,0,0-1.5068-1.6724A1.6133,1.6133,0,0,0,499.2188,216.5405Z"/><path d="M504.751,219.896v-5.6768h.8808v1.045h.0547a1.6306,1.6306,0,0,1,1.6387-1.045h.3418v.88h-.5176c-.9463,0-1.5176.4072-1.5176.9463v3.8506Z"/><path d="M510.0869,219.896a.8668.8668,0,0,1-.9355-.9351v-3.9716h-.9356v-.77h.5283c.3741,0,.4952-.1323.4952-.5171V212.646h.7919v1.5732h1.2432v.77h-1.2432v4.1367h1.1553v.77Z"/><path d="M512.2314,217.0576c0-1.8042,1.0118-2.9707,2.5518-2.9707a2.4863,2.4863,0,0,1,2.4541,2.7725v.4184h-4.082v.2637a1.6077,1.6077,0,0,0,1.6836,1.7163,1.6444,1.6444,0,0,0,1.5615-.979l.6279.4512a2.3831,2.3831,0,0,1-2.2451,1.2978C513.2432,220.0278,512.2314,218.8618,512.2314,217.0576Zm.9239-.5171v.0772h3.1357v-.1211a1.51,1.51,0,0,0-1.5078-1.6724A1.6134,1.6134,0,0,0,513.1553,216.5405Z"/><path d="M517.8516,219.896l2.1015-2.86-2.0136-2.8164h1.0341l1.4414,2.1123h.0332l1.4961-2.1123h.98l-2.0029,2.75,2.0469,2.9263h-1.001l-1.5078-2.2773h-.0332l-1.6279,2.2773Z"/><path d="M525.3877,219.896a.8669.8669,0,0,1-.9356-.9351v-3.9716h-.9355v-.77h.5283c.374,0,.4951-.1323.4951-.5171V212.646h.792v1.5732h1.2432v.77H525.332v4.1367h1.1553v.77Z"/><path d="M549.7012,99.0039h3.0459c2.1826,0,3.61,1.4033,3.61,4.186s-1.4277,4.1856-3.61,4.1856h-3.0459Zm3.0459,6.9683c1.1748,0,1.9306-.6953,1.9306-2.1226V102.53c0-1.4273-.7558-2.1231-1.9306-2.1231h-1.4639v5.565Z"/><path d="M557.4531,104.2334c0-1.979,1.0674-3.2622,2.9024-3.2622,1.955,0,2.8545,1.439,2.8545,3.1543v.5034h-4.1612v.1563a1.39,1.39,0,0,0,1.5225,1.5107,1.8981,1.8981,0,0,0,1.5947-.8516l.8281.9239a3.0994,3.0994,0,0,1-2.5908,1.1513C558.5566,107.52,557.4531,106.2363,557.4531,104.2334Zm1.5957-.648v.0962h2.5664v-.1079c0-.8637-.4443-1.4511-1.2363-1.4511A1.3285,1.3285,0,0,0,559.0488,103.5854Z"/><path d="M564.1484,104.2334c0-2.0029,1.044-3.2622,2.8907-3.2622a2.42,2.42,0,0,1,2.4589,1.583l-1.26.5635a1.168,1.168,0,0,0-1.1992-.9112c-.8516,0-1.2832.6-1.2832,1.4751v1.1392c0,.8755.4316,1.4634,1.2832,1.4634a1.3381,1.3381,0,0,0,1.3193-.9834l1.1758.5635a2.4473,2.4473,0,0,1-2.4951,1.6552C565.1924,107.52,564.1484,106.248,564.1484,104.2334Z"/><path d="M570.7246,107.3755v-6.2608H572.26V102.41h.0595a1.6057,1.6057,0,0,1,1.6553-1.2955h.3359v1.4512h-.48c-1.0313,0-1.57.2881-1.57.9717v3.8379Z"/><path d="M579.375,101.1147h1.4385l-2.5186,7.376a1.6183,1.6183,0,0,1-1.7871,1.2837h-.9238v-1.2236h1.1279l.2881-.8755-2.2432-6.5606H576.28l1.0908,3.3106.4082,1.583h.0723l.4316-1.583Z"/><path d="M581.8242,101.1147h1.5352v1.0318h.0478a1.7336,1.7336,0,0,1,1.7276-1.1753c1.582,0,2.458,1.1753,2.458,3.2622,0,2.0986-.876,3.2861-2.458,3.2861a1.7687,1.7687,0,0,1-1.7276-1.1875h-.0478v3.4424h-1.5352Zm4.1621,3.6705v-1.08a1.3424,1.3424,0,0,0-1.3437-1.4751c-.7315,0-1.2832.3955-1.2832,1.0073v1.9907c0,.648.5517,1.02,1.2832,1.02A1.3322,1.3322,0,0,0,585.9863,104.7852Z"/><path d="M590.9062,107.3755a1.4492,1.4492,0,0,1-1.6191-1.5952v-3.4541h-.9228v-1.2115h.48c.456,0,.6-.2158.6-.6474V99.4h1.3789v1.7148h1.2841v1.2115h-1.2841v3.8261H592.01v1.2232Z"/><path d="M593.3086,99.436v-.24c0-.4434.2637-.7676.8994-.7676.624,0,.8994.3242.8994.7676v.24c0,.4434-.2754.7676-.8994.7676C593.5723,100.2036,593.3086,99.8794,593.3086,99.436Zm.1318,1.6787h1.5352v6.2608H593.44Z"/><path d="M596.332,104.2334c0-2.0029,1.1153-3.2622,2.9024-3.2622,1.7988,0,2.914,1.2593,2.914,3.2622,0,2.0146-1.1152,3.2861-2.914,3.2861C597.4473,107.52,596.332,106.248,596.332,104.2334Zm4.209.5874v-1.1631c0-.9355-.5029-1.4512-1.3066-1.4512-.791,0-1.2949.5157-1.2949,1.4512v1.1631c0,.9478.5039,1.4634,1.2949,1.4634C600.0381,106.2842,600.541,105.7686,600.541,104.8208Z"/><path d="M603.5078,107.3755v-6.2608h1.5352v1.0435h.0595a1.7278,1.7278,0,0,1,1.751-1.187c1.2832,0,2.0029.8872,2.0029,2.4463v3.958h-1.5351v-3.8018c0-.8877-.3-1.3432-1.0313-1.3432-.6357,0-1.247.3354-1.247,1.0073v4.1377Z"/><path d="M102.6343,219.896v-7.6792h3.0586a2.2012,2.2012,0,0,1,0,4.4009h-2.1343v3.2783Zm.9243-4.0928h2.1343a1.0287,1.0287,0,0,0,1.1552-1.1v-.5718a1.0287,1.0287,0,0,0-1.1552-1.1h-2.1343Z"/><path d="M110.1475,219.896a.8609.8609,0,0,1-.9351-.9131v-7.228h.88v7.3711h.8359v.77Z"/><path d="M116.33,219.896a.9168.9168,0,0,1-.979-.9243h-.0552a1.6023,1.6023,0,0,1-1.6392,1.0561,1.674,1.674,0,0,1-1.9033-1.7163c0-1.0669.77-1.6611,2.42-1.6611h1.1221v-.561c0-.8033-.44-1.2432-1.3418-1.2432a1.5849,1.5849,0,0,0-1.4414.8472l-.5278-.4952a2.1571,2.1571,0,0,1,2.0132-1.1113c1.3642,0,2.1782.7153,2.1782,1.9146v3.1245h.6489v.77Zm-1.0342-1.65v-.9351h-1.166c-1.001,0-1.4522.3082-1.4522.8584v.231c0,.561.44.88,1.1221.88C114.6685,219.28,115.2954,218.8286,115.2954,218.2456Z"/><path d="M117.979,212.3931V212.25c0-.2974.165-.4951.5391-.4951s.539.1977.539.4951v.1431c0,.2968-.165.4951-.539.4951S117.979,212.69,117.979,212.3931Zm.0991,1.8261h.88v5.6768h-.88Z"/><path d="M120.8281,219.896v-5.6768h.88v.9244h.0439a1.6093,1.6093,0,0,1,1.606-1.0567c1.1665,0,1.9033.7925,1.9033,2.1675v3.6416h-.88v-3.4873c0-1.0122-.44-1.5293-1.2871-1.5293-.7041,0-1.3862.352-1.3862,1.0781v3.9385Z"/><path d="M128.3306,219.896a.8665.8665,0,0,1-.9351-.9351v-3.9716H126.46v-.77h.5283c.374,0,.4951-.1323.4951-.5171V212.646h.792v1.5732h1.2432v.77h-1.2432v4.1367h1.1553v.77Z"/><path d="M130.4751,217.0576c0-1.8042,1.0122-2.9707,2.5522-2.9707a2.486,2.486,0,0,1,2.4537,2.7725v.4184h-4.0816v.2637a1.6076,1.6076,0,0,0,1.6831,1.7163,1.6449,1.6449,0,0,0,1.562-.979l.6275.4512a2.3825,2.3825,0,0,1-2.2447,1.2978C131.4873,220.0278,130.4751,218.8618,130.4751,217.0576Zm.9243-.5171v.0772h3.1353v-.1211a1.51,1.51,0,0,0-1.5074-1.6724A1.6134,1.6134,0,0,0,131.3994,216.5405Z"/><path d="M136.0957,219.896l2.1016-2.86-2.0137-2.8164h1.0342l1.4414,2.1123h.0332l1.4961-2.1123h.979l-2.0025,2.75,2.0464,2.9263H140.21l-1.5073-2.2773H138.67l-1.6279,2.2773Z"/><path d="M143.6313,219.896a.8665.8665,0,0,1-.935-.9351v-3.9716h-.9356v-.77h.5284c.374,0,.4951-.1323.4951-.5171V212.646h.792v1.5732h1.2431v.77h-1.2431v4.1367h1.1552v.77Z"/><path d="M71.7007,107.3755V99.0039h5.5171v1.4033H73.2837v1.9668h3.478v1.4033h-3.478v2.1949h3.9341v1.4033Z"/><path d="M78.8047,107.3755v-6.2608H80.34v1.0435h.06a1.7276,1.7276,0,0,1,1.7515-1.187c1.2832,0,2.0024.8872,2.0024,2.4463v3.958H82.6182v-3.8018c0-.8877-.3-1.3432-1.0313-1.3432-.6357,0-1.2471.3354-1.2471,1.0073v4.1377Z"/><path d="M85.4409,104.2334c0-2.0029,1.0435-3.2622,2.89-3.2622a2.42,2.42,0,0,1,2.4589,1.583l-1.2592.5635a1.1694,1.1694,0,0,0-1.2-.9112c-.8511,0-1.2832.6-1.2832,1.4751v1.1392c0,.8755.4321,1.4634,1.2832,1.4634a1.3385,1.3385,0,0,0,1.3193-.9834l1.1758.5635a2.4469,2.4469,0,0,1-2.4951,1.6552C86.4844,107.52,85.4409,106.248,85.4409,104.2334Z"/><path d="M92.0166,107.3755v-6.2608h1.5352V102.41h.0595a1.6061,1.6061,0,0,1,1.6553-1.2955h.3359v1.4512h-.48c-1.0313,0-1.5708.2881-1.5708.9717v3.8379Z"/><path d="M100.6665,101.1147h1.439l-2.5186,7.376A1.6178,1.6178,0,0,1,97.8,109.7744h-.9233v-1.2236h1.1274l.2876-.8755-2.2427-6.5606h1.5235l1.0913,3.3106.4077,1.583h.0718l.4316-1.583Z"/><path d="M103.1162,101.1147h1.5352v1.0318h.0478a1.7337,1.7337,0,0,1,1.7271-1.1753c1.583,0,2.4585,1.1753,2.4585,3.2622,0,2.0986-.8755,3.2861-2.4585,3.2861a1.769,1.769,0,0,1-1.7271-1.1875h-.0478v3.4424h-1.5352Zm4.1616,3.6705v-1.08a1.3417,1.3417,0,0,0-1.3432-1.4751c-.7315,0-1.2832.3955-1.2832,1.0073v1.9907c0,.648.5517,1.02,1.2832,1.02A1.3316,1.3316,0,0,0,107.2778,104.7852Z"/><path d="M112.1987,107.3755A1.449,1.449,0,0,1,110.58,105.78v-3.4541h-.9234v-1.2115h.48c.4556,0,.6-.2158.6-.6474V99.4h1.3789v1.7148h1.2837v1.2115h-1.2837v3.8261h1.1875v1.2232Z"/><path d="M114.6,99.436v-.24c0-.4434.2642-.7676.9-.7676.6235,0,.8994.3242.8994.7676v.24c0,.4434-.2759.7676-.8994.7676C114.8643,100.2036,114.6,99.8794,114.6,99.436Zm.1323,1.6787h1.5352v6.2608h-1.5352Z"/><path d="M117.624,104.2334c0-2.0029,1.1153-3.2622,2.9024-3.2622,1.7988,0,2.9145,1.2593,2.9145,3.2622,0,2.0146-1.1157,3.2861-2.9145,3.2861C118.7393,107.52,117.624,106.248,117.624,104.2334Zm4.21.5874v-1.1631c0-.9355-.5034-1.4512-1.3071-1.4512-.7915,0-1.2954.5157-1.2954,1.4512v1.1631c0,.9478.5039,1.4634,1.2954,1.4634C121.33,106.2842,121.8335,105.7686,121.8335,104.8208Z"/><path d="M124.8,107.3755v-6.2608h1.5352v1.0435h.0595a1.7276,1.7276,0,0,1,1.7515-1.187c1.2832,0,2.0024.8872,2.0024,2.4463v3.958h-1.5351v-3.8018c0-.8877-.3-1.3432-1.0313-1.3432-.6357,0-1.247.3354-1.247,1.0073v4.1377Z"/><path class="cls-25" d="M49.6084,61.3833l1.6006-1.6167A3.64,3.64,0,0,0,54.01,61.0474c1.184,0,1.76-.5284,1.76-1.3448,0-.6084-.2559-1.0561-1.2964-1.2006L53.37,58.3579c-2.353-.3037-3.4253-1.4565-3.4253-3.3291,0-2.001,1.5689-3.3935,4.1939-3.3935a4.9746,4.9746,0,0,1,3.8735,1.5688L56.395,54.8369A2.92,2.92,0,0,0,53.9941,53.78c-1.0883,0-1.6167.416-1.6167,1.0884,0,.7685.4,1.0566,1.3287,1.2006l1.1044.1758c2.2886.3682,3.3931,1.3926,3.3931,3.3135,0,2.145-1.5683,3.6333-4.3535,3.6333A5.4308,5.4308,0,0,1,49.6084,61.3833Z"/><path class="cls-25" d="M65.2266,54.5967h2.2089l-3.2334,9.7a2.3923,2.3923,0,0,1-2.5771,1.9048H60.1523V64.36h1.5845l.2881-.9283L59.08,54.5967h2.353l1.2324,3.9214.6079,2.4331H63.37l.6245-2.4331Z"/><path class="cls-25" d="M68.6323,63V54.5967h2.3692V56.021h.0957a2.2424,2.2424,0,0,1,2.2568-1.6167,2.3246,2.3246,0,0,1,2.353,1.6968h.0484a2.61,2.61,0,0,1,2.561-1.6968c1.6162,0,2.5127,1.2168,2.5127,3.33V63H78.46V57.9258c0-1.0884-.3681-1.6006-1.1528-1.6006a1.2621,1.2621,0,0,0-1.3926,1.2324V63H73.5464V57.9258c0-1.0884-.3843-1.6006-1.1528-1.6006a1.27,1.27,0,0,0-1.3921,1.2324V63Z"/><path class="cls-25" d="M82.9365,63V54.5967h2.3692V56.021h.0957a2.2424,2.2424,0,0,1,2.2568-1.6167,2.3246,2.3246,0,0,1,2.353,1.6968H90.06a2.61,2.61,0,0,1,2.561-1.6968c1.6162,0,2.5127,1.2168,2.5127,3.33V63H92.7646V57.9258c0-1.0884-.3681-1.6006-1.1528-1.6006a1.2621,1.2621,0,0,0-1.3926,1.2324V63H87.8506V57.9258c0-1.0884-.3843-1.6006-1.1524-1.6006a1.27,1.27,0,0,0-1.3925,1.2324V63Z"/><path class="cls-25" d="M96.7119,58.7905c0-2.6572,1.4087-4.3862,3.9375-4.3862,2.7852,0,3.9058,2.0171,3.9058,4.29v.7041H99.1611v.128a1.651,1.651,0,0,0,1.8565,1.809,2.6634,2.6634,0,0,0,2.0649-1.0083l1.1846,1.4722a4.5536,4.5536,0,0,1-3.5215,1.3926C98.1685,63.1919,96.7119,61.48,96.7119,58.7905Zm2.4492-.9126v.128h2.9449v-.1441c0-1.0244-.4639-1.7124-1.4082-1.7124A1.5362,1.5362,0,0,0,99.1611,57.8779Z"/><path class="cls-25" d="M109.1777,63a2.2121,2.2121,0,0,1-2.497-2.4492V56.4375h-1.1846V54.5967h.5923c.64,0,.8325-.32.8325-.8965V52.3237h2.1284v2.273h1.6651v1.8408h-1.6651v4.7217h1.5366V63Z"/><path class="cls-25" d="M112.36,63V54.5967H114.73v1.8247h.08a2.1075,2.1075,0,0,1,2.145-1.8247h.416v2.209h-.5918c-1.3769,0-2.0488.3037-2.0488,1.28V63Z"/><path class="cls-25" d="M118.6323,52.5317V52.18c0-.6724.416-1.1685,1.3765-1.1685s1.3765.4961,1.3765,1.1685v.352c0,.6724-.4161,1.1685-1.3765,1.1685S118.6323,53.2041,118.6323,52.5317Zm.1919,2.065h2.3692V63h-2.3692Z"/><path class="cls-25" d="M122.8716,58.7905c0-2.6894,1.3926-4.3862,3.9219-4.3862a3.3027,3.3027,0,0,1,3.3613,2.1934l-1.9209.832a1.3916,1.3916,0,0,0-1.44-1.1524c-.96,0-1.4571.688-1.4571,1.7447v1.5688c0,1.0562.4966,1.7446,1.4571,1.7446a1.58,1.58,0,0,0,1.5683-1.2646l1.8408.8a3.2919,3.2919,0,0,1-3.4091,2.3208C124.2642,63.1919,122.8716,61.48,122.8716,58.7905Z"/><path class="cls-25" d="M134.9194,58.7905c0-2.6572,1.4087-4.3862,3.9375-4.3862,2.7852,0,3.9058,2.0171,3.9058,4.29v.7041h-5.394v.128a1.6509,1.6509,0,0,0,1.8564,1.809,2.6634,2.6634,0,0,0,2.0649-1.0083l1.1846,1.4722a4.5535,4.5535,0,0,1-3.5215,1.3926C136.376,63.1919,134.9194,61.48,134.9194,58.7905Zm2.4493-.9126v.128h2.9448v-.1441c0-1.0244-.4639-1.7124-1.4082-1.7124A1.5361,1.5361,0,0,0,137.3687,57.8779Z"/><path class="cls-25" d="M144.44,63V54.5967h2.3691V56.021h.0957a2.2915,2.2915,0,0,1,2.3369-1.6167c1.7129,0,2.625,1.2168,2.625,3.33V63h-2.3686V57.9258c0-1.0723-.3042-1.6006-1.1685-1.6006-.7686,0-1.52.4-1.52,1.2324V63Z"/><path class="cls-25" d="M153.4473,58.7905c0-2.6894,1.3925-4.3862,3.9218-4.3862a3.3027,3.3027,0,0,1,3.3614,2.1934l-1.9209.832a1.3917,1.3917,0,0,0-1.44-1.1524c-.96,0-1.457.688-1.457,1.7447v1.5688c0,1.0562.4966,1.7446,1.457,1.7446a1.58,1.58,0,0,0,1.5684-1.2646l1.8408.8a3.292,3.292,0,0,1-3.4092,2.3208C154.84,63.1919,153.4473,61.48,153.4473,58.7905Z"/><path class="cls-25" d="M162.2476,63V54.5967h2.3691v1.8247h.08a2.1075,2.1075,0,0,1,2.145-1.8247h.416v2.209h-.5918c-1.3769,0-2.0488.3037-2.0488,1.28V63Z"/><path class="cls-25" d="M173.9614,54.5967H176.17l-3.2329,9.7a2.3923,2.3923,0,0,1-2.5771,1.9048h-1.4727V64.36h1.5845l.2881-.9283-2.9449-8.8354h2.3531L171.4,58.5181l.6079,2.4331h.0962l.6245-2.4331Z"/><path class="cls-25" d="M177.3672,54.5967h2.3691v1.4087h.08a2.2762,2.2762,0,0,1,2.2573-1.6011c2.1289,0,3.233,1.5366,3.233,4.3862s-1.1041,4.4014-3.233,4.4014a2.2947,2.2947,0,0,1-2.2573-1.6006h-.08v4.61h-2.3691Zm5.4741,4.93V58.07a1.5792,1.5792,0,0,0-1.5527-1.7446c-.896,0-1.5523.4644-1.5523,1.2324v2.481c0,.7685.6563,1.2329,1.5523,1.2329A1.5793,1.5793,0,0,0,182.8413,59.5264Z"/><path class="cls-25" d="M189.9443,63a2.2121,2.2121,0,0,1-2.497-2.4492V56.4375h-1.1846V54.5967h.5923c.64,0,.8325-.32.8325-.8965V52.3237h2.1284v2.273h1.6651v1.8408h-1.6651v4.7217h1.5366V63Z"/><path class="cls-25" d="M192.9351,52.5317V52.18c0-.6724.416-1.1685,1.3764-1.1685s1.3765.4961,1.3765,1.1685v.352c0,.6724-.416,1.1685-1.3765,1.1685S192.9351,53.2041,192.9351,52.5317Zm.1919,2.065h2.3691V63H193.127Z"/><path class="cls-25" d="M197.1748,58.7905c0-2.7055,1.4727-4.3862,3.9375-4.3862s3.9375,1.6807,3.9375,4.3862-1.4722,4.4014-3.9375,4.4014S197.1748,61.4956,197.1748,58.7905Zm5.41.8643V57.9419c0-1.0562-.544-1.6646-1.4727-1.6646s-1.4727.6084-1.4727,1.6646v1.7129c0,1.0561.5445,1.6645,1.4727,1.6645S202.585,60.7109,202.585,59.6548Z"/><path class="cls-25" d="M206.7266,63V54.5967h2.3691V56.021h.0957a2.2915,2.2915,0,0,1,2.3369-1.6167c1.7129,0,2.625,1.2168,2.625,3.33V63h-2.3686V57.9258c0-1.0723-.3042-1.6006-1.1685-1.6006-.7685,0-1.52.4-1.52,1.2324V63Z"/><path d="M289.2842,219.896l-.7705-2.2661h-3.1021l-.7705,2.2661h-.935l2.6845-7.6792h1.1773l2.6841,7.6792Zm-2.2993-6.8208H286.93l-1.2984,3.74h2.6514Z"/><path d="M291.5269,219.896v-7.6792h4.687v.8144h-3.7627v2.398h3.5425v.8145h-3.5425v2.8383h3.7627v.814Z"/><path d="M297.3789,218.686l.6821-.5722a2.4465,2.4465,0,0,0,2.0684,1.1c1.1,0,1.6943-.5723,1.6943-1.4522,0-.7261-.4072-1.0893-1.4194-1.32l-.627-.1431c-1.3969-.3188-2.1674-.935-2.1674-2.1123,0-1.3642,1.0341-2.101,2.5415-2.101a2.8908,2.8908,0,0,1,2.5415,1.2539l-.6934.5063a2.1667,2.1667,0,0,0-1.8921-.9463c-.979,0-1.584.4292-1.584,1.2544,0,.7261.4727,1.0562,1.441,1.2759l.6269.1431c1.4966.3413,2.1455,1.0014,2.1455,2.1455,0,1.4082-.99,2.31-2.64,2.31A3.1815,3.1815,0,0,1,297.3789,218.686Z"/><path d="M274.8076,233.0962a.9168.9168,0,0,1-.979-.9243h-.0552a1.6022,1.6022,0,0,1-1.6391,1.0561,1.674,1.674,0,0,1-1.9033-1.7163c0-1.0669.7705-1.6611,2.42-1.6611h1.122v-.561c0-.8033-.44-1.2432-1.3418-1.2432a1.5849,1.5849,0,0,0-1.4414.8472l-.5278-.4952a2.1571,2.1571,0,0,1,2.0132-1.1113c1.3642,0,2.1782.7153,2.1782,1.9146v3.1245h.6489v.77Zm-1.0342-1.65v-.9351h-1.166c-1.001,0-1.4521.3081-1.4521.8584v.231c0,.561.44.88,1.122.88C273.1465,232.48,273.7734,232.0288,273.7734,231.4458Z"/><path d="M277.4912,233.0962a.8608.8608,0,0,1-.935-.9131v-7.228h.88v7.3711h.836v.77Z"/><path d="M281.583,235.4287c-1.771,0-2.4971-.5063-2.4971-1.3975a1.0641,1.0641,0,0,1,.9019-1.1V232.81a.8221.8221,0,0,1-.5059-.792c0-.5723.4073-.8472.979-.99v-.0439a1.8456,1.8456,0,0,1-1.0669-1.7383,1.9455,1.9455,0,0,1,2.1343-1.9585,2.5494,2.5494,0,0,1,1.0781.22v-.0991c0-.44.1871-.7588.66-.7588h.8472v.77h-1.0782v.3628a1.8881,1.8881,0,0,1,.649,1.4634,1.9491,1.9491,0,0,1-2.1455,1.9585,2.8935,2.8935,0,0,1-.55-.0552c-.3741.0991-.7481.2862-.7481.6382,0,.3408.3521.4287.8692.4287h1.21c1.4082,0,2.0132.5723,2.0132,1.5073C284.3335,234.89,283.41,235.4287,281.583,235.4287Zm.7485-2.3877H280.439a.7931.7931,0,0,0-.5279.77c0,.4947.3409.9019,1.232.9019h.8139c.98,0,1.5513-.3081,1.5513-.9243C283.5083,233.3384,283.2114,233.041,282.3315,233.041Zm.4288-3.6416v-.3076c0-.748-.4732-1.1006-1.2212-1.1006s-1.2212.3526-1.2212,1.1006v.3076c0,.7485.4731,1.1006,1.2212,1.1006S282.76,230.1479,282.76,229.3994Z"/><path d="M284.8721,230.2578c0-1.8042,1.0449-2.9707,2.5634-2.9707s2.5635,1.1665,2.5635,2.9707-1.0454,2.97-2.5635,2.97S284.8721,232.062,284.8721,230.2578Zm4.1806.4072v-.8144a1.6248,1.6248,0,1,0-3.2343,0v.8144a1.6248,1.6248,0,1,0,3.2343,0Z"/><path d="M291.45,233.0962v-5.6768h.88v1.045h.0547a1.6311,1.6311,0,0,1,1.6391-1.045h.3413v.88h-.5171c-.9463,0-1.518.4072-1.518.9463v3.8506Z"/><path d="M295.3877,225.5933V225.45c0-.2974.165-.4951.5391-.4951s.539.1977.539.4951v.1431c0,.2968-.165.4951-.539.4951S295.3877,225.89,295.3877,225.5933Zm.0991,1.8261h.88v5.6768h-.88Z"/><path d="M299.4912,233.0962a.8664.8664,0,0,1-.935-.9351V228.19h-.9356v-.77h.5283c.374,0,.4951-.1323.4951-.5171v-1.0561h.792v1.5732h1.2432v.77H299.436v4.1367h1.1553v.77Z"/><path d="M302.0977,224.9551h.88v3.3887h.044a1.6093,1.6093,0,0,1,1.6059-1.0567c1.1665,0,1.9033.7925,1.9033,2.1675v3.6416h-.88v-3.4873c0-1.0122-.4405-1.5293-1.2871-1.5293-.7041,0-1.3863.352-1.3863,1.0781v3.9385h-.88Z"/><path d="M308.3457,233.0962v-5.6768h.88v.9244h.0439a1.5273,1.5273,0,0,1,1.5293-1.0567,1.7475,1.7475,0,0,1,1.7383,1.1553h.022a1.7028,1.7028,0,0,1,1.727-1.1553c1.1553,0,1.8482.7925,1.8482,2.1675v3.6416h-.88v-3.4873c0-1.0015-.3853-1.5293-1.2432-1.5293-.6933,0-1.3315.352-1.3315,1.0781v3.9385h-.88v-3.4873c0-1.0122-.3853-1.5293-1.2212-1.5293-.6929,0-1.353.352-1.353,1.0781v3.9385Z"/></g></svg>