<svg xmlns="http://www.w3.org/2000/svg" viewBox="0 0 1000 400"><defs><clipPath id="a"><path fill="none" d="M467.65 298.68h64.48v30h-64.48z"/></clipPath><clipPath id="b"><path fill="none" d="M467.65 298.68h64.48v30h-64.48z"/></clipPath><clipPath id="c"><path fill="none" d="M468.39 299.35h62v28h-62z"/></clipPath><clipPath id="d"><path fill="none" d="M855 147h35.78v52.29H855z"/></clipPath><clipPath id="e"><path fill="none" d="M198.64 171h20v20h-20z"/></clipPath><clipPath id="f"><path fill="none" d="M666.18 154.29h50v37h-50z"/></clipPath><clipPath id="g"><path fill="none" d="M482 147h35.78v52.29H482z"/></clipPath><clipPath id="h"><path fill="none" d="M268.38 154.29h50v37h-50z"/></clipPath><clipPath id="i"><path fill="none" d="M772.03 171h20v20h-20z"/></clipPath><clipPath id="j"><path fill="none" d="M106 147h35.78v52.29H106z"/></clipPath></defs><g data-name="Visual"><path fill="#fff" d="M48.5 83.5h425v200h-425z"/><path fill="none" stroke="#d8d8d8" stroke-miterlimit="10" d="M473.5 282v1.5H472"/><path fill="none" stroke="#d8d8d8" stroke-miterlimit="10" stroke-dasharray="3 2" d="M470 283.5H51"/><path fill="none" stroke="#d8d8d8" stroke-miterlimit="10" d="M50 283.5h-1.5V282"/><path fill="none" stroke="#d8d8d8" stroke-miterlimit="10" stroke-dasharray="3 2" d="M48.5 280V86"/><path fill="none" stroke="#d8d8d8" stroke-miterlimit="10" d="M48.5 85v-1.5H50"/><path fill="none" stroke="#d8d8d8" stroke-miterlimit="10" stroke-dasharray="3 2" d="M52 83.5h419"/><path fill="none" stroke="#d8d8d8" stroke-miterlimit="10" d="M472 83.5h1.5V85"/><path fill="none" stroke="#d8d8d8" stroke-miterlimit="10" stroke-dasharray="3 2" d="M473.5 87v194"/><path fill="#fff" d="M524 83.73h425v199.53H524z"/><path fill="none" stroke="#d8d8d8" stroke-miterlimit="10" d="M949 281.76v1.5h-1.5"/><path fill="none" stroke="#d8d8d8" stroke-miterlimit="10" stroke-dasharray="3 2" d="M945.5 283.27h-419"/><path fill="none" stroke="#d8d8d8" stroke-miterlimit="10" d="M525.5 283.26H524v-1.5"/><path fill="none" stroke="#d8d8d8" stroke-miterlimit="10" stroke-dasharray="2.99 2" d="M524 279.77V86.23"/><path fill="none" stroke="#d8d8d8" stroke-miterlimit="10" d="M524 85.23v-1.5h1.5"/><path fill="none" stroke="#d8d8d8" stroke-miterlimit="10" stroke-dasharray="3 2" d="M527.5 83.73h419"/><path fill="none" stroke="#d8d8d8" stroke-miterlimit="10" d="M947.5 83.73h1.5v1.5"/><path fill="none" stroke="#d8d8d8" stroke-miterlimit="10" stroke-dasharray="2.99 2" d="M949 87.23v193.54"/><path fill="#f4f4f4" d="M629.5 118.5h300v140h-300z"/><path fill="none" stroke="#000f5e" stroke-miterlimit="10" d="M929.5 257v1.5H928"/><path fill="none" stroke="#000f5e" stroke-miterlimit="10" stroke-dasharray="3 2" d="M926 258.5H632"/><path fill="none" stroke="#000f5e" stroke-miterlimit="10" d="M631 258.5h-1.5V257"/><path fill="none" stroke="#000f5e" stroke-miterlimit="10" stroke-dasharray="3 2" d="M629.5 255V121"/><path fill="none" stroke="#000f5e" stroke-miterlimit="10" d="M629.5 120v-1.5h1.5"/><path fill="none" stroke="#000f5e" stroke-miterlimit="10" stroke-dasharray="3 2" d="M633 118.5h294"/><path fill="none" stroke="#000f5e" stroke-miterlimit="10" d="M928 118.5h1.5v1.5"/><path fill="none" stroke="#000f5e" stroke-miterlimit="10" stroke-dasharray="3 2" d="M929.5 122v134"/><path fill="#f4f4f4" d="M70.5 120.5h300v140h-300z"/><path fill="none" stroke="#000f5e" stroke-miterlimit="10" d="M370.5 259v1.5H369"/><path fill="none" stroke="#000f5e" stroke-miterlimit="10" stroke-dasharray="3 2" d="M367 260.5H73"/><path fill="none" stroke="#000f5e" stroke-miterlimit="10" d="M72 260.5h-1.5V259"/><path fill="none" stroke="#000f5e" stroke-miterlimit="10" stroke-dasharray="3 2" d="M70.5 257V123"/><path fill="none" stroke="#000f5e" stroke-miterlimit="10" d="M70.5 122v-1.5H72"/><path fill="none" stroke="#000f5e" stroke-miterlimit="10" stroke-dasharray="3 2" d="M74 120.5h294"/><path fill="none" stroke="#000f5e" stroke-miterlimit="10" d="M369 120.5h1.5v1.5"/><path fill="none" stroke="#000f5e" stroke-miterlimit="10" stroke-dasharray="3 2" d="M370.5 124v134"/><path fill="#edf5ff" d="M432.83 119h133.33v140H432.83z"/><path fill="none" stroke="#000f5e" stroke-miterlimit="10" d="M564.67 119h1.5v1.5"/><path fill="none" stroke="#000f5e" stroke-miterlimit="10" stroke-dasharray="3 2" d="M566.17 122.5v134"/><path fill="none" stroke="#000f5e" stroke-miterlimit="10" d="M566.17 257.5v1.5h-1.5"/><path fill="none" stroke="#000f5e" stroke-miterlimit="10" stroke-dasharray="2.96 1.97" d="M562.69 259H435.32"/><path fill="none" stroke="#000f5e" stroke-miterlimit="10" d="M434.33 259h-1.5v-1.5"/><path fill="none" stroke="#000f5e" stroke-miterlimit="10" stroke-dasharray="3 2" d="M432.83 255.5v-134"/><path fill="none" stroke="#000f5e" stroke-miterlimit="10" d="M432.83 120.5V119h1.5"/><path fill="none" stroke="#000f5e" stroke-miterlimit="10" stroke-dasharray="2.96 1.97" d="M436.31 119h127.37"/><path fill="none" stroke="#b380e0" stroke-miterlimit="10" d="M432.5 316h-.5"/><path fill="none" stroke="#b380e0" stroke-miterlimit="10" stroke-dasharray="1 1" d="M431 316H293"/><path fill="none" stroke="#b380e0" stroke-miterlimit="10" d="M292.5 316h-.5v-.5"/><path fill="none" stroke="#b380e0" stroke-miterlimit="10" stroke-dasharray="0.98 0.98" d="M292.01 314.52l.37-42.74"/><path fill="none" stroke="#b380e0" stroke-miterlimit="10" d="M292.38 271.29l.01-.5"/><path fill="#b380e0" d="M432 312.75h1v6.5h-1zM297.36 272.29l-4.91-8.68-5.06 8.59 9.97.09z"/><path fill="none" stroke="#b380e0" stroke-miterlimit="10" d="M691 270.18v.5"/><path fill="none" stroke="#b380e0" stroke-miterlimit="10" stroke-dasharray="1 1" d="M691 271.67V315"/><path fill="none" stroke="#b380e0" stroke-miterlimit="10" d="M691 315.5v.5h-.5"/><path fill="none" stroke="#b380e0" stroke-miterlimit="10" stroke-dasharray="1 1" d="M689.5 316h-122"/><path fill="none" stroke="#b380e0" stroke-miterlimit="10" d="M567 316h-.5"/><path fill="#b380e0" d="M686.01 271.63L691 263l4.99 8.63h-9.98zM566 312.75h1v6.5h-1z"/><g clip-path="url(#a)" data-name="Root key"><g clip-path="url(#b)"><g clip-path="url(#c)" opacity=".65"><path d="M524.39 307.35H495a14 14 0 1 0 0 12h7.36v-2h3v2h19l6-6z" fill="#b380e0"/></g><path d="M525.06 306.61h-29.2a15 15 0 1 0 0 14.14h5.63l2.36-2.36 2.36 2.36h18.86l7.07-7.07zm-.69 12.48H506.9l-1.9-1.87-1.15-1.22-1.18 1.18-1.87 1.87h-5.94l-.47.88a13.34 13.34 0 1 1 0-12.57l.47.88h29.51l5.4 5.41z" fill="#6e177d"/><path d="M480.13 311.3a3.33 3.33 0 1 1-4.71 0 3.33 3.33 0 0 1 4.71 0M508.42 312.82h14.14v1.67h-14.14z" fill="#6e177d"/></g></g><g clip-path="url(#d)" data-name="Ciphertext"><path fill="#fff" d="M873.39 160v-12h-17v48h31v-36h-14z"/><path d="M856.67 148.67h16.67V162h13.33v33.33h-30zM855 147v50h33.33v-36.67L875 147z" fill="#000f5e"/><path fill="#000f5e" d="M861.67 167h20v1.67h-20zM861.67 170.33h20V172h-20zM861.67 173.67h10v1.67h-10z"/><g clip-path="url(#d)"><path d="M884.71 183.52a8 8 0 0 0-5.93.85v-.82a4.24 4.24 0 0 1 1.48-3.31 3.85 3.85 0 0 1 5.32.25l1.42-1.42a5.9 5.9 0 0 0-7-1.07 6.17 6.17 0 0 0-3.19 5.51V186a8 8 0 1 0 7.93-2.49m2 10.06l-1.42 1.43-2.32-2.3-2.26 2.3-1.41-1.41 2.29-2.29-2.3-2.3 1.41-1.41 2.29 2.29 2.29-2.29 1.41 1.41-2.29 2.29z" fill="#db2663"/></g></g><g clip-path="url(#e)" data-name="Plus sign"><g clip-path="url(#e)"><path fill="none" stroke="#000f5e" stroke-miterlimit="10" stroke-width="1.75" d="M198.64 181h20"/></g><g clip-path="url(#e)"><path fill="none" stroke="#000f5e" stroke-miterlimit="10" stroke-width="1.75" d="M208.64 191v-20"/></g></g><g clip-path="url(#f)" data-name="AES-GCM algorithm"><path d="M699.61 180.29a8.38 8.38 0 0 0-.11-1.32l2.68-2.34-2.28-3.74-3.2 1a8.43 8.43 0 0 0-2.62-1.55l-.71-3.09H689l-.71 3.09a8.44 8.44 0 0 0-2.62 1.55l-3.2-1-2.28 3.74 2.68 2.35a7.78 7.78 0 0 0 0 2.64l-2.69 2.38 2.28 3.74 3.2-1a8.41 8.41 0 0 0 2.62 1.55l.71 3.09h4.4l.71-3.09a8.41 8.41 0 0 0 2.62-1.55l3.2 1 2.28-3.74-2.68-2.34a8.36 8.36 0 0 0 .11-1.32m-8.43 2.53a3 3 0 1 1 3-3 3 3 0 0 1-3 3" fill="#001689"/><path d="M685.61 165.29a8.38 8.38 0 0 0-.11-1.32l2.68-2.34-2.28-3.74-3.2 1a8.43 8.43 0 0 0-2.62-1.55l-.71-3.09H675l-.71 3.09a8.44 8.44 0 0 0-2.62 1.55l-3.2-1-2.28 3.74 2.68 2.35a7.78 7.78 0 0 0 0 2.64l-2.69 2.38 2.28 3.74 3.2-1a8.41 8.41 0 0 0 2.62 1.55l.71 3.09h4.4l.71-3.09a8.41 8.41 0 0 0 2.62-1.55l3.2 1 2.28-3.74-2.68-2.35a8.36 8.36 0 0 0 .11-1.32m-8.43 2.53a3 3 0 1 1 3-3 3 3 0 0 1-3 3" fill="#69a6ff"/><path d="M713.61 165.29a8.38 8.38 0 0 0-.11-1.32l2.68-2.34-2.28-3.74-3.2 1a8.43 8.43 0 0 0-2.62-1.55l-.71-3.09H703l-.71 3.09a8.44 8.44 0 0 0-2.62 1.55l-3.2-1-2.28 3.74 2.68 2.35a7.78 7.78 0 0 0 0 2.64l-2.69 2.38 2.28 3.74 3.2-1a8.41 8.41 0 0 0 2.62 1.55l.71 3.09h4.4l.71-3.09a8.41 8.41 0 0 0 2.62-1.55l3.2 1 2.28-3.74-2.68-2.35a8.36 8.36 0 0 0 .11-1.32m-8.43 2.53a3 3 0 1 1 3-3 3 3 0 0 1-3 3" fill="#003bc9"/></g><path fill="none" stroke="#a71c71" stroke-miterlimit="10" d="M558.87 183.5h48.77"/><circle cx="559.08" cy="183.5" r="3.76" fill="#fff"/><path d="M559.08 187.76a4.26 4.26 0 1 0-4.26-4.26 4.26 4.26 0 0 0 4.26 4.26zm0-7.52a3.26 3.26 0 1 1-3.26 3.26 3.26 3.26 0 0 1 3.26-3.26zM606.18 188.49l8.64-4.99-8.64-4.99v9.98z" fill="#a71c71"/><g clip-path="url(#g)" data-name="Plaintext"><path fill="#fff" d="M514.39 160v36h-31v-48h18v12h13z"/><path d="M483.67 148.67h16.67V162h13.33v33.33h-30zM482 147v50h33.33v-36.67L502 147z" fill="#000f5e"/><path fill="#000f5e" d="M488.67 167h20v1.67h-20zM488.67 170.33h20V172h-20zM488.67 173.67h10v1.67h-10z"/><g clip-path="url(#g)"><path d="M515.39 191a5.52 5.52 0 1 1-5.5-6 5.77 5.77 0 0 1 5.5 6" fill="#fff"/><path d="M515.78 183.29a6 6 0 0 0-8.61-5.39 6.22 6.22 0 0 0-3.39 5.65V186a8 8 0 1 0 12 0zm-10 0a4 4 0 0 1 6.27-3.24 4.33 4.33 0 0 1 1.73 3.55v.77a8 8 0 0 0-8 0zm2.82 12.41l-3.7-3.7 1.41-1.41 2.29 2.29 5.29-5.29 1.41 1.41z" fill="#5aa700"/></g></g><path fill="none" stroke="#a71c71" stroke-miterlimit="10" d="M361.67 183.5h48.78"/><circle cx="361.88" cy="183.5" r="3.76" fill="#fff"/><path d="M361.88 187.76a4.26 4.26 0 1 0-4.26-4.26 4.26 4.26 0 0 0 4.26 4.26zm0-7.52a3.26 3.26 0 1 1-3.26 3.26 3.26 3.26 0 0 1 3.26-3.26zM408.99 188.49l8.64-4.99-8.64-4.99v9.98z" fill="#a71c71"/><g clip-path="url(#h)" data-name="AES-GCM algorithm"><path d="M301.81 180.29a8.38 8.38 0 0 0-.11-1.32l2.68-2.34-2.28-3.74-3.2 1a8.43 8.43 0 0 0-2.62-1.55l-.71-3.09h-4.4l-.71 3.09a8.44 8.44 0 0 0-2.62 1.55l-3.2-1-2.28 3.74 2.68 2.35a7.78 7.78 0 0 0 0 2.64l-2.66 2.38 2.28 3.74 3.2-1a8.41 8.41 0 0 0 2.62 1.55l.71 3.09h4.4l.71-3.09a8.41 8.41 0 0 0 2.62-1.55l3.2 1 2.28-3.74-2.68-2.34a8.36 8.36 0 0 0 .11-1.32m-8.43 2.53a3 3 0 1 1 3-3 3 3 0 0 1-3 3" fill="#001689"/><path d="M287.81 165.29a8.38 8.38 0 0 0-.11-1.32l2.68-2.34-2.28-3.74-3.2 1a8.43 8.43 0 0 0-2.62-1.55l-.71-3.09h-4.4l-.71 3.09a8.44 8.44 0 0 0-2.62 1.55l-3.2-1-2.28 3.74 2.68 2.35a7.78 7.78 0 0 0 0 2.64l-2.66 2.38 2.28 3.74 3.2-1a8.41 8.41 0 0 0 2.62 1.55l.71 3.09h4.4l.71-3.09a8.41 8.41 0 0 0 2.62-1.55l3.2 1 2.28-3.74-2.68-2.35a8.36 8.36 0 0 0 .11-1.32m-8.43 2.53a3 3 0 1 1 3-3 3 3 0 0 1-3 3" fill="#69a6ff"/><path d="M315.81 165.29a8.38 8.38 0 0 0-.11-1.32l2.68-2.34-2.28-3.74-3.2 1a8.43 8.43 0 0 0-2.62-1.55l-.71-3.09h-4.4l-.71 3.09a8.44 8.44 0 0 0-2.62 1.55l-3.2-1-2.28 3.74 2.68 2.35a7.78 7.78 0 0 0 0 2.64l-2.66 2.38 2.28 3.74 3.2-1a8.41 8.41 0 0 0 2.62 1.55l.71 3.09h4.4l.71-3.09a8.41 8.41 0 0 0 2.62-1.55l3.2 1 2.28-3.74-2.68-2.35a8.36 8.36 0 0 0 .11-1.32m-8.43 2.53a3 3 0 1 1 3-3 3 3 0 0 1-3 3" fill="#003bc9"/></g><g clip-path="url(#i)" data-name="Plus sign"><g clip-path="url(#i)"><path fill="none" stroke="#000f5e" stroke-miterlimit="10" stroke-width="1.75" d="M772.03 181h20"/></g><g clip-path="url(#i)"><path fill="none" stroke="#000f5e" stroke-miterlimit="10" stroke-width="1.75" d="M782.03 191v-20"/></g></g><g clip-path="url(#j)" data-name="Ciphertext"><path fill="#fff" d="M124.39 160v-12h-17v48h31v-36h-14z"/><path d="M107.67 148.67h16.67V162h13.33v33.33h-30zM106 147v50h33.33v-36.67L126 147z" fill="#000f5e"/><path fill="#000f5e" d="M112.67 167h20v1.67h-20zM112.67 170.33h20V172h-20zM112.67 173.67h10v1.67h-10z"/><g clip-path="url(#j)"><path d="M135.71 183.52a8 8 0 0 0-5.93.85v-.82a4.24 4.24 0 0 1 1.48-3.31 3.85 3.85 0 0 1 5.32.25l1.42-1.42a5.9 5.9 0 0 0-7-1.07 6.17 6.17 0 0 0-3.19 5.51V186a8 8 0 1 0 7.93-2.49m2 10.06l-1.42 1.43-2.32-2.3-2.26 2.3-1.41-1.41 2.29-2.29-2.3-2.3 1.41-1.41 2.29 2.29 2.29-2.29 1.41 1.41-2.29 2.29z" fill="#db2663"/></g></g></g><g data-name="Text"><text transform="translate(471.94 349.9)" font-size="11" font-family="IBMPlexSans, IBM Plex Sans">Symmetric <tspan x="19.41" y="13.2" letter-spacing="-.02em">k</tspan><tspan x="25.02" y="13.2" letter-spacing="0em">e</tspan><tspan x="31" y="13.2">y</tspan></text><text transform="translate(851.1 219.9)" font-size="11" font-family="IBMPlexSans, IBM Plex Sans">Plain<tspan x="24.53" y="0" letter-spacing="0em">t</tspan><tspan x="28.35" y="0" letter-spacing="-.01em">e</tspan><tspan x="34.25" y="0" letter-spacing="0em">xt</tspan></text><text transform="translate(681.25 219.9)" font-size="11" font-family="IBMPlexSans, IBM Plex Sans">AES<tspan x="-13.71" y="13.2">al</tspan><tspan x="-4.84" y="13.2" letter-spacing="-.01em">g</tspan><tspan x=".9" y="13.2">orithm</tspan></text><text transform="translate(475.57 219.9)" font-size="11" font-family="IBMPlexSans, IBM Plex Sans">Ciphe<tspan x="28.25" y="0" letter-spacing="0em">r</tspan><tspan x="32.33" y="0" letter-spacing="0em">t</tspan><tspan x="36.15" y="0" letter-spacing="-.01em">e</tspan><tspan x="42.05" y="0" letter-spacing="0em">xt</tspan></text><text transform="translate(548.72 107.38)" font-size="12" font-family="IBMPlexSans-SemiBold, IBM Plex Sans" font-weight="700">Dec<tspan x="21.12" y="0" letter-spacing=".01em">r</tspan><tspan x="25.93" y="0" letter-spacing="0em">y</tspan><tspan x="32.22" y="0" letter-spacing="-.01em">p</tspan><tspan x="39.35" y="0" letter-spacing="0em">tion</tspan></text><text transform="translate(101.61 219.9)" font-size="11" font-family="IBMPlexSans, IBM Plex Sans">Plain<tspan x="24.53" y="0" letter-spacing="0em">t</tspan><tspan x="28.35" y="0" letter-spacing="-.01em">e</tspan><tspan x="34.25" y="0" letter-spacing="0em">xt</tspan></text><text transform="translate(70.72 107.38)" font-size="12" font-family="IBMPlexSans-SemiBold, IBM Plex Sans" font-weight="700">Enc<tspan x="20.41" y="0" letter-spacing=".01em">r</tspan><tspan x="25.22" y="0" letter-spacing="0em">y</tspan><tspan x="31.51" y="0" letter-spacing="-.01em">p</tspan><tspan x="38.64" y="0" letter-spacing="0em">tion</tspan></text><text transform="translate(49 63)" font-size="16" fill="#272727" font-family="IBMPlexSans-Bold, IBM Plex Sans" font-weight="700">Symmetric enc<tspan x="112.14" y="0" letter-spacing=".01em">r</tspan><tspan x="118.72" y="0">y</tspan><tspan x="127.26" y="0" letter-spacing="-.01em">p</tspan><tspan x="136.89" y="0">tion</tspan></text><text transform="translate(283.45 219.9)" font-size="11" font-family="IBMPlexSans, IBM Plex Sans">AES<tspan x="-13.71" y="13.2">al</tspan><tspan x="-4.84" y="13.2" letter-spacing="-.01em">g</tspan><tspan x=".9" y="13.2">orithm</tspan></text></g></svg>