<svg xmlns="http://www.w3.org/2000/svg" width="1000" height="400" viewBox="0 0 1000 400"><defs><style>.cls-1{fill:#fff;}.cls-11,.cls-12,.cls-13,.cls-14,.cls-15,.cls-16,.cls-18,.cls-2,.cls-29,.cls-3,.cls-4,.cls-7,.cls-8{fill:none;stroke-miterlimit:10;}.cls-2,.cls-3,.cls-4{stroke:#d8d8d8;}.cls-3,.cls-8{stroke-dasharray:3 2;}.cls-4{stroke-dasharray:2.9951 1.9967;}.cls-17,.cls-5{fill:#b380e0;}.cls-5{opacity:0.15;}.cls-6{fill:#edf5ff;}.cls-11,.cls-29,.cls-7,.cls-8{stroke:#000f5e;}.cls-9{fill:#f8f4f2;}.cls-10{fill:#f4f4f4;}.cls-11{stroke-dasharray:2.9621 1.9747;}.cls-12,.cls-13,.cls-14,.cls-15,.cls-16{stroke:#b380e0;}.cls-12{stroke-dasharray:1 1;}.cls-14{stroke-dasharray:0.9885 0.9885;}.cls-15{stroke-dasharray:0.9987 0.9987;}.cls-16{stroke-dasharray:0.9861 0.9861;}.cls-18{stroke:#a71c71;}.cls-19{fill:#a71c71;}.cls-20{fill:#ceaceb;}.cls-21{fill:#6e177d;}.cls-22{fill:#9bc1fa;}.cls-23{fill:#000f5e;}.cls-24{fill:#efc100;}.cls-25{fill:#5aa700;}.cls-26{fill:#8747b8;}.cls-27{fill:#cba9e6;}.cls-28{fill:#a2c0fb;}.cls-29{stroke-width:1.25px;}.cls-30{fill:#272727;}</style></defs><title>unwrapping-keys</title><g id="Visual"><rect class="cls-1" x="48.5" y="83.5" width="200" height="200"/><polyline class="cls-2" points="248.5 282 248.5 283.5 247 283.5"/><line class="cls-3" x1="245" y1="283.5" x2="51" y2="283.5"/><polyline class="cls-2" points="50 283.5 48.5 283.5 48.5 282"/><line class="cls-3" x1="48.5" y1="280" x2="48.5" y2="86"/><polyline class="cls-2" points="48.5 85 48.5 83.5 50 83.5"/><line class="cls-3" x1="52" y1="83.5" x2="246" y2="83.5"/><polyline class="cls-2" points="247 83.5 248.5 83.5 248.5 85"/><line class="cls-3" x1="248.5" y1="87" x2="248.5" y2="281"/><rect class="cls-1" x="265.5" y="83.5" width="609" height="200"/><polyline class="cls-2" points="874.5 282 874.5 283.5 873 283.5"/><line class="cls-4" x1="871.0033" y1="283.5" x2="267.9984" y2="283.5"/><polyline class="cls-2" points="267 283.5 265.5 283.5 265.5 282"/><line class="cls-3" x1="265.5" y1="280" x2="265.5" y2="86"/><polyline class="cls-2" points="265.5 85 265.5 83.5 267 83.5"/><line class="cls-4" x1="268.9967" y1="83.5" x2="872.0016" y2="83.5"/><polyline class="cls-2" points="873 83.5 874.5 83.5 874.5 85"/><line class="cls-3" x1="874.5" y1="87" x2="874.5" y2="281"/><path class="cls-5" d="M213.5061,316H525.4939A10.5061,10.5061,0,0,1,536,326.5061V350a0,0,0,0,1,0,0H203a0,0,0,0,1,0,0V326.5061A10.5061,10.5061,0,0,1,213.5061,316Z"/><rect class="cls-6" x="69.5" y="123.5" width="140" height="140"/><polyline class="cls-7" points="209.5 262 209.5 263.5 208 263.5"/><line class="cls-8" x1="206" y1="263.5" x2="72" y2="263.5"/><polyline class="cls-7" points="71 263.5 69.5 263.5 69.5 262"/><line class="cls-8" x1="69.5" y1="260" x2="69.5" y2="126"/><polyline class="cls-7" points="69.5 125 69.5 123.5 71 123.5"/><line class="cls-8" x1="73" y1="123.5" x2="207" y2="123.5"/><polyline class="cls-7" points="208 123.5 209.5 123.5 209.5 125"/><line class="cls-8" x1="209.5" y1="127" x2="209.5" y2="261"/><rect class="cls-9" x="288.5" y="123.5" width="300" height="140"/><polyline class="cls-7" points="588.5 262 588.5 263.5 587 263.5"/><line class="cls-8" x1="585" y1="263.5" x2="291" y2="263.5"/><polyline class="cls-7" points="290 263.5 288.5 263.5 288.5 262"/><line class="cls-8" x1="288.5" y1="260" x2="288.5" y2="126"/><polyline class="cls-7" points="288.5 125 288.5 123.5 290 123.5"/><line class="cls-8" x1="292" y1="123.5" x2="586" y2="123.5"/><polyline class="cls-7" points="587 123.5 588.5 123.5 588.5 125"/><line class="cls-8" x1="588.5" y1="127" x2="588.5" y2="261"/><rect class="cls-10" x="815.8333" y="123" width="133.3333" height="140"/><polyline class="cls-7" points="947.667 123 949.167 123 949.167 124.5"/><line class="cls-8" x1="949.1667" y1="126.5" x2="949.1667" y2="260.5"/><polyline class="cls-7" points="949.167 261.5 949.167 263 947.667 263"/><line class="cls-11" x1="945.6919" y1="263" x2="818.3207" y2="263"/><polyline class="cls-7" points="817.333 263 815.833 263 815.833 261.5"/><line class="cls-8" x1="815.8333" y1="259.5" x2="815.8333" y2="125.5"/><polyline class="cls-7" points="815.833 124.5 815.833 123 817.333 123"/><line class="cls-11" x1="819.3081" y1="123" x2="946.6793" y2="123"/><polyline class="cls-12" points="219 258.203 219 274 60 274 60 258.203"/><line class="cls-13" x1="914" y1="263" x2="914" y2="263.5"/><line class="cls-14" x1="914" y1="264.4885" x2="914" y2="349.0057"/><polyline class="cls-13" points="914 349.5 914 350 913.5 350"/><line class="cls-15" x1="912.5013" y1="350" x2="137.9994" y2="350"/><polyline class="cls-13" points="137.5 350 137 350 137.004 349.5"/><line class="cls-16" x1="137.0115" y1="348.514" x2="137.4366" y2="293.789"/><line class="cls-13" x1="137.4404" y1="293.296" x2="137.4443" y2="292.796"/><polygon class="cls-17" points="142.419 294.294 137.5 285.62 132.447 294.216 142.419 294.294"/><line class="cls-18" x1="574.0468" y1="189.5" x2="627.8238" y2="189.5"/><path class="cls-1" d="M574.26,193.26a3.76,3.76,0,1,1,3.76-3.76A3.76,3.76,0,0,1,574.26,193.26Z"/><path class="cls-19" d="M574.26,193.76A4.26,4.26,0,1,0,570,189.5a4.2649,4.2649,0,0,0,4.26,4.26Zm0-7.52A3.26,3.26,0,1,1,571,189.5a3.2629,3.2629,0,0,1,3.26-3.26Z"/><polygon class="cls-19" points="626.365 194.486 635 189.5 626.365 184.514 626.365 194.486"/><line class="cls-18" x1="733" y1="189.5" x2="785.8238" y2="189.5"/><polygon class="cls-19" points="784.365 194.486 793 189.5 784.365 184.514 784.365 194.486"/><path class="cls-20" d="M339.1842,163.16a14,14,0,1,0,12.6348,20h7.3652l1-2,1,1,1,1h19l6-6-6-6H351.819a13.9879,13.9879,0,0,0-12.6348-8"/><path class="cls-21" d="M381.8544,170.4221l-29.2-.0006a15.0109,15.0109,0,1,0,0,14.1421l5.63.0006,2.357-2.357,2.357,2.357h18.8562l7.0711-7.0711Zm-.69,12.4755-17.4753,0-1.8691-1.8691-1.1785-1.1785-1.1785,1.1785-1.8688,1.8688-4.9392-.0006h-.9993l-.4709.8816a13.34,13.34,0,1,1,0-12.5709l.4709.88h.9988l28.5093.0006,5.4047,5.4047Z"/><circle class="cls-21" cx="334.5709" cy="177.4661" r="3.3333"/><rect class="cls-21" x="365.2117" y="176.6327" width="14.1419" height="1.6667"/><path class="cls-22" d="M159.1108,148.84l-9.1695-.3382.3161.3539h-.1767l-.3744-.3744-17.6777,17.6777.2071.207-3.1156,3.1156a14.4675,14.4675,0,0,0-4.2171-.6259,13.5089,13.5089,0,1,0,14,13.5,13.0173,13.0173,0,0,0-.8649-4.6351l4.8649-4.8649-1-1,2.5325-2.5325.9571.9571,12.6788-12.6789.3468.3881.06-.7951.3492-.3492-.3-.3Z"/><path class="cls-23" d="M150.153,147.2319l-20.6479,20.647a15.01,15.01,0,1,0,10,10l3.9812-3.98v-3.3334H146.82l13.3333-13.3333v-10Zm8.3334,9.31L146.13,168.8986h-4.31v4.31l-3.493,3.4921-.7066.7067.29.9562a13.34,13.34,0,1,1-8.8888-8.8892l.9555.29.7062-.7062,20.16-20.1587h7.6434Z"/><circle class="cls-23" cx="121.6994" cy="185.6472" r="3.3333"/><rect class="cls-23" x="141.2946" y="158.1476" width="14.1419" height="1.6667" transform="translate(-68.9612 151.4743) rotate(-44.9999)"/><path class="cls-24" d="M164.7827,177.3968a4.4275,4.4275,0,0,1-2.3366,2.8143,13.4494,13.4494,0,0,1-3.4391,1.3062,34.1667,34.1667,0,0,1-7.2342.87,69.1709,69.1709,0,0,1-14.4454-1.4514c-4.735-.9881-9.5391-2.1274-13.909-4.4438a28.7849,28.7849,0,0,1-6.1368-4.2058,12.6938,12.6938,0,0,1-2.431-2.949,6.4162,6.4162,0,0,1-.7081-1.8357,3.3266,3.3266,0,0,1,.1636-1.9392l.2921.0685a4.1,4.1,0,0,0,1.363,2.9034,14.35,14.35,0,0,0,2.6263,2.0946,42.5521,42.5521,0,0,0,6.1257,3.157,103.5139,103.5139,0,0,0,13.162,4.8133,67.2523,67.2523,0,0,0,13.9191,2.2883,33.0161,33.0161,0,0,0,7.0229-.2751,12.7833,12.7833,0,0,0,3.333-.964,3.978,3.978,0,0,0,2.34-2.32Z"/><polygon class="cls-1" points="155.903 159.855 155.903 195.855 124.903 195.855 124.903 147.855 142.903 147.855 142.903 159.855 155.903 159.855"/><path class="cls-23" d="M143.5124,146.8552h-20v50h33.3333V160.1885Zm11.6667,48.3333h-30V148.5218h16.6666v13.3334h13.3334Z"/><rect class="cls-23" x="130.1791" y="166.8552" width="20" height="1.6667"/><rect class="cls-23" x="130.1791" y="170.1885" width="20" height="1.6667"/><rect class="cls-23" x="130.1791" y="173.5218" width="10" height="1.6667"/><path class="cls-24" d="M114.3061,165.5625a4.4275,4.4275,0,0,1,2.3366-2.8143,13.4534,13.4534,0,0,1,3.4391-1.3063,34.1731,34.1731,0,0,1,7.2342-.87,69.1716,69.1716,0,0,1,14.4454,1.4514c4.735.9881,9.5391,2.1274,13.9089,4.4438a28.783,28.783,0,0,1,6.1369,4.2058,12.6917,12.6917,0,0,1,2.431,2.949,6.4191,6.4191,0,0,1,.7081,1.8357,3.3266,3.3266,0,0,1-.1636,1.9392l-.2921-.0685a4.1,4.1,0,0,0-1.363-2.9034,14.3533,14.3533,0,0,0-2.6263-2.0946,42.5622,42.5622,0,0,0-6.1257-3.157,103.5139,103.5139,0,0,0-13.162-4.8133,67.2523,67.2523,0,0,0-13.9191-2.2883,33.0161,33.0161,0,0,0-7.0229.2751,12.7822,12.7822,0,0,0-3.333.964,3.9777,3.9777,0,0,0-2.34,2.32Z"/><ellipse class="cls-1" cx="151.403" cy="190.8552" rx="5.5" ry="6"/><path class="cls-25" d="M157.2936,183.1447a6.0244,6.0244,0,0,0-8.6074-5.39,6.2233,6.2233,0,0,0-3.3926,5.6521v2.4607a8,8,0,1,0,12-.001Zm-10,0a3.9867,3.9867,0,0,1,6.2723-3.2389,4.3294,4.3294,0,0,1,1.7277,3.5453v.7726a7.9506,7.9506,0,0,0-8,.001Zm2.8246,12.414-3.707-3.707,1.414-1.414,2.293,2.293,5.293-5.293,1.414,1.414Z"/><g id="Icon"><path class="cls-21" d="M693.433,187a8.352,8.352,0,0,0-.114-1.322L696,183.333l-2.277-3.738-3.197,1.044a8.4073,8.4073,0,0,0-2.617-1.547L687.2,176h-4.4l-.709,3.092a8.4214,8.4214,0,0,0-2.617,1.548l-3.197-1.045L674,183.333l2.68,2.346a7.7779,7.7779,0,0,0,0,2.642L674,190.667l2.278,3.738,3.196-1.044a8.3929,8.3929,0,0,0,2.618,1.547L682.8,198h4.4l.708-3.092a8.3881,8.3881,0,0,0,2.617-1.547l3.196,1.044L696,190.667l-2.681-2.345A8.352,8.352,0,0,0,693.433,187ZM685,189.5283a3,3,0,1,1,3-3A3.0011,3.0011,0,0,1,685,189.5283Z"/></g><g id="Icon-2" data-name="Icon"><path class="cls-17" d="M679.433,172a8.352,8.352,0,0,0-.114-1.322L682,168.333l-2.277-3.738-3.197,1.044a8.4073,8.4073,0,0,0-2.617-1.547L673.2,161h-4.4l-.709,3.092a8.4214,8.4214,0,0,0-2.617,1.548l-3.197-1.045L660,168.333l2.68,2.346a7.7779,7.7779,0,0,0,0,2.642L660,175.667l2.278,3.738,3.196-1.044a8.3929,8.3929,0,0,0,2.618,1.547L668.8,183h4.4l.708-3.092a8.3881,8.3881,0,0,0,2.617-1.547l3.196,1.044L682,175.667l-2.681-2.345A8.352,8.352,0,0,0,679.433,172ZM671,174.5283a3,3,0,1,1,3-3A3.0011,3.0011,0,0,1,671,174.5283Z"/></g><g id="Icon-3" data-name="Icon"><path class="cls-26" d="M707.433,172a8.352,8.352,0,0,0-.114-1.322L710,168.333l-2.277-3.738-3.197,1.044a8.4073,8.4073,0,0,0-2.617-1.547L701.2,161h-4.4l-.709,3.092a8.4214,8.4214,0,0,0-2.617,1.548l-3.197-1.045L688,168.333l2.68,2.346a7.7779,7.7779,0,0,0,0,2.642L688,175.667l2.278,3.738,3.196-1.044a8.3929,8.3929,0,0,0,2.618,1.547L696.8,183h4.4l.708-3.092a8.3881,8.3881,0,0,0,2.617-1.547l3.196,1.044L710,175.667l-2.681-2.345A8.352,8.352,0,0,0,707.433,172ZM699,174.5283a3,3,0,1,1,3-3A3.0011,3.0011,0,0,1,699,174.5283Z"/></g><path class="cls-24" d="M530.3092,181.45a3.3381,3.3381,0,0,1-2.5982,1.021,8.6224,8.6224,0,0,1-1.4036-.0866c-.45-.0977-.919-.1575-1.36-.29a26.2581,26.2581,0,0,1-5.112-2.0436,53.0115,53.0115,0,0,1-9.02-6.2148c-1.3877-1.1931-2.7646-2.41-4.0729-3.7143a25.9106,25.9106,0,0,1-3.4871-4.3255,21.0653,21.0653,0,0,1-2.3972-5.1292,14.4385,14.4385,0,0,1-.33-1.4167,9.0173,9.0173,0,0,1-.0926-1.4906,5.25,5.25,0,0,1,.2631-1.4986c.12-.24.2416-.47.3633-.6855.1795-.1937.3672-.3679.5395-.53l.2208.2031a3.0211,3.0211,0,0,0-.0242,2.3632,10.8859,10.8859,0,0,0,1.0129,2.2544,36.5783,36.5783,0,0,0,2.9018,4.2083,98.0063,98.0063,0,0,0,6.7278,7.9947,51.0977,51.0977,0,0,0,8.15,6.6853,25.1033,25.1033,0,0,0,4.635,2.4579c.4037.1714.8224.2673,1.2365.4069a8.1879,8.1879,0,0,0,1.2639.2164,2.8928,2.8928,0,0,0,2.3619-.5886Z"/><path class="cls-27" d="M538.5218,150.6076l-9.1695-.3382.3161.3538h-.1768l-.3744-.3743L511.44,167.9265l.2071.2071-3.1156,3.1156a14.4642,14.4642,0,0,0-4.2171-.626,13.5089,13.5089,0,1,0,14,13.5,13.0147,13.0147,0,0,0-.865-4.635l4.865-4.865-1-1,2.5324-2.5324.9571.9571,12.6789-12.6789.3468.3881.06-.7951.3492-.3492-.3-.3Z"/><path class="cls-21" d="M529.564,149l-20.6479,20.647a15.01,15.01,0,1,0,10,10l3.9813-3.98v-3.3333h3.3333L539.564,159V149Zm8.3333,9.31-12.3567,12.357h-4.31v4.31l-3.4929,3.4921-.7067.7067.2905.9562a13.34,13.34,0,1,1-8.8888-8.8892l.9554.29.7063-.7062,20.16-20.1587h7.6434Z"/><circle class="cls-21" cx="501.1104" cy="187.4153" r="3.3333"/><rect class="cls-21" x="520.7056" y="159.9157" width="14.1419" height="1.6667" transform="translate(40.9149 420.2756) rotate(-44.9999)"/><path class="cls-22" d="M535.5218,148.6076l-9.1695-.3382.3161.3538h-.1768l-.3744-.3743L508.44,165.9265l.2071.2071-3.1156,3.1156a14.4642,14.4642,0,0,0-4.2171-.626,13.5089,13.5089,0,1,0,14,13.5,13.0147,13.0147,0,0,0-.865-4.635l4.865-4.865-1-1,2.5324-2.5324.9571.9571,12.6789-12.6789.3468.3881.06-.7951.3492-.3492-.3-.3Z"/><path class="cls-23" d="M526.564,147l-20.6479,20.647a15.01,15.01,0,1,0,10,10l3.9813-3.98v-3.3333h3.3333L536.564,157V147Zm8.3333,9.31-12.3567,12.357h-4.31v4.31l-3.4929,3.4921-.7067.7067.2905.9562a13.34,13.34,0,1,1-8.8888-8.8892l.9554.29.7063-.7062,20.16-20.1587h7.6434Z"/><circle class="cls-23" cx="498.1104" cy="185.4153" r="3.3333"/><rect class="cls-23" x="517.7056" y="157.9157" width="14.1419" height="1.6667" transform="translate(41.4504 417.5685) rotate(-44.9999)"/><path class="cls-24" d="M501.6015,155.0454a3.339,3.339,0,0,1,2.5982-1.021,8.6225,8.6225,0,0,1,1.4036.0867c.45.0977.9191.1574,1.36.29a26.2594,26.2594,0,0,1,5.1121,2.0437,53.005,53.005,0,0,1,9.02,6.2148c1.3878,1.193,2.7647,2.41,4.0729,3.7142a25.91,25.91,0,0,1,3.4871,4.3255,21.066,21.066,0,0,1,2.3972,5.1293,14.4146,14.4146,0,0,1,.33,1.4166,9.0173,9.0173,0,0,1,.0927,1.4906,5.2517,5.2517,0,0,1-.2632,1.4987c-.12.24-.2416.4695-.3632.6855-.1795.1937-.3672.3678-.54.53l-.2208-.203a3.0211,3.0211,0,0,0,.0242-2.3632,10.8843,10.8843,0,0,0-1.0129-2.2545,36.552,36.552,0,0,0-2.9018-4.2082,98.0062,98.0062,0,0,0-6.7277-7.9948,51.0969,51.0969,0,0,0-8.1506-6.6852,25.0964,25.0964,0,0,0-4.6349-2.4579c-.4038-.1714-.8224-.2673-1.2366-.4069a8.1738,8.1738,0,0,0-1.2639-.2164,2.8928,2.8928,0,0,0-2.3619.5886Z"/><ellipse class="cls-1" cx="532.564" cy="190.6232" rx="5.5" ry="6"/><path class="cls-25" d="M538.064,182.9128a6.0244,6.0244,0,0,0-8.6074-5.39,6.2232,6.2232,0,0,0-3.3926,5.652v2.4608a8,8,0,1,0,12-.001Zm-10,0a3.9867,3.9867,0,0,1,6.2723-3.2389,4.3293,4.3293,0,0,1,1.7277,3.5453v.7726a7.9506,7.9506,0,0,0-8,.001Zm2.8246,12.414-3.707-3.707,1.414-1.414,2.293,2.293,5.293-5.293,1.414,1.414Z"/><path class="cls-28" d="M911.7425,171.6666H882.3772a14,14,0,1,0,0,12h7.3653v-2h3v2h19l6-6Z"/><rect class="cls-23" x="895.7725" y="178.6666" width="14.14" height="0.14"/><polygon class="cls-23" points="891.203 180.357 892.513 181.667 889.893 181.667 891.203 180.357"/><rect class="cls-23" x="895.7725" y="177.1365" width="14.14" height="1.67"/><path class="cls-23" d="M867.4825,175.6166a3.33,3.33,0,1,1-4.71,0A3.3135,3.3135,0,0,1,867.4825,175.6166Z"/><path class="cls-23" d="M859.9125,169.2665a13.1359,13.1359,0,0,0-3,6.22,13.6474,13.6474,0,0,1,13.33-11.82,13.5043,13.5043,0,0,1,12.58,8.93h-.61l-.47-.88a13.0756,13.0756,0,0,0-2.33-3.14A13.3383,13.3383,0,0,0,859.9125,169.2665Z"/><path class="cls-23" d="M882.5525,183.4066c-.03.09-.07.17-.11.26a13.4734,13.4734,0,0,1-12.2,8,13.213,13.213,0,0,1-9.63-4.19,13.342,13.342,0,0,0,18.8-.05,13.079,13.079,0,0,0,2.33-3.14l.33-.62.14-.26Z"/><path class="cls-23" d="M912.4125,170.9266h-29.2a15.0221,15.0221,0,1,0,0,14.14h5.63l2.36-2.35,2.35,2.35h18.86l7.07-7.07Zm-21.21,9.43-1.31,1.31-.15.15-1.59,1.59h-5.94l-.14.26-.33.62a13.079,13.079,0,0,1-2.33,3.14,13.342,13.342,0,0,1-18.8.05c-.25-.24-.48-.49-.71-.75a13.3462,13.3462,0,0,1-3-11.19.1085.1085,0,0,1,.01-.05,13.1359,13.1359,0,0,1,3-6.22,13.3383,13.3383,0,0,1,19.5-.69,13.0756,13.0756,0,0,1,2.33,3.14l.47.88h29.51l2.02,2.02,3.38,3.38-3.38,3.39-2.02,2.02h-17.48l-1.5-1.51Z"/><path class="cls-23" d="M867.4825,180.3265a3.33,3.33,0,1,1,0-4.71A3.3316,3.3316,0,0,1,867.4825,180.3265Z"/><rect class="cls-23" x="895.7725" y="177.1365" width="14.14" height="1.67"/><line class="cls-29" x1="432" y1="183.75" x2="432" y2="198.25"/><line class="cls-29" x1="439.25" y1="191" x2="424.75" y2="191"/></g><g id="Text"><path d="M222.6357,330.72H225.21c1.914,0,3.1464,1.2754,3.1464,3.8389s-1.2324,3.84-3.1464,3.84h-2.5743Zm2.5743,6.8643a2.1346,2.1346,0,0,0,2.1562-2.3985v-1.2539a2.1345,2.1345,0,0,0-2.1562-2.3984h-1.65v6.0508Z"/><path d="M230.0166,338.3984V330.72h4.6865v.8135H230.94v2.3984h3.543v.8145H230.94v2.8379h3.7627v.8144Z"/><path d="M238.4424,334.625l-1.0889,1.21v2.5634H236.43V330.72h.9238v4.0811h.0332l1.1-1.3311,2.3213-2.75h1.1338l-2.86,3.2891,3.0585,4.39h-1.1445Z"/><path d="M245.9111,338.3984v-5.6767h.88v1.0449h.0547a1.6308,1.6308,0,0,1,1.64-1.0449h.3408v.88h-.5176c-.9453,0-1.5176.4072-1.5176.9463v3.85Z"/><path d="M249.4746,335.56c0-1.8037,1.0127-2.97,2.5527-2.97a2.4854,2.4854,0,0,1,2.4532,2.7725v.418h-4.0811v.2636a1.6079,1.6079,0,0,0,1.6826,1.7168,1.645,1.645,0,0,0,1.5625-.9795l.627.4512a2.3814,2.3814,0,0,1-2.2442,1.2979C250.4873,338.53,249.4746,337.3643,249.4746,335.56Zm.9248-.5166v.0771h3.1358v-.1211a1.51,1.51,0,0,0-1.5079-1.6719A1.613,1.613,0,0,0,250.3994,335.043Z"/><path d="M257.1865,338.3984a.8667.8667,0,0,1-.9355-.9355v-3.9707h-.9346v-.7705h.5274c.374,0,.4951-.1319.4951-.5176v-1.0557h.7929v1.5733h1.2432v.7705h-1.2432v4.1357h1.1543v.77Z"/><path d="M263.291,337.4746h-.0439a1.5775,1.5775,0,0,1-1.5957,1.0557c-1.166,0-1.9141-.792-1.9141-2.167v-3.6416h.88v3.4873c0,1.0127.4512,1.5293,1.2988,1.5293.6934,0,1.375-.3408,1.375-1.0889v-3.9277h.88v5.6767h-.88Z"/><path d="M266.041,338.3984v-5.6767h.88v1.0449h.0547a1.6308,1.6308,0,0,1,1.64-1.0449h.3409v.88h-.5176c-.9453,0-1.5176.4072-1.5176.9463v3.85Z"/><path d="M270.0781,338.3984v-5.6767h.88v.9238h.044a1.61,1.61,0,0,1,1.6064-1.0557c1.166,0,1.9033.792,1.9033,2.167v3.6416h-.8808v-3.4873c0-1.0127-.44-1.5293-1.2871-1.5293-.7042,0-1.3858.3516-1.3858,1.0782v3.9384Z"/><path d="M275.7871,337.4189l.627-.5058a2.0594,2.0594,0,0,0,1.6826.8691c.748,0,1.1885-.3408,1.1885-.9238,0-.44-.2422-.7813-.99-.8916l-.4511-.0654c-1.045-.1543-1.8262-.583-1.8262-1.64,0-1.1221.8691-1.6719,2.0244-1.6719a2.3637,2.3637,0,0,1,1.9805.9131l-.583.5283a1.751,1.751,0,0,0-1.4639-.6933c-.7256,0-1.11.3408-1.11.88,0,.55.3848.77,1.0889.88l.44.0664c1.2539.1865,1.7373.7373,1.7373,1.5947,0,1.1006-.8027,1.7715-2.1006,1.7715A2.6357,2.6357,0,0,1,275.7871,337.4189Z"/><path d="M285.5332,338.3984a.8667.8667,0,0,1-.9355-.9355v-3.9707h-.9346v-.7705h.5273c.3741,0,.4951-.1319.4951-.5176v-1.0557h.793v1.5733h1.2432v.7705h-1.2432v4.1357h1.1543v.77Z"/><path d="M287.6768,335.56c0-1.8037,1.0459-2.97,2.5634-2.97s2.5635,1.1661,2.5635,2.97-1.0449,2.9707-2.5635,2.9707S287.6768,337.3643,287.6768,335.56Zm4.1806.4072v-.8135a1.6248,1.6248,0,1,0-3.2344,0v.8135a1.6248,1.6248,0,1,0,3.2344,0Z"/><path d="M296.4326,335.56c0-1.8145.9356-2.97,2.5313-2.97a2.1271,2.1271,0,0,1,2.123,1.3311l-.7373.374a1.3675,1.3675,0,0,0-1.3857-.9238,1.5243,1.5243,0,0,0-1.585,1.7051v.9677a1.5243,1.5243,0,0,0,1.585,1.7051,1.6025,1.6025,0,0,0,1.54-.99l.6377.43a2.2383,2.2383,0,0,1-2.1777,1.3418C297.3682,338.53,296.4326,337.375,296.4326,335.56Z"/><path d="M303.3193,338.3984a.86.86,0,0,1-.9345-.913v-7.2286h.88v7.3711h.836v.77Z"/><path d="M304.958,335.56c0-1.8037,1.0459-2.97,2.5635-2.97s2.5635,1.1661,2.5635,2.97-1.045,2.9707-2.5635,2.9707S304.958,337.3643,304.958,335.56Zm4.1807.4072v-.8135a1.6248,1.6248,0,1,0-3.2344,0v.8135a1.6248,1.6248,0,1,0,3.2344,0Z"/><path d="M315.0352,337.4746h-.044a1.5774,1.5774,0,0,1-1.5957,1.0557c-1.166,0-1.9141-.792-1.9141-2.167v-3.6416h.88v3.4873c0,1.0127.4512,1.5293,1.2989,1.5293.6933,0,1.375-.3408,1.375-1.0889v-3.9277h.88v5.6767h-.88Z"/><path d="M321.4141,337.4746h-.044a1.7106,1.7106,0,0,1-1.6611,1.0557c-1.419,0-2.3106-1.1553-2.3106-2.9707s.8916-2.97,2.3106-2.97a1.6579,1.6579,0,0,1,1.6611,1.0557h.044v-3.3887h.88v8.1416h-.88Zm0-.8916v-2.1123c0-.6269-.66-1.0889-1.4629-1.0889a1.5491,1.5491,0,0,0-1.6065,1.6944v.9677a1.5491,1.5491,0,0,0,1.6065,1.6944C320.7539,337.7383,321.4141,337.32,321.4141,336.583Z"/><path d="M326.2217,337.4189l.6269-.5058a2.06,2.06,0,0,0,1.6826.8691c.7481,0,1.1885-.3408,1.1885-.9238,0-.44-.2422-.7813-.99-.8916l-.4512-.0654c-1.0449-.1543-1.8262-.583-1.8262-1.64,0-1.1221.8692-1.6719,2.0245-1.6719a2.3635,2.3635,0,0,1,1.98.9131l-.583.5283a1.7507,1.7507,0,0,0-1.4638-.6933c-.7256,0-1.11.3408-1.11.88,0,.55.3848.77,1.0889.88l.44.0664c1.2539.1865,1.7373.7373,1.7373,1.5947,0,1.1006-.8027,1.7715-2.1006,1.7715A2.6356,2.6356,0,0,1,326.2217,337.4189Z"/><path d="M331.6982,335.56c0-1.8037,1.0127-2.97,2.5528-2.97a2.4854,2.4854,0,0,1,2.4531,2.7725v.418H332.623v.2636a1.6079,1.6079,0,0,0,1.6827,1.7168,1.6452,1.6452,0,0,0,1.5625-.9795l.6269.4512a2.3812,2.3812,0,0,1-2.2441,1.2979C332.7109,338.53,331.6982,337.3643,331.6982,335.56Zm.9248-.5166v.0771h3.1348v-.1211a1.5093,1.5093,0,0,0-1.5068-1.6719A1.613,1.613,0,0,0,332.623,335.043Z"/><path d="M338.1562,338.3984v-5.6767h.88v1.0449h.0547a1.631,1.631,0,0,1,1.64-1.0449h.3408v.88h-.5176c-.9453,0-1.5176.4072-1.5176.9463v3.85Z"/><path d="M343.5566,338.3984l-1.9912-5.6767h.88l.99,2.8164.6163,1.9365h.0546l.6163-1.9365,1.0117-2.8164h.8476l-2.0019,5.6767Z"/><path d="M347.6152,330.8955v-.1435c0-.2969.1651-.4952.5391-.4952s.5391.1983.5391.4952v.1435c0,.2969-.1651.4951-.5391.4951S347.6152,331.1924,347.6152,330.8955Zm.1,1.8262h.88v5.6767h-.88Z"/><path d="M350.0459,335.56c0-1.8145.9355-2.97,2.5312-2.97a2.1271,2.1271,0,0,1,2.1231,1.3311l-.7373.374a1.3675,1.3675,0,0,0-1.3858-.9238,1.5243,1.5243,0,0,0-1.5849,1.7051v.9677a1.5243,1.5243,0,0,0,1.5849,1.7051,1.6025,1.6025,0,0,0,1.54-.99l.6377.43a2.2384,2.2384,0,0,1-2.1778,1.3418C350.9814,338.53,350.0459,337.375,350.0459,335.56Z"/><path d="M355.5127,335.56c0-1.8037,1.0127-2.97,2.5527-2.97a2.4854,2.4854,0,0,1,2.4532,2.7725v.418h-4.0811v.2636a1.6079,1.6079,0,0,0,1.6826,1.7168,1.6452,1.6452,0,0,0,1.5625-.9795l.627.4512a2.3814,2.3814,0,0,1-2.2442,1.2979C356.5254,338.53,355.5127,337.3643,355.5127,335.56Zm.9248-.5166v.0771h3.1348v-.1211a1.5093,1.5093,0,0,0-1.5069-1.6719A1.613,1.613,0,0,0,356.4375,335.043Z"/><path d="M368.6914,338.3984a.9165.9165,0,0,1-.9785-.9238h-.0557a1.6033,1.6033,0,0,1-1.6386,1.0557,1.6743,1.6743,0,0,1-1.9034-1.7158c0-1.0674.77-1.6612,2.42-1.6612h1.122v-.5615c0-.8027-.4394-1.2432-1.3418-1.2432a1.5833,1.5833,0,0,0-1.4414.8477l-.5283-.4951a2.158,2.158,0,0,1,2.0137-1.1114c1.3642,0,2.1777.7149,2.1777,1.9141v3.124h.6494v.77Zm-1.0342-1.65v-.9345h-1.166c-1.001,0-1.4521.3076-1.4521.8574v.2314c0,.5606.44.88,1.122.88C367.03,337.7822,367.6572,337.3311,367.6572,336.748Z"/><path d="M370.44,338.3984v-5.6767h.88v.9238h.044a1.61,1.61,0,0,1,1.6064-1.0557c1.166,0,1.9033.792,1.9033,2.167v3.6416h-.8808v-3.4873c0-1.0127-.44-1.5293-1.2871-1.5293-.7041,0-1.3858.3516-1.3858,1.0782v3.9384Z"/><path d="M380.3184,337.4746h-.044a1.7106,1.7106,0,0,1-1.6611,1.0557c-1.419,0-2.3106-1.1553-2.3106-2.9707s.8916-2.97,2.3106-2.97a1.6579,1.6579,0,0,1,1.6611,1.0557h.044v-3.3887h.88v8.1416h-.88Zm0-.8916v-2.1123c0-.6269-.66-1.0889-1.4629-1.0889a1.5491,1.5491,0,0,0-1.6065,1.6944v.9677a1.5491,1.5491,0,0,0,1.6065,1.6944C379.6582,337.7383,380.3184,337.32,380.3184,336.583Z"/><path d="M389.1621,337.4746h-.0439a1.5775,1.5775,0,0,1-1.5957,1.0557c-1.1661,0-1.9141-.792-1.9141-2.167v-3.6416h.88v3.4873c0,1.0127.4512,1.5293,1.2988,1.5293.6934,0,1.375-.3408,1.375-1.0889v-3.9277h.88v5.6767h-.88Z"/><path d="M391.9121,338.3984v-5.6767h.88v.9238h.0439a1.61,1.61,0,0,1,1.6065-1.0557c1.166,0,1.9033.792,1.9033,2.167v3.6416h-.8809v-3.4873c0-1.0127-.4394-1.5293-1.2871-1.5293-.7041,0-1.3857.3516-1.3857,1.0782v3.9384Z"/><path d="M397.5107,332.7217h.8584l.6055,2.4531.6045,2.4863h.0225l.6923-2.4863.7159-2.4531h.7812l.7363,2.4531.7041,2.4863h.0225l.583-2.4863.6162-2.4531h.8252l-1.5078,5.6767h-1.0889l-.792-2.7285-.4951-1.7275h-.0224l-.4834,1.7275-.792,2.7285h-1.0674Z"/><path d="M406.5537,338.3984v-5.6767h.88v1.0449h.0547a1.6308,1.6308,0,0,1,1.64-1.0449h.3409v.88h-.5176c-.9453,0-1.5176.4072-1.5176.9463v3.85Z"/><path d="M414.6709,338.3984a.9165.9165,0,0,1-.9785-.9238h-.0557a1.6033,1.6033,0,0,1-1.6387,1.0557,1.6742,1.6742,0,0,1-1.9033-1.7158c0-1.0674.77-1.6612,2.42-1.6612h1.1221v-.5615c0-.8027-.4394-1.2432-1.3418-1.2432a1.5833,1.5833,0,0,0-1.4414.8477l-.5283-.4951a2.158,2.158,0,0,1,2.0137-1.1114c1.3642,0,2.1777.7149,2.1777,1.9141v3.124h.6494v.77Zm-1.0342-1.65v-.9345h-1.166c-1.001,0-1.4521.3076-1.4521.8574v.2314c0,.5606.44.88,1.122.88C413.01,337.7822,413.6367,337.3311,413.6367,336.748Z"/><path d="M416.42,332.7217h.88v.9238h.044a1.6577,1.6577,0,0,1,1.6611-1.0557c1.4189,0,2.31,1.1553,2.31,2.97s-.8916,2.9707-2.31,2.9707a1.71,1.71,0,0,1-1.6611-1.0557H417.3v3.124h-.88Zm3.9492,3.3222v-.9677a1.549,1.549,0,0,0-1.6064-1.6944c-.8027,0-1.4629.462-1.4629,1.0889v2.1123c0,.7373.66,1.1553,1.4629,1.1553A1.549,1.549,0,0,0,420.3691,336.0439Z"/><path d="M422.2607,337.4189l.627-.5058a2.06,2.06,0,0,0,1.6826.8691c.7481,0,1.1885-.3408,1.1885-.9238,0-.44-.2422-.7813-.99-.8916l-.4512-.0654c-1.0449-.1543-1.8262-.583-1.8262-1.64,0-1.1221.8692-1.6719,2.0244-1.6719a2.3636,2.3636,0,0,1,1.9805.9131l-.583.5283a1.7507,1.7507,0,0,0-1.4639-.6933c-.7256,0-1.11.3408-1.11.88,0,.55.3847.77,1.0888.88l.44.0664c1.2539.1865,1.7373.7373,1.7373,1.5947,0,1.1006-.8028,1.7715-2.1006,1.7715A2.6359,2.6359,0,0,1,422.2607,337.4189Z"/><path d="M432.0068,338.3984a.8667.8667,0,0,1-.9355-.9355v-3.9707h-.9346v-.7705h.5274c.374,0,.4951-.1319.4951-.5176v-1.0557h.7929v1.5733h1.2432v.7705h-1.2432v4.1357h1.1543v.77Z"/><path d="M434.6143,330.2568h.88v3.3887h.044a1.61,1.61,0,0,1,1.6064-1.0557c1.166,0,1.9034.792,1.9034,2.167v3.6416h-.8809v-3.4873c0-1.0127-.4395-1.5293-1.2871-1.5293-.7041,0-1.3858.3516-1.3858,1.0782v3.9384h-.88Z"/><path d="M440.4434,335.56c0-1.8037,1.0127-2.97,2.5527-2.97a2.4854,2.4854,0,0,1,2.4531,2.7725v.418h-4.081v.2636a1.6078,1.6078,0,0,0,1.6826,1.7168,1.6452,1.6452,0,0,0,1.5625-.9795l.6269.4512a2.3812,2.3812,0,0,1-2.2441,1.2979C441.4561,338.53,440.4434,337.3643,440.4434,335.56Zm.9248-.5166v.0771h3.1357v-.1211a1.51,1.51,0,0,0-1.5078-1.6719A1.613,1.613,0,0,0,441.3682,335.043Z"/><path d="M453.127,337.4746h-.044a1.7106,1.7106,0,0,1-1.6611,1.0557c-1.419,0-2.3106-1.1553-2.3106-2.9707s.8916-2.97,2.3106-2.97a1.6579,1.6579,0,0,1,1.6611,1.0557h.044v-3.3887h.88v8.1416h-.88Zm0-.8916v-2.1123c0-.6269-.66-1.0889-1.4629-1.0889a1.5491,1.5491,0,0,0-1.6065,1.6944v.9677a1.5491,1.5491,0,0,0,1.6065,1.6944C452.4668,337.7383,453.127,337.32,453.127,336.583Z"/><path d="M460.002,338.3984a.9166.9166,0,0,1-.9786-.9238h-.0556a1.6033,1.6033,0,0,1-1.6387,1.0557,1.6742,1.6742,0,0,1-1.9033-1.7158c0-1.0674.7695-1.6612,2.42-1.6612h1.1221v-.5615c0-.8027-.44-1.2432-1.3418-1.2432a1.5833,1.5833,0,0,0-1.4414.8477l-.5284-.4951A2.1581,2.1581,0,0,1,457.67,332.59c1.3643,0,2.1778.7149,2.1778,1.9141v3.124h.6494v.77Zm-1.0342-1.65v-.9345h-1.166c-1.001,0-1.4522.3076-1.4522.8574v.2314c0,.5606.44.88,1.1221.88C458.3408,337.7822,458.9678,337.3311,458.9678,336.748Z"/><path d="M463.0049,338.3984a.8667.8667,0,0,1-.9356-.9355v-3.9707h-.9345v-.7705h.5273c.374,0,.4951-.1319.4951-.5176v-1.0557h.793v1.5733h1.2432v.7705H462.95v4.1357h1.1543v.77Z"/><path d="M469.7363,338.3984a.9165.9165,0,0,1-.9785-.9238h-.0557a1.6031,1.6031,0,0,1-1.6386,1.0557,1.6742,1.6742,0,0,1-1.9033-1.7158c0-1.0674.77-1.6612,2.42-1.6612h1.122v-.5615c0-.8027-.4394-1.2432-1.3417-1.2432a1.5834,1.5834,0,0,0-1.4415.8477l-.5283-.4951a2.1581,2.1581,0,0,1,2.0137-1.1114c1.3643,0,2.1777.7149,2.1777,1.9141v3.124h.6494v.77Zm-1.0342-1.65v-.9345h-1.166c-1.0009,0-1.4521.3076-1.4521.8574v.2314c0,.5606.44.88,1.1221.88C468.0752,337.7822,468.7021,337.3311,468.7021,336.748Z"/><path d="M478.2061,338.3984a.9166.9166,0,0,1-.9786-.9238h-.0556a1.6033,1.6033,0,0,1-1.6387,1.0557,1.6742,1.6742,0,0,1-1.9033-1.7158c0-1.0674.7695-1.6612,2.42-1.6612h1.1221v-.5615c0-.8027-.44-1.2432-1.3418-1.2432a1.5833,1.5833,0,0,0-1.4414.8477l-.5283-.4951a2.1578,2.1578,0,0,1,2.0136-1.1114c1.3643,0,2.1778.7149,2.1778,1.9141v3.124h.6494v.77Zm-1.0342-1.65v-.9345h-1.166c-1.001,0-1.4522.3076-1.4522.8574v.2314c0,.5606.44.88,1.1221.88C476.5449,337.7822,477.1719,337.3311,477.1719,336.748Z"/><path d="M481.209,338.3984a.8667.8667,0,0,1-.9356-.9355v-3.9707h-.9345v-.7705h.5273c.374,0,.4951-.1319.4951-.5176v-1.0557h.793v1.5733h1.2432v.7705h-1.2432v4.1357h1.1543v.77Z"/><path d="M486.4121,338.3984v-5.6767h.88v1.0449h.0547a1.6308,1.6308,0,0,1,1.64-1.0449h.3408v.88H488.81c-.9453,0-1.5176.4072-1.5176.9463v3.85Z"/><path d="M489.9756,335.56c0-1.8037,1.0127-2.97,2.5527-2.97a2.4854,2.4854,0,0,1,2.4531,2.7725v.418H490.9v.2636a1.6078,1.6078,0,0,0,1.6826,1.7168,1.6452,1.6452,0,0,0,1.5625-.9795l.627.4512a2.3814,2.3814,0,0,1-2.2442,1.2979C490.9883,338.53,489.9756,337.3643,489.9756,335.56Zm.9248-.5166v.0771h3.1348v-.1211a1.5093,1.5093,0,0,0-1.5069-1.6719A1.613,1.613,0,0,0,490.9,335.043Z"/><path d="M495.8945,337.4189l.627-.5058a2.06,2.06,0,0,0,1.6826.8691c.748,0,1.1885-.3408,1.1885-.9238,0-.44-.2422-.7813-.99-.8916l-.4511-.0654c-1.045-.1543-1.8262-.583-1.8262-1.64,0-1.1221.8691-1.6719,2.0244-1.6719a2.3636,2.3636,0,0,1,1.9805.9131l-.583.5283a1.7509,1.7509,0,0,0-1.4639-.6933c-.7256,0-1.11.3408-1.11.88,0,.55.3847.77,1.0888.88l.44.0664c1.2539.1865,1.7373.7373,1.7373,1.5947,0,1.1006-.8028,1.7715-2.1006,1.7715A2.6359,2.6359,0,0,1,495.8945,337.4189Z"/><path d="M502.9668,338.3984a.8667.8667,0,0,1-.9356-.9355v-3.9707h-.9345v-.7705h.5273c.374,0,.4951-.1319.4951-.5176v-1.0557h.793v1.5733h1.2432v.7705h-1.2432v4.1357h1.1543v.77Z"/><path d="M860.2676,213.2168V217.97c0,1.4629.4736,2.2334,1.8379,2.2334s1.8369-.77,1.8369-2.2334v-4.7529h.9238V217.75c0,2.2334-.748,3.2783-2.7939,3.2783s-2.7285-1.0449-2.7285-3.2783v-4.5327Z"/><path d="M866.7686,220.896v-5.6768h.8808v.9244h.044a1.6085,1.6085,0,0,1,1.6054-1.0567c1.167,0,1.9033.7925,1.9033,2.1675v3.6416h-.88v-3.4873c0-1.0122-.4405-1.5293-1.2871-1.5293-.7041,0-1.3858.352-1.3858,1.0781v3.9385Z"/><path d="M872.3672,215.2192h.8584l.6055,2.4532.6044,2.4863h.0225l.6934-2.4863.7148-2.4532h.7813l.7373,2.4532.7041,2.4863h.0215l.583-2.4863.6162-2.4532h.8252l-1.5069,5.6768h-1.09l-.792-2.7285-.4951-1.7271H876.23l-.4844,1.7271-.792,2.7285h-1.0674Z"/><path d="M881.4092,220.896v-5.6768h.8808v1.045h.0547a1.6306,1.6306,0,0,1,1.6387-1.045h.3418v.88h-.5176c-.9463,0-1.5176.4072-1.5176.9463v3.8506Z"/><path d="M889.5283,220.896a.9173.9173,0,0,1-.9795-.9243h-.0547a1.6028,1.6028,0,0,1-1.64,1.0561,1.674,1.674,0,0,1-1.9033-1.7163c0-1.0669.7705-1.6611,2.4209-1.6611h1.122v-.561c0-.8033-.44-1.2432-1.3418-1.2432a1.5839,1.5839,0,0,0-1.4414.8472l-.5283-.4952a2.158,2.158,0,0,1,2.0137-1.1113c1.3642,0,2.1777.7153,2.1777,1.9146v3.1245h.6494v.77Zm-1.0342-1.65v-.9351h-1.166c-1.001,0-1.4521.3082-1.4521.8584v.231c0,.561.4394.88,1.122.88C887.8672,220.28,888.4941,219.8286,888.4941,219.2456Z"/><path d="M891.2764,215.2192h.8808v.9244h.044a1.6578,1.6578,0,0,1,1.6611-1.0567c1.4189,0,2.3106,1.1553,2.3106,2.9707s-.8917,2.97-2.3106,2.97a1.7109,1.7109,0,0,1-1.6611-1.0561h-.044v3.1245h-.8808Zm3.95,3.3223v-.9678a1.5492,1.5492,0,0,0-1.6065-1.6943c-.8027,0-1.4629.4619-1.4629,1.0889v2.1123c0,.7373.66,1.1552,1.4629,1.1552A1.5492,1.5492,0,0,0,895.2266,218.5415Z"/><path d="M897.6562,215.2192h.8809v.9244h.044a1.6577,1.6577,0,0,1,1.6611-1.0567c1.4189,0,2.31,1.1553,2.31,2.9707s-.8916,2.97-2.31,2.97a1.7108,1.7108,0,0,1-1.6611-1.0561h-.044v3.1245h-.8809Zm3.95,3.3223v-.9678A1.5492,1.5492,0,0,0,900,215.8794c-.8027,0-1.4629.4619-1.4629,1.0889v2.1123c0,.7373.66,1.1552,1.4629,1.1552A1.5492,1.5492,0,0,0,901.6064,218.5415Z"/><path d="M903.6182,218.0576c0-1.8042,1.0127-2.9707,2.5527-2.9707a2.4856,2.4856,0,0,1,2.4531,2.7725v.4184h-4.081v.2637a1.6074,1.6074,0,0,0,1.6826,1.7163,1.6457,1.6457,0,0,0,1.5625-.979l.6269.4512a2.3814,2.3814,0,0,1-2.2441,1.2978C904.6309,221.0278,903.6182,219.8618,903.6182,218.0576Zm.9248-.5171v.0772h3.1347v-.1211a1.5094,1.5094,0,0,0-1.5068-1.6724A1.6134,1.6134,0,0,0,904.543,217.5405Z"/><path d="M913.7051,219.9717h-.044A1.7109,1.7109,0,0,1,912,221.0278c-1.4189,0-2.31-1.1548-2.31-2.97s.8907-2.9707,2.31-2.9707a1.6578,1.6578,0,0,1,1.6611,1.0567h.044v-3.3887h.8808v8.1411h-.8808Zm0-.8911v-2.1123c0-.627-.6592-1.0889-1.4629-1.0889a1.5493,1.5493,0,0,0-1.6065,1.6943v.9678a1.5493,1.5493,0,0,0,1.6065,1.6943C913.0459,220.2358,913.7051,219.8179,913.7051,219.0806Z"/><path d="M877.5869,226.417h2.5752c1.9141,0,3.1465,1.2764,3.1465,3.84s-1.2324,3.8394-3.1465,3.8394h-2.5752Zm2.5752,6.8652a2.1347,2.1347,0,0,0,2.1563-2.3984v-1.2544a2.1344,2.1344,0,0,0-2.1563-2.398h-1.65v6.0508Z"/><path d="M884.9678,234.0962V226.417h4.6875v.8144h-3.7627v2.398h3.542v.8144h-3.542v2.8384h3.7627v.814Z"/><path d="M893.3945,230.3228l-1.0888,1.21v2.5635h-.9248V226.417h.9248v4.0815h.0332l1.1-1.331,2.3213-2.75h1.1338l-2.8614,3.29,3.0586,4.39h-1.1435Z"/><path d="M681.1123,220.896l-.77-2.2661H677.24l-.77,2.2661h-.9355l2.6846-7.6792h1.1777l2.6836,7.6792Zm-2.2988-6.8208h-.0557l-1.2978,3.74h2.6513Z"/><path d="M683.3555,220.896v-7.6792h4.6865v.8144h-3.7627v2.398h3.543v.8145h-3.543v2.8383h3.7627v.814Z"/><path d="M689.207,219.686l.6826-.5722a2.4458,2.4458,0,0,0,2.0684,1.1c1.1,0,1.6943-.5723,1.6943-1.4522,0-.7261-.4072-1.0893-1.42-1.32l-.6269-.1431c-1.3965-.3188-2.167-.935-2.167-2.1123,0-1.3642,1.0342-2.101,2.541-2.101a2.8916,2.8916,0,0,1,2.542,1.2539l-.6934.5063a2.1669,2.1669,0,0,0-1.8926-.9463c-.9785,0-1.5839.4292-1.5839,1.2544,0,.7261.4726,1.0562,1.4414,1.2759l.6269.1431c1.4961.3413,2.1455,1.0014,2.1455,2.1455,0,1.4082-.99,2.31-2.6406,2.31A3.1815,3.1815,0,0,1,689.207,219.686Z"/><path d="M666.6357,234.0962a.9165.9165,0,0,1-.9785-.9243h-.0556a1.6017,1.6017,0,0,1-1.6387,1.0561,1.674,1.674,0,0,1-1.9033-1.7163c0-1.0669.77-1.6611,2.42-1.6611h1.1221v-.561c0-.8033-.4395-1.2432-1.3418-1.2432a1.5859,1.5859,0,0,0-1.4414.8472l-.5274-.4952a2.1564,2.1564,0,0,1,2.0127-1.1113c1.3643,0,2.1787.7153,2.1787,1.9146v3.1245h.6485v.77Zm-1.0341-1.65v-.9351h-1.1661c-1.0009,0-1.4521.3081-1.4521.8584v.231c0,.561.44.88,1.1221.88C664.9746,233.48,665.6016,233.0288,665.6016,232.4458Z"/><path d="M669.3193,234.0962a.8607.8607,0,0,1-.9345-.9131v-7.228h.88v7.3711h.836v.77Z"/><path d="M673.4111,236.4287c-1.7705,0-2.497-.5063-2.497-1.3975a1.064,1.064,0,0,1,.9023-1.1V233.81a.8216.8216,0,0,1-.5059-.792c0-.5723.4073-.8472.9786-.99v-.0439a1.8452,1.8452,0,0,1-1.0664-1.7383,1.945,1.945,0,0,1,2.1337-1.9585,2.5466,2.5466,0,0,1,1.0782.22v-.0991c0-.44.1875-.7588.66-.7588h.8477v.77h-1.0781v.3628a1.89,1.89,0,0,1,.6484,1.4634,1.9488,1.9488,0,0,1-2.1455,1.9585,2.8977,2.8977,0,0,1-.55-.0552c-.374.0991-.7481.2862-.7481.6382,0,.3408.3526.4287.8692.4287h1.21c1.4082,0,2.0137.5723,2.0137,1.5073C676.1621,235.89,675.2383,236.4287,673.4111,236.4287Zm.7491-2.3877h-1.8926a.7928.7928,0,0,0-.5283.77c0,.4947.3408.9019,1.2324.9019h.8135c.9794,0,1.5517-.3081,1.5517-.9243C675.3369,234.3384,675.04,234.041,674.16,234.041Zm.4287-3.6416v-.3076c0-.748-.4737-1.1006-1.2217-1.1006s-1.2207.3526-1.2207,1.1006v.3076c0,.7485.4726,1.1006,1.2207,1.1006S674.5889,231.1479,674.5889,230.3994Z"/><path d="M676.7,231.2578c0-1.8042,1.0449-2.9707,2.5635-2.9707s2.5634,1.1665,2.5634,2.9707-1.0449,2.97-2.5634,2.97S676.7,233.062,676.7,231.2578Zm4.1807.4072v-.8144a1.6248,1.6248,0,1,0-3.2344,0v.8144a1.6248,1.6248,0,1,0,3.2344,0Z"/><path d="M683.2783,234.0962v-5.6768h.8809v1.045h.0547a1.63,1.63,0,0,1,1.6386-1.045h.3418v.88h-.5175c-.9463,0-1.5176.4072-1.5176.9463v3.8506Z"/><path d="M687.2158,226.5933V226.45c0-.2974.1651-.4951.5391-.4951s.539.1977.539.4951v.1431c0,.2968-.165.4951-.539.4951S687.2158,226.89,687.2158,226.5933Zm.1,1.8261h.88v5.6768h-.88Z"/><path d="M691.3193,234.0962a.8661.8661,0,0,1-.9345-.9351V229.19h-.9356v-.77h.5283c.3741,0,.4952-.1323.4952-.5171v-1.0561h.7919v1.5732h1.2432v.77h-1.2432v4.1367H692.42v.77Z"/><path d="M693.9258,225.9551h.8808v3.3887h.044a1.6087,1.6087,0,0,1,1.6055-1.0567c1.1669,0,1.9033.7925,1.9033,2.1675v3.6416h-.88v-3.4873c0-1.0122-.44-1.5293-1.2871-1.5293-.7041,0-1.3858.352-1.3858,1.0781v3.9385h-.8808Z"/><path d="M700.1738,234.0962v-5.6768h.8809v.9244h.0439a1.5271,1.5271,0,0,1,1.5293-1.0567,1.7479,1.7479,0,0,1,1.7383,1.1553h.0215a1.703,1.703,0,0,1,1.7275-1.1553c1.1553,0,1.8477.7925,1.8477,2.1675v3.6416h-.88v-3.4873c0-1.0015-.3848-1.5293-1.2432-1.5293-.6933,0-1.331.352-1.331,1.0781v3.9385h-.88v-3.4873c0-1.0122-.3857-1.5293-1.2217-1.5293-.6924,0-1.3525.352-1.3525,1.0781v3.9385Z"/><path d="M467.1035,221.8955l-1.87-7.6792h.9795l.8252,3.6968.6377,2.8711h.0224l.7149-2.8711.9678-3.6968h1.0566l.9346,3.6968.7158,2.86h.0322l.66-2.86.8691-3.6968h.9463l-1.9687,7.6792h-1.0235l-1.001-3.8286-.7041-2.8164h-.0224l-.7256,2.8164-1.0234,3.8286Z"/><path d="M475.64,221.8955v-5.6767h.88v1.0449h.0547a1.6318,1.6318,0,0,1,1.64-1.0449h.3408v.88h-.5166c-.9463,0-1.5186.4073-1.5186.9463v3.8506Z"/><path d="M483.7578,221.8955a.9164.9164,0,0,1-.9785-.9243h-.0557a1.6015,1.6015,0,0,1-1.6386,1.0561,1.6741,1.6741,0,0,1-1.9034-1.7163c0-1.0669.77-1.6611,2.42-1.6611h1.122v-.561c0-.8033-.4394-1.2432-1.3418-1.2432a1.586,1.586,0,0,0-1.4414.8472l-.5273-.4951a2.1561,2.1561,0,0,1,2.0127-1.1114c1.3642,0,2.1787.7154,2.1787,1.9146v3.1245h.6484v.77Zm-1.0342-1.65v-.935h-1.166c-1.001,0-1.4521.3081-1.4521.8584v.2309c0,.561.44.88,1.122.88C482.0967,221.2793,482.7236,220.8281,482.7236,220.2451Z"/><path d="M485.5059,216.2188h.8808v.9243h.044a1.6577,1.6577,0,0,1,1.6611-1.0567c1.4189,0,2.3105,1.1553,2.3105,2.9707s-.8916,2.97-2.3105,2.97a1.7108,1.7108,0,0,1-1.6611-1.0561h-.044v3.1245h-.8808Zm3.95,3.3222v-.9678a1.5493,1.5493,0,0,0-1.6065-1.6943c-.8027,0-1.4629.4619-1.4629,1.0889V220.08c0,.7373.66,1.1553,1.4629,1.1553A1.5494,1.5494,0,0,0,489.4561,219.541Z"/><path d="M491.8857,216.2188h.8809v.9243h.0439a1.6579,1.6579,0,0,1,1.6612-1.0567c1.4189,0,2.31,1.1553,2.31,2.9707s-.8916,2.97-2.31,2.97a1.711,1.711,0,0,1-1.6612-1.0561h-.0439v3.1245h-.8809Zm3.95,3.3222v-.9678a1.5492,1.5492,0,0,0-1.6064-1.6943c-.8027,0-1.4629.4619-1.4629,1.0889V220.08c0,.7373.66,1.1553,1.4629,1.1553A1.5493,1.5493,0,0,0,495.8359,219.541Z"/><path d="M497.8477,219.0571c0-1.8042,1.0127-2.9707,2.5527-2.9707a2.4856,2.4856,0,0,1,2.4531,2.7725v.4184h-4.081v.2637a1.6074,1.6074,0,0,0,1.6826,1.7163,1.6457,1.6457,0,0,0,1.5625-.979l.6269.4512a2.3815,2.3815,0,0,1-2.2441,1.2978C498.86,222.0273,497.8477,220.8613,497.8477,219.0571Zm.9248-.5171v.0772h3.1347v-.1211a1.5094,1.5094,0,0,0-1.5068-1.6724A1.6134,1.6134,0,0,0,498.7725,218.54Z"/><path d="M507.9355,220.9712h-.0439a1.7109,1.7109,0,0,1-1.6611,1.0561c-1.419,0-2.3106-1.1547-2.3106-2.97s.8916-2.9707,2.3106-2.9707a1.6579,1.6579,0,0,1,1.6611,1.0567h.0439v-3.3887h.88v8.1411h-.88Zm0-.8911v-2.1123c0-.627-.66-1.0889-1.4628-1.0889a1.5492,1.5492,0,0,0-1.6065,1.6943v.9678a1.5493,1.5493,0,0,0,1.6065,1.6944C507.2754,221.2354,507.9355,220.8174,507.9355,220.08Z"/><path d="M513.3682,214.2163h2.5752c1.914,0,3.1464,1.2764,3.1464,3.84s-1.2324,3.8393-3.1464,3.8393h-2.5752Zm2.5752,6.8652a2.1347,2.1347,0,0,0,2.1562-2.3984v-1.2544a2.1343,2.1343,0,0,0-2.1562-2.3979h-1.65v6.0507Z"/><path d="M520.75,221.8955v-7.6792h4.6865v.8145h-3.7627v2.3979h3.543v.8145h-3.543v2.8383h3.7627v.814Z"/><path d="M529.1758,218.1221l-1.0889,1.21v2.5635h-.9248v-7.6792h.9248v4.0816h.0332l1.1-1.3311,2.3213-2.7505h1.1338l-2.8613,3.29,3.0586,4.39h-1.1436Z"/><path d="M536.9521,216.9888h-.9238v-.77h.9238v-1.1441a1.1727,1.1727,0,0,1,1.2432-1.32h.8584v.77H537.833v1.6944h1.2207v.77H537.833v4.9067h-.8809Z"/><path d="M540.208,221.8955v-5.6767h.8809v1.0449h.0547a1.63,1.63,0,0,1,1.6386-1.0449h.3418v.88h-.5176c-.9462,0-1.5175.4073-1.5175.9463v3.8506Z"/><path d="M543.7725,219.0571c0-1.8042,1.0449-2.9707,2.5634-2.9707s2.5635,1.1665,2.5635,2.9707-1.0459,2.97-2.5635,2.97S543.7725,220.8613,543.7725,219.0571Zm4.1806.4073V218.65a1.6248,1.6248,0,1,0-3.2343,0v.8145a1.6248,1.6248,0,1,0,3.2343,0Z"/><path d="M550.3506,221.8955v-5.6767h.88v.9243h.0439a1.5278,1.5278,0,0,1,1.5293-1.0567,1.7471,1.7471,0,0,1,1.7383,1.1553h.0225a1.7024,1.7024,0,0,1,1.7265-1.1553c1.1553,0,1.8486.7925,1.8486,2.1675v3.6416h-.88v-3.4873c0-1.0015-.3858-1.5293-1.2432-1.5293-.6934,0-1.332.3521-1.332,1.0781v3.9385h-.88v-3.4873c0-1.0122-.3848-1.5293-1.2207-1.5293-.6934,0-1.3535.3521-1.3535,1.0781v3.9385Z"/><path d="M481.2715,232.2573c0-1.8154.9346-2.9707,2.53-2.9707a2.1274,2.1274,0,0,1,2.123,1.3316l-.7373.374a1.3671,1.3671,0,0,0-1.3857-.9243,1.5244,1.5244,0,0,0-1.584,1.7055v.9678a1.5245,1.5245,0,0,0,1.584,1.7056,1.6022,1.6022,0,0,0,1.54-.99l.6377.4292a2.2367,2.2367,0,0,1-2.1777,1.3418C482.2061,235.2275,481.2715,234.0728,481.2715,232.2573Z"/><path d="M488.1572,235.0957a.861.861,0,0,1-.9355-.9131v-7.228h.8808v7.3711h.836v.77Z"/><path d="M489.7959,232.2573c0-1.8042,1.0449-2.9707,2.5635-2.9707s2.5635,1.1665,2.5635,2.9707-1.045,2.97-2.5635,2.97S489.7959,234.0615,489.7959,232.2573Zm4.1807.4073V231.85a1.6248,1.6248,0,1,0-3.2344,0v.8145a1.6248,1.6248,0,1,0,3.2344,0Z"/><path d="M499.8721,234.1714h-.044a1.5765,1.5765,0,0,1-1.5947,1.0561c-1.166,0-1.9141-.792-1.9141-2.167v-3.6416h.88v3.4873c0,1.0123.4512,1.5293,1.2979,1.5293.6933,0,1.375-.3408,1.375-1.0888v-3.9278h.8808v5.6768h-.8808Z"/><path d="M506.252,234.1714h-.044a1.7109,1.7109,0,0,1-1.6611,1.0561c-1.419,0-2.31-1.1547-2.31-2.97s.8906-2.9707,2.31-2.9707a1.6579,1.6579,0,0,1,1.6611,1.0567h.044v-3.3887h.8808v8.1411h-.8808Zm0-.8911V231.168c0-.627-.6592-1.0889-1.4629-1.0889a1.5492,1.5492,0,0,0-1.6065,1.6943v.9678a1.5492,1.5492,0,0,0,1.6065,1.6943C505.5928,234.4355,506.252,234.0176,506.252,233.28Z"/><path d="M511.0586,234.1167l.6269-.5063a2.06,2.06,0,0,0,1.6836.8691c.7481,0,1.1875-.3408,1.1875-.9238,0-.4405-.2421-.7813-.99-.8911l-.4512-.0665c-1.0449-.1538-1.8261-.583-1.8261-1.6391,0-1.1221.8691-1.6724,2.0244-1.6724a2.3634,2.3634,0,0,1,1.98.9136l-.583.5278a1.7512,1.7512,0,0,0-1.4629-.6928c-.7265,0-1.1113.3408-1.1113.88,0,.55.3848.77,1.0889.88l.44.0659c1.2539.187,1.7383.7368,1.7383,1.5952,0,1.1-.8037,1.771-2.1016,1.771A2.6377,2.6377,0,0,1,511.0586,234.1167Z"/><path d="M516.5371,232.2573c0-1.8042,1.0117-2.9707,2.5518-2.9707a2.4864,2.4864,0,0,1,2.4541,2.7725v.4184h-4.0821v.2637a1.6077,1.6077,0,0,0,1.6836,1.7163,1.6444,1.6444,0,0,0,1.5616-.979l.6279.4512a2.3832,2.3832,0,0,1-2.2451,1.2978C517.5488,235.2275,516.5371,234.0615,516.5371,232.2573Zm.9238-.5171v.0772h3.1358v-.1211a1.51,1.51,0,0,0-1.5078-1.6724A1.6134,1.6134,0,0,0,517.4609,231.74Z"/><path d="M522.9932,235.0957v-5.6768h.8808v1.045h.0547a1.6306,1.6306,0,0,1,1.6387-1.045h.3418v.88h-.5176c-.9463,0-1.5176.4073-1.5176.9463v3.8506Z"/><path d="M528.3945,235.0957l-1.9912-5.6768h.88l.99,2.8165.6162,1.936h.0547l.6162-1.936,1.0127-2.8165h.8467l-2.0019,5.6768Z"/><path d="M532.4531,227.5928V227.45c0-.2974.1651-.4951.5391-.4951s.539.1977.539.4951v.1431c0,.2968-.165.4951-.539.4951S532.4531,227.89,532.4531,227.5928Zm.1,1.8261h.88v5.6768h-.88Z"/><path d="M534.8848,232.2573c0-1.8154.9345-2.9707,2.53-2.9707a2.1275,2.1275,0,0,1,2.1231,1.3316l-.7373.374a1.3671,1.3671,0,0,0-1.3858-.9243,1.5244,1.5244,0,0,0-1.5839,1.7055v.9678a1.5245,1.5245,0,0,0,1.5839,1.7056,1.6022,1.6022,0,0,0,1.54-.99l.6377.4292a2.2367,2.2367,0,0,1-2.1778,1.3418C535.8193,235.2275,534.8848,234.0728,534.8848,232.2573Z"/><path d="M540.3516,232.2573c0-1.8042,1.0117-2.9707,2.5517-2.9707a2.4863,2.4863,0,0,1,2.4541,2.7725v.4184h-4.082v.2637a1.6077,1.6077,0,0,0,1.6836,1.7163,1.6444,1.6444,0,0,0,1.5615-.979l.6279.4512a2.383,2.383,0,0,1-2.2451,1.2978C541.3633,235.2275,540.3516,234.0615,540.3516,232.2573Zm.9238-.5171v.0772h3.1357v-.1211a1.51,1.51,0,0,0-1.5078-1.6724A1.6134,1.6134,0,0,0,541.2754,231.74Z"/><path d="M330.2656,221.895h-.9243v-7.6792H332.4a2.1955,2.1955,0,0,1,.605,4.2905l1.76,3.3887H333.72l-1.6611-3.3h-1.7935Zm2.1343-4.0928a1.0287,1.0287,0,0,0,1.1553-1.1V216.13a1.0287,1.0287,0,0,0-1.1553-1.1h-2.1343v2.7719Z"/><path d="M335.71,219.0566c0-1.8042,1.045-2.9707,2.5635-2.9707s2.5635,1.1665,2.5635,2.9707-1.0454,2.97-2.5635,2.97S335.71,220.8608,335.71,219.0566Zm4.1807.4073v-.8145a1.6248,1.6248,0,1,0-3.2344,0v.8145a1.6248,1.6248,0,1,0,3.2344,0Z"/><path d="M341.8706,219.0566c0-1.8042,1.0449-2.9707,2.5635-2.9707s2.5635,1.1665,2.5635,2.9707-1.0455,2.97-2.5635,2.97S341.8706,220.8608,341.8706,219.0566Zm4.1807.4073v-.8145a1.6248,1.6248,0,1,0-3.2344,0v.8145a1.6248,1.6248,0,1,0,3.2344,0Z"/><path d="M349.7026,221.895a.8667.8667,0,0,1-.935-.935v-3.9717h-.9356v-.77h.5284c.374,0,.4951-.1324.4951-.5171V214.645h.792v1.5733h1.2431v.77h-1.2431v4.1367h1.1552v.77Z"/><path d="M354.9053,213.7539h.88v5.16h.044l.8691-.9683,1.606-1.727h1.0674l-2.1016,2.2441,2.3106,3.4326h-1.0674l-1.8809-2.8935-.8472.8691v2.0244h-.88Z"/><path d="M360.0972,219.0566c0-1.8042,1.0122-2.9707,2.5522-2.9707a2.4859,2.4859,0,0,1,2.4536,2.7725v.4185h-4.0815v.2636a1.6075,1.6075,0,0,0,1.6831,1.7163,1.645,1.645,0,0,0,1.562-.979l.6274.4512a2.3823,2.3823,0,0,1-2.2446,1.2979C361.1094,222.0269,360.0972,220.8608,360.0972,219.0566Zm.9243-.517v.0771h3.1352v-.1211a1.51,1.51,0,0,0-1.5073-1.6724A1.6134,1.6134,0,0,0,361.0215,218.54Z"/><path d="M369.998,216.2183h.8692l-2.5415,6.997c-.2529.6822-.4839.88-1.32.88h-.4512v-.77h.8911l.4292-1.21-2.1235-5.8969h.88l1.3638,3.8613.2642.9243h.0551l.3081-.9243Z"/><path d="M374.4849,214.3921v-.1431c0-.2973.165-.4951.539-.4951s.5391.1978.5391.4951v.1431c0,.2969-.1651.4951-.5391.4951S374.4849,214.689,374.4849,214.3921Zm.0991,1.8262h.88v5.6767h-.88Z"/><path d="M377.334,221.895v-5.6767h.88v.9243h.0439a1.6093,1.6093,0,0,1,1.606-1.0567c1.1665,0,1.9033.7925,1.9033,2.1675v3.6416h-.88v-3.4873c0-1.0122-.44-1.5293-1.2871-1.5293-.7041,0-1.3862.3521-1.3862,1.0781v3.9385Z"/><path d="M330.1616,231.3218l-1.0893,1.21v2.5635h-.9244V227.416h.9244v4.0816h.0332l1.1-1.3311,2.3213-2.7505H333.66l-2.8609,3.29,3.0586,4.39h-1.144Z"/><path d="M334.3408,232.2568c0-1.8042,1.0122-2.9707,2.5523-2.9707a2.486,2.486,0,0,1,2.4536,2.7725v.4185h-4.0816v.2636a1.6076,1.6076,0,0,0,1.6831,1.7163,1.6451,1.6451,0,0,0,1.5621-.979l.6274.4512a2.3825,2.3825,0,0,1-2.2446,1.2979C335.353,235.2271,334.3408,234.061,334.3408,232.2568Zm.9243-.5171v.0772H338.4v-.1211a1.51,1.51,0,0,0-1.5073-1.6724A1.6134,1.6134,0,0,0,335.2651,231.74Z"/><path d="M344.2417,229.4185h.8691l-2.5415,6.997c-.2529.6822-.4839.88-1.32.88h-.4512v-.77h.8912l.4292-1.21-2.1236-5.8969h.88l1.3638,3.8613.2641.9243h.0552l.3081-.9243Z"/><path d="M348.916,235.0952V227.416h3.0586a2.2012,2.2012,0,0,1,0,4.4009H349.84v3.2783Zm.9243-4.0928h2.1343a1.0287,1.0287,0,0,0,1.1553-1.1v-.5717a1.0287,1.0287,0,0,0-1.1553-1.1H349.84Z"/><path d="M355.3838,235.0952v-5.6767h.88v1.0449h.0546a1.6312,1.6312,0,0,1,1.6392-1.0449h.3413v.88h-.5171c-.9463,0-1.518.4073-1.518.9463v3.8506Z"/><path d="M358.9478,232.2568c0-1.8042,1.0449-2.9707,2.5634-2.9707s2.5635,1.1665,2.5635,2.9707-1.0454,2.97-2.5635,2.97S358.9478,234.061,358.9478,232.2568Zm4.1806.4073V231.85a1.6248,1.6248,0,1,0-3.2344,0v.8145a1.6248,1.6248,0,1,0,3.2344,0Z"/><path d="M366.78,235.0952a.8665.8665,0,0,1-.9351-.935v-3.9717H364.91v-.77h.5283c.374,0,.4951-.1324.4951-.5171v-1.0562h.792v1.5733h1.2432v.77h-1.2432v4.1367H367.88v.77Z"/><path d="M368.9248,232.2568c0-1.8042,1.0122-2.9707,2.5523-2.9707a2.486,2.486,0,0,1,2.4536,2.7725v.4185h-4.0816v.2636a1.6076,1.6076,0,0,0,1.6831,1.7163,1.6449,1.6449,0,0,0,1.562-.979l.6275.4512a2.3825,2.3825,0,0,1-2.2446,1.2979C369.937,235.2271,368.9248,234.061,368.9248,232.2568Zm.9243-.5171v.0772h3.1353v-.1211a1.51,1.51,0,0,0-1.5073-1.6724A1.6134,1.6134,0,0,0,369.8491,231.74Z"/><path d="M374.9639,232.2568c0-1.8154.935-2.9707,2.53-2.9707a2.1282,2.1282,0,0,1,2.1236,1.3316l-.7373.374a1.3677,1.3677,0,0,0-1.3863-.9243,1.5244,1.5244,0,0,0-1.5839,1.7055v.9678a1.5244,1.5244,0,0,0,1.5839,1.7056,1.603,1.603,0,0,0,1.5406-.99l.6377.4292a2.238,2.238,0,0,1-2.1783,1.3418C375.8989,235.2271,374.9639,234.0723,374.9639,232.2568Z"/><path d="M382.1689,235.0952a.8664.8664,0,0,1-.935-.935v-3.9717h-.9356v-.77h.5284c.374,0,.4951-.1324.4951-.5171v-1.0562h.792v1.5733h1.2431v.77h-1.2431v4.1367h1.1552v.77Z"/><path d="M293.3994,103.5854l-1.1157,1.3194v2.4707h-1.583V99.0039h1.583v4.126h.06l1.1874-1.5713,2.0748-2.5547h1.8232l-2.9146,3.49,3.1543,4.8814h-1.8828Z"/><path d="M298.021,104.2334c0-1.979,1.0674-3.2622,2.9023-3.2622,1.9551,0,2.8545,1.439,2.8545,3.1543v.5034h-4.1616v.1563a1.39,1.39,0,0,0,1.523,1.5107,1.9,1.9,0,0,0,1.5952-.8516l.8276.9239a3.0988,3.0988,0,0,1-2.5908,1.1513C299.1245,107.52,298.021,106.2363,298.021,104.2334Zm1.5952-.648v.0962h2.5664v-.1079c0-.8637-.4438-1.4511-1.2353-1.4511A1.3287,1.3287,0,0,0,299.6162,103.5854Z"/><path d="M308.9028,101.1147h1.439l-2.5186,7.376a1.6177,1.6177,0,0,1-1.7871,1.2837h-.9233v-1.2236H306.24l.2876-.8755-2.2426-6.5606h1.5234l1.0913,3.3106.4077,1.583h.0718l.4316-1.583Z"/><path d="M314.28,107.3755V99.0039h3.7661a2.593,2.593,0,0,1,0,5.1812h-2.1831v3.19Zm1.583-4.5576h2.039a.8805.8805,0,0,0,.9834-.9473v-.5518a.872.872,0,0,0-.9834-.9355h-2.039Z"/><path d="M321.7568,107.3755v-6.2608h1.5352V102.41h.06a1.6059,1.6059,0,0,1,1.6552-1.2955h.336v1.4512h-.48c-1.0313,0-1.5708.2881-1.5708.9717v3.8379Z"/><path d="M325.9927,104.2334c0-2.0029,1.1152-3.2622,2.9023-3.2622,1.7988,0,2.9146,1.2593,2.9146,3.2622,0,2.0146-1.1158,3.2861-2.9146,3.2861C327.1079,107.52,325.9927,106.248,325.9927,104.2334Zm4.2094.5874v-1.1631c0-.9355-.5034-1.4512-1.3071-1.4512-.7915,0-1.2954.5157-1.2954,1.4512v1.1631c0,.9478.5039,1.4634,1.2954,1.4634C329.6987,106.2842,330.2021,105.7686,330.2021,104.8208Z"/><path d="M335.0752,107.3755a1.4489,1.4489,0,0,1-1.6191-1.5952v-3.4541h-.9234v-1.2115h.48c.4556,0,.6-.2158.6-.6474V99.4h1.3789v1.7148h1.2837v1.2115h-1.2837v3.8261h1.1875v1.2232Z"/><path d="M337.1406,104.2334c0-1.979,1.0674-3.2622,2.9024-3.2622,1.955,0,2.8545,1.439,2.8545,3.1543v.5034h-4.1617v.1563a1.39,1.39,0,0,0,1.523,1.5107,1.9,1.9,0,0,0,1.5952-.8516l.8276.9239a3.0988,3.0988,0,0,1-2.5908,1.1513C338.2441,107.52,337.1406,106.2363,337.1406,104.2334Zm1.5952-.648v.0962h2.5664v-.1079c0-.8637-.4438-1.4511-1.2353-1.4511A1.329,1.329,0,0,0,338.7358,103.5854Z"/><path d="M343.8364,104.2334c0-2.0029,1.0435-3.2622,2.89-3.2622a2.42,2.42,0,0,1,2.4589,1.583l-1.2592.5635a1.1694,1.1694,0,0,0-1.2-.9112c-.8511,0-1.2832.6-1.2832,1.4751v1.1392c0,.8755.4321,1.4634,1.2832,1.4634a1.3385,1.3385,0,0,0,1.3193-.9834l1.1758.5635a2.4469,2.4469,0,0,1-2.4951,1.6552C344.88,107.52,343.8364,106.248,343.8364,104.2334Z"/><path d="M352.3667,107.3755a1.4489,1.4489,0,0,1-1.6191-1.5952v-3.4541h-.9234v-1.2115h.48c.4556,0,.6-.2158.6-.6474V99.4h1.3789v1.7148h1.2837v1.2115h-1.2837v3.8261H353.47v1.2232Z"/><path d="M117.1792,221.896l-1.87-7.6792h.979l.8252,3.6968.6382,2.8711h.0219l.7149-2.8711.9682-3.6968h1.0562l.9351,3.6968.7153,2.86h.0327l.66-2.86.8691-3.6968h.9463l-1.9693,7.6792h-1.0234l-1.001-3.8286-.7041-2.8164h-.0219l-.7261,2.8164-1.0235,3.8286Z"/><path d="M125.7148,221.896v-5.6768h.88v1.045h.0547a1.6311,1.6311,0,0,1,1.6392-1.045h.3413v.88h-.5171c-.9463,0-1.5181.4072-1.5181.9463v3.8506Z"/><path d="M133.8335,221.896a.9168.9168,0,0,1-.979-.9243h-.0552a1.6023,1.6023,0,0,1-1.6391,1.0561,1.6741,1.6741,0,0,1-1.9034-1.7163c0-1.0669.77-1.6611,2.42-1.6611h1.1221v-.561c0-.8033-.44-1.2432-1.3418-1.2432a1.5849,1.5849,0,0,0-1.4414.8472l-.5278-.4952a2.1571,2.1571,0,0,1,2.0132-1.1113c1.3642,0,2.1782.7153,2.1782,1.9146v3.1245h.6489v.77Zm-1.0342-1.65v-.9351h-1.166c-1.001,0-1.4521.3082-1.4521.8584v.231c0,.561.44.88,1.122.88C132.1724,221.28,132.7993,220.8286,132.7993,220.2456Z"/><path d="M135.5815,216.2192h.88v.9244h.044a1.6577,1.6577,0,0,1,1.6611-1.0567c1.4194,0,2.31,1.1553,2.31,2.9707s-.8911,2.97-2.31,2.97a1.7108,1.7108,0,0,1-1.6611-1.0561h-.044v3.1245h-.88Zm3.95,3.3223v-.9678a1.5492,1.5492,0,0,0-1.6064-1.6943c-.8027,0-1.4629.4619-1.4629,1.0889v2.1123c0,.7373.66,1.1552,1.4629,1.1552A1.5492,1.5492,0,0,0,139.5312,219.5415Z"/><path d="M141.9614,216.2192h.88v.9244h.0439a1.6579,1.6579,0,0,1,1.6612-1.0567c1.4194,0,2.3105,1.1553,2.3105,2.9707s-.8911,2.97-2.3105,2.97a1.711,1.711,0,0,1-1.6612-1.0561h-.0439v3.1245h-.88Zm3.95,3.3223v-.9678a1.5492,1.5492,0,0,0-1.6064-1.6943c-.8027,0-1.4629.4619-1.4629,1.0889v2.1123c0,.7373.66,1.1552,1.4629,1.1552A1.5492,1.5492,0,0,0,145.9111,219.5415Z"/><path d="M147.9233,219.0576c0-1.8042,1.0122-2.9707,2.5523-2.9707a2.486,2.486,0,0,1,2.4536,2.7725v.4184h-4.0815v.2637a1.6075,1.6075,0,0,0,1.6831,1.7163,1.645,1.645,0,0,0,1.562-.979l.6274.4512a2.3823,2.3823,0,0,1-2.2446,1.2978C148.9355,222.0278,147.9233,220.8618,147.9233,219.0576Zm.9244-.5171v.0772h3.1352v-.1211a1.51,1.51,0,0,0-1.5073-1.6724A1.6134,1.6134,0,0,0,148.8477,218.5405Z"/><path d="M158.0107,220.9717h-.0439a1.7109,1.7109,0,0,1-1.6611,1.0561c-1.419,0-2.31-1.1548-2.31-2.97s.8911-2.9707,2.31-2.9707a1.6579,1.6579,0,0,1,1.6611,1.0567h.0439v-3.3887h.88v8.1411h-.88Zm0-.8911v-2.1123c0-.627-.66-1.0889-1.4628-1.0889a1.5492,1.5492,0,0,0-1.6065,1.6943v.9678a1.5492,1.5492,0,0,0,1.6065,1.6943C157.3511,221.2358,158.0107,220.8179,158.0107,220.0806Z"/><path d="M131.0283,234.1719h-.0439a1.7109,1.7109,0,0,1-1.6612,1.0561c-1.4189,0-2.31-1.1548-2.31-2.97s.8911-2.9707,2.31-2.9707a1.6579,1.6579,0,0,1,1.6612,1.0567h.0439v-3.3887h.88v8.1411h-.88Zm0-.8911v-2.1123c0-.627-.66-1.0889-1.4629-1.0889a1.5492,1.5492,0,0,0-1.6064,1.6943v.9678a1.5492,1.5492,0,0,0,1.6064,1.6943C130.3687,234.436,131.0283,234.0181,131.0283,233.2808Z"/><path d="M137.9033,235.0962a.9168.9168,0,0,1-.979-.9243h-.0552a1.6022,1.6022,0,0,1-1.6391,1.0561,1.674,1.674,0,0,1-1.9033-1.7163c0-1.0669.77-1.6611,2.42-1.6611h1.122v-.561c0-.8033-.44-1.2432-1.3418-1.2432a1.5849,1.5849,0,0,0-1.4414.8472l-.5278-.4952a2.1572,2.1572,0,0,1,2.0132-1.1113c1.3642,0,2.1782.7153,2.1782,1.9146v3.1245h.6489v.77Zm-1.0342-1.65v-.9351h-1.166c-1.001,0-1.4521.3081-1.4521.8584v.231c0,.561.44.88,1.122.88C136.2422,234.48,136.8691,234.0288,136.8691,233.4458Z"/><path d="M140.9062,235.0962a.8667.8667,0,0,1-.935-.9351V230.19h-.9356v-.77h.5284c.374,0,.4951-.1323.4951-.5171v-1.0561h.792v1.5732h1.2431v.77h-1.2431v4.1367h1.1552v.77Z"/><path d="M147.6382,235.0962a.9168.9168,0,0,1-.979-.9243h-.0552a1.6023,1.6023,0,0,1-1.6392,1.0561,1.674,1.674,0,0,1-1.9033-1.7163c0-1.0669.77-1.6611,2.42-1.6611h1.1221v-.561c0-.8033-.44-1.2432-1.3418-1.2432a1.5849,1.5849,0,0,0-1.4414.8472l-.5278-.4952a2.1571,2.1571,0,0,1,2.0132-1.1113c1.3642,0,2.1782.7153,2.1782,1.9146v3.1245h.6489v.77Zm-1.0342-1.65v-.9351h-1.166c-1.001,0-1.4522.3081-1.4522.8584v.231c0,.561.44.88,1.1221.88C145.9771,234.48,146.604,234.0288,146.604,233.4458Z"/><path d="M71.353,107.3755V106.104h1.1035v-5.8286H71.353V99.0039h3.8018v1.2715H74.04v5.8286h1.1152v1.2715Z"/><path d="M76.7764,99.0039H80.65a2.0352,2.0352,0,0,1,2.2187,2.147A1.57,1.57,0,0,1,81.37,102.95v.0723a1.8348,1.8348,0,0,1,1.8106,1.9546,2.2491,2.2491,0,0,1-2.1587,2.3989H76.7764Zm1.583,3.49h1.9551a.8265.8265,0,0,0,.9116-.8877v-.3715a.8211.8211,0,0,0-.9116-.8877H78.3594Zm0,3.5381h2.207a.853.853,0,0,0,.9595-.9116v-.4077a.8617.8617,0,0,0-.9595-.9233h-2.207Z"/><path d="M91.0649,101.4268h-.0478l-.6358,1.2714-1.7387,3.1661L86.9272,102.71l-.66-1.3433h-.0362v6.0088h-1.499V99.0039h1.751l2.147,4.09h.0361l2.1348-4.09H92.564v8.3716H91.0649Z"/><path d="M97.0083,103.25c0-2.8188,1.4033-4.39,3.61-4.39a3.0523,3.0523,0,0,1,3.0581,1.9306l-1.3555.72a1.6567,1.6567,0,0,0-1.7026-1.2475c-1.1758,0-1.9312.8515-1.9312,2.2788v1.3193c0,1.4395.7554,2.2549,1.9312,2.2549a1.8608,1.8608,0,0,0,1.811-1.331l1.2832.7553a3.2163,3.2163,0,0,1-3.0942,1.979C98.4116,107.52,97.0083,106.0684,97.0083,103.25Z"/><path d="M106.5117,107.3755a1.3576,1.3576,0,0,1-1.5351-1.5112V98.5005h1.5351v7.6518h.8272v1.2232Z"/><path d="M108.0845,104.2334c0-2.0029,1.1152-3.2622,2.9023-3.2622,1.7988,0,2.9146,1.2593,2.9146,3.2622,0,2.0146-1.1158,3.2861-2.9146,3.2861C109.2,107.52,108.0845,106.248,108.0845,104.2334Zm4.2094.5874v-1.1631c0-.9355-.5034-1.4512-1.3071-1.4512-.7915,0-1.2954.5157-1.2954,1.4512v1.1631c0,.9478.5039,1.4634,1.2954,1.4634C111.7905,106.2842,112.2939,105.7686,112.2939,104.8208Z"/><path d="M119.002,106.332h-.06a1.6984,1.6984,0,0,1-1.751,1.1875c-1.2832,0-2.0029-.8877-2.0029-2.4467v-3.9581h1.5351v3.8023c0,.8633.3238,1.331,1.0557,1.331.6113,0,1.2232-.3237,1.2232-.9956v-4.1377h1.5351v6.2608H119.002Z"/><path d="M126.2021,106.332h-.06a1.7584,1.7584,0,0,1-1.7271,1.1875c-1.5712,0-2.4467-1.1875-2.4467-3.2861,0-2.0869.8755-3.2622,2.4467-3.2622a1.7233,1.7233,0,0,1,1.7271,1.1753h.06v-3.646h1.5352v8.875h-1.5352Zm0-1.1035v-1.9907c0-.6118-.5639-1.0073-1.2954-1.0073a1.3328,1.3328,0,0,0-1.331,1.4751v1.08a1.3227,1.3227,0,0,0,1.331,1.4628C125.6382,106.248,126.2021,105.8765,126.2021,105.2285Z"/><path d="M131.8081,106.3682l.9356-.9117a2.2,2.2,0,0,0,1.7153.8516c.7314,0,1.0434-.2759,1.0434-.72,0-.36-.2163-.5874-.7675-.66l-.6241-.084c-1.3432-.1679-2.0869-.7553-2.0869-1.895,0-1.2109.9478-1.9785,2.375-1.9785a2.9858,2.9858,0,0,1,2.4468.9834l-.9.8994a2.0674,2.0674,0,0,0-1.499-.6719c-.66,0-.9473.2642-.9473.648,0,.42.2276.6113.8154.7075l.6358.084c1.3672.1919,2.0268.8037,2.0268,1.8472,0,1.2109-1.0195,2.0507-2.5786,2.0507A3.179,3.179,0,0,1,131.8081,106.3682Z"/><path d="M137.916,104.2334c0-1.979,1.0674-3.2622,2.9024-3.2622,1.955,0,2.8545,1.439,2.8545,3.1543v.5034h-4.1617v.1563a1.39,1.39,0,0,0,1.523,1.5107,1.9,1.9,0,0,0,1.5952-.8516l.8276.9239a3.0988,3.0988,0,0,1-2.5908,1.1513C139.02,107.52,137.916,106.2363,137.916,104.2334Zm1.5952-.648v.0962h2.5664v-.1079c0-.8637-.4438-1.4511-1.2353-1.4511A1.329,1.329,0,0,0,139.5112,103.5854Z"/><path d="M145.0317,107.3755v-6.2608h1.5352V102.41h.06a1.6059,1.6059,0,0,1,1.6552-1.2955h.336v1.4512h-.48c-1.0313,0-1.5708.2881-1.5708.9717v3.8379Z"/><path d="M151.187,107.3755,149.1,101.1147h1.5112l.8755,2.6988.6113,2.2309h.084l.6118-2.2309.8516-2.6988h1.4634l-2.0991,6.2608Z"/><path d="M156,99.436v-.24c0-.4434.2642-.7676.9-.7676.6235,0,.8994.3242.8994.7676v.24c0,.4434-.2759.7676-.8994.7676C156.2637,100.2036,156,99.8794,156,99.436Zm.1323,1.6787h1.5352v6.2608h-1.5352Z"/><path d="M159.0234,104.2334c0-2.0029,1.0435-3.2622,2.8907-3.2622a2.42,2.42,0,0,1,2.4585,1.583l-1.2593.5635a1.1692,1.1692,0,0,0-1.1992-.9112c-.8516,0-1.2837.6-1.2837,1.4751v1.1392c0,.8755.4321,1.4634,1.2837,1.4634a1.3384,1.3384,0,0,0,1.3188-.9834l1.1753.5635a2.4457,2.4457,0,0,1-2.4941,1.6552C160.0669,107.52,159.0234,106.248,159.0234,104.2334Z"/><path d="M165.12,104.2334c0-1.979,1.0674-3.2622,2.9024-3.2622,1.9551,0,2.8545,1.439,2.8545,3.1543v.5034h-4.1617v.1563a1.39,1.39,0,0,0,1.523,1.5107,1.9,1.9,0,0,0,1.5952-.8516l.8276.9239A3.0988,3.0988,0,0,1,168.07,107.52C166.2231,107.52,165.12,106.2363,165.12,104.2334Zm1.5952-.648v.0962h2.5664v-.1079c0-.8637-.4438-1.4511-1.2353-1.4511A1.3287,1.3287,0,0,0,166.7148,103.5854Z"/><path class="cls-30" d="M52.5376,51.8276v6.8506c0,1.5689.5762,2.353,2.0166,2.353s2.0171-.7841,2.0171-2.353V51.8276H58.94v6.5948c0,3.2973-1.1845,4.7695-4.3857,4.7695s-4.3857-1.4722-4.3857-4.7695V51.8276Z"/><path class="cls-30" d="M61.208,63V54.5967h2.3691V56.021h.0958A2.2915,2.2915,0,0,1,66.01,54.4043c1.7129,0,2.625,1.2168,2.625,3.33V63H66.2661V57.9258c0-1.0723-.3042-1.6006-1.1684-1.6006-.7686,0-1.5206.4-1.5206,1.2324V63Z"/><path class="cls-30" d="M69.8481,54.5967h2.2891l.8159,3.393.5767,2.5611h.064l.6718-2.5611.96-3.393h2.1611l.9761,3.393.6885,2.5611h.0639l.5762-2.5611.8164-3.393h2.1929L80.38,63h-2.481L76.875,59.4468,76.2827,57.27h-.0478l-.5767,2.1773L74.6338,63H72.2012Z"/><path class="cls-30" d="M84.104,63V54.5967h2.3691v1.8247h.08a2.1076,2.1076,0,0,1,2.1451-1.8247h.416v2.209H88.522c-1.377,0-2.0489.3037-2.0489,1.28V63Z"/><path class="cls-30" d="M96.5542,63a1.6,1.6,0,0,1-1.6006-1.4727h-.0962a2.27,2.27,0,0,1-2.4648,1.6646,2.341,2.341,0,0,1-2.6089-2.4487c0-1.7769,1.3765-2.625,3.6011-2.625h1.3286V57.59c0-.8164-.4-1.3286-1.3926-1.3286a2.0749,2.0749,0,0,0-1.8086.9927l-1.4087-1.2485a3.6636,3.6636,0,0,1,3.3936-1.6011c2.3686,0,3.5854,1.0889,3.5854,3.0732v3.6817h.7842V63Zm-1.8408-2.5449v-.9927H93.561c-.9126,0-1.3925.3364-1.3925.9443v.24c0,.6084.4.8965,1.1044.8965C94.0571,61.5435,94.7134,61.2231,94.7134,60.4551Z"/><path class="cls-30" d="M99.4478,54.5967h2.3691v1.4087h.08a2.2761,2.2761,0,0,1,2.2573-1.6011c2.1284,0,3.2329,1.5366,3.2329,4.3862s-1.1045,4.4014-3.2329,4.4014a2.2945,2.2945,0,0,1-2.2573-1.6006h-.08v4.61H99.4478Zm5.4741,4.93V58.07a1.5792,1.5792,0,0,0-1.5528-1.7446c-.896,0-1.5522.4644-1.5522,1.2324v2.481c0,.7685.6562,1.2329,1.5522,1.2329A1.5794,1.5794,0,0,0,104.9219,59.5264Z"/><path class="cls-30" d="M109.1758,54.5967h2.3691v1.4087h.08a2.2761,2.2761,0,0,1,2.2573-1.6011c2.1289,0,3.2329,1.5366,3.2329,4.3862s-1.104,4.4014-3.2329,4.4014a2.2946,2.2946,0,0,1-2.2573-1.6006h-.08v4.61h-2.3691Zm5.4741,4.93V58.07a1.5792,1.5792,0,0,0-1.5527-1.7446c-.896,0-1.5523.4644-1.5523,1.2324v2.481c0,.7685.6563,1.2329,1.5523,1.2329A1.5793,1.5793,0,0,0,114.65,59.5264Z"/><path class="cls-30" d="M118.7114,52.5317V52.18c0-.6724.416-1.1685,1.3765-1.1685s1.3765.4961,1.3765,1.1685v.352c0,.6724-.4161,1.1685-1.3765,1.1685S118.7114,53.2041,118.7114,52.5317Zm.1919,2.065h2.3692V63h-2.3692Z"/><path class="cls-30" d="M123.48,63V54.5967h2.3691V56.021h.0957a2.2915,2.2915,0,0,1,2.3369-1.6167c1.7129,0,2.625,1.2168,2.625,3.33V63h-2.3686V57.9258c0-1.0723-.3042-1.6006-1.1685-1.6006-.7685,0-1.52.4-1.52,1.2324V63Z"/><path class="cls-30" d="M136.2485,66.3936c-2.9131,0-3.9858-.7364-3.9858-1.9532a1.566,1.566,0,0,1,1.5688-1.6006v-.1757a1.42,1.42,0,0,1-1.2168-1.4727c0-.88.7847-1.3286,1.5689-1.4888v-.0639a2.4794,2.4794,0,0,1-1.5049-2.4009c0-1.6968,1.1846-2.8335,3.6016-2.8335a5.5459,5.5459,0,0,1,1.4248.16v-.32A1.12,1.12,0,0,1,138.97,52.98h1.3282v1.7607h-1.8565v.0962a2.4873,2.4873,0,0,1,1.44,2.4009c0,1.6807-1.1684,2.7851-3.6015,2.7851a5.92,5.92,0,0,1-1.4883-.1762.7867.7867,0,0,0-.3682.6723c0,.4.2881.64,1.0083.64h2.4331c2.0489,0,2.9292.8965,2.9292,2.4492C140.7944,65.3848,139.6738,66.3936,136.2485,66.3936Zm1.0244-3.2173h-2.8813a1.0792,1.0792,0,0,0-.3042.7519c0,.6084.4805.8965,1.7607.8965h.9605c1.2808,0,1.7607-.2881,1.7607-.8965C138.5693,63.4482,138.2173,63.1763,137.2729,63.1763Zm.4-5.8584v-.1924c0-.7363-.4639-1.1524-1.3926-1.1524s-1.3926.4161-1.3926,1.1524v.1924c0,.7363.4644,1.1523,1.3926,1.1523S137.6729,58.0542,137.6729,57.3179Z"/><path class="cls-30" d="M145.623,51.1553h2.3692V58.15h.0957l1.0405-1.5522,1.6807-2.001h2.625l-2.8013,3.2173L153.7544,63H150.937l-1.8887-3.5532-1.0561,1.1841V63H145.623Z"/><path class="cls-30" d="M153.8945,58.7905c0-2.6572,1.4087-4.3862,3.9375-4.3862,2.7852,0,3.9058,2.0171,3.9058,4.29v.7041h-5.394v.128a1.6509,1.6509,0,0,0,1.8564,1.809,2.6634,2.6634,0,0,0,2.0649-1.0083l1.1846,1.4722a4.5535,4.5535,0,0,1-3.5215,1.3926C155.3511,63.1919,153.8945,61.48,153.8945,58.7905Zm2.4493-.9126v.128h2.9448v-.1441c0-1.0244-.4639-1.7124-1.4082-1.7124A1.5361,1.5361,0,0,0,156.3438,57.8779Z"/><path class="cls-30" d="M168.4409,54.5967h2.2085l-3.2329,9.7a2.3923,2.3923,0,0,1-2.5771,1.9048h-1.4727V64.36h1.5845l.2881-.9283-2.9449-8.8354h2.3531l1.2324,3.9214.6079,2.4331h.0962l.6245-2.4331Z"/><path class="cls-30" d="M171.0146,61.6875l1.3926-1.4087a2.9221,2.9221,0,0,0,2.2251,1.0728c.9282,0,1.2486-.3042,1.2486-.8008,0-.416-.2564-.624-.8487-.7041l-.9121-.1118c-1.9048-.24-2.833-1.0728-2.833-2.5933,0-1.6167,1.2642-2.7373,3.2651-2.7373a4.2228,4.2228,0,0,1,3.4253,1.313l-1.36,1.3921a2.81,2.81,0,0,0-1.937-.8643c-.8,0-1.12.2881-1.12.7046,0,.4482.1919.688.88.7842l.9444.1279c1.8247.24,2.769,1.0728,2.769,2.5293,0,1.6167-1.4409,2.8008-3.6016,2.8008A4.3873,4.3873,0,0,1,171.0146,61.6875Z"/></g></svg>