<svg id="world-map" xmlns="http://www.w3.org/2000/svg" width="784.077" height="458.627" viewBox="0 0 784.077 458.627"><defs><style>.cls-1{fill:#ede9e7;}.cls-2{fill:#b9b4b4;}.cls-3{fill:#edf5ff;stroke:#000f5e;stroke-dasharray:1 1;}.cls-3,.cls-4{stroke-miterlimit:10;stroke-width:0.75px;}.cls-4{fill:none;stroke:#6e177d;}.cls-5{fill:#fff;}.cls-6{fill:#6e177d;}</style></defs><title>world-map</title><path id="_somaliland" data-name=" somaliland" class="cls-1" d="M481.907,261.206l3.526,2.403,1.046-.052,8.7571-3.008.994,3.206-.701,2.706-1.893,1.503-4.729-.302-6.769-4.158-.2311-2.298Z"/><path id="ae" class="cls-1" d="M497.699,226.544l.753,3.008,8.522.752.596-6.172,1.644-.897.448-2.257-2.688.753-2.99,4.521-6.285.292Z"/><path id="af" class="cls-1" d="M515.083,193.792l1.374,10.771,3.423.752.32,1.937-2.455,2.049,4.573,3.691,8.885-3.198.709-3.786,5.593-3.491,2.145-8.091,1.599-1.722-1.659-2.887,5.412-3.3469-.691-.968-2.498.155-.226,2.299-3.354-.033-.062-3.068-1.079-1.288-1.815,1.649.052,1.515-2.739,1.036-5.059-.319-6.568,6.881-5.88-.5371Z"/><path id="al" class="cls-1" d="M419.912,178.847v3.984l1.142,2.152.82-.096,1.409-2.566-.821-1.15-.319-2.844-1.089-1.012-1.142,1.532Z"/><path id="am" class="cls-1" d="M476.703,178.958l4.149,5.411-1.218,1.427-2.939-.51-3.646-3.268.196-2.146,3.458-.914Z"/><g id="ao"><path class="cls-1" d="M406.599,305.87l2.948,11.003-.069,3.478-4.313,4.633-.647,7.527,16.597.147,5.395,1.9539,4.45-.58-2.594-3.251.01-9.2819,5.101-.217v-3.621l-4.1419-.172-.8291-8.575-1.746.024-.943-.848-1.027.054-1.365,2.646H418.17l-1.22-1.227.363-1.738-1.436-2.101-9.278.146Z"/><path class="cls-1" d="M404.81,302.862l1.504,1.953,1.945-1.842-.571-1.909-.483-.0349-2.395,1.8329Z"/></g><g id="ar"><path class="cls-1" d="M248.283,359.022l1.677,1.571-6.371,9.4669-2.239,2.479.777,10.813,4.918,5.974-4.132,7.209-3.129,1.35h-3.579l1.003,5.627-5.593,1.92,1.34,4.729-3.354,10.701,4.141,3.38-2.239,5.515-3.804,5.975,2.014,4.165-4.918.786-4.028-4.951-.674-15.432-6.258-26.209,1.893-9.163L211.7,373.2148l2.68-15.2039,2.463-2.9311-.605-2.222,3.164-2.888,7.054.483,3.942,4.21,4.555.078,4.668,2.8531-1.375,3.217.329,3.25,6.612-.3121,3.096-4.7268Z"/><path class="cls-1" d="M233.978,445.973l.225,4.951,3.803-.337,3.242-2.1439-5.48-1.1241-1.79-1.346Z"/></g><path id="at" class="cls-1" d="M399.693,161.868l-.562,1.167.483.83,2.015-.415h1.711l1.857,1.572,3.95-.717,2.904-1.729.743-1.167-.112-1.504-2.611-1.954-3.501.035-.294,1.988-3.683,1.797-2.9.097Z"/><g id="au"><path class="cls-2" d="M642.194,367.476l-.303,21.938-3.371,2.472-.3029,2.161,4.598,3.086,11.35-2.161h5.826l2.145-3.095,12.879-2.472,9.198,2.784-.614,3.708,1.228,3.708,7.055-1.236.303,1.851-4.599,3.396,1.53,1.2361,3.37-1.2361-.917,10.2,6.44,4.944,3.683-1.236,1.841,1.852,10.735-1.548,10.123-16.381,3.682-.925,7.357-13.596,1.841-11.739-4.599-5.869,1.842-1.236L730.83,356.646l-3.984-2.783.6141-15.448-3.6841-2.782-.916-8.652h-1.842l-6.138,20.392-3.37.3121-7.668-7.7281,4.297-11.437-7.971-1.547-8.896,2.472-2.454,7.104-3.984.925-.304-4.944-16.252,9.889.304,3.708-2.454,3.397h-6.139l-13.19,5.56-4.605,12.392Z"/><path class="cls-2" d="M698.008,426.498l-1.531,6.181.304,4.322,4.599-.312,5.213-8.03-8.585-2.161Z"/></g><path id="az" class="cls-1" d="M478.164,177.083l-.873,1.486,4.071,5.342,1.4181-.458,2.3339,2.446,1.011-4.287,2.533.406-.104-1.229-4.1649-3.646-.795,2.143-5.43-2.203Z"/><path id="ba" class="cls-1" d="M411.941,169.493l-.319.527,5.801,5.981,2.127-3.13-.078-1.234-1.857-2.256-5.674.112Z"/><path id="bd" class="cls-1" d="M585.489,216.317l-1.134,2.049,2.938,5.584.087,4.357.5349,1.166,3.449.061,1.953-1.875,1.4181.855.2849,2.652,1.133-.708.069-3.389-.951-.112-.596-2.879-2.403-.086-.596-1.6,1.469-1.962.024-.97H588.9l-3.4109-3.143Z"/><path id="be" class="cls-1" d="M383.252,150.113l-.554,1.383,5.947,3.925.4.051.375-1.094.837-.588-1.336-1.499h-.916l-1.255-1.426-3.498-.752Z"/><path id="bf" class="cls-1" d="M373.726,251.905l3.146-.25,5.16,7.295-4.789,3.613-3.466-.892-4.66.062-.752,2.73-3.907.19-1.071-1.461,1.385-4.4419,8.954-6.8451Z"/><path id="bg" class="cls-1" d="M426.325,172.475l.139,4.305,1.452,3.025,5.454.095,2.455-1.737,2.412-.959-.588-2.75.545-1.469-1.228-.641-1.687.139-1.323,1.332-5.549.043-2.082-1.383Z"/><path id="bi" class="cls-1" d="M447.737,296.794l3.691-.078-.959,3.232-.935.812h-1.142l-.812-2.187.157-1.779Z"/><path id="bj" class="cls-1" d="M380.745,273.697h1.833l.104-5.204,2.315-3.363-.104-5.852-2.102-.052-3.604,2.816,1.504,2.87.054,8.785Z"/><path id="bn" class="cls-1" d="M658.271,273.489l-2.489,3.018,2.04.641,1.149-1.608-.7-2.051Z"/><path id="bo" class="cls-1" d="M207.864,319.77l7.114-3.104,2.351.226,1.565,6.534,10.839,3.604,1.79,5.523,4.469.5621,1.902,4.729-1.34,4.278-7.27.562-2.68,6.872-5.705-.112-1.79-.337-3.293,3.197-1.625-.156-5.593-12.9569,1.547-2.316.545-9.163-1.383-5.4551-1.443-2.4871Z"/><path id="br" class="cls-1" d="M255.864,376.873l5.402-10.391.198-8.73,10.079-6.501h5.645l4.435-7.512.804-14.418-1.815-3.855,10.684-9.751.406-10.761-14.514-7.1049-17.53-5.48-8.264-.812,2.221-4.669-.604-7.104-1.808-.5961-2.671,5.308-1.4,1.7541-3.595-1.59-12.093,4.261-4.028-5.073.648-5.299-3.804,3.872-4.201-2.265-.424.597.009,1.841,3.622,1.945-5.437,5.73-3.432-.034-3.475-3.535-3.933.121-.484,4.2,2.256,2.739-2.663,8.532-3.112.241-4.953,3.13-1.21,6.146,4.296,4.599.787-.89,3.017-.812,2.576,4.34,7.374-3.164,2.861.165,1.971,6.976,10.52,3.337,1.815,5.564,4.478.537,2.135,5.314-1.443,4.729,1.884,2.474-.276,3.683,5.048-.477,4.625,5.844-.363,4.105,2.74,2.316-6.57,9.95,11.566,6.474Z"/><g id="bs"><path class="cls-1" d="M191.354,221.521l-1.089-.337-.086,2.101,1.34,1.349.917-1.349-1.082-1.764Z"/><path class="cls-1" d="M193.523,224.806l-1.504.838,1.417,2.021.752-1.011-.665-1.848Z"/><path class="cls-1" d="M198.373,226.319l-1.591-.087.165,1.012,1.167,1.687,1.002-1.099-.743-1.513Z"/><path class="cls-1" d="M197.621,224.305l-2.593-1.099-.501-2.609,1.002-.425,1.003,2.023,1.002.76.087,1.35Z"/><path class="cls-1" d="M195.114,218.997l-1.34-.337-.251-1.686-1.417-.501.917-.926,1.668.588,1.253.762-.83,2.1Z"/></g><path id="bt" class="cls-1" d="M585.341,211.97l1.34,1.833,4.528.034-.458-2.507-5.41.64Z"/><path id="bw" class="cls-1" d="M423.793,352.998l1.858.57-.26,5.314,1.911.26,4.391-3.959,5.273.57,1.399-3.545,6.673-6.095-8.013-9.223-.104-1.514-.883-.26-2.43,2.24-6.31.154-.884,7.866-2.479.57-.142,7.0519Z"/><path id="by" class="cls-1" d="M425.651,141.27l1.297,2.135-.519,1.703.086,1.349.476,1.616,2.68-1.521,3.329.086,2.334.959h5.922l1.729-4.141,1.037-1.564v-1.045l-3.717-5.23-3.285-1.305-2.68-.303-2.335.743.088,2.351-3.241,4.098-3.201.069Z"/><path id="bz" class="cls-1" d="M161.056,241.637l-.043,3.154h.726l2.472-4.615h-1.677l-1.478,1.461Z"/><g id="ca"><path class="cls-1" d="M121,39.591l1.72,2.602.864,3.475,4.305,1.081,3.017-3.25,2.585,1.306,7.321.647,5.169-2.17.864,7.157h3.017V47.405l3.017.216,7.538,8.895,4.953,3.035-2.584,4.123,1.081,1.081,9.673,1.953.216,4.34,2.585.433.648-6.51,4.089-1.08,3.017,4.556,6.457,3.034,3.233.647,2.152-2.602.216-4.124,3.873-2.387,1.288,3.476-3.449,6.077.432,3.033,1.937-3.033,3.873-3.475.216-4.556-2.152-3.476.648-2.817,5.169-2.603,2.369,1.738.432,15.188,3.657-3.25,2.152,1.305-3.017,5.204,3.873.865,5.602-8.679,4.737,4.986-1.936,8.895-4.737,2.603-4.521-2.169-8.177,1.736.864,2.818-2.152,3.476-6.673,1.521-7.538,5.86-6.673,8.896-.864,2.817,4.521,1.737,1.72,4.3389,6.241,6.293,9.906,4.339-2.152,9.975-.216,2.818,2.585,1.736,3.449-4.555.4321-8.679,5.3849-.216,2.584-4.988.433-7.589,6.8891-13.45,8.609,3.034,4.521,6.293-1.9371,6.292,3.4491,1.954,8.394-5.646,2.368,15.404,7.754,9.327.216,4.771-8.609,2.17-4.088,4.338-8.6091-1.953-4.3049-.217-7.538,5.86,4.521-1.081,5.601-1.08,1.081,1.305-1.504,4.771.216,4.34,2.585,1.736,2.584-.648,1.296-1.953h1.72l-2.801,5.205-5.385.215-2.3681,3.476h-3.0169l-.8641-2.603,4.305-4.338-5.169,1.737-.233-7.374-1.487-.863-4.521,1.953-.432,3.691H213.178l-8.832,6.08-11.842,3.908-1.288-1.738,5.964-8.902-3.388-3.261-2.152-4.132-4.383-3.346-4.7019-.389-8.428-5.904L113.0051,133.6l-1.011-4.142-5.602-5.204v-4.339l.865-3.907-.433-2.168-2.152-2.171-.432-3.475,5.602-3.908-3.449-18.653-4.737-.217-4.305-5.645L121,39.591Z"/><path class="cls-1" d="M99.917,108.526l-1.47,2.818.51,1.996.959.598-.225.812-1.029.294.294,2.965,1.106,1.115.882-.959-1.106-2.887.657-2.299,1.616-2.152-1.175-1.997-1.019-.304Z"/><path class="cls-1" d="M104.775,125.417l-1.323.52,2.429,2.818.588,3.336,2.429,2.592,2.058-.371v-3.406l-2.498-1.557-3.683-3.932Z"/><path class="cls-1" d="M237.383,54.242l-1.53,1.547,1.34,2.126,6.328.77-4.028-4.252-2.11-.191Z"/><path class="cls-1" d="M160.338,28.552l.19,3.475-6.898,7.148,1.729,5.791,4.979-1.348,2.878-4.253,7.278-2.706,5.938-.389-4.599-5.022-2.299,1.737-1.729-.579-.959-2.126-2.109-2.126-4.399.398Z"/><path class="cls-1" d="M169.346,18.317l-1.53,2.706,7.477,2.706,2.68-4.055,1.15,2.707h1.919l3.639-4.055-4.409-1.158-1.729-1.348-2.299,2.316-6.898.181Z"/><path class="cls-1" d="M182.381,23.727l-5.938,2.508v1.928l7.667,2.896-1.729,1.928,1.15,2.507,4.789-2.126h4.028l1.919,3.086,3.259-3.285-.77-3.095-2.68.968-.38-3.863,1.34-2.3161h-1.34l-2.109,1.349-.959.7691.579,2.707-1.53,1.1579-2.299-.19-.579-3.476-4.418-3.4529Z"/><path class="cls-1" d="M190.238,17.738l-.579,1.927,3.639,1.738,2.68-1.547-.19-1.158-5.55-.96Z"/><path class="cls-1" d="M193.108,14.453l-2.679.968.19,1.35,5.938-.389-.19-1.349-3.259-.58Z"/><path class="cls-1" d="M205.953,17.738l-.38,1.348-.959,1.349v1.929l3.639-.579,3.83,3.285h1.34V21.785l-3.83-4.253-3.64.206Z"/><path class="cls-1" d="M215.73,21.6l1.53,1.738-1.34,2.316.959,2.507,4.218-2.317V24.108l-2.49-2.896-2.877.388Z"/><path class="cls-1" d="M221.288,17.159l.19,3.086h5.178l1.34,1.158-.19,1.348-4.599.58,3.259,4.443,4.409.77,6.128-2.7049-8.817-13.33-2.68,1.738.19,2.316-3.069-1.158-1.339,1.754Z"/><path class="cls-1" d="M176.632,38.985l-7.278,1.928-4.219,3.673.38,4.054,7.667,2.317-1.729,3.864-5.558-3.477-1.53,2.896,3.639,2.507-.19,4.054,5.558,1.547,6.708-.389,1.149-2.1261,4.979,5.6011,3.449-1.1571.579-3.864,2.49,1.737.38-3.864-3.068-1.928.19-12.162-2.68-2.126-2.87,3.864-8.046-6.9489Z"/><path class="cls-1" d="M200.015,47.482l-2.489-1.158-1.34,1.737,2.68,4.253.19,4.054,5.749-3.475V47.871l2.109-2.126-2.109-1.547h-3.449l-1.341,3.284Z"/><path class="cls-1" d="M212.281,45.744l-4.028,3.285.959,4.054h2.49l1.149-2.126,1.729,1.737,1.729-.19,4.599-3.864-8.627-2.896Z"/><path class="cls-1" d="M211.892,39.365l-.959,1.928,4.218,1.548,1.15-1.738-4.409-1.738Z"/><path class="cls-1" d="M209.402,32.026l-4.218.579-2.49,2.315,4.599.19-1.34,3.475.959,1.548,1.34-.19,3.259-5.212-2.109-2.705Z"/><path class="cls-1" d="M216.689,30.679l-2.299.77.38,3.086,3.83,2.507.19,1.927-1.149,1.159.579,3.864,14.755,4.823,4.028,1.349,4.028-3.475-4.789-3.864-4.409,1.1579-6.128-.579-2.299-2.316-.5789-6.371-3.83-1.928-2.3081-2.11Z"/><path class="cls-1" d="M228.756,50.766l-4.218-.39-4.979,1.927-2.68,3.666.769,10.043,8.238.39,7.857,3.864,5.559,6.371,4.218-.19-1.15,5.981-3.829,6.371-4.218,1.926-3.069-.578-1.53-1.348-2.299,3.086.959,3.086,3.259.189,4.028-1.928,3.449,8.886,8.626,5.6029,5.938-7.5289-4.979-8.108,2.878-3.284,4.028,6.758,7.278-6.371-1.339-2.896-4.98,1.548-3.448-9.466,3.259-5.403-6.518-6.949-3.639,2.507-3.449-7.529-7.277.9679-1.919-9.0759-5.938,4.055-.579,5.0209h-3.259l.38-4.4429,4.573-6.758Z"/><path class="cls-1" d="M231.254,32.415v1.738l-4.218.968,1.149,1.927,4.789,1.928,5.368.58,3.831,2.705,3.829-2.127-2.681-2.705h3.449l2.109-2.316,5.178-.77V33.185l-2.878-1.928.379-2.127,8.048,1.348,11.886-4.633-4.41-1.348,1.15-1.547h9.197l1.531-1.547-18.593-6.569-4.41-1.547-4.789,3.476L245.8,12.32l-2.878-.19-.579,3.675-3.638-3.285-4.218,1.349.769,2.126,6.328,1.35-.38,3.086,3.449,2.125,8.438-2.125.19,2.896-6.898,3.285-4.218-3.285-3.83.389,3.83,5.411-1.919.969-2.878-2.508-2.109,1.348,1.919,3.666h3.259l-.769,3.475-2.68-.389-3.449-3.674-2.285.401Z"/><path class="cls-1" d="M214.174,85.568l-3.657,4.599-.225,5.065,3.198-1.841h3.881l2.74,2.533,2.515-2.076-8.452-8.28Z"/><path class="cls-1" d="M258.699,145.386l-9.136,8.748.916,2.074,11.186,4.141,1.599-2.758-.916-4.599-3.657.458-2.057-2.299,3.423-3.449-1.358-2.316Z"/></g><path id="cd" class="cls-1" d="M407.256,305.006l8.912-.155,1.808,2.567-.069,1.893.665.605h4.426l1.271-2.4991h1.808l.734.742,2.479-.0689.735,8.714,4.287.1389v.675l11.521,5.195.536,1.0121h2.411l-.268-3.6481-4.356-2.0919.269-2.766,1.8761-4.3921,4.2869-.1389-3.683-12.224.068-5.195,5.826-9.11.068-1.278-.874-.477.035-2.472-1.062-.095-1.072-1.366-17.59-.795-3.226,3.138-5.28-3.475-1.858,1.141-1.348,11.35-3.337,2.575-1.003,2.283.179,3.381-6.017,4.918-1.6-.726.216.94-1.774,1.705Z"/><path id="cf" class="cls-1" d="M412.685,277.638l4.028,4.356,1.59-2.057,2.532.104.544-2.006,2.49-1.556,5.169,3.562,2.982-2.956,11.574.51-10.736-11.082,1.443-.897.198-1.954-2.438-1.149h-3.58l-5.766,5.715-.197,2.351-4.573-.146-.146,1.003-2.982-.305-2.6879,5.108.5559,1.399Z"/><path id="cg" class="cls-1" d="M408.657,284.96l-.052,1.255,4.131.104.146,10.7281-3.777-.104-2.187-1.703-1.693.9509-.078.4761.873.4229.251,2.204-2.334,2.006.501,1.057,2.585-2.006h1.244l.396,1.2,1.644.7,5.271-4.46-.104-3.259,1.099-2.653,3.38-2.507.907-8.479-2.402.009-2.783,3.812-7.018.246Z"/><path id="ch" class="cls-1" d="M393.02,161.229l-3.771,4.011.078.405,1.547-.483,1.393,1.937,2.352-.83,1.625,1.263.667-.38,2.005-3.146-.511-.484-1.979-.051-.959-1.963-2.447-.279Z"/><path id="ci" class="cls-1" d="M357.717,279.971l3.697-2.617,4.6-.806,4.693,1.013-2.395-3.622-.701-2.213.701-6.5441-4.192.198-1.9-1.814-3.994.1041-1.901.3039.198,4.425-1.002.406-1.203,2.2151,3.095,3.62.304,5.331Z"/><g id="cl"><path class="cls-1" d="M230.624,441.919l-3.691,8.109,6.371.674.112-5.403-2.792-3.38Z"/><path class="cls-1" d="M229.37,440.648l-2.775,3.068-.337,3.604-5.368-3.043-5.705-8.221-1.677-2.932,2.351-3.0431-.225-3.83-2.68-1.124-2.126-1.572.449-2.144,2.792-.787.562-12.387-4.356-2.48-2.844-64.477.735-1.278,5.567,12.836,1.781.035.579,2.049-2.369,2.868-2.723,15.448,3.873,11.895-1.79,9.007,6.31,26.485.666,15.49,4.521,5.229,4.789-.6959Z"/><path class="cls-1" d="M210.95,408.242l-1.115,1.686.562,2.932,1.115.112.562-3.718-1.124-1.012Z"/></g><path id="cm" class="cls-1" d="M397.264,277.837l2.783,2.5609-.199,3.959,15.266-.354,1.245-1.399-4.375-4.711-.648-1.703,2.784-5.2119-1.893-3.458-1.591-.8551V264.91l1.841-1.202.104-5.463-1.46-.164-.024,2.87-6.414,11.972-3.925.199-2.688,1.85-.806,2.8651Z"/><g id="cn"><path class="cls-1" d="M563.731,144.537l-2.99,7.521-4.124-.217-4.349,9.518,3.691,4.701-7.6061,10.504-3.9069-.658-2.6111,3.285.648,1.971,3.0431.217,1.521,3.5,3.044.658,9.344,12.04v6.129l4.563,2.844,4.9959-.873,6.303,3.719,7.605,2.187,3.691-.439,4.132-.441,8.687-5.688,2.828.44,1.08,2.567,2.396.718,3.26,4.813-2.17,4.814,1.3061,3.285,3.69,1.312.6469,3.942,4.35.439.647-1.971,6.302-3.285,3.907.217,4.563,5.03,3.043-1.312,1.954.216.873,2.4119,1.521.2161,2.169-3.06,8.6879-3.2851,7.823-9.4129,2.61-8.974-.2169-5.912-3.259-.656,1.953-2.188-.434-3.501-8.255-8.314v-4.157l2.3859-3.0621,2.388-1.0979.216-2.412h-6.085l-1.089,3.285-2.828-.656L642.2,171.747l2.17-5.688,3.0431-3.285,2.827.217-.434,5.031,1.521,1.313,3.691-3.717,1.306-.216-.433-2.844,3.476-4.158,2.61.216,1.521-4.813,1.781-.942.182-3-1.729-1.815-.147-4.736,3.329-.217-.216-12.214-2.334,1.4-.8639,3.13-3.8969-.009-11.298-6.354-8.16-9.837-8.281-.086-2.107,1.833,2.68,6.137-.935,5.758-3.335,1.383-1.876-.147-.139,5.696,1.954.441,3.476-1.53,4.563,2.187v2.188l-3.26.216-2.611,5.688-2.386.215-8.472,11.16-8.902,3.941-6.086.441-4.124-2.844-5.869,3.068-6.302-1.971-1.521-4.158-10.642-.657-5.646-9.188h-2.386l-1.92-4.262Z"/><path class="cls-1" d="M641.035,231.064l-2.064.579-1.487,1.833,1.236,2.411,1.814.163,2.066-1.832.492-2.411-2.057-.743Z"/></g><path id="co" class="cls-1" d="M203.559,256.66l-1.781-.182-11.773,9.707-1.245,3.414-1.608.182.717,7.546-4.105,10.07,4.46,3.776,5.714.363,3.924,5.757,5.705.183-.182,4.312h2.135l2.316-7.909-2.144-2.6939.536-5.031,4.46-.363-.536-11.688-9.993-3.232-2.316-6.293,5.716-7.9181Z"/><path id="cr" class="cls-1" d="M172.138,261.154l1.202,2.352.977,1.297-1.314,3.898-2.507-1.764-4.097-3.752v-2.48l5.739.449Z"/><path id="cu" class="cls-1" d="M175.137,228.255v1.1l4.599.086,2.169-1.263.337.926,4.512,1.098,4.011,3.622-.917,1.262.165,1.436,3.345.839,3.345-1.514,1.504-1.513-2.169-1.098-11.194-6.569-3.924-.424-5.783,2.012Z"/><g id="cv"><path class="cls-1" d="M319.243,248.673l-1.642.942,1.175.941,1.409-.708-.942-1.175Z"/><path class="cls-1" d="M323.279,250.574l-1.071.951.762,1.409,1.832-.821-1.523-1.539Z"/><path class="cls-1" d="M320.937,253.245l-1.375.821,1.479,1.979,1.168-.612-1.272-2.188Z"/></g><path id="cy" class="cls-1" d="M453.788,196.203l1.062.771-3.294,3.119-1.573-.052-1.167-.821.156-1.529,2.386-.155,2.43-1.333Z"/><path id="cz" class="cls-1" d="M406.435,157.33h3.83l2.049,1.461,3.795-3.155-3.683-2.627-3.648-1.765-2.498.45-3.389,2.178,3.544,3.458Z"/><path id="de" class="cls-2" d="M391.49,142.643l3.086-.5v-2.178l2.584-.425,1.418,1.427,1.495.164,2.334-1.012,2.083.588,1.832,1.592.251,5.955,1.832,2.438-2.411.337-4.003,2.515.338.839,3.579,3.354-.251,1.677-3.328,1.677-3.085.086-.7529,1.59H396.91l-.7521-1.676-2.7489-.675-.0881-2.767-1.39-.77.114-1.861-.406-1.328-1.982-1.824.414-2.854,2.1611-1.011-.7421-5.3581Z"/><g id="dk"><path class="cls-1" d="M396.356,128.485l-3.586,3.968-.13,2.584,1.635,4.263,2.559-.484-.319-3.483,1.764-1.971-.034-1.548L397,128.591l-.644-.106Z"/><path class="cls-1" d="M398.212,135.763l-1.062.229v1.583l1.128.875.997-.25-.243-1.503Z"/><path class="cls-1" d="M401.539,134.257l-.949.23-1.056.968.448,1.954,1.292.507-1.334.535-.255.685h2.005l.602-1.099-.768-.378.25-.962.9159-1.205-.25-1.042Z"/></g><path id="dj" class="cls-1" d="M478.224,258.18l-.493,2.903,3.424-.052.052-4.271-1.253-.77-1.73,2.19Z"/><path id="dm" class="cls-1" d="M225.463,243.78l-.761,1.616.917,1.228,1.141-.994-1.297-1.85Z"/><path id="do" class="cls-1" d="M211.667,239.942l-4.573-2.991-2.887-1.021-.578,5.521.578-.047.761,1.461.994-1.15,2.896-.77,2.516.536.293-1.539Z"/><path id="dz" class="cls-1" d="M393.858,194.173l-3.526-1.186-14.677,2.758-3.198,2.429,1.953,10.088-5.835.233-3.509,5.646-8.359,2.005.025,4.105,27.532,21.048,4.692.398,15.654-12.231-1.565-1.971-2.938-.398-1.764-2.955V211.909l-1.177-1.184.199-3.155-3.13-3.155-.389-3.354,1.366-.986-.59-3.553-.764-2.349Z"/><g id="ec"><path class="cls-1" d="M183.219,287.839l-4.088,2.541-.294,3.771-.821,1.234,2.576,2.473-1.115,1.219.259,3.113,4.607,1.098,6.976-8.256-.017-2.8779-3.345-.2161-4.738-4.099Z"/><path class="cls-1" d="M152.766,289.852l-.536,2.378-.994,1.002.683,1.228,1.754-.69.838-1.461-.536-1.537-1.209-.92Z"/></g><g id="ee"><path class="cls-1" d="M431.795,121.708l-4.84-.173-3.068,1.875-.043,1.392,1.987,1.875,6.182,1.047-.218-6.016Z"/><path class="cls-1" d="M421.469,122.451l-1.308.44,1.308.226.595.69.711-.852-.709-1.215Z"/><path class="cls-1" d="M422.025,124.201l-1.862.833-.643,1.111.643.722,2.362-.875,1.137-.752Z"/></g><path id="eg" class="cls-1" d="M435.393,207.631l2.308.062,4.495,1.244,2.135.061,2.646-2.213h1.234l2.249,1.245h2.845l.51-.035,1.798,5.17.51,1.668.477,2.498-.85.622-1.461-.734-1.686-5.498-1.521-.111-.111,1.867,1.012,3.232,8.1,10.027.173,4.305-2.359,2.723-22.163-.251-.341-25.882Z"/><path id="er" class="cls-1" d="M465.457,252.268l-.216-5.093,3.423-3.992.926.709,1.686,5.637,8.091,6.023-1.47,1.808-5.922-5.091-6.518-.001Z"/><g id="es"><path class="cls-1" d="M371.798,174.731H360.784l-2.222-1.004-1.071.078-1.297,2.696.458,2.775,4.21.389.536,1.771-1.833,10.33.078,1.851,2.981,1.617,3.439.232,6.881-1.694,3.363-4.233.077-4.313,5.965-5.395.302-2.386-5.428-.078-5.425-2.636Z"/><path class="cls-1" d="M343.498,216.853l-1.513.873.7.709.813-1.582Z"/><path class="cls-1" d="M338.242,217.017l-1.875.476.935,1.418h1.407l-.467-1.894Z"/><path class="cls-1" d="M333.782,215.6l-1.176,1.184,1.643,1.418.935-2.126-1.402-.476Z"/><path class="cls-1" d="M382.811,185.286l-1.375.467.304,1.235h1.988l.839-.925-1.756-.777Z"/></g><path id="et" class="cls-1" d="M459.215,267.015l6.292-14.005,6.25.035,5.541,4.814-.39,3.968h4.2959l.44,2.386,6.95,4.157,4.286.217-8.15,8.756-11.194,3.4489h-2.773l-4.944-4.219-1.953-.82-3.786-5.576-2.499.035-.294-2.5589,1.9281-.638Z"/><path id="fi" class="cls-1" d="M422.305,98.611l1.79.786,1.104,2.074-1.104,1.436-5.55,6.068-.952,3.199,1.271,4.633,4.278,3.199,5.706-2.715,4.598-.64,4.279-6.872-3.173-7.512-3.018-7.192.477-4.633-1.901-.32-.4921-3.38-2.5589-4.175-2.836,1.962-1.1141,4.556-3.0079-1.807-4.185-1.021-.934,1.09,1.607,1.453,2.931-.053,2.359,3.812.426,6.052Z"/><g id="fk"><path class="cls-1" d="M250.427,436.802l-2.273-.25-2.265,1.521,1.642,1.781,2.896-3.052Z"/><path class="cls-1" d="M252.692,435.661l-.752,2.411-2.144,1.901.13.631,3.655-1.4,1.513-1.901-2.402-1.642Z"/></g><g id="fr"><path class="cls-1" d="M382.206,151.997l-1.91.467-3.82,4.158-1.149.078-1.53-1.081-.993.233-.762,2.386-5.584.155.156,1.236,3.82,2.543,4.435,3.543-.077,4.236-2.368,4.157,5.126,2.464,5.204.154,1.606-1.85,3.286.078.916.848,3.285-.233,1.686-2.162-2.145-2.541-.155-1.616.458-1.771-1.071-1.539-1.833.535-.232-1.383,4.054-4.469v-2.697l-2.348-.767-1.432-.987-6.623-4.175Z"/><path class="cls-1" d="M245.396,275.694l5.058,3.154-2.646,5.255-.959,1.21-2.809-1.615.079-5.663,1.277-2.341Z"/><path class="cls-1" d="M509.256,345.339l-1.972.129-.129,1.722,1.313.269,1.972-.925-1.184-1.195Z"/><path class="cls-1" d="M486.09,321.075l.656,1.461h1.055l.526-1.857-2.237.396Z"/><path class="cls-1" d="M228.056,248.231l-.917.847.683,1.383,1.296-.38-1.062-1.85Z"/><path class="cls-1" d="M397.272,176.425l-1.687,1.695-.154,1.538,1.374.847.536-.076.303-2.24-.372-1.764Z"/><path class="cls-1" d="M223.328,242.474l-1.296.535.458,1.149,1.521-.994-.303-.311-.38-.379Z"/></g><path id="ga" class="cls-1" d="M404.671,285.055l-.104,2.151-4.875-.104-2.982,5.766,7.012,7.667,1.736-1.453-.052-1.503-1.192-.554v-1.057l2.688-1.701,2.387,1.807,2.638.052-.054-9.067-4.176-.196-.052-1.903-2.974.095Z"/><g id="gb"><path class="cls-2" d="M369.862,126.393l-1.582,2.395.631.959h3.648v1.6l-.952,1.278.632,3.354,2.058,3.994,1.581,3.672,2.533.959,1.105,1.92-.155,1.7551-1.582.959-.156.795,1.106.64-.951,1.279-2.221.959-4.279-.477-6.664,3.035-2.221-1.115,6.345-3.674-.796-.477-3.328-.32,2.058-3.033.319-2.56,2.696-.319-.475-4.953-3.174-.155-.95-1.115.155-3.674-1.901.156,1.901-6.388,3.492-2.56,1.127,1.1109Z"/><path class="cls-2" d="M363.207,137.102l-2.853.32-.156,2.56,1.901,1.278,2.058-.475.796-1.436-1.746-2.247Z"/></g><path id="ge" class="cls-1" d="M464.377,174.005l2.827,3.691,3.527,1.625,2.169-.01,3.726-1.01.935-1.461-11.021-4.123-2.163,1.288Z"/><path id="gh" class="cls-1" d="M368.324,271.588l.968,2.273,2.524,3.959,1.4-.052,3.819-2.171-.268-12.354-2.957-.864-4.141.112-1.345,9.097Z"/><g id="gl"><path class="cls-1" d="M261.82,40.807l-1.176,1.877,2.118,2.117-.942,2.118,3.06,3.994,3.761-1.176,4.936-.466,5.644,6.111,3.761,10.104-3.051,6.345,4.227-.708,2.354,1.409.232,3.06-5.168.233,2.818,2.817,3.526.709L280.166,89.69l-.942,6.345,1.643,5.169-1.176,3.06,2.118,6.578,3.9931,4.469,1.176-.232,2.584-.709.233,3.76,1.642,2.352,3.052-.234,2.353-8.695,7.053-8.697,10.581-4.227,6.578-8.229,3.05,1.408h6.345l5.17-5.168,6.346-2.584.708-3.994-3.993-3.527-3.526-1.175-1.885-4.937,4.469-2.584,7.054,3.76,2.3529-2.584-3.7609-2.1171L351.38,56.085l-1.409-4.702-3.761-.232,1.408-4.228,4.703-2.118,9.637-8.461-2.816-3.053-10.814.941-5.645,5.646,3.295-7.287-3.762-.942-2.117,3.761-3.051-2.585-8.464.941,2.353-3.76,13.865-.467-3.527-4.702-15.04-2.817-6.11.941.233,3.061-6.345-2.118.232-2.118-4.47.941-.942,2.353,4.703,1.642L308.6,30.249l-3.527-3.994-4.936-1.408-.709,3.76h-4.937l-1.8851-3.994-7.754-1.176-4.2279,2.117-.233,2.818-5.4021-.709-3.294,1.409.234,3.293v1.644l-6.1109,1.176L263,33.308,261.115,36.36l2.819,3.06,5.878-.709.4671,1.885-4.469,2.118-3.99-1.907Z"/><path class="cls-1" d="M280.629,77.475l1.409,2.119-.708,2.584h-1.409l-1.885-2.119.467-1.643,2.126-.941Z"/><path class="cls-1" d="M339.392,71.598l3.993,1.176-.234,3.293-4.227-2.118-.942-1.176,1.41-1.175Z"/></g><path id="gm" class="cls-1" d="M335.952,255.415l-.111.959,5.98-.086.304-.891-.13-.898-1.721.7-4.322.216Z"/><path id="gn" class="cls-1" d="M339.003,263.713l2.629,4.046,3.423-2.974,3.511-.155,2.922,3.881,2.48,1.635.933-1.816.83-.466-.061-3.993-1.65-4.737-5.065.562-6.267-.501-.034,1.606-3.651,2.912Z"/><g id="gq"><path class="cls-1" d="M396.417,280.543l-.396,1.703,1.191.648,1.143-.855-.397-1.755-1.541.259Z"/><path class="cls-1" d="M400.004,285.106l-.054,1.202,3.924.198-.052-1.356-3.818-.044Z"/></g><g id="gr"><path class="cls-1" d="M422.237,185.622l-.096,1.15,4.003,2.014,1.911.734-1.003,1.055-2.23.227-.319,1.01.771,1.738,2.498,1.33,1.09.096.138-2.981,1.635-1.972-4.46-5.272.589-1.789,1.046-.043,1.591,1.279,1.002-.501.319-1.79,3.732.534,1.134-3.239-1.953,1.375-5.731-.14-3.726,1.929-1.941,3.256Z"/><path class="cls-1" d="M430.923,196.851l1.408.043.589.873h2.05l1.363-.501.459.553-.907,1.192-4.002.139-.728-.9591-.77-.458.538-.8819Z"/></g><path id="gt" class="cls-1" d="M152.689,249.519l5.126,3.752,5.169-6.423-.881-1.331-1.764-.062v-3.761l-1.322-.804-4.002,1.192,1.53,3.526-3.856,3.911Z"/><path id="gw" class="cls-1" d="M337.429,260.765l1.211,2.395,3.396-2.922.035-.899-4.003-.579-.639,2.005Z"/><path id="gy" class="cls-1" d="M230.632,269.063l6.241,5.652-2.481,2.87-.199,1.703,3.259,3.362-.078,3.232-5.67,2.16-3.397-4.59.726-5.515-1.452-4.105,3.051-4.7689Z"/><path id="hn" class="cls-1" d="M163.641,247.151l7.987-.303,2.369,2.817-1.478-.338-2.844.121-3.717,3.492-1.59,3.536-1.046-.555-.009-3.872-2.299-1.539,2.627-3.359Z"/><path id="hr" class="cls-1" d="M412.65,166.225l-3.051,2.515h-3.095l-.372,2.178,1.418.372.709-1.055,1.114.977.891,3.112,6.109,2.853.605-.691-6.197-6.396.631-1.166,5.888-.226.5961-1.876-3.8381.111-1.408-.708Z"/><path id="ht" class="cls-1" d="M201.078,235.568l2.974.311-.354,3.648-.294,1.919-3.466-.19-.614.926-1.063-.077-.38-1.997,3.656-.304-.225-2.073-1.677-.691,1.443-1.472Z"/><path id="hu" class="cls-1" d="M413.619,161.419l-1.003,1.573.078,2.403,1.599.82,4.919.147,6.854-5.774.034-1.2789-.742-.3711-4.953,2.248-6.786.233Z"/><g id="id"><path class="cls-1" d="M608.75,272.037l-.241,1.971,5.869,9.862h1.711l12.23,20.461,4.894.492,2.445-7.148-3.916-2.464-.734-3.941L608.75,272.037Z"/><path class="cls-1" d="M666.708,299.3l1.954,2.396-1.271,3.596v.684h2.887l1.021-8.989.934.26,1.694,8.212,1.615.434,1.53-3.512-1.53-5.308-1.271-2.31,3.9929-2.911-.935-1.288-3.8189,2.48h-1.021l-1.866-2.74.5969-1.201,3.146-1.539,4.7541,1.453,1.4439-.089,3.568-3.335-1.442-1.451-3.312,2.565h-2.127l-3.224-1.5381-2.29.086-2.55,4.1061-1.616,7.1049L666.708,299.3Z"/><path class="cls-1" d="M688.024,283.214l-1.616,3.935,2.549,3.337h.849l1.105-2.2231.597-.77-1.105-1.201-1.617-.597-.762-2.4809Z"/><path class="cls-1" d="M693.038,296.138l-3.482.77-1.021,1.115.847,1.453,2.291-.855,1.442-.8549,2.126,1.7119.935-.771-1.693-2.057-1.445-.512Z"/><path class="cls-1" d="M635.278,307.263l-2.377,1.625.51,1.364,7.564,1.712,3.82.684,1.615,1.712,4.331.345,2.04,1.711,1.867-.4321,1.702-1.539-3.146-1.452-2.715-2.308-7.053-1.713-8.158-1.7089Z"/><path class="cls-1" d="M660.001,314.704l-1.865,1.029,1.104,1.201,2.715-1.027-1.954-1.203Z"/><path class="cls-1" d="M663.224,313.935l.338,1.625,1.954.51.761-.942-.848-1.288-2.205.095Z"/><path class="cls-1" d="M667.901,318.214l-2.377.347,2.126,1.7979h1.694l-1.443-2.1449Z"/><path class="cls-1" d="M668.575,315.388l-.511,1.027,3.821.596,2.974-1.711-1.694-.511-2.715.771-1.021-.856-.854.684Z"/><path class="cls-1" d="M681.066,315.992l-4.416,3.683.423.942,1.866-.345,2.205-2.059,4.331-.597-.848-1.452-3.561-.172Z"/><path class="cls-1" d="M703.359,290.855l-3.604.406-2.315,1.693.959,1.938,3.9249.726v.727l-2.48,2.015,1.201,4.192,1.2009.078,1.037-4.115h1.919l.8061,4.027,9.361,7.746.241,6.051,3.198,3.467,1.442-.0771.319-21.369-5.438-3.7849-5.125,3.4669-1.843,1.1321-3.043-1.9371-.078-6.128-1.683-.2539Z"/><path class="cls-1" d="M659.922,277.941l-1.997,7.503L647.094,289.1l-3.241-3.804-1.573.4329,2.939,11.34,4.398.493,5.8691,2.2219v2.222l2.6879-.493,3.9161-5.42v-4.435l2.2039-4.435,2.445.491-2.9379-6.163-.449-3.9681-3.43.3581Z"/></g><path id="ie" class="cls-1" d="M364.148,141.494l-.786,5.187-6.975,2.56h-2.223l-1.582-1.115v-.96l3.492-2.238-.951-1.92.156-2.714,3.018.155,1.383-3.25-.183,2.887,2.344,1.858,2.307-.45Z"/><path id="il" class="cls-1" d="M455.611,203.308l-1.365,4.348,1.771,5.213,2.031-7.616V203.62l-2.437-.312Z"/><path id="in" class="cls-1" d="M564.233,268.097l3.958-1.938,2.352-8.505-.104-10.441,13.468-14.54v-3.447l2.774-1.081-.104-3.984-2.991-5.817,1.7119-3.121,3.742,3.449,4.808.216v1.938l-1.495,1.616.318.863,2.567.104.5361,2.904h.752l1.9279-3.449.9581-9.042,3.2069-2.265.104-3.12-1.279-2.481-2.031-.104-7.951,5.256.5,3.38-5.5839-.019-1.97-2.41-1.072.138.3629,3.354-12.075-.863-7.485-3.337-.3969-4.106-4.988-3.094-.06-6.371-3.423-3.916-7.867.752.855,3.424,3.854,3.12-6.665,13.641-4.46.337-.734,1.644,4.392,4.0621-.216,4.105-4.486-.069-.484,2.04,3.727-.164.104,1.616-2.671,1.4,1.711,3.232,3.312,1.08,2.031-1.504.959-2.6879,1.177-.535,1.392,1.398-.424,3.449-.96,1.617.2169,2.8L564.233,268.097Z"/><path id="iq" class="cls-1" d="M472.026,192.046l-1.348,6.664-5.585,4.65.354,2.195,5.455.371,8.688,7.07,4.857-.138.13-1.634,1.78-1.91,2.49,1.409.329-.312-4.815-6.405-2.282-.139-3.033-3.898.604-2.868.926-.1211.319-1.2709-4.132-4.348-4.737.685Z"/><path id="ir" class="cls-1" d="M476.642,185.925l-1.057,1.098.104,1.738,1.314,1.842,4.658,5.101-.709,2.04h-.812l-.4061,2.04,2.637,3.371,2.43.207,4.865,6.732,2.732.208,2.126,1.529.104,3.062,8.411,4.9h3.139l1.927-1.634,2.43-.104,1.418,3.268,9.085,1.262.27-3.337,3.007-1.089.1389-1.193-2.395-3.268-5.334-4.287,2.8011-2.55-.198-1.124-3.511-.544-1.486-11.843-.173-2.723-9.518-3.641-4.218.951-2.36,2.896-2.092-.139-.604.5109-4.66-.303-5.878-4.288-2.188-2.394-1.0029.24-1.8081,2.066-3.187-.601Z"/><path id="is" class="cls-1" d="M335.494,98.93l-1.693-.959-2.283,1.443-1.962,1.814.052,1.013,2.541.319-.156,1.815-.898.908.217.588,2.541.164v2.938l3.656.641,2.17,1.229,2.437.104,4.186-2.083,3.231-4.271.053-2.887-1.963-1.66-1.642-1.392-.743.536-1.115,1.443-1.271-.164-1.271-1.393-1.642.156-2.386,1.979-1.437,1.547-.795-.69-.053-1.712.795-.5361-.569-.89Z"/><g id="it"><path class="cls-1" d="M392.466,167.8l-.535,1.356.146,1.478,2.065,2.412,3.25-.113,7.175,8.334,4.479,1.297,2.646,2.498.631,5.695,1.417-.828,1.229-3.104-.303-2.2291,2.101-.19.304-1.263-5.922-2.834-5.619-5.523-2.238-3.303-.545-3.137,2.861-.684-.734-2.066-1.755-1.478-1.513-.069-2.108.58-1.99,2.781-1.201.795-1.858-1.141-1.983.7361Z"/><path class="cls-1" d="M409.901,190.307l-1.253-.674-4.278.674.146,1.158,3.847,1.937.579.631,1.012.147-.053-3.873Z"/><path class="cls-1" d="M397.039,181.975l-2.289,1.158.303,4.469,1.833.311,1.374-1.312v-4.235l-1.221-.391Z"/></g><path id="jm" class="cls-1" d="M190.766,239.207l-3.008.761v.84l1.755,1.011h1.841l1.167-1.349-1.755-1.263Z"/><path id="jo" class="cls-1" d="M458.706,205.66l-2.126,7.416-.096,1.133h3.346l3.743-3.303.094-1.253-1.529-1.564,2.739-2.272-.396-2.109-.752.173-2.282,1.635-2.741.144Z"/><g id="jp"><path class="cls-1" d="M678.55,184.602l-1.41,1.418.579,1.996,1.236.086.83,4.332.9929,1.08,1.738-1.582.151-4.773-2-2.125-2.117-.432Z"/><path class="cls-1" d="M685.921,180.597l-2.659,2.156-.591,2.719,1.812,1.25,2.625-2.75.37-3.062Z"/><path class="cls-1" d="M682.846,176.442l-4.219,4.832v2.322l2.604-.312,4.085-3.592,2.731-.5021.6631.779.015,2.377.688,1.25h1.255l1.763-2.1579.7429-2.836,3.552-.086,3.4761-4.166-1.8141-6.916-.83-3.664,1.815-1.496-4.133-6.241-.944-.744-1.875.744-.481,2.584V160.7l.994,1.167.3281,5.498-2.56,3.164-1.485-.917-1.159,2.584-.251,2.412.909,1.418-.579,1.08-1.902-1.582h-1.322l-1.157.666-.91.252Z"/><path class="cls-1" d="M689.962,138.805l-1.321,1.168.665,2.498,1.158,1.166-.086,3.83-1.487.5781-1.158,2.584,3.388,4.659,2.23-.7521.415-1.1669-2.396-2.1611,1.487-1.919,1.572.25,3.43,2.305.37-2.584,1.63-2.979,2.281-2.312-2.469-1.125-.944-1.801-1.236.83-1.071,1.331-2.316-.501-2.396-1.582-1.746-2.3159Z"/><path class="cls-1" d="M702.434,136.221l-2.317,3.25.164,1.582,1.158-.502,2.723-3.414-1.728-.916Z"/><path class="cls-1" d="M705.494,131.475l-.829,2.248.086,1.496,1.409-.918,1.322-2.662v-.994l-1.988.83Z"/></g><path id="ke" class="cls-1" d="M460.375,279.774l2.3,4.484-2.759,5.783-.361,1.754,13.77,8.516,4.271-6.708-2.161-1.754-.043-8.835,2.705-2.956-4.313,1.435-3.259.044-5.1-4.305-1.608-.692-2.98.276-.526.883.0641,2.075Z"/><path id="kg" class="cls-1" d="M534.696,169.725l-.268,2.188.216,1.35,7.521,2.523-6.604,2.662-.751-.623-1.427.917.068.501.761.346,4.635.121,2.351-.709,3.018-3.803,3.776.656,4.557-6.311-12.1879-1.66-1.686,4.088-2.127-2.281-1.8521.035Z"/><path id="kh" class="cls-1" d="M624.309,256.391l3.535,3.776,6.576-4.875.5789-7.692-3.396,2.343-1.7639-.985-2.396-.32-1.341-.941-.6481.035L623.7,250.61l.285,1.332,1.781.994-.216,2.705-1.2409.75Z"/><path id="km" class="cls-1" d="M483.592,318.422l.396,1.321,1.711.269.656-1.72-2.763.13Z"/><path id="kp" class="cls-1" d="M656.984,165.456l1.59.666.484,5.566,3.155.183,2.974-3.483-1.029-.916.121-3.734,2.731-3.303-1.392-2.506.908-1.039.501-2.592-1.582-.719-1.35.684-1.6681,5.064-2.697-.232-3.12,3.682.374,2.679Z"/><path id="kr" class="cls-1" d="M665.679,168.852l5.342,4.356.909,4.22-.183,2.264-2.61,2.939-2.248.12-2.551-5.506-.968-2.629,1.028-.795-.242-1.099-1.271-.569,2.794-3.301Z"/><path id="kw" class="cls-1" d="M488.433,211.183l-1.945-1.056-1.349,1.356.146,2.715,3.139,1.201.009-4.216Z"/><path id="kz" class="cls-1" d="M482.728,160.572l3.544-1.513,3.959-.139.276,6.051H488.19l-1.772,2.888,2.317,3.847,3.414,1.928.311,2.205,1.255-.416,1.157-1.375,1.91.416.96,1.928h2.455v-2.473l-1.504-4.4-.6841-3.569,4.3641-1.929,5.869.959,3.684,3.709,8.323-.821,4.644,6.597,5.455.274,1.504-2.472,1.91-.416.274-2.7479,2.862-.139,1.503,1.789,1.505-3.57,12.9569,1.789,2.1791-2.8869-3.683-4.537,4.91-10.719,3.9581.275,2.731-6.594-5.455-.554-3.138-3.024-8.644,1.002-11.134-10.762-3.926,3.482-11.902-5.402L504.158,136.4l-.405,5.083,3.413,3.985-6.655,3.76-8.636-.19-1.807-2.653-6.769-.373-6.414,4.123-.14,5.638,5.983,4.7989Z"/><path id="la" class="cls-1" d="M619.978,224.806l-2.092,1.062-1.737,5.065,2.904,3.699-.485,4.09.485.196,4.832-2.342,6.482,7.243-.157,4.563,1.41.762,3.482-2.827-.285-2.238-10.053-9.552.095-1.461,1.254-.873-.874-2.438-4.158-.684-1.103-4.265Z"/><path id="lb" class="cls-1" d="M456.372,198.45l.053,1.686-.708,2.56,2.438.208.156-3.631-1.939-.823Z"/><path id="lc" class="cls-1" d="M227.979,251.689l-.614,1.306.994,1.071,1.296-.691-1.676-1.686Z"/><path id="lk" class="cls-1" d="M572.497,263.808l.217,2.351.216,1.712-1.271.216.64,3.848,1.909,1.07,2.966-1.711-.847-4.054.216-1.495-2.756-2.559-1.29.622Z"/><path id="lr" class="cls-1" d="M347.431,273.436l9.491,6.3449-.227-4.8049-2.869-3.38-2.801-2.4809-3.594,4.321Z"/><path id="ls" class="cls-1" d="M440.129,365.238l2.637-2.032,1.245.053,1.503,1.875-.155,1.877-2.533.934v.728l-2.792-.156-.674-2.031.769-1.248Z"/><path id="lt" class="cls-1" d="M421.373,133.645l-2.146.363.173,2.025,3.355.25,1.27,1.042.333,1.81,1.034,1.443,3.069-.13,2.938-3.743-.172-2.222-5.533-.867Z"/><path id="lu" class="cls-1" d="M389.657,155.991l.76.679.88.083.194-1.734-.253-.974-1.224.583Z"/><path id="lv" class="cls-1" d="M432.056,128.373l-6.362-1.037-1.086,2.823-1.833.548-.959-1.173-.962-1.811-1.038.762-.589,3.132v1.708l2.242-.375,4.665.083,5.617,1.044L434,133.42l-.13-2.524-1.814-2.523Z"/><path id="ly" class="cls-1" d="M399.191,211.927l1.35-.225.397-3.112h.674l2.758-4.528,6.804,1.979,1.856,2.887,6.69,3.062,3.482-1.47-.338-1.471-1.521-1.469.173-1.021,2.473-2.093h4.894l1.856,2.489,3.934.57.511,31.889-2.922-.112-17.651-9.181-1.91,1.081-7.253-1.814-1.971-2.603-2.87-.397-1.458-2.603.042-11.8581Z"/><path id="ma" class="cls-1" d="M371.738,198.312h-9.982l-1.954,4.339-4.504,2.17-3.719,10.062-7.243,4.341-10.174,16.761,9.983-.199.389-4.927h2.541v-6.708h8.81l.196-8.679,8.42-1.972,3.526-5.723,5.48-.198-1.769-9.267Z"/><path id="md" class="cls-1" d="M434.373,159.785l2.681,4.123-.226,2.334.96.043,2.272-3.847-2.731-3.389-1.547-.64-1.409,1.376Z"/><path id="me" class="cls-1" d="M418.913,175.086l-1.266,1.789.362,1.099,1.504.275,1.184-1.607Z"/><path id="mg" class="cls-1" d="M496.221,319.883l-1.842,4.374-3.154,5.566-5.523.396-2.369,2.783.3969,8.488-3.423,3.977.396,6.761,2.897,3.3109,3.423-.396,3.423-2.5239-.787-3.977,7.894-13.657-1.582-1.72,1.582-3.312,1.711.526.526-1.322-1.582-6.76-.924-2.784-1.0629.27Z"/><path id="mk" class="cls-1" d="M425.876,177.333l-2.912.959.139,2.473.683.873,3.458-1.606-1.368-2.699Z"/><path id="ml" class="cls-1" d="M346.817,253.254l2.662-1.823,14.799-.087-3.423-23.806,3.907-.112,18.903,14.428,2.541.362-.959,8.021-11.886,1.08-9.171,6.847-1.669,4.686-6.37.269-1.625-4.677-4.884.346.189-1.53-3.014-4.004Z"/><path id="mm" class="cls-1" d="M614.766,260.005l-2.396-3.838,1.737-2.438-1.642-3.018-1.548-.294-.294-5.064-2.316-4.486-.675,1.071-1.5469,2.628-1.9371.294-.968-1.271-.484-3.414-1.453-2.73-5.913-5.576,1.453-.959.27-4.037,2.16-3.631.935-9.032,3.129-2.136.103-3.293,1.877.622,2.956,4.279-2.1939,4.701,1.479,3.691,3.655,1.435.666,4.021,4.91.761-1.357,2.343-6.188,2.438-.674,3.993,4.547,5.844.189,3.12-1.062,1.072.094.9769,3.389,4.9711.096,5.16-.9971,1.796Z"/><path id="mn" class="cls-1" d="M566.671,144.624l5.03-6.673,6.043,2.792,4.105,1.098,5.03-4.615-3.414-2.517,2.2479-3.172,6.707,2.369,2.325,3.812,4.199.112,2.196-1.634,4.521-.182.985,1.678,7.512.38,4.754-4.849,6.578.69-.38,6.604,2.879.656,3.535-1.606,3.743,1.85-.088.935-2.714.078-2.827,5.93-2.195.216-8.54,11.16-8.723,3.847-5.4551.424-4.5289-2.923-5.7911,3.095-5.705-1.771-1.617-4.141-10.805-.762-5.532-9.377-2.6879-.174-1.387-3.33Z"/><path id="mr" class="cls-1" d="M334.231,236.675l1.885,2.463-.389,10.65,2.74-1.972,1.952-.397,2.741.985,3.128,4.34,2.939-1.971,14.288-.199-3.526-23.866,3.786-.018-7.054-5.402.009,3.51-8.93.01-.043,6.698-2.567-.009-.328,4.944-10.631.234Z"/><path id="mt" class="cls-1" d="M410.048,196.748l-1.443.294.052,1.6,1.297.433.579-.484-.485-1.843Z"/><path id="mu" class="cls-1" d="M514.123,342.417l-1.312,1.721.259,1.857,2.768-2.256-1.715-1.322Z"/><g id="mv"><path class="cls-1" d="M551.629,274.795l.26,2.256,1.442.5269.26-1.989-1.962-.7939Z"/><path class="cls-1" d="M553.471,279.565l-.13,2.784,1.055.525.925-1.856-1.85-1.453Z"/><path class="cls-1" d="M553.739,285.004l-.925.925,1.056.9249,1.313-.9249-1.444-.925Z"/></g><path id="mw" class="cls-1" d="M457.201,325.483l2.689,2.81-.053,3.597.52,1.5139,3.57-3.8549-.414-4.899-1.912-1.46-1.701-8.603-2.949-.104,1.34,6.196-1.09,4.8041Z"/><path id="mx" class="cls-1" d="M103.08,192.391l4.175,13.146-1.945,1.089.216,2.61,3.674,2.827v5.229l4.538,4.3559-1.945-12.8469-2.593-8.497.648-5.8771,2.161.2171.865,1.962-.865,5.005,11.237,21.99v7.841l9.077,10.666,9.94,4.573,4.106-2.396,5.835,4.789,3.458-3.483-1.513-3.925,4.97-1.521,1.513.873,1.513-1.521h2.377l4.322-7.624-2.161-1.962-8.428,1.962-1.945,5.662-4.971.874-5.834-2.396-2.593-8.271,1.962-10.434-4.011-2.498-1.91-10.02-1.599-.683-2.922,2.965-3.354-1.789-1.313-6.682-13.286-1.393-6.863-5.16-6.536.343Z"/><g id="my"><path class="cls-1" d="M617.592,270.205l1.736,3.898.391,5.064,2.324,3.604,5.096,3.083,1-.791,1.464-.288-.212-1.91-1.841-4.478-2.697-5.7311-.227,1.003-3.25-.146-2.334-3.354-1.45.0461Z"/><path class="cls-1" d="M644.76,285.305l2.61,3.018,10.012-3.467,1.979-7.643,4.46-.319,4.08-2.956-5.29-3.854-1.211-2.1189-2.61,4.8149.959,2.766-1.5911,2.31-2.999-.771-7.27,5.333.188,3.086-3.317-.199Z"/></g><path id="mz" class="cls-1" d="M452.024,354.768l2.326,1.928,5.479-3.335.881-4.953V340.23l8.791-7.191,1.506.053,5.322-5.107-.828-10.529-13.81,1.743.519,3.338,2.02,1.757.57,5.731-4.756,4.6421-1.141-2.6031.207-3.44-2.74-2.973-6.725,3.13,6.258,3.182.209,9.274-4.141,6.146.053,7.385Z"/><path id="na" class="cls-1" d="M413.454,362.272l2.897.208,1.702,1.72,4.037.052.984-11.462v-7.503l2.585-.52.986-7.867,6.569-.206,2.323-1.927-3.933-.156-5.325.726-5.7391-2.082H404.41l.415,4.58,5.3761,7.9181-.934,4.062.053,2.1359,4.134,10.321Z"/><path id="nc" class="cls-1" d="M767.939,360.985l-.303,1.547,3.983,5.559,2.145.926.303-2.161-6.128-5.871Z"/><path id="ne" class="cls-1" d="M382.629,258.579l2.204-.053,1.988-2.981,3.336-.597,3.553,2.17,7.58.216,5.861-2.3859,2.204-1.8941.164-2.489,4.088-4.123,1.08-9.104-2.688-5.6359-6.88-1.677L389.196,242.438l-2.256-.217-.969,8.617-8.124.813,4.782,6.928Z"/><path id="ng" class="cls-1" d="M383.217,273.594l3.389.164,4.088,4.557,1.987.544,1.558-.761,2.367-.328.805-3.303,3.225-2.117,3.492-.163,6.396-11.766-.104-2.653-2.9549-2.273-5.913,2.603-7.909-.111-3.77-2.386-2.688.596-1.4,2.438-.104,6.88-2.256,3.198-.2081,4.881Z"/><path id="ni" class="cls-1" d="M172.449,250.029l1.893.381.061,3.881-2.204,6.293-5.938-.588-1.323-3.034,1.764-3.682,3.345-3.112,2.402-.139Z"/><path id="nl" class="cls-1" d="M390.582,142.981l-3.915,1.928.829.752.088,1.928-.829-.164-.917-1.426-2.188,3.467,3.363.699,1.253,1.323.666.017.44-2.99,2.117-.8909-.907-4.6431Z"/><g id="no"><path class="cls-1" d="M429.8,85.818l1.747-1.279-.157-1.435-1.106-.641.157-1.754h.95v-.96l-4.123-1.114-6.181.64-.631,2.714-1.428-.477-.951-1.599-3.017.155-.32,3.033-1.426.641-.795-1.6-6.345,5.109,1.271,1.436-2.378,1.115-5.393,10.701-1.901,1.279.155.959,1.9.959-.475,2.074-3.173-.164-.952-1.115-2.057,2.395-1.271.959-.32,2.24-1.105.64-2.854.64-1.426,4.4791.951,7.3479,1.106,3.354,1.2709,1.279,2.853-.156,4.124-3.994,1.581-2.713.478,3.992,2.697-4.789.154-13.424,2.195-1.383.657-7.408,6.655-9.586,3.173-1.1149,1.427-1.7551,4.754,1.115,2.377,1.435.796-3.992,3.968-2.396L429.8,85.818Z"/><path class="cls-1" d="M406.289,44.171l-1.426-1.435-3.164,1.539H395.89l-.917,3.389,3.26,2.878,1.425-.208,2.04-3.491,1.729,1.235-1.229,2.464-.614,3.596,1.427,2.256,3.06-5.135,3.979-4.832-1.531-1.33-2.23-.926Z"/><path class="cls-1" d="M408.017,38.009l-2.55,2.359,1.529,2.359h2.749l1.124,1.539,3.363,1.746,3.871-2.256,2.654-2.256-.916-1.85-2.654-1.539-1.938,1.746-1.321-1.644-1.021.104-1.322,2.878-1.936-1.954-.208-1.331-1.424.099Z"/><path class="cls-1" d="M413.826,48.588l-2.04,1.851-1.729,1.332.812,1.435,1.636.511,2.652-1.236,1.229-1.539-1.124-1.85-1.436-.504Z"/></g><path id="np" class="cls-1" d="M564.415,207.198l.397,3.691,6.983,3.162,11.1929.83-.4229-2.705-7.4781-2.058-6.346-3.777-4.3259.857Z"/><g id="nz"><path class="cls-1" d="M773.454,414.138l.917,10.199-1.228,4.6339-4.6,3.396.305,4.02v4.322l1.228,1.548,12.577-10.8141v-2.472h-3.0679l-4.298-14.5209-1.8331-.312Z"/><path class="cls-1" d="M764.256,436.388l2.455,4.633-6.752,6.492-.613,3.396-4.6.613-7.667,7.104-7.054-3.396-.613-2.474,12.879-5.558,11.9649-10.81Z"/></g><path id="om" class="cls-1" d="M501.477,240.288l6.388-3.683,1.133-5.402-1.399-.804.579-5.792,1.219-.709,1.306,2.049,7.771,4.062v2.258l-9.413,13.854-4.331.147-3.253-5.98Z"/><path id="pa" class="cls-1" d="M174.913,265.157l-1.262,3.941,4.167,1.079,2.584.512.441-3.052,2.775-1.4,2.463,1.271.968,1.547,1.175-.138.925-2.81-3.078-1.271-2.334-1.271-2.333,1.59-2.775,1.4-2.835-1.141-.881-.257Z"/><path id="pe" class="cls-1" d="M178.751,299.655l-1.677,1.695.113,2.703,14.643,26.694,15.205,9.802,2.351-3.941.562-8.669-1.228-5.402-4.141-6.984-2.463.7861-1.115,1.236-4.918-5.636,1.228-6.647,5.705-3.717-.449-3.492-5.809-.226-3.017-5.064-1.677-.562.113,3.044-7.486,8.895-5.593-1.349-.347-3.1661Z"/><g id="pg"><path class="cls-1" d="M721.365,298.592l-.319,21.126,3.0441-.164,4.002-4.6761,3.361.164,2.161,1.937.718,5.964,6.882,3.631,1.763-.648v-2.179l-5.523-4.599-2.723-6.293,2.161-1.047-1.601-3.466-3.197-.078-.805-3.709-8.479-5.722-1.4451-.2409Z"/><path class="cls-1" d="M747.409,304.417l-.8189.191-.501,2.222-1.573,1.021-4.729.83.19,1.779,4.979-.2491,3.155-1.9719-.188-3.4321-.5141-.39Z"/><path class="cls-1" d="M745.326,299.206l-.762,1.08,4.159,3.683.569,2.161,1.133-.13.13-2.221-1.263-1.14-3.966-3.433Z"/></g><g id="ph"><path class="cls-1" d="M666.57,254.715l-.743,1.418-.414,1.746-4.132,5.246.25,1.081,1.737-.251,5.368-5.999-2.066-3.241Z"/><path class="cls-1" d="M673.26,252.718l-.088,4.331,1.573,1.582.578,3.077,1.5739.337.742-1.919-1.236-.916-.328-5.411-2.8149-1.081Z"/><path class="cls-1" d="M677.729,254.387l-.087,3.829.908,1.495,1.571-1.832-.414-3.328-1.978-.164Z"/><path class="cls-1" d="M678.714,251.05l1.572,2.083.743,1.997h1.409l-.25-3.415-1.573-1.08-1.901.415Z"/><path class="cls-1" d="M681.775,258.881l.328,2.498-2.896,2.334-2.396.251-2.56,2.749.087,1.252,2.396-.751,1.651-1.08,1.408,3.578,2.48,1.747.994-.338.907-1.08-1.979-1.997,1.159-.916,1.322,1.08.906-1.495-.906-1.833-.164-4.08-2.737-1.919Z"/><path class="cls-1" d="M668.307,233.485l-2.23,1.581-.25,4.997,3.477,6.742,1.158.915,1.485-1.003,2.56.415.492,2.248,1.901.164.908-1.245-1.158-1.582-1.409-1.331-2.974-.327-1.573-2.585,1.816-2.749.163-2.411-1.236-3.077-3.13-.752Z"/><path class="cls-1" d="M669.465,248.388l.657,2.335,1.158.752.83-1.081-1.323-1.832-1.322-.174Z"/></g><path id="pk" class="cls-1" d="M522.871,213.491l2.248,3.337-.216,1.72-2.991,1.186-.217,2.801h3.424l1.175-.969h6.519l5.8779,5.17.7521-2.481h4.383l.104-3.12-4.4861-4.305.96-2.3689,4.598-.318,6.199-12.924-3.425-2.688-1.278-4.521,8.333-.752-4.917-7-2.62-.7091-1.07,1.297-.805.061-4.919,3.12,1.6079,2.6961-1.815,1.937-2.249,8.29-5.558,3.553-.752,3.882-8.8629,3.1059Z"/><path id="pl" class="cls-1" d="M426.342,148.593l.733,1.348.174,1.435-.604,1.392-1.383,2.664-1.167.526-1.514-.657-.908.043-2.204.83-2.506-.7421-4.062-2.879-3.978-2.135-1.6-2.438-.303-5.75,3.112-2.7049,4.062-1.35,1.328-.138.315,1.0069,1.725.692,4.766.09,1.47-.043,2.421,3.708-.604,1.521.259,1.789.468,1.7921Z"/><path id="pr" class="cls-1" d="M218.53,240.477l-2.282-.77-1.833,1.149.917,1.071,3.121.458.077-1.908Z"/><g id="pt"><path class="cls-1" d="M356.732,180.125l-.536,7.478-1.53,1.384.156.846,1.071,1.772-.691,2.16,1.149.39,2.68-.312-.155-2.16,1.756-10.02-.382-1.383-3.518-.155Z"/><path class="cls-1" d="M337.067,201.89l-.934,1.185.934,1.185,1.408-.709-1.408-1.661Z"/><path class="cls-1" d="M306.345,185.122l-1.175,1.184,2.107,1.185.234-1.649-1.166-.72Z"/><path class="cls-1" d="M312.681,184.413l-1.408.941,1.175.941,1.876-.476-1.643-1.406Z"/><path class="cls-1" d="M313.615,187.723l-.7,1.892.935,1.185,1.175-.941-1.41-2.136Z"/><path class="cls-1" d="M319.243,191.501l-.467,1.184.701.709,1.875-1.184-2.109-.709Z"/></g><path id="py" class="cls-1" d="M236.432,342.867l1.902,2.074-.225,4.392,5.48-.338,4.141,5.299-.337,4.729-2.681,4.054-5.479.225-.225-2.256,1.564-3.718-5.368-3.38h-4.469l-3.354-3.604,2.438-6.968,6.613-.509Z"/><path id="qa" class="cls-1" d="M496.506,221.427l-.449,3.467,1.331,1.012,1.209-.112.45-4.365L498,220.677l-1.494.75Z"/><path id="ro" class="cls-1" d="M426.964,159.69l-.226,1.279-5.005,4.166,4.184,6.137,2.682,1.877h4.823l1.591-1.331,2.135-.276,1.591.959,2.818-3.207-.545-1.607-2.861-.734-1.953-.095.094-2.749-2.593-4.08-6.735-.339Z"/><path id="rs" class="cls-1" d="M421.234,165.688l-1.772,1.332h-.863l-.588,1.832,2.092,2.43.139,1.928-.882,1.246,3.068,3.197,3.317-1.012-.274-4.721-4.237-6.232Z"/><g id="ru"><path class="cls-1" d="M691.292,60.569l1.522,5.256,3.043.873,3.042-4.814-1.737-3.285.648-2.845h4.563l-1.09,2.188.434,7.883-6.519,16.199.648,3.501-.216,5.912,12.161,17.729,2.3871.657.216-14.443,2.386-2.188-2.61-5.688,2.171-2.412-4.78-6.346-2.6111.217L704.0851,68.46l6.734-1.7551.432-3.0679,3.478-.873,1.953,1.756,2.386-9.631,4.124-7,3.259-1.756,2.827.217v-3.285l-4.563-.873-6.302-5.256,3.044-3.5-2.61-5.913,2.169-2.187,2.61,3.5,6.519,2.411,7.166.657.873-3.061-3.69-3.717,4.123-5.688-9.345-3.285-2.386,4.814-3.043-3.941-17.158-5.913-16.295,2.844-2.387,1.314V16.584l3.476,1.7561-.434,4.157-6.3011-2.628-13.898,5.473-2.388-5.031h-9.5609l-4.349,4.599-15.4211-3.501-14.1149,2.844-1.737,4.375,2.17.656-.216,3.285-13.685,1.529.873,4.375-12.604-2.188,3.044-5.688-12.8189-.657,1.0889,5.913-4.1229,1.971-3.4761-3.285L569.412,36.951l-5.428,5.0311-.2169,3.06-3.4761.216-.4329-3.5,11.0819-9.629v-6.57l-7.166-1.9711-9.345,3.061-3.9069-3.9419h-1.737l-2.1711,4.374,1.738,1.971-12.388,6.787-10.642,8.1-6.519,8.972v3.717l6.949,2.845L522.277,62.1l-7.382-2.627L511.851,62.1l-4.563-5.256-.873,1.972,4.996,15.758,1.305.44,3.478-1.754,1.736,1.313v2.844l-3.259-1.313-1.955,1.529,1.308,2.844-1.09,7.4429-6.734.6571-.432-2.412,3.907-2.411.8729-6.57-4.349-5.688-1.521-9.846-6.948-1.098-.648,3.5,1.305,1.754-2.825,2.4119,1.089,6.57,4.124,1.755.873,4.814-4.133-2.6271-10.641-1.9719-1.306,3.502-8.473,3.06-1.305-2.187-11.082,6.127-.216,4.158-4.348.657,1.306-3.06v-3.061l-4.349-1.529-2.826,1.098,2.386,4.599,1.737,3.06v2.412l-3.26-.6561-.647-.657-3.26,3.501,1.737,3.061-7.383-.217,2.387,3.069-.647,1.313h-3.907l-2.827-1.971-.647-5.472-4.563-1.755V93.623l9.561,1.972,5.213.44,2.17-3.285-1.954-3.501-13.899-5.472-4.798,1.192-1.642,1.41.511,3.24,2.039.354-.476,5.101,6.293,14.781-4.548,7.209-.312,1.625,2.309,1.625-2.084,1.375-1.383.026.26,6.353,1.91,2.706.026,2.627,2.446.225,3.741,1.426,3.959,5.446.045,1.435-1.288,2.205,2.956-.164,2.878.83,3.891,5.506,9.577.873-.415,6.552-3.301,2.827.683,1.105-3.26,3.502-.864,3.284,1.954,2.845,6.301,2.187,2.611-1.53,16.727,6.346.648-1.756-3.476-3.283v-4.158l-2.171-.657.434-3.5,3.476-4.158-6.231-4.667.432-6.492,6.665-4.383,7.822.441,1.3061,2.412,8.04.44,5.869-3.284-3.044-3.285.647-6.129L518.84,128.4l11.695,5.272,3.907-3.5,11.514,10.9419,8.688-.8729,3.044,3.06,8.255.8729,5.429-7.441,6.949,3.068,3.69.658,3.692-3.285-3.26-2.188,2.827-4.374,8.039,2.628,1.7361,3.501,3.4769.216,2.17-1.529,5.869-.217.647,1.53,6.733.44,4.562-4.814,9.345,1.098,2.827-1.098.864-5.256-2.826-6.346,2.826-2.411h8.904l8.471,10.069,10.857,6.129h3.26l.432-2.627,3.907-2.412.433,14.228-3.475.216v3.5l1.953,2.412-.363,3.129,1.443.598.8741-2.188,1.306.441.864.873,3.907-.873,3.906-11.385.434-14.229-4.996-11.385-6.301-7.657-3.044.44v2.412l-7.382-2.845,2.826-6.128,2.387-16.199,9.992-3.06,4.779-3.06h5.213l-1.312,1.754,1.306,2.1879,4.563-4.8139,2.609.2149-.432-2.8439-4.132-.873,2.827-10.287,3.737-3.523Z"/><path class="cls-1" d="M419.341,136.697l-1.296,2.396,4.665.043h.95l-.179-1.352-.728-.854Z"/><path class="cls-1" d="M710.37,111.655l-1.071,1.332.087,2.083.992-.086,1.651-2.913-1.659-.416Z"/><path class="cls-1" d="M746.026,30.712l-2.04,1.331-.483,1.694.96,1.089,2.16-.726,2.161.726,1.201.363-.121-3.994-3.8381-.483Z"/><path class="cls-1" d="M457.772,31.057l1.487.598-1.046,1.798v2.55l-2.23,1.35h-2.377l-1.34-1.651.146-1.798,1.046-1.35h2.084l2.23-1.497Z"/><path class="cls-1" d="M463.425,29.407v1.798l1.486,1.202,2.083-.146,1.788-1.651V29.408h-1.634l-1.34.449-1.046-1.201-1.337.751Z"/><path class="cls-1" d="M471.914,29.561l1.046,2.248,2.084.147,1.486-.596-.742-2.101-1.937-.451-1.937.753Z"/><path class="cls-1" d="M480.394,26.563l-1.635-.303-1.487,1.504.744,1.349.449,2.101,1.937-1.496.449-1.65-.457-1.505Z"/><path class="cls-1" d="M489.47,42.46l-.45,2.1-3.424,3-7.294,1.651-5.957,9.897-1.046,2.853,5.957,1.505.889-3.597,1.79-5.549,4.615-2.403,3.872-3,2.826-1.201h1.487V43.67l-3.265-1.21Z"/><path class="cls-1" d="M470.272,64.355l4.019.45,1.342,4.649,3.423,3.597-1.193,2.402H475.78l-1.937-2.248-4.313-.146-1.789-2.403V69.005l2.682-.752-.151-3.898Z"/><path class="cls-1" d="M533.088,13.218l-1.938-1.203h-2.23l-.448,1.35-2.377,1.35-1.79.596-.294,1.798,4.167.303,4.91-4.194Z"/><path class="cls-1" d="M537.696,13.666l-1.047,2.247-2.083-.146-3.276,2.402-.89,3h2.083l1.193-1.953,2.826,2.101,2.681-1.202,1.937-1.65-.744-2.551-1.046-1.798-1.634-.45Z"/><path class="cls-1" d="M542.017,15.317l1.046,4.201,1.634,3.897,1.79-3.146,3.4229-.752V17.269l-2.229-1.651-5.6639-.301Z"/><path class="cls-1" d="M623.686,8.593l2.326,1.953,1.649-.683.484-2.74-3.389-2.342-2.23,1.469-5.4279.493V9.188l-5.724.096v4.002l6.69,4.979,1.747-1.271-.39-3.519,4.27-1.071-.873-1.66-1.547-1.563,2.4149-.588Z"/><path class="cls-1" d="M629.893,6.249l1.547,2.932,6.017-.684,1.65-2.152-.389-1.857-1.65-.684L635.52,4.98l-4.46.978-1.167.291Z"/><path class="cls-1" d="M629.504,17.677l-3.01-.777-1.736,1.857-.7781,2.541,4.071-.389,3.104-1.564-1.6509-1.668Z"/><path class="cls-1" d="M707.464.778,704.941,0l-2.904,1.072-1.453,2.151,1.842,2.446,4.85-2.151.968-1.072-.78-1.668Z"/><path class="cls-1" d="M708.389,116.738v3.665l1.159.415.828-1.332v-2.827l-1.987.079Z"/><path class="cls-1" d="M674.583,103.495l-.076,5.333,6.689,10.33,2.396,8.989,4.219,7.996,1.649.58,1.409-1.168.657-1.918-6.0331-6.578.164-3.416,1.3221-.578.329-1.997-11.816-16.735-.909-.838Z"/><path class="cls-1" d="M721.2,86.925l-1.649.164.993,1.418,2.065,1.418.579-.666L721.2,86.925Z"/><path class="cls-1" d="M724.416,87.929l.251,1.416,2.56.752.2509-1.002-3.0619-1.166Z"/><path class="cls-1" d="M738.462,93.365l1.08,1.937,1.8-.121.361-1.332-3.241-.484Z"/><path class="cls-1" d="M756.589,96.389l1.442,2.662,1.08-1.209V96.027l-2.5221.362Z"/></g><path id="rw" class="cls-1" d="M449.129,291.34l2.429,2.238-.104,2.396-3.769.077v-2.646l1.444-2.065Z"/><path id="sa" class="cls-1" d="M489.045,216.43l6.061,8.443,1.953,1.558.874,3.785,9.327.734,1.055.554-1.046,4.667-6.129,3.613-8.964,2.715-4.78,4.668-5.6791-3.312-3.4389,3.009-4.791-7.823-3.284-1.504-1.192-1.807v-3.916l-11.954-14.452-.451-2.561h3.44l4.184-3.611.146-1.808-1.192-1.201,2.395-1.953,5.084.303,8.669,7.226,5.117-.232.329,1.263,4.267,1.642Z"/><g id="sb"><path class="cls-1" d="M753.019,308.291l1.072,2.981,1.8921,1.842.57-.51-.1891-1.972-2.145-2.603-1.2.262Z"/><path class="cls-1" d="M758.249,312.733l.131,1.971,1.2,1.141,1.134-.7-1.0121-2.102-1.4529-.31Z"/><path class="cls-1" d="M759.761,317.627l-1.012,1.081,1.071,1.97,1.262.381-.06-1.331-1.261-2.101Z"/><path class="cls-1" d="M762.225,316.485l.882,2.161,1.702,2.03.943-1.521-1.263-2.161-2.264-.509Z"/><path class="cls-1" d="M766.642,319.726l.501,2.671,1.203,1.65,1.011-2.092-2.715-2.2291Z"/><path class="cls-1" d="M768.025,325.7l-.44.76,1.452,1.911,1.012.062-.632-2.482-1.392-.251Z"/><path class="cls-1" d="M764.809,329.503l-1.514.7,1.323,1.843,1.133-.64-.942-1.903Z"/></g><g id="sc"><path class="cls-1" d="M504.909,307.279l-.525,1.062,1.442,1.192,1.056-1.192-1.973-1.062Z"/><path class="cls-1" d="M512.282,299.328,510.7,300.39l1.186,1.857h1.582l-1.186-2.919Z"/><path class="cls-1" d="M512.939,303.969l-1.055,1.193.786,1.192,1.442.269.13-2.522-1.303-.132Z"/></g><path id="sd" class="cls-1" d="M435.377,263.444l-2.55-1.504-2.325-4.59.13-4.271,3.224-2.772h0l.155-10.228,2.127.062-.242-5.68,22.302.198,3.189-3.215,6.881,11.004-3.77,4.442v6.785l-4.599,9.891-1.04,2.3-3.709-5.316-2.708,3.441-3.059.834-9.941-1-4.333,1.541Z"/><g id="se"><path class="cls-1" d="M414.465,87.929l1.693,1.563h3.173l1.746,3.354.477,5.748-4.278,3.035v3.033l-3.017,4.1579-1.746.154-2.378,3.994.155,3.838,4.124,3.035-.319,1.754-1.582,2.396-2.377,2.074.155,6.8721-3.6471,1.2789-1.2709,2.7131h-1.7471l-.949-4.789-3.969-6.0841,3.26-5.4549.225-13.477,2.2479-1.236.5451-7.709,6.405-9.172,3.074-1.078Z"/><path class="cls-1" d="M415.131,127.336l-1.824,1.443.917,2.118,1.616-1.573-.709-1.988Z"/></g><path id="sg" class="cls-1" d="M627.547,286.114l.686.389,1.548-.126-.13-1.167-1.262.199Z"/><path id="si" class="cls-1" d="M411.941,163.485l-2.195,1.314-4.097.898.82,2.368,2.87.034,2.646-2.213-.044-2.401Z"/><path id="sk" class="cls-1" d="M412.84,159.284l.597.527.077.898,6.596-.146,4.875-2.102-.077-2.135-.934.415-1.34-.718-.821-.035-2.161.865-2.938-.709-3.874,3.14Z"/><path id="sl" class="cls-1" d="M342.037,268.199l4.884,4.72,3.483-4.227-2.179-3.415-3,.303-3.188,2.619Z"/><path id="sn" class="cls-1" d="M341.657,257.18l-5.792-.141h0l1.072,2.603.596-1.607,7.271.761.806-.028,3.405.12.121-1.504-3.111-3.733-3.467-4.693-2.152-.898-1.661.424h0l-3.405,2.472-.776,1.384-.242,1.383,1.253.8989,4.185-.061,2.688-.728.303,1.322-.241,1.746Z"/><path id="so" class="cls-1" d="M495.936,260.35l3.777-1.452,1.34.804-.147,3.354-3.482,9.923-18.854,20.19-2.187-1.503-.147-8.521,2.835-3.26,6.018-1.857,8.824-9.318,2.31-2.058.647-3.008-.934-3.294Z"/><path id="sr" class="cls-1" d="M237.617,275.124l1.763,1.6161,2.731-1.694,2.49.078-.32.968-1.046,2.179-.164,5.421-4.97,2.022.242-3.476-3.207-2.991.164-1.5381,2.317-2.585Z"/><path id="ss" class="cls-1" d="M458.569,266.428l-2.04.898.647,3.553h2.542l3.448,5.0041-2.767.354-.709,1.288-.069,1.857-8.298-.146-.848-1.288-5.8-.328-10.649-10.962,1.063-.64,4.517-1.364,9.897.754,3.366-.754,2.235-2.996Z"/><g id="st"><path class="cls-1" d="M391.144,288.963l.993-.502.743.604-.743,1.148-.899-.354-.094-.896Z"/><path class="cls-1" d="M393.14,285.807l1.496-.251.501.951-.743.805-.743-.104-.511-1.401Z"/></g><path id="sv" class="cls-1" d="M158.541,253.626l4.062,2.022-.061-3.207-2.083-1.271-1.918,2.456Z"/><path id="sy" class="cls-1" d="M456.778,195.589l-.302,2.196,2.437,1.021-.104,6.086,2.438-.053,2.438-1.842.916-.155,5.532-4.398,1.114-6.39-11.056,1.125-1.167,2.5589-2.246-.1489Z"/><path id="sz" class="cls-1" d="M451.764,355.392l-2.169.361-.935,2.552,1.659,1.513h2.015l1.702-2.446-2.272-1.98Z"/><path id="td" class="cls-1" d="M410.204,253.392l.112-2.552,4.098-3.983,1.099-9.785-2.731-5.221,1.911-.979,18.498,9.639-.113,9.456-3.259,2.775v4.875l2.136,4.132h-3.77l-6.24,6.173-.165,1.867-4.605-.061-.061.846-2.628-.345-1.798-3.397-1.351-.666.174-1.037,1.693-1.297v-6.066l-2.343-.363-2.826-2.102,2.169-1.909Z"/><path id="tg" class="cls-1" d="M377.728,275.219l2.316-1.356-.053-8.946-1.504-2.438-.967.812.208,11.928Z"/><path id="th" class="cls-1" d="M615.276,231.324l2.8,3.604v4.384l.968.482,4.4521-2.144.8729.294,5.316,6.138-.19,4.192-1.737-.294-1.5479-.979-1.1581.097-2.031,3.404.39,1.851,1.6421.873-.095,2.049-1.157.588-3.97-2.731v-2.438l-1.642-.095-.674,1.07-.347,10.909,2.567,4.686,4.547,4.383-.188,1.271-2.4229-.094-2.221-3.311h-2.325l-2.902-2.345-.8741-2.437,1.2541-2.049.432-1.851,1.366-2.421-.061-5.565-3.3369-4.823-.139-.588,1.081-1.089-.251-3.83-4.441-5.627.519-3.241,5.5037-2.323Z"/><path id="tj" class="cls-1" d="M528.973,180.643l3.552-4.408h1.34l.467.984-1.642,1.192v.985l1.081.777,5.195.312,1.693-.727.77.154.52,1.66,3.085.312,1.548,3.267-.467.985-.614.053-.612-1.245-1.341-.104-2.315.312-.156,2.18-2.316-.155.104-2.75-1.694-1.658-2.575,2.125.053,1.4-2.265.7781h-1.341l.104-4.8241-2.174-1.605Z"/><path id="tm" class="cls-1" d="M497.561,176.97l-.535,2.273h-3.588v3.078l3.854,2.541-1.191,3.482v1.608l1.599.269,2.1271-2.811,4.789-1.07,10.234,3.881.129,2.809,5.714.536,6.38-6.698-.796-2.145-4.253-.935-11.964-7.771-.535-2.81h-4.521l-1.997,3.753H501.01l-3.4491.01Z"/><path id="tn" class="cls-1" d="M394.749,194.033l4.78-1.927,1.572,1.02.061,1.244-.734.959.111,1.703.735.396v3.061l-.847,1.418.111.908,3.207,1.132-2.5841,4.02-1.0119-.061-.173,3.232-1.124.1741-.9591-.849.225-3.284-3.1459-3.061-.3971-2.662,1.521-1.192-1.3469-6.231Z"/><path id="tr" class="cls-1" d="M442.045,180.315l-2.305-1.426-1.271-1.013-2.138.916h0l-1.477,3.74,2.219-.5,1.562-1.188,3.438.938-1.946,1.877-5.175-.25-1.91,2.093v1.021l1.22,1.021v1.123l-.511,1.332.511,1.1229,1.625-.812,1.625,1.737-.406,1.228-.604.82.907,1.021,4.461.916,3.139-1.331v-1.937l1.521.303,3.648,2.144,3.948-.614,1.721-1.633,1.114.406v1.841h1.521l1.313-2.55,11.549-1.229,5.04-.613-1.331-1.746-.025-2.359,1.011-1.21-3.682-2.956.197-2.551h-2.022l-3.354-1.643h0l-1.929,2.041-7.088-.209-4.253-2.549-4.082.366-4.544,2.729Z"/><path id="tt" class="cls-1" d="M228.203,260.981l-.917.847-.994.155v1.228l1.833,1.687.76-1.229.458-1.383-.156-1.149-.984-.156Z"/><path id="tw" class="cls-1" d="M664.919,212.169l-3.06,2.334-.163,4.494,2.6459,3.078.6561-.58-.079-9.326Z"/><path id="tz" class="cls-1" d="M461.453,318.426l13.797-1.69-3.395-6.5689-.182-6.292,1.098-3.009-14.367-9.023-4.502.743-1.564,1.158-.139,2.637-1.012,3.656-1.055,1.253-1.514.141,2.809,9.418,4.816,2.838,4.195.1Z"/><path id="ua" class="cls-1" d="M429.895,147.2l-2.507,1.409.622,2.663-2.316,4.884.02,2.151,1.089.691,6.983.346,1.954-1.615,2.092.699,2.999,4.002-2.194,3.942,2.61.761,3.414-3.933,1.954.354,1.815,1.262-1.601,2.109,2.161,3.371h2.299l1.185-2.248,2.438-.494.069-1.823-4.529-.7.14-1.963h4.391l4.737-3.794,2.092-1.824.345-5.757-9.336-.838-3.829-5.402-2.646-.908-3.207.139-1.443,3.569-6.57.087-2.135-.986-3.096-.154Z"/><path id="ug" class="cls-1" d="M449.544,290.639l2.619,2.454,1.643-1.045,4.442-.7281.762.079.284-1.688,2.508-5.2719-2.109-4.3921-6.837.044-.043,1.808.9169.882-.139,1.8071-4.0469,6.051Z"/><g id="us"><path class="cls-2" d="M112.822,134.398l-.865,3.475-3.017-1.954h-1.504l-.865,3.691L96.017,163.26l2.801,20.606,3.449,1.737.648,5.645h7.105l6.889,5.204,13.562,1.305,1.504,6.941,2.152,1.521,3.017-3.033,2.369,1.08,2.152,9.976,3.656,2.386,3.017-5.645,9.258-6.726,6.025,2.817,5.169.433.216-3.25,10.762.217,2.152,2.386.432,5.42-1.288,3.034,1.504,5.203h3.233l3.232-4.987-1.288-2.386-1.288-5.204,1.936-5.86,8.826-7.59,6.673-1.953-.864-6.293,9.258-9.983,9.258-1.521-1.504-5.193,9.042-5.205v-6.94l-.865-.433-3.233,1.082-.432,4.252-10.745.129-8.419,5.594-13.217,4.322-2.109-2.586,5.999-9.076-2.965-2.826-2.014-3.838-4.175-3.354-4.538-.38-8.575-5.852-60.972-10.038Z"/><path class="cls-1" d="M44.024,43.643l2.991,5.594,1.919-.432V46.867l-4.91-3.224Z"/><path class="cls-1" d="M27.159,92.837l-.147,2.602,1.867-.432V93.849l-1.72-1.012Z"/><path class="cls-1" d="M24.29,93.995,20.556,95.88l.579,2.022,1.435-1.158,2.87-1.306-1.15-1.443Z"/><path class="cls-1" d="M8.774,96.451,6.19,95.872,5.758,97.03l.285,2.169,2.731-2.748Z"/><path class="cls-1" d="M3.311,96.311.865,95.301,0,96.891l1.582,1.591,1.729-2.171Z"/><path class="cls-1" d="M64.718,36.331l-7.252,1.721,1.496,8.168,7.892,2.151.423,1.72-11.73,3.657-6.613,10.96,2.343,11.609,3.838,2.576L58.106,76.1l.856,1.721-3.63,4.296L41.25,88.566l-8.964,2.151-.216,3.225,20.694-6.016,8.532-2.369,7.892-9.674,8.748-5.8-4.478,7.521,4.91.647,8.324-3.656,1.496,6.017L93.945,81.9l5.973,5.8.423,4.296-.855,1.072,1.063,4.08h1.496l.216-6.881h1.703l.423,16.977,4.271-3.6571-2.991-17.625h-4.478l-4.91-6.2309,24.108-40.844L96.495,20.191,69.828,25.352,68.765,33.52l5.757,3.439-2.135,5.594-7.669-6.222Z"/></g><path id="uy" class="cls-1" d="M243.866,370.89l-1.773,1.894.735,10.183,5.566,1.615,7.08-7.097-11.608-6.595Z"/><path id="uz" class="cls-1" d="M527.876,186.886l2.662.138v-4.556l-2.522-1.47,4.253-5.358h1.729l1.729,2.015,4.521-1.738-6.25-2.144-.242-1.297-1.485.363-1.461,2.541-6.302-.207-4.625-6.543-8.125.803-3.872-3.838-5.358-.906-3.8909,1.582,2.257,7.502.024,2.524,1.643.035,2.0139-3.839,5.359.068.7961,2.947,11.487,7.625,4.442,1.021,1.2169,2.732Z"/><g id="vc"><path class="cls-1" d="M228.056,254.991l-1.063.77.839,1.539,1.374-.77-1.15-1.539Z"/><path class="cls-1" d="M226.759,257.982l-.994.994.38.612h1.219l.38-1.003-.985-.603Z"/></g><path id="ve" class="cls-1" d="M200.733,261.967l.38,2.239,2.809.892.64-4.124,2.965-3.068,2.965,3.475,6.82,1.8591,5.774-1.211,3.933,4.849,2.965,1.858-3.25,4.9529,1.089,3.752-1.858,2.2991-1.928,1.616-4.175-2.102-.959.969v2.99l3.052,1.452-2.248,2.43-2.248,2.43-2.965-.242-2.982-3.275-.631-12.326-10.183-3.476-1.85-5.42,1.885-2.819Z"/><path id="vn" class="cls-1" d="M628.268,260.696l1.027,1.616.19,1.851,2.705.294,3.286-4.383,3.095-.873,1.643-4.478-.771-7.209-3.1891-4.384-3.362-2.688-4.278-7.349,3.068-5.135-4.393-5.039-3.517-.154-3.164,1.702.942,4.071,4.219.743,1.133,3.138-1.487.969.096.777,9.896,9.6831.388,2.8439-.595,8.9891-6.9319,5.0149Z"/><g id="vu"><path class="cls-1" d="M780.239,340.888l-1.071,1.435.45,1.616.535.362.979-1.262-.893-2.151Z"/><path class="cls-1" d="M780.775,345.288l.087,1.167,1.158.363.805-.449-.805-1.264-1.245.183Z"/><path class="cls-1" d="M782.469,355.712l-.536.812.804.897,1.34-.448-1.6081-1.261Z"/></g><g id="ye"><path class="cls-1" d="M478.665,247.54l1.244,3.7v3.613l2.991,2.714,21.074-8.584.198-2.359-3.381-6.067-8.479,2.706-4.866,4.787-5.6451-3.336-3.1359,2.826Z"/><path class="cls-1" d="M502.548,256.547l1.842,2.059,2.489-1.504.897-.304-1.141-1.105-2.188.647-1.899.207Z"/></g><path id="za" class="cls-1" d="M445.964,346.429l-6.829,6.311-1.625,3.898-5.411-.674-4.503,4.002-2.991-.294.241-5.531-1.062-.372-.743,11.314-5.3081-.052-1.6-1.886-2.344-.024,2.137,6.1291,3.812,3.604-2.7229,3.172,1.764,3.977,4.08,1.5579,3.25-2.767,9.3111.053.6669-.83,4.132-.7281,13.978-13.917-.053-4.382-1.495,1.937h-2.238l-2.723-2.2819,1.383-3.44,2.378-.482-.217-7.071-5.2679-1.223Zm-3.276,15.991,1.306-.052,2.118,2.299-.061,2.662-2.481,1.253-.155.883-3.785.043-1.186-2.853,1.081-2.092,3.163-2.143Z"/><path id="zm" class="cls-1" d="M429.013,330.065l2.739,3.802,4.244.261,1.504.829,4.443.0529,3.829-5.367,10.702-4.789.934-4.219-1.244-6.043-5.584-3.181-3.727.26-1.857,4.114.053,1.876,4.391,2.136.26,4.642-3.775.208-.935-1.564-10.495-4.479-.311,3.44-4.962.155-.209,7.8661Z"/><path id="zw" class="cls-1" d="M437.753,336.635l7.755,8.757,5.946,1.513,3.984-6.248-.312-8.281-6.465-3.3369-2.431,1.098-3.62,5.524-5.014-.053.157,1.0269Z"/><g id="Graphics"><rect class="cls-3" x="584.0643" y="201.709" width="74.607" height="23.097"/><rect class="cls-3" x="38.1805" y="227.086" width="74.607" height="23.097"/><rect class="cls-3" x="208.192" y="201.709" width="99.085" height="23.097"/><rect class="cls-3" x="269.7273" y="146.8605" width="74.607" height="23.097"/><rect class="cls-3" x="431.8975" y="164.5924" width="74.607" height="23.097"/><rect class="cls-3" x="593.8975" y="405.1004" width="74.607" height="23.097"/><line class="cls-4" x1="696.2708" y1="174.1875" x2="651.1208" y2="213.4861"/><path class="cls-5" d="M649.9092,211.9238a1.9739,1.9739,0,1,0,2.7848.193A1.9742,1.9742,0,0,0,649.9092,211.9238Z"/><path class="cls-6" d="M649.7369,211.7258a2.2364,2.2364,0,1,1-.2187,3.1552,2.2391,2.2391,0,0,1,.2187-3.1552Zm2.5918,2.9778a1.7114,1.7114,0,1,0-2.4144-.1673,1.713,1.713,0,0,0,2.4144.1673Z"/><line class="cls-4" x1="204.052" y1="184.0874" x2="216.6166" y2="211.5678"/><path class="cls-5" d="M214.7749,212.2869a1.9739,1.9739,0,1,0,.9744-2.6159A1.9742,1.9742,0,0,0,214.7749,212.2869Z"/><path class="cls-6" d="M214.5362,212.396A2.2363,2.2363,0,1,1,217.5,213.5a2.239,2.239,0,0,1-2.9638-1.104C214.0235,211.2747,215.0489,213.5175,214.5362,212.396Zm3.59-1.6415a1.7114,1.7114,0,1,0-.8448,2.268,1.713,1.713,0,0,0,.8448-2.268Z"/><line class="cls-4" x1="373.25" y1="148.4167" x2="337.2113" y2="158.5895"/><path class="cls-5" d="M336.7827,156.66a1.9739,1.9739,0,1,0,2.4359,1.3634A1.9741,1.9741,0,0,0,336.7827,156.66Z"/><path class="cls-6" d="M336.7114,156.4069a2.2364,2.2364,0,1,1-1.5447,2.76,2.2389,2.2389,0,0,1,1.5447-2.76C337.8981,156.0719,335.5247,156.7418,336.7114,156.4069Zm1.0725,3.7992a1.7114,1.7114,0,1,0-2.112-1.1821,1.7131,1.7131,0,0,0,2.112,1.1821Z"/><line class="cls-4" x1="397.15" y1="154.045" x2="440.065" y2="175.4357"/><path class="cls-5" d="M439.0844,177.1524a1.9739,1.9739,0,1,0-.886-2.6472A1.9741,1.9741,0,0,0,439.0844,177.1524Z"/><path class="cls-6" d="M438.9673,177.3873a2.2364,2.2364,0,1,1,2.9992-1.0039,2.239,2.239,0,0,1-2.9992,1.0039Zm1.7611-3.5332a1.7114,1.7114,0,1,0,.7682,2.2951,1.7132,1.7132,0,0,0-.7682-2.2951Z"/><line class="cls-4" x1="721.0625" y1="400.2656" x2="660.1838" y2="417.0964"/><path class="cls-5" d="M659.7656,415.1641a1.9739,1.9739,0,1,0,2.4284,1.3765A1.9741,1.9741,0,0,0,659.7656,415.1641Z"/><path class="cls-6" d="M659.6956,414.9111a2.2364,2.2364,0,1,1-1.56,2.7514,2.2389,2.2389,0,0,1,1.56-2.7514Zm1.052,3.805a1.7114,1.7114,0,1,0-2.1056-1.1935,1.7129,1.7129,0,0,0,2.1056,1.1935Z"/><line class="cls-4" x1="151.236" y1="196.748" x2="100.1113" y2="237.3139"/><path class="cls-5" d="M98.972,235.6982a1.9739,1.9739,0,1,0,2.7731.3193A1.974,1.974,0,0,0,98.972,235.6982Z"/><path class="cls-6" d="M98.8088,235.4925a2.2364,2.2364,0,1,1-.3618,3.142,2.2391,2.2391,0,0,1,.3618-3.142Zm2.4538,3.0925a1.7113,1.7113,0,1,0-2.4043-.2768,1.7129,1.7129,0,0,0,2.4043.2768Z"/><path class="cls-6" d="M700.6547,165.1932a5.0786,5.0786,0,0,0-7.07,0,4.8173,4.8173,0,0,0-1.465,3.4567,5.264,5.264,0,0,0,1.465,3.6616l3.535,3.6716,3.5349-3.6716a5.2636,5.2636,0,0,0,1.465-3.6616A4.8169,4.8169,0,0,0,700.6547,165.1932Zm-3.5349,5.2344a1.6667,1.6667,0,0,1-.005-3.3333h.005a1.6667,1.6667,0,0,1,.005,3.3333Z"/><path class="cls-6" d="M206.156,174.7838a5.0787,5.0787,0,0,0-7.07,0,4.8173,4.8173,0,0,0-1.465,3.4567,5.264,5.264,0,0,0,1.465,3.6616l3.535,3.6716,3.535-3.6716a5.264,5.264,0,0,0,1.465-3.6616A4.8173,4.8173,0,0,0,206.156,174.7838Zm-3.535,5.2344a1.6667,1.6667,0,0,1-.005-3.3333h.005a1.6667,1.6667,0,0,1,.005,3.3333Z"/><path class="cls-6" d="M378.2145,139.5412a5.0784,5.0784,0,0,0-7.07,0,4.8171,4.8171,0,0,0-1.465,3.4566,5.2637,5.2637,0,0,0,1.465,3.6616l3.535,3.6717,3.535-3.6717a5.2637,5.2637,0,0,0,1.465-3.6616A4.8171,4.8171,0,0,0,378.2145,139.5412Zm-3.535,5.2344a1.6667,1.6667,0,0,1-.005-3.3333h.005a1.6667,1.6667,0,0,1,.005,3.3333Z"/><path class="cls-6" d="M400.2429,145.5622a5.0783,5.0783,0,0,0-7.07,0,4.8167,4.8167,0,0,0-1.465,3.4566,5.2632,5.2632,0,0,0,1.465,3.6616l3.5349,3.6717,3.535-3.6717a5.2637,5.2637,0,0,0,1.465-3.6616A4.8171,4.8171,0,0,0,400.2429,145.5622Zm-3.535,5.2344a1.6667,1.6667,0,0,1-.005-3.3334h.005a1.6667,1.6667,0,0,1,.005,3.3333Z"/><path class="cls-6" d="M725.4373,391.8773a5.0783,5.0783,0,0,0-7.07,0,4.8167,4.8167,0,0,0-1.465,3.4566,5.2637,5.2637,0,0,0,1.465,3.6617l3.5349,3.6716,3.535-3.6716a5.2641,5.2641,0,0,0,1.465-3.6617A4.8171,4.8171,0,0,0,725.4373,391.8773Zm-3.535,5.2344a1.6667,1.6667,0,0,1-.005-3.3333h.005a1.6667,1.6667,0,0,1,.005,3.3333Z"/><path class="cls-6" d="M154.771,189.1852a5.0787,5.0787,0,0,0-7.07,0,4.8171,4.8171,0,0,0-1.465,3.4566,5.2641,5.2641,0,0,0,1.465,3.6617l3.535,3.6716,3.535-3.6716a5.2641,5.2641,0,0,0,1.465-3.6617A4.8171,4.8171,0,0,0,154.771,189.1852Zm-3.535,5.2344a1.6667,1.6667,0,0,1-.005-3.3333h.005a1.6667,1.6667,0,0,1,.005,3.3333Z"/></g><path d="M229.9331,216.5791l-1.4585-6.2837h1.1885l.6211,3.0156.3872,1.9268h.0268l.45-1.9268.72-3.0156h1.3144l.72,3.0156.4414,1.9268h.0269l.396-1.9268.6391-3.0156h1.1343l-1.5034,6.2837h-1.3413l-.8013-3.3218-.3872-1.6567H232.49l-.4052,1.6567-.8013,3.3218Z"/><path d="M236.8989,215.3008c0-.9634.73-1.44,2.0078-1.44h.8013v-.3423c0-.522-.2612-.8282-.8735-.8282a1.2233,1.2233,0,0,0-1.0713.5943l-.6841-.6123a1.9791,1.9791,0,0,1,1.8364-.9c1.27,0,1.9449.6035,1.9449,1.6748v2.2143h.4677v.9185h-.6391a.8547.8547,0,0,1-.8731-.81h-.0542a1.27,1.27,0,0,1-1.3681.918A1.3319,1.3319,0,0,1,236.8989,215.3008Zm2.8091-.126v-.6211H238.97c-.6035,0-.9.207-.9.5762v.1528c0,.3779.2613.5674.7115.5674C239.2939,215.85,239.708,215.6157,239.708,215.1748Z"/><path d="M241.8579,215.8228l.7022-.6841a1.6512,1.6512,0,0,0,1.2871.6391c.5493,0,.7832-.207.7832-.54,0-.27-.1616-.4414-.5762-.4951l-.4678-.063c-1.0083-.126-1.5664-.5674-1.5664-1.4224,0-.91.711-1.4858,1.7822-1.4858a2.2386,2.2386,0,0,1,1.8365.7383l-.6748.6753a1.5532,1.5532,0,0,0-1.1255-.5039c-.4951,0-.7114.1977-.7114.4858,0,.3149.1713.4595.6123.5312l.477.063c1.0264.1441,1.5215.6031,1.5215,1.3863,0,.91-.7651,1.54-1.9356,1.54A2.3856,2.3856,0,0,1,241.8579,215.8228Z"/><path d="M246.7534,209.917h1.1524v2.7461h.0454a1.2958,1.2958,0,0,1,1.3139-.8916c.9634,0,1.5035.6665,1.5035,1.8369v2.9707h-1.1524v-2.854c0-.666-.2246-1.0083-.7739-1.0083-.4771,0-.9365.2524-.9365.7563v3.106h-1.1524Z"/><path d="M251.9468,210.6191v-.18c0-.3335.1977-.5762.6748-.5762.4682,0,.6753.2427.6753.5762v.18c0,.3335-.2071.5762-.6753.5762C252.1445,211.1953,251.9468,210.9526,251.9468,210.6191Zm.0986,1.2608h1.1524v4.6992h-1.1524Z"/><path d="M254.5293,216.5791V211.88h1.1523v.7832h.0455a1.2958,1.2958,0,0,1,1.3139-.8916c.9634,0,1.5039.6665,1.5039,1.8369v2.9707h-1.1523v-2.854c0-.666-.2251-1.0083-.7744-1.0083-.4771,0-.9366.2524-.9366.7563v3.106Z"/><path d="M261.5952,218.4878c-1.5845,0-2.188-.4141-2.188-1.1074a.8662.8662,0,0,1,.8374-.9v-.0991a.7716.7716,0,0,1-.603-.7832c0-.4859.4141-.729.8643-.8282v-.0361a1.4173,1.4173,0,0,1-.8555-1.3682c0-.9546.6753-1.5937,1.9448-1.5937a2.6061,2.6061,0,0,1,.8189.1172v-.1529a.6008.6008,0,0,1,.6665-.6845h.729v.8823h-.9991v.126a1.4071,1.4071,0,0,1,.7291,1.3056c0,.9453-.6661,1.5752-1.9444,1.5752a2.8737,2.8737,0,0,1-.72-.081.482.482,0,0,0-.3335.4233c0,.2339.1982.3511.6123.3511h1.26c1.1523,0,1.6474.4951,1.6474,1.3413C264.0615,217.9565,263.3955,218.4878,261.5952,218.4878Zm.585-1.8545h-1.6026a.5771.5771,0,0,0-.2431.4858c0,.36.27.5762.99.5762h.5762c.7475,0,1.0805-.189,1.0805-.5849C262.9814,216.813,262.7651,216.6333,262.18,216.6333Zm.2612-3.1963v-.1528c0-.4771-.2974-.72-.8462-.72s-.8467.2431-.8467.72v.1528c0,.4683.2974.72.8467.72S262.4414,213.9053,262.4414,213.437Z"/><path d="M266.1943,216.5791a1.0874,1.0874,0,0,1-1.2153-1.1973v-2.5927h-.6934V211.88h.36c.3423,0,.45-.1621.45-.4863v-.8013h1.0356V211.88h.9629v.9092h-.9629v2.8715h.8912v.9185Z"/><path d="M267.7412,214.22a2.1994,2.1994,0,1,1,2.1787,2.4668A2.1612,2.1612,0,0,1,267.7412,214.22Zm3.16.4414v-.8735c0-.7022-.3785-1.0894-.9815-1.0894-.5942,0-.9721.3872-.9721,1.0894v.8735c0,.711.3779,1.0982.9721,1.0982C270.5229,215.76,270.9014,215.3726,270.9014,214.6616Z"/><path d="M273.123,216.5791V211.88h1.1524v.7832h.0454a1.296,1.296,0,0,1,1.314-.8916c.9633,0,1.5039.6665,1.5039,1.8369v2.9707h-1.1524v-2.854c0-.666-.2251-1.0083-.7744-1.0083-.477,0-.9365.2524-.9365.7563v3.106Z"/><path d="M280.6113,210.2954h2.2866c1.6387,0,2.71,1.0532,2.71,3.1416s-1.0713,3.1421-2.71,3.1421h-2.2866Zm2.2866,5.2305c.8824,0,1.4493-.5225,1.4493-1.5938v-.99c0-1.0713-.5669-1.5933-1.4493-1.5933H281.8v4.1773Z"/><path d="M286.5425,213.4819c0-2.1152,1.0532-3.2949,2.7095-3.2949a2.292,2.292,0,0,1,2.2959,1.45l-1.0171.54a1.2439,1.2439,0,0,0-1.2788-.9361c-.8819,0-1.4493.6392-1.4493,1.71v.99c0,1.08.5674,1.6924,1.4493,1.6924a1.396,1.396,0,0,0,1.3593-1l.9634.5674a2.4136,2.4136,0,0,1-2.3227,1.4853C287.5957,216.687,286.5425,215.5977,286.5425,213.4819Z"/><path d="M281.6841,161.731v-6.2837h1.1885v5.23h2.4755v1.0533Z"/><path d="M285.896,159.3721a2.1994,2.1994,0,1,1,2.1787,2.4668A2.1613,2.1613,0,0,1,285.896,159.3721Zm3.16.4414V158.94c0-.7021-.3785-1.0893-.9815-1.0893-.5942,0-.9722.3872-.9722,1.0893v.8736c0,.7109.378,1.0981.9722,1.0981C288.6777,160.9116,289.0562,160.5244,289.0562,159.8135Z"/><path d="M291.2778,161.731v-4.6993H292.43v.7832h.0454a1.2959,1.2959,0,0,1,1.314-.8916c.9633,0,1.5034.6665,1.5034,1.837v2.9707h-1.1524v-2.854c0-.6661-.2246-1.0083-.7739-1.0083-.4771,0-.9365.2524-.9365.7563v3.106Z"/><path d="M299.4868,160.9478h-.0449a1.32,1.32,0,0,1-1.2964.8911c-1.1792,0-1.8364-.8911-1.8364-2.4668,0-1.5664.6572-2.4488,1.8364-2.4488a1.2941,1.2941,0,0,1,1.2964.8824h.0449v-2.7369h1.1524v6.6622h-1.1524Zm0-.8282V158.625c0-.459-.4228-.7563-.9722-.7563a1.001,1.001,0,0,0-.9995,1.1074v.81a.9934.9934,0,0,0,.9995,1.0987C299.064,160.8848,299.4868,160.6055,299.4868,160.12Z"/><path d="M301.6548,159.3721a2.1994,2.1994,0,1,1,2.1787,2.4668A2.1613,2.1613,0,0,1,301.6548,159.3721Zm3.16.4414V158.94c0-.7021-.3784-1.0893-.9814-1.0893-.5942,0-.9722.3872-.9722,1.0893v.8736c0,.7109.378,1.0981.9722,1.0981C304.4365,160.9116,304.8149,160.5244,304.8149,159.8135Z"/><path d="M307.0366,161.731v-4.6993h1.1524v.7832h.0454a1.2958,1.2958,0,0,1,1.3139-.8916c.9634,0,1.5035.6665,1.5035,1.837v2.9707h-1.1524v-2.854c0-.6661-.2246-1.0083-.7739-1.0083-.4771,0-.9365.2524-.9365.7563v3.106Z"/><path d="M607.0586,419.0342l.8008-.7744a2.0491,2.0491,0,0,0,1.6113.7744c.73,0,1.1074-.3516,1.1074-.8819,0-.4238-.1972-.6845-.8545-.8017l-.5947-.09c-1.2695-.1982-1.8818-.8017-1.8818-1.8281,0-1.125.874-1.8545,2.2783-1.8545a2.64,2.64,0,0,1,2.1514.9278l-.8106.7656a1.6708,1.6708,0,0,0-1.4043-.6485c-.6748,0-1.0264.27-1.0264.7383,0,.4766.2706.6748.8731.7832l.5859.1075c1.27.2255,1.8633.7929,1.8633,1.8281,0,1.1885-.8555,1.998-2.3584,1.998A2.9168,2.9168,0,0,1,607.0586,419.0342Z"/><path d="M615.7529,415.2715h1.0811l-1.8906,5.5361a1.2149,1.2149,0,0,1-1.3418.9629h-.6934v-.918h.8467l.2158-.6572-1.6836-4.9238h1.1436l.8193,2.4844.3057,1.1884h.0547l.3242-1.1884Z"/><path d="M620.4424,419.1875h-.0449a1.32,1.32,0,0,1-1.2969.8906c-1.1787,0-1.836-.8906-1.836-2.4668,0-1.5664.6573-2.4482,1.836-2.4482a1.2944,1.2944,0,0,1,1.2969.8818h.0449v-2.7363h1.1523v6.6621h-1.1523Zm0-.8281v-1.4951c0-.459-.4229-.7559-.9727-.7559a1.0009,1.0009,0,0,0-.999,1.1074v.81a.9929.9929,0,0,0,.999,1.0986C620.02,419.124,620.4424,418.8447,620.4424,418.3594Z"/><path d="M622.9248,419.9707v-4.6992h1.1523v.7832h.0459a1.2948,1.2948,0,0,1,1.3135-.8916c.9639,0,1.5039.666,1.5039,1.8369v2.9707h-1.1523v-2.8545c0-.666-.2246-1.0078-.7744-1.0078-.4766,0-.9366.252-.9366.7559v3.1064Z"/><path d="M627.9023,417.6113a2.1511,2.1511,0,0,1,2.1788-2.4482,2.1073,2.1073,0,0,1,2.1425,2.3672v.3789H629.1v.1162a1.0437,1.0437,0,0,0,1.1436,1.1348,1.43,1.43,0,0,0,1.1972-.6387l.6211.6924a2.3263,2.3263,0,0,1-1.9443.8642A2.1786,2.1786,0,0,1,627.9023,417.6113Zm1.1973-.4853v.0713h1.9268v-.0811c0-.6474-.333-1.0889-.9278-1.0889A.9979.9979,0,0,0,629.1,417.126Z"/><path d="M636.0664,415.2715h1.08l-1.8906,5.5361a1.2139,1.2139,0,0,1-1.3409.9629h-.6933v-.918h.8457l.2168-.6572-1.6836-4.9238h1.1435l.8184,2.4844.3066,1.1884h.0538l.3242-1.1884Z"/><path d="M453.4453,179.4629v-6.2837h4.042v1.0532h-2.8535V175.79h2.4844v1.0537h-2.4844v2.62Z"/><path d="M458.3232,179.4629v-4.6992h1.1524v.9721h.0459a1.2043,1.2043,0,0,1,1.2422-.9721h.2519v1.0893h-.36c-.7744,0-1.18.2158-1.18.729v2.8809Z"/><path d="M461.4287,178.1846c0-.9634.73-1.44,2.0078-1.44h.8008v-.3422c0-.522-.2607-.8282-.873-.8282a1.2226,1.2226,0,0,0-1.0713.5943l-.6846-.6123a1.9805,1.9805,0,0,1,1.8369-.9c1.27,0,1.9443.6035,1.9443,1.6748v2.2143h.4678v.9185h-.6386a.8544.8544,0,0,1-.8731-.81h-.0547a1.27,1.27,0,0,1-1.3681.918A1.3317,1.3317,0,0,1,461.4287,178.1846Zm2.8086-.126v-.6211h-.7383c-.6025,0-.9.207-.9.5762v.1528c0,.3779.2618.5674.7119.5674C463.8232,178.7339,464.2373,178.5,464.2373,178.0586Z"/><path d="M466.792,179.4629v-4.6992h1.1523v.7832h.0459a1.2954,1.2954,0,0,1,1.3135-.8916c.9639,0,1.5039.6665,1.5039,1.8369v2.9707h-1.1523v-2.854c0-.666-.2246-1.0083-.7744-1.0083-.4766,0-.9366.2524-.9366.7563v3.106Z"/><path d="M472.084,172.8008h1.1523v4.0151h.0459l.6211-.8462,1.0528-1.206h1.3056l-1.62,1.8183,1.791,2.8809h-1.3681l-1.2061-2.1065-.6221.6748v1.4317H472.084Z"/><path d="M477.377,175.6729h-.6934v-.9092h.6934v-.6753a1.1618,1.1618,0,0,1,1.2959-1.2876h.8193v.9184h-.9629v1.0445h.9629v.9092h-.9629v3.79H477.377Z"/><path d="M483.1016,178.68h-.045a1.2756,1.2756,0,0,1-1.3144.8911c-.9639,0-1.5039-.666-1.5039-1.8364v-2.9707h1.1523v2.8535c0,.6484.2432,1,.792,1,.46,0,.919-.2432.919-.7471v-3.1059h1.1523v4.6992h-1.1523Z"/><path d="M485.584,179.4629v-4.6992h1.1523v.9721h.0459a1.2043,1.2043,0,0,1,1.2422-.9721h.252v1.0893h-.36c-.7744,0-1.18.2158-1.18.729v2.8809Z"/><path d="M490.625,179.4629a1.0875,1.0875,0,0,1-1.2158-1.1973v-2.5927h-.6934v-.9092h.36c.3418,0,.45-.1621.45-.4864v-.8012h1.0351v1.2876h.9629v.9092h-.9629v2.8715h.8916v.9185Z"/><path d="M49.7285,235.6729h2.2866c1.6387,0,2.71,1.0527,2.71,3.1416s-1.0713,3.1416-2.71,3.1416H49.7285Zm2.2866,5.23c.8824,0,1.4493-.5224,1.4493-1.5937v-.99c0-1.0713-.5669-1.5937-1.4493-1.5937H50.917v4.1777Z"/><path d="M55.5244,240.6777c0-.9629.73-1.44,2.0078-1.44h.8013v-.3418c0-.5225-.2612-.8281-.8735-.8281a1.2228,1.2228,0,0,0-1.0713.5937l-.6841-.6123a1.9793,1.9793,0,0,1,1.8364-.9c1.27,0,1.9448.6036,1.9448,1.6748v2.2149h.4678v.918h-.6391a.8547.8547,0,0,1-.8731-.81h-.0542a1.2707,1.2707,0,0,1-1.3682.918A1.332,1.332,0,0,1,55.5244,240.6777Zm2.8091-.1259v-.6211h-.7383c-.6035,0-.9.207-.9.5761v.1534c0,.3779.2613.5673.7114.5673C57.9194,241.2275,58.3335,240.9932,58.3335,240.5518Z"/><path d="M62.0405,241.9561a1.0189,1.0189,0,0,1-1.1523-1.1338v-5.5284h1.1523v5.7442h.6216v.918Z"/><path d="M64.6235,241.9561a1.0189,1.0189,0,0,1-1.1523-1.1338v-5.5284h1.1523v5.7442h.6216v.918Z"/><path d="M65.7842,240.6777c0-.9629.73-1.44,2.0078-1.44h.8013v-.3418c0-.5225-.2613-.8281-.8736-.8281a1.2229,1.2229,0,0,0-1.0713.5937l-.684-.6123a1.9792,1.9792,0,0,1,1.8364-.9c1.27,0,1.9448.6036,1.9448,1.6748v2.2149h.4678v.918h-.6392a.8547.8547,0,0,1-.873-.81H68.647a1.2708,1.2708,0,0,1-1.3682.918A1.332,1.332,0,0,1,65.7842,240.6777Zm2.8091-.1259v-.6211H67.855c-.6035,0-.9.207-.9.5761v.1534c0,.3779.2612.5673.7114.5673C68.1792,241.2275,68.5933,240.9932,68.5933,240.5518Z"/><path d="M70.7432,241.2l.7021-.6846a1.65,1.65,0,0,0,1.2871.64c.5493,0,.7832-.2071.7832-.54,0-.27-.1616-.4414-.5761-.4951l-.4678-.0635c-1.0083-.1259-1.5664-.5673-1.5664-1.4218,0-.91.7109-1.4864,1.7822-1.4864a2.24,2.24,0,0,1,1.8364.7383l-.6748.6758a1.5532,1.5532,0,0,0-1.1255-.5039c-.4951,0-.7114.1973-.7114.4853,0,.3155.1714.46.6123.5313l.4771.0635c1.0263.1435,1.5214.6025,1.5214,1.3857,0,.91-.7651,1.54-1.9355,1.54A2.3856,2.3856,0,0,1,70.7432,241.2Z"/><path d="M598.0791,211.3486v5.2305h-1.1885v-5.2305h-1.7822v-1.0532h4.7529v1.0532Z"/><path d="M599.86,214.22a2.1994,2.1994,0,1,1,2.1787,2.4668A2.1609,2.1609,0,0,1,599.86,214.22Zm3.16.4414v-.8735c0-.7022-.3789-1.0894-.9814-1.0894-.5948,0-.9727.3872-.9727,1.0894v.8735c0,.711.3779,1.0982.9727,1.0982C602.6416,215.76,603.0205,215.3726,603.0205,214.6616Z"/><path d="M605.2422,209.917h1.1523v4.0151h.045l.621-.8462,1.0538-1.206h1.3046l-1.62,1.8183,1.792,2.8809h-1.3691l-1.2061-2.1064-.6211.6748v1.4316h-1.1523Z"/><path d="M613.1455,211.88h1.08l-1.8906,5.5366a1.2139,1.2139,0,0,1-1.3409.9629h-.6933v-.918h.8457l.2168-.6572L609.68,211.88h1.1435l.8184,2.4844.3066,1.1884h.0538l.3242-1.1884Z"/><path d="M614.6025,214.22a2.1995,2.1995,0,1,1,2.1787,2.4668A2.161,2.161,0,0,1,614.6025,214.22Zm3.16.4414v-.8735c0-.7022-.3789-1.0894-.9815-1.0894-.5947,0-.9726.3872-.9726,1.0894v.8735c0,.711.3779,1.0982.9726,1.0982C617.3838,215.76,617.7627,215.3726,617.7627,214.6616Z"/></svg>