<svg id="world-map" xmlns="http://www.w3.org/2000/svg" viewBox="0 0 784.08 458.63"><defs><style>.cls-1{fill:#ede9e7;}.cls-2{fill:#b9b4b4;}.cls-3{fill:#edf5ff;stroke:#000f5e;stroke-dasharray:1 1;}.cls-3,.cls-4{stroke-miterlimit:10;stroke-width:0.75px;}.cls-4{fill:none;stroke:#6e177d;}.cls-5{fill:#fff;}.cls-6{fill:#6e177d;}.cls-7{font-size:9px;font-family:IBMPlexSans-SemiBold, IBM Plex Sans;font-weight:600;}.cls-8{letter-spacing:-0.02em;}.cls-9{letter-spacing:0em;}.cls-10{letter-spacing:-0.01em;}.cls-11{letter-spacing:-0.01em;}.cls-12{letter-spacing:-0.01em;}.cls-13{letter-spacing:-0.03em;}.cls-14{letter-spacing:-0.01em;}.cls-15{letter-spacing:0em;}.cls-16{letter-spacing:-0.06em;}.cls-17{letter-spacing:0em;}.cls-18{letter-spacing:0em;}.cls-19{letter-spacing:0em;}.cls-20{letter-spacing:-0.01em;}</style></defs><path id="_somaliland" data-name=" somaliland" class="cls-1" d="M481.91,261.21l3.52,2.4,1.05-.05,8.76-3,1,3.21-.7,2.7-1.89,1.5-4.73-.3-6.77-4.16-.23-2.29Z"/><path id="ae" class="cls-1" d="M497.7,226.54l.75,3,8.52.75.6-6.17,1.64-.89.45-2.26-2.69.75-3,4.52-6.28.29Z"/><path id="af" class="cls-1" d="M515.08,193.79l1.38,10.77,3.42.76.32,1.93-2.46,2.05,4.58,3.69,8.88-3.2.71-3.78,5.59-3.49,2.15-8.09,1.6-1.73-1.66-2.88,5.41-3.35-.69-1-2.5.16-.22,2.3-3.36,0-.06-3.06-1.08-1.29-1.81,1.65.05,1.51-2.74,1-5.06-.32L521,194.33l-5.88-.54Z"/><path id="al" class="cls-1" d="M419.91,178.85v4l1.14,2.15.82-.09,1.41-2.57-.82-1.15-.32-2.84-1.09-1-1.14,1.53Z"/><path id="am" class="cls-1" d="M476.7,179l4.15,5.41-1.22,1.43-2.93-.51L473.05,182l.2-2.15,3.45-.91Z"/><g id="ao"><path class="cls-1" d="M406.6,305.87l2.95,11-.07,3.48L405.17,325l-.65,7.53,16.6.15,5.39,1.95L431,334l-2.59-3.25V321.5l5.1-.22v-3.62l-4.14-.17-.83-8.58-1.75,0-.94-.85-1,.05-1.36,2.65h-5.26L417,309.56l.36-1.73-1.43-2.11-9.28.15Z"/><path class="cls-1" d="M404.81,302.86l1.5,2,1.95-1.85-.57-1.91-.49,0-2.39,1.83Z"/></g><g id="ar"><path class="cls-1" d="M248.28,359l1.68,1.57-6.37,9.47-2.24,2.48.78,10.81,4.91,6-4.13,7.2-3.13,1.35H236.2l1,5.63-5.6,1.92,1.34,4.73-3.35,10.7,4.14,3.38-2.24,5.52-3.8,6,2,4.17-4.92.78-4-4.95-.68-15.43-6.26-26.21,1.9-9.16-4-11.72,2.68-15.2,2.46-2.93-.6-2.22L219.4,350l7.06.48,3.94,4.21,4.55.08,4.67,2.85-1.37,3.22.32,3.25,6.62-.31,3.09-4.73Z"/><path class="cls-1" d="M234,446l.22,4.95,3.81-.33,3.24-2.15-5.48-1.12L234,446Z"/></g><path id="at" class="cls-1" d="M399.69,161.87l-.56,1.17.48.82,2-.41h1.71L405.2,165l3.95-.72,2.9-1.72.74-1.17-.11-1.51-2.61-2-3.5,0-.29,2-3.69,1.8-2.9.1Z"/><g id="au"><path class="cls-2" d="M642.19,367.48l-.3,21.93-3.37,2.48-.3,2.16,4.6,3.08L654.17,395H660l2.15-3.09L675,389.41l9.19,2.78-.61,3.71,1.23,3.71,7-1.24.31,1.85-4.6,3.4,1.53,1.23,3.37-1.23-.92,10.2,6.44,4.94,3.68-1.24,1.84,1.86,10.74-1.55,10.12-16.38,3.68-.93,7.36-13.59,1.84-11.74-4.6-5.87,1.84-1.24-3.68-11.43-4-2.79.61-15.45-3.68-2.78-.92-8.65H721l-6.14,20.39-3.37.32L703.84,340l4.3-11.44-8-1.55-8.9,2.48-2.45,7.1-4,.92-.3-4.94-16.25,9.89.3,3.71-2.45,3.39H660l-13.19,5.56-4.61,12.4Z"/><path class="cls-2" d="M698,426.5l-1.53,6.18.3,4.32,4.6-.31,5.21-8L698,426.5Z"/></g><path id="az" class="cls-1" d="M478.16,177.08l-.87,1.49,4.07,5.34,1.42-.46,2.33,2.45,1-4.29,2.53.41-.11-1.23-4.16-3.65-.8,2.15-5.43-2.21Z"/><path id="ba" class="cls-1" d="M411.94,169.49l-.32.53,5.8,6,2.13-3.13-.08-1.23-1.85-2.26-5.68.11Z"/><path id="bd" class="cls-1" d="M585.49,216.32l-1.13,2.05,2.93,5.58.09,4.36.53,1.16,3.45.06,2-1.87,1.41.85.29,2.66,1.13-.71.07-3.39-1-.11-.6-2.88-2.4-.09-.59-1.6,1.46-2,0-1H588.9l-3.41-3.14Z"/><path id="be" class="cls-1" d="M383.25,150.11l-.55,1.39,5.95,3.92.4.05.37-1.09.84-.59-1.34-1.5H388l-1.26-1.43-3.5-.75Z"/><path id="bf" class="cls-1" d="M373.73,251.9l3.14-.25L382,259l-4.79,3.61-3.46-.89-4.66.06-.76,2.73-3.9.19-1.07-1.46,1.38-4.44,9-6.85Z"/><path id="bg" class="cls-1" d="M426.33,172.48l.13,4.3,1.46,3,5.45.1,2.46-1.74,2.41-1-.59-2.75.54-1.47-1.22-.64-1.69.14L434,173.82l-5.55,0-2.08-1.38Z"/><path id="bi" class="cls-1" d="M447.74,296.79l3.69-.07-1,3.23-.94.81h-1.14l-.81-2.19.16-1.78Z"/><path id="bj" class="cls-1" d="M380.74,273.7h1.84l.1-5.21,2.32-3.36-.11-5.85-2.1,0-3.6,2.81,1.5,2.87.05,8.79Z"/><path id="bn" class="cls-1" d="M658.27,273.49l-2.49,3,2,.64,1.15-1.61-.7-2.05Z"/><path id="bo" class="cls-1" d="M207.86,319.77l7.12-3.1,2.35.22,1.56,6.54,10.84,3.6,1.79,5.52,4.47.57,1.9,4.72-1.34,4.28-7.27.56-2.68,6.88-5.7-.12-1.79-.33-3.29,3.19-1.63-.15-5.59-13,1.55-2.31.54-9.17-1.38-5.45-1.45-2.49Z"/><path id="br" class="cls-2" d="M255.86,376.87l5.41-10.39.19-8.73,10.08-6.5h5.65l4.43-7.51.81-14.42-1.82-3.85,10.69-9.75.4-10.77-14.51-7.1-17.53-5.48-8.27-.81,2.22-4.67-.6-7.11-1.81-.59-2.67,5.31-1.4,1.75-3.59-1.59-12.1,4.26-4-5.07.64-5.3-3.8,3.87-4.2-2.26-.43.59v1.84l3.63,2-5.44,5.73-3.43,0-3.48-3.53-3.93.12-.49,4.2,2.26,2.74-2.66,8.53-3.11.24-5,3.13-1.21,6.15,4.3,4.6.79-.89,3-.81,2.58,4.34,7.37-3.17,2.86.17,2,7,10.52,3.34,1.82,5.56,4.48.54,2.13,5.32-1.44,4.72,1.88,2.48-.27,3.68,5.05-.48,4.62,5.85-.36,4.1,2.74,2.32-6.57,9.95,11.56,6.47Z"/><g id="bs"><path class="cls-1" d="M191.35,221.52l-1.09-.34-.08,2.11,1.34,1.34.92-1.34-1.09-1.77Z"/><path class="cls-1" d="M193.52,224.81l-1.5.83,1.42,2,.75-1-.67-1.84Z"/><path class="cls-1" d="M198.37,226.32l-1.59-.09.17,1,1.16,1.69,1-1.1-.75-1.51Z"/><path class="cls-1" d="M197.62,224.3,195,223.21l-.5-2.61,1-.43,1,2,1,.76.09,1.34Z"/><path class="cls-1" d="M195.11,219l-1.34-.34-.25-1.69-1.41-.5.91-.92,1.67.59,1.25.76-.83,2.1Z"/></g><path id="bt" class="cls-1" d="M585.34,212l1.34,1.83,4.53,0-.46-2.51-5.41.64Z"/><path id="bw" class="cls-1" d="M423.79,353l1.86.57-.26,5.31,1.91.26,4.39-4,5.28.57,1.39-3.54,6.68-6.1-8-9.22-.1-1.51-.88-.26-2.43,2.24-6.31.15-.89,7.87-2.48.57-.14,7.05Z"/><path id="by" class="cls-1" d="M425.65,141.27l1.3,2.13-.52,1.71.08,1.35.48,1.61,2.68-1.52,3.33.09,2.33,1h5.93l1.73-4.14,1-1.57v-1l-3.72-5.23L437,134.31l-2.68-.3-2.33.74.08,2.35-3.24,4.1-3.2.07Z"/><path id="bz" class="cls-1" d="M161.06,241.64l-.05,3.15h.73l2.47-4.61h-1.68l-1.47,1.46Z"/><g id="ca"><path class="cls-2" d="M121,39.59l1.72,2.6.86,3.48,4.31,1.08,3-3.25,2.58,1.3,7.32.65L146,43.28l.86,7.16h3v-3l3,.22,7.54,8.9,5,3-2.58,4.12,1.08,1.08,9.67,2,.22,4.34,2.58.43L177,65l4.09-1.08,3,4.56,6.46,3,3.24.65,2.15-2.6.21-4.13L200,63l1.28,3.47-3.45,6.08.44,3,1.93-3,3.88-3.48.21-4.55-2.15-3.48.65-2.82,5.17-2.6,2.37,1.74.43,15.19,3.66-3.25,2.15,1.3-3,5.21,3.87.86L223.06,68l4.73,5-1.93,8.89-4.74,2.61-4.52-2.17-8.18,1.73.87,2.82-2.16,3.48-6.67,1.52-7.54,5.86-6.67,8.89-.86,2.82,4.52,1.74,1.72,4.34,6.24,6.29,9.9,4.34-2.15,10-.21,2.82,2.58,1.74,3.45-4.56.43-8.68,5.39-.21,2.58-5,.43-7.59,6.89-13.45,8.61,3,4.52,6.3-1.93,6.29,3.45,2,8.39-5.64,2.37,15.4,7.75,9.33.22,4.77-8.61,2.17-4.09,4.34-8.61-2-4.3-.21-7.54,5.86,4.52-1.08,5.6-1.08,1.08,1.3-1.5,4.77.21,4.34,2.59,1.74,2.58-.65,1.3-2h1.72l-2.8,5.2-5.39.22-2.37,3.47h-3l-.87-2.6,4.31-4.34-5.17,1.74-.23-7.37-1.49-.87-4.52,2-.43,3.69H213.18l-8.83,6.08-11.85,3.9-1.28-1.73,6-8.91-3.39-3.26-2.15-4.13-4.38-3.34-4.7-.39-8.43-5.91L113,133.6l-1-4.14-5.6-5.21v-4.34l.87-3.9-.44-2.17-2.15-2.17-.43-3.48,5.6-3.9-3.45-18.66-4.73-.21-4.31-5.65L121,39.59Z"/><path class="cls-2" d="M99.92,108.53l-1.47,2.81.51,2,1,.6-.23.81-1,.29.3,3,1.1,1.11.88-1-1.1-2.88.65-2.3,1.62-2.15-1.17-2-1-.3Z"/><path class="cls-2" d="M104.78,125.42l-1.33.52,2.43,2.81.59,3.34,2.43,2.59,2.06-.37v-3.4l-2.5-1.56-3.68-3.93Z"/><path class="cls-2" d="M237.38,54.24l-1.53,1.55,1.34,2.13,6.33.76-4-4.25-2.11-.19Z"/><path class="cls-2" d="M160.34,28.55l.19,3.48-6.9,7.15L155.36,45l5-1.35,2.88-4.25,7.27-2.71,5.94-.39-4.6-5L169.53,33l-1.72-.58-1-2.13-2.11-2.13-4.4.4Z"/><path class="cls-2" d="M169.35,18.32,167.82,21l7.47,2.71L178,19.67l1.15,2.71H181l3.64-4.05-4.41-1.16-1.73-1.35-2.3,2.32-6.89.18Z"/><path class="cls-2" d="M182.38,23.73l-5.94,2.5v1.93l7.67,2.9L182.38,33l1.15,2.5,4.79-2.12h4l1.92,3.08,3.26-3.28-.77-3.1-2.68,1-.38-3.86L195,24.86H193.7l-2.11,1.35-1,.77.58,2.71-1.53,1.16-2.3-.19-.58-3.48-4.42-3.45Z"/><path class="cls-2" d="M190.24,17.74l-.58,1.93,3.64,1.73L196,19.86l-.19-1.16-5.55-1Z"/><path class="cls-2" d="M193.11,14.45l-2.68,1,.19,1.35,5.94-.39L196.37,15l-3.26-.58Z"/><path class="cls-2" d="M206,17.74l-.38,1.35-1,1.34v1.93l3.64-.58,3.83,3.29h1.34V21.78l-3.83-4.25-3.64.21Z"/><path class="cls-2" d="M215.73,21.6l1.53,1.74-1.34,2.31,1,2.51,4.22-2.32V24.11l-2.49-2.9-2.88.39Z"/><path class="cls-2" d="M221.29,17.16l.19,3.08h5.18L228,21.4l-.19,1.35-4.6.58,3.26,4.44,4.4.77,6.13-2.7-8.81-13.33-2.68,1.74.19,2.31-3.07-1.16-1.34,1.76Z"/><path class="cls-2" d="M176.63,39l-7.28,1.93-4.21,3.68.38,4L173.18,51l-1.73,3.86-5.55-3.48-1.53,2.9L168,56.75l-.19,4,5.56,1.55,6.71-.39,1.15-2.13,5,5.6,3.45-1.15.58-3.87,2.49,1.74.38-3.86L190,56.36l.19-12.16-2.68-2.13-2.87,3.86-8.05-7Z"/><path class="cls-2" d="M200,47.48l-2.48-1.16-1.34,1.74,2.68,4.25.19,4.06,5.74-3.48v-5l2.11-2.13L204.8,44.2h-3.44L200,47.48Z"/><path class="cls-2" d="M212.28,45.74l-4,3.29,1,4h2.49L212.85,51l1.73,1.73,1.73-.19,4.6-3.86-8.63-2.9Z"/><path class="cls-2" d="M211.89,39.36l-1,1.93,4.22,1.55,1.15-1.74-4.41-1.74Z"/><path class="cls-2" d="M209.4,32l-4.22.58-2.49,2.31,4.6.19L206,38.59l1,1.54,1.34-.19,3.26-5.21L209.4,32Z"/><path class="cls-2" d="M216.69,30.68l-2.3.77.38,3.08L218.6,37l.19,1.93-1.15,1.16.58,3.86L233,48.81l4,1.35,4-3.47-4.79-3.87L231.83,44l-6.12-.58-2.3-2.31-.58-6.37L219,32.79l-2.31-2.11Z"/><path class="cls-2" d="M228.76,50.77l-4.22-.39-5,1.92L216.88,56l.77,10,8.24.39,7.85,3.87,5.56,6.37,4.22-.19-1.15,6-3.83,6.37-4.22,1.92-3.07-.57-1.53-1.35-2.3,3.08,1,3.09,3.26.19,4-1.93,3.45,8.89,8.63,5.6,5.93-7.53-5-8.11,2.88-3.28,4,6.76,7.28-6.37-1.34-2.9-5,1.55-3.45-9.47,3.26-5.4-6.52-7-3.64,2.51L242.77,61l-7.27,1-1.92-9.08L227.64,57l-.58,5H223.8l.38-4.45,4.58-6.75Z"/><path class="cls-2" d="M231.25,32.42v1.73l-4.21,1,1.14,1.93L233,39l5.37.58,3.83,2.7L246,40.13l-2.68-2.7h3.45l2.11-2.32,5.18-.77V33.18l-2.88-1.92.38-2.13,8.05,1.35,11.88-4.64-4.41-1.34L268.23,23h9.2L279,21.4l-18.59-6.57L256,13.29l-4.79,3.47-5.37-4.44-2.88-.19-.58,3.67-3.63-3.28-4.22,1.35.77,2.12,6.32,1.36-.38,3.08,3.45,2.13,8.44-2.13.19,2.9-6.9,3.28-4.21-3.28-3.83.39,3.83,5.41-1.92,1-2.88-2.51-2.11,1.35,1.92,3.66h3.26l-.77,3.48L237,35.69,233.54,32l-2.29.41Z"/><path class="cls-2" d="M214.17,85.57l-3.65,4.6-.23,5.06,3.2-1.84h3.88l2.74,2.53,2.52-2.07-8.46-8.28Z"/><path class="cls-2" d="M258.7,145.39l-9.14,8.74.92,2.08,11.19,4.14,1.59-2.76-.91-4.6-3.66.46-2.06-2.3,3.43-3.45-1.36-2.31Z"/></g><path id="cd" class="cls-1" d="M407.26,305l8.91-.16,1.81,2.57-.07,1.89.66.61H423l1.27-2.5h1.81l.73.74,2.48-.07.74,8.71,4.28.14v.68l11.52,5.19.54,1h2.41l-.27-3.64-4.35-2.1.27-2.76,1.87-4.39,4.29-.14-3.68-12.23.06-5.19,5.83-9.11.07-1.28-.88-.48,0-2.47-1.06-.09-1.08-1.37-17.59-.79-3.22,3.13-5.28-3.47-1.86,1.14-1.35,11.35-3.33,2.58-1,2.28.18,3.38-6,4.92-1.6-.73.22.94L407.26,305Z"/><path id="cf" class="cls-1" d="M412.68,277.64l4,4.35,1.59-2.05,2.53.1.55-2,2.49-1.56L429,280l3-3,11.57.51-10.73-11.09,1.44-.89.2-2-2.44-1.15h-3.58l-5.76,5.72-.2,2.35-4.57-.15-.15,1-3-.31-2.69,5.11.55,1.4Z"/><path id="cg" class="cls-1" d="M408.66,285l-.05,1.26,4.13.1.14,10.73-3.77-.11-2.19-1.7-1.69.95-.08.48.87.42.25,2.2-2.33,2,.5,1.06,2.58-2h1.25l.39,1.2,1.65.7,5.27-4.46-.11-3.26,1.1-2.65,3.38-2.51.91-8.48h-2.4l-2.79,3.81-7,.25Z"/><path id="ch" class="cls-1" d="M393,161.23l-3.77,4,.08.4,1.54-.48,1.4,1.94,2.35-.83,1.62,1.26.67-.38,2-3.14-.52-.49-2-.05-1-2-2.45-.28Z"/><path id="ci" class="cls-1" d="M357.72,280l3.69-2.62,4.6-.8,4.7,1-2.4-3.62-.7-2.21.7-6.55-4.19.2-1.9-1.81-4,.1-1.9.3.19,4.43-1,.4-1.2,2.22,3.09,3.62.31,5.33Z"/><g id="cl"><path class="cls-1" d="M230.62,441.92,226.93,450l6.37.67.12-5.4-2.8-3.38Z"/><path class="cls-1" d="M229.37,440.65l-2.78,3.07-.33,3.6-5.37-3-5.71-8.22-1.67-2.94,2.35-3-.23-3.83L213,425.13l-2.12-1.58.45-2.14,2.79-.79.56-12.38-4.36-2.48-2.84-64.48.74-1.28,5.56,12.84,1.78,0,.58,2.05-2.37,2.87L211,373.24l3.87,11.89-1.79,9,6.31,26.48.67,15.49,4.52,5.23,4.79-.69Z"/><path class="cls-1" d="M211,408.24l-1.12,1.69.57,2.93,1.11.11.56-3.72-1.12-1Z"/></g><path id="cm" class="cls-1" d="M397.26,277.84l2.79,2.56-.2,4,15.26-.36,1.25-1.4L412,277.89l-.64-1.7,2.78-5.21-1.89-3.46-1.59-.86v-1.75l1.84-1.2.1-5.47-1.46-.16,0,2.87-6.42,12-3.92.2L398.07,275l-.81,2.87Z"/><g id="cn"><path class="cls-1" d="M563.73,144.54l-3,7.52-4.12-.22-4.35,9.52,3.69,4.7-7.61,10.5-3.9-.65-2.62,3.28.65,2,3,.22,1.52,3.5,3,.66,9.34,12v6.13l4.57,2.84,5-.87,6.31,3.72,7.6,2.18,3.69-.44,4.13-.44,8.69-5.68,2.83.44,1.08,2.56,2.4.72,3.26,4.81-2.17,4.82,1.3,3.28L611.8,223l.65,3.95,4.35.43.65-2,6.3-3.28,3.9.22,4.57,5,3-1.32,2,.22.88,2.41,1.52.22,2.17-3.06,8.69-3.29,7.82-9.41,2.61-9-.22-5.92-3.26-.65,2-2.19-.44-3.5-8.25-8.32v-4.15l2.38-3.06,2.39-1.1.22-2.41h-6.09l-1.09,3.28-2.83-.66-3.47-3.71,2.17-5.69,3-3.29,2.83.22-.43,5,1.52,1.31,3.69-3.71,1.3-.22-.43-2.84,3.48-4.16,2.61.22,1.52-4.82,1.78-.94.18-3-1.73-1.81-.15-4.74,3.33-.22-.21-12.21-2.34,1.4-.86,3.13h-3.9l-11.29-6.35-8.16-9.84-8.29-.09-2.1,1.84,2.68,6.13-.94,5.76-3.33,1.38-1.88-.14-.14,5.69,2,.44,3.47-1.53,4.57,2.19v2.19l-3.26.22L630.27,149l-2.38.22-8.47,11.16-8.91,3.94-6.08.44-4.13-2.84L594.44,165l-6.31-2-1.52-4.15L576,158.17,570.32,149h-2.38L566,144.72Z"/><path class="cls-1" d="M641,231.06l-2.07.58-1.49,1.84,1.24,2.41,1.81.16,2.07-1.83.49-2.41-2.05-.75Z"/></g><path id="co" class="cls-1" d="M203.56,256.66l-1.78-.18L190,266.18l-1.25,3.42-1.61.18.72,7.55-4.11,10.07,4.46,3.77,5.72.37,3.92,5.75,5.71.19-.18,4.31h2.13l2.32-7.91-2.15-2.69.54-5,4.46-.36-.54-11.69-10-3.23-2.32-6.29,5.72-7.92Z"/><path id="cr" class="cls-1" d="M172.14,261.15l1.2,2.36,1,1.29L173,268.7l-2.5-1.76-4.1-3.76V260.7l5.74.45Z"/><path id="cu" class="cls-1" d="M175.14,228.26v1.1l4.6.08,2.17-1.26.33.92,4.51,1.1,4,3.62-.92,1.27.16,1.43,3.35.84,3.34-1.51,1.51-1.52L196,233.24l-11.2-6.57-3.92-.43-5.78,2Z"/><g id="cv"><path class="cls-1" d="M319.24,248.67l-1.64.94,1.18.95,1.4-.71-.94-1.18Z"/><path class="cls-1" d="M323.28,250.57l-1.07,1,.76,1.41,1.83-.82-1.52-1.54Z"/><path class="cls-1" d="M320.94,253.24l-1.38.83,1.48,2,1.17-.62-1.27-2.19Z"/></g><path id="cy" class="cls-1" d="M453.79,196.2l1.06.77-3.29,3.12L450,200l-1.16-.82.15-1.53,2.39-.15,2.43-1.34Z"/><path id="cz" class="cls-1" d="M406.43,157.33h3.83l2.05,1.46,3.8-3.15L412.43,153l-3.65-1.77-2.5.45-3.39,2.18,3.54,3.46Z"/><path id="de" class="cls-2" d="M391.49,142.64l3.09-.5V140l2.58-.42,1.42,1.43,1.49.16,2.34-1,2.08.59,1.83,1.59.25,5.95,1.84,2.44L406,151l-4,2.51.34.84,3.58,3.36-.25,1.67-3.33,1.68-3.09.09-.75,1.59h-1.58l-.75-1.68-2.75-.67-.09-2.77-1.39-.77.12-1.86-.41-1.33-2-1.82.41-2.86,2.16-1-.74-5.36Z"/><g id="dk"><path class="cls-1" d="M396.36,128.48l-3.59,4-.13,2.59,1.63,4.26,2.56-.48-.32-3.49,1.77-2,0-1.55L397,128.59l-.64-.11Z"/><path class="cls-1" d="M398.21,135.76l-1.06.23v1.59l1.13.87,1-.25-.24-1.5Z"/><path class="cls-1" d="M401.54,134.26l-1,.23-1.06,1,.45,2,1.29.51-1.33.53-.26.69h2l.6-1.1-.77-.38.25-1,.92-1.21-.25-1Z"/></g><path id="dj" class="cls-1" d="M478.22,258.18l-.49,2.9,3.42-.05.06-4.27L480,256l-1.73,2.19Z"/><path id="dm" class="cls-1" d="M225.46,243.78l-.76,1.62.92,1.22,1.14-1-1.3-1.85Z"/><path id="do" class="cls-1" d="M211.67,239.94l-4.58-3-2.88-1-.58,5.52.58,0,.76,1.46,1-1.15,2.9-.76,2.51.53.3-1.54Z"/><path id="dz" class="cls-1" d="M393.86,194.17,390.33,193l-14.68,2.75-3.19,2.43,2,10.09-5.83.23-3.51,5.65-8.36,2,0,4.1,27.53,21.05,4.7.4,15.65-12.23-1.57-2-2.93-.4-1.77-3V211.91l-1.17-1.18.19-3.16-3.13-3.15-.38-3.36,1.36-1-.59-3.56-.76-2.35Z"/><g id="ec"><path class="cls-1" d="M183.22,287.84l-4.09,2.54-.29,3.77-.82,1.24,2.57,2.47-1.11,1.22.26,3.11,4.6,1.1,7-8.26,0-2.88-3.34-.21-4.74-4.1Z"/><path class="cls-1" d="M152.77,289.85l-.54,2.38-1,1,.68,1.23,1.75-.69.84-1.46-.53-1.54-1.21-.92Z"/></g><g id="ee"><path class="cls-1" d="M431.8,121.71l-4.84-.17-3.07,1.87-.05,1.39,2,1.88,6.18,1-.21-6Z"/><path class="cls-1" d="M421.47,122.45l-1.31.44,1.31.23.59.69.71-.85-.7-1.22Z"/><path class="cls-1" d="M422,124.2l-1.86.83-.64,1.11.64.73,2.36-.88,1.14-.75Z"/></g><path id="eg" class="cls-1" d="M435.39,207.63l2.31.06,4.5,1.25,2.13.06,2.65-2.22h1.23l2.25,1.25h2.85l.51,0,1.79,5.17.51,1.67.48,2.5-.85.62-1.46-.73-1.69-5.5-1.52-.11-.11,1.87,1,3.23,8.1,10,.18,4.3-2.36,2.72-22.17-.25-.34-25.88Z"/><path id="er" class="cls-1" d="M465.46,252.27l-.22-5.09,3.42-4,.93.71,1.69,5.64,8.09,6-1.47,1.81L472,252.27Z"/><g id="es"><path class="cls-1" d="M371.8,174.73h-11l-2.22-1-1.07.07-1.3,2.7.46,2.78,4.21.39.54,1.77-1.83,10.33.07,1.85,3,1.61,3.44.24,6.88-1.7,3.37-4.23.07-4.31,6-5.4.3-2.38-5.43-.08-5.42-2.64Z"/><path class="cls-1" d="M343.5,216.85l-1.51.88.7.7.81-1.58Z"/><path class="cls-1" d="M338.24,217l-1.87.47.93,1.42h1.41l-.47-1.89Z"/><path class="cls-1" d="M333.78,215.6l-1.17,1.18,1.64,1.42.93-2.12-1.4-.48Z"/><path class="cls-1" d="M382.81,185.29l-1.37.46.3,1.24h2l.84-.93-1.76-.77Z"/></g><path id="et" class="cls-1" d="M459.21,267l6.3-14,6.25,0,5.54,4.82-.39,4h4.29l.44,2.38,6.95,4.16,4.29.22-8.15,8.75-11.19,3.45h-2.78l-4.94-4.22-1.95-.82-3.79-5.57-2.5,0-.29-2.56,1.92-.64Z"/><path id="fi" class="cls-1" d="M422.3,98.61l1.79.79,1.11,2.07-1.11,1.44L418.55,109l-1,3.19,1.27,4.64,4.28,3.2,5.71-2.72,4.6-.64,4.27-6.87-3.17-7.51-3-7.19.48-4.64-1.9-.32-.49-3.38-2.56-4.17-2.84,2-1.11,4.56-3-1.81-4.18-1L415,87.35l1.61,1.45,2.93,0,2.36,3.81.42,6Z"/><g id="fk"><path class="cls-1" d="M250.43,436.8l-2.28-.25-2.26,1.52,1.64,1.78,2.9-3.05Z"/><path class="cls-1" d="M252.69,435.66l-.75,2.41L249.8,440l.13.63,3.65-1.4,1.51-1.9-2.4-1.64Z"/></g><g id="fr"><path class="cls-1" d="M382.21,152l-1.91.46-3.82,4.16-1.15.08-1.53-1.08-1,.23-.76,2.39-5.58.15.15,1.24,3.82,2.54,4.44,3.54-.08,4.24-2.37,4.16,5.13,2.46,5.2.16,1.61-1.85,3.29.07.91.85,3.29-.23,1.68-2.16-2.14-2.54-.16-1.62.46-1.77-1.07-1.54-1.83.54-.24-1.39,4.06-4.47v-2.69l-2.35-.77-1.43-1L382.21,152Z"/><path class="cls-1" d="M245.4,275.69l5,3.16-2.64,5.25-1,1.21L244,283.7l.08-5.67,1.28-2.34Z"/><path class="cls-1" d="M509.26,345.34l-2,.13-.13,1.72,1.32.27,2-.93-1.18-1.19Z"/><path class="cls-1" d="M486.09,321.08l.66,1.46h1.05l.53-1.86-2.24.4Z"/><path class="cls-1" d="M228.06,248.23l-.92.85.68,1.38,1.3-.38-1.06-1.85Z"/><path class="cls-1" d="M397.27,176.42l-1.69,1.7-.15,1.54,1.37.84.54-.07.3-2.24-.37-1.77Z"/><path class="cls-1" d="M223.33,242.47,222,243l.46,1.15,1.52-1-.3-.31-.38-.38Z"/></g><path id="ga" class="cls-1" d="M404.67,285.05l-.1,2.16-4.88-.11-3,5.77,7,7.66,1.74-1.45,0-1.5-1.2-.56v-1l2.69-1.7,2.39,1.8,2.64.06-.06-9.07-4.17-.2-.06-1.9-3,.09Z"/><g id="gb"><path class="cls-2" d="M369.86,126.39l-1.58,2.4.63,1h3.65v1.6l-.95,1.28.63,3.35,2.06,4,1.58,3.68,2.53.95,1.11,1.92-.16,1.76-1.58,1-.16.79,1.11.64-1,1.28-2.22,1-4.28-.48-6.67,3-2.22-1.12,6.35-3.67-.8-.48-3.33-.32,2.06-3,.32-2.56,2.7-.32-.48-4.95-3.17-.16-1-1.11.15-3.68-1.9.16,1.9-6.39,3.5-2.56,1.12,1.11Z"/><path class="cls-2" d="M363.21,137.1l-2.86.32L360.2,140l1.9,1.28,2.06-.47.79-1.44-1.74-2.25Z"/></g><path id="ge" class="cls-1" d="M464.38,174l2.82,3.69,3.53,1.62h2.17l3.73-1,.93-1.46-11-4.12L464.38,174Z"/><path id="gh" class="cls-1" d="M368.32,271.59l1,2.27,2.53,4,1.4-.05L377,275.6l-.26-12.36-3-.86-4.14.11-1.35,9.1Z"/><g id="gl"><path class="cls-1" d="M261.82,40.81l-1.18,1.87,2.12,2.12-.94,2.12,3.06,4,3.76-1.17,4.94-.47,5.64,6.11L283,65.49l-3.05,6.34,4.23-.71,2.35,1.41.23,3.06-5.16.24,2.81,2.81,3.53.71-7.75,10.34L279.22,96l1.65,5.16-1.18,3.06,2.12,6.58,4,4.47,1.18-.23,2.58-.71.24,3.76,1.64,2.35,3.05-.23,2.35-8.7,7.06-8.69,10.58-4.23,6.57-8.23,3.05,1.41h6.35l5.17-5.17L342,84.06l.7-4-4-3.53-3.53-1.17-1.88-4.94,4.47-2.58,7.05,3.76L347.15,69l-3.77-2.11,8-10.82L350,51.38l-3.76-.23,1.41-4.23,4.7-2.12L362,36.34l-2.82-3.05-10.81.94-5.65,5.65,3.3-7.29-3.76-.94-2.12,3.76-3.05-2.59-8.47,1L330.94,30l13.86-.47-3.52-4.7-15-2.82-6.11.94.23,3.06L314,23.9l.24-2.11-4.47.94-.95,2.35,4.71,1.64-4.94,3.53-3.53-4-4.93-1.41-.71,3.76h-4.94l-1.88-4-7.76-1.17-4.23,2.11-.23,2.82-5.4-.71-3.29,1.41.23,3.3V34l-6.11,1.18L263,33.31l-1.88,3,2.81,3.06,5.88-.71.47,1.89-4.47,2.11-4-1.9Z"/><path class="cls-1" d="M280.63,77.48,282,79.59l-.71,2.59h-1.41L278,80.06l.46-1.64,2.13-.94Z"/><path class="cls-1" d="M339.39,71.6l4,1.17-.24,3.3L338.92,74,338,72.77l1.41-1.17Z"/></g><path id="gm" class="cls-1" d="M336,255.42l-.11,1,6-.08.3-.89-.13-.9-1.72.7-4.32.22Z"/><path id="gn" class="cls-1" d="M339,263.71l2.63,4.05,3.42-3,3.52-.15,2.92,3.88,2.48,1.64.93-1.82.83-.47-.06-4L354,259.13l-5.07.57-6.26-.51,0,1.61L339,263.71Z"/><g id="gq"><path class="cls-1" d="M396.42,280.54l-.4,1.71,1.19.64,1.15-.85-.4-1.76-1.54.26Z"/><path class="cls-1" d="M400,285.11l-.05,1.2,3.92.2-.05-1.36-3.82,0Z"/></g><g id="gr"><path class="cls-1" d="M422.24,185.62l-.1,1.15,4,2,1.91.73-1,1.06-2.23.22-.32,1,.77,1.74,2.5,1.33,1.09.1.14-3,1.63-2-4.46-5.27.59-1.79,1.05,0,1.59,1.28,1-.5.32-1.79,3.73.53,1.14-3.24-2,1.38-5.73-.14-3.72,1.93-1.94,3.25Z"/><path class="cls-1" d="M430.92,196.85l1.41,0,.59.88H435l1.36-.5.46.55-.91,1.19-4,.14-.73-1-.77-.46.54-.88Z"/></g><path id="gt" class="cls-1" d="M152.69,249.52l5.13,3.75,5.16-6.42-.88-1.33-1.76-.07v-3.76l-1.32-.8-4,1.19,1.53,3.53-3.85,3.91Z"/><path id="gw" class="cls-1" d="M337.43,260.76l1.21,2.4,3.4-2.92,0-.9-4-.58-.64,2Z"/><path id="gy" class="cls-1" d="M230.63,269.06l6.24,5.65-2.48,2.87-.2,1.71,3.26,3.36-.08,3.23L231.7,288l-3.39-4.59.72-5.51-1.45-4.11,3-4.77Z"/><path id="hn" class="cls-1" d="M163.64,247.15l8-.3,2.37,2.81-1.48-.33-2.84.12L166,252.94l-1.59,3.54-1.05-.56v-3.87l-2.3-1.54,2.63-3.36Z"/><path id="hr" class="cls-1" d="M412.65,166.23l-3,2.51h-3.1l-.37,2.18,1.42.37.71-1,1.11,1,.89,3.11,6.11,2.86.61-.69-6.2-6.4.63-1.17,5.89-.22.6-1.88-3.84.11-1.41-.7Z"/><path id="ht" class="cls-1" d="M201.08,235.57l3,.31-.35,3.65-.3,1.92-3.46-.19-.62.92-1.06-.07-.38-2,3.66-.31-.23-2.07-1.68-.69,1.45-1.47Z"/><path id="hu" class="cls-1" d="M413.62,161.42l-1,1.57.07,2.41,1.6.82,4.92.14,6.86-5.77,0-1.28-.74-.37-5,2.25-6.78.23Z"/><g id="id"><path class="cls-1" d="M608.75,272l-.24,2,5.87,9.86h1.71l12.23,20.46,4.89.49,2.45-7.15-3.92-2.46-.73-3.94L608.75,272Z"/><path class="cls-1" d="M666.71,299.3l1.95,2.4-1.27,3.59V306h2.89l1-9,.93.26,1.7,8.21,1.61.43,1.53-3.51-1.53-5.31-1.27-2.31,4-2.91-.93-1.29L673.51,293h-1l-1.87-2.74.6-1.2,3.15-1.54,4.75,1.46,1.44-.09,3.57-3.34-1.44-1.45-3.31,2.57h-2.13L674,285.17l-2.29.08-2.55,4.11-1.62,7.11-.86,2.83Z"/><path class="cls-1" d="M688,283.21l-1.61,3.94,2.55,3.34h.85l1.1-2.23.6-.77-1.11-1.2-1.61-.6-.77-2.48Z"/><path class="cls-1" d="M693,296.14l-3.48.77-1,1.11.84,1.46,2.29-.86,1.45-.85,2.12,1.71.94-.77-1.7-2.06-1.44-.51Z"/><path class="cls-1" d="M635.28,307.26l-2.38,1.63.51,1.36L641,312l3.82.69,1.61,1.71,4.33.34,2,1.72,1.87-.44,1.7-1.54L653.2,313l-2.71-2.31-7-1.71-8.16-1.71Z"/><path class="cls-1" d="M660,314.7l-1.86,1,1.1,1.2,2.72-1-2-1.21Z"/><path class="cls-1" d="M663.22,313.93l.34,1.63,2,.51.76-.94-.85-1.29-2.21.09Z"/><path class="cls-1" d="M667.9,318.21l-2.38.35,2.13,1.8h1.69l-1.44-2.15Z"/><path class="cls-1" d="M668.57,315.39l-.51,1,3.82.6,3-1.71-1.69-.51-2.72.77-1-.86-.86.69Z"/><path class="cls-1" d="M681.07,316l-4.42,3.68.42.95,1.87-.35,2.2-2.06,4.34-.59-.85-1.46-3.56-.17Z"/><path class="cls-1" d="M703.36,290.85l-3.61.41L697.44,293l1,1.94,3.92.73v.72l-2.48,2,1.2,4.19,1.21.08,1-4.11h1.92l.81,4,9.36,7.75.24,6,3.2,3.47,1.44-.08.32-21.37-5.44-3.79L710,298l-1.85,1.13-3-1.93-.08-6.13-1.68-.26Z"/><path class="cls-1" d="M659.92,277.94l-2,7.5-10.84,3.66-3.24-3.8-1.57.43,2.94,11.34,4.4.49,5.87,2.22V302l2.68-.5,3.92-5.42v-4.43l2.2-4.44,2.45.49-2.94-6.16-.45-4-3.43.36Z"/></g><path id="ie" class="cls-1" d="M364.15,141.49l-.79,5.19-7,2.56h-2.23l-1.58-1.11v-1l3.49-2.24-.95-1.92.16-2.72,3,.16,1.38-3.25-.18,2.89,2.34,1.85,2.31-.45Z"/><path id="il" class="cls-1" d="M455.61,203.31l-1.36,4.35,1.77,5.21,2-7.62v-1.63l-2.44-.31Z"/><path id="in" class="cls-1" d="M564.23,268.1l4-1.94,2.35-8.51-.1-10.44,13.47-14.54v-3.44l2.77-1.09-.1-4-3-5.82,1.71-3.12,3.74,3.45,4.81.22v1.94l-1.5,1.61.32.86,2.57.11.53,2.9h.76l1.92-3.45,1-9,3.21-2.26.1-3.12L601.44,206l-2-.11-7.95,5.26.5,3.38-5.58,0-2-2.41-1.07.14.36,3.35-12.08-.86-7.48-3.34-.4-4.11-5-3.09-.06-6.37-3.42-3.92-7.87.76.86,3.42,3.85,3.12-6.66,13.64-4.46.34-.74,1.64,4.4,4.06-.22,4.11-4.49-.07-.48,2,3.73-.16.1,1.61-2.67,1.4,1.71,3.23,3.31,1.08,2-1.5,1-2.69,1.18-.53,1.39,1.4-.42,3.44-1,1.62.21,2.8,14.2,29.48Z"/><path id="iq" class="cls-1" d="M472,192.05l-1.35,6.66-5.59,4.65.36,2.19,5.45.38,8.69,7.07,4.86-.14.13-1.64,1.78-1.91,2.49,1.41.33-.31-4.82-6.4-2.28-.14-3-3.9.6-2.87.93-.12.32-1.27-4.14-4.35-4.73.69Z"/><path id="ir" class="cls-1" d="M476.64,185.92l-1.06,1.1.11,1.74L477,190.6l4.66,5.1-.71,2h-.81l-.41,2,2.64,3.38,2.43.2,4.87,6.73,2.73.21,2.12,1.53.11,3.06,8.41,4.9h3.14l1.92-1.63,2.43-.1,1.42,3.26,9.09,1.27.27-3.34,3-1.09.14-1.19-2.39-3.27-5.34-4.29,2.81-2.55-.2-1.12-3.51-.55-1.49-11.84-.17-2.72L504.64,187l-4.22.95-2.36,2.89-2.09-.14-.6.52-4.66-.31-5.88-4.29-2.19-2.39-1,.24-1.81,2.07-3.19-.61Z"/><path id="is" class="cls-1" d="M335.49,98.93l-1.69-1-2.28,1.44-2,1.82.05,1,2.54.32-.16,1.81-.9.91.22.59,2.54.16V109l3.66.64,2.17,1.23,2.44.11,4.18-2.09,3.23-4.27.06-2.88-2-1.66L346,98.65l-.74.54-1.12,1.44-1.27-.16-1.27-1.39-1.64.15-2.39,2-1.43,1.55-.8-.69-.05-1.71.79-.54-.57-.89Z"/><g id="it"><path class="cls-1" d="M392.47,167.8l-.54,1.36.15,1.47,2.06,2.42,3.25-.12,7.18,8.34,4.48,1.29,2.64,2.5.63,5.7,1.42-.83,1.23-3.11-.3-2.22,2.1-.19.3-1.27-5.92-2.83-5.62-5.52-2.24-3.31-.54-3.13,2.86-.69-.74-2.06-1.75-1.48-1.51-.07-2.11.58-2,2.78-1.2.79-1.86-1.14-2,.74Z"/><path class="cls-1" d="M409.9,190.31l-1.25-.68-4.28.68.15,1.15,3.84,1.94.58.63,1,.15-.05-3.87Z"/><path class="cls-1" d="M397,182l-2.29,1.15.3,4.47,1.84.31,1.37-1.31v-4.23L397,182Z"/></g><path id="jm" class="cls-1" d="M190.77,239.21l-3,.76v.84l1.75,1h1.84l1.17-1.35-1.75-1.26Z"/><path id="jo" class="cls-1" d="M458.71,205.66l-2.13,7.42-.1,1.13h3.35l3.74-3.3.1-1.26-1.53-1.56,2.74-2.27-.4-2.11-.75.17-2.28,1.64-2.74.14Z"/><g id="jp"><path class="cls-1" d="M678.55,184.6,677.14,186l.58,2,1.24.08.83,4.33,1,1.08,1.74-1.58.15-4.77-2-2.13-2.12-.43Z"/><path class="cls-1" d="M685.92,180.6l-2.66,2.15-.59,2.72,1.81,1.25,2.63-2.75.37-3.06Z"/><path class="cls-2" d="M682.85,176.44l-4.22,4.83v2.33l2.6-.32,4.09-3.59,2.73-.5.66.78,0,2.38.68,1.25h1.26l1.76-2.16.74-2.84,3.56-.08,3.47-4.17-1.81-6.92-.83-3.66,1.81-1.5L695.24,156l-.94-.74-1.88.74-.48,2.59v2.08l1,1.17.33,5.49-2.56,3.17-1.48-.92-1.16,2.59-.25,2.41.91,1.42-.58,1.08-1.9-1.59h-1.33l-1.15.67-.91.25Z"/><path class="cls-1" d="M690,138.8,688.64,140l.67,2.5,1.15,1.17-.08,3.83-1.49.57-1.16,2.59,3.39,4.66,2.23-.75.42-1.17-2.4-2.16,1.49-1.92,1.57.25,3.43,2.3.37-2.58,1.63-3,2.28-2.31-2.47-1.13-.94-1.8-1.24.83-1.07,1.33-2.32-.5-2.39-1.58L690,138.8Z"/><path class="cls-1" d="M702.43,136.22l-2.31,3.25.16,1.58,1.16-.5,2.72-3.41-1.73-.92Z"/><path class="cls-1" d="M705.49,131.48l-.82,2.24.08,1.5,1.41-.92,1.32-2.66v-1l-2,.83Z"/></g><path id="ke" class="cls-1" d="M460.37,279.77l2.3,4.49L459.92,290l-.37,1.76,13.77,8.51,4.28-6.71-2.17-1.75,0-8.84,2.71-2.95-4.32,1.43-3.26.05-5.1-4.31-1.6-.69-3,.28-.53.88.06,2.07Z"/><path id="kg" class="cls-1" d="M534.7,169.73l-.27,2.18.21,1.35,7.53,2.53-6.61,2.66-.75-.62-1.43.91.07.5.76.35,4.64.12,2.35-.71,3-3.8,3.77.65,4.56-6.31-12.19-1.66L538.68,172l-2.13-2.28-1.85,0Z"/><path id="kh" class="cls-1" d="M624.31,256.39l3.53,3.78,6.58-4.88.58-7.69-3.4,2.34-1.76-1-2.4-.32-1.34-.94-.65,0-1.75,2.88.28,1.33,1.79,1-.22,2.7-1.24.75Z"/><path id="km" class="cls-1" d="M483.59,318.42l.4,1.32,1.71.27.66-1.72-2.77.13Z"/><path id="kp" class="cls-1" d="M657,165.46l1.59.66.49,5.57,3.15.18,3-3.48-1-.92.12-3.73,2.73-3.31-1.39-2.5.91-1,.5-2.59-1.58-.72-1.35.68-1.67,5.07-2.7-.24-3.12,3.69.37,2.68Z"/><path id="kr" class="cls-1" d="M665.68,168.85l5.34,4.36.91,4.22-.18,2.26-2.61,2.94-2.25.12-2.55-5.51-1-2.62,1-.8-.24-1.1-1.28-.57,2.8-3.3Z"/><path id="kw" class="cls-1" d="M488.43,211.18l-1.94-1.05-1.35,1.35.15,2.72,3.13,1.2v-4.22Z"/><path id="kz" class="cls-1" d="M482.73,160.57l3.54-1.51,4-.14.28,6.05h-2.32l-1.77,2.89,2.32,3.85,3.41,1.92.31,2.21,1.25-.42,1.16-1.37,1.91.41,1,1.93h2.46v-2.47l-1.51-4.4L498,166l4.36-1.93,5.87,1,3.69,3.71,8.32-.82,4.64,6.6,5.46.27,1.5-2.47,1.91-.42.28-2.75,2.86-.14,1.5,1.79,1.51-3.57,13,1.79,2.18-2.88-3.68-4.54,4.91-10.72,4,.27,2.73-6.59L557.5,144l-3.14-3-8.64,1-11.13-10.76-3.93,3.48-11.9-5.4-14.6,7.15-.41,5.08,3.42,4-6.66,3.76-8.64-.19-1.8-2.65L483.3,146l-6.42,4.13-.14,5.63,6,4.8Z"/><path id="la" class="cls-1" d="M620,224.81l-2.09,1.06-1.74,5.06,2.9,3.7-.48,4.09.48.2,4.83-2.34,6.49,7.24-.16,4.56,1.41.76,3.48-2.82-.28-2.24-10.06-9.55.1-1.46,1.25-.88-.87-2.43-4.16-.69-1.1-4.26Z"/><path id="lb" class="cls-1" d="M456.37,198.45l.06,1.69-.71,2.56,2.43.2.16-3.63-1.94-.82Z"/><path id="lc" class="cls-1" d="M228,251.69l-.62,1.3,1,1.08,1.29-.69L228,251.69Z"/><path id="lk" class="cls-1" d="M572.5,263.81l.21,2.35.22,1.71-1.27.22.64,3.84,1.91,1.08,3-1.72-.84-4.05.21-1.49-2.75-2.56-1.29.62Z"/><path id="lr" class="cls-1" d="M347.43,273.44l9.49,6.34-.22-4.8-2.87-3.38-2.8-2.49-3.6,4.33Z"/><path id="ls" class="cls-1" d="M440.13,365.24l2.64-2,1.24.05,1.5,1.87-.15,1.88-2.53.94v.72l-2.8-.15-.67-2,.77-1.25Z"/><path id="lt" class="cls-1" d="M421.37,133.64l-2.14.37.17,2,3.36.25,1.27,1,.33,1.81,1,1.45,3.07-.13,2.94-3.75-.17-2.22-5.54-.86Z"/><path id="lu" class="cls-1" d="M389.66,156l.76.68.88.08.19-1.73-.25-1-1.23.59Z"/><path id="lv" class="cls-1" d="M432.06,128.37l-6.37-1-1.08,2.82-1.84.55-.95-1.18-1-1.81-1,.76-.59,3.14v1.7l2.24-.37,4.66.08,5.62,1.05,2.25-.66-.13-2.52-1.81-2.53Z"/><path id="ly" class="cls-1" d="M399.19,211.93l1.35-.23.4-3.11h.67l2.76-4.53,6.8,2,1.86,2.89,6.69,3.06,3.48-1.47-.34-1.47-1.52-1.47.18-1,2.47-2.09h4.89l1.86,2.49,3.93.57.51,31.88-2.92-.11-17.65-9.18-1.91,1.08-7.25-1.81-2-2.6-2.87-.4-1.46-2.6,0-11.86Z"/><path id="ma" class="cls-1" d="M371.74,198.31h-10l-2,4.34-4.5,2.17-3.72,10.06-7.24,4.34L334.16,236l10-.2.39-4.93h2.54v-6.71h8.81l.2-8.68,8.42-2,3.53-5.72,5.48-.2-1.77-9.27Z"/><path id="md" class="cls-1" d="M434.37,159.79l2.68,4.12-.22,2.33,1,0,2.27-3.85-2.73-3.39-1.55-.64-1.41,1.38Z"/><path id="me" class="cls-1" d="M418.91,175.09l-1.26,1.79L418,178l1.5.28,1.19-1.61Z"/><path id="mg" class="cls-1" d="M496.22,319.88l-1.84,4.38-3.15,5.56-5.53.4L483.33,333l.4,8.49-3.42,4,.39,6.76,2.9,3.31,3.42-.4,3.43-2.52-.79-4L497.55,335,496,333.27l1.58-3.32,1.71.53.53-1.32-1.58-6.76-.93-2.79-1.06.27Z"/><path id="mk" class="cls-1" d="M425.88,177.33l-2.92,1,.14,2.48.69.87,3.45-1.61-1.36-2.7Z"/><path id="ml" class="cls-1" d="M346.82,253.25l2.66-1.82,14.8-.09-3.42-23.8,3.9-.11,18.91,14.42,2.54.37-1,8-11.89,1.08-9.17,6.84-1.67,4.69-6.37.27-1.62-4.68-4.89.35.19-1.53-3-4Z"/><path id="mm" class="cls-1" d="M614.77,260l-2.4-3.84,1.74-2.44-1.65-3-1.54-.29-.3-5.07-2.31-4.48-.68,1.07-1.54,2.63-1.94.29-1-1.27-.48-3.41-1.46-2.73-5.91-5.58,1.45-1,.27-4,2.16-3.63.94-9,3.13-2.14.1-3.29,1.88.62,3,4.28-2.19,4.7,1.48,3.69,3.65,1.44.67,4,4.91.76-1.36,2.34-6.19,2.44-.67,4,4.55,5.85.19,3.12-1.07,1.07.1,1,3.39,5,.09,5.16-1,1.8Z"/><path id="mn" class="cls-1" d="M566.67,144.62l5-6.67,6,2.79,4.11,1.1,5-4.61-3.41-2.52,2.24-3.17,6.71,2.37,2.33,3.81,4.19.11,2.2-1.63,4.52-.19,1,1.68,7.51.38,4.75-4.85,6.58.69-.38,6.61,2.88.65,3.53-1.6,3.75,1.85-.09.93-2.72.08-2.82,5.93-2.2.22-8.54,11.16-8.72,3.84-5.46.43-4.52-2.93-5.8,3.1-5.7-1.77-1.62-4.14-10.8-.76-5.53-9.38-2.69-.18-1.39-3.33Z"/><path id="mr" class="cls-1" d="M334.23,236.67l1.89,2.47-.39,10.65,2.74-2,1.95-.4,2.74,1,3.13,4.34,2.94-2,14.28-.2L360,226.71l3.78,0-7-5.4v3.51H347.8l0,6.7h-2.57l-.33,4.94-10.63.23Z"/><path id="mt" class="cls-1" d="M410.05,196.75l-1.44.29.05,1.6,1.29.44.58-.49-.48-1.84Z"/><path id="mu" class="cls-1" d="M514.12,342.42l-1.31,1.72.26,1.85,2.77-2.25-1.72-1.32Z"/><g id="mv"><path class="cls-1" d="M551.63,274.79l.26,2.26,1.44.53.26-2-2-.8Z"/><path class="cls-1" d="M553.47,279.57l-.13,2.78,1.06.52.92-1.85-1.85-1.45Z"/><path class="cls-1" d="M553.74,285l-.93.93,1.06.92,1.31-.92-1.44-.93Z"/></g><path id="mw" class="cls-1" d="M457.2,325.48l2.69,2.81-.05,3.6.52,1.51,3.57-3.85-.42-4.9-1.91-1.46-1.7-8.6-2.95-.11,1.34,6.2-1.09,4.8Z"/><path id="mx" class="cls-1" d="M103.08,192.39l4.18,13.15-2,1.09.22,2.61,3.67,2.82v5.23l4.54,4.36-1.95-12.85-2.59-8.5.65-5.87,2.16.21.86,2-.86,5,11.24,22v7.84l9.07,10.67,9.94,4.57,4.11-2.4,5.83,4.79,3.46-3.48-1.51-3.92,5-1.53,1.51.88,1.51-1.52h2.38l4.32-7.63-2.16-2-8.43,2-1.94,5.66-5,.88-5.83-2.4-2.6-8.27,2-10.43-4-2.5-1.91-10-1.6-.68-2.92,3-3.35-1.79-1.32-6.68-13.28-1.39-6.86-5.16-6.54.34Z"/><g id="my"><path class="cls-1" d="M617.59,270.2l1.74,3.9.39,5.07,2.32,3.6,5.1,3.08,1-.79,1.46-.29-.21-1.91-1.84-4.47-2.7-5.73-.22,1-3.25-.15L619,270.16l-1.45,0Z"/><path class="cls-1" d="M644.76,285.3l2.61,3,10-3.46,2-7.65,4.46-.32,4.08-2.95-5.29-3.86L661.4,268l-2.61,4.81,1,2.77-1.59,2.31-3-.77-7.27,5.33.19,3.08-3.32-.2Z"/></g><path id="mz" class="cls-1" d="M452,354.77l2.33,1.93,5.48-3.34.88-4.95v-8.18L469.5,333l1.51,0,5.32-5.11-.83-10.52-13.81,1.74.52,3.34,2,1.75.57,5.74L460,334.67l-1.14-2.61.21-3.44-2.74-3-6.72,3.13L455.9,332l.21,9.28L452,347.38l0,7.39Z"/><path id="na" class="cls-1" d="M413.45,362.27l2.9.21,1.7,1.72,4,.05,1-11.46v-7.5l2.59-.52,1-7.87,6.57-.21,2.33-1.92-3.94-.16-5.32.73-5.74-2.08H404.41l.41,4.58,5.38,7.91-.93,4.07.05,2.13,4.13,10.32Z"/><path id="nc" class="cls-1" d="M767.94,361l-.3,1.55,4,5.56,2.14.93.31-2.16L767.94,361Z"/><path id="ne" class="cls-1" d="M382.63,258.58l2.2-.05,2-3,3.34-.6,3.55,2.17,7.58.21,5.86-2.38,2.21-1.9.16-2.48,4.09-4.13,1.08-9.1L412,231.7,405.12,230,389.2,242.44l-2.26-.22-1,8.62-8.12.81,4.78,6.93Z"/><path id="ng" class="cls-1" d="M383.22,273.59l3.39.17,4.08,4.56,2,.54,1.56-.76,2.37-.33.8-3.3,3.23-2.12,3.49-.16,6.39-11.77-.1-2.65-2.95-2.28-5.92,2.61-7.91-.11-3.77-2.39-2.68.6-1.4,2.44-.11,6.88-2.25,3.19-.21,4.88Z"/><path id="ni" class="cls-1" d="M172.45,250l1.89.38.06,3.88-2.2,6.29-5.94-.58-1.32-3,1.76-3.68,3.35-3.11,2.4-.14Z"/><path id="nl" class="cls-1" d="M390.58,143l-3.91,1.93.83.75.08,1.93-.82-.16-.92-1.43-2.19,3.47,3.36.7,1.26,1.32.66,0,.44-3,2.12-.9-.91-4.64Z"/><g id="no"><path class="cls-1" d="M429.8,85.82l1.75-1.28-.16-1.44-1.11-.64.16-1.75h.95v-1l-4.12-1.11-6.18.64L420.46,82,419,81.51l-.95-1.6-3,.16-.32,3-1.43.64-.79-1.6-6.35,5.11,1.28,1.44-2.38,1.11-5.4,10.7-1.9,1.28.16,1,1.9,1-.48,2.07-3.17-.16-.95-1.11-2.06,2.39-1.27,1-.32,2.24-1.11.64-2.85.64-1.43,4.48,1,7.35,1.1,3.35,1.27,1.28,2.86-.16,4.12-4,1.58-2.71.48,4,2.7-4.79.15-13.42,2.19-1.39.66-7.41,6.66-9.58,3.17-1.12,1.43-1.75,4.75,1.11,2.38,1.44.79-4,4-2.4,2.39,4.16Z"/><path class="cls-1" d="M406.29,44.17l-1.43-1.43-3.16,1.53h-5.81L395,47.66l3.26,2.88,1.43-.21,2-3.49,1.73,1.24-1.23,2.46-.62,3.6L403,56.39l3.06-5.13,4-4.83-1.53-1.33-2.23-.93Z"/><path class="cls-1" d="M408,38l-2.55,2.36L407,42.73h2.74l1.13,1.54L414.23,46l3.87-2.25,2.66-2.26-.92-1.85-2.65-1.54-1.94,1.75-1.32-1.65-1,.11-1.32,2.87-1.94-1.95-.21-1.33L408,38Z"/><path class="cls-1" d="M413.83,48.59l-2,1.85-1.73,1.33.81,1.44,1.63.51,2.66-1.24,1.23-1.54-1.13-1.85-1.43-.5Z"/></g><path id="np" class="cls-1" d="M564.42,207.2l.39,3.69,7,3.16,11.2.83-.43-2.7-7.47-2.06-6.35-3.78-4.32.86Z"/><g id="nz"><path class="cls-1" d="M773.45,414.14l.92,10.2L773.14,429l-4.6,3.4.31,4v4.32l1.23,1.55,12.57-10.82V429h-3.06l-4.3-14.52-1.84-.31Z"/><path class="cls-1" d="M764.26,436.39l2.45,4.63L760,447.51l-.61,3.4-4.6.61-7.67,7.11-7.05-3.4-.62-2.47,12.88-5.56,12-10.81Z"/></g><path id="om" class="cls-1" d="M501.48,240.29l6.39-3.69,1.13-5.4-1.4-.8.58-5.79,1.22-.71,1.3,2,7.77,4.06v2.26l-9.41,13.85-4.33.15-3.25-6Z"/><path id="pa" class="cls-1" d="M174.91,265.16l-1.26,3.94,4.17,1.08,2.58.51.44-3.05,2.78-1.4,2.46,1.27,1,1.55,1.17-.14.93-2.81-3.08-1.27-2.33-1.27-2.34,1.59-2.77,1.4-2.84-1.15-.88-.25Z"/><path id="pe" class="cls-1" d="M178.75,299.65l-1.68,1.7.12,2.7,14.64,26.7,15.21,9.8,2.35-3.94.56-8.67-1.23-5.4-4.14-7-2.46.79L201,317.58l-4.92-5.64,1.23-6.65,5.71-3.71-.45-3.5-5.81-.22-3-5.07-1.68-.56.12,3-7.49,8.89-5.59-1.35-.35-3.17Z"/><g id="pg"><path class="cls-1" d="M721.37,298.59l-.32,21.13,3-.17,4-4.67,3.36.16,2.16,1.94.72,6,6.88,3.63,1.77-.64v-2.18l-5.53-4.6-2.72-6.3,2.16-1-1.6-3.47-3.2-.08-.8-3.71-8.48-5.72-1.44-.24Z"/><path class="cls-1" d="M747.41,304.42l-.82.19-.5,2.22-1.57,1-4.73.83.19,1.78,5-.25,3.15-2-.19-3.43-.51-.39Z"/><path class="cls-1" d="M745.33,299.21l-.77,1.08,4.16,3.68.57,2.16,1.13-.13.13-2.22-1.26-1.14-4-3.43Z"/></g><g id="ph"><path class="cls-1" d="M666.57,254.71l-.74,1.42-.42,1.75-4.13,5.24.25,1.09,1.74-.26,5.37-6-2.07-3.25Z"/><path class="cls-1" d="M673.26,252.72l-.09,4.33,1.57,1.58.58,3.08,1.58.33.74-1.91-1.24-.92-.33-5.41-2.81-1.08Z"/><path class="cls-1" d="M677.73,254.39l-.09,3.83.91,1.49,1.57-1.83-.41-3.33-2-.16Z"/><path class="cls-1" d="M678.71,251.05l1.58,2.08.74,2h1.41l-.25-3.42-1.57-1.07-1.91.41Z"/><path class="cls-1" d="M681.77,258.88l.33,2.5-2.89,2.33-2.4.25-2.56,2.75.09,1.25,2.39-.75,1.65-1.08,1.41,3.58,2.48,1.75,1-.34.9-1.08-2-2,1.16-.91,1.33,1.08.9-1.5-.9-1.83-.17-4.08-2.74-1.92Z"/><path class="cls-1" d="M668.31,233.48l-2.23,1.59-.25,5,3.47,6.74,1.16.92,1.49-1,2.56.41.49,2.25,1.9.16.91-1.24-1.16-1.58-1.41-1.33-3-.33-1.58-2.59,1.82-2.74.16-2.42-1.23-3.07-3.13-.76Z"/><path class="cls-1" d="M669.46,248.39l.66,2.33,1.16.76.83-1.09-1.32-1.83-1.33-.17Z"/></g><path id="pk" class="cls-1" d="M522.87,213.49l2.25,3.34-.22,1.72-3,1.18-.22,2.81h3.43l1.17-1h6.52l5.88,5.17.75-2.48h4.39l.1-3.12-4.49-4.31,1-2.37,4.6-.32,6.2-12.92-3.42-2.69L546.5,194l8.33-.75-4.92-7-2.62-.71-1.07,1.3-.8.06L540.5,190l1.61,2.69-1.82,1.94L538,203l-5.55,3.55-.76,3.89-8.86,3.1Z"/><path id="pl" class="cls-1" d="M426.34,148.59l.74,1.35.17,1.44-.6,1.39-1.39,2.66-1.16.53-1.52-.66-.91,0-2.2.83-2.51-.74-4.06-2.88-4-2.13-1.6-2.44-.3-5.75,3.11-2.71,4.06-1.35,1.33-.13.32,1,1.72.7,4.77.09,1.47-.05,2.42,3.71-.61,1.52.26,1.79.47,1.79Z"/><path id="pr" class="cls-1" d="M218.53,240.48l-2.28-.77-1.83,1.15.91,1.07,3.12.46.08-1.91Z"/><g id="pt"><path class="cls-1" d="M356.73,180.12l-.53,7.48L354.67,189l.15.84,1.07,1.78-.69,2.16,1.15.39,2.68-.32-.15-2.16,1.75-10-.38-1.38-3.52-.16Z"/><path class="cls-1" d="M337.07,201.89l-.94,1.18.94,1.19,1.41-.71-1.41-1.66Z"/><path class="cls-1" d="M306.34,185.12l-1.17,1.19,2.11,1.18.23-1.65-1.17-.72Z"/><path class="cls-1" d="M312.68,184.41l-1.41.94,1.18,1,1.87-.48-1.64-1.41Z"/><path class="cls-1" d="M313.61,187.72l-.7,1.89.94,1.19,1.17-.94-1.41-2.14Z"/><path class="cls-1" d="M319.24,191.5l-.46,1.18.7.71,1.87-1.18-2.11-.71Z"/></g><path id="py" class="cls-1" d="M236.43,342.87l1.9,2.07-.22,4.39,5.48-.34,4.14,5.3-.34,4.73-2.68,4.06-5.48.22-.22-2.25,1.56-3.72L235.2,354h-4.47l-3.35-3.61,2.44-7,6.61-.51Z"/><path id="qa" class="cls-1" d="M496.51,221.43l-.45,3.46,1.33,1,1.21-.12.45-4.36-1.05-.75-1.49.75Z"/><path id="ro" class="cls-1" d="M427,159.69l-.22,1.28-5,4.16,4.19,6.14,2.68,1.88h4.82l1.59-1.33,2.14-.28,1.59,1,2.82-3.21-.55-1.6-2.86-.74-1.95-.09.09-2.75L433.7,160l-6.74-.34Z"/><path id="rs" class="cls-1" d="M421.23,165.69,419.46,167h-.86l-.59,1.83,2.09,2.43.14,1.93-.88,1.25,3.07,3.19,3.31-1-.27-4.72-4.24-6.23Z"/><g id="ru"><path class="cls-1" d="M691.29,60.57l1.52,5.26,3.05.87,3-4.82-1.74-3.28.65-2.85h4.56l-1.09,2.19.44,7.88L695.2,82l.65,3.5-.22,5.92,12.16,17.73,2.39.65.21-14.44,2.39-2.19-2.61-5.69,2.17-2.41-4.78-6.34L705,79l-.86-10.5,6.73-1.75.43-3.07,3.48-.88,1.95,1.76,2.39-9.63,4.12-7,3.26-1.76,2.83.22V43.07l-4.56-.88-6.31-5.25,3.05-3.5-2.61-5.92L721,25.34l2.61,3.5,6.52,2.41,7.16.65.87-3.06-3.69-3.71,4.13-5.69-9.35-3.29L726.89,21l-3-3.94-17.15-5.92L690.39,14,688,15.27v1.31l3.48,1.76-.43,4.16-6.31-2.63-13.89,5.47-2.39-5H658.9l-4.35,4.6-15.42-3.5L625,24.25l-1.73,4.38,2.17.65-.22,3.29L611.54,34.1l.88,4.37-12.61-2.18,3.05-5.69L590,29.94l1.09,5.91-4.13,2-3.47-3.28L569.41,37,564,42,563.77,45l-3.48.22-.43-3.5,11.08-9.63V25.56l-7.17-2-9.34,3.06-3.91-3.94h-1.73l-2.18,4.37,1.74,2L536,35.84l-10.64,8.1-6.52,9v3.72l7,2.84-3.47,2.63-7.39-2.63-3,2.63-4.56-5.26-.87,2,5,15.75,1.31.44,3.47-1.75,1.74,1.31v2.85l-3.26-1.32-1.95,1.53,1.3,2.85-1.09,7.44-6.73.66-.43-2.41,3.9-2.42.88-6.57L506.2,71.5l-1.52-9.85-6.95-1.1-.65,3.5,1.31,1.76-2.83,2.41,1.09,6.57,4.12,1.75.88,4.82-4.14-2.63-10.64-2-1.3,3.5-8.48,3.06-1.3-2.19-11.08,6.13-.22,4.16-4.35.66L461.45,89V86l-4.35-1.52-2.83,1.09,2.39,4.6,1.74,3.06v2.41l-3.26-.65-.65-.66-3.26,3.5,1.74,3.06-7.39-.21L448,103.7l-.65,1.31h-3.9l-2.83-2-.65-5.47-4.56-1.76V93.62l9.56,2,5.21.44,2.17-3.28-1.95-3.5-13.9-5.47L431.67,85,430,86.38l.51,3.24,2,.35-.47,5.1,6.29,14.78-4.55,7.21-.31,1.63,2.31,1.62-2.09,1.38-1.38,0,.26,6.36,1.91,2.7,0,2.63,2.44.23,3.74,1.42,4,5.45,0,1.43-1.29,2.21,3-.17,2.87.83,3.89,5.51,9.58.87-.41,6.55-3.3,2.83.68,1.11-3.26,3.5-.87,3.28,2,2.85,6.3,2.19,2.61-1.53,16.73,6.34.65-1.75-3.48-3.29V169.1l-2.17-.65.43-3.5,3.48-4.16-6.23-4.67.43-6.49,6.66-4.38,7.83.44,1.3,2.41,8,.44,5.87-3.28L503,142l.64-6.13,15.21-7.44,11.69,5.27,3.91-3.5L546,141.11l8.68-.87,3.05,3.06,8.25.87,5.43-7.44,7,3.07,3.69.66,3.69-3.29L582.44,135l2.83-4.38,8,2.63,1.73,3.5,3.48.22,2.17-1.53,5.87-.22.65,1.53,6.73.44,4.56-4.81,9.35,1.1,2.82-1.1.87-5.26-2.83-6.34,2.83-2.42h8.9l8.47,10.07,10.86,6.13H663l.43-2.63,3.91-2.41.43,14.23-3.47.22v3.5l1.95,2.41-.36,3.13,1.44.6.87-2.19,1.31.44.86.87,3.91-.87,3.91-11.39.43-14.23-5-11.38-6.3-7.66-3.05.44V110l-7.38-2.84,2.82-6.13,2.39-16.2,10-3.06,4.78-3.06h5.22l-1.32,1.76,1.31,2.18,4.56-4.81,2.61.22-.43-2.85-4.13-.87,2.83-10.29,3.73-3.52Z"/><path class="cls-1" d="M419.34,136.7l-1.29,2.39,4.66,0h1l-.18-1.36-.73-.85Z"/><path class="cls-1" d="M710.37,111.65,709.3,113l.09,2.08,1-.09,1.65-2.91-1.66-.42Z"/><path class="cls-1" d="M746,30.71,744,32l-.49,1.7,1,1.09,2.16-.73,2.16.73,1.21.36-.13-4L746,30.71Z"/><path class="cls-1" d="M457.77,31.06l1.49.59-1.05,1.8V36L456,37.35h-2.37l-1.34-1.65.14-1.8,1-1.35h2.08l2.23-1.49Z"/><path class="cls-1" d="M463.42,29.41V31.2l1.49,1.21,2.08-.15,1.79-1.65v-1.2h-1.63l-1.34.45-1.05-1.2-1.34.75Z"/><path class="cls-1" d="M471.91,29.56l1,2.25L475,32l1.49-.6-.74-2.1-1.94-.45-1.94.75Z"/><path class="cls-1" d="M480.39,26.56l-1.63-.3-1.49,1.5.75,1.35.44,2.1,1.94-1.49.45-1.65-.46-1.51Z"/><path class="cls-1" d="M489.47,42.46l-.45,2.1-3.42,3-7.3,1.65-6,9.9-1,2.85,6,1.51.88-3.6,1.79-5.55,4.62-2.4,3.87-3,2.83-1.2h1.49v-4l-3.27-1.21Z"/><path class="cls-1" d="M470.27,64.36l4,.45,1.34,4.64,3.43,3.6-1.2,2.4h-2.08l-1.94-2.24-4.31-.15-1.79-2.4V69l2.68-.76-.15-3.89Z"/><path class="cls-1" d="M533.09,13.22,531.15,12h-2.23l-.45,1.36-2.38,1.34-1.78.6-.3,1.8,4.17.3,4.91-4.19Z"/><path class="cls-1" d="M537.7,13.67l-1.05,2.24-2.08-.14-3.28,2.4-.89,3h2.08l1.2-2,2.82,2.1,2.68-1.2,1.94-1.65-.74-2.56-1-1.79-1.63-.45Z"/><path class="cls-1" d="M542,15.32l1,4.2,1.64,3.89,1.79-3.14,3.42-.75V17.27l-2.23-1.65-5.66-.3Z"/><path class="cls-1" d="M623.69,8.59l2.32,2,1.65-.69.48-2.74-3.38-2.34-2.23,1.47-5.43.49V9.19l-5.73.09v4l6.69,5L619.81,17l-.39-3.52,4.27-1.07-.87-1.66-1.55-1.56,2.42-.59Z"/><path class="cls-1" d="M629.89,6.25l1.55,2.93,6-.68,1.65-2.15-.39-1.86-1.65-.69L635.52,5l-4.46,1-1.17.29Z"/><path class="cls-1" d="M629.5,17.68l-3-.78-1.73,1.86L624,21.3l4.07-.39,3.1-1.57-1.65-1.66Z"/><path class="cls-1" d="M707.46.78,704.94,0,702,1.07l-1.46,2.15,1.85,2.45,4.85-2.15,1-1.07L707.46.78Z"/><path class="cls-1" d="M708.39,116.74v3.66l1.16.42.83-1.33v-2.83l-2,.08Z"/><path class="cls-1" d="M674.58,103.49l-.07,5.34,6.69,10.33,2.39,9,4.22,8,1.65.58,1.41-1.17.66-1.91-6-6.58.17-3.42,1.32-.57.33-2-11.82-16.74-.91-.84Z"/><path class="cls-1" d="M721.2,86.92l-1.65.17,1,1.42,2.07,1.41.58-.66-2-2.34Z"/><path class="cls-1" d="M724.42,87.93l.25,1.41,2.56.76.25-1-3.06-1.16Z"/><path class="cls-1" d="M738.46,93.36l1.08,1.94,1.8-.12.36-1.33-3.24-.49Z"/><path class="cls-1" d="M756.59,96.39,758,99.05l1.08-1.21V96l-2.52.36Z"/></g><path id="rw" class="cls-1" d="M449.13,291.34l2.43,2.24-.11,2.39-3.77.08v-2.64l1.45-2.07Z"/><path id="sa" class="cls-1" d="M489.05,216.43l6.06,8.44,1.95,1.56.87,3.79,9.33.73,1.06.55-1.05,4.67-6.13,3.61-9,2.72-4.78,4.67-5.68-3.32-3.44,3L473.49,239l-3.29-1.5L469,235.73v-3.92l-11.95-14.45-.45-2.56h3.44l4.18-3.61.15-1.81-1.2-1.2,2.4-2,5.08.3,8.67,7.23,5.12-.23.33,1.26,4.27,1.64Z"/><g id="sb"><path class="cls-1" d="M753,308.29l1.07,3,1.89,1.84.57-.51-.19-2-2.14-2.6-1.2.26Z"/><path class="cls-1" d="M758.25,312.73l.13,2,1.2,1.14,1.13-.7-1-2.1-1.45-.31Z"/><path class="cls-1" d="M759.76,317.63l-1,1.08,1.07,2,1.26.38-.06-1.33-1.26-2.1Z"/><path class="cls-1" d="M762.23,316.48l.88,2.17,1.7,2,.94-1.52L764.49,317l-2.26-.51Z"/><path class="cls-1" d="M766.64,319.73l.5,2.67,1.21,1.65,1-2.09-2.72-2.23Z"/><path class="cls-1" d="M768,325.7l-.44.76,1.46,1.91,1,.06-.63-2.48-1.4-.25Z"/><path class="cls-1" d="M764.81,329.5l-1.51.7,1.32,1.85,1.13-.64-.94-1.91Z"/></g><g id="sc"><path class="cls-1" d="M504.91,307.28l-.53,1.06,1.45,1.19,1.05-1.19-2-1.06Z"/><path class="cls-1" d="M512.28,299.33l-1.58,1.06,1.19,1.86h1.58l-1.19-2.92Z"/><path class="cls-1" d="M512.94,304l-1.06,1.19.79,1.19,1.44.27.13-2.52-1.3-.13Z"/></g><path id="sd" class="cls-1" d="M435.38,263.44l-2.55-1.5-2.33-4.59.13-4.27,3.23-2.77h0l.15-10.23,2.13.06-.24-5.68,22.3.2,3.19-3.22,6.88,11-3.77,4.44v6.79l-4.6,9.89-1,2.3-3.71-5.32L452.44,264l-3.06.84-9.94-1-4.33,1.54Z"/><g id="se"><path class="cls-1" d="M414.46,87.93l1.7,1.56h3.17l1.75,3.36.47,5.74-4.27,3v3l-3,4.16-1.75.15-2.38,4,.16,3.84,4.12,3-.32,1.75-1.58,2.4-2.37,2.07.15,6.88-3.65,1.28-1.27,2.71h-1.74l-.95-4.79-4-6.08L402,120.6l.22-13.48,2.25-1.23.55-7.71,6.4-9.17,3.07-1.08Z"/><path class="cls-1" d="M415.13,127.34l-1.82,1.44.91,2.12,1.62-1.58-.71-2Z"/></g><path id="sg" class="cls-1" d="M627.55,286.11l.68.39,1.55-.12-.13-1.17-1.26.2Z"/><path id="si" class="cls-1" d="M411.94,163.48l-2.19,1.32-4.1.9.82,2.37,2.87,0,2.65-2.21-.05-2.41Z"/><path id="sk" class="cls-1" d="M412.84,159.28l.6.53.07.9,6.6-.15,4.87-2.1-.07-2.13-.94.41-1.34-.72-.82,0-2.16.86-2.94-.71-3.87,3.14Z"/><path id="sl" class="cls-1" d="M342,268.2l4.88,4.72,3.48-4.23-2.17-3.41-3,.3L342,268.2Z"/><path id="sn" class="cls-1" d="M341.66,257.18l-5.79-.14h0l1.07,2.6.59-1.6,7.27.76.81,0,3.41.12.12-1.51L346,253.65,342.56,249l-2.15-.9-1.67.42h0l-3.4,2.48-.78,1.38-.24,1.38,1.25.9,4.19-.06,2.69-.73.3,1.32-.24,1.75Z"/><path id="so" class="cls-1" d="M495.94,260.35l3.77-1.45,1.34.8-.14,3.36L497.42,273l-18.85,20.19-2.19-1.5-.14-8.52,2.83-3.26,6-1.86,8.82-9.32,2.31-2.06.65-3-.93-3.29Z"/><path id="sr" class="cls-1" d="M237.62,275.12l1.76,1.62,2.73-1.69,2.49.07-.32,1-1.05,2.18-.16,5.42-5,2,.24-3.47-3.2-3,.16-1.54,2.32-2.59Z"/><path id="ss" class="cls-1" d="M458.57,266.43l-2,.9.65,3.55h2.54l3.45,5-2.77.36-.71,1.29-.07,1.85-8.3-.14-.85-1.29-5.8-.33-10.64-11,1.06-.64,4.52-1.37,9.89.76,3.37-.76,2.23-3Z"/><g id="st"><path class="cls-1" d="M391.14,289l1-.5.74.61-.74,1.14-.9-.35-.1-.9Z"/><path class="cls-1" d="M393.14,285.81l1.5-.25.5.95-.75.8-.74-.1-.51-1.4Z"/></g><path id="sv" class="cls-1" d="M158.54,253.63l4.06,2-.06-3.21-2.08-1.27-1.92,2.46Z"/><path id="sy" class="cls-1" d="M456.78,195.59l-.3,2.2,2.43,1-.1,6.08,2.44,0,2.43-1.84.92-.16,5.53-4.4,1.12-6.39-11.06,1.13L459,195.74l-2.24-.15Z"/><path id="sz" class="cls-1" d="M451.76,355.39l-2.17.36-.93,2.55,1.66,1.52h2l1.71-2.45-2.28-2Z"/><path id="td" class="cls-1" d="M410.2,253.39l.12-2.55,4.09-4,1.1-9.79-2.73-5.22,1.91-1,18.5,9.64-.11,9.46-3.26,2.77v4.88l2.13,4.13h-3.77L422,267.92l-.17,1.87-4.61-.06-.06.84-2.62-.34-1.8-3.4-1.35-.66.17-1,1.69-1.3v-6.06l-2.34-.37L408,255.3l2.16-1.91Z"/><path id="tg" class="cls-1" d="M377.73,275.22l2.31-1.36-.05-8.94-1.5-2.44-1,.81.21,11.93Z"/><path id="th" class="cls-1" d="M615.28,231.32l2.8,3.61v4.38l1,.48,4.46-2.14.87.29,5.32,6.14-.19,4.19-1.74-.29-1.55-1-1.16.1-2,3.4.39,1.85,1.64.88-.09,2-1.16.59-4-2.73v-2.44l-1.64-.09-.67,1.07-.35,10.91,2.57,4.68,4.54,4.39-.19,1.27-2.42-.1-2.22-3.31h-2.32l-2.91-2.34-.87-2.44,1.25-2.05.44-1.85,1.36-2.42-.06-5.56L613,248l-.14-.59,1.09-1.08-.26-3.83-4.44-5.63.52-3.24,5.51-2.33Z"/><path id="tj" class="cls-1" d="M529,180.64l3.55-4.4h1.35l.46,1-1.64,1.19v1l1.08.77,5.2.32,1.69-.73.77.15.52,1.66,3.08.31,1.55,3.27-.46,1-.62.05-.61-1.25-1.34-.1-2.32.31-.15,2.18-2.32-.15.11-2.75-1.7-1.66-2.57,2.12,0,1.4-2.27.78H531l.11-4.82L529,180.64Z"/><path id="tm" class="cls-1" d="M497.56,177l-.53,2.27h-3.59v3.08l3.85,2.54-1.19,3.48V190l1.6.27,2.13-2.81,4.79-1.07,10.23,3.88L515,193l5.71.54,6.38-6.7-.79-2.15-4.26-.93-12-7.77-.53-2.81H505L503,177h-5.45Z"/><path id="tn" class="cls-1" d="M394.75,194l4.78-1.92,1.57,1,.06,1.24-.73,1,.11,1.7.73.4v3.06l-.84,1.42.11.9,3.2,1.14-2.58,4-1-.06-.17,3.23-1.13.17-1-.85.23-3.28L395,204.12l-.4-2.66,1.53-1.2L394.75,194Z"/><path id="tr" class="cls-1" d="M442.05,180.32l-2.31-1.43-1.27-1-2.14.91h0l-1.48,3.74,2.22-.5,1.57-1.19,3.43.94-1.94,1.88-5.18-.25L433,185.5v1l1.22,1v1.13l-.51,1.33.51,1.12,1.63-.81,1.62,1.74-.4,1.22-.61.82.91,1,4.46.91L445,194.7v-1.94l1.52.31,3.65,2.14,3.95-.61,1.72-1.64,1.11.41v1.84h1.52l1.32-2.55,11.54-1.23,5-.61-1.33-1.75,0-2.36,1-1.21-3.68-2.95.19-2.55h-2l-3.35-1.65h0l-1.93,2-7.09-.2-4.25-2.55-4.08.36-4.55,2.73Z"/><path id="tt" class="cls-1" d="M228.2,261l-.91.85-1,.15v1.23l1.84,1.69.76-1.23.45-1.38-.15-1.15-1-.16Z"/><path id="tw" class="cls-1" d="M664.92,212.17l-3.06,2.33-.16,4.5,2.64,3.08.66-.58-.08-9.33Z"/><path id="tz" class="cls-1" d="M461.45,318.43l13.8-1.69-3.39-6.57-.19-6.29,1.1-3-14.37-9-4.5.75-1.56,1.15-.14,2.64-1,3.66-1.06,1.25-1.51.14,2.81,9.42,4.81,2.84,4.2.1Z"/><path id="ua" class="cls-1" d="M429.89,147.2l-2.5,1.41.62,2.66-2.32,4.89,0,2.15,1.09.69,7,.34,1.95-1.61,2.09.7,3,4-2.19,3.94,2.61.76,3.41-3.93,1.95.35,1.82,1.27-1.6,2.1L449,170.3h2.3l1.18-2.25,2.44-.5.07-1.82-4.53-.7.14-2H455l4.74-3.8,2.09-1.82.35-5.76-9.34-.84-3.83-5.4-2.64-.91-3.21.14-1.44,3.57-6.57.09-2.14-1-3.1-.15Z"/><path id="ug" class="cls-1" d="M449.54,290.64l2.62,2.45,1.65-1,4.44-.73.76.08.28-1.69,2.51-5.27-2.11-4.39-6.83,0-.05,1.81.92.88-.14,1.81-4,6.05Z"/><path class="cls-2" d="M112.82,134.4l-.86,3.47-3-2h-1.5l-.87,3.69L96,163.26l2.8,20.61,3.45,1.73.64,5.65H110l6.89,5.2,13.56,1.31,1.5,6.94,2.16,1.52,3-3,2.37,1.08,2.15,10,3.66,2.39,3-5.65,9.26-6.72,6,2.81,5.17.44.22-3.25,10.76.21,2.15,2.39.43,5.42-1.29,3,1.51,5.21h3.23l3.23-5-1.29-2.39-1.28-5.2,1.93-5.86,8.83-7.59,6.67-2-.86-6.3,9.26-10,9.25-1.52-1.5-5.19,9-5.21V157.4l-.86-.43L225,158.05l-.43,4.25-10.74.13-8.42,5.6-13.22,4.32-2.11-2.59,6-9.07-3-2.83-2-3.84-4.17-3.35-4.54-.38-8.58-5.85-61-10Z"/><path class="cls-1" d="M44,43.64l3,5.6,1.92-.44V46.87L44,43.64Z"/><path class="cls-1" d="M27.16,92.84,27,95.44,28.88,95V93.85l-1.72-1Z"/><path class="cls-1" d="M24.29,94l-3.73,1.89.57,2,1.44-1.16,2.87-1.3L24.29,94Z"/><path class="cls-1" d="M8.77,96.45l-2.58-.58L5.76,97,6,99.2l2.73-2.75Z"/><path class="cls-1" d="M3.31,96.31l-2.45-1L0,96.89l1.58,1.59,1.73-2.17Z"/><path class="cls-1" d="M64.72,36.33l-7.25,1.72L59,46.22l7.89,2.15.43,1.72L55.55,53.75l-6.62,11,2.35,11.61,3.83,2.57,3-2.79L59,77.82l-3.63,4.3L41.25,88.57l-9,2.15-.22,3.22,20.69-6,8.54-2.37,7.89-9.68,8.75-5.8L73.46,77.6l4.91.65,8.32-3.65,1.5,6,5.75,1.29,6,5.8.42,4.3-.85,1.07,1.06,4.08h1.5l.21-6.88H104l.43,17,4.27-3.65-3-17.63h-4.48l-4.91-6.23,24.11-40.84L96.5,20.19,69.83,25.35l-1.06,8.17L74.52,37l-2.13,5.59-7.67-6.22Z"/><path id="uy" class="cls-1" d="M243.87,370.89l-1.78,1.89.74,10.19,5.56,1.61,7.08-7.1-11.6-6.59Z"/><path id="uz" class="cls-1" d="M527.88,186.89l2.66.13v-4.55L528,181l4.25-5.36H534l1.73,2,4.52-1.73L534,173.77l-.24-1.29-1.49.36-1.46,2.54-6.3-.21-4.63-6.54-8.12.8-3.87-3.84-5.36-.9-3.89,1.58,2.25,7.5,0,2.53,1.64,0,2-3.84,5.35.07.8,2.95,11.49,7.62,4.44,1,1.22,2.74Z"/><g id="vc"><path class="cls-1" d="M228.06,255l-1.07.77.84,1.54,1.38-.77L228.06,255Z"/><path class="cls-1" d="M226.76,258l-1,1,.38.61h1.21l.38-1-1-.6Z"/></g><path id="ve" class="cls-1" d="M200.73,262l.38,2.24,2.81.89.64-4.13,3-3.06,3,3.47,6.82,1.86,5.78-1.21,3.93,4.85,3,1.86-3.25,4.95,1.09,3.75-1.86,2.3L224,281.36l-4.18-2.11-1,1v3l3,1.46-2.24,2.43-2.25,2.43-3-.25-3-3.27-.63-12.33-10.18-3.47-1.85-5.42,1.88-2.82Z"/><path id="vn" class="cls-1" d="M628.27,260.7l1,1.61.19,1.85,2.71.3,3.29-4.39,3.09-.87,1.64-4.48-.77-7.21-3.19-4.38-3.36-2.69-4.28-7.35,3.07-5.13-4.39-5-3.52-.15-3.16,1.7.94,4.07,4.22.74,1.13,3.14-1.49,1,.1.78,9.9,9.68.38,2.84-.59,9-6.93,5Z"/><g id="vu"><path class="cls-1" d="M780.24,340.89l-1.07,1.43.45,1.62.53.36,1-1.26-.89-2.15Z"/><path class="cls-1" d="M780.77,345.29l.09,1.17,1.16.36.8-.45-.8-1.26-1.25.18Z"/><path class="cls-1" d="M782.47,355.71l-.54.81.81.9,1.34-.45-1.61-1.26Z"/></g><g id="ye"><path class="cls-1" d="M478.67,247.54l1.24,3.7v3.61l3,2.72L504,249l.2-2.36-3.38-6.06-8.48,2.7-4.86,4.79-5.65-3.34-3.13,2.83Z"/><path class="cls-1" d="M502.55,256.55l1.84,2.06,2.49-1.51.9-.3-1.15-1.11-2.18.65-1.9.21Z"/></g><path id="za" class="cls-1" d="M446,346.43l-6.83,6.31-1.62,3.9L432.1,356l-4.5,4-3-.3.25-5.53-1.07-.37L423,365.08l-5.31-.05-1.6-1.88-2.34,0,2.14,6.13,3.81,3.6L417,376l1.77,4,4.08,1.56,3.25-2.77,9.31.06.67-.83,4.13-.73,14-13.92-.06-4.38-1.49,1.94h-2.24l-2.72-2.29,1.38-3.44,2.38-.48-.22-7.07L446,346.43Zm-3.27,16,1.3-.05,2.12,2.3-.06,2.66-2.48,1.25-.15.88-3.79.05-1.19-2.86,1.08-2.09,3.17-2.14Z"/><path id="zm" class="cls-1" d="M429,330.07l2.74,3.8,4.25.26,1.5.83,4.44.05,3.83-5.37,10.7-4.79.94-4.22-1.25-6-5.58-3.18-3.73.26L445,315.78l.05,1.88,4.39,2.14.26,4.64-3.77.21-.94-1.57L434.5,318.6l-.32,3.44-5,.16-.21,7.87Z"/><path id="zw" class="cls-1" d="M437.75,336.64l7.76,8.75,5.94,1.52,4-6.25-.31-8.28L448.66,329l-2.43,1.1-3.62,5.52-5-.05.15,1Z"/><rect class="cls-3" x="633.85" y="222.52" width="74.61" height="23.1"/><rect class="cls-3" x="33.97" y="228.9" width="74.61" height="23.1"/><rect class="cls-3" x="203.98" y="203.52" width="99.08" height="23.1"/><rect class="cls-3" x="265.51" y="148.67" width="74.61" height="23.1"/><rect class="cls-3" x="427.68" y="166.41" width="74.61" height="23.1"/><rect class="cls-3" x="589.68" y="406.91" width="74.61" height="23.1"/><rect class="cls-3" x="561.23" y="150.95" width="74.61" height="23.1"/><line class="cls-4" x1="697.73" y1="172.73" x2="670.59" y2="226.08"/><path class="cls-5" d="M668.88,225.08a2,2,0,1,0,3.52,1.79,2,2,0,0,0-3.52-1.79Z"/><path class="cls-6" d="M668.65,225a2.24,2.24,0,1,1,1,3,2.24,2.24,0,0,1-1-3Zm3.52,1.79a1.71,1.71,0,1,0-2.3.75,1.71,1.71,0,0,0,2.3-.75Z"/><line class="cls-4" x1="199.84" y1="185.9" x2="212.4" y2="213.38"/><path class="cls-5" d="M210.56,214.1a2,2,0,1,0,3.59-1.64,2,2,0,0,0-3.59,1.64Z"/><path class="cls-6" d="M210.32,214.21a2.24,2.24,0,1,1,3,1.1,2.24,2.24,0,0,1-3-1.1C209.81,213.09,210.84,215.33,210.32,214.21Zm3.59-1.64a1.71,1.71,0,1,0-.84,2.27,1.71,1.71,0,0,0,.84-2.27C213.52,211.71,214.31,213.43,213.91,212.57Z"/><line class="cls-4" x1="369.04" y1="150.23" x2="333" y2="160.4"/><path class="cls-5" d="M332.57,158.47a2,2,0,1,0,2.44,1.37A2,2,0,0,0,332.57,158.47Z"/><path class="cls-6" d="M332.5,158.22A2.24,2.24,0,1,1,331,161a2.24,2.24,0,0,1,1.55-2.76Zm1.07,3.8a1.71,1.71,0,1,0-2.11-1.18,1.71,1.71,0,0,0,2.11,1.18Z"/><line class="cls-4" x1="392.94" y1="155.86" x2="435.85" y2="177.25"/><path class="cls-5" d="M434.87,179a2,2,0,1,0-.88-2.65A2,2,0,0,0,434.87,179Z"/><path class="cls-6" d="M434.75,179.2a2.24,2.24,0,1,1,3-1,2.24,2.24,0,0,1-3,1Zm1.77-3.53a1.71,1.71,0,1,0,.76,2.29,1.71,1.71,0,0,0-.76-2.29Z"/><line class="cls-4" x1="716.85" y1="402.08" x2="655.97" y2="418.91"/><path class="cls-5" d="M655.55,417a2,2,0,1,0,2.43,1.37A2,2,0,0,0,655.55,417Z"/><path class="cls-6" d="M655.48,416.73a2.24,2.24,0,1,1-1.56,2.75,2.23,2.23,0,0,1,1.56-2.75C656.67,416.4,654.29,417.05,655.48,416.73Zm1,3.8a1.71,1.71,0,1,0-2.1-1.19,1.72,1.72,0,0,0,2.1,1.19Z"/><line class="cls-4" x1="147.02" y1="198.56" x2="95.9" y2="239.13"/><path class="cls-5" d="M94.76,237.51a2,2,0,1,0,2.45,3.09,2,2,0,1,0-2.45-3.09Z"/><path class="cls-6" d="M94.6,237.31a2.23,2.23,0,1,1-.37,3.14,2.23,2.23,0,0,1,.37-3.14C95.56,236.54,93.63,238.07,94.6,237.31Zm2.45,3.09a1.71,1.71,0,1,0-2.13-2.68,1.71,1.71,0,0,0,2.13,2.68Z"/><path class="cls-6" d="M700,167.88a3.06,3.06,0,0,0-2.12-.86,3,3,0,0,0-2.12.86,2.84,2.84,0,0,0-.88,2.07,3.12,3.12,0,0,0,.88,2.2l2.12,2.2,2.12-2.2a3.2,3.2,0,0,0,.88-2.2A2.88,2.88,0,0,0,700,167.88ZM697.91,171a1,1,0,0,1,0-2h0a1,1,0,0,1,0,2Z"/><path class="cls-6" d="M201.94,176.6a5.08,5.08,0,0,0-7.07,0,4.81,4.81,0,0,0-1.46,3.45,5.27,5.27,0,0,0,1.46,3.67l3.54,3.67,3.53-3.67a5.28,5.28,0,0,0,1.47-3.67A4.78,4.78,0,0,0,201.94,176.6Zm-3.53,5.23a1.67,1.67,0,1,1,0-3.33h0a1.67,1.67,0,0,1,0,3.33Z"/><path class="cls-6" d="M374,141.36a5.06,5.06,0,0,0-7.07,0,4.81,4.81,0,0,0-1.46,3.45,5.23,5.23,0,0,0,1.46,3.66l3.54,3.68,3.53-3.68a5.24,5.24,0,0,0,1.47-3.66A4.78,4.78,0,0,0,374,141.36Zm-3.53,5.23a1.67,1.67,0,0,1,0-3.33h0a1.67,1.67,0,0,1,0,3.33Z"/><path class="cls-6" d="M396,147.38a5.06,5.06,0,0,0-7.07,0,4.77,4.77,0,0,0-1.46,3.45,5.23,5.23,0,0,0,1.46,3.66l3.54,3.68,3.53-3.68a5.29,5.29,0,0,0,1.47-3.66A4.82,4.82,0,0,0,396,147.38Zm-3.53,5.23a1.67,1.67,0,1,1,0-3.33h0a1.67,1.67,0,0,1,0,3.33Z"/><path class="cls-6" d="M721.22,393.69a5.08,5.08,0,0,0-7.07,0,4.85,4.85,0,0,0-1.46,3.46,5.25,5.25,0,0,0,1.46,3.66l3.54,3.67,3.53-3.67a5.26,5.26,0,0,0,1.47-3.66A4.82,4.82,0,0,0,721.22,393.69Zm-3.53,5.24a1.67,1.67,0,0,1,0-3.34h0a1.67,1.67,0,0,1,0,3.34Z"/><path class="cls-6" d="M150.56,191a5.08,5.08,0,0,0-7.07,0,4.8,4.8,0,0,0-1.47,3.46,5.28,5.28,0,0,0,1.47,3.66l3.53,3.67,3.54-3.67a5.27,5.27,0,0,0,1.46-3.66A4.83,4.83,0,0,0,150.56,191ZM147,196.23a1.67,1.67,0,0,1,0-3.33h0a1.67,1.67,0,1,1,0,3.33Z"/><path class="cls-6" d="M690.66,172.69a3,3,0,0,0-2.12-.86,3,3,0,0,0-2.12.86,2.84,2.84,0,0,0-.88,2.07,3.12,3.12,0,0,0,.88,2.2l2.12,2.2,2.12-2.2a3.2,3.2,0,0,0,.88-2.2A2.88,2.88,0,0,0,690.66,172.69Zm-2.12,3.14a1,1,0,0,1,0-2h0a1,1,0,0,1,0,2Z"/><line class="cls-4" x1="686.76" y1="176.73" x2="628.67" y2="162.29"/><path class="cls-5" d="M629.26,160.4a2,2,0,1,0,1.44,2.39A2,2,0,0,0,629.26,160.4Z"/><path class="cls-6" d="M629.32,160.14a2.24,2.24,0,1,1-2.71,1.63,2.24,2.24,0,0,1,2.71-1.63Zm-1,3.83a1.71,1.71,0,1,0-1.25-2.07,1.7,1.7,0,0,0,1.25,2.07Z"/><text class="cls-7" transform="translate(228.24 216.58)"><tspan class="cls-8">W</tspan><tspan x="8.33" y="0">ashing</tspan><tspan class="cls-9" x="35.82" y="0">t</tspan><tspan x="39.15" y="0">on DC</tspan></text><text class="cls-7" transform="translate(280.95 161.73)"><tspan class="cls-10">L</tspan><tspan x="4.6" y="0">ondon</tspan></text><text class="cls-7" transform="translate(606.71 419.97)">S<tspan class="cls-11" x="5.5" y="0">y</tspan><tspan x="10.15" y="0">dn</tspan><tspan class="cls-12" x="20.84" y="0">e</tspan><tspan x="25.81" y="0">y</tspan></text><text class="cls-7" transform="translate(452.71 179.46)"><tspan class="cls-13">F</tspan><tspan class="cls-14" x="4.95" y="0">r</tspan><tspan x="8.39" y="0">ankfu</tspan><tspan class="cls-15" x="32.21" y="0">r</tspan><tspan x="35.78" y="0">t</tspan></text><text class="cls-7" transform="translate(48.99 241.96)">Da<tspan class="cls-11" x="11.23" y="0">l</tspan><tspan x="13.81" y="0">las</tspan></text><text class="cls-7" transform="translate(657.87 237.58)"><tspan class="cls-16">T</tspan><tspan x="4.63" y="0">o</tspan><tspan class="cls-17" x="9.7" y="0">k</tspan><tspan class="cls-11" x="14.72" y="0">y</tspan><tspan x="19.38" y="0">o</tspan></text><text id="Osaka" class="cls-7" transform="translate(585.37 164.25)">Osa<tspan class="cls-18" x="15.93" y="0">k</tspan><tspan x="20.98" y="0">a</tspan></text><rect class="cls-3" x="114.83" y="128" width="60.24" height="23.1"/><path class="cls-6" d="M206.59,154.39a5.07,5.07,0,0,0-7.06,0,4.82,4.82,0,0,0-1.47,3.46,5.24,5.24,0,0,0,1.47,3.66l3.53,3.67,3.53-3.67a5.24,5.24,0,0,0,1.47-3.66A4.82,4.82,0,0,0,206.59,154.39Zm-3.53,5.24a1.67,1.67,0,0,1,0-3.33h0a1.67,1.67,0,1,1,0,3.33Z"/><text class="cls-7" transform="translate(126.78 141.04)"><tspan class="cls-16">T</tspan><tspan x="4.63" y="0">o</tspan><tspan class="cls-19" x="9.7" y="0">r</tspan><tspan x="13.19" y="0">on</tspan><tspan class="cls-17" x="23.55" y="0">t</tspan><tspan x="26.88" y="0">o</tspan></text><line class="cls-4" x1="203.06" y1="165.18" x2="165.56" y2="138.2"/><path class="cls-5" d="M166.8,136.66a2,2,0,1,0,.45,2.76A2,2,0,0,0,166.8,136.66Z"/><path class="cls-6" d="M167,136.45a2.24,2.24,0,1,1-3.12.51,2.24,2.24,0,0,1,3.12-.51Zm-2.31,3.2a1.71,1.71,0,1,0-.39-2.39,1.71,1.71,0,0,0,.39,2.39Z"/><rect class="cls-3" x="291.51" y="322.96" width="99.08" height="23.1"/><line class="cls-4" x1="270.92" y1="347.91" x2="305.49" y2="336.68"/><path class="cls-5" d="M306,338.59a2,2,0,1,0-2.48-1.27A2,2,0,0,0,306,338.59Z"/><path class="cls-6" d="M306.08,338.84a2.24,2.24,0,1,1,1.43-2.82,2.24,2.24,0,0,1-1.43,2.82Zm-1.22-3.76a1.71,1.71,0,1,0,2.15,1.1,1.71,1.71,0,0,0-2.15-1.1Z"/><path class="cls-6" d="M272.62,341.64a5.08,5.08,0,0,0-7.07,0,4.86,4.86,0,0,0-1.47,3.46,5.29,5.29,0,0,0,1.47,3.66l3.53,3.67,3.54-3.67a5.23,5.23,0,0,0,1.46-3.66A4.81,4.81,0,0,0,272.62,341.64Zm-3.54,5.24a1.67,1.67,0,0,1,0-3.33h0a1.67,1.67,0,1,1,0,3.33Z"/><text class="cls-7" transform="translate(315.77 336.02)">So <tspan class="cls-20" x="17.72" y="0">P</tspan><tspan x="23.36" y="0">aulo</tspan></text></svg>