<!-- "Simple SVG World Map" by Al MacDonald, edited by Fritz Lekschas, used under CC BY-SA 3.0 US / Modifed from original to add location pointers and text. -->
<svg id="83f4f5ec-2379-4569-9c2d-58c6b5478579" data-name="world-map" xmlns="http://www.w3.org/2000/svg" viewBox="0 0 784.08 458.63"><title>world-map_min</title><path id="3989d687-79c1-4f58-8e49-7e4ea1b7c4ea" data-name=" somaliland" d="M481.91,261.21l3.53,2.4,1-.05,8.76-3,1,3.21-.7,2.71-1.89,1.5-4.73-.3-6.77-4.16-.23-2.3Z" fill="#ede9e7"/><path id="410a01f2-9ae7-4c0b-9d4d-f7439b25a87b" data-name="ae" d="M497.7,226.54l.75,3,8.52.75.6-6.17,1.64-.9.45-2.26-2.69.75-3,4.52-6.28.29Z" fill="#ede9e7"/><path id="2ab57ef6-5a6f-42dd-867e-5074112947b5" data-name="af" d="M515.08,193.79l1.37,10.77,3.42.75.32,1.94-2.46,2,4.57,3.69,8.89-3.2.71-3.79,5.59-3.49,2.15-8.09,1.6-1.72-1.66-2.89,5.41-3.35-.69-1-2.5.15-.23,2.3-3.35,0-.06-3.07-1.08-1.29-1.82,1.65.05,1.52-2.74,1-5.06-.32L521,194.33l-5.88-.54Z" fill="#ede9e7"/><path id="7447d8fb-7d84-4b4d-82ba-d39cc833b6e0" data-name="al" d="M419.91,178.85v4l1.14,2.15.82-.1,1.41-2.57-.82-1.15-.32-2.84-1.09-1-1.14,1.53Z" fill="#ede9e7"/><path id="42d060e2-6456-424a-9270-aecc18fdb196" data-name="am" d="M476.7,179l4.15,5.41-1.22,1.43-2.94-.51L473,182l.2-2.15,3.46-.91Z" fill="#ede9e7"/><g id="743f2cec-dcd3-444c-b098-6cc57cfd0359" data-name="ao"><path d="M406.6,305.87l2.95,11-.07,3.48L405.17,325l-.65,7.53,16.6.15,5.39,2L431,334l-2.59-3.25V321.5l5.1-.22v-3.62l-4.14-.17-.83-8.58-1.75,0-.94-.85-1,.05-1.36,2.65h-5.26L417,309.56l.36-1.74-1.44-2.1-9.28.15Z" fill="#ede9e7"/><path d="M404.81,302.86l1.5,2,1.95-1.84-.57-1.91-.48,0-2.39,1.83Z" fill="#ede9e7"/></g><g id="9524258e-8447-4a98-ab6c-a67d26f2ccc6" data-name="ar"><path d="M248.28,359l1.68,1.57-6.37,9.47-2.24,2.48.78,10.81,4.92,6-4.13,7.21-3.13,1.35H236.2l1,5.63-5.59,1.92,1.34,4.73-3.35,10.7,4.14,3.38-2.24,5.52-3.8,6,2,4.16-4.92.79-4-5-.67-15.43-6.26-26.21,1.89-9.16-4-11.71,2.68-15.2,2.46-2.93-.6-2.22L219.4,350l7.05.48,3.94,4.21,4.55.08,4.67,2.85-1.37,3.22.33,3.25,6.61-.31,3.1-4.73Z" fill="#ede9e7"/><path d="M234,446l.23,5,3.8-.34,3.24-2.14-5.48-1.12L234,446Z" fill="#ede9e7"/></g><path id="264a7099-cb34-4856-b0bb-75e734e5a4c3" data-name="at" d="M399.69,161.87l-.56,1.17.48.83,2-.42h1.71L405.2,165l4-.72,2.9-1.73.74-1.17-.11-1.5-2.61-2-3.5,0-.29,2-3.68,1.8-2.9.1Z" fill="#ede9e7"/><g id="d09bb008-d794-4d36-8892-fe930a1ffa6c" data-name="au"><path d="M642.19,367.48l-.3,21.94-3.37,2.47-.3,2.16,4.6,3.09L654.17,395H660l2.15-3.09L675,389.41l9.2,2.78-.61,3.71,1.23,3.71,7.05-1.24.3,1.85-4.6,3.4,1.53,1.24,3.37-1.24-.92,10.2,6.44,4.94,3.68-1.24,1.84,1.85,10.73-1.55,10.12-16.38,3.68-.92,7.36-13.6,1.84-11.74-4.6-5.87,1.84-1.24-3.68-11.44-4-2.78.61-15.45-3.68-2.78-.92-8.65H721l-6.14,20.39-3.37.31L703.84,340l4.3-11.44-8-1.55-8.9,2.47-2.45,7.1-4,.92-.3-4.94-16.25,9.89.3,3.71-2.45,3.4H660l-13.19,5.56-4.61,12.39Z" fill="#b9b4b4"/><path d="M698,426.5l-1.53,6.18.3,4.32,4.6-.31,5.21-8L698,426.5Z" fill="#b9b4b4"/></g><path id="f98b420b-237b-4fc6-8083-f4e2d5fc0e4e" data-name="az" d="M478.16,177.08l-.87,1.49,4.07,5.34,1.42-.46,2.33,2.45,1-4.29,2.53.41-.1-1.23-4.16-3.65-.79,2.14-5.43-2.2Z" fill="#ede9e7"/><path id="7d37e6ae-e568-4e86-99f2-3b32634fec11" data-name="ba" d="M411.94,169.49l-.32.53,5.8,6,2.13-3.13-.08-1.23-1.86-2.26-5.67.11Z" fill="#ede9e7"/><path id="34abe1eb-ee22-4506-90fb-e8ea8dd3766d" data-name="bd" d="M585.49,216.32l-1.13,2,2.94,5.58.09,4.36.53,1.17,3.45.06,2-1.87,1.42.86.28,2.65,1.13-.71.07-3.39-1-.11-.6-2.88-2.4-.09-.6-1.6,1.47-2,0-1H588.9l-3.41-3.14Z" fill="#ede9e7"/><path id="9283bd24-f5a0-4538-99fc-78b845fd6161" data-name="be" d="M383.25,150.11l-.55,1.38,5.95,3.92.4.05.38-1.09.84-.59-1.34-1.5H388l-1.26-1.43-3.5-.75Z" fill="#ede9e7"/><path id="cc55204a-0e53-4333-abd1-5412939bf805" data-name="bf" d="M373.73,251.9l3.15-.25L382,259l-4.79,3.61-3.47-.89-4.66.06-.75,2.73-3.91.19-1.07-1.46,1.39-4.44,9-6.85Z" fill="#ede9e7"/><path id="2537239f-e14c-45f3-93e4-c8cd216388e5" data-name="bg" d="M426.33,172.48l.14,4.3,1.45,3,5.45.1,2.45-1.74,2.41-1-.59-2.75.55-1.47-1.23-.64-1.69.14L434,173.82l-5.55,0-2.08-1.38Z" fill="#ede9e7"/><path id="878ae025-8197-4f41-96f4-d84cb79cbcf7" data-name="bi" d="M447.74,296.79l3.69-.08-1,3.23-.93.81h-1.14l-.81-2.19.16-1.78Z" fill="#ede9e7"/><path id="8213aa95-7eed-4a5e-9438-ddd22a023ea8" data-name="bj" d="M380.74,273.7h1.83l.1-5.2,2.32-3.36-.1-5.85-2.1-.05-3.6,2.82,1.5,2.87.05,8.79Z" fill="#ede9e7"/><path id="7e600809-58ab-41d3-a1e7-d95bdd46fcd5" data-name="bn" d="M658.27,273.49l-2.49,3,2,.64,1.15-1.61-.7-2.05Z" fill="#ede9e7"/><path id="3f7d6a64-7d7b-44a6-80be-1f0abee9f9ff" data-name="bo" d="M207.86,319.77l7.11-3.1,2.35.23,1.57,6.53,10.84,3.6,1.79,5.52,4.47.56,1.9,4.73-1.34,4.28-7.27.56-2.68,6.87-5.71-.11-1.79-.34-3.29,3.2-1.62-.16-5.59-13,1.55-2.32.54-9.16-1.38-5.46-1.44-2.49Z" fill="#ede9e7"/><path id="f867b9c0-6857-40d2-8ee3-a8324e0b1489" data-name="br" d="M255.86,376.87l5.4-10.39.2-8.73,10.08-6.5h5.64l4.43-7.51.8-14.42-1.82-3.85,10.68-9.75L291.7,305l-14.51-7.1-17.53-5.48-8.26-.81,2.22-4.67-.6-7.1-1.81-.6-2.67,5.31-1.4,1.75-3.6-1.59-12.09,4.26-4-5.07.65-5.3-3.8,3.87-4.2-2.27-.42.6v1.84l3.62,1.95-5.44,5.73-3.43,0-3.48-3.53-3.93.12-.48,4.2,2.26,2.74-2.66,8.53-3.11.24-5,3.13-1.21,6.15,4.3,4.6.79-.89,3-.81L207.5,319l7.37-3.16,2.86.16,2,7,10.52,3.34,1.82,5.56,4.48.54,2.14,5.31-1.44,4.73,1.88,2.47-.28,3.68,5-.48,4.63,5.84-.36,4.1,2.74,2.32-6.57,10,11.57,6.47Z" fill="#ede9e7"/><g id="c93db297-84e1-497c-9bee-9a9999df6707" data-name="bs"><path d="M191.35,221.52l-1.09-.34-.09,2.1,1.34,1.35.92-1.35-1.08-1.76Z" fill="#ede9e7"/><path d="M193.52,224.81l-1.5.84,1.42,2,.75-1-.67-1.85Z" fill="#ede9e7"/><path d="M198.37,226.32l-1.59-.09.16,1,1.17,1.69,1-1.1-.74-1.51Z" fill="#ede9e7"/><path d="M197.62,224.3l-2.59-1.1-.5-2.61,1-.42,1,2,1,.76.09,1.35Z" fill="#ede9e7"/><path d="M195.11,219l-1.34-.34-.25-1.69-1.42-.5.92-.93,1.67.59,1.25.76-.83,2.1Z" fill="#ede9e7"/></g><path id="0a75cd8e-fc62-466b-8e32-1a44fbfa26e0" data-name="bt" d="M585.34,212l1.34,1.83,4.53,0-.46-2.51-5.41.64Z" fill="#ede9e7"/><path id="e5f080c7-c4c3-435a-b099-3b9099e0ca8d" data-name="bw" d="M423.79,353l1.86.57-.26,5.31,1.91.26,4.39-4,5.27.57,1.4-3.54,6.67-6.09-8-9.22-.1-1.51-.88-.26-2.43,2.24-6.31.15-.88,7.87-2.48.57-.14,7.05Z" fill="#ede9e7"/><path id="c6e4b45a-ed55-44e8-94b8-3916c80f1050" data-name="by" d="M425.65,141.27l1.3,2.14-.52,1.7.09,1.35.48,1.62,2.68-1.52,3.33.09,2.33,1h5.92l1.73-4.14,1-1.56v-1l-3.72-5.23-3.29-1.3-2.68-.3-2.33.74.09,2.35-3.24,4.1-3.2.07Z" fill="#ede9e7"/><path id="0b11c039-ac3f-41f8-82ae-e510008b5918" data-name="bz" d="M161.06,241.64l0,3.15h.73l2.47-4.61h-1.68l-1.48,1.46Z" fill="#ede9e7"/><g id="7ee91148-0bd9-4518-b8e4-2e8cde8d00c8" data-name="ca"><path d="M121,39.59l1.72,2.6.86,3.48,4.3,1.08,3-3.25,2.59,1.31,7.32.65L146,43.28l.86,7.16h3v-3l3,.22,7.54,8.89,5,3-2.58,4.12,1.08,1.08,9.67,2,.22,4.34,2.59.43L177,65l4.09-1.08,3,4.56,6.46,3,3.23.65,2.15-2.6.22-4.12L200,63l1.29,3.48-3.45,6.08.43,3,1.94-3,3.87-3.48.22-4.56-2.15-3.48.65-2.82,5.17-2.6,2.37,1.74.43,15.19,3.66-3.25,2.15,1.3-3,5.2,3.87.86,5.6-8.68,4.74,5-1.94,8.89-4.74,2.6-4.52-2.17-8.18,1.74.86,2.82-2.15,3.48-6.67,1.52-7.54,5.86-6.67,8.9-.86,2.82,4.52,1.74,1.72,4.34,6.24,6.29,9.91,4.34-2.15,10-.22,2.82,2.59,1.74,3.45-4.55.43-8.68,5.38-.22,2.58-5,.43-7.59,6.89-13.45,8.61,3,4.52,6.29-1.94,6.29,3.45,2,8.39-5.65,2.37,15.4,7.75,9.33.22,4.77-8.61,2.17-4.09,4.34-8.61-2-4.3-.22-7.54,5.86,4.52-1.08,5.6-1.08,1.08,1.3-1.5,4.77.22,4.34,2.58,1.74,2.58-.65,1.3-2h1.72l-2.8,5.2-5.39.21-2.37,3.48h-3l-.86-2.6,4.3-4.34-5.17,1.74-.23-7.37-1.49-.86-4.52,2-.43,3.69H213.18l-8.83,6.08-11.84,3.91-1.29-1.74,6-8.9-3.39-3.26-2.15-4.13-4.38-3.35-4.7-.39-8.43-5.9L113,133.6l-1-4.14-5.6-5.2v-4.34l.87-3.91-.43-2.17-2.15-2.17-.43-3.48,5.6-3.91-3.45-18.65-4.74-.22-4.3-5.64L121,39.59Z" fill="#ede9e7"/><path d="M99.92,108.53l-1.47,2.82.51,2,1,.6-.23.81-1,.29.29,3,1.11,1.11.88-1-1.11-2.89.66-2.3,1.62-2.15-1.18-2-1-.3Z" fill="#ede9e7"/><path d="M104.78,125.42l-1.32.52,2.43,2.82.59,3.34,2.43,2.59,2.06-.37v-3.41l-2.5-1.56-3.68-3.93Z" fill="#ede9e7"/><path d="M237.38,54.24l-1.53,1.55,1.34,2.13,6.33.77-4-4.25-2.11-.19Z" fill="#ede9e7"/><path d="M160.34,28.55l.19,3.48-6.9,7.15L155.36,45l5-1.35,2.88-4.25,7.28-2.71,5.94-.39-4.6-5L169.53,33l-1.73-.58-1-2.13-2.11-2.13-4.4.4Z" fill="#ede9e7"/><path d="M169.35,18.32,167.82,21l7.48,2.71L178,19.67l1.15,2.71H181l3.64-4.05-4.41-1.16-1.73-1.35-2.3,2.32-6.9.18Z" fill="#ede9e7"/><path d="M182.38,23.73l-5.94,2.51v1.93l7.67,2.9L182.38,33l1.15,2.51,4.79-2.13h4l1.92,3.09,3.26-3.29-.77-3.1-2.68,1-.38-3.86L195,24.86H193.7l-2.11,1.35-1,.77.58,2.71-1.53,1.16-2.3-.19-.58-3.48-4.42-3.45Z" fill="#ede9e7"/><path d="M190.24,17.74l-.58,1.93,3.64,1.74L196,19.86l-.19-1.16-5.55-1Z" fill="#ede9e7"/><path d="M193.11,14.45l-2.68,1,.19,1.35,5.94-.39L196.37,15l-3.26-.58Z" fill="#ede9e7"/><path d="M206,17.74l-.38,1.35-1,1.35v1.93l3.64-.58,3.83,3.29h1.34V21.78l-3.83-4.25-3.64.21Z" fill="#ede9e7"/><path d="M215.73,21.6l1.53,1.74-1.34,2.32,1,2.51,4.22-2.32V24.11l-2.49-2.9-2.88.39Z" fill="#ede9e7"/><path d="M221.29,17.16l.19,3.09h5.18L228,21.4l-.19,1.35-4.6.58,3.26,4.44,4.41.77,6.13-2.7-8.82-13.33-2.68,1.74.19,2.32-3.07-1.16-1.34,1.75Z" fill="#ede9e7"/><path d="M176.63,39l-7.28,1.93-4.22,3.67.38,4.05L173.18,51l-1.73,3.86-5.56-3.48-1.53,2.9L168,56.75l-.19,4.05,5.56,1.55,6.71-.39,1.15-2.13,5,5.6,3.45-1.16.58-3.86,2.49,1.74.38-3.86L190,56.36l.19-12.16-2.68-2.13-2.87,3.86-8-6.95Z" fill="#ede9e7"/><path d="M200,47.48l-2.49-1.16-1.34,1.74,2.68,4.25.19,4.05,5.75-3.48v-5l2.11-2.13L204.8,44.2h-3.45L200,47.48Z" fill="#ede9e7"/><path d="M212.28,45.74l-4,3.29,1,4.05h2.49L212.85,51l1.73,1.74,1.73-.19,4.6-3.86-8.63-2.9Z" fill="#ede9e7"/><path d="M211.89,39.36l-1,1.93,4.22,1.55,1.15-1.74-4.41-1.74Z" fill="#ede9e7"/><path d="M209.4,32l-4.22.58-2.49,2.32,4.6.19L206,38.59l1,1.55,1.34-.19,3.26-5.21L209.4,32Z" fill="#ede9e7"/><path d="M216.69,30.68l-2.3.77.38,3.09L218.6,37l.19,1.93-1.15,1.16.58,3.86L233,48.81l4,1.35,4-3.48-4.79-3.86L231.83,44l-6.13-.58-2.3-2.32-.58-6.37L219,32.79l-2.31-2.11Z" fill="#ede9e7"/><path d="M228.76,50.77l-4.22-.39-5,1.93L216.88,56l.77,10,8.24.39,7.86,3.86,5.56,6.37,4.22-.19-1.15,6-3.83,6.37-4.22,1.93-3.07-.58-1.53-1.35-2.3,3.09,1,3.09,3.26.19,4-1.93,3.45,8.89,8.63,5.6,5.94-7.53-5-8.11,2.88-3.28,4,6.76,7.28-6.37-1.34-2.9-5,1.55-3.45-9.47,3.26-5.4L249.86,66l-3.64,2.51L242.77,61l-7.28,1-1.92-9.08-5.94,4.05-.58,5H223.8l.38-4.44,4.57-6.76Z" fill="#ede9e7"/><path d="M231.25,32.42v1.74l-4.22,1L228.18,37,233,39l5.37.58,3.83,2.7L246,40.13l-2.68-2.7h3.45l2.11-2.32,5.18-.77V33.18l-2.88-1.93.38-2.13,8,1.35,11.89-4.63-4.41-1.35,1.15-1.55h9.2L279,21.4l-18.59-6.57L256,13.29l-4.79,3.48-5.37-4.44-2.88-.19-.58,3.67-3.64-3.29-4.22,1.35.77,2.13,6.33,1.35-.38,3.09,3.45,2.13,8.44-2.12.19,2.9-6.9,3.29-4.22-3.29-3.83.39,3.83,5.41-1.92,1-2.88-2.51-2.11,1.35,1.92,3.67h3.26l-.77,3.48L237,35.69,233.54,32l-2.29.4Z" fill="#ede9e7"/><path d="M214.17,85.57l-3.66,4.6-.23,5.07,3.2-1.84h3.88l2.74,2.53,2.51-2.08-8.45-8.28Z" fill="#ede9e7"/><path d="M258.7,145.39l-9.14,8.75.92,2.07,11.19,4.14,1.6-2.76-.92-4.6-3.66.46-2.06-2.3,3.42-3.45-1.36-2.32Z" fill="#ede9e7"/></g><path id="c376e1c9-c9ac-4ff6-bdf9-c1292b95ef03" data-name="cd" d="M407.26,305l8.91-.16,1.81,2.57-.07,1.89.67.6H423l1.27-2.5h1.81l.73.74,2.48-.07.73,8.71,4.29.14v.67l11.52,5.2.54,1h2.41l-.27-3.65-4.36-2.09.27-2.77,1.88-4.39,4.29-.14-3.68-12.22.07-5.2,5.83-9.11.07-1.28-.87-.48,0-2.47-1.06-.09-1.07-1.37-17.59-.79-3.23,3.14-5.28-3.47-1.86,1.14-1.35,11.35-3.34,2.58-1,2.28.18,3.38-6,4.92-1.6-.73.22.94-1.77,1.7Z" fill="#ede9e7"/><path id="c353c7c5-0f9a-41e4-bb42-23c88841bb67" data-name="cf" d="M412.68,277.64l4,4.36,1.59-2.06,2.53.1.54-2,2.49-1.56L429,280l3-3,11.57.51-10.74-11.08,1.44-.9.2-2-2.44-1.15h-3.58l-5.77,5.71-.2,2.35-4.57-.15-.15,1-3-.3-2.69,5.11.56,1.4Z" fill="#ede9e7"/><path id="59482471-5acc-477d-a6cc-ea34b19ee481" data-name="cg" d="M408.66,285l-.05,1.26,4.13.1.15,10.73-3.78-.1-2.19-1.7-1.69,1-.08.48.87.42.25,2.2-2.33,2,.5,1.06,2.58-2h1.24l.4,1.2,1.64.7,5.27-4.46-.1-3.26,1.1-2.65,3.38-2.51.91-8.48h-2.4l-2.78,3.81-7,.25Z" fill="#ede9e7"/><path id="d110e63f-f5a2-4f5c-bc18-dc5f6110ea68" data-name="ch" d="M393,161.23l-3.77,4,.08.4,1.55-.48,1.39,1.94,2.35-.83,1.63,1.26.67-.38,2-3.15-.51-.48-2-.05-1-2-2.45-.28Z" fill="#ede9e7"/><path id="e2183f42-e9d8-42b5-b8a5-d323f0ba284e" data-name="ci" d="M357.72,280l3.7-2.62,4.6-.81,4.69,1-2.39-3.62-.7-2.21.7-6.54-4.19.2-1.9-1.81-4,.1-1.9.3.2,4.42-1,.41-1.2,2.22,3.1,3.62.3,5.33Z" fill="#ede9e7"/><g id="f78bc219-ad94-4eee-a05d-63efb07c691e" data-name="cl"><path d="M230.62,441.92,226.93,450l6.37.67.11-5.4-2.79-3.38Z" fill="#ede9e7"/><path d="M229.37,440.65l-2.77,3.07-.34,3.6-5.37-3-5.71-8.22-1.68-2.93,2.35-3-.23-3.83L213,425.13l-2.13-1.57.45-2.14,2.79-.79.56-12.39-4.36-2.48-2.84-64.48.74-1.28,5.57,12.84,1.78,0,.58,2-2.37,2.87L211,373.24l3.87,11.9-1.79,9,6.31,26.48.67,15.49,4.52,5.23,4.79-.7Z" fill="#ede9e7"/><path d="M210.95,408.24l-1.12,1.69.56,2.93,1.12.11.56-3.72-1.12-1Z" fill="#ede9e7"/></g><path id="4538208a-9580-4099-90a1-601d5a71b819" data-name="cm" d="M397.26,277.84,400,280.4l-.2,4,15.27-.35,1.24-1.4L412,277.89l-.65-1.7,2.78-5.21-1.89-3.46-1.59-.86v-1.76l1.84-1.2.1-5.46-1.46-.16,0,2.87-6.41,12-3.92.2L398.07,275l-.81,2.87Z" fill="#ede9e7"/><g id="984ede72-833e-4908-8531-f1f376ef8bcf" data-name="cn"><path d="M563.73,144.54l-3,7.52-4.12-.22-4.35,9.52,3.69,4.7-7.61,10.5-3.91-.66-2.61,3.29.65,2,3,.22,1.52,3.5,3,.66,9.34,12v6.13l4.56,2.84,5-.87,6.3,3.72,7.6,2.19,3.69-.44,4.13-.44,8.69-5.69,2.83.44,1.08,2.57,2.4.72,3.26,4.81-2.17,4.81,1.31,3.29L611.8,223l.65,3.94,4.35.44.65-2,6.3-3.29,3.91.22,4.56,5,3-1.31,2,.22.87,2.41,1.52.22,2.17-3.06,8.69-3.29,7.82-9.41,2.61-9-.22-5.91-3.26-.66,2-2.19-.43-3.5-8.26-8.31v-4.16l2.39-3.06,2.39-1.1.22-2.41h-6.09l-1.09,3.29-2.83-.66-3.47-3.72,2.17-5.69,3-3.29,2.83.22-.43,5,1.52,1.31,3.69-3.72,1.31-.22-.43-2.84,3.48-4.16,2.61.22,1.52-4.81,1.78-.94.18-3L663.73,148l-.15-4.74,3.33-.22-.22-12.21-2.33,1.4-.86,3.13h-3.9L648.31,129l-8.16-9.84-8.28-.09L629.76,121l2.68,6.14-.93,5.76-3.34,1.38-1.88-.15-.14,5.7,2,.44,3.48-1.53,4.56,2.19v2.19l-3.26.22L630.27,149l-2.39.21-8.47,11.16-8.9,3.94-6.09.44-4.12-2.84L594.44,165l-6.3-2-1.52-4.16L576,158.17,570.32,149h-2.39L566,144.72Z" fill="#ede9e7"/><path d="M641,231.06l-2.06.58-1.49,1.83,1.24,2.41,1.81.16,2.07-1.83.49-2.41-2.06-.74Z" fill="#ede9e7"/></g><path id="401fb69f-6b99-400e-8707-b8fc972372c3" data-name="co" d="M203.56,256.66l-1.78-.18L190,266.18l-1.24,3.41-1.61.18.72,7.55-4.1,10.07,4.46,3.78,5.71.36,3.92,5.76,5.71.18-.18,4.31h2.13l2.32-7.91-2.14-2.69.54-5,4.46-.36-.54-11.69-10-3.23-2.32-6.29,5.72-7.92Z" fill="#ede9e7"/><path id="adb4c2dc-7aff-4915-86ab-a1910fc53151" data-name="cr" d="M172.14,261.15l1.2,2.35,1,1.3L173,268.7l-2.51-1.76-4.1-3.75V260.7l5.74.45Z" fill="#ede9e7"/><path id="040efa95-23b3-473c-ae5b-cbc413ddb842" data-name="cu" d="M175.14,228.26v1.1l4.6.09,2.17-1.26.34.93,4.51,1.1,4,3.62-.92,1.26.16,1.44,3.35.84,3.35-1.51,1.5-1.51-2.17-1.1-11.19-6.57-3.92-.42-5.78,2Z" fill="#ede9e7"/><g id="839992b2-f2f5-4c0c-9991-4dd62b7e5771" data-name="cv"><path d="M319.24,248.67l-1.64.94,1.17.94,1.41-.71-.94-1.17Z" fill="#ede9e7"/><path d="M323.28,250.57l-1.07,1,.76,1.41,1.83-.82-1.52-1.54Z" fill="#ede9e7"/><path d="M320.94,253.24l-1.37.82,1.48,2,1.17-.61-1.27-2.19Z" fill="#ede9e7"/></g><path id="d51dcace-7ccd-4f2a-8522-4c403f1aece0" data-name="cy" d="M453.79,196.2l1.06.77-3.29,3.12L450,200l-1.17-.82.16-1.53,2.39-.15,2.43-1.33Z" fill="#ede9e7"/><path id="a4127af9-5bf3-4dce-954e-7115856e335a" data-name="cz" d="M406.43,157.33h3.83l2,1.46,3.8-3.15L412.43,153l-3.65-1.77-2.5.45-3.39,2.18,3.54,3.46Z" fill="#ede9e7"/><path id="0e2fcbdb-018f-4e9c-8dce-d04aa1282b2c" data-name="de" d="M391.49,142.64l3.09-.5V140l2.58-.42,1.42,1.43,1.49.16,2.33-1,2.08.59,1.83,1.59.25,6,1.83,2.44L406,151l-4,2.52.34.84,3.58,3.35-.25,1.68-3.33,1.68-3.08.09-.75,1.59h-1.58l-.75-1.68-2.75-.67-.09-2.77-1.39-.77L392,155l-.41-1.33-2-1.82.41-2.85,2.16-1-.74-5.36Z" fill="#b9b4b4"/><g id="3edc1686-1507-4871-85f1-f4da849da7a0" data-name="dk"><path d="M396.36,128.48l-3.59,4-.13,2.58,1.64,4.26,2.56-.48-.32-3.48,1.76-2,0-1.55L397,128.59l-.64-.11Z" fill="#ede9e7"/><path d="M398.21,135.76l-1.06.23v1.58l1.13.88,1-.25-.24-1.5Z" fill="#ede9e7"/><path d="M401.54,134.26l-.95.23-1.06,1,.45,2,1.29.51-1.33.54-.26.68h2l.6-1.1-.77-.38.25-1,.92-1.2-.25-1Z" fill="#ede9e7"/></g><path id="bcf72535-7242-41a1-9e41-e8484053267e" data-name="dj" d="M478.22,258.18l-.49,2.9,3.42-.05.05-4.27L480,256l-1.73,2.19Z" fill="#ede9e7"/><path id="5e49de5a-3adb-4f20-b9c3-736de756e952" data-name="dm" d="M225.46,243.78l-.76,1.62.92,1.23,1.14-1-1.3-1.85Z" fill="#ede9e7"/><path id="da73d97f-c79f-418d-b450-983a3fd50c42" data-name="do" d="M211.67,239.94l-4.57-3-2.89-1-.58,5.52.58,0,.76,1.46,1-1.15,2.9-.77,2.52.54.29-1.54Z" fill="#ede9e7"/><path id="296a9759-a6cb-44c4-bc1a-cf6320b493f4" data-name="dz" d="M393.86,194.17,390.33,193l-14.68,2.76-3.2,2.43,2,10.09-5.83.23-3.51,5.65-8.36,2,0,4.11,27.53,21,4.69.4,15.65-12.23-1.57-2-2.94-.4-1.76-3V211.91l-1.18-1.18.2-3.15-3.13-3.15-.39-3.35,1.37-1-.59-3.55-.76-2.35Z" fill="#ede9e7"/><g id="e6797df3-d0d1-4f7d-a4d1-455c4ec6542d" data-name="ec"><path d="M183.22,287.84l-4.09,2.54-.29,3.77-.82,1.23,2.58,2.47-1.12,1.22.26,3.11,4.61,1.1,7-8.26,0-2.88-3.35-.22-4.74-4.1Z" fill="#ede9e7"/><path d="M152.77,289.85l-.54,2.38-1,1,.68,1.23,1.75-.69.84-1.46-.54-1.54-1.21-.92Z" fill="#ede9e7"/></g><g id="f7879d00-13fe-41b5-a092-3672b13f15f8" data-name="ee"><path d="M431.8,121.71l-4.84-.17-3.07,1.88,0,1.39,2,1.88,6.18,1-.22-6Z" fill="#ede9e7"/><path d="M421.47,122.45l-1.31.44,1.31.23.6.69.71-.85-.71-1.21Z" fill="#ede9e7"/><path d="M422,124.2l-1.86.83-.64,1.11.64.72,2.36-.87,1.14-.75Z" fill="#ede9e7"/></g><path id="20006b6a-affa-4945-883a-86a2241c091e" data-name="eg" d="M435.39,207.63l2.31.06,4.49,1.24,2.14.06,2.65-2.21h1.23l2.25,1.24h2.85l.51,0,1.8,5.17.51,1.67.48,2.5-.85.62-1.46-.73-1.69-5.5-1.52-.11-.11,1.87,1,3.23,8.1,10,.17,4.3-2.36,2.72-22.16-.25-.34-25.88Z" fill="#ede9e7"/><path id="3def12ed-9fb2-4524-8ba9-b73811d3dd80" data-name="er" d="M465.46,252.27l-.22-5.09,3.42-4,.93.71,1.69,5.64,8.09,6-1.47,1.81L472,252.27Z" fill="#ede9e7"/><g id="764c4599-1b26-44cc-8036-69307c423ed1" data-name="es"><path d="M371.8,174.73h-11l-2.22-1-1.07.08-1.3,2.7.46,2.77,4.21.39.54,1.77-1.83,10.33.08,1.85,3,1.62,3.44.23,6.88-1.69,3.36-4.23.08-4.31,6-5.39.3-2.39-5.43-.08-5.42-2.64Z" fill="#ede9e7"/><path d="M343.5,216.85l-1.51.87.7.71.81-1.58Z" fill="#ede9e7"/><path d="M338.24,217l-1.87.48.93,1.42h1.41l-.47-1.89Z" fill="#ede9e7"/><path d="M333.78,215.6l-1.18,1.18,1.64,1.42.93-2.13-1.4-.48Z" fill="#ede9e7"/><path d="M382.81,185.29l-1.37.47.3,1.23h2l.84-.92-1.76-.78Z" fill="#ede9e7"/></g><path id="12328aa0-5a3b-47e1-8c3f-6569953611ec" data-name="et" d="M459.21,267l6.29-14,6.25,0,5.54,4.81-.39,4h4.3l.44,2.39,7,4.16,4.29.22-8.15,8.76-11.19,3.45h-2.77l-4.94-4.22-2-.82-3.79-5.58-2.5,0-.29-2.56,1.93-.64Z" fill="#ede9e7"/><path id="a37b7494-efbd-41b9-96a1-98765bbc5daf" data-name="fi" d="M422.3,98.61l1.79.79,1.1,2.07-1.1,1.44L418.55,109l-1,3.2,1.27,4.63,4.28,3.2,5.71-2.71,4.6-.64,4.28-6.87-3.17-7.51-3-7.19.48-4.63-1.9-.32-.49-3.38-2.56-4.17-2.84,2-1.11,4.56-3-1.81-4.18-1L415,87.35l1.61,1.45,2.93-.05,2.36,3.81.43,6.05Z" fill="#ede9e7"/><g id="0f6edc2f-f97b-47e9-820b-d92f298df984" data-name="fk"><path d="M250.43,436.8l-2.27-.25-2.27,1.52,1.64,1.78,2.9-3.05Z" fill="#ede9e7"/><path d="M252.69,435.66l-.75,2.41L249.8,440l.13.63,3.65-1.4,1.51-1.9-2.4-1.64Z" fill="#ede9e7"/></g><g id="a4974755-c441-49d6-a5d8-64cb7f6bba76" data-name="fr"><path d="M382.21,152l-1.91.47-3.82,4.16-1.15.08-1.53-1.08-1,.23-.76,2.39-5.58.15.16,1.24,3.82,2.54,4.43,3.54-.08,4.24-2.37,4.16,5.13,2.46,5.2.15,1.61-1.85,3.29.08.92.85,3.29-.23,1.69-2.16-2.14-2.54-.15-1.62.46-1.77-1.07-1.54-1.83.54-.23-1.38,4.05-4.47v-2.7l-2.35-.77-1.43-1L382.21,152Z" fill="#ede9e7"/><path d="M245.4,275.69l5.06,3.15-2.65,5.26-1,1.21L244,283.7l.08-5.66,1.28-2.34Z" fill="#ede9e7"/><path d="M509.26,345.34l-2,.13-.13,1.72,1.31.27,2-.92-1.18-1.2Z" fill="#ede9e7"/><path d="M486.09,321.08l.66,1.46h1.05l.53-1.86-2.24.4Z" fill="#ede9e7"/><path d="M228.06,248.23l-.92.85.68,1.38,1.3-.38-1.06-1.85Z" fill="#ede9e7"/><path d="M397.27,176.42l-1.69,1.7-.15,1.54,1.37.85.54-.08.3-2.24-.37-1.76Z" fill="#ede9e7"/><path d="M223.33,242.47,222,243l.46,1.15,1.52-1-.3-.31-.38-.38Z" fill="#ede9e7"/></g><path id="b9f9552c-3fbb-48dd-8bb5-a520ace19a07" data-name="ga" d="M404.67,285.05l-.1,2.15-4.87-.1-3,5.77,7,7.67,1.74-1.45-.05-1.5-1.19-.55V296l2.69-1.7,2.39,1.81,2.64.05-.05-9.07-4.18-.2-.05-1.9-3,.1Z" fill="#ede9e7"/><g id="85887794-1f0a-4365-bdd9-42e8767bef36" data-name="gb"><path d="M369.86,126.39l-1.58,2.39.63,1h3.65v1.6l-1,1.28.63,3.35,2.06,4,1.58,3.67,2.53,1,1.11,1.92-.15,1.76-1.58,1-.16.8,1.11.64-1,1.28-2.22,1-4.28-.48-6.66,3-2.22-1.11,6.35-3.67-.8-.48-3.33-.32,2.06-3,.32-2.56,2.7-.32-.48-5-3.17-.15-1-1.11.15-3.67-1.9.16,1.9-6.39,3.49-2.56,1.13,1.11Z" fill="#b9b4b4"/><path d="M363.21,137.1l-2.85.32L360.2,140l1.9,1.28,2.06-.48.8-1.44-1.75-2.25Z" fill="#b9b4b4"/></g><path id="71de5f75-72f0-4671-bf7c-b1b741261024" data-name="ge" d="M464.38,174l2.83,3.69,3.53,1.63h2.17l3.73-1,.93-1.46-11-4.12L464.38,174Z" fill="#ede9e7"/><path id="f0c28bbe-e75a-43d7-87ca-90a782916152" data-name="gh" d="M368.32,271.59l1,2.27,2.52,4,1.4-.05L377,275.6l-.27-12.35-3-.86-4.14.11-1.34,9.1Z" fill="#ede9e7"/><g id="8ef12abc-7b82-464f-8a82-38af6e0f4118" data-name="gl"><path d="M261.82,40.81l-1.18,1.88,2.12,2.12-.94,2.12,3.06,4,3.76-1.18,4.94-.47,5.64,6.11L283,65.49l-3.05,6.35,4.23-.71,2.35,1.41.23,3.06-5.17.23,2.82,2.82,3.53.71-7.75,10.34L279.22,96l1.64,5.17-1.18,3.06,2.12,6.58,4,4.47,1.18-.23,2.58-.71.23,3.76,1.64,2.35,3.05-.23,2.35-8.7,7.05-8.7,10.58-4.23,6.58-8.23,3,1.41h6.35l5.17-5.17L342,84.06l.71-4-4-3.53-3.53-1.17-1.89-4.94,4.47-2.58,7.05,3.76L347.15,69l-3.76-2.12,8-10.81L350,51.38l-3.76-.23,1.41-4.23,4.7-2.12L362,36.34l-2.82-3.05-10.81.94-5.64,5.65,3.3-7.29-3.76-.94-2.12,3.76L337,32.82l-8.46.94L330.94,30l13.86-.47-3.53-4.7-15-2.82-6.11.94.23,3.06L314,23.9l.23-2.12-4.47.94-.94,2.35,4.7,1.64-4.94,3.53-3.53-4-4.94-1.41-.71,3.76h-4.94l-1.89-4-7.75-1.18-4.23,2.12-.23,2.82-5.4-.71-3.29,1.41.23,3.29V34l-6.11,1.18L263,33.31l-1.89,3.05,2.82,3.06,5.88-.71.47,1.89-4.47,2.12-4-1.91Z" fill="#ede9e7"/><path d="M280.63,77.48,282,79.59l-.71,2.58h-1.41L278,80.06l.47-1.64,2.13-.94Z" fill="#ede9e7"/><path d="M339.39,71.6l4,1.18-.23,3.29-4.23-2.12L338,72.77l1.41-1.17Z" fill="#ede9e7"/></g><path id="d0a67419-a8f5-417d-9a81-73d161ff6001" data-name="gm" d="M336,255.42l-.11,1,6-.09.3-.89-.13-.9-1.72.7-4.32.22Z" fill="#ede9e7"/><path id="07c53fee-bec2-4385-89e1-bfa771710d98" data-name="gn" d="M339,263.71l2.63,4,3.42-3,3.51-.15,2.92,3.88,2.48,1.64.93-1.82.83-.47-.06-4L354,259.13l-5.07.56-6.27-.5,0,1.61L339,263.71Z" fill="#ede9e7"/><g id="cc527a12-260a-4820-9f3d-6a3e0e825de3" data-name="gq"><path d="M396.42,280.54l-.4,1.7,1.19.65,1.14-.85-.4-1.76-1.54.26Z" fill="#ede9e7"/><path d="M400,285.11l-.05,1.2,3.92.2-.05-1.36-3.82,0Z" fill="#ede9e7"/></g><g id="984786bc-a7bc-4488-9c2a-ef00ff613e7c" data-name="gr"><path d="M422.24,185.62l-.1,1.15,4,2,1.91.73-1,1.05-2.23.23-.32,1,.77,1.74,2.5,1.33,1.09.1.14-3,1.64-2-4.46-5.27.59-1.79,1,0,1.59,1.28,1-.5.32-1.79,3.73.53,1.13-3.24-2,1.38-5.73-.14-3.73,1.93-1.94,3.26Z" fill="#ede9e7"/><path d="M430.92,196.85l1.41,0,.59.87h2l1.36-.5.46.55-.91,1.19-4,.14-.73-1-.77-.46.54-.88Z" fill="#ede9e7"/></g><path id="f6f91a9c-2156-4160-a057-66c14b35726a" data-name="gt" d="M152.69,249.52l5.13,3.75,5.17-6.42-.88-1.33-1.76-.06v-3.76l-1.32-.8-4,1.19,1.53,3.53-3.86,3.91Z" fill="#ede9e7"/><path id="eac54f62-29be-47db-9e4d-7a98735382c0" data-name="gw" d="M337.43,260.76l1.21,2.39,3.4-2.92,0-.9-4-.58-.64,2Z" fill="#ede9e7"/><path id="dfdcd345-2763-41ce-9854-35354943c4e8" data-name="gy" d="M230.63,269.06l6.24,5.65-2.48,2.87-.2,1.7,3.26,3.36-.08,3.23L231.7,288l-3.4-4.59.73-5.52-1.45-4.1,3.05-4.77Z" fill="#ede9e7"/><path id="4a481305-18be-4706-951c-91a29f386dc1" data-name="hn" d="M163.64,247.15l8-.3,2.37,2.82-1.48-.34-2.84.12L166,252.94l-1.59,3.54-1-.55V252l-2.3-1.54,2.63-3.36Z" fill="#ede9e7"/><path id="d5cf4c94-1678-46f2-803c-c2a6c901304e" data-name="hr" d="M412.65,166.23l-3.05,2.52h-3.1l-.37,2.18,1.42.37.71-1.05,1.11,1,.89,3.11,6.11,2.85.61-.69-6.2-6.4.63-1.17,5.89-.23.6-1.88-3.84.11-1.41-.71Z" fill="#ede9e7"/><path id="7adb9b0b-6f5b-4943-bf55-8b4d2622a614" data-name="ht" d="M201.08,235.57l3,.31-.35,3.65-.29,1.92-3.47-.19-.61.93-1.06-.08-.38-2,3.66-.3-.23-2.07-1.68-.69,1.44-1.47Z" fill="#ede9e7"/><path id="adeddce2-2600-4cfa-bb1d-15bd46d57e82" data-name="hu" d="M413.62,161.42l-1,1.57.08,2.4,1.6.82,4.92.15,6.85-5.77,0-1.28-.74-.37-5,2.25-6.79.23Z" fill="#ede9e7"/><g id="bea58a68-37e0-4fc2-8f27-0518d2d33c77" data-name="id"><path d="M608.75,272l-.24,2,5.87,9.86h1.71l12.23,20.46,4.89.49,2.45-7.15-3.92-2.46-.73-3.94L608.75,272Z" fill="#ede9e7"/><path d="M666.71,299.3l2,2.4-1.27,3.6V306h2.89l1-9,.93.26,1.69,8.21,1.61.43,1.53-3.51-1.53-5.31-1.27-2.31,4-2.91-.93-1.29L673.51,293h-1l-1.87-2.74.6-1.2,3.15-1.54,4.75,1.45,1.44-.09,3.57-3.34-1.44-1.45-3.31,2.57h-2.13L674,285.17l-2.29.09-2.55,4.11-1.62,7.1-.86,2.83Z" fill="#ede9e7"/><path d="M688,283.21l-1.62,3.93,2.55,3.34h.85l1.1-2.22.6-.77-1.1-1.2-1.62-.6-.76-2.48Z" fill="#ede9e7"/><path d="M693,296.14l-3.48.77-1,1.11.85,1.45,2.29-.85,1.44-.85,2.13,1.71.93-.77-1.69-2.06-1.45-.51Z" fill="#ede9e7"/><path d="M635.28,307.26l-2.38,1.63.51,1.36L641,312l3.82.68,1.61,1.71,4.33.34,2,1.71,1.87-.43,1.7-1.54L653.2,313l-2.72-2.31L643.44,309l-8.16-1.71Z" fill="#ede9e7"/><path d="M660,314.7l-1.86,1,1.1,1.2,2.72-1-2-1.2Z" fill="#ede9e7"/><path d="M663.22,313.93l.34,1.63,2,.51.76-.94-.85-1.29-2.2.1Z" fill="#ede9e7"/><path d="M667.9,318.21l-2.38.35,2.13,1.8h1.69l-1.44-2.14Z" fill="#ede9e7"/><path d="M668.57,315.39l-.51,1,3.82.6,3-1.71-1.69-.51-2.72.77-1-.86-.85.68Z" fill="#ede9e7"/><path d="M681.07,316l-4.42,3.68.42.94,1.87-.34,2.21-2.06,4.33-.6-.85-1.45-3.56-.17Z" fill="#ede9e7"/><path d="M703.36,290.85l-3.6.41L697.44,293l1,1.94,3.92.73v.73l-2.48,2,1.2,4.19,1.2.08,1-4.11h1.92l.81,4,9.36,7.75.24,6.05,3.2,3.47,1.44-.08.32-21.37-5.44-3.78L710,298l-1.84,1.13-3-1.94-.08-6.13-1.68-.25Z" fill="#ede9e7"/><path d="M659.92,277.94l-2,7.5-10.83,3.66-3.24-3.8-1.57.43,2.94,11.34,4.4.49,5.87,2.22V302l2.69-.49,3.92-5.42v-4.43l2.2-4.43,2.45.49-2.94-6.16-.45-4-3.43.36Z" fill="#ede9e7"/></g><path id="7fdcd1ff-50d0-4e7e-8723-4eddf9e5a12e" data-name="ie" d="M364.15,141.49l-.79,5.19-7,2.56h-2.22l-1.58-1.11v-1l3.49-2.24-1-1.92.16-2.71,3,.15,1.38-3.25-.18,2.89,2.34,1.86,2.31-.45Z" fill="#ede9e7"/><path id="7990086e-cfb9-4e9f-9686-25dca0a2fe8e" data-name="il" d="M455.61,203.31l-1.36,4.35,1.77,5.21,2-7.62v-1.63l-2.44-.31Z" fill="#ede9e7"/><path id="322e3fa2-3326-48bb-8e07-5d9f39295e51" data-name="in" d="M564.23,268.1l4-1.94,2.35-8.51-.1-10.44,13.47-14.54v-3.45l2.77-1.08-.1-4-3-5.82,1.71-3.12,3.74,3.45,4.81.22v1.94l-1.49,1.62.32.86,2.57.1.54,2.9h.75l1.93-3.45,1-9,3.21-2.27.1-3.12L601.44,206l-2-.1-8,5.26.5,3.38-5.58,0-2-2.41-1.07.14.36,3.35-12.08-.86-7.48-3.34-.4-4.11-5-3.09-.06-6.37-3.42-3.92-7.87.75.85,3.42,3.85,3.12-6.66,13.64-4.46.34-.73,1.64,4.39,4.06-.22,4.11-4.49-.07-.48,2,3.73-.16.1,1.62-2.67,1.4,1.71,3.23,3.31,1.08,2-1.5,1-2.69,1.18-.54,1.39,1.4-.42,3.45-1,1.62.22,2.8,14.2,29.48Z" fill="#ede9e7"/><path id="4ddd6d10-b62c-4f5e-90b0-5a7fa6cd1860" data-name="iq" d="M472,192l-1.35,6.66-5.58,4.65.35,2.2,5.45.37,8.69,7.07,4.86-.14.13-1.63,1.78-1.91,2.49,1.41.33-.31-4.82-6.4-2.28-.14-3-3.9.6-2.87.93-.12.32-1.27-4.13-4.35L472,192Z" fill="#ede9e7"/><path id="fc6e7c82-329b-44f1-bf2b-30efaede7086" data-name="ir" d="M476.64,185.92l-1.06,1.1.1,1.74L477,190.6l4.66,5.1-.71,2h-.81l-.41,2,2.64,3.37,2.43.21,4.86,6.73,2.73.21,2.13,1.53.1,3.06,8.41,4.9h3.14l1.93-1.63,2.43-.1,1.42,3.27,9.09,1.26.27-3.34,3-1.09.14-1.19-2.4-3.27-5.33-4.29,2.8-2.55-.2-1.12-3.51-.54-1.49-11.84-.17-2.72L504.64,187l-4.22,1-2.36,2.9-2.09-.14-.6.51-4.66-.3-5.88-4.29-2.19-2.39-1,.24-1.81,2.07-3.19-.6Z" fill="#ede9e7"/><path id="352663dc-969d-4063-9867-75fd77e94ee0" data-name="is" d="M335.49,98.93l-1.69-1-2.28,1.44-2,1.81.05,1,2.54.32-.16,1.82-.9.91.22.59,2.54.16V109l3.66.64,2.17,1.23,2.44.1,4.19-2.08,3.23-4.27.05-2.89-2-1.66L346,98.65l-.74.54-1.11,1.44-1.27-.16-1.27-1.39-1.64.16-2.39,2-1.44,1.55-.8-.69-.05-1.71.8-.54-.57-.89Z" fill="#ede9e7"/><g id="beb9fcfd-5796-499b-bae7-b383c15499e8" data-name="it"><path d="M392.47,167.8l-.54,1.36.15,1.48,2.07,2.41,3.25-.11,7.17,8.33,4.48,1.3,2.65,2.5.63,5.7,1.42-.83,1.23-3.1-.3-2.23,2.1-.19.3-1.26-5.92-2.83-5.62-5.52-2.24-3.3-.55-3.14,2.86-.68-.73-2.07-1.76-1.48-1.51-.07-2.11.58-2,2.78-1.2.8-1.86-1.14-2,.74Z" fill="#ede9e7"/><path d="M409.9,190.31l-1.25-.67-4.28.67.15,1.16,3.85,1.94.58.63,1,.15-.05-3.87Z" fill="#ede9e7"/><path d="M397,182l-2.29,1.16.3,4.47,1.83.31,1.37-1.31v-4.23L397,182Z" fill="#ede9e7"/></g><path id="a7221084-4293-42ca-a9a3-261a91d7d517" data-name="jm" d="M190.77,239.21l-3,.76v.84l1.76,1h1.84l1.17-1.35-1.76-1.26Z" fill="#ede9e7"/><path id="ec497d1f-38f7-455f-9efc-ce87bd0863d0" data-name="jo" d="M458.71,205.66l-2.13,7.42-.1,1.13h3.35l3.74-3.3.09-1.25-1.53-1.56,2.74-2.27-.4-2.11-.75.17-2.28,1.64-2.74.14Z" fill="#ede9e7"/><g id="43fca8e3-4e03-4822-97d0-a0d8135547f1" data-name="jp"><path d="M678.55,184.6,677.14,186l.58,2,1.24.09.83,4.33,1,1.08,1.74-1.58.15-4.77-2-2.12-2.12-.43Z" fill="#ede9e7"/><path d="M685.92,180.6l-2.66,2.16-.59,2.72,1.81,1.25,2.63-2.75.37-3.06Z" fill="#ede9e7"/><path d="M682.85,176.44l-4.22,4.83v2.32l2.6-.31,4.09-3.59,2.73-.5.66.78,0,2.38.69,1.25h1.26l1.76-2.16.74-2.84,3.55-.09,3.48-4.17-1.81-6.92-.83-3.66,1.82-1.5L695.24,156l-.94-.74-1.87.74-.48,2.58v2.08l1,1.17.33,5.5-2.56,3.16-1.48-.92-1.16,2.58-.25,2.41.91,1.42-.58,1.08-1.9-1.58h-1.32l-1.16.67-.91.25Z" fill="#ede9e7"/><path d="M690,138.8,688.64,140l.66,2.5,1.16,1.17-.09,3.83-1.49.58-1.16,2.58,3.39,4.66,2.23-.75.41-1.17-2.4-2.16,1.49-1.92,1.57.25,3.43,2.3.37-2.58,1.63-3,2.28-2.31-2.47-1.12-.94-1.8-1.24.83-1.07,1.33-2.32-.5-2.4-1.58L690,138.8Z" fill="#ede9e7"/><path d="M702.43,136.22l-2.32,3.25.16,1.58,1.16-.5,2.72-3.41-1.73-.92Z" fill="#ede9e7"/><path d="M705.49,131.48l-.83,2.25.09,1.5,1.41-.92,1.32-2.66v-1l-2,.83Z" fill="#ede9e7"/></g><path id="dbdba7b2-486e-4908-b196-51a78f8b2198" data-name="ke" d="M460.37,279.77l2.3,4.48L459.92,290l-.36,1.75,13.77,8.52,4.27-6.71-2.16-1.75,0-8.84,2.7-3-4.31,1.43-3.26,0-5.1-4.3-1.61-.69-3,.28-.53.88.06,2.08Z" fill="#ede9e7"/><path id="c68a1b63-a4d6-4673-bec5-0edaba6f545e" data-name="kg" d="M534.7,169.73l-.27,2.19.22,1.35,7.52,2.52-6.6,2.66-.75-.62-1.43.92.07.5.76.35,4.64.12,2.35-.71,3-3.8,3.78.66,4.56-6.31-12.19-1.66L538.68,172l-2.13-2.28-1.85,0Z" fill="#ede9e7"/><path id="eeaed8f9-1e4c-4a18-a77d-54ac1e233d2b" data-name="kh" d="M624.31,256.39l3.53,3.78,6.58-4.87.58-7.69-3.4,2.34-1.76-1-2.4-.32-1.34-.94-.65,0-1.75,2.88.28,1.33,1.78,1-.22,2.7-1.24.75Z" fill="#ede9e7"/><path id="8f4a2312-6983-4f6d-976a-2bd38eb5d45d" data-name="km" d="M483.59,318.42l.4,1.32,1.71.27.66-1.72-2.76.13Z" fill="#ede9e7"/><path id="7a0dd14b-4fbd-4151-82e4-9c7a15600212" data-name="kp" d="M657,165.46l1.59.67.48,5.57,3.16.18,3-3.48-1-.92.12-3.73,2.73-3.3-1.39-2.51.91-1,.5-2.59-1.58-.72-1.35.68-1.67,5.06-2.7-.23-3.12,3.68.37,2.68Z" fill="#ede9e7"/><path id="953c886a-2e33-41a5-a76e-79054f8ff66f" data-name="kr" d="M665.68,168.85l5.34,4.36.91,4.22-.18,2.26-2.61,2.94-2.25.12-2.55-5.51-1-2.63,1-.8-.24-1.1-1.27-.57,2.79-3.3Z" fill="#ede9e7"/><path id="333507ef-717b-44eb-86de-5109899a7342" data-name="kw" d="M488.43,211.18l-1.95-1.06-1.35,1.36.15,2.71,3.14,1.2v-4.22Z" fill="#ede9e7"/><path id="138bf32a-a82f-4b7e-b1f4-3831e31b3444" data-name="kz" d="M482.73,160.57l3.54-1.51,4-.14.28,6.05h-2.32l-1.77,2.89,2.32,3.85,3.41,1.93.31,2.2,1.26-.42,1.16-1.37,1.91.42,1,1.93h2.46v-2.47l-1.5-4.4-.68-3.57,4.36-1.93,5.87,1,3.68,3.71,8.32-.82,4.64,6.6,5.46.27,1.5-2.47,1.91-.42.27-2.75,2.86-.14,1.5,1.79,1.51-3.57,13,1.79,2.18-2.89-3.68-4.54,4.91-10.72,4,.27,2.73-6.59L557.5,144l-3.14-3-8.64,1-11.13-10.76-3.93,3.48-11.9-5.4-14.6,7.15-.41,5.08,3.41,4-6.66,3.76-8.64-.19-1.81-2.65L483.3,146l-6.41,4.12-.14,5.64,6,4.8Z" fill="#ede9e7"/><path id="80602106-0569-4840-a7dc-fe25e50203c1" data-name="la" d="M620,224.81l-2.09,1.06-1.74,5.07,2.9,3.7-.48,4.09.48.2,4.83-2.34,6.48,7.24-.16,4.56,1.41.76,3.48-2.83-.28-2.24-10.05-9.55.09-1.46,1.25-.87-.87-2.44-4.16-.68-1.1-4.27Z" fill="#ede9e7"/><path id="af419e69-fa46-4b1e-a0f9-8e42162071df" data-name="lb" d="M456.37,198.45l.05,1.69-.71,2.56,2.44.21.16-3.63-1.94-.82Z" fill="#ede9e7"/><path id="08eb3947-8462-4b12-b19e-d4db2803ffc7" data-name="lc" d="M228,251.69l-.61,1.31,1,1.07,1.3-.69L228,251.69Z" fill="#ede9e7"/><path id="365eac99-4be1-4bbd-a817-a02583be7ef5" data-name="lk" d="M572.5,263.81l.22,2.35.22,1.71-1.27.22.64,3.85,1.91,1.07,3-1.71-.85-4.05.22-1.49-2.76-2.56-1.29.62Z" fill="#ede9e7"/><path id="ae753421-6f78-454a-a87b-d3b2742ab9df" data-name="lr" d="M347.43,273.44l9.49,6.34-.23-4.8-2.87-3.38-2.8-2.48-3.59,4.32Z" fill="#ede9e7"/><path id="d4aa72cd-e46c-42f7-8ce3-98ceb23fecbf" data-name="ls" d="M440.13,365.24l2.64-2,1.24.05,1.5,1.88-.15,1.88-2.53.93v.73l-2.79-.16-.67-2,.77-1.25Z" fill="#ede9e7"/><path id="0ddadbac-3d59-42b9-9cf1-01836205747b" data-name="lt" d="M421.37,133.64l-2.15.36.17,2,3.36.25,1.27,1,.33,1.81,1,1.44,3.07-.13,2.94-3.74-.17-2.22-5.53-.87Z" fill="#ede9e7"/><path id="138f6fe2-5c81-4d98-9510-dd0a13b643a3" data-name="lu" d="M389.66,156l.76.68.88.08.19-1.73-.25-1-1.22.58Z" fill="#ede9e7"/><path id="8f850770-918d-4f09-a670-c23d050819ee" data-name="lv" d="M432.06,128.37l-6.36-1-1.09,2.82-1.83.55-1-1.17-1-1.81-1,.76-.59,3.13v1.71l2.24-.37,4.67.08,5.62,1,2.25-.66-.13-2.52-1.81-2.52Z" fill="#ede9e7"/><path id="db33a7e4-ecd2-43b0-a351-cde1f6da5618" data-name="ly" d="M399.19,211.93l1.35-.23.4-3.11h.67l2.76-4.53,6.8,2,1.86,2.89,6.69,3.06,3.48-1.47-.34-1.47-1.52-1.47.17-1,2.47-2.09h4.89l1.86,2.49,3.93.57.51,31.89-2.92-.11-17.65-9.18-1.91,1.08-7.25-1.81-2-2.6-2.87-.4-1.46-2.6,0-11.86Z" fill="#ede9e7"/><path id="4cfdea97-6d7a-42d7-8e99-694b1ec7093b" data-name="ma" d="M371.74,198.31h-10l-2,4.34-4.5,2.17-3.72,10.06-7.24,4.34L334.16,236l10-.2.39-4.93h2.54v-6.71h8.81l.2-8.68,8.42-2,3.53-5.72,5.48-.2-1.77-9.27Z" fill="#ede9e7"/><path id="9e10ec8d-3f82-4d0e-b9bc-43484301a16e" data-name="md" d="M434.37,159.79l2.68,4.12-.23,2.33,1,0,2.27-3.85L437.33,159l-1.55-.64-1.41,1.38Z" fill="#ede9e7"/><path id="a828c363-5769-491e-afbd-ab2d2228bc9d" data-name="me" d="M418.91,175.09l-1.27,1.79L418,178l1.5.27,1.18-1.61Z" fill="#ede9e7"/><path id="a9432970-43ce-4e55-bbf9-69682c41f265" data-name="mg" d="M496.22,319.88l-1.84,4.37-3.15,5.57-5.52.4L483.33,333l.4,8.49-3.42,4,.4,6.76,2.9,3.31,3.42-.4,3.42-2.52-.79-4L497.55,335,496,333.27l1.58-3.31,1.71.53.53-1.32-1.58-6.76-.92-2.78-1.06.27Z" fill="#ede9e7"/><path id="187b0f48-bf41-48ee-8849-b3b93c8813e5" data-name="mk" d="M425.88,177.33l-2.91,1,.14,2.47.68.87,3.46-1.61-1.37-2.7Z" fill="#ede9e7"/><path id="e4335422-0c8e-405c-920c-7f9c6576f873" data-name="ml" d="M346.82,253.25l2.66-1.82,14.8-.09-3.42-23.81,3.91-.11,18.9,14.43,2.54.36-1,8-11.89,1.08-9.17,6.85-1.67,4.69-6.37.27-1.62-4.68-4.88.35.19-1.53-3-4Z" fill="#ede9e7"/><path id="24d92738-6dbc-4475-98ff-002f0df8d84e" data-name="mm" d="M614.77,260l-2.4-3.84,1.74-2.44-1.64-3-1.55-.29-.29-5.06-2.32-4.49-.67,1.07-1.55,2.63-1.94.29-1-1.27-.48-3.41-1.45-2.73-5.91-5.58,1.45-1,.27-4,2.16-3.63.93-9,3.13-2.14.1-3.29,1.88.62,3,4.28-2.19,4.7,1.48,3.69,3.66,1.43.67,4,4.91.76-1.36,2.34-6.19,2.44-.67,4,4.55,5.84.19,3.12-1.06,1.07.09,1,3.39,5,.1,5.16-1,1.8Z" fill="#ede9e7"/><path id="c862e93b-f3d3-45cf-858a-5bb48be264df" data-name="mn" d="M566.67,144.62l5-6.67,6,2.79,4.1,1.1,5-4.61-3.41-2.52,2.25-3.17,6.71,2.37,2.33,3.81,4.2.11,2.2-1.63,4.52-.18,1,1.68,7.51.38,4.75-4.85,6.58.69-.38,6.6,2.88.66,3.53-1.61,3.74,1.85-.09.93-2.71.08-2.83,5.93-2.2.22-8.54,11.16-8.72,3.85-5.46.42-4.53-2.92-5.79,3.1-5.71-1.77-1.62-4.14-10.8-.76-5.53-9.38-2.69-.17-1.39-3.33Z" fill="#ede9e7"/><path id="fee0324b-21af-4152-a13d-947ffdae63d4" data-name="mr" d="M334.23,236.67l1.89,2.46-.39,10.65,2.74-2,2-.4,2.74,1,3.13,4.34,2.94-2,14.29-.2L360,226.71l3.79,0-7.05-5.4v3.51H347.8l0,6.7h-2.57l-.33,4.94-10.63.23Z" fill="#ede9e7"/><path id="9d25a715-86f1-4567-9816-9e17f6fc5bbc" data-name="mt" d="M410,196.75l-1.44.29.05,1.6,1.3.43.58-.48-.49-1.84Z" fill="#ede9e7"/><path id="5cf16ce0-b314-412c-8f1e-374493434883" data-name="mu" d="M514.12,342.42l-1.31,1.72.26,1.86,2.77-2.26-1.71-1.32Z" fill="#ede9e7"/><g id="4a8ff2d8-ebb4-48ce-b0db-ebb83dc8a2f0" data-name="mv"><path d="M551.63,274.79l.26,2.26,1.44.53.26-2-2-.79Z" fill="#ede9e7"/><path d="M553.47,279.57l-.13,2.78,1.05.53.92-1.86-1.85-1.45Z" fill="#ede9e7"/><path d="M553.74,285l-.92.92,1.06.92,1.31-.92-1.44-.92Z" fill="#ede9e7"/></g><path id="66a8b752-3190-4d79-b786-86dedb493bf5" data-name="mw" d="M457.2,325.48l2.69,2.81-.05,3.6.52,1.51,3.57-3.85-.41-4.9-1.91-1.46-1.7-8.6-2.95-.1,1.34,6.2-1.09,4.8Z" fill="#ede9e7"/><path id="0075f702-8aa4-44b2-a26e-900a0b2c7599" data-name="mx" d="M103.08,192.39l4.18,13.15-1.95,1.09.22,2.61,3.67,2.83v5.23l4.54,4.36-1.95-12.85-2.59-8.5.65-5.88,2.16.22.87,2-.87,5,11.24,22v7.84l9.08,10.67,9.94,4.57,4.11-2.4,5.84,4.79,3.46-3.48-1.51-3.92,5-1.52,1.51.87,1.51-1.52h2.38l4.32-7.62-2.16-2-8.43,2-1.95,5.66-5,.87-5.83-2.4-2.59-8.27,2-10.43-4-2.5-1.91-10-1.6-.68-2.92,3-3.35-1.79-1.31-6.68-13.29-1.39L109.62,192l-6.54.34Z" fill="#ede9e7"/><g id="b7009294-4854-4ddb-be1f-ad2dc8b57329" data-name="my"><path d="M617.59,270.2l1.74,3.9.39,5.06,2.32,3.6,5.1,3.08,1-.79,1.46-.29-.21-1.91-1.84-4.48-2.7-5.73-.23,1-3.25-.15L619,270.16l-1.45,0Z" fill="#ede9e7"/><path d="M644.76,285.3l2.61,3,10-3.47,2-7.64,4.46-.32,4.08-3-5.29-3.85L661.4,268l-2.61,4.81,1,2.77-1.59,2.31-3-.77-7.27,5.33.19,3.09-3.32-.2Z" fill="#ede9e7"/></g><path id="a7534a91-fe0f-44c1-abf8-43610d5cad1d" data-name="mz" d="M452,354.77l2.33,1.93,5.48-3.34.88-5v-8.18L469.5,333l1.51.05,5.32-5.11-.83-10.53-13.81,1.74.52,3.34,2,1.76.57,5.73L460,334.67l-1.14-2.6.21-3.44-2.74-3-6.73,3.13L455.9,332l.21,9.27L452,347.38l.05,7.39Z" fill="#ede9e7"/><path id="b4e6adb1-0604-4c5f-a831-614b9ba3c8fb" data-name="na" d="M413.45,362.27l2.9.21,1.7,1.72,4,.05,1-11.46v-7.5l2.58-.52,1-7.87,6.57-.21,2.32-1.93-3.93-.16-5.33.73-5.74-2.08H404.41l.42,4.58,5.38,7.92-.93,4.06.05,2.14,4.13,10.32Z" fill="#ede9e7"/><path id="e9522856-46e5-4f60-8811-9daf5eee43b7" data-name="nc" d="M767.94,361l-.3,1.55,4,5.56,2.15.93.3-2.16L767.94,361Z" fill="#ede9e7"/><path id="1b2263df-2f12-4903-9dd6-4580867c71a6" data-name="ne" d="M382.63,258.58l2.2-.05,2-3,3.34-.6,3.55,2.17,7.58.22,5.86-2.39,2.2-1.89.16-2.49,4.09-4.12,1.08-9.1L412,231.7,405.12,230,389.2,242.44l-2.26-.22-1,8.62-8.12.81,4.78,6.93Z" fill="#ede9e7"/><path id="27030240-66e2-429d-a039-3a4f356db8ec" data-name="ng" d="M383.22,273.59l3.39.16,4.09,4.56,2,.54,1.56-.76,2.37-.33.8-3.3,3.23-2.12,3.49-.16,6.4-11.77-.1-2.65-3-2.27-5.91,2.6-7.91-.11-3.77-2.39-2.69.6-1.4,2.44-.1,6.88-2.26,3.2-.21,4.88Z" fill="#ede9e7"/><path id="8d854584-b661-43cf-ab02-77298401bc5d" data-name="ni" d="M172.45,250l1.89.38.06,3.88-2.2,6.29-5.94-.59-1.32-3,1.76-3.68,3.35-3.11,2.4-.14Z" fill="#ede9e7"/><path id="a630b438-6f4a-4952-8f3a-211efdc935e9" data-name="nl" d="M390.58,143l-3.92,1.93.83.75.09,1.93-.83-.16-.92-1.43-2.19,3.47,3.36.7,1.25,1.32.67,0,.44-3,2.12-.89-.91-4.64Z" fill="#ede9e7"/><g id="5107b365-e68d-4a76-b4d0-5ac49301ec13" data-name="no"><path d="M429.8,85.82l1.75-1.28-.16-1.43-1.11-.64.16-1.75h1v-1l-4.12-1.11-6.18.64L420.46,82,419,81.51l-1-1.6-3,.15-.32,3-1.43.64-.8-1.6-6.35,5.11,1.27,1.44-2.38,1.11-5.39,10.7-1.9,1.28.15,1,1.9,1-.48,2.07-3.17-.16-1-1.11-2.06,2.39-1.27,1-.32,2.24-1.11.64-2.85.64-1.43,4.48,1,7.35,1.11,3.35,1.27,1.28,2.85-.16,4.12-4,1.58-2.71.48,4,2.7-4.79.15-13.42,2.2-1.38.66-7.41,6.65-9.59,3.17-1.11,1.43-1.76,4.75,1.11L422.65,88l.8-4,4-2.4,2.39,4.16Z" fill="#ede9e7"/><path d="M406.29,44.17l-1.43-1.43-3.16,1.54h-5.81L395,47.66l3.26,2.88,1.42-.21,2-3.49,1.73,1.23-1.23,2.46-.61,3.6L403,56.39l3.06-5.14,4-4.83-1.53-1.33-2.23-.93Z" fill="#ede9e7"/><path d="M408,38l-2.55,2.36L407,42.73h2.75l1.12,1.54L414.23,46l3.87-2.26,2.65-2.26-.92-1.85-2.65-1.54-1.94,1.75-1.32-1.64-1,.1-1.32,2.88-1.94-2-.21-1.33L408,38Z" fill="#ede9e7"/><path d="M413.83,48.59l-2,1.85-1.73,1.33.81,1.43,1.64.51,2.65-1.24,1.23-1.54-1.12-1.85-1.44-.5Z" fill="#ede9e7"/></g><path id="1d394a36-33a3-43e8-aa9c-58260099b1fc" data-name="np" d="M564.42,207.2l.4,3.69,7,3.16,11.19.83-.42-2.7-7.48-2.06-6.35-3.78-4.33.86Z" fill="#ede9e7"/><g id="b4b41985-c0b5-4cd6-adde-64eb5858508b" data-name="nz"><path d="M773.45,414.14l.92,10.2L773.14,429l-4.6,3.4.3,4v4.32l1.23,1.55,12.58-10.81V429h-3.07l-4.3-14.52-1.83-.31Z" fill="#ede9e7"/><path d="M764.26,436.39l2.46,4.63L760,447.51l-.61,3.4-4.6.61-7.67,7.1-7.05-3.4-.61-2.47,12.88-5.56,12-10.81Z" fill="#ede9e7"/></g><path id="f5eb3b5a-2906-4d9d-8295-27b167cf8031" data-name="om" d="M501.48,240.29l6.39-3.68,1.13-5.4-1.4-.8.58-5.79,1.22-.71,1.31,2,7.77,4.06v2.26l-9.41,13.85-4.33.15-3.25-6Z" fill="#ede9e7"/><path id="a940c463-b026-4da1-8967-bc2e590dd417" data-name="pa" d="M174.91,265.16l-1.26,3.94,4.17,1.08,2.58.51.44-3.05,2.77-1.4,2.46,1.27,1,1.55,1.18-.14.93-2.81-3.08-1.27-2.33-1.27-2.33,1.59-2.77,1.4-2.84-1.14-.88-.26Z" fill="#ede9e7"/><path id="d6ff04eb-298f-4de3-9de6-f95083c0f545" data-name="pe" d="M178.75,299.65l-1.68,1.7.11,2.7,14.64,26.69,15.21,9.8,2.35-3.94.56-8.67-1.23-5.4-4.14-7-2.46.79L201,317.58l-4.92-5.64,1.23-6.65,5.71-3.72-.45-3.49-5.81-.23-3-5.06-1.68-.56.11,3-7.49,8.9-5.59-1.35-.35-3.17Z" fill="#ede9e7"/><g id="b8b21606-5bfa-4477-bc01-78364320fe45" data-name="pg"><path d="M721.37,298.59,721,319.72l3-.16,4-4.68,3.36.16,2.16,1.94.72,6,6.88,3.63,1.76-.65v-2.18l-5.52-4.6-2.72-6.29,2.16-1-1.6-3.47-3.2-.08-.8-3.71-8.48-5.72-1.45-.24Z" fill="#ede9e7"/><path d="M747.41,304.42l-.82.19-.5,2.22-1.57,1-4.73.83.19,1.78,5-.25,3.16-2-.19-3.43-.51-.39Z" fill="#ede9e7"/><path d="M745.33,299.21l-.76,1.08,4.16,3.68.57,2.16,1.13-.13.13-2.22-1.26-1.14-4-3.43Z" fill="#ede9e7"/></g><g id="f65e87b3-d3e9-4827-841f-e9a0266763fd" data-name="ph"><path d="M666.57,254.71l-.74,1.42-.41,1.75-4.13,5.25.25,1.08,1.74-.25,5.37-6-2.07-3.24Z" fill="#ede9e7"/><path d="M673.26,252.72l-.09,4.33,1.57,1.58.58,3.08,1.57.34.74-1.92-1.24-.92-.33-5.41-2.81-1.08Z" fill="#ede9e7"/><path d="M677.73,254.39l-.09,3.83.91,1.49,1.57-1.83-.41-3.33-2-.16Z" fill="#ede9e7"/><path d="M678.71,251l1.57,2.08.74,2h1.41l-.25-3.42-1.57-1.08-1.9.41Z" fill="#ede9e7"/><path d="M681.77,258.88l.33,2.5-2.9,2.33-2.4.25-2.56,2.75.09,1.25,2.4-.75,1.65-1.08,1.41,3.58,2.48,1.75,1-.34.91-1.08-2-2,1.16-.92,1.32,1.08.91-1.49-.91-1.83-.16-4.08-2.74-1.92Z" fill="#ede9e7"/><path d="M668.31,233.48l-2.23,1.58-.25,5,3.48,6.74,1.16.92,1.48-1,2.56.42.49,2.25,1.9.16.91-1.24-1.16-1.58-1.41-1.33-3-.33-1.57-2.58,1.82-2.75.16-2.41-1.24-3.08-3.13-.75Z" fill="#ede9e7"/><path d="M669.46,248.39l.66,2.33,1.16.75.83-1.08-1.32-1.83-1.32-.17Z" fill="#ede9e7"/></g><path id="0e7e3a58-5a6a-421a-82df-3e0896f79618" data-name="pk" d="M522.87,213.49l2.25,3.34-.22,1.72-3,1.19-.22,2.8h3.42l1.17-1h6.52l5.88,5.17.75-2.48h4.38l.1-3.12-4.49-4.3,1-2.37,4.6-.32,6.2-12.92-3.42-2.69L546.5,194l8.33-.75-4.92-7-2.62-.71-1.07,1.3-.8.06L540.5,190l1.61,2.7-1.82,1.94L538,203l-5.56,3.55-.75,3.88-8.86,3.11Z" fill="#ede9e7"/><path id="8b702057-5bdb-4b36-8801-4302487889bf" data-name="pl" d="M426.34,148.59l.73,1.35.17,1.43-.6,1.39-1.38,2.66-1.17.53-1.51-.66-.91,0-2.2.83-2.51-.74-4.06-2.88-4-2.14-1.6-2.44-.3-5.75,3.11-2.7,4.06-1.35,1.33-.14.32,1,1.73.69,4.77.09,1.47,0,2.42,3.71-.6,1.52.26,1.79.47,1.79Z" fill="#ede9e7"/><path id="a4899d1f-6f37-465b-bc06-e20d546b5012" data-name="pr" d="M218.53,240.48l-2.28-.77-1.83,1.15.92,1.07,3.12.46.08-1.91Z" fill="#ede9e7"/><g id="85da4cc9-18c7-466a-b3b8-375477f612ed" data-name="pt"><path d="M356.73,180.13l-.54,7.48L354.67,189l.16.85,1.07,1.77-.69,2.16,1.15.39,2.68-.31-.15-2.16,1.76-10-.38-1.38-3.52-.16Z" fill="#ede9e7"/><path d="M337.07,201.89l-.93,1.18.93,1.18,1.41-.71-1.41-1.66Z" fill="#ede9e7"/><path d="M306.34,185.12l-1.17,1.18,2.11,1.18.23-1.65-1.17-.72Z" fill="#ede9e7"/><path d="M312.68,184.41l-1.41.94,1.17.94,1.88-.48-1.64-1.41Z" fill="#ede9e7"/><path d="M313.61,187.72l-.7,1.89.93,1.18,1.17-.94-1.41-2.14Z" fill="#ede9e7"/><path d="M319.24,191.5l-.47,1.18.7.71,1.88-1.18-2.11-.71Z" fill="#ede9e7"/></g><path id="021df01f-36c4-4ea9-b8bc-ea66507a76df" data-name="py" d="M236.43,342.87l1.9,2.07-.23,4.39,5.48-.34,4.14,5.3-.34,4.73-2.68,4.05-5.48.22L239,361l1.56-3.72-5.37-3.38h-4.47l-3.35-3.6,2.44-7,6.61-.51Z" fill="#ede9e7"/><path id="175a7b15-7718-4e65-b84d-3f84e20e5172" data-name="qa" d="M496.51,221.43l-.45,3.47,1.33,1,1.21-.11.45-4.36-1-.75-1.49.75Z" fill="#ede9e7"/><path id="504e6d64-59c9-4355-9da5-be3f8f3476d4" data-name="ro" d="M427,159.69l-.23,1.28-5,4.17,4.18,6.14,2.68,1.88h4.82l1.59-1.33,2.14-.28,1.59,1,2.82-3.21-.55-1.61-2.86-.73-2-.1.09-2.75L433.7,160l-6.73-.34Z" fill="#ede9e7"/><path id="f7f1192b-a52d-404b-951f-50be38e065c0" data-name="rs" d="M421.23,165.69,419.46,167h-.86l-.59,1.83,2.09,2.43.14,1.93-.88,1.25,3.07,3.2,3.32-1-.27-4.72-4.24-6.23Z" fill="#ede9e7"/><g id="f3e4c19f-af34-4108-9e42-994689cf6f07" data-name="ru"><path d="M691.29,60.57l1.52,5.26,3,.87,3-4.81-1.74-3.29.65-2.85h4.56l-1.09,2.19.43,7.88L695.2,82l.65,3.5-.22,5.91,12.16,17.73,2.39.66.22-14.44,2.39-2.19-2.61-5.69,2.17-2.41-4.78-6.35L705,79l-.86-10.5,6.73-1.76.43-3.07,3.48-.87,2,1.76,2.39-9.63,4.12-7,3.26-1.76,2.83.22V43.07l-4.56-.87-6.3-5.26,3-3.5-2.61-5.91L721,25.34l2.61,3.5,6.52,2.41,7.17.66.87-3.06-3.69-3.72,4.12-5.69-9.34-3.29L726.89,21l-3-3.94-17.16-5.91L690.39,14,688,15.27v1.31l3.48,1.76L691,22.5l-6.3-2.63-13.9,5.47-2.39-5H658.9l-4.35,4.6-15.42-3.5L625,24.25l-1.74,4.38,2.17.66-.22,3.29L611.54,34.1l.87,4.38-12.6-2.19,3-5.69L590,29.94l1.09,5.91-4.12,2-3.48-3.29L569.41,37,564,42,563.77,45l-3.48.22-.43-3.5,11.08-9.63V25.56l-7.17-2-9.34,3.06-3.91-3.94h-1.74l-2.17,4.37,1.74,2L536,35.84l-10.64,8.1-6.52,9v3.72l6.95,2.85-3.47,2.63-7.38-2.63-3,2.63-4.56-5.26-.87,2,5,15.76,1.3.44,3.48-1.75,1.74,1.31v2.84l-3.26-1.31-2,1.53L514,80.48l-1.09,7.44-6.73.66-.43-2.41,3.91-2.41.87-6.57L506.2,71.5l-1.52-9.85-6.95-1.1-.65,3.5,1.3,1.75-2.83,2.41,1.09,6.57,4.12,1.76.87,4.81-4.13-2.63-10.64-2-1.31,3.5-8.47,3.06-1.3-2.19-11.08,6.13-.22,4.16-4.35.66L461.45,89V86l-4.35-1.53-2.83,1.1,2.39,4.6,1.74,3.06v2.41l-3.26-.66-.65-.66-3.26,3.5,1.74,3.06-7.38-.22L448,103.7l-.65,1.31h-3.91l-2.83-2-.65-5.47-4.56-1.76V93.62l9.56,2,5.21.44,2.17-3.29-2-3.5-13.9-5.47L431.67,85,430,86.38l.51,3.24,2,.35-.48,5.1,6.29,14.78-4.55,7.21-.31,1.63,2.31,1.63-2.08,1.38-1.38,0,.26,6.35,1.91,2.71,0,2.63,2.45.23,3.74,1.43,4,5.45,0,1.43-1.29,2.2,3-.16,2.88.83,3.89,5.51,9.58.87-.42,6.55-3.3,2.83.68,1.11-3.26,3.5-.86,3.28,2,2.85,6.3,2.19,2.61-1.53,16.73,6.35.65-1.76-3.48-3.28V169.1l-2.17-.66.43-3.5,3.48-4.16-6.23-4.67.43-6.49,6.67-4.38,7.82.44,1.31,2.41,8,.44,5.87-3.28L503,142l.65-6.13,15.21-7.44,11.7,5.27,3.91-3.5L546,141.11l8.69-.87,3,3.06,8.26.87,5.43-7.44,6.95,3.07,3.69.66,3.69-3.29L582.44,135l2.83-4.37,8,2.63,1.74,3.5,3.48.22,2.17-1.53,5.87-.22.65,1.53,6.73.44,4.56-4.81,9.34,1.1,2.83-1.1.86-5.26-2.83-6.35,2.83-2.41h8.9l8.47,10.07,10.86,6.13H663l.43-2.63,3.91-2.41.43,14.23-3.47.22v3.5l2,2.41-.36,3.13,1.44.6.87-2.19,1.31.44.86.87,3.91-.87,3.91-11.39.43-14.23-5-11.39-6.3-7.66-3,.44V110l-7.38-2.85,2.83-6.13,2.39-16.2,10-3.06,4.78-3.06h5.21l-1.31,1.75,1.31,2.19,4.56-4.81,2.61.21-.43-2.84-4.13-.87,2.83-10.29,3.74-3.52Z" fill="#ede9e7"/><path d="M419.34,136.7l-1.3,2.4,4.67,0h1l-.18-1.35-.73-.85Z" fill="#ede9e7"/><path d="M710.37,111.65,709.3,113l.09,2.08,1-.09,1.65-2.91-1.66-.42Z" fill="#ede9e7"/><path d="M746,30.71,744,32l-.48,1.69,1,1.09,2.16-.73,2.16.73,1.2.36-.12-4L746,30.71Z" fill="#ede9e7"/><path d="M457.77,31.06l1.49.6-1,1.8V36L456,37.35h-2.38l-1.34-1.65.15-1.8,1-1.35h2.08l2.23-1.5Z" fill="#ede9e7"/><path d="M463.42,29.41v1.8l1.49,1.2,2.08-.15,1.79-1.65v-1.2h-1.63l-1.34.45-1-1.2-1.34.75Z" fill="#ede9e7"/><path d="M471.91,29.56l1,2.25L475,32l1.49-.6-.74-2.1-1.94-.45-1.94.75Z" fill="#ede9e7"/><path d="M480.39,26.56l-1.64-.3-1.49,1.5.74,1.35.45,2.1,1.94-1.5.45-1.65-.46-1.51Z" fill="#ede9e7"/><path d="M489.47,42.46l-.45,2.1-3.42,3-7.29,1.65-6,9.9-1,2.85,6,1.51.89-3.6,1.79-5.55,4.62-2.4,3.87-3,2.83-1.2h1.49v-4l-3.27-1.21Z" fill="#ede9e7"/><path d="M470.27,64.36l4,.45,1.34,4.65,3.42,3.6-1.19,2.4h-2.08l-1.94-2.25-4.31-.15-1.79-2.4V69l2.68-.75-.15-3.9Z" fill="#ede9e7"/><path d="M533.09,13.22,531.15,12h-2.23l-.45,1.35-2.38,1.35-1.79.6-.29,1.8,4.17.3,4.91-4.19Z" fill="#ede9e7"/><path d="M537.7,13.67l-1,2.25-2.08-.15-3.28,2.4-.89,3h2.08l1.19-2,2.83,2.1,2.68-1.2,1.94-1.65-.74-2.55-1-1.8-1.63-.45Z" fill="#ede9e7"/><path d="M542,15.32l1,4.2,1.63,3.9,1.79-3.15,3.42-.75V17.27l-2.23-1.65-5.66-.3Z" fill="#ede9e7"/><path d="M623.69,8.59l2.33,2,1.65-.68.48-2.74-3.39-2.34-2.23,1.47-5.43.49V9.19l-5.72.1v4l6.69,5L619.81,17l-.39-3.52,4.27-1.07-.87-1.66-1.55-1.56,2.41-.59Z" fill="#ede9e7"/><path d="M629.89,6.25l1.55,2.93,6-.68,1.65-2.15-.39-1.86-1.65-.68L635.52,5l-4.46,1-1.17.29Z" fill="#ede9e7"/><path d="M629.5,17.68l-3-.78-1.74,1.86L624,21.3l4.07-.39,3.1-1.56-1.65-1.67Z" fill="#ede9e7"/><path d="M707.46.78,704.94,0,702,1.07l-1.45,2.15,1.84,2.45,4.85-2.15,1-1.07L707.46.78Z" fill="#ede9e7"/><path d="M708.39,116.74v3.67l1.16.42.83-1.33v-2.83l-2,.08Z" fill="#ede9e7"/><path d="M674.58,103.49l-.08,5.33,6.69,10.33,2.4,9,4.22,8,1.65.58,1.41-1.17.66-1.92-6-6.58.16-3.42,1.32-.58.33-2-11.82-16.73-.91-.84Z" fill="#ede9e7"/><path d="M721.2,86.92l-1.65.16,1,1.42,2.07,1.42.58-.67-2-2.33Z" fill="#ede9e7"/><path d="M724.42,87.93l.25,1.42,2.56.75.25-1-3.06-1.17Z" fill="#ede9e7"/><path d="M738.46,93.36l1.08,1.94,1.8-.12.36-1.33-3.24-.48Z" fill="#ede9e7"/><path d="M756.59,96.39,758,99.05l1.08-1.21V96l-2.52.36Z" fill="#ede9e7"/></g><path id="679ce923-4346-4eaf-8285-6ce686cd0749" data-name="rw" d="M449.13,291.34l2.43,2.24-.1,2.4-3.77.08v-2.65l1.44-2.07Z" fill="#ede9e7"/><path id="85ecbb85-5767-4af3-ae85-fc7eebacc7ac" data-name="sa" d="M489,216.43l6.06,8.44,2,1.56.87,3.79,9.33.73,1.05.55-1,4.67-6.13,3.61-9,2.71-4.78,4.67-5.68-3.31-3.44,3L473.49,239l-3.28-1.5L469,235.73v-3.92l-12-14.45-.45-2.56H460l4.18-3.61.15-1.81-1.19-1.2,2.39-2,5.08.3,8.67,7.23,5.12-.23.33,1.26,4.27,1.64Z" fill="#ede9e7"/><g id="66852264-5989-40ce-9947-bc58437e76cc" data-name="sb"><path d="M753,308.29l1.07,3,1.89,1.84.57-.51-.19-2-2.15-2.6-1.2.26Z" fill="#ede9e7"/><path d="M758.25,312.73l.13,2,1.2,1.14,1.13-.7-1-2.1-1.45-.31Z" fill="#ede9e7"/><path d="M759.76,317.63l-1,1.08,1.07,2,1.26.38-.06-1.33-1.26-2.1Z" fill="#ede9e7"/><path d="M762.23,316.48l.88,2.16,1.7,2,.94-1.52L764.49,317l-2.26-.51Z" fill="#ede9e7"/><path d="M766.64,319.73l.5,2.67,1.2,1.65,1-2.09-2.71-2.23Z" fill="#ede9e7"/><path d="M768,325.7l-.44.76,1.45,1.91,1,.06-.63-2.48L768,325.7Z" fill="#ede9e7"/><path d="M764.81,329.5l-1.51.7,1.32,1.84,1.13-.64-.94-1.9Z" fill="#ede9e7"/></g><g id="b62b1eae-4615-4e6f-9537-82cfe50765f6" data-name="sc"><path d="M504.91,307.28l-.53,1.06,1.44,1.19,1.06-1.19-2-1.06Z" fill="#ede9e7"/><path d="M512.28,299.33l-1.58,1.06,1.19,1.86h1.58l-1.19-2.92Z" fill="#ede9e7"/><path d="M512.94,304l-1.05,1.19.79,1.19,1.44.27.13-2.52-1.3-.13Z" fill="#ede9e7"/></g><path id="5de93f23-35f1-4eaf-9abf-b5d3511d6bdb" data-name="sd" d="M435.38,263.44l-2.55-1.5-2.33-4.59.13-4.27,3.22-2.77h0l.15-10.23,2.13.06-.24-5.68,22.3.2,3.19-3.21,6.88,11-3.77,4.44v6.79l-4.6,9.89-1,2.3-3.71-5.32L452.44,264l-3.06.83-9.94-1-4.33,1.54Z" fill="#ede9e7"/><g id="4f215948-44b0-44c6-b422-f73aa8c87e67" data-name="se"><path d="M414.46,87.93l1.69,1.56h3.17l1.75,3.35.48,5.75-4.28,3v3l-3,4.16-1.75.15-2.38,4,.15,3.84,4.12,3-.32,1.75-1.58,2.4-2.38,2.07.15,6.87-3.65,1.28-1.27,2.71h-1.75l-.95-4.79-4-6.08L402,120.6l.23-13.48,2.25-1.24.55-7.71,6.4-9.17,3.07-1.08Z" fill="#ede9e7"/><path d="M415.13,127.34l-1.82,1.44.92,2.12,1.62-1.57-.71-2Z" fill="#ede9e7"/></g><path id="a9532c0a-3cb3-4e5a-b51f-e2608c669f10" data-name="sg" d="M627.55,286.11l.69.39,1.55-.13-.13-1.17-1.26.2Z" fill="#ede9e7"/><path id="e0e79990-645e-4639-833e-8122cc6da457" data-name="si" d="M411.94,163.48l-2.2,1.31-4.1.9.82,2.37,2.87,0,2.65-2.21,0-2.4Z" fill="#ede9e7"/><path id="4fbd11cb-8b29-49f1-bcf3-84e72e76f729" data-name="sk" d="M412.84,159.28l.6.53.08.9,6.6-.15,4.88-2.1-.08-2.14-.93.42-1.34-.72-.82,0-2.16.86-2.94-.71-3.87,3.14Z" fill="#ede9e7"/><path id="90296c6c-8d55-443a-9372-be623a0cbb78" data-name="sl" d="M342,268.2l4.88,4.72,3.48-4.23-2.18-3.42-3,.3L342,268.2Z" fill="#ede9e7"/><path id="b203086f-2224-4216-943e-cf569f34ad13" data-name="sn" d="M341.66,257.18l-5.79-.14h0l1.07,2.6.6-1.61,7.27.76.81,0,3.4.12.12-1.5L346,253.65,342.56,249l-2.15-.9-1.66.42h0l-3.4,2.47-.78,1.38-.24,1.38,1.25.9,4.18-.06,2.69-.73.3,1.32-.24,1.75Z" fill="#ede9e7"/><path id="61cf0e18-d815-40ed-a2e5-beb35e0ffc40" data-name="so" d="M495.94,260.35l3.78-1.45,1.34.8-.15,3.35L497.42,273l-18.85,20.19-2.19-1.5-.15-8.52,2.83-3.26,6-1.86,8.82-9.32,2.31-2.06.65-3-.93-3.29Z" fill="#ede9e7"/><path id="6cffaac0-d34c-4d22-a070-cf5c397722be" data-name="sr" d="M237.62,275.12l1.76,1.62,2.73-1.69,2.49.08-.32,1-1,2.18-.16,5.42-5,2,.24-3.48-3.21-3,.16-1.54,2.32-2.59Z" fill="#ede9e7"/><path id="ae4ba152-89ec-46b6-9e3e-f45693108c2f" data-name="ss" d="M458.57,266.43l-2,.9.65,3.55h2.54l3.45,5-2.77.35-.71,1.29-.07,1.86-8.3-.15-.85-1.29-5.8-.33-10.65-11,1.06-.64,4.52-1.36,9.9.75,3.37-.75,2.23-3Z" fill="#ede9e7"/><g id="2e977706-c25d-44ca-b821-da7a2fa994c3" data-name="st"><path d="M391.14,289l1-.5.74.6-.74,1.15-.9-.35-.09-.9Z" fill="#ede9e7"/><path d="M393.14,285.81l1.5-.25.5,1-.74.8-.74-.1-.51-1.4Z" fill="#ede9e7"/></g><path id="a5646137-e21b-4b57-a6f7-95814b3d828b" data-name="sv" d="M158.54,253.63l4.06,2-.06-3.21-2.08-1.27-1.92,2.46Z" fill="#ede9e7"/><path id="30200424-35a4-4ce2-ac48-fcce419eae5b" data-name="sy" d="M456.78,195.59l-.3,2.2,2.44,1-.1,6.09,2.44-.05,2.44-1.84.92-.15,5.53-4.4,1.11-6.39-11.06,1.13L459,195.74l-2.25-.15Z" fill="#ede9e7"/><path id="5469733d-1f60-42ee-80bc-ffe4b4a7c8ce" data-name="sz" d="M451.76,355.39l-2.17.36-.93,2.55,1.66,1.51h2l1.7-2.45-2.27-2Z" fill="#ede9e7"/><path id="120ea93c-8729-40d3-b563-3587d03166e5" data-name="td" d="M410.2,253.39l.11-2.55,4.1-4,1.1-9.79-2.73-5.22,1.91-1,18.5,9.64-.11,9.46-3.26,2.77v4.88l2.14,4.13h-3.77l-6.24,6.17-.17,1.87-4.61-.06-.06.85-2.63-.35-1.8-3.4-1.35-.67.17-1,1.69-1.3v-6.07l-2.34-.36L408,255.3l2.17-1.91Z" fill="#ede9e7"/><path id="6e84ef1d-8774-48c6-a44b-8607b69f2e93" data-name="tg" d="M377.73,275.22l2.32-1.36-.05-8.95-1.5-2.44-1,.81.21,11.93Z" fill="#ede9e7"/><path id="d26597a9-17ea-4451-9fef-02716cb87ae6" data-name="th" d="M615.28,231.32l2.8,3.6v4.38l1,.48,4.45-2.14.87.29,5.32,6.14-.19,4.19-1.74-.29-1.55-1-1.16.1-2,3.4.39,1.85,1.64.87-.09,2-1.16.59-4-2.73v-2.44l-1.64-.1-.67,1.07-.35,10.91,2.57,4.69,4.55,4.38-.19,1.27-2.42-.09-2.22-3.31h-2.33l-2.9-2.35-.87-2.44,1.25-2,.43-1.85,1.37-2.42-.06-5.57L613,248l-.14-.59,1.08-1.09-.25-3.83-4.44-5.63.52-3.24,5.5-2.32Z" fill="#ede9e7"/><path id="4c55fda0-25fa-42e5-a1ca-1a0781b4ae94" data-name="tj" d="M529,180.64l3.55-4.41h1.34l.47,1-1.64,1.19v1l1.08.78,5.2.31,1.69-.73.77.15.52,1.66,3.09.31,1.55,3.27-.47,1-.61.05-.61-1.24-1.34-.1-2.32.31-.16,2.18-2.32-.15.1-2.75-1.69-1.66-2.58,2.13.05,1.4-2.27.78H531l.1-4.82L529,180.64Z" fill="#ede9e7"/><path id="4c1bd9d1-57c3-484b-9312-104c48226db1" data-name="tm" d="M497.56,177l-.53,2.27h-3.59v3.08l3.85,2.54-1.19,3.48V190l1.6.27,2.13-2.81,4.79-1.07,10.23,3.88L515,193l5.71.54,6.38-6.7-.8-2.14-4.25-.93-12-7.77-.53-2.81H505L503,177h-5.45Z" fill="#ede9e7"/><path id="a3f9f01e-3257-4608-a981-5d2e6a0665e7" data-name="tn" d="M394.75,194l4.78-1.93,1.57,1,.06,1.24-.73,1,.11,1.7.73.4v3.06l-.85,1.42.11.91,3.21,1.13-2.58,4-1-.06-.17,3.23-1.12.17-1-.85.23-3.28L395,204.12l-.4-2.66,1.52-1.19L394.75,194Z" fill="#ede9e7"/><path id="3121f348-e8a2-4e91-ae85-18a70c57685a" data-name="tr" d="M442,180.32l-2.3-1.43-1.27-1-2.14.92h0l-1.48,3.74,2.22-.5,1.56-1.19,3.44.94-1.95,1.88-5.18-.25L433,185.5v1l1.22,1v1.12l-.51,1.33.51,1.12,1.63-.81,1.63,1.74-.41,1.23-.6.82.91,1,4.46.92L445,194.7v-1.94l1.52.3,3.65,2.14,3.95-.61,1.72-1.63,1.11.41v1.84h1.52l1.31-2.55,11.55-1.23,5-.61-1.33-1.75,0-2.36,1-1.21-3.68-3,.2-2.55h-2l-3.35-1.64h0l-1.93,2-7.09-.21-4.25-2.55-4.08.37-4.54,2.73Z" fill="#ede9e7"/><path id="04b98a67-aedb-438a-992b-59beece42936" data-name="tt" d="M228.2,261l-.92.85-1,.15v1.23l1.83,1.69.76-1.23.46-1.38-.16-1.15-1-.16Z" fill="#ede9e7"/><path id="68b365b1-41d4-4c78-a473-583ee2cda93b" data-name="tw" d="M664.92,212.17l-3.06,2.33L661.7,219l2.65,3.08.66-.58-.08-9.33Z" fill="#ede9e7"/><path id="42ea66f6-1535-4cb6-b871-85a59d31ed45" data-name="tz" d="M461.45,318.43l13.8-1.69-3.39-6.57-.18-6.29,1.1-3-14.37-9-4.5.74-1.56,1.16-.14,2.64-1,3.66-1.05,1.25-1.51.14,2.81,9.42,4.82,2.84,4.2.1Z" fill="#ede9e7"/><path id="1497fbcc-2d02-4b63-b87a-6434dc6b9ad8" data-name="ua" d="M429.89,147.2l-2.51,1.41.62,2.66-2.32,4.88,0,2.15,1.09.69,7,.35,2-1.61,2.09.7,3,4-2.19,3.94,2.61.76,3.41-3.93,2,.35,1.82,1.26-1.6,2.11L449,170.3h2.3l1.18-2.25,2.44-.49.07-1.82-4.53-.7.14-2H455l4.74-3.79,2.09-1.82.35-5.76-9.34-.84-3.83-5.4-2.65-.91-3.21.14-1.44,3.57-6.57.09-2.14-1-3.1-.15Z" fill="#ede9e7"/><path id="d5fb64d3-c324-4374-ae31-1fcec07b4db0" data-name="ug" d="M449.54,290.64l2.62,2.45,1.64-1,4.44-.73.76.08.28-1.69,2.51-5.27L459.69,280l-6.84,0,0,1.81.92.88-.14,1.81-4,6.05Z" fill="#ede9e7"/><g id="8627558a-dd68-4096-9a37-d2a93dacc8ef" data-name="us"><path d="M112.82,134.4l-.87,3.48-3-2h-1.5l-.87,3.69L96,163.26l2.8,20.61,3.45,1.74.65,5.64H110l6.89,5.2,13.56,1.3,1.5,6.94,2.15,1.52,3-3,2.37,1.08,2.15,10,3.66,2.39,3-5.64,9.26-6.73,6,2.82,5.17.43.22-3.25,10.76.22,2.15,2.39.43,5.42-1.29,3,1.5,5.2h3.23l3.23-5-1.29-2.39-1.29-5.2,1.94-5.86,8.83-7.59,6.67-2-.86-6.29,9.26-10,9.26-1.52-1.5-5.19,9-5.2V157.4l-.86-.43L225,158.05l-.43,4.25-10.74.13L205.39,168l-13.22,4.32-2.11-2.59,6-9.08-3-2.83-2-3.84-4.18-3.35-4.54-.38-8.57-5.85-61-10Z" fill="#b9b4b4"/><path d="M44,43.64l3,5.59,1.92-.43V46.87L44,43.64Z" fill="#ede9e7"/><path d="M27.16,92.84,27,95.44,28.88,95V93.85l-1.72-1Z" fill="#ede9e7"/><path d="M24.29,94l-3.73,1.89.58,2,1.44-1.16,2.87-1.31L24.29,94Z" fill="#ede9e7"/><path d="M8.77,96.45l-2.58-.58L5.76,97,6,99.2l2.73-2.75Z" fill="#ede9e7"/><path d="M3.31,96.31l-2.45-1L0,96.89l1.58,1.59,1.73-2.17Z" fill="#ede9e7"/><path d="M64.72,36.33l-7.25,1.72L59,46.22l7.89,2.15.42,1.72L55.55,53.75l-6.61,11,2.34,11.61,3.84,2.58,3-2.79L59,77.82l-3.63,4.3L41.25,88.57l-9,2.15-.22,3.23,20.69-6,8.53-2.37,7.89-9.67,8.75-5.8L73.46,77.6l4.91.65,8.32-3.66,1.5,6,5.76,1.29,6,5.8.42,4.3-.85,1.07,1.06,4.08H102l.22-6.88H104l.42,17,4.27-3.66-3-17.63h-4.48l-4.91-6.23,24.11-40.84L96.5,20.19,69.83,25.35l-1.06,8.17L74.52,37l-2.14,5.59-7.67-6.22Z" fill="#ede9e7"/></g><path id="4c34f35d-6472-49ce-a166-6053266fcc28" data-name="uy" d="M243.87,370.89l-1.77,1.89.73,10.18,5.57,1.61,7.08-7.1-11.61-6.59Z" fill="#ede9e7"/><path id="614ae071-8d08-4e5a-a764-ce0974f69d79" data-name="uz" d="M527.88,186.89l2.66.14v-4.56L528,181l4.25-5.36H534l1.73,2,4.52-1.74L534,173.77l-.24-1.3-1.48.36-1.46,2.54-6.3-.21-4.62-6.54-8.12.8-3.87-3.84-5.36-.91-3.89,1.58,2.26,7.5,0,2.52,1.64,0,2-3.84,5.36.07.8,2.95,11.49,7.63,4.44,1,1.22,2.73Z" fill="#ede9e7"/><g id="08aca43e-616f-419c-82d6-bfdb1bd45b38" data-name="vc"><path d="M228.06,255l-1.06.77.84,1.54,1.37-.77L228.06,255Z" fill="#ede9e7"/><path d="M226.76,258l-1,1,.38.61h1.22l.38-1-1-.6Z" fill="#ede9e7"/></g><path id="e36dda36-b6d3-407a-9bd5-d8314af9ceee" data-name="ve" d="M200.73,262l.38,2.24,2.81.89.64-4.12,3-3.07,3,3.48,6.82,1.86,5.77-1.21,3.93,4.85,3,1.86-3.25,5,1.09,3.75-1.86,2.3L224,281.36l-4.18-2.1-1,1v3l3.05,1.45-2.25,2.43-2.25,2.43-3-.24-3-3.28-.63-12.33-10.18-3.48-1.85-5.42,1.88-2.82Z" fill="#ede9e7"/><path id="1b75d514-ff80-45f8-be36-a60f13f5a553" data-name="vn" d="M628.27,260.7l1,1.62.19,1.85,2.71.29,3.29-4.38,3.09-.87,1.64-4.48-.77-7.21-3.19-4.38-3.36-2.69-4.28-7.35,3.07-5.14-4.39-5-3.52-.15-3.16,1.7.94,4.07,4.22.74,1.13,3.14-1.49,1,.1.78,9.9,9.68.39,2.84-.59,9-6.93,5Z" fill="#ede9e7"/><g id="ce202387-ee08-43bd-a105-4b0a10b3b472" data-name="vu"><path d="M780.24,340.89l-1.07,1.43.45,1.62.53.36,1-1.26-.89-2.15Z" fill="#ede9e7"/><path d="M780.77,345.29l.09,1.17,1.16.36.8-.45-.8-1.26-1.24.18Z" fill="#ede9e7"/><path d="M782.47,355.71l-.54.81.8.9,1.34-.45-1.61-1.26Z" fill="#ede9e7"/></g><g id="6a7dd482-cb5c-4b3c-9579-b5a18fc9440e" data-name="ye"><path d="M478.67,247.54l1.24,3.7v3.61l3,2.71L504,249l.2-2.36-3.38-6.07-8.48,2.71-4.87,4.79-5.65-3.34-3.14,2.83Z" fill="#ede9e7"/><path d="M502.55,256.55l1.84,2.06,2.49-1.5.9-.3-1.14-1.11-2.19.65-1.9.21Z" fill="#ede9e7"/></g><path id="8abea2d1-cf26-46bf-a818-2fbb6e691485" data-name="za" d="M446,346.43l-6.83,6.31-1.62,3.9L432.1,356l-4.5,4-3-.29.24-5.53-1.06-.37L423,365.08l-5.31-.05-1.6-1.89-2.34,0,2.14,6.13,3.81,3.6L417,376l1.76,4,4.08,1.56,3.25-2.77,9.31.05.67-.83,4.13-.73,14-13.92-.05-4.38-1.49,1.94h-2.24l-2.72-2.28,1.38-3.44,2.38-.48-.22-7.07L446,346.43Zm-3.28,16,1.31-.05,2.12,2.3-.06,2.66-2.48,1.25-.15.88-3.79,0-1.19-2.85,1.08-2.09,3.16-2.14Z" fill="#ede9e7"/><path id="eea91191-016b-44a6-a972-e378bdd2bb99" data-name="zm" d="M429,330.07l2.74,3.8,4.24.26,1.5.83,4.44.05,3.83-5.37,10.7-4.79.93-4.22-1.24-6-5.58-3.18-3.73.26L445,315.78l.05,1.88,4.39,2.14.26,4.64-3.77.21-.93-1.56L434.5,318.6l-.31,3.44-5,.16-.21,7.87Z" fill="#ede9e7"/><path id="f002fca3-9c55-4982-92f2-3600158fdb6d" data-name="zw" d="M437.75,336.64l7.76,8.76,5.95,1.51,4-6.25-.31-8.28L448.66,329l-2.43,1.1-3.62,5.52-5-.05.16,1Z" fill="#ede9e7"/><g id="8587d72b-35b7-4d2a-921f-c209fad965bd" data-name="Graphics"><rect x="584.06" y="201.71" width="74.61" height="23.1" fill="#edf5ff" stroke="#000f5e" stroke-miterlimit="10" stroke-width="0.75" stroke-dasharray="1 1"/><rect x="38.18" y="227.09" width="74.61" height="23.1" fill="#edf5ff" stroke="#000f5e" stroke-miterlimit="10" stroke-width="0.75" stroke-dasharray="1 1"/><rect x="208.19" y="201.71" width="99.08" height="23.1" fill="#edf5ff" stroke="#000f5e" stroke-miterlimit="10" stroke-width="0.75" stroke-dasharray="1 1"/><rect x="269.73" y="146.86" width="74.61" height="23.1" fill="#edf5ff" stroke="#000f5e" stroke-miterlimit="10" stroke-width="0.75" stroke-dasharray="1 1"/><rect x="431.9" y="164.59" width="74.61" height="23.1" fill="#edf5ff" stroke="#000f5e" stroke-miterlimit="10" stroke-width="0.75" stroke-dasharray="1 1"/><rect x="593.9" y="405.1" width="74.61" height="23.1" fill="#edf5ff" stroke="#000f5e" stroke-miterlimit="10" stroke-width="0.75" stroke-dasharray="1 1"/><line x1="696.27" y1="174.19" x2="651.12" y2="213.49" fill="none" stroke="#6e177d" stroke-miterlimit="10" stroke-width="0.75"/><circle cx="651.21" cy="213.41" r="1.97" transform="translate(19.89 479.98) rotate(-41.04)" fill="#fff"/><path d="M649.74,211.73a2.24,2.24,0,1,1-.22,3.16,2.24,2.24,0,0,1,.22-3.16Zm2.59,3a1.71,1.71,0,1,0-2.41-.17,1.71,1.71,0,0,0,2.41.17Z" fill="#6e177d"/><line x1="204.05" y1="184.09" x2="216.62" y2="211.57" fill="none" stroke="#6e177d" stroke-miterlimit="10" stroke-width="0.75"/><circle cx="216.57" cy="211.47" r="1.97" transform="translate(-68.32 109.2) rotate(-24.57)" fill="#fff"/><path d="M214.54,212.4a2.24,2.24,0,1,1,3,1.1,2.24,2.24,0,0,1-3-1.1Zm3.59-1.64a1.71,1.71,0,1,0-.84,2.27,1.71,1.71,0,0,0,.84-2.27Z" fill="#6e177d"/><line x1="373.25" y1="148.42" x2="337.21" y2="158.59" fill="none" stroke="#6e177d" stroke-miterlimit="10" stroke-width="0.75"/><circle cx="337.32" cy="158.56" r="1.97" transform="matrix(0.96, -0.27, 0.27, 0.96, -30.39, 97.6)" fill="#fff"/><path d="M336.71,156.41a2.24,2.24,0,1,1-1.54,2.76,2.24,2.24,0,0,1,1.54-2.76Zm1.07,3.8a1.71,1.71,0,1,0-2.11-1.18,1.71,1.71,0,0,0,2.11,1.18Z" fill="#6e177d"/><line x1="397.15" y1="154.04" x2="440.07" y2="175.44" fill="none" stroke="#6e177d" stroke-miterlimit="10" stroke-width="0.75"/><circle cx="439.96" cy="175.39" r="1.97" transform="translate(86.73 490.91) rotate(-63.51)" fill="#fff"/><path d="M439,177.39a2.24,2.24,0,1,1,3-1,2.24,2.24,0,0,1-3,1Zm1.76-3.53a1.71,1.71,0,1,0,.77,2.3,1.71,1.71,0,0,0-.77-2.3Z" fill="#6e177d"/><line x1="721.06" y1="400.27" x2="660.18" y2="417.1" fill="none" stroke="#6e177d" stroke-miterlimit="10" stroke-width="0.75"/><circle cx="660.29" cy="417.07" r="1.97" transform="translate(-87.26 191.02) rotate(-15.45)" fill="#fff"/><path d="M659.7,414.91a2.24,2.24,0,1,1-1.56,2.75,2.24,2.24,0,0,1,1.56-2.75Zm1.05,3.81a1.71,1.71,0,1,0-2.11-1.19,1.71,1.71,0,0,0,2.11,1.19Z" fill="#6e177d"/><line x1="151.24" y1="196.75" x2="100.11" y2="237.31" fill="none" stroke="#6e177d" stroke-miterlimit="10" stroke-width="0.75"/><circle cx="100.2" cy="237.24" r="1.97" transform="translate(-125.76 113.68) rotate(-38.43)" fill="#fff"/><path d="M98.81,235.49a2.24,2.24,0,1,1-.36,3.14,2.24,2.24,0,0,1,.36-3.14Zm2.45,3.09a1.71,1.71,0,1,0-2.4-.28,1.71,1.71,0,0,0,2.4.28Z" fill="#6e177d"/><path d="M700.65,165.19a5.08,5.08,0,0,0-7.07,0,4.82,4.82,0,0,0-1.46,3.46,5.26,5.26,0,0,0,1.46,3.66l3.53,3.67,3.53-3.67a5.26,5.26,0,0,0,1.46-3.66A4.82,4.82,0,0,0,700.65,165.19Zm-3.53,5.23a1.67,1.67,0,0,1,0-3.33h0a1.67,1.67,0,0,1,0,3.33Z" fill="#6e177d"/><path d="M206.16,174.78a5.08,5.08,0,0,0-7.07,0,4.82,4.82,0,0,0-1.46,3.46,5.26,5.26,0,0,0,1.46,3.66l3.53,3.67,3.53-3.67a5.26,5.26,0,0,0,1.46-3.66A4.82,4.82,0,0,0,206.16,174.78ZM202.62,180a1.67,1.67,0,0,1,0-3.33h0a1.67,1.67,0,0,1,0,3.33Z" fill="#6e177d"/><path d="M378.21,139.54a5.08,5.08,0,0,0-7.07,0,4.82,4.82,0,0,0-1.46,3.46,5.26,5.26,0,0,0,1.46,3.66l3.53,3.67,3.53-3.67a5.26,5.26,0,0,0,1.46-3.66A4.82,4.82,0,0,0,378.21,139.54Zm-3.53,5.23a1.67,1.67,0,0,1,0-3.33h0a1.67,1.67,0,0,1,0,3.33Z" fill="#6e177d"/><path d="M400.24,145.56a5.08,5.08,0,0,0-7.07,0,4.82,4.82,0,0,0-1.46,3.46,5.26,5.26,0,0,0,1.46,3.66l3.53,3.67,3.53-3.67a5.26,5.26,0,0,0,1.46-3.66A4.82,4.82,0,0,0,400.24,145.56Zm-3.53,5.23a1.67,1.67,0,0,1,0-3.33h0a1.67,1.67,0,0,1,0,3.33Z" fill="#6e177d"/><path d="M725.44,391.88a5.08,5.08,0,0,0-7.07,0,4.82,4.82,0,0,0-1.46,3.46,5.26,5.26,0,0,0,1.46,3.66l3.53,3.67,3.53-3.67a5.26,5.26,0,0,0,1.46-3.66A4.82,4.82,0,0,0,725.44,391.88Zm-3.53,5.23a1.67,1.67,0,0,1,0-3.33h0a1.67,1.67,0,0,1,0,3.33Z" fill="#6e177d"/><path d="M154.77,189.19a5.08,5.08,0,0,0-7.07,0,4.82,4.82,0,0,0-1.46,3.46,5.26,5.26,0,0,0,1.46,3.66l3.53,3.67,3.53-3.67a5.26,5.26,0,0,0,1.46-3.66A4.82,4.82,0,0,0,154.77,189.19Zm-3.53,5.23a1.67,1.67,0,0,1,0-3.33h0a1.67,1.67,0,0,1,0,3.33Z" fill="#6e177d"/></g><text transform="translate(228.24 216.58)" font-size="9" font-family="IBMPlexSans-Bold, IBM Plex Sans" font-weight="700"><tspan letter-spacing="-0.03em">W</tspan><tspan x="8.49" y="0">ashing</tspan><tspan x="36.41" y="0" letter-spacing="0em">t</tspan><tspan x="39.82" y="0" letter-spacing="0em">on DC</tspan></text><text transform="translate(280.95 161.73)" font-size="9" font-family="IBMPlexSans-Bold, IBM Plex Sans" font-weight="700" letter-spacing="-0.01em">L<tspan x="4.68" y="0" letter-spacing="0em">ondon</tspan></text><text transform="translate(606.71 419.97)" font-size="9" font-family="IBMPlexSans-Bold, IBM Plex Sans" font-weight="700">S<tspan x="5.62" y="0" letter-spacing="-0.01em">y</tspan><tspan x="10.35" y="0">dn</tspan><tspan x="21.19" y="0" letter-spacing="-0.01em">e</tspan><tspan x="26.18" y="0">y</tspan></text><text transform="translate(452.71 179.46)" font-size="9" font-family="IBMPlexSans-Bold, IBM Plex Sans" font-weight="700"><tspan letter-spacing="-0.03em">F</tspan><tspan x="5" y="0" letter-spacing="-0.01em">r</tspan><tspan x="8.5" y="0">ankfu</tspan><tspan x="32.8" y="0" letter-spacing="0em">r</tspan><tspan x="36.47" y="0" letter-spacing="0em">t</tspan></text><text transform="translate(48.99 241.96)" font-size="9" font-family="IBMPlexSans-Bold, IBM Plex Sans" font-weight="700">Da<tspan x="11.39" y="0" letter-spacing="-0.01em">l</tspan><tspan x="14.05" y="0">las</tspan></text><text transform="translate(594.87 216.58)" font-size="9" font-family="IBMPlexSans-Bold, IBM Plex Sans" font-weight="700"><tspan letter-spacing="-0.06em">T</tspan><tspan x="4.67" y="0">o</tspan><tspan x="9.75" y="0" letter-spacing="0em">k</tspan><tspan x="14.9" y="0" letter-spacing="-0.01em">y</tspan><tspan x="19.63" y="0">o</tspan></text></svg>