<svg xmlns="http://www.w3.org/2000/svg" viewBox="0 0 1000 400"><defs><clipPath id="a"><path fill="none" d="M324.44 162.49h64.48v30h-64.48z"/></clipPath><clipPath id="b"><path fill="none" d="M325.18 163.16h62v28h-62z"/></clipPath><clipPath id="c"><path fill="none" d="M480.19 162.4h64.48v30h-64.48z"/></clipPath><clipPath id="d"><path fill="none" d="M480.19 162.4h64.48v30h-64.48z"/></clipPath><clipPath id="e"><path fill="none" d="M424.5 183.5h15v15h-15z"/></clipPath><clipPath id="f"><path fill="none" d="M660 161h50v37h-50z"/></clipPath><clipPath id="g"><path fill="none" d="M105 161h64.48v30H105z"/></clipPath><clipPath id="h"><path fill="none" d="M105 161h64.48v30H105z"/></clipPath><clipPath id="i"><path fill="none" d="M860.2 147.49h53.5v52h-53.5z"/></clipPath><clipPath id="j"><path fill="none" d="M120 147h35.78v52.29H120z"/></clipPath></defs><g data-name="Visual"><path fill="#fff" d="M48.5 83.5h200v200h-200z"/><path fill="none" stroke="#d8d8d8" stroke-miterlimit="10" d="M248.5 282v1.5H247"/><path fill="none" stroke="#d8d8d8" stroke-miterlimit="10" stroke-dasharray="3 2" d="M245 283.5H51"/><path fill="none" stroke="#d8d8d8" stroke-miterlimit="10" d="M50 283.5h-1.5V282"/><path fill="none" stroke="#d8d8d8" stroke-miterlimit="10" stroke-dasharray="3 2" d="M48.5 280V86"/><path fill="none" stroke="#d8d8d8" stroke-miterlimit="10" d="M48.5 85v-1.5H50"/><path fill="none" stroke="#d8d8d8" stroke-miterlimit="10" stroke-dasharray="3 2" d="M52 83.5h194"/><path fill="none" stroke="#d8d8d8" stroke-miterlimit="10" d="M247 83.5h1.5V85"/><path fill="none" stroke="#d8d8d8" stroke-miterlimit="10" stroke-dasharray="3 2" d="M248.5 87v194"/><path fill="#fff" d="M265.5 83.5h609v200h-609z"/><path fill="none" stroke="#d8d8d8" stroke-miterlimit="10" d="M874.5 282v1.5H873"/><path fill="none" stroke="#d8d8d8" stroke-miterlimit="10" stroke-dasharray="3 2" d="M871 283.5H268"/><path fill="none" stroke="#d8d8d8" stroke-miterlimit="10" d="M267 283.5h-1.5V282"/><path fill="none" stroke="#d8d8d8" stroke-miterlimit="10" stroke-dasharray="3 2" d="M265.5 280V86"/><path fill="none" stroke="#d8d8d8" stroke-miterlimit="10" d="M265.5 85v-1.5h1.5"/><path fill="none" stroke="#d8d8d8" stroke-miterlimit="10" stroke-dasharray="3 2" d="M269 83.5h603"/><path fill="none" stroke="#d8d8d8" stroke-miterlimit="10" d="M873 83.5h1.5V85"/><path fill="none" stroke="#d8d8d8" stroke-miterlimit="10" stroke-dasharray="3 2" d="M874.5 87v194"/><path fill="#edf5ff" d="M69.5 123.5h140v140h-140z"/><path fill="none" stroke="#000f5e" stroke-miterlimit="10" d="M209.5 262v1.5H208"/><path fill="none" stroke="#000f5e" stroke-miterlimit="10" stroke-dasharray="3 2" d="M206 263.5H72"/><path fill="none" stroke="#000f5e" stroke-miterlimit="10" d="M71 263.5h-1.5V262"/><path fill="none" stroke="#000f5e" stroke-miterlimit="10" stroke-dasharray="3 2" d="M69.5 260V126"/><path fill="none" stroke="#000f5e" stroke-miterlimit="10" d="M69.5 125v-1.5H71"/><path fill="none" stroke="#000f5e" stroke-miterlimit="10" stroke-dasharray="3 2" d="M73 123.5h134"/><path fill="none" stroke="#000f5e" stroke-miterlimit="10" d="M208 123.5h1.5v1.5"/><path fill="none" stroke="#000f5e" stroke-miterlimit="10" stroke-dasharray="3 2" d="M209.5 127v134"/><path fill="#f8f4f2" d="M288.5 123.5h300v140h-300z"/><path fill="none" stroke="#000f5e" stroke-miterlimit="10" d="M588.5 262v1.5H587"/><path fill="none" stroke="#000f5e" stroke-miterlimit="10" stroke-dasharray="3 2" d="M585 263.5H291"/><path fill="none" stroke="#000f5e" stroke-miterlimit="10" d="M290 263.5h-1.5V262"/><path fill="none" stroke="#000f5e" stroke-miterlimit="10" stroke-dasharray="3 2" d="M288.5 260V126"/><path fill="none" stroke="#000f5e" stroke-miterlimit="10" d="M288.5 125v-1.5h1.5"/><path fill="none" stroke="#000f5e" stroke-miterlimit="10" stroke-dasharray="3 2" d="M292 123.5h294"/><path fill="none" stroke="#000f5e" stroke-miterlimit="10" d="M587 123.5h1.5v1.5"/><path fill="none" stroke="#000f5e" stroke-miterlimit="10" stroke-dasharray="3 2" d="M588.5 127v134"/><path fill="#f4f4f4" d="M815.83 123h133.33v140H815.83z"/><path fill="none" stroke="#000f5e" stroke-miterlimit="10" d="M947.67 123h1.5v1.5"/><path fill="none" stroke="#000f5e" stroke-miterlimit="10" stroke-dasharray="3 2" d="M949.17 126.5v134"/><path fill="none" stroke="#000f5e" stroke-miterlimit="10" d="M949.17 261.5v1.5h-1.5"/><path fill="none" stroke="#000f5e" stroke-miterlimit="10" stroke-dasharray="2.96 1.97" d="M945.69 263H818.32"/><path fill="none" stroke="#000f5e" stroke-miterlimit="10" d="M817.33 263h-1.5v-1.5"/><path fill="none" stroke="#000f5e" stroke-miterlimit="10" stroke-dasharray="3 2" d="M815.83 259.5v-134"/><path fill="none" stroke="#000f5e" stroke-miterlimit="10" d="M815.83 124.5V123h1.5"/><path fill="none" stroke="#000f5e" stroke-miterlimit="10" stroke-dasharray="2.96 1.97" d="M819.31 123h127.37"/><g clip-path="url(#a)" data-name="Artwork 23"><g clip-path="url(#b)" opacity=".65"><path d="M381.18 171.16h-29.36a14 14 0 1 0 0 12h7.36v-2h3v2h19l6-6z" fill="#b380e0"/></g><path d="M381.85 170.42h-29.2a15 15 0 1 0 0 14.14h5.63l2.36-2.36 2.36 2.36h18.86l7.07-7.07zm-.69 12.48h-17.47l-1.87-1.9-1.18-1.18-1.18 1.18-1.87 1.87h-5.94l-.47.88a13.34 13.34 0 1 1 0-12.57l.47.88h29.51l5.4 5.41z" fill="#6e177d"/><path d="M336.93 175.11a3.33 3.33 0 1 1-4.71 0 3.33 3.33 0 0 1 4.71 0M365.21 176.63h14.14v1.67h-14.14z" fill="#6e177d"/></g><g clip-path="url(#c)" data-name="Artwork 24"><g clip-path="url(#d)"><path d="M536.93 171.07h-29.36a14 14 0 1 0 0 12h7.36v-2h3v2h19l6-6z" fill="#a2c0fb"/><path fill="#000f5e" d="M520.96 178.07h14.14v.14h-14.14zM516.39 179.76l1.32 1.31h-2.62l1.3-1.31z"/><path fill="#000f5e" d="M520.97 176.54h14.14v1.67h-14.14zM492.68 175a3.33 3.33 0 1 1-4.71 0 3.31 3.31 0 0 1 4.71 0"/><path d="M485.1 168.67a13.14 13.14 0 0 0-3 6.22 13.65 13.65 0 0 1 13.33-11.82A13.5 13.5 0 0 1 508 172h-.61l-.47-.88a13.05 13.05 0 0 0-2.32-3.12 13.34 13.34 0 0 0-19.5.69M507.74 182.81a2.61 2.61 0 0 1-.11.26 13.47 13.47 0 0 1-12.2 8 13.21 13.21 0 0 1-9.63-4.19 13.34 13.34 0 0 0 18.8 0 13.08 13.08 0 0 0 2.33-3.14l.33-.62.14-.26z" fill="#000f5e"/><path d="M537.6 170.33h-29.2a15 15 0 1 0 0 14.14h5.6l2.36-2.35 2.35 2.35h18.89l7.07-7.07zm-21.21 9.43l-1.31 1.31-.15.15-1.59 1.59h-5.94l-.14.26-.33.62a13.07 13.07 0 0 1-2.33 3.14 13.34 13.34 0 0 1-18.8.05c-.25-.24-.48-.49-.71-.75a13.34 13.34 0 0 1-3-11.19 13.14 13.14 0 0 1 3-6.22 13.34 13.34 0 0 1 19.5-.69 13.07 13.07 0 0 1 2.33 3.14l.47.88h29.51l2 2 3.38 3.38-3.38 3.39-2 2h-17.47l-1.5-1.51z" fill="#000f5e"/><path d="M492.68 179.73a3.33 3.33 0 1 1 0-4.71 3.33 3.33 0 0 1 0 4.71M520.96 176.54h14.14v1.67h-14.14z" fill="#000f5e"/></g></g><g clip-path="url(#e)" data-name="Artwork 10"><g clip-path="url(#e)"><path fill="none" stroke="#000f5e" stroke-miterlimit="10" stroke-width="1.75" d="M424.5 191h15"/></g><g clip-path="url(#e)"><path fill="none" stroke="#000f5e" stroke-miterlimit="10" stroke-width="1.75" d="M432 198.5v-15"/></g></g><g clip-path="url(#f)" data-name="Artwork 16"><path d="M693.43 187a8.38 8.38 0 0 0-.11-1.32l2.68-2.34-2.28-3.74-3.2 1a8.43 8.43 0 0 0-2.62-1.55l-.7-3.05h-4.4l-.71 3.09a8.44 8.44 0 0 0-2.62 1.55l-3.2-1-2.27 3.69 2.68 2.35a7.78 7.78 0 0 0 0 2.64l-2.68 2.35 2.28 3.74 3.2-1a8.41 8.41 0 0 0 2.62 1.55l.71 3.09h4.4l.71-3.09a8.41 8.41 0 0 0 2.62-1.55l3.2 1 2.28-3.74-2.68-2.34a8.36 8.36 0 0 0 .11-1.32m-8.45 2.52a3 3 0 1 1 3-3 3 3 0 0 1-3 3" fill="#6e177d"/><path d="M679.43 172a8.38 8.38 0 0 0-.11-1.32l2.68-2.34-2.28-3.74-3.2 1a8.43 8.43 0 0 0-2.62-1.55l-.7-3.05h-4.4l-.71 3.09a8.44 8.44 0 0 0-2.62 1.55l-3.2-1-2.27 3.69 2.68 2.35a7.78 7.78 0 0 0 0 2.64l-2.68 2.35 2.28 3.74 3.2-1a8.41 8.41 0 0 0 2.62 1.55l.71 3.09h4.4l.71-3.09a8.41 8.41 0 0 0 2.62-1.55l3.2 1 2.28-3.74-2.68-2.35a8.36 8.36 0 0 0 .11-1.32m-8.45 2.53a3 3 0 1 1 3-3 3 3 0 0 1-3 3" fill="#b380e0"/><path d="M707.43 172a8.38 8.38 0 0 0-.11-1.32l2.68-2.34-2.28-3.74-3.2 1a8.43 8.43 0 0 0-2.62-1.55l-.7-3.05h-4.4l-.71 3.09a8.44 8.44 0 0 0-2.62 1.55l-3.2-1-2.27 3.69 2.68 2.35a7.78 7.78 0 0 0 0 2.64l-2.68 2.35 2.28 3.74 3.2-1a8.41 8.41 0 0 0 2.62 1.55l.71 3.09h4.4l.71-3.09a8.41 8.41 0 0 0 2.62-1.55l3.2 1 2.28-3.74-2.68-2.35a8.36 8.36 0 0 0 .11-1.32m-8.45 2.53a3 3 0 1 1 3-3 3 3 0 0 1-3 3" fill="#8747b8"/></g><g clip-path="url(#g)" data-name="Artwork 24"><g clip-path="url(#h)"><path d="M161.74 169.67h-29.36a14 14 0 1 0 0 12h7.36v-2h3v2h19l6-6z" fill="#a2c0fb"/><path fill="#000f5e" d="M145.77 176.67h14.14v.14h-14.14zM141.2 178.36l1.31 1.31h-2.62l1.31-1.31z"/><path fill="#000f5e" d="M145.77 175.14h14.14v1.67h-14.14zM117.48 173.62a3.33 3.33 0 1 1-4.71 0 3.31 3.31 0 0 1 4.71 0"/><path d="M109.91 167.27a13.14 13.14 0 0 0-3 6.22 13.65 13.65 0 0 1 13.33-11.82 13.5 13.5 0 0 1 12.58 8.93h-.61l-.47-.88a13.05 13.05 0 0 0-2.33-3.14 13.34 13.34 0 0 0-19.5.69M132.55 181.41a2.61 2.61 0 0 1-.11.26 13.47 13.47 0 0 1-12.2 8 13.21 13.21 0 0 1-9.63-4.19 13.34 13.34 0 0 0 18.8 0 13.08 13.08 0 0 0 2.33-3.14l.33-.62.14-.26z" fill="#000f5e"/><path d="M162.41 168.93h-29.2a15 15 0 1 0 0 14.14h5.63l2.36-2.35 2.35 2.35h18.86l7.07-7.07zm-21.21 9.43l-1.31 1.31-.15.15-1.59 1.59h-5.94l-.14.26-.33.62a13.07 13.07 0 0 1-2.33 3.14 13.34 13.34 0 0 1-18.8.05c-.25-.24-.48-.49-.71-.75a13.34 13.34 0 0 1-3-11.19 13.14 13.14 0 0 1 3-6.22 13.34 13.34 0 0 1 19.5-.69 13.07 13.07 0 0 1 2.33 3.14l.47.88h29.51l2 2 3.38 3.38-3.38 3.39-2 2h-17.47l-1.5-1.51z" fill="#000f5e"/><path d="M117.48 178.33a3.33 3.33 0 1 1 0-4.71 3.33 3.33 0 0 1 0 4.71M145.77 175.14h14.14v1.67h-14.14z" fill="#000f5e"/></g></g><g clip-path="url(#i)" data-name="Artwork 27"><path d="M903.94 181.94a3.34 3.34 0 0 1-2.6 1 8.65 8.65 0 0 1-1.4-.09c-.45-.1-.92-.16-1.36-.29a26.33 26.33 0 0 1-5.11-2 53 53 0 0 1-9-6.22c-1.39-1.19-2.76-2.41-4.07-3.71a26 26 0 0 1-3.49-4.32 21.1 21.1 0 0 1-2.4-5.13 14 14 0 0 1-.33-1.42 9 9 0 0 1-.09-1.49 5.21 5.21 0 0 1 .26-1.5q.18-.36.36-.69c.18-.19.37-.37.54-.53l.22.2a3 3 0 0 0 0 2.36 10.9 10.9 0 0 0 1 2.26 36.81 36.81 0 0 0 2.9 4.21 98.23 98.23 0 0 0 6.73 8 51.08 51.08 0 0 0 8.15 6.68 25 25 0 0 0 4.64 2.46c.4.17.82.27 1.24.41a8.13 8.13 0 0 0 1.26.22 2.89 2.89 0 0 0 2.36-.59z" fill="#efc100"/><path d="M912.16 151.1l-9.17-.34.32.35h-.18l-.37-.37-17.68 17.68.21.21-3.12 3.12a14.43 14.43 0 0 0-4.22-.63 13.51 13.51 0 1 0 14 13.5 13 13 0 0 0-.86-4.63l4.86-4.86-1-1 2.53-2.53 1 1 12.68-12.68.35.39.06-.8.35-.35-.3-.3z" fill="#cba9e6"/><path d="M903.2 149.49l-20.65 20.65a15 15 0 1 0 10 10l4-4v-3.33h3.33l13.33-13.33v-10zm8.33 9.31l-12.36 12.36h-4.31v4.31l-3.49 3.53-.71.71.29 1a13.35 13.35 0 1 1-8.89-8.89l1 .29.71-.71 20.16-20.16h7.64z" fill="#6e177d"/><path d="M874.74 184.57a3.33 3.33 0 1 1-3.33 3.33 3.33 3.33 0 0 1 3.33-3.33M895.82 165.653l10-9.998 1.18 1.18-9.998 9.999z" fill="#6e177d"/><path d="M909.16 149.1l-9.17-.34.32.35h-.18l-.37-.37-17.68 17.68.21.21-3.12 3.12a14.43 14.43 0 0 0-4.22-.63 13.51 13.51 0 1 0 14 13.5 13 13 0 0 0-.86-4.63l4.86-4.86-1-1 2.53-2.53 1 1 12.68-12.68.35.39.06-.8.35-.35-.3-.3z" fill="#9bc1fa"/><path d="M900.2 147.49l-20.65 20.65a15 15 0 1 0 10 10l4-4v-3.33h3.33l13.33-13.33v-10zm8.33 9.31l-12.36 12.36h-4.31v4.31l-3.49 3.53-.71.71.29 1a13.35 13.35 0 1 1-8.89-8.89l1 .29.71-.71 20.16-20.16h7.64z" fill="#000f5e"/><path d="M871.74 182.57a3.33 3.33 0 1 1-3.33 3.33 3.33 3.33 0 0 1 3.33-3.33M892.825 163.65l9.999-9.998 1.18 1.18-9.998 10z" fill="#000f5e"/><path d="M875.24 155.54a3.34 3.34 0 0 1 2.6-1 8.64 8.64 0 0 1 1.4.09c.45.1.92.16 1.36.29a26.3 26.3 0 0 1 5.11 2 53 53 0 0 1 9 6.22c1.39 1.19 2.77 2.41 4.07 3.71a25.91 25.91 0 0 1 3.49 4.32 21.11 21.11 0 0 1 2.4 5.13 14 14 0 0 1 .33 1.42 9 9 0 0 1 .09 1.49 5.25 5.25 0 0 1-.26 1.5c-.12.24-.24.47-.36.69s-.37.37-.54.53l-.22-.2a3 3 0 0 0 0-2.36 10.93 10.93 0 0 0-1-2.26 36.69 36.69 0 0 0-2.9-4.21 98.22 98.22 0 0 0-6.73-8 51.08 51.08 0 0 0-8.15-6.68 25.08 25.08 0 0 0-4.64-2.46c-.4-.17-.82-.27-1.24-.41a8.11 8.11 0 0 0-1.26-.22 2.89 2.89 0 0 0-2.36.59z" fill="#efc100"/><path d="M911.7 191.11a5.52 5.52 0 1 1-5.5-6 5.77 5.77 0 0 1 5.5 6" fill="#fff"/><path d="M911.7 183.4a6 6 0 0 0-8.61-5.39 6.23 6.23 0 0 0-3.39 5.65v2.46a8 8 0 1 0 12 0zm-10 0a4 4 0 0 1 6.27-3.24 4.33 4.33 0 0 1 1.73 3.55v.77a8 8 0 0 0-8 0zm2.82 12.41l-3.71-3.71 1.41-1.41 2.29 2.29 5.29-5.29 1.41 1.41z" fill="#5aa700"/></g><g clip-path="url(#j)" data-name="Artwork 12"><path fill="#fff" d="M152.39 160v36h-31v-48h18v12h13z"/><path d="M121.67 148.67h16.67V162h13.33v33.33h-30zM120 147v50h33.33v-36.67L140 147z" fill="#000f5e"/><path fill="#000f5e" d="M126.67 167h20v1.67h-20zM126.67 170.33h20V172h-20zM126.67 173.67h10v1.67h-10z"/><g clip-path="url(#j)"><path d="M153.39 191a5.52 5.52 0 1 1-5.5-6 5.77 5.77 0 0 1 5.5 6" fill="#fff"/><path d="M153.78 183.29a6 6 0 0 0-8.61-5.39 6.22 6.22 0 0 0-3.39 5.65V186a8 8 0 1 0 12 0zm-10 0a4 4 0 0 1 6.27-3.24 4.33 4.33 0 0 1 1.73 3.55v.77a8 8 0 0 0-8 0zm2.82 12.41l-3.7-3.7 1.41-1.41 2.29 2.29 5.29-5.29 1.41 1.41z" fill="#5aa700"/></g></g><path d="M213.51 316h312A10.51 10.51 0 0 1 536 326.51V350H203v-23.49A10.51 10.51 0 0 1 213.51 316z" fill="#b380e0" opacity=".15"/><path fill="none" stroke="#b380e0" stroke-miterlimit="10" stroke-dasharray="1 1" d="M219 258.2V274H60v-15.8"/><path fill="none" stroke="#b380e0" stroke-miterlimit="10" d="M914 263v.5"/><path fill="none" stroke="#b380e0" stroke-miterlimit="10" stroke-dasharray="0.99 0.99" d="M914 264.49v84.52"/><path fill="none" stroke="#b380e0" stroke-miterlimit="10" d="M914 349.5v.5h-.5"/><path fill="none" stroke="#b380e0" stroke-miterlimit="10" stroke-dasharray="1 1" d="M912.5 350H138"/><path fill="none" stroke="#b380e0" stroke-miterlimit="10" d="M137.5 350h-.5v-.5"/><path fill="none" stroke="#b380e0" stroke-miterlimit="10" stroke-dasharray="0.99 0.99" d="M137.01 348.51l.43-54.72"/><path fill="none" stroke="#b380e0" stroke-miterlimit="10" d="M137.44 293.3v-.5"/><path fill="#b380e0" d="M142.42 294.29l-4.92-8.67-5.05 8.6 9.97.07z"/><path fill="none" stroke="#a71c71" stroke-miterlimit="10" d="M574.05 189.5h53.77"/><circle cx="574.26" cy="189.5" r="3.76" fill="#fff"/><path d="M574.26 193.76a4.26 4.26 0 1 0-4.26-4.26 4.26 4.26 0 0 0 4.26 4.26zm0-7.52a3.26 3.26 0 1 1-3.26 3.26 3.26 3.26 0 0 1 3.26-3.26zM626.37 194.49l8.63-4.99-8.63-4.99v9.98z" fill="#a71c71"/><path fill="none" stroke="#a71c71" stroke-miterlimit="10" d="M733 189.5h52.82"/><path fill="#a71c71" d="M784.37 194.49l8.63-4.99-8.63-4.99v9.98z"/></g><g data-name="Text"><text transform="translate(221.61 338.4)" font-size="11" font-family="IBMPlexSans, IBM Plex Sans">DEK <tspan x="23.36" y="0" letter-spacing="0em">r</tspan><tspan x="27.35" y="0">eturns </tspan><tspan x="61.73" y="0" letter-spacing="0em">t</tspan><tspan x="65.55" y="0">o data se</tspan><tspan x="110.28" y="0" letter-spacing=".01em">r</tspan><tspan x="114.43" y="0">vi</tspan><tspan x="122.59" y="0" letter-spacing="-.01em">c</tspan><tspan x="128.06" y="0">e and w</tspan><tspan x="166.24" y="0" letter-spacing="0em">r</tspan><tspan x="170.23" y="0">aps the data at </tspan><tspan x="246.1" y="0" letter-spacing="0em">r</tspan><tspan x="250.08" y="0" letter-spacing="0em">e</tspan><tspan x="256.12" y="0" letter-spacing="-.01em">s</tspan><tspan x="261.4" y="0">t</tspan></text><text transform="translate(864.58 220.9)" font-size="11" font-family="IBMPlexSans, IBM Plex Sans"><tspan letter-spacing="-.01em">W<tspan x="9.69" y="0" letter-spacing="0em">r</tspan><tspan x="13.68" y="0" letter-spacing="0em">apped</tspan></tspan><tspan x="11.98" y="13.2">DEK</tspan></text><text transform="translate(675.28 220.9)" font-size="11" font-family="IBMPlexSans, IBM Plex Sans">AES<tspan x="-13.71" y="13.2">al</tspan><tspan x="-4.84" y="13.2" letter-spacing="-.01em">g</tspan><tspan x=".9" y="13.2">orithm</tspan></text><text transform="translate(477.69 221.9)" font-size="11" font-family="IBMPlexSans, IBM Plex Sans">DEK f<tspan x="26.93" y="0" letter-spacing="0em">r</tspan><tspan x="30.91" y="0" letter-spacing="0em">om data</tspan><tspan x="18.02" y="13.2">se</tspan><tspan x="29.42" y="13.2" letter-spacing=".01em">r</tspan><tspan x="33.57" y="13.2" letter-spacing="0em">vi</tspan><tspan x="41.73" y="13.2" letter-spacing="-.01em">c</tspan><tspan x="47.19" y="13.2">e</tspan></text><text transform="translate(328.32 221.9)" font-size="11" font-family="IBMPlexSans, IBM Plex Sans"><tspan letter-spacing="-.02em">R</tspan><tspan x="6.88" y="0">oot </tspan><tspan x="25.65" y="0" letter-spacing="-.02em">k</tspan><tspan x="31.26" y="0" letter-spacing="0em">e</tspan><tspan x="37.25" y="0">y in</tspan><tspan x="-1.19" y="13.2" letter-spacing="-.02em">K</tspan><tspan x="5.51" y="13.2" letter-spacing="0em">e</tspan><tspan x="11.49" y="13.2">y </tspan><tspan x="19.57" y="13.2" letter-spacing="-.01em">P</tspan><tspan x="26.13" y="13.2" letter-spacing="-.01em">r</tspan><tspan x="30.11" y="13.2">o</tspan><tspan x="36.27" y="13.2" letter-spacing="0em">t</tspan><tspan x="40.09" y="13.2">ect</tspan></text><text transform="translate(289.72 107.38)" font-size="12" font-family="IBMPlexSans-SemiBold, IBM Plex Sans" font-weight="700"><tspan letter-spacing="-.02em">K</tspan><tspan x="7.84" y="0" letter-spacing="-.01em">e</tspan><tspan x="14.46" y="0">y </tspan><tspan x="23.58" y="0" letter-spacing="-.01em">P</tspan><tspan x="31.15" y="0" letter-spacing="-.01em">r</tspan><tspan x="35.81" y="0" letter-spacing="0em">ot</tspan><tspan x="46.96" y="0">ect</tspan></text><text transform="translate(112.27 221.9)" font-size="11" font-family="IBMPlexSans, IBM Plex Sans">Enc<tspan x="18.19" y="0" letter-spacing=".01em">r</tspan><tspan x="22.34" y="0" letter-spacing="0em">y</tspan><tspan x="27.83" y="0" letter-spacing="-.01em">p</tspan><tspan x="34.14" y="0" letter-spacing="0em">t</tspan><tspan x="37.96" y="0">ed</tspan><tspan x="14.2" y="13.2">data</tspan></text><text transform="translate(70.72 107.38)" font-size="12" font-family="IBMPlexSans-SemiBold, IBM Plex Sans" font-weight="700">IBM Cloud d<tspan x="67.94" y="0" letter-spacing="0em">a</tspan><tspan x="74.6" y="0">ta se</tspan><tspan x="101.31" y="0" letter-spacing=".01em">r</tspan><tspan x="106.13" y="0">vi</tspan><tspan x="115.73" y="0" letter-spacing="-.01em">c</tspan><tspan x="121.82" y="0" letter-spacing="0em">e</tspan></text><text transform="translate(49 63)" font-size="16" fill="#272727" font-family="IBMPlexSans-Bold, IBM Plex Sans" font-weight="700"><tspan letter-spacing="-.01em">W</tspan><tspan x="15.41" y="0" letter-spacing="-.01em">r</tspan><tspan x="21.65" y="0">apping </tspan><tspan x="76.93" y="0" letter-spacing="-.03em">k</tspan><tspan x="85.73" y="0" letter-spacing="-.01em">e</tspan><tspan x="94.61" y="0" letter-spacing="-.01em">y</tspan><tspan x="103.01" y="0" letter-spacing="0em">s</tspan></text></g></svg>