<?xml version="1.0" encoding="utf-8"?>
<!-- Generator: Adobe Illustrator 21.1.0, SVG Export Plug-In . SVG Version: 6.00 Build 0)  -->
<svg version="1.1" xmlns="http://www.w3.org/2000/svg" xmlns:xlink="http://www.w3.org/1999/xlink" x="0px" y="0px"
	 viewBox="0 0 870 171" style="enable-background:new 0 0 870 171;" xml:space="preserve">
<style type="text/css">
	.st0{opacity:0.5;}
	.st1{fill:none;stroke:#A71C71;stroke-miterlimit:10;stroke-dasharray:1,1;}
	.st2{fill:#A71C71;}
	.st3{fill:#EDF5FF;stroke:#69A6FF;stroke-width:0.25;stroke-miterlimit:10;}
	.st4{fill:#EFC100;}
	.st5{fill:#5AA700;}
	.st6{fill:#E71D32;}
	.st7{fill:#868C91;}
	.st8{fill:none;stroke:#A71C71;stroke-miterlimit:10;}
	.st9{fill:#F8F4F2;}
	.st10{clip-path:url(#SVGID_2_);}
	.st11{clip-path:url(#SVGID_4_);}
	.st12{opacity:0.65;clip-path:url(#SVGID_6_);}
	.st13{clip-path:url(#SVGID_8_);fill:#B380E0;}
	.st14{clip-path:url(#SVGID_6_);fill:#6E177D;}
	.st15{fill:#FFFFFF;}
	.st16{fill:#6E177D;}
	.st17{font-family:'IBMPlexSans-SemiBold';}
	.st18{font-size:12px;}
	.st19{display:none;}
	.st20{display:inline;fill:#272727;}
	.st21{font-family:'IBMPlexSans';}
	.st22{font-size:16px;}
	.st23{font-family:'IBMPlexSans-Bold';}
</style>
<g id="Visual">
	<g class="st0">
		<g>
			<line class="st1" x1="300" y1="94.5" x2="691.3" y2="94.5"/>
			<g>
				<polygon class="st2" points="689.9,99.5 698.5,94.5 689.9,89.5 				"/>
			</g>
		</g>
	</g>
	<g class="st0">
		<g>
			<line class="st1" x1="477.5" y1="110.5" x2="691.3" y2="110.5"/>
			<g>
				<polygon class="st2" points="689.9,115.5 698.5,110.5 689.9,105.5 				"/>
			</g>
		</g>
	</g>
	<rect x="339" y="40" class="st3" width="140" height="80"/>
	<rect x="159" y="40.1" class="st3" width="140" height="80"/>
	<rect x="519" y="40" class="st3" width="140" height="80"/>
	<rect x="699" y="40" class="st3" width="140" height="80"/>
	<circle class="st4" cx="184" cy="80" r="5"/>
	<circle class="st5" cx="364" cy="79" r="5"/>
	<circle class="st6" cx="724" cy="79" r="5"/>
	<circle class="st7" cx="544" cy="79" r="5"/>
	<g>
		<line class="st2" x1="118.5" y1="79.5" x2="158.5" y2="79.5"/>
		<g>
			<line class="st8" x1="118.5" y1="79.5" x2="151.3" y2="79.5"/>
			<g>
				<polygon class="st2" points="149.9,84.5 158.5,79.5 149.9,74.5 				"/>
			</g>
		</g>
	</g>
	<g>
		<line class="st2" x1="299.5" y1="79.5" x2="339.5" y2="79.5"/>
		<g>
			<line class="st8" x1="299.5" y1="79.5" x2="332.3" y2="79.5"/>
			<g>
				<polygon class="st2" points="330.9,84.5 339.5,79.5 330.9,74.5 				"/>
			</g>
		</g>
	</g>
	<g>
		<line class="st2" x1="479" y1="78.5" x2="519" y2="78.5"/>
		<g>
			<line class="st8" x1="479" y1="78.5" x2="511.8" y2="78.5"/>
			<g>
				<polygon class="st2" points="510.4,83.5 519,78.5 510.4,73.5 				"/>
			</g>
		</g>
	</g>
	<g>
		<g>
			<line class="st8" x1="659" y1="78.5" x2="691.8" y2="78.5"/>
			<g>
				<polygon class="st2" points="690.4,83.5 699,78.5 690.4,73.5 				"/>
			</g>
		</g>
	</g>
	<circle class="st9" cx="79.9" cy="79.3" r="40"/>
	<g id="Root_key">
		<g>
			<defs>
				<rect id="SVGID_1_" x="57.4" y="68.8" width="45" height="20.9"/>
			</defs>
			<clipPath id="SVGID_2_">
				<use xlink:href="#SVGID_1_"  style="overflow:visible;"/>
			</clipPath>
			<g class="st10">
				<defs>
					<rect id="SVGID_3_" x="57.4" y="68.8" width="45" height="20.9"/>
				</defs>
				<clipPath id="SVGID_4_">
					<use xlink:href="#SVGID_3_"  style="overflow:visible;"/>
				</clipPath>
				<g class="st11">
					<defs>
						<rect id="SVGID_5_" x="57.4" y="68.8" width="45" height="20.9"/>
					</defs>
					<clipPath id="SVGID_6_">
						<use xlink:href="#SVGID_5_"  style="overflow:visible;"/>
					</clipPath>
					<g class="st12">
						<g>
							<defs>
								<rect id="SVGID_7_" x="57.9" y="69.2" width="43.3" height="19.5"/>
							</defs>
							<clipPath id="SVGID_8_">
								<use xlink:href="#SVGID_7_"  style="overflow:visible;"/>
							</clipPath>
							<path class="st13" d="M97,74.8H82.3h-5.8c-1.6-3.3-4.9-5.6-8.8-5.6c-5.4,0-9.8,4.4-9.8,9.8s4.4,9.8,9.8,9.8
								c3.9,0,7.2-2.3,8.8-5.6h5.1v-1.4h0.7h1.4v1.4H97l4.2-4.2L97,74.8z"/>
						</g>
					</g>
					<path class="st14" d="M97.4,74.3H77.1c-0.5-0.9-1.1-1.7-1.8-2.5c-4.3-4.3-11.3-4.1-15.3,0.5c-3.4,3.9-3.4,9.8,0,13.7
						c4,4.6,11,4.8,15.3,0.5c0.7-0.7,1.4-1.6,1.8-2.5l3.9,0l1.6-1.6l1.6,1.6h13.2l4.9-4.9L97.4,74.3z M97,83l-12.2,0l-1.3-1.3
						l-0.8-0.8l-0.8,0.8L80.5,83h-3.4h-0.7L76,83.6c-0.4,0.8-1,1.5-1.6,2.2c-3.8,3.8-10,3.6-13.6-0.5c-3-3.5-3-8.7,0-12.2
						c3.6-4.1,9.8-4.3,13.6-0.5c0.6,0.6,1.2,1.4,1.6,2.2l0.3,0.6h0.7l19.9,0l3.8,3.8L97,83z"/>
					<path class="st14" d="M66.1,77.6c0.9,0.9,0.9,2.4,0,3.3c-0.9,0.9-2.4,0.9-3.3,0c-0.9-0.9-0.9-2.4,0-3.3
						C63.7,76.7,65.2,76.7,66.1,77.6"/>
					<rect x="85.8" y="78.6" class="st14" width="9.9" height="1.2"/>
				</g>
			</g>
		</g>
	</g>
	<circle class="st15" cx="104" cy="106" r="6"/>
	<g>
		<path class="st16" d="M104,96c-5.5,0-10,4.5-10,10s4.5,10,10,10s10-4.5,10-10S109.6,96,104,96z M108.5,106.9h-3.6v3.6h-1.8v-3.6
			h-3.6v-1.8h3.6v-3.6h1.8v3.6h3.6V106.9z"/>
	</g>
</g>
<g id="Text">
	<text transform="matrix(1 0 0 1 198.1016 83.498)" class="st17 st18">啟動前</text>
	<text transform="matrix(1 0 0 1 378.1792 82.498)" class="st17 st18">已啟動</text>
	<text transform="matrix(1 0 0 1 558.4336 82.498)" class="st17 st18">取消啟動</text>
	<text transform="matrix(1 0 0 1 738.5996 82.498)" class="st17 st18">已破壞</text>
	<text transform="matrix(1 0 0 1 9 64)" class="st19"><tspan x="0" y="0" class="st20 st21 st22">金鑰狀態</tspan><tspan x="26.9" y="0" class="st20 st23 st22"></tspan></text>
</g>
</svg>
