<svg xmlns="http://www.w3.org/2000/svg" xmlns:xlink="http://www.w3.org/1999/xlink" viewBox="0 0 1000 400" id="svg2"><style id="style4">.st0{fill:#fff}.st1,.st2,.st3{fill:none;stroke:#d8d8d8;stroke-miterlimit:10}.st2,.st3{stroke-dasharray:3,2}.st3{stroke-dasharray:2.9929,1.9952}.st4{fill:#f4f4f4}.st5,.st6{stroke:#000f5e}.st5{fill:none;stroke-miterlimit:10}.st6{stroke-dasharray:3,2}.st10,.st6,.st8{fill:none;stroke-miterlimit:10}.st8{stroke-dasharray:2.9621,1.9747;stroke:#000f5e}.st10{stroke:#b380e0}.st13{fill:#b380e0}.st20{clip-path:url(#SVGID_6_);fill:#6e177d}.st22{clip-path:url(#SVGID_10_);fill:#000f5e}.st26{clip-path:url(#SVGID_14_)}.st33{fill:none;stroke:#a71c71;stroke-miterlimit:10}.st34{fill:#a71c71}.st36{clip-path:url(#SVGID_24_);fill:#000f5e}.st45{clip-path:url(#SVGID_32_)}.st49{clip-path:url(#SVGID_38_);fill:#000f5e}.st52{font-family:&apos;IBMPlexSans&apos;}.st53{font-size:11px}.st54{font-family:&apos;IBMPlexSans-SemiBold&apos;}.st55{font-size:12px}</style><g id="Visual"><g id="g7"><g id="g9"><path class="st0" id="rect11" d="M48.5 83.5h425v200h-425z"/><g id="g13"><path class="st1" id="polyline15" d="M473.5 282v1.5H472"/><path class="st2" id="line17" d="M470 283.5H51"/><path class="st1" id="polyline19" d="M50 283.5h-1.5V282"/><path class="st2" id="line21" d="M48.5 280V86"/><path class="st1" id="polyline23" d="M48.5 85v-1.5H50"/><path class="st2" id="line25" d="M52 83.5h419"/><path class="st1" id="polyline27" d="M472 83.5h1.5V85"/><path class="st2" id="line29" d="M473.5 87v194"/></g></g></g><g id="g31"><g id="g33"><path class="st0" id="rect35" d="M524 83.7h425v199.5H524z"/><g id="g37"><path class="st1" id="polyline39" d="M949 281.8v1.5h-1.5"/><path class="st2" id="line41" d="M945.5 283.3h-419"/><path class="st1" id="polyline43" d="M525.5 283.3H524v-1.5"/><path class="st3" id="line45" d="M524 279.8V86.2"/><path class="st1" id="polyline47" d="M524 85.2v-1.5h1.5"/><path class="st2" id="line49" d="M527.5 83.7h419"/><path class="st1" id="polyline51" d="M947.5 83.7h1.5v1.5"/><path class="st3" id="line53" d="M949 87.2v193.6"/></g></g></g><g id="g55"><g id="g57"><path class="st4" id="rect59" d="M629.5 118.5h300v140h-300z"/><g id="g61"><path class="st5" id="polyline63" d="M929.5 257v1.5H928"/><path class="st6" id="line65" d="M926 258.5H632"/><path class="st5" id="polyline67" d="M631 258.5h-1.5V257"/><path class="st6" id="line69" d="M629.5 255V121"/><path class="st5" id="polyline71" d="M629.5 120v-1.5h1.5"/><path class="st6" id="line73" d="M633 118.5h294"/><path class="st5" id="polyline75" d="M928 118.5h1.5v1.5"/><path class="st6" id="line77" d="M929.5 122v134"/></g></g></g><g id="g79"><g id="g81"><path class="st4" id="rect83" d="M70.5 120.5h300v140h-300z"/><g id="g85"><path class="st5" id="polyline87" d="M370.5 259v1.5H369"/><path class="st6" id="line89" d="M367 260.5H73"/><path class="st5" id="polyline91" d="M72 260.5h-1.5V259"/><path class="st6" id="line93" d="M70.5 257V123"/><path class="st5" id="polyline95" d="M70.5 122v-1.5H72"/><path class="st6" id="line97" d="M74 120.5h294"/><path class="st5" id="polyline99" d="M369 120.5h1.5v1.5"/><path class="st6" id="line101" d="M370.5 124v134"/></g></g></g><g id="g103"><g id="g105"><path id="rect107" fill="#edf5ff" d="M432.8 119h133.3v140H432.8z"/><g id="g109"><path class="st5" id="polyline111" d="M564.7 119h1.5v1.5"/><path class="st6" id="line113" d="M566.2 122.5v134"/><path class="st5" id="polyline115" d="M566.2 257.5v1.5h-1.5"/><path class="st8" id="line117" d="M562.7 259H435.3"/><path class="st5" id="polyline119" d="M434.3 259h-1.5v-1.5"/><path class="st6" id="line121" d="M432.8 255.5v-134"/><path class="st5" id="polyline123" d="M432.8 120.5V119h1.5"/><path class="st8" id="line125" d="M436.3 119h127.4"/></g></g></g><g id="g127"><g id="g129"><path class="st10" id="line131" d="M432.5 316h-.5"/><path id="line133" fill="none" stroke="#b380e0" stroke-miterlimit="10" stroke-dasharray="1.0036,1.0036" d="M431 316H293"/><path class="st10" id="polyline135" d="M292.5 316h-.5v-.5"/><path id="line137" fill="none" stroke="#b380e0" stroke-miterlimit="10" stroke-dasharray=".9826,.9826" d="M292 314.5l.4-42.7"/><path class="st10" id="line139" d="M292.4 271.3v-.5"/><g id="g141"><path class="st13" id="rect143" d="M432 312.8h1v6.5h-1z"/></g><g id="g145"><path class="st13" id="polygon147" d="M297.4 272.3l-5-8.7-5 8.6z"/></g></g></g><g id="g149"><g id="g151"><path class="st10" id="line153" d="M691 270.2v.5"/><path id="line155" fill="none" stroke="#b380e0" stroke-miterlimit="10" stroke-dasharray=".9961,.9961" d="M691 271.7V315"/><path class="st10" id="polyline157" d="M691 315.5v.5h-.5"/><path id="line159" fill="none" stroke="#b380e0" stroke-miterlimit="10" stroke-dasharray="1.0041,1.0041" d="M689.5 316h-122"/><path class="st10" id="line161" d="M567 316h-.5"/><g id="g163"><path class="st13" id="polygon165" d="M686 271.6l5-8.6 5 8.6z"/></g><g id="g167"><path class="st13" id="rect169" d="M566 312.8h1v6.5h-1z"/></g></g></g><g id="Root_key"><g id="g172"><defs id="defs174"><path id="SVGID_1_" d="M467.6 298.7h64.5v30h-64.5z"/></defs><clipPath id="SVGID_2_"><use xlink:href="#SVGID_1_" id="use178" overflow="visible"/></clipPath><g id="g180" clip-path="url(#SVGID_2_)"><defs id="defs182"><path id="SVGID_3_" d="M467.6 298.7h64.5v30h-64.5z"/></defs><clipPath id="SVGID_4_"><use xlink:href="#SVGID_3_" id="use186" overflow="visible"/></clipPath><g id="g188" clip-path="url(#SVGID_4_)"><defs id="defs190"><path id="SVGID_5_" d="M467.6 298.7h64.5v30h-64.5z"/></defs><clipPath id="SVGID_6_"><use xlink:href="#SVGID_5_" id="use194" overflow="visible"/></clipPath><g id="g196" clip-path="url(#SVGID_6_)" opacity=".65"><g id="g198"><defs id="defs200"><path id="SVGID_7_" d="M468.4 299.3h62v28h-62z"/></defs><clipPath id="SVGID_8_"><use xlink:href="#SVGID_7_" id="use204" overflow="visible"/></clipPath><path d="M524.4 307.3H495c-2.2-4.7-7.1-8-12.6-8-7.7 0-14 6.3-14 14s6.3 14 14 14c5.6 0 10.4-3.3 12.6-8h7.4v-2h3v2h19l6-6-6-6z" id="path206" clip-path="url(#SVGID_8_)" fill="#b380e0"/></g></g><path class="st20" d="M525.1 306.6h-29.2c-.7-1.3-1.5-2.5-2.6-3.5-6.1-6.1-16.2-5.8-21.9.8-4.9 5.6-4.9 14.1 0 19.7 5.8 6.6 15.8 6.9 21.9.8 1.1-1.1 1.9-2.3 2.6-3.5h5.6l2.4-2.4 2.4 2.4h18.9l7.1-7.1-7.2-7.2zm-.7 12.5h-17.5l-1.9-1.9-1.2-1.2-1.2 1.2-1.9 1.9h-5.9l-.5.9c-.6 1.2-1.4 2.2-2.3 3.1-5.4 5.4-14.4 5.2-19.5-.7-4.3-5-4.3-12.5 0-17.5 5.1-5.9 14.1-6.1 19.5-.7.9.9 1.7 2 2.3 3.1l.5.9h29.5l5.4 5.4-5.3 5.5z" id="path208" clip-path="url(#SVGID_6_)"/><path class="st20" d="M480.1 311.3c1.3 1.3 1.3 3.4 0 4.7-1.3 1.3-3.4 1.3-4.7 0s-1.3-3.4 0-4.7 3.4-1.3 4.7 0" id="path210" clip-path="url(#SVGID_6_)"/><path class="st20" id="rect212" clip-path="url(#SVGID_6_)" d="M508.4 312.8h14.1v1.7h-14.1z"/></g></g></g></g><g id="Ciphertext_1_"><g id="g215"><defs id="defs217"><path id="SVGID_9_" d="M855 147h35.8v52.3H855z"/></defs><clipPath id="SVGID_10_"><use xlink:href="#SVGID_9_" id="use221" overflow="visible"/></clipPath><path id="polygon223" clip-path="url(#SVGID_10_)" fill="#fff" d="M873.4 160v-12h-17v48h31v-36z"/><path class="st22" d="M856.7 148.7h16.7V162h13.3v33.3h-30v-46.6zM855 147v50h33.3v-36.7L875 147h-20z" id="path225" clip-path="url(#SVGID_10_)"/><path class="st22" id="rect227" clip-path="url(#SVGID_10_)" d="M861.7 167h20v1.7h-20z"/><path class="st22" id="rect229" clip-path="url(#SVGID_10_)" d="M861.7 170.3h20v1.7h-20z"/><path class="st22" id="rect231" clip-path="url(#SVGID_10_)" d="M861.7 173.7h10v1.7h-10z"/><g id="g233" clip-path="url(#SVGID_10_)"><defs id="defs235"><path id="SVGID_11_" d="M855 147h35.8v52.3H855z"/></defs><clipPath id="SVGID_12_"><use xlink:href="#SVGID_11_" id="use239" overflow="visible"/></clipPath><path d="M884.7 183.5c-2.2-.5-4.2-.1-5.9.8v-.8c0-1.3.5-2.5 1.5-3.3 1.9-1.5 4-1.1 5.3.2l1.4-1.4c-1.7-1.7-4.4-2.4-7-1.1-2 1.1-3.2 3.2-3.2 5.5v2.5c-1.6 1.8-2.4 4.3-1.8 7 .7 3.1 3.2 5.5 6.2 6.1 5.6 1.1 10.5-3.8 9.4-9.4-.5-2.9-2.9-5.4-5.9-6.1m2 10.1l-1.4 1.4-2.3-2.3-2.3 2.3-1.4-1.4 2.3-2.3-2.3-2.3 1.4-1.4 2.3 2.3 2.3-2.3 1.4 1.4-2.3 2.3 2.3 2.3z" id="path241" clip-path="url(#SVGID_12_)" fill="#db2663"/></g></g></g><g id="Plus_sign"><g id="g244"><defs id="defs246"><path id="SVGID_13_" d="M198.6 171h20v20h-20z"/></defs><clipPath id="SVGID_14_"><use xlink:href="#SVGID_13_" id="use250" overflow="visible"/></clipPath><g class="st26" id="g252" clip-path="url(#SVGID_14_)"><defs id="defs254"><path id="SVGID_15_" d="M198.6 171h20v20h-20z"/></defs><clipPath id="SVGID_16_"><use xlink:href="#SVGID_15_" id="use258" overflow="visible"/></clipPath><path id="line260" clip-path="url(#SVGID_16_)" fill="none" stroke="#000f5e" stroke-width="1.75" stroke-miterlimit="10" d="M198.6 181h20"/></g><g class="st26" id="g262" clip-path="url(#SVGID_14_)"><defs id="defs264"><path id="SVGID_17_" d="M198.6 171h20v20h-20z"/></defs><clipPath id="SVGID_18_"><use xlink:href="#SVGID_17_" id="use268" overflow="visible"/></clipPath><path id="line270" clip-path="url(#SVGID_18_)" fill="none" stroke="#000f5e" stroke-width="1.75" stroke-miterlimit="10" d="M208.6 191v-20"/></g></g></g><g id="AES-GCM_algorithm"><g id="g273"><defs id="defs275"><path id="SVGID_19_" d="M666.2 154.3h50v37h-50z"/></defs><clipPath id="SVGID_20_"><use xlink:href="#SVGID_19_" id="use279" overflow="visible"/></clipPath><g id="g281" clip-path="url(#SVGID_20_)"><defs id="defs283"><path id="SVGID_21_" d="M666.2 154.3h50v37h-50z"/></defs><clipPath id="SVGID_22_"><use xlink:href="#SVGID_21_" id="use287" overflow="visible"/></clipPath><path d="M699.6 180.3c0-.5 0-.9-.1-1.3l2.7-2.3-2.3-3.7-3.2 1c-.8-.7-1.6-1.2-2.6-1.5l-.7-3.1H689l-.7 3.1c-1 .4-1.9.9-2.6 1.5l-3.2-1-2.3 3.7 2.7 2.3c-.1.4-.1.9-.1 1.3 0 .5 0 .9.1 1.3l-2.7 2.3 2.3 3.7 3.2-1c.8.7 1.6 1.2 2.6 1.5l.7 3.1h4.4l.7-3.1c1-.4 1.9-.9 2.6-1.5l3.2 1 2.3-3.7-2.7-2.3c.1-.4.1-.9.1-1.3m-8.4 2.5c-1.7 0-3-1.3-3-3s1.3-3 3-3 3 1.3 3 3-1.4 3-3 3" id="path289" clip-path="url(#SVGID_22_)" fill="#001689"/><path d="M685.6 165.3c0-.5 0-.9-.1-1.3l2.7-2.3-2.3-3.7-3.2 1c-.8-.7-1.6-1.2-2.6-1.5l-.7-3.1H675l-.7 3.1c-1 .4-1.9.9-2.6 1.5l-3.2-1-2.3 3.7 2.7 2.3c-.1.4-.1.9-.1 1.3 0 .5 0 .9.1 1.3l-2.7 2.3 2.3 3.7 3.2-1c.8.7 1.6 1.2 2.6 1.5l.7 3.1h4.4l.7-3.1c1-.4 1.9-.9 2.6-1.5l3.2 1 2.3-3.7-2.7-2.3c.1-.4.1-.9.1-1.3m-8.4 2.5c-1.7 0-3-1.3-3-3s1.3-3 3-3 3 1.3 3 3-1.4 3-3 3" id="path291" clip-path="url(#SVGID_22_)" fill="#69a6ff"/><path d="M713.6 165.3c0-.5 0-.9-.1-1.3l2.7-2.3-2.3-3.7-3.2 1c-.8-.7-1.6-1.2-2.6-1.5l-.7-3.1H703l-.7 3.1c-1 .4-1.9.9-2.6 1.5l-3.2-1-2.3 3.7 2.7 2.3c-.1.4-.1.9-.1 1.3 0 .5 0 .9.1 1.3l-2.7 2.3 2.3 3.7 3.2-1c.8.7 1.6 1.2 2.6 1.5l.7 3.1h4.4l.7-3.1c1-.4 1.9-.9 2.6-1.5l3.2 1 2.3-3.7-2.7-2.3c.1-.4.1-.9.1-1.3m-8.4 2.5c-1.7 0-3-1.3-3-3s1.3-3 3-3 3 1.3 3 3-1.4 3-3 3" id="path293" clip-path="url(#SVGID_22_)" fill="#003bc9"/></g></g></g><g id="g295"><g id="g297"><path class="st33" id="line299" d="M558.9 183.5h48.7"/><g id="g301"><g id="g303"><circle class="st0" cx="559.1" cy="183.5" r="3.8" id="circle305"/><path class="st34" d="M559.1 187.8c2.3 0 4.3-1.9 4.3-4.3s-1.9-4.3-4.3-4.3c-2.3 0-4.3 1.9-4.3 4.3s1.9 4.3 4.3 4.3c2.3 0-2.4 0 0 0zm0-7.6c1.8 0 3.3 1.5 3.3 3.3s-1.5 3.3-3.3 3.3-3.3-1.5-3.3-3.3 1.5-3.3 3.3-3.3-1.8 0 0 0z" id="path307"/></g></g><g id="g309"><path class="st34" id="polygon311" d="M606.2 188.5l8.6-5-8.6-5z"/></g></g></g><g id="Plaintext"><g id="g314"><defs id="defs316"><path id="SVGID_23_" d="M482 147h35.8v52.3H482z"/></defs><clipPath id="SVGID_24_"><use xlink:href="#SVGID_23_" id="use320" overflow="visible"/></clipPath><path id="polygon322" clip-path="url(#SVGID_24_)" fill="#fff" d="M514.4 160v36h-31v-48h18v12z"/><path class="st36" d="M483.7 148.7h16.7V162h13.3v33.3h-30v-46.6zM482 147v50h33.3v-36.7L502 147h-20z" id="path324" clip-path="url(#SVGID_24_)"/><path class="st36" id="rect326" clip-path="url(#SVGID_24_)" d="M488.7 167h20v1.7h-20z"/><path class="st36" id="rect328" clip-path="url(#SVGID_24_)" d="M488.7 170.3h20v1.7h-20z"/><path class="st36" id="rect330" clip-path="url(#SVGID_24_)" d="M488.7 173.7h10v1.7h-10z"/><g id="g332" clip-path="url(#SVGID_24_)"><defs id="defs334"><path id="SVGID_25_" d="M482 147h35.8v52.3H482z"/></defs><clipPath id="SVGID_26_"><use xlink:href="#SVGID_25_" id="use338" overflow="visible"/></clipPath><path d="M515.4 191c0 3.3-2.5 6-5.5 6s-5.5-2.7-5.5-6 2.5-6 5.5-6 5.5 2.7 5.5 6" id="path340" clip-path="url(#SVGID_26_)" fill="#fff"/><path d="M515.8 183.3c0-4.1-4.4-7.4-8.6-5.4-2.1 1-3.4 3.3-3.4 5.7v2.5c-1.6 1.8-2.4 4.3-1.8 7 .7 3.1 3.1 5.5 6.2 6.1 5.1 1 9.6-2.9 9.6-7.8 0-2-.8-3.9-2-5.3v-2.8zm-10 0c0-2.9 3.4-5.3 6.3-3.2 1.1.8 1.7 2.2 1.7 3.5v.8c-1.2-.7-2.5-1.1-4-1.1s-2.8.4-4 1.1v-1.1zm2.8 12.4l-3.7-3.7 1.4-1.4 2.3 2.3 5.3-5.3 1.4 1.4-6.7 6.7z" id="path342" clip-path="url(#SVGID_26_)" fill="#5aa700"/></g></g></g><g id="g344"><g id="g346"><path class="st33" id="line348" d="M361.7 183.5h48.7"/><g id="g350"><g id="g352"><circle class="st0" cx="361.9" cy="183.5" r="3.8" id="circle354"/><path class="st34" d="M361.9 187.8c2.3 0 4.3-1.9 4.3-4.3s-1.9-4.3-4.3-4.3c-2.3 0-4.3 1.9-4.3 4.3s1.9 4.3 4.3 4.3c2.3 0-2.4 0 0 0zm0-7.6c1.8 0 3.3 1.5 3.3 3.3s-1.5 3.3-3.3 3.3c-1.8 0-3.3-1.5-3.3-3.3s1.5-3.3 3.3-3.3c1.8 0-1.8 0 0 0z" id="path356"/></g></g><g id="g358"><path class="st34" id="polygon360" d="M409 188.5l8.6-5-8.6-5z"/></g></g></g><g id="AES-GCM_algorithm_1_"><g id="g363"><defs id="defs365"><path id="SVGID_27_" d="M268.4 154.3h50v37h-50z"/></defs><clipPath id="SVGID_28_"><use xlink:href="#SVGID_27_" id="use369" overflow="visible"/></clipPath><g id="g371" clip-path="url(#SVGID_28_)"><defs id="defs373"><path id="SVGID_29_" d="M268.4 154.3h50v37h-50z"/></defs><clipPath id="SVGID_30_"><use xlink:href="#SVGID_29_" id="use377" overflow="visible"/></clipPath><path d="M301.8 180.3c0-.5 0-.9-.1-1.3l2.7-2.3-2.3-3.7-3.2 1c-.8-.7-1.6-1.2-2.6-1.5l-.7-3.1h-4.4l-.7 3.1c-1 .4-1.9.9-2.6 1.5l-3.2-1-2.3 3.7 2.7 2.3c-.1.4-.1.9-.1 1.3 0 .5 0 .9.1 1.3l-2.7 2.3 2.3 3.7 3.2-1c.8.7 1.6 1.2 2.6 1.5l.7 3.1h4.4l.7-3.1c1-.4 1.9-.9 2.6-1.5l3.2 1 2.3-3.7-2.7-2.3c.1-.4.1-.9.1-1.3m-8.4 2.5c-1.7 0-3-1.3-3-3s1.3-3 3-3 3 1.3 3 3-1.4 3-3 3" id="path379" clip-path="url(#SVGID_30_)" fill="#001689"/><path d="M287.8 165.3c0-.5 0-.9-.1-1.3l2.7-2.3-2.3-3.7-3.2 1c-.8-.7-1.6-1.2-2.6-1.5l-.7-3.1h-4.4l-.7 3.1c-1 .4-1.9.9-2.6 1.5l-3.2-1-2.3 3.7 2.7 2.3c-.1.4-.1.9-.1 1.3 0 .5 0 .9.1 1.3l-2.7 2.3 2.3 3.7 3.2-1c.8.7 1.6 1.2 2.6 1.5l.7 3.1h4.4l.7-3.1c1-.4 1.9-.9 2.6-1.5l3.2 1 2.3-3.7-2.7-2.3c.1-.4.1-.9.1-1.3m-8.4 2.5c-1.7 0-3-1.3-3-3s1.3-3 3-3 3 1.3 3 3-1.4 3-3 3" id="path381" clip-path="url(#SVGID_30_)" fill="#69a6ff"/><path d="M315.8 165.3c0-.5 0-.9-.1-1.3l2.7-2.3-2.3-3.7-3.2 1c-.8-.7-1.6-1.2-2.6-1.5l-.7-3.1h-4.4l-.7 3.1c-1 .4-1.9.9-2.6 1.5l-3.2-1-2.3 3.7 2.7 2.3c-.1.4-.1.9-.1 1.3 0 .5 0 .9.1 1.3l-2.7 2.3 2.3 3.7 3.2-1c.8.7 1.6 1.2 2.6 1.5l.7 3.1h4.4l.7-3.1c1-.4 1.9-.9 2.6-1.5l3.2 1 2.3-3.7-2.7-2.3c.1-.4.1-.9.1-1.3m-8.4 2.5c-1.7 0-3-1.3-3-3s1.3-3 3-3 3 1.3 3 3-1.4 3-3 3" id="path383" clip-path="url(#SVGID_30_)" fill="#003bc9"/></g></g></g><g id="Plus_sign_1_"><g id="g386"><defs id="defs388"><path id="SVGID_31_" d="M772 171h20v20h-20z"/></defs><clipPath id="SVGID_32_"><use xlink:href="#SVGID_31_" id="use392" overflow="visible"/></clipPath><g class="st45" id="g394" clip-path="url(#SVGID_32_)"><defs id="defs396"><path id="SVGID_33_" d="M772 171h20v20h-20z"/></defs><clipPath id="SVGID_34_"><use xlink:href="#SVGID_33_" id="use400" overflow="visible"/></clipPath><path id="line402" clip-path="url(#SVGID_34_)" fill="none" stroke="#000f5e" stroke-width="1.75" stroke-miterlimit="10" d="M772 181h20"/></g><g class="st45" id="g404" clip-path="url(#SVGID_32_)"><defs id="defs406"><path id="SVGID_35_" d="M772 171h20v20h-20z"/></defs><clipPath id="SVGID_36_"><use xlink:href="#SVGID_35_" id="use410" overflow="visible"/></clipPath><path id="line412" clip-path="url(#SVGID_36_)" fill="none" stroke="#000f5e" stroke-width="1.75" stroke-miterlimit="10" d="M782 191v-20"/></g></g></g><g id="Ciphertext"><g id="g415"><defs id="defs417"><path id="SVGID_37_" d="M106 147h35.8v52.3H106z"/></defs><clipPath id="SVGID_38_"><use xlink:href="#SVGID_37_" id="use421" overflow="visible"/></clipPath><path id="polygon423" clip-path="url(#SVGID_38_)" fill="#fff" d="M124.4 160v-12h-17v48h31v-36z"/><path class="st49" d="M107.7 148.7h16.7V162h13.3v33.3h-30v-46.6zM106 147v50h33.3v-36.7L126 147h-20z" id="path425" clip-path="url(#SVGID_38_)"/><path class="st49" id="rect427" clip-path="url(#SVGID_38_)" d="M112.7 167h20v1.7h-20z"/><path class="st49" id="rect429" clip-path="url(#SVGID_38_)" d="M112.7 170.3h20v1.7h-20z"/><path class="st49" id="rect431" clip-path="url(#SVGID_38_)" d="M112.7 173.7h10v1.7h-10z"/><g id="g433" clip-path="url(#SVGID_38_)"><defs id="defs435"><path id="SVGID_39_" d="M106 147h35.8v52.3H106z"/></defs><clipPath id="SVGID_40_"><use xlink:href="#SVGID_39_" id="use439" overflow="visible"/></clipPath><path d="M135.7 183.5c-2.2-.5-4.2-.1-5.9.8v-.8c0-1.3.5-2.5 1.5-3.3 1.9-1.5 4-1.1 5.3.2l1.4-1.4c-1.7-1.7-4.4-2.4-7-1.1-2 1.1-3.2 3.2-3.2 5.5v2.5c-1.6 1.8-2.4 4.3-1.8 7 .7 3.1 3.2 5.5 6.2 6.1 5.6 1.1 10.5-3.8 9.4-9.4-.5-2.9-2.9-5.4-5.9-6.1m2 10.1l-1.4 1.4-2.3-2.3-2.3 2.3-1.4-1.4 2.3-2.3-2.3-2.3 1.4-1.4 2.3 2.3 2.3-2.3 1.4 1.4-2.3 2.3 2.3 2.3z" id="path441" clip-path="url(#SVGID_40_)" fill="#db2663"/></g></g></g></g><g id="Text"><text id="text444" style="line-height:125%;-inkscape-font-specification:'IBMPlexSans, Normal';text-align:start" x="481.94" y="349.896" font-weight="400" font-size="11" font-family="IBMPlexSans"><tspan id="tspan4634" style="-inkscape-font-specification:Gulim" x="481.94" y="349.896" font-family="Gulim">대칭 키</tspan></text><text class="st52 st53" id="text450" x="845.014" y="219.896" font-size="11" font-family="IBMPlexSans"><tspan style="-inkscape-font-specification:Gulim" id="tspan4630" font-weight="400" font-family="Gulim">일반 텍스트</tspan></text><text id="text452" style="line-height:125%;-inkscape-font-specification:'IBMPlexSans, Normal';text-align:start" x="692.745" y="219.896" font-weight="400" font-size="11" font-family="IBMPlexSans"><tspan id="tspan4626" x="692.745" y="219.896" style="text-align:center" text-anchor="middle">AES</tspan><tspan id="tspan4628" style="-inkscape-font-specification:Gulim;text-align:center" x="692.745" y="233.082" font-family="Gulim" text-anchor="middle">알고리즘</tspan></text><text transform="translate(475.503 219.896)" class="st52 st53" id="text458"><tspan style="-inkscape-font-specification:Gulim" id="tspan4622" font-family="Gulim" font-weight="400">암호문</tspan></text><text transform="translate(548.717 107.376)" class="st54 st55" id="text460"><tspan style="-inkscape-font-specification:Gulim" id="tspan4624" font-family="Gulim" font-weight="400">복호화</tspan></text><text class="st52 st53" id="text462" x="91.523" y="219.896" font-size="11" font-family="IBMPlexSans"><tspan style="-inkscape-font-specification:Gulim" id="tspan4610" font-weight="400" font-family="Gulim">일반 텍스트</tspan></text><text transform="translate(70.717 107.376)" class="st54 st55" id="text464"><tspan style="-inkscape-font-specification:Gulim" id="tspan4608" font-family="Gulim" font-weight="400">암호화</tspan></text><text transform="translate(49 63)" id="text466" font-size="16" font-family="IBMPlexSans-Bold" fill="#272727"><tspan style="-inkscape-font-specification:Gulim" id="tspan4606" font-family="Gulim" font-weight="400">대칭 암호화</tspan></text><text id="text468" style="line-height:125%;-inkscape-font-specification:'IBMPlexSans, Normal';text-align:start" x="290.948" y="219.896" font-weight="400" font-size="11" font-family="IBMPlexSans"><tspan id="tspan4612" x="290.948" y="219.896" style="text-align:center" text-anchor="middle">AES</tspan><tspan id="tspan4614" x="290.948" y="233.082" style="-inkscape-font-specification:Gulim;text-align:center" font-family="Gulim" text-anchor="middle">알고리즘</tspan></text></g><text style="line-height:125%;-inkscape-font-specification:'Helvetica, Normal';text-align:start" x="278.435" y="222.566" id="text4618" font-weight="400" font-size="12" font-family="Helvetica" letter-spacing="0" word-spacing="0"/></svg>