<?xml version="1.0" encoding="utf-8"?>
<!-- Generator: Adobe Illustrator 21.1.0, SVG Export Plug-In . SVG Version: 6.00 Build 0)  -->
<svg version="1.1" xmlns="http://www.w3.org/2000/svg" xmlns:xlink="http://www.w3.org/1999/xlink" x="0px" y="0px"
	 viewBox="0 0 1000 400" style="enable-background:new 0 0 1000 400;" xml:space="preserve">
<style type="text/css">
	.st0{fill:#FFFFFF;}
	.st1{fill:none;stroke:#D8D8D8;stroke-miterlimit:10;}
	.st2{fill:none;stroke:#D8D8D8;stroke-miterlimit:10;stroke-dasharray:3,2;}
	.st3{fill:none;stroke:#D8D8D8;stroke-miterlimit:10;stroke-dasharray:2.9929,1.9952;}
	.st4{fill:#F4F4F4;}
	.st5{fill:none;stroke:#000F5E;stroke-miterlimit:10;}
	.st6{fill:none;stroke:#000F5E;stroke-miterlimit:10;stroke-dasharray:3,2;}
	.st7{fill:#EDF5FF;}
	.st8{fill:none;stroke:#000F5E;stroke-miterlimit:10;stroke-dasharray:2.9621,1.9747;}
	.st9{fill:none;stroke:#A71C71;stroke-miterlimit:10;stroke-dasharray:1,1;}
	.st10{fill:none;stroke:#B380E0;stroke-miterlimit:10;}
	.st11{fill:none;stroke:#B380E0;stroke-miterlimit:10;stroke-dasharray:1.0036,1.0036;}
	.st12{fill:none;stroke:#B380E0;stroke-miterlimit:10;stroke-dasharray:0.9826,0.9826;}
	.st13{fill:#B380E0;}
	.st14{fill:none;stroke:#B380E0;stroke-miterlimit:10;stroke-dasharray:0.9961,0.9961;}
	.st15{fill:none;stroke:#B380E0;stroke-miterlimit:10;stroke-dasharray:1.0041,1.0041;}
	.st16{clip-path:url(#SVGID_2_);}
	.st17{clip-path:url(#SVGID_4_);}
	.st18{opacity:0.65;clip-path:url(#SVGID_6_);}
	.st19{clip-path:url(#SVGID_8_);fill:#B380E0;}
	.st20{clip-path:url(#SVGID_6_);fill:#6E177D;}
	.st21{clip-path:url(#SVGID_10_);fill:#FFFFFF;}
	.st22{clip-path:url(#SVGID_10_);fill:#000F5E;}
	.st23{clip-path:url(#SVGID_10_);}
	.st24{clip-path:url(#SVGID_12_);fill:#DB2663;}
	.st25{clip-path:url(#SVGID_14_);fill:#000F5E;}
	.st26{clip-path:url(#SVGID_14_);}
	.st27{clip-path:url(#SVGID_16_);fill:none;stroke:#000F5E;stroke-width:1.75;stroke-miterlimit:10;}
	.st28{clip-path:url(#SVGID_18_);fill:none;stroke:#000F5E;stroke-width:1.75;stroke-miterlimit:10;}
	.st29{clip-path:url(#SVGID_20_);}
	.st30{clip-path:url(#SVGID_22_);fill:#001689;}
	.st31{clip-path:url(#SVGID_22_);fill:#69A6FF;}
	.st32{clip-path:url(#SVGID_22_);fill:#003BC9;}
	.st33{fill:none;stroke:#A71C71;stroke-miterlimit:10;}
	.st34{fill:#A71C71;}
	.st35{clip-path:url(#SVGID_24_);fill:#FFFFFF;}
	.st36{clip-path:url(#SVGID_24_);fill:#000F5E;}
	.st37{clip-path:url(#SVGID_24_);}
	.st38{clip-path:url(#SVGID_26_);fill:#FFFFFF;}
	.st39{clip-path:url(#SVGID_26_);fill:#5AA700;}
	.st40{clip-path:url(#SVGID_28_);}
	.st41{clip-path:url(#SVGID_30_);fill:#001689;}
	.st42{clip-path:url(#SVGID_30_);fill:#69A6FF;}
	.st43{clip-path:url(#SVGID_30_);fill:#003BC9;}
	.st44{clip-path:url(#SVGID_32_);fill:#000F5E;}
	.st45{clip-path:url(#SVGID_32_);}
	.st46{clip-path:url(#SVGID_34_);fill:none;stroke:#000F5E;stroke-width:1.75;stroke-miterlimit:10;}
	.st47{clip-path:url(#SVGID_36_);fill:none;stroke:#000F5E;stroke-width:1.75;stroke-miterlimit:10;}
	.st48{clip-path:url(#SVGID_38_);fill:#FFFFFF;}
	.st49{clip-path:url(#SVGID_38_);fill:#000F5E;}
	.st50{clip-path:url(#SVGID_38_);}
	.st51{clip-path:url(#SVGID_40_);fill:#DB2663;}
	.st52{font-family:'IBMPlexSans';}
	.st53{font-size:11px;}
	.st54{font-family:'IBMPlexSans-SemiBold';}
	.st55{font-size:12px;}
	.st56{fill:#272727;}
	.st57{font-family:'IBMPlexSans-Bold';}
	.st58{font-size:16px;}
</style>
<g id="Visual">
	<g>
		<g>
			<rect x="48.5" y="83.5" class="st0" width="425" height="200"/>
			<g>
				<polyline class="st1" points="473.5,282 473.5,283.5 472,283.5 				"/>
				<line class="st2" x1="470" y1="283.5" x2="51" y2="283.5"/>
				<polyline class="st1" points="50,283.5 48.5,283.5 48.5,282 				"/>
				<line class="st2" x1="48.5" y1="280" x2="48.5" y2="86"/>
				<polyline class="st1" points="48.5,85 48.5,83.5 50,83.5 				"/>
				<line class="st2" x1="52" y1="83.5" x2="471" y2="83.5"/>
				<polyline class="st1" points="472,83.5 473.5,83.5 473.5,85 				"/>
				<line class="st2" x1="473.5" y1="87" x2="473.5" y2="281"/>
			</g>
		</g>
	</g>
	<g>
		<g>
			<rect x="524" y="83.7" class="st0" width="425" height="199.5"/>
			<g>
				<polyline class="st1" points="949,281.8 949,283.3 947.5,283.3 				"/>
				<line class="st2" x1="945.5" y1="283.3" x2="526.5" y2="283.3"/>
				<polyline class="st1" points="525.5,283.3 524,283.3 524,281.8 				"/>
				<line class="st3" x1="524" y1="279.8" x2="524" y2="86.2"/>
				<polyline class="st1" points="524,85.2 524,83.7 525.5,83.7 				"/>
				<line class="st2" x1="527.5" y1="83.7" x2="946.5" y2="83.7"/>
				<polyline class="st1" points="947.5,83.7 949,83.7 949,85.2 				"/>
				<line class="st3" x1="949" y1="87.2" x2="949" y2="280.8"/>
			</g>
		</g>
	</g>
	<g>
		<g>
			<rect x="629.5" y="118.5" class="st4" width="300" height="140"/>
			<g>
				<polyline class="st5" points="929.5,257 929.5,258.5 928,258.5 				"/>
				<line class="st6" x1="926" y1="258.5" x2="632" y2="258.5"/>
				<polyline class="st5" points="631,258.5 629.5,258.5 629.5,257 				"/>
				<line class="st6" x1="629.5" y1="255" x2="629.5" y2="121"/>
				<polyline class="st5" points="629.5,120 629.5,118.5 631,118.5 				"/>
				<line class="st6" x1="633" y1="118.5" x2="927" y2="118.5"/>
				<polyline class="st5" points="928,118.5 929.5,118.5 929.5,120 				"/>
				<line class="st6" x1="929.5" y1="122" x2="929.5" y2="256"/>
			</g>
		</g>
	</g>
	<g>
		<g>
			<rect x="70.5" y="120.5" class="st4" width="300" height="140"/>
			<g>
				<polyline class="st5" points="370.5,259 370.5,260.5 369,260.5 				"/>
				<line class="st6" x1="367" y1="260.5" x2="73" y2="260.5"/>
				<polyline class="st5" points="72,260.5 70.5,260.5 70.5,259 				"/>
				<line class="st6" x1="70.5" y1="257" x2="70.5" y2="123"/>
				<polyline class="st5" points="70.5,122 70.5,120.5 72,120.5 				"/>
				<line class="st6" x1="74" y1="120.5" x2="368" y2="120.5"/>
				<polyline class="st5" points="369,120.5 370.5,120.5 370.5,122 				"/>
				<line class="st6" x1="370.5" y1="124" x2="370.5" y2="258"/>
			</g>
		</g>
	</g>
	<g>
		<g>
			<rect x="432.8" y="119" class="st7" width="133.3" height="140"/>
			<g>
				<polyline class="st5" points="564.7,119 566.2,119 566.2,120.5 				"/>
				<line class="st6" x1="566.2" y1="122.5" x2="566.2" y2="256.5"/>
				<polyline class="st5" points="566.2,257.5 566.2,259 564.7,259 				"/>
				<line class="st8" x1="562.7" y1="259" x2="435.3" y2="259"/>
				<polyline class="st5" points="434.3,259 432.8,259 432.8,257.5 				"/>
				<line class="st6" x1="432.8" y1="255.5" x2="432.8" y2="121.5"/>
				<polyline class="st5" points="432.8,120.5 432.8,119 434.3,119 				"/>
				<line class="st8" x1="436.3" y1="119" x2="563.7" y2="119"/>
			</g>
		</g>
	</g>
	<g>
		<g>
			<line class="st10" x1="432.5" y1="316" x2="432" y2="316"/>
			<line class="st11" x1="431" y1="316" x2="293" y2="316"/>
			<polyline class="st10" points="292.5,316 292,316 292,315.5 			"/>
			<line class="st12" x1="292" y1="314.5" x2="292.4" y2="271.8"/>
			<line class="st10" x1="292.4" y1="271.3" x2="292.4" y2="270.8"/>
			<g>
				<rect x="432" y="312.8" class="st13" width="1" height="6.5"/>
			</g>
			<g>
				<polygon class="st13" points="297.4,272.3 292.4,263.6 287.4,272.2 				"/>
			</g>
		</g>
	</g>
	<g>
		<g>
			<line class="st10" x1="691" y1="270.2" x2="691" y2="270.7"/>
			<line class="st14" x1="691" y1="271.7" x2="691" y2="315"/>
			<polyline class="st10" points="691,315.5 691,316 690.5,316 			"/>
			<line class="st15" x1="689.5" y1="316" x2="567.5" y2="316"/>
			<line class="st10" x1="567" y1="316" x2="566.5" y2="316"/>
			<g>
				<polygon class="st13" points="686,271.6 691,263 696,271.6 				"/>
			</g>
			<g>
				<rect x="566" y="312.8" class="st13" width="1" height="6.5"/>
			</g>
		</g>
	</g>
	<g id="Root_key">
		<g>
			<defs>
				<rect id="SVGID_1_" x="467.6" y="298.7" width="64.5" height="30"/>
			</defs>
			<clipPath id="SVGID_2_">
				<use xlink:href="#SVGID_1_"  style="overflow:visible;"/>
			</clipPath>
			<g class="st16">
				<defs>
					<rect id="SVGID_3_" x="467.6" y="298.7" width="64.5" height="30"/>
				</defs>
				<clipPath id="SVGID_4_">
					<use xlink:href="#SVGID_3_"  style="overflow:visible;"/>
				</clipPath>
				<g class="st17">
					<defs>
						<rect id="SVGID_5_" x="467.6" y="298.7" width="64.5" height="30"/>
					</defs>
					<clipPath id="SVGID_6_">
						<use xlink:href="#SVGID_5_"  style="overflow:visible;"/>
					</clipPath>
					<g class="st18">
						<g>
							<defs>
								<rect id="SVGID_7_" x="468.4" y="299.3" width="62" height="28"/>
							</defs>
							<clipPath id="SVGID_8_">
								<use xlink:href="#SVGID_7_"  style="overflow:visible;"/>
							</clipPath>
							<path class="st19" d="M524.4,307.3h-21H495c-2.2-4.7-7.1-8-12.6-8c-7.7,0-14,6.3-14,14c0,7.7,6.3,14,14,14
								c5.6,0,10.4-3.3,12.6-8h7.4v-2h1h2v2h19l6-6L524.4,307.3z"/>
						</g>
					</g>
					<path class="st20" d="M525.1,306.6h-29.2c-0.7-1.3-1.5-2.5-2.6-3.5c-6.1-6.1-16.2-5.8-21.9,0.8c-4.9,5.6-4.9,14.1,0,19.7
						c5.8,6.6,15.8,6.9,21.9,0.8c1.1-1.1,1.9-2.3,2.6-3.5l5.6,0l2.4-2.4l2.4,2.4h18.9l7.1-7.1L525.1,306.6z M524.4,319.1l-17.5,0
						l-1.9-1.9l-1.2-1.2l-1.2,1.2l-1.9,1.9h-4.9h-1l-0.5,0.9c-0.6,1.2-1.4,2.2-2.3,3.1c-5.4,5.4-14.4,5.2-19.5-0.7
						c-4.3-5-4.3-12.5,0-17.5c5.1-5.9,14.1-6.1,19.5-0.7c0.9,0.9,1.7,2,2.3,3.1l0.5,0.9h1l28.5,0l5.4,5.4L524.4,319.1z"/>
					<path class="st20" d="M480.1,311.3c1.3,1.3,1.3,3.4,0,4.7c-1.3,1.3-3.4,1.3-4.7,0s-1.3-3.4,0-4.7S478.8,310,480.1,311.3"/>
					<rect x="508.4" y="312.8" class="st20" width="14.1" height="1.7"/>
				</g>
			</g>
		</g>
	</g>
	<g id="Ciphertext_1_">
		<g>
			<defs>
				<rect id="SVGID_9_" x="855" y="147" width="35.8" height="52.3"/>
			</defs>
			<clipPath id="SVGID_10_">
				<use xlink:href="#SVGID_9_"  style="overflow:visible;"/>
			</clipPath>
			<polygon class="st21" points="873.4,160 873.4,148 856.4,148 856.4,196 870.4,196 873.4,196 887.4,196 887.4,160 			"/>
			<path class="st22" d="M856.7,148.7h16.7V162h13.3v33.3h-30V148.7z M855,147v50h33.3v-35v-1.7L875,147H855z"/>
			<rect x="861.7" y="167" class="st22" width="20" height="1.7"/>
			<rect x="861.7" y="170.3" class="st22" width="20" height="1.7"/>
			<rect x="861.7" y="173.7" class="st22" width="10" height="1.7"/>
			<g class="st23">
				<defs>
					<rect id="SVGID_11_" x="855" y="147" width="35.8" height="52.3"/>
				</defs>
				<clipPath id="SVGID_12_">
					<use xlink:href="#SVGID_11_"  style="overflow:visible;"/>
				</clipPath>
				<path class="st24" d="M884.7,183.5c-2.2-0.5-4.2-0.1-5.9,0.8v-0.8c0-1.3,0.5-2.5,1.5-3.3c1.9-1.5,4-1.1,5.3,0.2l1.4-1.4
					c-1.7-1.7-4.4-2.4-7-1.1c-2,1.1-3.2,3.2-3.2,5.5v2.5c-1.6,1.8-2.4,4.3-1.8,7c0.7,3.1,3.2,5.5,6.2,6.1c5.6,1.1,10.5-3.8,9.4-9.4
					C890.1,186.7,887.7,184.2,884.7,183.5 M886.7,193.6l-1.4,1.4l-2.3-2.3l-2.3,2.3l-1.4-1.4l2.3-2.3l-2.3-2.3l1.4-1.4l2.3,2.3
					l2.3-2.3l1.4,1.4l-2.3,2.3L886.7,193.6z"/>
			</g>
		</g>
	</g>
	<g id="Plus_sign">
		<g>
			<defs>
				<rect id="SVGID_13_" x="198.6" y="171" width="20" height="20"/>
			</defs>
			<clipPath id="SVGID_14_">
				<use xlink:href="#SVGID_13_"  style="overflow:visible;"/>
			</clipPath>
			<g class="st26">
				<defs>
					<rect id="SVGID_15_" x="198.6" y="171" width="20" height="20"/>
				</defs>
				<clipPath id="SVGID_16_">
					<use xlink:href="#SVGID_15_"  style="overflow:visible;"/>
				</clipPath>
				<line class="st27" x1="198.6" y1="181" x2="218.6" y2="181"/>
			</g>
			<g class="st26">
				<defs>
					<rect id="SVGID_17_" x="198.6" y="171" width="20" height="20"/>
				</defs>
				<clipPath id="SVGID_18_">
					<use xlink:href="#SVGID_17_"  style="overflow:visible;"/>
				</clipPath>
				<line class="st28" x1="208.6" y1="191" x2="208.6" y2="171"/>
			</g>
		</g>
	</g>
	<g id="AES-GCM_algorithm">
		<g>
			<defs>
				<rect id="SVGID_19_" x="666.2" y="154.3" width="50" height="37"/>
			</defs>
			<clipPath id="SVGID_20_">
				<use xlink:href="#SVGID_19_"  style="overflow:visible;"/>
			</clipPath>
			<g class="st29">
				<defs>
					<rect id="SVGID_21_" x="666.2" y="154.3" width="50" height="37"/>
				</defs>
				<clipPath id="SVGID_22_">
					<use xlink:href="#SVGID_21_"  style="overflow:visible;"/>
				</clipPath>
				<path class="st30" d="M699.6,180.3c0-0.5,0-0.9-0.1-1.3l2.7-2.3l-2.3-3.7l-3.2,1c-0.8-0.7-1.6-1.2-2.6-1.5l-0.7-3.1H689
					l-0.7,3.1c-1,0.4-1.9,0.9-2.6,1.5l-3.2-1l-2.3,3.7l2.7,2.3c-0.1,0.4-0.1,0.9-0.1,1.3c0,0.5,0,0.9,0.1,1.3l-2.7,2.3l2.3,3.7
					l3.2-1c0.8,0.7,1.6,1.2,2.6,1.5l0.7,3.1h4.4l0.7-3.1c1-0.4,1.9-0.9,2.6-1.5l3.2,1l2.3-3.7l-2.7-2.3
					C699.6,181.2,699.6,180.7,699.6,180.3 M691.2,182.8c-1.7,0-3-1.3-3-3s1.3-3,3-3c1.7,0,3,1.3,3,3S692.8,182.8,691.2,182.8"/>
				<path class="st31" d="M685.6,165.3c0-0.5,0-0.9-0.1-1.3l2.7-2.3l-2.3-3.7l-3.2,1c-0.8-0.7-1.6-1.2-2.6-1.5l-0.7-3.1H675
					l-0.7,3.1c-1,0.4-1.9,0.9-2.6,1.5l-3.2-1l-2.3,3.7l2.7,2.3c-0.1,0.4-0.1,0.9-0.1,1.3c0,0.5,0,0.9,0.1,1.3l-2.7,2.3l2.3,3.7
					l3.2-1c0.8,0.7,1.6,1.2,2.6,1.5l0.7,3.1h4.4l0.7-3.1c1-0.4,1.9-0.9,2.6-1.5l3.2,1l2.3-3.7l-2.7-2.3
					C685.6,166.2,685.6,165.7,685.6,165.3 M677.2,167.8c-1.7,0-3-1.3-3-3s1.3-3,3-3c1.7,0,3,1.3,3,3S678.8,167.8,677.2,167.8"/>
				<path class="st32" d="M713.6,165.3c0-0.5,0-0.9-0.1-1.3l2.7-2.3l-2.3-3.7l-3.2,1c-0.8-0.7-1.6-1.2-2.6-1.5l-0.7-3.1H703
					l-0.7,3.1c-1,0.4-1.9,0.9-2.6,1.5l-3.2-1l-2.3,3.7l2.7,2.3c-0.1,0.4-0.1,0.9-0.1,1.3c0,0.5,0,0.9,0.1,1.3l-2.7,2.3l2.3,3.7
					l3.2-1c0.8,0.7,1.6,1.2,2.6,1.5l0.7,3.1h4.4l0.7-3.1c1-0.4,1.9-0.9,2.6-1.5l3.2,1l2.3-3.7l-2.7-2.3
					C713.6,166.2,713.6,165.7,713.6,165.3 M705.2,167.8c-1.7,0-3-1.3-3-3s1.3-3,3-3c1.7,0,3,1.3,3,3S706.8,167.8,705.2,167.8"/>
			</g>
		</g>
	</g>
	<g>
		<g>
			<line class="st33" x1="558.9" y1="183.5" x2="607.6" y2="183.5"/>
			<g>
				<g>
					<circle class="st0" cx="559.1" cy="183.5" r="3.8"/>
					<path class="st34" d="M559.1,187.8c2.3,0,4.3-1.9,4.3-4.3s-1.9-4.3-4.3-4.3c-2.3,0-4.3,1.9-4.3,4.3S556.7,187.8,559.1,187.8
						C561.4,187.8,556.7,187.8,559.1,187.8z M559.1,180.2c1.8,0,3.3,1.5,3.3,3.3s-1.5,3.3-3.3,3.3s-3.3-1.5-3.3-3.3
						S557.3,180.2,559.1,180.2S557.3,180.2,559.1,180.2z"/>
				</g>
			</g>
			<g>
				<polygon class="st34" points="606.2,188.5 614.8,183.5 606.2,178.5 				"/>
			</g>
		</g>
	</g>
	<g id="Plaintext">
		<g>
			<defs>
				<rect id="SVGID_23_" x="482" y="147" width="35.8" height="52.3"/>
			</defs>
			<clipPath id="SVGID_24_">
				<use xlink:href="#SVGID_23_"  style="overflow:visible;"/>
			</clipPath>
			<polygon class="st35" points="514.4,160 514.4,196 483.4,196 483.4,148 501.4,148 501.4,160 			"/>
			<path class="st36" d="M483.7,148.7h16.7V162h13.3v33.3h-30V148.7z M482,147v50h33.3v-35v-1.7L502,147H482z"/>
			<rect x="488.7" y="167" class="st36" width="20" height="1.7"/>
			<rect x="488.7" y="170.3" class="st36" width="20" height="1.7"/>
			<rect x="488.7" y="173.7" class="st36" width="10" height="1.7"/>
			<g class="st37">
				<defs>
					<rect id="SVGID_25_" x="482" y="147" width="35.8" height="52.3"/>
				</defs>
				<clipPath id="SVGID_26_">
					<use xlink:href="#SVGID_25_"  style="overflow:visible;"/>
				</clipPath>
				<path class="st38" d="M515.4,191c0,3.3-2.5,6-5.5,6c-3,0-5.5-2.7-5.5-6s2.5-6,5.5-6C512.9,185,515.4,187.7,515.4,191"/>
				<path class="st39" d="M515.8,183.3c0-4.1-4.4-7.4-8.6-5.4c-2.1,1-3.4,3.3-3.4,5.7v2.5c-1.6,1.8-2.4,4.3-1.8,7
					c0.7,3.1,3.1,5.5,6.2,6.1c5.1,1,9.6-2.9,9.6-7.8c0-2-0.8-3.9-2-5.3V183.3z M505.8,183.3c0-2.9,3.4-5.3,6.3-3.2
					c1.1,0.8,1.7,2.2,1.7,3.5v0.8c-1.2-0.7-2.5-1.1-4-1.1c-1.5,0-2.8,0.4-4,1.1V183.3z M508.6,195.7l-3.7-3.7l1.4-1.4l2.3,2.3
					l5.3-5.3l1.4,1.4L508.6,195.7z"/>
			</g>
		</g>
	</g>
	<g>
		<g>
			<line class="st33" x1="361.7" y1="183.5" x2="410.4" y2="183.5"/>
			<g>
				<g>
					<circle class="st0" cx="361.9" cy="183.5" r="3.8"/>
					<path class="st34" d="M361.9,187.8c2.3,0,4.3-1.9,4.3-4.3s-1.9-4.3-4.3-4.3c-2.3,0-4.3,1.9-4.3,4.3S359.5,187.8,361.9,187.8
						C364.2,187.8,359.5,187.8,361.9,187.8z M361.9,180.2c1.8,0,3.3,1.5,3.3,3.3s-1.5,3.3-3.3,3.3c-1.8,0-3.3-1.5-3.3-3.3
						S360.1,180.2,361.9,180.2C363.7,180.2,360.1,180.2,361.9,180.2z"/>
				</g>
			</g>
			<g>
				<polygon class="st34" points="409,188.5 417.6,183.5 409,178.5 				"/>
			</g>
		</g>
	</g>
	<g id="AES-GCM_algorithm_1_">
		<g>
			<defs>
				<rect id="SVGID_27_" x="268.4" y="154.3" width="50" height="37"/>
			</defs>
			<clipPath id="SVGID_28_">
				<use xlink:href="#SVGID_27_"  style="overflow:visible;"/>
			</clipPath>
			<g class="st40">
				<defs>
					<rect id="SVGID_29_" x="268.4" y="154.3" width="50" height="37"/>
				</defs>
				<clipPath id="SVGID_30_">
					<use xlink:href="#SVGID_29_"  style="overflow:visible;"/>
				</clipPath>
				<path class="st41" d="M301.8,180.3c0-0.5,0-0.9-0.1-1.3l2.7-2.3l-2.3-3.7l-3.2,1c-0.8-0.7-1.6-1.2-2.6-1.5l-0.7-3.1h-4.4
					l-0.7,3.1c-1,0.4-1.9,0.9-2.6,1.5l-3.2-1l-2.3,3.7l2.7,2.3c-0.1,0.4-0.1,0.9-0.1,1.3c0,0.5,0,0.9,0.1,1.3l-2.7,2.3l2.3,3.7
					l3.2-1c0.8,0.7,1.6,1.2,2.6,1.5l0.7,3.1h4.4l0.7-3.1c1-0.4,1.9-0.9,2.6-1.5l3.2,1l2.3-3.7l-2.7-2.3
					C301.8,181.2,301.8,180.7,301.8,180.3 M293.4,182.8c-1.7,0-3-1.3-3-3s1.3-3,3-3s3,1.3,3,3S295,182.8,293.4,182.8"/>
				<path class="st42" d="M287.8,165.3c0-0.5,0-0.9-0.1-1.3l2.7-2.3l-2.3-3.7l-3.2,1c-0.8-0.7-1.6-1.2-2.6-1.5l-0.7-3.1h-4.4
					l-0.7,3.1c-1,0.4-1.9,0.9-2.6,1.5l-3.2-1l-2.3,3.7l2.7,2.3c-0.1,0.4-0.1,0.9-0.1,1.3c0,0.5,0,0.9,0.1,1.3l-2.7,2.3l2.3,3.7
					l3.2-1c0.8,0.7,1.6,1.2,2.6,1.5l0.7,3.1h4.4l0.7-3.1c1-0.4,1.9-0.9,2.6-1.5l3.2,1l2.3-3.7l-2.7-2.3
					C287.8,166.2,287.8,165.7,287.8,165.3 M279.4,167.8c-1.7,0-3-1.3-3-3s1.3-3,3-3s3,1.3,3,3S281,167.8,279.4,167.8"/>
				<path class="st43" d="M315.8,165.3c0-0.5,0-0.9-0.1-1.3l2.7-2.3l-2.3-3.7l-3.2,1c-0.8-0.7-1.6-1.2-2.6-1.5l-0.7-3.1h-4.4
					l-0.7,3.1c-1,0.4-1.9,0.9-2.6,1.5l-3.2-1l-2.3,3.7l2.7,2.3c-0.1,0.4-0.1,0.9-0.1,1.3c0,0.5,0,0.9,0.1,1.3l-2.7,2.3l2.3,3.7
					l3.2-1c0.8,0.7,1.6,1.2,2.6,1.5l0.7,3.1h4.4l0.7-3.1c1-0.4,1.9-0.9,2.6-1.5l3.2,1l2.3-3.7l-2.7-2.3
					C315.8,166.2,315.8,165.7,315.8,165.3 M307.4,167.8c-1.7,0-3-1.3-3-3s1.3-3,3-3s3,1.3,3,3S309,167.8,307.4,167.8"/>
			</g>
		</g>
	</g>
	<g id="Plus_sign_1_">
		<g>
			<defs>
				<rect id="SVGID_31_" x="772" y="171" width="20" height="20"/>
			</defs>
			<clipPath id="SVGID_32_">
				<use xlink:href="#SVGID_31_"  style="overflow:visible;"/>
			</clipPath>
			<g class="st45">
				<defs>
					<rect id="SVGID_33_" x="772" y="171" width="20" height="20"/>
				</defs>
				<clipPath id="SVGID_34_">
					<use xlink:href="#SVGID_33_"  style="overflow:visible;"/>
				</clipPath>
				<line class="st46" x1="772" y1="181" x2="792" y2="181"/>
			</g>
			<g class="st45">
				<defs>
					<rect id="SVGID_35_" x="772" y="171" width="20" height="20"/>
				</defs>
				<clipPath id="SVGID_36_">
					<use xlink:href="#SVGID_35_"  style="overflow:visible;"/>
				</clipPath>
				<line class="st47" x1="782" y1="191" x2="782" y2="171"/>
			</g>
		</g>
	</g>
	<g id="Ciphertext">
		<g>
			<defs>
				<rect id="SVGID_37_" x="106" y="147" width="35.8" height="52.3"/>
			</defs>
			<clipPath id="SVGID_38_">
				<use xlink:href="#SVGID_37_"  style="overflow:visible;"/>
			</clipPath>
			<polygon class="st48" points="124.4,160 124.4,148 107.4,148 107.4,196 121.4,196 124.4,196 138.4,196 138.4,160 			"/>
			<path class="st49" d="M107.7,148.7h16.7V162h13.3v33.3h-30V148.7z M106,147v50h33.3v-35v-1.7L126,147H106z"/>
			<rect x="112.7" y="167" class="st49" width="20" height="1.7"/>
			<rect x="112.7" y="170.3" class="st49" width="20" height="1.7"/>
			<rect x="112.7" y="173.7" class="st49" width="10" height="1.7"/>
			<g class="st50">
				<defs>
					<rect id="SVGID_39_" x="106" y="147" width="35.8" height="52.3"/>
				</defs>
				<clipPath id="SVGID_40_">
					<use xlink:href="#SVGID_39_"  style="overflow:visible;"/>
				</clipPath>
				<path class="st51" d="M135.7,183.5c-2.2-0.5-4.2-0.1-5.9,0.8v-0.8c0-1.3,0.5-2.5,1.5-3.3c1.9-1.5,4-1.1,5.3,0.2l1.4-1.4
					c-1.7-1.7-4.4-2.4-7-1.1c-2,1.1-3.2,3.2-3.2,5.5v2.5c-1.6,1.8-2.4,4.3-1.8,7c0.7,3.1,3.2,5.5,6.2,6.1c5.6,1.1,10.5-3.8,9.4-9.4
					C141.1,186.7,138.7,184.2,135.7,183.5 M137.7,193.6l-1.4,1.4l-2.3-2.3l-2.3,2.3l-1.4-1.4l2.3-2.3l-2.3-2.3l1.4-1.4l2.3,2.3
					l2.3-2.3l1.4,1.4l-2.3,2.3L137.7,193.6z"/>
			</g>
		</g>
	</g>
</g>
<g id="Text">
	<text transform="matrix(1 0 0 1 471.9395 349.8958)"><tspan x="19.3" y="13.2" class="st52 st53">Chave</tspan><tspan x="0" y="0" class="st52 st53">simétrica</tspan></text>
	<text transform="matrix(1 0 0 1 851.0143 219.8961)" class="st52 st53">Texto sem formatação</text>
	<text transform="matrix(1 0 0 1 681.2497 219.896)"><tspan x="-13.7" y="13.2" class="st52 st53">Algoritmo</tspan><tspan x="0" y="0" class="st52 st53">do AES</tspan></text>
	<text transform="matrix(1 0 0 1 475.5026 219.896)" class="st52 st53">Texto cifrado</text>
	<text transform="matrix(1 0 0 1 548.7173 107.3755)" class="st54 st55">Decriptografia</text>
	<text transform="matrix(1 0 0 1 101.5235 219.8958)" class="st52 st53">Texto sem formatação</text>
	<text transform="matrix(1 0 0 1 70.7173 107.3755)" class="st54 st55">Criptografia</text>
	<text transform="matrix(1 0 0 1 49 63)" class="st56 st57 st58">Criptografia simétrica</text>
	<text transform="matrix(1 0 0 1 283.453 219.896)"><tspan x="-13.7" y="13.2" class="st52 st53">Algoritmo</tspan><tspan x="0" y="0" class="st52 st53">do AES</tspan></text>
</g>
</svg>
